<svg width="25" height="25" viewBox="0 0 25 25" fill="none" xmlns="http://www.w3.org/2000/svg">
<path d="M9.88831 6.07544H9.93374C10.0694 6.36021 10.1967 6.64934 10.3554 6.92289C10.6733 6.91853 10.9868 6.86182 11.3042 6.84001C11.9625 6.79079 12.6253 6.79203 13.283 6.84936C13.5652 6.87117 13.8461 6.92164 14.1295 6.91977C14.2824 6.64435 14.4084 6.35709 14.5479 6.07544H14.594C15.546 6.25864 16.4884 6.50103 17.3886 6.85808C17.6292 6.96028 17.9177 7.02633 18.0668 7.25688C19.1474 8.83214 19.9324 10.613 20.2645 12.4843C20.4839 13.5965 20.4852 14.735 20.4366 15.8628C20.4212 16.008 20.4295 16.1893 20.2817 16.2753C19.3899 16.9022 18.4187 17.4244 17.3982 17.8244C17.0373 17.9671 16.6618 18.073 16.3054 18.2263H16.2274C15.9273 17.7752 15.5997 17.3378 15.3669 16.848C15.8141 16.6056 16.3208 16.471 16.7366 16.1706C16.6042 16.0697 16.4513 15.8703 16.2651 15.9787C13.9695 16.9894 11.2709 17.0835 8.90304 16.2485C8.62601 16.1582 8.36881 16.0136 8.08538 15.9413C7.94719 15.9737 7.8493 16.084 7.74437 16.1694C8.14104 16.4454 8.60361 16.6037 9.04379 16.7981C9.15959 16.838 9.04955 16.957 9.02715 17.0243C8.79875 17.4424 8.52044 17.8313 8.25429 18.2263H8.17431C7.98493 18.1484 7.79364 18.0749 7.59978 18.0095C6.43024 17.6132 5.32852 17.0411 4.31253 16.3545C4.20312 16.276 4.06621 16.1925 4.06685 16.0429C4.01567 15.5893 4.02846 15.1307 4.02334 14.6752C4.00159 12.0213 4.91969 9.40479 6.44112 7.21887C6.59659 7.01386 6.86914 6.95778 7.09626 6.85933C7.99581 6.50353 8.93694 6.25926 9.88831 6.07544ZM9.26196 11.1645C8.64648 11.2779 8.16664 11.8026 8.05339 12.3927C7.98302 12.7815 8.01628 13.2002 8.21462 13.551C8.45454 14.0097 8.94782 14.3673 9.49036 14.3605C9.92222 14.3723 10.3406 14.1567 10.6074 13.8314C11.0802 13.2557 11.1218 12.3765 10.6842 11.7702C10.3771 11.3333 9.80578 11.0592 9.26196 11.1645ZM14.7629 11.1595C14.1205 11.2598 13.6221 11.8206 13.523 12.4344C13.3918 13.0793 13.6682 13.8022 14.2485 14.1561C14.7379 14.4689 15.4347 14.4191 15.8697 14.0358C16.53 13.4999 16.6541 12.4668 16.1679 11.7839C15.8665 11.3464 15.3061 11.0667 14.7629 11.1595Z" fill="white"/>
<path d="M9.6938 0.271099C13.4201 -0.524665 17.499 0.44264 20.3294 3.0253C25.0659 7.02318 25.8902 14.7902 21.9352 19.6029C18.4472 24.3251 11.3759 25.7641 6.32491 22.7907C2.32703 20.6083 -0.184155 16.0387 0.116044 11.4928C0.278055 6.15118 4.4999 1.35277 9.6938 0.271099ZM9.20777 1.10975C4.43319 2.35819 0.773622 6.98506 0.802212 11.9407C0.716442 15.6765 2.57005 19.398 5.63398 21.5471C8.75033 23.7771 13.0103 24.2679 16.5602 22.8241C21.7589 20.8704 24.9086 14.8188 23.4458 9.44383C22.1306 3.30167 15.2117 -0.739091 9.20777 1.10975Z" fill="white"/>
</svg>
