<svg width="25" height="26" viewBox="0 0 25 26" fill="none" xmlns="http://www.w3.org/2000/svg">
<path d="M6.04657 7.3729C10.1068 7.03616 14.2166 7.19073 18.2933 7.28457C19.7383 7.21833 20.2163 8.80817 20.3097 9.97847C20.5075 12.2583 20.6064 14.6265 20.0075 16.8623C19.8097 18.1043 18.3318 18.154 17.3483 18.2147C14.0298 18.2534 10.7057 18.2589 7.38718 18.2092C6.40919 18.1374 4.89827 18.0878 4.79388 16.8071C4.25544 14.5051 4.31589 12.0983 4.56313 9.76317C4.6895 8.84129 4.94222 7.54955 6.04657 7.3729ZM10.7002 10.6354C10.6947 12.0375 10.7222 13.4397 10.7661 14.8474C12.0958 14.1573 13.4034 13.4397 14.6836 12.6613C13.3704 11.9547 12.0408 11.2757 10.7002 10.6354Z" fill="white"/>
<path d="M9.6938 1.00462C13.4201 0.208856 17.499 1.17616 20.3294 3.75882C25.0659 7.7567 25.8902 15.5237 21.9352 20.3364C18.4472 25.0586 11.3759 26.4977 6.32491 23.5243C2.32703 21.3419 -0.184155 16.7722 0.116044 12.2263C0.278055 6.8847 4.4999 2.08629 9.6938 1.00462ZM9.20777 1.84327C4.43319 3.09171 0.773622 7.71858 0.802212 12.6742C0.716442 16.41 2.57005 20.1315 5.63398 22.2806C8.75033 24.5106 13.0103 25.0014 16.5602 23.5576C21.7589 21.6039 24.9086 15.5523 23.4458 10.1773C22.1306 4.03519 15.2117 -0.00557047 9.20777 1.84327Z" fill="white"/>
</svg>
