<svg width="163" height="160" viewBox="0 0 163 160" fill="none" xmlns="http://www.w3.org/2000/svg">
<path d="M44.4925 0C57.8898 1.15904 71.4746 2.66647 84.9339 4.01813C85.1164 3.30964 84.2942 1.99315 85.2353 1.67492C87.7038 1.67827 90.2041 2.24439 92.6893 2.40518C90.9158 3.25102 88.3033 2.1171 86.4763 2.5978C85.9739 4.51391 88.2531 4.02483 88.9581 4.72662C75.7165 4.20572 62.4951 2.99978 49.2971 1.83571C47.8217 1.32654 44.5293 2.40853 44.4925 0Z" fill="#8B8C90"/>
<path d="M43.8527 1.95798C44.8961 2.02833 44.2262 0.602971 44.4925 0C44.5293 2.40853 47.8217 1.32654 49.2971 1.83571C62.4951 2.99978 75.7165 4.20572 88.9581 4.72662C88.2531 4.02483 85.9739 4.51391 86.4763 2.5978C88.3033 2.1171 90.9158 3.25102 92.6893 2.40518C93.9319 2.70499 94.6436 2.33484 94.8261 1.21432C94.7608 3.5257 94.1864 6.07158 94.446 8.2607C94.6436 7.17535 94.6821 5.142 95.0053 3.75182C95.8694 3.35151 94.8379 6.33119 95.6383 5.04151C95.7941 5.93759 95.2331 6.79347 95.3871 7.66945C100.724 8.04129 106.055 8.52869 111.385 9.01442C111.884 7.44167 111.583 5.6026 112.403 4.15882C107.84 3.41683 103.194 3.12875 98.6126 2.46716C99.3293 2.39513 100.126 2.38508 100.731 1.92951C104.722 2.34656 108.728 2.74854 112.68 3.44196C113.147 4.49548 112.362 5.60595 112.569 6.70303C120.164 7.58738 127.78 8.41144 135.395 9.15176C135.214 10.7563 136.874 10.3544 137.656 10.614C137.085 12.8684 139.767 12.0711 141.095 12.4815C138.267 12.9388 134.867 12.103 131.831 12.0762C108.073 10.1785 84.321 8.19873 60.5592 6.34459C54.9474 6.03976 49.354 5.03313 43.7305 5.41836C41.9403 5.27265 40.0563 5.50378 38.3263 4.93431C39.3244 4.43686 41.8264 5.11018 41.1532 3.28284C40.8685 0.924555 41.6405 3.45703 42.6989 2.93111C43.9817 2.61455 44.4623 4.6948 45.725 3.84226C46.3128 2.13385 45.3348 1.75866 43.8527 1.95798ZM47.6375 4.48376C46.9659 4.76347 46.0968 4.6412 45.5374 5.06496C59.273 5.52723 73.5261 7.54049 86.9 7.96089C73.8393 6.631 60.7283 5.47364 47.6375 4.48376Z" fill="#7C7C7F"/>
<path d="M94.8261 1.21432C96.8006 1.38013 98.7633 1.69167 100.731 1.92951C100.126 2.38508 99.3293 2.39513 98.6126 2.46716C97.7434 2.41021 96.8826 2.25947 96.0151 2.23267C95.8192 3.15722 95.7606 4.10523 95.6383 5.04151C94.8379 6.33119 95.8694 3.35151 95.0053 3.75182C94.6821 5.142 94.6436 7.17535 94.446 8.2607C94.1864 6.07158 94.7608 3.5257 94.8261 1.21432Z" fill="#B1AFB0"/>
<path d="M41.1532 3.28284C40.3443 1.42368 42.7994 2.00488 43.8527 1.95798C45.3348 1.75866 46.3128 2.13385 45.725 3.84226C44.4623 4.6948 43.9817 2.61455 42.6989 2.93111C41.6405 3.45703 40.8685 0.924555 41.1532 3.28284Z" fill="#555450"/>
<path d="M96.0151 2.23267C96.8826 2.25947 97.7434 2.41021 98.6126 2.46716C103.194 3.12875 107.84 3.41683 112.403 4.15882C111.583 5.6026 111.884 7.44167 111.385 9.01442C106.055 8.52869 100.724 8.04129 95.3871 7.66945C95.2331 6.79347 95.7941 5.93759 95.6383 5.04151C95.7606 4.10523 95.8192 3.15722 96.0151 2.23267Z" fill="#12150F"/>
<path d="M47.6375 4.48376C60.7283 5.47364 73.8393 6.631 86.9 7.96089C73.5261 7.54049 59.273 5.52723 45.5374 5.06496C46.0968 4.6412 46.9659 4.76347 47.6375 4.48376Z" fill="#D1CECF"/>
<path d="M36.3837 5.86389C36.1392 4.85726 37.633 5.03146 38.3263 4.93431C40.0563 5.50378 41.9403 5.27265 43.7305 5.41836C49.354 5.03313 54.9474 6.03976 60.5592 6.34459C84.321 8.19873 108.073 10.1785 131.831 12.0762C134.867 12.103 138.267 12.9388 141.095 12.4815C141.169 13.6171 138.024 13.3223 137.528 14.4763C137.515 14.3373 137.488 14.0576 137.475 13.9186C128.636 12.8952 119.263 12.5167 110.223 11.7713C109.888 13.2 112.157 12.0611 112.896 12.4446C115.287 13.1515 117.883 12.5183 120.271 13.0845C121.058 13.3056 120.028 13.2972 119.707 13.3508C118.879 13.257 118.049 13.1732 117.216 13.1364C116.155 13.118 115.1 13.0912 114.05 12.9287C113.097 12.8031 112.135 12.7763 111.178 12.7863C110.414 12.7126 109.655 12.6155 108.892 12.5669C108.436 12.5334 107.997 12.5033 107.549 12.4631C102.923 12.1767 98.296 11.6775 93.6673 11.5469C92.5134 11.3744 91.3479 11.2722 90.184 11.2638C88.8878 11.1834 87.5882 10.9406 86.2887 11.0159C74.6113 10.2271 62.9606 9.3092 51.2916 8.56554C50.4844 8.43489 51.032 6.90067 49.7944 7.36629C48.0528 7.36294 46.3128 7.10501 44.7219 6.56903C44.6432 6.56903 44.4874 6.56568 44.4087 6.56568C44.2814 6.56568 44.0269 6.56568 43.8996 6.56736C43.5077 6.57908 42.9049 6.44676 43.0891 7.04136C42.935 8.65766 42.9132 10.2874 43.1946 11.8836C42.7642 13.8767 42.7056 15.8012 43.079 17.7659C43.5546 34.6842 44.6549 51.7801 45.2645 68.6717C45.0317 68.603 44.7972 68.5377 44.5645 68.4724C44.5511 59.6506 43.6903 50.7869 43.3771 41.95C43.0874 37.349 43.1594 32.6542 42.0826 28.1654C42.1529 26.2895 41.8029 27.7702 41.8331 28.2241C41.2888 21.2095 41.3139 14.1665 40.6273 7.17033C40.0311 6.90904 38.4469 7.50029 38.807 6.39652C38.3347 5.91079 36.9565 6.46351 36.3837 5.86389Z" fill="#54534D"/>
<path d="M43.0891 7.04136C42.9049 6.44676 43.5077 6.57908 43.8996 6.56736C43.9264 14.9922 44.5444 23.402 44.9614 31.8168C45.3867 35.386 45.2226 39.101 46.2994 42.558C58.5998 42.9416 71.004 42.5463 83.1654 40.4979C84.5956 40.6754 84.2657 39.2802 84.3193 38.354C84.7413 39.6403 84.9992 41.0154 85.6322 42.2197C86.3021 42.8595 87.3052 42.9516 88.089 43.4223C88.5562 44.0906 89.4572 44.1458 90.0014 44.727C75.884 48.5894 61.291 50.2677 46.7817 51.9141C46.204 51.5138 46.3714 50.6244 46.1621 50.0499C45.0049 40.6118 44.6231 31.1518 44.1424 21.6483C43.8879 21.3703 44.5946 19.4039 43.7422 19.9684C43.63 15.6555 43.3805 11.3442 43.0891 7.04136Z" fill="#D7D9D5"/>
<path d="M43.8996 6.56736C44.0269 6.56568 44.2814 6.56568 44.4087 6.56568C44.196 13.4647 44.8257 20.3821 45.3063 27.2677C45.5542 28.0968 45.1891 29.5439 46.1001 30.0012C57.7005 32.2037 69.5387 33.7781 81.3618 32.8217C82.4052 32.9356 83.2391 31.5069 82.6446 30.656C82.6262 29.2659 82.8288 27.8673 82.7903 26.4721C82.8054 30.4819 83.2877 34.4765 84.3193 38.354C84.2657 39.2802 84.5956 40.6754 83.1654 40.4979C71.004 42.5463 58.5998 42.9416 46.2994 42.558C45.2226 39.101 45.3867 35.386 44.9614 31.8168C44.5444 23.402 43.9264 14.9922 43.8996 6.56736Z" fill="#E8EAE9"/>
<path d="M44.4087 6.56568C44.4874 6.56568 44.6432 6.56903 44.7219 6.56903C45.5542 7.88384 46.1587 9.3427 47.0899 10.5922C59.556 11.8501 72.2098 12.2571 84.7514 13.1247C84.7614 13.2503 84.7782 13.5032 84.7865 13.6288C83.3832 17.7575 82.9511 22.1374 82.7903 26.4721C82.8288 27.8673 82.6262 29.2659 82.6446 30.656C83.2391 31.5069 82.4052 32.9356 81.3618 32.8217C69.5387 33.7781 57.7005 32.2037 46.1001 30.0012C45.1891 29.5439 45.5542 28.0968 45.3063 27.2677C44.8257 20.3821 44.196 13.4647 44.4087 6.56568Z" fill="#F6F9FA"/>
<path d="M44.7219 6.56903C46.3128 7.10501 48.0528 7.36294 49.7944 7.36629C51.032 6.90067 50.4844 8.43489 51.2916 8.56554C62.9606 9.3092 74.6113 10.2271 86.2887 11.0159C85.5267 11.294 85.1466 11.9941 85.021 12.7579C84.9624 12.9756 84.8451 13.4111 84.7865 13.6288C84.7782 13.5032 84.7614 13.2503 84.7514 13.1247C72.4744 11.9489 59.6029 11.3928 47.0899 10.5922C46.1587 9.3427 45.5542 7.88384 44.7219 6.56903Z" fill="#747D84"/>
<path d="M43.0891 7.04136C43.3805 11.3442 43.63 15.6555 43.7422 19.9684C44.4137 29.1 44.474 38.2786 45.2829 47.3952C45.2226 48.4604 45.2327 49.5324 45.4403 50.5842C45.5291 56.4582 46.0733 62.3288 46.4083 68.196C45.8808 69.0938 46.7583 69.5962 47.3143 70.1473C47.053 70.2093 46.7951 70.2796 46.5355 70.3449C46.4284 70.365 46.2174 70.4036 46.1102 70.422C45.4554 70.1071 44.7303 70.1004 44.0202 70.0602C43.8377 69.7302 44.9798 69.0753 45.2645 68.6717C44.6549 51.7801 43.5546 34.6842 43.079 17.7659C42.7056 15.8012 42.7642 13.8767 43.1946 11.8836C42.9132 10.2874 42.935 8.65766 43.0891 7.04136Z" fill="#6E6F6C"/>
<path d="M84.7514 13.1247C72.4744 11.9489 59.6029 11.3928 47.0899 10.5922C59.556 11.8501 72.2098 12.2571 84.7514 13.1247Z" fill="#B7BDC1"/>
<path d="M86.2887 11.0159C87.5882 10.9406 88.8878 11.1834 90.184 11.2638C89.0301 11.9036 87.3437 11.912 86.5868 13.0627C86.5567 13.1247 86.4947 13.2453 86.4645 13.3056C85.9705 13.1481 85.2203 13.3206 85.021 12.7579C85.1466 11.9941 85.5267 11.294 86.2887 11.0159Z" fill="#20401E"/>
<path d="M90.184 11.2638C91.3479 11.2722 92.5134 11.3744 93.6673 11.5469C91.9775 11.907 90.2577 12.309 88.7387 13.1565C88.4926 13.2453 88.2464 13.3273 87.9969 13.3977C87.5933 13.0895 87.0641 13.1381 86.5868 13.0627C87.3437 11.912 89.0301 11.9036 90.184 11.2638Z" fill="#717218"/>
<path d="M93.6673 11.5469C98.296 11.6775 102.923 12.1767 107.549 12.4631C107.497 13.1012 107.5 13.7645 107.271 14.3742C104.62 14.6706 101.954 13.9085 99.3142 14.0794C99.2707 14.0425 99.1836 13.9705 99.1401 13.9337C95.9465 13.6221 92.0395 13.8951 88.7387 13.1565C90.2577 12.309 91.9775 11.907 93.6673 11.5469Z" fill="#1D3F1D"/>
<path d="M110.223 11.7713C119.263 12.5167 128.636 12.8952 137.475 13.9186C137.137 14.1815 136.869 14.6874 136.373 14.5885C130.82 14.1413 125.258 13.8164 119.707 13.3508C120.028 13.2972 121.058 13.3056 120.271 13.0845C117.883 12.5183 115.287 13.1515 112.896 12.4446C112.157 12.0611 109.888 13.2 110.223 11.7713Z" fill="#838180"/>
<path d="M107.549 95.1756C107.848 94.1857 106.668 92.9111 107.857 92.2864C107.917 96.5859 107.808 100.889 107.915 105.188C107.823 107.865 107.914 110.543 107.845 113.223C107.416 114.591 106.316 115.512 105.969 116.909C104.898 117.345 104.05 118.011 103.707 119.154C100.354 120.728 97.0618 122.326 94.2718 124.795C93.6304 125.503 93.7259 126.575 93.2804 127.394C92.8031 126.728 92.7428 125.874 92.505 125.111C92.4749 124.163 92.4766 123.215 92.4816 122.272C92.634 122.611 92.9723 123.777 93.2921 122.981C93.7426 121.134 94.384 119.253 95.6417 117.809C96.2429 117.589 96.9044 117.355 96.9898 116.621C97.2092 114.628 100.292 115.229 100.155 112.936C100.13 110.699 103.374 111.555 103.714 109.608C104.032 108.607 103.765 107.109 105.023 106.717C106.731 106.086 105.804 103.79 107.026 102.706C107.619 100.286 107.455 97.6662 107.549 95.1756Z" fill="#838180"/>
<path d="M107.549 12.4631C107.997 12.5033 108.436 12.5334 108.892 12.5669C108.796 12.587 108.605 12.6255 108.51 12.644C110.734 13.7997 114.023 14.5869 113.735 17.7977C115.006 24.2059 114.941 30.9106 113.246 37.2368C113 38.2535 112.598 36.5601 112.367 36.2469C112.02 34.6189 110.364 34.1248 109.357 33.0294C108.949 31.3964 108.768 29.6544 107.847 28.2073C107.326 27.5005 109.253 27.6965 108.508 26.7032C108.029 25.4387 107.276 24.0719 105.998 23.479C106.559 24.7017 107.245 25.9428 107.028 27.3481C104.847 26.7602 102.593 26.8423 100.358 26.8121C97.6195 26.0852 99.1417 22.5846 99.5236 20.7137C100.751 20.9147 101.702 20.0203 102.381 19.1242C101.791 18.7155 100.753 19.4006 100.011 19.3068C100.172 17.528 100.545 15.57 99.3142 14.0794C101.954 13.9085 104.62 14.6706 107.271 14.3742C107.5 13.7645 107.497 13.1012 107.549 12.4631Z" fill="#3C7435"/>
<path d="M108.51 12.644C108.605 12.6255 108.796 12.587 108.892 12.5669C109.655 12.6155 110.414 12.7126 111.178 12.7863C112.115 13.5652 113.674 13.8951 113.993 15.215C116.056 23.1273 116.029 31.7213 113.328 39.4762C106.083 44.2983 96.3417 45.1525 88.3519 41.7474C88.7672 41.5933 89.2914 41.7574 89.6431 41.4609C89.0653 41.1193 88.4105 40.8982 87.9064 40.4426C95.8242 43.8326 105.504 43.6735 112.73 38.7392C112.219 37.6807 111.667 36.607 110.901 35.7093C109.762 35.0745 108.433 34.8752 107.296 34.232C108.436 34.0963 109.7 34.6005 109.357 33.0294C110.364 34.1248 112.02 34.6189 112.367 36.2469C112.598 36.5601 113 38.2535 113.246 37.2368C114.941 30.9106 115.006 24.2059 113.735 17.7977C114.023 14.5869 110.734 13.7997 108.51 12.644Z" fill="#C3BB26"/>
<path d="M84.7865 13.6288C84.8451 13.4111 84.9624 12.9756 85.021 12.7579C85.2203 13.3206 85.9705 13.1481 86.4645 13.3056C83.6344 21.8443 83.5406 31.2808 86.3222 39.8497C86.498 40.92 87.3354 41.5681 88.3519 41.7474C96.3417 45.1525 106.083 44.2983 113.328 39.4762C116.029 31.7213 116.056 23.1273 113.993 15.215C113.674 13.8951 112.115 13.5652 111.178 12.7863C112.135 12.7763 113.097 12.8031 114.05 12.9287C115.111 13.5384 115.036 14.9453 115.383 15.9821C116.809 22.5528 117.042 29.4384 115.512 36.0124C115.049 37.4545 114.924 39.044 114.194 40.3857C109.121 44.109 102.662 45.5377 96.4455 45.3032C93.602 44.9867 90.7902 44.3703 88.089 43.4223C87.3052 42.9516 86.3021 42.8595 85.6322 42.2197C84.9992 41.0154 84.7413 39.6403 84.3193 38.354C83.2877 34.4765 82.8054 30.4819 82.7903 26.4721C82.9511 22.1374 83.3832 17.7575 84.7865 13.6288Z" fill="#3E7233"/>
<path d="M114.05 12.9287C115.1 13.0912 116.155 13.118 117.216 13.1364C119.65 12.8751 116.486 14.4127 117.787 15.2585C118.834 15.7292 120.276 14.9286 120.643 13.803C121.572 13.7327 121.318 14.2435 120.937 14.8113C120.897 16.0089 122.448 15.8146 123.252 15.5382C123.99 16.2132 124.997 16.5398 125.938 16.1027C126.908 15.5818 127.609 16.8849 128.582 16.7073C129.338 16.6085 130.17 16.2149 130.841 16.7643C131.863 17.5682 133.305 16.4393 134.298 17.3287C135.003 17.9551 135.892 17.2919 136.704 17.4158C137.843 17.3924 137.175 18.9584 137.391 19.677C137.368 19.9868 137.346 20.2967 137.326 20.6065C130.987 27.1504 123.95 33.2354 115.786 37.4009C115.644 36.9487 115.562 36.4814 115.512 36.0124C117.042 29.4384 116.809 22.5528 115.383 15.9821C115.036 14.9453 115.111 13.5384 114.05 12.9287Z" fill="#CED2D5"/>
<path d="M86.5868 13.0627C87.0641 13.1381 87.5933 13.0895 87.9969 13.3977C86.3624 15.7225 86.2083 18.9551 85.7109 21.7656C85.1633 26.4704 85.2621 31.3042 86.3825 35.922C86.8062 37.4344 86.9669 39.1529 87.9064 40.4426C88.4105 40.8982 89.0653 41.1193 89.6431 41.4609C89.2914 41.7574 88.7672 41.5933 88.3519 41.7474C87.3354 41.5681 86.498 40.92 86.3222 39.8497C83.5406 31.2808 83.6344 21.8443 86.4645 13.3056C86.4947 13.2453 86.5567 13.1247 86.5868 13.0627Z" fill="#E0D72B"/>
<path d="M87.9969 13.3977C88.2464 13.3273 88.4926 13.2453 88.7387 13.1565C92.0395 13.8951 95.9465 13.6221 99.1401 13.9337C98.1537 14.0207 100.113 16.6102 98.8822 17.0725C97.3766 16.7894 97.3214 14.746 95.8242 14.3943C96.3317 15.1496 97.5893 16.8899 95.9766 16.9803C95.0505 17.2232 94.6235 15.8163 93.6288 15.9335C95.2448 16.8815 94.4142 17.9937 93.061 18.6352C94.7273 18.6603 98.6628 16.312 98.6444 19.4307C97.2527 20.3352 95.3721 20.2431 93.9838 21.1928C93.6941 22.5411 95.8192 21.9833 96.2982 22.6784C95.6568 24.5979 95.0941 26.5692 94.8847 28.5976C93.2134 28.894 91.2524 28.7433 89.8105 29.7533C89.978 31.517 91.8134 32.6693 93.0024 33.8585C91.9424 35.4714 90.6478 32.7916 89.1775 33.9238C87.6736 33.6257 87.6368 35.1448 86.6973 35.6473C86.3791 35.2654 86.359 35.5535 86.3825 35.922C85.2621 31.3042 85.1633 26.4704 85.7109 21.7656C86.2083 18.9551 86.3624 15.7225 87.9969 13.3977Z" fill="#407B37"/>
<path d="M117.216 13.1364C118.049 13.1732 118.879 13.257 119.707 13.3508C125.258 13.8164 130.82 14.1413 136.373 14.5885C136.869 14.6874 137.137 14.1815 137.475 13.9186C137.488 14.0576 137.515 14.3373 137.528 14.4763C137.512 16.2099 137.572 17.9484 137.391 19.677C137.175 18.9584 137.843 17.3924 136.704 17.4158C135.892 17.2919 135.003 17.9551 134.298 17.3287C133.305 16.4393 131.863 17.5682 130.841 16.7643C130.17 16.2149 129.338 16.6085 128.582 16.7073C127.609 16.8849 126.908 15.5818 125.938 16.1027C124.997 16.5398 123.99 16.2132 123.252 15.5382C122.448 15.8146 120.897 16.0089 120.937 14.8113C121.318 14.2435 121.572 13.7327 120.643 13.803C120.276 14.9286 118.834 15.7292 117.787 15.2585C116.486 14.4127 119.65 12.8751 117.216 13.1364Z" fill="#A9AFB5"/>
<path d="M98.8822 17.0725C100.113 16.6102 98.1537 14.0207 99.1401 13.9337C99.1836 13.9705 99.2707 14.0425 99.3142 14.0794C100.545 15.57 100.172 17.528 100.011 19.3068C100.753 19.4006 101.791 18.7155 102.381 19.1242C101.702 20.0203 100.751 20.9147 99.5236 20.7137C99.1417 22.5846 97.6195 26.0852 100.358 26.8121C102.593 26.8423 104.847 26.7602 107.028 27.3481C107.245 25.9428 106.559 24.7017 105.998 23.479C107.276 24.0719 108.029 25.4387 108.508 26.7032C109.253 27.6965 107.326 27.5005 107.847 28.2073C108.768 29.6544 108.949 31.3964 109.357 33.0294C109.7 34.6005 108.436 34.0963 107.296 34.232C105.984 33.8618 105.259 32.7246 104.41 31.7715C101.855 31.264 99.2807 32.8435 96.7654 31.9273C95.1443 31.3863 93.5685 30.5522 91.8034 30.6761C92.418 32.3779 93.6622 33.902 95.424 34.4548C95.5479 34.8852 96.8073 35.9304 95.8761 36.0543C95.1694 35.175 93.7996 34.7596 93.0024 33.8585C91.8134 32.6693 89.978 31.517 89.8105 29.7533C91.2524 28.7433 93.2134 28.894 94.8847 28.5976C95.0941 26.5692 95.6568 24.5979 96.2982 22.6784C95.8192 21.9833 93.6941 22.5411 93.9838 21.1928C95.3721 20.2431 97.2527 20.3352 98.6444 19.4307C98.6628 16.312 94.7273 18.6603 93.061 18.6352C94.4142 17.9937 95.2448 16.8815 93.6288 15.9335C94.6235 15.8163 95.0505 17.2232 95.9766 16.9803C97.5893 16.8899 96.3317 15.1496 95.8242 14.3943C97.3214 14.746 97.3766 16.7894 98.8822 17.0725Z" fill="#E5D72A"/>
<path d="M43.7422 19.9684C44.5946 19.4039 43.8879 21.3703 44.1424 21.6483C44.6231 31.1518 45.0049 40.6118 46.1621 50.0499C46.3714 50.6244 46.204 51.5138 46.7817 51.9141C61.291 50.2677 75.884 48.5894 90.0014 44.727C89.4572 44.1458 88.5562 44.0906 88.089 43.4223C90.7902 44.3703 93.602 44.9867 96.4455 45.3032C97.4369 45.6181 99.5906 44.9481 99.9674 46.0419C90.8924 49.7233 81.2145 51.8823 71.7074 54.1434C70.4631 52.8805 68.3313 53.2859 67.8775 55.0144C61.1487 56.6994 54.2055 57.8718 47.3879 59.3106C47.0882 59.4044 46.8135 59.324 46.7566 58.9873C45.8372 55.1886 46.0918 51.209 45.2829 47.3952C44.474 38.2786 44.4137 29.1 43.7422 19.9684Z" fill="#C7C8C3"/>
<path d="M115.786 37.4009C123.95 33.2354 130.987 27.1504 137.326 20.6065C137.512 23.9614 136.9 27.2928 137.003 30.6477C126.432 38.2066 114.989 44.6165 102.828 49.2711C101.67 49.7518 100.245 49.5508 99.2439 50.3899C97.6496 51.8371 95.2883 51.7098 93.5417 52.8839C92.2907 53.641 90.8505 52.9124 89.5442 53.2356C89.3718 54.1351 89.4873 55.0697 89.4538 55.9825C89.1222 56.3041 88.6784 56.4264 88.2665 56.1701C88.1141 55.0445 88.9816 52.6678 86.9468 53.6493C86.488 54.3562 87.0055 55.6509 86.6856 56.567C85.3794 56.6876 84.0832 57.0142 82.7669 56.9858C82.6731 55.676 83.4267 53.2792 81.253 54.3193C80.8594 55.3996 81.1006 56.9975 81.1374 58.2989C80.8645 58.4815 80.5547 58.4966 80.2599 58.3592C80.6082 54.1736 74.7252 53.7833 72.6502 56.4297C71.6823 57.505 71.3859 59.0811 71.7309 60.4713C72.816 62.1412 69.9909 63.6637 70.495 61.1463C70.7361 58.6624 70.4196 56.1584 70.5251 53.6678C69.9457 53.8068 68.7634 53.4869 68.7198 54.2741C68.0734 56.1868 70.0746 59.7829 67.3282 60.478C60.596 62.3103 53.8907 64.3186 47.0915 65.8796C45.9997 60.8565 46.0231 55.676 45.4403 50.5842C45.2327 49.5324 45.2226 48.4604 45.2829 47.3952C46.0918 51.209 45.8372 55.1886 46.7566 58.9873C46.8135 59.324 47.0882 59.4044 47.3879 59.3106C54.2055 57.8718 61.1487 56.6994 67.8775 55.0144C68.3313 53.2859 70.4631 52.8805 71.7074 54.1434C81.2145 51.8823 90.8924 49.7233 99.9674 46.0419C99.5906 44.9481 97.4369 45.6181 96.4455 45.3032C102.662 45.5377 109.121 44.109 114.194 40.3857C114.924 39.044 115.049 37.4545 115.512 36.0124C115.562 36.4814 115.644 36.9487 115.786 37.4009Z" fill="#B7B9B4"/>
<path d="M41.8331 28.2241C41.8029 27.7702 42.1529 26.2895 42.0826 28.1654C43.1594 32.6542 43.0874 37.349 43.3771 41.95C43.5262 40.7257 43.0238 41.1377 42.5549 41.6083C42.1077 37.1665 42.1144 32.6827 41.8331 28.2241Z" fill="#727373"/>
<path d="M91.8034 30.6761C93.5685 30.5522 95.1443 31.3863 96.7654 31.9273C99.2807 32.8435 101.855 31.264 104.41 31.7715C105.259 32.7246 105.984 33.8618 107.296 34.232C108.433 34.8752 109.762 35.0745 110.901 35.7093C111.667 36.607 112.219 37.6807 112.73 38.7392C105.504 43.6735 95.8242 43.8326 87.9064 40.4426C86.9669 39.1529 86.8062 37.4344 86.3825 35.922C86.359 35.5535 86.3791 35.2654 86.6973 35.6473C87.6368 35.1448 87.6736 33.6257 89.1775 33.9238C90.6478 32.7916 91.9424 35.4714 93.0024 33.8585C93.7996 34.7596 95.1694 35.175 95.8761 36.0543C96.8073 35.9304 95.5479 34.8852 95.424 34.4548C93.6622 33.902 92.418 32.3779 91.8034 30.6761Z" fill="#396D30"/>
<path d="M102.828 49.2711C114.989 44.6165 126.432 38.2066 137.003 30.6477C137.051 32.604 136.803 34.5519 136.83 36.5099C127.84 41.7758 118.71 47.36 109.014 50.9745C108.505 51.2257 107.321 50.7752 107.317 51.5925C106.894 52.0749 107.823 55.0646 106.746 53.9408C106.659 52.4769 106.216 50.6596 104.579 50.2359C102.905 49.9796 101.181 50.1906 99.5236 50.5038C99.4784 51.4786 99.4951 52.4585 99.48 53.435C99.3377 54.8335 97.3298 56.5503 96.1508 55.2941C96.1994 54.1133 96.536 51.8321 94.7893 52.7918C94.4343 54.1585 94.7541 55.8552 94.6252 57.3476C92.8735 56.0662 92.0864 52.9693 89.5442 53.2356C90.8505 52.9124 92.2907 53.641 93.5417 52.8839C95.2883 51.7098 97.6496 51.8371 99.2439 50.3899C100.245 49.5508 101.67 49.7518 102.828 49.2711Z" fill="#A4A5A1"/>
<path d="M109.014 50.9745C118.71 47.36 127.84 41.7758 136.83 36.5099C136.89 38.2468 136.592 39.9719 136.663 41.7105C131.16 44.0018 126.327 47.968 120.557 49.5759C119.849 49.7049 119.127 49.7501 118.436 49.9545C117.91 52.8671 118.219 48.9947 116.536 50.065C115.404 50.333 114.235 50.343 113.09 50.5089C113.067 51.6646 113.05 52.8219 112.897 53.9709C112.398 54.403 111.789 54.3662 111.434 53.7867C111.253 52.2658 107.818 55.0211 108.543 52.6544C109.441 52.0163 111.085 52.43 112.206 51.9124C112.966 49.5927 110.148 51.2911 109.014 50.9745Z" fill="#8F918B"/>
<path d="M42.5549 41.6083C43.0238 41.1377 43.5262 40.7257 43.3771 41.95C43.6903 50.7869 44.5511 59.6506 44.5645 68.4724C43.414 68.5444 43.9599 67.0638 43.7606 66.362C43.3403 58.1113 42.8613 49.864 42.5549 41.6083Z" fill="#96989A"/>
<path d="M120.557 49.5759C126.327 47.968 131.16 44.0018 136.663 41.7105C136.587 45.9598 136.569 50.2258 136.14 54.46C127.847 55.8435 119.46 56.6592 111.221 58.1716C106.485 58.6808 101.816 59.7377 97.0836 60.3071C97.6597 59.7293 98.6393 59.8331 99.187 59.2251C99.3327 58.4764 99.346 57.7043 99.4566 56.9523C99.6827 57.6742 98.8554 59.6573 100.411 58.9186C103.439 59.0242 106.686 57.2856 106.746 53.9408C107.823 55.0646 106.894 52.0749 107.317 51.5925C107.446 53.6728 107.354 55.7547 107.207 57.8283C108.781 57.2822 112.397 58.3508 112.241 55.8217C111.052 55.47 108.019 57.4464 108.58 55.197C109.33 54.5454 111.697 55.4666 111.434 53.7867C111.789 54.3662 112.398 54.403 112.897 53.9709C113.244 54.8452 111.991 57.5787 113.808 56.907C115.081 56.423 118.002 57.232 117.593 55.1584C116.702 54.4801 113.499 56.6491 114.088 54.3545C115.15 53.9893 117.242 54.5387 116.751 52.8085C116.091 52.1302 113.51 54.0496 114.237 51.8186C115.131 51.4636 116.505 51.6796 117.568 51.2425C117.844 50.3213 117.536 49.8154 116.536 50.065C118.219 48.9947 117.91 52.8671 118.436 49.9545C118.459 52.0247 118.097 54.0898 118.281 56.1584C120.373 56.8635 118.62 54.0781 119.839 53.6828C121.433 52.9743 121.135 55.9088 122.543 55.6056C124.282 55.5554 121.676 53.9424 122.281 53.1586C124.056 51.9091 123.036 48.5593 120.557 49.5759ZM127.209 48.8792C126.139 49.0617 125.04 49.0785 123.984 49.323C123.614 51.3028 123.818 53.3244 123.791 55.3243C125.122 55.1367 126.595 55.0345 127.815 54.661C128.862 52.3412 125.511 54.4952 124.784 53.8135C124.245 51.9912 127.082 53.2122 127.303 52.1319C127.899 50.2995 125.387 52.0716 124.952 51.2977C124.422 49.8171 126.107 50.3447 126.96 50.1404C128.174 50.9494 128.606 47.9395 127.209 48.8792Z" fill="#7C7D72"/>
<path d="M127.209 48.8792C128.606 47.9395 128.174 50.9494 126.96 50.1404C126.107 50.3447 124.422 49.8171 124.952 51.2977C125.387 52.0716 127.899 50.2995 127.303 52.1319C127.082 53.2122 124.245 51.9912 124.784 53.8135C125.511 54.4952 128.862 52.3412 127.815 54.661C126.595 55.0345 125.122 55.1367 123.791 55.3243C123.818 53.3244 123.614 51.3028 123.984 49.323C125.04 49.0785 126.139 49.0617 127.209 48.8792Z" fill="#203E1B"/>
<path d="M118.436 49.9545C119.127 49.7501 119.849 49.7049 120.557 49.5759C123.036 48.5593 124.056 51.9091 122.281 53.1586C121.676 53.9424 124.282 55.5554 122.543 55.6056C121.135 55.9088 121.433 52.9743 119.839 53.6828C118.62 54.0781 120.373 56.8635 118.281 56.1584C118.097 54.0898 118.459 52.0247 118.436 49.9545ZM121.18 50.8941C120.541 51.0733 119.296 50.5859 119.584 51.6327C119.038 53.2373 120.891 51.9275 121.495 52.1905C122.404 52.0598 122.361 50.1923 121.18 50.8941Z" fill="#203F1B"/>
<path d="M99.5236 50.5038C101.181 50.1906 102.905 49.9796 104.579 50.2359C106.216 50.6596 106.659 52.4769 106.746 53.9408C106.686 57.2856 103.439 59.0242 100.411 58.9186C98.8554 59.6573 99.6827 57.6742 99.4566 56.9523C99.4984 55.7798 99.5085 54.6074 99.48 53.435C99.4951 52.4585 99.4784 51.4786 99.5236 50.5038ZM102.424 51.5574C99.4666 51.0515 101.325 54.8854 100.835 56.49C100.329 58.1297 102.471 56.959 103.204 57.0126C106.455 56.5134 105.946 50.4904 102.424 51.5574Z" fill="#2A4E23"/>
<path d="M113.09 50.5089C114.235 50.343 115.404 50.333 116.536 50.065C117.536 49.8154 117.844 50.3213 117.568 51.2425C116.505 51.6796 115.131 51.4636 114.237 51.8186C113.51 54.0496 116.091 52.1302 116.751 52.8085C117.242 54.5387 115.15 53.9893 114.088 54.3545C113.499 56.6491 116.702 54.4801 117.593 55.1584C118.002 57.232 115.081 56.423 113.808 56.907C111.991 57.5787 113.244 54.8452 112.897 53.9709C113.05 52.8219 113.067 51.6646 113.09 50.5089Z" fill="#23431D"/>
<path d="M45.4403 50.5842C46.0231 55.676 45.9997 60.8565 47.0915 65.8796C53.8907 64.3186 60.596 62.3103 67.3282 60.478C70.0746 59.7829 68.0734 56.1868 68.7198 54.2741C68.6495 56.6742 69.4466 59.3558 68.4602 61.6354C67.1808 63.6134 62.7078 61.0676 63.8415 64.3588C65.7992 64.4442 67.9428 64.2834 69.5555 63.0389C71.0576 63.2299 72.7357 62.9552 74.1273 63.3538C65.2801 66.0404 56.0125 66.903 46.904 68.536C46.6729 68.5997 46.569 68.3032 46.4083 68.196C46.0733 62.3288 45.5291 56.4582 45.4403 50.5842Z" fill="#AAABA2"/>
<path d="M109.014 50.9745C110.148 51.2911 112.966 49.5927 112.206 51.9124C111.085 52.43 109.441 52.0163 108.543 52.6544C107.818 55.0211 111.253 52.2658 111.434 53.7867C111.697 55.4666 109.33 54.5454 108.58 55.197C108.019 57.4464 111.052 55.47 112.241 55.8217C112.397 58.3508 108.781 57.2822 107.207 57.8283C107.354 55.7547 107.446 53.6728 107.317 51.5925C107.321 50.7752 108.505 51.2257 109.014 50.9745Z" fill="#264820"/>
<path d="M121.18 50.8941C122.361 50.1923 122.404 52.0598 121.495 52.1905C120.891 51.9275 119.038 53.2373 119.584 51.6327C119.296 50.5859 120.541 51.0733 121.18 50.8941Z" fill="#787B6D"/>
<path d="M102.424 51.5574C105.946 50.4904 106.455 56.5134 103.204 57.0126C102.471 56.959 100.329 58.1297 100.835 56.49C101.325 54.8854 99.4666 51.0515 102.424 51.5574Z" fill="#98998E"/>
<path d="M94.7893 52.7918C96.536 51.8321 96.1994 54.1133 96.1508 55.2941C95.6903 56.696 97.3582 60.0777 94.796 59.7913C93.3608 58.6238 92.3342 56.9004 90.9727 55.5989C90.39 57.1298 92.3594 60.9989 89.4655 60.5182C89.4186 59.0057 89.4555 57.4933 89.4538 55.9825C89.4873 55.0697 89.3718 54.1351 89.5442 53.2356C92.0864 52.9693 92.8735 56.0662 94.6252 57.3476C94.7541 55.8552 94.4343 54.1585 94.7893 52.7918Z" fill="#2D5326"/>
<path d="M86.9468 53.6493C88.9816 52.6678 88.1141 55.0445 88.2665 56.1701C87.8461 57.7814 89.5325 61.3908 86.7861 60.9972C86.7526 60.0542 86.7995 59.1096 86.7526 58.1699C85.4229 58.2587 84.058 58.324 82.7786 58.7227C82.6664 60.0459 83.4401 62.2048 81.3886 61.7978C81.0336 60.9403 81.3786 59.4027 81.1374 58.2989C81.1006 56.9975 80.8594 55.3996 81.253 54.3193C83.4267 53.2792 82.6731 55.676 82.7669 56.9858C84.0832 57.0142 85.3794 56.6876 86.6856 56.567C87.0055 55.6509 86.488 54.3562 86.9468 53.6493Z" fill="#2E5727"/>
<path d="M96.1508 55.2941C97.3298 56.5503 99.3377 54.8335 99.48 53.435C99.5085 54.6074 99.4984 55.7798 99.4566 56.9523C99.346 57.7043 99.3327 58.4764 99.187 59.2251C98.6393 59.8331 97.6597 59.7293 97.0836 60.3071C94.513 60.9453 91.6058 60.7426 89.2143 61.8363C90.9962 61.8313 92.7261 61.3506 94.4795 61.1061C94.8144 61.6421 93.5919 61.5935 93.3039 61.8363C86.7978 63.1059 80.2599 64.1997 73.7773 65.6066C72.7708 65.9432 71.3557 65.5513 70.6658 66.5496C65.7707 67.4423 60.8372 68.1257 55.9455 69.0335C53.2744 69.4556 50.5933 69.8274 47.9406 70.3466C47.7313 70.2779 47.5219 70.2126 47.3143 70.1473C46.7583 69.5962 45.8808 69.0938 46.4083 68.196C46.569 68.3032 46.6729 68.5997 46.904 68.536C56.0125 66.903 65.2801 66.0404 74.1273 63.3538C72.7357 62.9552 71.0576 63.2299 69.5555 63.0389C69.949 62.451 70.2823 61.8213 70.495 61.1463C69.9909 63.6637 72.816 62.1412 71.7309 60.4713C73.1526 64.9182 80.4374 62.6537 80.2599 58.3592C80.5547 58.4966 80.8645 58.4815 81.1374 58.2989C81.3786 59.4027 81.0336 60.9403 81.3886 61.7978C83.4401 62.2048 82.6664 60.0459 82.7786 58.7227C84.058 58.324 85.4229 58.2587 86.7526 58.1699C86.7995 59.1096 86.7526 60.0542 86.7861 60.9972C89.5325 61.3908 87.8461 57.7814 88.2665 56.1701C88.6784 56.4264 89.1222 56.3041 89.4538 55.9825C89.4555 57.4933 89.4186 59.0057 89.4655 60.5182C92.3594 60.9989 90.39 57.1298 90.9727 55.5989C92.3342 56.9004 93.3608 58.6238 94.796 59.7913C97.3582 60.0777 95.6903 56.696 96.1508 55.2941ZM87.8562 62.2785C78.2436 63.6737 68.6846 65.3989 59.1039 66.9901C57.2015 66.5429 59.0269 67.9917 59.4673 67.372C69.1904 66.032 78.8683 64.2985 88.5009 62.4108C89.2378 62.178 88.1626 61.9854 87.8562 62.2785Z" fill="#98978F"/>
<path d="M68.7198 54.2741C68.7634 53.4869 69.9457 53.8068 70.5251 53.6678C70.4196 56.1584 70.7361 58.6624 70.495 61.1463C70.2823 61.8213 69.949 62.451 69.5555 63.0389C67.9428 64.2834 65.7992 64.4442 63.8415 64.3588C62.7078 61.0676 67.1808 63.6134 68.4602 61.6354C69.4466 59.3558 68.6495 56.6742 68.7198 54.2741Z" fill="#305A27"/>
<path d="M111.221 58.1716C119.46 56.6592 127.847 55.8435 136.14 54.46C136.477 54.8519 136.813 55.2422 137.128 55.6559C136.622 55.7262 136.118 55.8284 135.624 55.9339C135.301 55.9959 134.981 56.0729 134.661 56.1416L134.504 56.155C133.496 56.289 132.28 56.16 131.466 56.8166C128.46 57.5519 125.36 57.7747 122.326 58.3709C121.209 58.4111 119.998 59.2402 119.003 58.4011C118.027 57.5904 118 59.2821 117.203 58.716C115.456 57.8383 113.52 59.8817 112.005 58.6506C111.737 58.5786 111.461 58.5502 111.189 58.5016C111.198 58.4195 111.213 58.2537 111.221 58.1716Z" fill="#676562"/>
<path d="M72.6502 56.4297C74.7252 53.7833 80.6082 54.1736 80.2599 58.3592C80.4374 62.6537 73.1526 64.9182 71.7309 60.4713C71.3859 59.0811 71.6823 57.505 72.6502 56.4297ZM75.7936 56.3979C74.7436 56.5017 73.712 57.2069 73.4692 58.2721C72.1144 61.637 77.5486 62.2216 78.3876 59.4915C79.2551 57.8098 77.6508 55.7078 75.7936 56.3979Z" fill="#305928"/>
<path d="M135.624 55.9339C136.118 55.8284 136.622 55.7262 137.128 55.6559L137.22 55.7748L137.217 55.9473C137.187 56.5754 137.173 57.2119 137.178 57.8433C137.172 58.0611 137.172 58.2805 137.173 58.4999C136.775 59.7209 137.346 60.1681 138.414 60.1497C138.401 60.2385 138.374 60.4143 138.361 60.5031L138.331 60.6689C137.575 60.6605 136.815 60.6857 136.105 60.9671C137.334 61.081 138.582 60.9151 139.811 61.0525C140.489 61.5533 139.282 61.632 138.898 61.6404C136.761 61.0073 134.492 62.2299 132.379 62.57C132.171 62.2701 132.056 61.9184 131.875 61.6052C131.516 61.7459 132.255 63.5682 131.438 63.049C131.446 62.7492 131.464 62.1479 131.473 61.8481C128.221 62.3405 125.002 63.0976 121.761 63.6771C121.087 63.6754 121.505 64.5765 121.437 65.017C124.072 64.5782 126.661 63.8931 129.301 63.4711C125.467 67.3987 118.819 66.6316 114.029 68.7219C118.245 67.923 122.425 66.8494 126.698 66.3988C124.225 68.0268 120.817 67.9498 118.563 69.9111C117.396 70.2763 116.163 70.3918 115.019 70.834C112.043 71.2477 116.541 71.1288 117.632 71.4722C116.675 71.6849 115.714 71.8641 114.763 72.0868C113.505 72.05 112.249 71.9529 110.998 71.854C112.68 70.9144 114.863 70.2679 116.744 69.3701C117.128 69.1608 118.63 68.6064 116.761 68.8995C113.611 69.2311 110.524 70.1021 107.369 70.4019C106.75 70.5107 107.128 69.8977 107.425 69.7503C109.126 69.4706 110.874 69.139 112.465 68.4288C112.013 68.4121 111.109 68.3769 110.657 68.3585C111.112 68.1675 111.705 68.0821 111.953 67.5964C111.352 67.5964 110.648 67.8393 110.126 67.4088C113.735 66.4591 117.421 65.8377 121.087 65.1493C121.118 64.7189 121.122 64.2884 121.093 63.8596C117.712 64.3186 114.393 65.2197 111.018 65.7138C114.11 64.6234 117.736 64.3521 121.031 63.6017C121.115 62.7391 121.138 61.8765 121.098 61.0123C117.33 61.6152 113.589 62.4125 109.816 62.977L109.818 62.7977C113.738 62.1479 117.647 61.2836 121.577 60.7778C121.363 61.6722 121.187 62.5968 121.448 63.5079C124.764 62.8513 128.09 62.2383 131.406 61.5885C131.486 60.7845 131.541 59.9755 131.469 59.1732C128.159 59.5936 124.9 60.5517 121.577 60.7778C124.886 59.8683 128.422 59.7879 131.674 58.731C132.119 58.7243 132.873 58.9404 132.014 59.0811C131.875 60.8615 135.001 60.6656 134.323 58.8751C133.484 58.597 135.271 57.366 134.504 56.155L134.661 56.1416C134.097 58.0376 135.028 58.5501 136.743 58.1766C135.562 58.4664 133.863 58.0426 134.651 60.004C135.067 61.9502 138.136 59.4797 136.743 58.1766C137.408 56.9824 137.25 55.4432 135.624 55.9339Z" fill="#2B2D2D"/>
<path d="M137.22 55.7748C140.528 55.9909 143.845 56.0528 147.159 56.1483C147.089 57.6206 146.901 59.1146 147.233 60.5735C147.01 60.6237 146.786 60.6723 146.568 60.7259C146.61 60.0995 146.692 59.4747 146.726 58.85C146.054 58.9588 145.399 59.1514 144.718 59.1933C144.734 58.9706 144.771 58.7528 144.808 58.5334C146.555 58.9806 147.097 58.0929 146.714 56.495C145.87 56.5235 144.408 56.4582 144.694 57.6708L144.555 57.6574C144.815 55.9909 142.547 57.371 141.554 57.3911C140.965 58.7997 142.626 58.2453 143.368 58.5083L143.378 58.6607C142.614 58.8315 140.894 58.1013 141.527 59.6589C142.412 59.2854 144.06 59.6656 144.421 58.6875C144.674 59.123 144.907 60.7058 143.835 60.6924C143.902 60.1463 144.666 60.0207 144.376 59.334C143.363 59.6857 141.194 59.195 141.514 60.8264C140.732 61.4444 139.699 60.6756 138.804 60.7359C141.316 60.9704 139.731 59.5635 138.361 60.5031C138.374 60.4143 138.401 60.2385 138.414 60.1497C139.394 60.1999 140.724 60.0978 140.198 58.6758C139.494 58.2671 138.146 58.5786 137.173 58.4999C137.172 58.2805 137.172 58.0611 137.178 57.8433C138.274 57.4631 140.936 58.1498 140.357 56.1801C139.302 56.1684 138.25 56.1701 137.217 55.9473L137.22 55.7748ZM140.533 56.1584C142.41 56.0059 139.947 58.922 140.533 56.1584ZM141.536 56.1584C141.05 58.0694 143.488 56.4766 144.528 56.6206C144.19 55.8837 142.375 56.3225 141.536 56.1584ZM140.556 57.495C140.936 58.0946 139.98 59.7829 140.848 59.8348C140.759 59.1129 141.286 57.6373 140.556 57.495ZM139.426 57.7445C139.175 57.9589 136.582 57.9271 137.984 58.2269C138.959 58.7796 141.516 57.835 139.426 57.7445Z" fill="#181918"/>
<path d="M131.466 56.8166C132.28 56.16 133.496 56.289 134.504 56.155C135.271 57.366 133.484 58.597 134.323 58.8751C135.001 60.6656 131.875 60.8615 132.014 59.0811C132.873 58.9404 132.119 58.7243 131.674 58.731C131.049 58.1113 132.519 58.051 132.171 57.3107C132.312 56.7781 131.863 56.7932 131.466 56.8166Z" fill="#050505"/>
<path d="M75.7936 56.3979C77.6508 55.7078 79.2551 57.8098 78.3876 59.4915C77.5486 62.2216 72.1144 61.637 73.4692 58.2721C73.712 57.2069 74.7436 56.5017 75.7936 56.3979Z" fill="#ABADA2"/>
<path d="M131.466 56.8166C131.863 56.7932 132.312 56.7781 132.171 57.3107C117.034 60.3155 101.826 63.0574 86.5684 65.3487C86.9368 65.2264 87.2449 64.9919 87.4476 64.6603C91.3395 63.7709 95.3168 63.3639 99.2305 62.5951C100.553 62.178 98.3513 62.0038 97.9377 62.1161C88.8593 63.518 79.7659 65.1627 70.6658 66.5496C71.3557 65.5513 72.7708 65.9432 73.7773 65.6066C80.2599 64.1997 86.7978 63.1059 93.3039 61.8363C93.5919 61.5935 94.8144 61.6421 94.4795 61.1061C100.053 60.2602 105.619 59.3658 111.189 58.5016C111.461 58.5502 111.737 58.5786 112.005 58.6506C113.52 59.8817 115.456 57.8383 117.203 58.716C118 59.2821 118.027 57.5904 119.003 58.4011C119.998 59.2402 121.209 58.4111 122.326 58.3709C125.36 57.7747 128.46 57.5519 131.466 56.8166Z" fill="#7A7978"/>
<path d="M86.5684 65.3487C101.826 63.0574 117.034 60.3155 132.171 57.3107C132.519 58.051 131.049 58.1113 131.674 58.731C128.422 59.7879 124.886 59.8683 121.577 60.7778C117.647 61.2836 113.738 62.1479 109.818 62.7977C108.677 63.0557 110.191 65.1678 109.399 65.8344C109.381 65.7205 109.342 65.4927 109.322 65.3788C106.845 65.4156 104.45 66.2246 101.982 66.3737C103.822 64.5196 107.073 65.3754 109.367 64.3169C109.371 64.0372 109.376 63.4761 109.379 63.1964C105.167 63.7374 101.011 64.6636 96.814 65.3218C96.7587 65.2749 96.6498 65.1795 96.5946 65.1326C97.2226 65.0137 100.641 64.4877 98.1621 64.5363C88.5847 65.9767 79.0759 67.8828 69.5404 69.5745C69.0497 69.675 69.1954 70.0552 69.6492 69.953C73.4641 69.2412 77.2924 68.5796 81.109 67.8694C81.2312 68.7521 81.2697 69.6515 81.2446 70.5459C75.5541 71.5693 69.9055 72.802 64.2099 73.7919C64.1781 73.9108 64.1162 74.152 64.0843 74.2726C63.8633 73.5507 63.8264 72.7987 63.9705 72.0634C64.0224 72.1069 64.1245 72.1974 64.1764 72.2409C68.7499 72.0734 73.3737 70.6313 77.9639 69.963C79.0424 69.4304 81.5879 70.1021 81.0771 68.2211C75.3716 69.0536 69.7196 70.226 64.0374 71.2075C62.6542 71.1187 64.7073 74.415 63.3274 74.8907C61.5573 75.4384 59.7017 75.5874 57.9082 76.0263C57.2199 76.1804 58.079 76.9642 58.4642 76.9156C60.169 76.5371 61.9123 76.2926 63.6087 75.8738C63.6757 75.5991 63.7092 75.3194 63.7461 75.0414C63.7628 75.4484 63.7996 76.2624 63.8164 76.6694C61.6259 77.0764 59.4405 77.7849 57.2098 77.6961C56.0409 78.1367 56.118 75.9844 57.0859 76.1887C57.0323 75.3312 57.2199 74.1838 56.1615 74.0063C56.0828 73.3213 56.2821 72.6597 56.8414 72.2393C56.7141 72.1237 56.5835 72.0131 56.4495 71.9076C57.5146 70.8976 55.3158 70.4823 55.9455 69.0335C60.8372 68.1257 65.7707 67.4423 70.6658 66.5496C79.7659 65.1627 88.8593 63.518 97.9377 62.1161C98.3513 62.0038 100.553 62.178 99.2305 62.5951C95.3168 63.3639 91.3395 63.7709 87.4476 64.6603C77.6106 66.2816 67.72 67.8326 57.9149 69.5075C57.7072 69.6917 57.6603 70.427 58.1259 70.2093C67.6145 68.6432 77.0847 66.9432 86.5684 65.3487ZM57.312 72.4386C57.1445 73.4251 58.5981 73.8623 59.335 73.4519C60.5341 72.9477 62.82 73.3146 63.4831 72.3716C63.5099 72.0952 63.5032 71.8172 63.4781 71.5442C61.7549 71.3867 59.3115 72.1572 57.312 72.4386Z" fill="#656460"/>
<path d="M144.555 57.6574L144.694 57.6708C144.726 57.9572 144.765 58.2453 144.808 58.5334C144.771 58.7528 144.734 58.9706 144.718 59.1933C144.111 60.6321 145.908 60.3507 146.568 60.7259C146.786 60.6723 147.01 60.6237 147.233 60.5735C148.467 60.3205 147.385 62.2366 146.469 61.6186C145.242 61.9754 147.627 61.5097 146.918 62.5046C142.33 63.8178 137.031 64.0489 132.997 66.707C132.424 66.9666 131.798 67.0654 131.196 67.2279C129.518 67.7421 127.572 67.5595 126.069 68.5075C125.225 68.4506 124.344 68.5343 123.602 68.9665C122.637 68.9547 121.693 69.2211 120.8 69.5678C120.055 69.7018 119.316 69.8458 118.563 69.9111C120.817 67.9498 124.225 68.0268 126.698 66.3988C122.425 66.8494 118.245 67.923 114.029 68.7219C118.819 66.6316 125.467 67.3987 129.301 63.4711C130.006 63.3103 130.712 63.111 131.438 63.049C132.255 63.5682 131.516 61.7459 131.875 61.6052C132.056 61.9184 132.171 62.2701 132.379 62.57C134.328 63.1076 136.748 61.6437 138.898 61.6404C139.282 61.632 140.489 61.5533 139.811 61.0525C138.582 60.9151 137.334 61.081 136.105 60.9671C136.815 60.6857 137.575 60.6605 138.331 60.6689C138.449 60.6857 138.686 60.7192 138.804 60.7359C139.699 60.6756 140.732 61.4444 141.514 60.8264C142.273 60.751 143.105 61.0089 143.835 60.6924C144.907 60.7058 144.674 59.123 144.421 58.6875C144.073 58.6624 143.725 58.664 143.378 58.6607L143.368 58.5083C144.13 58.6222 144.775 58.5502 144.555 57.6574Z" fill="#524B38"/>
<path d="M97.0836 60.3071C101.816 59.7377 106.485 58.6808 111.221 58.1716C111.213 58.2537 111.198 58.4195 111.189 58.5016C105.619 59.3658 100.053 60.2602 94.4795 61.1061C92.7261 61.3506 90.9962 61.8313 89.2143 61.8363C91.6058 60.7426 94.513 60.9453 97.0836 60.3071Z" fill="#5E642A"/>
<path d="M134.651 60.004C135.067 61.9502 138.136 59.4797 136.743 58.1766C135.562 58.4664 133.863 58.0426 134.651 60.004Z" fill="#030302"/>
<path d="M144.718 59.1933C145.399 59.1514 146.054 58.9588 146.726 58.85C146.692 59.4747 146.61 60.0995 146.568 60.7259C145.908 60.3507 144.111 60.6321 144.718 59.1933Z" fill="#010102"/>
<path d="M121.577 60.7778C124.9 60.5517 128.159 59.5936 131.469 59.1732C131.541 59.9755 131.486 60.7845 131.406 61.5885C128.09 62.2383 124.764 62.8513 121.448 63.5079C121.187 62.5968 121.363 61.6722 121.577 60.7778Z" fill="#61615F"/>
<path d="M109.816 62.977C113.589 62.4125 117.33 61.6152 121.098 61.0123C121.138 61.8765 121.115 62.7391 121.031 63.6017C117.736 64.3521 114.11 64.6234 111.018 65.7138C114.393 65.2197 117.712 64.3186 121.093 63.8596C121.122 64.2884 121.118 64.7189 121.087 65.1493C117.421 65.8377 113.735 66.4591 110.126 67.4088C109.113 66.5362 110.163 65.6769 110.9 65.5681C108.979 66.3352 110.082 64.0054 109.816 62.977Z" fill="#6E6D6C"/>
<path d="M138.898 61.6404C136.761 61.0073 134.492 62.2299 132.379 62.57C134.328 63.1076 136.748 61.6437 138.898 61.6404Z" fill="#060708"/>
<path d="M121.761 63.6771C125.002 63.0976 128.221 62.3405 131.473 61.8481C131.464 62.1479 131.446 62.7492 131.438 63.049C130.712 63.111 130.006 63.3103 129.301 63.4711C126.661 63.8931 124.072 64.5782 121.437 65.017C121.505 64.5765 121.087 63.6754 121.761 63.6771Z" fill="#6E6D6B"/>
<path d="M87.8562 62.2785C88.1626 61.9854 89.2378 62.178 88.5009 62.4108C78.8683 64.2985 69.1904 66.032 59.4673 67.372C59.0269 67.9917 57.2015 66.5429 59.1039 66.9901C68.6846 65.3989 78.2436 63.6737 87.8562 62.2785Z" fill="#D6D1D1"/>
<path d="M132.997 66.707C137.031 64.0489 142.33 63.8178 146.918 62.5046C147.176 64.7139 144.038 63.5163 143.077 64.8579C141.958 63.8931 140.122 65.6284 139.143 66.5261C137.456 66.769 135.298 65.682 133.854 66.8209C133.569 66.7623 133.283 66.7238 132.997 66.707Z" fill="#5A5E5B"/>
<path d="M109.399 65.8344C110.191 65.1678 108.677 63.0557 109.818 62.7977L109.816 62.977C110.082 64.0054 108.979 66.3352 110.9 65.5681C110.163 65.6769 109.113 66.5362 110.126 67.4088C110.648 67.8393 111.352 67.5964 111.953 67.5964C111.705 68.0821 111.112 68.1675 110.657 68.3585C111.109 68.3769 112.013 68.4121 112.465 68.4288C110.874 69.139 109.126 69.4706 107.425 69.7503C107.128 69.8977 106.75 70.5107 107.369 70.4019C110.524 70.1021 113.611 69.2311 116.761 68.8995C118.63 68.6064 117.128 69.1608 116.744 69.3701C114.863 70.2679 112.68 70.9144 110.998 71.854C110.156 71.7502 108.774 71.7351 108.808 72.8858C108.22 73.6713 107.5 74.1654 107.602 75.2943C102.592 76.8704 97.4302 78.0161 92.2187 78.6743C90.812 79.4732 92.0579 77.2908 90.9342 77.5521C92.4414 77.0178 89.3617 77.7632 89.8708 76.3947C91.8117 76.7214 93.7912 76.6912 95.7472 76.8972C96.7888 76.8687 97.8154 77.0915 98.8554 77.115C99.897 77.0044 98.9441 75.1821 99.2322 74.2961C96.1257 74.9861 92.9991 75.7382 89.8708 76.3947C87.9851 76.7465 86.1095 77.1535 84.2456 77.604C84.2506 77.0748 84.321 76.5639 84.3394 76.0413C82.8238 75.7164 83.9927 77.0128 83.7348 77.7179C82.4219 78.1249 81.052 78.3276 79.724 78.681C77.3979 79.0813 75.0701 79.5687 72.8026 80.2169C74.2378 80.3861 75.6914 80.3945 77.1149 80.6809C76.0096 81.0125 74.8591 81.1616 73.7555 81.4982C71.6237 81.4128 69.4081 80.7964 67.3064 81.3843C64.6805 82.0493 62.0312 82.6087 59.3869 83.1916C58.6115 83.0978 57.3622 83.4127 57.4426 82.2704C57.4142 81.7126 57.4175 81.1649 57.3087 80.6189C56.5316 79.5268 54.3194 80.2705 53.0349 80.0075C52.1574 78.5554 55.6072 79.3242 56.1916 78.274C54.2691 78.6475 52.0737 78.6442 50.3404 79.5637C49.7894 79.634 49.2451 79.763 48.7109 79.9104C47.7681 80.0946 46.8336 80.3124 45.8992 80.5318C44.7989 80.4748 43.7439 80.912 42.6821 81.1281C41.602 81.2922 40.5453 81.5652 39.4986 81.4413C38.9862 81.525 38.5725 81.4178 38.6797 80.8165C38.6479 80.0963 38.5842 79.3811 38.4871 78.6693C38.9409 78.6174 39.589 78.7882 39.641 78.202C40.2455 75.9325 39.8 73.5407 39.6108 71.2728C41.473 70.7972 43.4123 70.6464 45.3063 70.3131C44.881 70.2126 44.4456 70.1356 44.0202 70.0602C44.7303 70.1004 45.4554 70.1071 46.1102 70.422C44.4121 70.7854 42.6671 70.891 40.9857 71.3365C43.5613 71.3633 41.8934 71.6815 40.3627 71.4889C40.2974 72.5073 39.9206 74.0549 40.8333 74.7399C41.9754 75.2558 39.579 74.8923 40.4716 76.1335C41.4027 77.2975 43.9247 75.5958 45.452 75.708C46.2843 75.7717 46.0867 74.9493 45.9846 74.3631C45.9712 74.2843 45.9461 74.1286 45.9327 74.0499C45.9226 73.9711 45.9008 73.8154 45.8891 73.7366C46.3882 72.6178 44.6114 71.0802 46.5188 71.6983C46.1989 72.5391 45.9829 74.5121 47.5068 73.4871C47.3829 72.514 48.1549 70.1121 46.5355 70.3449C46.7951 70.2796 47.053 70.2093 47.3143 70.1473C47.5219 70.2126 47.7313 70.2779 47.9406 70.3466C48.0662 71.37 47.8753 72.4118 48.0461 73.4318L48.0679 73.5926C47.8435 74.4904 48.3994 74.343 49.0442 74.1621C50.615 75.8437 53.0952 73.8371 55.0345 73.9996C56.2402 74.3128 55.6809 73.1286 55.773 72.5274C56.133 72.447 56.4847 72.3314 56.8414 72.2393C56.2821 72.6597 56.0828 73.3213 56.1615 74.0063C57.2199 74.1838 57.0323 75.3312 57.0859 76.1887C56.118 75.9844 56.0409 78.1367 57.2098 77.6961C59.4405 77.7849 61.6259 77.0764 63.8164 76.6694C63.7996 76.2624 63.7628 75.4484 63.7461 75.0414C63.6406 75.0029 63.4312 74.9275 63.3274 74.8907C64.7073 74.415 62.6542 71.1187 64.0374 71.2075L64.0274 71.3884C64.0073 71.6129 63.9889 71.8373 63.9705 72.0634C63.8264 72.7987 63.8633 73.5507 64.0843 74.2726C64.1965 74.4485 64.3489 74.5959 64.498 74.7449C64.0073 74.7047 64.2083 75.3027 64.153 75.6075C64.153 75.693 64.153 75.8655 64.153 75.9509C63.9303 76.775 64.6102 76.5036 65.126 76.3596C65.2734 76.3864 65.5698 76.4366 65.7188 76.4617C63.1901 77.7079 60.1187 77.537 57.6067 78.6241C57.6151 78.743 57.6335 78.9791 57.6419 79.0981C60.0417 78.7915 62.3946 78.1199 64.7843 77.723C70.1349 76.8654 75.5055 75.8822 80.7472 74.4301C85.7377 73.0784 90.9526 72.6664 95.9314 71.3465C97.2845 70.1791 91.718 72.3314 92.9271 70.8307C93.9 70.2294 96.2814 70.9462 96.3367 69.5477C96.3384 69.3082 96.3417 68.8291 96.3434 68.5896C94.1831 68.8325 92.0931 69.7001 89.906 69.6113C92.0261 69.3165 94.0893 68.7119 96.196 68.3434C96.3785 67.655 96.5611 66.3268 96.1374 65.5362C95.7405 65.1929 96.3584 65.2113 96.5946 65.1326C96.6498 65.1795 96.7587 65.2749 96.814 65.3218C96.3266 66.8075 96.6532 68.3652 96.6817 69.8877C100.892 69.4488 105.03 68.3233 109.19 67.5193C109.978 66.9683 108.838 65.8561 109.399 65.8344ZM46.991 73.8254C45.8807 73.5759 46.4032 75.028 46.5942 75.4183C48.0193 76.4115 48.3492 72.988 46.991 73.8254ZM68.7583 78.6743C65.5547 79.3058 62.346 79.9238 59.1642 80.6524C58.8946 81.3592 60.1104 80.4648 60.2393 80.7026C63.1767 80.0779 66.1124 79.4481 69.0464 78.8117C69.4868 78.8468 70.1851 78.1182 68.7583 78.6743Z" fill="#1A1B1B"/>
<path d="M96.814 65.3218C101.011 64.6636 105.167 63.7374 109.379 63.1964C109.376 63.4761 109.371 64.0372 109.367 64.3169C107.073 65.3754 103.822 64.5196 101.982 66.3737C104.45 66.2246 106.845 65.4156 109.322 65.3788C109.342 65.4927 109.381 65.7205 109.399 65.8344C108.838 65.8561 109.978 66.9683 109.19 67.5193C105.03 68.3233 100.892 69.4488 96.6817 69.8877C96.6532 68.3652 96.3266 66.8075 96.814 65.3218Z" fill="#777776"/>
<path d="M69.5404 69.5745C79.0759 67.8828 88.5847 65.9767 98.1621 64.5363C100.641 64.4877 97.2226 65.0137 96.5946 65.1326C96.3584 65.2113 95.7405 65.1929 96.1374 65.5362C96.1525 65.9935 96.34 66.6115 95.7388 66.635C91.023 67.521 86.3155 68.4824 81.5795 69.2445C81.5427 68.6918 82.0484 67.5763 81.109 67.8694C77.2924 68.5796 73.4641 69.2412 69.6492 69.953C69.1954 70.0552 69.0497 69.675 69.5404 69.5745Z" fill="#A09E9E"/>
<path d="M143.077 64.8579C141.958 63.8931 140.122 65.6284 139.143 66.5261C140.814 66.4022 143.905 67.7488 143.077 64.8579Z" fill="#8F8D8C"/>
<path d="M57.9149 69.5075C67.72 67.8326 77.6106 66.2816 87.4476 64.6603C87.2449 64.9919 86.9368 65.2264 86.5684 65.3487C77.0847 66.9432 67.6145 68.6432 58.1259 70.2093C57.6603 70.427 57.7072 69.6917 57.9149 69.5075Z" fill="#A09D9C"/>
<path d="M96.1374 65.5362C96.5611 66.3268 96.3785 67.655 96.196 68.3434C96.0369 67.8443 95.4307 68.0821 95.0304 68.0922C90.6981 68.8358 86.3892 69.7051 82.0752 70.5409C81.7236 70.5074 81.7604 70.8357 81.742 71.0853C81.6047 70.4773 81.5511 69.8625 81.5795 69.2445C86.3155 68.4824 91.023 67.521 95.7388 66.635C96.34 66.6115 96.1525 65.9935 96.1374 65.5362Z" fill="#6E6C65"/>
<path d="M132.997 66.707C133.283 66.7238 133.569 66.7623 133.854 66.8209C133.844 67.1676 133.839 67.5143 133.837 67.861C134.035 69.9044 130.902 68.3719 129.634 68.6817C129.641 67.8795 130.813 67.8627 131.196 67.2279C131.798 67.0654 132.424 66.9666 132.997 66.707Z" fill="#908F8D"/>
<path d="M126.069 68.5075C127.572 67.5595 129.518 67.7421 131.196 67.2279C130.813 67.8627 129.641 67.8795 129.634 68.6817C130.902 68.3719 134.035 69.9044 133.837 67.861C136.184 68.2262 138.568 68.0838 140.93 68.2546C138.943 69.0485 136.87 69.623 134.792 70.1138C133.496 70.1121 132.236 70.3935 131.103 71.0149C130.039 71.2611 128.981 71.5257 127.926 71.787C126.661 71.8691 125.33 71.9981 124.238 72.6932C122.957 73.0449 121.599 73.1454 120.378 73.6864C118.997 73.5055 117.767 74.0432 116.535 74.5406C113.71 75.2206 110.893 75.9375 108.063 76.589C102.103 77.8871 95.9281 79.145 90.3045 81.242C89.2177 80.6423 88.1861 82.0124 87.054 81.381C89.5359 80.7612 92.0278 80.1767 94.5063 79.5419C93.952 79.0964 93.2469 79.5 92.6306 79.6022C88.7337 80.6725 84.6844 81.3156 80.8695 82.5869C82.308 82.9386 83.6779 81.8968 85.1349 81.9689C84.949 82.0677 84.7664 82.1749 84.5839 82.2787C82.375 82.9671 80.0891 83.3775 77.8534 83.9637C77.48 84.57 76.5556 84.0592 75.8505 84.0776C77.3728 83.5885 79.0542 83.5517 80.486 82.813C75.0132 83.4579 69.6777 85.3489 64.2451 86.3923C64.0642 86.8027 64.4695 86.8312 64.7777 86.7558C68.0382 85.9987 71.2653 85.0842 74.556 84.4561C74.2077 84.6203 73.8644 84.7978 73.5211 84.9737C71.1095 85.7224 68.6126 86.1528 66.1777 86.8111C64.8664 87.2851 63.4647 86.868 62.1635 87.4978C62.4247 87.3621 62.8936 87.1963 62.3712 87.079C59.8592 86.9333 57.4895 88.764 54.9424 88.1594C54.2306 88.1677 52.5643 87.6418 52.5241 88.5513C55.7077 90.1659 58.8929 87.5916 62.1635 87.4978C61.7515 87.6971 61.3396 87.8931 60.9226 88.084C57.9199 88.8042 54.9357 89.6232 51.9146 90.2614C49.8999 90.2312 48.3609 88.7121 46.5992 87.9282C47.2523 87.3169 48.4262 87.4944 49.2435 87.1377C51.0086 86.6402 54.1117 88.1342 54.7933 85.8262C57.106 85.3455 59.4539 84.9017 61.6946 84.1731C59.7972 83.9972 57.8965 83.8666 55.9924 83.7845C54.5153 83.2401 56.6505 82.3457 57.4426 82.2704C57.3622 83.4127 58.6115 83.0978 59.3869 83.1916C62.0312 82.6087 64.6805 82.0493 67.3064 81.3843C67.0552 81.8181 67.087 82.3055 67.1841 82.7795C65.5346 82.004 64.5549 83.5852 63.2956 84.2937C64.7425 84.2468 67.8356 85.5666 67.2109 82.9604C69.4131 82.5869 71.5868 82.0308 73.7555 81.4982C74.8591 81.1616 76.0096 81.0125 77.1149 80.6809C81.7504 79.7798 86.3423 78.6442 90.9342 77.5521C92.0579 77.2908 90.812 79.4732 92.2187 78.6743C97.4302 78.0161 102.592 76.8704 107.602 75.2943C107.5 74.1654 108.22 73.6713 108.808 72.8858C110.816 73.3866 112.82 72.5525 114.763 72.0868C115.714 71.8641 116.675 71.6849 117.632 71.4722C120.437 70.9931 115.902 70.9328 115.019 70.834C116.163 70.3918 117.396 70.2763 118.563 69.9111C119.316 69.8458 120.055 69.7018 120.8 69.5678C120.5 70.3382 119.529 70.4119 119.033 71.0233C120.484 71.0501 121.926 71.3867 123.376 71.3181C123.423 70.7385 123.413 70.1657 123.458 69.5895C125.4 69.9379 127.527 69.3082 129.309 68.7286C128.237 68.5528 127.147 68.5829 126.069 68.5075Z" fill="#5F5F5D"/>
<path d="M81.109 67.8694C82.0484 67.5763 81.5427 68.6918 81.5795 69.2445C81.5511 69.8625 81.6047 70.4773 81.742 71.0853C81.7068 71.5375 81.541 71.983 81.7135 72.4336C81.7018 72.9578 81.9848 73.0952 82.5642 72.8489C86.0375 72.2778 89.4639 71.4537 92.9271 70.8307C91.718 72.3314 97.2845 70.1791 95.9314 71.3465C90.9526 72.6664 85.7377 73.0784 80.7472 74.4301C75.5055 75.8822 70.1349 76.8654 64.7843 77.723C66.181 77.2322 67.7452 77.254 69.0715 76.6008C65.2164 77.0295 61.4367 78.0094 57.6067 78.6241C60.1187 77.537 63.1901 77.7079 65.7188 76.4617C65.5698 76.4366 65.2734 76.3864 65.126 76.3596C70.4732 75.2407 75.8355 74.1487 81.2145 73.2007C81.2379 72.9829 81.2496 72.7685 81.2496 72.5525C81.2496 72.4704 81.2513 72.3079 81.2513 72.2275C81.2496 71.9981 81.248 71.7686 81.2429 71.5408C81.2446 71.2075 81.2446 70.8759 81.2446 70.5459C81.2697 69.6515 81.2312 68.7521 81.109 67.8694Z" fill="#2A2C2D"/>
<path d="M95.0304 68.0922C95.4307 68.0821 96.0369 67.8443 96.196 68.3434C94.0893 68.7119 92.0261 69.3165 89.906 69.6113C87.1595 69.9396 84.4834 70.7285 81.742 71.0853C81.7604 70.8357 81.7236 70.5074 82.0752 70.5409C86.3892 69.7051 90.6981 68.8358 95.0304 68.0922Z" fill="#D6D2D2"/>
<path d="M159.235 69.9145C160.518 69.7252 162.183 66.9532 163 68.732C162.442 69.1876 161.811 69.541 161.287 70.0351C160.645 70.7134 159.555 70.9563 159.235 69.9145Z" fill="#AEACAC"/>
<path d="M64.0374 71.2075C69.7196 70.226 75.3716 69.0536 81.0771 68.2211C81.5879 70.1021 79.0424 69.4304 77.9639 69.963C73.3737 70.6313 68.7499 72.0734 64.1764 72.2409C68.9693 71.3482 73.7672 70.4655 78.5501 69.5293C76.4182 68.7638 73.8543 70.4806 71.5265 70.1121C69.0078 70.3835 66.5427 71.1137 64.0274 71.3884L64.0374 71.2075Z" fill="#BFBBBB"/>
<path d="M123.602 68.9665C124.344 68.5343 125.225 68.4506 126.069 68.5075C127.147 68.5829 128.237 68.5528 129.309 68.7286C127.527 69.3082 125.4 69.9379 123.458 69.5895C123.495 69.3785 123.543 69.1708 123.602 68.9665Z" fill="#090908"/>
<path d="M89.906 69.6113C92.0931 69.7001 94.1831 68.8325 96.3434 68.5896C96.3417 68.8291 96.3384 69.3082 96.3367 69.5477C91.445 70.4203 86.6186 71.648 81.7135 72.4336C81.541 71.983 81.7068 71.5375 81.742 71.0853C84.4834 70.7285 87.1595 69.9396 89.906 69.6113Z" fill="#959394"/>
<path d="M120.8 69.5678C121.693 69.2211 122.637 68.9547 123.602 68.9665C123.543 69.1708 123.495 69.3785 123.458 69.5895C123.413 70.1657 123.423 70.7385 123.376 71.3181C121.926 71.3867 120.484 71.0501 119.033 71.0233C119.529 70.4119 120.5 70.3382 120.8 69.5678Z" fill="#918F8D"/>
<path d="M71.5265 70.1121C73.8543 70.4806 76.4182 68.7638 78.5501 69.5293C73.7672 70.4655 68.9693 71.3482 64.1764 72.2409C64.1245 72.1974 64.0224 72.1069 63.9705 72.0634C63.9889 71.8373 64.0073 71.6129 64.0274 71.3884C66.5427 71.1137 69.0078 70.3835 71.5265 70.1121Z" fill="#E9E5E5"/>
<path d="M81.7135 72.4336C86.6186 71.648 91.445 70.4203 96.3367 69.5477C96.2814 70.9462 93.9 70.2294 92.9271 70.8307C89.4639 71.4537 86.0375 72.2778 82.5642 72.8489C81.9848 73.0952 81.7018 72.9578 81.7135 72.4336Z" fill="#696660"/>
<path d="M153.629 71.2779C154.724 71.0802 155.328 69.8894 156.425 69.7252C157.51 70.2109 156.365 70.9797 155.722 71.2779C154.916 71.8205 153.769 73.1085 153.19 71.5743C153.332 71.4705 153.478 71.3717 153.629 71.2779Z" fill="#B1AFAF"/>
<path d="M155.722 71.2779C157.097 72.328 158.125 70.4856 159.235 69.9145C159.555 70.9563 160.645 70.7134 161.287 70.0351C160.548 71.2611 159.1 71.7753 157.969 72.5709C156.854 73.3816 155.831 71.6128 154.652 72.4687C153.27 73.0416 151.624 75.5489 150.065 74.2291C147.612 73.1102 145.761 77.7782 143.673 76.2541C143.356 75.6796 144.095 75.4601 144.421 75.1285C144.827 74.8371 145.212 74.5188 145.594 74.1972C145.944 73.9226 146.295 73.6445 146.679 73.4134C147.248 75.2575 148.466 73.6228 149.373 73.0885C150.433 73.5759 151.406 73.2643 152.11 72.38C152.468 72.1103 152.823 71.8339 153.19 71.5743C153.769 73.1085 154.916 71.8205 155.722 71.2779Z" fill="#56544E"/>
<path d="M131.103 71.0149C132.236 70.3935 133.496 70.1121 134.792 70.1138C141.042 70.772 147.354 70.8658 153.629 71.2779C153.478 71.3717 153.332 71.4705 153.19 71.5743C152.823 71.8339 152.468 72.1103 152.11 72.38C151.597 72.2878 151.11 72.2058 150.609 72.1019C150.169 71.3934 149.278 71.5877 148.759 72.0986C142.881 71.6413 136.984 71.432 131.103 71.0149Z" fill="#1B1D1C"/>
<path d="M64.2099 73.7919C69.9055 72.802 75.5541 71.5693 81.2446 70.5459C81.2446 70.8759 81.2446 71.2075 81.2429 71.5408C75.6512 72.5508 70.0813 73.6914 64.498 74.7449C64.3489 74.5959 64.1965 74.4485 64.0843 74.2726C64.1162 74.152 64.1781 73.9108 64.2099 73.7919Z" fill="#888685"/>
<path d="M115.019 70.834C112.043 71.2477 116.541 71.1288 117.632 71.4722C120.437 70.9931 115.902 70.9328 115.019 70.834Z" fill="#15140F"/>
<path d="M57.312 72.4386C59.3115 72.1572 61.7549 71.3867 63.4781 71.5442C61.5941 71.9294 59.685 72.194 57.8111 72.6245C57.6151 73.482 58.6534 73.2442 59.2261 73.1739C60.6479 72.926 62.0597 72.6128 63.4831 72.3716C62.82 73.3146 60.5341 72.9477 59.335 73.4519C58.5981 73.8623 57.1445 73.4251 57.312 72.4386Z" fill="#A9A6A4"/>
<path d="M42.8865 71.5626C43.5011 71.7234 44.7068 71.2444 45.0803 71.7334C44.4623 71.5659 43.2599 72.0517 42.8865 71.5626Z" fill="#101212"/>
<path d="M57.8111 72.6245C59.685 72.194 61.5941 71.9294 63.4781 71.5442C63.5032 71.8172 63.5099 72.0952 63.4831 72.3716C62.0597 72.6128 60.6479 72.926 59.2261 73.1739C58.6534 73.2442 57.6151 73.482 57.8111 72.6245Z" fill="#F2EFEF"/>
<path d="M64.498 74.7449C70.0813 73.6914 75.6512 72.5508 81.2429 71.5408C81.248 71.7686 81.2496 71.9981 81.2513 72.2275C75.5441 73.3146 69.877 74.6378 64.153 75.6075C64.2083 75.3027 64.0073 74.7047 64.498 74.7449Z" fill="#E1DCDD"/>
<path d="M148.759 72.0986C149.278 71.5877 150.169 71.3934 150.609 72.1019C150.194 72.4302 149.79 72.7685 149.373 73.0885C148.466 73.6228 147.248 75.2575 146.679 73.4134C146.819 73.3179 146.965 73.2241 147.112 73.132C147.759 72.9695 148.268 72.5257 148.759 72.0986Z" fill="#B1AFB0"/>
<path d="M108.808 72.8858C108.774 71.7351 110.156 71.7502 110.998 71.854C112.249 71.9529 113.505 72.05 114.763 72.0868C112.82 72.5525 110.816 73.3866 108.808 72.8858Z" fill="#060605"/>
<path d="M124.238 72.6932C125.33 71.9981 126.661 71.8691 127.926 71.787C134.29 72.5273 140.74 72.4453 147.112 73.132C146.965 73.2241 146.819 73.3179 146.679 73.4134C146.295 73.6445 145.944 73.9226 145.594 74.1972C138.557 73.3414 131.335 73.3531 124.238 72.6932Z" fill="#1B1C1B"/>
<path d="M48.0461 73.4318C50.8277 72.8255 53.6445 72.3967 56.4495 71.9076C56.5835 72.0131 56.7141 72.1237 56.8414 72.2393C56.4847 72.3314 56.133 72.447 55.773 72.5274C53.1689 72.4486 50.6586 73.4033 48.0679 73.5926L48.0461 73.4318Z" fill="#3D3B31"/>
<path d="M150.609 72.1019C151.11 72.2058 151.597 72.2878 152.11 72.38C151.406 73.2643 150.433 73.5759 149.373 73.0885C149.79 72.7685 150.194 72.4302 150.609 72.1019Z" fill="#040404"/>
<path d="M64.153 75.6075C69.877 74.6378 75.5441 73.3146 81.2513 72.2275C81.2513 72.3079 81.2496 72.4704 81.2496 72.5525C75.5508 73.6881 69.8519 74.817 64.153 75.9509C64.153 75.8655 64.153 75.693 64.153 75.6075Z" fill="#A4A19E"/>
<path d="M64.153 75.9509C69.8519 74.817 75.5508 73.6881 81.2496 72.5525C81.2496 72.7685 81.2379 72.9829 81.2145 73.2007C75.8355 74.1487 70.4732 75.2407 65.126 76.3596C64.6102 76.5036 63.9303 76.775 64.153 75.9509Z" fill="#6D6B63"/>
<path d="M40.8333 74.7399C42.4845 74.2475 44.2128 74.1102 45.8891 73.7366C45.9008 73.8154 45.9226 73.9711 45.9327 74.0499C44.4472 74.3178 42.9484 74.5205 41.4781 74.8572C42.93 75.0916 44.4087 75.1151 45.8724 75.2457C45.926 74.9526 45.9561 74.6562 45.9846 74.3631C46.0867 74.9493 46.2843 75.7717 45.452 75.708C44.0235 75.1754 42.3857 75.4869 40.8936 75.239C40.3694 75.1235 40.5754 75.8219 40.4716 76.1335C39.579 74.8923 41.9754 75.2558 40.8333 74.7399Z" fill="#23231E"/>
<path d="M46.5942 75.4183C48.0193 76.4115 48.3492 72.988 46.991 73.8254C45.8807 73.5759 46.4032 75.028 46.5942 75.4183Z" fill="#060604"/>
<path d="M116.535 74.5406C117.767 74.0432 118.997 73.5055 120.378 73.6864C128.395 74.1168 136.405 74.7148 144.421 75.1285C144.095 75.4601 143.356 75.6796 143.673 76.2541C134.63 75.6628 125.585 74.9962 116.535 74.5406Z" fill="#1B1C1B"/>
<path d="M89.8708 76.3947C92.9991 75.7382 96.1257 74.9861 99.2322 74.2961C98.9441 75.1821 99.897 77.0044 98.8554 77.115C99.9171 74.3128 96.7168 75.5958 95.7472 76.8972C93.7912 76.6912 91.8117 76.7214 89.8708 76.3947Z" fill="#676766"/>
<path d="M57.9082 76.0263C59.7017 75.5874 61.5573 75.4384 63.3274 74.8907C63.4312 74.9275 63.6406 75.0029 63.7461 75.0414C63.7092 75.3194 63.6757 75.5991 63.6087 75.8738C61.9123 76.2926 60.169 76.5371 58.4642 76.9156C58.079 76.9642 57.2199 76.1804 57.9082 76.0263Z" fill="#E7E4E4"/>
<path d="M40.4716 76.1335C40.5754 75.8219 40.3694 75.1235 40.8936 75.239C42.3857 75.4869 44.0235 75.1754 45.452 75.708C43.9247 75.5958 41.4027 77.2975 40.4716 76.1335Z" fill="#010101"/>
<path d="M98.8554 77.115C99.9171 74.3128 96.7168 75.5958 95.7472 76.8972C96.7888 76.8687 97.8154 77.0915 98.8554 77.115Z" fill="#A4A1A0"/>
<path d="M83.7348 77.7179C83.9927 77.0128 82.8238 75.7164 84.3394 76.0413C84.321 76.5639 84.2506 77.0748 84.2456 77.604C85.5117 80.3794 81.1006 78.3544 79.724 78.681C81.052 78.3276 82.4219 78.1249 83.7348 77.7179Z" fill="#858482"/>
<path d="M36.1577 76.5505C37.4438 75.6494 38.0634 77.6141 39.1252 78.0094C39.8871 78.4415 38.2007 78.1032 38.4871 78.6693C38.5842 79.3811 38.6479 80.0963 38.6797 80.8165C38.0333 80.2219 37.3232 79.6123 37.2948 78.6726C36.9062 77.9172 35.2232 77.4667 36.1577 76.5505Z" fill="#4F5153"/>
<path d="M84.2456 77.604C86.1095 77.1535 87.9851 76.7465 89.8708 76.3947C89.3617 77.7632 92.4414 77.0178 90.9342 77.5521C86.3423 78.6442 81.7504 79.7798 77.1149 80.6809C75.6914 80.3945 74.2378 80.3861 72.8026 80.2169C75.0701 79.5687 77.3979 79.0813 79.724 78.681C81.1006 78.3544 85.5117 80.3794 84.2456 77.604Z" fill="#040404"/>
<path d="M57.6067 78.6241C61.4367 78.0094 65.2164 77.0295 69.0715 76.6008C67.7452 77.254 66.181 77.2322 64.7843 77.723C62.3946 78.1199 60.0417 78.7915 57.6419 79.0981C57.6335 78.9791 57.6151 78.743 57.6067 78.6241Z" fill="#B7B7B7"/>
<path d="M90.3045 81.242C95.9281 79.145 102.103 77.8871 108.063 76.589C107.984 76.7347 107.909 76.8838 107.837 77.0329C106.946 78.6056 104.347 78.2857 103.241 79.078C104.621 79.1985 106.242 78.4767 107.741 78.4281C106.746 79.5101 105.234 79.8166 103.95 80.4129C107.106 80.3392 110.111 79.1533 113.264 78.9557C113.053 79.8467 112.161 80.3408 111.536 80.9438C110.802 81.1465 110.133 81.4697 110.563 82.4713C109.896 83.1246 109.145 83.7125 108.244 83.9938C106.678 84.8648 105.502 86.3153 104.01 87.3052C104.343 88.3738 105.206 88.9282 105.974 87.6217C107.441 87.9852 108.522 85.8145 109.87 85.4946C109.989 86.1511 109.31 86.7709 109.711 87.399C109.15 87.6954 108.567 87.9517 108.009 88.2548C110.402 87.9433 109.381 90.0537 107.868 90.3183C104.027 91.8643 100.016 92.9094 95.9783 93.8005C94.2886 94.3197 90.9275 93.4102 91.7381 96.2375C91.5321 95.5592 92.0713 94.1238 90.9644 94.3247C90.4687 94.6765 89.5074 93.9797 89.916 93.494C91.229 92.9178 92.5637 93.7519 93.8766 93.2578C98.3312 92.216 102.861 91.1993 107.058 89.3402C107.611 89.3519 108.379 88.0488 107.433 88.3805C102.154 90.3066 96.6448 91.5494 91.1352 92.5594C90.4569 92.3115 89.7201 92.4974 89.0234 92.4455C87.8327 92.3232 89.5275 89.903 87.7825 90.4574C78.8214 89.7773 69.8937 88.5396 60.9226 88.084C61.3396 87.8931 61.7515 87.6971 62.1635 87.4978C63.4647 86.868 64.8664 87.2851 66.1777 86.8111C65.5044 87.61 67.4169 86.9116 67.6413 87.1996C74.3936 87.8127 81.1525 88.3838 87.898 89.0638C89.2127 89.5094 88.6014 87.5078 88.4272 86.6921C87.0172 86.7692 85.5887 87.3102 84.1853 86.935C84.316 86.2918 84.0815 85.8765 83.5071 85.8848C80.1779 85.6018 76.8352 85.4025 73.5211 84.9737C73.8644 84.7978 74.2077 84.6203 74.556 84.4561C74.983 84.3154 75.4134 84.1814 75.8505 84.0776C76.5556 84.0592 77.48 84.57 77.8534 83.9637C79.8329 84.3741 81.8693 84.3791 83.8772 84.5935C84.9322 83.4847 86.488 83.2753 87.8093 82.6405C86.7425 82.4345 85.6456 82.5048 84.5839 82.2787C84.7664 82.1749 84.949 82.0677 85.1349 81.9689C85.7796 81.7897 86.3959 81.5183 87.054 81.381C88.1861 82.0124 89.2177 80.6423 90.3045 81.242ZM99.9087 85.2802C99.2305 85.7977 98.5673 86.3354 97.8874 86.8496C95.8494 87.4542 94.5515 89.3854 92.8065 90.5277C93.0694 90.8493 93.2988 92.3098 93.9185 91.6097C94.2886 91.3652 95.4089 90.2346 94.9903 91.3534C97.5123 90.0772 99.1183 87.7775 101.342 86.1377C101.851 85.3723 100.192 84.4863 99.9087 85.2802Z" fill="#1D1E1E"/>
<path d="M103.241 79.078C104.347 78.2857 106.946 78.6056 107.837 77.0329C109.103 77.2255 110.302 77.7414 111.608 77.3042C112.442 77.3226 114.168 76.7565 113.921 78.0965C114.602 79.9288 112.866 80.5569 111.536 80.9438C112.161 80.3408 113.053 79.8467 113.264 78.9557C110.111 79.1533 107.106 80.3392 103.95 80.4129C105.234 79.8166 106.746 79.5101 107.741 78.4281C106.242 78.4767 104.621 79.1985 103.241 79.078Z" fill="#3B3A31"/>
<path d="M50.3404 79.5637C52.0737 78.6442 54.2691 78.6475 56.1916 78.274C55.6072 79.3242 52.1574 78.5554 53.0349 80.0075C53.9309 80.9689 56.0108 80.2554 57.3087 80.6189C57.4175 81.1649 57.4142 81.7126 57.4426 82.2704C56.6505 82.3457 54.5153 83.2401 55.9924 83.7845C51.2866 83.5282 46.6327 82.7142 41.9855 82.3675C41.4864 82.0677 41.2386 82.5936 40.9974 82.9353C40.4364 82.5048 39.9876 81.9454 39.4986 81.4413C40.5453 81.5652 41.602 81.2922 42.6821 81.1281C43.6166 80.9606 46.3279 82.3993 45.8992 80.5318C46.8336 80.3124 47.7681 80.0946 48.7109 79.9104C50.0155 80.0695 51.3268 80.2504 52.643 80.2755C52.206 79.4699 51.0789 79.8317 50.3404 79.5637Z" fill="#4F4F4B"/>
<path d="M22.6666 79.5017C23.6211 77.2758 25.2807 80.3459 26.2403 80.5653C24.8688 80.7512 25.3979 81.2252 26.1666 81.9186C25.2121 82.87 27.2417 83.4964 27.5164 84.4176C27.8664 84.7057 28.615 84.6973 28.1879 84.086C28.615 84.2317 28.4776 84.627 28.3922 84.9636C28.2566 85.1445 28.1243 85.3304 27.9719 85.4996C25.5805 84.0642 24.2391 81.5267 22.6666 79.5017Z" fill="#6F6E6D"/>
<path d="M68.7583 78.6743C70.1851 78.1182 69.4868 78.8468 69.0464 78.8117C66.1124 79.4481 63.1767 80.0779 60.2393 80.7026C60.1104 80.4648 58.8946 81.3592 59.1642 80.6524C62.346 79.9238 65.5547 79.3058 68.7583 78.6743Z" fill="#A7A7A7"/>
<path d="M92.6306 79.6022C93.2469 79.5 93.952 79.0964 94.5063 79.5419C92.0278 80.1767 89.5359 80.7612 87.054 81.381C86.3959 81.5183 85.7796 81.7897 85.1349 81.9689C83.6779 81.8968 82.308 82.9386 80.8695 82.5869C84.6844 81.3156 88.7337 80.6725 92.6306 79.6022Z" fill="#949292"/>
<path d="M121.068 79.3543C121.967 78.8468 122.602 80.5971 121.43 80.7646C119.625 82.406 117.789 84.6789 115.391 85.1043C114.974 85.6838 114.641 85.2651 114.349 84.8196C114.011 84.1731 114.892 83.8699 115.25 83.4813C116.207 82.7695 117.037 81.8768 118.092 81.3039C117.411 82.7377 119.288 82.5584 119.847 81.6925C120.435 81.0862 122.51 80.2337 121.068 79.3543Z" fill="#605E58"/>
<path d="M118.092 81.3039C119.204 80.8534 120.07 79.9941 121.068 79.3543C122.51 80.2337 120.435 81.0862 119.847 81.6925C119.288 82.5584 117.411 82.7377 118.092 81.3039Z" fill="#BBB9BA"/>
<path d="M48.7109 79.9104C49.2451 79.763 49.7894 79.634 50.3404 79.5637C51.0789 79.8317 52.206 79.4699 52.643 80.2755C51.3268 80.2504 50.0155 80.0695 48.7109 79.9104Z" fill="#0D0D0A"/>
<path d="M57.3087 80.6189C56.5316 79.5268 54.3194 80.2705 53.0349 80.0075C53.9309 80.9689 56.0108 80.2554 57.3087 80.6189Z" fill="#0C0C0A"/>
<path d="M45.8992 80.5318C44.7989 80.4748 43.7439 80.912 42.6821 81.1281C43.6166 80.9606 46.3279 82.3993 45.8992 80.5318Z" fill="#0B0A09"/>
<path d="M26.6071 80.5954C28.2733 81.6054 29.1291 84.1312 31.3782 83.9201C39.1854 84.4544 46.9877 85.6286 54.7933 85.8262C54.1117 88.1342 51.0086 86.6402 49.2435 87.1377C49.3691 87.0355 49.4913 86.93 49.6119 86.8245C42.5415 86.1964 35.4392 85.6855 28.3922 84.9636C28.4776 84.627 28.615 84.2317 28.1879 84.086C27.8078 83.7041 27.2736 83.3691 27.2016 82.7946C29.4121 82.7929 26.8147 81.4563 26.6071 80.5954Z" fill="#4A4639"/>
<path d="M67.3064 81.3843C69.4081 80.7964 71.6237 81.4128 73.7555 81.4982C71.5868 82.0308 69.4131 82.5869 67.2109 82.9604L67.1841 82.7795C67.087 82.3055 67.0552 81.8181 67.3064 81.3843Z" fill="#050505"/>
<path d="M26.1666 81.9186C26.5099 82.2101 26.8549 82.4998 27.2016 82.7946C27.2736 83.3691 27.8078 83.7041 28.1879 84.086C28.615 84.6973 27.8664 84.7057 27.5164 84.4176C27.2417 83.4964 25.2121 82.87 26.1666 81.9186Z" fill="#CFCCCC"/>
<path d="M110.881 82.2402C111.544 81.4128 112.815 82.6656 112.032 83.2636C111.506 83.6187 110.928 83.9319 110.519 84.4293C110.039 85.2986 110.975 86.9919 109.711 87.399C109.31 86.7709 109.989 86.1511 109.87 85.4946C108.522 85.8145 107.441 87.9852 105.974 87.6217C105.206 88.9282 104.343 88.3738 104.01 87.3052C105.502 86.3153 106.678 84.8648 108.244 83.9938C108.078 84.3154 107.634 84.7978 108.066 85.0976C109.176 86.1796 109.903 83.8783 110.933 83.689C111.787 83.416 112.117 82.0727 110.881 82.2402Z" fill="#605E56"/>
<path d="M110.563 82.4713C110.642 82.4127 110.802 82.2988 110.881 82.2402C112.117 82.0727 111.787 83.416 110.933 83.689C109.903 83.8783 109.176 86.1796 108.066 85.0976C107.634 84.7978 108.078 84.3154 108.244 83.9938C109.145 83.7125 109.896 83.1246 110.563 82.4713Z" fill="#BEBBBC"/>
<path d="M63.2956 84.2937C64.5549 83.5852 65.5346 82.004 67.1841 82.7795L67.2109 82.9604C67.8356 85.5666 64.7425 84.2468 63.2956 84.2937Z" fill="#A6A3A2"/>
<path d="M64.2451 86.3923C69.6777 85.3489 75.0132 83.4579 80.486 82.813C79.0542 83.5517 77.3728 83.5885 75.8505 84.0776C75.4134 84.1814 74.983 84.3154 74.556 84.4561C71.2653 85.0842 68.0382 85.9987 64.7777 86.7558C64.4695 86.8312 64.0642 86.8027 64.2451 86.3923Z" fill="#ADA9A8"/>
<path d="M110.519 84.4293C110.928 83.9319 111.506 83.6187 112.032 83.2636C113.103 83.339 114.172 83.4462 115.25 83.4813C114.892 83.8699 114.011 84.1731 114.349 84.8196C113.077 84.6454 111.792 84.5918 110.519 84.4293Z" fill="#1F201E"/>
<path d="M99.9087 85.2802C100.192 84.4863 101.851 85.3723 101.342 86.1377C99.1183 87.7775 97.5123 90.0772 94.9903 91.3534C95.4089 90.2346 94.2886 91.3652 93.9185 91.6097C93.2988 92.3098 93.0694 90.8493 92.8065 90.5277C94.5515 89.3854 95.8494 87.4542 97.8874 86.8496C97.3515 87.2315 96.1994 88.0672 97.3448 88.4877C98.6477 88.2364 99.5269 86.9451 100.612 86.2416C101.181 85.7458 100.456 85.1881 99.9087 85.2802Z" fill="#62615B"/>
<path d="M99.9087 85.2802C100.456 85.1881 101.181 85.7458 100.612 86.2416C99.5269 86.9451 98.6477 88.2364 97.3448 88.4877C96.1994 88.0672 97.3515 87.2315 97.8874 86.8496C98.5673 86.3354 99.2305 85.7977 99.9087 85.2802Z" fill="#C2BFC0"/>
<path d="M54.9424 88.1594C57.4895 88.764 59.8592 86.9333 62.3712 87.079C62.8936 87.1963 62.4247 87.3621 62.1635 87.4978C58.8929 87.5916 55.7077 90.1659 52.5241 88.5513C52.5643 87.6418 54.2306 88.1677 54.9424 88.1594Z" fill="#BAB6B4"/>
<path d="M107.433 88.3805C108.379 88.0488 107.611 89.3519 107.058 89.3402C102.861 91.1993 98.3312 92.216 93.8766 93.2578C92.5637 93.7519 91.229 92.9178 89.916 93.494C90.2191 93.0635 90.6746 92.7905 91.1352 92.5594C96.6448 91.5494 102.154 90.3066 107.433 88.3805Z" fill="#6A6B6E"/>
<path d="M95.9783 93.8005C100.016 92.9094 104.027 91.8643 107.868 90.3183C107.865 90.9716 107.862 91.6281 107.857 92.2864C106.668 92.9111 107.848 94.1857 107.549 95.1756C107.455 97.6662 107.619 100.286 107.026 102.706C105.804 103.79 106.731 106.086 105.023 106.717C103.765 107.109 104.032 108.607 103.714 109.608C103.374 111.555 100.13 110.699 100.155 112.936C100.292 115.229 97.2092 114.628 96.9898 116.621C96.9044 117.355 96.2429 117.589 95.6417 117.809C94.384 119.253 93.7426 121.134 93.2921 122.981C92.9723 123.777 92.634 122.611 92.4816 122.272C92.4682 121.458 92.4515 120.653 92.4749 119.844C92.984 119.854 93.1917 119.485 93.2051 119.023C93.6019 115.69 94.1814 112.395 94.8546 109.113C95.3771 106.877 94.1814 104.815 93.9754 102.642C95.1979 101.438 93.8247 100.137 93.0895 99.12C93.9386 98.6444 94.178 94.7033 92.0747 95.0952C93.2905 94.6329 95.841 95.6245 95.9783 93.8005Z" fill="#8C8C8F"/>
<path d="M91.7381 96.2375C90.9275 93.4102 94.2886 94.3197 95.9783 93.8005C95.841 95.6245 93.2905 94.6329 92.0747 95.0952C91.7347 96.4887 91.79 98.2323 93.0895 99.12C93.8247 100.137 95.1979 101.438 93.9754 102.642C93.602 102.086 93.2654 101.51 92.835 101.001C92.6541 100.777 92.4297 100.577 92.1483 100.497C91.9876 104.126 92.3376 107.746 92.351 111.374C92.1316 114.201 92.4732 117.02 92.4749 119.844C92.4515 120.653 92.4682 121.458 92.4816 122.272C92.4766 123.215 92.4749 124.163 92.505 125.111C92.346 128.126 92.5972 131.24 93.4613 134.134C93.7359 133.437 94.0826 132.848 94.9517 132.84C95.2364 131.27 96.9178 131.129 97.9678 130.161C101.096 128.771 104.872 127.996 106.944 125.073C107.281 124.755 107.783 124.433 108.046 125.008C108.022 128.512 108.069 132.015 108.016 135.519C106.051 138.667 102.191 139.589 99.4566 141.859C97.5106 142.715 95.7439 144.452 93.5618 144.51C92.9773 140.97 93.1732 137.348 92.5201 133.818C92.485 132.645 92.4481 131.476 92.3309 130.312C92.346 125.468 92.2153 120.633 92.135 115.794C92.1869 113.387 92.0948 110.987 91.9541 108.587C91.9558 108.463 91.9574 108.212 91.9591 108.086C91.9608 108.002 91.9625 107.836 91.9641 107.753C91.9792 107.155 91.9323 106.547 91.9022 105.955C91.9022 104.306 92.14 102.624 91.8436 100.991C91.7581 99.4065 91.8184 97.8186 91.7381 96.2375Z" fill="#6B6862"/>
<path d="M92.0747 95.0952C91.7347 96.4887 91.79 98.2323 93.0895 99.12C93.9386 98.6444 94.178 94.7033 92.0747 95.0952Z" fill="#B5B3B5"/>
<path d="M65.7372 101.939C69.4835 100.468 73.7053 99.5656 77.5135 101.261C80.5597 103.646 84.3997 104.726 87.7691 106.583C89.0285 107.334 90.467 107.91 91.9641 107.753C91.9625 107.836 91.9608 108.002 91.9591 108.086C88.1878 108.404 85.3057 105.352 81.8894 104.24C80.0941 103.436 78.2989 102.574 76.7398 101.361C73.5479 100.078 70.1684 100.837 67.0686 101.993C62.4247 103.267 57.8797 104.808 53.2677 106.198C50.883 106.806 48.3442 108.277 45.8874 107.114C42.7156 107.647 39.7046 108.853 36.5998 109.66C35.3136 110.34 33.6741 110.154 32.5354 111.106C32.7346 111.503 33.6038 112.184 32.8519 112.436C22.3501 115.683 11.8014 118.879 1.31126 122.095C0.738526 122.922 2.33113 122.947 2.75315 123.266C5.24505 126.609 8.44868 129.481 10.9489 132.841C11.386 134.124 8.82883 132.927 8.89581 133.853C10.6559 134.389 12.6939 134.685 13.9081 136.243C13.62 136.687 12.6203 137.281 13.3722 137.775C16.1873 138.819 19.0845 137.995 21.9347 137.724C23.1104 138.273 20.2651 138.986 21.0706 139.948C23.8087 141.825 27.4896 141.691 30.3315 140.07C31.7097 139.102 33.4983 139.653 34.9804 139.03C35.677 136.789 38.5809 137.161 40.217 136.052C41.5166 135.203 43.0455 134.791 44.5795 135.179C45.6245 135.345 44.7855 133.813 45.8004 133.766C48.4597 133.546 50.4157 130.699 53.2158 131.558C54.8235 131.935 56.4445 131.754 58.0606 131.593C60.7735 133.153 64.2669 132.6 66.8727 134.511C70.7244 137.231 74.3115 140.266 78.2202 142.943C80.2683 144.68 82.9243 145.772 84.6643 147.818C82.5575 149.389 80.3503 151.089 79.1446 153.486C78.7125 155.298 78.4228 158.015 80.3688 159.057C85.3124 160.866 90.6646 159.124 95.5345 157.856C93.4378 159.223 90.7165 159.191 88.3686 160H81.3434C79.3774 159.147 77.3795 157.853 76.5606 155.788C76.4618 154.168 77.902 153.315 78.4128 151.965C79.585 150.141 82.6848 149.552 83.2157 147.503C79.4913 144.514 75.457 141.856 71.6254 138.98C69.182 137.231 67.0837 134.868 64.1664 133.881C59.9044 132.992 55.6022 131.788 51.2196 132.141C49.7107 133.017 48.1164 133.721 46.4954 134.365C46.8805 134.87 47.5906 134.831 48.1432 134.975C53.6177 135.317 58.8292 137.786 64.3724 137.276C65.1243 137.228 66.9313 137.198 66.8258 138.345C65.2784 139.608 62.9238 139.618 61.1202 138.93C56.2553 137.75 51.2514 137.179 46.3831 135.925C42.935 134.903 39.9809 136.967 36.9046 138.085C36.3385 138.45 37.0369 138.804 37.4271 138.832C41.2938 139.117 44.9614 140.524 48.8215 140.856C50.8629 141.149 52.8875 142.135 54.9641 141.427C55.7227 141.199 58.5245 141.372 57.6034 142.72C53.4569 144.855 48.9035 142.191 44.6901 141.643C40.3192 141.524 36.1727 138.983 31.7734 140.157C29.1509 141.568 25.9874 142.537 23.0718 141.479C21.8242 140.814 19.0309 140.97 19.7811 138.896C17.3713 139.023 14.789 138.876 12.503 138.144C11.0411 137.559 13.1511 136.236 12.0241 135.603C10.3494 134.531 8.24604 134.818 6.4642 134.123C5.51634 133.357 4.17996 133.046 3.40292 132.146C3.63067 130.972 5.52639 131.624 6.38717 131.701C6.89794 131.843 10.0497 132.935 8.70992 131.376C5.90151 128.362 3.6022 124.52 0 122.629C0.0519146 121.537 1.51055 121.532 2.31104 121.249C12.1832 118.211 22.0955 115.291 31.9609 112.221C32.5555 111.769 30.916 110.932 32.182 110.59C36.7203 109.278 41.2252 107.5 45.9042 106.733C48.376 107.779 50.7523 106.302 53.1722 105.793C57.3438 104.446 61.5171 103.118 65.7372 101.939Z" fill="black" fill-opacity="0.11"/>
<path d="M67.0686 101.993C70.1684 100.837 73.5479 100.078 76.7398 101.361C78.2989 102.574 80.0941 103.436 81.8894 104.24C85.3057 105.352 88.1878 108.404 91.9591 108.086C91.9574 108.212 91.9558 108.463 91.9541 108.587C87.8562 108.65 84.6291 105.533 80.8846 104.254C77.9405 103.15 75.6395 100.488 72.2132 101.046C64.0525 102.897 56.2084 106.126 48.0545 108.032C44.685 106.96 41.473 108.943 38.2225 109.623C36.7086 110.32 35.0239 110.489 33.4949 111.114C33.8249 111.67 34.3005 112.35 33.4581 112.712C23.2008 115.935 12.8681 119.052 2.57731 122.2C2.05314 122.636 3.35937 122.741 3.61225 123.078C6.25989 126.83 9.89559 129.821 12.5114 133.6C12.8932 134.868 14.1978 135.258 15.0954 136.055C15.7301 136.707 14.233 136.898 14.3385 137.471C17.3361 138.29 20.2065 136.95 23.1891 136.928C23.3147 135.122 25.7128 135.24 26.9286 135.936C27.3305 136.096 27.5633 136.782 27.0559 136.96C25.9137 137.789 23.3498 136.199 23.4955 138.271C21.995 138.742 21.7823 140.142 23.3649 140.341C25.9573 141.467 28.6434 140.102 31.0215 139.079C33.7914 139.266 35.384 136.462 38.1003 136.278C39.862 135.68 41.3692 134.355 43.342 134.476C45.1992 132.994 47.7179 132.836 49.6739 131.449C51.6248 130.123 53.9091 131.749 55.9371 131.168C57.9433 129.86 59.8793 132.089 61.9843 131.689C64.3523 131.15 65.4643 133.593 67.5124 134.211C72.2634 137.648 76.8754 141.291 81.7319 144.599C82.8339 145.636 84.4784 146.117 85.3124 147.408C85.0997 147.549 84.882 147.684 84.6643 147.818C82.9243 145.772 80.2683 144.68 78.2202 142.943C74.3115 140.266 70.7244 137.231 66.8727 134.511C64.2669 132.6 60.7735 133.153 58.0606 131.593C56.4445 131.754 54.8235 131.935 53.2158 131.558C50.4157 130.699 48.4597 133.546 45.8004 133.766C44.7855 133.813 45.6245 135.345 44.5795 135.179C43.0455 134.791 41.5166 135.203 40.217 136.052C38.5809 137.161 35.677 136.789 34.9804 139.03C33.4983 139.653 31.7097 139.102 30.3315 140.07C27.4896 141.691 23.8087 141.825 21.0706 139.948C20.2651 138.986 23.1104 138.273 21.9347 137.724C19.0845 137.995 16.1873 138.819 13.3722 137.775C12.6203 137.281 13.62 136.687 13.9081 136.243C12.6939 134.685 10.6559 134.389 8.89581 133.853C8.82883 132.927 11.386 134.124 10.9489 132.841C8.44868 129.481 5.24505 126.609 2.75315 123.266C2.33113 122.947 0.738526 122.922 1.31126 122.095C11.8014 118.879 22.3501 115.683 32.8519 112.436C33.6038 112.184 32.7346 111.503 32.5354 111.106C33.6741 110.154 35.3136 110.34 36.5998 109.66C39.7046 108.853 42.7156 107.647 45.8874 107.114C48.3442 108.277 50.883 106.806 53.2677 106.198C57.8797 104.808 62.4247 103.267 67.0686 101.993Z" fill="black" fill-opacity="0.11"/>
<path d="M92.1483 100.497C92.4297 100.577 92.6541 100.777 92.835 101.001C93.3457 105.3 93.1531 109.724 92.917 114.059C92.2438 116.933 92.5938 112.208 92.351 111.374C92.3376 107.746 91.9876 104.126 92.1483 100.497Z" fill="#D8D4D4"/>
<path d="M48.0545 108.032C56.2084 106.126 64.0525 102.897 72.2132 101.046C75.6395 100.488 77.9405 103.15 80.8846 104.254C84.6291 105.533 87.8562 108.65 91.9541 108.587C92.0948 110.987 92.1869 113.387 92.135 115.794C91.4048 115.092 89.7285 115.802 89.4036 116.764C86.848 117.018 84.0949 118.184 82.0032 119.717C80.3654 119.589 78.4278 120.333 78.5183 122.261C76.4852 123.249 78.9487 124.644 78.4412 126.284C81.8458 128.927 85.9102 130.66 89.2864 133.367C90.2861 133.91 91.1703 134.752 92.2773 135.076C92.3158 133.486 92.289 131.898 92.3309 130.312C92.4481 131.476 92.485 132.645 92.5201 133.818C92.3409 136.63 92.557 139.452 92.5519 142.259C89.8423 143.544 87.6284 145.559 85.3124 147.408C84.4784 146.117 82.8339 145.636 81.7319 144.599C76.8754 141.291 72.2634 137.648 67.5124 134.211C65.4643 133.593 64.3523 131.15 61.9843 131.689C59.8793 132.089 57.9433 129.86 55.9371 131.168C53.9091 131.749 51.6248 130.123 49.6739 131.449C47.7179 132.836 45.1992 132.994 43.342 134.476C41.3692 134.355 39.862 135.68 38.1003 136.278C35.384 136.462 33.7914 139.266 31.0215 139.079C28.6434 140.102 25.9573 141.467 23.3649 140.341C21.7823 140.142 21.995 138.742 23.4955 138.271C23.3498 136.199 25.9137 137.789 27.0559 136.96C27.5633 136.782 27.3305 136.096 26.9286 135.936C25.7128 135.24 23.3147 135.122 23.1891 136.928C20.2065 136.95 17.3361 138.29 14.3385 137.471C14.233 136.898 15.7301 136.707 15.0954 136.055C14.1978 135.258 12.8932 134.868 12.5114 133.6C9.89559 129.821 6.25989 126.83 3.61225 123.078C3.35937 122.741 2.05314 122.636 2.57731 122.2C12.8681 119.052 23.2008 115.935 33.4581 112.712C34.3005 112.35 33.8249 111.67 33.4949 111.114C35.0239 110.489 36.7086 110.32 38.2225 109.623C41.473 108.943 44.685 106.96 48.0545 108.032Z" fill="black" fill-opacity="0.11"/>
<path d="M91.9022 105.955C91.9022 104.306 92.14 102.624 91.8436 100.991C91.8469 102.641 91.6376 104.316 91.9022 105.955Z" fill="#2E2F30"/>
<path d="M92.835 101.001C93.2654 101.51 93.602 102.086 93.9754 102.642C94.1814 104.815 95.3771 106.877 94.8546 109.113C94.1814 112.395 93.6019 115.69 93.2051 119.023C93.1917 119.485 92.984 119.854 92.4749 119.844C92.4732 117.02 92.1316 114.201 92.351 111.374C92.5938 112.208 92.2438 116.933 92.917 114.059C93.1531 109.724 93.3457 105.3 92.835 101.001Z" fill="#A6A4A4"/>
<path d="M107.915 105.188C108.175 110.566 108.012 115.965 107.996 121.351C107.731 118.648 107.949 115.93 107.845 113.223C107.914 110.543 107.823 107.865 107.915 105.188Z" fill="#3C3B3A"/>
<path d="M105.969 116.909C106.316 115.512 107.416 114.591 107.845 113.223C107.949 115.93 107.731 118.648 107.996 121.351C108.038 122.567 108.044 123.787 108.046 125.008C107.783 124.433 107.281 124.755 106.944 125.073C104.872 127.996 101.096 128.771 97.9678 130.161C96.9178 131.129 95.2364 131.27 94.9517 132.84C94.0826 132.848 93.7359 133.437 93.4613 134.134C92.5972 131.24 92.346 128.126 92.505 125.111C92.7428 125.874 92.8031 126.728 93.2804 127.394C93.7259 126.575 93.6304 125.503 94.2718 124.795C97.0618 122.326 100.354 120.728 103.707 119.154C104.05 118.011 104.898 117.345 105.969 116.909Z" fill="#76736F"/>
<path d="M92.5201 133.818C93.1732 137.348 92.9773 140.97 93.5618 144.51C95.7439 144.452 97.5106 142.715 99.4566 141.859C102.191 139.589 106.051 138.667 108.016 135.519C108.012 135.965 108.043 136.412 108.105 136.861C108.836 138.814 106.569 139.733 105.499 140.906C104.26 141.614 102.978 142.259 101.788 143.046C98.9592 144.314 96.2211 146.08 93.1381 146.617C92.7847 145.187 92.6424 143.723 92.5519 142.259C92.557 139.452 92.3409 136.63 92.5201 133.818Z" fill="#5C5951"/>
<path d="M108.105 136.861C109.771 136.759 111.472 136.57 113.11 137.017C115.324 137.496 118.715 136.846 119.862 139.395C119.542 140.057 117.824 141.509 118.022 139.717C116.413 140.831 114.535 141.606 113.522 143.38C112.541 144.015 113.834 142.544 113.946 142.087C113.993 142.003 114.086 141.837 114.135 141.753C114.544 140.911 115.113 139.735 114.544 138.874C112.149 140.648 109.386 142.197 106.323 142.246C107.167 141.055 109.329 140.504 109.377 138.886C107.974 139.224 107.039 140.787 105.499 140.906C106.569 139.733 108.836 138.814 108.105 136.861Z" fill="#4A4530"/>
<path d="M105.499 140.906C107.039 140.787 107.974 139.224 109.377 138.886C109.329 140.504 107.167 141.055 106.323 142.246C109.386 142.197 112.149 140.648 114.544 138.874C115.113 139.735 114.544 140.911 114.135 141.753C112.202 142.102 110.853 144.44 108.825 145.048C107.426 144.035 105.199 145.708 103.514 144.768C102.603 143.462 105.39 142.817 106.221 141.891C104.688 142.09 103.385 143.18 101.788 143.046C102.978 142.259 104.26 141.614 105.499 140.906Z" fill="#25292C"/>
<path d="M119.862 139.395C121.07 145.375 114.758 148.652 110.57 151.329C112.825 148.808 116.464 147.48 118.092 144.413C116.431 145.154 115.069 146.676 113.438 147.617C113.271 146.532 113.889 145.693 114.577 144.916C112.519 145.157 110.71 146.013 108.843 146.79C110.642 145.331 112.425 143.839 113.946 142.087C113.834 142.544 112.541 144.015 113.522 143.38C114.535 141.606 116.413 140.831 118.022 139.717C117.824 141.509 119.542 140.057 119.862 139.395Z" fill="#2A2C2A"/>
<path d="M108.825 145.048C110.853 144.44 112.202 142.102 114.135 141.753C114.086 141.837 113.993 142.003 113.946 142.087C112.425 143.839 110.642 145.331 108.843 146.79C110.71 146.013 112.519 145.157 114.577 144.916C113.889 145.693 113.271 146.532 113.438 147.617C115.069 146.676 116.431 145.154 118.092 144.413C116.464 147.48 112.825 148.808 110.57 151.329C105.899 154.188 100.763 156.26 95.5345 157.856C90.6646 159.124 85.3124 160.866 80.3688 159.057C80.1125 158.076 79.5666 157.186 79.4477 156.168C79.8764 155.401 80.8393 155.119 81.6197 154.846C81.4623 153.659 82.7652 153.645 83.4669 153.175C84.249 152.85 85.2353 151.635 85.9822 152.672C86.2686 151.759 84.7061 150.332 85.8985 149.748C88.248 148.768 90.4904 147.549 92.6189 146.217C92.5804 146.565 92.8517 146.626 93.1381 146.617C96.2211 146.08 98.9592 144.314 101.788 143.046C103.385 143.18 104.688 142.09 106.221 141.891C105.39 142.817 102.603 143.462 103.514 144.768C105.199 145.708 107.426 144.035 108.825 145.048Z" fill="#16191B"/>
<path d="M85.3124 147.408C87.6284 145.559 89.8423 143.544 92.5519 142.259C92.6424 143.723 92.7847 145.187 93.1381 146.617C92.8517 146.626 92.5804 146.565 92.6189 146.217C92.6072 145.617 91.7682 146.254 91.4718 146.304C89.7268 147.403 87.6569 147.706 85.7629 148.44C84.7999 148.897 85.4681 150.207 85.2236 151.061C83.971 151.195 82.792 151.697 81.6532 152.2C81.1039 152.995 80.1477 153.684 79.1446 153.486C80.3503 151.089 82.5575 149.389 84.6643 147.818C84.882 147.684 85.0997 147.549 85.3124 147.408Z" fill="#544B35"/>
<path d="M91.4718 146.304C91.7682 146.254 92.6072 145.617 92.6189 146.217C90.4904 147.549 88.248 148.768 85.8985 149.748C84.7061 150.332 86.2686 151.759 85.9822 152.672C85.2353 151.635 84.249 152.85 83.4669 153.175C82.7652 153.645 81.4623 153.659 81.6197 154.846C80.8393 155.119 79.8764 155.401 79.4477 156.168C79.5666 157.186 80.1125 158.076 80.3688 159.057C78.4228 158.015 78.7125 155.298 79.1446 153.486C80.1477 153.684 81.1039 152.995 81.6532 152.2C82.792 151.697 83.971 151.195 85.2236 151.061C85.4681 150.207 84.7999 148.897 85.7629 148.44C87.6569 147.706 89.7268 147.403 91.4718 146.304Z" fill="#32322B"/>
</svg>
