<svg width="26" height="13" viewBox="0 0 26 13" fill="none" xmlns="http://www.w3.org/2000/svg">
<path d="M15.8261 0.0583586C16.055 0.057247 16.2798 0.000555803 16.5087 0C18.5803 0.00277902 20.6514 0.000555735 22.723 0.00166734C22.6357 0.386283 22.6888 0.78146 22.6717 1.17108C22.6483 1.16997 22.6009 1.16774 22.5775 1.16663C22.2282 1.12606 21.883 1.20331 21.5348 1.20943C20.9607 1.18886 20.3923 1.29058 19.8182 1.26501C19.3114 1.3317 18.8 1.29947 18.2921 1.34171C17.787 1.42174 17.2614 1.30447 16.7683 1.46565C16.3203 1.43619 15.8746 1.3745 15.4249 1.37784C14.4741 1.38562 13.5233 1.37784 12.5725 1.38117C12.1902 1.38506 11.8124 1.31837 11.43 1.32226C10.441 1.32781 9.45195 1.31948 8.46293 1.32392C8.06229 1.32837 7.66509 1.26112 7.26445 1.26723C6.31309 1.27168 5.36231 1.26056 4.41095 1.26723C4.01032 1.27112 3.61311 1.20387 3.21191 1.21165C2.52821 1.22054 1.84336 1.19331 1.15966 1.22054C1.13227 1.22165 1.07748 1.22332 1.05066 1.22443C1.04895 1.0199 1.03639 0.814808 0.995303 0.613607C1.39479 0.636395 1.78744 0.541353 2.18693 0.551357C2.58413 0.49411 2.98705 0.512451 3.38426 0.454092C3.80429 0.454092 4.21862 0.38128 4.63809 0.38128C5.01703 0.321809 5.40283 0.346822 5.78177 0.287351C6.20124 0.287351 6.61557 0.214539 7.03503 0.214539C7.43224 0.156736 7.83573 0.174521 8.2335 0.117274C8.61644 0.12839 8.99311 0.0372383 9.37605 0.055024C11.5259 0.060582 13.6763 0.0533564 15.8261 0.0583586ZM16.4733 1.01323C16.4077 1.08882 16.5463 1.16552 16.596 1.08993C16.6616 1.01378 16.5224 0.93764 16.4733 1.01323ZM16.9139 1.01823C17.1045 1.02657 16.8248 1.18275 16.9139 1.01823Z" fill="#0C0C0C"/>
<path d="M20.5846 1.37172C20.8546 1.34671 21.1274 1.36283 21.3956 1.31281C21.4509 1.39229 21.508 1.47121 21.5611 1.55291C21.5497 1.64684 21.5383 1.74133 21.5274 1.83582C21.3939 1.86027 21.2603 1.88528 21.1268 1.90974C21.1268 1.86305 21.1268 1.77023 21.1268 1.72355C21.2255 1.7191 21.3248 1.71465 21.4247 1.71076L21.4041 1.67741C21.3682 1.61794 21.3374 1.55569 21.294 1.50178C21.2209 1.47677 21.1433 1.47232 21.068 1.46287C21.0503 1.46121 21.0144 1.45731 20.9961 1.45565C21.1513 1.77023 21.036 2.1165 21.0366 2.44776C21.0126 3.05747 20.9299 3.66608 20.9367 4.27579C20.9373 4.28246 20.9379 4.2958 20.9379 4.30247C20.9636 4.57759 20.9219 4.85216 20.8894 5.12506C20.8888 5.12951 20.8871 5.13784 20.8865 5.14229L20.8877 5.14173C20.9835 5.12951 21.0788 5.11617 21.1747 5.10283C21.2455 4.77268 21.258 4.43586 21.2455 4.0996L21.254 4.0607C21.2963 3.87784 21.3026 3.68998 21.3031 3.50323C21.3043 3.33371 21.3265 3.16419 21.3756 3.00134L21.4304 2.98522C21.4469 3.30592 21.4093 3.62606 21.3585 3.94287C21.3699 3.9701 21.3922 4.02457 21.4036 4.05125C21.4475 4.2769 21.3887 4.50756 21.3408 4.72766C21.2666 4.77157 21.2717 4.80436 21.3545 4.82604C21.387 5.0906 21.2894 5.3496 21.3048 5.61472C21.3174 5.87595 21.2512 6.13162 21.2483 6.39229C21.2535 6.73355 21.1633 7.06926 21.1947 7.41163C21.1936 7.47222 21.193 7.53335 21.1936 7.59505C20.9008 7.8446 20.5492 8.02357 20.1754 8.12362C19.8918 8.16086 19.6053 8.10416 19.3205 8.09916C19.2035 8.09082 19.0865 8.08304 18.9701 8.07471C18.8314 8.06026 18.6887 8.05748 18.5575 8.00968C18.4496 7.95465 18.3674 7.86406 18.279 7.78458C18.122 7.93298 17.9451 8.06581 17.8196 8.242C17.8024 8.37651 17.8532 8.50768 17.8812 8.63829C17.7402 8.69387 17.605 8.6294 17.4829 8.56214C17.48 8.32815 17.4492 8.09082 17.4966 7.85961C17.7288 7.70899 18.0102 7.65452 18.2619 7.54169C18.2596 7.40385 18.2573 7.26546 18.2607 7.12817C18.2864 7.11873 18.3389 7.09983 18.3646 7.08982C18.4416 7.21043 18.4439 7.3555 18.4548 7.49222C18.5609 7.45221 18.6671 7.4133 18.7732 7.37439C18.7721 7.24545 18.7704 7.1165 18.7686 6.98756C18.8023 6.982 18.8691 6.97033 18.9022 6.96477C18.9056 7.1982 18.8976 7.43275 18.9227 7.66564C18.9421 7.67064 18.9804 7.68064 18.9998 7.68564C19.1328 7.7151 19.2674 7.73678 19.4027 7.75456C19.6806 7.78291 19.9603 7.79069 20.2376 7.82348C20.3244 7.82348 20.4357 7.86017 20.4933 7.77346C20.5783 7.66841 20.5972 7.53002 20.6371 7.40552C20.3249 7.16708 20.0887 6.8525 19.7891 6.60072C19.5003 6.26668 19.2355 5.90263 19.0814 5.48911C19.0745 5.41463 19.0677 5.34015 19.0614 5.26568C18.9473 5.36961 18.8394 5.47855 18.727 5.5836C18.6962 5.59971 18.6351 5.63195 18.6049 5.64751C18.6123 5.51968 18.618 5.39129 18.622 5.2629C18.6442 5.25734 18.6893 5.24622 18.7121 5.24011C18.7732 5.10838 18.7555 4.9611 18.7515 4.82103C18.9096 4.8416 19.1356 4.80769 19.2064 4.98777C19.3588 5.31459 19.4917 5.65252 19.6898 5.95821C19.7594 6.0727 19.833 6.18442 19.9129 6.2928C20.1155 6.57404 20.3364 6.84527 20.608 7.06759C20.7182 6.29113 20.7125 5.50412 20.7895 4.72433C20.7992 4.34638 20.8437 3.97066 20.8523 3.59271C20.8625 3.11305 20.9727 2.63062 20.9014 2.15207C20.8928 2.20932 20.8842 2.26656 20.8762 2.32381C20.7056 2.256 20.5224 2.2799 20.3483 2.32048C20.1446 2.11261 19.8404 2.20209 19.5836 2.22154C18.6967 2.33437 17.8042 2.39551 16.9156 2.49389C16.9104 2.33159 16.9082 2.1693 16.9076 2.007C18.0307 1.91474 19.1562 1.8386 20.281 1.76578C20.3546 1.62294 20.382 1.38506 20.5846 1.37172ZM20.487 1.6235C20.6274 1.64073 20.7678 1.62683 20.8603 1.51123C20.7227 1.50623 20.5567 1.47454 20.487 1.6235ZM20.4859 1.68853C20.5087 1.77301 20.7261 1.75801 20.7518 1.67853C20.6759 1.63017 20.5584 1.63628 20.4859 1.68853ZM18.8879 5.01501C18.8714 5.09449 19.0106 5.10449 19.0437 5.04725C19.0597 4.96777 18.9199 4.95665 18.8879 5.01501ZM18.8617 5.13117C18.8908 5.15952 18.8908 5.15952 18.8617 5.13117ZM20.9202 5.23733C20.8654 5.5647 20.8283 5.89596 20.8471 6.22888C20.9407 6.18998 21.0343 6.15163 21.1285 6.11272C21.1216 5.79536 21.1998 5.48355 21.1941 5.16619C21.1028 5.18953 21.0115 5.21343 20.9202 5.23733ZM19.2994 5.49633C19.3565 5.73144 19.4643 5.95932 19.651 6.12439C19.534 5.91486 19.4381 5.69309 19.2994 5.49633ZM20.8083 6.4123C20.7661 6.68575 20.7946 6.96421 20.7958 7.23989C20.8882 7.21599 20.9807 7.19042 21.0737 7.16597C21.0726 6.84749 21.068 6.52735 21.1302 6.21277C21.0058 6.24222 20.8329 6.25945 20.8083 6.4123ZM19.8855 6.45565C19.8085 6.49289 19.8068 6.53013 19.8809 6.56737C19.9574 6.52957 19.9591 6.49233 19.8855 6.45565ZM20.0008 6.5707C20.0299 6.59905 20.0299 6.59905 20.0008 6.5707ZM20.2302 6.84805C20.2587 6.87639 20.2587 6.87639 20.2302 6.84805ZM20.5772 7.24211C20.6063 7.27046 20.6063 7.27046 20.5772 7.24211ZM20.7461 7.44387C20.7239 7.56392 20.7016 7.68398 20.6828 7.80514C20.8146 7.74623 20.9248 7.65285 20.9795 7.51946C20.9014 7.49389 20.8237 7.46888 20.7461 7.44387ZM19.0004 7.85794C19.0797 7.993 19.2549 7.9302 19.3827 7.93075C19.6584 8.02357 19.9563 8.02135 20.2433 7.99356C19.9523 7.90685 19.6373 7.86128 19.3348 7.9163C19.2263 7.88184 19.1133 7.86572 19.0004 7.85794Z" fill="#0C0C0C"/>
<path d="M21.5833 1.59126C21.8676 1.58515 22.1506 1.55514 22.4314 1.51345C22.4383 1.6574 22.444 1.80136 22.4394 1.94587C22.1495 1.98922 21.8561 2.01145 21.5622 2.002C21.5765 1.86527 21.5868 1.72799 21.5833 1.59126Z" fill="#2A2C29"/>
<path d="M2.35928 1.61183C2.88489 1.61127 3.41336 1.58237 3.93727 1.62239C4.15527 1.74411 4.05826 2.02813 4.07309 2.2271C3.66105 2.24267 3.249 2.22266 2.83753 2.23544C2.82725 2.2749 2.80728 2.35438 2.79701 2.39384C2.67373 2.39773 2.54932 2.40829 2.42662 2.3894C2.34615 2.34271 2.35072 2.24933 2.34615 2.17041C2.33873 1.98422 2.35129 1.79747 2.35928 1.61183ZM2.77075 1.80358C2.77075 1.86361 2.77075 1.92419 2.77075 1.98477C3.12402 1.95976 3.47728 2.03257 3.8294 1.98755C3.81685 1.92864 3.80372 1.86972 3.7906 1.81136C3.45331 1.86916 3.10918 1.83415 2.77075 1.80358Z" fill="#0A0A0A"/>
<path d="M5.82686 1.70187C6.32451 1.66574 6.82558 1.66796 7.32495 1.66741L7.32381 1.73522C6.82501 1.73633 6.32565 1.72132 5.82686 1.70187Z" fill="#2A2C29"/>
<path d="M1.44273 1.7141C1.73436 1.70298 2.02656 1.70798 2.31819 1.70909C2.30335 1.88306 2.29821 2.05758 2.28908 2.2321C2.01058 2.21043 1.73721 2.13095 1.45529 2.14762C1.4473 2.00311 1.4433 1.8586 1.44273 1.7141Z" fill="#0A0A0A"/>
<path d="M8.64612 1.73411C9.04162 1.74411 9.43711 1.72799 9.83204 1.71743C9.95816 1.71799 10.0957 1.70242 10.2053 1.77746C9.68651 1.8247 9.16603 1.74689 8.64612 1.77079V1.73411Z" fill="#2A2C29"/>
<path d="M4.12731 1.76912C4.43549 1.76245 4.74367 1.76245 5.05185 1.758C5.59972 1.76579 6.14759 1.75912 6.69546 1.77579C7.56864 1.84971 8.4458 1.80469 9.32069 1.83471C10.2515 1.90529 11.1857 1.86027 12.1177 1.90196C12.6684 1.95031 13.2214 1.90974 13.7727 1.95254C13.7762 2.11261 13.775 2.27268 13.7682 2.43275C12.3819 2.38662 10.9946 2.34215 9.60718 2.32437C8.86641 2.26323 8.12108 2.30936 7.38088 2.24767C7.09438 2.23266 6.80675 2.251 6.52083 2.23044C5.72242 2.14762 4.9183 2.21265 4.11761 2.17875C4.11989 2.04202 4.12331 1.90529 4.12731 1.76912Z" fill="#0A0A0A"/>
<path d="M11.5293 1.81303C11.8928 1.76301 12.2627 1.79469 12.6285 1.77357C12.8471 1.78468 13.0862 1.72688 13.2876 1.83248C12.7032 1.88862 12.1148 1.82303 11.5293 1.81303Z" fill="#2A2C29"/>
<path d="M15.3975 1.85249C15.6229 1.83304 15.874 1.77579 16.0829 1.88806C15.8569 1.90918 15.6092 1.95865 15.3975 1.85249Z" fill="#2A2C29"/>
<path d="M13.9411 1.88917C14.2727 1.92975 14.6208 1.83971 14.9398 1.95976C15.0106 1.9103 15.0922 1.86972 15.1829 1.88862C15.2897 1.96754 15.2583 2.11094 15.2691 2.22488C15.2588 2.33771 15.2879 2.47888 15.1852 2.55947C14.7812 2.44109 14.3554 2.50723 13.9405 2.50556C13.9308 2.29991 13.9308 2.09426 13.9411 1.88917ZM14.0615 2.01479C14.0478 2.03146 14.0204 2.06536 14.0073 2.08204C14.1682 2.1026 14.2367 2.21932 14.2515 2.36716C14.3246 2.36828 14.3976 2.36939 14.4713 2.37106C14.4182 2.32937 14.3645 2.28824 14.3109 2.24767C14.2921 2.19042 14.2732 2.13373 14.2544 2.07704C14.1899 2.05591 14.1254 2.03535 14.0615 2.01479ZM14.3177 2.06258C14.3788 2.17208 14.6031 2.21599 14.6214 2.0637C14.5358 1.97532 14.4136 2.02257 14.3177 2.06258ZM14.6876 2.06314C14.6876 2.17041 14.6876 2.27824 14.6876 2.38662C14.7144 2.38662 14.7675 2.38606 14.7937 2.38606C14.7937 2.27824 14.7937 2.17097 14.7937 2.0637C14.7675 2.06314 14.7144 2.06314 14.6876 2.06314ZM15.03 2.0637C15.03 2.17097 15.03 2.27879 15.03 2.38662C15.0568 2.38662 15.1099 2.38662 15.1367 2.38662C15.1361 2.27879 15.1361 2.17097 15.1361 2.06314C15.1093 2.06314 15.0562 2.0637 15.03 2.0637Z" fill="#0A0A0A"/>
<path d="M21.1051 2.04091C21.1285 1.86027 21.3562 1.9542 21.4835 1.93364C21.4903 2.27379 21.5497 2.65729 21.3619 2.96132C21.3511 2.6912 21.383 2.42275 21.4099 2.15429C21.4121 2.13206 21.4167 2.08704 21.419 2.06481C21.314 2.05758 21.2095 2.0498 21.1051 2.04091Z" fill="#2A2C29"/>
<path d="M15.4215 1.99255C15.7468 1.97421 16.0732 1.98811 16.398 2.00867C16.4031 2.17263 16.4037 2.33659 16.3997 2.50111C16.0732 2.51001 15.7445 2.51501 15.4221 2.45665C15.4192 2.30158 15.4192 2.14707 15.4215 1.99255Z" fill="#0A0A0A"/>
<path d="M5.52267 2.28324C5.81659 2.24322 6.11392 2.26545 6.40897 2.26545C6.68234 2.27046 6.95685 2.25489 7.2285 2.2888C6.90719 2.37773 6.56706 2.31992 6.23719 2.34271C6.00092 2.3277 5.74068 2.39662 5.52267 2.28324Z" fill="#2A2C29"/>
<path d="M7.3746 2.32325C7.95329 2.31492 8.53312 2.31881 9.11067 2.34716C8.93832 2.40274 8.75513 2.38828 8.57707 2.39162C8.177 2.3944 7.77637 2.41052 7.37631 2.38995L7.3746 2.32325Z" fill="#2A2C29"/>
<path d="M9.23223 2.39384C9.54497 2.34882 9.86114 2.38328 10.1756 2.3894C10.4478 2.39885 10.7218 2.37661 10.9934 2.40496C10.6521 2.48555 10.2949 2.42719 9.94732 2.45276C9.71048 2.43775 9.45081 2.50667 9.23223 2.39384Z" fill="#2A2C29"/>
<path d="M11.1424 2.43386C11.664 2.42108 12.1862 2.45331 12.7078 2.46387C12.5355 2.52001 12.3511 2.50111 12.1725 2.50389C11.8295 2.50556 11.4859 2.51779 11.1429 2.50111L11.1424 2.43386Z" fill="#2A2C29"/>
<path d="M13.0839 2.49166C13.319 2.49389 13.5667 2.45054 13.7916 2.54113C13.5564 2.5767 13.319 2.56614 13.0828 2.55725L13.0839 2.49166Z" fill="#2A2C29"/>
<path d="M15.4261 2.55503C15.7445 2.56892 16.063 2.57893 16.3814 2.56836L16.3791 2.60338C16.0612 2.5956 15.7439 2.60505 15.4266 2.61394L15.4261 2.55503Z" fill="#2A2C29"/>
<path d="M18.2368 6.16941C18.4011 6.12106 18.5683 6.0816 18.7373 6.05047C18.5153 6.30281 18.2453 6.50679 17.9828 6.71632C18.0758 6.53791 18.1569 6.35338 18.2368 6.16941Z" fill="#2A2C29"/>
<path d="M6.70403 6.51457C7.12235 6.38562 7.56407 6.34505 8.00009 6.38784C8.61131 6.42008 9.16888 6.71744 9.63743 7.08427C10.0917 7.46777 10.4279 7.97022 10.6687 8.50268C10.7269 8.76446 10.7823 9.02735 10.8593 9.28469C10.869 9.31915 10.8884 9.38862 10.8981 9.42364C11.0162 9.4392 11.1344 9.45532 11.2525 9.47144C11.2742 9.49423 11.317 9.5398 11.3387 9.56259C11.2103 9.60428 11.0784 9.64596 10.966 9.72099C10.9027 9.81993 10.9261 9.94832 10.909 10.06C10.8901 10.5252 10.7549 10.9832 10.5272 11.3923C10.4444 11.534 10.3417 11.6635 10.2481 11.7986C10.1265 11.9915 9.91878 12.1043 9.7647 12.2694C9.37833 12.4967 8.97484 12.7257 8.51714 12.7796C7.94473 12.8924 7.34549 12.7812 6.81988 12.5473C5.94956 12.1143 5.30124 11.3023 5.04443 10.388C4.83098 9.80492 4.82242 9.16908 4.91088 8.5627C5.03986 8.02524 5.30181 7.52057 5.69388 7.11928C5.98894 6.86139 6.33478 6.65463 6.70403 6.51457ZM6.26002 8.65663C6.08196 8.78113 6.03174 9.00012 5.97581 9.19409C5.8611 9.75434 6.03916 10.3491 6.39585 10.7954C6.63155 11.0944 6.99622 11.3 7.38031 11.3434C7.71702 11.3634 7.97327 11.1316 8.18842 10.9121C8.43211 10.5553 8.4304 10.1045 8.37732 9.69543C8.27003 9.15019 7.92076 8.62106 7.394 8.38207L7.39229 8.33649C7.34949 8.33593 7.26331 8.33593 7.22051 8.33593C6.88893 8.1742 6.43066 8.34205 6.26002 8.65663Z" fill="#0A0A0A"/>
<path d="M15.2394 7.8007C15.4734 7.65007 15.7085 7.49889 15.9648 7.3844C15.8546 7.59838 15.7451 7.98689 15.4255 7.90519C15.3627 7.87184 15.3011 7.83571 15.2394 7.8007Z" fill="#2A2C29"/>
<path d="M21.254 7.64785C21.2586 7.57171 21.266 7.49556 21.274 7.42053C21.5611 7.55003 21.6644 7.84738 21.766 8.11417C21.9834 8.5099 22.0331 8.96733 22.2693 9.35472C22.2202 9.52702 22.4462 9.49367 22.3555 9.34472C22.4086 9.34361 22.5147 9.34138 22.5678 9.34027C22.5592 9.36361 22.5421 9.4103 22.5336 9.43365C22.4999 9.52702 22.4679 9.62151 22.4434 9.71822L22.4788 9.74823C22.5347 9.76879 22.5912 9.7888 22.6483 9.8077C22.6254 9.82604 22.5798 9.86272 22.557 9.88051C23.0615 10.0956 23.6088 10.2034 24.1572 10.2307C23.9877 10.3068 23.8057 10.3568 23.6179 10.3524C23.7303 10.692 23.6755 11.0499 23.6367 11.3962C23.6339 11.4273 23.6276 11.489 23.6247 11.5201C23.6105 11.4951 23.5814 11.4457 23.5671 11.4212L23.566 11.3773C23.5471 11.0933 23.6128 10.8137 23.6173 10.5314C23.5751 10.4208 23.437 10.3996 23.3365 10.3646C23.0677 10.2951 22.7961 10.2379 22.5307 10.159C22.6409 10.5069 22.5992 10.8732 22.61 11.2311C22.6146 11.5073 22.6197 11.7841 22.6226 12.0609C22.5918 12.0626 22.5313 12.0659 22.501 12.0682C22.497 11.788 22.5176 11.509 22.5433 11.2306C22.549 10.9449 22.5769 10.6536 22.5239 10.3713C22.4434 10.1862 22.2202 10.1412 22.0405 10.1006C22.1261 10.4558 22.2944 10.797 22.2762 11.17C22.2739 11.414 22.2745 11.6585 22.2807 11.9025C22.2511 11.9003 22.1911 11.8959 22.1615 11.8931C22.1535 11.6513 22.1752 11.4106 22.2031 11.1711C22.2225 10.8471 22.0993 10.5352 21.9657 10.2451C21.9104 10.0928 21.7312 10.0789 21.5948 10.0428C21.5554 10.3941 21.649 10.742 21.6244 11.0922C21.5714 11.414 21.5902 11.7391 21.5908 12.0632C21.5896 12.1354 21.5879 12.2077 21.5862 12.2805C21.5109 12.3355 21.4926 12.4344 21.5457 12.5117L21.5337 12.5523C21.5211 12.5884 21.4955 12.6606 21.4823 12.6968C21.4806 12.6618 21.4772 12.5912 21.4755 12.5561C21.4749 12.3566 21.504 12.1587 21.5217 11.9603C21.5428 11.6624 21.5371 11.3645 21.5257 11.0666C21.5103 10.7131 21.5143 10.3591 21.5211 10.0056C21.0971 9.89607 20.6537 9.89774 20.2211 9.83605C19.619 9.76379 19.0152 9.68876 18.4211 9.56593C19.2463 9.46588 20.0858 9.5487 20.9088 9.42698C20.9687 9.41808 21.0286 9.40975 21.0891 9.40197L21.1279 9.39863C21.1108 9.57037 21.088 9.74156 21.0754 9.91386C21.1205 9.74712 21.1633 9.57927 21.1873 9.40808C21.2792 9.36139 21.3705 9.31415 21.4618 9.2669C21.4692 8.84783 21.5833 8.42319 21.4749 8.00801C21.4527 7.8635 21.3499 7.75234 21.254 7.64785ZM21.5468 8.02024C21.5759 8.04858 21.5759 8.04858 21.5468 8.02024ZM21.5885 8.22811C21.6073 8.53936 21.5776 8.8495 21.5337 9.15797C21.5868 9.19131 21.6421 9.22188 21.6992 9.25023C21.7352 8.9073 21.6456 8.56993 21.6381 8.22811H21.5885ZM21.7751 8.35372C21.8042 8.38151 21.8042 8.38151 21.7751 8.35372ZM21.8253 8.47878C21.7722 8.54269 21.7865 8.57938 21.8676 8.58827C21.9201 8.5238 21.9058 8.48711 21.8253 8.47878ZM21.8721 8.65552C21.8961 8.91397 21.9577 9.16853 22.0382 9.41642C22.0182 9.55148 22.1306 9.67097 22.1843 9.79103C22.3298 9.63096 22.2299 9.40085 22.1033 9.26135L22.1198 9.22244C22.0331 9.03513 21.9754 8.8356 21.8721 8.65552ZM21.7648 8.7061C21.7568 8.89563 21.7391 9.12962 21.9115 9.26023C21.8744 9.07293 21.8373 8.88396 21.7648 8.7061Z" fill="#0C0C0C"/>
<path d="M15.1316 7.80181C15.2286 7.83738 15.3279 7.86906 15.4255 7.90519C15.4837 7.9302 15.5402 7.96077 15.5973 7.98911C15.5008 8.16697 15.4027 8.36428 15.1972 8.44154C15.1464 8.33982 15.0962 8.23756 15.0465 8.13584C14.897 8.16697 14.7469 8.19809 14.594 8.20587L14.6339 8.17364C14.8011 8.05247 14.9946 7.9591 15.1316 7.80181Z" fill="#2A2C29"/>
<path d="M14.9153 8.60939C15.0311 8.55214 15.155 8.51101 15.2828 8.48378C15.232 8.56437 15.1475 8.60772 15.0625 8.64663C15.0865 8.67608 15.111 8.7061 15.1356 8.73611C15.1082 8.7878 15.0808 8.84005 15.0517 8.89174C14.9895 8.95676 14.9284 9.03013 14.8417 9.06459C14.7053 9.07737 14.5729 9.03069 14.441 9.00456C14.6242 8.90452 14.7994 8.78447 14.9153 8.60939Z" fill="#2A2C29"/>
<path d="M24.4854 9.95777C24.6092 9.83605 24.7262 9.70821 24.862 9.59872C24.9259 9.76601 24.9893 9.93387 25.0292 10.1084C24.9071 10.0845 24.7861 10.0595 24.6668 10.0289C24.664 10 24.6583 9.94276 24.6554 9.91441C24.5989 9.92831 24.5419 9.94332 24.4854 9.95777ZM24.8021 9.68876C24.8312 9.71655 24.8312 9.71655 24.8021 9.68876Z" fill="#0C0C0C"/>
<path d="M12.9309 9.78102C13.6723 9.89329 14.4171 9.99056 15.155 10.1251C14.683 10.3085 14.1722 10.204 13.7111 10.0439C13.7425 10.0234 13.8053 9.98222 13.8372 9.96166C13.6318 9.95554 13.4269 9.96444 13.2226 9.97944C13.1119 9.94832 13.0011 9.91831 12.8899 9.89052C12.9001 9.86328 12.9207 9.80881 12.9309 9.78102Z" fill="#2A2C29"/>
<path d="M25.1965 10.139C25.2472 10.0889 25.2997 10.0406 25.3528 9.99278L25.3403 10.0422C25.2992 10.2012 25.2581 10.3602 25.2199 10.5202C25.3443 10.5619 25.463 10.6192 25.5697 10.6953C25.4915 10.6975 25.4139 10.6964 25.3363 10.6914C25.1645 10.6503 25.0167 10.5553 24.8997 10.428C24.9254 10.403 24.9767 10.3535 25.0024 10.329C25.0669 10.2657 25.1308 10.2018 25.1965 10.139Z" fill="#0C0C0C"/>
<path d="M25.8145 10.5336C25.875 10.5186 25.9367 10.5258 26 10.5547C25.9367 10.6553 25.8699 10.7542 25.8014 10.8515C25.7141 10.8115 25.657 10.7403 25.6336 10.6503C25.6924 10.6097 25.7523 10.5697 25.8145 10.5336Z" fill="#0C0C0C"/>
<path d="M25.0829 10.8165C25.1559 10.7559 25.2666 10.8765 25.209 10.9454C25.1342 11.0082 25.0218 10.8854 25.0829 10.8165Z" fill="#2A2C29"/>
<path d="M24.5767 11.5396C24.6885 11.559 24.801 11.5785 24.9145 11.5896C24.8974 11.7102 24.8734 11.8303 24.8426 11.9487C24.7479 11.9503 24.6531 11.952 24.5584 11.9548C24.5664 11.8164 24.5704 11.678 24.5767 11.5396Z" fill="#2A2C29"/>
<path d="M16.596 1.08993C16.6616 1.01378 16.5224 0.93764 16.4733 1.01323C16.4077 1.08882 16.5463 1.16552 16.596 1.08993Z" fill="#719238"/>
<path d="M21.5348 1.20943C21.883 1.20331 22.2282 1.12606 22.5775 1.16663L22.5455 1.21276C22.1689 1.30058 21.774 1.2261 21.3956 1.31281C21.1274 1.36283 20.8546 1.34671 20.5846 1.37172C20.382 1.38506 20.3546 1.62294 20.281 1.76578C20.2833 1.64128 20.2833 1.51678 20.2833 1.39229C19.7662 1.3406 19.2515 1.42285 18.735 1.43286C18.0661 1.46065 17.3961 1.54069 16.7272 1.48844L16.7683 1.46565C17.2614 1.30447 17.787 1.42174 18.2921 1.34171C18.8 1.29947 19.3114 1.3317 19.8182 1.26501C20.3923 1.29058 20.9607 1.18886 21.5348 1.20943Z" fill="#719238"/>
<path d="M1.15909 1.36338C2.60468 1.38951 4.0497 1.44453 5.49585 1.4412C6.59902 1.47566 7.70218 1.494 8.80535 1.49511C9.96501 1.54069 11.1264 1.54235 12.2866 1.5518C13.5416 1.60627 14.7977 1.59682 16.0538 1.61405C16.2821 1.61127 16.5309 1.62406 16.7272 1.48844C16.7564 2.42108 16.7181 3.35371 16.6953 4.2858C16.0504 4.28524 15.4089 4.22521 14.7652 4.19965C10.5369 3.98122 6.30967 3.75278 2.08078 3.53602C1.86448 3.5149 1.64533 3.50434 1.42846 3.53157L1.3811 3.53602C1.31261 3.29647 1.34172 3.04636 1.30519 2.80291C1.24926 2.32381 1.24413 1.8386 1.15909 1.36338ZM1.44958 1.55236C1.44787 1.59293 1.44444 1.67408 1.44273 1.7141C1.4433 1.8586 1.4473 2.00311 1.45529 2.14762C1.73721 2.13095 2.01058 2.21043 2.28908 2.2321C2.29821 2.05758 2.30335 1.88306 2.31819 1.70909C2.3062 1.69186 2.2828 1.65796 2.27139 1.64073C2.00544 1.56959 1.7258 1.52957 1.44958 1.55236ZM2.35928 1.61183C2.35129 1.79747 2.33873 1.98422 2.34615 2.17041C2.35072 2.24933 2.34615 2.34271 2.42662 2.3894C2.54932 2.40829 2.67373 2.39773 2.79701 2.39384C2.80728 2.35438 2.82725 2.2749 2.83753 2.23544C3.249 2.22266 3.66105 2.24267 4.07309 2.2271C4.05826 2.02813 4.15527 1.74411 3.93727 1.62239C3.41336 1.58237 2.88489 1.61127 2.35928 1.61183ZM4.13016 1.61072C4.12959 1.65018 4.12788 1.72966 4.12731 1.76912C4.12331 1.90529 4.11989 2.04202 4.11761 2.17875C4.9183 2.21265 5.72242 2.14762 6.52083 2.23044C6.80675 2.251 7.09438 2.23266 7.38088 2.24767C8.12108 2.30936 8.86641 2.26323 9.60718 2.32437C10.9946 2.34215 12.3819 2.38662 13.7682 2.43275C13.775 2.27268 13.7762 2.11261 13.7727 1.95254C13.2214 1.90974 12.6684 1.95031 12.1177 1.90196C11.1857 1.86027 10.2515 1.90529 9.32069 1.83471C8.4458 1.80469 7.56864 1.84971 6.69546 1.77579C6.14759 1.75912 5.59972 1.76579 5.05185 1.758C4.79845 1.56125 4.43606 1.59793 4.13016 1.61072ZM5.82686 1.70187C6.32565 1.72132 6.82501 1.73633 7.32381 1.73522L7.32495 1.66741C6.82558 1.66796 6.32451 1.66574 5.82686 1.70187ZM8.64612 1.73411V1.77079C9.16603 1.74689 9.68651 1.8247 10.2053 1.77746C10.0957 1.70242 9.95816 1.71799 9.83204 1.71743C9.43711 1.72799 9.04162 1.74411 8.64612 1.73411ZM11.5293 1.81303C12.1148 1.82303 12.7032 1.88862 13.2876 1.83248C13.0862 1.72688 12.8471 1.78468 12.6285 1.77357C12.2627 1.79469 11.8928 1.76301 11.5293 1.81303ZM16.0829 1.88806C15.8569 1.90918 15.6092 1.95865 15.3975 1.85249C15.6229 1.83304 15.874 1.77579 16.0829 1.88806ZM13.9411 1.88917C13.9308 2.09426 13.9308 2.29991 13.9405 2.50556C14.3554 2.50723 14.7812 2.44109 15.1852 2.55947C15.2879 2.47888 15.2588 2.33771 15.2691 2.22488C15.2583 2.11094 15.2897 1.96754 15.1829 1.88862C15.0922 1.86972 15.0106 1.9103 14.9398 1.95976C14.6208 1.83971 14.2727 1.92975 13.9411 1.88917ZM15.4215 1.99255C15.4192 2.14707 15.4192 2.30158 15.4221 2.45665C15.7445 2.51501 16.0732 2.51001 16.3997 2.50111C16.4037 2.33659 16.4031 2.17263 16.398 2.00867C16.0732 1.98811 15.7468 1.97421 15.4215 1.99255ZM5.52267 2.28324C5.74068 2.39662 6.00092 2.3277 6.23719 2.34271C6.56706 2.31992 6.90719 2.37773 7.2285 2.2888C6.95685 2.25489 6.68234 2.27046 6.40897 2.26545C6.11392 2.26545 5.81659 2.24322 5.52267 2.28324ZM7.3746 2.32325L7.37631 2.38995C7.77637 2.41052 8.177 2.3944 8.57707 2.39162C8.75513 2.38828 8.93832 2.40274 9.11067 2.34716C8.53312 2.31881 7.95329 2.31492 7.3746 2.32325ZM9.23223 2.39384C9.45081 2.50667 9.71048 2.43775 9.94732 2.45276C10.2949 2.42719 10.6521 2.48555 10.9934 2.40496C10.7218 2.37661 10.4478 2.39885 10.1756 2.3894C9.86114 2.38328 9.54497 2.34882 9.23223 2.39384ZM11.1424 2.43386L11.1429 2.50111C11.4859 2.51779 11.8295 2.50556 12.1725 2.50389C12.3511 2.50111 12.5355 2.52001 12.7078 2.46387C12.1862 2.45331 11.664 2.42108 11.1424 2.43386ZM13.0839 2.49166L13.0828 2.55725C13.319 2.56614 13.5564 2.5767 13.7916 2.54113C13.5667 2.45054 13.319 2.49389 13.0839 2.49166ZM15.4261 2.55503L15.4266 2.61394C15.7439 2.60505 16.0612 2.5956 16.3791 2.60338L16.3814 2.56836C16.063 2.57893 15.7445 2.56892 15.4261 2.55503Z" fill="#719238"/>
<path d="M2.77075 1.80358C3.10918 1.83415 3.45331 1.86916 3.7906 1.81136C3.80372 1.86972 3.81685 1.92864 3.8294 1.98755C3.47728 2.03257 3.12402 1.95976 2.77075 1.98477C2.77075 1.92419 2.77075 1.86361 2.77075 1.80358Z" fill="#719238"/>
<path d="M21.5622 2.002C21.8561 2.01145 22.1495 1.98922 22.4394 1.94587C22.4377 1.98533 22.4337 2.06481 22.432 2.10427C22.2317 2.11316 22.0319 2.11817 21.8316 2.12428C21.7369 2.12261 21.6433 2.11928 21.5491 2.1165C21.5525 2.08815 21.5594 2.0309 21.5622 2.002Z" fill="#719238"/>
<path d="M14.0615 2.01479C14.1254 2.03535 14.1899 2.05591 14.2544 2.07704C14.2732 2.13373 14.2921 2.19042 14.3109 2.24767C14.3645 2.28824 14.4182 2.32937 14.4713 2.37106C14.3976 2.36939 14.3246 2.36828 14.2515 2.36716C14.2367 2.21932 14.1682 2.1026 14.0073 2.08204C14.0204 2.06536 14.0478 2.03146 14.0615 2.01479Z" fill="#719238"/>
<path d="M14.6214 2.0637C14.5358 1.97532 14.4136 2.02257 14.3177 2.06258C14.3788 2.17208 14.6031 2.21599 14.6214 2.0637Z" fill="#719238"/>
<path d="M14.6876 2.06314C14.7144 2.06314 14.7675 2.06314 14.7937 2.0637C14.7937 2.17097 14.7937 2.27824 14.7937 2.38606C14.7675 2.38606 14.7144 2.38662 14.6876 2.38662C14.6876 2.27824 14.6876 2.17041 14.6876 2.06314Z" fill="#719238"/>
<path d="M15.03 2.0637C15.0562 2.0637 15.1093 2.06314 15.1361 2.06314C15.1361 2.17097 15.1361 2.27879 15.1367 2.38662C15.1099 2.38662 15.0568 2.38662 15.03 2.38662C15.03 2.27879 15.03 2.17097 15.03 2.0637Z" fill="#719238"/>
<path d="M21.5959 3.22588C21.661 3.33037 21.7186 3.43931 21.7745 3.5488C21.8196 3.49878 21.8653 3.44876 21.9115 3.39985C22.0702 3.38373 22.2288 3.36539 22.3875 3.34594C22.0759 3.57048 21.7391 3.7589 21.4087 3.95509C21.427 3.78891 21.4498 3.62384 21.4624 3.45765C21.5069 3.4532 21.5959 3.44487 21.6404 3.44098C21.6261 3.36872 21.6124 3.29702 21.5959 3.22588Z" fill="#719238"/>
<path d="M20.0967 3.7111C20.3501 3.68108 20.5926 3.50878 20.8523 3.59271C20.8437 3.97066 20.7992 4.34638 20.7895 4.72433C20.6194 4.78435 20.3997 4.80658 20.3187 4.99C20.1184 5.04002 19.918 5.08782 19.7177 5.13673C19.7154 5.41074 19.7114 5.68475 19.6898 5.95821C19.4917 5.65252 19.3588 5.31459 19.2064 4.98777C19.1356 4.80769 18.9096 4.8416 18.7515 4.82103C18.7555 4.9611 18.7732 5.10838 18.7121 5.24011C18.699 5.12895 18.6882 5.01834 18.6773 4.90774C18.2048 4.97777 17.7437 5.10227 17.2757 5.19342C16.7712 5.31236 16.2576 5.39907 15.7656 5.56359C15.7793 5.43242 15.8341 5.31014 15.9248 5.21288C16.1885 4.90941 16.4596 4.61094 16.6953 4.2858C17.8338 4.12295 18.9638 3.90563 20.0967 3.7111Z" fill="#719238"/>
<path d="M21.0047 3.57215C21.104 3.54936 21.2038 3.52657 21.3031 3.50323C21.3026 3.68998 21.2963 3.87784 21.254 4.0607C21.1559 4.06292 21.0583 4.06459 20.9613 4.06626C20.9807 3.90174 20.9995 3.73722 21.0047 3.57215Z" fill="#719238"/>
<path d="M3.28781 4.7749C3.79288 4.84271 4.30366 4.84327 4.81044 4.89273C8.10338 5.13506 11.3975 5.36072 14.691 5.59694C15.0482 5.61639 15.4095 5.71421 15.7645 5.62306C15.765 5.71254 15.7673 5.80258 15.7696 5.89262C15.4626 5.91819 15.1561 5.88095 14.8525 5.84316C11.1424 5.56692 7.43338 5.27902 3.72325 5.01112C3.57088 5.00278 3.41793 5.00112 3.26555 4.99889C3.2724 4.92386 3.28039 4.84938 3.28781 4.7749Z" fill="#719238"/>
<path d="M17.2626 5.56915C17.6638 5.47244 18.057 5.34127 18.4696 5.29625C18.1888 5.48466 17.8726 5.61583 17.5371 5.67697C16.9875 5.79925 16.4459 5.95154 15.8935 6.06325C15.8701 6.0049 15.8467 5.94598 15.8233 5.88818C16.3095 5.81092 16.7803 5.6653 17.2626 5.56915Z" fill="#719238"/>
<path d="M3.79402 5.64918C4.29396 5.76479 4.86865 5.87817 5.15628 6.34171C5.33548 6.60072 5.52724 6.85194 5.69388 7.11928C5.30181 7.52057 5.03986 8.02524 4.91088 8.5627C4.57702 8.52935 4.24716 8.46766 3.91387 8.43153C3.89047 8.30592 3.86479 8.18086 3.84538 8.05525C3.79687 7.739 3.93042 7.43053 3.89675 7.11428C3.87677 6.91086 3.83397 6.70965 3.84025 6.50456C3.84938 6.21721 3.75464 5.93653 3.79402 5.64918Z" fill="#719238"/>
<path d="M14.7971 7.20487C15.1413 6.94754 15.4894 6.69242 15.8512 6.45899C15.906 6.61739 15.9676 6.77413 16.035 6.92808C15.7439 6.97199 15.4814 7.11483 15.1898 7.15319C15.0591 7.17319 14.9278 7.18876 14.7971 7.20487Z" fill="#719238"/>
<path d="M13.9702 7.85794C14.4439 7.56114 15.0197 7.52279 15.539 7.33882C15.3975 7.48778 15.2537 7.63618 15.1316 7.80181C14.9946 7.9591 14.8011 8.05247 14.6339 8.17364C14.1003 8.33093 13.5718 8.50379 13.0411 8.66997C13.1786 8.496 13.311 8.30536 13.5199 8.20699C13.6974 8.12584 13.8332 7.98967 13.9702 7.85794Z" fill="#719238"/>
<path d="M6.26002 8.65663C6.43066 8.34205 6.88893 8.1742 7.22051 8.33593C6.92603 8.31704 6.64924 8.42208 6.44036 8.62273C6.5682 8.81726 6.6812 9.02346 6.74626 9.24689C6.66579 9.18409 6.5916 9.11572 6.52311 9.0418C6.4318 9.0507 6.31367 9.12184 6.24632 9.02957C6.2292 8.90563 6.24689 8.78002 6.26002 8.65663Z" fill="#719238"/>
<path d="M7.394 8.38207C7.92076 8.62106 8.27003 9.15019 8.37732 9.69543C8.4304 10.1045 8.43211 10.5553 8.18842 10.9121C7.97783 10.9643 7.76211 10.9221 7.58861 10.7954C7.58119 10.7231 7.57377 10.6514 7.56635 10.5803C7.64739 10.5464 7.72843 10.5125 7.81004 10.4791C7.78208 10.4341 7.75412 10.3891 7.72672 10.3446C7.81404 10.3518 7.90136 10.3546 7.98924 10.3585C7.98068 10.209 7.97155 10.0595 7.96413 9.90997C7.88538 9.98667 7.81746 10.0834 7.71303 10.129C7.63427 10.1251 7.56236 10.0906 7.49045 10.0628C7.34036 9.97444 7.16515 9.9033 7.05786 9.76379C7.01905 9.60094 7.02761 9.41475 6.89122 9.29247C7.176 9.07348 7.45336 8.76279 7.394 8.38207Z" fill="#719238"/>
<path d="M10.6687 8.50268C11.4814 8.54436 12.2718 8.75723 13.0662 8.91286C13.2431 8.93509 13.4212 8.91397 13.5992 8.91286C14.0587 8.93453 14.4827 8.73055 14.9153 8.60939C14.7994 8.78447 14.6242 8.90452 14.441 9.00456C14.5729 9.03069 14.7053 9.07737 14.8417 9.06459C14.9284 9.03013 14.9895 8.95676 15.0517 8.89174C15.833 9.05403 16.5543 9.4531 17.359 9.50701C17.3898 9.49534 17.452 9.47255 17.4834 9.46088C17.6375 9.47311 17.7916 9.48811 17.9457 9.50645C18.1026 9.5348 18.2619 9.55425 18.4211 9.56593C19.0152 9.68876 19.619 9.76379 20.2211 9.83605C20.6537 9.89774 21.0971 9.89607 21.5211 10.0056C21.5143 10.3591 21.5103 10.7131 21.5257 11.0666C19.9009 10.8409 18.2807 10.583 16.6582 10.3402C16.1571 10.2696 15.6583 10.1795 15.155 10.1251C14.4171 9.99056 13.6723 9.89329 12.9309 9.78102C12.6747 9.73767 12.4185 9.69543 12.1611 9.65986C11.8877 9.62151 11.6155 9.56926 11.3387 9.56259C11.317 9.5398 11.2742 9.49423 11.2525 9.47144C11.2913 9.41475 11.3307 9.35917 11.3701 9.30359C11.2 9.29747 11.0299 9.29136 10.8593 9.28469C10.7823 9.02735 10.7269 8.76446 10.6687 8.50268Z" fill="#719238"/>
<path d="M19.3605 8.94676C19.946 9.05848 20.5236 9.21688 21.0891 9.40197C21.0286 9.40975 20.9687 9.41808 20.9088 9.42698C20.7182 9.38585 20.5327 9.32471 20.3449 9.27302C20.0128 9.1752 19.6589 9.13018 19.3605 8.94676Z" fill="#719238"/>
<path d="M22.1033 9.26135C22.2299 9.40085 22.3298 9.63096 22.1843 9.79103C22.1306 9.67097 22.0182 9.55148 22.0382 9.41642C22.0547 9.37751 22.0873 9.30025 22.1033 9.26135Z" fill="#719238"/>
<path d="M22.2693 9.35472C22.291 9.35194 22.3344 9.34694 22.3555 9.34472C22.4462 9.49367 22.2202 9.52702 22.2693 9.35472Z" fill="#719238"/>
<path d="M21.5948 10.0428C21.7312 10.0789 21.9104 10.0928 21.9657 10.2451C22.0993 10.5352 22.2225 10.8471 22.2031 11.1711C22.0097 11.1461 21.8168 11.1183 21.6244 11.0922C21.649 10.742 21.5554 10.3941 21.5948 10.0428Z" fill="#719238"/>
<path d="M22.0405 10.1006C22.2202 10.1412 22.4434 10.1862 22.5239 10.3713C22.5769 10.6536 22.549 10.9449 22.5433 11.2306C22.4537 11.2105 22.3646 11.1905 22.2762 11.17C22.2944 10.797 22.1261 10.4558 22.0405 10.1006Z" fill="#719238"/>
<path d="M22.5307 10.159C22.7961 10.2379 23.0677 10.2951 23.3365 10.3646C23.437 10.3996 23.5751 10.4208 23.6173 10.5314C23.6128 10.8137 23.5471 11.0933 23.566 11.3773C23.2464 11.3317 22.9273 11.2872 22.61 11.2311C22.5992 10.8732 22.6409 10.5069 22.5307 10.159Z" fill="#719238"/>
<path d="M23.6179 10.3524C23.8057 10.3568 23.9877 10.3068 24.1572 10.2307C24.4077 10.2857 24.652 10.3629 24.8997 10.428C25.0167 10.5553 25.1645 10.6503 25.3363 10.6914C25.4019 10.7398 25.4498 10.807 25.5023 10.8687C25.6079 10.8921 25.7226 10.8982 25.8151 10.961C25.8265 11.0271 25.802 11.0766 25.7403 11.1083C25.5537 11.1427 25.3625 11.1094 25.1782 11.0794C25.1805 11.1455 25.1828 11.2122 25.1856 11.2795C25.3774 11.28 25.568 11.3006 25.754 11.3467C25.7546 11.3862 25.7563 11.4651 25.7575 11.5046C25.6233 11.5579 25.4807 11.5551 25.342 11.5229C25.193 11.4801 25.0549 11.5551 24.9145 11.5896C24.801 11.5785 24.6885 11.559 24.5767 11.5396C24.2645 11.4829 23.95 11.4418 23.6367 11.3962C23.6755 11.0499 23.7303 10.692 23.6179 10.3524ZM25.209 10.9454C25.1342 11.0082 25.0218 10.8854 25.0829 10.8165C25.1559 10.7559 25.2666 10.8765 25.209 10.9454Z" fill="#719238"/>
<path d="M23.5243 11.8897C23.5351 11.733 23.5506 11.5768 23.5671 11.4212C23.5814 11.4457 23.6105 11.4951 23.6247 11.5201C23.6339 11.643 23.639 11.7663 23.6441 11.8903C23.6145 11.8903 23.5545 11.8897 23.5243 11.8897Z" fill="#719238"/>
<path d="M22.1615 11.8931C22.1911 11.8959 22.2511 11.9003 22.2807 11.9025C22.2802 11.9292 22.279 11.982 22.2785 12.0081C22.2528 12.1076 22.218 12.2054 22.182 12.3027C22.1735 12.1821 22.1666 12.062 22.1626 11.9425L22.1615 11.8931Z" fill="#719238"/>
<path d="M22.501 12.0682C22.5313 12.0659 22.5918 12.0626 22.6226 12.0609C22.6214 12.0859 22.6197 12.1365 22.6192 12.1615C22.5906 12.2638 22.5558 12.3638 22.5199 12.4639C22.5124 12.3316 22.5067 12.1999 22.501 12.0682Z" fill="#719238"/>
<path d="M16.9139 1.01823C17.1045 1.02657 16.8248 1.18275 16.9139 1.01823Z" fill="#A6D059"/>
<path d="M21.3956 1.31281C21.774 1.2261 22.1689 1.30058 22.5455 1.21276C22.5707 1.40896 22.5649 1.60849 22.5273 1.80303C22.4634 2.15874 22.5353 2.52168 22.4845 2.8785C22.4611 3.03191 22.4428 3.18531 22.4331 3.34038L22.3875 3.34594C22.2288 3.36539 22.0702 3.38373 21.9115 3.39985C21.8287 3.21532 21.714 3.04802 21.6027 2.87962C21.4606 2.67452 21.5211 2.41552 21.5297 2.18542C21.6301 2.1643 21.73 2.14207 21.8316 2.12428C22.0319 2.11817 22.2317 2.11316 22.432 2.10427C22.4337 2.06481 22.4377 1.98533 22.4394 1.94587C22.444 1.80136 22.4383 1.6574 22.4314 1.51345C22.1506 1.55514 21.8676 1.58515 21.5833 1.59126L21.5611 1.55291C21.508 1.47121 21.4509 1.39229 21.3956 1.31281Z" fill="#A6D059"/>
<path d="M18.735 1.43286C19.2515 1.42285 19.7662 1.3406 20.2833 1.39229C20.2833 1.51678 20.2833 1.64128 20.281 1.76578C19.1562 1.8386 18.0307 1.91474 16.9076 2.007C16.9082 2.1693 16.9104 2.33159 16.9156 2.49389C17.8042 2.39551 18.6967 2.33437 19.5836 2.22154C19.8404 2.20209 20.1446 2.11261 20.3483 2.32048C20.5224 2.2799 20.7056 2.256 20.8762 2.32381C20.8842 2.26656 20.8928 2.20932 20.9014 2.15207C20.9727 2.63062 20.8625 3.11305 20.8523 3.59271C20.5926 3.50878 20.3501 3.68108 20.0967 3.7111C18.9638 3.90563 17.8338 4.12295 16.6953 4.2858C16.7181 3.35371 16.7564 2.42108 16.7272 1.48844C17.3961 1.54069 18.0661 1.46065 18.735 1.43286ZM19.5659 1.70687C19.7291 1.72688 19.8958 1.72799 20.0567 1.69186C19.8935 1.67408 19.724 1.65129 19.5659 1.70687ZM18.7076 1.76523C18.8634 1.77912 19.0198 1.7769 19.1761 1.7719L19.1773 1.73244C19.0203 1.7291 18.8577 1.70854 18.7076 1.76523ZM17.851 1.82136C18.0336 1.84137 18.2179 1.83359 18.4005 1.81192C18.2191 1.77968 18.0267 1.75133 17.851 1.82136ZM17.0223 1.83526L17.02 1.89473C17.1952 1.89251 17.3716 1.88806 17.5462 1.8675C17.3739 1.83304 17.1975 1.83359 17.0223 1.83526ZM18.4605 2.39718L18.4582 2.4422C18.6271 2.44553 18.7955 2.4472 18.9644 2.44831L18.9638 2.39051C18.796 2.39162 18.6283 2.39384 18.4605 2.39718ZM17.4207 2.51945C17.2415 2.54057 17.0514 2.52835 16.887 2.61116C17.0862 2.62728 17.282 2.58393 17.4794 2.56447C17.7927 2.52168 18.1158 2.52946 18.4234 2.45887C18.0878 2.42386 17.7545 2.49722 17.4207 2.51945ZM19.5516 2.85516C19.522 3.0647 19.5231 3.27924 19.5448 3.48933C19.5876 3.56381 19.6863 3.55547 19.7594 3.57881C19.8958 3.30925 19.9266 2.99022 19.8125 2.70731C19.7143 2.73233 19.5905 2.74678 19.5516 2.85516Z" fill="#A6D059"/>
<path d="M21.068 1.46287C21.1433 1.47232 21.2209 1.47677 21.294 1.50178C21.3374 1.55569 21.3682 1.61794 21.4041 1.67741C21.3208 1.6713 21.2375 1.66797 21.1542 1.66463C21.1251 1.59738 21.0965 1.53013 21.068 1.46287Z" fill="#A6D059"/>
<path d="M20.8603 1.51123C20.7227 1.50623 20.5567 1.47454 20.487 1.6235C20.6274 1.64073 20.7678 1.62683 20.8603 1.51123Z" fill="#A6D059"/>
<path d="M20.7518 1.67853C20.6759 1.63017 20.5584 1.63628 20.4859 1.68853C20.5087 1.77301 20.7261 1.75801 20.7518 1.67853Z" fill="#A6D059"/>
<path d="M21.0686 2.28491C21.1724 2.21932 21.2843 2.16374 21.4099 2.15429C21.383 2.42275 21.3511 2.6912 21.3619 2.96132C21.2626 2.96743 21.1639 2.97633 21.0651 2.98689C21.0537 2.75289 21.0572 2.51834 21.0686 2.28491Z" fill="#A6D059"/>
<path d="M21.0497 3.09693C21.1553 3.05636 21.266 3.0319 21.3756 3.00134C21.3265 3.16419 21.3043 3.33371 21.3031 3.50323C21.2038 3.52657 21.104 3.54936 21.0047 3.57215C21.0149 3.4143 20.987 3.247 21.0497 3.09693Z" fill="#A6D059"/>
<path d="M21.4749 3.04191C21.516 3.10249 21.5577 3.16308 21.5959 3.22588C21.6124 3.29702 21.6261 3.36872 21.6404 3.44098C21.5959 3.44487 21.5069 3.4532 21.4624 3.45765C21.4692 3.3187 21.4703 3.18031 21.4749 3.04191Z" fill="#A6D059"/>
<path d="M21.3585 3.94287L21.4087 3.95509C21.4076 3.97899 21.4047 4.02735 21.4036 4.05125C21.3922 4.02457 21.3699 3.9701 21.3585 3.94287Z" fill="#A6D059"/>
<path d="M20.9367 4.27579L20.9453 4.29636L20.9379 4.30247C20.9379 4.2958 20.9373 4.28246 20.9367 4.27579Z" fill="#A6D059"/>
<path d="M21.3408 4.72766C21.2666 4.77157 21.2717 4.80436 21.3545 4.82604C21.3511 4.80158 21.3442 4.75267 21.3408 4.72766Z" fill="#A6D059"/>
<path d="M17.2757 5.19342C17.7437 5.10227 18.2048 4.97777 18.6773 4.90774C18.6882 5.01834 18.699 5.12895 18.7121 5.24011C18.6893 5.24622 18.6442 5.25734 18.622 5.2629C18.5837 5.27124 18.5078 5.28791 18.4696 5.29625C18.057 5.34127 17.6638 5.47244 17.2626 5.56915C16.7803 5.6653 16.3095 5.81092 15.8233 5.88818L15.7696 5.89262C15.7673 5.80258 15.765 5.71254 15.7645 5.62306L15.7656 5.56359C16.2576 5.39907 16.7712 5.31236 17.2757 5.19342Z" fill="#A6D059"/>
<path d="M19.0437 5.04725C19.0597 4.96777 18.9199 4.95665 18.8879 5.01501C18.8714 5.09449 19.0106 5.10449 19.0437 5.04725Z" fill="#A6D059"/>
<path d="M19.7177 5.13673C19.918 5.08782 20.1184 5.04002 20.3187 4.99C20.1794 5.42297 20.035 5.85483 19.9129 6.2928C19.833 6.18442 19.7594 6.0727 19.6898 5.95821C19.7114 5.68475 19.7154 5.41074 19.7177 5.13673Z" fill="#A6D059"/>
<path d="M18.8617 5.13117C18.8908 5.15952 18.8908 5.15952 18.8617 5.13117Z" fill="#A6D059"/>
<path d="M20.8865 5.14229C20.8871 5.13784 20.8888 5.12951 20.8894 5.12506L20.8877 5.14173L20.8865 5.14229Z" fill="#A6D059"/>
<path d="M19.0814 5.48911C19.2355 5.90263 19.5003 6.26668 19.7891 6.60072C19.6926 6.99478 19.5556 7.37828 19.4027 7.75456C19.2674 7.73678 19.1328 7.7151 18.9998 7.68564C19.0049 7.32882 18.9998 6.97255 19.0009 6.61572C19.0004 6.23833 19.0631 5.86539 19.0814 5.48911ZM19.2977 6.41174C19.3319 6.52235 19.4421 6.54625 19.5437 6.57237C19.5231 6.50512 19.502 6.43842 19.4815 6.37228C19.4352 6.38229 19.3433 6.40229 19.2977 6.41174Z" fill="#A6D059"/>
<path d="M19.651 6.12439C19.534 5.91486 19.4381 5.69309 19.2994 5.49633C19.3565 5.73144 19.4643 5.95932 19.651 6.12439Z" fill="#A6D059"/>
<path d="M18.6049 5.64751C18.6351 5.63195 18.6962 5.59971 18.727 5.5836C18.9125 5.6753 18.8719 5.93153 18.7373 6.05047C18.5683 6.0816 18.4011 6.12106 18.2368 6.16941C18.0068 6.23555 17.7739 6.29336 17.5416 6.35061C17.5308 6.68353 17.5291 7.01757 17.5439 7.35105C17.5656 7.34327 17.6101 7.32771 17.6318 7.31993C17.8418 7.25656 18.0553 7.20487 18.2607 7.12817C18.2573 7.26546 18.2596 7.40385 18.2619 7.54169C18.0102 7.65452 17.7288 7.70899 17.4966 7.85961C17.4492 8.09082 17.48 8.32815 17.4829 8.56214C17.605 8.6294 17.7402 8.69387 17.8812 8.63829C17.908 8.62884 17.9605 8.60939 17.9874 8.59994C17.9839 8.74223 17.9794 8.88451 17.9725 9.0268C17.8087 9.09016 17.6461 9.15741 17.4931 9.243C17.4914 9.26746 17.4886 9.31581 17.4869 9.34027C17.4863 9.37028 17.4846 9.43087 17.4834 9.46088C17.452 9.47255 17.3898 9.49534 17.359 9.50701C16.8579 8.36428 16.3671 7.2171 15.8935 6.06325C16.4459 5.95154 16.9875 5.79925 17.5371 5.67697C17.5399 5.75256 17.5434 5.82871 17.5462 5.90541C17.8989 5.81981 18.2636 5.77312 18.6049 5.64751Z" fill="#A6D059"/>
<path d="M18.3646 7.08982C18.4959 7.04425 18.6317 7.01201 18.7686 6.98756C18.7704 7.1165 18.7721 7.24545 18.7732 7.37439C18.6671 7.4133 18.5609 7.45221 18.4548 7.49222C18.4439 7.3555 18.4416 7.21043 18.3646 7.08982Z" fill="#A6D059"/>
<path d="M21.1947 7.41163C21.2158 7.39996 21.258 7.37717 21.2792 7.36606L21.274 7.42053C21.266 7.49556 21.2586 7.57171 21.254 7.64785C21.2398 7.90408 21.2483 8.16197 21.2095 8.41708C21.1593 8.74556 21.1975 9.07793 21.1873 9.40808C21.1633 9.57927 21.1205 9.74712 21.0754 9.91386C21.088 9.74156 21.1108 9.57037 21.1279 9.39863C21.1496 9.04736 21.1234 8.69387 21.1565 8.3426C21.181 8.09416 21.1964 7.8446 21.1936 7.59505C21.193 7.53335 21.1936 7.47222 21.1947 7.41163Z" fill="#A6D059"/>
<path d="M19.0004 7.85794C19.1133 7.86572 19.2263 7.88184 19.3348 7.9163L19.3827 7.93075C19.2549 7.9302 19.0797 7.993 19.0004 7.85794Z" fill="#A6D059"/>
<path d="M18.9701 8.07471C19.0865 8.08304 19.2035 8.09082 19.3205 8.09916C19.2321 8.33982 19.1487 8.58215 19.0745 8.82726C19.1339 8.85783 19.1944 8.88785 19.2555 8.91786C19.1499 8.90674 19.0437 8.90063 18.9381 8.89285C18.945 8.61995 18.9558 8.34705 18.9701 8.07471Z" fill="#A6D059"/>
<path d="M17.9874 8.59994C18.2527 8.49156 18.5193 8.38318 18.8006 8.31982C18.7989 8.44709 18.7955 8.57437 18.7915 8.7011C18.5889 8.77891 18.388 8.86117 18.1877 8.94398C18.1751 8.83671 18.1631 8.72944 18.1506 8.62273C18.1101 8.61717 18.0279 8.6055 17.9874 8.59994Z" fill="#A6D059"/>
<path d="M5.97581 9.19409C6.03174 9.00012 6.08196 8.78113 6.26002 8.65663C6.24689 8.78002 6.2292 8.90563 6.24632 9.02957C6.31367 9.12184 6.4318 9.0507 6.52311 9.0418C6.5916 9.11572 6.66579 9.18409 6.74626 9.24689C6.8604 9.61539 6.87467 10.0033 6.9266 10.3824C7.15203 10.5125 7.36946 10.6553 7.58861 10.7954C7.76211 10.9221 7.97783 10.9643 8.18842 10.9121C7.97327 11.1316 7.71702 11.3634 7.38031 11.3434C6.99622 11.3 6.63155 11.0944 6.39585 10.7954C6.03916 10.3491 5.8611 9.75434 5.97581 9.19409Z" fill="#A6D059"/>
<path d="M10.8593 9.28469C11.0299 9.29136 11.2 9.29747 11.3701 9.30359C11.3307 9.35917 11.2913 9.41475 11.2525 9.47144C11.1344 9.45532 11.0162 9.4392 10.8981 9.42364C10.8884 9.38862 10.869 9.31915 10.8593 9.28469Z" fill="#A6D059"/>
<path d="M22.5336 9.43365C22.7904 9.64541 23.1345 9.67375 23.4484 9.75045C23.8587 9.82549 24.2576 9.94609 24.6668 10.0289C24.7861 10.0595 24.9071 10.0845 25.0292 10.1084C25.0709 10.1162 25.1542 10.1312 25.1965 10.139C25.1308 10.2018 25.0669 10.2657 25.0024 10.329C24.1447 10.1445 23.3109 9.85884 22.4434 9.71822C22.4679 9.62151 22.4999 9.52702 22.5336 9.43365Z" fill="#A6D059"/>
<path d="M24.8021 9.68876C24.8312 9.71655 24.8312 9.71655 24.8021 9.68876Z" fill="#A6D059"/>
<path d="M7.71303 10.129C7.81746 10.0834 7.88538 9.98667 7.96413 9.90997C7.97155 10.0595 7.98068 10.209 7.98924 10.3585C7.90136 10.3546 7.81404 10.3518 7.72672 10.3446C7.6063 10.3196 7.48874 10.2846 7.37232 10.2479C7.41169 10.1856 7.45107 10.124 7.49045 10.0628C7.56236 10.0906 7.63427 10.1251 7.71303 10.129Z" fill="#A6D059"/>
<path d="M25.3403 10.0422C25.4744 10.0823 25.6096 10.1223 25.7415 10.1729C25.7249 10.299 25.7512 10.4224 25.8145 10.5336C25.7523 10.5697 25.6924 10.6097 25.6336 10.6503C25.6176 10.6614 25.5857 10.6842 25.5697 10.6953C25.463 10.6192 25.3443 10.5619 25.2199 10.5202C25.2581 10.3602 25.2992 10.2012 25.3403 10.0422Z" fill="#A6D059"/>
<path d="M21.5862 12.2805C21.5109 12.3355 21.4926 12.4344 21.5457 12.5117C21.6033 12.4472 21.6153 12.3594 21.5862 12.2805Z" fill="#A6D059"/>
<path d="M1.15966 1.22054C1.84336 1.19331 2.52821 1.22054 3.21191 1.21165C3.61311 1.20387 4.01032 1.27112 4.41095 1.26723C5.36231 1.26056 6.31309 1.27168 7.26445 1.26723C7.66509 1.26112 8.06229 1.32837 8.46293 1.32392C9.45195 1.31948 10.441 1.32781 11.43 1.32226C11.8124 1.31837 12.1902 1.38506 12.5725 1.38117C13.5233 1.37784 14.4741 1.38562 15.4249 1.37784C15.8746 1.3745 16.3203 1.43619 16.7683 1.46565L16.7272 1.48844C16.5309 1.62406 16.2821 1.61127 16.0538 1.61405C14.7977 1.59682 13.5416 1.60627 12.2866 1.5518C11.1264 1.54235 9.96501 1.54069 8.80535 1.49511C7.70218 1.494 6.59902 1.47566 5.49585 1.4412C4.0497 1.44453 2.60468 1.38951 1.15909 1.36338C1.15909 1.32781 1.15966 1.25611 1.15966 1.22054Z" fill="#40501B"/>
<path d="M20.9961 1.45565C21.0144 1.45731 21.0503 1.46121 21.068 1.46287C21.0965 1.53013 21.1251 1.59738 21.1542 1.66463C21.2375 1.66797 21.3208 1.6713 21.4041 1.67741L21.4247 1.71076C21.3248 1.71465 21.2255 1.7191 21.1268 1.72355C21.1268 1.77023 21.1268 1.86305 21.1268 1.90974C21.2603 1.88528 21.3939 1.86027 21.5274 1.83582C21.5383 1.74133 21.5497 1.64684 21.5611 1.55291L21.5833 1.59126C21.5868 1.72799 21.5765 1.86527 21.5622 2.002C21.5594 2.0309 21.5525 2.08815 21.5491 2.1165C21.6433 2.11928 21.7369 2.12261 21.8316 2.12428C21.73 2.14207 21.6301 2.1643 21.5297 2.18542C21.5211 2.41552 21.4606 2.67452 21.6027 2.87962C21.714 3.04802 21.8287 3.21532 21.9115 3.39985C21.8653 3.44876 21.8196 3.49878 21.7745 3.5488C21.7186 3.43931 21.661 3.33037 21.5959 3.22588C21.5577 3.16308 21.516 3.10249 21.4749 3.04191C21.4703 3.18031 21.4692 3.3187 21.4624 3.45765C21.4498 3.62384 21.427 3.78891 21.4087 3.95509L21.3585 3.94287C21.4093 3.62606 21.4469 3.30592 21.4304 2.98522L21.3756 3.00134C21.266 3.0319 21.1553 3.05636 21.0497 3.09693C20.987 3.247 21.0149 3.4143 21.0047 3.57215C20.9995 3.73722 20.9807 3.90174 20.9613 4.06626C21.0583 4.06459 21.1559 4.06292 21.254 4.0607L21.2455 4.0996C21.1393 4.15574 21.0349 4.21688 20.9453 4.29636L20.9367 4.27579C20.9299 3.66608 21.0126 3.05747 21.0366 2.44776C21.036 2.1165 21.1513 1.77023 20.9961 1.45565ZM21.1051 2.04091C21.2095 2.0498 21.314 2.05758 21.419 2.06481C21.4167 2.08704 21.4121 2.13206 21.4099 2.15429C21.2843 2.16374 21.1724 2.21932 21.0686 2.28491C21.0572 2.51834 21.0537 2.75289 21.0651 2.98689C21.1639 2.97633 21.2626 2.96743 21.3619 2.96132C21.5497 2.65729 21.4903 2.27379 21.4835 1.93364C21.3562 1.9542 21.1285 1.86027 21.1051 2.04091Z" fill="#40501B"/>
<path d="M1.44958 1.55236C1.7258 1.52957 2.00544 1.56959 2.27139 1.64073C2.2828 1.65796 2.3062 1.69186 2.31819 1.70909C2.02656 1.70798 1.73436 1.70298 1.44273 1.7141C1.44444 1.67408 1.44787 1.59293 1.44958 1.55236Z" fill="#40501B"/>
<path d="M4.13016 1.61072C4.43606 1.59793 4.79845 1.56125 5.05185 1.758C4.74367 1.76245 4.43549 1.76245 4.12731 1.76912C4.12788 1.72966 4.12959 1.65018 4.13016 1.61072Z" fill="#40501B"/>
<path d="M20.0567 1.69186C19.8935 1.67408 19.724 1.65129 19.5659 1.70687C19.7291 1.72688 19.8958 1.72799 20.0567 1.69186Z" fill="#40501B"/>
<path d="M18.7076 1.76523C18.8577 1.70854 19.0203 1.7291 19.1773 1.73244L19.1761 1.7719C19.0198 1.7769 18.8634 1.77912 18.7076 1.76523Z" fill="#40501B"/>
<path d="M18.4005 1.81192C18.2191 1.77968 18.0267 1.75133 17.851 1.82136C18.0336 1.84137 18.2179 1.83359 18.4005 1.81192Z" fill="#40501B"/>
<path d="M17.0223 1.83526C17.1975 1.83359 17.3739 1.83304 17.5462 1.8675C17.3716 1.88806 17.1952 1.89251 17.02 1.89473L17.0223 1.83526Z" fill="#40501B"/>
<path d="M18.4605 2.39718C18.6283 2.39384 18.796 2.39162 18.9638 2.39051L18.9644 2.44831C18.7955 2.4472 18.6271 2.44553 18.4582 2.4422L18.4605 2.39718Z" fill="#40501B"/>
<path d="M17.4207 2.51945C17.7545 2.49722 18.0878 2.42386 18.4234 2.45887C18.1158 2.52946 17.7927 2.52168 17.4794 2.56447C17.282 2.58393 17.0862 2.62728 16.887 2.61116C17.0514 2.52835 17.2415 2.54057 17.4207 2.51945Z" fill="#40501B"/>
<path d="M19.5516 2.85516C19.5905 2.74678 19.7143 2.73233 19.8125 2.70731C19.9266 2.99022 19.8958 3.30925 19.7594 3.57881C19.6863 3.55547 19.5876 3.56381 19.5448 3.48933C19.5231 3.27924 19.522 3.0647 19.5516 2.85516Z" fill="#40501B"/>
<path d="M1.42846 3.53157C1.64533 3.50434 1.86448 3.5149 2.08078 3.53602C6.30967 3.75278 10.5369 3.98122 14.7652 4.19965C15.4089 4.22521 16.0504 4.28524 16.6953 4.2858C16.4596 4.61094 16.1885 4.90941 15.9248 5.21288C15.8341 5.31014 15.7793 5.43242 15.7656 5.56359L15.7645 5.62306C15.4095 5.71421 15.0482 5.61639 14.691 5.59694C11.3975 5.36072 8.10338 5.13506 4.81044 4.89273C4.30366 4.84327 3.79288 4.84271 3.28781 4.7749C3.23759 4.67653 3.22446 4.54313 3.11489 4.48867C2.55046 4.17408 1.98433 3.86005 1.42846 3.53157Z" fill="#40501B"/>
<path d="M3.72325 5.01112C7.43338 5.27902 11.1424 5.56692 14.8525 5.84316C15.1561 5.88095 15.4626 5.91819 15.7696 5.89262L15.8233 5.88818C15.8467 5.94598 15.8701 6.0049 15.8935 6.06325C16.3671 7.2171 16.8579 8.36428 17.359 9.50701C16.5543 9.4531 15.833 9.05403 15.0517 8.89174C15.0808 8.84005 15.1082 8.7878 15.1356 8.73611C15.111 8.7061 15.0865 8.67608 15.0625 8.64663C15.1475 8.60772 15.232 8.56437 15.2828 8.48378C15.155 8.51101 15.0311 8.55214 14.9153 8.60939C14.4827 8.73055 14.0587 8.93453 13.5992 8.91286C13.4212 8.91397 13.2431 8.93509 13.0662 8.91286C12.2718 8.75723 11.4814 8.54436 10.6687 8.50268C10.4279 7.97022 10.0917 7.46777 9.63743 7.08427C9.16888 6.71744 8.61131 6.42008 8.00009 6.38784C7.56407 6.34505 7.12235 6.38562 6.70403 6.51457C6.30511 6.28558 5.90219 6.0627 5.50099 5.83816C5.37886 6.00101 5.26472 6.16941 5.15628 6.34171C4.86865 5.87817 4.29396 5.76479 3.79402 5.64918C3.76777 5.43631 3.73067 5.2251 3.72325 5.01112ZM14.7971 7.20487C14.9278 7.18876 15.0591 7.17319 15.1898 7.15319C15.4814 7.11483 15.7439 6.97199 16.035 6.92808C15.9676 6.77413 15.906 6.61739 15.8512 6.45899C15.4894 6.69242 15.1413 6.94754 14.7971 7.20487ZM13.9702 7.85794C13.8332 7.98967 13.6974 8.12584 13.5199 8.20699C13.311 8.30536 13.1786 8.496 13.0411 8.66997C13.5718 8.50379 14.1003 8.33093 14.6339 8.17364L14.594 8.20587C14.7469 8.19809 14.897 8.16697 15.0465 8.13584C15.0962 8.23756 15.1464 8.33982 15.1972 8.44154C15.4027 8.36428 15.5008 8.16697 15.5973 7.98911C15.5402 7.96077 15.4837 7.9302 15.4255 7.90519C15.3279 7.86906 15.2286 7.83738 15.1316 7.80181C15.2537 7.63618 15.3975 7.48778 15.539 7.33882C15.0197 7.52279 14.4439 7.56114 13.9702 7.85794ZM15.2394 7.8007C15.3011 7.83571 15.3627 7.87184 15.4255 7.90519C15.7451 7.98689 15.8546 7.59838 15.9648 7.3844C15.7085 7.49889 15.4734 7.65007 15.2394 7.8007Z" fill="#40501B"/>
<path d="M18.4696 5.29625C18.5078 5.28791 18.5837 5.27124 18.622 5.2629C18.618 5.39129 18.6123 5.51968 18.6049 5.64751C18.2636 5.77312 17.8989 5.81981 17.5462 5.90541C17.5434 5.82871 17.5399 5.75256 17.5371 5.67697C17.8726 5.61583 18.1888 5.48466 18.4696 5.29625Z" fill="#40501B"/>
<path d="M18.727 5.5836C18.8394 5.47855 18.9473 5.36961 19.0614 5.26568C19.0677 5.34015 19.0745 5.41463 19.0814 5.48911C19.0631 5.86539 19.0004 6.23833 19.0009 6.61572C18.9998 6.97255 19.0049 7.32882 18.9998 7.68564C18.9804 7.68064 18.9421 7.67064 18.9227 7.66564C18.8976 7.43275 18.9056 7.1982 18.9022 6.96477C18.8691 6.97033 18.8023 6.982 18.7686 6.98756C18.6317 7.01201 18.4959 7.04425 18.3646 7.08982C18.3389 7.09983 18.2864 7.11873 18.2607 7.12817C18.0553 7.20487 17.8418 7.25656 17.6318 7.31993C17.7557 7.12262 17.8635 6.91641 17.9828 6.71632C18.2453 6.50679 18.5153 6.30281 18.7373 6.05047C18.8719 5.93153 18.9125 5.6753 18.727 5.5836Z" fill="#40501B"/>
<path d="M19.2977 6.41174C19.3433 6.40229 19.4352 6.38229 19.4815 6.37228C19.502 6.43842 19.5231 6.50512 19.5437 6.57237C19.4421 6.54625 19.3319 6.52235 19.2977 6.41174Z" fill="#40501B"/>
<path d="M18.279 7.78458C18.3674 7.86406 18.4496 7.95465 18.5575 8.00968C18.6887 8.05748 18.8314 8.06026 18.9701 8.07471C18.9558 8.34705 18.945 8.61995 18.9381 8.89285C19.0437 8.90063 19.1499 8.90674 19.2555 8.91786C19.2817 8.92509 19.3342 8.93953 19.3605 8.94676C19.6589 9.13018 20.0128 9.1752 20.3449 9.27302C20.5327 9.32471 20.7182 9.38585 20.9088 9.42698C20.0858 9.5487 19.2463 9.46588 18.4211 9.56593C18.2619 9.55425 18.1026 9.5348 17.9457 9.50645C17.7939 9.44754 17.6415 9.39029 17.4869 9.34027C17.4886 9.31581 17.4914 9.26746 17.4931 9.243C17.6461 9.15741 17.8087 9.09016 17.9725 9.0268C17.9794 8.88451 17.9839 8.74223 17.9874 8.59994C18.0279 8.6055 18.1101 8.61717 18.1506 8.62273C18.1631 8.72944 18.1751 8.83671 18.1877 8.94398C18.388 8.86117 18.5889 8.77891 18.7915 8.7011C18.7955 8.57437 18.7989 8.44709 18.8006 8.31982C18.5193 8.38318 18.2527 8.49156 17.9874 8.59994C17.9605 8.60939 17.908 8.62884 17.8812 8.63829C17.8532 8.50768 17.8024 8.37651 17.8196 8.242C17.9451 8.06581 18.122 7.93298 18.279 7.78458Z" fill="#40501B"/>
<path d="M6.44036 8.62273C6.64924 8.42208 6.92603 8.31704 7.22051 8.33593C7.26331 8.33593 7.34949 8.33593 7.39229 8.33649L7.394 8.38207C7.45336 8.76279 7.176 9.07348 6.89122 9.29247C7.02761 9.41475 7.01905 9.60094 7.05786 9.76379C7.16515 9.9033 7.34036 9.97444 7.49045 10.0628C7.45107 10.124 7.41169 10.1856 7.37232 10.2479C7.48874 10.2846 7.6063 10.3196 7.72672 10.3446C7.75412 10.3891 7.78208 10.4341 7.81004 10.4791C7.72843 10.5125 7.64739 10.5464 7.56635 10.5803C7.57377 10.6514 7.58119 10.7231 7.58861 10.7954C7.36946 10.6553 7.15203 10.5125 6.9266 10.3824C6.87467 10.0033 6.8604 9.61539 6.74626 9.24689C6.6812 9.02346 6.5682 8.81726 6.44036 8.62273Z" fill="#40501B"/>
<path d="M12.1611 9.65986C12.4185 9.69543 12.6747 9.73767 12.9309 9.78102C12.9207 9.80881 12.9001 9.86328 12.8899 9.89052C12.8145 9.97555 12.7318 10.0623 12.6228 10.1062C12.4721 10.1051 12.318 10.0639 12.193 9.98167C12.096 9.89663 12.1508 9.76546 12.1611 9.65986Z" fill="#40501B"/>
<path d="M22.4434 9.71822C23.3109 9.85884 24.1447 10.1445 25.0024 10.329C24.9767 10.3535 24.9254 10.403 24.8997 10.428C24.652 10.3629 24.4077 10.2857 24.1572 10.2307C23.6088 10.2034 23.0615 10.0956 22.557 9.88051C22.5798 9.86272 22.6254 9.82604 22.6483 9.8077C22.5912 9.7888 22.5347 9.76879 22.4788 9.74823L22.4434 9.71822Z" fill="#40501B"/>
<path d="M13.2226 9.97944C13.4269 9.96444 13.6318 9.95554 13.8372 9.96166C13.8053 9.98222 13.7425 10.0234 13.7111 10.0439C13.5444 10.0611 13.3681 10.0784 13.2226 9.97944Z" fill="#40501B"/>
<path d="M24.5584 11.9548C24.6531 11.952 24.7479 11.9503 24.8426 11.9487C24.8529 12.1882 24.8295 12.4272 24.7793 12.6623C24.8843 12.6695 24.9893 12.6773 25.0949 12.6873C25.0446 12.8452 24.8769 12.9007 24.7251 12.8535C24.5732 12.8318 24.4226 12.8074 24.2731 12.7779C24.2582 12.7518 24.228 12.6984 24.2131 12.6718C24.3016 12.6445 24.3906 12.6184 24.4802 12.5928C24.5082 12.38 24.5436 12.1682 24.5584 11.9548Z" fill="#40501B"/>
<path d="M0.518767 8.82671C1.62992 8.57826 2.73138 8.29091 3.84538 8.05525C3.86479 8.18086 3.89047 8.30592 3.91387 8.43153C4.24716 8.46766 4.57702 8.52935 4.91088 8.5627C4.82242 9.16908 4.83098 9.80492 5.04443 10.388C5.30124 11.3023 5.94956 12.1143 6.81988 12.5473C7.34549 12.7812 7.94473 12.8924 8.51714 12.7796C8.97484 12.7257 9.37833 12.4967 9.7647 12.2694C9.75785 12.5534 9.47307 12.6873 9.2328 12.7623C8.51714 13.0241 7.72786 12.9858 6.99394 12.8229C6.06199 12.6384 5.154 12.2971 4.36815 11.7719C4.17068 11.638 3.9795 11.4557 3.92528 11.22C3.91387 10.9549 4.2055 10.8487 4.40353 10.7437C4.07994 10.7109 3.7575 10.6703 3.43448 10.6331C3.33061 10.6108 3.20335 10.6164 3.12858 10.5302C2.9471 10.3368 2.83581 10.08 2.61381 9.92386C1.97291 9.73878 1.30691 9.65485 0.647175 9.55592C0.327582 9.52368 0.197463 9.19131 0 8.989C0.164362 8.91119 0.340709 8.86228 0.518767 8.82671Z" fill="black" fill-opacity="0.3"/>
<path d="M11.3387 9.56259C11.6155 9.56926 11.8877 9.62151 12.1611 9.65986C12.1508 9.76546 12.096 9.89663 12.193 9.98167C12.318 10.0639 12.4721 10.1051 12.6228 10.1062C12.7318 10.0623 12.8145 9.97555 12.8899 9.89052C13.0011 9.91831 13.1119 9.94832 13.2226 9.97944C13.3681 10.0784 13.5444 10.0611 13.7111 10.0439C14.1722 10.204 14.683 10.3085 15.155 10.1251C15.6583 10.1795 16.1571 10.2696 16.6582 10.3402C16.6502 10.4574 16.5931 10.6114 16.7193 10.6909C16.8271 10.7276 16.943 10.7298 17.056 10.7414C17.0223 10.7848 16.9892 10.8287 16.9561 10.8732C17.1667 10.9788 17.395 11.0421 17.6267 11.0883C18.9256 11.3762 20.204 11.7602 21.5217 11.9603C21.504 12.1587 21.4749 12.3566 21.4755 12.5561C21.2021 12.5134 20.9236 12.5395 20.6508 12.4983C20.2234 12.4305 19.7891 12.4144 19.3639 12.3299C16.4185 12.0181 13.4731 11.6997 10.5272 11.3923C10.7549 10.9832 10.8901 10.5252 10.909 10.06C10.9261 9.94832 10.9027 9.81993 10.966 9.72099C11.0784 9.64596 11.2103 9.60428 11.3387 9.56259ZM13.5416 10.7131C13.6997 10.8026 13.8663 10.9671 14.0649 10.9032C14.2909 10.8398 14.5186 10.7509 14.6893 10.5875C14.5049 10.5336 14.3189 10.4591 14.1231 10.4691C13.9114 10.5008 13.7236 10.6092 13.5416 10.7131ZM15.8758 11.1327C15.9608 11.2133 16.0481 11.3095 16.1754 11.3189C16.5909 11.3701 17.0097 11.404 17.4281 11.4284C17.1193 11.2205 16.7449 11.1388 16.4008 11.0032C16.2125 10.9126 16.0344 11.0471 15.8758 11.1327ZM15.1053 11.5096C15.2252 11.559 15.3501 11.5996 15.4808 11.6096C16.2616 11.6835 17.0423 11.7608 17.8219 11.8469C18.0907 11.8714 18.3703 11.9181 18.6328 11.8297C18.5141 11.778 18.3857 11.758 18.2584 11.743C17.4035 11.589 16.5332 11.5446 15.6732 11.4256C15.4786 11.3917 15.2805 11.4223 15.1053 11.5096Z" fill="black" fill-opacity="0.3"/>
<path d="M21.6427 11.833C21.8185 11.8547 21.9937 11.8886 22.1626 11.9425C22.1666 12.062 22.1735 12.1821 22.182 12.3027C22.218 12.2054 22.2528 12.1076 22.2785 12.0081C22.3526 12.0276 22.4268 12.0476 22.501 12.0682C22.5067 12.1999 22.5124 12.3316 22.5199 12.4639C22.5558 12.3638 22.5906 12.2638 22.6192 12.1615C23.1973 12.2971 23.6966 12.6395 24.2731 12.7779C24.4226 12.8074 24.5732 12.8318 24.7251 12.8535C24.7182 12.8868 24.7056 12.953 24.6988 12.9863C24.4237 13.0169 24.1121 13.0097 23.8941 12.8207C23.7315 12.6795 23.4992 12.7379 23.3017 12.7268C22.8669 12.7501 22.4428 12.6123 22.0085 12.6429C21.8442 12.6556 21.6866 12.6034 21.5337 12.5523L21.5457 12.5117C21.6033 12.4472 21.6153 12.3594 21.5862 12.2805C21.5879 12.2077 21.5896 12.1354 21.5908 12.0632C21.7654 12.0798 21.94 12.0948 22.1152 12.1048C21.9594 12.0109 21.8002 11.9231 21.6427 11.833Z" fill="black" fill-opacity="0.29"/>
</svg>
