<svg width="26" height="12" viewBox="0 0 26 12" fill="none" xmlns="http://www.w3.org/2000/svg">
<path d="M9.33846 0.0693885C9.404 0.0402008 9.4718 0.0170721 9.54186 0C9.5995 0.0594768 9.65713 0.12391 9.66447 0.210372C9.55655 0.221386 9.44864 0.232951 9.34016 0.244516C9.33846 0.186141 9.3379 0.127764 9.33846 0.0693885Z" fill="#4D712C"/>
<path d="M7.7474 0.341441C7.83441 0.250023 7.96719 0.279762 8.08019 0.278661C8.08019 0.317761 8.08019 0.396513 8.08019 0.435614C7.98301 0.456541 7.88639 0.478019 7.78921 0.499497C7.77056 0.44773 7.75644 0.395411 7.7474 0.341441Z" fill="#4D712C"/>
<path d="M8.00843 1.73474C8.04742 1.78596 8.07962 1.84048 8.10957 1.89775C8.39264 1.82726 8.74916 1.70941 9.00341 1.90326C8.92601 1.91648 8.8486 1.92969 8.77119 1.94346C8.78136 2.0134 8.7921 2.08279 8.80396 2.15328C8.46722 2.14006 8.13612 2.2067 7.80164 2.21551C7.67621 2.2447 7.56038 2.10151 7.644 1.99633C7.66547 1.98752 7.70841 1.96989 7.72988 1.96108C7.72423 1.90766 7.71971 1.85479 7.71463 1.80248C7.78412 1.84103 7.85418 1.88013 7.92425 1.91868C7.94233 1.90711 7.97849 1.88288 7.99657 1.87132C7.99939 1.83717 8.00561 1.76888 8.00843 1.73474Z" fill="#4D712C"/>
<path d="M7.22702 1.89775C7.25697 1.95613 7.28748 2.01505 7.31743 2.07398C7.37393 2.04369 7.43043 2.01285 7.48693 1.98256C7.55755 2.41927 7.65304 2.85819 7.70276 3.29986C7.72536 3.40009 7.62253 3.43809 7.55078 3.47609C7.50218 3.59614 7.45416 3.7162 7.405 3.8368C7.28183 3.85278 7.15979 3.87646 7.03888 3.90564C7.0434 4.04277 7.05074 4.18265 7.10159 4.31207C7.17335 4.42001 7.31291 4.38752 7.42308 4.38366C7.42195 4.40129 7.42082 4.43653 7.41969 4.4536C7.30839 4.49931 7.1225 4.47288 7.08351 4.61056C7.14453 4.63809 7.20612 4.66452 7.26827 4.69041C7.2694 4.71023 7.27166 4.74933 7.27279 4.76916C7.80672 4.76641 8.33388 4.67774 8.86724 4.67829C8.7339 4.75925 8.62599 4.87159 8.50846 4.97182C8.18302 5.00431 7.85362 4.9966 7.52648 5.00652C7.52365 5.04892 7.51687 5.13318 7.51405 5.17558C7.8361 5.20477 8.15985 5.16512 8.48247 5.1888C8.45309 5.28628 8.42202 5.40743 8.30506 5.43607C8.0655 5.50436 7.78751 5.34465 7.57112 5.50877C7.57168 5.5352 7.57168 5.58752 7.57224 5.61395C7.87452 5.64865 8.1785 5.61726 8.48191 5.62056C8.41467 5.64534 8.34687 5.67067 8.27964 5.69601C8.25365 5.80284 8.22992 5.91134 8.20901 6.01983C8.01691 6.05011 7.7909 5.96971 7.62479 6.09032C7.73553 6.26324 7.86718 6.4235 8.02708 6.55567C7.91351 6.57109 7.78977 6.61845 7.67903 6.56503C7.46885 6.4648 7.3146 6.2748 7.09312 6.19495C6.90045 6.14759 6.70552 6.11014 6.50833 6.08536C6.52754 6.01432 6.54619 5.94328 6.56088 5.87223C6.52754 5.21303 6.37104 4.5643 6.32245 3.90675C6.34392 3.70243 6.47895 3.50638 6.39477 3.29876C6.53997 3.21946 6.6123 3.07297 6.63433 2.91712C6.55579 2.93639 6.47726 2.95677 6.39929 2.97825C6.39364 3.08508 6.39081 3.19137 6.39477 3.29876C6.16537 3.31859 5.95745 3.42267 5.7371 3.47939C5.46194 3.51409 5.18056 3.57026 4.90314 3.53391C5.01163 3.372 5.09299 3.18917 5.22802 3.04598C5.44612 2.89234 5.71619 2.84002 5.97214 2.77834C6.09136 2.75686 6.21566 2.7073 6.33544 2.74915C6.46313 2.79541 6.601 2.73814 6.71004 2.6737C6.79762 2.52501 6.82022 2.35099 6.90045 2.19954C7.01232 2.09601 7.25867 2.10151 7.22702 1.89775ZM7.48354 3.04213C7.42252 3.0581 7.3841 3.18862 7.46941 3.19413C7.53608 3.18256 7.56773 3.04488 7.48354 3.04213ZM6.97164 3.78779C7.09312 3.84892 7.23154 3.79881 7.33438 3.72721C7.33551 3.69472 7.3372 3.62919 7.33777 3.5967C7.27336 3.55374 7.20386 3.51849 7.12928 3.49536C7.02984 3.56365 6.94678 3.66168 6.97164 3.78779ZM6.51568 4.58192C6.52359 4.60725 6.53941 4.65737 6.54732 4.6827C6.62133 4.69867 6.69761 4.70528 6.77332 4.70583C6.77276 4.67554 6.7705 4.61441 6.76993 4.58412C6.68518 4.57971 6.59986 4.57916 6.51568 4.58192Z" fill="#4D712C"/>
<path d="M10.5255 2.02331C10.7256 1.98752 10.9295 1.9754 11.1335 1.96879C11.568 1.95227 12.0019 1.98146 12.437 1.97375C12.8805 1.97155 13.3178 2.06957 13.7619 2.06407C13.8681 2.05305 13.919 2.18522 14.0241 2.18192C14.2874 2.18963 14.5529 2.18357 14.8117 2.24139C15.2332 2.32841 15.6649 2.37742 16.0745 2.51235C15.9253 2.57292 15.7643 2.62249 15.6479 2.73703C15.8971 2.84883 16.1683 2.90225 16.4276 2.98871C16.6118 3.03772 16.7943 3.12694 16.9904 3.10601C17.0356 2.97274 16.9734 2.84552 16.922 2.72492C17.2616 2.79156 17.5842 2.91877 17.9142 3.0201C18.304 3.14842 18.7108 3.27012 19.034 3.52951C19.3956 3.84066 19.6939 4.21129 20.0154 4.56044C20.1471 4.72951 20.3267 4.87049 20.4087 5.07205C20.4635 5.21689 20.3601 5.34575 20.2945 5.46691C20.6375 5.85681 21.0573 6.17623 21.4161 6.55291C21.5189 6.65204 21.6178 6.77981 21.7726 6.79908C21.8348 6.83157 21.9647 6.79743 21.9805 6.88169C21.9105 6.88499 21.8404 6.8883 21.7703 6.89215C21.8901 7.0067 22.0161 7.11574 22.1602 7.2011C22.3393 7.1262 22.5625 7.01992 22.5783 6.80514C22.7518 6.71978 22.9032 6.60138 23.0608 6.49179C23.1388 6.45434 23.2145 6.41248 23.2897 6.36898C23.2942 6.19715 23.2106 6.02919 23.2507 5.85847C23.3292 5.8425 23.4077 5.82818 23.4874 5.81496C23.475 5.91299 23.4625 6.01156 23.4524 6.11014C23.6535 6.10629 23.5439 5.81441 23.6784 5.71033C23.6722 5.81606 23.6597 5.92125 23.6501 6.02698C23.7699 5.92786 23.7982 5.76595 23.8925 5.64699C23.8869 5.71804 23.8818 5.78908 23.8761 5.86067C23.9388 5.77145 24.0021 5.68224 24.0728 5.59853C24.0637 5.6861 24.0535 5.77366 24.0462 5.86232C24.1349 5.772 24.1626 5.64424 24.2428 5.54731C24.2372 5.63323 24.2287 5.71859 24.2202 5.8045C24.2925 5.70482 24.3575 5.59963 24.4208 5.49445C24.4095 5.63598 24.3496 5.77861 24.3733 5.92015C24.483 6.09527 24.6897 6.16907 24.8502 6.28967C25.1333 6.49013 25.2966 6.86296 25.1966 7.1967C25.1508 7.32721 25.105 7.49573 24.9457 7.52877C24.9457 7.57779 24.9451 7.62625 24.9457 7.67636C24.8903 7.66315 24.835 7.65048 24.7796 7.63836C24.6988 7.69178 24.6259 7.77219 24.5236 7.78375C24.3536 7.73199 24.2072 7.6224 24.0767 7.50675C24.1343 7.44396 24.1931 7.38173 24.2519 7.32005C24.1745 7.35805 24.0971 7.3955 24.0191 7.4324C23.91 7.35144 23.8151 7.25452 23.723 7.15594L23.7496 7.10748L23.7801 7.09977L23.8247 7.11464C23.8468 7.12235 23.8914 7.13777 23.9134 7.14548C23.9688 7.04966 24.0038 6.94392 24.0157 6.83488L23.9784 6.80569C23.8801 6.76329 23.7778 6.80844 23.6823 6.83433C23.6823 6.77155 23.723 6.64764 23.6388 6.62616C23.5524 6.67738 23.6072 6.78752 23.6117 6.86517L23.6066 6.91143C23.5552 7.08986 23.6111 7.32777 23.4157 7.43295C23.4094 7.39055 23.397 7.30574 23.3908 7.26278C23.3416 7.30464 23.2925 7.34594 23.2445 7.38779C23.2738 7.42965 23.3038 7.47205 23.3365 7.5128C23.2529 7.58495 23.1761 7.66535 23.119 7.76007C23.1693 7.77549 23.219 7.79091 23.2699 7.80688C23.3535 7.75897 23.4349 7.70665 23.5134 7.64993C23.5253 7.67306 23.5484 7.71932 23.5597 7.74245C23.5134 7.79036 23.4671 7.83883 23.4236 7.89004C23.427 7.90491 23.4332 7.93465 23.4366 7.94952C23.4795 8.11638 23.4998 8.2882 23.4964 8.46113C23.3778 8.45837 23.2495 8.4424 23.1552 8.52831C23.2049 8.57237 23.2552 8.61698 23.3055 8.66104C23.3066 8.62304 23.3089 8.54814 23.31 8.51014C23.5292 8.63956 23.7106 8.81909 23.8614 9.02065C24.0462 9.21725 24.2236 9.42102 24.3988 9.62643C24.4044 9.486 24.4022 9.34557 24.4089 9.20569C24.4219 9.17375 24.4479 9.10987 24.4609 9.07793C24.5067 9.20734 24.5366 9.34172 24.5818 9.47168C24.7355 9.67104 25.0344 9.62203 25.205 9.78118C25.1547 9.81367 25.105 9.84672 25.0553 9.87921C25.0327 10.018 25.0355 10.159 25.0412 10.2994C24.8321 10.4387 24.5717 10.3192 24.3423 10.311C23.9733 10.2944 23.6936 10.0417 23.4173 9.83405C23.0309 9.52455 22.6388 9.21836 22.2065 8.97109C22.15 8.9832 22.0935 8.99642 22.0376 9.00964C22.0517 8.92483 22.067 8.84057 22.0817 8.75631C21.9195 8.57843 21.75 8.40661 21.585 8.23148C21.5647 8.23809 21.524 8.25076 21.5031 8.25737C21.2794 8.24305 21.0856 8.07233 20.855 8.12685C20.7573 8.13511 20.659 8.13841 20.5612 8.14392C20.5358 8.01175 20.5296 7.87793 20.5268 7.7441C20.4539 7.72703 20.381 7.70996 20.3081 7.69399C20.3669 7.75291 20.4251 7.81239 20.4844 7.87187C20.442 7.93905 20.381 7.99468 20.2968 8.00129C20.2454 7.933 20.2126 7.84598 20.1403 7.79697C20.0505 7.7777 19.9584 7.76943 19.868 7.75732C19.8663 7.72868 19.8629 7.67031 19.8612 7.64112C19.816 7.69894 19.7787 7.76448 19.7188 7.80964C19.6386 7.81404 19.5589 7.81184 19.4787 7.81074C19.377 7.91097 19.2922 8.02552 19.1979 8.13235C18.8312 8.17806 18.4667 8.13896 18.1029 8.0905C18.1424 8.19238 18.1995 8.29096 18.2057 8.4022C18.152 8.42093 18.0995 8.44185 18.0475 8.46388C17.9916 8.38238 17.9068 8.33667 17.8091 8.3218C17.8068 8.19128 17.8972 8.10317 18.0108 8.0503C17.8611 8.02331 17.6983 7.90766 17.552 8.00349C17.3593 8.11693 17.1226 8.13235 16.9339 8.248C16.9435 8.27058 16.9621 8.31519 16.9717 8.33722C17.1757 8.41872 17.3989 8.43414 17.6096 8.49472C17.656 8.57953 17.6955 8.66765 17.7464 8.7497C17.9068 8.88738 18.1334 8.84167 18.3249 8.81193C18.4673 8.77724 18.5498 8.92703 18.608 9.02781C18.6718 9.12804 18.6894 9.24589 18.6639 9.36044C18.5232 9.37861 18.3916 9.43368 18.3125 9.55319C18.0074 9.4816 17.7254 9.3263 17.4119 9.2927C17.4073 9.36705 17.4034 9.44139 17.4006 9.51629C17.5848 9.47058 17.7989 9.42487 17.9334 9.59449C17.917 9.63469 17.9012 9.676 17.8853 9.71675C17.9803 9.7151 18.0758 9.714 18.1718 9.714C18.1831 9.77127 18.195 9.8291 18.2068 9.88747C18.2696 9.82249 18.3357 9.76026 18.404 9.70188C18.5255 9.78173 18.6345 9.87756 18.7475 9.96788C18.7261 9.87866 18.7046 9.78944 18.6837 9.70023C18.7848 9.64075 18.8854 9.58017 18.9854 9.51905C18.9679 9.44745 18.9498 9.37641 18.9272 9.30702C18.8363 9.0548 18.6571 8.85268 18.4792 8.65498C18.4956 8.6324 18.5283 8.58669 18.5447 8.56411C18.5402 8.5542 18.5317 8.53437 18.5272 8.52446C18.3843 8.36255 18.5498 8.15383 18.7475 8.17531C18.8312 8.21551 18.7408 8.29536 18.73 8.35539C18.8747 8.44296 18.9837 8.29977 19.0911 8.22432C19.2097 8.25131 19.3312 8.2458 19.4476 8.21056C19.5058 8.26508 19.564 8.32015 19.6227 8.37577C19.7301 8.34218 19.8442 8.30197 19.9505 8.3642C19.8996 8.4402 19.8352 8.51014 19.7985 8.59495C19.7476 8.81634 19.516 8.94025 19.308 8.99862C19.3182 9.0168 19.3391 9.05259 19.3498 9.07021C19.3323 9.10987 19.3154 9.14952 19.2984 9.18972C19.3103 9.21726 19.3346 9.27178 19.3465 9.29876C19.6182 9.3709 19.7657 9.06581 20.0087 9.02341C20.1911 9.08013 20.3567 9.18586 20.5494 9.2134C20.6968 9.23433 20.8347 9.2927 20.9539 9.37972C20.9449 9.09555 21.2568 9.01459 21.4551 8.88573C21.385 8.85489 21.3155 8.8246 21.246 8.79431C21.3155 8.72988 21.3861 8.66599 21.4573 8.60321C21.2923 8.54704 21.1093 8.50574 20.9946 8.36586C21.0161 8.35374 21.0579 8.32896 21.0793 8.31684C21.1065 8.33061 21.1613 8.35759 21.1884 8.37136C21.2878 8.43414 21.4014 8.46994 21.5178 8.42754C21.5257 8.55475 21.5466 8.68141 21.6003 8.79871C21.6901 8.97164 21.6031 9.16549 21.6285 9.34887C21.2161 9.57797 20.846 9.87205 20.4499 10.1259C20.1895 10.3115 19.9126 10.4745 19.6533 10.6623C19.5143 10.7818 19.3165 10.7223 19.1611 10.6728C19.0431 10.6486 19.0719 10.5098 19.0493 10.4244C19.0397 10.2746 18.9826 10.1342 18.8933 10.013C18.886 10.1447 18.8809 10.2768 18.8735 10.409C18.7379 10.3605 18.6108 10.2922 18.4933 10.2118C18.4673 10.1705 18.4424 10.1292 18.4187 10.0879C18.3633 10.1281 18.308 10.1683 18.2526 10.2091C18.1955 10.1749 18.1385 10.1408 18.0825 10.1061C17.8469 10.1458 17.6588 10.3033 17.4989 10.4668C17.5237 10.5329 17.5486 10.5995 17.5735 10.6667C17.374 10.5186 17.2152 10.3269 17.0214 10.1733C16.8553 10.0764 16.6508 10.0901 16.4655 10.0604C16.3643 10.0483 16.2632 10.0334 16.1632 10.0158C16.2028 9.46728 16.2491 8.91932 16.2208 8.36861C16.1626 8.41652 16.105 8.46388 16.0474 8.51179C15.9886 8.46884 15.9304 8.42588 15.8722 8.38403C15.8423 8.53878 15.8886 8.69188 15.9214 8.84222C15.8214 8.80973 15.7163 8.78384 15.6293 8.72437C15.4937 8.57568 15.4106 8.36145 15.518 8.17421C16.0965 8.01891 16.6519 7.77714 17.1508 7.45112C17.1604 7.43405 17.1808 7.39936 17.1904 7.38174C16.9039 7.40431 16.6333 7.51335 16.3468 7.53814C16.1157 7.55741 15.8858 7.59596 15.6536 7.591C15.4858 7.58329 15.3405 7.45553 15.1688 7.49298C14.9643 7.53153 14.771 7.42028 14.5654 7.44782C14.5405 7.36081 14.5151 7.27434 14.48 7.19119C14.306 7.03148 14.1241 6.88059 13.9342 6.73905C13.5483 6.44993 13.0833 6.29077 12.6319 6.12721C12.4488 6.05617 12.2771 5.9576 12.085 5.90858C11.4352 5.73621 10.7883 5.53355 10.1148 5.47022C10.0046 5.4581 9.90121 5.41845 9.79781 5.3821C9.67634 5.5352 9.37519 5.41074 9.33677 5.62496C9.28422 5.85131 9.24072 6.08481 9.26219 6.31776C9.35485 6.3833 9.43903 6.45984 9.51305 6.54575C9.42604 6.55346 9.30513 6.61735 9.2475 6.51987C9.10172 6.3888 9.18082 6.19715 9.20681 6.03635C9.24467 5.7263 9.22377 5.40303 9.08873 5.11666C9.11359 4.8804 9.24524 4.67003 9.33112 4.45085C9.30682 4.64305 9.28083 4.83635 9.28761 5.03075C9.43734 5.08857 9.59837 5.09738 9.75487 5.12382C10.2515 5.25103 10.764 5.30941 11.2612 5.43772C12.2929 5.68004 13.38 5.94658 14.1913 6.6548C14.3716 6.78972 14.497 7.02543 14.7462 7.04415C15.1383 7.09812 15.5327 7.17467 15.931 7.15044C15.9784 6.78146 15.9118 6.40422 15.9988 6.0413C16.0163 6.3888 16.0123 6.7363 16.0067 7.08435C16.3796 6.95328 16.7028 6.72253 17.022 6.50005C17.539 6.14043 18.0724 5.80395 18.5837 5.43717C18.7024 5.34906 18.8645 5.23947 18.8221 5.07095C18.7668 4.91675 18.6481 4.79559 18.5509 4.66563C18.2746 4.33134 18.0306 3.96402 17.6808 3.69582C17.2966 3.38632 16.8022 3.27012 16.3361 3.13079C15.8824 2.99587 15.4247 2.87196 14.9659 2.75686C14.7976 2.70785 14.6371 2.78385 14.51 2.88628C14.3224 2.98155 14.2484 3.18421 14.0874 3.30812C13.9156 3.45186 13.8337 3.70078 13.6054 3.77458C12.3895 3.68536 11.1764 3.55704 9.9628 3.44029C9.86223 3.42873 9.78312 3.32519 9.67747 3.36044C9.53735 3.39128 9.39779 3.42432 9.2588 3.45737C9.18647 3.56751 9.13619 3.69252 9.05144 3.79495C8.97121 3.84121 8.88363 3.8726 8.79831 3.9084C8.87403 3.93373 8.94974 3.95962 9.02601 3.98605C9.02206 4.01248 9.01358 4.0659 9.00963 4.09234C8.64237 4.19862 8.25986 4.06755 7.88865 4.14245C7.76604 4.15457 7.63722 4.19972 7.51744 4.15016C7.60106 4.14025 7.68581 4.13309 7.77 4.12758C7.74344 3.97889 7.78525 3.83791 7.83045 3.69858C7.82085 3.52455 7.75079 3.35714 7.76209 3.18146C7.80955 2.89234 7.5858 2.63295 7.66321 2.34218C7.92651 2.2447 8.20901 2.24635 8.48643 2.24415C8.76893 2.2078 9.04353 2.3218 9.32603 2.25571C9.35598 2.45067 9.28083 2.65278 9.13223 2.7855C9.09438 2.74585 9.05596 2.70675 9.0181 2.66765C8.85651 2.68362 8.69887 2.72327 8.54349 2.76677C8.5418 2.80367 8.53897 2.87692 8.53728 2.91381C8.75029 2.89619 8.96838 2.90996 9.12037 3.07572C9.35202 2.95071 9.42943 2.68912 9.43225 2.44736C9.62718 2.40881 9.8272 2.41817 10.0227 2.45011C10.0046 2.34162 9.98257 2.23424 9.96506 2.12575L9.98201 2.14006C10.017 2.19018 10.0521 2.24084 10.086 2.29206C10.2041 2.24415 10.3069 2.17035 10.4086 2.09711C10.438 2.07838 10.4962 2.04149 10.5255 2.02331ZM8.2107 2.80147C8.11578 2.87086 8.2011 3.08013 8.03612 3.03552C8.03329 2.99091 8.02821 2.9017 8.02538 2.85709C7.97792 2.87802 7.9299 2.89894 7.88243 2.92042C7.88526 2.96833 7.88808 3.01569 7.89091 3.06416C7.85927 3.09775 7.82819 3.1319 7.79655 3.16604C7.96832 3.11207 8.14799 3.08674 8.31806 3.02946C8.38981 2.97604 8.37964 2.88242 8.37908 2.80532C8.3367 2.80422 8.25252 2.80257 8.2107 2.80147ZM10.7448 3.095C10.7453 3.19413 10.7527 3.29381 10.7753 3.39073C10.9007 3.45516 11.0437 3.48821 11.1843 3.45681C11.2375 3.35714 11.3086 3.25691 11.3109 3.14126C11.2872 3.05149 11.1968 2.99422 11.1194 2.94961C10.9781 2.91051 10.8352 2.99312 10.7448 3.095ZM11.4183 3.15558C11.3623 3.23653 11.264 3.34392 11.3126 3.4436C11.5471 3.56696 11.8189 3.4816 12.0663 3.54989C12.2206 3.5989 12.385 3.52235 12.5375 3.57907C12.7364 3.64846 12.9511 3.6402 13.1585 3.62038C13.2054 3.53557 13.2461 3.44745 13.28 3.35714C13.2624 3.34557 13.2274 3.32354 13.2105 3.31253C12.8545 3.30372 12.5019 3.24865 12.146 3.2503C11.9143 3.15778 11.6601 3.20128 11.4183 3.15558ZM18.1611 3.9095C18.3673 4.17715 18.5645 4.45691 18.8114 4.69096C18.856 4.7587 18.8911 4.86168 18.9939 4.85397C19.2561 4.87159 19.5199 4.85342 19.7832 4.86168C19.8855 4.85287 20.0171 4.88756 20.0872 4.79064C19.9928 4.65186 19.8776 4.52464 19.7278 4.44149C19.56 4.21239 19.3583 3.99871 19.1391 3.81423C18.9611 3.82634 18.7837 3.8291 18.6057 3.81973C18.4554 3.83681 18.3119 3.89188 18.1611 3.9095ZM24.2892 6.55897C24.1858 6.56613 24.1875 6.80514 24.292 6.80955C24.2863 6.95769 24.2914 7.10583 24.3078 7.25342C24.357 7.2749 24.4067 7.29582 24.457 7.3173C24.5248 7.18017 24.6852 7.11794 24.7451 6.97586C24.853 6.79798 24.8157 6.58486 24.7818 6.39211C24.6864 6.33979 24.5886 6.27866 24.4773 6.2693C24.3541 6.30069 24.262 6.43341 24.2892 6.55897ZM24.0841 6.43506C24.0903 6.71317 24.11 6.98963 24.1281 7.26719C24.1575 7.26664 24.2163 7.26498 24.2456 7.26443C24.2451 6.98632 24.1552 6.70987 24.2343 6.43176C24.1965 6.43231 24.1213 6.43451 24.0841 6.43506ZM23.979 6.51491C23.9332 6.581 23.927 6.68178 23.9711 6.75117C24.0473 6.73245 24.0581 6.53033 23.979 6.51491ZM24.8683 6.48407C24.8626 6.61239 24.8705 6.74126 24.8564 6.86957C24.7892 7.10197 24.6163 7.31895 24.3716 7.38889C24.292 7.40376 24.2456 7.46599 24.2293 7.53979C24.2801 7.50785 24.3276 7.47095 24.3716 7.4291C24.4293 7.49573 24.4615 7.63561 24.5784 7.59926C24.7841 7.52547 25.0062 7.40762 25.0807 7.19229C25.1288 6.94337 25.1547 6.60413 24.8683 6.48407ZM23.2654 6.80899C23.0733 6.84754 22.8066 6.82937 22.7139 7.03754C22.897 7.11574 23.0817 7.19064 23.2625 7.27435C23.2693 7.14328 23.2716 7.0111 23.293 6.88114L23.3388 6.86847C23.3411 6.9654 23.3433 7.06232 23.3467 7.1598C23.5795 7.15154 23.4733 6.85305 23.4428 6.71372C23.3586 6.70326 23.2778 6.71152 23.2654 6.80899ZM18.6216 6.89105C18.5978 6.97586 18.5758 7.06122 18.5554 7.14713C18.6142 7.14493 18.6735 7.14713 18.7329 7.14878C18.6995 7.16971 18.6323 7.21101 18.599 7.23194C18.4865 7.19559 18.3741 7.15649 18.2566 7.14493C18.1351 7.1989 18.0718 7.33658 17.9385 7.37402C17.93 7.30023 17.9221 7.22643 17.9147 7.15319C17.7588 7.16475 17.6017 7.1978 17.4644 7.27324C17.4469 7.40872 17.6232 7.49518 17.7006 7.59706C17.8294 7.48582 17.9921 7.4324 18.1577 7.3977C18.0605 7.51666 17.9554 7.63782 17.9481 7.79752C18.1481 7.84984 18.3266 7.95172 18.5159 8.02992C18.5249 7.91427 18.5323 7.79752 18.5696 7.68683C18.5786 7.77439 18.5956 7.8614 18.6204 7.94676C18.6136 7.96769 18.5995 8.00844 18.5927 8.02937C18.6419 8.00789 18.6899 7.98587 18.7385 7.96329L18.7509 7.92418C18.8148 7.90436 18.8786 7.88453 18.9425 7.86416C19.0922 7.83442 19.2419 7.79587 19.3787 7.72593C19.3075 7.69674 19.2013 7.72042 19.1566 7.65103C19.1798 7.55741 19.2945 7.51556 19.3425 7.43185C19.2176 7.3542 19.0685 7.33492 18.9255 7.31069C18.925 7.26829 18.9233 7.18348 18.9227 7.14052C18.9261 7.11519 18.9323 7.06508 18.9351 7.03974L18.8882 7.05737C18.843 7.05406 18.7526 7.0469 18.7074 7.0436C18.7509 6.99624 18.817 6.96154 18.8108 6.88885C18.7475 6.8883 18.6843 6.88885 18.6216 6.89105ZM20.4166 6.93401C20.3561 7.02983 20.3177 7.13942 20.3482 7.25287C20.4703 7.29527 20.5985 7.33988 20.7307 7.3195L20.7403 7.26884C20.8172 7.23029 20.8923 7.18678 20.9635 7.13832C20.9624 7.10583 20.9601 7.04084 20.959 7.0089C20.9053 6.98192 20.8522 6.95493 20.7991 6.9285C20.7579 6.93015 20.6754 6.93401 20.6335 6.93566C20.6256 6.83047 20.416 6.82276 20.4166 6.93401ZM24.0406 7.01441C23.9948 7.07499 23.9518 7.16751 23.9829 7.24185C24.0908 7.27049 24.1293 7.04139 24.0406 7.01441ZM24.4824 7.65489C24.6513 7.56898 24.492 7.83662 24.4824 7.65489ZM21.0404 7.87407C21.2093 7.78926 21.0488 8.05636 21.0404 7.87407ZM21.1449 7.99908C21.1234 8.07508 21.1522 8.10317 21.2313 8.08389C21.2522 8.00679 21.2234 7.97871 21.1449 7.99908ZM16.6367 8.7062C16.6305 8.80257 16.631 8.90005 16.6406 8.99697C16.7254 9.0179 16.8113 9.03717 16.8977 9.05369C16.8938 8.95952 16.8853 8.86645 16.874 8.77338C16.8 8.73593 16.7192 8.71556 16.6367 8.7062ZM24.6875 9.95521C24.6897 10.0483 24.6671 10.2212 24.8039 10.2306C24.9044 10.1722 24.8841 10.0488 24.8796 9.95356C24.8316 9.95411 24.7355 9.95466 24.6875 9.95521Z" fill="#4D712C"/>
<path d="M10.8674 3.33841C10.8634 3.24314 10.8623 3.14181 10.947 3.07848C10.9555 3.15227 10.9634 3.22662 10.9719 3.30096C11.0589 3.27067 11.0985 3.1754 11.1826 3.1374C11.1668 3.20404 11.1442 3.26957 11.1194 3.33346C11.0352 3.33841 10.951 3.34006 10.8674 3.33841Z" fill="#4D712C"/>
<path d="M4.59974 3.8671C4.64042 3.86324 4.72234 3.85498 4.76302 3.85057C4.72404 4.01964 4.66415 4.18265 4.59126 4.34071C4.56018 4.35337 4.4986 4.37926 4.46752 4.39192C4.05111 4.70087 3.65504 5.03405 3.25219 5.35952C3.06687 5.51097 2.8516 5.63378 2.70865 5.82928C3.09173 5.8838 3.46746 5.76264 3.84997 5.78467C3.83584 5.83479 3.82172 5.886 3.80872 5.93722C4.04885 5.94603 4.28842 5.92235 4.52798 5.93557C4.65341 5.94438 4.74946 6.03965 4.87037 6.06608C4.95287 6.06719 5.03084 6.038 5.11107 6.02258C5.21559 6.01487 5.32182 6.01872 5.42465 6.0413C5.2478 5.99835 5.11446 6.16521 4.94157 6.14043C4.65172 6.13052 4.35339 6.08426 4.0675 6.14318C4.32797 6.18999 4.65567 6.07214 4.86924 6.25773C4.36526 6.27205 3.85844 6.2726 3.36011 6.36292C3.24597 6.39706 3.18439 6.543 3.05105 6.52263C2.73182 6.50886 2.41202 6.50721 2.09336 6.53805C2.01482 6.55952 1.96058 6.50886 1.92724 6.44663C1.80125 6.47416 1.66395 6.52318 1.6357 6.66306C1.89165 6.68233 2.15212 6.69004 2.40242 6.62561C2.65046 6.56448 2.9081 6.59257 3.16009 6.61074C3.12619 6.6614 3.09286 6.71207 3.05896 6.76329C2.73916 6.77485 2.41824 6.75447 2.09844 6.76934C1.81198 6.78201 1.55434 6.91583 1.27918 6.97751C1.25375 6.92079 1.22889 6.86462 1.20347 6.80899C0.97803 6.74621 0.795532 6.56283 0.553143 6.56558C0.614164 6.48132 0.677445 6.37173 0.802312 6.38935C1.18652 6.38715 1.54078 6.2324 1.90803 6.14484C2.04985 6.10243 2.20466 6.08481 2.3301 6.00441C3.06913 5.40193 3.81268 4.80496 4.56244 4.21515C4.55962 4.09839 4.55001 3.97724 4.59974 3.8671ZM2.62503 5.85021C2.55214 5.87939 2.45044 5.95264 2.46231 6.0369C2.55384 6.08206 2.72165 5.91023 2.62503 5.85021Z" fill="#4D712C"/>
<path d="M20.7375 4.23772C20.9415 4.17439 21.1217 4.02845 21.3443 4.02955C21.3703 4.08738 21.3957 4.1463 21.4014 4.21019C21.1539 4.3363 20.8901 4.42607 20.6381 4.54172C20.5426 4.44809 20.4748 4.32914 20.4703 4.19477C20.559 4.20964 20.6471 4.22891 20.7375 4.23772Z" fill="#4D712C"/>
<path d="M8.31297 4.23001C8.67514 4.23552 9.03562 4.19256 9.39779 4.18651L9.37914 4.22671C9.28987 4.22561 9.20004 4.21955 9.11076 4.22781C8.95821 4.29279 8.8938 4.49986 8.70791 4.50151C8.35422 4.51693 7.99826 4.51583 7.64852 4.56925C7.62253 4.58632 7.57055 4.62047 7.54456 4.63754C7.52083 4.61441 7.49766 4.59128 7.47506 4.56815C7.47054 4.54502 7.46207 4.49821 7.45755 4.47453C7.50331 4.41946 7.52648 4.333 7.60106 4.30821C7.82989 4.23497 8.07454 4.23111 8.31297 4.23001Z" fill="#4D712C"/>
<path d="M16.0734 4.69922C16.1462 4.73722 16.1513 4.94649 16.0705 4.98173C16.0208 4.89858 16.0287 4.78238 16.0734 4.69922Z" fill="#4D712C"/>
<path d="M16.0174 5.10895C16.0734 5.31106 16.057 5.52308 16.0604 5.73015C16.0423 5.71528 16.0067 5.68554 15.9892 5.67067C15.9948 5.48288 15.9977 5.29564 16.0174 5.10895Z" fill="#4D712C"/>
<path d="M3.97314 5.51317C4.06015 5.44598 4.1336 5.59963 4.05789 5.6525C3.97088 5.71969 3.89743 5.56549 3.97314 5.51317Z" fill="#4D712C"/>
<path d="M21.8235 5.60569C22.0376 5.89481 22.206 6.21257 22.4032 6.51271C22.2099 6.61019 22.1715 6.32051 22.1014 6.20707C22.0438 6.18614 21.9867 6.16576 21.9302 6.14539C21.9568 5.97907 21.8268 5.85351 21.7359 5.7296C21.7579 5.69876 21.8014 5.63653 21.8235 5.60569Z" fill="#4D712C"/>
<path d="M12.3387 6.33648C12.5703 6.33153 12.8104 6.36347 13.0121 6.48132C13.1302 6.54906 13.1517 6.69114 13.1783 6.8101C12.9681 6.61514 12.6698 6.7341 12.4144 6.67792C12.4065 6.63166 12.4036 6.58541 12.4065 6.53915C12.4901 6.71592 12.7037 6.69114 12.8658 6.65755C12.8698 6.63662 12.8771 6.59422 12.8805 6.57329C12.7285 6.56228 12.5748 6.54906 12.4313 6.49674C12.4008 6.44277 12.3692 6.38935 12.3387 6.33648Z" fill="#4D712C"/>
<path d="M23.7038 8.15053C23.9242 8.29647 24.1829 8.40936 24.3157 8.64892C24.0841 8.51895 23.8688 8.3576 23.7038 8.15053Z" fill="#4D712C"/>
<path d="M6.68179 8.20835C6.77389 8.17916 6.80553 8.20945 6.77784 8.29867C6.68518 8.32731 6.65298 8.29757 6.68179 8.20835Z" fill="#4D712C"/>
<path d="M14.1518 8.27333C14.2258 8.19458 14.3523 8.3218 14.2704 8.39229C14.193 8.47985 14.0676 8.34658 14.1518 8.27333Z" fill="#4D712C"/>
<path d="M10.9109 10.936C10.9493 10.8303 11.0205 10.7416 11.0934 10.6568C11.2036 10.7741 11.3137 10.892 11.416 11.0159C11.2465 10.9977 11.077 10.9746 10.9109 10.936Z" fill="#4D712C"/>
<path d="M9.34016 0.244516C9.44864 0.232951 9.55655 0.221386 9.66447 0.210372C9.66843 0.24727 9.67577 0.321615 9.67973 0.358512C9.64526 0.357411 9.5769 0.35576 9.54243 0.354659C9.54921 0.387701 9.5639 0.453235 9.57068 0.486278C9.76956 0.474713 9.95715 0.368977 10.1566 0.387702C10.3216 0.468105 10.2809 0.666361 10.3035 0.813952C10.6561 0.81285 11.0069 0.827719 11.3561 0.878935C11.3668 0.699954 11.3527 0.519871 11.3736 0.341992C11.4917 0.179532 11.7064 0.237356 11.8753 0.257182C11.9748 0.274254 12.1206 0.261588 12.1369 0.391555C12.1392 0.397613 12.1437 0.409179 12.146 0.414686C12.2177 0.573291 12.211 0.748416 12.224 0.918035C12.2901 0.927948 12.3562 0.938963 12.4223 0.949977C12.4692 0.976412 12.5155 1.00284 12.5624 1.02983C12.4245 1.02928 12.2867 1.03754 12.1499 1.048C12.155 1.17412 12.1805 1.29803 12.2268 1.41643C12.2912 1.41918 12.355 1.42139 12.4195 1.42359C12.802 1.46214 13.1811 1.35365 13.5636 1.40101C13.6602 1.39716 13.7732 1.44341 13.8602 1.38724C13.7653 1.34869 13.6693 1.3151 13.5721 1.28426C13.6659 1.24901 13.7467 1.19174 13.8184 1.124C13.8783 1.10583 13.9393 1.09041 14.0015 1.07774C13.9438 1.11079 13.8862 1.14658 13.8495 1.20275C13.9337 1.24185 14.0224 1.29527 14.1196 1.26498C14.471 1.19835 14.8168 1.10418 15.1665 1.02873C15.3479 1.04911 15.5445 1.0034 15.7129 1.08876C15.8558 1.19174 16.0395 1.19174 16.2056 1.23139C17.1169 1.40817 17.9995 1.70665 18.8521 2.06352C19.099 2.16099 19.3312 2.37742 19.6165 2.29426C19.6052 2.31519 19.5832 2.35815 19.5719 2.37962C19.8036 2.60266 20.1228 2.72272 20.3426 2.96283C20.0262 2.81744 19.7431 2.61147 19.4154 2.48977C18.9809 2.29481 18.5193 2.1676 18.0577 2.05195C17.1452 1.86471 16.2542 1.59431 15.3468 1.38944C15.1993 1.36081 15.0597 1.43681 14.9151 1.45167C14.8021 1.41478 14.7077 1.33933 14.6055 1.28261C14.5885 1.30629 14.5546 1.3542 14.5377 1.37843C14.5665 1.22478 14.3834 1.31124 14.4653 1.41533C14.3823 1.40046 14.3071 1.36246 14.232 1.32832C14.2173 1.38008 14.2026 1.4324 14.1879 1.48472C14.8914 1.65764 15.6129 1.77439 16.2948 2.02662C16.8796 2.19293 17.4401 2.42588 17.991 2.67756C18.2871 2.79982 18.569 2.95236 18.843 3.11537C19.0662 3.23873 19.1521 3.49206 19.3386 3.65452C19.3436 3.66003 19.3538 3.67104 19.3589 3.67655C19.5945 3.93538 19.8629 4.16448 20.081 4.43873C20.3878 4.73061 20.6488 5.06159 20.9121 5.38926C21.0234 5.51923 21.1347 5.67563 21.3138 5.71693C21.4178 5.6927 21.5054 5.62662 21.6025 5.58366C21.6472 5.63157 21.6924 5.67949 21.7359 5.7296C21.8268 5.85351 21.9568 5.97907 21.9302 6.14539C21.9867 6.16576 22.0438 6.18614 22.1014 6.20707C22.1715 6.32051 22.2099 6.61019 22.4032 6.51271C22.4563 6.55346 22.5088 6.59422 22.5625 6.63552C22.7133 6.5441 22.8783 6.47637 23.0608 6.49179C22.9032 6.60138 22.7518 6.71978 22.5783 6.80514C22.5625 7.01992 22.3393 7.1262 22.1602 7.2011C22.0161 7.11574 21.8901 7.0067 21.7703 6.89215C21.8404 6.8883 21.9105 6.88499 21.9805 6.88169C21.9647 6.79743 21.8348 6.83157 21.7726 6.79908C21.6178 6.77981 21.5189 6.65204 21.4161 6.55291C21.0573 6.17623 20.6375 5.85681 20.2945 5.46691C20.3601 5.34575 20.4635 5.21689 20.4087 5.07205C20.3267 4.87049 20.1471 4.72951 20.0154 4.56044C19.6939 4.21129 19.3956 3.84066 19.034 3.52951C18.7108 3.27012 18.304 3.14842 17.9142 3.0201C17.5842 2.91877 17.2616 2.79156 16.922 2.72492C16.6378 2.65938 16.3542 2.59385 16.0745 2.51235C15.6649 2.37742 15.2332 2.32841 14.8117 2.24139C14.5529 2.18357 14.2874 2.18963 14.0241 2.18192C13.919 2.18522 13.8681 2.05305 13.7619 2.06407C13.3178 2.06957 12.8805 1.97155 12.437 1.97375C12.0019 1.98146 11.568 1.95227 11.1335 1.96879C11.1996 1.81735 11.286 1.67471 11.3476 1.52162C11.3883 1.35034 11.3663 1.17191 11.3533 0.99844C11.012 0.876733 10.6425 0.968151 10.2922 0.888298C10.2882 1.11134 10.2639 1.34153 10.3227 1.55962C10.4029 1.70996 10.5357 1.84048 10.5255 2.02331C10.4962 2.04149 10.438 2.07838 10.4086 2.09711C10.347 2.02001 10.282 1.94566 10.2154 1.87297C10.1063 1.86195 9.99613 1.8614 9.88652 1.86966C9.90573 1.94897 9.93116 2.02662 9.95941 2.10372L9.96506 2.12575C9.79838 2.18412 9.62718 2.22818 9.45768 2.27664C9.44807 2.33281 9.4396 2.39009 9.43225 2.44736C9.42943 2.68912 9.35202 2.95071 9.12037 3.07572C8.96838 2.90996 8.75029 2.89619 8.53728 2.91381C8.53897 2.87692 8.5418 2.80367 8.54349 2.76677C8.69887 2.72327 8.85651 2.68362 9.0181 2.66765C9.05596 2.70675 9.09438 2.74585 9.13223 2.7855C9.28083 2.65278 9.35598 2.45067 9.32603 2.25571C9.04353 2.3218 8.76893 2.2078 8.48643 2.24415C8.20901 2.24635 7.92651 2.2447 7.66321 2.34218C7.5858 2.63295 7.80955 2.89234 7.76209 3.18146C7.75079 3.35714 7.82085 3.52455 7.83045 3.69858C7.78525 3.83791 7.74344 3.97889 7.77 4.12758C7.68581 4.13309 7.60106 4.14025 7.51744 4.15016C7.63722 4.19972 7.76604 4.15457 7.88865 4.14245C8.25986 4.06755 8.64237 4.19862 9.00963 4.09234C9.01358 4.0659 9.02206 4.01248 9.02601 3.98605C8.94974 3.95962 8.87403 3.93373 8.79831 3.9084C8.88363 3.8726 8.97121 3.84121 9.05144 3.79495C9.13619 3.69252 9.18647 3.56751 9.2588 3.45737C9.39779 3.42432 9.53735 3.39128 9.67747 3.36044C9.64639 3.47279 9.62492 3.59009 9.56729 3.69362C9.51023 3.75695 9.41022 3.74594 9.33338 3.77237C9.37688 3.78173 9.46333 3.79991 9.50683 3.80872C9.51418 3.94364 9.45203 4.06645 9.39779 4.18651C9.03562 4.19256 8.67514 4.23552 8.31297 4.23001C8.07454 4.23111 7.82989 4.23497 7.60106 4.30821C7.52648 4.333 7.50331 4.41946 7.45755 4.47453L7.41969 4.4536C7.42082 4.43653 7.42195 4.40129 7.42308 4.38366C7.43438 4.20138 7.41461 4.01854 7.405 3.8368C7.45416 3.7162 7.50218 3.59614 7.55078 3.47609C7.62253 3.43809 7.72536 3.40009 7.70276 3.29986C7.65304 2.85819 7.55755 2.41927 7.48693 1.98256C7.47732 1.95998 7.45698 1.91427 7.44681 1.89114C7.57224 1.6257 7.60841 1.33052 7.68751 1.05021C7.63214 0.995136 7.5779 0.939513 7.52365 0.883891C7.66491 0.853052 7.80672 0.822763 7.94798 0.790272C7.92933 0.678477 7.8474 0.593118 7.78921 0.499497C7.88639 0.478019 7.98301 0.456541 8.08019 0.435614C8.07228 0.545756 8.05872 0.655898 8.04742 0.76604C8.51298 0.578248 9.05822 0.724186 9.50232 0.485728C9.4492 0.404774 9.39383 0.325471 9.34016 0.244516ZM11.4815 0.329325C11.4714 0.507755 11.4702 0.686737 11.4815 0.865719C11.6883 0.864617 11.8867 0.938412 12.0929 0.931803C12.0951 0.730243 12.1511 0.484626 11.9771 0.332079C11.8121 0.318311 11.6465 0.31776 11.4815 0.329325ZM9.91703 0.505553C9.96336 0.581551 10.1199 0.578246 10.2086 0.578797C10.1995 0.462046 9.99896 0.448279 9.91703 0.505553ZM9.67238 0.535841C9.70289 0.741257 9.7786 0.940064 9.78312 1.14933C9.78764 1.37127 9.77182 1.59321 9.78708 1.81514C9.93794 1.81404 10.0882 1.73529 10.2368 1.79697C10.2312 1.5464 10.2385 1.29582 10.2289 1.04525C10.0973 1.04084 9.96506 1.03974 9.83341 1.03479C9.83962 1.01606 9.85262 0.978063 9.85883 0.959339C9.96845 0.885543 9.94133 0.72749 10.0622 0.662506C9.91873 0.663607 9.79612 0.595869 9.67238 0.535841ZM9.56334 0.655346C9.48028 0.897659 9.44186 1.15264 9.35089 1.39275C9.29496 1.53043 9.36163 1.67306 9.40061 1.80523C9.48819 1.81239 9.57633 1.81404 9.66391 1.81074C9.67408 1.49904 9.6656 1.18623 9.66899 0.87453C9.66956 0.791924 9.67464 0.669114 9.56334 0.655346ZM10.1877 0.661404C10.1114 0.699953 10.1091 0.737403 10.1809 0.7732C10.2572 0.73465 10.2594 0.6972 10.1877 0.661404ZM8.65198 0.760533C8.38812 0.752823 8.13725 0.835429 7.88413 0.896007C7.73384 1.24075 7.57225 1.60312 7.58185 1.98366L7.644 1.99633C7.56038 2.10151 7.67621 2.2447 7.80164 2.21551C8.13612 2.2067 8.46722 2.14006 8.80396 2.15328C8.7921 2.08279 8.78136 2.0134 8.77119 1.94346C8.8486 1.92969 8.92601 1.91648 9.00341 1.90326C9.09212 1.89335 9.17913 1.87352 9.26614 1.85314C9.28422 1.61854 9.24354 1.37678 9.32603 1.15044C9.35372 1.0089 9.47689 0.855256 9.37406 0.718128C9.1311 0.679579 8.89097 0.726389 8.65198 0.760533ZM10.0899 0.881688C10.0577 0.949976 10.1792 1.0023 10.2284 0.958789C10.2656 0.886646 10.1391 0.831573 10.0899 0.881688ZM11.481 0.988526C11.4708 1.17191 11.4708 1.35585 11.4827 1.53924C11.6866 1.52051 11.8867 1.46544 12.094 1.47425C12.1042 1.33437 12.1036 1.19394 12.0895 1.05406C11.8951 0.984121 11.6861 0.969251 11.481 0.988526Z" fill="#101010"/>
<path d="M8.2107 2.80147C8.25252 2.80257 8.3367 2.80422 8.37908 2.80532C8.37964 2.88242 8.38981 2.97604 8.31806 3.02946C8.14799 3.08674 7.96832 3.11207 7.79655 3.16604C7.82819 3.1319 7.85927 3.09775 7.89091 3.06416C7.88808 3.01569 7.88526 2.96833 7.88243 2.92042C7.9299 2.89894 7.97792 2.87802 8.02538 2.85709C8.02821 2.9017 8.03329 2.99091 8.03612 3.03552C8.2011 3.08013 8.11578 2.87086 8.2107 2.80147Z" fill="#292C27"/>
<path d="M14.7767 2.9777C14.8456 2.92868 14.8863 2.94135 14.8993 3.01459C14.8298 3.06306 14.7891 3.05039 14.7767 2.9777Z" fill="#292C27"/>
<path d="M16.2491 3.30537C16.3191 3.26407 16.3836 3.38302 16.3304 3.43148C16.2609 3.47003 16.1999 3.35273 16.2491 3.30537Z" fill="#292C27"/>
<path d="M16.2327 3.5967C16.3061 3.60991 16.318 3.65122 16.2689 3.71951C16.1948 3.70574 16.183 3.66443 16.2327 3.5967Z" fill="#292C27"/>
<path d="M16.183 3.87646C16.2638 3.88692 16.2643 4.08848 16.1818 4.09894C16.1344 4.03727 16.1366 3.93759 16.183 3.87646Z" fill="#292C27"/>
<path d="M8.70791 4.50151C8.8938 4.49986 8.95821 4.29279 9.11076 4.22781C9.20004 4.21955 9.28987 4.22561 9.37914 4.22671C9.36106 4.30106 9.34637 4.37595 9.33112 4.45085C9.24524 4.67003 9.11359 4.8804 9.08873 5.11666C9.22377 5.40303 9.24467 5.7263 9.20681 6.03635C9.18082 6.19715 9.10172 6.3888 9.2475 6.51987C9.30513 6.61735 9.42604 6.55346 9.51305 6.54575C9.72267 6.65314 9.9628 6.60193 10.1877 6.63387C10.6182 6.69555 11.0504 6.74236 11.481 6.80679C12.194 6.91528 12.9155 6.98302 13.6173 7.15319C13.8421 7.20991 14.045 7.33713 14.2789 7.36191C14.3456 7.30519 14.4128 7.24846 14.48 7.19119C14.5151 7.27434 14.5405 7.36081 14.5654 7.44782C14.771 7.42028 14.9643 7.53153 15.1688 7.49298C15.3405 7.45553 15.4858 7.58329 15.6536 7.591C15.8858 7.59596 16.1157 7.55741 16.3468 7.53814C16.6333 7.51335 16.9039 7.40431 17.1904 7.38174C17.1808 7.39936 17.1604 7.43405 17.1508 7.45112C16.6519 7.77714 16.0965 8.01891 15.518 8.17421C15.4106 8.36145 15.4937 8.57568 15.6293 8.72437C15.7163 8.78384 15.8214 8.80973 15.9214 8.84222C15.8886 8.69188 15.8423 8.53878 15.8722 8.38403C15.9304 8.42588 15.9886 8.46884 16.0474 8.51179C16.105 8.46388 16.1626 8.41652 16.2208 8.36861C16.2491 8.91932 16.2028 9.46728 16.1632 10.0158C16.014 9.93483 16.031 9.78284 16.0903 9.65287C16.0253 9.64351 15.9609 9.6347 15.8965 9.62589C15.9491 9.66333 16.0016 9.70078 16.0525 9.74043C15.9423 9.81753 15.8265 9.76577 15.727 9.70243C15.6971 9.77017 15.6677 9.83791 15.6389 9.90675C15.4988 9.8335 15.3586 9.91225 15.2287 9.96567C15.2315 9.94089 15.236 9.89243 15.2383 9.8682C15.1518 9.86875 15.0654 9.86544 14.9795 9.85663C15.0185 9.7564 15.0727 9.66278 15.1332 9.57357C14.9699 9.4827 14.8044 9.39624 14.6405 9.30702C14.7038 9.83846 14.4998 10.393 14.0721 10.7361C13.9975 10.7769 13.9212 10.8149 13.8484 10.8589C13.619 11.099 13.3184 11.2444 12.9918 11.3122C12.7053 11.3876 12.3991 11.4207 12.1138 11.3221C11.8573 11.2731 11.6606 11.0941 11.416 11.0159C11.3137 10.892 11.2036 10.7741 11.0934 10.6568C10.9205 10.3853 10.7877 10.0945 10.6679 9.79771C10.521 9.92437 10.4159 10.0951 10.2419 10.1915C9.95206 10.3616 9.64413 10.501 9.33168 10.6249C8.826 10.7736 8.23895 10.6612 7.85136 10.3033C7.39483 9.93098 7.12645 9.37366 7.053 8.80422C6.92644 8.8279 6.80496 8.87031 6.68462 8.91492C6.61851 8.4782 6.61738 8.02772 6.73547 7.59982C6.78745 7.3889 7.01628 7.20165 6.91684 6.97421C7.0886 6.90041 7.2824 6.85636 7.41743 6.72143C7.37675 6.72033 7.29652 6.71868 7.25641 6.71758C7.16487 6.68784 7.07447 6.657 6.98238 6.63001C6.91458 6.72694 6.8366 6.81891 6.7349 6.88334C6.65637 6.90372 6.57501 6.90923 6.49534 6.92189C6.56992 6.86407 6.6445 6.80514 6.72021 6.74787C6.7236 6.71317 6.73095 6.64433 6.73434 6.60964C6.34222 6.60358 5.92977 6.55126 5.55742 6.70326C5.4642 6.66306 5.37041 6.62451 5.27662 6.58651C5.2817 6.62451 5.29131 6.70106 5.29639 6.73961C5.22068 6.71538 5.14497 6.69225 5.06813 6.67407C4.87546 6.64874 4.68279 6.70106 4.49408 6.733C4.43984 6.79688 4.38616 6.86186 4.33362 6.92795C4.20027 6.90427 4.08219 6.83763 3.96015 6.78532C3.85392 6.8156 3.7477 6.84479 3.64035 6.86902C3.47537 6.73575 3.25784 6.76053 3.05896 6.76329C3.09286 6.71207 3.12619 6.6614 3.16009 6.61074C2.9081 6.59257 2.65046 6.56448 2.40242 6.62561C2.15212 6.69004 1.89165 6.68233 1.6357 6.66306C1.66395 6.52318 1.80125 6.47416 1.92724 6.44663C1.96058 6.50886 2.01482 6.55952 2.09336 6.53805C2.41202 6.50721 2.73182 6.50886 3.05105 6.52263C3.18439 6.543 3.24597 6.39706 3.36011 6.36292C3.85844 6.2726 4.36526 6.27205 4.86924 6.25773C4.65567 6.07214 4.32797 6.18999 4.0675 6.14318C4.35339 6.08426 4.65172 6.13052 4.94157 6.14043C5.11446 6.16521 5.2478 5.99835 5.42465 6.0413C5.77778 6.13713 6.14955 6.18229 6.50833 6.08536C6.70552 6.11014 6.90045 6.14759 7.09312 6.19495C7.3146 6.2748 7.46885 6.4648 7.67903 6.56503C7.78977 6.61845 7.91351 6.57109 8.02708 6.55567C7.86718 6.4235 7.73553 6.26324 7.62479 6.09032C7.7909 5.96971 8.01691 6.05011 8.20901 6.01983C8.22992 5.91134 8.25365 5.80284 8.27964 5.69601C8.34687 5.67067 8.41467 5.64534 8.48191 5.62056C8.1785 5.61726 7.87452 5.64865 7.57224 5.61395C7.57168 5.58752 7.57168 5.5352 7.57112 5.50877C7.78751 5.34465 8.0655 5.50436 8.30506 5.43607C8.42202 5.40743 8.45309 5.28628 8.48247 5.1888C8.15985 5.16512 7.8361 5.20477 7.51405 5.17558C7.51687 5.13318 7.52365 5.04892 7.52648 5.00652C7.85362 4.9966 8.18302 5.00431 8.50846 4.97182C8.62599 4.87159 8.7339 4.75925 8.86724 4.67829C8.33388 4.67774 7.80672 4.76641 7.27279 4.76916C7.27166 4.74933 7.2694 4.71023 7.26827 4.69041C7.33664 4.6491 7.40557 4.60835 7.47506 4.56815C7.49766 4.59128 7.52083 4.61441 7.54456 4.63754C7.57055 4.62047 7.62253 4.58632 7.64852 4.56925C7.99826 4.51583 8.35422 4.51693 8.70791 4.50151ZM8.32823 6.33208C8.49716 6.24727 8.3367 6.51436 8.32823 6.33208ZM8.04177 6.98743C7.96549 7.08821 7.91295 7.2033 7.86775 7.32006C8.05081 7.24791 8.24913 7.2022 8.41524 7.09537L8.42089 7.05516C8.29772 7.01716 8.17228 6.98137 8.04177 6.98743ZM9.79668 7.10363C9.96619 7.01882 9.80572 7.28591 9.79668 7.10363ZM9.94641 7.15154C10.0182 7.23965 10.0995 7.34263 10.2306 7.32171C10.2312 7.28095 10.2329 7.19835 10.2334 7.15705C10.1379 7.15209 10.0419 7.14933 9.94641 7.15154ZM10.5781 7.38889C10.7657 7.39716 10.4905 7.55301 10.5781 7.38889ZM10.6442 7.87407C10.8126 7.78871 10.6538 8.05691 10.6442 7.87407ZM7.80164 8.69353C7.78469 8.96118 7.81237 9.24204 7.97171 9.46948C8.09488 9.6771 8.32371 9.7922 8.55197 9.85828C8.87911 9.99596 9.24524 9.70298 9.32547 9.39293C9.20455 9.41276 9.15709 9.53281 9.07517 9.60606C8.87459 9.65177 8.79888 9.40946 8.73503 9.27233C8.66441 9.24644 8.59265 9.22387 8.52089 9.20404C8.50507 9.11372 8.4949 9.02286 8.47343 8.93364C8.40563 8.83506 8.31184 8.75631 8.24969 8.65388C8.19997 8.52832 8.19149 8.39174 8.17285 8.25957C8.31354 8.19459 8.51355 8.25131 8.61977 8.14557L8.59265 8.09821C8.22822 8.0481 7.81746 8.31905 7.80164 8.69353ZM6.77784 8.29867C6.68518 8.32731 6.65298 8.29757 6.68179 8.20835C6.77389 8.17916 6.80553 8.20945 6.77784 8.29867ZM10.8216 8.26618C10.7747 8.32455 10.812 8.42148 10.8742 8.45617C10.9764 8.44185 10.9267 8.21221 10.8216 8.26618ZM14.2704 8.39229C14.193 8.47985 14.0676 8.34658 14.1518 8.27333C14.2258 8.19458 14.3523 8.3218 14.2704 8.39229ZM11.5053 9.05755C11.3471 9.27673 11.4024 9.5576 11.4103 9.80762L11.455 9.7955C11.5352 10.0549 11.7183 10.3313 11.9923 10.4151L11.9816 10.458C12.3307 10.6282 12.837 10.5445 13.002 10.1672C12.8884 10.1942 12.7844 10.2482 12.672 10.2757C12.5132 10.2168 12.4534 10.0417 12.3641 9.91501C12.2686 9.89684 12.1737 9.87921 12.0782 9.86269C12.0465 9.752 12.1093 9.64406 12.1053 9.53281C11.9025 9.41661 11.7708 9.20514 11.8262 8.97109C11.8059 8.84112 12.011 8.82185 11.994 8.70124C11.7776 8.71556 11.6194 8.89399 11.5053 9.05755Z" fill="#101010"/>
<path d="M4.46752 4.39192C4.4986 4.37926 4.56018 4.35337 4.59126 4.34071C4.58956 4.43928 4.56357 4.53951 4.48956 4.6111C4.46978 4.53896 4.46244 4.46572 4.46752 4.39192Z" fill="#292C27"/>
<path d="M3.93924 5.24553C4.08671 5.06049 4.34605 5.06379 4.55453 4.98834C4.56131 5.01643 4.57544 5.07315 4.58222 5.10179C4.41102 5.12162 4.48504 5.33199 4.46131 5.44874C4.52854 5.40854 4.59634 5.36888 4.66358 5.32868C4.75116 5.50877 4.7828 5.70812 4.8619 5.89096C4.93479 5.95099 5.02519 5.98403 5.11107 6.02258C5.03084 6.038 4.95287 6.06719 4.87037 6.06608C4.74946 6.03965 4.65341 5.94438 4.52798 5.93557C4.28842 5.92235 4.04885 5.94603 3.80872 5.93722C3.82172 5.886 3.83584 5.83479 3.84997 5.78467C3.872 5.78082 3.91607 5.77366 3.93754 5.77035C3.91946 5.63323 3.89969 5.49665 3.87313 5.36118C3.7946 5.30666 3.67708 5.27416 3.67595 5.16237C3.76465 5.18715 3.85223 5.21524 3.93924 5.24553ZM4.60708 5.45975C4.54041 5.45535 4.43362 5.52749 4.48899 5.59798C4.57826 5.68995 4.74833 5.4961 4.60708 5.45975ZM4.05789 5.6525C3.97088 5.71969 3.89743 5.56549 3.97314 5.51317C4.06015 5.44598 4.1336 5.59963 4.05789 5.6525ZM4.59013 5.6872C4.57035 5.7643 4.59974 5.79128 4.67884 5.7687C4.69805 5.6916 4.66867 5.66462 4.59013 5.6872ZM4.32345 5.73511C4.32006 5.81331 4.46187 5.8056 4.50481 5.76319C4.50764 5.68444 4.36582 5.6916 4.32345 5.73511Z" fill="#292C27"/>
<path d="M5.31956 5.67177C5.42352 5.67288 5.52861 5.67398 5.63088 5.69545C5.7032 5.74667 5.72693 5.83754 5.76704 5.91189C5.60037 5.93281 5.42804 5.93391 5.26588 5.8849C5.26362 5.85957 5.25797 5.8078 5.25571 5.78192C5.36702 5.79403 5.532 5.85296 5.59472 5.72189C5.50714 5.69931 5.38058 5.74887 5.31956 5.67177Z" fill="#292C27"/>
<path d="M12.4313 6.49674C12.5748 6.54906 12.7285 6.56228 12.8805 6.57329C12.8771 6.59422 12.8698 6.63662 12.8658 6.65755C12.7037 6.69114 12.4901 6.71592 12.4065 6.53915L12.4313 6.49674Z" fill="#292C27"/>
<path d="M17.4644 7.27324C17.6017 7.1978 17.7588 7.16475 17.9147 7.15319C17.9221 7.22643 17.93 7.30023 17.9385 7.37402C18.0718 7.33658 18.1351 7.1989 18.2566 7.14493C18.3741 7.15649 18.4865 7.19559 18.599 7.23194C18.604 7.33603 18.6103 7.44066 18.6114 7.54585C18.6012 7.58109 18.5803 7.65158 18.5696 7.68683C18.5323 7.79752 18.5249 7.91427 18.5159 8.02992C18.3266 7.95172 18.1481 7.84984 17.9481 7.79752C17.9554 7.63782 18.0605 7.51666 18.1577 7.3977C17.9921 7.4324 17.8294 7.48582 17.7006 7.59706C17.6232 7.49518 17.4469 7.40872 17.4644 7.27324Z" fill="#292C27"/>
<path d="M18.9255 7.31069C19.0685 7.33492 19.2176 7.3542 19.3425 7.43185C19.2945 7.51556 19.1798 7.55741 19.1566 7.65103C19.2013 7.72042 19.3075 7.69674 19.3787 7.72593C19.2419 7.79587 19.0922 7.83442 18.9425 7.86416C18.9351 7.74961 18.9261 7.63616 18.9193 7.52217C18.9216 7.45168 18.9238 7.38118 18.9255 7.31069Z" fill="#292C27"/>
<path d="M24.7705 7.76999C24.7994 7.79807 24.7994 7.79807 24.7705 7.76999Z" fill="#292C27"/>
<path d="M24.6564 7.82726C24.6852 7.85535 24.6852 7.85535 24.6564 7.82726Z" fill="#292C27"/>
<path d="M17.552 8.00349C17.6983 7.90766 17.8611 8.02331 18.0108 8.0503C17.8972 8.10317 17.8068 8.19128 17.8091 8.3218C17.9068 8.33667 17.9916 8.38238 18.0475 8.46388C18.0328 8.4782 18.0029 8.50739 17.9876 8.52171C18.1673 8.52997 18.3475 8.52721 18.5272 8.52446C18.5317 8.53437 18.5402 8.5542 18.5447 8.56411C18.5283 8.58669 18.4956 8.6324 18.4792 8.65498C18.6571 8.85268 18.8363 9.0548 18.9272 9.30702C18.8391 9.32464 18.7515 9.34172 18.6639 9.36044C18.6894 9.24589 18.6718 9.12804 18.608 9.02781C18.5498 8.92703 18.4673 8.77724 18.3249 8.81193C18.1334 8.84167 17.9068 8.88738 17.7464 8.7497C17.6955 8.66765 17.656 8.57953 17.6096 8.49472C17.3989 8.43414 17.1757 8.41872 16.9717 8.33722C16.9621 8.31519 16.9435 8.27058 16.9339 8.248C17.1226 8.13235 17.3593 8.11693 17.552 8.00349Z" fill="#292C27"/>
<path d="M23.4366 7.94952C23.5145 8.00239 23.5959 8.05305 23.6665 8.11693C23.6575 8.20395 23.6959 8.2816 23.7558 8.34493C23.9931 8.61698 24.1891 8.92042 24.4089 9.20569C24.4022 9.34557 24.4044 9.486 24.3988 9.62643C24.2236 9.42102 24.0462 9.21725 23.8614 9.02065C23.7106 8.81909 23.5292 8.63956 23.31 8.51014C23.3089 8.54814 23.3066 8.62304 23.3055 8.66104C23.2552 8.61698 23.2049 8.57237 23.1552 8.52831C23.2495 8.4424 23.3778 8.45837 23.4964 8.46113C23.4998 8.2882 23.4795 8.11638 23.4366 7.94952Z" fill="#292C27"/>
<path d="M20.2855 8.28655C20.3618 8.21441 20.4544 8.16099 20.5612 8.14392C20.659 8.13841 20.7573 8.13511 20.855 8.12685C20.8782 8.18467 20.9008 8.2425 20.9234 8.30087C20.8573 8.38183 20.7855 8.45783 20.7042 8.52446C20.5448 8.48151 20.3821 8.45177 20.216 8.46554C20.2533 8.4 20.3251 8.37301 20.3917 8.34273C20.3652 8.32896 20.3121 8.30087 20.2855 8.28655Z" fill="#292C27"/>
<path d="M21.5031 8.25737C21.524 8.25076 21.5647 8.23809 21.585 8.23148C21.75 8.40661 21.9195 8.57843 22.0817 8.75631C22.067 8.84057 22.0517 8.92483 22.0376 9.00964C21.9952 9.37696 21.9319 9.74263 21.9127 10.1127C21.7398 10.4966 21.893 10.9349 21.7489 11.3309C21.6325 11.3458 21.5472 11.2797 21.5093 11.1761C21.5426 11.0258 21.5737 10.8749 21.5901 10.7223C21.5997 10.4426 21.5641 10.1606 21.6217 9.88472C21.6579 9.70739 21.654 9.52675 21.6285 9.34887C21.6031 9.16549 21.6901 8.97164 21.6003 8.79871C21.5466 8.68141 21.5257 8.55475 21.5178 8.42754C21.5138 8.38513 21.5071 8.29977 21.5031 8.25737Z" fill="#292C27"/>
<path d="M24.4993 8.53933C24.5988 8.49362 24.7016 8.45287 24.8061 8.41762C24.8242 8.42809 24.8615 8.44846 24.8796 8.45893C24.7203 8.57292 24.5468 8.69683 24.4931 8.89399C24.6332 9.01074 24.7875 9.10876 24.9406 9.20789C24.9033 9.22882 24.8666 9.2503 24.8304 9.27288C24.7841 9.24314 24.7383 9.2134 24.6931 9.18421C24.6203 9.26241 24.6157 9.37531 24.5818 9.47168C24.5366 9.34172 24.5067 9.20734 24.4609 9.07793C24.3541 8.95677 24.3236 8.80367 24.3157 8.64892C24.3762 8.61147 24.4366 8.57347 24.4993 8.53933Z" fill="#292C27"/>
<path d="M25.2796 9.15943C25.3824 9.25911 25.2322 9.41992 25.1141 9.4056C25.0689 9.34007 25.0237 9.27563 24.979 9.21065C25.0824 9.22111 25.192 9.22387 25.2796 9.15943Z" fill="#292C27"/>
<path d="M17.4119 9.2927C17.7254 9.3263 18.0074 9.4816 18.3125 9.55319C18.3413 9.6033 18.3718 9.65287 18.404 9.70188C18.3357 9.76026 18.2696 9.82249 18.2068 9.88747C18.195 9.8291 18.1831 9.77127 18.1718 9.714C18.0758 9.714 17.9803 9.7151 17.8853 9.71675C17.9012 9.676 17.917 9.63469 17.9334 9.59449C17.7989 9.42487 17.5848 9.47058 17.4006 9.51629C17.4034 9.44139 17.4073 9.36705 17.4119 9.2927Z" fill="#292C27"/>
<path d="M25.0553 9.87921C25.105 9.84672 25.1547 9.81367 25.205 9.78118C25.2559 9.84451 25.279 9.94805 25.3717 9.96732C25.5695 10.0202 25.7768 10.0108 25.9785 10.04C25.9921 10.1243 25.9989 10.2102 26 10.2966C25.6768 10.284 25.3333 10.0631 25.0412 10.2994C25.0355 10.159 25.0327 10.018 25.0553 9.87921Z" fill="#292C27"/>
<path d="M24.6875 9.95521C24.7355 9.95466 24.8316 9.95411 24.8796 9.95356C24.8841 10.0488 24.9044 10.1722 24.8039 10.2306C24.6671 10.2212 24.6897 10.0483 24.6875 9.95521Z" fill="#292C27"/>
<path d="M16.4655 10.0604C16.6508 10.0901 16.8553 10.0764 17.0214 10.1733C17.2152 10.3269 17.374 10.5186 17.5735 10.6667C17.5486 10.5995 17.5237 10.5329 17.4989 10.4668C17.6588 10.3033 17.8469 10.1458 18.0825 10.1061C18.1385 10.1408 18.1955 10.1749 18.2526 10.2091C18.308 10.1683 18.3633 10.1281 18.4187 10.0879C18.4424 10.1292 18.4673 10.1705 18.4933 10.2118C18.4763 10.2686 18.46 10.3258 18.4441 10.3831C18.5221 10.4745 18.6103 10.5582 18.6764 10.6596C18.7227 10.8022 18.7351 10.9559 18.8137 11.088C18.6741 11.3094 18.3554 11.3347 18.1289 11.2444C17.9582 11.1734 17.9063 10.9812 17.7701 10.8749C17.5463 10.8165 17.3107 10.8374 17.0825 10.8066C17.0994 10.6959 17.1486 10.594 17.174 10.4861C17.1915 10.4007 17.1 10.3528 17.0565 10.2933C16.9384 10.3346 16.8361 10.4079 16.7214 10.4558C16.5367 10.4178 16.3406 10.3671 16.2073 10.2278C16.2869 10.2421 16.3672 10.2581 16.4474 10.273C16.4525 10.2553 16.4632 10.2207 16.4689 10.203C16.4683 10.1551 16.4677 10.1078 16.4655 10.0604ZM18.0255 10.6397C18.0311 10.6596 18.0424 10.6987 18.0481 10.7185C18.0565 10.8226 18.0356 10.9878 18.1594 11.0318L18.1351 11.0676C18.2543 11.0654 18.4029 11.11 18.5029 11.0296C18.5605 10.871 18.5504 10.6452 18.3611 10.577C18.2509 10.4883 18.1226 10.5797 18.0255 10.6397Z" fill="#292C27"/>
<path d="M12.1369 0.391555C12.1392 0.397613 12.1437 0.409179 12.146 0.414686L12.1369 0.391555Z" fill="#DCC279"/>
<path d="M9.95941 2.10372C9.96506 2.11253 9.97636 2.13125 9.98201 2.14006L9.96506 2.12575L9.95941 2.10372Z" fill="#DCC279"/>
<path d="M14.51 2.88628C14.6371 2.78385 14.7976 2.70785 14.9659 2.75686C15.4247 2.87196 15.8824 2.99587 16.3361 3.13079C16.8022 3.27012 17.2966 3.38632 17.6808 3.69582C18.0306 3.96402 18.2746 4.33134 18.5509 4.66563C18.6481 4.79559 18.7668 4.91675 18.8221 5.07095C18.8645 5.23947 18.7024 5.34906 18.5837 5.43717C18.0724 5.80395 17.539 6.14043 17.022 6.50005C16.7028 6.72253 16.3796 6.95328 16.0067 7.08435C16.0123 6.7363 16.0163 6.3888 15.9988 6.0413C16.0225 5.93777 16.0491 5.83534 16.0604 5.73015C16.057 5.52308 16.0734 5.31106 16.0174 5.10895C15.9977 5.29564 15.9948 5.48288 15.9892 5.67067C15.7909 5.54236 15.5875 5.40028 15.4846 5.1833C15.3117 4.83304 15.0072 4.56375 14.84 4.21074C14.745 4.01358 14.5885 3.84562 14.5371 3.62974C14.484 3.42543 14.4066 3.21891 14.4337 3.00523C14.523 2.98541 14.6156 2.96944 14.6976 2.92538C14.6507 2.91547 14.5569 2.89619 14.51 2.88628ZM14.8993 3.01459C14.8298 3.06306 14.7891 3.05039 14.7767 2.9777C14.8456 2.92868 14.8863 2.94135 14.8993 3.01459ZM15.0586 3.03222C15.0722 3.10491 15.114 3.11703 15.1835 3.06911C15.1699 2.99642 15.1281 2.98431 15.0586 3.03222ZM15.3349 3.08398C15.5038 2.99862 15.3439 3.26627 15.3349 3.08398ZM15.5666 3.14291C15.5801 3.21505 15.6214 3.22772 15.6914 3.17926C15.6773 3.10656 15.636 3.09445 15.5666 3.14291ZM15.8428 3.19413C16.0118 3.10932 15.8519 3.37641 15.8428 3.19413ZM16.0688 3.2503C16.2378 3.16549 16.0773 3.43258 16.0688 3.2503ZM16.3304 3.43148C16.2609 3.47003 16.1999 3.35273 16.2491 3.30537C16.3191 3.26407 16.3836 3.38302 16.3304 3.43148ZM16.2689 3.71951C16.1948 3.70574 16.183 3.66443 16.2327 3.5967C16.3061 3.60991 16.318 3.65122 16.2689 3.71951ZM16.1818 4.09894C16.1344 4.03727 16.1366 3.93759 16.183 3.87646C16.2638 3.88692 16.2643 4.08848 16.1818 4.09894ZM16.0705 4.98173C16.0208 4.89858 16.0287 4.78238 16.0734 4.69922C16.1462 4.73722 16.1513 4.94649 16.0705 4.98173Z" fill="#DCC279"/>
<path d="M5.7371 3.47939C5.95745 3.42267 6.16537 3.31859 6.39477 3.29876C6.47895 3.50638 6.34392 3.70243 6.32245 3.90675C6.37104 4.5643 6.52754 5.21303 6.56088 5.87223C6.38403 5.89096 6.21792 5.95319 6.05972 6.02974C6.07893 5.66902 6.07441 5.30005 5.94615 4.9564C5.77382 4.47894 5.90264 3.95466 5.7371 3.47939Z" fill="#DCC279"/>
<path d="M18.1611 3.9095C18.3119 3.89188 18.4554 3.83681 18.6057 3.81973C18.7837 3.8291 18.9611 3.82634 19.1391 3.81423C19.3583 3.99871 19.56 4.21239 19.7278 4.44149C19.5431 4.5698 19.3634 4.7185 19.1414 4.78128C19.0221 4.82478 18.9148 4.73391 18.8114 4.69096C18.5645 4.45691 18.3673 4.17715 18.1611 3.9095Z" fill="#DCC279"/>
<path d="M24.2892 6.55897C24.1858 6.56613 24.1875 6.80514 24.292 6.80955C24.2959 6.72584 24.2937 6.64213 24.2892 6.55897Z" fill="#DCC279"/>
<path d="M18.8882 7.05737L18.9351 7.03974C18.9323 7.06508 18.9261 7.11519 18.9227 7.14052C18.8481 7.41808 18.734 7.68297 18.6204 7.94676C18.5956 7.8614 18.5786 7.77439 18.5696 7.68683C18.5803 7.65158 18.6012 7.58109 18.6114 7.54585C18.6645 7.40817 18.7182 7.27104 18.7639 7.13061C18.8046 7.10583 18.8459 7.08105 18.8882 7.05737Z" fill="#DCC279"/>
<path d="M6.349 7.49793C6.37951 7.52767 6.37951 7.52767 6.349 7.49793Z" fill="#DCC279"/>
<path d="M18.7509 7.92418C18.7939 7.78541 18.8532 7.65213 18.9193 7.52217C18.9261 7.63616 18.9351 7.74961 18.9425 7.86416C18.8786 7.88453 18.8148 7.90436 18.7509 7.92418Z" fill="#DCC279"/>
<path d="M6.12469 7.6637C6.15577 7.69289 6.15577 7.69289 6.12469 7.6637Z" fill="#DCC279"/>
<path d="M13.8484 10.8589C13.9212 10.8149 13.9975 10.7769 14.0721 10.7361C14.123 10.8314 14.1761 10.9267 14.2286 11.0219C14.2919 11.1376 14.3478 11.2571 14.3987 11.3788C14.3156 11.4284 14.2331 11.4779 14.1489 11.5258C14.0376 11.3083 13.9246 11.0908 13.8484 10.8589Z" fill="#DCC279"/>
<path d="M18.0481 10.7185C18.1153 10.8072 18.1808 10.8975 18.2362 10.9939C18.217 11.0038 18.1786 11.0225 18.1594 11.0318C18.0356 10.9878 18.0565 10.8226 18.0481 10.7185Z" fill="#DCC279"/>
<path d="M12.4223 0.949977C12.7257 0.923543 13.024 0.853051 13.3286 0.845892C13.5156 0.886094 13.6551 1.03314 13.8184 1.124C13.7467 1.19174 13.6659 1.24901 13.5721 1.28426C13.6693 1.3151 13.7653 1.34869 13.8602 1.38724C13.7732 1.44341 13.6602 1.39716 13.5636 1.40101C13.1811 1.35365 12.802 1.46214 12.4195 1.42359C12.6681 1.32666 12.9427 1.29858 13.1766 1.16806C12.9726 1.11794 12.7652 1.08325 12.5624 1.02983C12.5155 1.00284 12.4692 0.976412 12.4223 0.949977ZM12.8895 0.99183L12.902 1.02818C13.1477 1.06067 13.3766 1.19504 13.6308 1.15264C13.5738 1.03919 13.4438 0.983019 13.3336 0.92905C13.185 0.94447 13.0387 0.979714 12.8895 0.99183Z" fill="#4D5258"/>
<path d="M14.0015 1.07774C14.2337 1.03589 14.4716 1.03534 14.7043 0.995137C14.8592 0.965949 15.0174 0.979715 15.1665 1.02873C14.8168 1.10418 14.471 1.19835 14.1196 1.26498C14.0224 1.29527 13.9337 1.24185 13.8495 1.20275C13.8862 1.14658 13.9438 1.11079 14.0015 1.07774Z" fill="#4D5258"/>
<path d="M15.7129 1.08876C15.8858 1.09647 16.0598 1.10252 16.2282 1.14273C17.3989 1.38614 18.5684 1.71877 19.6165 2.29426C19.3312 2.37742 19.099 2.16099 18.8521 2.06352C17.9995 1.70665 17.1169 1.40817 16.2056 1.23139C16.0395 1.19174 15.8558 1.19174 15.7129 1.08876Z" fill="#4D5258"/>
<path d="M14.6055 1.28261C14.7077 1.33933 14.8021 1.41478 14.9151 1.45167C15.0597 1.43681 15.1993 1.36081 15.3468 1.38944C16.2542 1.59431 17.1452 1.86471 18.0577 2.05195C18.5193 2.1676 18.9809 2.29481 19.4154 2.48977C19.7431 2.61147 20.0262 2.81744 20.3426 2.96283C20.1228 2.72272 19.8036 2.60266 19.5719 2.37962C19.5832 2.35815 19.6052 2.31519 19.6165 2.29426C19.9115 2.41322 20.1855 2.57843 20.4369 2.77008C20.7754 3.03001 21.0223 3.37861 21.2844 3.70684C21.4856 3.97448 21.7042 4.23827 21.8314 4.54888C21.9026 4.75209 21.9596 4.96136 21.9862 5.17448C22.0161 5.33804 21.9088 5.47682 21.8235 5.60569C21.8014 5.63653 21.7579 5.69876 21.7359 5.7296C21.6924 5.67949 21.6472 5.63157 21.6025 5.58366C21.5054 5.62662 21.4178 5.6927 21.3138 5.71693C21.1347 5.67563 21.0234 5.51923 20.9121 5.38926C20.6488 5.06159 20.3878 4.73061 20.081 4.43873C19.8629 4.16448 19.5945 3.93538 19.3589 3.67655C19.3538 3.67104 19.3436 3.66003 19.3386 3.65452C19.1521 3.49206 19.0662 3.23873 18.843 3.11537C18.569 2.95236 18.2871 2.79982 17.991 2.67756C17.4401 2.42588 16.8796 2.19293 16.2948 2.02662C15.6129 1.77439 14.8914 1.65764 14.1879 1.48472C14.2026 1.4324 14.2173 1.38008 14.232 1.32832C14.3071 1.36246 14.3823 1.40046 14.4653 1.41533L14.5072 1.41973L14.5377 1.37843C14.5546 1.3542 14.5885 1.30629 14.6055 1.28261ZM20.7375 4.23772C20.6471 4.22891 20.559 4.20964 20.4703 4.19477C20.4748 4.32914 20.5426 4.44809 20.6381 4.54172C20.8901 4.42607 21.1539 4.3363 21.4014 4.21019C21.3957 4.1463 21.3703 4.08738 21.3443 4.02955C21.1217 4.02845 20.9415 4.17439 20.7375 4.23772Z" fill="#4D5258"/>
<path d="M15.1835 3.06911C15.1699 2.99642 15.1281 2.98431 15.0586 3.03222C15.0722 3.10491 15.114 3.11703 15.1835 3.06911Z" fill="#4D5258"/>
<path d="M15.3349 3.08398C15.5038 2.99862 15.3439 3.26627 15.3349 3.08398Z" fill="#4D5258"/>
<path d="M15.6914 3.17926C15.6773 3.10656 15.636 3.09445 15.5666 3.14291C15.5801 3.21505 15.6214 3.22772 15.6914 3.17926Z" fill="#4D5258"/>
<path d="M15.8428 3.19413C16.0118 3.10932 15.8519 3.37641 15.8428 3.19413Z" fill="#4D5258"/>
<path d="M16.0688 3.2503C16.2378 3.16549 16.0773 3.43258 16.0688 3.2503Z" fill="#4D5258"/>
<path d="M6.97164 3.78779C6.94678 3.66168 7.02984 3.56365 7.12928 3.49536C7.20386 3.51849 7.27336 3.55374 7.33777 3.5967C7.3372 3.62919 7.33551 3.69472 7.33438 3.72721C7.23154 3.79881 7.09312 3.84892 6.97164 3.78779Z" fill="#4D5258"/>
<path d="M7.03888 3.90564C7.15979 3.87646 7.28183 3.85278 7.405 3.8368C7.41461 4.01854 7.43438 4.20138 7.42308 4.38366C7.31291 4.38752 7.17335 4.42001 7.10159 4.31207C7.05074 4.18265 7.0434 4.04277 7.03888 3.90564Z" fill="#4D5258"/>
<path d="M7.08351 4.61056C7.1225 4.47288 7.30839 4.49931 7.41969 4.4536L7.45755 4.47453C7.46207 4.49821 7.47054 4.54502 7.47506 4.56815C7.40557 4.60835 7.33664 4.6491 7.26827 4.69041C7.20612 4.66452 7.14453 4.63809 7.08351 4.61056Z" fill="#4D5258"/>
<path d="M7.25641 6.71758C7.29652 6.71868 7.37675 6.72033 7.41743 6.72143C7.2824 6.85636 7.0886 6.90041 6.91684 6.97421C6.7123 7.05571 6.50099 7.12125 6.30267 7.21762C6.31171 7.28756 6.32075 7.35805 6.32923 7.4291C6.2586 7.33988 6.18967 7.24956 6.123 7.1587C6.21679 7.10032 6.31171 7.04305 6.40437 6.98302C6.42697 6.9676 6.47274 6.93731 6.49534 6.92189C6.57501 6.90923 6.65637 6.90372 6.7349 6.88334C6.91062 6.83433 7.08238 6.77375 7.25641 6.71758Z" fill="#4D5258"/>
<path d="M23.6823 6.83433C23.7778 6.80844 23.8801 6.76329 23.9784 6.80569C23.9315 6.91033 23.8807 7.01386 23.8247 7.11464L23.7801 7.09977C23.7722 7.10142 23.7569 7.10528 23.7496 7.10748L23.723 7.15594C23.7015 7.14878 23.6592 7.13447 23.6377 7.12676C23.6236 7.05516 23.6134 6.98357 23.6066 6.91143L23.6117 6.86517C23.6292 6.85746 23.6648 6.84204 23.6823 6.83433Z" fill="#4D5258"/>
<path d="M20.4166 6.93401C20.4866 6.95824 20.5618 6.95108 20.6335 6.93566C20.6754 6.93401 20.7579 6.93015 20.7991 6.9285C20.7805 7.04195 20.7612 7.15539 20.7403 7.26884L20.7307 7.3195C20.5985 7.33988 20.4703 7.29527 20.3482 7.25287C20.3177 7.13942 20.3561 7.02983 20.4166 6.93401Z" fill="#4D5258"/>
<path d="M18.7329 7.14878L18.7639 7.13061C18.7182 7.27104 18.6645 7.40817 18.6114 7.54585C18.6103 7.44066 18.604 7.33603 18.599 7.23194C18.6323 7.21101 18.6995 7.16971 18.7329 7.14878Z" fill="#4D5258"/>
<path d="M18.6204 7.94676C18.734 7.68297 18.8481 7.41808 18.9227 7.14052C18.9233 7.18348 18.925 7.26829 18.9255 7.31069C18.9238 7.38118 18.9216 7.45168 18.9193 7.52217C18.8532 7.65213 18.7939 7.78541 18.7509 7.92418L18.7385 7.96329C18.6899 7.98587 18.6419 8.00789 18.5927 8.02937C18.5995 8.00844 18.6136 7.96769 18.6204 7.94676Z" fill="#4D5258"/>
<path d="M6.23826 7.59926C6.4055 7.5095 6.25182 7.781 6.23826 7.59926Z" fill="#4D5258"/>
<path d="M19.7188 7.80964C19.7787 7.76448 19.816 7.69894 19.8612 7.64112C19.8629 7.67031 19.8663 7.72868 19.868 7.75732C19.9584 7.76943 20.0505 7.7777 20.1403 7.79697C20.2126 7.84598 20.2454 7.933 20.2968 8.00129C20.381 7.99468 20.442 7.93905 20.4844 7.87187C20.4251 7.81239 20.3669 7.75291 20.3081 7.69399C20.381 7.70996 20.4539 7.72703 20.5268 7.7441C20.5296 7.87793 20.5358 8.01175 20.5612 8.14392C20.4544 8.16099 20.3618 8.21441 20.2855 8.28655C20.3121 8.30087 20.3652 8.32896 20.3917 8.34273C20.3251 8.37301 20.2533 8.4 20.216 8.46554C20.3821 8.45177 20.5448 8.48151 20.7042 8.52446C20.7855 8.45783 20.8573 8.38183 20.9234 8.30087C20.9008 8.2425 20.8782 8.18467 20.855 8.12685C21.0856 8.07233 21.2794 8.24305 21.5031 8.25737C21.5071 8.29977 21.5138 8.38513 21.5178 8.42754C21.4014 8.46994 21.2878 8.43414 21.1884 8.37136C21.1714 8.35209 21.137 8.31409 21.12 8.29481L21.0793 8.31684C21.0579 8.32896 21.0161 8.35374 20.9946 8.36586C21.1093 8.50574 21.2923 8.54704 21.4573 8.60321C21.3861 8.66599 21.3155 8.72988 21.246 8.79431C21.3155 8.8246 21.385 8.85489 21.4551 8.88573C21.2568 9.01459 20.9449 9.09555 20.9539 9.37972C20.8347 9.2927 20.6968 9.23433 20.5494 9.2134C20.3567 9.18586 20.1911 9.08013 20.0087 9.02341C19.7657 9.06581 19.6182 9.3709 19.3465 9.29876C19.3346 9.27178 19.3103 9.21726 19.2984 9.18972C19.3154 9.14952 19.3323 9.10987 19.3498 9.07021C19.3391 9.05259 19.3182 9.0168 19.308 8.99862C19.516 8.94025 19.7476 8.81634 19.7985 8.59495C19.8352 8.51014 19.8996 8.4402 19.9505 8.3642C19.8442 8.30197 19.7301 8.34218 19.6227 8.37577C19.564 8.32015 19.5058 8.26508 19.4476 8.21056C19.3312 8.2458 19.2097 8.25131 19.0911 8.22432C18.9837 8.29977 18.8747 8.44296 18.73 8.35539C18.7408 8.29536 18.8312 8.21551 18.7475 8.17531C18.5498 8.15383 18.3843 8.36255 18.5272 8.52446C18.3475 8.52721 18.1673 8.52997 17.9876 8.52171C18.0029 8.50739 18.0328 8.4782 18.0475 8.46388C18.0995 8.44185 18.152 8.42093 18.2057 8.4022C18.1995 8.29096 18.1424 8.19238 18.1029 8.0905C18.4667 8.13896 18.8312 8.17806 19.1979 8.13235C19.2922 8.02552 19.377 7.91097 19.4787 7.81074C19.5589 7.81184 19.6386 7.81404 19.7188 7.80964ZM20.985 8.15493C21.0138 8.18302 21.0138 8.18302 20.985 8.15493Z" fill="#4D5258"/>
<path d="M7.80164 8.69353C7.81746 8.31905 8.22822 8.0481 8.59265 8.09821L8.61977 8.14557C8.51355 8.25131 8.31354 8.19459 8.17285 8.25957C8.19149 8.39174 8.19997 8.52832 8.24969 8.65388C8.31184 8.75631 8.40563 8.83506 8.47343 8.93364C8.4949 9.02286 8.50507 9.11372 8.52089 9.20404C8.59265 9.22387 8.66441 9.24644 8.73503 9.27233C8.79888 9.40946 8.87459 9.65177 9.07517 9.60606C9.15709 9.53281 9.20455 9.41276 9.32547 9.39293C9.24524 9.70298 8.87911 9.99596 8.55197 9.85828C8.60339 9.50913 8.47174 9.15007 8.20618 8.91216C8.08471 8.81744 7.9395 8.75962 7.80164 8.69353Z" fill="#4D5258"/>
<path d="M11.5053 9.05755C11.6194 8.89399 11.7776 8.71556 11.994 8.70124C12.011 8.82185 11.8059 8.84112 11.8262 8.97109C11.7708 9.20514 11.9025 9.41661 12.1053 9.53281C12.1093 9.64406 12.0465 9.752 12.0782 9.86269C12.1737 9.87921 12.2686 9.89684 12.3641 9.91501C12.4534 10.0417 12.5132 10.2168 12.672 10.2757C12.7844 10.2482 12.8884 10.1942 13.002 10.1672C12.837 10.5445 12.3307 10.6282 11.9816 10.458L11.9923 10.4151C12.007 10.3567 12.0211 10.2983 12.0352 10.2405C11.8641 10.0692 11.7697 9.84396 11.6064 9.66829C11.5567 9.71179 11.5064 9.7542 11.455 9.7955L11.4103 9.80762C11.4024 9.5576 11.3471 9.27673 11.5053 9.05755Z" fill="#4D5258"/>
<path d="M18.6639 9.36044C18.7515 9.34172 18.8391 9.32464 18.9272 9.30702C18.9498 9.37641 18.9679 9.44745 18.9854 9.51905C18.8854 9.58017 18.7848 9.64075 18.6837 9.70023C18.7046 9.78944 18.7261 9.87866 18.7475 9.96788C18.6345 9.87756 18.5255 9.78173 18.404 9.70188C18.3718 9.65287 18.3413 9.6033 18.3125 9.55319C18.3916 9.43368 18.5232 9.37861 18.6639 9.36044Z" fill="#4D5258"/>
<path d="M15.8965 9.62589C15.9609 9.6347 16.0253 9.64351 16.0903 9.65287C16.031 9.78284 16.014 9.93483 16.1632 10.0158C16.2632 10.0334 16.3643 10.0483 16.4655 10.0604C16.4677 10.1078 16.4683 10.1551 16.4689 10.203C16.3497 10.1727 16.2282 10.1546 16.1061 10.1436C15.9236 10.1292 15.7818 10.0037 15.6389 9.90675C15.6677 9.83791 15.6971 9.77017 15.727 9.70243C15.8265 9.76577 15.9423 9.81753 16.0525 9.74043C16.0016 9.70078 15.9491 9.66333 15.8965 9.62589Z" fill="#4D5258"/>
<path d="M18.8933 10.013C18.9826 10.1342 19.0397 10.2746 19.0493 10.4244C19.0255 10.4426 18.9786 10.4789 18.9555 10.4977C18.9278 10.6981 18.9385 10.9145 18.8137 11.088C18.7351 10.9559 18.7227 10.8022 18.6764 10.6596C18.6103 10.5582 18.5221 10.4745 18.4441 10.3831C18.46 10.3258 18.4763 10.2686 18.4933 10.2118C18.6108 10.2922 18.7379 10.3605 18.8735 10.409C18.8809 10.2768 18.886 10.1447 18.8933 10.013Z" fill="#4D5258"/>
<path d="M21.7489 11.3309C21.893 10.9349 21.7398 10.4966 21.9127 10.1127C21.9404 10.3534 21.9195 10.5951 21.8794 10.8336C21.8732 10.9366 21.85 11.0456 21.8896 11.1453C21.9461 11.1866 22.0071 11.2224 22.067 11.2598C22.0788 11.2912 22.102 11.354 22.1139 11.3849C21.8449 11.4262 21.4573 11.4917 21.289 11.2285C21.3618 11.2103 21.4353 11.1927 21.5093 11.1761C21.5472 11.2797 21.6325 11.3458 21.7489 11.3309Z" fill="#4D5258"/>
<path d="M18.0255 10.6397C18.1226 10.5797 18.2509 10.4883 18.3611 10.577C18.5504 10.6452 18.5605 10.871 18.5029 11.0296C18.4029 11.11 18.2543 11.0654 18.1351 11.0676L18.1594 11.0318C18.1786 11.0225 18.217 11.0038 18.2362 10.9939C18.1808 10.8975 18.1153 10.8072 18.0481 10.7185C18.0424 10.6987 18.0311 10.6596 18.0255 10.6397Z" fill="#4D5258"/>
<path d="M14.4653 1.41533C14.3834 1.31124 14.5665 1.22478 14.5377 1.37843L14.5072 1.41973L14.4653 1.41533Z" fill="#B6A161"/>
<path d="M15.6479 2.73703C15.7643 2.62249 15.9253 2.57292 16.0745 2.51235C16.3542 2.59385 16.6378 2.65938 16.922 2.72492C16.9734 2.84552 17.0356 2.97274 16.9904 3.10601C16.7943 3.12694 16.6118 3.03772 16.4276 2.98871C16.1683 2.90225 15.8971 2.84883 15.6479 2.73703Z" fill="#B6A161"/>
<path d="M10.7448 3.095C10.8352 2.99312 10.9781 2.91051 11.1194 2.94961C11.1968 2.99422 11.2872 3.05149 11.3109 3.14126C11.3086 3.25691 11.2375 3.35714 11.1843 3.45681C11.0437 3.48821 10.9007 3.45516 10.7753 3.39073C10.7527 3.29381 10.7453 3.19413 10.7448 3.095ZM10.8674 3.33841C10.951 3.34006 11.0352 3.33841 11.1194 3.33346C11.1442 3.26957 11.1668 3.20404 11.1826 3.1374C11.0985 3.1754 11.0589 3.27067 10.9719 3.30096C10.9634 3.22662 10.9555 3.15227 10.947 3.07848C10.8623 3.14181 10.8634 3.24314 10.8674 3.33841Z" fill="#B6A161"/>
<path d="M14.0874 3.30812C14.2484 3.18421 14.3224 2.98155 14.51 2.88628C14.5569 2.89619 14.6507 2.91547 14.6976 2.92538C14.6156 2.96944 14.523 2.98541 14.4337 3.00523C14.4066 3.21891 14.484 3.42543 14.5371 3.62974C14.5885 3.84562 14.745 4.01358 14.84 4.21074C15.0072 4.56375 15.3117 4.83304 15.4846 5.1833C15.5875 5.40028 15.7909 5.54236 15.9892 5.67067C16.0067 5.68554 16.0423 5.71528 16.0604 5.73015C16.0491 5.83534 16.0225 5.93777 15.9988 6.0413C15.9118 6.40422 15.9784 6.78146 15.931 7.15044C15.5327 7.17467 15.1383 7.09812 14.7462 7.04415C14.497 7.02543 14.3716 6.78972 14.1913 6.6548C13.38 5.94658 12.2929 5.68004 11.2612 5.43772C10.764 5.30941 10.2515 5.25103 9.75487 5.12382C9.59837 5.09738 9.43734 5.08857 9.28761 5.03075C9.28083 4.83635 9.30682 4.64305 9.33112 4.45085C9.34637 4.37595 9.36106 4.30106 9.37914 4.22671L9.39779 4.18651C9.45203 4.06645 9.51418 3.94364 9.50683 3.80872C9.46333 3.79991 9.37688 3.78173 9.33338 3.77237C9.41022 3.74594 9.51023 3.75695 9.56729 3.69362C9.62492 3.59009 9.64639 3.47279 9.67747 3.36044C9.78312 3.32519 9.86223 3.42873 9.9628 3.44029C11.1764 3.55704 12.3895 3.68536 13.6054 3.77458C13.8337 3.70078 13.9156 3.45186 14.0874 3.30812Z" fill="#B6A161"/>
<path d="M11.4183 3.15558C11.6601 3.20128 11.9143 3.15778 12.146 3.2503C12.5019 3.24865 12.8545 3.30372 13.2105 3.31253C13.2274 3.32354 13.2624 3.34557 13.28 3.35714C13.2461 3.44745 13.2054 3.53557 13.1585 3.62038C12.9511 3.6402 12.7364 3.64846 12.5375 3.57907C12.385 3.52235 12.2206 3.5989 12.0663 3.54989C11.8189 3.4816 11.5471 3.56696 11.3126 3.4436C11.264 3.34392 11.3623 3.23653 11.4183 3.15558Z" fill="#B6A161"/>
<path d="M4.90314 3.53391C5.18056 3.57026 5.46194 3.51409 5.7371 3.47939C5.90264 3.95466 5.77382 4.47894 5.94615 4.9564C6.07441 5.30005 6.07893 5.66902 6.05972 6.02974C6.21792 5.95319 6.38403 5.89096 6.56088 5.87223C6.54619 5.94328 6.52754 6.01432 6.50833 6.08536C6.14955 6.18229 5.77778 6.13713 5.42465 6.0413C5.32182 6.01872 5.21559 6.01487 5.11107 6.02258C5.02519 5.98403 4.93479 5.95099 4.8619 5.89096C4.7828 5.70812 4.75116 5.50877 4.66358 5.32868C4.63364 5.25379 4.60652 5.17779 4.58222 5.10179C4.57544 5.07315 4.56131 5.01643 4.55453 4.98834C4.5308 4.86278 4.51272 4.73667 4.48956 4.6111C4.56357 4.53951 4.58956 4.43928 4.59126 4.34071C4.66415 4.18265 4.72404 4.01964 4.76302 3.85057C4.79862 3.74043 4.84382 3.63359 4.90314 3.53391ZM5.31956 5.67177C5.38058 5.74887 5.50714 5.69931 5.59472 5.72189C5.532 5.85296 5.36702 5.79403 5.25571 5.78192C5.25797 5.8078 5.26362 5.85957 5.26588 5.8849C5.42804 5.93391 5.60037 5.93281 5.76704 5.91189C5.72693 5.83754 5.7032 5.74667 5.63088 5.69545C5.52861 5.67398 5.42352 5.67288 5.31956 5.67177Z" fill="#B6A161"/>
<path d="M19.1414 4.78128C19.3634 4.7185 19.5431 4.5698 19.7278 4.44149C19.8776 4.52464 19.9928 4.65186 20.0872 4.79064C20.0171 4.88756 19.8855 4.85287 19.7832 4.86168C19.5199 4.85342 19.2561 4.87159 18.9939 4.85397C18.8911 4.86168 18.856 4.7587 18.8114 4.69096C18.9148 4.73391 19.0221 4.82478 19.1414 4.78128Z" fill="#B6A161"/>
<path d="M6.51568 4.58192C6.59986 4.57916 6.68518 4.57971 6.76993 4.58412C6.7705 4.61441 6.77276 4.67554 6.77332 4.70583C6.69761 4.70528 6.62133 4.69867 6.54732 4.6827C6.53941 4.65737 6.52359 4.60725 6.51568 4.58192Z" fill="#B6A161"/>
<path d="M9.79781 5.3821C9.90121 5.41845 10.0046 5.4581 10.1148 5.47022C10.7883 5.53355 11.4352 5.73621 12.085 5.90858C12.2771 5.9576 12.4488 6.05617 12.6319 6.12721C13.0833 6.29077 13.5483 6.44993 13.9342 6.73905C14.1241 6.88059 14.306 7.03148 14.48 7.19119C14.4128 7.24846 14.3456 7.30519 14.2789 7.36191C14.045 7.33713 13.8421 7.20991 13.6173 7.15319C12.9155 6.98302 12.194 6.91528 11.481 6.80679C11.0504 6.74236 10.6182 6.69555 10.1877 6.63387C9.9628 6.60193 9.72267 6.65314 9.51305 6.54575C9.43903 6.45984 9.35485 6.3833 9.26219 6.31776C9.24072 6.08481 9.28422 5.85131 9.33677 5.62496C9.37519 5.41074 9.67634 5.5352 9.79781 5.3821ZM12.3387 6.33648C12.3692 6.38935 12.4008 6.44277 12.4313 6.49674L12.4065 6.53915C12.4036 6.58541 12.4065 6.63166 12.4144 6.67792C12.6698 6.7341 12.9681 6.61514 13.1783 6.8101C13.1517 6.69114 13.1302 6.54906 13.0121 6.48132C12.8104 6.36347 12.5703 6.33153 12.3387 6.33648Z" fill="#B6A161"/>
<path d="M18.6216 6.89105C18.6843 6.88885 18.7475 6.8883 18.8108 6.88885C18.817 6.96154 18.7509 6.99624 18.7074 7.0436C18.7526 7.0469 18.843 7.05406 18.8882 7.05737C18.8459 7.08105 18.8046 7.10583 18.7639 7.13061L18.7329 7.14878C18.6735 7.14713 18.6142 7.14493 18.5554 7.14713C18.5758 7.06122 18.5978 6.97586 18.6216 6.89105Z" fill="#B6A161"/>
<path d="M20.6335 6.93566C20.6256 6.83047 20.416 6.82276 20.4166 6.93401C20.4866 6.95824 20.5618 6.95108 20.6335 6.93566Z" fill="#B6A161"/>
<path d="M20.7991 6.9285C20.8522 6.95493 20.9053 6.98192 20.959 7.0089C20.9601 7.04084 20.9624 7.10583 20.9635 7.13832C20.8923 7.18678 20.8172 7.23029 20.7403 7.26884C20.7612 7.15539 20.7805 7.04195 20.7991 6.9285Z" fill="#B6A161"/>
<path d="M23.119 7.76007C23.1761 7.66535 23.2529 7.58495 23.3365 7.5128C23.3947 7.55796 23.4563 7.60147 23.5134 7.64993C23.4349 7.70665 23.3535 7.75897 23.2699 7.80688C23.219 7.79091 23.1693 7.77549 23.119 7.76007Z" fill="#B6A161"/>
<path d="M23.4236 7.89004C23.4671 7.83883 23.5134 7.79036 23.5597 7.74245C23.7953 8.08554 24.2247 8.22873 24.4993 8.53933C24.4366 8.57347 24.3762 8.61147 24.3157 8.64892C24.1829 8.40936 23.9242 8.29647 23.7038 8.15053L23.6665 8.11693C23.5959 8.05305 23.5145 8.00239 23.4366 7.94952C23.4332 7.93465 23.427 7.90491 23.4236 7.89004Z" fill="#B6A161"/>
<path d="M24.8796 8.45893C25.0056 8.58945 25.1186 8.73098 25.2344 8.87031C25.2135 8.92097 25.1926 8.97164 25.1728 9.0223C25.2079 9.06746 25.2435 9.11317 25.2796 9.15943C25.192 9.22387 25.0824 9.22111 24.979 9.21065L24.9406 9.20789C24.7875 9.10876 24.6332 9.01074 24.4931 8.89399C24.5468 8.69683 24.7203 8.57292 24.8796 8.45893Z" fill="#B6A161"/>
<path d="M7.80164 8.69353C7.9395 8.75962 8.08471 8.81744 8.20618 8.91216C8.47174 9.15007 8.60339 9.50913 8.55197 9.85828C8.32371 9.7922 8.09488 9.6771 7.97171 9.46948C7.81237 9.24204 7.78469 8.96118 7.80164 8.69353Z" fill="#B6A161"/>
<path d="M16.6367 8.7062C16.7192 8.71556 16.8 8.73593 16.874 8.77338C16.8853 8.86645 16.8938 8.95952 16.8977 9.05369C16.8113 9.03717 16.7254 9.0179 16.6406 8.99697C16.631 8.90005 16.6305 8.80257 16.6367 8.7062Z" fill="#B6A161"/>
<path d="M11.455 9.7955C11.5064 9.7542 11.5567 9.71179 11.6064 9.66829C11.7697 9.84396 11.8641 10.0692 12.0352 10.2405C12.0211 10.2983 12.007 10.3567 11.9923 10.4151C11.7183 10.3313 11.5352 10.0549 11.455 9.7955Z" fill="#B6A161"/>
<path d="M12.9918 11.3122C13.3184 11.2444 13.619 11.099 13.8484 10.8589C13.9246 11.0908 14.0376 11.3083 14.1489 11.5258C13.767 11.4355 13.3811 11.3617 12.9918 11.3122Z" fill="#B6A161"/>
<path d="M5.06813 6.67407C5.14497 6.69225 5.22068 6.71538 5.29639 6.73961C5.41278 6.78421 5.53708 6.79743 5.66139 6.79633C5.92186 6.79413 6.16198 6.90482 6.40437 6.98302C6.31171 7.04305 6.21679 7.10032 6.123 7.1587C6.18967 7.24956 6.2586 7.33988 6.32923 7.4291C6.32075 7.35805 6.31171 7.28756 6.30267 7.21762C6.50099 7.12125 6.7123 7.05571 6.91684 6.97421C7.01628 7.20165 6.78745 7.3889 6.73547 7.59982C6.61738 8.02772 6.61851 8.4782 6.68462 8.91492C6.80496 8.87031 6.92644 8.8279 7.053 8.80422C7.12645 9.37366 7.39483 9.93098 7.85136 10.3033C8.23895 10.6612 8.826 10.7736 9.33168 10.6249C9.64413 10.501 9.95206 10.3616 10.2419 10.1915C10.4159 10.0951 10.521 9.92437 10.6679 9.79771C10.7877 10.0945 10.9205 10.3853 11.0934 10.6568C11.0205 10.7416 10.9493 10.8303 10.9109 10.936C11.077 10.9746 11.2465 10.9977 11.416 11.0159C11.6606 11.0941 11.8573 11.2731 12.1138 11.3221C12.3991 11.4207 12.7053 11.3876 12.9918 11.3122C13.3811 11.3617 13.767 11.4355 14.1489 11.5258C14.0862 11.5556 14.0286 11.6018 13.9574 11.609C13.5811 11.6151 13.2167 11.4151 12.8398 11.5066C12.5183 11.5848 12.1889 11.5093 11.872 11.4476C11.3522 11.3469 10.8521 11.1695 10.3549 10.9955C10.117 10.9157 9.90969 10.7664 9.66786 10.6992C9.38592 10.7477 9.12489 10.9079 8.82995 10.881C8.45027 10.8479 8.07736 10.7565 7.71067 10.6574C7.17843 10.4905 6.63942 10.3132 6.16933 10.0108C6.08345 9.94915 5.9761 9.94199 5.87383 9.93483C5.66534 9.92988 5.50205 9.77898 5.35911 9.64846C5.25345 9.55429 5.23198 9.40285 5.27662 9.27508C5.56025 9.16163 5.8614 9.08288 6.12187 8.92152C5.75913 8.74199 5.37888 9.03772 4.99976 8.96723C4.90879 8.88022 4.8263 8.75851 4.68562 8.75411C4.47148 8.7475 4.26977 8.88297 4.05337 8.8279C3.70646 8.75356 3.33638 8.74199 3.02167 8.56631C2.75216 8.40826 2.42671 8.51345 2.13573 8.4358C1.68881 8.30363 1.21703 8.23424 0.749767 8.27058C0.568399 8.30087 0.440142 8.13401 0.267249 8.11418C0.179673 8.08334 0.065541 8.09876 0 8.02607C0.0774062 7.96384 0.171763 7.93024 0.265554 7.90161C0.754852 7.75622 1.23567 7.58385 1.73119 7.46159C2.16229 7.35034 2.60469 7.59596 3.03353 7.46434C3.28609 7.38339 3.57198 7.33603 3.7494 7.1229C4.09066 7.2033 4.41385 7.0425 4.75398 7.0425C4.95965 7.03974 5.13819 6.93125 5.30939 6.83268C5.23028 6.77761 5.15118 6.72309 5.06813 6.67407ZM6.349 7.49793C6.37951 7.52767 6.37951 7.52767 6.349 7.49793ZM6.23826 7.59926C6.4055 7.5095 6.25182 7.781 6.23826 7.59926ZM6.12469 7.6637C6.15577 7.69289 6.15577 7.69289 6.12469 7.6637Z" fill="black" fill-opacity="0.24"/>
<path d="M23.9784 6.80569L24.0157 6.83488C24.0038 6.94392 23.9688 7.04966 23.9134 7.14548C23.8914 7.13777 23.8468 7.12235 23.8247 7.11464C23.8807 7.01386 23.9315 6.91033 23.9784 6.80569Z" fill="black"/>
<path d="M10.5781 7.38889C10.7657 7.39716 10.4905 7.55301 10.5781 7.38889Z" fill="black"/>
<path d="M10.6442 7.87407C10.8126 7.78871 10.6538 8.05691 10.6442 7.87407Z" fill="black"/>
<path d="M10.8742 8.45617C10.9764 8.44185 10.9267 8.21221 10.8216 8.26618C10.7747 8.32455 10.812 8.42148 10.8742 8.45617Z" fill="black"/>
<path d="M14.6405 9.30702C14.8044 9.39624 14.9699 9.4827 15.1332 9.57357C15.0727 9.66278 15.0185 9.7564 14.9795 9.85663C15.0654 9.86544 15.1518 9.86875 15.2383 9.8682C15.236 9.89243 15.2315 9.94089 15.2287 9.96567C15.3586 9.91225 15.4988 9.8335 15.6389 9.90675C15.7818 10.0037 15.9236 10.1292 16.1061 10.1436C16.2282 10.1546 16.3497 10.1727 16.4689 10.203C16.4632 10.2207 16.4525 10.2553 16.4474 10.273C16.3672 10.2581 16.2869 10.2421 16.2073 10.2278C16.3406 10.3671 16.5367 10.4178 16.7214 10.4558C16.8361 10.4079 16.9384 10.3346 17.0565 10.2933C17.1 10.3528 17.1915 10.4007 17.174 10.4861C17.1486 10.594 17.0994 10.6959 17.0825 10.8066C17.3107 10.8374 17.5463 10.8165 17.7701 10.8749C17.9063 10.9812 17.9582 11.1734 18.1289 11.2444C18.3554 11.3347 18.6741 11.3094 18.8137 11.088C18.9385 10.9145 18.9278 10.6981 18.9555 10.4977C18.9786 10.4789 19.0255 10.4426 19.0493 10.4244C19.0719 10.5098 19.0431 10.6486 19.1611 10.6728C19.3165 10.7223 19.5143 10.7818 19.6533 10.6623C19.9126 10.4745 20.1895 10.3115 20.4499 10.1259C20.5369 10.2019 20.6392 10.2708 20.6821 10.382C20.5906 10.3947 20.4991 10.4057 20.4081 10.4173C20.6601 10.529 20.9172 10.6497 21.1974 10.6706C21.3291 10.6821 21.4602 10.6976 21.5901 10.7223C21.5737 10.8749 21.5426 11.0258 21.5093 11.1761C21.4353 11.1927 21.3618 11.2103 21.289 11.2285C20.9098 11.1056 20.5172 11.0131 20.1211 10.9586C20.3409 11.1514 20.6335 11.2263 20.8895 11.3601C21.107 11.4713 21.3709 11.4438 21.5822 11.5693C21.5771 11.6007 21.5669 11.663 21.5619 11.6944C21.3082 11.7417 20.9872 11.7687 20.8002 11.5583C20.6149 11.37 20.3544 11.2879 20.1194 11.1767C19.8973 11.088 19.6877 10.9724 19.4657 10.8848C19.3917 10.8496 19.3188 10.8997 19.2549 10.9316C18.882 11.1475 18.5396 11.4091 18.1859 11.6525C17.9085 11.8419 17.5836 11.5776 17.2859 11.6464C17.4051 11.7544 17.5192 11.8684 17.6108 12H16.9864C16.7565 11.9113 16.522 11.8265 16.3174 11.6883C16.1734 11.5815 15.9654 11.6233 15.8332 11.4983C15.6372 11.305 15.34 11.3375 15.088 11.2874C14.7851 11.256 14.5026 11.1442 14.2286 11.0219C14.1761 10.9267 14.123 10.8314 14.0721 10.7361C14.4998 10.393 14.7038 9.83846 14.6405 9.30702Z" fill="black" fill-opacity="0.32"/>
<path d="M21.8794 10.8336C22.4455 11.0627 23.0139 11.3138 23.627 11.3942C23.6998 11.3992 23.749 11.4531 23.7976 11.5011C23.5739 11.4939 23.3529 11.4229 23.1281 11.4587C22.7885 11.5088 22.4489 11.43 22.1139 11.3849C22.102 11.354 22.0788 11.2912 22.067 11.2598C22.0071 11.2224 21.9461 11.1866 21.8896 11.1453C21.85 11.0456 21.8732 10.9366 21.8794 10.8336Z" fill="black" fill-opacity="0.28"/>
</svg>
