<svg width="25" height="7" viewBox="0 0 25 7" fill="none" xmlns="http://www.w3.org/2000/svg">
<path d="M15.2707 0.123906C15.6167 0.0691104 15.9733 0.0518336 16.3219 0C16.3305 0.0212271 16.347 0.0631872 16.355 0.0844143C16.2472 0.104654 16.0961 0.0547956 16.0166 0.132793C16.1826 0.132793 16.3486 0.120451 16.5152 0.121932C16.8137 0.170804 17.1388 0.10416 17.4138 0.2488C17.4047 0.316431 17.3935 0.384061 17.3716 0.449717C17.3129 0.464527 17.2547 0.479831 17.1959 0.495134C17.1735 0.429478 17.1511 0.363822 17.1292 0.299154C16.8441 0.292736 16.5643 0.231522 16.2792 0.23794C16.1933 0.223624 16.1078 0.208321 16.0219 0.197954C15.8644 0.193017 15.7064 0.19746 15.5499 0.182651C15.457 0.161917 15.3641 0.141184 15.2707 0.123906Z" fill="#AE4240"/>
<path d="M14.1895 0.27842C14.5238 0.178208 14.8804 0.159943 15.229 0.141184C15.1554 0.183145 15.0779 0.224119 14.9899 0.231524C14.7245 0.260649 14.457 0.330253 14.1895 0.27842Z" fill="#AE4240"/>
<path d="M17.5264 0.454654C18.1175 0.444781 18.6887 0.276445 19.275 0.233497C19.2824 0.342101 19.2814 0.451691 19.268 0.560295C18.8905 0.650634 18.5467 0.828349 18.1927 0.974471C18.1639 0.948307 18.1345 0.923131 18.1041 0.898942C18.0833 0.907334 18.0406 0.924118 18.0198 0.93251C17.9359 0.90684 17.8516 0.879195 17.7784 0.833779C17.6658 0.768617 17.7491 0.631382 17.7416 0.534626C17.717 0.539069 17.6684 0.547461 17.6439 0.551904C17.6065 0.706417 17.6167 0.865868 17.6054 1.02285C17.5723 0.981876 17.4923 0.95275 17.5099 0.891537C17.5451 0.747391 17.5569 0.600282 17.5264 0.454654Z" fill="#AE4240"/>
<path d="M16.8062 0.464034C16.8836 0.535613 16.969 0.600775 17.0651 0.650634C17.1201 0.790338 17.1773 0.930042 17.2515 1.06283C17.0128 0.956206 16.7555 0.811071 16.6327 0.585472C16.6978 0.554372 16.7565 0.513893 16.8062 0.464034Z" fill="#AE4240"/>
<path d="M18.7629 1.08752C18.8815 1.02927 18.8916 1.24746 18.7854 1.2603C18.7042 1.24598 18.716 1.12997 18.7629 1.08752Z" fill="#AE4240"/>
<path d="M15.5456 1.67941L15.5761 1.67842L15.5686 1.69767C15.5627 1.69323 15.5515 1.68434 15.5456 1.67941Z" fill="#AE4240"/>
<path d="M5.40363 1.73272C5.43887 1.72532 5.50988 1.71051 5.54511 1.7031C7.559 1.90945 9.57555 2.09655 11.59 2.30141C12.0064 2.35176 12.4277 2.36509 12.8414 2.43569C13.0977 2.48406 13.3625 2.47123 13.6193 2.51961C13.6113 2.59859 13.6492 2.70818 13.5547 2.75508C13.3225 2.78124 13.0945 2.71065 12.8639 2.6988C12.6396 2.67066 12.4154 2.64006 12.189 2.63413C10.4586 2.46481 8.72931 2.28561 6.99893 2.11185C6.2835 2.03583 5.56433 1.97906 4.85104 1.88773C4.88094 1.87884 4.94074 1.86107 4.97063 1.85268C5.11372 1.80875 5.25627 1.76382 5.40363 1.73272Z" fill="#AE4240"/>
<path d="M3.94074 2.14097C4.02723 2.10296 4.11105 2.06051 4.18954 2.01114C4.25788 2.01164 4.32621 2.01114 4.39509 2.01016C4.49493 2.01065 4.5953 2.01164 4.69514 2.02299C4.80192 2.05607 4.91458 2.06248 5.02616 2.06495C5.05019 2.06495 5.0977 2.06495 5.12173 2.06495C5.8158 2.17207 6.52056 2.21403 7.21837 2.29746C8.13615 2.3799 9.04965 2.50727 9.96903 2.56404C10.1671 2.61735 10.3743 2.62426 10.5777 2.64845C11.2872 2.71657 11.9947 2.79951 12.7032 2.87356C12.8153 2.88442 12.9338 2.917 13.0422 2.87109C13.1554 2.82666 13.2771 2.80296 13.3967 2.84097C13.3502 2.94958 13.2995 3.0567 13.2451 3.16234C13.1052 3.13667 12.9642 3.11693 12.8243 3.09126C12.4004 3.01918 11.9685 3.00141 11.5419 2.95056C9.00908 2.6756 6.47197 2.42433 3.94074 2.14097Z" fill="#AE4240"/>
<path d="M16.9909 2.10346C17.0235 2.10938 17.0886 2.12123 17.1212 2.12764C17.1458 2.22934 17.1377 2.35769 17.2504 2.41742C17.2237 2.41791 17.1698 2.4189 17.1426 2.4189C17.1159 2.528 17.1207 2.64055 17.1356 2.75113C17.2056 2.75063 17.2755 2.75212 17.346 2.75508C17.4533 2.77631 17.5601 2.8 17.669 2.81678C17.6546 2.9244 17.6716 3.0957 17.8361 3.06707C17.9717 3.09125 18.0027 2.95106 18.0059 2.85776C18.1463 2.85529 18.2862 2.8543 18.4266 2.8543C18.4357 3.00042 18.3775 3.13618 18.3139 3.2665C18.1783 3.27391 18.0641 3.20825 17.9407 3.17221C17.7891 3.17567 17.6391 3.20134 17.488 3.20825C17.4885 3.18258 17.4896 3.13025 17.4901 3.10409C17.3593 3.13322 17.2264 3.15346 17.0934 3.17271C17.4586 3.23441 17.8286 3.28773 18.2002 3.30303C18.2429 3.34203 18.2862 3.38152 18.3321 3.41855L18.3588 3.43829C18.4346 3.46643 18.519 3.48519 18.5809 3.53851C18.3903 3.6323 18.1895 3.77743 17.9605 3.72807C17.6722 3.69104 17.3833 3.65896 17.0929 3.63872L17.087 3.68463C17.1271 3.68759 17.2072 3.69302 17.2477 3.69549C17.2077 3.73054 17.1676 3.76608 17.1276 3.80113C17.1175 3.89443 17.1223 3.98872 17.1388 4.08152C17.3065 4.13928 17.4805 4.1768 17.6546 4.21284C17.661 4.50261 17.6845 4.79732 17.6161 5.08265C17.3892 5.05205 17.2381 5.23618 17.0513 5.31911C17.0577 4.3481 17.0491 3.37708 17.055 2.40656C17.0577 2.3019 17.0262 2.2012 16.9909 2.10346ZM17.1564 4.2469C17.0908 4.46954 17.142 4.70106 17.1393 4.92814C17.2584 4.8768 17.3807 4.82842 17.5125 4.81559C17.5376 4.66008 17.5307 4.50212 17.5067 4.34711C17.394 4.30219 17.2771 4.26714 17.1564 4.2469Z" fill="#AE4240"/>
<path d="M3.05446 2.65684C3.08329 2.58477 3.09183 2.49788 3.16017 2.44654C3.16711 2.54774 3.2141 2.69584 3.07688 2.74175C3.01014 2.78568 2.9386 2.74422 2.8724 2.72546C2.93326 2.70275 2.99413 2.68004 3.05446 2.65684Z" fill="#AE4240"/>
<path d="M15.6652 3.05176C15.677 2.84986 15.6353 2.644 15.6839 2.44556C15.6919 2.4811 15.708 2.55317 15.716 2.58921C15.7875 2.60945 15.8585 2.63018 15.9311 2.64845C15.8489 2.65141 15.7672 2.65536 15.6855 2.66079C15.7432 2.74372 15.8745 2.74224 15.9706 2.76347C16.1634 2.76347 16.3529 2.79556 16.5435 2.81827C16.4997 2.85677 16.4533 2.89478 16.4314 2.94859C16.5787 2.9091 16.7085 2.8232 16.8633 2.80889C16.8735 2.90614 16.8777 3.00437 16.8767 3.1031C16.7875 3.10656 16.6983 3.11396 16.6097 3.10409C16.4944 3.10705 16.4736 2.9397 16.3572 2.9555C16.3091 3.07793 16.1612 3.03103 16.0609 3.00783C15.9397 2.97278 15.8126 2.98166 15.6893 2.99795C15.7176 3.08434 15.8409 3.08533 15.9204 3.10656C16.2162 3.12581 16.5125 3.14111 16.8083 3.15197C16.9338 3.26305 16.8574 3.45113 16.8751 3.59528C16.6941 3.61848 16.5152 3.58738 16.3385 3.55529C16.1212 3.55331 15.9098 3.50592 15.6935 3.49408C15.7208 3.54492 15.7768 3.56467 15.8607 3.55233C15.8254 3.64118 15.6845 3.578 15.6076 3.57948C15.6017 3.40127 15.6716 3.22997 15.6652 3.05176Z" fill="#AE4240"/>
<path d="M14.5926 2.56601C14.6199 2.59118 14.6199 2.59118 14.5926 2.56601Z" fill="#AE4240"/>
<path d="M14.5825 2.89824C14.5841 2.75952 14.7026 2.66869 14.8019 2.58131C14.8697 2.67708 14.874 2.78963 14.8558 2.89972C14.7645 2.89972 14.6733 2.89972 14.5825 2.89824Z" fill="#AE4240"/>
<path d="M14.2547 2.69535C14.3273 2.67659 14.4004 2.66079 14.4746 2.64647C14.4746 2.7146 14.4714 2.78322 14.465 2.85134C14.3625 2.85331 14.2605 2.85381 14.158 2.85381C14.1906 2.80099 14.2226 2.74817 14.2547 2.69535Z" fill="#AE4240"/>
<path d="M14.1324 2.93477C14.2312 2.89528 14.3486 2.90317 14.4373 2.95994C14.433 2.9945 14.4234 3.06312 14.4186 3.09718C14.4955 3.11544 14.5723 3.13371 14.6498 3.15197C14.6316 3.0799 14.6135 3.00882 14.5937 2.93822C14.6754 2.95056 14.7571 2.96093 14.8393 2.97278C14.8404 3.05818 14.8398 3.14408 14.8372 3.22997C14.5579 3.20282 14.2814 3.16135 14.0021 3.13568C14.0411 3.06608 14.0753 2.99302 14.1324 2.93477Z" fill="#AE4240"/>
<path d="M20.0854 3.00684C20.1543 3.01622 20.2194 3.03942 20.284 3.06312C20.2915 3.16481 20.292 3.26749 20.2787 3.36967C19.8777 3.44817 19.5627 3.70289 19.2061 3.87221C19.1057 3.92207 19.031 4.00205 18.9498 4.07412C18.9733 3.96749 18.9888 3.85987 18.9904 3.75176C18.9525 3.71918 18.9146 3.68709 18.8772 3.65501C18.9717 3.59873 19.0635 3.5385 19.1516 3.47384C19.1943 3.51728 19.2371 3.56072 19.2798 3.60465C19.4677 3.51629 19.6567 3.42447 19.8179 3.2976C19.7688 3.26897 19.7197 3.24133 19.6706 3.21417C19.835 3.19887 19.968 3.10754 20.0854 3.00684Z" fill="#AE4240"/>
<path d="M11.7699 3.46396C11.8783 3.40423 11.921 3.62243 11.8169 3.63625C11.7437 3.61601 11.7133 3.51284 11.7699 3.46396Z" fill="#AE4240"/>
<path d="M15.6941 3.66241C15.8895 3.6481 16.0801 3.60564 16.2744 3.58688C16.2686 3.61403 16.2573 3.66932 16.2515 3.69647C16.4234 3.6634 16.5974 3.63822 16.7742 3.64168C16.7384 3.67278 16.7032 3.70437 16.6679 3.73547C16.7411 3.72757 16.7902 3.74633 16.8147 3.79175C16.441 3.75719 16.0593 3.73597 15.6941 3.66241Z" fill="#AE4240"/>
<path d="M15.8014 3.7335C15.8767 3.72905 15.9519 3.72856 16.0283 3.73152C16.0288 3.77102 16.0299 3.85049 16.0304 3.88999C15.9386 3.85296 15.7661 3.86826 15.8014 3.7335Z" fill="#AE4240"/>
<path d="M16.1746 3.89739C16.1196 3.74189 16.2936 3.77694 16.3999 3.78237C16.3994 3.811 16.3988 3.86728 16.3988 3.89591C16.3241 3.89838 16.2493 3.89887 16.1746 3.89739Z" fill="#AE4240"/>
<path d="M5.78484 4.23702C5.8126 4.08695 5.91084 3.9586 6.01869 3.84753C5.98024 4.08399 6.16177 4.2548 6.33476 4.39894C6.32942 4.47941 6.25574 4.5811 6.33582 4.64725C6.39722 4.67539 6.46129 4.69859 6.52483 4.72327C6.5638 4.78597 6.60331 4.84866 6.64389 4.91135C6.67539 4.92172 6.73892 4.94245 6.77042 4.95282C6.72664 5.10536 6.51201 5.12362 6.36946 5.10684C5.97597 5.01157 5.69674 4.60726 5.78484 4.23702Z" fill="#AE4240"/>
<path d="M12.2718 4.26516C12.3673 4.22468 12.465 4.16149 12.575 4.1847C12.7966 4.22221 13.0198 4.2469 13.2445 4.25282C13.1361 4.29083 13.0256 4.32341 12.9114 4.34316C12.7186 4.30465 12.5227 4.28639 12.3262 4.27652L12.2718 4.26516Z" fill="#AE4240"/>
<path d="M15.6716 4.16248C15.6893 4.15212 15.7245 4.13138 15.7421 4.12102C15.7448 4.27948 15.7565 4.43745 15.7742 4.59542C15.764 4.64824 15.7544 4.70155 15.7453 4.75487C15.8345 4.75536 15.9242 4.76178 16.0117 4.783C16.0139 4.96911 15.8292 5.05303 15.6925 5.15473L15.6476 5.15868C15.6455 4.82645 15.6706 4.49471 15.6716 4.16248Z" fill="#AE4240"/>
<path d="M18.5921 4.1921C18.6247 4.18223 18.6898 4.16199 18.7224 4.15211C18.7854 4.23505 18.8243 4.32884 18.8174 4.43202C18.6807 4.52038 18.5387 4.60085 18.3951 4.67884C18.3289 4.68921 18.2621 4.69513 18.1954 4.70155C18.197 4.79041 18.1997 4.88173 18.1644 4.96664C18.1089 4.9622 18.0545 4.95825 17.9995 4.9548C18.0021 5.02736 18.0048 5.09993 18.0048 5.17348C17.9995 5.23568 17.9936 5.29838 17.9872 5.36107C17.9237 5.3823 17.8601 5.40353 17.7944 5.41685C17.7822 5.24951 17.7176 5.0787 17.7774 4.91333C17.8334 4.73166 17.8398 4.53865 17.9215 4.36389C18.0053 4.35896 18.086 4.37969 18.1607 4.41474C18.1377 4.43399 18.0918 4.472 18.0689 4.49125C18.0758 4.51001 18.0892 4.54753 18.0961 4.56629C18.2253 4.49817 18.3566 4.433 18.488 4.36834C18.4907 4.32786 18.4939 4.28738 18.4971 4.24739C18.5206 4.23357 18.5681 4.20592 18.5921 4.1921Z" fill="#AE4240"/>
<path d="M19.1319 4.19951C19.2285 4.21629 19.1687 4.40734 19.0763 4.36587C19.031 4.31354 19.063 4.21876 19.1319 4.19951Z" fill="#AE4240"/>
<path d="M8.13081 4.43794C8.17245 4.36241 8.20662 4.26368 8.3086 4.2464C8.32461 4.39006 8.36839 4.5347 8.48745 4.63589C8.5969 4.71636 8.57395 4.8531 8.60384 4.96566C8.63748 5.04958 8.74266 5.00416 8.81153 5.00367C8.85318 5.08907 8.88254 5.18039 8.9354 5.26086C8.99786 5.32997 9.10037 5.29443 9.18313 5.2964C9.04592 5.49831 8.74853 5.47659 8.5307 5.43068C8.15109 5.26481 7.95195 4.79387 8.13081 4.43794Z" fill="#AE4240"/>
<path d="M22.1634 4.67736C22.1735 4.60085 22.1602 4.50755 22.2408 4.45966C22.2322 4.52927 22.2221 4.59986 22.2226 4.67095C22.2301 4.70056 22.2451 4.75931 22.2525 4.78893C22.2632 4.86248 22.2696 4.93653 22.2771 5.01058C22.622 5.15966 22.9834 5.27468 23.3337 5.41241C23.3721 5.38526 23.4111 5.3586 23.4506 5.33244C23.4843 5.35959 23.5184 5.38724 23.5531 5.41488C23.5344 5.48745 23.5243 5.5615 23.5099 5.63456C23.1271 5.55063 22.7752 5.38131 22.3956 5.2885C22.2691 5.25148 22.1506 5.1952 22.0294 5.14732C22.0144 5.07327 21.9995 4.99972 21.9861 4.92616C22.0561 4.87038 22.158 4.822 22.1591 4.72525L22.1634 4.67736Z" fill="#AE4240"/>
<path d="M19.9194 4.73364C20.228 4.74154 20.5296 4.8146 20.8388 4.81756C21.0166 4.8141 21.2141 4.92221 21.3769 4.82398C21.3913 4.81805 21.4202 4.8067 21.4346 4.80078C21.4405 4.7988 21.4517 4.79485 21.457 4.79288C21.4789 4.78597 21.5227 4.77165 21.5446 4.76474C21.5435 4.81312 21.5435 4.86149 21.543 4.91037C21.677 4.92616 21.8121 4.93653 21.9477 4.94344C21.9445 4.97355 21.9381 5.03477 21.9354 5.06537C21.9135 5.06142 21.8697 5.05451 21.8478 5.05056C21.6471 5.01749 21.4426 5.01304 21.2413 4.98935C20.796 4.92616 20.3294 4.92764 19.9194 4.73364Z" fill="#AE4240"/>
<path d="M12.3897 4.78646L12.4239 4.77017C12.4832 4.78942 12.5328 4.8225 12.5729 4.8689C12.5403 4.88322 12.4752 4.91234 12.4426 4.92666C12.3988 4.88865 12.3812 4.84175 12.3897 4.78646Z" fill="#AE4240"/>
<path d="M22.1132 5.63307C22.1959 5.61086 22.2798 5.59013 22.3647 5.57433C22.3743 5.59408 22.3946 5.63357 22.4042 5.65331C22.3129 5.69527 22.1751 5.7402 22.1132 5.63307Z" fill="#AE4240"/>
<path d="M23.5948 5.69774C23.6113 5.6469 23.6268 5.59654 23.6423 5.54619C23.8777 5.62517 24.1127 5.70613 24.3604 5.7476C24.394 5.86065 24.473 5.95938 24.6076 5.9732C24.7341 6.02701 24.9375 5.97517 25 6.11389C24.8265 6.1909 24.6455 6.06255 24.4661 6.10649C24.3994 6.13364 24.346 6.18103 24.2878 6.22052C24.2734 6.10599 24.2536 5.99196 24.2306 5.87891C24.0187 5.81721 23.8046 5.7634 23.5948 5.69774Z" fill="#AE4240"/>
<path d="M22.5932 5.63999C22.6556 5.62962 22.7192 5.63308 22.7827 5.63999C22.7923 5.69774 22.8025 5.756 22.8131 5.81425C22.7912 5.79351 22.7475 5.75205 22.7256 5.73082C22.6754 5.75994 22.6252 5.78907 22.5761 5.81918C22.5777 5.79252 22.5809 5.73921 22.5825 5.71255C22.5852 5.69478 22.5905 5.65825 22.5932 5.63999Z" fill="#AE4240"/>
<path d="M16.0166 0.132793C16.0961 0.0547956 16.2472 0.104654 16.355 0.0844143C16.4079 0.0972492 16.4613 0.110085 16.5152 0.121932C16.3486 0.120451 16.1826 0.132793 16.0166 0.132793Z" fill="#2C2D2D"/>
<path d="M18.3267 1.11714C18.7571 1.00607 19.1345 0.698521 19.5985 0.729621C19.6006 0.810086 19.6054 0.891539 19.5916 0.972005C19.5061 1.34767 19.559 1.73322 19.5483 2.11432C19.5537 2.18836 19.5302 2.25994 19.5013 2.32856C19.4095 2.31721 19.3182 2.30635 19.2269 2.29549C19.2451 2.16911 19.2691 2.04323 19.283 1.91636C19.2792 1.63843 19.2792 1.361 19.2814 1.08308C19.1602 1.13392 19.0112 1.15219 18.9162 1.24154C18.8873 1.4464 18.9119 1.65325 18.9023 1.85861C18.8457 2.18145 18.9685 2.48752 19.0075 2.80395C19.0246 2.85233 19.0432 2.90071 19.0635 2.94908C19.1249 3.09175 19.1628 3.24231 19.1799 3.39485C19.1596 3.37511 19.1191 3.33463 19.0988 3.31439C19.0454 3.35585 19.0053 3.43138 18.9269 3.4304C18.8094 3.41411 18.7069 3.34253 18.5852 3.34549C18.4981 3.34845 18.3652 3.32426 18.3588 3.43829L18.3321 3.41855C18.323 3.3677 18.3171 3.31735 18.3139 3.2665C18.3775 3.13618 18.4357 3.00042 18.4266 2.8543C18.4261 2.81678 18.4261 2.74224 18.4261 2.70473C18.4325 2.4115 18.4132 2.11827 18.4261 1.82504C18.4821 1.6957 18.4917 1.55698 18.4778 1.41925C18.3454 1.45825 18.2098 1.4938 18.0876 1.55649C18.0336 1.63153 18.0587 1.73174 18.0406 1.81714C17.9867 2.11086 17.9706 2.40903 17.9984 2.70621C18 2.74422 18.0043 2.81975 18.0059 2.85776C18.0027 2.95106 17.9717 3.09125 17.8361 3.06707C17.6716 3.0957 17.6546 2.9244 17.669 2.81678C17.6695 2.77828 17.6711 2.70028 17.6722 2.66128C17.669 2.42433 17.7229 2.19083 17.7229 1.95388C17.7346 1.77518 17.7373 1.59647 17.7373 1.41827C17.7096 1.35853 17.6631 1.31016 17.6188 1.26178C17.7202 1.18576 17.8067 1.27214 17.8724 1.34126C17.9514 1.43505 18.087 1.43653 18.2018 1.45875C18.2152 1.36051 18.2413 1.26474 18.2963 1.17934C18.1826 1.11911 18.0614 1.05543 18.0198 0.93251C18.0406 0.924118 18.0833 0.907334 18.1041 0.898942C18.1345 0.923131 18.1639 0.948307 18.1927 0.974471C18.2381 1.02087 18.2824 1.06925 18.3267 1.11714ZM18.7854 1.2603C18.7042 1.24598 18.716 1.12997 18.7629 1.08752C18.8815 1.02927 18.8916 1.24746 18.7854 1.2603Z" fill="#040404"/>
<path d="M2.72077 0.98237C2.79872 0.961637 2.88147 0.920662 2.96209 0.956699C3.78057 1.20353 4.58035 1.5012 5.40363 1.73272C5.25627 1.76382 5.11372 1.80875 4.97063 1.85268C4.86813 1.71989 4.69087 1.68089 4.53497 1.62609C3.98025 1.45282 3.43139 1.26276 2.8788 1.08406C2.81474 1.06678 2.75387 1.03865 2.72077 0.98237Z" fill="#0F0F0F"/>
<path d="M16.1036 1.06876C16.3299 1.05 16.559 1.03322 16.7859 1.05741C16.7998 1.06975 16.8281 1.09443 16.842 1.10677C16.7427 1.11467 16.6428 1.11911 16.5435 1.12355C16.5969 1.18872 16.6514 1.25289 16.7074 1.31657L16.6684 1.33237C16.4282 1.30374 16.1901 1.26129 15.9477 1.24944C16.0037 1.19217 16.0545 1.13096 16.1036 1.06876Z" fill="#040404"/>
<path d="M2.14309 1.17045C2.14522 1.0342 2.33422 1.07715 2.42712 1.10282C3.16871 1.35063 3.90763 1.60536 4.6551 1.83836C4.60011 1.90155 4.67005 1.96326 4.69514 2.02299C4.5953 2.01164 4.49493 2.01065 4.39509 2.01016C4.33262 1.94845 4.26802 1.88329 4.17886 1.85564C3.504 1.6177 2.81367 1.41382 2.14309 1.17045Z" fill="#0F0F0F"/>
<path d="M1.58783 1.24648C1.80299 1.16897 2.01869 1.27856 2.21623 1.34915C2.87613 1.56439 3.5355 1.78209 4.18954 2.01114C4.11105 2.06051 4.02723 2.10296 3.94074 2.14097C3.90924 2.13061 3.8457 2.10987 3.8142 2.09901C3.54405 1.92229 3.21143 1.8591 2.90763 1.74803C2.45008 1.61721 2.01815 1.4158 1.55206 1.31016C1.56113 1.29436 1.57875 1.26277 1.58783 1.24648Z" fill="#0F0F0F"/>
<path d="M0.969568 1.37877C1.04485 1.36692 1.12387 1.3299 1.20021 1.36001C1.83342 1.57673 2.4725 1.7811 3.10037 2.01114C3.08222 2.06051 3.06514 2.11037 3.04912 2.16072C2.35878 1.92475 1.66845 1.68879 0.977042 1.45825C0.974907 1.43801 0.971169 1.39852 0.969568 1.37877Z" fill="#0F0F0F"/>
<path d="M15.0715 1.72779C15.2077 1.60487 15.3289 1.46664 15.4875 1.36693C15.5446 1.40346 15.6022 1.43999 15.6599 1.47701C15.6295 1.54316 15.6022 1.6103 15.5761 1.67842L15.5456 1.67941C15.441 1.66164 15.3759 1.74654 15.3129 1.80776C15.134 1.9988 14.921 2.15874 14.7427 2.35078C14.7042 2.39076 14.6289 2.43865 14.6572 2.50085C14.7469 2.53935 14.8243 2.4342 14.835 2.36164C14.8783 2.35966 14.9642 2.35571 15.0075 2.35374C14.9381 2.42877 14.8729 2.50726 14.8019 2.58131C14.7026 2.66869 14.5841 2.75952 14.5825 2.89824L14.5937 2.93822C14.6135 3.00882 14.6316 3.0799 14.6498 3.15197C14.5723 3.13371 14.4955 3.11544 14.4186 3.09718C14.4234 3.06312 14.433 2.9945 14.4373 2.95994C14.4442 2.93279 14.4581 2.87849 14.465 2.85134C14.4714 2.78322 14.4746 2.7146 14.4746 2.64647C14.4004 2.66079 14.3273 2.67659 14.2547 2.69535C14.1991 2.62772 14.1452 2.55959 14.0924 2.49097C14.141 2.49048 14.1901 2.48999 14.2397 2.48999C14.5067 2.22638 14.7934 1.98103 15.0715 1.72779ZM14.5926 2.56601C14.6199 2.59118 14.6199 2.59118 14.5926 2.56601Z" fill="#040404"/>
<path d="M6.14736 3.27983C6.5291 3.15148 6.99253 3.08138 7.35398 3.29711C7.36199 3.33463 7.37747 3.40966 7.38548 3.44718L7.39936 3.47729C7.55205 3.52863 7.65296 3.65056 7.78964 3.72708C7.80833 3.79619 7.82915 3.8653 7.85424 3.93392C8.05926 3.79866 8.27229 3.67278 8.50721 3.58688C8.70849 3.52666 8.91351 3.45903 9.1276 3.45409C9.4079 3.46199 9.65189 3.60811 9.87613 3.75078C9.97918 3.87962 10.0769 4.02673 10.2525 4.07905C10.2296 4.09436 10.1847 4.12546 10.1618 4.14076C10.2205 4.24245 10.2782 4.34464 10.3321 4.4488C10.3257 4.52384 10.3214 4.59887 10.3193 4.67489C10.3102 4.82743 10.3241 4.98688 10.2653 5.133C10.2077 5.2574 10.1191 5.367 10.0331 5.4756C9.64709 5.74908 9.16711 5.98999 8.66364 5.91051C8.45168 5.81869 8.21356 5.7481 8.05713 5.57779C7.89963 5.44203 7.83235 5.24901 7.72984 5.07969C7.45809 5.33886 7.07955 5.43759 6.72237 5.55212C6.54351 5.56989 6.3732 5.50818 6.19754 5.49831C5.96423 5.34725 5.71169 5.1957 5.57768 4.9543C5.47037 4.75635 5.38815 4.54161 5.37106 4.31946C5.3716 4.04006 5.46022 3.74979 5.67112 3.54295C5.81687 3.43681 5.97651 3.34746 6.14736 3.27983ZM5.78484 4.23702C5.69674 4.60726 5.97597 5.01157 6.36946 5.10684C6.51201 5.12362 6.72664 5.10536 6.77042 4.95282C6.73892 4.94245 6.67539 4.92172 6.64389 4.91135C6.60331 4.84866 6.5638 4.78597 6.52483 4.72327C6.46129 4.69859 6.39722 4.67539 6.33582 4.64725C6.25574 4.5811 6.32942 4.47941 6.33476 4.39894C6.16177 4.2548 5.98024 4.08399 6.01869 3.84753C5.91084 3.9586 5.8126 4.08695 5.78484 4.23702ZM6.55045 4.16495C6.47411 4.25134 6.40096 4.35353 6.41057 4.47052C6.51735 4.53667 6.67272 4.61961 6.79445 4.54161C7.00854 4.42116 6.75868 4.07214 6.55045 4.16495ZM8.13081 4.43794C7.95195 4.79387 8.15109 5.26481 8.5307 5.43068C8.74853 5.47659 9.04592 5.49831 9.18313 5.2964C9.10037 5.29443 8.99786 5.32997 8.9354 5.26086C8.88254 5.18039 8.85318 5.08907 8.81153 5.00367C8.74266 5.00416 8.63748 5.04958 8.60384 4.96566C8.57395 4.8531 8.5969 4.71636 8.48745 4.63589C8.36839 4.5347 8.32461 4.39006 8.3086 4.2464C8.20662 4.26368 8.17245 4.36241 8.13081 4.43794ZM8.81153 4.51446C8.77736 4.61516 8.70689 4.70698 8.70796 4.81608C8.82702 4.90642 9.00534 4.95381 9.14949 4.8921C9.20075 4.80522 9.17619 4.69662 9.16231 4.60331C9.09931 4.47447 8.93593 4.48089 8.81153 4.51446Z" fill="#090909"/>
<path d="M10.3663 3.35388C10.6535 3.4689 10.976 3.43286 11.2798 3.48174C11.2974 3.51037 11.3332 3.56714 11.3508 3.59528C11.1789 3.70536 10.9738 3.6244 10.7875 3.60317C10.6305 3.57306 10.4704 3.59231 10.3134 3.60811C10.2221 3.53308 10.2194 3.36721 10.3663 3.35388Z" fill="#040404"/>
<path d="M18.9498 4.07412C19.031 4.00205 19.1057 3.92207 19.2061 3.87221C19.2157 4.00402 19.2242 4.13583 19.2355 4.26813C19.2734 4.27553 19.3502 4.29083 19.3887 4.29824C19.3433 4.32934 19.292 4.3481 19.2344 4.35501C19.2301 4.41079 19.2274 4.46657 19.2269 4.52285C19.1014 4.59196 18.9584 4.62849 18.8206 4.5653C18.8201 4.53223 18.8185 4.46559 18.8174 4.43202C18.8243 4.32884 18.7854 4.23505 18.7224 4.15211C18.7977 4.12546 18.8735 4.09929 18.9498 4.07412ZM19.0763 4.36587C19.031 4.31354 19.063 4.21876 19.1319 4.19951C19.2285 4.21629 19.1687 4.40734 19.0763 4.36587Z" fill="#040404"/>
<path d="M10.2525 4.07905C10.4805 4.14619 10.6994 4.23702 10.9301 4.29725C11.3065 4.4024 11.6556 4.57715 12.0352 4.67292C11.9327 4.7208 11.8313 4.77116 11.7288 4.81953C11.5456 4.84669 11.3609 4.89753 11.1746 4.86594C10.9802 4.83582 10.8051 4.74697 10.6225 4.68378C10.5318 4.58357 10.4437 4.48138 10.362 4.37475C10.3278 4.27553 10.2899 4.17729 10.2525 4.07905Z" fill="#040404"/>
<path d="M15.7421 4.12102C15.7704 4.11904 15.8265 4.11509 15.8548 4.11361C15.8382 4.27503 15.8452 4.44288 15.7742 4.59542C15.7565 4.43745 15.7448 4.27948 15.7421 4.12102Z" fill="#2C2D2D"/>
<path d="M12.3262 4.27652C12.5227 4.28639 12.7186 4.30465 12.9114 4.34316C12.9845 4.39499 13.1148 4.42313 13.1249 4.52087C13.0779 4.59492 13.0187 4.66107 12.9658 4.73117C12.9765 4.74549 12.9984 4.7751 13.0091 4.78942C13.0961 4.85804 13.3033 4.87038 13.323 4.73561C13.5617 4.73265 13.6508 4.40733 13.9172 4.50508C13.9487 4.63441 13.8099 4.69859 13.7218 4.77116C13.5254 4.86594 13.3182 4.97158 13.0902 4.96566C12.9151 4.94591 12.7443 4.90346 12.5729 4.8689C12.5328 4.8225 12.4832 4.78942 12.4239 4.77017C12.4554 4.75536 12.5184 4.72475 12.5499 4.70994C12.5414 4.54408 12.4314 4.40289 12.3262 4.27652Z" fill="#040404"/>
<path d="M19.8772 4.3165C19.992 4.32983 19.9637 4.44979 19.9872 4.5268C20.1377 4.55049 20.2899 4.5658 20.4405 4.59394C20.5494 4.62504 20.6583 4.6591 20.7715 4.67736C20.9349 4.70106 21.1014 4.70007 21.2659 4.68378C21.2888 4.68329 21.3348 4.68329 21.3582 4.68279C21.6268 4.69711 21.8954 4.6512 22.1634 4.67736L22.1591 4.72525C21.9535 4.72525 21.7437 4.71142 21.5446 4.76474C21.5227 4.77165 21.4789 4.78597 21.457 4.79288L21.4346 4.80078C21.4202 4.8067 21.3913 4.81805 21.3769 4.82398C21.1981 4.76178 21.0053 4.78054 20.8185 4.77807C20.6396 4.74252 20.4597 4.71093 20.284 4.66453C20.2755 4.66206 20.2584 4.65762 20.2499 4.65564C20.2056 4.64429 20.118 4.62109 20.0737 4.60973C20.0635 4.60825 20.0438 4.60529 20.0336 4.60381C19.9888 4.60282 19.8996 4.60035 19.8548 4.59937L19.8249 4.59887C19.6594 4.58801 19.4933 4.59295 19.3278 4.5964L19.3017 4.58999L19.2654 4.5579C19.4757 4.49372 19.6978 4.46954 19.9188 4.46361C19.9044 4.41425 19.8906 4.36538 19.8772 4.3165Z" fill="#040404"/>
<path d="M22.6524 4.69217C22.9039 4.60529 23.173 4.63886 23.4346 4.62257C23.4426 4.65663 23.4592 4.72475 23.4672 4.75931C23.0619 4.68328 22.6562 4.75338 22.2525 4.78893C22.2451 4.75931 22.2301 4.70056 22.2226 4.67095C22.3609 4.71735 22.5109 4.74845 22.6524 4.69217Z" fill="#040404"/>
<path d="M18.1954 4.70155C18.2621 4.69513 18.3289 4.68921 18.3951 4.67884C18.4341 4.74401 18.4741 4.80867 18.5147 4.87334C18.41 4.91086 18.3059 4.94838 18.2029 4.99034C18.2456 5.02045 18.2947 5.03773 18.3508 5.04267C18.299 5.08018 18.2483 5.11869 18.1991 5.15867C18.134 5.16262 18.0694 5.16707 18.0048 5.17348C18.0048 5.09993 18.0021 5.02736 17.9995 4.9548C18.0545 4.95825 18.1089 4.9622 18.1644 4.96664C18.1997 4.88173 18.197 4.79041 18.1954 4.70155Z" fill="#040404"/>
<path d="M23.6583 4.83039C23.6412 4.74746 23.7373 4.73117 23.7977 4.70649C23.6866 4.97553 23.9194 5.289 23.772 5.53286C23.7651 5.46079 23.7592 5.38872 23.7544 5.31714C23.6038 5.29492 23.6695 5.46227 23.6423 5.54619C23.6268 5.59654 23.6113 5.6469 23.5948 5.69774C23.5376 5.83004 23.5638 5.97271 23.5718 6.11093C23.5627 6.13315 23.544 6.17757 23.535 6.20028C23.4341 6.1988 23.3348 6.17906 23.2371 6.1598C23.268 6.12475 23.299 6.08921 23.33 6.05317L23.3235 6.01961C23.3166 5.98999 23.3033 5.93026 23.2963 5.90064C23.3775 5.81968 23.4634 5.73872 23.5099 5.63456C23.5243 5.5615 23.5344 5.48745 23.5531 5.41488C23.6482 5.23223 23.6524 5.02884 23.6583 4.83039ZM23.4074 6.07193C23.3844 6.14105 23.41 6.16474 23.4853 6.14302C23.5077 6.07341 23.4816 6.04972 23.4074 6.07193Z" fill="#040404"/>
<path d="M14.858 4.97158C15.0123 4.89457 15.1671 4.7598 15.3556 4.7993C15.2173 4.90642 15.0593 4.98738 14.8889 5.04168C14.8815 5.02391 14.8655 4.98886 14.858 4.97158Z" fill="#2C2D2D"/>
<path d="M22.9754 6.12426C23.0032 6.14944 23.0032 6.14944 22.9754 6.12426Z" fill="#2C2D2D"/>
<path d="M15.229 0.141184L15.2707 0.123906C15.3641 0.141184 15.457 0.161917 15.5499 0.182651C15.4367 0.189068 15.3241 0.202891 15.2178 0.239421C15.2194 0.297178 15.2216 0.355429 15.2237 0.41368C15.2637 0.422566 15.3428 0.440338 15.3828 0.449223L15.3748 0.49464C15.212 0.490691 15.0422 0.416643 14.8847 0.469958C14.7784 0.589915 14.7176 0.73653 14.6337 0.868829C14.4592 0.89746 14.2846 0.93646 14.1062 0.928068C14.0934 0.719746 14.0918 0.510437 14.1041 0.301622C14.1255 0.296191 14.1682 0.284344 14.1895 0.27842C14.457 0.330253 14.7245 0.260649 14.9899 0.231524C15.0779 0.224119 15.1554 0.183145 15.229 0.141184Z" fill="#781C18"/>
<path d="M16.0219 0.197954C16.1078 0.208321 16.1933 0.223624 16.2792 0.23794C16.3876 0.324823 16.5168 0.403808 16.5643 0.536107C16.4757 0.515373 16.3881 0.492666 16.3006 0.469958C16.1927 0.541537 16.094 0.630888 15.969 0.676304C15.7672 0.670874 15.7923 0.449718 15.7581 0.319394C15.8302 0.350988 15.9018 0.383075 15.9733 0.41615C16.0315 0.378138 16.0876 0.337659 16.142 0.295698C16.102 0.262623 16.0619 0.230041 16.0219 0.197954Z" fill="#781C18"/>
<path d="M17.1959 0.495134C17.2547 0.479831 17.3129 0.464527 17.3716 0.449717C17.3657 0.467489 17.3534 0.502046 17.347 0.519817C17.4063 0.496616 17.4656 0.473907 17.5264 0.454654C17.5569 0.600282 17.5451 0.747391 17.5099 0.891537C17.4923 0.95275 17.5723 0.981876 17.6054 1.02285C17.6167 0.865868 17.6065 0.706417 17.6439 0.551904C17.6684 0.547461 17.717 0.539069 17.7416 0.534626C17.7491 0.631382 17.6658 0.768617 17.7784 0.833779C17.8516 0.879195 17.9359 0.90684 18.0198 0.93251C18.0614 1.05543 18.1826 1.11911 18.2963 1.17934C18.2413 1.26474 18.2152 1.36051 18.2018 1.45875C18.087 1.43653 17.9514 1.43505 17.8724 1.34126C17.8067 1.27214 17.7202 1.18576 17.6188 1.26178C17.6631 1.31016 17.7096 1.35853 17.7373 1.41827C17.583 1.3842 17.3924 1.31213 17.2621 1.43604C17.1853 1.50712 17.0763 1.50811 16.9754 1.51305C16.9696 1.44492 16.9637 1.37729 16.9562 1.30966C16.9039 1.28942 16.8574 1.26178 16.8158 1.22772C17.0667 1.18131 17.3225 1.16058 17.5761 1.12405L17.5729 1.0737C17.4656 1.06925 17.3582 1.06678 17.2515 1.06283C17.1773 0.930042 17.1201 0.790338 17.0651 0.650634C17.1084 0.598307 17.1522 0.546474 17.1959 0.495134Z" fill="#781C18"/>
<path d="M15.4026 1.02482C15.6391 0.798236 16.0053 0.818969 16.3113 0.741466C16.2413 0.849082 16.1041 0.933006 16.1036 1.06876C16.0545 1.13096 16.0037 1.19217 15.9477 1.24944C15.8489 1.3225 15.7464 1.39161 15.6599 1.47701C15.6022 1.43999 15.5446 1.40346 15.4875 1.36693C15.3289 1.46664 15.2077 1.60487 15.0715 1.72779C14.7934 1.98103 14.5067 2.22638 14.2397 2.48999C14.1901 2.48999 14.141 2.49048 14.0924 2.49097C14.1452 2.55959 14.1991 2.62772 14.2547 2.69535C14.2226 2.74817 14.1906 2.80099 14.158 2.85381C14.2605 2.85381 14.3625 2.85331 14.465 2.85134C14.4581 2.87849 14.4442 2.93279 14.4373 2.95994C14.3486 2.90317 14.2312 2.89528 14.1324 2.93477C14.0753 2.99302 14.0411 3.06608 14.0021 3.13568C14.2814 3.16135 14.5579 3.20282 14.8372 3.22997C14.8398 3.14408 14.8404 3.05818 14.8393 2.97278C14.7571 2.96093 14.6754 2.95056 14.5937 2.93822L14.5825 2.89824C14.6733 2.89972 14.7645 2.89972 14.8558 2.89972C14.874 2.78963 14.8697 2.67708 14.8019 2.58131C14.8729 2.50726 14.9381 2.42877 15.0075 2.35374C14.9642 2.35571 14.8783 2.35966 14.835 2.36164C14.8121 2.35917 14.7656 2.35324 14.7427 2.35078C14.921 2.15874 15.134 1.9988 15.3129 1.80776C15.3759 1.74654 15.441 1.66164 15.5456 1.67941C15.5515 1.68434 15.5627 1.69323 15.5686 1.69767C15.5024 1.87637 15.3705 2.02793 15.3219 2.21305C15.4047 2.20959 15.4912 2.22144 15.5713 2.19626C15.6695 2.13752 15.733 2.01509 15.8623 2.01312C15.9973 1.9988 16.1335 2.01361 16.267 2.03484C16.5061 2.0768 16.7533 2.04965 16.9909 2.10346C17.0262 2.2012 17.0577 2.3019 17.055 2.40656C17.0491 3.37708 17.0577 4.3481 17.0513 5.31911C17.2381 5.23618 17.3892 5.05205 17.6161 5.08265C17.6845 4.79732 17.661 4.50261 17.6546 4.21284C17.4805 4.1768 17.3065 4.13928 17.1388 4.08152C17.1223 3.98872 17.1175 3.89443 17.1276 3.80113C17.1676 3.76608 17.2077 3.73054 17.2477 3.69549C17.2072 3.69302 17.1271 3.68759 17.087 3.68463L17.0929 3.63872C17.3833 3.65896 17.6722 3.69104 17.9605 3.72807C18.1895 3.77743 18.3903 3.6323 18.5809 3.53851C18.519 3.48519 18.4346 3.46643 18.3588 3.43829C18.3652 3.32426 18.4981 3.34845 18.5852 3.34549C18.7069 3.34253 18.8094 3.41411 18.9269 3.4304C19.0053 3.43138 19.0454 3.35585 19.0988 3.31439C19.1191 3.33463 19.1596 3.37511 19.1799 3.39485C19.1628 3.24231 19.1249 3.09175 19.0635 2.94908C19.204 2.94316 19.3518 2.94365 19.4533 3.0488C19.6615 3.01375 19.8729 2.98512 20.0854 3.00684C19.968 3.10754 19.835 3.19887 19.6706 3.21417C19.7197 3.24133 19.7688 3.26897 19.8179 3.2976C19.6567 3.42447 19.4677 3.51629 19.2798 3.60465C19.2371 3.56072 19.1943 3.51728 19.1516 3.47384C19.0635 3.5385 18.9717 3.59873 18.8772 3.65501C18.9146 3.68709 18.9525 3.71918 18.9904 3.75176C18.9888 3.85987 18.9733 3.96749 18.9498 4.07412C18.8735 4.09929 18.7977 4.12546 18.7224 4.15211C18.6898 4.16199 18.6247 4.18223 18.5921 4.1921C18.6236 4.15853 18.6546 4.12546 18.6861 4.09189C18.5665 4.0519 18.441 4.03265 18.3139 4.03858C18.3214 4.13829 18.3369 4.23801 18.3615 4.33625C18.2963 4.36636 18.2285 4.39104 18.1607 4.41474C18.086 4.37969 18.0053 4.35896 17.9215 4.36389C17.8398 4.53865 17.8334 4.73166 17.7774 4.91333C17.7176 5.0787 17.7822 5.24951 17.7944 5.41685C17.6823 5.42377 17.5697 5.42821 17.4581 5.42426C16.9899 5.29393 16.4885 5.32454 16.0182 5.20409C16.1105 5.0866 16.2675 5.07031 16.41 5.04316C16.4896 4.89506 16.6524 4.82546 16.8057 4.75783C16.8292 4.63491 16.8308 4.50952 16.8254 4.38561C16.7907 4.43251 16.7565 4.4799 16.7224 4.52779C16.7106 4.43547 16.6983 4.34365 16.6871 4.25233C16.6311 4.23061 16.5739 4.21234 16.5152 4.19852C16.4111 4.30021 16.3166 4.41573 16.1821 4.48582C16.11 4.33082 16.1596 4.16001 16.1767 3.99958C16.3182 4.03314 16.4544 4.08547 16.598 4.11312C16.6861 4.10275 16.7528 4.04252 16.8238 3.99908C16.5558 3.97835 16.291 3.93096 16.0224 3.92652C16.0486 3.94824 16.1009 3.99217 16.1271 4.01389C16.0817 4.12348 15.9664 4.14175 15.8548 4.11361C15.8265 4.11509 15.7704 4.11904 15.7421 4.12102C15.7245 4.13138 15.6893 4.15212 15.6716 4.16248C15.6706 4.49471 15.6455 4.82645 15.6476 5.15868C15.5798 5.1646 15.512 5.17003 15.4447 5.17496C15.4394 5.05007 15.4234 4.92616 15.4047 4.80275C15.4132 4.66403 15.4362 4.5263 15.4335 4.38709C15.2595 4.41276 15.1111 4.5653 14.9269 4.50014C14.8446 4.10176 14.9311 3.68759 14.866 3.29118C14.8585 3.41608 14.8607 3.54147 14.8425 3.66636C14.8041 3.67771 14.7266 3.70092 14.6882 3.71227C14.7218 3.7641 14.7597 3.81347 14.8003 3.86234C14.7464 3.87666 14.6925 3.88999 14.638 3.90233C14.6369 3.8189 14.6391 3.73597 14.6444 3.65353C14.6765 3.64809 14.7411 3.63723 14.7731 3.6318C14.6973 3.56072 14.6572 3.42891 14.528 3.43434C14.4106 3.4146 14.3022 3.47532 14.2216 3.54887C14.2637 3.68956 14.2413 3.83272 14.165 3.95959C14.3935 3.9433 14.6156 4.0055 14.8361 4.05289C14.8671 4.21185 14.8649 4.37821 14.7864 4.52581C14.6967 4.67341 14.8019 4.83089 14.858 4.97158C14.8655 4.98886 14.8815 5.02391 14.8889 5.04168C14.8687 5.11622 14.8484 5.19076 14.8286 5.26629C14.5953 5.28258 14.3476 5.25345 14.1666 5.10338C14.1543 4.99527 14.1474 4.88667 14.1484 4.77807C14.1527 4.63244 14.1372 4.48681 14.086 4.34859C14.023 4.35155 13.96 4.35501 13.8975 4.35896C13.8916 4.24788 13.8879 4.13533 13.851 4.0287C13.8382 4.14619 13.8334 4.26467 13.8275 4.38364C13.7603 4.34958 13.6802 4.32884 13.6311 4.27059C13.5894 3.96798 13.6391 3.66192 13.6183 3.35832C13.5499 3.36227 13.4821 3.36671 13.4143 3.37116C13.3999 3.32278 13.3855 3.2744 13.3711 3.22652C13.3294 3.2043 13.2872 3.18258 13.2451 3.16234C13.2995 3.0567 13.3502 2.94958 13.3967 2.84097C13.2771 2.80296 13.1554 2.82666 13.0422 2.87109C13.0043 2.8622 12.9285 2.84393 12.8905 2.83505C12.8836 2.80099 12.8703 2.73286 12.8639 2.6988C13.0945 2.71065 13.3225 2.78124 13.5547 2.75508C13.6492 2.70818 13.6113 2.59859 13.6193 2.51961C13.3625 2.47123 13.0977 2.48406 12.8414 2.43569C12.4277 2.36509 12.0064 2.35176 11.59 2.30141C9.57555 2.09655 7.559 1.90945 5.54511 1.7031C5.55419 1.68138 5.57234 1.63843 5.58142 1.61671C5.66524 1.62511 5.74853 1.63893 5.83129 1.65374C5.80032 1.54513 5.77736 1.43554 5.76455 1.32398C6.30165 1.33977 6.83556 1.42221 7.3716 1.46714C9.64282 1.67052 11.9162 1.89118 14.1847 2.09704C14.394 1.90994 14.6551 1.76876 14.8286 1.55007C14.8542 1.4074 14.842 1.25783 14.9098 1.12355C15.031 1.12454 15.1522 1.13441 15.2718 1.15416C15.3155 1.11121 15.3588 1.06777 15.4026 1.02482ZM5.98345 1.52094C5.98398 1.55501 5.98505 1.62412 5.98558 1.65867C6.16551 1.66262 6.33583 1.73667 6.51735 1.71791C6.68233 1.6952 6.83396 1.77764 6.99787 1.76678C7.18099 1.74407 7.3481 1.84725 7.53123 1.81664C7.53177 1.78011 7.5323 1.70754 7.53283 1.67151C7.24453 1.68928 6.9685 1.59746 6.68073 1.61474C6.45275 1.55106 6.21036 1.59006 5.98345 1.52094ZM7.68767 1.72087C7.70796 1.93166 8.01495 1.84379 8.17085 1.86946C8.38548 1.94351 8.61719 1.88575 8.83449 1.94549C8.97704 1.98448 9.12974 1.94351 9.27229 1.98547C9.45916 2.0457 9.66257 1.98103 9.8489 2.04471C9.94501 2.07532 10.0481 2.06544 10.1479 2.06149C10.1479 2.02546 10.1484 1.95388 10.1484 1.91784C9.68179 1.9287 9.22851 1.81319 8.76348 1.81072C8.58836 1.76629 8.40897 1.76481 8.22904 1.76283C8.05179 1.72087 7.87026 1.70113 7.68767 1.72087ZM10.3625 1.96671C10.362 2.00275 10.362 2.07482 10.3615 2.11086C10.6508 2.08173 10.9258 2.17602 11.2141 2.16566C11.4431 2.24267 11.6903 2.17898 11.9204 2.24958C12.0683 2.27771 12.2232 2.23921 12.3695 2.28068C12.5392 2.33251 12.7224 2.2866 12.8922 2.33942C13.0667 2.38731 13.2557 2.32511 13.4255 2.39422C13.5355 2.45049 13.6999 2.39422 13.6759 2.26192C13.4394 2.2787 13.2125 2.19725 12.9765 2.21107C12.8318 2.21749 12.6957 2.15578 12.551 2.1622C12.3695 2.17306 12.1981 2.09852 12.0171 2.11234C11.835 2.12666 11.6647 2.04718 11.4832 2.06248C11.3193 2.0763 11.1655 2.01114 11.0032 2.0141C10.7864 2.02052 10.5804 1.93117 10.3625 1.96671ZM16.0352 2.21601C16.1954 2.13949 16.0454 2.37842 16.0352 2.21601ZM16.1762 2.26241C16.2029 2.31573 16.2579 2.33597 16.3412 2.32313C16.2707 2.36756 16.212 2.42828 16.1789 2.50183C16.0096 2.51812 15.8462 2.48307 15.6839 2.44556C15.6353 2.644 15.677 2.84986 15.6652 3.05176C15.6716 3.22997 15.6017 3.40127 15.6076 3.57948C15.6845 3.578 15.8254 3.64118 15.8607 3.55233C15.7768 3.56467 15.7208 3.54492 15.6935 3.49408C15.9098 3.50592 16.1212 3.55331 16.3385 3.55529C16.5152 3.58738 16.6941 3.61848 16.8751 3.59528C16.8574 3.45113 16.9338 3.26305 16.8083 3.15197C16.5125 3.14111 16.2162 3.12581 15.9204 3.10656C15.8409 3.08533 15.7176 3.08434 15.6893 2.99795C15.8126 2.98166 15.9397 2.97278 16.0609 3.00783C16.1612 3.03103 16.3091 3.07793 16.3572 2.9555C16.4736 2.9397 16.4944 3.10705 16.6097 3.10409C16.6983 3.11396 16.7875 3.10656 16.8767 3.1031C16.8777 3.00437 16.8735 2.90614 16.8633 2.80889C16.7085 2.8232 16.5787 2.9091 16.4314 2.94859C16.4533 2.89478 16.4997 2.85677 16.5435 2.81827C16.3529 2.79556 16.1634 2.76347 15.9706 2.76347C15.8745 2.74224 15.7432 2.74372 15.6855 2.66079C15.7672 2.65536 15.8489 2.65141 15.9311 2.64845C16.0945 2.68004 16.2653 2.6292 16.4271 2.67511C16.5729 2.71805 16.7261 2.70966 16.8767 2.70275C16.8751 2.66573 16.8729 2.59168 16.8713 2.55465C16.8441 2.55515 16.7891 2.55564 16.7619 2.55614C16.7854 2.53787 16.8324 2.50134 16.8558 2.48307C16.858 2.42877 16.8596 2.37496 16.8612 2.32165C16.7005 2.33646 16.5344 2.42532 16.3839 2.3251C16.4768 2.32116 16.5691 2.31276 16.6626 2.30635L16.662 2.26142C16.4997 2.25747 16.338 2.25698 16.1762 2.26241ZM15.275 2.40557C15.275 2.44358 15.275 2.51911 15.275 2.55663C15.3161 2.55663 15.3983 2.55614 15.4394 2.55614C15.4592 2.46234 15.3727 2.39323 15.275 2.40557ZM15.6941 3.66241C16.0593 3.73597 16.441 3.75719 16.8147 3.79175C16.7902 3.74633 16.7411 3.72757 16.6679 3.73547C16.7032 3.70437 16.7384 3.67278 16.7742 3.64168C16.5974 3.63822 16.4234 3.6634 16.2515 3.69647C16.2573 3.66932 16.2686 3.61403 16.2744 3.58688C16.0801 3.60564 15.8895 3.6481 15.6941 3.66241ZM15.8014 3.7335C15.7661 3.86826 15.9386 3.85296 16.0304 3.88999C16.0299 3.85049 16.0288 3.77102 16.0283 3.73152C15.9519 3.72856 15.8767 3.72905 15.8014 3.7335ZM16.1746 3.89739C16.2493 3.89887 16.3241 3.89838 16.3988 3.89591C16.3988 3.86728 16.3994 3.811 16.3999 3.78237C16.2936 3.77694 16.1196 3.74189 16.1746 3.89739Z" fill="#781C18"/>
<path d="M18.0406 1.81714C18.1687 1.81911 18.2974 1.82109 18.4261 1.82504C18.4132 2.11827 18.4325 2.4115 18.4261 2.70473C18.2835 2.70473 18.1409 2.70522 17.9984 2.70621C17.9706 2.40903 17.9867 2.11086 18.0406 1.81714Z" fill="#781C18"/>
<path d="M4.69514 2.02299C4.67005 1.96326 4.60011 1.90155 4.6551 1.83836C4.71917 1.85762 4.78484 1.87391 4.85104 1.88773C5.56433 1.97906 6.2835 2.03583 6.99893 2.11185C8.72931 2.28561 10.4586 2.46481 12.189 2.63413C12.0945 2.67214 12.0021 2.73632 11.8927 2.72052C11.4554 2.68449 11.0198 2.62969 10.5825 2.58724C10.3796 2.55959 10.1741 2.53047 9.96903 2.56404C9.04965 2.50727 8.13615 2.3799 7.21837 2.29746C6.52056 2.21403 5.8158 2.17207 5.12173 2.06495C5.08649 1.98695 5.05499 1.98695 5.02616 2.06495C4.91458 2.06248 4.80192 2.05607 4.69514 2.02299Z" fill="#781C18"/>
<path d="M18.9023 1.85861C19.031 1.86502 19.1586 1.88378 19.283 1.91636C19.2691 2.04323 19.2451 2.16911 19.2269 2.29549C19.3182 2.30635 19.4095 2.31721 19.5013 2.32856C19.4784 2.49937 19.5371 2.66671 19.559 2.83505C19.3769 2.80494 19.1917 2.79655 19.0075 2.80395C18.9685 2.48752 18.8457 2.18145 18.9023 1.85861Z" fill="#781C18"/>
<path d="M17.5974 2.38829C17.6316 2.24168 17.67 2.09556 17.7229 1.95388C17.7229 2.19083 17.669 2.42433 17.6722 2.66128C17.5654 2.64993 17.4586 2.63709 17.3529 2.62278C17.3513 2.65585 17.3476 2.722 17.346 2.75508C17.2755 2.75212 17.2056 2.75063 17.1356 2.75113C17.1207 2.64055 17.1159 2.528 17.1426 2.4189C17.1698 2.4189 17.2237 2.41791 17.2504 2.41742C17.3668 2.41939 17.4837 2.4115 17.5974 2.38829Z" fill="#781C18"/>
<path d="M3.10037 2.01114C3.33155 2.07976 3.57768 2.05804 3.8142 2.09901C3.8457 2.10987 3.90924 2.13061 3.94074 2.14097C6.47197 2.42433 9.00908 2.6756 11.5419 2.95056C11.9685 3.00141 12.4004 3.01918 12.8243 3.09126C12.7811 3.15938 12.7411 3.22948 12.7031 3.30007C12.7336 3.35092 12.764 3.40176 12.7955 3.4531C12.6647 3.63329 12.3743 3.40966 12.2018 3.56023C12.1954 3.66241 12.213 3.77299 12.1666 3.86925C12.0411 3.93096 11.9039 3.9976 11.7581 3.99415C11.6626 3.94083 11.7314 3.78138 11.6193 3.75226C11.6081 3.78632 11.5852 3.85346 11.5739 3.88702C11.481 3.8031 11.4127 3.70042 11.3508 3.59528C11.3332 3.56714 11.2974 3.51037 11.2798 3.48174C11.2355 3.39683 11.134 3.36869 11.0416 3.35585C10.4442 3.29266 9.84677 3.2201 9.252 3.13815C8.90977 3.1347 8.57448 3.06855 8.23652 3.02955C8.16818 3.01918 8.07314 3.00931 8.07101 2.92736C8.16017 2.91551 8.24933 2.90416 8.33849 2.89182C8.19114 2.78865 8.00267 2.77729 7.82595 2.79457C7.88254 2.878 7.87827 2.97623 7.89589 3.06953C7.97757 3.07891 8.06033 3.06509 8.14202 3.06756C8.15109 3.17369 8.15857 3.27983 8.16284 3.38646C8.00694 3.41904 7.85478 3.46495 7.69674 3.48766C7.61078 3.46446 7.58729 3.36178 7.5323 3.30254C7.48372 3.35042 7.4346 3.3988 7.38548 3.44718C7.37747 3.40966 7.36199 3.33463 7.35398 3.29711C7.47464 3.21171 7.63267 3.1263 7.58516 2.96142C7.33369 2.95303 7.09023 2.88047 6.83823 2.88145C6.44207 2.8622 6.05072 2.80148 5.65777 2.75606C5.54725 2.73829 5.45115 2.8 5.36572 2.85578C5.37533 2.91798 5.38494 2.98068 5.39402 3.04337C5.34116 3.07793 5.28884 3.11297 5.23545 3.14753C5.09717 3.09915 4.96209 3.18604 4.82328 3.18604C4.76775 3.15148 4.71863 3.11001 4.66845 3.06953C4.65083 3.08879 4.61559 3.1268 4.59851 3.14605C4.58996 3.10458 4.57288 3.02165 4.56434 2.98018C4.64335 2.90416 4.748 2.86368 4.85211 2.82567C4.84837 2.76149 4.8441 2.69781 4.83983 2.63463C4.7197 2.63265 4.60278 2.66079 4.48372 2.66573C4.23438 2.61636 3.9717 2.50924 3.7165 2.57638C3.57715 2.61044 3.60705 2.74274 3.6284 2.84097C3.60171 2.85479 3.54939 2.88145 3.52269 2.89527C3.29471 2.91453 3.0646 3.03745 2.83876 2.94217C2.83609 2.87257 2.83396 2.80296 2.83182 2.73385L2.8724 2.72546C2.9386 2.74422 3.01014 2.78568 3.07688 2.74175C3.2141 2.69584 3.16711 2.54774 3.16017 2.44654C3.09183 2.49788 3.08329 2.58477 3.05446 2.65684C3.05499 2.49147 3.04538 2.32609 3.04912 2.16072C3.06514 2.11037 3.08222 2.06051 3.10037 2.01114ZM3.27549 2.37694C3.23171 2.42778 3.23545 2.54034 3.31714 2.55811C3.42659 2.54281 3.378 2.33695 3.27549 2.37694ZM2.9023 2.86615C2.93006 2.89133 2.93006 2.89133 2.9023 2.86615ZM11.8169 3.63625C11.7437 3.61601 11.7133 3.51284 11.7699 3.46396C11.8783 3.40423 11.921 3.62243 11.8169 3.63625Z" fill="#781C18"/>
<path d="M4.01068 2.95353C4.11052 2.89577 4.21676 2.84739 4.32515 2.80444C4.36466 2.88639 4.4047 2.96834 4.4378 3.05374C4.45008 3.09915 4.46236 3.14556 4.47357 3.19196C4.32621 3.23984 4.18046 3.29069 4.03524 3.34401C3.95141 3.36474 3.86225 3.38449 3.7779 3.35635C3.78537 3.26107 3.79552 3.16629 3.80886 3.072C3.87613 3.03251 3.94287 2.99252 4.01068 2.95353Z" fill="#781C18"/>
<path d="M5.28564 3.19937C5.57501 3.12384 5.86759 3.21072 6.14736 3.27983C5.97651 3.34746 5.81687 3.43681 5.67112 3.54295C5.51148 3.50889 5.33529 3.46693 5.2835 3.30205C5.28404 3.27638 5.2851 3.22504 5.28564 3.19937Z" fill="#781C18"/>
<path d="M7.78964 3.72708C7.91671 3.6634 8.00587 3.55776 8.11372 3.47236C8.25734 3.44076 8.38654 3.52863 8.50721 3.58688C8.27229 3.67278 8.05926 3.79866 7.85424 3.93392C7.82915 3.8653 7.80833 3.79619 7.78964 3.72708Z" fill="#781C18"/>
<path d="M10.709 3.73202C10.8334 3.71178 10.9546 3.78039 11.0352 3.86283C11.0667 4.01537 11.0262 4.17087 10.9301 4.29725C10.6994 4.23702 10.4805 4.14619 10.2525 4.07905C10.0769 4.02673 9.97918 3.87962 9.87613 3.75078C10.1538 3.74781 10.433 3.77003 10.709 3.73202Z" fill="#781C18"/>
<path d="M20.4608 3.99958C20.5446 3.97687 20.6273 3.94626 20.716 3.94133C20.8115 3.97489 20.8687 4.06523 20.9493 4.122C21.0187 4.1847 21.1356 4.17088 21.2023 4.23604C21.2771 4.37722 21.3027 4.5347 21.3582 4.68279C21.3348 4.68329 21.2888 4.68329 21.2659 4.68378C21.2258 4.53272 21.1853 4.38265 21.1324 4.23505C21.0283 4.26862 21.0513 4.38907 21.0219 4.46855C20.9407 4.47645 20.8596 4.48484 20.779 4.49323C20.7763 4.55444 20.7736 4.61566 20.7715 4.67736C20.6583 4.6591 20.5494 4.62504 20.4405 4.59394C20.4544 4.39598 20.4506 4.19753 20.4608 3.99958Z" fill="#781C18"/>
<path d="M10.362 4.37475C10.4437 4.48138 10.5318 4.58357 10.6225 4.68378C10.5211 4.67934 10.4202 4.67736 10.3193 4.67489C10.3214 4.59887 10.3257 4.52384 10.3321 4.4488C10.3396 4.43054 10.3545 4.39351 10.362 4.37475Z" fill="#781C18"/>
<path d="M18.3951 4.67884C18.5387 4.60085 18.6807 4.52038 18.8174 4.43202C18.8185 4.46559 18.8201 4.53223 18.8206 4.5653C18.9584 4.62849 19.1014 4.59196 19.2269 4.52285L19.2654 4.5579L19.3017 4.58999L19.3091 4.5969C19.3139 4.5969 19.323 4.5964 19.3278 4.5964C19.4933 4.59295 19.6594 4.58801 19.8249 4.59887C19.8324 4.59887 19.8473 4.59937 19.8548 4.59937C19.8996 4.60035 19.9888 4.60282 20.0336 4.60381C20.0438 4.60529 20.0635 4.60825 20.0737 4.60973C20.118 4.62109 20.2056 4.64429 20.2499 4.65564C20.2584 4.65762 20.2755 4.66206 20.284 4.66453C20.4597 4.71093 20.6396 4.74252 20.8185 4.77807L20.8388 4.81756C20.5296 4.8146 20.228 4.74154 19.9194 4.73364C20.3294 4.92764 20.796 4.92616 21.2413 4.98935C21.4426 5.01304 21.6471 5.01749 21.8478 5.05056C21.7864 5.07623 21.7512 5.11968 21.7427 5.18089C21.6781 5.43907 21.7053 5.70959 21.6321 5.96679C21.4058 5.81671 21.1789 5.66714 20.9413 5.53286C20.7096 5.4287 20.4346 5.43956 20.1821 5.43018L20.149 5.4287C20.1393 5.46277 20.1196 5.53089 20.11 5.56495C19.9327 5.55458 19.7549 5.54471 19.5782 5.52892C19.5521 5.29196 19.5846 5.05353 19.5649 4.81657C19.3582 4.89408 19.3534 5.11968 19.4004 5.29048C19.3844 5.31516 19.3518 5.36453 19.3353 5.38921C19.2963 5.33145 19.1169 5.37835 19.228 5.43018C19.2536 5.42821 19.3043 5.42525 19.3294 5.42327L19.3235 5.47066C19.2605 5.46671 19.197 5.46375 19.1345 5.46178C19.1228 5.40254 19.1116 5.3433 19.1004 5.28456C18.8019 5.22828 18.4965 5.21742 18.1991 5.15867C18.2483 5.11869 18.299 5.08018 18.3508 5.04267C18.2947 5.03773 18.2456 5.02045 18.2029 4.99034C18.3059 4.94838 18.41 4.91086 18.5147 4.87334C18.4741 4.80867 18.4341 4.74401 18.3951 4.67884Z" fill="#781C18"/>
<path d="M23.4346 4.62257C23.5403 4.60628 23.6471 4.61516 23.7523 4.63392C23.5248 4.77757 23.5462 5.04711 23.5456 5.27172H23.496C23.4944 5.10042 23.5093 4.92715 23.4672 4.75931C23.4592 4.72475 23.4426 4.65663 23.4346 4.62257Z" fill="#781C18"/>
<path d="M11.7288 4.81953C11.8313 4.77116 11.9327 4.7208 12.0352 4.67292C12.1548 4.70698 12.2728 4.74598 12.3897 4.78646C12.3812 4.84175 12.3988 4.88865 12.4426 4.92666C12.2018 4.90938 11.96 4.88519 11.7288 4.81953Z" fill="#781C18"/>
<path d="M21.9477 4.94344L21.9861 4.92616C21.9995 4.99972 22.0144 5.07327 22.0294 5.14732C22.1506 5.1952 22.2691 5.25148 22.3956 5.2885C22.7752 5.38131 23.1271 5.55063 23.5099 5.63456C23.4634 5.73872 23.3775 5.81968 23.2963 5.90064C23.3033 5.93026 23.3166 5.98999 23.3235 6.01961C23.1538 6.00035 22.9802 5.90212 22.8121 5.97666C22.7336 5.92384 22.6562 5.86904 22.5761 5.81918C22.6252 5.78907 22.6754 5.75994 22.7256 5.73082C22.7475 5.75205 22.7912 5.79351 22.8131 5.81425C22.8025 5.756 22.7923 5.69774 22.7827 5.63999C22.7192 5.63308 22.6556 5.62962 22.5932 5.63999C22.5905 5.65825 22.5852 5.69478 22.5825 5.71255C22.5259 5.68491 22.4656 5.66714 22.4042 5.65331C22.3946 5.63357 22.3743 5.59408 22.3647 5.57433C22.3444 5.53286 22.3251 5.4914 22.3065 5.44993C22.22 5.43512 22.1319 5.43364 22.0448 5.44203C22.0416 5.51954 22.0384 5.59753 22.0358 5.67553C22.0059 5.67553 21.9461 5.67602 21.9162 5.67602C21.9146 5.47214 21.921 5.26826 21.9354 5.06537C21.9381 5.03477 21.9445 4.97355 21.9477 4.94344Z" fill="#781C18"/>
<path d="M22.6028 5.03872C22.63 5.06439 22.63 5.06439 22.6028 5.03872Z" fill="#781C18"/>
<path d="M20.6156 5.57779L20.6674 5.56989C20.6647 5.78216 20.6684 5.99443 20.6674 6.2067C20.6652 6.31777 20.6674 6.42934 20.6738 6.5409C20.7128 6.5493 20.7907 6.56608 20.8297 6.57447C20.7774 6.61495 20.7245 6.65543 20.6722 6.69541C20.5286 6.66777 20.3817 6.66135 20.2376 6.64013C20.2472 6.61594 20.2659 6.56805 20.275 6.54436C20.3289 6.52313 20.3828 6.5024 20.4373 6.48166C20.4431 6.45254 20.456 6.39379 20.4624 6.36417C20.4949 6.35726 20.5601 6.34245 20.5926 6.33505C20.6129 6.08279 20.5793 5.82905 20.6156 5.57779Z" fill="#781C18"/>
<path d="M21.9183 5.79154C21.9338 5.72243 21.9776 5.69824 22.0486 5.71897C22.0769 5.82955 22.0977 5.9421 22.1329 6.05169C22.158 5.9737 22.1671 5.88138 22.2563 5.8414C22.26 5.9268 22.2632 6.01269 22.2637 6.09859C22.1591 6.18893 22.0448 6.27334 21.9055 6.31234C21.8943 6.24915 21.8847 6.18597 21.8767 6.12327C21.8809 6.0122 21.8729 5.89619 21.9183 5.79154Z" fill="#781C18"/>
<path d="M23.5948 5.69774C23.8046 5.7634 24.0187 5.81721 24.2306 5.87891C24.2536 5.99196 24.2734 6.10599 24.2878 6.22052C24.055 6.32814 23.8126 6.1213 23.5718 6.11093C23.5638 5.97271 23.5376 5.83004 23.5948 5.69774Z" fill="#781C18"/>
<path d="M15.2178 0.239421C15.3241 0.202891 15.4367 0.189068 15.5499 0.182651C15.7064 0.19746 15.8644 0.193017 16.0219 0.197954C16.0619 0.230041 16.102 0.262623 16.142 0.295698C16.0876 0.337659 16.0315 0.378138 15.9733 0.41615C15.9018 0.383075 15.8302 0.350988 15.7581 0.319394C15.7923 0.449718 15.7672 0.670874 15.969 0.676304C16.094 0.630888 16.1927 0.541537 16.3006 0.469958C16.3881 0.492666 16.4757 0.515373 16.5643 0.536107C16.5168 0.403808 16.3876 0.324823 16.2792 0.23794C16.5643 0.231522 16.8441 0.292736 17.1292 0.299154C17.1511 0.363822 17.1735 0.429478 17.1959 0.495134C17.1522 0.546474 17.1084 0.598307 17.0651 0.650634C16.969 0.600775 16.8836 0.535613 16.8062 0.464034C16.7565 0.513893 16.6978 0.554372 16.6327 0.585472C16.7555 0.811071 17.0128 0.956206 17.2515 1.06283C17.3582 1.06678 17.4656 1.06925 17.5729 1.0737L17.5761 1.12405C17.3225 1.16058 17.0667 1.18131 16.8158 1.22772C16.8574 1.26178 16.9039 1.28942 16.9562 1.30966C16.9637 1.37729 16.9696 1.44492 16.9754 1.51305C16.851 1.52045 16.7266 1.52144 16.6028 1.51798C16.6108 1.45183 16.6161 1.38272 16.6684 1.33237L16.7074 1.31657C16.6514 1.25289 16.5969 1.18872 16.5435 1.12355C16.6428 1.11911 16.7427 1.11467 16.842 1.10677C16.8281 1.09443 16.7998 1.06975 16.7859 1.05741C16.559 1.03322 16.3299 1.05 16.1036 1.06876C16.1041 0.933006 16.2413 0.849082 16.3113 0.741466C16.0053 0.818969 15.6391 0.798236 15.4026 1.02482C15.394 1.00508 15.3769 0.965585 15.3679 0.946332C15.1223 0.927574 14.8772 0.903878 14.6337 0.868829C14.7176 0.73653 14.7784 0.589915 14.8847 0.469958C15.0422 0.416643 15.212 0.490691 15.3748 0.49464L15.3828 0.449223C15.3428 0.440338 15.2637 0.422566 15.2237 0.41368C15.2216 0.355429 15.2194 0.297178 15.2178 0.239421Z" fill="#40140E"/>
<path d="M16.3412 2.32313L16.3839 2.3251C16.5344 2.42532 16.7005 2.33646 16.8612 2.32165C16.8596 2.37496 16.858 2.42877 16.8558 2.48307C16.8324 2.50134 16.7854 2.53787 16.7619 2.55614C16.5649 2.56749 16.3716 2.53046 16.1789 2.50183C16.212 2.42828 16.2707 2.36756 16.3412 2.32313Z" fill="#40140E"/>
<path d="M3.7165 2.57638C3.9717 2.50924 4.23438 2.61636 4.48372 2.66573C4.60278 2.66079 4.7197 2.63265 4.83983 2.63463C4.8441 2.69781 4.84837 2.76149 4.85211 2.82567C4.748 2.86368 4.64335 2.90416 4.56434 2.98018C4.52269 3.00585 4.48051 3.03004 4.4378 3.05374C4.4047 2.96834 4.36466 2.88639 4.32515 2.80444C4.21676 2.84739 4.11052 2.89577 4.01068 2.95353C3.84784 2.93329 3.68553 2.91255 3.52269 2.89527C3.54939 2.88145 3.60171 2.85479 3.6284 2.84097C3.60705 2.74274 3.57715 2.61044 3.7165 2.57638Z" fill="#40140E"/>
<path d="M9.96903 2.56404C10.1741 2.53047 10.3796 2.55959 10.5825 2.58724C11.0198 2.62969 11.4554 2.68449 11.8927 2.72052C12.0021 2.73632 12.0945 2.67214 12.189 2.63413C12.4154 2.64006 12.6396 2.67066 12.8639 2.6988C12.8703 2.73286 12.8836 2.80099 12.8905 2.83505C12.9285 2.84393 13.0043 2.8622 13.0422 2.87109C12.9338 2.917 12.8153 2.88442 12.7032 2.87356C11.9947 2.79951 11.2872 2.71657 10.5777 2.64845C10.3743 2.62426 10.1671 2.61735 9.96903 2.56404Z" fill="#40140E"/>
<path d="M5.36572 2.85578C5.45115 2.8 5.54725 2.73829 5.65777 2.75606C6.05072 2.80148 6.44207 2.8622 6.83823 2.88145C7.09023 2.88047 7.33369 2.95303 7.58516 2.96142C7.63267 3.1263 7.47464 3.21171 7.35398 3.29711C6.99253 3.08138 6.5291 3.15148 6.14736 3.27983C5.86759 3.21072 5.57501 3.12384 5.28564 3.19937C5.27336 3.18604 5.24826 3.16037 5.23545 3.14753C5.28884 3.11297 5.34116 3.07793 5.39402 3.04337C5.38494 2.98068 5.37533 2.91798 5.36572 2.85578Z" fill="#40140E"/>
<path d="M7.82595 2.79457C8.00267 2.77729 8.19114 2.78865 8.33849 2.89182C8.24933 2.90416 8.16017 2.91551 8.07101 2.92736C8.07314 3.00931 8.16818 3.01918 8.23652 3.02955C8.57448 3.06855 8.90977 3.1347 9.252 3.13815C9.84677 3.2201 10.4442 3.29266 11.0416 3.35585C11.134 3.36869 11.2355 3.39683 11.2798 3.48174C10.976 3.43286 10.6535 3.4689 10.3663 3.35388C10.2194 3.36721 10.2221 3.53308 10.3134 3.60811C10.4704 3.59231 10.6305 3.57306 10.7875 3.60317C10.9738 3.6244 11.1789 3.70536 11.3508 3.59528C11.4127 3.70042 11.481 3.8031 11.5739 3.88702C11.5852 3.85346 11.6081 3.78632 11.6193 3.75226C11.7314 3.78138 11.6626 3.94083 11.7581 3.99415C11.9039 3.9976 12.0411 3.93096 12.1666 3.86925C12.213 3.77299 12.1954 3.66241 12.2018 3.56023C12.3743 3.40966 12.6647 3.63329 12.7955 3.4531C12.764 3.40176 12.7336 3.35092 12.7031 3.30007C12.7411 3.22948 12.7811 3.15938 12.8243 3.09126C12.9642 3.11693 13.1052 3.13667 13.2451 3.16234C13.2872 3.18258 13.3294 3.2043 13.3711 3.22652C13.3855 3.2744 13.3999 3.32278 13.4143 3.37116C13.4821 3.36671 13.5499 3.36227 13.6183 3.35832C13.6391 3.66192 13.5894 3.96798 13.6311 4.27059C13.6802 4.32884 13.7603 4.34958 13.8275 4.38364C13.8334 4.26467 13.8382 4.14619 13.851 4.0287C13.8879 4.13533 13.8916 4.24788 13.8975 4.35896C13.96 4.35501 14.023 4.35155 14.086 4.34859C14.1372 4.48681 14.1527 4.63244 14.1484 4.77807C14.0059 4.77708 13.8639 4.77116 13.7218 4.77116C13.8099 4.69859 13.9487 4.63441 13.9172 4.50508C13.6508 4.40733 13.5617 4.73265 13.323 4.73561C13.2168 4.74549 13.1121 4.76474 13.0091 4.78942C12.9984 4.7751 12.9765 4.74549 12.9658 4.73117C13.0187 4.66107 13.0779 4.59492 13.1249 4.52087C13.1148 4.42313 12.9845 4.39499 12.9114 4.34316C13.0256 4.32341 13.1361 4.29083 13.2445 4.25282C13.0198 4.2469 12.7966 4.22221 12.575 4.1847C12.465 4.16149 12.3673 4.22468 12.2718 4.26516L12.3262 4.27652C12.4314 4.40289 12.5414 4.54408 12.5499 4.70994C12.5184 4.72475 12.4554 4.75536 12.4239 4.77017L12.3897 4.78646C12.2728 4.74598 12.1548 4.70698 12.0352 4.67292C11.6556 4.57715 11.3065 4.4024 10.9301 4.29725C11.0262 4.17087 11.0667 4.01537 11.0352 3.86283C10.9546 3.78039 10.8334 3.71178 10.709 3.73202C10.433 3.77003 10.1538 3.74781 9.87613 3.75078C9.65189 3.60811 9.4079 3.46199 9.1276 3.45409C8.91351 3.45903 8.70849 3.52666 8.50721 3.58688C8.38654 3.52863 8.25734 3.44076 8.11372 3.47236C8.00587 3.55776 7.91671 3.6634 7.78964 3.72708C7.65296 3.65056 7.55205 3.52863 7.39936 3.47729L7.38548 3.44718C7.4346 3.3988 7.48372 3.35042 7.5323 3.30254C7.58729 3.36178 7.61078 3.46446 7.69674 3.48766C7.85478 3.46495 8.00694 3.41904 8.16284 3.38646C8.15857 3.27983 8.15109 3.17369 8.14202 3.06756C8.06033 3.06509 7.97757 3.07891 7.89589 3.06953C7.87827 2.97623 7.88254 2.878 7.82595 2.79457Z" fill="#40140E"/>
<path d="M17.0934 3.17271C17.2264 3.15346 17.3593 3.13322 17.4901 3.10409C17.4896 3.13025 17.4885 3.18258 17.488 3.20825C17.6391 3.20134 17.7891 3.17567 17.9407 3.17221C18.0641 3.20825 18.1783 3.27391 18.3139 3.2665C18.3171 3.31735 18.323 3.3677 18.3321 3.41855C18.2862 3.38152 18.2429 3.34203 18.2002 3.30303C17.8286 3.28773 17.4586 3.23441 17.0934 3.17271Z" fill="#40140E"/>
<path d="M14.866 3.29118C14.9311 3.68759 14.8446 4.10176 14.9269 4.50014C15.1111 4.5653 15.2595 4.41276 15.4335 4.38709C15.4362 4.5263 15.4132 4.66403 15.4047 4.80275L15.3556 4.7993C15.1671 4.7598 15.0123 4.89457 14.858 4.97158C14.8019 4.83089 14.6967 4.67341 14.7864 4.52581C14.8649 4.37821 14.8671 4.21185 14.8361 4.05289C14.6156 4.0055 14.3935 3.9433 14.165 3.95959C14.2413 3.83272 14.2637 3.68956 14.2216 3.54887C14.3022 3.47532 14.4106 3.4146 14.528 3.43434C14.6572 3.42891 14.6973 3.56072 14.7731 3.6318C14.7411 3.63723 14.6765 3.64809 14.6444 3.65353C14.6391 3.73597 14.6369 3.8189 14.638 3.90233C14.6925 3.88999 14.7464 3.87666 14.8003 3.86234C14.7597 3.81347 14.7218 3.7641 14.6882 3.71227C14.7266 3.70092 14.8041 3.67771 14.8425 3.66636C14.8607 3.54147 14.8585 3.41608 14.866 3.29118Z" fill="#40140E"/>
<path d="M16.0224 3.92652C16.291 3.93096 16.5558 3.97835 16.8238 3.99908C16.7528 4.04252 16.6861 4.10275 16.598 4.11312C16.4544 4.08547 16.3182 4.03314 16.1767 3.99958C16.1596 4.16001 16.11 4.33082 16.1821 4.48582C16.3166 4.41573 16.4111 4.30021 16.5152 4.19852C16.5739 4.21234 16.6311 4.23061 16.6871 4.25233C16.6983 4.34365 16.7106 4.43547 16.7224 4.52779C16.7565 4.4799 16.7907 4.43251 16.8254 4.38561C16.8308 4.50952 16.8292 4.63491 16.8057 4.75783C16.6524 4.82546 16.4896 4.89506 16.41 5.04316C16.2675 5.07031 16.1105 5.0866 16.0182 5.20409C15.9108 5.18138 15.8019 5.16608 15.6925 5.15473C15.8292 5.05303 16.0139 4.96911 16.0117 4.783C15.9242 4.76178 15.8345 4.75536 15.7453 4.75487C15.7544 4.70155 15.764 4.64824 15.7742 4.59542C15.8452 4.44288 15.8382 4.27503 15.8548 4.11361C15.9664 4.14175 16.0817 4.12348 16.1271 4.01389C16.1009 3.99217 16.0486 3.94824 16.0224 3.92652Z" fill="#40140E"/>
<path d="M18.3139 4.03858C18.441 4.03265 18.5665 4.0519 18.6861 4.09189C18.6546 4.12546 18.6236 4.15853 18.5921 4.1921C18.5681 4.20592 18.5206 4.23357 18.4971 4.24739C18.4939 4.28738 18.4907 4.32786 18.488 4.36834C18.3566 4.433 18.2253 4.49817 18.0961 4.56629C18.0892 4.54753 18.0758 4.51001 18.0689 4.49125C18.0918 4.472 18.1377 4.43399 18.1607 4.41474C18.2285 4.39104 18.2963 4.36636 18.3615 4.33625C18.3369 4.23801 18.3214 4.13829 18.3139 4.03858Z" fill="#40140E"/>
<path d="M6.55045 4.16495C6.75868 4.07214 7.00854 4.42116 6.79445 4.54161C6.67272 4.61961 6.51735 4.53667 6.41057 4.47052C6.40096 4.35353 6.47411 4.25134 6.55045 4.16495Z" fill="#40140E"/>
<path d="M17.1564 4.2469C17.2771 4.26714 17.394 4.30219 17.5067 4.34711C17.5307 4.50212 17.5376 4.66008 17.5125 4.81559C17.3807 4.82842 17.2584 4.8768 17.1393 4.92814C17.142 4.70106 17.0908 4.46954 17.1564 4.2469Z" fill="#40140E"/>
<path d="M8.81153 4.51446C8.93593 4.48089 9.09931 4.47447 9.16231 4.60331C9.17619 4.69662 9.20075 4.80522 9.14949 4.8921C9.00534 4.95381 8.82702 4.90642 8.70796 4.81608C8.70689 4.70698 8.77736 4.61516 8.81153 4.51446Z" fill="#40140E"/>
<path d="M19.4004 5.29048C19.3534 5.11968 19.3582 4.89408 19.5649 4.81657C19.5846 5.05353 19.5521 5.29196 19.5782 5.52892C19.4933 5.50966 19.409 5.48695 19.3235 5.47066L19.3294 5.42327L19.3353 5.38921C19.3518 5.36453 19.3844 5.31516 19.4004 5.29048Z" fill="#40140E"/>
<path d="M21.7427 5.18089C21.7512 5.11968 21.7864 5.07623 21.8478 5.05056C21.8697 5.05451 21.9135 5.06142 21.9354 5.06537C21.921 5.26826 21.9146 5.47214 21.9162 5.67602C21.9461 5.67602 22.0059 5.67553 22.0358 5.67553C22.0384 5.59753 22.0416 5.51954 22.0448 5.44203C22.1319 5.43364 22.22 5.43512 22.3065 5.44993C22.3251 5.4914 22.3444 5.53286 22.3647 5.57433C22.2798 5.59013 22.1959 5.61086 22.1132 5.63307C22.1751 5.7402 22.3129 5.69527 22.4042 5.65331C22.4656 5.66714 22.5259 5.68491 22.5825 5.71255C22.5809 5.73921 22.5777 5.79252 22.5761 5.81918C22.4768 5.79993 22.3775 5.78512 22.2787 5.76883C22.2728 5.7871 22.2616 5.82313 22.2563 5.8414C22.1671 5.88138 22.158 5.9737 22.1329 6.05169C22.0977 5.9421 22.0769 5.82955 22.0486 5.71897C21.9776 5.69824 21.9338 5.72243 21.9183 5.79154C21.8729 5.89619 21.8809 6.0122 21.8767 6.12327C21.7923 6.07391 21.7117 6.02109 21.6321 5.96679C21.7053 5.70959 21.6781 5.43907 21.7427 5.18089Z" fill="#40140E"/>
<path d="M20.1821 5.43018C20.4346 5.43956 20.7096 5.4287 20.9413 5.53286C20.85 5.54619 20.7581 5.55755 20.6674 5.56989L20.6156 5.57779C20.5793 5.82905 20.6129 6.08279 20.5926 6.33505C20.5601 6.34245 20.4949 6.35726 20.4624 6.36417C20.4602 6.32616 20.4554 6.24965 20.4533 6.21164C20.4447 5.98554 20.465 5.75896 20.4463 5.53286C20.3497 5.51756 20.2531 5.49633 20.1821 5.43018Z" fill="#40140E"/>
<path d="M22.8687 6.07292C22.8959 6.09859 22.8959 6.09859 22.8687 6.07292Z" fill="#40140E"/>
<path d="M1.76295 3.00042C2.07742 3.00092 2.37961 3.09175 2.68713 3.14013C3.04965 3.21516 3.42018 3.26008 3.7779 3.35635C3.86225 3.38449 3.95141 3.36474 4.03524 3.34401C4.16498 3.39386 4.29899 3.44471 4.44207 3.43977C4.51148 3.31488 4.65457 3.22997 4.8078 3.2354C4.96743 3.25169 5.12387 3.28724 5.2835 3.30205C5.33529 3.46693 5.51148 3.50889 5.67112 3.54295C5.46022 3.74979 5.3716 4.04006 5.37106 4.31946C5.38815 4.54161 5.47037 4.75635 5.57768 4.9543C5.71169 5.1957 5.96423 5.34725 6.19754 5.49831C5.95782 5.51558 5.73091 5.43463 5.50828 5.36551C5.25841 5.28357 5.01014 5.18434 4.79872 5.03427C4.72664 4.98935 4.66204 4.88568 4.74266 4.81953C4.87026 4.73709 5.02189 4.69513 5.1575 4.62553C4.9685 4.56876 4.76775 4.55494 4.57982 4.49323C4.27496 4.36389 3.98345 4.66354 3.67165 4.55642C3.66418 4.49767 3.65617 4.43991 3.64869 4.38216C3.47304 4.39598 3.31233 4.46558 3.14255 4.50261C3.07581 4.52334 3.02883 4.46164 2.97864 4.43448C3.07048 4.37228 3.16551 4.31354 3.25948 4.25381C3.06567 4.21678 2.85852 4.15853 2.66471 4.22715C2.45809 4.2933 2.23118 4.37821 2.01602 4.28738C2.04325 4.19309 2.03257 4.09633 2 4.00451C2.08275 3.99563 2.16604 3.98625 2.2488 3.97588C2.08649 3.8658 1.88147 3.84753 1.69194 3.80557C1.26695 3.72313 0.8441 3.63378 0.41858 3.5543C0.278163 3.5237 0.122264 3.52666 0 3.44817C0.267485 3.43385 0.524293 3.51481 0.783769 3.56269C1.4063 3.67031 2.01975 3.82186 2.64656 3.90776C2.77042 3.92701 2.88574 3.87271 2.98772 3.81396C2.39616 3.61305 1.76508 3.55776 1.15643 3.41855C1.00427 3.37461 0.82488 3.38893 0.695141 3.29563C0.979178 3.29415 1.2536 3.37362 1.5307 3.422C2.12066 3.54591 2.71543 3.65106 3.3102 3.75275C3.4047 3.76509 3.51628 3.78188 3.58569 3.70487C3.33743 3.58886 3.06193 3.53801 2.79231 3.48322C2.31821 3.39386 1.84463 3.30106 1.36893 3.21911C1.29952 3.20924 1.23545 3.18307 1.17459 3.15296C1.30646 3.14951 1.43833 3.16234 1.567 3.18752C2.17726 3.30204 2.78324 3.4378 3.39883 3.52616C3.59156 3.55677 3.82541 3.6555 3.98185 3.49111C3.88681 3.44915 3.78857 3.41312 3.68553 3.39189C3.1591 3.28131 2.63001 3.18159 2.09984 3.0873C1.98719 3.06213 1.85798 3.07003 1.76295 3.00042Z" fill="black" fill-opacity="0.32"/>
<path d="M10.1618 4.14076C10.1847 4.12546 10.2296 4.09436 10.2525 4.07905C10.2899 4.17729 10.3278 4.27553 10.362 4.37475C10.3545 4.39351 10.3396 4.43054 10.3321 4.4488C10.2782 4.34464 10.2205 4.24245 10.1618 4.14076Z" fill="black"/>
<path d="M10.3193 4.67489C10.4202 4.67736 10.5211 4.67934 10.6225 4.68378C10.8051 4.74697 10.9802 4.83582 11.1746 4.86594C11.3609 4.89753 11.5456 4.84669 11.7288 4.81953C11.96 4.88519 12.2018 4.90938 12.4426 4.92666C12.4752 4.91234 12.5403 4.88322 12.5729 4.8689C12.7443 4.90346 12.9151 4.94591 13.0902 4.96566C13.3182 4.97158 13.5254 4.86594 13.7218 4.77116C13.8639 4.77116 14.0059 4.77708 14.1484 4.77807C14.1474 4.88667 14.1543 4.99527 14.1666 5.10338C14.3476 5.25345 14.5953 5.28258 14.8286 5.26629C14.8484 5.19076 14.8687 5.11622 14.8889 5.04168C15.0593 4.98738 15.2173 4.90642 15.3556 4.7993L15.4047 4.80275C15.4234 4.92616 15.4394 5.05007 15.4447 5.17496C15.512 5.17003 15.5798 5.1646 15.6476 5.15868L15.6925 5.15473C15.8019 5.16608 15.9108 5.18138 16.0182 5.20409C16.4885 5.32454 16.9899 5.29393 17.4581 5.42426C17.5019 5.49386 17.5462 5.56347 17.59 5.63307C17.5739 5.68984 17.5579 5.74711 17.5419 5.80437C17.7576 5.81079 17.9728 5.83152 18.1869 5.86164C18.1655 5.79647 18.1447 5.73181 18.1244 5.66763C18.3534 5.58914 18.5932 5.69725 18.8206 5.73674C18.9156 6.07934 19.3785 6.0823 19.6882 6.06798C19.6647 6.09711 19.6418 6.12623 19.6188 6.15635C19.897 6.07687 20.1847 6.12722 20.4533 6.21164C20.4554 6.24965 20.4602 6.32616 20.4624 6.36417C20.456 6.39379 20.4431 6.45254 20.4373 6.48166C20.3828 6.5024 20.3289 6.52313 20.275 6.54436C20.2659 6.56805 20.2472 6.61594 20.2376 6.64013C19.7539 6.38738 19.181 6.31826 18.6327 6.32567C18.3241 6.32912 18.0363 6.21904 17.7421 6.14943C17.3011 6.06699 16.8254 5.96728 16.394 6.1445C16.4458 6.1988 16.4976 6.2536 16.5494 6.30839C16.2883 6.50684 15.9365 6.20127 15.6684 6.37948C15.5045 6.46833 15.3289 6.60508 15.1255 6.54485C14.8783 6.45846 14.6717 6.29506 14.4186 6.22052C14.2926 6.26742 14.1725 6.32764 14.0416 6.36269C13.8532 6.37602 13.685 6.22941 13.4933 6.28322C13.1159 6.34986 12.7053 6.31678 12.3727 6.12722C12.1111 5.96975 11.7854 5.97567 11.5125 5.8414C11.1965 5.75797 10.9226 5.58568 10.6172 5.47708C10.4303 5.37934 10.2296 5.55014 10.0331 5.4756C10.1191 5.367 10.2077 5.2574 10.2653 5.133C10.3241 4.98688 10.3102 4.82743 10.3193 4.67489Z" fill="black" fill-opacity="0.26"/>
<path d="M13.323 4.73561C13.2168 4.74549 13.1121 4.76474 13.0091 4.78942C13.0961 4.85804 13.3033 4.87038 13.323 4.73561Z" fill="black"/>
<path d="M6.72237 5.55212C7.07955 5.43759 7.45809 5.33886 7.72984 5.07969C7.83235 5.24901 7.89963 5.44203 8.05713 5.57779C8.21356 5.7481 8.45168 5.81869 8.66364 5.91051C8.19114 5.9031 7.7496 5.73032 7.32141 5.56248C7.13134 5.47116 6.92258 5.56742 6.72237 5.55212Z" fill="black"/>
<path d="M20.6674 6.2067C21.0123 6.21262 21.3022 6.40959 21.6396 6.45007C21.913 6.48512 22.1591 6.60853 22.4282 6.65839C22.7427 6.70973 23.0363 6.83068 23.3348 6.93089C23.2541 6.92793 23.1735 6.92447 23.0929 6.92151C23.0673 6.94126 23.0166 6.98025 22.9909 7H22.8783C22.6759 6.92497 22.4624 6.8677 22.2424 6.88103C21.9253 6.90275 21.6327 6.75169 21.3187 6.7433C21.2088 6.75367 21.1046 6.80402 20.9936 6.79958C20.8815 6.77884 20.7784 6.73096 20.6722 6.69541C20.7245 6.65543 20.7774 6.61495 20.8297 6.57447C20.7907 6.56608 20.7128 6.5493 20.6738 6.5409C20.6674 6.42934 20.6652 6.31777 20.6674 6.2067Z" fill="black" fill-opacity="0.14"/>
</svg>
