<svg width="980" height="974" viewBox="0 0 980 974" fill="none" xmlns="http://www.w3.org/2000/svg">
<path d="M763.91 2.66199C774.491 1.79573 785.127 -1.20286 795.775 0.529653C786.419 4.56775 794.669 25.4113 793.216 35.3266C851.324 55.0907 910.177 73.1888 968.804 91.5002C959.715 112.73 967.058 141.103 963.18 164.652C962.993 194.412 958.902 224.771 960.914 254.277C953.718 254.13 946.561 254.37 939.417 253.784C942.736 201.169 942.029 148.3 946.334 95.7115C899.529 79.186 851.15 66.6186 803.772 51.479C811.142 42.1901 791.151 32.2481 790.924 42.923C788.485 274.841 785.606 506.731 783.048 738.636C778.396 779.816 787.432 819.051 788.752 859.765C780.396 865.442 770.093 860.871 761.084 863.044C766.468 857.913 778.676 851.729 773.892 843.386C766.615 845.705 755.953 840.694 750.249 847.291C752.515 853.781 750.849 864.976 761.084 863.044C758.605 875.771 744.092 869.374 740.427 860.911C728.086 864.043 714.638 867.428 702.95 873.106C701.698 883.647 687.704 886.739 680.494 879.742C674.67 873.332 673.657 884.873 667.393 883.821C620.121 888.552 573.569 904.291 527.389 916.099C495.47 920.936 464.498 935.423 431.739 932.837C375.271 923.015 317.457 909.702 262.868 895.255C265.561 893.669 269.159 892.536 269.559 888.951C277.502 890.99 286.924 888.298 284.379 877.49C289.63 888.312 303.477 886.206 313.059 889.911C343.539 893.256 379.709 909.595 406.457 887.192C413.281 884.18 399.007 873.439 413.067 877.677C422.197 877.877 431.619 874.851 440.535 877.677C436.43 880.742 419.611 877.583 421.917 885.073C442.787 889.565 464.751 884.727 484.155 877.01C512.583 872.213 541.436 864.456 568.104 853.941C620.721 839.428 673.31 824.795 726.113 810.975C736.429 805.044 755.1 808.523 761.537 798.274C762.697 787.546 762.817 776.684 762.15 765.929C746.651 768.208 732.364 775.192 717.024 778.137C717.864 777.151 718.717 776.191 719.583 775.245C733.657 770.767 748.263 767.875 762.137 762.811C762.63 750.91 762.31 738.995 762.257 727.108C759.885 716.153 766.815 703.452 761.404 693.39C760.738 662.791 765.735 631.299 760.858 601.14C747.864 606.898 771.919 588.879 762.91 581.576C764.296 565.85 763.19 550.071 763.936 534.345C763.656 519.712 769.52 502.213 760.938 489.126L762.27 488.847C767.761 485.941 766.935 472.494 761.124 467.816C762.897 467.23 765.482 467.217 764.962 464.631C765.309 432.793 764.509 400.928 765.296 369.089C767.428 341.423 766.029 313.609 766.055 285.875C766.908 258.981 765.735 232.061 766.628 205.167C768.747 177.5 767.388 149.686 767.388 121.953C765.229 88.6349 774.998 52.132 758.419 22.6126C765.922 18.5212 763.803 10.0319 763.91 2.66199Z" fill="#22472C"/>
<path d="M793.216 35.3266C794.669 25.4113 786.419 4.56775 795.775 0.529653C852.243 21.4265 909.124 41.2972 965.899 61.3944C986.849 62.9803 977.947 88.2884 974.282 101.029C971.963 151.925 969.43 202.848 969.004 253.797C966.299 253.97 963.606 254.13 960.914 254.277C958.902 224.771 962.993 194.412 963.18 164.652C967.058 141.103 959.715 112.73 968.804 91.5002C910.177 73.1888 851.324 55.0907 793.216 35.3266Z" fill="#3C6D4C"/>
<path d="M790.924 42.923C791.151 32.2481 811.142 42.1901 803.772 51.479C803.652 58.9555 803.532 66.4453 803.345 73.9218C801.506 90.9671 802.319 108.119 802.586 125.231C802.092 141.437 802.506 157.656 802.026 173.875C800.133 190.92 801.053 208.085 801.213 225.184C799.92 231.154 799.747 237.805 806.89 238.378C806.69 238.897 806.291 239.924 806.091 240.43C796.868 245.868 802.226 262.606 800.986 272.788C811.315 279.318 832.119 273.734 846.619 275.6C846.153 275.867 845.193 276.413 844.727 276.68C829.707 277.293 814.66 276.213 799.667 277C801.999 365.838 797.374 454.676 796.935 543.554C802.066 536.717 811.808 531.746 810.569 521.938C819.991 537.344 795.136 544.647 797.041 559.387C797.721 594.997 795.789 630.553 795.722 666.15C796.548 677.078 791.924 688.766 795.362 699.401C798.974 706.517 803.079 713.514 808.689 719.258C806.024 725.295 798.841 718.285 794.496 720.884C794.309 726.002 794.283 731.146 794.403 736.303C796.655 740.848 789.538 754.895 798.041 753.788C794.656 756.201 791.124 773.219 795.735 782.015C812.235 775.631 828.027 766.542 844.087 759.599C845.766 737.223 838.169 713.621 844.78 691.258C848.032 690.378 851.284 689.499 854.562 688.659C858.454 733.038 854.136 777.417 851.47 821.743C851.537 825.755 841.901 825.661 846.606 829.513C852.736 834.817 853.989 856.58 843.114 847.771C836.757 844.132 841.115 835.656 840.635 829.713C829.054 836.936 813.247 842.147 806.131 853.395C799.387 851.529 794.229 856.727 788.752 859.765C787.432 819.051 778.396 779.816 783.048 738.636C785.606 506.731 788.485 274.841 790.924 42.923ZM800.946 812.507C806.157 817.025 802.945 824.235 805.238 829.766C811.568 830.459 809.729 819.957 811.621 816.372C811.675 815.799 811.808 814.68 811.861 814.12C814.46 809.136 816.553 801.699 814.207 796.662C808.17 800.366 795.802 802.899 800.946 812.507Z" fill="#386745"/>
<path d="M803.345 73.9218C801.506 90.9671 802.319 108.119 802.586 125.231C804.425 108.186 803.625 91.0204 803.345 73.9218Z" fill="#203728"/>
<path d="M766.628 205.167C766.562 177.446 765.202 149.62 767.388 121.953C767.388 149.686 768.747 177.5 766.628 205.167Z" fill="#101C13"/>
<path d="M802.026 173.875C800.133 190.92 801.053 208.085 801.213 225.184C803.159 208.139 802.252 190.973 802.026 173.875Z" fill="#203727"/>
<path d="M825.202 239.137C824.482 228.516 856.961 223.785 856.455 238.538C855.255 223.118 868.196 233.114 874.26 235.832L874.06 236.699C852.59 243.215 828.454 242.229 806.091 240.43C806.291 239.924 806.69 238.897 806.89 238.378C810.262 232.807 826.681 225.584 825.202 239.137Z" fill="#494C4E"/>
<path d="M874.26 235.832C875.446 229.835 882.15 230.941 886.814 231.981C886.281 245.095 885.788 258.235 886.388 271.362C897.983 271.642 909.644 271.136 921.225 272.548C909.417 272.788 897.623 272.628 885.841 272.961C890.226 274.467 894.917 275.227 899.888 275.254C882.123 275.667 864.371 275.307 846.619 275.6C832.119 273.734 811.315 279.318 800.986 272.788C822.537 273.574 844.113 273.188 865.664 272.268C866.224 265.658 865.864 258.968 867.21 252.451C870.075 258.355 861.865 275.96 873.86 272.762C874.38 260.821 877.858 248.346 874.06 236.699L874.26 235.832Z" fill="#A5A7A5"/>
<path d="M806.091 240.43C828.454 242.229 852.59 243.215 874.06 236.699C877.858 248.346 874.38 260.821 873.86 272.762C861.865 275.96 870.075 258.355 867.21 252.451C859.653 243.495 839.382 254.024 828.814 245.388C822.617 249.639 813.407 250.319 808.823 243.469C805.971 250.039 806.077 245.214 806.091 240.43Z" fill="#080909"/>
<path d="M800.986 272.788C802.226 262.606 796.868 245.868 806.091 240.43C806.077 245.214 805.971 250.039 808.823 243.469C813.407 250.319 822.617 249.639 828.814 245.388C839.382 254.024 859.653 243.495 867.21 252.451C865.864 258.968 866.224 265.658 865.664 272.268C844.113 273.188 822.537 273.574 800.986 272.788Z" fill="#E4E5E5"/>
<path d="M935.566 272.788C937.365 266.631 934.579 258.102 939.417 253.784C946.561 254.37 953.718 254.13 960.914 254.277C957.183 351.684 955.223 448.745 950.239 546.033C949.999 568.849 948.213 591.838 949.972 614.454C947.813 615.014 945.601 614.201 943.455 614.081C938.138 613.375 932.793 613.148 927.463 613.001C921.852 611.002 926.703 602.38 924.691 598.355C925.224 591.172 925.89 584.028 926.396 576.872C930.221 576.339 934.206 575.912 937.671 574.046C919.613 571.088 900.648 573.807 882.35 573.94C888.56 567.516 907.512 573.167 918.2 570.022C924.291 575.312 932.207 561.026 919.933 565.61C906.072 560.439 893.984 569.009 880.364 569.515C872.98 581.123 885.135 577.685 891.892 578.191C891.359 578.498 890.293 579.124 889.76 579.43C874.486 571.914 882.976 592.984 870.088 587.48C868.876 576.965 868.036 566.25 869.222 555.722C883.976 549.365 900.008 546.686 915.122 541.462C914.242 525.976 927.289 499.042 906.126 494.777C910.897 464.631 908.658 433.952 910.537 403.553C915.748 380.338 914.442 355.949 915.082 332.307C919.4 322.898 911.27 309.184 900.142 311.956C885.748 316.847 874.46 330.508 877.725 346.18C874.193 391.506 880.83 437.191 876.872 482.316C876.272 482.21 875.06 481.996 874.446 481.903C862.292 468.389 881.07 438.204 867.636 427.169C868.876 396.423 868.303 365.465 869.395 334.612C872.794 318.193 891.852 314.942 902.727 304.893C893.664 296.497 867.21 315.235 868.369 293.845C882.976 289.607 898.942 288.967 913.895 291.913C918.08 298.749 934.633 286.102 930.301 299.469C928.356 385.908 925.224 472.414 921.679 558.827C925.09 559.493 930.408 561.132 926.476 552.75C930.155 460.686 932.913 368.556 935.845 276.466C939.87 276.107 949.199 281.557 947.6 274.241C947.174 269.91 938.857 273.974 935.566 272.788Z" fill="#A5A7A6"/>
<path d="M960.914 254.277C963.606 254.13 966.299 253.97 969.004 253.797C979.866 259.155 965.912 278.759 972.642 285.622C979.173 281.597 983.184 292.406 976.72 294.005C979.119 283.836 969.35 290.606 965.312 288.208C959.515 297.03 973.042 292.179 970.457 299.669C970.217 305.706 970.123 311.743 969.977 317.807C969.31 323.751 969.071 329.761 969.124 335.759C968.897 341.316 968.804 346.873 968.644 352.457C967.964 358.401 967.738 364.412 967.791 370.409C967.551 375.966 967.498 381.537 967.285 387.134C966.792 392.625 966.552 398.156 966.472 403.713C966.219 409.271 966.139 414.828 965.979 420.425C965.312 426.356 965.072 432.38 965.126 438.377C964.899 443.934 964.806 449.478 964.646 455.076C963.98 461.006 963.74 467.03 963.793 473.027C963.566 478.585 963.473 484.129 963.313 489.726C962.647 495.657 962.407 501.68 962.46 507.678C962.234 513.235 962.14 518.779 961.98 524.376C961.314 530.307 961.074 536.331 961.127 542.328C960.901 547.885 960.821 553.429 960.661 559.027C960.035 564.877 959.262 570.861 959.915 576.778C960.474 577.112 961.607 577.765 962.18 578.085C960.381 581.923 956.05 579.431 952.865 579.524C951.465 584.348 955.143 587.627 959.448 584.735C959.408 587.28 959.382 589.839 959.342 592.398C958.582 598.262 958.435 604.232 958.475 610.176C957.143 611.162 955.717 611.989 954.317 612.855C952.865 613.415 951.425 613.948 949.972 614.454C948.213 591.838 949.999 568.849 950.239 546.033C955.223 448.745 957.183 351.684 960.914 254.277Z" fill="#F0F1F1"/>
<path d="M885.841 272.961C897.623 272.628 909.417 272.788 921.225 272.548C926.01 272.842 930.728 272.788 935.566 272.788C938.857 273.974 947.174 269.91 947.6 274.241C949.199 281.557 939.87 276.107 935.845 276.466C923.918 274.827 911.856 275.654 899.888 275.254C894.917 275.227 890.226 274.467 885.841 272.961Z" fill="#E2E3E2"/>
<path d="M846.619 275.6C864.371 275.307 882.123 275.667 899.888 275.254C911.856 275.654 923.918 274.827 935.845 276.466C932.913 368.556 930.155 460.686 926.476 552.75C930.408 561.132 925.09 559.493 921.679 558.827C925.224 472.414 928.356 385.908 930.301 299.469C934.633 286.102 918.08 298.749 913.895 291.913C908.205 288.874 892.705 282.717 910.004 281.611C904.686 274.174 883.216 279.558 873.114 278.492C871.608 283.93 887.667 278.959 882.123 288.234C872.514 291.3 862.372 291.926 852.603 293.885C850.884 336.678 851.164 379.791 849.658 422.651C850.071 428.781 844.14 427.369 839.662 427.369C839.662 379.365 840.875 331.401 842.208 283.423C841.928 280.824 842.994 278.532 844.727 276.68C845.193 276.413 846.153 275.867 846.619 275.6Z" fill="#060706"/>
<path d="M799.667 277C814.66 276.213 829.707 277.293 844.727 276.68C842.994 278.532 841.928 280.824 842.208 283.423C840.875 331.401 839.662 379.365 839.662 427.369C839.049 427.409 837.81 427.475 837.197 427.502C818.578 423.89 823.629 444.947 822.057 456.822C809.782 451.277 819.391 431.713 819.471 420.705C818.272 388.76 820.617 356.935 820.524 325.097C813.674 310.211 824.322 293.565 815.873 279.252C815.126 278.839 813.647 278.012 812.901 277.586C805.104 290.58 816.846 306.492 805.517 318.66C804.131 362.546 804.171 407.152 804.025 451.317C807.13 459.42 793.976 469.522 807.49 468.749C808.916 478.038 804.998 490.073 809.276 498.202C815.593 503.453 815.793 496.27 814.353 491.299C835.637 500.601 837.13 528.041 843.487 547.552C852.177 576.632 850.244 608.99 859.4 637.243C858.174 606.391 863.092 573.473 850.351 544.687C845.326 520.432 835.544 487.554 810.355 480.584C810.342 479.957 810.315 478.691 810.302 478.065C819.151 481.983 815.206 476.052 814.14 470.122C832.865 472.774 844.846 490.299 850.71 506.931C863.851 553.789 863.705 603.059 863.651 651.317C862.958 718.485 858.214 785.507 854.349 852.542C853.189 860.525 855.682 870.134 850.524 877.01C841.435 867.362 843.62 887.152 841.608 892.03C836.09 901.492 866.357 900.919 848.058 901.092C838.969 898.2 836.184 911.221 838.316 917.645C843.287 921.923 852.603 922.282 857.001 917.258C863.745 929.412 842.034 922.136 836.943 924.615C839.182 935.116 829.64 948.297 838.423 956.653C835.304 956.346 832.265 955.587 829.227 954.907C818.205 951.829 806.677 950.882 795.868 947.097C808.529 945.885 787.859 940.034 793.123 932.558C795.709 922.882 783.687 893.323 804.825 900.693C804.465 914.553 805.624 928.759 805.464 942.486C801.319 950.416 813.674 949.19 814.167 941.62C812.221 914.353 818.672 886.579 814.194 859.592C803.678 863.63 787.779 866.309 789.525 881.222C776.477 879.396 765.082 885.446 752.954 888.592C747.144 889.871 757.259 895.975 750.676 898.24C735.296 910.821 714.892 918.044 703.244 934.943C701.191 934.717 697.073 934.263 695.021 934.037C706.789 916.245 729.312 907.196 744.545 895.428C722.395 884.447 692.328 890.297 667.393 883.821C673.657 884.873 674.67 873.332 680.494 879.742C687.704 886.739 701.698 883.647 702.95 873.106C714.638 867.428 728.086 864.043 740.427 860.911C744.092 869.374 758.605 875.771 761.084 863.044C770.093 860.871 780.396 865.442 788.752 859.765C794.229 856.727 799.387 851.529 806.131 853.395C813.247 842.147 829.054 836.936 840.635 829.713C841.115 835.656 836.757 844.132 843.114 847.771C853.989 856.58 852.736 834.817 846.606 829.513C841.901 825.661 851.537 825.755 851.47 821.743C854.136 777.417 858.454 733.038 854.562 688.659C853.962 663.178 851.737 637.55 848.645 612.202C843.714 636.95 846.846 665.283 844.78 691.258C838.169 713.621 845.766 737.223 844.087 759.599C828.027 766.542 812.235 775.631 795.735 782.015C791.124 773.219 794.656 756.201 798.041 753.788C807.77 751.27 796.068 741.261 794.403 736.303C794.283 731.146 794.309 726.002 794.496 720.884C798.841 718.285 806.024 725.295 808.689 719.258C809.023 716.193 811.595 716.006 814.1 715.94C812.994 702.346 810.888 688.846 809.862 675.252C803.132 681.889 793.563 688.499 795.362 699.401C791.924 688.766 796.548 677.078 795.722 666.15C803.865 658.487 812.874 651.756 821.857 645.253C824.336 610.536 821.31 575.766 819.111 541.129C815.246 533.212 821.097 523.23 813.86 517.087C814.42 511.716 814.434 502.347 807.757 500.961C808.09 507.957 807.69 515.367 810.569 521.938C811.808 531.746 802.066 536.717 796.935 543.554C797.374 454.676 801.999 365.838 799.667 277ZM808.703 722.07C810.462 726.295 811.941 731.226 815.553 734.144C817.112 727.907 815.633 722.337 808.703 722.07Z" fill="#1E3023"/>
<path d="M805.517 318.66C816.846 306.492 805.104 290.58 812.901 277.586C812.048 333.746 812.408 389.933 810.129 446.08C811.875 448.012 807.277 459.807 813.74 456.075C814.327 397.143 815.873 338.211 815.873 279.252C824.322 293.565 813.674 310.211 820.524 325.097C820.617 356.935 818.272 388.76 819.471 420.705C819.391 431.713 809.782 451.277 822.057 456.822C823.629 444.947 818.578 423.89 837.197 427.502C826.375 431.807 842.834 429.368 847.112 429.741C849.698 447.439 848.058 465.458 846.352 483.169C856.041 487.527 865.504 492.991 875.873 495.537C867.196 494.071 862.572 476.945 874.446 481.903C875.06 481.996 876.272 482.21 876.872 482.316C880.297 483.796 883.722 485.261 887.241 486.528C892.159 488.926 897.17 491.152 902.247 493.244C903.527 493.764 904.82 494.284 906.126 494.777C927.289 499.042 914.242 525.976 915.122 541.462C900.008 546.686 883.976 549.365 869.222 555.722C868.036 566.25 868.876 576.965 870.088 587.48C870.848 605.085 869.529 622.744 870.515 640.335C887.827 641.535 905.019 643.96 922.278 645.693C931.607 637.923 926.663 623.716 927.463 613.001C932.793 613.148 938.138 613.375 943.455 614.081C949.932 647.945 944.602 685.887 944.735 721.617C936.525 723.709 927.596 723.443 920.572 718.272C922.905 699.214 921.812 679.957 923.424 660.846C914.922 659.553 906.352 658.527 897.756 658.313C897.689 673.373 879.351 664.91 870.448 666.043C869.782 688.259 869.236 710.515 867.636 732.678C883.869 729 899.635 723.323 915.828 719.378C910.27 734.011 888.88 731.799 878.231 741.874C874.34 744.646 864.944 746.139 867.41 752.749C872.98 771.66 862.385 793.85 871.541 811.561C883.949 808.309 864.717 784.294 880.91 787.173C884.962 787.346 885.375 782.028 887.534 779.483C894.491 776.977 902.221 768.315 909.151 776.351C913.229 784.534 904.726 780.682 899.355 779.603C902.647 784.094 903.26 789.811 906.179 794.489C908.858 789.692 913.029 786.826 918.107 785.067C927.196 802.326 940.03 817.252 950.186 833.871C944.295 837.816 940.35 846.985 932.34 842.427C910.11 847.171 902.047 872.852 879.884 880.182C874.486 867.108 868.942 865.976 871.728 881.115C871.341 881.875 870.568 883.394 870.195 884.154C869.116 884.367 866.983 884.807 865.904 885.033C859.64 885.46 859.52 880.702 860.573 875.944C857.228 875.891 853.416 879.356 850.524 877.01C855.682 870.134 853.189 860.525 854.349 852.542C858.214 785.507 862.958 718.485 863.651 651.317C863.705 603.059 863.851 553.789 850.71 506.931C844.846 490.299 832.865 472.774 814.14 470.122C815.206 476.052 819.151 481.983 810.302 478.065C808.609 468.749 808.929 460.913 818.898 459.687C811.408 455.862 806.277 462.272 807.49 468.749C793.976 469.522 807.13 459.42 804.025 451.317C804.171 407.152 804.131 362.546 805.517 318.66ZM871.941 510.196C870.542 515.7 872.714 517.14 866.757 521.698C863.318 515.687 864.624 527.588 866.397 530.68C871.208 530.88 875.926 531.666 880.804 531.4C889.24 523.883 880.017 511.956 871.941 510.196ZM898.382 511.369C895.957 515.474 895.823 522.057 898.396 526.042C906.632 524.776 905.366 513.222 898.382 511.369ZM870.168 827.167C873.194 833.751 876.592 843.533 883.522 845.972C886.108 834.75 883.296 825.448 870.168 827.167Z" fill="#2B4633"/>
<path d="M812.901 277.586C813.647 278.012 815.126 278.839 815.873 279.252C815.873 338.211 814.327 397.143 813.74 456.075C807.277 459.807 811.875 448.012 810.129 446.08C812.408 389.933 812.048 333.746 812.901 277.586Z" fill="#727373"/>
<path d="M873.114 278.492C883.216 279.558 904.686 274.174 910.004 281.611C892.705 282.717 908.205 288.874 913.895 291.913C898.942 288.967 882.976 289.607 868.369 293.845C865.877 294.031 863.385 294.151 860.906 294.258C858.134 294.151 855.362 294.005 852.603 293.885C862.372 291.926 872.514 291.3 882.123 288.234C887.667 278.959 871.608 283.93 873.114 278.492Z" fill="#363736"/>
<path d="M765.296 369.089C765.229 341.369 763.843 313.542 766.055 285.875C766.029 313.609 767.428 341.423 765.296 369.089Z" fill="#101B12"/>
<path d="M965.312 288.208C969.35 290.606 979.119 283.836 976.72 294.005C972.296 292.845 969.324 293.618 970.457 299.669C973.042 292.179 959.515 297.03 965.312 288.208Z" fill="#95968F"/>
<path d="M852.603 293.885C855.362 294.005 858.134 294.151 860.906 294.258C862.185 300.735 859.253 311.263 867.17 314.595C874.806 317.98 863.758 324.497 863.358 329.948C857.961 358.948 862.705 388.867 859.72 418.2C859.04 421.705 860.879 424.837 862.559 427.742C857.388 428.408 852.243 429.021 847.112 429.741C842.834 429.368 826.375 431.807 837.197 427.502C837.81 427.475 839.049 427.409 839.662 427.369C844.14 427.369 850.071 428.781 849.658 422.651C851.164 379.791 850.884 336.678 852.603 293.885Z" fill="#5C625E"/>
<path d="M860.906 294.258C863.385 294.151 865.877 294.031 868.369 293.845C867.21 315.235 893.664 296.497 902.727 304.893C891.852 314.942 872.794 318.193 869.395 334.612C868.303 365.465 868.876 396.423 867.636 427.169C865.93 427.355 864.251 427.555 862.559 427.742C860.879 424.837 859.04 421.705 859.72 418.2C862.705 388.867 857.961 358.948 863.358 329.948C863.758 324.497 874.806 317.98 867.17 314.595C859.253 311.263 862.185 300.735 860.906 294.258Z" fill="#858986"/>
<path d="M900.142 311.956C911.27 309.184 919.4 322.898 915.082 332.307C914.442 355.949 915.748 380.338 910.537 403.553C908.658 433.952 910.897 464.631 906.126 494.777C904.82 494.284 903.527 493.764 902.247 493.244C909.431 464.831 905.273 433.113 907.712 403.433C913.149 377.725 909.644 351.178 912.523 325.244C909.391 309.024 886.774 318.753 887.281 332.533C885.561 383.776 887.734 435.152 887.241 486.528C883.722 485.261 880.297 483.796 876.872 482.316C880.83 437.191 874.193 391.506 877.725 346.18C874.46 330.508 885.748 316.847 900.142 311.956Z" fill="#BBBDBB"/>
<path d="M887.281 332.533C886.774 318.753 909.391 309.024 912.523 325.244C909.644 351.178 913.149 377.725 907.712 403.433C905.273 433.113 909.431 464.831 902.247 493.244C897.17 491.152 892.159 488.926 887.241 486.528C887.734 435.152 885.561 383.776 887.281 332.533Z" fill="#CED0CE"/>
<path d="M969.977 317.807C969.31 323.751 969.071 329.761 969.124 335.759C969.777 329.775 970.044 323.804 969.977 317.807Z" fill="#777878"/>
<path d="M968.644 352.457C967.964 358.401 967.738 364.412 967.791 370.409C968.458 364.425 968.711 358.455 968.644 352.457Z" fill="#737473"/>
<path d="M967.285 387.134C966.792 392.625 966.552 398.156 966.472 403.713C966.965 398.169 967.218 392.652 967.285 387.134Z" fill="#797A7A"/>
<path d="M965.979 420.425C965.312 426.356 965.072 432.38 965.126 438.377C965.792 432.393 966.045 426.423 965.979 420.425Z" fill="#797A7A"/>
<path d="M964.646 455.076C963.98 461.006 963.74 467.03 963.793 473.027C964.459 467.043 964.713 461.073 964.646 455.076Z" fill="#797A7A"/>
<path d="M862.559 427.742C864.251 427.555 865.93 427.355 867.636 427.169C881.07 438.204 862.292 468.389 874.446 481.903C862.572 476.945 867.196 494.071 875.873 495.537C865.504 492.991 856.041 487.527 846.352 483.169C848.058 465.458 849.698 447.439 847.112 429.741C852.243 429.021 857.388 428.408 862.559 427.742Z" fill="#396B47"/>
<path d="M807.49 468.749C806.277 462.272 811.408 455.862 818.898 459.687C808.929 460.913 808.609 468.749 810.302 478.065C810.315 478.691 810.342 479.957 810.355 480.584C810.235 486.421 810.275 492.378 809.276 498.202C804.998 490.073 808.916 478.038 807.49 468.749Z" fill="#7B7F7C"/>
<path d="M728.459 500.241C735.829 486.674 745.145 472.161 761.124 467.816C766.935 472.494 767.761 485.941 762.27 488.847C770.96 469.149 749.649 484.742 745.798 492.392C750.849 491.365 755.807 489.846 760.938 489.126C769.52 502.213 763.656 519.712 763.936 534.345C763.683 522.804 763.75 511.276 763.803 499.761C754.42 502.294 742.879 502.893 735.989 510.516C727.593 539.023 724.127 568.702 721.569 598.235C726.246 597.182 730.711 595.303 735.402 594.264C735.895 598.115 738.015 601.38 739.507 604.885C740.147 614.601 726.167 597.729 726.273 608.51C733.097 613.948 731.391 618.879 724.034 623.556C723.714 617.506 725.047 610.096 720.049 605.458C719.596 613.308 719.063 621.211 718.543 629.074C715.172 633.552 711.48 637.803 707.562 641.828C710.187 600.767 712.306 559.32 722.008 519.166C687.251 555.002 694.101 611.309 693.701 656.847C689.556 661.485 685.758 666.496 680.947 670.481C680.454 660.153 663.675 649.557 669.112 641.961C676.189 643.574 676.962 652.756 682.186 656.994C682.533 603.912 677.002 533.492 728.459 500.241Z" fill="#212320"/>
<path d="M810.355 480.584C835.544 487.554 845.326 520.432 850.351 544.687C863.092 573.473 858.174 606.391 859.4 637.243C850.244 608.99 852.177 576.632 843.487 547.552C837.13 528.041 835.637 500.601 814.353 491.299C815.793 496.27 815.593 503.453 809.276 498.202C810.275 492.378 810.235 486.421 810.355 480.584Z" fill="#343D37"/>
<path d="M963.313 489.726C962.647 495.657 962.407 501.68 962.46 507.678C963.127 501.694 963.38 495.723 963.313 489.726Z" fill="#777777"/>
<path d="M807.757 500.961C814.434 502.347 814.42 511.716 813.86 517.087C821.097 523.23 815.246 533.212 819.111 541.129C821.31 575.766 824.336 610.536 821.857 645.253C812.874 651.756 803.865 658.487 795.722 666.15C795.789 630.553 797.721 594.997 797.041 559.387C795.136 544.647 819.991 537.344 810.569 521.938C807.69 515.367 808.09 507.957 807.757 500.961Z" fill="#295334"/>
<path d="M871.941 510.196C880.017 511.956 889.24 523.883 880.804 531.4C875.926 531.666 871.208 530.88 866.397 530.68C864.624 527.588 863.318 515.687 866.757 521.698C872.714 517.14 870.542 515.7 871.941 510.196Z" fill="#6E7065"/>
<path d="M898.396 526.042C906.632 524.776 905.366 513.222 898.382 511.369C895.957 515.474 895.823 522.057 898.396 526.042Z" fill="#7D8580"/>
<path d="M961.98 524.376C961.314 530.307 961.074 536.331 961.127 542.328C961.794 536.344 962.047 530.374 961.98 524.376Z" fill="#747575"/>
<path d="M0 532.866C22.7098 530.454 45.7128 528.841 68.5025 530.88C78.3647 531.84 91.5055 534.305 93.8244 545.793C91.4255 551.43 90.5726 560.16 83.0959 561.186C59.6132 565.051 35.7306 567.01 11.9413 565.877C11.5415 561.572 18.1652 562.199 18.8049 558.307C12.7276 555.482 6.34381 553.403 0 551.324V532.866Z" fill="#444546"/>
<path d="M93.8244 545.793C95.6236 552.35 96.4366 559.413 94.6774 566.09C88.6668 588.733 56.9477 580.923 41.7545 587.24C43.5138 594.477 42.3543 603.353 47.6319 609.15C52.0566 615.52 43.9002 632.232 54.8953 631.739C43.1273 632.912 31.8257 636.604 20.1376 638.19C16.246 624.116 16.8191 609.336 17.8853 594.996C20.2309 590.185 36.237 595.69 32.7453 586.574C21.8169 586.481 10.9018 586.974 0 585.907V551.324C6.34381 553.403 12.7276 555.482 18.8049 558.307C18.1652 562.199 11.5415 561.572 11.9413 565.877C35.7306 567.01 59.6132 565.051 83.0959 561.186C90.5726 560.16 91.4255 551.43 93.8244 545.793Z" fill="#273229"/>
<path d="M960.661 559.027C960.035 564.877 959.262 570.861 959.915 576.778C960.395 570.848 960.701 564.944 960.661 559.027Z" fill="#727373"/>
<path d="M880.364 569.515C893.984 569.009 906.072 560.439 919.933 565.61C932.207 561.026 924.291 575.312 918.2 570.022C907.512 573.167 888.56 567.516 882.35 573.94C900.648 573.807 919.613 571.088 937.671 574.046C934.206 575.912 930.221 576.339 926.396 576.872C914.908 577.858 903.38 577.871 891.892 578.191C885.135 577.685 872.98 581.123 880.364 569.515Z" fill="#D7DADB"/>
<path d="M508.931 586.321C531.707 575.512 557.749 576.032 582.325 577.032C601.529 579.311 625.478 575.246 638.926 592.758C633.235 600.674 623.813 584.801 618.015 593.704C612.458 608.697 595.319 617.879 579.992 612.335C575.394 608.937 570.063 612.668 565.119 612.668C551.179 607.311 537.718 600.701 523.764 595.343C518.38 593.091 511.41 592.451 508.931 586.321Z" fill="#454648"/>
<path d="M891.892 578.191C903.38 577.871 914.908 577.858 926.396 576.872C925.89 584.028 925.224 591.172 924.691 598.355C913.042 592.078 901.261 586.001 889.76 579.43C890.293 579.124 891.359 578.498 891.892 578.191Z" fill="#515552"/>
<path d="M962.18 578.085C971.19 573.14 967.911 591.025 959.448 584.735C955.143 587.627 951.465 584.348 952.865 579.524C956.05 579.431 960.381 581.923 962.18 578.085Z" fill="#A9ABA7"/>
<path d="M735.402 594.264C745.278 609.31 754.727 587.667 762.91 581.576C771.919 588.879 747.864 606.898 760.858 601.14C765.735 631.299 760.738 662.791 761.404 693.39C742.319 708.103 723.888 726.748 703.963 738.995C701.938 711.568 700.032 681.129 703.297 652.943C691.236 658.447 686.038 676.172 675.389 685.594C672.857 687.513 672.631 690.258 673.963 693.017C679.707 716.366 672.138 739.542 673.897 763.064C669.352 771.1 660.143 775.298 653.039 780.922C650.534 744.06 641.884 707.584 642.817 670.574C640.458 656.314 657.917 664.59 662.808 655.595C668.193 647.892 659.716 643.933 655.105 639.882C659.77 640.508 664.461 641.081 669.112 641.961C663.675 649.557 680.454 660.153 680.947 670.481C685.758 666.496 689.556 661.485 693.701 656.847C698.472 651.97 703.017 646.892 707.562 641.828C711.48 637.803 715.172 633.552 718.543 629.074C720.356 627.208 722.208 625.396 724.034 623.556C731.391 618.879 733.097 613.948 726.273 608.51C726.167 597.729 740.147 614.601 739.507 604.885C738.015 601.38 735.895 598.115 735.402 594.264Z" fill="#285234"/>
<path d="M499.882 596.649C501.281 592.118 505.079 588.813 508.931 586.321C511.41 592.451 518.38 593.091 523.764 595.343C537.718 600.701 551.179 607.311 565.119 612.668C570.063 612.668 575.394 608.937 579.992 612.335C595.319 617.879 612.458 608.697 618.015 593.704C623.813 584.801 633.235 600.674 638.926 592.758C644.79 605.565 644.297 622.01 637.113 634.058C632.835 632.592 639.579 618.612 631.489 623.037C625.372 624.423 619.348 626.462 614.097 629.953C586.456 634.165 557.629 634.698 530.068 631.699C526.723 625.795 526.376 621.917 518.127 618.305C533.293 614.467 507.078 612.828 515.768 605.712C510.144 603.219 504.146 601.26 499.882 596.649Z" fill="#2F2F30"/>
<path d="M187.476 589.399C189.248 588.466 191.007 587.054 193.126 587.347C291.869 598.008 390.678 608.204 489.406 619.025C485.075 619.105 480.824 619.332 476.639 620.305C380.176 611.615 283.672 600.994 187.476 589.399Z" fill="#264D33"/>
<path d="M164.486 604.645C169.91 596.889 179.919 594.543 187.476 589.399C283.672 600.994 380.176 611.615 476.639 620.305C483.729 622.344 491.046 623.01 498.376 623.69C485.488 625.502 504 645.986 489.167 642.014C380.829 631.339 272.437 619.065 164.486 604.645Z" fill="#356B4B"/>
<path d="M959.342 592.398C958.582 598.262 958.435 604.232 958.475 610.176C959.981 604.339 959.368 598.328 959.342 592.398Z" fill="#7B7C7B"/>
<path d="M499.882 596.649C504.146 601.26 510.144 603.219 515.768 605.712C507.078 612.828 533.293 614.467 518.127 618.305C526.376 621.917 526.723 625.795 530.068 631.699C557.629 634.698 586.456 634.165 614.097 629.953C614.79 634.831 615.923 639.602 616.536 644.507C603.262 646.759 589.788 647.998 576.514 649.438C571.383 660.379 588.962 651.517 593.48 657.94C585.323 664.844 580.379 675.225 568.504 676.185C565.839 685.341 566.305 699.521 578.246 700.853C579.073 715.726 581.885 731.812 578.74 747.032C582.644 763.397 582.658 783.348 568.504 794.796C564.026 803.312 551.565 809.056 556.563 793.81C551.445 780.096 567.744 774.819 567.811 763.051V761.851C567.744 759.972 567.611 756.214 567.545 754.335C538.358 749.937 509.131 745.033 480.051 740.501C476.439 728.2 465.99 718.365 457.114 709.036C452.596 708.37 448.118 707.983 443.614 707.424C443.254 705.638 441.548 703.159 444.213 702.426C468.043 689.819 489.58 671.76 516.581 666.709C525.843 648.371 545.128 666.883 559.242 666.643C569.877 669.828 566.385 655.395 566.278 648.811C546.421 647.758 522.711 649.837 506.399 636.684C503.014 632.872 502.001 626.702 498.376 623.69C491.046 623.01 483.729 622.344 476.639 620.305C480.824 619.332 485.075 619.105 489.406 619.025C504.52 623.783 496.537 605.285 499.882 596.649Z" fill="#182A1C"/>
<path d="M159.262 612.348C160.981 609.763 162.7 607.177 164.486 604.645C272.437 619.065 380.829 631.339 489.167 642.014C504 645.986 485.488 625.502 498.376 623.69C502.001 626.702 503.014 632.872 506.399 636.684C504.04 645.36 511.57 653.049 507.505 661.579C496.097 665.457 484.449 668.868 473.8 674.679C458.847 671.067 443.72 679.917 429.18 673.24C415.733 675.052 402.952 672.547 391.704 664.79C385.56 665.363 378.67 670.907 372.979 666.096C361.424 654.942 343.192 671.134 331.624 659.486C318.563 663.498 306.955 659.539 294.427 656.754C281.007 648.918 266.8 656.008 253.459 649.584C240.705 650.41 228.004 647.145 215.516 646.999C208.706 650.637 204.761 637.39 197.978 641.281C191.78 648.251 184.903 636.017 177.413 638.416C169.417 636.444 156.476 641.655 153.358 631.273C152.465 628.487 151.439 631.819 150.546 632.832C149.959 624.769 156.729 619.345 159.262 612.348Z" fill="#2A5D3D"/>
<path d="M720.049 605.458C725.047 610.096 723.714 617.506 724.034 623.556C722.208 625.396 720.356 627.208 718.543 629.074C719.063 621.211 719.596 613.308 720.049 605.458Z" fill="#090A08"/>
<path d="M54.8953 631.739C89.653 625.182 124.251 617.479 159.262 612.348C156.729 619.345 149.959 624.769 150.546 632.832C149.919 642.867 147.307 653.049 149.386 663.098C100.302 656.368 51.1636 649.891 2.19901 642.348C8.07637 640.508 14.047 639.082 20.1376 638.19C31.8257 636.604 43.1273 632.912 54.8953 631.739Z" fill="#7E8387"/>
<path d="M844.78 691.258C846.846 665.283 843.714 636.95 848.645 612.202C851.737 637.55 853.962 663.178 854.562 688.659C851.284 689.499 848.032 690.378 844.78 691.258Z" fill="#CFCD1B"/>
<path d="M949.972 614.454C951.425 613.948 952.865 613.415 954.317 612.855C954.264 621.917 953.718 630.98 953.678 640.055C963.513 640.815 950.479 657.061 960.888 654.315C966.925 655.821 962.5 663.404 957.343 662.658C955.983 675.305 954.984 688.193 956.023 700.92C963.18 702.493 962.3 713.834 954.291 710.262C955.837 717.139 951.652 731.079 964.193 728.16C967.285 734.557 960.101 736.477 955.303 734.264C956.663 740.821 963.407 746.552 958.929 753.402C967.431 754.761 962.967 766.942 955.637 761.172C944.562 770.501 930.301 776.684 918.107 785.067C913.029 786.826 908.858 789.692 906.179 794.489C903.26 789.811 902.647 784.094 899.355 779.603C904.726 780.682 913.229 784.534 909.151 776.351C924.104 788.732 934.486 748.031 922.278 741.807C910.111 746.805 898.649 753.935 886.948 760.012C880.604 764.957 875.073 779.416 887.534 779.483C885.375 782.028 884.962 787.346 880.91 787.173C864.717 784.294 883.949 808.309 871.541 811.561C862.385 793.85 872.98 771.66 867.41 752.749C864.944 746.139 874.34 744.646 878.231 741.874C888.88 731.799 910.27 734.011 915.828 719.378C917.387 718.978 918.973 718.618 920.572 718.272C927.596 723.443 936.525 723.709 944.735 721.617C944.602 685.887 949.932 647.945 943.455 614.081C945.601 614.201 947.813 615.014 949.972 614.454ZM939.99 730.346C923.105 735.117 928.822 755.454 927.703 768.808C948.307 769.221 946.427 735.97 939.99 730.346Z" fill="#3E6548"/>
<path d="M631.489 623.037C639.579 618.612 632.835 632.592 637.113 634.058C643.23 635.844 650.401 634.858 655.105 639.882C659.716 643.933 668.193 647.892 662.808 655.595C657.917 664.59 640.458 656.314 642.817 670.574C641.884 707.584 650.534 744.06 653.039 780.922C652.92 795.995 655.452 810.935 657.291 825.848C665.9 825.368 674.123 822.09 682.186 819.158C694.647 817.225 708.081 815.279 702.471 800.38C703.323 809.802 715.798 800.78 714.918 809.775C730.724 807.577 745.744 800.966 761.537 798.274C755.1 808.523 736.429 805.044 726.113 810.975C673.31 824.795 620.721 839.428 568.104 853.941C558.482 855.78 549.113 858.806 539.451 860.445C560.601 848.717 586.296 849.383 607.687 837.869C622.253 829.193 644.23 836.483 655.385 824.115C644.95 757.627 640.685 689.845 631.489 623.037Z" fill="#3A6445"/>
<path d="M614.097 629.953C619.348 626.462 625.372 624.423 631.489 623.037C640.685 689.845 644.95 757.627 655.385 824.115C644.23 836.483 622.253 829.193 607.687 837.869C586.296 849.383 560.601 848.717 539.451 860.445C549.113 858.806 558.482 855.78 568.104 853.941C541.436 864.456 512.583 872.213 484.155 877.01C464.751 884.727 442.787 889.565 421.917 885.073C419.611 877.583 436.43 880.742 440.535 877.677C460.499 878.636 481.01 876.437 499.588 868.748C506.772 867.068 504.093 858.313 504.786 852.928C491.206 846.478 476.665 871.586 463.898 859.086C453.716 849.317 432.939 845.905 435.444 828.607C424.476 825.182 429.114 839.375 428.061 844.639C408.23 836.936 419.598 811.814 416.213 794.836C417.012 773.592 450.331 758.373 463.898 777.644C455.888 774.872 465.097 786.266 460.473 783.894C452.716 776.711 443.84 791.277 452.037 796.422C456.235 800.873 459.353 794.583 461.112 791.237C454.982 811.095 472.494 801.139 481.183 796.795C510.757 787.532 538.491 772.886 567.811 763.051C567.744 774.819 551.445 780.096 556.563 793.81C551.565 809.056 564.026 803.312 568.504 794.796C582.658 783.348 582.644 763.397 578.74 747.032C581.885 731.812 579.073 715.726 578.246 700.853C566.305 699.521 565.839 685.341 568.504 676.185C580.379 675.225 585.323 664.844 593.48 657.94C588.962 651.517 571.383 660.379 576.514 649.438C589.788 647.998 603.262 646.759 616.536 644.507C615.923 639.602 614.79 634.831 614.097 629.953ZM623.066 739.768C615.43 750.11 605.821 761.451 607.66 775.272C609.979 791.757 598.997 806.324 602.555 822.796C610.885 827.527 616.296 817.785 623.546 815.359C626.132 817.678 634.914 822.116 632.995 815.493C626.984 812.441 640.338 800.18 630.929 799.78C620.054 810.295 629.117 787.546 625.678 782.681C623.093 770.007 633.781 747.098 623.066 739.768Z" fill="#274F33"/>
<path d="M150.546 632.832C151.439 631.819 152.465 628.487 153.358 631.273C156.476 641.655 169.417 636.444 177.413 638.416C184.903 636.017 191.78 648.251 197.978 641.281C204.761 637.39 208.706 650.637 215.516 646.999C228.004 647.145 240.705 650.41 253.459 649.584C266.8 656.008 281.007 648.918 294.427 656.754C306.955 659.539 318.563 663.498 331.624 659.486C343.192 671.134 361.424 654.942 372.979 666.096C378.67 670.907 385.56 665.363 391.704 664.79C402.952 672.547 415.733 675.052 429.18 673.24C443.72 679.917 458.847 671.067 473.8 674.679C484.449 668.868 496.097 665.457 507.505 661.579C511.57 653.049 504.04 645.36 506.399 636.684C522.711 649.837 546.421 647.758 566.278 648.811C566.385 655.395 569.877 669.828 559.242 666.643C545.128 666.883 525.843 648.371 516.581 666.709C489.58 671.76 468.043 689.819 444.213 702.426C441.548 703.159 443.254 705.638 443.614 707.424C436.563 707.17 429.82 705.971 424.289 701.6C332.664 688.712 240.972 676.212 149.386 663.098C147.307 653.049 149.919 642.867 150.546 632.832Z" fill="#254D32"/>
<path d="M0 641.961C0.546421 642.054 1.65259 642.241 2.19901 642.348C51.1636 649.891 100.302 656.368 149.386 663.098C240.972 676.212 332.664 688.712 424.289 701.6C423.783 701.933 422.783 702.613 422.277 702.946C281.407 684.741 140.83 663.444 0 644.547V641.961Z" fill="#CDD3D4"/>
<path d="M0 644.547C140.83 663.444 281.407 684.741 422.277 702.946C426.955 702.506 426.701 712.608 418.492 705.984C279.021 686.127 139.311 667.056 0 645.919V644.547Z" fill="#A8ABAA"/>
<path d="M0 645.919C139.311 667.056 279.021 686.127 418.492 705.984C426.701 712.608 426.955 702.506 422.277 702.946C422.783 702.613 423.783 701.933 424.289 701.6C429.82 705.971 436.563 707.17 443.614 707.424C448.118 707.983 452.596 708.37 457.114 709.036C450.65 708.25 449.371 710.076 453.103 713.754C453.289 723.842 464.484 736.61 451.89 743.367C444.027 749.364 443.094 768.048 429.034 762.091C419.118 752.162 417.052 735.437 421.13 722.23C413.894 715.486 404.032 723.323 402.619 731.332C396.355 738.516 387.132 727.401 379.056 726.948C336.475 719.151 293.388 716.179 250.78 708.423C237.733 700 221.26 705.118 206.72 701.706C154.197 691.005 100.501 686.833 48.4182 675.692C31.3859 681.063 16.5259 669.961 0 669.721V645.919Z" fill="#EEF2F6"/>
<path d="M675.389 685.594C686.038 676.172 691.236 658.447 703.297 652.943C700.032 681.129 701.938 711.568 703.963 738.995C723.888 726.748 742.319 708.103 761.404 693.39C766.815 703.452 759.885 716.153 762.257 727.108C748.237 743.313 732.67 758.28 719.583 775.245C718.717 776.191 717.864 777.151 717.024 778.137C732.364 775.192 746.651 768.208 762.15 765.929C762.817 776.684 762.697 787.546 761.537 798.274C745.744 800.966 730.724 807.577 714.918 809.775C715.798 800.78 703.323 809.802 702.471 800.38C703.537 791.731 703.603 783.055 693.661 786.84C700.405 803.365 680.054 804.871 682.186 819.158C674.123 822.09 665.9 825.368 657.291 825.848C655.452 810.935 652.92 795.995 653.039 780.922C660.143 775.298 669.352 771.1 673.897 763.064C672.138 739.542 679.707 716.366 673.963 693.017C672.631 690.258 672.857 687.513 675.389 685.594ZM702.75 740.901C699.045 741.434 697.646 754.082 701.018 748.591C702.497 746.672 707.801 739.502 702.75 740.901Z" fill="#1B281D"/>
<path d="M0 669.721C16.5259 669.961 31.3859 681.063 48.4182 675.692C100.501 686.833 154.197 691.005 206.72 701.706C221.26 705.118 237.733 700 250.78 708.423C293.388 716.179 336.475 719.151 379.056 726.948C387.132 727.401 396.355 738.516 402.619 731.332C401.526 736.996 400.007 743.127 405.271 747.192C406.964 763.784 410.642 782.255 402.699 798.088C398.94 814.333 405.204 831.752 399.06 847.704C399.647 852.529 404.378 856.194 406.417 860.618C400.66 855.261 395.129 849.69 389.305 844.426C388.372 841.321 387.559 838.202 386.626 835.11C385.373 830.646 384.24 826.154 382.828 821.756C381.735 816.452 380.682 811.175 379.736 805.897C379.962 799.687 380.709 793.543 381.415 787.386C382.428 779.843 383.148 772.286 383.747 764.703C390.424 754.988 386.146 739.262 371.726 740.701C314.059 733.212 256.325 723.003 198.177 716.886C187.716 709.743 170.11 715.82 163.366 703.719C159.262 706.198 155.077 709.809 149.906 708.13C99.6085 704.492 49.1512 693.084 0 687.073V669.721Z" fill="#E1E4E7"/>
<path d="M809.862 675.252C810.888 688.846 812.994 702.346 814.1 715.94C811.595 716.006 809.023 716.193 808.689 719.258C803.079 713.514 798.974 706.517 795.362 699.401C793.563 688.499 803.132 681.889 809.862 675.252Z" fill="#020302"/>
<path d="M0 687.073C49.1512 693.084 99.6085 704.492 149.906 708.13C155.077 709.809 159.262 706.198 163.366 703.719C170.11 715.82 187.716 709.743 198.177 716.886C256.325 723.003 314.059 733.212 371.726 740.701C386.146 739.262 390.424 754.988 383.747 764.703C370.9 766.996 360.238 760.106 349.03 755.708C314.472 759.639 282.02 743.86 247.928 744.526C225.925 734.677 202.615 734.091 179.106 733.238C174.548 730.666 169.884 729.44 165.046 732.145C146.494 729.253 129.049 718.818 109.764 719.858C102.101 721.39 95.8102 714.767 88.4002 714.287C57.4941 721.51 30.6129 700.294 0 701.72V687.073Z" fill="#D1D5D8"/>
<path d="M0 701.72C30.6129 700.294 57.4941 721.51 88.4002 714.287C95.8102 714.767 102.101 721.39 109.764 719.858C129.049 718.818 146.494 729.253 165.046 732.145C169.884 729.44 174.548 730.666 179.106 733.238C202.615 734.091 225.925 734.677 247.928 744.526C282.02 743.86 314.472 759.639 349.03 755.708C360.238 760.106 370.9 766.996 383.747 764.703C383.148 772.286 382.428 779.843 381.415 787.386C370.487 777.057 359.225 781.895 348.017 775.565C333.383 778.723 317.937 778.23 305.369 769.914C296.52 782.268 284.659 765.676 273.104 771.127C265.334 771.913 262.162 762.078 255.738 759.692C239.186 760.572 225.205 753.535 209.386 754.388C195.272 761.665 184.437 747.871 171.736 749.724C162.993 758.853 159.715 739.489 149.653 745.073C136.738 748.324 124.317 740.222 110.577 740.715C102.834 733.265 95.2905 745.006 89.5064 733.758C59.3067 732.079 29.4801 724.829 0 719.005V701.72Z" fill="#C1C5C6"/>
<path d="M457.114 709.036C465.99 718.365 476.439 728.2 480.051 740.501C509.131 745.033 538.358 749.937 567.545 754.335C567.611 756.214 567.744 759.972 567.811 761.851C558.189 758.946 547.034 757.014 538.238 763.024C522.298 772.246 496.696 761.785 483.929 775.512C480.464 775.765 472.974 779.55 477.878 770.58C475.093 749.777 471.121 727.081 453.103 713.754C449.371 710.076 450.65 708.25 457.114 709.036Z" fill="#82878C"/>
<path d="M453.103 713.754C471.121 727.081 475.093 749.777 477.878 770.58C472.974 779.55 480.464 775.765 483.929 775.512C483.369 782.641 481.903 789.665 481.183 796.795C472.494 801.139 454.982 811.095 461.112 791.237C464.298 787.066 469.109 782.415 463.898 777.644C450.331 758.373 417.012 773.592 416.213 794.836C412.441 800.926 411.015 807.496 414.027 814.08C409.749 830.592 416.119 847.691 425.795 861.111C446.079 865.936 420.717 864.643 412.841 865.323C411.601 865.189 410.375 865.029 409.163 864.843C408.256 863.403 407.337 862.004 406.417 860.618C404.378 856.194 399.647 852.529 399.06 847.704C405.204 831.752 398.94 814.333 402.699 798.088C410.642 782.255 406.964 763.784 405.271 747.192C400.007 743.127 401.526 736.996 402.619 731.332C404.032 723.323 413.894 715.486 421.13 722.23C417.052 735.437 419.118 752.162 429.034 762.091C443.094 768.048 444.027 749.364 451.89 743.367C464.484 736.61 453.289 723.842 453.103 713.754Z" fill="#CECFCF"/>
<path d="M0 719.005C29.4801 724.829 59.3067 732.079 89.5064 733.758C95.2905 745.006 102.834 733.265 110.577 740.715C124.317 740.222 136.738 748.324 149.653 745.073C159.715 739.489 162.993 758.853 171.736 749.724C184.437 747.871 195.272 761.665 209.386 754.388C225.205 753.535 239.186 760.572 255.738 759.692C262.162 762.078 265.334 771.913 273.104 771.127C284.659 765.676 296.52 782.268 305.369 769.914C317.937 778.23 333.383 778.723 348.017 775.565C359.225 781.895 370.487 777.057 381.415 787.386C380.709 793.543 379.962 799.687 379.736 805.897C377.39 803.498 376.111 805.711 374.965 807.896C357.532 797.088 330.158 798.021 308.808 792.903C280.54 788.492 252.22 785.04 224.552 777.404C192.353 769.461 159.008 769.781 127.249 760.199C84.9218 751.256 41.8079 747.711 0 736.263V719.005Z" fill="#B5B8B8"/>
<path d="M815.553 734.144C817.112 727.907 815.633 722.337 808.703 722.07C810.462 726.295 811.941 731.226 815.553 734.144Z" fill="#060A07"/>
<path d="M927.703 768.808C948.307 769.221 946.427 735.97 939.99 730.346C923.105 735.117 928.822 755.454 927.703 768.808Z" fill="#BFA053"/>
<path d="M0 736.263C41.8079 747.711 84.9218 751.256 127.249 760.199C159.008 769.781 192.353 769.461 224.552 777.404C252.22 785.04 280.54 788.492 308.808 792.903C330.158 798.021 357.532 797.088 374.965 807.896C376.111 805.711 377.39 803.498 379.736 805.897C380.682 811.175 381.735 816.452 382.828 821.756C356.266 811.028 327.266 801.979 297.626 802.499C256.551 795.129 215.276 778.87 173.868 778.923C115.908 766.369 58.0006 756.267 0 745.646V736.263Z" fill="#9FA29E"/>
<path d="M798.041 753.788C807.77 751.27 796.068 741.261 794.403 736.303C796.655 740.848 789.538 754.895 798.041 753.788Z" fill="#030503"/>
<path d="M623.066 739.768C633.781 747.098 623.093 770.007 625.678 782.681C629.117 787.546 620.054 810.295 630.929 799.78C640.338 800.18 626.984 812.441 632.995 815.493C634.914 822.116 626.132 817.678 623.546 815.359C616.296 817.785 610.885 827.527 602.555 822.796C598.997 806.324 609.979 791.757 607.66 775.272C605.821 761.451 615.43 750.11 623.066 739.768Z" fill="#193620"/>
<path d="M701.018 748.591C702.497 746.672 707.801 739.502 702.75 740.901C699.045 741.434 697.646 754.082 701.018 748.591Z" fill="#030604"/>
<path d="M886.948 760.012C898.649 753.935 910.111 746.805 922.278 741.807C934.486 748.031 924.104 788.732 909.151 776.351C902.221 768.315 894.491 776.977 887.534 779.483C875.073 779.416 880.604 764.957 886.948 760.012Z" fill="#F0E3D1"/>
<path d="M0 745.646C58.0006 756.267 115.908 766.369 173.868 778.923C215.276 778.87 256.551 795.129 297.626 802.499C327.266 801.979 356.266 811.028 382.828 821.756C384.24 826.154 385.373 830.646 386.626 835.11C351.735 820.477 311.393 828.553 277.448 812.321C253.553 809.709 230.763 804.245 206.827 802.872C185.996 791.85 161.434 796.129 139.937 787.253C110.577 786.813 82.9893 770.74 53.6292 773.526C36.6635 765.57 18.6316 762.291 0 761.785V745.646Z" fill="#8E9089"/>
<path d="M538.238 763.024C547.034 757.014 558.189 758.946 567.811 761.851V763.051C538.491 772.886 510.757 787.532 481.183 796.795C481.903 789.665 483.369 782.641 483.929 775.512C496.696 761.785 522.298 772.246 538.238 763.024Z" fill="#5F656B"/>
<path d="M0 761.785C18.6316 762.291 36.6635 765.57 53.6292 773.526C82.9893 770.74 110.577 786.813 139.937 787.253C161.434 796.129 185.996 791.85 206.827 802.872C230.763 804.245 253.553 809.709 277.448 812.321C311.393 828.553 351.735 820.477 386.626 835.11C387.559 838.202 388.372 841.321 389.305 844.426C259.297 821.77 129.648 794.716 0 769.554V761.785Z" fill="#7E7E73"/>
<path d="M0 769.554C129.648 794.716 259.297 821.77 389.305 844.426C395.129 849.69 400.66 855.261 406.417 860.618C407.337 862.004 408.256 863.403 409.163 864.843C365.755 855.927 322.068 848.477 278.848 838.788C211.332 824.902 143.482 812.734 76.0591 798.354C50.6839 793.317 25.4286 787.639 0 782.881V769.554Z" fill="#6C6A53"/>
<path d="M460.473 783.894C465.097 786.266 455.888 774.872 463.898 777.644C469.109 782.415 464.298 787.066 461.112 791.237C459.353 794.583 456.235 800.873 452.037 796.422C443.84 791.277 452.716 776.711 460.473 783.894Z" fill="#787B79"/>
<path d="M0 782.881C25.4286 787.639 50.6839 793.317 76.0591 798.354C56.4279 806.764 34.8776 809.615 14.9399 816.959C14.4735 825.368 17.0457 833.671 17.3788 842.08C11.5681 841.161 5.78406 840.081 0 839.068V782.881Z" fill="#010201"/>
<path d="M693.661 786.84C703.603 783.055 703.537 791.731 702.471 800.38C708.081 815.279 694.647 817.225 682.186 819.158C680.054 804.871 700.405 803.365 693.661 786.84Z" fill="#6A6C6A"/>
<path d="M416.213 794.836C419.598 811.814 408.23 836.936 428.061 844.639C433.965 849.077 440.202 853.088 446.506 856.966C439.416 869.361 424.729 867.988 412.841 865.323C420.717 864.643 446.079 865.936 425.795 861.111C416.119 847.691 409.749 830.592 414.027 814.08C411.015 807.496 412.441 800.926 416.213 794.836Z" fill="#868988"/>
<path d="M800.946 812.507C795.802 802.899 808.17 800.366 814.207 796.662C816.553 801.699 814.46 809.136 811.861 814.12C818.578 799.847 800.107 801.912 804.638 811.868C812.408 795.929 805.331 825.741 811.621 816.372C809.729 819.957 811.568 830.459 805.238 829.766C802.945 824.235 806.157 817.025 800.946 812.507Z" fill="#CA4F4B"/>
<path d="M76.0591 798.354C143.482 812.734 211.332 824.902 278.848 838.788C228.444 839.788 177.12 830.699 126.543 825.981C120.159 825.608 112.589 822.183 107.338 827.234C121.625 838.988 141.75 839.508 157.249 849.876C179.026 855.594 197.924 868.841 219.941 873.865C225.339 876.651 231.909 878.743 235.081 884.367C164.086 877.344 93.0115 870.214 22.2567 861.045C16.1127 858.952 19.8044 850.303 17.792 845.732C17.6854 844.812 17.4855 842.987 17.3788 842.08C17.0457 833.671 14.4735 825.368 14.9399 816.959C34.8776 809.615 56.4279 806.764 76.0591 798.354Z" fill="#264730"/>
<path d="M804.638 811.868C800.107 801.912 818.578 799.847 811.861 814.12C811.808 814.68 811.675 815.799 811.621 816.372C805.331 825.741 812.408 795.929 804.638 811.868Z" fill="#FEE5DB"/>
<path d="M107.338 827.234C112.589 822.183 120.159 825.608 126.543 825.981C177.12 830.699 228.444 839.788 278.848 838.788C322.068 848.477 365.755 855.927 409.163 864.843C410.375 865.029 411.601 865.189 412.841 865.323C424.729 867.988 439.416 869.361 446.506 856.966C440.202 853.088 433.965 849.077 428.061 844.639C429.114 839.375 424.476 825.182 435.444 828.607C432.939 845.905 453.716 849.317 463.898 859.086C476.665 871.586 491.206 846.478 504.786 852.928C504.093 858.313 506.772 867.068 499.588 868.748C481.01 876.437 460.499 878.636 440.535 877.677C431.619 874.851 422.197 877.877 413.067 877.677C399.007 873.439 413.281 884.18 406.457 887.192C379.709 909.595 343.539 893.256 313.059 889.911C303.477 886.206 289.63 888.312 284.379 877.49C280.221 862.497 273.797 873.505 264.947 874.985C257.524 878.317 262.429 889.325 269.559 888.951C269.159 892.536 265.561 893.669 262.868 895.255C262.602 881.515 244.41 888.405 235.081 884.367C231.909 878.743 225.339 876.651 219.941 873.865C197.924 868.841 179.026 855.594 157.249 849.876C141.75 839.508 121.625 838.988 107.338 827.234Z" fill="#172B1C"/>
<path d="M883.522 845.972C886.108 834.75 883.296 825.448 870.168 827.167C873.194 833.751 876.592 843.533 883.522 845.972Z" fill="#040805"/>
<path d="M750.249 847.291C755.953 840.694 766.615 845.705 773.892 843.386C778.676 851.729 766.468 857.913 761.084 863.044C750.849 864.976 752.515 853.781 750.249 847.291Z" fill="#486E4B"/>
<path d="M17.792 845.732C19.8044 850.303 16.1127 858.952 22.2567 861.045C34.4245 869.467 50.1641 867.162 63.9845 869.774C110.883 874.412 157.702 880.156 204.521 885.287C223.419 888.991 245.849 885.753 261.496 899C316.511 915.206 373.872 925.108 429.913 938.448C493.791 942.313 558.175 940.967 622.267 942.086C630.37 941.167 634.728 948.364 641.138 951.109C691.289 932.065 745.998 943.939 797.428 952.055C807.477 958.559 818.165 960.571 829.227 954.907C832.265 955.587 835.304 956.346 838.423 956.653C840.928 956.56 843.394 955.947 845.833 955.374C845.593 962.877 861.346 966.568 855.335 973.845C845.913 975.244 838.596 966.715 829.733 966.715C814.154 976.23 801.786 954.494 786.193 955.44C749.436 951.815 711.733 940.78 675.083 950.109C660.316 947.271 646.816 963.77 632.875 955.227C624.053 944.565 609.046 947.844 597.065 947.124C553.937 947.724 510.863 946.804 467.79 945.831C426.208 948.87 386.946 932.851 346.617 925.801C312.313 914.993 273.85 915.206 243.091 895.988C171.483 885.393 99.0354 880.169 27.2944 870.573C16.0328 869.707 7.1168 853.088 17.792 845.732Z" fill="black"/>
<path d="M789.525 881.222C787.779 866.309 803.678 863.63 814.194 859.592C818.672 886.579 812.221 914.353 814.167 941.62C813.674 949.19 801.319 950.416 805.464 942.486C805.624 928.759 804.465 914.553 804.825 900.693C783.687 893.323 795.709 922.882 793.123 932.558C787.859 940.034 808.529 945.885 795.868 947.097C765.575 939.887 733.923 940.301 703.244 934.943C714.892 918.044 735.296 910.821 750.676 898.24C757.259 895.975 747.144 889.871 752.954 888.592C765.082 885.446 776.477 879.396 789.525 881.222Z" fill="#234B2E"/>
<path d="M22.2567 861.045C93.0115 870.214 164.086 877.344 235.081 884.367C244.41 888.405 262.602 881.515 262.868 895.255C317.457 909.702 375.271 923.015 431.739 932.837C464.498 935.423 495.47 920.936 527.389 916.099C583.271 922.043 639.112 928.413 695.021 934.037C697.073 934.263 701.191 934.717 703.244 934.943C733.923 940.301 765.575 939.887 795.868 947.097C806.677 950.882 818.205 951.829 829.227 954.907C818.165 960.571 807.477 958.559 797.428 952.055C745.998 943.939 691.289 932.065 641.138 951.109C634.728 948.364 630.37 941.167 622.267 942.086C558.175 940.967 493.791 942.313 429.913 938.448C373.872 925.108 316.511 915.206 261.496 899C245.849 885.753 223.419 888.991 204.521 885.287C157.702 880.156 110.883 874.412 63.9845 869.774C50.1641 867.162 34.4245 869.467 22.2567 861.045Z" fill="#010201"/>
<path d="M264.947 874.985C273.797 873.505 280.221 862.497 284.379 877.49C286.924 888.298 277.502 890.99 269.559 888.951C262.429 889.325 257.524 878.317 264.947 874.985Z" fill="#5C5E5D"/>
<path d="M841.608 892.03C843.62 887.152 841.435 867.362 850.524 877.01C853.416 879.356 857.228 875.891 860.573 875.944C859.52 880.702 859.64 885.46 865.904 885.033C870.355 885.127 869.915 886.632 867.116 889.165C869.955 893.429 870.515 898.374 869.262 903.305C872.501 901.679 874.966 887.099 870.195 884.154C870.568 883.394 871.341 881.875 871.728 881.115C878.138 889.111 873.793 902.385 871.368 910.008C882.656 925.601 871.821 943.899 872.008 963.503C857.987 973.738 858.227 950.856 857.987 941.727C852.03 944.352 846.579 948.27 845.833 955.374C843.394 955.947 840.928 956.56 838.423 956.653C829.64 948.297 839.182 935.116 836.943 924.615C842.034 922.136 863.745 929.412 857.001 917.258C852.603 922.282 843.287 921.923 838.316 917.645C836.184 911.221 838.969 898.2 848.058 901.092C866.357 900.919 836.09 901.492 841.608 892.03Z" fill="#5F6352"/>
<path d="M527.389 916.099C573.569 904.291 620.121 888.552 667.393 883.821C692.328 890.297 722.395 884.447 744.545 895.428C729.312 907.196 706.789 916.245 695.021 934.037C639.112 928.413 583.271 922.043 527.389 916.099Z" fill="#132816"/>
<path d="M865.904 885.033C866.983 884.807 869.116 884.367 870.195 884.154C874.966 887.099 872.501 901.679 869.262 903.305C870.515 898.374 869.955 893.429 867.116 889.165C869.915 886.632 870.355 885.127 865.904 885.033Z" fill="#B8BAB4"/>
</svg>
