<svg width="25" height="13" viewBox="0 0 25 13" fill="none" xmlns="http://www.w3.org/2000/svg">
<path d="M6.20905 0.0561806C6.42048 0.0461423 6.6281 -0.0022784 6.84081 8.35497e-05C7.68845 0.00480745 8.53609 0.00067519 9.38373 0.00126568C9.70056 0.0219327 10.0142 0.0862947 10.3342 0.0609037C10.74 0.0296079 11.1368 0.14121 11.5425 0.121724C12.3698 0.190811 13.1972 0.266985 14.0238 0.340796C14.5375 0.353196 15.067 0.493731 15.4848 0.774803C14.3889 0.806689 13.2841 0.928922 12.2359 1.23775C11.9927 1.35939 12.046 1.62983 12.1076 1.83473C11.9838 1.62629 11.8416 1.42611 11.6625 1.25546C11.7495 1.25133 11.7825 1.21649 11.7622 1.14976C11.6955 1.12024 11.6403 1.135 11.5958 1.19464C11.4206 1.04761 11.2289 0.891129 10.9819 0.874595C10.0352 0.768308 9.08531 0.68505 8.13925 0.567543C7.53733 0.528571 6.93478 0.484875 6.33159 0.46775C5.92967 0.450626 5.53347 0.371501 5.13029 0.373272C4.71948 0.352605 4.31122 0.41874 3.90042 0.397482C4.06296 0.300642 4.25916 0.288242 4.44456 0.257537C5.03124 0.182545 5.61475 0.0673998 6.20905 0.0561806Z" fill="#A83F46"/>
<path d="M13.4467 3.09011C13.5629 3.05881 13.6829 3.01511 13.8067 3.03755C14.1902 3.08243 14.5737 3.1338 14.9604 3.1527C14.8772 3.23005 14.8048 3.32158 14.702 3.37767C14.3921 3.36704 14.0861 3.31036 13.7781 3.2767C13.6518 3.25249 13.4664 3.24009 13.4467 3.09011Z" fill="#A83F46"/>
<path d="M12.9432 3.41664C13.02 3.54301 13.1013 3.66701 13.1743 3.79574C13.2181 3.87368 13.2626 3.95163 13.3083 4.02898C13.4016 4.27285 13.6353 4.53857 13.947 4.45C14.0207 4.41988 14.0943 4.39036 14.168 4.36083C14.6791 4.32363 15.1267 4.06087 15.6048 3.91088C15.7109 3.87486 15.8156 3.83589 15.9217 3.80046C16.0042 3.8294 16.0715 3.88372 16.1426 3.93096C16.2544 3.83471 16.3547 3.71543 16.5007 3.66347C16.9109 3.53474 17.3496 3.55009 17.7751 3.57667C18.017 3.58789 18.2506 3.64753 18.4868 3.69358C19.3326 3.81936 20.1821 3.9286 21.0285 4.0526C21.8571 4.2079 22.6933 4.33249 23.5168 4.51141C23.7409 4.55215 23.9327 4.67379 24.0724 4.83972C23.9803 4.93361 23.8895 5.02867 23.7892 5.11548C23.1187 5.37057 22.5034 5.72958 21.8494 6.01538C21.7771 6.0449 21.7047 6.07384 21.6317 6.10159C21.4545 6.16241 21.2805 6.23327 21.1174 6.32125C21.1504 6.41927 21.1815 6.51847 21.2132 6.61768C21.2666 6.40038 21.438 6.2563 21.6437 6.15887C21.6793 6.30944 21.7053 6.46238 21.7231 6.6165C21.5872 6.68263 21.4571 6.75821 21.3345 6.84324C21.2678 6.78656 21.2018 6.73105 21.1345 6.67673C21.0812 6.63303 21.0272 6.58992 20.9739 6.54682C20.9345 6.53619 20.8551 6.51434 20.8158 6.50371C20.9008 6.35019 21.0799 6.2191 21.099 6.04727C20.9383 5.84768 20.6285 5.88075 20.3923 5.83351C20.4221 5.88665 20.4526 5.94039 20.4831 5.99471C20.351 5.97523 20.2196 5.95397 20.0881 5.93212C20.1078 5.91677 20.1478 5.88724 20.1675 5.87248C19.8754 5.80103 19.5757 5.73195 19.2722 5.76738C18.7281 5.71896 18.2049 5.56366 17.6735 5.45442C16.7242 5.23771 15.7509 5.1326 14.7972 4.93656C14.5128 4.8657 14.2004 4.94424 13.9324 4.81315C13.7686 4.7352 13.5629 4.68855 13.4664 4.52971C13.2486 4.17837 13.0333 3.817 12.9432 3.41664ZM17.6303 4.04197C17.6754 4.09275 17.7205 4.14413 17.7655 4.1955C17.6081 4.18133 17.4512 4.16538 17.2931 4.16125C17.4449 4.33544 17.7579 4.25809 17.963 4.20081C17.9332 4.14767 17.9039 4.09452 17.8754 4.04138C17.7935 4.04197 17.7116 4.04197 17.6303 4.04197ZM13.5915 4.55747C13.7813 4.4683 13.5978 4.75469 13.5915 4.55747Z" fill="#A83F46"/>
<path d="M19.3275 6.6224C19.5878 6.60587 19.8475 6.63421 20.1034 6.67909C20.0773 6.77357 20.0507 6.86923 20.0246 6.96429C19.9053 6.91706 19.7903 6.85978 19.6691 6.81785C19.577 6.78892 19.4602 6.83498 19.3859 6.7653C19.3713 6.72987 19.3421 6.65842 19.3275 6.6224Z" fill="#A83F46"/>
<path d="M3.39755 0.698041C3.5258 0.558686 3.69216 0.404568 3.90042 0.397482C4.31122 0.41874 4.71948 0.352605 5.13029 0.373272C5.53347 0.371501 5.92967 0.450626 6.33159 0.46775C6.93478 0.484875 7.53733 0.528571 8.13925 0.567543C9.08531 0.68505 10.0352 0.768308 10.9819 0.874595C11.2289 0.891129 11.4206 1.04761 11.5958 1.19464C11.613 1.20999 11.646 1.24011 11.6625 1.25546C11.8416 1.42611 11.9838 1.62629 12.1076 1.83473C12.394 2.3579 12.7013 2.8734 12.9432 3.41664C13.0333 3.817 13.2486 4.17837 13.4664 4.52971C13.5629 4.68855 13.7686 4.7352 13.9324 4.81315C14.2004 4.94424 14.5128 4.8657 14.7972 4.93656C15.7509 5.1326 16.7242 5.23771 17.6735 5.45442C18.2049 5.56366 18.7281 5.71896 19.2722 5.76738C19.544 5.82111 19.8138 5.88784 20.0881 5.93212C20.2196 5.95397 20.351 5.97523 20.4831 5.99471C20.4526 5.94039 20.4221 5.88665 20.3923 5.83351C20.6285 5.88075 20.9383 5.84768 21.099 6.04727C21.0799 6.2191 20.9008 6.35019 20.8158 6.50371C20.7161 6.60587 20.9504 6.65842 20.9739 6.54682C21.0272 6.58992 21.0812 6.63303 21.1345 6.67673C21.139 6.74758 21.1434 6.81844 21.1485 6.89048C21.1961 6.8834 21.2437 6.87749 21.292 6.871C21.5307 6.86864 21.7459 6.76884 21.9479 6.66137C21.9726 6.44112 21.9688 6.21319 21.8494 6.01538C22.5034 5.72958 23.1187 5.37057 23.7892 5.11548C23.8304 5.20936 23.8717 5.30325 23.9066 5.40009L23.9206 5.45737C23.9301 5.49752 23.9492 5.57842 23.9587 5.61916C24.0451 5.52705 24.1289 5.43316 24.2095 5.33691C24.1301 5.36703 24.0514 5.39832 23.9746 5.43257C24.0514 5.31447 24.0571 5.18043 24.0076 5.0523C24.0597 5.01568 24.113 4.98203 24.167 4.94896C24.2184 5.13437 24.2463 5.32451 24.2609 5.51524C23.565 5.99353 22.7974 6.37026 22.0437 6.76294C21.7802 6.90406 21.4717 6.9578 21.2177 7.11428C21.1294 7.26662 21.158 7.45204 21.1351 7.61914C21.1212 7.97462 21.0164 8.34013 21.1224 8.69029C21.2437 8.86448 21.4844 8.75229 21.638 8.68379C22.3301 8.34426 22.9199 7.85357 23.5942 7.4857C23.5784 7.59671 23.5688 7.7089 23.5403 7.81755L23.5333 7.82877C23.0101 8.23207 22.4653 8.62652 21.8552 8.9129C21.7472 8.89401 21.6393 8.87688 21.5313 8.86094C21.4075 8.9377 21.2913 9.05816 21.1301 9.0493C20.6913 9.05875 20.2132 8.845 19.8119 9.10009C19.5605 8.85385 19.4659 8.51314 19.2386 8.25156C18.8957 7.84825 18.509 7.44731 17.9935 7.23592C17.33 6.98437 16.5579 6.91351 15.8848 7.17628C15.6239 7.2808 15.3191 7.41779 15.2467 7.69945C15.135 7.98761 15.2867 8.336 15.0505 8.58341C14.841 8.82728 14.8505 9.15205 14.7483 9.43666C14.535 9.55535 14.321 9.67345 14.0918 9.7638C14.1718 9.6209 14.267 9.4839 14.3204 9.33038C14.2556 9.16386 14.02 9.1491 13.86 9.10776C12.7546 8.93121 11.6536 8.73457 10.5533 8.5344C9.11579 8.29407 7.68718 8.00119 6.23762 7.83231C6.04968 7.05936 5.69221 6.28582 5.03378 5.75911C4.6979 5.4615 4.22614 5.25306 3.75502 5.34754C3.50295 5.40659 3.2604 5.55126 3.12579 5.76147C3.06928 5.95574 3.21024 6.15001 3.1804 6.34546C3.115 6.52438 3.01658 6.69621 2.88515 6.84029C2.81467 6.92355 2.69467 6.871 2.6007 6.87336C2.47498 6.65606 2.20323 6.56985 2.04196 6.37912C2.09275 6.21792 2.18799 6.039 2.13529 5.87248C1.95116 5.73903 1.7429 5.63747 1.53782 5.53532L1.50988 5.52232C1.53591 5.50756 1.58798 5.47863 1.61401 5.46387C1.58734 5.03871 1.47877 4.61947 1.49845 4.19077C1.53972 4.23211 1.58099 4.27344 1.62163 4.31537C1.60893 3.95222 1.92449 3.71071 2.04323 3.38948C2.16958 3.08184 2.34292 2.7925 2.45657 2.48013C2.56451 2.17308 2.75372 1.89732 2.8496 1.58613C2.86356 1.56133 2.89214 1.51291 2.90611 1.48811C3.13659 1.26668 3.29215 0.969665 3.59374 0.820272C3.80645 0.698632 4.06486 0.705127 4.30487 0.716346C5.43125 0.799014 6.5608 0.833262 7.68654 0.922425C8.51387 1.0358 9.35071 1.0665 10.178 1.17752C10.4892 1.21767 10.8142 1.23125 11.1025 1.35821C11.3177 1.47276 11.4866 1.64754 11.6911 1.77745C11.5958 1.62629 11.4778 1.48575 11.3203 1.38773C10.9819 1.14681 10.5374 1.13913 10.1336 1.08304C8.80657 0.973207 7.48527 0.797833 6.15317 0.756499C5.70618 0.698631 5.25283 0.726975 4.80584 0.666745C4.32011 0.640764 3.7874 0.559867 3.35818 0.829129C3.36834 0.796652 3.38739 0.730518 3.39755 0.698041ZM4.13534 1.0234C3.97343 1.1167 3.89026 1.28558 3.81914 1.44265C3.63057 1.88965 3.42548 2.3331 3.30548 2.80195C3.22738 3.02515 3.43818 3.26902 3.67819 3.29501C3.94296 3.33634 4.21027 3.36232 4.47884 3.3759C4.58869 3.45444 4.73853 3.42078 4.86742 3.44204C5.7011 3.5377 6.5335 3.65461 7.36908 3.73079L7.33288 3.68473C7.40717 3.67292 7.44908 3.63276 7.45733 3.56427C7.50686 3.46566 7.52971 3.35878 7.5386 3.25131C7.59575 2.65433 7.6675 2.05852 7.70369 1.46154L7.66559 1.43379C7.63638 1.36116 7.60718 1.28794 7.57797 1.21531C7.31701 1.14563 7.04653 1.12142 6.77604 1.12142C5.89793 1.0482 5.01663 0.964351 4.13534 1.0234ZM8.11894 1.59971C8.06751 2.23154 7.99449 2.86218 7.94433 3.494C7.93607 3.59852 7.94179 3.71779 8.03131 3.79397C8.40148 3.89966 8.79451 3.90498 9.17484 3.96698C9.81358 4.03843 10.4479 4.14826 11.0892 4.20022L11.0923 4.26045C11.1438 4.26518 11.2466 4.2758 11.2981 4.28112C11.1933 4.35434 11.0898 4.42933 10.9876 4.50609C11.0314 4.57695 11.0746 4.6484 11.1184 4.71985C11.2885 4.67734 11.4447 4.59939 11.6117 4.54979C11.7832 4.52322 11.9584 4.5244 12.1317 4.51259C12.1394 4.48248 12.1546 4.42165 12.1622 4.39154C12.3762 4.45945 12.2232 4.636 12.1152 4.72221C12.2867 4.76296 12.4657 4.77241 12.6359 4.71749C12.5686 4.57577 12.4016 4.51377 12.2981 4.39863C12.3851 4.38446 12.4721 4.37146 12.5597 4.35965C12.5927 4.17011 12.5489 3.98351 12.4244 3.8294L12.4676 3.79869L12.3927 3.79456C12.3146 3.46802 12.1336 3.16864 11.9279 2.89761C11.792 2.59173 11.6505 2.28822 11.4905 1.99357C11.3362 1.69774 10.999 1.5076 10.653 1.47394C9.91454 1.38478 9.17103 1.33104 8.43133 1.2531C8.23259 1.22594 8.131 1.44619 8.11894 1.59971ZM12.1844 2.81435C12.1355 2.87281 12.18 2.9726 12.2524 2.99622C12.3641 2.98087 12.2809 2.77538 12.1844 2.81435ZM12.6987 3.7981C12.7311 3.82762 12.7311 3.82762 12.6987 3.7981ZM2.27625 4.34489C2.21783 4.41339 2.23434 4.45177 2.32514 4.45945C2.38292 4.39036 2.36704 4.35257 2.27625 4.34489ZM7.61924 4.31537C7.49924 4.3691 7.54622 4.49724 7.53924 4.59585C7.83512 4.63364 8.12909 4.68501 8.42497 4.7293C8.45926 4.63659 8.52022 4.52204 8.40783 4.45236C8.16084 4.35611 7.88528 4.326 7.61924 4.31537ZM19.3275 6.6224C19.3421 6.65842 19.3713 6.72987 19.3859 6.7653C19.4602 6.83498 19.577 6.78892 19.6691 6.81785C19.7903 6.85978 19.9053 6.91706 20.0246 6.96429C20.0507 6.86923 20.0773 6.77357 20.1034 6.67909C19.8475 6.63421 19.5878 6.60587 19.3275 6.6224Z" fill="#711512"/>
<path d="M17.6303 4.04197C17.7116 4.04197 17.7935 4.04197 17.8754 4.04138C17.9039 4.09452 17.9332 4.14767 17.963 4.20081C17.7579 4.25809 17.4449 4.33544 17.2931 4.16125C17.4512 4.16538 17.6081 4.18133 17.7655 4.1955C17.7205 4.14413 17.6754 4.09275 17.6303 4.04197Z" fill="#711512"/>
<path d="M3.35818 0.829129C3.7874 0.559867 4.32011 0.640764 4.80584 0.666745C5.25283 0.726975 5.70618 0.698631 6.15317 0.756499C7.48527 0.797833 8.80657 0.973207 10.1336 1.08304C10.5374 1.13913 10.9819 1.14681 11.3203 1.38773C11.4778 1.48575 11.5958 1.62629 11.6911 1.77745C11.4866 1.64754 11.3177 1.47276 11.1025 1.35821C10.8142 1.23125 10.4892 1.21767 10.178 1.17752C9.35071 1.0665 8.51387 1.0358 7.68654 0.922425C6.5608 0.833262 5.43125 0.799014 4.30487 0.716346C4.06486 0.705127 3.80645 0.698632 3.59374 0.820272C3.29215 0.969665 3.13659 1.26668 2.90611 1.48811C2.98547 1.18815 3.1931 0.934826 3.39755 0.698041C3.38739 0.730518 3.36834 0.796652 3.35818 0.829129Z" fill="#4A4C4D"/>
<path d="M13.3838 1.06355C14.161 0.93955 14.947 0.821452 15.7382 0.878138C15.9407 0.957264 16.0512 1.14445 16.1756 1.30152C16.7211 2.05262 17.2131 2.83619 17.7751 3.57667C17.3496 3.55009 16.9109 3.53474 16.5007 3.66347C16.3547 3.71543 16.2544 3.83471 16.1426 3.93096C16.0715 3.88372 16.0042 3.8294 15.9217 3.80046C15.7661 3.77979 15.6137 3.81699 15.4702 3.86955C15.5039 3.87959 15.5712 3.90025 15.6048 3.91088C15.1267 4.06087 14.6791 4.32363 14.168 4.36083C14.0042 4.31714 13.834 4.31301 13.6708 4.35965C13.5737 4.30651 13.5165 4.2138 13.448 4.13468C13.4448 4.13232 13.4397 4.12759 13.4372 4.12464C13.4048 4.10102 13.3407 4.05319 13.3083 4.02898C13.2626 3.95163 13.2181 3.87368 13.1743 3.79574C13.187 3.77389 13.213 3.73019 13.2264 3.70835C13.2384 3.68827 13.2632 3.64753 13.2759 3.62686C13.1768 3.34402 12.9895 3.0966 12.8689 2.82202C13.3972 2.91119 13.9337 2.93717 14.4658 3.00094C14.6651 3.01511 14.8664 3.0594 15.067 3.03814C15.1845 2.98264 15.2778 2.89288 15.3788 2.81435C15.3502 2.24217 15.3121 1.67057 15.2607 1.09957C14.9134 1.05351 14.5648 0.960216 14.2118 1.01277C14.2315 1.10961 14.2524 1.20645 14.2734 1.30329C14.42 1.28971 14.5674 1.27495 14.714 1.25959C14.7324 1.40485 14.7502 1.55011 14.7655 1.69596C14.3877 1.71604 14.0124 1.75206 13.6359 1.7804C13.6353 1.7373 13.6346 1.65168 13.634 1.60857C13.8327 1.62097 14.0321 1.60149 14.2232 1.54834C14.2213 1.4952 14.2181 1.3895 14.2162 1.33636C14.0207 1.33813 13.8257 1.36234 13.6391 1.41784C13.6461 1.39541 13.6607 1.34994 13.6683 1.3275C13.8277 1.30801 13.9883 1.29857 14.1489 1.28794C14.1197 1.20999 14.0899 1.13264 14.0607 1.05528C13.6232 1.09544 13.194 1.18696 12.7629 1.26255C12.7451 1.45859 12.7571 1.65522 12.7902 1.84949C12.8327 2.12112 12.806 2.39569 12.7984 2.6685C12.7235 2.54331 12.6333 2.42699 12.5476 2.3083C12.5089 1.98589 12.1521 1.67648 12.3495 1.35407C12.6537 1.1663 13.0391 1.15272 13.3838 1.06355ZM15.4125 1.23243C15.5255 1.73316 15.4347 2.24984 15.5648 2.74939C15.6277 2.77183 15.6906 2.79486 15.754 2.81848C15.7782 2.89229 15.8023 2.9661 15.8271 3.03991C15.881 3.06235 15.9344 3.08479 15.9883 3.10841C15.9172 3.13203 15.8474 3.15683 15.7775 3.18222C16.0798 3.19757 16.3826 3.18931 16.6849 3.18517C16.7503 2.81021 16.3991 2.55808 16.2233 2.25988C15.9483 1.92153 15.7648 1.51055 15.4125 1.23243ZM14.2581 1.34226C14.2594 1.39777 14.2613 1.5076 14.2619 1.5631C14.42 1.57905 14.535 1.49756 14.5534 1.34935C14.4543 1.3464 14.3566 1.34403 14.2581 1.34226ZM15.5547 2.85982C15.4721 2.93658 15.6036 3.08066 15.6963 3.00862C15.7706 2.93363 15.6442 2.78837 15.5547 2.85982ZM15.3007 2.95311C15.2848 2.97142 15.2531 3.00744 15.2378 3.02515C15.2988 3.22651 15.5445 2.91768 15.3007 2.95311ZM13.4467 3.09011C13.4664 3.24009 13.6518 3.25249 13.7781 3.2767C14.0861 3.31036 14.3921 3.36704 14.702 3.37767C14.8048 3.32158 14.8772 3.23005 14.9604 3.1527C14.5737 3.1338 14.1902 3.08243 13.8067 3.03755C13.6829 3.01511 13.5629 3.05881 13.4467 3.09011ZM15.6213 3.14797C15.6531 3.1775 15.6531 3.1775 15.6213 3.14797ZM16.7649 3.13734C16.9534 3.04582 16.7744 3.33339 16.7649 3.13734ZM16.0055 3.44026C16.0379 3.46979 16.0379 3.46979 16.0055 3.44026ZM13.9705 3.96226C14.1578 3.86837 13.9826 4.15948 13.9705 3.96226Z" fill="#4A4C4D"/>
<path d="M4.13534 1.0234C5.01663 0.964351 5.89793 1.0482 6.77604 1.12142C7.04653 1.12142 7.31701 1.14563 7.57797 1.21531C7.60718 1.28794 7.63638 1.36116 7.66559 1.43379C7.46368 1.49166 7.70305 1.66231 7.70369 1.46154C7.6675 2.05852 7.59575 2.65433 7.5386 3.25131C7.52971 3.35878 7.50686 3.46566 7.45733 3.56427C7.46495 3.39598 7.46368 3.22828 7.44908 3.06058C7.41733 3.22769 7.42939 3.39716 7.45733 3.56427C7.44908 3.63276 7.40717 3.67292 7.33288 3.68473C6.38048 3.59143 5.43696 3.4072 4.47884 3.3759C4.21027 3.36232 3.94296 3.33634 3.67819 3.29501C3.43818 3.26902 3.22738 3.02515 3.30548 2.80195C3.42548 2.3331 3.63057 1.88965 3.81914 1.44265C3.89026 1.28558 3.97343 1.1167 4.13534 1.0234ZM4.06931 1.26195C3.79121 1.71072 3.65279 2.21736 3.46422 2.70156C4.37281 2.55689 5.28966 2.46419 6.2046 2.36262C6.38683 2.36439 6.46683 2.19906 6.51699 2.06325C6.61604 1.7869 6.74176 1.52059 6.84906 1.24778C6.15698 1.16689 5.46046 1.12378 4.76393 1.09603C4.5271 1.06414 4.2109 1.03993 4.06931 1.26195ZM7.54622 1.72313C7.55257 1.90145 7.5094 2.08982 7.58495 2.25988C7.60591 2.08096 7.60146 1.90145 7.59892 1.72194L7.54622 1.72313ZM7.48463 2.43466C7.49035 2.61122 7.44908 2.79781 7.52083 2.96728C7.54051 2.78955 7.53606 2.61122 7.53352 2.43348L7.48463 2.43466Z" fill="#4A4C4D"/>
<path d="M8.31132 1.35702C8.43514 1.33813 8.56149 1.34994 8.68593 1.35525C8.59831 1.66053 8.53419 1.97408 8.56022 2.29177C8.71006 2.36321 8.86435 2.43112 9.03388 2.45002C9.67136 2.52737 10.3165 2.55394 10.952 2.64842C11.0428 3.12908 10.9266 3.60796 10.9038 4.08803C10.4942 4.04433 10.0866 3.99178 9.67898 3.93627C9.1342 3.86305 8.58244 3.83235 8.04401 3.72311C7.97036 3.11077 8.1456 2.50316 8.15322 1.89141C8.16275 1.70895 8.15767 1.49106 8.31132 1.35702Z" fill="#4A4C4D"/>
<path d="M2.51752 2.06502C2.62419 1.90263 2.68007 1.70423 2.8496 1.58613C2.75372 1.89732 2.56451 2.17308 2.45657 2.48013C2.34292 2.7925 2.16958 3.08184 2.04323 3.38948C1.92449 3.71071 1.60893 3.95222 1.62163 4.31537C1.58099 4.27344 1.53972 4.23211 1.49845 4.19077C1.52956 3.83058 1.7175 3.50699 1.8883 3.19049C2.09847 2.81553 2.28133 2.42699 2.51752 2.06502Z" fill="#4A4C4D"/>
<path d="M11.1997 2.66259C11.2892 2.5191 11.4085 2.39392 11.5425 2.28527C11.6486 2.5008 11.7705 2.71042 11.9279 2.89761C12.1336 3.16864 12.3146 3.46802 12.3927 3.79456C12.0822 3.77743 11.7705 3.78393 11.4612 3.81286C11.7647 3.90143 12.1597 4.09098 12.4244 3.8294C12.5489 3.98351 12.5927 4.17011 12.5597 4.35965C12.4721 4.37146 12.3851 4.38446 12.2981 4.39863C12.4016 4.51377 12.5686 4.57577 12.6359 4.71749C12.4657 4.77241 12.2867 4.76296 12.1152 4.72221C12.2232 4.636 12.3762 4.45945 12.1622 4.39154C11.8784 4.32836 11.587 4.31182 11.2981 4.28112C11.2466 4.2758 11.1438 4.26518 11.0923 4.26045L11.0892 4.20022C11.046 3.68473 11.1514 3.17395 11.1997 2.66259Z" fill="#4A4C4D"/>
<path d="M7.61924 4.31537C7.88528 4.326 8.16084 4.35611 8.40783 4.45236C8.52022 4.52204 8.45926 4.63659 8.42497 4.7293C8.12909 4.68501 7.83512 4.63364 7.53924 4.59585C7.54622 4.49724 7.49924 4.3691 7.61924 4.31537Z" fill="#4A4C4D"/>
<path d="M24.0724 4.83972C24.1035 4.87574 24.1352 4.91235 24.167 4.94896C24.113 4.98203 24.0597 5.01568 24.0076 5.0523C23.9308 5.15386 23.9168 5.27963 23.9066 5.40009C23.8717 5.30325 23.8304 5.20936 23.7892 5.11548C23.8895 5.02867 23.9803 4.93361 24.0724 4.83972Z" fill="#4A4C4D"/>
<path d="M23.9746 5.43257C24.0514 5.39832 24.1301 5.36703 24.2095 5.33691C24.1289 5.43316 24.0451 5.52705 23.9587 5.61916C23.9492 5.57842 23.9301 5.49752 23.9206 5.45737L23.9746 5.43257Z" fill="#4A4C4D"/>
<path d="M24.2609 5.51524C24.287 5.50638 24.3397 5.48866 24.3657 5.47922C24.3549 5.60971 24.4032 5.78155 24.2679 5.87012C24.1771 5.94984 24.0482 6.01833 24.0343 6.14647C24.0019 6.28523 24.1066 6.40569 24.1676 6.52379C24.2127 6.43463 24.2584 6.34605 24.2978 6.25512C24.2851 6.52556 24.1981 6.78715 24.0571 7.02334C24.3771 7.07353 24.7454 7.05818 25 7.27489C24.9638 7.45912 24.9537 7.64749 24.9079 7.82995C24.7416 8.04607 24.5136 8.21317 24.2933 8.3791C23.7435 8.77236 23.2431 9.22704 22.6495 9.5648C22.4876 9.664 22.3428 9.78505 22.1879 9.89252C21.9174 9.66991 21.5993 9.5087 21.3091 9.31148C21.4653 9.17921 21.6615 9.10363 21.8552 9.03159C21.8552 9.00207 21.8552 8.94243 21.8552 8.9129C22.4653 8.62652 23.0101 8.23207 23.5333 7.82877C23.5352 7.82582 23.5384 7.8205 23.5403 7.81755C23.5688 7.7089 23.5784 7.59671 23.5942 7.4857C22.9199 7.85357 22.3301 8.34426 21.638 8.68379C21.4844 8.75229 21.2437 8.86448 21.1224 8.69029C21.0164 8.34013 21.1212 7.97462 21.1351 7.61914C21.158 7.45204 21.1294 7.26662 21.2177 7.11428C21.4717 6.9578 21.7802 6.90406 22.0437 6.76294C22.7974 6.37026 23.565 5.99353 24.2609 5.51524ZM23.9435 6.52615C23.8901 6.61236 23.8908 6.73696 23.946 6.82258C24.0343 6.78715 24.0298 6.56276 23.9435 6.52615ZM21.7275 7.18514C21.5282 7.40421 21.4088 7.70713 21.5072 7.99174C21.5891 7.8701 21.6672 7.7461 21.7428 7.62091C21.7263 7.72661 21.7117 7.83231 21.7002 7.9386C21.9802 7.77267 21.8787 7.42724 21.8456 7.17392C21.8164 7.17687 21.7574 7.18218 21.7275 7.18514ZM21.3269 7.29733C21.2672 7.36464 21.2831 7.40303 21.3739 7.41188C21.4329 7.34398 21.4171 7.3056 21.3269 7.29733ZM23.5003 8.23975C23.4304 8.42575 23.4488 8.62947 23.4336 8.82433C23.5015 8.78831 23.5701 8.75288 23.6362 8.71391C23.7923 8.63714 23.8146 8.45646 23.8876 8.3236C23.9447 8.36257 24.0012 8.40213 24.0584 8.44169C24.0578 8.40272 24.0565 8.32478 24.0558 8.2858C24.0857 8.29525 24.146 8.31415 24.1759 8.3236C24.1752 8.16416 24.1746 8.00414 24.1866 7.8453C24.3581 7.90789 24.2489 8.1246 24.3657 8.23443C24.3714 8.02717 24.3149 7.82109 24.3581 7.61501C24.0781 7.82995 23.7612 8.00414 23.5003 8.23975Z" fill="#4A4C4D"/>
<path d="M21.6317 6.10159C21.7047 6.07384 21.7771 6.0449 21.8494 6.01538C21.9688 6.21319 21.9726 6.44112 21.9479 6.66137C21.7459 6.76884 21.5307 6.86864 21.292 6.871L21.3345 6.84324C21.4571 6.75821 21.5872 6.68263 21.7231 6.6165C21.7428 6.60528 21.7828 6.58402 21.8031 6.5728C21.8209 6.43876 21.819 6.30295 21.8164 6.16832C21.7701 6.15119 21.678 6.11812 21.6317 6.10159Z" fill="#4A4C4D"/>
<path d="M21.1174 6.32125C21.2805 6.23327 21.4545 6.16241 21.6317 6.10159L21.6437 6.15887C21.438 6.2563 21.2666 6.40038 21.2132 6.61768C21.1815 6.51847 21.1504 6.41927 21.1174 6.32125Z" fill="#4A4C4D"/>
<path d="M3.78041 6.83321C3.9601 6.73105 4.17979 6.63185 4.39186 6.70389C4.87695 6.83498 5.24648 7.22293 5.40204 7.66107C5.54617 7.99529 5.56903 8.38855 5.38617 8.7145C5.29029 8.62829 5.19759 8.5403 5.10616 8.45114C5.21728 8.41807 5.38871 8.41158 5.39061 8.2675C5.43442 8.15295 5.28839 8.11397 5.21981 8.0502C5.25537 7.96399 5.2922 7.87837 5.32839 7.79275C5.30807 7.74256 5.28775 7.69237 5.26744 7.64277C5.20458 7.6469 5.14235 7.65162 5.08013 7.65635C5.09283 7.55596 5.11505 7.45558 5.10235 7.3552C5.01029 7.30264 4.91124 7.26308 4.81409 7.21938C4.75568 7.08475 4.64075 6.98968 4.48202 6.97138L4.43948 6.96311C4.19312 6.9578 3.96074 7.0387 3.74422 7.13967C3.83502 7.03279 3.92264 6.92414 4.00772 6.81372C3.93216 6.81903 3.85597 6.82553 3.78041 6.83321Z" fill="#4A4C4D"/>
<path d="M4.18995 7.33866C4.67059 7.2743 4.99949 7.75968 4.93155 8.16239C4.76012 8.07677 4.82298 7.90022 4.816 7.75496C4.76139 7.77385 4.70742 7.79393 4.65345 7.81342C4.65345 7.95749 4.73853 8.14527 4.58424 8.24447C4.449 8.34899 4.31249 8.17125 4.249 8.07323C4.21154 7.90848 4.21471 7.73901 4.20201 7.57191C4.24455 7.56364 4.32963 7.54651 4.37218 7.53825C4.31694 7.51168 4.26233 7.48628 4.20709 7.46089C4.20265 7.43019 4.19439 7.36937 4.18995 7.33866Z" fill="#4A4C4D"/>
<path d="M3.74486 7.97639C3.73978 7.79275 3.71946 7.59434 3.83057 7.43137C3.84708 7.75968 3.77152 8.13346 4.02867 8.40272C4.21344 8.66194 4.5652 8.67021 4.85981 8.72217C4.89917 8.77059 4.9487 8.8078 5.00838 8.8326C4.79631 8.88869 4.56266 8.95365 4.34932 8.86743C3.97661 8.7204 3.75121 8.34367 3.74486 7.97639Z" fill="#4A4C4D"/>
<path d="M4.06487 7.9262C4.16836 7.89549 4.20328 7.92797 4.1709 8.02422C4.0674 8.05433 4.03185 8.02186 4.06487 7.9262Z" fill="#4A4C4D"/>
<path d="M16.6766 8.53086C17.6735 8.36375 18.6214 9.2483 18.5967 10.1582C18.5814 10.3643 18.6284 10.6312 18.4417 10.7818C18.3205 10.8473 18.196 10.9076 18.0735 10.9702C18.177 10.7375 18.2906 10.5001 18.29 10.2433C18.29 10.1441 18.2855 10.0449 18.2748 9.94626C18.2608 9.84646 18.2392 9.74844 18.2182 9.65042C18.1332 9.64688 18.0487 9.64452 17.9643 9.64156C17.984 9.53291 18.0468 9.4219 18.0227 9.31207C17.9484 9.15205 17.7433 9.19456 17.5947 9.18807C17.5966 9.11426 17.5985 9.04045 17.6017 8.96723C17.5135 8.93475 17.4296 8.87216 17.3319 8.87511C17.2335 8.91467 17.1452 8.97313 17.0544 9.02569C17.0436 8.9814 17.0334 8.9377 17.0233 8.89401C17.0798 8.8574 17.1363 8.82138 17.1935 8.78595C16.935 8.7889 16.6766 8.79244 16.4182 8.79362C16.5674 8.7204 16.7173 8.65013 16.8671 8.57869C16.8036 8.56156 16.7401 8.54562 16.6766 8.53086Z" fill="#4A4C4D"/>
<path d="M16.5661 8.91822C16.6963 8.87216 16.7153 9.06702 16.5998 9.08946C16.469 9.13493 16.4493 8.93947 16.5661 8.91822Z" fill="#4A4C4D"/>
<path d="M16.935 9.28491C17.2176 9.26424 17.5033 9.37584 17.6633 9.59787C17.8487 9.8128 17.8227 10.1027 17.7871 10.359C17.6728 10.3667 17.5592 10.3785 17.4449 10.3879C17.4316 10.3655 17.4049 10.3194 17.3916 10.2964C17.5077 10.2126 17.6652 10.1352 17.6798 9.98227C17.6417 9.80336 17.4163 9.81458 17.2652 9.80336C17.3319 9.89016 17.4131 9.96574 17.5008 10.0348C17.4131 10.1647 17.3223 10.2941 17.2335 10.4234C17.069 10.3442 16.8614 10.2946 16.7706 10.1299C16.7052 10.0301 16.742 9.91082 16.7414 9.80217C16.8468 9.79745 16.9528 9.79332 17.0588 9.78977C16.9934 9.7632 16.928 9.73722 16.8633 9.71124C16.9496 9.67286 17.0379 9.63743 17.1217 9.59314C17.1788 9.45024 16.9033 9.43666 16.935 9.28491Z" fill="#4A4C4D"/>
<path d="M16.0817 9.34514C16.1522 9.36285 16.2226 9.38116 16.2931 9.39946C16.2772 9.59196 16.2372 9.78328 16.2417 9.97637C16.2741 10.3643 16.5972 10.7198 17.0068 10.8054C17.2436 10.8633 17.4798 10.9271 17.702 11.0239C17.436 11.0705 17.1604 11.1266 16.89 11.0776C16.4264 10.9755 16.0645 10.6023 15.9763 10.17C15.8918 9.89193 15.9699 9.60495 16.0817 9.34514Z" fill="#4A4C4D"/>
<path d="M16.8919 10.3997C16.9547 10.3135 17.1185 10.408 17.0449 10.4954C16.9814 10.5798 16.8176 10.4866 16.8919 10.3997Z" fill="#4A4C4D"/>
<path d="M12.2359 1.23775C13.2841 0.928922 14.3889 0.806689 15.4848 0.774803C15.582 0.774212 15.6582 0.835623 15.7382 0.878138C14.947 0.821452 14.161 0.93955 13.3838 1.06355C13.0391 1.15272 12.6537 1.1663 12.3495 1.35407C12.1521 1.67648 12.5089 1.98589 12.5476 2.3083C12.3013 2.0042 12.1006 1.62511 12.2359 1.23775Z" fill="#B5B7B7"/>
<path d="M11.5958 1.19464C11.6403 1.135 11.6955 1.12024 11.7622 1.14976C11.7825 1.21649 11.7495 1.25133 11.6625 1.25546C11.646 1.24011 11.613 1.20999 11.5958 1.19464Z" fill="#B5B7B7"/>
<path d="M8.11894 1.59971C8.131 1.44619 8.23259 1.22594 8.43133 1.2531C9.17103 1.33104 9.91454 1.38478 10.653 1.47394C10.999 1.5076 11.3362 1.69774 11.4905 1.99357C11.6505 2.28822 11.792 2.59173 11.9279 2.89761C11.7705 2.71042 11.6486 2.5008 11.5425 2.28527C11.4524 2.10163 11.3533 1.92271 11.239 1.75147C11.2143 2.05498 11.2035 2.35849 11.1997 2.66259C11.1514 3.17395 11.046 3.68473 11.0892 4.20022C10.4479 4.14826 9.81358 4.03843 9.17484 3.96698C8.79451 3.90498 8.40148 3.89966 8.03131 3.79397C7.94179 3.71779 7.93607 3.59852 7.94433 3.494C7.99449 2.86218 8.06751 2.23154 8.11894 1.59971ZM8.31132 1.35702C8.15767 1.49106 8.16275 1.70895 8.15322 1.89141C8.1456 2.50316 7.97036 3.11077 8.04401 3.72311C8.58244 3.83235 9.1342 3.86305 9.67898 3.93627C10.0866 3.99178 10.4942 4.04433 10.9038 4.08803C10.9266 3.60796 11.0428 3.12908 10.952 2.64842C11.0625 2.33428 11.0619 1.99652 11.0257 1.67116C10.9749 1.59676 10.8688 1.59853 10.7882 1.57905C10.4295 1.5259 10.0663 1.5135 9.70818 1.45977C9.36913 1.40367 9.02182 1.42847 8.68593 1.35525C8.56149 1.34994 8.43514 1.33813 8.31132 1.35702Z" fill="#B5B7B7"/>
<path d="M13.6391 1.41784C13.8257 1.36234 14.0207 1.33813 14.2162 1.33636C14.2181 1.3895 14.2213 1.4952 14.2232 1.54834C14.0321 1.60149 13.8327 1.62097 13.634 1.60857C13.6353 1.56074 13.6378 1.46567 13.6391 1.41784Z" fill="#B5B7B7"/>
<path d="M14.2581 1.34226C14.3566 1.34403 14.4543 1.3464 14.5534 1.34935C14.535 1.49756 14.42 1.57905 14.2619 1.5631C14.2613 1.5076 14.2594 1.39777 14.2581 1.34226Z" fill="#B5B7B7"/>
<path d="M7.66559 1.43379C7.46368 1.49166 7.70305 1.66231 7.70369 1.46154L7.66559 1.43379Z" fill="#B5B7B7"/>
<path d="M7.54622 1.72313L7.59892 1.72194C7.60146 1.90145 7.60591 2.08096 7.58495 2.25988C7.5094 2.08982 7.55257 1.90145 7.54622 1.72313Z" fill="#B5B7B7"/>
<path d="M12.5476 2.3083C12.6333 2.42699 12.7235 2.54331 12.7984 2.6685C12.8213 2.71987 12.8448 2.77065 12.8689 2.82202C12.9895 3.0966 13.1768 3.34402 13.2759 3.62686C13.2632 3.64753 13.2384 3.68827 13.2264 3.70835C13.0086 3.23832 12.6829 2.80903 12.5476 2.3083Z" fill="#B5B7B7"/>
<path d="M7.48463 2.43466L7.53352 2.43348C7.53606 2.61122 7.54051 2.78955 7.52083 2.96728C7.44908 2.79781 7.49035 2.61122 7.48463 2.43466Z" fill="#B5B7B7"/>
<path d="M12.2524 2.99622C12.3641 2.98087 12.2809 2.77538 12.1844 2.81435C12.1355 2.87281 12.18 2.9726 12.2524 2.99622Z" fill="#B5B7B7"/>
<path d="M7.44908 3.06058C7.41733 3.22769 7.42939 3.39716 7.45733 3.56427C7.46495 3.39598 7.46368 3.22828 7.44908 3.06058Z" fill="#B5B7B7"/>
<path d="M4.47884 3.3759C5.43696 3.4072 6.38048 3.59143 7.33288 3.68473L7.36908 3.73079C6.5335 3.65461 5.7011 3.5377 4.86742 3.44204C4.73853 3.42078 4.58869 3.45444 4.47884 3.3759Z" fill="#B5B7B7"/>
<path d="M16.0055 3.44026C16.0379 3.46979 16.0379 3.46979 16.0055 3.44026Z" fill="#B5B7B7"/>
<path d="M11.4612 3.81286C11.7705 3.78393 12.0822 3.77743 12.3927 3.79456L12.4676 3.79869L12.4244 3.8294C12.1597 4.09098 11.7647 3.90143 11.4612 3.81286Z" fill="#B5B7B7"/>
<path d="M12.6987 3.7981C12.7311 3.82762 12.7311 3.82762 12.6987 3.7981Z" fill="#B5B7B7"/>
<path d="M15.4702 3.86955C15.6137 3.81699 15.7661 3.77979 15.9217 3.80046C15.8156 3.83589 15.7109 3.87486 15.6048 3.91088C15.5712 3.90025 15.5039 3.87959 15.4702 3.86955Z" fill="#B5B7B7"/>
<path d="M13.9705 3.96226C14.1578 3.86837 13.9826 4.15948 13.9705 3.96226Z" fill="#B5B7B7"/>
<path d="M13.448 4.13468C13.4448 4.13232 13.4397 4.12759 13.4372 4.12464L13.448 4.13468Z" fill="#B5B7B7"/>
<path d="M2.32514 4.45945C2.38292 4.39036 2.36704 4.35257 2.27625 4.34489C2.21783 4.41339 2.23434 4.45177 2.32514 4.45945Z" fill="#B5B7B7"/>
<path d="M13.6708 4.35965C13.834 4.31301 14.0042 4.31714 14.168 4.36083C14.0943 4.39036 14.0207 4.41988 13.947 4.45C13.8543 4.42047 13.7616 4.39213 13.6708 4.35965Z" fill="#B5B7B7"/>
<path d="M13.5915 4.55747C13.7813 4.4683 13.5978 4.75469 13.5915 4.55747Z" fill="#B5B7B7"/>
<path d="M23.9066 5.40009C23.9168 5.27963 23.9308 5.15386 24.0076 5.0523C24.0571 5.18043 24.0514 5.31447 23.9746 5.43257L23.9206 5.45737L23.9066 5.40009Z" fill="#B5B7B7"/>
<path d="M19.2722 5.76738C19.5757 5.73195 19.8754 5.80103 20.1675 5.87248C20.1478 5.88724 20.1078 5.91677 20.0881 5.93212C19.8138 5.88784 19.544 5.82111 19.2722 5.76738Z" fill="#B5B7B7"/>
<path d="M24.0343 6.14647C24.0482 6.01833 24.1771 5.94984 24.2679 5.87012C24.2952 5.99589 24.3213 6.12639 24.2978 6.25512C24.2584 6.34605 24.2127 6.43463 24.1676 6.52379C24.1066 6.40569 24.0019 6.28523 24.0343 6.14647Z" fill="#B5B7B7"/>
<path d="M21.6317 6.10159C21.678 6.11812 21.7701 6.15119 21.8164 6.16832C21.819 6.30295 21.8209 6.43876 21.8031 6.5728C21.7828 6.58402 21.7428 6.60528 21.7231 6.6165C21.7053 6.46238 21.6793 6.30944 21.6437 6.15887L21.6317 6.10159Z" fill="#B5B7B7"/>
<path d="M20.9739 6.54682C20.9345 6.53619 20.8551 6.51434 20.8158 6.50371C20.7161 6.60587 20.9504 6.65842 20.9739 6.54682Z" fill="#B5B7B7"/>
<path d="M23.946 6.82258C24.0343 6.78715 24.0298 6.56276 23.9435 6.52615C23.8901 6.61236 23.8908 6.73696 23.946 6.82258Z" fill="#B5B7B7"/>
<path d="M21.1345 6.67673C21.2018 6.73105 21.2678 6.78656 21.3345 6.84324L21.292 6.871C21.2437 6.87749 21.1961 6.8834 21.1485 6.89048C21.1434 6.81844 21.139 6.74758 21.1345 6.67673Z" fill="#B5B7B7"/>
<path d="M3.78041 6.83321C3.85597 6.82553 3.93216 6.81903 4.00772 6.81372C3.92264 6.92414 3.83502 7.03279 3.74422 7.13967C3.96074 7.0387 4.19312 6.9578 4.43948 6.96311C4.38678 6.99323 4.30932 7.1255 4.41662 7.13435C4.48075 7.09715 4.50297 7.04283 4.48202 6.97138C4.64075 6.98968 4.75568 7.08475 4.81409 7.21938C4.91124 7.26308 5.01029 7.30264 5.10235 7.3552C5.11505 7.45558 5.09283 7.55596 5.08013 7.65635C5.14235 7.65162 5.20458 7.6469 5.26744 7.64277C5.28775 7.69237 5.30807 7.74256 5.32839 7.79275C5.2922 7.87837 5.25537 7.96399 5.21981 8.0502C5.28839 8.11397 5.43442 8.15295 5.39061 8.2675C5.38871 8.41158 5.21728 8.41807 5.10616 8.45114C5.19759 8.5403 5.29029 8.62829 5.38617 8.7145C5.26109 8.97372 5.02362 9.24476 4.6852 9.22232C4.28709 9.2796 3.95629 9.01565 3.71438 8.75524C3.45279 8.41453 3.28389 7.98761 3.35247 7.56482C3.39247 7.28729 3.51501 6.98732 3.78041 6.83321ZM4.18995 7.33866C4.19439 7.36937 4.20265 7.43019 4.20709 7.46089C4.26233 7.48628 4.31694 7.51168 4.37218 7.53825C4.32963 7.54651 4.24455 7.56364 4.20201 7.57191C4.21471 7.73901 4.21154 7.90848 4.249 8.07323C4.31249 8.17125 4.449 8.34899 4.58424 8.24447C4.73853 8.14527 4.65345 7.95749 4.65345 7.81342C4.70742 7.79393 4.76139 7.77385 4.816 7.75496C4.82298 7.90022 4.76012 8.07677 4.93155 8.16239C4.99949 7.75968 4.67059 7.2743 4.18995 7.33866ZM3.74486 7.97639C3.75121 8.34367 3.97661 8.7204 4.34932 8.86743C4.56266 8.95365 4.79631 8.88869 5.00838 8.8326C5.15759 8.76646 4.92647 8.59463 4.85981 8.72217C4.5652 8.67021 4.21344 8.66194 4.02867 8.40272C3.77152 8.13346 3.84708 7.75968 3.83057 7.43137C3.71946 7.59434 3.73978 7.79275 3.74486 7.97639ZM4.1709 8.02422C4.0674 8.05433 4.03185 8.02186 4.06487 7.9262C4.16836 7.89549 4.20328 7.92797 4.1709 8.02422Z" fill="#B5B7B7"/>
<path d="M21.7275 7.18514C21.7574 7.18218 21.8164 7.17687 21.8456 7.17392C21.8787 7.42724 21.9802 7.77267 21.7002 7.9386C21.7117 7.83231 21.7263 7.72661 21.7428 7.62091C21.6672 7.7461 21.5891 7.8701 21.5072 7.99174C21.4088 7.70713 21.5282 7.40421 21.7275 7.18514Z" fill="#B5B7B7"/>
<path d="M21.3739 7.41188C21.4329 7.34398 21.4171 7.3056 21.3269 7.29733C21.2672 7.36464 21.2831 7.40303 21.3739 7.41188Z" fill="#B5B7B7"/>
<path d="M23.5003 8.23975C23.7612 8.00414 24.0781 7.82995 24.3581 7.61501C24.3149 7.82109 24.3714 8.02717 24.3657 8.23443C24.2489 8.1246 24.3581 7.90789 24.1866 7.8453C24.1746 8.00414 24.1752 8.16416 24.1759 8.3236C24.146 8.31415 24.0857 8.29525 24.0558 8.2858C24.0565 8.32478 24.0578 8.40272 24.0584 8.44169C24.0012 8.40213 23.9447 8.36257 23.8876 8.3236C23.8146 8.45646 23.7923 8.63714 23.6362 8.71391C23.5701 8.75288 23.5015 8.78831 23.4336 8.82433C23.4488 8.62947 23.4304 8.42575 23.5003 8.23975ZM23.9955 7.92738C23.9676 8.01123 23.9981 8.0378 24.0863 8.0065C24.1143 7.92265 24.0838 7.89608 23.9955 7.92738ZM23.8095 8.11161C23.7384 8.1553 23.8 8.29998 23.8793 8.22498C23.9517 8.17893 23.8908 8.03721 23.8095 8.11161ZM24.0076 8.10334C24.04 8.13287 24.04 8.13287 24.0076 8.10334ZM23.6736 8.22675C23.8838 8.2362 23.5758 8.40272 23.6736 8.22675ZM23.5587 8.2982C23.4996 8.38678 23.5162 8.51373 23.5777 8.59876C23.6463 8.66608 23.6457 8.52967 23.6336 8.49779C23.612 8.43933 23.6412 8.31119 23.5587 8.2982Z" fill="#B5B7B7"/>
<path d="M16.0798 8.77118C16.2601 8.66312 16.455 8.53617 16.6766 8.53086C16.7401 8.54562 16.8036 8.56156 16.8671 8.57869C16.7173 8.65013 16.5674 8.7204 16.4182 8.79362C16.6766 8.79244 16.935 8.7889 17.1935 8.78595C17.1363 8.82138 17.0798 8.8574 17.0233 8.89401C17.0334 8.9377 17.0436 8.9814 17.0544 9.02569C17.1452 8.97313 17.2335 8.91467 17.3319 8.87511C17.4296 8.87216 17.5135 8.93475 17.6017 8.96723C17.5985 9.04045 17.5966 9.11426 17.5947 9.18807C17.7433 9.19456 17.9484 9.15205 18.0227 9.31207C18.0468 9.4219 17.984 9.53291 17.9643 9.64156C18.0487 9.64452 18.1332 9.64688 18.2182 9.65042C18.2392 9.74844 18.2608 9.84646 18.2748 9.94626C18.2036 10.0029 18.0887 10.0372 18.0824 10.1382C18.1503 10.1754 18.2189 10.2102 18.29 10.2433C18.2906 10.5001 18.177 10.7375 18.0735 10.9702C18.196 10.9076 18.3205 10.8473 18.4417 10.7818C18.2519 11.2016 17.7909 11.4679 17.3141 11.5164C16.3376 11.5181 15.5185 10.6501 15.554 9.75966C15.6042 9.39179 15.7261 8.98553 16.0798 8.77118ZM16.5998 9.08946C16.469 9.13493 16.4493 8.93947 16.5661 8.91822C16.6963 8.87216 16.7153 9.06702 16.5998 9.08946ZM16.935 9.28491C16.9033 9.43666 17.1788 9.45024 17.1217 9.59314C17.0379 9.63743 16.9496 9.67286 16.8633 9.71124C16.928 9.73722 16.9934 9.7632 17.0588 9.78977C16.9528 9.79332 16.8468 9.79745 16.7414 9.80217C16.742 9.91082 16.7052 10.0301 16.7706 10.1299C16.8614 10.2946 17.069 10.3442 17.2335 10.4234C17.3223 10.2941 17.4131 10.1647 17.5008 10.0348C17.4131 9.96574 17.3319 9.89016 17.2652 9.80336C17.4163 9.81458 17.6417 9.80336 17.6798 9.98227C17.6652 10.1352 17.5077 10.2126 17.3916 10.2964C17.4049 10.3194 17.4316 10.3655 17.4449 10.3879C17.5592 10.3785 17.6728 10.3667 17.7871 10.359C17.8227 10.1027 17.8487 9.8128 17.6633 9.59787C17.5033 9.37584 17.2176 9.26424 16.935 9.28491ZM16.0817 9.34514C15.9699 9.60495 15.8918 9.89193 15.9763 10.17C16.0645 10.6023 16.4264 10.9755 16.89 11.0776C17.1604 11.1266 17.436 11.0705 17.702 11.0239C17.4798 10.9271 17.2436 10.8633 17.0068 10.8054C16.5972 10.7198 16.2741 10.3643 16.2417 9.97637C16.2372 9.78328 16.2772 9.59196 16.2931 9.39946C16.2226 9.38116 16.1522 9.36285 16.0817 9.34514ZM17.0449 10.4954C16.9814 10.5798 16.8176 10.4866 16.8919 10.3997C16.9547 10.3135 17.1185 10.408 17.0449 10.4954ZM18.0347 10.5178C17.9535 10.5362 17.9078 10.6743 18.0125 10.6938C18.1541 10.7233 18.2024 10.4671 18.0347 10.5178ZM17.6036 10.8769C17.6138 10.9589 17.657 10.9731 17.7319 10.92C17.7205 10.8373 17.6779 10.8225 17.6036 10.8769Z" fill="#B5B7B7"/>
<path d="M14.2118 1.01277C14.5648 0.960216 14.9134 1.05351 15.2607 1.09957C15.3121 1.67057 15.3502 2.24217 15.3788 2.81435C15.2778 2.89288 15.1845 2.98264 15.067 3.03814C14.8664 3.0594 14.6651 3.01511 14.4658 3.00094C13.9337 2.93717 13.3972 2.91119 12.8689 2.82202C12.8448 2.77065 12.8213 2.71987 12.7984 2.6685C12.806 2.39569 12.8327 2.12112 12.7902 1.84949C12.7571 1.65522 12.7451 1.45859 12.7629 1.26255C13.194 1.18696 13.6232 1.09544 14.0607 1.05528C14.0899 1.13264 14.1197 1.20999 14.1489 1.28794C13.9883 1.29857 13.8277 1.30801 13.6683 1.3275C13.6607 1.34994 13.6461 1.39541 13.6391 1.41784C13.6378 1.46567 13.6353 1.56074 13.634 1.60857C13.6346 1.65168 13.6353 1.7373 13.6359 1.7804C14.0124 1.75206 14.3877 1.71604 14.7655 1.69596C14.7502 1.55011 14.7324 1.40485 14.714 1.25959C14.5674 1.27495 14.42 1.28971 14.2734 1.30329C14.2524 1.20645 14.2315 1.10961 14.2118 1.01277Z" fill="#030303"/>
<path d="M4.06931 1.26195C4.2109 1.03993 4.5271 1.06414 4.76393 1.09603C5.46046 1.12378 6.15698 1.16689 6.84906 1.24778C6.74176 1.52059 6.61604 1.7869 6.51699 2.06325C6.46683 2.19906 6.38683 2.36439 6.2046 2.36262C5.28966 2.46419 4.37281 2.55689 3.46422 2.70156C3.65279 2.21736 3.79121 1.71072 4.06931 1.26195Z" fill="#030303"/>
<path d="M15.4125 1.23243C15.7648 1.51055 15.9483 1.92153 16.2233 2.25988C16.3991 2.55808 16.7503 2.81021 16.6849 3.18517C16.3826 3.18931 16.0798 3.19757 15.7775 3.18222C15.8474 3.15683 15.9172 3.13203 15.9883 3.10841C15.9344 3.08479 15.881 3.06235 15.8271 3.03991C15.8023 2.9661 15.7782 2.89229 15.754 2.81848C15.6906 2.79486 15.6277 2.77183 15.5648 2.74939C15.4347 2.24984 15.5255 1.73316 15.4125 1.23243Z" fill="#030303"/>
<path d="M8.68593 1.35525C9.02182 1.42847 9.36913 1.40367 9.70818 1.45977C10.0663 1.5135 10.4295 1.5259 10.7882 1.57905C10.8688 1.59853 10.9749 1.59676 11.0257 1.67116C11.0619 1.99652 11.0625 2.33428 10.952 2.64842C10.3165 2.55394 9.67136 2.52737 9.03388 2.45002C8.86435 2.43112 8.71006 2.36321 8.56022 2.29177C8.53419 1.97408 8.59831 1.66053 8.68593 1.35525Z" fill="#030303"/>
<path d="M11.239 1.75147C11.3533 1.92271 11.4524 2.10163 11.5425 2.28527C11.4085 2.39392 11.2892 2.5191 11.1997 2.66259C11.2035 2.35849 11.2143 2.05498 11.239 1.75147Z" fill="#030303"/>
<path d="M15.6963 3.00862C15.7706 2.93363 15.6442 2.78837 15.5547 2.85982C15.4721 2.93658 15.6036 3.08066 15.6963 3.00862Z" fill="#030303"/>
<path d="M15.2378 3.02515C15.2988 3.22651 15.5445 2.91768 15.3007 2.95311C15.2848 2.97142 15.2531 3.00744 15.2378 3.02515Z" fill="#030303"/>
<path d="M15.6213 3.14797C15.6531 3.1775 15.6531 3.1775 15.6213 3.14797Z" fill="#030303"/>
<path d="M16.7649 3.13734C16.9534 3.04582 16.7744 3.33339 16.7649 3.13734Z" fill="#030303"/>
<path d="M13.3083 4.02898C13.3407 4.05319 13.4048 4.10102 13.4372 4.12464L13.448 4.13468C13.5165 4.2138 13.5737 4.30651 13.6708 4.35965C13.7616 4.39213 13.8543 4.42047 13.947 4.45C13.6353 4.53857 13.4016 4.27285 13.3083 4.02898Z" fill="#030303"/>
<path d="M4.43948 6.96311L4.48202 6.97138C4.50297 7.04283 4.48075 7.09715 4.41662 7.13435C4.30932 7.1255 4.38678 6.99323 4.43948 6.96311Z" fill="#030303"/>
<path d="M1.3448 7.53943C1.67433 7.47447 1.99243 7.36228 2.32641 7.31918C2.36196 7.71539 2.40895 8.11161 2.40578 8.51019C2.5753 8.47003 2.7442 8.42988 2.91372 8.38855C2.98484 8.48952 3.06357 8.59109 3.08897 8.71273C3.13341 8.92176 3.2731 9.11012 3.46675 9.22527C3.52707 9.33805 3.58041 9.46619 3.71057 9.52583C3.95947 9.66164 4.18804 9.85001 4.48202 9.89547C5.01537 10.0041 5.56141 9.82757 6.0065 9.55889C6.40334 9.29613 6.63636 8.84618 6.64017 8.39563C7.36273 8.47476 8.06941 8.64482 8.78372 8.76705C10.2911 9.02214 11.7882 9.32152 13.2924 9.59078C13.5622 9.63507 13.8188 9.73486 14.0918 9.7638C14.321 9.67345 14.535 9.55535 14.7483 9.43666C14.7667 9.47623 14.7851 9.51579 14.8036 9.55594C14.674 9.90846 14.9153 10.2439 14.9013 10.5934C15.0251 10.6885 15.0797 10.8273 15.1121 10.9696C15.2601 11.0581 15.3388 11.201 15.3731 11.3575C15.422 11.3687 15.4715 11.38 15.521 11.3918C15.5674 11.4697 15.6144 11.5477 15.6626 11.6256C15.8607 11.7154 16.0029 11.8777 16.1896 11.9834C16.5077 12.1712 16.8804 12.2557 17.2462 12.3206C17.2906 12.4074 17.3363 12.4948 17.3833 12.5816C17.2595 12.8072 17.0182 12.9684 16.7452 12.9926C16.2937 13.031 15.8512 12.9129 15.4175 12.8125C14.3972 12.5474 13.3953 12.2007 12.4759 11.7071C12.3692 11.6516 12.2663 11.5878 12.1508 11.5494C11.9844 11.5335 11.813 11.5849 11.6498 11.5341C11.3628 11.4514 11.0695 11.3935 10.7736 11.3469C9.13293 11.0422 7.4967 10.7204 5.85412 10.4251C5.44966 10.32 5.14489 10.6891 4.74933 10.6909C3.80391 10.7287 2.93214 10.3065 2.11942 9.90964C1.93783 9.88839 1.71687 9.94685 1.58925 9.78682C1.40448 9.64511 1.40575 9.40773 1.30226 9.22527C1.06733 9.02746 0.738432 9.217 0.471123 9.11426C0.297785 9.05344 0.0831767 9.00738 0 8.83496C0.0787322 8.78299 0.157464 8.73162 0.236196 8.68025C0.19937 8.55211 0.0628587 8.40154 0.184767 8.27931C0.489536 7.94155 0.902245 7.69118 1.3448 7.53943Z" fill="#030303"/>
<path d="M5.00838 8.8326C5.15759 8.76646 4.92647 8.59463 4.85981 8.72217C4.89917 8.77059 4.9487 8.8078 5.00838 8.8326Z" fill="#030303"/>
<path d="M19.8684 9.80867C19.9611 9.87776 20.0424 9.98759 20.1758 9.98109C20.5193 9.99585 20.8659 9.95275 21.2069 10.0106C20.9453 10.2344 20.7085 10.4848 20.4215 10.682C20.1135 10.8904 19.8348 11.1426 19.483 11.2884C19.7878 10.8544 19.958 10.3277 19.8684 9.80867Z" fill="#030303"/>
<path d="M18.0125 10.6938C18.1541 10.7233 18.2024 10.4671 18.0347 10.5178C17.9535 10.5362 17.9078 10.6743 18.0125 10.6938Z" fill="#030303"/>
<path d="M17.7319 10.92C17.7205 10.8373 17.6779 10.8225 17.6036 10.8769C17.6138 10.9589 17.657 10.9731 17.7319 10.92Z" fill="#030303"/>
<path d="M12.1076 1.83473C12.046 1.62983 11.9927 1.35939 12.2359 1.23775C12.1006 1.62511 12.3013 2.0042 12.5476 2.3083C12.6829 2.80903 13.0086 3.23832 13.2264 3.70835C13.213 3.73019 13.187 3.77389 13.1743 3.79574C13.1013 3.66701 13.02 3.54301 12.9432 3.41664C12.7013 2.8734 12.394 2.3579 12.1076 1.83473Z" fill="#282524"/>
<path d="M11.2981 4.28112C11.587 4.31182 11.8784 4.32836 12.1622 4.39154C12.1546 4.42165 12.1394 4.48248 12.1317 4.51259C11.9584 4.5244 11.7832 4.52322 11.6117 4.54979C11.4447 4.59939 11.2885 4.67734 11.1184 4.71985C11.0746 4.6484 11.0314 4.57695 10.9876 4.50609C11.0898 4.42933 11.1933 4.35434 11.2981 4.28112Z" fill="#282524"/>
<path d="M3.75502 5.34754C4.22614 5.25306 4.6979 5.4615 5.03378 5.75911C5.69221 6.28582 6.04968 7.05936 6.23762 7.83231C7.68718 8.00119 9.11579 8.29407 10.5533 8.5344C11.6536 8.73457 12.7546 8.93121 13.86 9.10776C14.02 9.1491 14.2556 9.16386 14.3204 9.33038C14.267 9.4839 14.1718 9.6209 14.0918 9.7638C13.8188 9.73486 13.5622 9.63507 13.2924 9.59078C11.7882 9.32152 10.2911 9.02214 8.78372 8.76705C8.06941 8.64482 7.36273 8.47476 6.64017 8.39563C6.63636 8.84618 6.40334 9.29613 6.0065 9.55889C5.56141 9.82757 5.01537 10.0041 4.48202 9.89547C4.18804 9.85001 3.95947 9.66164 3.71057 9.52583C3.58041 9.46619 3.52707 9.33805 3.46675 9.22527C3.2731 9.11012 3.13341 8.92176 3.08897 8.71273C3.06357 8.59109 2.98484 8.48952 2.91372 8.38855C2.7442 8.42988 2.5753 8.47003 2.40578 8.51019C2.40895 8.11161 2.36196 7.71539 2.32641 7.31918C2.32133 7.18454 2.33212 7.0505 2.33847 6.91705C2.42292 6.88989 2.50863 6.85564 2.6007 6.87336C2.69467 6.871 2.81467 6.92355 2.88515 6.84029C3.01658 6.69621 3.115 6.52438 3.1804 6.34546C3.21024 6.15001 3.06928 5.95574 3.12579 5.76147C3.2604 5.55126 3.50295 5.40659 3.75502 5.34754ZM3.78041 6.83321C3.51501 6.98732 3.39247 7.28729 3.35247 7.56482C3.28389 7.98761 3.45279 8.41453 3.71438 8.75524C3.95629 9.01565 4.28709 9.2796 4.6852 9.22232C5.02362 9.24476 5.26109 8.97372 5.38617 8.7145C5.56903 8.38855 5.54617 7.99529 5.40204 7.66107C5.24648 7.22293 4.87695 6.83498 4.39186 6.70389C4.17979 6.63185 3.9601 6.73105 3.78041 6.83321Z" fill="#282524"/>
<path d="M1.00574 5.6233C1.174 5.56189 1.35368 5.4863 1.53782 5.53532C1.7429 5.63747 1.95116 5.73903 2.13529 5.87248C2.18799 6.039 2.09275 6.21792 2.04196 6.37912C1.92576 6.48009 1.73973 6.43462 1.59687 6.41573C1.41654 6.37026 1.21654 6.35786 1.0559 6.26634C0.960024 6.06439 1.00384 5.83646 1.00574 5.6233Z" fill="#282524"/>
<path d="M15.8848 7.17628C16.5579 6.91351 17.33 6.98437 17.9935 7.23592C18.509 7.44731 18.8957 7.84825 19.2386 8.25156C19.4659 8.51314 19.5605 8.85385 19.8119 9.10009C20.2132 8.845 20.6913 9.05875 21.1301 9.0493C21.2913 9.05816 21.4075 8.9377 21.5313 8.86094C21.6393 8.87688 21.7472 8.89401 21.8552 8.9129C21.8552 8.94243 21.8552 9.00207 21.8552 9.03159C21.6615 9.10363 21.4653 9.17921 21.3091 9.31148C21.5993 9.5087 21.9174 9.66991 22.1879 9.89252L22.2222 9.91909C21.9212 10.1039 21.544 10.0508 21.2069 10.0106C20.8659 9.95275 20.5193 9.99585 20.1758 9.98109C20.0424 9.98759 19.9611 9.87776 19.8684 9.80867C19.958 10.3277 19.7878 10.8544 19.483 11.2884C18.9503 11.9138 18.1313 12.3891 17.2462 12.3206C16.8804 12.2557 16.5077 12.1712 16.1896 11.9834C16.0029 11.8777 15.8607 11.7154 15.6626 11.6256C15.6144 11.5477 15.5674 11.4697 15.521 11.3918C15.4715 11.38 15.422 11.3687 15.3731 11.3575C15.3388 11.201 15.2601 11.0581 15.1121 10.9696C15.0797 10.8273 15.0251 10.6885 14.9013 10.5934C14.9153 10.2439 14.674 9.90846 14.8036 9.55594C14.7851 9.51579 14.7667 9.47623 14.7483 9.43666C14.8505 9.15205 14.841 8.82728 15.0505 8.58341C15.2867 8.336 15.135 7.98761 15.2467 7.69945C15.3191 7.41779 15.6239 7.2808 15.8848 7.17628ZM16.0798 8.77118C15.7261 8.98553 15.6042 9.39179 15.554 9.75966C15.5185 10.6501 16.3376 11.5181 17.3141 11.5164C17.7909 11.4679 18.2519 11.2016 18.4417 10.7818C18.6284 10.6312 18.5814 10.3643 18.5967 10.1582C18.6214 9.2483 17.6735 8.36375 16.6766 8.53086C16.455 8.53617 16.2601 8.66312 16.0798 8.77118Z" fill="#282524"/>
<path d="M24.0863 8.0065C24.1143 7.92265 24.0838 7.89608 23.9955 7.92738C23.9676 8.01123 23.9981 8.0378 24.0863 8.0065Z" fill="#282524"/>
<path d="M23.8793 8.22498C23.9517 8.17893 23.8908 8.03721 23.8095 8.11161C23.7384 8.1553 23.8 8.29998 23.8793 8.22498Z" fill="#282524"/>
<path d="M24.0076 8.10334C24.04 8.13287 24.04 8.13287 24.0076 8.10334Z" fill="#282524"/>
<path d="M23.6736 8.22675C23.8838 8.2362 23.5758 8.40272 23.6736 8.22675Z" fill="#282524"/>
<path d="M23.5587 8.2982C23.6412 8.31119 23.612 8.43933 23.6336 8.49779C23.6457 8.52967 23.6463 8.66608 23.5777 8.59876C23.5162 8.51373 23.4996 8.38678 23.5587 8.2982Z" fill="#282524"/>
<path d="M18.0824 10.1382C18.0887 10.0372 18.2036 10.0029 18.2748 9.94626C18.2855 10.0449 18.29 10.1441 18.29 10.2433C18.2189 10.2102 18.1503 10.1754 18.0824 10.1382Z" fill="#282524"/>
</svg>
