<svg width="89" height="117" viewBox="0 0 89 117" fill="none" xmlns="http://www.w3.org/2000/svg">
<path d="M25.1886 0.582341C28.1759 -0.0993289 34.3381 -0.233473 37.124 0.453672C33.1492 0.489261 29.1471 0.174434 25.1886 0.582341Z" fill="#A3A2A1"/>
<path d="M25.1886 0.582341C29.1471 0.174434 33.1492 0.489261 37.124 0.453672C37.4314 0.617929 38.0028 0.585078 38.0626 1.0231C35.9977 1.64454 32.907 0.620667 31.2665 1.5104C32.2133 2.47678 29.3757 5.16513 32.0419 4.27814C33.93 3.55267 38.3129 5.57851 38.8706 3.3583L38.8897 3.09822C39.6923 4.05365 41.6402 5.88513 40.503 6.89805C40.4622 6.54763 40.3779 5.8468 40.3343 5.49638C36.6805 6.02475 32.7955 7.25394 29.1254 6.41075C26.9135 5.85228 24.3153 6.07129 22.5088 4.48072C22.6883 3.88118 23.2869 3.94415 23.7848 4.02628C26.2034 3.90035 31.9466 6.07676 30.2462 1.54325C28.0942 0.831464 24.503 0.333216 23.9616 3.51982C24.1384 2.51784 24.3479 1.18462 25.1886 0.582341Z" fill="#BD9627"/>
<path d="M31.2665 1.5104C32.907 0.620667 35.9977 1.64454 38.0626 1.0231C38.5061 1.38447 38.5115 2.48225 38.8897 3.09822L38.8706 3.3583C37.5647 3.84559 34.8985 4.97076 35.0128 2.6164C35.0264 0.554964 32.5506 1.78142 31.2665 1.5104Z" fill="#514B39"/>
<path d="M23.9616 3.51982C24.503 0.333216 28.0942 0.831464 30.2462 1.54325C31.9466 6.07676 26.2034 3.90035 23.7848 4.02628C23.8283 3.90035 23.9181 3.64575 23.9616 3.51982Z" fill="#2E2B21"/>
<path d="M31.2665 1.5104C32.5506 1.78142 35.0264 0.554964 35.0128 2.6164C34.8985 4.97076 37.5647 3.84559 38.8706 3.3583C38.3129 5.57851 33.93 3.55267 32.0419 4.27814C29.3757 5.16513 32.2133 2.47678 31.2665 1.5104Z" fill="#060704"/>
<path d="M23.295 19.8717C22.4489 15.6776 22.6639 8.98139 22.5088 4.48072C24.3153 6.07129 26.9135 5.85228 29.1254 6.41075C26.9869 6.96923 24.8757 5.96452 22.7809 5.636C22.4653 7.17181 23.6569 8.41743 24.9791 8.88009C25.4335 7.629 27.8603 6.71189 27.5664 8.7569C28.6846 11.1742 26.0755 16.3538 28.5703 17.4845C26.0402 18.4892 25.3899 16.644 23.0665 17.2052C22.9659 18.1004 23.042 19.0093 23.295 19.8717ZM23.899 13.816C23.3903 15.7734 23.9426 17.6241 26.3177 17.0355C27.7052 15.2232 25.5722 13.7011 23.899 13.816Z" fill="#957C35"/>
<path d="M40.3343 5.49638C40.3779 5.8468 40.4622 6.54763 40.503 6.89805C40.4187 6.98292 40.25 7.15265 40.1657 7.23752C38.4925 7.71386 34.0742 6.00011 34.7652 9.16481C35.8888 11.4234 34.3626 13.9502 34.8876 16.5126C35.4807 17.646 32.703 17.2353 34.2809 17.8267C33.2716 18.1826 33.3559 16.6413 32.3303 16.7645C31.2665 13.9803 34.9366 6.33136 29.6259 7.54961C29.5008 10.8074 29.7266 14.0706 29.5579 17.3257C29.2287 17.3914 28.8995 17.4434 28.5703 17.4845C26.0755 16.3538 28.6846 11.1742 27.5664 8.7569C27.8603 6.71189 25.4335 7.629 24.9791 8.88009C23.6569 8.41743 22.4653 7.17181 22.7809 5.636C24.8757 5.96452 26.9869 6.96923 29.1254 6.41075C32.7955 7.25394 36.6805 6.02475 40.3343 5.49638Z" fill="#5D490C"/>
<path d="M34.7652 9.16481C34.0742 6.00011 38.4925 7.71386 40.1657 7.23752C39.7929 11.3932 40.7669 16.5208 40.2935 19.8936C42.266 15.2013 36.5554 18.1196 34.2809 17.8267C32.703 17.2353 35.4807 17.646 34.8876 16.5126C34.3626 13.9502 35.8888 11.4234 34.7652 9.16481Z" fill="#8D8364"/>
<path d="M29.6259 7.54961C34.9366 6.33136 31.2665 13.9803 32.3303 16.7645C34.2265 18.867 28.2303 18.481 29.5579 17.3257C29.7266 14.0706 29.5008 10.8074 29.6259 7.54961Z" fill="#C89B1A"/>
<path d="M26.3177 17.0355C27.7052 15.2232 25.5722 13.7011 23.899 13.816C23.3903 15.7734 23.9426 17.6241 26.3177 17.0355Z" fill="#282931"/>
<path d="M32.3303 16.7645C33.3559 16.6413 33.2716 18.1826 34.2809 17.8267C36.5554 18.1196 42.266 15.2013 40.2935 19.8936C38.5088 21.1584 33.2389 19.023 33.8211 22.1494C33.1628 24.3148 35.3828 22.9269 36.2126 23.5921C35.5351 27.5535 41.7735 25.2538 41.4035 29.1659C41.1396 29.6341 40.5275 29.6477 40.1248 29.9598C38.9223 29.9763 37.7769 29.5273 36.9852 30.8414C36.5581 31.4026 36.2643 31.1179 36.0629 30.5539C35.8779 30.0639 35.6848 29.5793 35.4644 29.103C34.0279 29.5027 35.0808 35.0327 34.553 37.1981C34.4251 39.5607 34.572 41.9315 34.436 44.2968C33.1872 41.9178 34.3299 37.3405 31.8705 36.0511C28.5567 45.7806 30.4421 56.6572 30.3932 66.6824C31.9303 67.8678 33.9789 67.3175 35.274 66.2827C35.9949 67.5749 35.1733 67.5612 35.2848 68.544C35.2794 69.5049 35.6168 70.3919 35.8671 71.3008C35.4182 72.6148 32.8934 72.0125 33.2825 73.9398C33.3396 75.8425 33.7831 80.1625 30.6815 78.6842C29.1009 76.7432 32.4091 73.2363 30.3088 72.1221C30.2054 74.1452 28.6737 76.5105 29.9007 78.2762C28.6792 77.9642 28.1758 79.2153 27.0413 79.3001C26.704 79.1003 26.3721 78.8922 26.0837 78.6294C24.4486 74.2191 28.6465 71.8182 30.3115 68.3852C29.8028 67.2244 29.2451 68.4399 28.8125 68.9929C28.2983 68.4317 27.4576 67.928 28.0099 66.9315C28.6112 59.0225 27.8331 50.9793 28.2384 43.1251C29.46 41.5099 28.0507 39.5826 27.327 38.0796C27.8548 35.676 28.8506 33.3518 29.0464 30.8906C28.2956 31.1398 26.2007 29.4561 26.2496 31.0549C26.0646 30.5238 25.7627 30.0146 25.1396 29.9954C24.3751 29.7956 23.0175 30.261 23.3522 28.9962C22.8706 25.3935 27.9228 27.5973 27.4331 24.2245C27.3542 22.9104 29.0247 23.562 29.8762 23.3621C30.7904 19.1489 25.6484 21.246 23.295 19.8717C23.042 19.0093 22.9659 18.1004 23.0665 17.2052C25.3899 16.644 26.0402 18.4892 28.5703 17.4845C28.8995 17.4434 29.2287 17.3914 29.5579 17.3257C28.2303 18.481 34.2265 18.867 32.3303 16.7645Z" fill="#2A2A2A"/>
<path d="M22.4054 32.3361C22.8135 31.304 22.7727 29.4014 23.3522 28.9962C23.0175 30.261 24.3751 29.7956 25.1396 29.9954C25.3654 35.0737 22.8733 40.1274 21.8531 45.1619C19.6059 53.4925 17.5627 61.8614 15.1005 70.1291C14.2517 71.3856 14.3904 73.2773 12.9948 74.1315C12.6846 71.6046 14.219 68.7575 13.6749 66.488C16.1915 55.1186 19.6276 43.7109 22.4054 32.3361Z" fill="#989898"/>
<path d="M35.4644 29.103C34.0279 29.5027 35.0808 35.0327 34.553 37.1981C36.1038 35.1203 34.1775 31.5422 35.4644 29.103Z" fill="#A2A3A2"/>
<path d="M41.4035 29.1659C47.2774 46.194 53.4015 63.1153 59.3134 80.1105C58.8972 80.2063 58.0701 80.3924 57.6538 80.4855C52.8846 67.2901 48.265 54.0044 43.6181 40.7762C42.6986 37.1352 40.5357 33.6228 40.1248 29.9598C40.5275 29.6477 41.1396 29.6341 41.4035 29.1659Z" fill="#929492"/>
<path d="M36.9852 30.8414C37.7769 29.5273 38.9223 29.9763 40.1248 29.9598C40.5357 33.6228 42.6986 37.1352 43.6181 40.7762C48.265 54.0044 52.8846 67.2901 57.6538 80.4855C57.4579 80.6963 57.2702 80.9153 57.0553 81.1069C55.8745 78.7635 55.5073 76.1108 54.3755 73.7455C49.7749 60.8156 45.343 47.8393 40.7261 34.9204C39.9126 33.3463 39.8963 29.2973 37.445 30.866C37.328 30.8605 37.0995 30.8468 36.9852 30.8414Z" fill="#545554"/>
<path d="M25.1396 29.9954C25.7627 30.0146 26.0646 30.5238 26.2496 31.0549C22.8325 44.8471 19.1951 58.6036 15.6718 72.3411C13.8599 78.7909 12.4017 85.364 10.8672 91.8713C10.5489 93.0047 11.6997 91.7153 12.1405 92.2874C13.6205 88.3398 14.5292 84.1786 15.9983 80.2117C16.2187 80.5074 16.352 80.8469 16.401 81.2274C15.982 83.0452 15.4678 84.8411 15.1604 86.6862C16.167 85.4954 16.6975 83.8692 18.0905 83.0534C18.7951 83.089 19.4562 82.8481 20.0548 82.4977C18.0551 86.5658 13.4137 89.4266 13.022 94.3105C13.3811 96.3254 11.0767 95.8819 10.0402 95.2742C9.04168 94.8471 7.94255 94.6829 7.00666 94.0997C5.83407 93.0649 7.2624 91.1978 7.55622 89.9358C7.95071 89.2514 8.04594 88.4575 8.20645 87.6992C9.67559 88.3836 6.88423 91.551 8.87845 91.2663C11.5583 87.0777 11.5691 81.9036 13.3131 77.3701C13.5525 74.8679 15.2121 72.6532 15.1005 70.1291C17.5627 61.8614 19.6059 53.4925 21.8531 45.1619C22.8733 40.1274 25.3654 35.0737 25.1396 29.9954Z" fill="#474747"/>
<path d="M26.2496 31.0549C26.2007 29.4561 28.2956 31.1398 29.0464 30.8906C28.8506 33.3518 27.8548 35.676 27.327 38.0796C26.9597 39.3417 26.9189 40.6612 26.8482 41.9671C24.6363 48.3211 23.4447 55.0447 21.5566 61.5274C21.4532 61.188 21.5185 60.1449 21.0941 60.8841C19.3229 66.0472 18.2156 72.6668 15.4324 76.5981C14.774 75.1553 15.6936 73.7838 15.6718 72.3411C19.1951 58.6036 22.8325 44.8471 26.2496 31.0549Z" fill="#959795"/>
<path d="M37.445 30.866C39.8963 29.2973 39.9126 33.3463 40.7261 34.9204C45.343 47.8393 49.7749 60.8156 54.3755 73.7455C54.2911 75.3087 55.2597 76.6364 55.1971 78.1996C52.0466 73.5703 50.9665 67.8103 48.3575 62.8579C44.4071 52.5343 40.971 42.0903 37.124 31.6928C36.8519 31.3369 37.2138 31.0987 37.445 30.866Z" fill="#969996"/>
<path d="M36.0629 30.5539C36.2643 31.1179 36.5581 31.4026 36.9852 30.8414C37.0995 30.8468 37.328 30.8605 37.445 30.866C37.2138 31.0987 36.8519 31.3369 37.124 31.6928C40.971 42.0903 44.4071 52.5343 48.3575 62.8579C50.9665 67.8103 52.0466 73.5703 55.1971 78.1996C55.2597 76.6364 54.2911 75.3087 54.3755 73.7455C55.5073 76.1108 55.8745 78.7635 57.0553 81.1069C54.3129 82.1993 51.6004 83.4394 49.2798 82.5962C49.3886 82.4812 49.6117 82.254 49.7232 82.139C44.8479 77.6658 40.0677 73.0994 35.2848 68.544C35.1733 67.5612 35.9949 67.5749 35.274 66.2827C40.3996 71.6074 46.0096 76.5762 51.3039 81.7722C51.9813 82.755 53.1621 81.983 53.9973 81.6764C48.3466 64.506 41.7599 47.6887 36.0629 30.5539Z" fill="#777875"/>
<path d="M31.8705 36.0511C34.3299 37.3405 33.1872 41.9178 34.436 44.2968C34.504 45.8134 34.4496 47.3493 34.7979 48.8413C34.7271 52.7971 34.8359 56.753 34.7489 60.7089C33.8266 56.4135 34.9638 51.2641 32.9369 46.8839C31.4977 45.2988 31.4433 49.1917 31.2665 49.9774C29.8844 55.4389 30.5863 61.1113 30.3932 66.6824C30.4421 56.6572 28.5567 45.7806 31.8705 36.0511Z" fill="#555555"/>
<path d="M26.8482 41.9671C26.9189 40.6612 26.9597 39.3417 27.327 38.0796C28.0507 39.5826 29.46 41.5099 28.2384 43.1251C27.8331 50.9793 28.6112 59.0225 28.0099 66.9315C27.4576 67.928 28.2983 68.4317 28.8125 68.9929C28.1187 70.0497 27.4467 71.2049 26.2932 71.81C26.3421 61.8559 26.4945 51.9129 26.8482 41.9671Z" fill="#404140"/>
<path d="M31.2665 49.9774C31.4433 49.1917 31.4977 45.2988 32.9369 46.8839C34.9638 51.2641 33.8266 56.4135 34.7489 60.7089C34.8359 56.753 34.7271 52.7971 34.7979 48.8413C35.4943 54.6177 34.621 60.4871 35.274 66.2827C33.9789 67.3175 31.9303 67.8678 30.3932 66.6824C30.5863 61.1113 29.8844 55.4389 31.2665 49.9774Z" fill="#808180"/>
<path d="M21.0941 60.8841C21.5185 60.1449 21.4532 61.188 21.5566 61.5274C19.799 68.0786 18.0252 74.6352 16.401 81.2274C16.352 80.8469 16.2187 80.5074 15.9983 80.2117C14.5292 84.1786 13.6205 88.3398 12.1405 92.2874C11.6997 91.7153 10.5489 93.0047 10.8672 91.8713C12.4017 85.364 13.8599 78.7909 15.6718 72.3411C15.6936 73.7838 14.774 75.1553 15.4324 76.5981C18.2156 72.6668 19.3229 66.0472 21.0941 60.8841Z" fill="#6D706D"/>
<path d="M7.55622 89.9358C9.29198 82.098 11.376 74.0712 13.6749 66.488C14.219 68.7575 12.6846 71.6046 12.9948 74.1315C14.3904 73.2773 14.2517 71.3856 15.1005 70.1291C15.2121 72.6532 13.5525 74.8679 13.3131 77.3701C11.5691 81.9036 11.5583 87.0777 8.87845 91.2663C6.88423 91.551 9.67559 88.3836 8.20645 87.6992C8.04594 88.4575 7.95071 89.2514 7.55622 89.9358Z" fill="#727272"/>
<path d="M28.8125 68.9929C29.2451 68.4399 29.8028 67.2244 30.3115 68.3852C28.6465 71.8182 24.4486 74.2191 26.0837 78.6294C25.4307 78.2981 25.9776 76.1792 25.7735 75.0979C23.9317 77.5809 22.3102 80.3815 20.0548 82.4977C19.4562 82.8481 18.7951 83.089 18.0905 83.0534C20.452 79.0921 23.7712 75.7083 26.2932 71.81C27.4467 71.2049 28.1187 70.0497 28.8125 68.9929Z" fill="#707270"/>
<path d="M30.3088 72.1221C32.4091 73.2363 29.1009 76.7432 30.6815 78.6842C30.8666 80.6388 32.9859 80.3459 33.9245 81.7859C34.0796 83.1875 34.3245 85.457 32.5561 85.9553C33.4648 84.0964 31.2529 83.9951 30.0422 84.5755C28.807 84.5564 27.5256 84.4195 27.0903 85.8704C28.4506 87.0011 30.3279 85.8923 31.914 86.2811C30.6843 86.6725 30.1782 87.6252 29.7837 88.7969C27.7161 89.7469 28.505 86.7382 26.9189 86.6096C24.182 86.188 23.2597 81.5422 26.032 80.5868C27.0196 80.5129 27.7814 79.7546 27.0413 79.3001C28.1758 79.2153 28.6792 77.9642 29.9007 78.2762C28.6737 76.5105 30.2054 74.1452 30.3088 72.1221Z" fill="#555655"/>
<path d="M65.5817 78.0216C68.7621 76.494 73.4797 75.1636 76.788 77.3728C76.1133 77.4851 73.3382 77.7835 74.9162 78.3009C77.2723 78.1859 79.6147 81.1015 81.7667 79.166C84.1718 78.7088 88.1738 80.0447 88.601 83.308C87.3658 83.5215 85.8722 84.7754 85.2301 82.9412C83.4535 81.5012 86.6448 85.0875 84.6424 84.4085C83.6413 83.5243 83.3501 83.4476 84.014 84.7808C78.989 86.5165 74.0755 88.8079 68.9526 90.3766C68.0357 90.727 67.0835 91.6085 66.3381 90.4915C66.7162 91.373 66.2918 91.874 65.3695 91.77C65.0022 90.9569 64.8308 89.8701 63.8242 89.6319C64.0963 90.445 64.6105 91.1376 65.0213 91.8823C63.5358 92.5858 61.9497 93.0895 60.3609 93.4975C59.4086 92.6515 59.2835 91.1102 58.1381 90.4231C58.47 91.6167 59.1774 92.646 59.7406 93.7384C58.7013 94.2777 57.6293 94.7568 56.5656 95.2413C55.3576 93.1306 53.8368 91.1732 51.3474 90.6339C51.2223 90.5846 50.972 90.4888 50.8468 90.4395C51.0454 89.6155 52.1174 89.6593 52.7349 89.287C50.085 88.4547 47.5685 85.8129 44.8478 87.7977C44.7281 87.7785 44.4833 87.7375 44.3636 87.7156C42.889 87.2885 40.9138 85.7445 39.8664 87.6772C39.325 88.4438 39.2325 89.4211 38.9278 90.2917C38.4625 86.8341 42.1463 84.9314 44.8397 83.9623C46.551 85.3065 47.7644 83.0999 49.2798 82.5962C51.6004 83.4394 54.3129 82.1993 57.0553 81.1069C57.2702 80.9153 57.4579 80.6963 57.6538 80.4855C58.0701 80.3924 58.8972 80.2063 59.3134 80.1105C62.0313 80.6333 62.8829 76.5461 65.5817 78.0216ZM68.89 81.5368C67.5406 81.7914 69.0233 82.2732 69.6219 82.3663C67.2876 83.5818 64.8227 84.3921 62.2952 84.956C61.4382 84.2196 57.9041 84.6084 60.1514 85.5008C65.3913 88.6299 71.2134 85.7527 76.1323 83.4257C73.7518 82.7167 71.4202 81.4053 68.89 81.5368Z" fill="#A99A24"/>
<path d="M74.9162 78.3009C73.3382 77.7835 76.1133 77.4851 76.788 77.3728C78.317 77.9751 81.0703 78.0134 81.7667 79.166C79.6147 81.1015 77.2723 78.1859 74.9162 78.3009Z" fill="#454538"/>
<path d="M68.89 81.5368C71.4202 81.4053 73.7518 82.7167 76.1323 83.4257C71.2134 85.7527 65.3913 88.6299 60.1514 85.5008C57.9041 84.6084 61.4382 84.2196 62.2952 84.956C64.8227 84.3921 67.2876 83.5818 69.6219 82.3663C69.0233 82.2732 67.5406 81.7914 68.89 81.5368Z" fill="#383522"/>
<path d="M84.6424 84.4085C86.6448 85.0875 83.4535 81.5012 85.2301 82.9412C85.8722 84.7754 87.3658 83.5215 88.601 83.308C88.269 84.1977 89.8225 86.8587 88.3643 86.9107C77.7457 90.4477 67.3665 95.1838 56.7533 98.803C57.5232 99.9637 58.9434 98.7537 60.0235 98.9344C60.0126 102.05 59.3189 105.343 60.0017 108.385C60.135 105.086 60.3037 101.787 60.3908 98.4854C62.2054 98.7209 64.1833 95.9723 65.462 98.1733C65.2498 97.3548 65.4756 95.9285 66.5884 96.1995C66.485 101.042 66.4442 106.096 66.1259 110.802C64.8989 112.061 65.7831 109.931 64.7574 109.912C65.4756 112.768 61.8626 112.579 60.1078 113.488C60.0344 112.798 59.8902 111.418 59.8167 110.725C61.0655 113.737 58.5979 114.44 56.5112 115.064C56.5139 109.436 56.5982 103.805 56.5139 98.1788C56.1711 98.1706 55.831 98.1733 55.4937 98.187C50.9965 96.1831 46.5183 94.0943 41.9123 92.3285C41.2974 91.9261 39.6977 90.5408 39.7358 92.0766C40.9274 97.6422 38.2993 103.999 41.0444 109.107C37.328 103.898 40.7723 96.0215 38.9278 90.2917C39.2325 89.4211 39.325 88.4438 39.8664 87.6772C38.6203 89.339 41.2267 92.1916 40.7533 88.8353C40.9356 86.7437 40.9764 89.5416 41.0907 90.4067C41.9994 91.113 43.1991 91.4497 44.3445 91.5099C45.2151 89.3609 43.0985 89.3116 42.0646 88.2576C42.9352 88.2494 45.0274 89.5087 44.3636 87.7156C44.4833 87.7375 44.7281 87.7785 44.8478 87.7977C45.5198 89.0077 43.3624 92.7309 45.8953 92.4024C45.8626 91.4798 45.6994 90.5655 45.6559 89.6483C46.9672 88.5971 49.9762 92.6707 50.8468 90.4395C50.972 90.4888 51.2223 90.5846 51.3474 90.6339C50.1259 93.2182 56.0051 91.9644 54.9359 94.8471C54.8652 98.0748 54.6367 94.8526 54.5822 93.8205C53.2247 93.1799 50.0551 91.0664 51.0917 94.3051C51.8154 95.4056 56.7887 98.417 56.5656 95.2413C57.6293 94.7568 58.7013 94.2777 59.7406 93.7384C59.1774 92.646 58.47 91.6167 58.1381 90.4231C59.2835 91.1102 59.4086 92.6515 60.3609 93.4975C61.9497 93.0895 63.5358 92.5858 65.0213 91.8823C64.6105 91.1376 64.0963 90.445 63.8242 89.6319C64.8308 89.8701 65.0022 90.9569 65.3695 91.77C66.2918 91.874 66.7162 91.373 66.3381 90.4915C67.0835 91.6085 68.0357 90.727 68.9526 90.3766C74.0755 88.8079 78.989 86.5165 84.014 84.7808C83.3501 83.4476 83.6413 83.5243 84.6424 84.4085Z" fill="#897E1B"/>
<path d="M30.0422 84.5755C31.2529 83.9951 33.4648 84.0964 32.5561 85.9553C32.6567 86.47 32.2595 86.355 31.914 86.2811C30.3279 85.8923 28.4506 87.0011 27.0903 85.8704C27.5256 84.4195 28.807 84.5564 30.0422 84.5755Z" fill="#848584"/>
<path d="M39.8664 87.6772C40.9138 85.7445 42.889 87.2885 44.3636 87.7156C45.0274 89.5087 42.9352 88.2494 42.0646 88.2576C43.0985 89.3116 45.2151 89.3609 44.3445 91.5099C43.1991 91.4497 41.9994 91.113 41.0907 90.4067C40.9764 89.5416 40.9356 86.7437 40.7533 88.8353C41.2267 92.1916 38.6203 89.339 39.8664 87.6772Z" fill="#383311"/>
<path d="M44.8478 87.7977C47.5685 85.8129 50.085 88.4547 52.7349 89.287C52.1174 89.6593 51.0454 89.6155 50.8468 90.4395C49.9762 92.6707 46.9672 88.5971 45.6559 89.6483C45.6994 90.5655 45.8626 91.4798 45.8953 92.4024C43.3624 92.7309 45.5198 89.0077 44.8478 87.7977Z" fill="#383420"/>
<path d="M56.7533 98.803C67.3665 95.1838 77.7457 90.4477 88.3643 86.9107C88.3833 87.2584 88.3806 87.6088 88.3561 87.9592C87.0257 88.0249 85.7769 88.5697 84.6152 89.183C83.7474 90.9487 84.8628 93.2456 84.0493 94.9539C83.965 93.2812 84.0847 91.6085 83.9868 89.9413C82.8087 90.3163 80.7683 89.8509 80.1779 91.2553C77.4899 91.4634 74.4836 92.9609 71.8664 94.1435C72.8159 95.4768 69.7171 98.0364 70.2966 95.8409C72.6173 93.4454 67.9922 95.2468 66.923 96.32C66.9176 101.042 66.3408 105.754 66.6455 110.476C72.3234 108.626 77.5906 105.447 83.2059 103.361C84.6996 102.102 83.0128 99.3751 83.9813 97.7736C84.5255 98.7455 82.9067 104.103 85.0043 102.203C85.4614 101.957 86.0762 102.085 86.5333 102.313C78.2245 106.83 69.1321 110.057 60.652 114.334C59.1692 114.747 57.8688 115.806 56.3234 115.935C55.5861 114.64 54.8081 116.847 53.8477 115.916C49.7667 113.608 45.5743 111.544 41.2974 109.641C41.2349 109.507 41.107 109.239 41.0444 109.107C38.2993 103.999 40.9274 97.6422 39.7358 92.0766C39.6977 90.5408 41.2974 91.9261 41.9123 92.3285C42.1463 93.0868 41.1832 96.9989 42.5135 94.9758C44.2629 93.5604 42.383 98.5867 43.4576 99.2656C46.7795 100.426 49.7858 103.145 53.3716 103.189C53.056 104.048 52.4166 105.253 51.2304 104.582C49.0403 103.583 46.8475 102.584 44.6465 101.628C42.032 100.533 43.395 104.604 43.2644 105.751C45.0709 108.448 48.722 109.083 51.3991 110.714C52.5799 110.98 54.5768 112.831 55.2189 110.944C55.2134 111.708 55.1998 113.233 55.1944 113.997C54.0055 113.507 52.8927 112.748 51.5841 112.633C52.7023 113.501 54.0844 113.926 55.4175 114.342C55.4964 109.313 55.4392 104.281 55.4556 99.252C54.653 100.021 56.1357 103.057 53.8395 102.825C53.2382 100.859 53.7116 99.189 55.4937 98.187C55.831 98.1733 56.1711 98.1706 56.5139 98.1788C56.5982 103.805 56.5139 109.436 56.5112 115.064C58.5979 114.44 61.0655 113.737 59.8167 110.725C59.8902 111.418 60.0344 112.798 60.1078 113.488C61.8626 112.579 65.4756 112.768 64.7574 109.912C65.7831 109.931 64.8989 112.061 66.1259 110.802C66.4442 106.096 66.485 101.042 66.5884 96.1995C65.4756 95.9285 65.2498 97.3548 65.462 98.1733C64.1833 95.9723 62.2054 98.7209 60.3908 98.4854C60.3037 101.787 60.135 105.086 60.0017 108.385C59.3189 105.343 60.0126 102.05 60.0235 98.9344C58.9434 98.7537 57.5232 99.9637 56.7533 98.803Z" fill="#585119"/>
<path d="M84.6152 89.183C85.7769 88.5697 87.0257 88.0249 88.3561 87.9592C88.3833 91.3566 87.9018 94.7376 88.1085 98.146C88.114 99.5066 88.2418 102.044 86.5333 102.313C86.0762 102.085 85.4614 101.957 85.0043 102.203C82.9067 104.103 84.5255 98.7455 83.9813 97.7736C83.0128 99.3751 84.6996 102.102 83.2059 103.361C77.5906 105.447 72.3234 108.626 66.6455 110.476C66.3408 105.754 66.9176 101.042 66.923 96.32C67.9922 95.2468 72.6173 93.4454 70.2966 95.8409C69.7171 98.0364 72.8159 95.4768 71.8664 94.1435C74.4836 92.9609 77.4899 91.4634 80.1779 91.2553C80.7683 89.8509 82.8087 90.3163 83.9868 89.9413C84.0847 91.6085 83.965 93.2812 84.0493 94.9539C84.8628 93.2456 83.7474 90.9487 84.6152 89.183ZM72.0242 95.9339C73.2213 97.5546 71.0148 97.1248 70.0218 98.0063C69.2301 98.3266 69.2519 100.079 70.2258 99.2766C70.2449 100.73 67.5515 99.7009 67.9487 101.42C68.3622 102.515 66.8904 106.392 69.1621 105.68C71.9861 104.393 74.8183 103.079 77.7103 101.921C77.8844 100.202 77.7321 98.4635 77.7402 96.7415C76.3554 97.1768 75.1366 98.0775 73.643 98.146C75.3869 96.142 76.5105 97.1714 75.24 94.2996C73.7654 94.3762 72.4241 96.3829 72.0242 95.9339Z" fill="#8F831C"/>
<path d="M54.9359 94.8471C56.0051 91.9644 50.1259 93.2182 51.3474 90.6339C53.8368 91.1732 55.3576 93.1306 56.5656 95.2413C56.7887 98.417 51.8154 95.4056 51.0917 94.3051C50.0551 91.0664 53.2247 93.1799 54.5822 93.8205C54.6367 94.8526 54.8652 98.0748 54.9359 94.8471Z" fill="#373412"/>
<path d="M41.9123 92.3285C46.5183 94.0943 50.9965 96.1831 55.4937 98.187C53.7116 99.189 53.2382 100.859 53.8395 102.825C53.7225 102.915 53.4885 103.098 53.3716 103.189C49.7858 103.145 46.7795 100.426 43.4576 99.2656C42.383 98.5867 44.2629 93.5604 42.5135 94.9758C41.1832 96.9989 42.1463 93.0868 41.9123 92.3285Z" fill="#2A271C"/>
<path d="M5.55656 97.7353C6.44621 96.8374 6.42716 94.7486 7.00666 94.0997C7.94255 94.6829 9.04168 94.8471 10.0402 95.2742C10.3394 96.5773 7.58071 98.5155 9.69192 98.8221C9.71096 99.9555 9.44706 101.062 9.32735 102.184C10.6278 102.789 12.3255 103.662 11.6181 105.466C10.5081 106.351 8.69345 105.486 7.3685 105.852C7.01754 108.223 5.55112 111.875 2.98013 111.826C2.45233 109.499 2.83866 107.197 3.43992 105.091C0.762821 105.042 -2.05303 100.908 2.13129 101.179C4.87369 102.165 3.60587 98.2171 5.55656 97.7353Z" fill="#797A79"/>
<path d="M72.0242 95.9339C72.4241 96.3829 73.7654 94.3762 75.24 94.2996C76.5105 97.1714 75.3869 96.142 73.643 98.146C72.5003 98.5128 71.3331 98.8057 70.2258 99.2766C69.2519 100.079 69.2301 98.3266 70.0218 98.0063C71.0148 97.1248 73.2213 97.5546 72.0242 95.9339Z" fill="#363524"/>
<path d="M73.643 98.146C75.1366 98.0775 76.3554 97.1768 77.7402 96.7415C77.7321 98.4635 77.8844 100.202 77.7103 101.921C74.8183 103.079 71.9861 104.393 69.1621 105.68C66.8904 106.392 68.3622 102.515 67.9487 101.42C67.5515 99.7009 70.2449 100.73 70.2258 99.2766C71.3331 98.8057 72.5003 98.5128 73.643 98.146ZM75.6671 98.2062C75.1937 98.8988 74.5516 101.798 74.7258 98.6716C72.873 99.4764 70.857 99.9829 69.1022 100.938C69.6817 101.765 69.143 102.841 68.8492 103.553C70.0898 105.017 69.3797 101.286 70.3564 102.302C72.1031 102.315 69.3471 101.089 70.702 100.9C72.8159 99.5887 69.5294 104.96 71.8637 102.619C72.9519 101.187 73.8688 102.819 74.168 100.829C74.2252 103.049 74.7611 100.744 75.2781 101.584C75.7732 100.826 76.9349 97.9215 75.6671 98.2062Z" fill="#9C8E7F"/>
<path d="M75.6671 98.2062C76.9349 97.9215 75.7732 100.826 75.2781 101.584C74.7611 100.744 74.2252 103.049 74.168 100.829C73.8688 102.819 72.9519 101.187 71.8637 102.619C69.5294 104.96 72.8159 99.5887 70.702 100.9C69.3471 101.089 72.1031 102.315 70.3564 102.302C69.3797 101.286 70.0898 105.017 68.8492 103.553C69.143 102.841 69.6817 101.765 69.1022 100.938C70.857 99.9829 72.873 99.4764 74.7258 98.6716C74.5516 101.798 75.1937 98.8988 75.6671 98.2062Z" fill="#37322F"/>
<path d="M53.8395 102.825C56.1357 103.057 54.653 100.021 55.4556 99.252C55.4392 104.281 55.4964 109.313 55.4175 114.342C54.0844 113.926 52.7023 113.501 51.5841 112.633C52.8927 112.748 54.0055 113.507 55.1944 113.997C55.1998 113.233 55.2134 111.708 55.2189 110.944C54.5768 112.831 52.5799 110.98 51.3991 110.714C48.722 109.083 45.0709 108.448 43.2644 105.751C43.395 104.604 42.032 100.533 44.6465 101.628C46.8475 102.584 49.0403 103.583 51.2304 104.582C52.4166 105.253 53.056 104.048 53.3716 103.189C53.4885 103.098 53.7225 102.915 53.8395 102.825Z" fill="#7D7219"/>
<path d="M41.2974 109.641C45.5743 111.544 49.7667 113.608 53.8477 115.916C54.8081 116.847 55.5861 114.64 56.3234 115.935C55.8419 116.392 55.2189 116.671 54.6475 117C50.5693 114.06 45.0056 112.713 41.2974 109.641Z" fill="#968F55"/>
</svg>
