<svg width="135" height="100" viewBox="0 0 135 100" fill="none" xmlns="http://www.w3.org/2000/svg">
<path d="M27.431 0.236657C30.0796 0.0719588 32.7412 -0.249361 35.3688 0.339999C42.2958 1.52195 49.3345 1.38631 56.3377 1.33141C57.3339 1.45251 57.6984 2.34867 57.4182 3.26742C58.8405 3.03007 61.2024 3.87293 60.9076 1.63498C62.2894 0.703302 63.8754 2.20819 65.0936 2.73619C65.4532 1.9563 66.4187 2.37935 66.9727 1.86426C67.4037 1.46059 67.692 2.22111 68.353 2.18558C68.5231 2.9574 68.8146 4.02632 68.7725 2.25501C69.3654 3.54515 69.8223 4.89664 70.0717 6.29657C70.0264 11.4377 69.8644 16.6112 70.1236 21.7378C70.1511 22.3998 70.1511 23.0619 70.156 23.7287C70.0734 23.9289 69.9924 24.1308 69.913 24.3342C68.873 24.3375 69.4578 23.015 68.9718 22.395C68.2282 18.0176 68.6802 13.5158 68.5392 9.08998C68.3789 7.26054 69.7283 5.35844 68.7515 3.5726C68.2298 4.1006 67.3534 4.32181 66.7589 3.78896C66.2875 0.88576 64.87 5.66523 66.3037 5.80732C66.0105 5.81862 65.9117 6.06567 65.9781 6.32241C66.4058 9.19655 66.7946 12.0755 67.3194 14.9351C67.4053 16.4513 67.3453 17.9707 67.3227 19.4886C66.6893 19.7469 66.8739 18.242 66.3021 17.9062C65.6735 19.7259 67.9982 20.9289 66.9112 22.6404C66.3264 23.4801 67.7098 23.0845 67.4215 23.9031C66.1482 23.8547 64.8393 23.9903 63.6259 23.5172C64.5574 23.4187 65.4921 23.3557 66.4284 23.2831C65.7157 19.7905 65.6104 16.1752 64.4893 12.7698C65.126 13.2494 65.0774 14.2101 65.6735 14.7236C66.6244 14.9529 66.2065 13.6289 66.1871 13.0492C65.6865 11.2924 64.7728 9.65028 63.9564 8.01944C63.0638 7.68197 60.8185 7.63676 61.1117 9.09159C61.1895 9.26275 61.0939 11.2714 60.8752 10.1621C60.9886 9.21754 60.1138 8.61849 59.4934 8.0695C58.894 9.4775 60.9303 10.0459 60.0069 11.1907C60.684 14.173 61.0939 17.3782 62.3785 20.1441C62.4109 17.84 62.142 15.5955 61.9201 13.3059C62.1145 12.5357 62.4952 13.4625 62.5178 13.8291C62.8791 16.8841 63.7344 20.0941 62.7074 23.1184C63.6048 23.5705 62.8435 24.4537 62.1177 23.8966C60.6387 18.8298 59.6375 13.5384 57.5591 8.70084C58.4307 14.2925 60.2321 19.776 60.569 25.4419C60.6176 25.7148 60.3681 25.7325 60.1592 25.7632C60.6403 23.6189 58.2379 22.973 57.2562 21.5085C55.782 19.5887 56.9565 16.679 55.5066 14.6703C54.6497 13.6256 55.6913 12.6181 56.4365 11.8866C57.7179 11.2585 56.4511 9.59538 56.3231 8.50869C55.3851 7.63192 54.3597 6.7503 53.2516 6.07052C49.6229 6.24006 45.9796 5.83962 42.3509 6.07213C41.4161 7.81438 43.062 10.703 41.2266 12.0739C40.7876 14.9222 41.4145 17.8028 40.935 20.6447C41.2428 21.4778 40.4507 23.0086 41.4421 23.5317C42.8417 24.2438 43.3585 22.9585 43.7894 21.938C44.5249 20.3201 45.4661 18.8072 46.2436 17.2118C46.5255 15.1693 46.2518 13.0847 46.3684 11.026C47.0391 10.9937 46.5693 12.1756 46.8106 12.4873C46.5952 15.7457 46.6681 19.0187 46.7053 22.282C47.9738 22.3191 46.464 22.5355 46.3344 23.1959C46.1545 21.8638 43.4038 22.135 43.4524 23.5689C44.473 24.176 45.1081 25.1706 45.2522 26.3494C45.4531 27.7606 45.0886 29.1589 44.3694 30.3618C44.0292 30.8834 44.0907 29.8677 43.7068 29.8193C42.7721 29.8694 41.839 29.85 40.9075 29.7741C41.0031 31.0933 41.0322 32.419 41.0079 33.743C40.483 35.3851 41.0241 37.2775 40.1898 38.8099C39.6131 37.5488 38.6136 39.5349 39.7913 39.6834C41.5652 40.0596 40.5252 42.2378 40.6483 43.4311C40.2757 43.7266 39.6293 43.6895 39.4981 44.2691C39.4333 44.282 39.307 44.3111 39.2438 44.324C38.5585 41.022 38.5715 37.6069 38.0013 34.2193C35.2797 33.588 32.5744 32.8775 29.8885 32.1122C29.3928 31.9378 29.9824 31.5567 30.2643 31.7456C32.9194 32.4819 35.6393 33.0148 38.2345 33.9432C38.5893 29.0685 38.416 24.1469 38.6978 19.256C39.2519 16.0864 38.0239 12.4534 39.7411 9.57761C39.6844 8.89783 38.8501 9.12066 38.4759 9.41937C38.2232 9.36609 37.9721 9.31765 37.721 9.26921C38.4597 7.73849 37.6125 5.85092 38.3739 4.37025C43.9773 3.20284 49.8918 4.47036 55.5018 3.80834C50.3033 3.69208 45.0983 3.8148 39.8999 3.75667C38.9749 3.39014 40.091 1.83197 38.8129 1.75285C33.1705 1.92885 27.5395 2.66676 21.8842 2.61509C21.9863 2.4956 22.0916 2.37934 22.1969 2.2647C23.2579 2.16298 24.3255 2.15652 25.3898 2.0887C26.378 1.83681 26.31 0.24473 27.431 0.236657ZM61.2753 2.15652C61.3466 3.33847 60.5658 5.85738 62.6345 5.23411C62.8321 3.84387 63.7474 1.58977 61.2753 2.15652ZM46.2582 18.0386C45.5422 19.4498 44.4973 20.7981 44.081 22.3191C47.2642 23.6302 46.2194 19.2706 46.2582 18.0386Z" fill="#373838"/>
<path d="M56.3377 1.33141C59.9955 0.37552 63.4072 1.79806 66.9727 1.86426C66.4187 2.37935 65.4532 1.9563 65.0936 2.73619C63.8754 2.20819 62.2894 0.703302 60.9076 1.63498C61.2024 3.87293 58.8405 3.03007 57.4182 3.26742C57.6984 2.34867 57.3339 1.45251 56.3377 1.33141Z" fill="#B9822A"/>
<path d="M21.8842 2.61509C27.5395 2.66676 33.1705 1.92885 38.8129 1.75285C40.091 1.83197 38.9749 3.39014 39.8999 3.75667C45.0983 3.8148 50.3033 3.69208 55.5018 3.80834C49.8918 4.47036 43.9773 3.20284 38.3739 4.37025C37.6125 5.85092 38.4597 7.73849 37.721 9.26921C36.6842 9.36286 37.5039 7.83698 36.6907 7.58186C35.3542 7.3445 33.9805 7.46075 32.6408 7.29444C32.4594 7.41877 31.2573 6.76644 31.455 7.46076C31.8308 8.33753 34.6803 7.17657 34.0631 8.61848C33.5042 9.81335 31.2638 8.2681 31.1229 9.89893C30.875 14.0228 30.6612 18.2582 30.7892 22.353C32.8255 22.0833 36.7928 23.8902 37.7291 20.9983C37.6756 17.0617 37.5623 13.2543 38.4759 9.41937C38.8501 9.12066 39.6844 8.89783 39.7411 9.57761C38.0239 12.4534 39.2519 16.0864 38.6978 19.256C38.416 24.1469 38.5893 29.0685 38.2345 33.9432C35.6393 33.0148 32.9194 32.4819 30.2643 31.7456C29.9824 31.5567 29.3928 31.9378 29.8885 32.1122C32.5744 32.8775 35.2797 33.588 38.0013 34.2193C38.5715 37.6069 38.5585 41.022 39.2438 44.324C37.2285 44.5646 38.4953 41.8164 37.9284 40.6119C37.8522 39.7868 36.8041 36.6494 36.9159 39.3266C36.8106 38.3561 36.8511 37.3809 36.7685 36.4137C30.3874 34.4357 23.7909 33.081 17.5022 30.8527C17.9493 30.6606 17.8975 30.0744 17.9461 29.6885C18.4774 23.0602 18.9262 16.4206 19.511 9.79882C20.1687 7.38325 20.5623 4.76908 21.8842 2.61509ZM26.6453 5.42625C25.6944 6.30787 24.4794 5.06456 23.6629 6.01884C23.4086 6.04145 22.2325 5.60548 22.4026 6.30625C24.737 6.62435 24.8099 9.79236 24.5393 11.5653C24.5393 15.095 23.9934 18.6053 24.0112 22.1334C25.2375 22.9278 26.851 22.3013 28.215 22.5015C28.6913 22.2965 30.0553 22.9311 29.997 22.0107C29.8609 17.6849 30.4247 13.3447 30.0602 9.03508C29.7896 8.07757 28.7642 9.56469 28.1211 8.86876C27.35 8.93173 26.8446 7.70942 27.7388 7.48498C28.5974 6.8714 30.0326 8.52968 30.1655 7.01833C28.4564 6.58398 26.6178 7.02318 24.9686 6.47418C26.0216 5.28739 28.1162 6.33532 29.5386 6.16901C29.1692 5.08233 27.5201 5.81539 26.6453 5.42625ZM24.2153 23.6496C23.6759 23.9968 23.8185 24.7153 23.6403 25.2578C23.0004 24.3052 22.4609 23.212 20.9705 23.803C20.1751 24.9833 22.2843 24.5183 22.2422 25.7067C23.6305 28.2821 26.8883 26.7902 29.187 27.168C31.4582 27.0953 28.3689 27.3214 29.4608 28.0351C31.3464 28.2175 33.433 27.8381 35.3283 28.182C35.1809 29.0556 33.8865 28.7488 33.211 28.9845C34.2915 29.6368 35.4304 30.2117 36.6389 30.5782C36.9305 30.6396 37.1945 30.3748 37.1346 30.0857C36.5028 28.6906 36.9904 27.0937 36.992 25.6098C37.8441 25.345 38.2167 24.3342 37.5752 23.6464C33.1235 23.6076 28.667 23.6092 24.2153 23.6496Z" fill="#2F3130"/>
<path d="M62.6345 5.23411C62.8321 3.84387 63.7474 1.58977 61.2753 2.15652C61.3466 3.33847 60.5658 5.85738 62.6345 5.23411Z" fill="#868478"/>
<path d="M14.63 2.67321C17.1458 2.46491 19.673 2.33252 22.1969 2.2647C22.0916 2.37934 21.9863 2.4956 21.8842 2.61509C20.5623 4.76908 20.1687 7.38325 19.511 9.79882C17.3224 9.40161 15.0868 9.17232 12.9274 8.66047C12.733 7.66259 13.2384 6.51939 13.2384 5.46339C13.428 4.43322 13.1898 2.8266 14.63 2.67321Z" fill="#AE7C2F"/>
<path d="M66.3037 5.80732C64.87 5.66523 66.2875 0.88576 66.7589 3.78896C66.8367 4.47198 67.8767 5.94133 66.7378 5.90419C66.6293 5.87997 66.4122 5.83154 66.3037 5.80732Z" fill="#7E7D72"/>
<path d="M66.7589 3.78896C67.3534 4.32181 68.2298 4.1006 68.7515 3.5726C69.7283 5.35844 68.3789 7.26054 68.5392 9.08998C68.6802 13.5158 68.2282 18.0176 68.9718 22.395C69.4578 23.015 68.873 24.3375 69.913 24.3342C73.2566 25.5307 76.9291 26.0781 80.4168 26.9742C80.5934 26.2299 80.3051 25.8714 79.5502 25.8956C80.1155 23.9596 77.3778 24.5667 76.2454 24.0339C75.5829 23.8466 74.8215 23.8563 74.3452 24.4037C74.1686 24.3294 74.2837 24.0694 74.2432 23.9192C75.9069 22.7631 77.8881 24.4682 79.6004 24.1582C80.4768 21.9897 84.3874 22.7647 83.8479 25.3305C86.3232 26.1943 89.5162 25.894 91.2884 28.0981C92.6314 28.2385 95.084 27.9043 93.8367 29.9243C93.4203 30.1794 91.8684 29.6998 92.0936 30.3586C93.2113 30.7171 94.8313 30.6267 94.6337 32.2042C94.5462 32.138 94.3729 32.004 94.287 31.9378C94.219 31.6568 94.2481 31.237 93.9209 31.124C91.546 30.5217 89.1323 29.9969 86.8287 29.1605C87.1316 28.8392 87.4297 28.5114 87.6986 28.1594C88.724 28.1417 89.7543 28.1852 90.783 28.1271C88.7159 26.4511 85.5781 25.7842 82.9813 26.0523C82.7545 25.5162 83.3279 24.4182 82.8079 24.0791C82.7707 24.7395 82.7771 25.4015 82.829 26.0619C82.8598 26.3106 82.9181 26.5544 82.9667 26.8015C81.6075 28.4565 84.1833 28.1126 84.8215 29.2041C86.8271 29.632 88.9168 30.1745 90.8915 30.843C91.8749 31.2305 93.5483 31.87 92.0466 32.8904C89.9795 32.3802 87.9222 31.8231 85.8842 31.2112C85.0953 30.9447 84.2983 30.7203 83.4899 30.5378C76.6342 28.4484 69.5469 27.1034 62.8726 24.4699C61.5896 25.2304 62.6166 27.4619 62.2505 28.6745C62.0221 34.9185 62.0043 41.1722 61.6641 47.4097C62.5243 44.0398 58.7757 45.2557 56.8982 45.2912C51.0485 45.3897 45.2312 45.1895 39.4933 45.33C38.9538 45.2412 39.4349 44.5969 39.4981 44.2691C39.6293 43.6895 40.2757 43.7266 40.6483 43.4311C40.5252 42.2378 41.5652 40.0596 39.7913 39.6834C38.6136 39.5349 39.6131 37.5488 40.1898 38.8099C41.0241 37.2775 40.483 35.3851 41.0079 33.743C41.3595 35.7129 41.0419 37.7216 41.2201 39.7012C42.5307 40.4084 41.7126 42.0893 42.0609 43.2583C47.687 43.2809 53.3666 43.612 58.9701 43.1469C59.4869 41.2642 59.3427 38.931 59.4626 36.89C58.9458 36.4266 58.4112 36.3233 58.1682 37.0337C58.1779 36.7689 58.1747 36.5057 58.1682 36.2441C58.1828 35.2899 59.3443 34.4389 58.7158 33.2973C58.1763 33.11 56.106 31.9523 57.4765 32.3786C58.1585 32.3947 59.0981 32.6579 59.6489 32.1913C60.0668 30.0825 59.8789 27.8962 60.1592 25.7632C60.3681 25.7325 60.6176 25.7148 60.569 25.4419C60.2321 19.776 58.4307 14.2925 57.5591 8.70084C59.6375 13.5384 60.6387 18.8298 62.1177 23.8966C62.8435 24.4537 63.6048 23.5705 62.7074 23.1184C63.7344 20.0941 62.8791 16.8841 62.5178 13.8291C62.4952 13.4625 62.1145 12.5357 61.9201 13.3059C62.142 15.5955 62.4109 17.84 62.3785 20.1441C61.0939 17.3782 60.684 14.173 60.0069 11.1907C60.9303 10.0459 58.894 9.4775 59.4934 8.0695C60.1138 8.61849 60.9886 9.21754 60.8752 10.1621C61.0939 11.2714 61.1895 9.26275 61.1117 9.09159C60.8185 7.63676 63.0638 7.68197 63.9564 8.01944C64.7728 9.65028 65.6865 11.2924 66.1871 13.0492C66.2065 13.6289 66.6244 14.9529 65.6735 14.7236C65.0774 14.2101 65.126 13.2494 64.4893 12.7698C65.6104 16.1752 65.7157 19.7905 66.4284 23.2831C65.4921 23.3557 64.5574 23.4187 63.6259 23.5172C64.8393 23.9903 66.1482 23.8547 67.4215 23.9031C67.7098 23.0845 66.3264 23.4801 66.9112 22.6404C67.9982 20.9289 65.6735 19.7259 66.3021 17.9062C66.8739 18.242 66.6893 19.7469 67.3227 19.4886C67.3453 17.9707 67.4053 16.4513 67.3194 14.9351C67.4911 12.4017 67.4166 9.86018 67.4037 7.32512C67.321 6.77451 67.4604 5.96555 66.7378 5.90419C67.8767 5.94133 66.8367 4.47198 66.7589 3.78896Z" fill="#303131"/>
<path d="M26.6453 5.42625C27.5201 5.81539 29.1692 5.08233 29.5386 6.16901C28.1162 6.33532 26.0216 5.28739 24.9686 6.47418C26.6178 7.02318 28.4564 6.58398 30.1655 7.01833C30.0326 8.52968 28.5974 6.8714 27.7388 7.48498C26.8446 7.70942 27.35 8.93173 28.1211 8.86876C28.7642 9.56469 29.7896 8.07757 30.0602 9.03508C30.4247 13.3447 29.8609 17.6849 29.997 22.0107C30.0553 22.9311 28.6913 22.2965 28.215 22.5015C26.851 22.3013 25.2375 22.9278 24.0112 22.1334C23.9934 18.6053 24.5393 15.095 24.5393 11.5653C24.8099 9.79236 24.737 6.62435 22.4026 6.30625C22.2325 5.60548 23.4086 6.04145 23.6629 6.01884C24.4794 5.06456 25.6944 6.30787 26.6453 5.42625Z" fill="#212222"/>
<path d="M42.3509 6.07213C45.9796 5.83962 49.6229 6.24006 53.2516 6.07052C54.3597 6.7503 55.3851 7.63192 56.3231 8.50869C56.4511 9.59538 57.7179 11.2585 56.4365 11.8866C56.5175 9.10451 53.5173 6.31756 50.8379 7.58993C50.9659 12.2079 51.5571 16.9099 51.5069 21.5537C51.5636 21.9009 51.5102 22.2141 51.2623 21.7814C50.5382 17.0003 50.4361 12.1272 49.7169 7.35903C47.4149 7.48336 45.1081 7.48175 42.8109 7.68358C42.9616 11.9415 42.2132 16.2398 42.8741 20.4751C42.8774 21.1065 43.1852 21.712 43.7894 21.938C43.3585 22.9585 42.8417 24.2438 41.4421 23.5317C40.4507 23.0086 41.2428 21.4778 40.935 20.6447C41.4145 17.8028 40.7876 14.9222 41.2266 12.0739C43.062 10.703 41.4161 7.81438 42.3509 6.07213Z" fill="#1D1E1C"/>
<path d="M70.0717 6.29657C70.2985 11.428 70.1446 16.595 70.1236 21.7378C69.8644 16.6112 70.0264 11.4377 70.0717 6.29657Z" fill="#222220"/>
<path d="M31.455 7.46076C31.2573 6.76644 32.4594 7.41877 32.6408 7.29444C33.9805 7.46075 35.3542 7.3445 36.6907 7.58186C37.5039 7.83698 36.6842 9.36286 37.721 9.26921C37.9721 9.31765 38.2232 9.36609 38.4759 9.41937C37.5623 13.2543 37.6756 17.0617 37.7291 20.9983C36.7928 23.8902 32.8255 22.0833 30.7892 22.353C30.6612 18.2582 30.875 14.0228 31.1229 9.89893C31.2638 8.2681 33.5042 9.81335 34.0631 8.61848C34.6803 7.17657 31.8308 8.33753 31.455 7.46076Z" fill="#1F2020"/>
<path d="M50.8379 7.58993C53.5173 6.31756 56.5175 9.10451 56.4365 11.8866C55.6913 12.6181 54.6497 13.6256 55.5066 14.6703C56.9565 16.679 55.782 19.5887 57.2562 21.5085C56.2405 22.4128 57.6207 24.7395 55.9975 24.8315C53.6485 24.4908 56.2486 29.871 53.7473 28.6971C50.9092 27.943 48.1827 26.577 45.2522 26.3494C45.1081 25.1706 44.473 24.176 43.4524 23.5689C43.4038 22.135 46.1545 21.8638 46.3344 23.1959C46.464 22.5355 47.9738 22.3191 46.7053 22.282C46.6681 19.0187 46.5952 15.7457 46.8106 12.4873C46.5693 12.1756 47.0391 10.9937 46.3684 11.026C46.2518 13.0847 46.5255 15.1693 46.2436 17.2118C45.4661 18.8072 44.5249 20.3201 43.7894 21.938C43.1852 21.712 42.8774 21.1065 42.8741 20.4751C42.2132 16.2398 42.9616 11.9415 42.8109 7.68358C45.1081 7.48175 47.4149 7.48336 49.7169 7.35903C50.4361 12.1272 50.5382 17.0003 51.2623 21.7814C51.5102 22.2141 51.5636 21.9009 51.5069 21.5537C51.5571 16.9099 50.9659 12.2079 50.8379 7.58993Z" fill="#0A0B09"/>
<path d="M44.081 22.3191C47.2642 23.6302 46.2194 19.2706 46.2582 18.0386C45.5422 19.4498 44.4973 20.7981 44.081 22.3191Z" fill="#0A0B09"/>
<path d="M57.2562 21.5085C58.2379 22.973 60.6403 23.6189 60.1592 25.7632C59.8789 27.8962 60.0668 30.0825 59.6489 32.1913C59.0981 32.6579 58.1585 32.3947 57.4765 32.3786C56.106 31.9523 58.1763 33.11 58.7158 33.2973C59.3443 34.4389 58.1828 35.2899 58.1682 36.2441C57.8588 34.7909 56.1708 35.5321 55.3025 34.8878C55.0595 33.475 54.5508 32.0928 53.7635 30.9221C52.1889 31.526 50.2336 31.0884 49.8205 29.2235C48.5246 29.2396 47.3242 28.6051 46.0768 28.4888C45.4871 29.5771 45.8419 31.0529 44.857 32.0169C47.538 31.631 50.5852 30.8333 53.1204 32.2284C54.2787 33.898 52.0399 33.4104 51.6511 34.3905C52.2294 37.0563 48.4452 36.5509 47.1233 35.4675C46.8884 35.0783 47.2804 32.7806 46.3813 33.5169C46.3894 34.9298 46.7475 37.9993 44.4179 37.5585C44.1685 40.0047 48.1763 37.2372 48.8307 39.4331C47.342 39.5704 45.7901 39.2523 44.3289 39.5397C43.7197 41.2497 46.127 40.3309 47.018 40.4455C48.2265 40.0548 49.0592 41.4854 49.179 42.4817C50.7634 42.3154 52.4805 42.8918 54.0162 42.5656C54.9445 42.275 53.6226 40.1452 54.4844 40.8605C54.3824 42.6399 57.0585 41.9472 58.2751 42.4575C58.5959 40.6522 57.9139 38.826 58.1682 37.0337C58.4112 36.3233 58.9458 36.4266 59.4626 36.89C59.3427 38.931 59.4869 41.2642 58.9701 43.1469C53.3666 43.612 47.687 43.2809 42.0609 43.2583C41.7126 42.0893 42.5307 40.4084 41.2201 39.7012C41.0419 37.7216 41.3595 35.7129 41.0079 33.743C41.0322 32.419 41.0031 31.0933 40.9075 29.7741C41.839 29.85 42.7721 29.8694 43.7068 29.8193C44.0907 29.8677 44.0292 30.8834 44.3694 30.3618C45.0886 29.1589 45.4531 27.7606 45.2522 26.3494C48.1827 26.577 50.9092 27.943 53.7473 28.6971C56.2486 29.871 53.6485 24.4908 55.9975 24.8315C57.6207 24.7395 56.2405 22.4128 57.2562 21.5085ZM41.8228 33.1536C42.1597 35.235 41.5927 37.7959 42.3007 39.6398C42.0463 37.6279 42.4821 34.6569 41.8228 33.1536Z" fill="#242525"/>
<path d="M24.2153 23.6496C28.667 23.6092 33.1235 23.6076 37.5752 23.6464C38.2167 24.3342 37.8441 25.345 36.992 25.6098C36.9904 27.0937 36.5028 28.6906 37.1346 30.0857C37.1945 30.3748 36.9305 30.6396 36.6389 30.5782C35.4304 30.2117 34.2915 29.6368 33.211 28.9845C33.8865 28.7488 35.1809 29.0556 35.3283 28.182C33.433 27.8381 31.3464 28.2175 29.4608 28.0351C28.3689 27.3214 31.4582 27.0953 29.187 27.168C26.8883 26.7902 23.6305 28.2821 22.2422 25.7067C22.2843 24.5183 20.1751 24.9833 20.9705 23.803C22.4609 23.212 23.0004 24.3052 23.6403 25.2578C23.8185 24.7153 23.6759 23.9968 24.2153 23.6496Z" fill="#202222"/>
<path d="M69.913 24.3342C69.9924 24.1308 70.0734 23.9289 70.156 23.7287C71.4843 23.6108 73.0492 24.7492 74.2432 23.9192C74.2837 24.0694 74.1686 24.3294 74.3452 24.4037C76.0381 25.0221 77.8168 25.3935 79.5502 25.8956C80.3051 25.8714 80.5934 26.2299 80.4168 26.9742C76.9291 26.0781 73.2566 25.5307 69.913 24.3342Z" fill="#666B6D"/>
<path d="M74.3452 24.4037C74.8215 23.8563 75.5829 23.8466 76.2454 24.0339C77.3778 24.5667 80.1155 23.9596 79.5502 25.8956C77.8168 25.3935 76.0381 25.0221 74.3452 24.4037Z" fill="#050605"/>
<path d="M82.8079 24.0791C83.3279 24.4182 82.7545 25.5162 82.9813 26.0523L82.829 26.0619C82.7771 25.4015 82.7707 24.7395 82.8079 24.0791Z" fill="#BEBEBE"/>
<path d="M62.2505 28.6745C62.6166 27.4619 61.5896 25.2304 62.8726 24.4699C69.5469 27.1034 76.6342 28.4484 83.4899 30.5378C77.9432 30.7623 72.7933 28.1982 67.4199 27.1599C67.5414 28.9038 67.5025 30.7187 68.0111 32.4093C73.6713 34.2048 79.4854 35.4949 85.2233 37.024C87.326 37.2129 89.6555 38.9132 91.5428 38.2948C91.6092 44.9295 91.8749 51.5546 92.0433 58.1893C90.1593 57.9245 88.2429 57.6985 86.3978 57.3335C84.8296 56.5456 86.5403 53.8943 85.2703 53.2306C84.308 53.9104 85.9555 56.0047 84.3696 56.2016C83.4235 56.6667 83.6195 54.4368 82.8679 54.9616C84.0326 57.9568 86.3475 60.3966 88.0663 63.0931C88.1911 63.5194 89.3477 63.5775 88.6641 63.9489C88.055 63.7358 87.4621 63.4661 86.8254 63.3482C87.1413 64.1265 88.0112 64.7014 87.8136 65.6314C86.6602 64.7514 85.5408 62.7815 83.9176 63.9634C82.4483 64.6239 80.8915 65.055 79.4011 65.6524C80.4201 66.668 81.465 67.6917 82.5908 68.5814C85.1714 68.6816 87.3795 67.0087 89.7932 66.2628C89.5632 66.4872 89.3121 66.6874 89.061 66.8876C87.1915 67.8597 85.1552 68.4652 83.3101 69.4711C84.2432 70.0573 83.8463 72.5891 84.6401 73.8146C86.2925 74.714 87.7796 73.2156 89.3186 72.7473C89.0367 74.01 89.6345 76.629 87.6808 76.5951C88.0679 75.7135 87.6678 74.7657 86.9745 75.7361C86.2844 76.9407 86.3767 78.2066 87.1948 79.2771C86.9615 79.3869 86.7266 79.4951 86.4998 79.6178C85.0062 80.5979 83.0461 80.5027 81.8165 81.9252C82.1664 83.4979 83.7281 81.0678 84.308 82.0495C83.0088 82.3402 80.8445 85.1045 80.2646 83.0216C78.7693 82.8859 77.4944 84.2294 76.0705 84.6799C76.4204 83.4462 75.2232 83.5011 74.5023 83.1508C76.2827 83.0991 78.0776 83.0329 79.832 82.6583C80.2338 82.5711 80.9433 81.9817 80.19 81.8558C82.0125 81.7331 83.8123 80.1652 83.775 78.1985C84.8604 75.0466 84.3291 70.9857 81.9639 68.5459C79.6765 65.5265 75.7692 65.2568 72.56 63.8391C73.5125 64.0151 74.4975 64.4527 74.4003 63.0721C74.7032 64.7223 76.8157 65.0501 78.3028 65.5119C79.3849 63.894 81.9542 63.8875 83.6714 62.9413C82.1211 62.7008 80.7295 61.6561 79.0966 62.2067C80.4395 60.7212 77.8492 61.9063 76.9874 60.9101C77.7876 59.4778 77.9189 57.6791 78.3854 56.0757C76.6472 55.7205 74.9754 55.1247 73.3522 54.4206C75.2994 54.2333 77.8055 56.0257 79.2505 54.306C80.1317 53.7473 80.7198 54.6629 81.175 55.2781C82.2328 54.3157 80.5221 53.3776 79.6198 53.912C76.273 53.1741 72.5827 53.2597 69.4221 52.0632C69.1516 51.6692 68.664 51.7403 68.2396 51.7306C67.321 45.619 68.3643 38.9617 67.7422 32.6692C67.7228 31.434 66.1255 31.849 65.322 31.3613C65.4727 29.7854 66.3782 26.6594 63.7134 26.879C63.2063 31.7085 63.0767 36.7156 62.9099 41.592C62.1971 38.8244 62.9552 34.7263 62.7932 31.4647C62.5632 30.6476 63.9871 27.0081 62.2505 28.6745ZM75.2168 34.9815C74.8199 35.1494 74.8928 35.4804 75.1827 35.7242C78.1424 37.5746 80.2144 41.0285 84.125 41.0349C85.3448 40.783 84.227 38.4579 84.564 37.5617C81.5136 36.5073 78.3174 35.8857 75.2168 34.9815ZM72.9634 35.7484C72.1291 36.4976 73.2015 37.7264 72.6669 38.4078C72.688 41.5661 72.9148 44.6276 72.8322 47.8327C73.2857 48.2057 72.4612 48.23 73.08 48.5044C75.7011 46.8284 78.3417 45.1378 80.8429 43.2906C80.7943 42.5947 81.1847 41.5839 80.3877 41.2044C77.8492 39.5042 75.5796 37.1532 72.9634 35.7484ZM87.8671 41.5742C87.8217 44.5275 88.8731 47.8198 89.4935 50.8587C89.6345 51.7968 90.8673 50.6471 89.7722 50.7666C88.9605 48.1993 88.7111 45.2912 88.0615 42.6141C87.4993 41.8858 89.1549 41.3514 87.8671 41.5742ZM80.4525 44.8375C78.4988 46.2762 75.9409 47.4161 74.4084 49.0938C77.0117 49.6525 79.9147 49.5233 82.6411 49.7784C85.7708 50.7214 84.0909 46.5717 84.3129 45.0522C83.2129 44.6227 81.6804 44.8117 80.4525 44.8375Z" fill="#A47321"/>
<path d="M63.7134 26.879C66.3782 26.6594 65.4727 29.7854 65.322 31.3613C65.1811 34.8668 63.8219 38.2302 62.9099 41.592C63.0767 36.7156 63.2063 31.7085 63.7134 26.879Z" fill="#2A2317"/>
<path d="M84.8215 29.2041C84.1833 28.1126 81.6075 28.4565 82.9667 26.8015C84.5429 27.2552 86.1207 27.7105 87.6986 28.1594C87.4297 28.5114 87.1316 28.8392 86.8287 29.1605C89.1323 29.9969 91.546 30.5217 93.9209 31.124C94.2481 31.237 94.219 31.6568 94.287 31.9378C94.1963 33.6719 94.9885 35.3641 95.0371 37.0919C95.1553 38.2964 92.5812 37.4035 93.4997 36.3685C93.6277 34.7409 94.3016 32.645 93.0704 31.3533C92.3414 31.1886 91.6465 30.8608 90.8915 30.843C88.9168 30.1745 86.8271 29.632 84.8215 29.2041Z" fill="#54595D"/>
<path d="M67.4199 27.1599C72.7933 28.1982 77.9432 30.7623 83.4899 30.5378C84.2983 30.7203 85.0953 30.9447 85.8842 31.2112C85.7692 31.3177 85.6574 31.4308 85.5505 31.547C87.7326 32.3285 89.9941 32.8694 92.2199 33.5153C92.2134 33.6074 92.2005 33.793 92.1924 33.8851C92.0693 34.518 91.9737 35.1607 91.9316 35.8066C91.8036 36.6349 91.6643 37.4632 91.5428 38.2948C89.6555 38.9132 87.326 37.2129 85.2233 37.024C79.4854 35.4949 73.6713 34.2048 68.0111 32.4093C67.5025 30.7187 67.5414 28.9038 67.4199 27.1599ZM74.5704 33.1036C75.1536 34.1822 76.9161 33.9351 77.1445 32.6741C77.8281 31.7117 75.9943 31.3968 75.8971 31.6068L75.7011 31.7133C75.5375 31.6148 75.3788 31.5147 75.2168 31.4195C74.0633 29.984 72.4385 34.0692 74.5704 33.1036Z" fill="#C88C2A"/>
<path d="M62.2505 28.6745C63.9871 27.0081 62.5632 30.6476 62.7932 31.4647C62.9552 34.7263 62.1971 38.8244 62.9099 41.592C63.8219 38.2302 65.1811 34.8668 65.322 31.3613C66.1255 31.849 67.7228 31.434 67.7422 32.6692C68.3643 38.9617 67.321 45.619 68.2396 51.7306C67.0975 51.863 68.2428 50.0642 67.5187 49.6832C64.8328 49.0551 62.0756 48.7579 59.4075 48.0539C60.0749 47.7714 61.7062 48.569 61.6641 47.4097C62.0043 41.1722 62.0221 34.9185 62.2505 28.6745ZM65.991 33.8496C64.8895 36.7043 64.2577 40.5634 63.668 42.8256C62.9601 43.6232 63.6065 44.8569 64.4537 45.1378C64.1151 46.0146 66.1692 47.0835 66.119 45.7466C65.8501 41.8794 66.639 37.3793 65.991 33.8496Z" fill="#77551C"/>
<path d="M46.0768 28.4888C47.3242 28.6051 48.5246 29.2396 49.8205 29.2235C50.2336 31.0884 52.1889 31.526 53.7635 30.9221C54.5508 32.0928 55.0595 33.475 55.3025 34.8878C56.1708 35.5321 57.8588 34.7909 58.1682 36.2441C58.1747 36.5057 58.1779 36.7689 58.1682 37.0337C57.9139 38.826 58.5959 40.6522 58.2751 42.4575C57.0585 41.9472 54.3824 42.6399 54.4844 40.8605C53.6226 40.1452 54.9445 42.275 54.0162 42.5656C52.4805 42.8918 50.7634 42.3154 49.179 42.4817C49.0592 41.4854 48.2265 40.0548 47.018 40.4455C46.127 40.3309 43.7197 41.2497 44.3289 39.5397C45.7901 39.2523 47.342 39.5704 48.8307 39.4331C48.1763 37.2372 44.1685 40.0047 44.4179 37.5585C46.7475 37.9993 46.3894 34.9298 46.3813 33.5169C47.2804 32.7806 46.8884 35.0783 47.1233 35.4675C48.4452 36.5509 52.2294 37.0563 51.6511 34.3905C52.0399 33.4104 54.2787 33.898 53.1204 32.2284C50.5852 30.8333 47.538 31.631 44.857 32.0169C45.8419 31.0529 45.4871 29.5771 46.0768 28.4888Z" fill="#131413"/>
<path d="M92.0936 30.3586C91.8684 29.6998 93.4203 30.1794 93.8367 29.9243C95.0759 30.1568 96.2893 30.5265 97.4816 30.9399C99.0108 32.4787 99.0319 34.7554 99.6961 36.6882C99.6815 37.0596 98.7208 36.5396 98.4746 37.4664C97.9951 38.361 99.3705 38.4288 99.884 38.7743C99.3008 38.797 98.7451 38.7194 98.1717 38.6678C96.2666 39.8659 95.2865 37.5456 95.5473 35.9987C96.1613 35.8389 96.7121 35.9115 96.7753 36.6478C98.4795 36.5493 97.2596 33.9707 96.8385 33.0309C95.6397 32.8711 96.8109 34.5842 96.7056 35.1187C97.1916 36.2861 95.5263 34.3485 96.414 34.7037C96.2731 34.145 96.1921 33.5282 95.7903 33.0842C96.0738 33.8657 96.0868 34.7166 95.6818 35.4562C95.6089 35.0477 95.5263 34.7102 95.3853 35.2802C95.3497 35.1252 95.3205 34.9685 95.2995 34.8135C95.4987 34.2936 95.928 33.3442 95.1035 33.1569C94.6871 33.0519 94.7568 32.5271 94.6337 32.2042C94.8313 30.6267 93.2113 30.7171 92.0936 30.3586Z" fill="#4C4F50"/>
<path d="M90.8915 30.843C91.6465 30.8608 92.3414 31.1886 93.0704 31.3533C94.3016 32.645 93.6277 34.7409 93.4997 36.3685C92.5812 37.4035 95.1553 38.2964 95.0371 37.0919C94.9885 35.3641 94.1963 33.6719 94.287 31.9378C94.3729 32.004 94.5462 32.138 94.6337 32.2042C94.7568 32.5271 94.6871 33.0519 95.1035 33.1569C95.144 33.7042 95.199 34.2678 95.2995 34.8135C95.3205 34.9685 95.3497 35.1252 95.3853 35.2802C95.4323 35.5191 95.4955 35.7581 95.5473 35.9987C95.2865 37.5456 96.2666 39.8659 98.1717 38.6678C97.9935 39.6301 99.1015 39.3863 99.6183 39.811C100.135 40.36 97.6565 39.3056 98.0243 39.9434C98.1279 40.8654 99.3753 40.4698 99.8872 41.0236C98.5589 41.0381 97.0523 40.8008 95.8746 41.5371C97.1155 41.8858 98.716 41.0898 99.8905 42.1393C98.6625 42.1474 96.7688 41.8762 95.9118 42.7981C97.2888 42.7836 98.7986 42.4914 100.02 43.2987C98.7047 43.1114 97.0102 43.1324 95.9394 43.8235C96.8854 44.1884 98.6156 43.4376 99.7123 44.2352C98.5637 44.5 96.7299 44.2368 95.9134 45.0829C97.2337 45.0942 98.6755 44.6599 99.8743 45.3913C99.5341 45.6981 97.8104 44.9085 98.2332 45.8547C98.6852 46.1987 99.3753 46.1793 99.8824 46.4925C98.6496 46.6104 97.305 46.5264 96.1888 47.1465C97.5237 47.4953 98.8197 46.6185 100.051 47.6341C98.8359 47.689 97.548 47.6438 96.4173 48.1621C95.6656 48.4269 97.2224 48.4027 97.5237 48.4463C98.2106 47.6987 99.3008 48.3833 100.049 48.766C98.8618 48.8306 97.5885 48.7676 96.4885 49.2989C97.5464 49.9932 98.8197 48.8145 99.8402 49.7445C98.8051 50.0077 97.3666 49.843 96.5857 50.4356C97.4929 51.0137 98.9833 49.9706 100.041 50.8506C98.9185 51.0104 97.4184 50.9378 96.5614 51.6434C97.6484 52.0923 97.9773 51.0169 99.1437 51.5804C101.104 52.3199 97.1738 51.9389 96.6797 52.567C97.6403 53.2322 98.9428 52.0971 99.9213 52.9222C99.9828 53.1806 95.6121 53.5148 97.3925 53.9249C98.2624 53.6165 99.2295 53.5213 100.012 54.0977C98.8909 54.2753 97.7003 54.2947 96.704 54.9051C97.7035 55.3346 98.8731 54.2947 99.743 55.1182C98.7354 55.4686 97.6079 55.4783 96.6797 56.0483C97.7084 56.397 98.7273 55.3394 99.709 56.1096C98.7014 56.594 97.4994 56.5924 96.5226 57.1915C97.6241 57.7001 98.7824 56.242 99.7349 57.3836C98.6803 57.7614 97.4071 57.7243 96.5145 58.4622C97.4881 59.1872 98.9833 57.3465 99.5065 58.769C98.2932 58.8933 97.0701 59.2631 96.0528 59.9477C97.4346 60.1496 98.507 58.9708 99.6945 60.0688C98.865 60.3094 97.6452 60.2109 97.0669 60.9052C98.0567 61.0974 99.0432 60.6114 99.9601 61.2798C99.9245 61.3509 99.8516 61.493 99.8143 61.564C97.3439 61.4768 94.8556 60.9585 92.3868 61.2427C92.2151 60.2319 92.1746 59.2033 92.0433 58.1893C91.8749 51.5546 91.6092 44.9295 91.5428 38.2948C91.6643 37.4632 91.8036 36.6349 91.9316 35.8066C92.8128 35.4933 92.4888 34.5342 92.1924 33.8851C92.2005 33.793 92.2134 33.6074 92.2199 33.5153C92.3933 33.2457 92.3285 33.0245 92.0466 32.8904C93.5483 31.87 91.8749 31.2305 90.8915 30.843Z" fill="#34383B"/>
<path d="M15.0107 35.3884C15.9487 33.9981 15.8563 31.6084 17.5022 30.8527C23.7909 33.081 30.3874 34.4357 36.7685 36.4137C36.8511 37.3809 36.8106 38.3561 36.9159 39.3266C36.9888 41.5032 36.8867 43.6927 37.1816 45.8596C37.1654 46.3505 37.1589 46.8623 37.1249 47.3612C33.0231 48.0701 37.41 41.1043 33.5982 41.2642C33.0911 42.4381 33.846 44.4225 33.3941 45.5819C32.4804 44.3854 34.2543 41.0979 32.3038 40.8734C26.9822 39.2717 21.5748 37.9121 16.2354 36.3556C15.6263 36.3475 15.2342 35.8841 15.0107 35.3884Z" fill="#BF872C"/>
<path d="M75.2168 31.4195C74.0633 29.984 72.4385 34.0692 74.5704 33.1036C74.8555 32.5707 75.1228 32.0201 75.2168 31.4195Z" fill="#A3A7AA"/>
<path d="M85.8842 31.2112C87.9222 31.8231 89.9795 32.3802 92.0466 32.8904C92.3285 33.0245 92.3933 33.2457 92.2199 33.5153C89.9941 32.8694 87.7326 32.3285 85.5505 31.547C85.6574 31.4308 85.7692 31.3177 85.8842 31.2112Z" fill="#F8EDD9"/>
<path d="M75.2168 31.4195C75.3788 31.5147 75.5375 31.6148 75.7011 31.7133C75.2378 32.1735 75.395 32.9679 75.0548 33.5363C75.4873 33.1649 76.4479 32.1412 75.8971 31.6068C75.9943 31.3968 77.8281 31.7117 77.1445 32.6741C76.9161 33.9351 75.1536 34.1822 74.5704 33.1036C74.8555 32.5707 75.1228 32.0201 75.2168 31.4195Z" fill="#53312E"/>
<path d="M75.7011 31.7133L75.8971 31.6068C76.4479 32.1412 75.4873 33.1649 75.0548 33.5363C75.395 32.9679 75.2378 32.1735 75.7011 31.7133Z" fill="#C0C5C8"/>
<path d="M96.7056 35.1187C96.8109 34.5842 95.6397 32.8711 96.8385 33.0309C97.2596 33.9707 98.4795 36.5493 96.7753 36.6478C96.7121 35.9115 96.1613 35.8389 95.5473 35.9987C95.4955 35.7581 95.4323 35.5191 95.3853 35.2802C95.5263 34.7102 95.6089 35.0477 95.6818 35.4562C96.0868 34.7166 96.0738 33.8657 95.7903 33.0842C96.1921 33.5282 96.2731 34.145 96.414 34.7037C95.5263 34.3485 97.1916 36.2861 96.7056 35.1187ZM96.6019 33.5993C96.5371 34.3889 97.5124 35.4723 96.7267 36.0811C97.7424 36.1844 97.3163 33.94 96.6019 33.5993Z" fill="#DFE0E0"/>
<path d="M42.3007 39.6398C42.0463 37.6279 42.4821 34.6569 41.8228 33.1536C42.1597 35.235 41.5927 37.7959 42.3007 39.6398Z" fill="#757675"/>
<path d="M95.2995 34.8135C95.4987 34.2936 95.928 33.3442 95.1035 33.1569C95.144 33.7042 95.199 34.2678 95.2995 34.8135Z" fill="#DDDDDD"/>
<path d="M96.7267 36.0811C97.7424 36.1844 97.3163 33.94 96.6019 33.5993C96.5371 34.3889 97.5124 35.4723 96.7267 36.0811Z" fill="#292A2A"/>
<path d="M65.991 33.8496C66.639 37.3793 65.8501 41.8794 66.119 45.7466C66.1692 47.0835 64.1151 46.0146 64.4537 45.1378C63.6065 44.8569 62.9601 43.6232 63.668 42.8256C64.2577 40.5634 64.8895 36.7043 65.991 33.8496Z" fill="#292215"/>
<path d="M92.1924 33.8851C92.0693 34.518 91.9737 35.1607 91.9316 35.8066C92.8128 35.4933 92.4888 34.5342 92.1924 33.8851Z" fill="#CAC6BF"/>
<path d="M75.2168 34.9815C78.3174 35.8857 81.5136 36.5073 84.564 37.5617C84.227 38.4579 85.3448 40.783 84.125 41.0349C80.2144 41.0285 78.1424 37.5746 75.1827 35.7242C74.8928 35.4804 74.8199 35.1494 75.2168 34.9815Z" fill="#1D1C17"/>
<path d="M72.9634 35.7484C75.5796 37.1532 77.8492 39.5042 80.3877 41.2044C81.1847 41.5839 80.7943 42.5947 80.8429 43.2906C78.3417 45.1378 75.7011 46.8284 73.08 48.5044C72.4612 48.23 73.2857 48.2057 72.8322 47.8327C72.9148 44.6276 72.688 41.5661 72.6669 38.4078C73.2015 37.7264 72.1291 36.4976 72.9634 35.7484Z" fill="#1D1C17"/>
<path d="M15.5064 45.6529C15.3039 42.2475 14.7823 38.8099 15.0107 35.3884C15.2342 35.8841 15.6263 36.3475 16.2354 36.3556C21.5748 37.9121 26.9822 39.2717 32.3038 40.8734C34.2543 41.0979 32.4804 44.3854 33.3941 45.5819C33.846 44.4225 33.0911 42.4381 33.5982 41.2642C37.41 41.1043 33.0231 48.0701 37.1249 47.3612C37.1168 47.4388 37.1006 47.5954 37.0941 47.6729C32.6165 47.4178 28.1454 46.9883 23.6678 46.7073C20.9479 46.3327 18.1696 46.4183 15.5064 45.6529ZM26.8008 40.6894C24.9638 40.4827 26.31 42.9677 26.0378 43.8768C25.6555 44.6131 28.1243 44.1884 28.4467 44.7681C28.7545 46.063 31.4615 46.126 31.6429 44.6276C32.6295 43.3294 31.5489 41.3288 30.4393 40.7636C29.2891 40.5537 27.5606 40.4423 26.8008 40.6894Z" fill="#A27323"/>
<path d="M98.4746 37.4664C98.7208 36.5396 99.6815 37.0596 99.6961 36.6882C100.629 43.2293 100.028 49.969 100.317 56.5811C100.338 57.6032 100.179 58.6156 100.129 59.6361C100.052 60.1786 100.221 60.7728 99.9601 61.2798C99.0432 60.6114 98.0567 61.0974 97.0669 60.9052C97.6452 60.2109 98.865 60.3094 99.6945 60.0688C98.507 58.9708 97.4346 60.1496 96.0528 59.9477C97.0701 59.2631 98.2932 58.8933 99.5065 58.769C98.9833 57.3465 97.4881 59.1872 96.5145 58.4622C97.4071 57.7243 98.6803 57.7614 99.7349 57.3836C98.7824 56.242 97.6241 57.7001 96.5226 57.1915C97.4994 56.5924 98.7014 56.594 99.709 56.1096C98.7273 55.3394 97.7084 56.397 96.6797 56.0483C97.6079 55.4783 98.7354 55.4686 99.743 55.1182C98.8731 54.2947 97.7035 55.3346 96.704 54.9051C97.7003 54.2947 98.8909 54.2753 100.012 54.0977C99.2295 53.5213 98.2624 53.6165 97.3925 53.9249C95.6121 53.5148 99.9828 53.1806 99.9213 52.9222C98.9428 52.0971 97.6403 53.2322 96.6797 52.567C97.1738 51.9389 101.104 52.3199 99.1437 51.5804C97.9773 51.0169 97.6484 52.0923 96.5614 51.6434C97.4184 50.9378 98.9185 51.0104 100.041 50.8506C98.9833 49.9706 97.4929 51.0137 96.5857 50.4356C97.3666 49.843 98.8051 50.0077 99.8402 49.7445C98.8197 48.8145 97.5464 49.9932 96.4885 49.2989C97.5885 48.7676 98.8618 48.8306 100.049 48.766C99.3008 48.3833 98.2106 47.6987 97.5237 48.4463C97.2224 48.4027 95.6656 48.4269 96.4173 48.1621C97.548 47.6438 98.8359 47.689 100.051 47.6341C98.8197 46.6185 97.5237 47.4953 96.1888 47.1465C97.305 46.5264 98.6496 46.6104 99.8824 46.4925C99.3753 46.1793 98.6852 46.1987 98.2332 45.8547C97.8104 44.9085 99.5341 45.6981 99.8743 45.3913C98.6755 44.6599 97.2337 45.0942 95.9134 45.0829C96.7299 44.2368 98.5637 44.5 99.7123 44.2352C98.6156 43.4376 96.8854 44.1884 95.9394 43.8235C97.0102 43.1324 98.7047 43.1114 100.02 43.2987C98.7986 42.4914 97.2888 42.7836 95.9118 42.7981C96.7688 41.8762 98.6625 42.1474 99.8905 42.1393C98.716 41.0898 97.1155 41.8858 95.8746 41.5371C97.0523 40.8008 98.5589 41.0381 99.8872 41.0236C99.3753 40.4698 98.1279 40.8654 98.0243 39.9434C97.6565 39.3056 100.135 40.36 99.6183 39.811C99.1015 39.3863 97.9935 39.6301 98.1717 38.6678C98.7451 38.7194 99.3008 38.797 99.884 38.7743C99.3705 38.4288 97.9951 38.361 98.4746 37.4664Z" fill="#222321"/>
<path d="M36.9159 39.3266C36.8041 36.6494 37.8522 39.7868 37.9284 40.6119C38.4953 41.8164 37.2285 44.5646 39.2438 44.324C39.307 44.3111 39.4333 44.282 39.4981 44.2691C39.4349 44.5969 38.9538 45.2412 39.4933 45.33C45.2312 45.1895 51.0485 45.3897 56.8982 45.2912C58.7757 45.2557 62.5243 44.0398 61.6641 47.4097C61.7062 48.569 60.0749 47.7714 59.4075 48.0539C62.0756 48.7579 64.8328 49.0551 67.5187 49.6832C68.2428 50.0642 67.0975 51.863 68.2396 51.7306C68.664 51.7403 69.1516 51.6692 69.4221 52.0632C68.4809 52.1746 67.8103 53.8458 69.2423 53.7037C68.975 54.7016 67.9723 54.0138 67.3178 53.9249C62.142 53.1644 56.9646 52.307 51.7969 51.5707C51.8374 50.8086 51.8163 50.0513 51.8957 49.2973C53.2225 49.5491 54.5638 49.6008 55.9132 49.7833C56.6374 49.977 56.1562 48.8952 56.2275 48.4754C55.3284 48.5061 53.8283 49.948 53.9725 48.146C53.4363 47.8198 51.6057 50.0271 51.7596 48.1024C50.7796 48.2816 48.7708 47.1094 48.4387 48.1573C44.7257 48.1654 41.0241 48.4625 37.3112 48.4818C37.2771 47.6034 37.2609 46.7299 37.1816 45.8596C36.8867 43.6927 36.9888 41.5032 36.9159 39.3266Z" fill="#282826"/>
<path d="M26.8008 40.6894C27.5606 40.4423 29.2891 40.5537 30.4393 40.7636C30.6709 41.9537 31.7628 43.2164 30.9123 44.3967C30.4441 45.4898 28.7982 44.3805 28.4467 44.7681C28.1243 44.1884 25.6555 44.6131 26.0378 43.8768C26.8186 44.915 28.0012 42.4704 26.8138 42.6948C26.3148 45.6642 26.263 39.0973 26.6939 42.1071C27.6513 42.627 27.3743 41.001 26.8008 40.6894ZM27.7161 43.1388C27.5492 43.4925 27.3224 43.8122 27.0811 44.119C28.0806 44.2804 30.3485 44.6809 28.8695 43.3132C29.1708 42.7933 28.6589 41.4919 28.5293 40.7394C27.1491 40.2663 27.6027 42.8837 27.7161 43.1388ZM28.8323 40.783C29.5791 41.7874 28.8922 43.4602 29.9824 44.3192C29.4397 42.9257 31.4517 40.2647 28.8323 40.783Z" fill="#201E1C"/>
<path d="M26.0378 43.8768C26.31 42.9677 24.9638 40.4827 26.8008 40.6894C27.3743 41.001 27.6513 42.627 26.6939 42.1071C26.263 39.0973 26.3148 45.6642 26.8138 42.6948C28.0012 42.4704 26.8186 44.915 26.0378 43.8768Z" fill="#9FA3A3"/>
<path d="M27.7161 43.1388C27.6027 42.8837 27.1491 40.2663 28.5293 40.7394C28.6589 41.4919 29.1708 42.7933 28.8695 43.3132C28.539 42.6657 28.1276 42.359 27.7161 43.1388Z" fill="#9CA1A0"/>
<path d="M29.9824 44.3192C29.4397 42.9257 31.4517 40.2647 28.8323 40.783C29.5791 41.7874 28.8922 43.4602 29.9824 44.3192Z" fill="#A3A8A8"/>
<path d="M30.4393 40.7636C31.5489 41.3288 32.6295 43.3294 31.6429 44.6276C31.4615 46.126 28.7545 46.063 28.4467 44.7681C28.7982 44.3805 30.4441 45.4898 30.9123 44.3967C31.7628 43.2164 30.6709 41.9537 30.4393 40.7636Z" fill="#6D2023"/>
<path d="M87.8671 41.5742C89.1549 41.3514 87.4993 41.8858 88.0615 42.6141C88.7111 45.2912 88.9605 48.1993 89.7722 50.7666C90.8673 50.6471 89.6345 51.7968 89.4935 50.8587C88.8731 47.8198 87.8217 44.5275 87.8671 41.5742Z" fill="#E29F36"/>
<path d="M27.7161 43.1388C28.1276 42.359 28.539 42.6657 28.8695 43.3132C30.3485 44.6809 28.0806 44.2804 27.0811 44.119C27.3224 43.8122 27.5492 43.4925 27.7161 43.1388Z" fill="#836B33"/>
<path d="M116.801 44.1577C117.903 43.7379 119.09 43.3278 120.284 43.5748C121.097 44.0269 123.822 43.1905 123.848 44.3305C121.606 45.5221 119.17 44.1093 116.801 44.1577Z" fill="#E4A64A"/>
<path d="M114.875 44.8068C115.546 45.2363 116.615 44.9909 116.801 44.1577C119.17 44.1093 121.606 45.5221 123.848 44.3305C123.398 45.6771 123.467 47.1303 123.427 48.5287C123.301 47.4517 123.312 46.3682 123.315 45.2896C122.662 45.4495 122.031 45.7223 121.347 45.6933C121.373 48.3026 121.305 50.9475 121.721 53.5326C120.014 54.2882 118.28 54.9842 116.583 55.7625C116.388 55.7076 116.195 55.6543 116.003 55.6042C116.074 53.3081 116.558 51.0476 116.696 48.7547C116.048 48.8678 116.609 48.0378 116.5 47.6826C116.406 46.8236 117.488 44.6131 115.867 45.2654C114.571 46.0792 113.589 47.4161 111.975 47.6293C113.817 48.2961 110.012 49.6977 110.922 47.8101C109.937 47.8295 109.69 48.4302 110.372 49.1277C108.82 50.1369 107.793 49.0987 106.924 47.8989C108.462 46.7315 111.044 46.9673 112.382 45.6497C113.245 46.0081 114.384 45.5867 114.875 44.8068Z" fill="#A0701F"/>
<path d="M80.4525 44.8375C81.6804 44.8117 83.2129 44.6227 84.3129 45.0522C84.0909 46.5717 85.7708 50.7214 82.6411 49.7784C79.9147 49.5233 77.0117 49.6525 74.4084 49.0938C75.9409 47.4161 78.4988 46.2762 80.4525 44.8375Z" fill="#1B1A16"/>
<path d="M115.867 45.2654C117.488 44.6131 116.406 46.8236 116.5 47.6826C114.324 47.534 112.808 49.5378 110.66 49.1632C110.589 49.1535 110.445 49.1358 110.372 49.1277C109.69 48.4302 109.937 47.8295 110.922 47.8101C110.012 49.6977 113.817 48.2961 111.975 47.6293C113.589 47.4161 114.571 46.0792 115.867 45.2654Z" fill="#674A17"/>
<path d="M121.347 45.6933C122.031 45.7223 122.662 45.4495 123.315 45.2896C123.312 46.3682 123.301 47.4517 123.427 48.5287C123.471 49.3069 123.492 50.0804 123.527 50.8635C124.133 52.5589 123.022 53.1628 121.721 53.5326C121.305 50.9475 121.373 48.3026 121.347 45.6933Z" fill="#EEA731"/>
<path d="M37.1816 45.8596C37.2609 46.7299 37.2771 47.6034 37.3112 48.4818C41.0241 48.4625 44.7257 48.1654 48.4387 48.1573C48.2962 50.2741 48.6833 52.2715 48.834 54.3512C48.3998 54.4433 47.9819 54.587 47.5396 54.6322C48.0613 52.3765 45.236 55.1214 45.1874 53.2032C43.9222 52.9787 41.3271 54.9713 40.6985 53.2452C39.5937 53.2355 38.1211 54.4756 37.3662 53.2161C34.9282 53.6698 32.6197 52.4524 30.1833 53.2662C29.3895 51.7096 27.4763 53.4744 26.4849 52.433C25.6442 52.2327 24.8131 52.4911 23.9918 52.6413C23.8071 50.6665 23.7925 48.6837 23.6678 46.7073C28.1454 46.9883 32.6165 47.4178 37.0941 47.6729C37.1006 47.5954 37.1168 47.4388 37.1249 47.3612C37.1589 46.8623 37.1654 46.3505 37.1816 45.8596Z" fill="#533C10"/>
<path d="M48.4387 48.1573C48.7708 47.1094 50.7796 48.2816 51.7596 48.1024C51.6057 50.0271 53.4363 47.8198 53.9725 48.146C53.8283 49.948 55.3284 48.5061 56.2275 48.4754C56.1562 48.8952 56.6374 49.977 55.9132 49.7833C54.5638 49.6008 53.2225 49.5491 51.8957 49.2973C51.8163 50.0513 51.8374 50.8086 51.7969 51.5707C51.6835 52.4669 50.2012 53.715 51.609 54.0735C52.2813 54.1785 51.7677 54.7274 51.6608 55.1182C50.9788 55.2377 51.0145 54.5095 51.0015 53.9895C50.2677 54.0347 49.5516 54.2027 48.834 54.3512C48.6833 52.2715 48.2962 50.2741 48.4387 48.1573Z" fill="#8A6522"/>
<path d="M124.924 48.3204C126.49 47.0787 128.721 48.1815 130.482 48.3301C130.223 48.548 129.93 48.7208 129.618 48.8468C128.068 48.5577 126.497 48.3769 124.924 48.3204Z" fill="#E0A348"/>
<path d="M107.785 49.8915C108.183 48.8306 106.139 49.0098 106.924 47.8989C107.793 49.0987 108.82 50.1369 110.372 49.1277C110.445 49.1358 110.589 49.1535 110.66 49.1632C111.128 49.864 111.501 50.7828 111.016 51.582C110.321 51.8307 109.622 52.0761 108.938 52.3539C107.823 52.2118 107.47 50.8183 107.785 49.8915Z" fill="#33312A"/>
<path d="M124.924 48.3204C126.497 48.3769 128.068 48.5577 129.618 48.8468C130.019 49.0292 130.352 49.3182 130.467 49.7591C129.806 49.9383 129.176 49.6961 128.857 50.476C127.508 50.6665 125.598 52.5767 124.563 51.8662C124.71 50.6875 124.814 49.5023 124.924 48.3204Z" fill="#9C6D1E"/>
<path d="M130.467 49.7591C130.741 49.667 131.004 49.4135 131.308 49.5233C131.728 53.0514 128.708 55.6785 128.685 59.1694C128.76 58.6156 128.206 58.9708 127.932 59.0661C120.819 62.7524 113.902 66.8263 106.325 69.4873C105.969 68.3974 106.48 67.3091 106.597 66.2256C107.057 65.0937 107.456 63.9102 108.117 62.8768C109.534 61.2572 110.927 59.6054 112.173 57.8502C113.412 56.7942 115.181 56.5779 116.583 55.7625C118.28 54.9842 120.014 54.2882 121.721 53.5326C123.022 53.1628 124.133 52.5589 123.527 50.8635C123.195 52.1633 123.887 53.3275 124.563 51.8662C125.598 52.5767 127.508 50.6665 128.857 50.476C129.176 49.6961 129.806 49.9383 130.467 49.7591Z" fill="#414239"/>
<path d="M111.016 51.582C111.485 51.3043 112.576 51.1832 112.711 51.5126C111.442 51.9615 113.229 52.1133 113.712 52.0035C112.879 53.2113 109.703 51.5336 108.345 53.355C108.888 54.0686 109.78 53.7635 110.339 53.2952C110.355 53.9072 110.281 54.5256 110.164 55.1279C108.674 54.4529 106.963 54.6758 105.578 55.5348C107.853 55.3814 110.189 56.8185 112.304 55.8836C112.103 56.6312 111.11 56.5391 110.777 57.206C111.131 57.3771 111.501 57.5192 111.854 57.7001C110.654 58.9934 108.849 59.4359 107.457 60.4741C107.681 61.2685 108.11 62.0291 108.117 62.8768C107.456 63.9102 107.057 65.0937 106.597 66.2256C105.118 69.4502 104.749 73.1784 105.458 76.6436C105.646 77.572 105.907 78.4892 106.225 79.3837C106.406 80.057 106.746 80.6706 107.038 81.3003C107.216 81.7347 107.423 82.1577 107.681 82.5517C109.779 85.2256 111.342 88.4647 113.911 90.7075C112.978 90.9174 112.552 89.5223 111.937 88.9878C109.73 85.4581 105.347 84.3085 102.299 81.662C102.121 80.1297 102.44 78.607 102.418 77.0779C102.646 74.8852 102.614 72.6731 102.865 70.4852C100.634 70.3205 98.2008 69.9846 96.0738 70.1558C94.0748 69.0029 89.27 68.2924 89.2862 71.6994C88.2299 70.4625 90.3456 69.9959 89.8467 68.8495C89.7219 68.2973 89.5859 67.7515 89.4644 67.2041C91.7274 67.498 94.1039 67.569 96.2504 68.3409C96.9923 68.3828 96.3881 69.7618 97.1203 69.3759C99.0578 68.8576 101.128 69.7731 103.04 69.1191C103.083 67.2009 102.968 65.2762 103.275 63.3757C103.587 62.5635 103.19 62.2018 102.375 62.2503C104.101 62.5022 103.237 61.719 102.403 61.7368C102.429 60.4095 104.582 57.8309 102.644 57.495C104.366 57.2883 104.188 54.8582 106.116 54.5821C105.254 52.9884 107.979 53.0982 108.938 52.3539C109.622 52.0761 110.321 51.8307 111.016 51.582Z" fill="#A1711E"/>
<path d="M51.609 54.0735C50.2012 53.715 51.6835 52.4669 51.7969 51.5707C56.9646 52.307 62.142 53.1644 67.3178 53.9249C67.9723 54.0138 68.975 54.7016 69.2423 53.7037C70.6225 53.8765 71.9979 54.1042 73.3522 54.4206C74.9754 55.1247 76.6472 55.7205 78.3854 56.0757C77.9189 57.6791 77.7876 59.4778 76.9874 60.9101C76.6699 60.663 77.0182 59.9962 76.955 59.6199C76.1904 59.7895 75.4905 60.2351 74.7048 60.2868C74.3517 59.4165 75.8761 58.6608 75.0742 57.9746C72.7949 57.2916 70.6161 56.1451 68.2396 55.7528C67.4863 56.2792 67.0149 57.1866 66.2373 57.7259C65.5132 57.6307 65.4143 57.0623 65.4338 56.4083C64.2188 56.3744 62.9552 57.5499 61.8731 56.5956C62.0788 53.9847 57.9495 57.9552 57.9236 55.1295C56.8382 55.1069 55.7593 55.9013 54.7047 55.5412C54.5946 53.7909 52.7365 55.165 51.6608 55.1182C51.7677 54.7274 52.2813 54.1785 51.609 54.0735Z" fill="#4B350C"/>
<path d="M113.712 52.0035C115.385 51.5078 112.928 53.3517 113.599 53.996C113.978 54.1316 114.734 54.0041 114.47 54.608C113.485 54.7662 112.593 53.3065 111.326 53.9443C112.11 54.5595 110.628 54.8792 110.164 55.1279C110.281 54.5256 110.355 53.9072 110.339 53.2952C109.78 53.7635 108.888 54.0686 108.345 53.355C109.703 51.5336 112.879 53.2113 113.712 52.0035Z" fill="#5F4A1F"/>
<path d="M69.4221 52.0632C72.5827 53.2597 76.273 53.1741 79.6198 53.912C80.5221 53.3776 82.2328 54.3157 81.175 55.2781C80.7198 54.6629 80.1317 53.7473 79.2505 54.306C77.8055 56.0257 75.2994 54.2333 73.3522 54.4206C71.9979 54.1042 70.6225 53.8765 69.2423 53.7037C67.8103 53.8458 68.4809 52.1746 69.4221 52.0632Z" fill="#4D524E"/>
<path d="M23.9918 52.6413C24.8131 52.4911 25.6442 52.2327 26.4849 52.433C27.4763 53.4744 29.3895 51.7096 30.1833 53.2662C32.6197 52.4524 34.9282 53.6698 37.3662 53.2161C38.1211 54.4756 39.5937 53.2355 40.6985 53.2452C41.3271 54.9713 43.9222 52.9787 45.1874 53.2032C45.236 55.1214 48.0613 52.3765 47.5396 54.6322C47.9819 54.587 48.3998 54.4433 48.834 54.3512C49.5516 54.2027 50.2677 54.0347 51.0015 53.9895C51.0145 54.5095 50.9788 55.2377 51.6608 55.1182C52.7365 55.165 54.5946 53.7909 54.7047 55.5412C55.7593 55.9013 56.8382 55.1069 57.9236 55.1295C57.9495 57.9552 62.0788 53.9847 61.8731 56.5956C62.9552 57.5499 64.2188 56.3744 65.4338 56.4083C65.4143 57.0623 65.5132 57.6307 66.2373 57.7259C67.3129 58.4477 68.4647 57.3674 68.1472 56.171C67.3713 58.0618 69.8676 56.5472 69.2537 58.0472C69.7721 60.1205 73.4672 57.3029 73.1254 59.5037C73.6907 59.6829 74.1767 60.0252 74.7048 60.2868C75.4905 60.2351 76.1904 59.7895 76.955 59.6199C77.0182 59.9962 76.6699 60.663 76.9874 60.9101C77.8492 61.9063 80.4395 60.7212 79.0966 62.2067C80.7295 61.6561 82.1211 62.7008 83.6714 62.9413C81.9542 63.8875 79.3849 63.894 78.3028 65.5119C76.8157 65.0501 74.7032 64.7223 74.4003 63.0721C74.4975 64.4527 73.5125 64.0151 72.56 63.8391C68.5668 62.8396 64.8052 61.2314 60.7974 60.269C55.032 58.8207 49.0494 58.1102 43.1787 56.967C42.5663 56.6731 42.4869 58.199 42.2618 57.0817C41.4129 57.2367 39.4106 55.911 39.2292 57.453C39.0526 57.1624 38.9538 56.8185 38.7221 56.5666C32.9291 56.8265 27.269 55.1311 21.4841 54.9002C21.3853 54.1558 20.0796 54.4836 20.4165 53.3227C21.5942 53.0288 22.7995 52.8657 23.9918 52.6413Z" fill="#C1872A"/>
<path d="M85.2703 53.2306C86.5403 53.8943 84.8296 56.5456 86.3978 57.3335C88.2429 57.6985 90.1593 57.9245 92.0433 58.1893C92.1746 59.2033 92.2151 60.2319 92.3868 61.2427C92.4338 61.3154 92.5261 61.4607 92.5715 61.5333C95.8438 61.6125 99.1096 61.9887 102.375 62.2503C103.19 62.2018 103.587 62.5635 103.275 63.3757C102.552 61.8692 101.162 65.4812 100.004 65.6266C96.6165 65.9043 93.1725 65.2342 89.7705 65.1454C88.4843 65.6621 89.3607 64.175 88.6641 63.9489C89.3477 63.5775 88.1911 63.5194 88.0663 63.0931C86.3475 60.3966 84.0326 57.9568 82.8679 54.9616C83.6195 54.4368 83.4235 56.6667 84.3696 56.2016C85.9555 56.0047 84.308 53.9104 85.2703 53.2306Z" fill="#916518"/>
<path d="M16.9109 54.1623C17.9752 53.5923 19.2728 53.6747 20.4165 53.3227C20.0796 54.4836 21.3853 54.1558 21.4841 54.9002C19.6017 54.7258 17.8181 55.8077 16.1463 56.481C14.886 57.0461 17.7112 56.883 15.67 57.1495C14.2202 57.9681 15.4756 59.6425 16.8396 58.8869C17.5864 59.9413 18.7739 60.3821 19.95 60.1076C20.0731 61.1216 20.3404 62.071 21.5149 62.1243C23.347 62.6975 23.5738 64.6174 23.7196 66.2127C25.4044 66.886 26.9693 65.6104 26.6226 63.7939C26.6178 64.9855 27.2269 66.5615 26.2678 67.5416C24.7613 68.2359 23.4248 70.18 21.5732 69.4178C20.7308 69.7133 20.5089 68.554 19.6438 68.659C19.3392 67.779 19.1578 67.0927 20.2902 67.3737C19.8641 66.4275 19.1724 66.8909 18.6572 67.5529C18.4742 67.0556 18.8759 66.5922 18.492 66.0835C18.6022 65.4716 19.775 67.0798 19.3684 66.0319C19.2501 64.9936 17.6043 66.5502 17.8764 65.4958C18.3413 65.2988 19.1886 65.428 18.9926 64.6868C18.1891 65.0776 17.9914 63.8456 17.2333 64.514C17.2948 65.0243 17.3175 65.5361 17.2381 66.048C16.6371 65.2116 16.5594 63.8924 17.6674 63.4597C17.9428 63.0108 17.9364 60.7761 16.9271 61.6189C16.3634 62.4569 15.4497 61.3832 14.711 61.824C14.6073 62.2826 14.5539 62.7734 14.4421 63.2385C14.5749 62.4053 13.8168 62.3019 13.4409 61.8208C14.7823 61.0005 15.1905 58.3702 14.0922 57.0671C15.4432 56.7377 17.5686 55.9352 16.9109 54.1623Z" fill="#9D6F1E"/>
<path d="M111.326 53.9443C112.593 53.3065 113.485 54.7662 114.47 54.608C114.971 54.9971 115.241 55.6736 116.003 55.6042C116.195 55.6543 116.388 55.7076 116.583 55.7625C115.181 56.5779 113.412 56.7942 112.173 57.8502C112.094 57.8131 111.933 57.7372 111.854 57.7001C111.501 57.5192 111.131 57.3771 110.777 57.206C111.11 56.5391 112.103 56.6312 112.304 55.8836C110.189 56.8185 107.853 55.3814 105.578 55.5348C106.963 54.6758 108.674 54.4529 110.164 55.1279C110.628 54.8792 112.11 54.5595 111.326 53.9443Z" fill="#DEA24A"/>
<path d="M16.1463 56.481C17.8181 55.8077 19.6017 54.7258 21.4841 54.9002C27.269 55.1311 32.9291 56.8265 38.7221 56.5666C38.9538 56.8185 39.0526 57.1624 39.2292 57.453C39.4106 55.911 41.4129 57.2367 42.2618 57.0817C42.4869 58.199 42.5663 56.6731 43.1787 56.967C49.0494 58.1102 55.032 58.8207 60.7974 60.269C64.8052 61.2314 68.5668 62.8396 72.56 63.8391C75.7692 65.2568 79.6765 65.5265 81.9639 68.5459C84.3291 70.9857 84.8604 75.0466 83.775 78.1985C83.8123 80.1652 82.0125 81.7331 80.19 81.8558C79.7608 81.8751 79.3347 81.8299 78.9103 81.7783C79.6231 81.3568 78.4891 80.4171 79.3979 80.2685C80.2127 79.6905 78.0857 79.1334 79.2116 79.1156C79.0237 78.4585 79.0042 77.4687 78.4275 77.1038C77.6289 77.3508 75.3139 77.1086 76.051 75.7959C77.2952 75.6715 78.933 76.6016 79.8661 75.3954C79.9584 73.9487 79.7365 72.5019 79.3801 71.1036C78.8925 70.3802 77.023 71.0035 76.9582 69.8361C77.2223 69.4921 77.9156 69.2386 77.7666 68.7171C72.5017 67.5464 67.1801 66.6164 61.912 65.9059C61.6755 65.7025 61.345 65.6605 61.0631 65.788C61.9881 64.6255 63.3132 65.7138 64.4893 65.5733C66.2843 64.69 68.1537 65.7751 70.0231 65.5846C70.6339 65.9479 72.7755 65.8058 71.8245 64.7627C68.8616 63.4613 65.6573 62.8106 62.5632 61.874C59.0592 60.9068 55.4499 60.3627 51.8617 59.7959C51.6349 61.3218 52.8677 61.585 53.898 60.973C54.6723 61.9386 56.1433 62.6006 57.2027 61.7077C57.7389 62.5893 59.0155 63.6324 60.0587 62.9527C60.8752 62.2438 61.4163 63.8213 61.473 64.485C57.8961 65.3198 53.6096 63.303 49.7217 64.028C45.9261 63.9247 42.1403 62.767 38.3933 62.5135C36.8527 62.6265 34.4795 62.7734 33.7877 60.9892C31.638 61.1426 28.7755 59.9816 27.2868 61.4881C25.2716 59.5909 22.5047 59.0128 19.95 60.1076C18.7739 60.3821 17.5864 59.9413 16.8396 58.8869C15.4756 59.6425 14.2202 57.9681 15.67 57.1495C17.7112 56.883 14.886 57.0461 16.1463 56.481Z" fill="#573F14"/>
<path d="M66.2373 57.7259C67.0149 57.1866 67.4863 56.2792 68.2396 55.7528C70.6161 56.1451 72.7949 57.2916 75.0742 57.9746C75.8761 58.6608 74.3517 59.4165 74.7048 60.2868C74.1767 60.0252 73.6907 59.6829 73.1254 59.5037C73.4672 57.3029 69.7721 60.1205 69.2537 58.0472C69.8676 56.5472 67.3713 58.0618 68.1472 56.171C68.4647 57.3674 67.3129 58.4477 66.2373 57.7259Z" fill="#815913"/>
<path d="M100.317 56.5811C100.692 56.5149 101.719 55.8932 101.357 56.6618C100.752 57.6064 102.199 57.4579 102.55 58.1861C103.292 60.1625 101.335 59.578 100.129 59.6361C100.179 58.6156 100.338 57.6032 100.317 56.5811Z" fill="#DD9D3C"/>
<path d="M102.55 58.1861C102.568 57.952 102.588 57.7195 102.644 57.495C104.582 57.8309 102.429 60.4095 102.403 61.7368C101.54 61.6512 100.679 61.5882 99.8143 61.564C99.8516 61.493 99.9245 61.3509 99.9601 61.2798C100.221 60.7728 100.052 60.1786 100.129 59.6361C101.335 59.578 103.292 60.1625 102.55 58.1861Z" fill="#694C17"/>
<path d="M111.854 57.7001C111.933 57.7372 112.094 57.8131 112.173 57.8502C110.927 59.6054 109.534 61.2572 108.117 62.8768C108.11 62.0291 107.681 61.2685 107.457 60.4741C108.849 59.4359 110.654 58.9934 111.854 57.7001Z" fill="#FBEED2"/>
<path d="M127.932 59.0661C128.206 58.9708 128.76 58.6156 128.685 59.1694C128.621 60.4047 128.781 61.6383 128.954 62.8606C127.091 63.14 125.41 65.0986 123.537 65.8478C117.512 69.4356 111.903 73.8615 105.458 76.6436C104.749 73.1784 105.118 69.4502 106.597 66.2256C106.48 67.3091 105.969 68.3974 106.325 69.4873C113.902 66.8263 120.819 62.7524 127.932 59.0661Z" fill="#4F5240"/>
<path d="M19.95 60.1076C22.5047 59.0128 25.2716 59.5909 27.2868 61.4881C28.7755 59.9816 31.638 61.1426 33.7877 60.9892C34.4795 62.7734 36.8527 62.6265 38.3933 62.5135C42.1403 62.767 45.9261 63.9247 49.7217 64.028C53.5092 64.5657 57.2934 65.1309 61.0631 65.788C61.2996 65.9915 61.6236 65.9866 61.912 65.9059C67.1801 66.6164 72.5017 67.5464 77.7666 68.7171C77.9156 69.2386 77.2223 69.4921 76.9582 69.8361C65.936 68.3457 54.8797 67.0911 43.8429 65.7025C40.9966 65.4926 38.1552 64.6674 35.2975 64.8983C35.176 66.8344 32.4189 66.0658 31.3027 65.428C31.0516 65.0437 31.7287 63.5872 30.8345 63.8456C30.5381 64.7014 30.6385 65.6411 30.4862 66.5292C29.545 66.2854 28.1195 66.5082 27.4375 65.9221C28.0239 64.8935 27.0098 61.1087 26.6226 63.7939C26.9693 65.6104 25.4044 66.886 23.7196 66.2127C23.5738 64.6174 23.347 62.6975 21.5149 62.1243C20.3404 62.071 20.0731 61.1216 19.95 60.1076Z" fill="#B6812A"/>
<path d="M51.8617 59.7959C55.4499 60.3627 59.0592 60.9068 62.5632 61.874C62.6426 62.9623 62.2862 64.6658 63.8576 64.6335C64.4262 64.5657 64.5671 65.5523 63.8964 65.281C63.3991 64.3865 62.1274 65.2019 61.473 64.485C61.4163 63.8213 60.8752 62.2438 60.0587 62.9527C59.0155 63.6324 57.7389 62.5893 57.2027 61.7077C56.1433 62.6006 54.6723 61.9386 53.898 60.973C52.8677 61.585 51.6349 61.3218 51.8617 59.7959Z" fill="#A1701D"/>
<path d="M92.3868 61.2427C94.8556 60.9585 97.3439 61.4768 99.8143 61.564C100.679 61.5882 101.54 61.6512 102.403 61.7368C103.237 61.719 104.101 62.5022 102.375 62.2503C99.1096 61.9887 95.8438 61.6125 92.5715 61.5333C92.5261 61.4607 92.4338 61.3154 92.3868 61.2427Z" fill="#D09944"/>
<path d="M16.9271 61.6189C17.9364 60.7761 17.9428 63.0108 17.6674 63.4597C16.5594 63.8924 16.6371 65.2116 17.2381 66.048C17.9364 68.6283 19.673 71.6138 22.7007 72.0982C23.5155 72.6117 24.3968 73.0267 25.3445 73.2269C25.9487 73.96 26.6421 74.693 27.6837 74.7237C30.9544 75.3244 34.3094 75.7183 37.5412 76.3513C40.0197 75.418 42.5582 76.5677 44.9833 77.1441C47.0196 77.0537 49.239 77.3169 51.0517 78.2082C54.2349 78.4439 57.3939 78.9284 60.4653 79.7777C61.9427 79.0721 63.1156 80.6157 64.6173 80.3864C67.9447 80.8595 71.2073 81.4973 74.538 81.4602C75.9862 81.6572 77.4556 81.7137 78.9103 81.7783C79.3347 81.8299 79.7608 81.8751 80.19 81.8558C80.9433 81.9817 80.2338 82.5711 79.832 82.6583C78.0776 83.0329 76.2827 83.0991 74.5023 83.1508C73.519 83.0668 71.486 85.3128 71.7581 83.2396C70.5934 82.1706 69.184 82.9037 67.9544 83.506C67.7649 81.3455 65.3123 82.077 64.0698 82.8859C64.1167 80.7206 61.4357 81.7444 60.3455 82.2045C60.2726 81.2567 59.0138 80.5479 58.1585 81.0839C57.4797 81.331 56.1481 82.4387 56.3571 80.8305C55.3705 79.7793 54.0162 80.8143 52.8855 81.0888C52.7737 79.0381 50.4701 79.8519 49.2957 80.4688C49.1369 78.3067 46.95 79.2351 45.7577 79.818C45.8808 77.635 43.48 78.6361 42.3363 79.1334C42.3833 76.9923 40.1153 78.1581 38.9651 78.5344C39.1595 76.4482 36.7312 77.6447 35.6944 77.9999C35.7058 76.0171 33.5706 77.1021 32.4545 77.5155C32.4691 75.5052 30.3874 76.7421 29.2389 77.0618C29.4154 75.016 27.1766 76.3335 26.1593 76.5757C26.0184 74.777 24.0404 75.4326 22.8999 75.7733C22.725 74.3378 20.5396 73.4917 19.1837 74.32C19.5774 72.8329 17.9283 72.1467 17.1766 71.1133C16.9093 70.6353 16.3326 70.863 15.8984 70.9357C16.7813 70.2704 15.8272 69.3791 15.6797 68.5734C15.2861 67.7773 15.2747 66.4807 14.1116 66.4291C13.6451 66.245 14.5215 66.2595 14.6899 66.1594C14.6737 65.1809 14.4486 64.2153 14.4421 63.2385C14.5539 62.7734 14.6073 62.2826 14.711 61.824C15.4497 61.3832 16.3634 62.4569 16.9271 61.6189Z" fill="#AE7A25"/>
<path d="M0.461774 64.7482C4.77251 63.7051 9.12859 62.8574 13.4409 61.8208C13.8168 62.3019 14.5749 62.4053 14.4421 63.2385C14.4486 64.2153 14.6737 65.1809 14.6899 66.1594C14.5215 66.2595 13.6451 66.245 14.1116 66.4291C15.2747 66.4807 15.2861 67.7773 15.6797 68.5734C15.8272 69.3791 16.7813 70.2704 15.8984 70.9357C16.3326 70.863 16.9093 70.6353 17.1766 71.1133C17.9283 72.1467 19.5774 72.8329 19.1837 74.32C20.5396 73.4917 22.725 74.3378 22.8999 75.7733C24.0404 75.4326 26.0184 74.777 26.1593 76.5757C27.1766 76.3335 29.4154 75.016 29.2389 77.0618C30.3874 76.7421 32.4691 75.5052 32.4545 77.5155C33.5706 77.1021 35.7058 76.0171 35.6944 77.9999C36.7312 77.6447 39.1595 76.4482 38.9651 78.5344C40.1153 78.1581 42.3833 76.9923 42.3363 79.1334C43.48 78.6361 45.8808 77.635 45.7577 79.818C46.95 79.2351 49.1369 78.3067 49.2957 80.4688C50.4701 79.8519 52.7737 79.0381 52.8855 81.0888C54.0162 80.8143 55.3705 79.7793 56.3571 80.8305C56.1481 82.4387 57.4797 81.331 58.1585 81.0839C59.0138 80.5479 60.2726 81.2567 60.3455 82.2045C61.4357 81.7444 64.1167 80.7206 64.0698 82.8859C65.3123 82.077 67.7649 81.3455 67.9544 83.506C69.184 82.9037 70.5934 82.1706 71.7581 83.2396C71.486 85.3128 73.519 83.0668 74.5023 83.1508C75.2232 83.5011 76.4204 83.4462 76.0705 84.6799C77.4944 84.2294 78.7693 82.8859 80.2646 83.0216C80.8445 85.1045 83.0088 82.3402 84.308 82.0495C85.246 81.3681 87.258 81.1372 86.4998 79.6178C86.7266 79.4951 86.9615 79.3869 87.1948 79.2771C87.961 78.9267 88.6641 78.4569 89.419 78.0871C90.7474 80.3735 93.2275 78.2728 94.7746 77.3427C94.8119 76.6969 93.8156 76.5903 93.4479 76.1269C96.4464 76.3222 99.3769 77.2717 102.418 77.0779C102.44 78.607 102.121 80.1297 102.299 81.662C105.347 84.3085 109.73 85.4581 111.937 88.9878C107.177 92.4271 102.594 96.2249 98.0842 100H95.3821C91.3289 97.8363 86.5614 97.3794 82.3349 95.6113C79.6652 94.1015 77.0635 92.4707 74.4246 90.9061C73.0557 90.3975 72.087 91.7813 70.8736 92.1526C67.7374 92.2188 64.6611 91.623 61.5912 90.9626C48.2816 88.7198 34.9978 85.8941 21.6704 83.598C18.3624 82.9764 15.0544 82.0867 12.0008 80.6318C10.5995 79.7212 8.52273 78.9655 8.30079 77.0973C9.9807 76.0397 12.7541 76.2173 14.1149 74.9804C12.9598 74.4137 11.1422 74.1666 9.6972 74.186C8.06266 73.9535 6.33739 73.7678 5.40915 72.1935C4.18932 71.5056 5.54523 70.5691 6.03446 69.9604C5.59059 68.8414 5.10784 67.6966 4.44851 66.7003C3.16064 66.132 1.67027 66.2369 0.343516 65.7816C-0.178113 65.633 -0.0792944 64.7918 0.461774 64.7482Z" fill="black" fill-opacity="0.17"/>
<path d="M62.5632 61.874C65.6573 62.8106 68.8616 63.4613 71.8245 64.7627C72.7755 65.8058 70.6339 65.9479 70.0231 65.5846C68.1537 65.7751 66.2843 64.69 64.4893 65.5733C63.3132 65.7138 61.9881 64.6255 61.0631 65.788C57.2934 65.1309 53.5092 64.5657 49.7217 64.028C53.6096 63.303 57.8961 65.3198 61.473 64.485C62.1274 65.2019 63.3991 64.3865 63.8964 65.281C64.5671 65.5523 64.4262 64.5657 63.8576 64.6335C62.2862 64.6658 62.6426 62.9623 62.5632 61.874Z" fill="#6E5427"/>
<path d="M26.6226 63.7939C27.0098 61.1087 28.0239 64.8935 27.4375 65.9221C28.1195 66.5082 29.545 66.2854 30.4862 66.5292C30.6385 65.6411 30.5381 64.7014 30.8345 63.8456C31.7287 63.5872 31.0516 65.0437 31.3027 65.428C32.1597 68.2876 28.7529 66.4969 27.2431 66.576C27.4861 68.8898 27.1118 71.2231 27.4213 73.5256C28.1259 73.4013 28.7982 72.9653 28.586 72.0934C29.3037 71.8447 28.646 73.0767 28.7626 73.4852C31.6413 74.6753 35.5 73.482 37.7599 75.9283C38.173 75.7264 39.2875 75.5133 38.6168 74.9578C37.4424 74.5832 36.3635 73.4901 36.3084 72.2274C37.2804 72.1257 37.5963 72.7409 37.4845 73.6451C38.5002 73.9035 40.5754 74.5057 39.5629 72.8652C41.0112 72.6601 43.1268 73.2447 44.8537 73.4013C43.7926 75.4116 48.416 75.8459 46.9775 73.8502C48.5343 73.8873 50.0716 74.1731 51.6057 74.4218C50.705 74.9756 52.0691 74.9029 52.5145 74.995C51.9962 76.6791 54.0163 75.9379 54.8894 76.2108C55.3462 75.9848 54.7258 75.3809 54.755 74.9788C56.3215 74.8868 57.8167 75.4519 59.3589 75.594C58.7287 75.6748 58.0856 75.6974 57.4733 75.8782C58.5149 76.0364 59.5614 76.1705 60.6111 76.2787C60.1721 77.7545 62.0351 77.2184 62.8386 77.5155C63.5919 77.2927 62.7009 76.6161 62.8694 76.1043C64.3128 76.1236 65.7011 76.5887 67.1315 76.7437C65.0077 76.6791 67.5802 77.8788 67.8508 76.8729C69.3006 76.4756 70.6128 77.853 69.8984 79.2271C68.9442 79.8277 68.6996 77.8352 67.6531 78.1372C66.2632 78.804 66.0137 76.8971 64.674 77.2297C64.6611 77.9644 64.593 78.7184 64.6902 79.4564C67.6564 79.7002 70.6015 80.1894 73.5774 80.3186C74.1298 80.3218 74.8069 79.8277 74.6887 79.2206C73.8009 78.9316 72.7285 78.6393 72.5681 77.5526C73.9321 77.7852 75.4435 77.6124 76.7185 78.1872C76.456 78.7378 75.5019 78.8008 75.5278 79.4693C76.4236 80.1119 77.9918 80.057 78.1214 81.4537C77.5965 81.4602 77.3729 80.3687 76.9825 81.1324C76.3313 81.8655 76.2406 79.7518 75.9004 80.7142C76.0494 81.6895 74.8069 81.1082 75.1196 80.3008C74.4424 80.2798 73.6308 81.0678 74.538 81.4602C71.2073 81.4973 67.9447 80.8595 64.6173 80.3864C63.1156 80.6157 61.9427 79.0721 60.4653 79.7777C57.3939 78.9284 54.2349 78.4439 51.0517 78.2082C49.239 77.3169 47.0196 77.0537 44.9833 77.1441C42.5582 76.5677 40.0197 75.418 37.5412 76.3513C34.3094 75.7183 30.9544 75.3244 27.6837 74.7237C26.6421 74.693 25.9487 73.96 25.3445 73.2269C25.2667 72.8232 25.2473 72.4502 25.7624 72.6957C25.244 71.6655 25.3347 70.2575 26.5837 69.7602C26.2192 68.927 25.0626 69.3775 24.8245 70.1122C24.6382 70.8695 23.3179 70.1461 24.298 70.9211C23.5512 70.9825 23.0344 71.4588 22.7007 72.0982C19.673 71.6138 17.9364 68.6283 17.2381 66.048C17.3175 65.5361 17.2948 65.0243 17.2333 64.514C17.9914 63.8456 18.1891 65.0776 18.9926 64.6868C19.1886 65.428 18.3413 65.2988 17.8764 65.4958C17.6043 66.5502 19.2501 64.9936 19.3684 66.0319C19.775 67.0798 18.6022 65.4716 18.492 66.0835C18.8759 66.5922 18.4742 67.0556 18.6572 67.5529C19.1724 66.8909 19.8641 66.4275 20.2902 67.3737C19.1578 67.0927 19.3392 67.779 19.6438 68.659C20.5089 68.554 20.7308 69.7133 21.5732 69.4178C23.4248 70.18 24.7613 68.2359 26.2678 67.5416C27.2269 66.5615 26.6178 64.9855 26.6226 63.7939Z" fill="#543D15"/>
<path d="M123.537 65.8478C125.41 65.0986 127.091 63.14 128.954 62.8606C129.051 63.6308 129.411 64.3316 129.63 65.0711C123.717 68.4006 117.948 72.0869 112.173 75.6554C110.296 76.0913 109.181 77.9159 107.357 78.4407C106.673 78.3293 106.489 78.9574 106.225 79.3837C105.907 78.4892 105.646 77.572 105.458 76.6436C111.903 73.8615 117.512 69.4356 123.537 65.8478Z" fill="#606250"/>
<path d="M100.004 65.6266C101.162 65.4812 102.552 61.8692 103.275 63.3757C102.968 65.2762 103.083 67.2009 103.04 69.1191C101.128 69.7731 99.0578 68.8576 97.1203 69.3759C96.3881 69.7618 96.9923 68.3828 96.2504 68.3409C94.1039 67.569 91.7274 67.498 89.4644 67.2041C89.3283 67.0959 89.1938 66.991 89.061 66.8876C89.3121 66.6874 89.5632 66.4872 89.7932 66.2628C89.8823 65.6976 88.1732 66.8327 87.8136 65.6314C88.0112 64.7014 87.1413 64.1265 86.8254 63.3482C87.4621 63.4661 88.055 63.7358 88.6641 63.9489C89.3607 64.175 88.4843 65.6621 89.7705 65.1454C93.1725 65.2342 96.6165 65.9043 100.004 65.6266Z" fill="#604615"/>
<path d="M83.9176 63.9634C85.5408 62.7815 86.6602 64.7514 87.8136 65.6314C88.1732 66.8327 89.8823 65.6976 89.7932 66.2628C87.3795 67.0087 85.1714 68.6816 82.5908 68.5814C81.465 67.6917 80.4201 66.668 79.4011 65.6524C80.8915 65.055 82.4483 64.6239 83.9176 63.9634Z" fill="#DD9C39"/>
<path d="M35.2975 64.8983C38.1552 64.6674 40.9966 65.4926 43.8429 65.7025C54.8797 67.0911 65.936 68.3457 76.9582 69.8361C77.023 71.0035 78.8925 70.3802 79.3801 71.1036C79.7365 72.5019 79.9584 73.9487 79.8661 75.3954C78.933 76.6016 77.2952 75.6715 76.051 75.7959C75.3139 77.1086 77.6289 77.3508 78.4275 77.1038C79.0042 77.4687 79.0237 78.4585 79.2116 79.1156C78.0857 79.1334 80.2127 79.6905 79.3979 80.2685C78.4891 80.4171 79.6231 81.3568 78.9103 81.7783C77.4556 81.7137 75.9862 81.6572 74.538 81.4602C73.6308 81.0678 74.4424 80.2798 75.1196 80.3008C74.8069 81.1082 76.0494 81.6895 75.9004 80.7142C76.2406 79.7518 76.3313 81.8655 76.9825 81.1324C77.3729 80.3687 77.5965 81.4602 78.1214 81.4537C77.9918 80.057 76.4236 80.1119 75.5278 79.4693C75.5019 78.8008 76.456 78.7378 76.7185 78.1872C75.4435 77.6124 73.9321 77.7852 72.5681 77.5526C72.7285 78.6393 73.8009 78.9316 74.6887 79.2206C74.8069 79.8277 74.1298 80.3218 73.5774 80.3186C70.6015 80.1894 67.6564 79.7002 64.6902 79.4564C64.593 78.7184 64.6611 77.9644 64.674 77.2297C66.0137 76.8971 66.2632 78.804 67.6531 78.1372C68.6996 77.8352 68.9442 79.8277 69.8984 79.2271C70.6128 77.853 69.3006 76.4756 67.8508 76.8729C67.611 76.8244 67.3713 76.7792 67.1315 76.7437C65.7011 76.5887 64.3128 76.1236 62.8694 76.1043C62.7009 76.6161 63.5919 77.2927 62.8386 77.5155C62.0351 77.2184 60.1721 77.7545 60.6111 76.2787C60.765 75.4697 59.9518 75.6086 59.3589 75.594C57.8167 75.4519 56.3215 74.8868 54.755 74.9788C54.7258 75.3809 55.3462 75.9848 54.8894 76.2108C54.0163 75.9379 51.9962 76.6791 52.5145 74.995C52.6409 74.3959 52.1096 74.3927 51.6057 74.4218C50.0716 74.1731 48.5343 73.8873 46.9775 73.8502C48.416 75.8459 43.7926 75.4116 44.8537 73.4013C43.1268 73.2447 41.0112 72.6601 39.5629 72.8652C40.5754 74.5057 38.5002 73.9035 37.4845 73.6451C37.5963 72.7409 37.2804 72.1257 36.3084 72.2274C36.3635 73.4901 37.4424 74.5832 38.6168 74.9578C39.2875 75.5133 38.173 75.7264 37.7599 75.9283C35.5 73.482 31.6413 74.6753 28.7626 73.4852C28.646 73.0767 29.3037 71.8447 28.586 72.0934C28.7982 72.9653 28.1259 73.4013 27.4213 73.5256C27.1118 71.2231 27.4861 68.8898 27.2431 66.576C28.7529 66.4969 32.1597 68.2876 31.3027 65.428C32.4189 66.0658 35.176 66.8344 35.2975 64.8983ZM32.2601 71.7236C33.4524 73.2156 31.6947 72.9475 30.4798 72.7247C30.6822 73.8017 32.6295 73.0686 33.5545 73.6903C33.6759 72.7102 33.7942 71.1633 32.2601 71.7236ZM62.7624 73.5337C61.9006 74.9062 63.3651 75.6586 64.6627 75.6231C64.7874 74.3265 64.35 73.0234 62.7624 73.5337Z" fill="#A3731D"/>
<path d="M112.173 75.6554C117.948 72.0869 123.717 68.4006 129.63 65.0711C129.845 65.5652 130.064 66.0561 130.283 66.555C123.108 71.0019 115.831 75.2808 108.685 79.7777C108.05 80.2023 106.942 80.2928 107.038 81.3003C106.746 80.6706 106.406 80.057 106.225 79.3837C106.489 78.9574 106.673 78.3293 107.357 78.4407C109.181 77.9159 110.296 76.0913 112.173 75.6554Z" fill="#717161"/>
<path d="M61.912 65.9059C61.6755 65.7025 61.345 65.6605 61.0631 65.788C61.2996 65.9915 61.6236 65.9866 61.912 65.9059Z" fill="#7E5D27"/>
<path d="M108.685 79.7777C115.831 75.2808 123.108 71.0019 130.283 66.555C130.684 67.2832 131.156 67.9646 131.639 68.646C123.529 73.0234 115.439 77.6431 107.681 82.5517C107.423 82.1577 107.216 81.7347 107.038 81.3003C106.942 80.2928 108.05 80.2023 108.685 79.7777Z" fill="#7F8177"/>
<path d="M83.3101 69.4711C85.1552 68.4652 87.1915 67.8597 89.061 66.8876C89.1938 66.991 89.3283 67.0959 89.4644 67.2041C89.5859 67.7515 89.7219 68.2973 89.8467 68.8495C90.3456 69.9959 88.2299 70.4625 89.2862 71.6994C90.1528 71.9674 90.2857 72.5197 89.3186 72.7473C87.7796 73.2156 86.2925 74.714 84.6401 73.8146C83.8463 72.5891 84.2432 70.0573 83.3101 69.4711Z" fill="#C88D2C"/>
<path d="M131.639 68.646C132.745 70.0686 133.681 71.6219 135 72.8797C128.015 78.8654 120.867 84.6831 113.911 90.7075C111.342 88.4647 109.779 85.2256 107.681 82.5517C115.439 77.6431 123.529 73.0234 131.639 68.646Z" fill="#888E8D"/>
<path d="M89.2862 71.6994C89.27 68.2924 94.0748 69.0029 96.0738 70.1558C98.2008 69.9846 100.634 70.3205 102.865 70.4852C102.614 72.6731 102.646 74.8852 102.418 77.0779C99.3769 77.2717 96.4464 76.3222 93.4479 76.1269C92.2944 75.9525 91.1507 75.6231 89.9811 75.6409C89.3882 76.3029 90.4947 76.7162 90.7944 77.2555C90.3813 77.6027 89.8985 77.8465 89.419 78.0871C88.6641 78.4569 87.961 78.9267 87.1948 79.2771C86.3767 78.2066 86.2844 76.9407 86.9745 75.7361C87.6678 74.7657 88.0679 75.7135 87.6808 76.5951C89.6345 76.629 89.0367 74.01 89.3186 72.7473C90.2857 72.5197 90.1528 71.9674 89.2862 71.6994Z" fill="#5F4412"/>
<path d="M24.8245 70.1122C25.0626 69.3775 26.2192 68.927 26.5837 69.7602C25.3347 70.2575 25.244 71.6655 25.7624 72.6957C25.2473 72.4502 25.2667 72.8232 25.3445 73.2269C24.3968 73.0267 23.5155 72.6117 22.7007 72.0982C23.0344 71.4588 23.5512 70.9825 24.298 70.9211C23.3179 70.1461 24.6382 70.8695 24.8245 70.1122Z" fill="#835C19"/>
<path d="M32.2601 71.7236C33.7942 71.1633 33.6759 72.7102 33.5545 73.6903C32.6295 73.0686 30.6822 73.8017 30.4798 72.7247C31.6947 72.9475 33.4524 73.2156 32.2601 71.7236Z" fill="#5B441B"/>
<path d="M64.6627 75.6231C64.7874 74.3265 64.35 73.0234 62.7624 73.5337C61.9006 74.9062 63.3651 75.6586 64.6627 75.6231Z" fill="#3F2D0B"/>
<path d="M9.6972 74.186C11.1422 74.1666 12.9598 74.4137 14.1149 74.9804C12.7541 76.2173 9.9807 76.0397 8.30079 77.0973C8.52273 78.9655 10.5995 79.7212 12.0008 80.6318C15.0544 82.0867 18.3624 82.9764 21.6704 83.598C34.9978 85.8941 48.2816 88.7198 61.5912 90.9626C64.6611 91.623 67.7374 92.2188 70.8736 92.1526C72.087 91.7813 73.0557 90.3975 74.4246 90.9061C77.0635 92.4707 79.6652 94.1015 82.3349 95.6113C86.5614 97.3794 91.3289 97.8363 95.3821 100L94.415 100C90.6016 98.1431 86.2439 97.5586 82.2879 95.9972C79.4189 94.4988 76.746 92.6209 73.877 91.1354C72.816 91.4389 71.9655 92.3367 70.8736 92.637C67.8167 92.5579 64.7761 92.2027 61.8245 91.3679C50.2352 89.4609 38.6865 87.0098 27.1394 84.9188C22.286 83.9985 17.3013 83.3913 12.7168 81.3875C10.7891 80.3735 7.88608 79.3078 7.81156 76.7857C9.57246 76.1576 11.4419 75.833 13.1672 75.1145C12.2422 74.3459 10.7696 74.7399 9.6972 74.186Z" fill="black" fill-opacity="0.16"/>
<path d="M52.5145 74.995C52.6409 74.3959 52.1096 74.3927 51.6057 74.4218C50.705 74.9756 52.0691 74.9029 52.5145 74.995Z" fill="#140F06"/>
<path d="M57.4733 75.8782C58.0856 75.6974 58.7287 75.6748 59.3589 75.594C59.9518 75.6086 60.765 75.4697 60.6111 76.2787C59.5614 76.1705 58.5149 76.0364 57.4733 75.8782Z" fill="#130E06"/>
<path d="M67.8508 76.8729C67.611 76.8244 67.3713 76.7792 67.1315 76.7437C65.0077 76.6791 67.5802 77.8788 67.8508 76.8729Z" fill="#140F06"/>
<path d="M81.8165 81.9252C83.0461 80.5027 85.0062 80.5979 86.4998 79.6178C87.258 81.1372 85.246 81.3681 84.308 82.0495C83.7281 81.0678 82.1664 83.4979 81.8165 81.9252Z" fill="#684C1A"/>
</svg>
