<svg width="205" height="120" viewBox="0 0 205 120" fill="none" xmlns="http://www.w3.org/2000/svg">
<path d="M172.299 0.0754052C175.779 -0.604595 177.526 3.48874 179.859 5.3554C183.219 4.1954 186.579 2.98207 190.019 2.06207C188.579 3.6754 187.126 5.2754 185.699 6.90207C188.592 6.86207 191.486 6.80873 194.392 6.7954C192.552 7.76873 190.712 8.7154 188.872 9.66207C191.192 18.5954 198.099 24.9421 203.539 31.9821C206.339 34.9821 202.539 39.1021 199.432 39.8221C190.099 41.8621 181.246 37.1154 172.126 36.3554C169.579 38.3287 167.952 41.1687 165.952 43.6354C162.912 47.6754 158.806 50.9021 156.566 55.5021C153.792 60.9287 151.446 66.9154 146.566 70.8621C143.166 73.7021 138.606 74.2354 134.459 75.2221C131.832 89.8354 130.392 105.289 134.339 119.795C131.326 119.755 128.326 119.689 125.326 119.595C122.712 107.809 122.779 95.6887 121.646 83.7287C119.979 95.6354 118.672 107.915 121.339 119.782C118.312 119.715 115.286 119.622 112.272 119.475C110.072 104.395 110.832 89.1287 110.299 73.9554C91.5523 79.7687 71.5524 78.4221 52.5657 74.5554C49.579 73.3554 47.899 76.6887 46.0057 78.3421C42.859 82.1954 38.2857 85.2087 36.6857 90.0887C34.8057 100.022 36.4057 110.315 39.8857 119.729C36.6324 119.755 33.3923 119.782 30.139 119.809C26.5123 108.035 26.4323 95.5554 24.3523 83.4621C21.2857 85.6354 17.5657 87.6754 16.4857 91.5687C13.899 100.755 14.1123 110.715 17.2723 119.742C14.0723 119.715 10.8857 119.675 7.69903 119.582C6.48569 112.169 6.47236 104.635 5.92569 97.1687C5.57902 91.5687 4.85902 85.8087 6.67235 80.3687C8.19235 74.7821 11.2323 69.0887 9.53901 63.1687C7.55234 55.7954 5.79235 48.3687 4.01901 40.9287C3.47235 52.1821 3.40567 63.5554 5.13901 74.7154C6.33901 81.0087 2.75235 86.7421 0.0190121 92.1154C-0.100988 84.3821 0.325676 76.6621 1.91234 69.0887C1.83234 55.8754 -0.167645 42.4487 2.63235 29.3554C4.53902 18.7287 14.5124 10.7954 25.0057 9.70207C41.8857 8.02207 58.6857 12.0354 75.579 11.0887C89.939 10.7821 103.859 6.28873 118.246 6.34207C129.899 6.1154 141.326 9.26207 152.992 8.7954C159.019 8.5954 164.886 7.1554 170.779 6.0354C171.246 4.0354 171.672 2.03541 172.299 0.0754052Z" fill="white"/>
</svg>
