<svg width="14" height="14" viewBox="0 0 14 14" fill="none" xmlns="http://www.w3.org/2000/svg">
<path d="M8.34656 1.30383C7.91302 1.23275 7.47366 1.18021 7.0336 1.19899C6.87006 1.21254 6.69557 1.22586 6.55254 1.31595C6.55067 1.33046 6.54718 1.3597 6.54532 1.37444C6.66902 1.38323 6.79831 1.35993 6.91689 1.40653C6.91852 1.41699 6.92178 1.43791 6.92341 1.44861C6.89219 1.46121 6.85958 1.47048 6.8265 1.47809C6.37363 1.56723 5.92191 1.66541 5.47626 1.78689C5.25332 1.85108 5.02712 1.9117 4.81932 2.0182C4.76876 2.04887 4.69282 2.08453 4.70749 2.15775C4.84354 2.26805 5.02921 2.25902 5.19205 2.28969C5.45017 2.33652 5.71994 2.42781 5.89792 2.63463C6.06076 2.82196 6.10106 3.09154 6.05587 3.33165C6.0356 3.4322 6.01906 3.54584 6.08242 3.63498C6.14998 3.7529 6.29372 3.76336 6.40787 3.80353C6.73494 3.91836 6.98631 4.19103 7.14775 4.49556C7.18199 4.55428 7.19947 4.62797 7.25794 4.66743C7.20436 4.35791 7.07157 4.06289 6.88497 3.81328C6.86121 3.78166 6.84141 3.73982 6.86191 3.70084C6.88427 3.64021 6.96115 3.62999 7.00984 3.6628C7.2803 3.80781 7.45898 4.07597 7.59899 4.3446C7.66492 4.4656 7.70662 4.59754 7.76509 4.72211C7.80074 4.80365 7.92793 4.81292 7.98012 4.7447C8.03766 4.66957 8.06165 4.56973 8.0493 4.47583C8.02671 4.303 7.87458 4.17391 7.87831 3.99467C7.87505 3.76645 8.09217 3.56628 8.31558 3.6036C8.57183 3.61882 8.74492 3.93714 8.62239 4.16702C8.55949 4.2759 8.50334 4.40189 8.54085 4.53098C8.71161 5.0806 8.89611 5.62595 9.06687 6.17558C9.18242 6.56901 8.94061 7.02212 8.55762 7.14289C8.41901 7.19876 8.2613 7.16119 8.12502 7.22253C8.04558 7.26365 8.08145 7.36707 8.12641 7.42127C8.25874 7.59409 8.39595 7.78547 8.4083 8.01249C8.41901 8.12684 8.33235 8.23382 8.22169 8.24904C7.9892 8.28731 7.76905 8.17843 7.55566 8.10164C7.42288 8.05362 7.25747 8.07716 7.16639 8.19483C7.0301 8.3679 7.00052 8.59873 6.97909 8.81268C6.96138 9.11436 6.9714 9.41913 7.01776 9.71771C7.10768 10.0508 7.02312 10.4128 6.8491 10.7021C6.78736 10.5638 6.74263 10.4102 6.63104 10.3025C6.58329 10.2538 6.50105 10.2457 6.44724 10.2892C6.3706 10.3503 6.3282 10.4437 6.28906 10.5324C6.10223 11.0055 6.01953 11.5309 6.1155 12.0358C6.18889 12.4639 6.3685 12.8678 6.60798 13.2251C6.65597 13.2946 6.7 13.3685 6.7615 13.4267C6.77431 13.4255 6.79994 13.4227 6.81275 13.4215C6.81089 13.388 6.80227 13.3557 6.79062 13.3247C6.67111 13.0169 6.57839 12.6945 6.553 12.3634C6.53879 12.1349 6.56651 11.8858 6.71165 11.7018C6.79388 11.5922 6.94042 11.5572 7.01287 11.4381C7.19038 11.1669 7.38048 10.8959 7.63347 10.6922C7.73481 10.6175 7.85432 10.5367 7.98524 10.5578C8.0507 10.6099 8.09729 10.6824 8.16345 10.7338C8.37428 10.9009 8.65803 10.9639 8.91894 10.9109C9.24509 10.8481 9.55609 10.7231 9.85684 10.5826C9.93814 10.5402 10.0264 10.5892 10.1108 10.593C10.4465 10.622 10.7831 10.5462 11.0939 10.4192C11.2148 10.3674 11.3501 10.3936 11.4747 10.3562C11.5989 10.3206 11.7254 10.2802 11.8328 10.2051C11.6781 10.2188 11.523 10.2386 11.3676 10.2262C11.28 10.2253 11.1859 10.2001 11.1043 10.2438C10.7693 10.4143 10.3775 10.5229 10.0062 10.4226C9.95375 10.4071 9.89877 10.4119 9.84915 10.4352C9.57962 10.5474 9.30263 10.6449 9.01609 10.7021C8.90171 10.7226 8.77707 10.7492 8.66665 10.6974C8.58768 10.6636 8.53573 10.5911 8.48657 10.5231C8.21331 10.1442 7.93003 9.77263 7.65979 9.39179C7.74552 9.45455 7.81448 9.5368 7.8888 9.6124C8.11267 9.84347 8.33585 10.0755 8.55762 10.3087C8.62565 10.3848 8.72559 10.4349 8.82832 10.4178C9.06431 10.3814 9.28143 10.2638 9.47036 10.1188C9.51206 10.0829 9.5675 10.0453 9.5675 9.98349C9.57403 9.9155 9.52068 9.86582 9.4841 9.81613C9.37671 9.6773 9.25021 9.54726 9.18894 9.37824C9.0685 9.08631 9.08924 8.75516 9.16961 8.45538C9.19966 8.35601 9.22832 8.23976 9.32593 8.18722C9.48014 8.09689 9.66838 8.11496 9.83611 8.14634C10.0877 8.19769 10.3419 8.24642 10.5993 8.24737C10.7544 8.2526 10.8979 8.18271 11.0405 8.12946C11.218 8.05029 11.4123 7.95829 11.5099 7.77714C11.5696 7.66042 11.5451 7.46715 11.4049 7.42626C11.1954 7.34733 10.9895 7.20803 10.9 6.99098C10.8462 6.8714 10.8513 6.73756 10.8553 6.60943C10.8621 6.35672 10.8222 6.10402 10.747 5.86368C10.705 5.72746 10.6074 5.62001 10.5541 5.48949C10.4327 5.22895 10.3982 4.92632 10.4688 4.64628C10.5212 4.44468 10.6128 4.25379 10.736 4.08762C10.7931 4.01464 10.8469 3.92763 10.8306 3.82944C10.8248 3.70511 10.7141 3.63237 10.6475 3.54084C10.4427 3.26865 10.3491 2.93012 10.2878 2.59778C10.2291 2.30442 10.0278 2.0522 9.76738 1.91859C9.45988 1.75979 9.10601 1.70107 8.76379 1.72485C8.52687 1.76264 8.29088 1.65804 8.10172 1.52088C8.15018 1.42388 8.27178 1.40558 8.35355 1.34662C8.35192 1.33592 8.34843 1.31453 8.34656 1.30383Z" fill="#FEFEFE"/>
<path d="M6.44374 4.31322C6.10945 4.23406 5.73671 4.40736 5.57713 4.71783C5.48046 4.88329 5.49769 5.10295 5.61161 5.25509C5.76676 5.46857 6.0116 5.60028 6.25994 5.66494C6.48312 5.69703 6.72074 5.69085 6.93133 5.60051C7.06039 5.54726 7.16126 5.42269 7.17501 5.27958C7.1969 5.08441 7.10861 4.89827 6.99912 4.74446C6.86004 4.55166 6.68299 4.36314 6.44374 4.31322ZM6.7848 4.77275C6.9057 4.92822 6.96301 5.12886 6.97466 5.32499L6.95905 5.33854C6.76011 5.35423 6.55953 5.36659 6.35988 5.36516C6.22569 5.3471 6.06099 5.31667 5.98551 5.18877C6.02185 5.17474 6.05913 5.16405 6.09524 5.15002C6.07916 5.07347 6.02209 5.00548 6.03443 4.9237C6.04119 4.8588 6.08382 4.80175 6.08359 4.73685C6.05424 4.71427 6.02209 4.69572 5.99227 4.67385C5.9946 4.66315 5.99972 4.64152 6.00229 4.63082C6.10875 4.59089 6.22476 4.58685 6.33682 4.58922C6.50012 4.59421 6.6774 4.63772 6.7848 4.77275Z" fill="#FEFEFE"/>
<path d="M6.53739 4.85761C6.43769 4.81768 6.31492 4.90516 6.32796 5.01666C6.32657 5.14455 6.49709 5.21539 6.58562 5.12791C6.67344 5.05469 6.64642 4.89304 6.53739 4.85761ZM6.52831 4.96245C6.54019 4.98955 6.54136 5.02022 6.52878 5.04756C6.50222 5.06444 6.4703 5.06206 6.44165 5.05065C6.4321 5.02165 6.4293 4.98932 6.44514 4.96198C6.47193 4.9489 6.50198 4.95057 6.52831 4.96245Z" fill="#FEFEFE"/>
<path d="M6.25598 6.40902C5.94568 6.38929 5.61138 6.39571 5.33788 6.56664C5.02758 6.74969 4.81885 7.09772 4.80138 7.46334C4.78763 7.72889 4.78949 7.99728 4.83073 8.26044C4.87476 8.54809 5.01989 8.82552 5.25099 9.00049C5.31203 9.04756 5.37982 9.09439 5.40847 9.17046C5.48185 9.34924 5.46158 9.55011 5.43689 9.73744C5.42431 9.84418 5.40008 9.95972 5.44365 10.0627C5.46368 10.1085 5.51982 10.1173 5.56222 10.1026C5.66077 10.0712 5.74137 10.0008 5.81615 9.93119C6.04562 9.71557 6.18632 9.4013 6.18353 9.08179C6.18097 8.95603 6.1826 8.82956 6.16466 8.70499C6.14346 8.56759 5.94428 8.51267 5.85669 8.61751C5.80031 8.67195 5.76234 8.75634 5.68243 8.77821C5.60951 8.78677 5.59437 8.6943 5.58156 8.64009C5.53916 8.34864 5.64562 8.06313 5.74976 7.79688C5.88464 7.45431 6.09314 7.14503 6.35033 6.88638C6.43349 6.7939 6.54252 6.68289 6.51503 6.54595C6.47566 6.44254 6.35009 6.42471 6.25598 6.40902Z" fill="#FEFEFE"/>
<path d="M11.8498 8.86308C11.8747 8.74612 11.7795 8.63201 11.6693 8.61347C11.6043 8.61632 11.5693 8.68526 11.5411 8.73661C11.4601 8.91348 11.4256 9.11603 11.4515 9.31001C11.4631 9.35946 11.4845 9.43743 11.5472 9.43268C11.605 9.3547 11.6113 9.25129 11.6574 9.16714C11.7086 9.05707 11.8251 8.9867 11.8498 8.86308Z" fill="#FEFEFE"/>
<path d="M10.0991 8.87782C10.0211 8.83147 9.9456 8.90397 9.89272 8.95675C9.82819 9.01713 9.8007 9.12411 9.85498 9.20066C9.94071 9.33355 10.1061 9.3673 10.2137 9.475C10.2878 9.54346 10.3372 9.63403 10.4078 9.70559C10.4276 9.73079 10.4639 9.71962 10.4875 9.70797C10.5443 9.57294 10.4844 9.42483 10.4313 9.29908C10.354 9.13718 10.2564 8.96959 10.0991 8.87782Z" fill="#FEFEFE"/>
<path d="M2.81819 0.0291372C2.79117 -0.0229253 2.71872 0.00132296 2.70171 0.0495816C2.48482 0.437553 2.44848 0.912057 2.54935 1.34211C2.64859 1.75599 2.82891 2.16155 3.13012 2.46346C3.47141 2.80722 3.95014 2.98742 4.42561 2.99692C4.55561 2.99407 4.68094 3.04851 4.77645 3.13671C4.82071 3.17641 4.83795 3.24392 4.81955 3.30098C4.79695 3.34805 4.76084 3.38704 4.73662 3.43339C4.72963 3.55986 4.79043 3.69109 4.73964 3.81447C4.71844 3.87461 4.64413 3.86891 4.6001 3.84038C4.21572 3.63261 3.79988 3.48427 3.37124 3.40748C2.92209 3.33022 2.45081 3.33426 2.01564 3.48379C1.69462 3.58982 1.399 3.77263 1.15299 4.00798C1.01298 4.14039 0.962431 4.35863 1.0244 4.54215C1.05422 4.62417 1.10291 4.69691 1.14926 4.7699C1.36405 5.10414 1.62986 5.40724 1.94552 5.64545C2.24581 5.87224 2.59338 6.03413 2.96029 6.10854C3.36238 6.18794 3.78125 6.16916 4.17751 6.06694C4.28491 6.02961 4.37832 5.94712 4.49667 5.94593C4.557 5.94023 4.6178 5.97422 4.6425 6.03104C4.68909 6.13136 4.67558 6.24689 4.66183 6.3534C4.61454 6.63178 4.57587 6.91158 4.52858 7.1902C4.46522 7.53157 4.46498 7.88127 4.47616 8.2274C4.4983 8.80532 4.59544 9.38204 4.78484 9.92786C4.89805 10.2654 5.06975 10.5776 5.19694 10.9092C5.49723 11.6592 5.74137 12.4309 5.97433 13.2049C6.02302 13.3521 6.04072 13.5244 6.16093 13.6336C6.30793 13.7767 6.5558 13.78 6.71305 13.6528C6.81229 13.5765 6.85003 13.4503 6.89545 13.3378C6.96441 13.1638 6.98188 12.9753 6.98934 12.7894C6.9926 12.667 7.08997 12.5785 7.1799 12.512C7.39911 12.357 7.65304 12.2631 7.90533 12.1803C8.0083 12.1449 8.12012 12.1295 8.21238 12.0672C8.56741 11.8335 8.91172 11.5822 9.236 11.3055C9.28003 11.2701 9.32523 11.2342 9.37811 11.2144C9.46663 11.1843 9.56354 11.1938 9.64997 11.1572C9.75876 11.1125 9.85614 11.0357 9.97402 11.0174C10.1005 10.9964 10.22 11.0566 10.3437 11.0694C10.5986 11.0994 10.8581 11.083 11.109 11.03C11.3739 10.9803 11.6343 10.8327 11.7785 10.5954C11.8396 10.502 11.8535 10.39 11.8696 10.2821C12.0404 10.294 12.2191 10.2516 12.3437 10.1254C12.4974 10.0004 12.5391 9.77191 12.4807 9.5872C12.456 9.50162 12.3882 9.43981 12.3551 9.35946C12.3693 9.11555 12.3782 8.86808 12.3274 8.62749C12.2552 8.20173 12.0432 7.79236 11.7033 7.52777C11.5677 7.42483 11.464 7.28338 11.3972 7.12577C11.126 6.50364 11.0028 5.81399 11.0484 5.13433C11.1172 5.19685 11.1754 5.27031 11.2441 5.33307C11.5125 5.57817 11.8496 5.74172 12.2034 5.80805C12.6924 5.9079 13.1998 5.83087 13.6704 5.67873C13.8456 5.62762 13.9788 5.46263 13.9961 5.27816C14.025 4.86427 13.8971 4.45229 13.6846 4.10259C13.5332 3.84514 13.3184 3.62548 13.0596 3.4807C12.7789 3.32309 12.4539 3.24868 12.1338 3.26698C11.8929 3.27887 11.6539 3.31524 11.4156 3.35185C11.0766 3.39464 10.7127 3.25058 10.5198 2.95675C10.4763 2.89755 10.538 2.8279 10.5816 2.78915C10.6927 2.70856 10.835 2.69929 10.962 2.65816C11.2693 2.56878 11.5929 2.51291 11.8726 2.34745C12.029 2.25997 12.1641 2.13968 12.2913 2.01392C12.6368 1.67516 12.9147 1.20375 12.8692 0.698815C12.8525 0.68574 12.8243 0.665532 12.8042 0.684551C12.6983 0.76514 12.6027 0.859519 12.4956 0.938682C12.1645 1.19353 11.8081 1.44005 11.396 1.52943C11.1372 1.59291 10.8698 1.63808 10.603 1.60836C10.299 1.57532 10.0048 1.48617 9.71008 1.40677C9.57705 1.37277 9.45196 1.31168 9.31707 1.28529C8.70858 1.17403 8.09473 1.08251 7.47622 1.06135C7.02055 1.04067 6.56931 1.13813 6.13437 1.26841C5.89885 1.33664 5.66822 1.42174 5.44015 1.51232C5.24889 1.58601 5.06718 1.68586 4.86777 1.73649C4.45683 1.85037 3.9965 1.89244 3.6028 1.69489C3.32488 1.55939 3.14224 1.29052 3.00922 1.01666C2.90182 0.797234 2.82984 0.557129 2.81819 0.311319C2.81237 0.217179 2.8303 0.122802 2.81819 0.0291372ZM8.34656 1.30383C8.34843 1.31453 8.35192 1.33592 8.35355 1.34662C8.27178 1.40558 8.15018 1.42388 8.10172 1.52088C8.29088 1.65804 8.52687 1.76264 8.76379 1.72485C9.10601 1.70107 9.45988 1.75979 9.76738 1.91859C10.0278 2.0522 10.2291 2.30442 10.2878 2.59778C10.3491 2.93012 10.4427 3.26865 10.6475 3.54084C10.7141 3.63237 10.8248 3.70511 10.8306 3.82944C10.8469 3.92763 10.7931 4.01464 10.736 4.08762C10.6128 4.25379 10.5212 4.44468 10.4688 4.64628C10.3982 4.92632 10.4327 5.22895 10.5541 5.48949C10.6074 5.62001 10.705 5.72746 10.747 5.86368C10.8222 6.10402 10.8621 6.35672 10.8553 6.60943C10.8513 6.73756 10.8462 6.8714 10.9 6.99098C10.9895 7.20803 11.1954 7.34733 11.4049 7.42626C11.5451 7.46715 11.5696 7.66042 11.5099 7.77714C11.4123 7.95829 11.218 8.05029 11.0405 8.12946C10.8979 8.18271 10.7544 8.2526 10.5993 8.24737C10.3419 8.24642 10.0877 8.19769 9.83611 8.14634C9.66838 8.11496 9.48014 8.09689 9.32593 8.18722C9.22832 8.23976 9.19966 8.35601 9.16961 8.45538C9.08924 8.75516 9.0685 9.08631 9.18894 9.37824C9.25021 9.54726 9.37671 9.6773 9.4841 9.81613C9.52068 9.86582 9.57403 9.9155 9.5675 9.98349C9.5675 10.0453 9.51206 10.0829 9.47036 10.1188C9.28143 10.2638 9.06431 10.3814 8.82832 10.4178C8.72559 10.4349 8.62565 10.3848 8.55762 10.3087C8.33585 10.0755 8.11267 9.84347 7.8888 9.6124C7.81448 9.5368 7.74552 9.45455 7.65979 9.39179C7.93003 9.77263 8.21331 10.1442 8.48657 10.5231C8.53573 10.5911 8.58768 10.6636 8.66665 10.6974C8.77707 10.7492 8.90171 10.7226 9.01609 10.7021C9.30263 10.6449 9.57962 10.5474 9.84915 10.4352C9.89877 10.4119 9.95375 10.4071 10.0062 10.4226C10.3775 10.5229 10.7693 10.4143 11.1043 10.2438C11.1859 10.2001 11.28 10.2253 11.3676 10.2262C11.523 10.2386 11.6781 10.2188 11.8328 10.2051C11.7254 10.2802 11.5989 10.3206 11.4747 10.3562C11.3501 10.3936 11.2148 10.3674 11.0939 10.4192C10.7831 10.5462 10.4465 10.622 10.1108 10.593C10.0264 10.5892 9.93814 10.5402 9.85684 10.5826C9.55609 10.7231 9.24509 10.8481 8.91894 10.9109C8.65803 10.9639 8.37428 10.9009 8.16345 10.7338C8.09729 10.6824 8.0507 10.6099 7.98524 10.5578C7.85432 10.5367 7.73481 10.6175 7.63347 10.6922C7.38048 10.8959 7.19038 11.1669 7.01287 11.4381C6.94042 11.5572 6.79388 11.5922 6.71165 11.7018C6.56651 11.8858 6.53879 12.1349 6.553 12.3634C6.57839 12.6945 6.67111 13.0169 6.79062 13.3247C6.80227 13.3557 6.81089 13.388 6.81275 13.4215C6.79994 13.4227 6.77431 13.4255 6.7615 13.4267C6.7 13.3685 6.65597 13.2946 6.60798 13.2251C6.3685 12.8678 6.18889 12.4639 6.1155 12.0358C6.01953 11.5309 6.10223 11.0055 6.28906 10.5324C6.3282 10.4437 6.3706 10.3503 6.44724 10.2892C6.50105 10.2457 6.58329 10.2538 6.63104 10.3025C6.74263 10.4102 6.78736 10.5638 6.8491 10.7021C7.02312 10.4128 7.10768 10.0508 7.01776 9.71771C6.9714 9.41913 6.96138 9.11436 6.97909 8.81268C7.00052 8.59873 7.0301 8.3679 7.16639 8.19483C7.25747 8.07716 7.42288 8.05362 7.55566 8.10164C7.76905 8.17843 7.9892 8.28731 8.22169 8.24904C8.33235 8.23382 8.41901 8.12684 8.4083 8.01249C8.39595 7.78547 8.25874 7.59409 8.12641 7.42127C8.08145 7.36707 8.04558 7.26365 8.12502 7.22253C8.2613 7.16119 8.41901 7.19876 8.55762 7.14289C8.94061 7.02212 9.18242 6.56901 9.06687 6.17558C8.89611 5.62595 8.71161 5.0806 8.54085 4.53098C8.50334 4.40189 8.55949 4.2759 8.62239 4.16702C8.74492 3.93714 8.57183 3.61882 8.31558 3.6036C8.09217 3.56628 7.87505 3.76645 7.87831 3.99467C7.87458 4.17391 8.02671 4.303 8.0493 4.47583C8.06165 4.56973 8.03766 4.66957 7.98012 4.7447C7.92793 4.81292 7.80074 4.80365 7.76509 4.72211C7.70662 4.59754 7.66492 4.4656 7.59899 4.3446C7.45898 4.07597 7.2803 3.80781 7.00984 3.6628C6.96115 3.62999 6.88427 3.64021 6.86191 3.70084C6.84141 3.73982 6.86121 3.78166 6.88497 3.81328C7.07157 4.06289 7.20436 4.35791 7.25794 4.66743C7.19947 4.62797 7.18199 4.55428 7.14775 4.49556C6.98631 4.19103 6.73494 3.91836 6.40787 3.80353C6.29372 3.76336 6.14998 3.7529 6.08242 3.63498C6.01906 3.54584 6.0356 3.4322 6.05587 3.33165C6.10106 3.09154 6.06076 2.82196 5.89792 2.63463C5.71994 2.42781 5.45017 2.33652 5.19205 2.28969C5.02921 2.25902 4.84354 2.26805 4.70749 2.15775C4.69282 2.08453 4.76876 2.04887 4.81932 2.0182C5.02712 1.9117 5.25332 1.85108 5.47626 1.78689C5.92191 1.66541 6.37363 1.56723 6.8265 1.47809C6.85958 1.47048 6.89219 1.46121 6.92341 1.44861C6.92178 1.43791 6.91852 1.41699 6.91689 1.40653C6.79831 1.35993 6.66902 1.38323 6.54532 1.37444C6.54718 1.3597 6.55067 1.33046 6.55254 1.31595C6.69557 1.22586 6.87006 1.21254 7.0336 1.19899C7.47366 1.18021 7.91302 1.23275 8.34656 1.30383ZM6.44374 4.31322C6.68299 4.36314 6.86004 4.55166 6.99912 4.74446C7.10861 4.89827 7.1969 5.08441 7.17501 5.27958C7.16126 5.42269 7.06039 5.54726 6.93133 5.60051C6.72074 5.69085 6.48312 5.69703 6.25994 5.66494C6.0116 5.60028 5.76676 5.46857 5.61161 5.25509C5.49769 5.10295 5.48046 4.88329 5.57713 4.71783C5.73671 4.40736 6.10945 4.23406 6.44374 4.31322ZM6.25598 6.40902C6.35009 6.42471 6.47566 6.44254 6.51503 6.54595C6.54252 6.68289 6.43349 6.7939 6.35033 6.88638C6.09314 7.14503 5.88464 7.45431 5.74976 7.79688C5.64562 8.06313 5.53916 8.34864 5.58156 8.64009C5.59437 8.6943 5.60951 8.78677 5.68243 8.77821C5.76234 8.75634 5.80031 8.67195 5.85669 8.61751C5.94428 8.51267 6.14346 8.56759 6.16466 8.70499C6.1826 8.82956 6.18097 8.95603 6.18353 9.08179C6.18632 9.4013 6.04562 9.71557 5.81615 9.93119C5.74137 10.0008 5.66077 10.0712 5.56222 10.1026C5.51982 10.1173 5.46368 10.1085 5.44365 10.0627C5.40008 9.95972 5.42431 9.84418 5.43689 9.73744C5.46158 9.55011 5.48185 9.34924 5.40847 9.17046C5.37982 9.09439 5.31203 9.04756 5.25099 9.00049C5.01989 8.82552 4.87476 8.54809 4.83073 8.26044C4.78949 7.99728 4.78763 7.72889 4.80138 7.46334C4.81885 7.09772 5.02758 6.74969 5.33788 6.56664C5.61138 6.39571 5.94568 6.38929 6.25598 6.40902ZM11.8498 8.86308C11.8251 8.9867 11.7086 9.05707 11.6574 9.16714C11.6113 9.25129 11.605 9.3547 11.5472 9.43268C11.4845 9.43743 11.4631 9.35946 11.4515 9.31001C11.4256 9.11603 11.4601 8.91348 11.5411 8.73661C11.5693 8.68526 11.6043 8.61632 11.6693 8.61347C11.7795 8.63201 11.8747 8.74612 11.8498 8.86308ZM10.0991 8.87782C10.2564 8.96959 10.354 9.13718 10.4313 9.29908C10.4844 9.42483 10.5443 9.57294 10.4875 9.70797C10.4639 9.71962 10.4276 9.73079 10.4078 9.70559C10.3372 9.63403 10.2878 9.54346 10.2137 9.475C10.1061 9.3673 9.94071 9.33355 9.85498 9.20066C9.8007 9.12411 9.82819 9.01713 9.89272 8.95675C9.9456 8.90397 10.0211 8.83147 10.0991 8.87782Z" fill="#040404"/>
<path d="M6.7848 4.77275C6.6774 4.63772 6.50012 4.59421 6.33682 4.58922C6.22476 4.58685 6.10875 4.59089 6.00229 4.63082C5.99972 4.64152 5.9946 4.66315 5.99227 4.67385C6.02209 4.69572 6.05424 4.71427 6.08359 4.73685C6.08382 4.80175 6.04119 4.8588 6.03443 4.9237C6.02209 5.00548 6.07916 5.07347 6.09524 5.15002C6.05913 5.16405 6.02185 5.17474 5.98551 5.18877C6.06099 5.31667 6.22569 5.3471 6.35988 5.36516C6.55953 5.36659 6.76011 5.35423 6.95905 5.33854L6.97466 5.32499C6.96301 5.12886 6.9057 4.92822 6.7848 4.77275ZM6.53739 4.85761C6.64642 4.89304 6.67344 5.05469 6.58562 5.12791C6.49709 5.21539 6.32657 5.14455 6.32796 5.01666C6.31492 4.90516 6.43769 4.81768 6.53739 4.85761Z" fill="#040404"/>
<path d="M6.52831 4.96245C6.50198 4.95057 6.47193 4.9489 6.44514 4.96198C6.4293 4.98932 6.4321 5.02165 6.44165 5.05065C6.4703 5.06206 6.50222 5.06444 6.52878 5.04756C6.54136 5.02022 6.54019 4.98955 6.52831 4.96245Z" fill="#3C2213"/>
</svg>
