<svg width="106" height="69" viewBox="0 0 106 69" fill="none" xmlns="http://www.w3.org/2000/svg">
<path d="M49.2237 0C49.7154 1.95498 48.8779 4.78448 49.6142 6.81969C49.3867 6.80498 49.1606 6.78626 48.9371 6.74882C49.6392 4.65611 48.9844 2.21439 49.2237 0Z" fill="#222120"/>
<path d="M46.9727 6.49342C47.0069 6.09761 47.3172 4.36995 47.3711 6.00935C47.1529 6.92934 48.4309 6.48406 48.9371 6.74882C49.1606 6.78626 49.3867 6.80498 49.6142 6.81969C51.0566 6.77155 51.6469 7.14464 52.8855 7.89346C53.0419 7.49765 52.7054 6.36237 53.2852 6.27679C53.2365 6.89056 53.1642 7.50033 53.1353 8.11811C52.9723 9.41653 52.4634 10.5759 54.0807 10.7109C53.8335 11.0519 53.5442 11.417 53.6928 11.8957C53.6218 16.3084 53.8243 20.7292 53.5363 25.1366C51.8139 25.5658 52.8263 23.4076 52.6199 22.5411C52.1492 18.4613 54.0807 13.5672 51.0986 10.1199C49.9416 8.5781 48.9989 11.5052 49.8417 12.0976C50.1257 11.5346 50.7318 11.5159 51.0829 12.0374C51.0605 12.5777 50.3965 12.4707 50.0323 12.4439C51.3248 16.4769 50.2493 20.9672 50.4018 25.1312C49.9127 25.1259 49.4328 25.1286 48.9476 25.1299C48.4309 23.1228 49.3276 20.2358 47.0661 19.1673C46.3127 19.0376 45.0334 18.5108 44.6547 19.404C44.7836 20.0231 45.2096 20.6048 45.7947 20.8522C44.9703 20.8469 44.3536 19.9162 44.4759 19.1232C44.4693 18.6498 45.3647 18.8518 45.27 18.3276C44.2931 15.9755 42.0395 14.6209 39.8175 13.6822C37.3127 12.4185 34.7199 11.2779 32.2165 10.0931C32.983 9.85111 31.8773 9.34833 31.7129 8.96322C33.2684 8.24782 35.5259 8.52194 36.3687 6.72609C39.828 5.74994 43.453 6.17383 46.9727 6.49342Z" fill="#65161C"/>
<path d="M56.6156 9.79361C56.6156 8.60217 56.4276 6.88922 56.8431 5.88232C57.5399 6.85178 56.7169 8.59816 56.9259 9.79762C56.8483 9.79629 56.6932 9.79494 56.6156 9.79361Z" fill="#2A2A2A"/>
<path d="M55.1351 9.34298C55.3389 8.62624 54.6342 6.78893 55.6558 6.67527C55.6334 7.62735 55.5414 8.57543 55.4915 9.52751C55.3679 9.47268 55.2495 9.41117 55.1351 9.34298Z" fill="#272727"/>
<path d="M53.1353 8.11811C53.8703 8.38689 54.4593 8.95385 55.1351 9.34298C55.2495 9.41117 55.3679 9.47268 55.4915 9.52751C55.8451 9.6853 56.2251 9.80965 56.6156 9.79361C56.6932 9.79494 56.8483 9.79629 56.9259 9.79762C58.8324 10.5037 60.919 10.5933 62.8913 11.0894C63.3357 11.8368 61.7579 11.5761 61.5896 12.02C63.3804 12.3115 65.2185 11.4143 66.9882 12.2661C67.263 12.3289 67.5339 12.4105 67.8021 12.5041C66.1494 12.5589 67.7298 12.6378 68.0966 12.9654C67.0829 13.3719 65.7707 12.115 64.8451 12.7929C66.3361 12.9628 67.8402 13.8894 69.3352 13.3693C70.6382 14.7345 73.064 14.5139 74.8548 14.1569C75.6332 14.197 74.8706 14.8656 74.584 15.0849C76.664 15.8404 78.9689 14.9579 80.9635 16.0985C81.4986 16.156 83.8929 16.8059 81.9982 16.8018C80.5927 17.215 79.721 15.3122 78.5324 15.8979C79.7275 17.2431 82.0876 17.2084 83.7982 17.3795C85.0775 17.7486 84.2124 16.957 83.9073 16.6895C84.7265 16.7805 85.3747 17.3675 86.1623 17.5721C85.1591 17.8636 83.7614 18.0655 83.0553 18.6779C85.7823 19.5471 88.9024 21.4981 91.7358 19.9242C91.2966 19.2864 90.4302 19.1941 89.9647 18.5817C91.7161 19.1139 93.1821 20.1636 94.3654 21.5489C93.541 22.8099 91.7187 22.8834 90.3802 22.9931C88.3948 22.3873 86.5186 21.4312 84.4964 20.9431C84.0375 20.8683 83.4327 20.6677 83.0961 21.1183L83.0356 21.0715C82.5597 20.4885 81.7721 20.419 81.1515 20.0713C81.7497 19.1981 80.4152 18.0682 79.5474 17.9331C78.2852 17.3982 76.9861 16.957 75.691 16.5157C75.1151 16.263 75.5924 17.2217 75.6779 17.4985C74.5024 16.8674 72.8918 16.6548 72.2015 15.3697C66.4492 13.7464 60.593 12.46 54.8301 10.9342C55.3876 10.4502 56.212 10.5144 56.7668 10.0383C56.0358 10.0651 55.3205 10.2536 54.6316 10.4903C54.4449 10.5585 54.2634 10.636 54.0807 10.7109C52.4634 10.5759 52.9723 9.41653 53.1353 8.11811Z" fill="#80323D"/>
<path d="M49.8417 12.0976C48.9989 11.5052 49.9416 8.5781 51.0986 10.1199C54.0807 13.5672 52.1492 18.4613 52.6199 22.5411C51.572 23.5908 53.7059 26.907 51.0684 26.1876C50.887 26.1675 50.7108 26.1234 50.5346 26.0833C50.4951 25.8734 50.4149 25.4548 50.3755 25.2462L50.4018 25.1312C50.2493 20.9672 51.3248 16.4769 50.0323 12.4439C50.3965 12.4707 51.0605 12.5777 51.0829 12.0374C50.7318 11.5159 50.1257 11.5346 49.8417 12.0976Z" fill="#605D3B"/>
<path d="M29.7236 11.2097C29.6303 9.94873 31.2751 9.91796 32.1166 10.0169C30.9319 11.6857 35.1749 12.1337 33.4104 13.2984C32.7595 13.039 32.1744 12.4479 31.4447 12.4961C30.1194 12.0749 28.8414 11.5039 27.5121 11.096C28.2497 11.1268 28.9834 11.302 29.7236 11.2097Z" fill="#844A52"/>
<path d="M32.1166 10.0169L32.2165 10.0931C34.7199 11.2779 37.3127 12.4185 39.8175 13.6822C42.0395 14.6209 44.2931 15.9755 45.27 18.3276C45.3647 18.8518 44.4693 18.6498 44.4759 19.1232C44.3536 19.9162 44.9703 20.8469 45.7947 20.8522C45.7421 21.4085 46.6559 22.7203 46.598 21.5355C47.003 22.7751 46.5914 24.119 46.9925 25.3853C45.0873 25.499 43.2544 26.1248 41.3598 26.308C36.8394 24.5442 34.1217 20.2892 30.665 17.1121C31.3264 16.866 31.9286 17.3086 32.5373 17.5065C32.4466 17.0385 32.1928 16.6227 32.1232 16.1493C32.1863 16.2068 32.3125 16.3245 32.3756 16.3833C32.5715 16.62 32.8608 16.6855 33.1513 16.6895C34.8974 19.1018 36.3503 22.0784 39.2718 23.2043C40.6669 23.6296 42.1447 23.8168 43.6015 23.782C43.0598 23.2779 42.1999 23.2993 41.7253 22.6975C42.6706 22.9636 43.5437 23.4423 44.5061 23.6616C42.8902 22.6106 40.8601 22.0517 39.7583 20.2959C38.1726 17.552 36.2438 14.8134 33.4104 13.2984C35.1749 12.1337 30.9319 11.6857 32.1166 10.0169ZM39.2245 14.562C39.0812 15.0394 39.4743 15.3911 39.8924 15.4981C40.772 15.6238 39.7675 14.3468 39.2245 14.562Z" fill="#7D262C"/>
<path d="M54.6316 10.4903C55.3205 10.2536 56.0358 10.0651 56.7668 10.0383C56.212 10.5144 55.3876 10.4502 54.8301 10.9342C60.593 12.46 66.4492 13.7464 72.2015 15.3697C72.8918 16.6548 74.5024 16.8674 75.6779 17.4985C77.0769 18.0976 78.4522 18.7555 79.8235 19.4214C80.2574 19.6541 80.7136 19.8426 81.1515 20.0713C81.7721 20.419 82.5597 20.4885 83.0356 21.0715C82.3282 22.176 81.4684 23.1696 80.7465 24.2634C80.6952 24.3182 80.594 24.4265 80.544 24.48C80.1943 24.7341 79.7959 25.2195 79.3633 24.8223C76.0842 22.5451 72.8615 20.0325 68.9618 18.9601C66.6451 18.131 64.2744 17.4651 61.9249 16.7524C60.6324 16.1052 63.8682 15.601 62.9084 15.252C62.0774 15.9648 60.639 16.1092 60.5838 15.5877C59.5779 16.406 61.0374 14.5727 60.0328 14.4698C59.24 13.8306 59.0875 15.3269 58.4827 14.4016C59.0073 14.3855 59.2597 14.3762 58.6589 14.074C57.9318 14.1208 58.2315 14.776 58.5944 15.1049C57.8529 14.9953 58.3512 14.1849 57.8976 13.8613C57.611 14.1515 57.3322 14.4497 57.0613 14.7546C56.1607 15.0729 56.4289 14.0352 56.2974 13.4682C55.8728 13.8039 56.0529 14.4912 55.6243 14.8215C55.1509 14.8362 54.7223 14.5928 54.3121 14.3855C54.6447 13.1085 53.7664 11.4878 54.6316 10.4903Z" fill="#5C1C20"/>
<path d="M19.1906 11.2873C21.8334 10.3552 24.8246 10.2095 27.5121 11.096C28.8414 11.5039 30.1194 12.0749 31.4447 12.4961C34.3623 13.8025 36.8697 16.0116 38.4343 18.8504C39.2074 20.3909 40.3316 21.7093 41.7253 22.6975C42.1999 23.2993 43.0598 23.2779 43.6015 23.782C42.1447 23.8168 40.6669 23.6296 39.2718 23.2043C36.3503 22.0784 34.8974 19.1018 33.1513 16.6895C34.2584 15.6478 32.206 15.125 31.4644 14.9231C28.2471 11.7085 23.4559 11.2873 19.1906 11.2873Z" fill="#24252C"/>
<path d="M54.0807 10.7109C54.2634 10.636 54.4449 10.5585 54.6316 10.4903C53.7664 11.4878 54.6447 13.1085 54.3121 14.3855C53.6021 16.2081 55.4336 16.8406 56.8576 16.9797C60.5298 18.1578 64.1377 19.5912 67.7403 20.9899C71.9293 22.3512 75.4912 25.035 78.8532 27.8404C78.8966 28.4461 78.6468 29.0679 78.2602 29.5212C77.0861 28.9035 75.8791 28.3712 74.6418 27.9046C73.7859 26.451 72.5171 25.2569 71.2325 24.1952C71.3456 23.0372 69.2037 23.3327 68.3228 22.6039C63.8353 20.5286 59.0494 18.9841 54.4304 17.1522C54.4186 19.527 54.4159 22.7885 54.316 25.4348C54.0583 25.3278 53.798 25.2302 53.5363 25.1366C53.8243 20.7292 53.6218 16.3084 53.6928 11.8957C53.5442 11.417 53.8335 11.0519 54.0807 10.7109Z" fill="#1B1710"/>
<path d="M62.8913 11.0894C72.0477 12.9614 81.4999 14.3882 89.9647 18.5817C90.4302 19.1941 91.2966 19.2864 91.7358 19.9242C88.9024 21.4981 85.7823 19.5471 83.0553 18.6779C83.7614 18.0655 85.1591 17.8636 86.1623 17.5721C85.3747 17.3675 84.7265 16.7805 83.9073 16.6895C84.2124 16.957 85.0775 17.7486 83.7982 17.3795C82.0876 17.2084 79.7275 17.2431 78.5324 15.8979C79.721 15.3122 80.5927 17.215 81.9982 16.8018C83.8929 16.8059 81.4986 16.156 80.9635 16.0985C78.9689 14.9579 76.664 15.8404 74.584 15.0849C74.8706 14.8656 75.6332 14.197 74.8548 14.1569C73.064 14.5139 70.6382 14.7345 69.3352 13.3693C67.8402 13.8894 66.3361 12.9628 64.8451 12.7929C65.7707 12.115 67.0829 13.3719 68.0966 12.9654C67.7298 12.6378 66.1494 12.5589 67.8021 12.5041C67.5339 12.4105 67.263 12.3289 66.9882 12.2661C65.2185 11.4143 63.3804 12.3115 61.5896 12.02C61.7579 11.5761 63.3357 11.8368 62.8913 11.0894Z" fill="#403D45"/>
<path d="M14.0694 13.6875C15.2317 12.0388 17.3893 11.7579 19.1906 11.2873C23.4559 11.2873 28.2471 11.7085 31.4644 14.9231C31.0687 15.1544 31.2304 15.4098 31.5591 15.593C31.7616 15.7615 31.9522 15.9447 32.1232 16.1493C32.1928 16.6227 32.4466 17.0385 32.5373 17.5065C31.9286 17.3086 31.3264 16.866 30.665 17.1121C27.3254 14.1127 22.6354 13.3559 18.3281 13.3813C17.3709 13.2329 16.3401 14.0914 15.4867 13.4228C14.9227 13.0403 14.5821 13.7798 14.0694 13.6875Z" fill="#6E161F"/>
<path d="M31.4447 12.4961C32.1744 12.4479 32.7595 13.039 33.4104 13.2984C36.2438 14.8134 38.1726 17.552 39.7583 20.2959C40.8601 22.0517 42.8902 22.6106 44.5061 23.6616C43.5437 23.4423 42.6706 22.9636 41.7253 22.6975C40.3316 21.7093 39.2074 20.3909 38.4343 18.8504C36.8697 16.0116 34.3623 13.8025 31.4447 12.4961Z" fill="#E5D4D6"/>
<path d="M14.0694 13.6875C14.5821 13.7798 14.9227 13.0403 15.4867 13.4228C16.3401 14.0914 17.3709 13.2329 18.3281 13.3813C22.6354 13.3559 27.3254 14.1127 30.665 17.1121C34.1217 20.2892 36.8394 24.5442 41.3598 26.308C43.2544 26.1248 45.0873 25.499 46.9925 25.3853C47.6472 25.3372 48.3007 25.2529 48.9476 25.1299C49.4328 25.1286 49.9127 25.1259 50.4018 25.1312L50.3755 25.2462C48.9318 25.9295 47.1568 25.9777 45.7947 26.4885C46.1273 28.0396 48.0141 26.423 48.9226 26.7653C49.5524 26.6998 51.167 27.5194 50.5346 26.0833C50.7108 26.1234 50.887 26.1675 51.0684 26.1876C53.7059 26.907 51.572 23.5908 52.6199 22.5411C52.8263 23.4076 51.8139 25.5658 53.5363 25.1366C53.798 25.2302 54.0583 25.3278 54.316 25.4348C54.7867 25.6715 55.2758 25.864 55.7584 26.0833C56.4079 27.2534 56.9075 28.616 57.9936 29.4383C58.8442 31.7182 59.8961 33.9621 60.4628 36.3275C60.0933 37.8774 62.013 37.1834 62.5086 36.5094C63.8695 35.445 65.1541 36.7488 66.5281 36.3155C67.0882 36.0146 65.6866 35.6041 66.39 35.3768C67.1394 34.6574 67.3682 36.2527 68.1519 35.9572C69.3365 35.6656 69.9426 37.8493 70.9222 37.0363C71.2693 36.5255 70.2332 36.3088 70.0136 35.9424C69.7033 35.6309 69.038 36.8718 69.4535 35.449C69.7349 34.866 70.0978 35.4356 70.3647 35.7151C71.0011 36.0655 71.7952 36.3917 71.9385 37.2021C73.327 37.2128 73.9528 38.4443 74.7483 39.2787C75.4083 38.8147 74.1987 37.7102 73.9568 37.0403C73.2639 37.7209 73.2823 36.4867 73.2494 36.0401C74.7956 35.8796 77.2386 34.2001 78.297 36.2045C78.6389 36.5402 79.1267 37.4762 79.6013 36.8009C79.1885 36.4827 78.3338 35.0358 79.3686 35.5239C80.0694 36.8892 81.1528 37.8493 82.1205 39.0046C82.3887 39.3978 82.3296 40.6266 83.0067 40.2281C82.5978 39.6023 82.0955 37.051 83.0067 38.5032C83.3485 39.9981 84.2466 41.1628 84.9895 42.4519C85.1275 42.2567 84.9566 40.858 85.4641 41.4851C86.0163 42.7568 85.6587 44.5459 86.6422 45.367C87.6059 44.4537 87.201 47.235 87.2523 47.6349C87.2391 47.8435 87.2365 48.0534 87.2312 48.2647C86.8341 49.1352 88.3081 48.8183 87.9307 49.6514C87.3811 51.5274 87.3864 53.3915 86.8184 55.2074C86.4173 56.2892 85.8217 57.276 85.2432 58.2656C84.3189 59.3621 83.5195 61.1485 82.0416 61.3277C81.567 62.1434 80.8951 62.7492 79.9695 62.9992C78.8111 62.3801 79.1227 60.7875 77.9012 60.2914C77.566 60.1644 77.0269 59.5105 77.708 59.5426C78.8992 60.2714 78.4377 57.8992 79.4909 58.5196C80.1364 59.0919 80.4481 60.4559 81.4434 59.5078C81.7169 58.2615 79.6657 58.0369 79.7604 56.7746C79.529 56.1341 78.6586 56.34 78.2286 55.9308C78.272 55.1218 78.1471 53.7819 79.2766 53.6924C80.7189 52.9422 81.1489 55.8653 82.39 54.8276C81.9141 53.5867 80.4783 53.3928 79.6841 52.5865C79.6013 51.1397 77.4582 52.4167 77.5462 50.7278C76.5641 49.178 78.6836 48.5829 79.7157 49.2128C80.5072 49.198 81.2343 50.9779 81.8654 49.8613C81.0476 48.8678 79.8051 48.3917 78.5863 48.1644C77.9394 46.6079 75.9277 48.2406 75.5477 46.3592C74.4683 44.4737 77.3556 44.102 78.5271 44.9444C78.8256 45.5167 80.4612 45.6826 79.5947 44.907C78.46 43.5738 76.359 44.7853 75.457 43.4722C74.7891 43.166 74.2053 43.7704 73.5821 43.6821C72.9141 43.1526 71.7084 42.4893 72.2554 41.4811C72.901 40.1265 70.9682 39.954 70.4252 40.8339C69.4062 40.9476 67.9888 40.2856 68.4608 38.9632C68.4714 37.7463 67.0632 39.0153 66.4321 38.7412C65.4302 38.2371 65.5314 39.4553 64.8766 39.5916C64.5032 38.9779 64.7859 37.991 64.164 37.5925C63.3725 37.6701 62.8255 38.558 61.9946 38.6743C61.3279 38.7653 61.8302 39.7294 61.3135 40.0369C60.873 39.4646 60.8296 38.4764 60.2616 38.1154C59.2558 38.7773 57.8726 39.9473 58.2749 41.326C57.7648 41.3394 57.6044 40.7349 57.2481 40.4622C57.3059 38.3481 56.0121 40.422 55.5401 41.0585C54.9037 41.7539 55.8635 42.7501 55.3836 43.5885C54.8012 43.3853 53.9531 42.3824 53.7598 43.531C54.0714 45.0808 52.2123 45.2252 51.2065 45.7427C50.9001 44.7305 51.5759 43.6714 51.1499 42.702C50.4702 43.5096 51.6022 46.3659 50.0126 46.8085C50.0231 43.3826 50.9185 39.7641 49.1014 36.6284C47.9891 34.6106 48.5137 31.1045 45.8525 30.4172C44.5876 29.8529 42.764 29.6991 42.3354 28.0931C41.7687 26.9418 40.3119 27.6264 39.5401 26.8415C40.0528 26.6944 40.5682 26.562 41.0823 26.4163C35.0447 24.6899 32.2915 18.0989 26.8284 15.3991C22.7104 13.8092 18.1229 13.3893 13.8353 14.3829C13.9418 14.185 13.8748 13.7557 14.0694 13.6875ZM52.6291 25.2596C52.3122 27.2119 54.5185 26.1462 55.5256 26.7532C55.1575 25.5939 53.6441 25.4629 52.6291 25.2596Z" fill="#3E3E3F"/>
<path d="M55.6243 14.8215C56.0529 14.4912 55.8728 13.8039 56.2974 13.4682C56.4289 14.0352 56.1607 15.0729 57.0613 14.7546C57.8765 15.0167 59.3386 15.9714 59.8856 14.9712C59.2453 14.6891 59.7449 14.7854 60.0328 14.4698C61.0374 14.5727 59.5779 16.406 60.5838 15.5877C60.639 16.1092 62.0774 15.9648 62.9084 15.252C63.8682 15.601 60.6324 16.1052 61.9249 16.7524C64.2744 17.4651 66.6451 18.131 68.9618 18.9601C72.8615 20.0325 76.0842 22.5451 79.3633 24.8223C79.7959 25.2195 80.1943 24.7341 80.544 24.48C80.0536 25.1633 79.5737 25.8573 79.2121 26.6209C75.6213 24.1257 72.0398 21.4232 67.7429 20.3361C64.1075 19.1058 60.4562 17.9197 56.8076 16.739C56.4039 16.5812 56.7129 16.8353 56.8576 16.9797C55.4336 16.8406 53.6021 16.2081 54.3121 14.3855C54.7223 14.5928 55.1509 14.8362 55.6243 14.8215Z" fill="#4D1915"/>
<path d="M13.8353 14.3829C18.1229 13.3893 22.7104 13.8092 26.8284 15.3991C32.2915 18.0989 35.0447 24.6899 41.0823 26.4163C40.5682 26.562 40.0528 26.6944 39.5401 26.8415C38.12 26.7305 39.4809 28.7443 38.9826 29.5533C38.7025 30.607 40.5525 31.2823 39.7938 32.1461C39.8806 33.7387 40.4052 35.2792 40.3 36.8918C40.3973 37.5752 40.1646 38.5513 40.868 38.9739C43.1269 40.1265 46.3035 39.3255 48.1955 41.0331C45.4594 40.6815 42.7929 39.6893 40.0002 39.8417C41.1139 41.3808 39.0457 44.2317 41.2427 44.8722C43.3412 45.6598 46.1536 45.1918 47.7958 46.8045C45.1109 46.5344 42.5484 45.0728 39.8096 45.5261C39.7767 47.0759 40.3776 48.837 39.7281 50.3066C38.9129 48.9386 40.0581 47.215 39.6124 45.7066C38.3738 47.223 37.3377 48.94 35.873 50.2625C35.2524 50.0124 34.5806 49.2061 35.4457 48.7046C36.5423 47.7579 34.052 46.6641 34.7673 45.5676C35.8139 45.8524 36.2767 47.2056 37.2194 47.4503C37.4534 46.6694 36.9301 45.6625 37.4245 44.8281C37.9938 43.1874 36.0676 42.5241 35.1459 41.8462C35.9493 41.0024 36.9407 42.4051 37.7348 42.8343C38.1871 43.182 38.4527 42.4318 38.17 42.1163C37.6204 41.0171 38.5263 39.3189 37.4377 38.4323C36.7014 37.8506 35.7718 37.8132 34.8816 37.8078C34.8304 36.9707 35.9453 37.2676 36.4805 37.277C36.9577 37.3679 38.2686 38.6797 37.9149 37.3104C37.1418 36.0414 37.7927 33.6933 35.8625 33.482C35.1722 32.9378 34.5201 34.2562 33.8508 33.6719C33.4288 32.9819 33.4774 31.4949 34.5858 31.7075C35.2853 32.5366 36.2661 32.9257 37.2457 33.3082C37.0432 32.2825 37.0393 31.1994 36.7263 30.2085C35.7008 29.1575 33.7351 28.5384 32.5478 29.6523C31.7142 29.1575 31.1568 27.6131 32.5597 27.5796C33.8916 28.3766 35.6456 28.4328 36.8539 29.5466C37.1221 30.0066 38.0425 30.0922 37.7072 29.3581C36.2635 27.8792 33.8995 27.7869 32.4926 26.2291C31.9588 25.281 30.2351 24.46 30.5375 26.32C29.9274 25.6755 28.6165 25.0229 29.5119 24.0655C28.8979 23.4811 28.4653 22.6695 27.779 22.1814C27.1413 22.6681 27.9315 23.8916 27.6554 24.6057C26.8915 24.6044 27.5502 23.3528 27.0151 22.965C26.4865 22.6053 26.0461 22.1867 26.334 21.5355C25.4965 21.1076 24.9403 19.9656 23.9752 19.9122C24.0317 20.5032 24.2 21.0769 24.229 21.6746C23.2968 21.5863 23.3993 19.9951 22.3698 19.9282C21.7321 19.6059 20.4554 18.1537 20.5251 19.9202C19.7073 20.55 19.3339 19.293 18.7278 18.9373C19.2353 18.5522 19.9637 18.4894 20.5633 18.2647C17.8495 16.8112 14.3363 17.7954 11.7526 15.8752C11.8368 15.0006 13.2042 14.8094 13.8353 14.3829Z" fill="#0F0F0F"/>
<path d="M57.0613 14.7546C57.3322 14.4497 57.611 14.1515 57.8976 13.8613C58.3512 14.1849 57.8529 14.9953 58.5944 15.1049C58.2315 14.776 57.9318 14.1208 58.6589 14.074C59.2597 14.3762 59.0073 14.3855 58.4827 14.4016C59.0875 15.3269 59.24 13.8306 60.0328 14.4698C59.7449 14.7854 59.2453 14.6891 59.8856 14.9712C59.3386 15.9714 57.8765 15.0167 57.0613 14.7546Z" fill="#69737A"/>
<path d="M39.8924 15.4981C40.772 15.6238 39.7675 14.3468 39.2245 14.562C39.0812 15.0394 39.4743 15.3911 39.8924 15.4981Z" fill="#DEC8C9"/>
<path d="M31.5591 15.593C31.2304 15.4098 31.0687 15.1544 31.4644 14.9231C32.206 15.125 34.2584 15.6478 33.1513 16.6895C32.8608 16.6855 32.5715 16.62 32.3756 16.3833C33.1934 15.942 32.0771 15.2748 31.5591 15.593Z" fill="#7F6D6F"/>
<path d="M31.5591 15.593C32.0771 15.2748 33.1934 15.942 32.3756 16.3833C32.3125 16.3245 32.1863 16.2068 32.1232 16.1493C31.9522 15.9447 31.7616 15.7615 31.5591 15.593Z" fill="#E9DDDE"/>
<path d="M75.6779 17.4985C75.5924 17.2217 75.1151 16.263 75.691 16.5157C76.9861 16.957 78.2852 17.3982 79.5474 17.9331C79.717 18.4105 80.1075 18.9052 79.8235 19.4214C78.4522 18.7555 77.0769 18.0976 75.6779 17.4985Z" fill="#F3E9EA"/>
<path d="M56.8576 16.9797C56.7129 16.8353 56.4039 16.5812 56.8076 16.739C60.4562 17.9197 64.1075 19.1058 67.7429 20.3361C72.0398 21.4232 75.6213 24.1257 79.2121 26.6209C79.1779 27.0501 79.0333 27.4553 78.8532 27.8404C75.4912 25.035 71.9293 22.3512 67.7403 20.9899C64.1377 19.5912 60.5298 18.1578 56.8576 16.9797Z" fill="#9D9A97"/>
<path d="M54.316 25.4348C54.4159 22.7885 54.4186 19.527 54.4304 17.1522C59.0494 18.9841 63.8353 20.5286 68.3228 22.6039C67.7587 22.2268 66.9659 22.7804 66.795 22.0637C66.2782 22.0142 65.8956 23.0826 66.1441 22.0289C65.7378 21.7227 64.8332 21.2721 64.8122 22.279C64.498 23.2765 66.0837 22.9783 66.6464 23.4022C67.5852 23.9839 68.2334 23.7111 69.0683 24.1805C69.7467 24.3784 71.009 25.4348 71.2325 24.1952C72.5171 25.2569 73.7859 26.451 74.6418 27.9046C72.2738 27.2239 69.4036 26.8722 67.3524 28.5959C66.7345 28.85 66.3164 29.6884 65.5577 29.4918C62.2786 28.3966 59.0494 27.1464 55.7584 26.0833C55.2758 25.864 54.7867 25.6715 54.316 25.4348Z" fill="#47130C"/>
<path d="M79.5474 17.9331C80.4152 18.0682 81.7497 19.1981 81.1515 20.0713C80.7136 19.8426 80.2574 19.6541 79.8235 19.4214C80.1075 18.9052 79.717 18.4105 79.5474 17.9331Z" fill="#A87A7C"/>
<path d="M16.0403 19.3492C16.9199 18.7287 17.7824 19.0443 18.7278 18.9373C19.3339 19.293 19.7073 20.55 20.5251 19.9202C20.4554 18.1537 21.7321 19.6059 22.3698 19.9282C23.3993 19.9951 23.2968 21.5863 24.229 21.6746C24.2 21.0769 24.0317 20.5032 23.9752 19.9122C24.9403 19.9656 25.4965 21.1076 26.334 21.5355C26.0461 22.1867 26.4865 22.6053 27.0151 22.965C27.5502 23.3528 26.8915 24.6044 27.6554 24.6057C27.9315 23.8916 27.1413 22.6681 27.779 22.1814C28.4653 22.6695 28.8979 23.4811 29.5119 24.0655C28.6165 25.0229 29.9274 25.6755 30.5375 26.32C30.2351 24.46 31.9588 25.281 32.4926 26.2291C33.8995 27.7869 36.2635 27.8792 37.7072 29.3581C38.0425 30.0922 37.1221 30.0066 36.8539 29.5466C35.6456 28.4328 33.8916 28.3766 32.5597 27.5796C31.1568 27.6131 31.7142 29.1575 32.5478 29.6523C33.7351 28.5384 35.7008 29.1575 36.7263 30.2085C37.0393 31.1994 37.0432 32.2825 37.2457 33.3082C36.2661 32.9257 35.2853 32.5366 34.5858 31.7075C33.4774 31.4949 33.4288 32.9819 33.8508 33.6719C34.5201 34.2562 35.1722 32.9378 35.8625 33.482C37.7927 33.6933 37.1418 36.0414 37.9149 37.3104C38.2686 38.6797 36.9577 37.3679 36.4805 37.277C36.5475 36.1417 35.0946 36.0681 35.2156 34.9783C35.0526 36.1417 34.4438 37.3786 34.2124 38.3668C33.4538 37.3197 32.4795 39.1223 33.2631 39.6318C34.5398 40.4622 34.2584 37.7864 35.4983 38.8147C35.9112 40.2348 34.7594 41.8421 34.0586 43.0349C33.25 42.7153 32.1928 42.6993 32.1836 43.8038C32.9042 45.1209 30.9043 44.2076 30.6479 43.4896C30.5598 42.5214 28.9413 42.7434 29.124 41.7552C28.6336 40.414 30.1404 39.5622 31.0844 40.3538C31.9851 40.6788 32.1679 42.1617 32.8726 42.492C34.5437 41.8649 33.1093 40.5263 32.1771 40.0396C31.5999 39.4633 30.4099 39.4686 30.2798 38.5018C30.1417 37.5457 28.4219 38.3414 28.6297 37.0978C28.5876 36.5415 28.0722 35.6068 28.8414 35.4236C30.1549 34.7777 31.4697 35.901 32.2836 36.8624C32.5268 37.3853 33.3196 37.1967 33.3223 36.6431C32.2783 35.437 30.8281 34.7376 29.4081 34.1693C29.1543 32.7586 27.4253 33.8751 27.1374 32.6182C26.8257 32.0271 26.4418 31.0577 27.3056 30.7916C28.798 30.3209 30.1969 31.3612 31.425 32.1274C31.8247 32.5018 32.0903 31.5925 31.6314 31.5003C30.4468 30.4305 28.9742 29.9384 27.4661 29.5827C26.9612 28.973 26.1973 28.9382 25.5451 29.2859C24.8851 28.6841 23.7898 27.6719 24.4959 26.7278C25.2085 25.9335 23.9594 24.9467 23.2507 25.6019C22.6459 26.336 22.0503 25.3171 21.5099 24.9601C20.6895 24.4533 21.8741 23.0532 20.9275 22.6333C20.1399 22.6828 19.5745 23.7085 18.7698 23.2257C17.1355 23.4276 18.6817 20.9525 17.2959 21.0033C16.6319 21.72 15.4657 21.2908 15.1146 22.2977C13.9681 22.6253 15.0568 20.0298 13.7762 20.4885C13.2331 21.3924 11.9814 21.581 11.8526 22.731C11.1938 22.4729 11.3109 21.3175 10.6863 20.8575C12.3404 20.074 14.1995 18.8451 16.0403 19.3492Z" fill="#363738"/>
<path d="M44.6547 19.404C45.0334 18.5108 46.3127 19.0376 47.0661 19.1673C49.3276 20.2358 48.4309 23.1228 48.9476 25.1299C48.3007 25.2529 47.6472 25.3372 46.9925 25.3853C46.5914 24.119 47.003 22.7751 46.598 21.5355C46.4166 21.2213 46.2167 20.8134 45.7947 20.8522C45.2096 20.6048 44.7836 20.0231 44.6547 19.404Z" fill="#371719"/>
<path d="M13.7762 20.4885C15.0568 20.0298 13.9681 22.6253 15.1146 22.2977C15.4657 21.2908 16.6319 21.72 17.2959 21.0033C18.6817 20.9525 17.1355 23.4276 18.7698 23.2257C19.5745 23.7085 20.1399 22.6828 20.9275 22.6333C21.8741 23.0532 20.6895 24.4533 21.5099 24.9601C22.0503 25.3171 22.6459 26.336 23.2507 25.6019C23.9594 24.9467 25.2085 25.9335 24.4959 26.7278C23.7898 27.6719 24.8851 28.6841 25.5451 29.2859C26.1973 28.9382 26.9612 28.973 27.4661 29.5827C28.9742 29.9384 30.4468 30.4305 31.6314 31.5003C32.0903 31.5925 31.8247 32.5018 31.425 32.1274C30.1969 31.3612 28.798 30.3209 27.3056 30.7916C26.4418 31.0577 26.8257 32.0271 27.1374 32.6182C27.4253 33.8751 29.1543 32.7586 29.4081 34.1693C30.8281 34.7376 32.2783 35.437 33.3223 36.6431C33.3196 37.1967 32.5268 37.3853 32.2836 36.8624C31.4697 35.901 30.1549 34.7777 28.8414 35.4236C28.0722 35.6068 28.5876 36.5415 28.6297 37.0978C28.4219 38.3414 30.1417 37.5457 30.2798 38.5018C30.4099 39.4686 31.5999 39.4633 32.1771 40.0396C33.1093 40.5263 34.5437 41.8649 32.8726 42.492C32.1679 42.1617 31.9851 40.6788 31.0844 40.3538C30.1404 39.5622 28.6336 40.414 29.124 41.7552C28.9413 42.7434 30.5598 42.5214 30.6479 43.4896C30.9043 44.2076 32.9042 45.1209 32.1836 43.8038C32.1928 42.6993 33.25 42.7153 34.0586 43.0349C34.7594 41.8421 35.9112 40.2348 35.4983 38.8147C34.2584 37.7864 34.5398 40.4622 33.2631 39.6318C32.4795 39.1223 33.4538 37.3197 34.2124 38.3668C34.4438 37.3786 35.0526 36.1417 35.2156 34.9783C35.0946 36.0681 36.5475 36.1417 36.4805 37.277C35.9453 37.2676 34.8304 36.9707 34.8816 37.8078C35.7718 37.8132 36.7014 37.8506 37.4377 38.4323C38.5263 39.3189 37.6204 41.0171 38.17 42.1163C38.4527 42.4318 38.1871 43.182 37.7348 42.8343C36.9407 42.4051 35.9493 41.0024 35.1459 41.8462C36.0676 42.5241 37.9938 43.1874 37.4245 44.8281C36.9301 45.6625 37.4534 46.6694 37.2194 47.4503C36.2767 47.2056 35.8139 45.8524 34.7673 45.5676C34.052 46.6641 36.5423 47.7579 35.4457 48.7046C34.5806 49.2061 35.2524 50.0124 35.873 50.2625C34.0888 51.4044 32.252 53.0291 30.0313 52.9917C28.2826 53.9585 26.5246 55.519 24.4341 55.4254C23.5466 54.3917 23.1166 56.6596 22.0464 55.9897C21.4389 54.8932 19.8099 55.1579 19.088 56.0204C18.0809 56.0993 18.2452 54.4653 17.0238 54.7862C16.2414 54.2192 15.8575 55.6299 15.158 55.0937C14.9463 54.0494 14.1246 53.3942 13.0885 53.0946C12.7269 53.4396 12.1865 53.8074 11.8394 53.2484C11.9906 52.0222 10.9519 51.2801 10.28 50.439C9.84484 50.6181 9.21504 51.0955 8.96654 50.4082C8.95996 49.412 9.19926 48.3262 8.25128 47.5479C7.99883 46.6199 6.73923 47.6616 6.6564 46.6106C6.77342 45.6277 6.96012 44.5941 6.26853 43.7316C6.1686 43.0911 5.58876 43.2061 5.08913 43.1486C4.2437 42.0481 5.82938 40.9716 5.07204 39.8176C5.09439 39.1169 4.40806 39.0768 3.95444 38.804C3.17212 37.4615 5.64267 35.6737 3.92815 34.6895C2.58572 33.482 4.99315 32.1889 4.68943 30.9654C3.02881 29.7633 5.18774 28.279 5.76232 27.1638C4.80908 25.8573 6.53149 24.7261 7.43214 23.9491C7.52813 22.4568 9.48458 21.6585 10.6863 20.8575C11.3109 21.3175 11.1938 22.4729 11.8526 22.731C11.9814 21.581 13.2331 21.3924 13.7762 20.4885ZM7.98568 31.6032C7.80555 31.6915 7.62411 31.7798 7.44792 31.8774C7.2152 33.7682 6.56699 35.6389 6.86677 37.5658C6.3987 38.4457 7.66881 39.9005 7.00483 40.9369C7.83711 44.1247 9.87508 46.8526 12.0669 49.0175C13.2515 50.5179 15.3802 51.2252 17.0829 51.8216C17.5957 50.7946 18.6226 52.8499 18.7054 51.5996C19.4141 50.8201 20.6001 51.3014 21.2141 50.4109C21.8702 50.3708 22.4645 48.829 21.4468 49.3224C22.0963 48.6618 23.1403 48.1243 23.3165 47.1923C21.1128 48.3516 18.2308 49.4882 15.8628 47.9518C14.402 47.5359 14.4493 45.5863 13.0306 45.2186C11.8723 43.9308 11.0965 42.1684 10.6876 40.4849C11.7408 41.687 10.7613 39.8631 10.4405 39.2921C9.44645 38.6075 10.8757 38.0913 11.3753 37.7182C10.635 37.6754 9.66339 38.5165 9.19663 37.5992C8.65361 37.2623 8.99415 38.5607 8.50109 37.9242C7.9515 36.5535 7.98174 34.8406 8.19079 33.2854C8.44587 32.7693 8.92315 31.5952 7.98568 31.6032ZM16.2704 33.6064C15.2645 33.7909 14.3481 34.7216 14.6347 35.8261C14.9371 38.3587 15.6116 41.3955 18.1755 42.5268C19.2287 43.2836 20.2792 42.0828 20.629 41.1281C21.7847 38.1622 19.7822 33.3483 16.2704 33.6064Z" fill="#090909"/>
<path d="M46.598 21.5355C46.4166 21.2213 46.2167 20.8134 45.7947 20.8522C45.7421 21.4085 46.6559 22.7203 46.598 21.5355Z" fill="#A58D8E"/>
<path d="M83.0961 21.1183C83.4327 20.6677 84.0375 20.8683 84.4964 20.9431C86.5186 21.4312 88.3948 22.3873 90.3802 22.9931C91.7187 22.8834 93.541 22.8099 94.3654 21.5489C96.5678 23.0038 98.6794 24.6806 100.266 26.8268C101.551 29.5613 101.88 32.8161 100.913 35.675C102.303 35.8341 101.589 38.1836 101.827 39.1477C102.573 40.5705 101.497 42.1002 101.561 43.5564C102.062 43.6955 102.559 43.9335 103.087 43.9857C102.921 42.7956 104.972 43.3157 105.052 44.0699C104.317 44.8709 106.07 44.9859 105.739 45.8363C104.087 47.4998 101.533 46.3445 99.5932 46.6828C99.2211 48.0935 101.143 49.2916 102.445 49.2248C103.823 49.8359 104.679 48.2794 105.616 47.5854C107.027 49.4909 104.219 51.5007 102.505 51.4659C102.444 51.252 102.39 51.038 102.291 50.8428C100.539 50.7639 98.8384 50.2999 97.0989 50.1047C96.7426 50.0298 96.1168 49.983 96.1667 49.4735C96.4284 47.9317 96.4192 46.2683 97.2646 44.9043C97.7971 44.1341 100.06 43.9215 99.1474 42.8196C96.6519 42.6298 95.9182 45.7668 94.9939 47.6295C94.798 48.619 93.2044 48.591 92.8481 47.8649C94.1156 45.6893 93.8934 43.0055 95.174 40.8312C95.7434 39.6117 94.8033 40.307 94.6613 40.9944C94.2261 41.7566 93.8566 42.5789 93.2689 43.2355C93.5568 41.4116 94.4956 39.7173 94.4364 37.8212C95.4488 37.0242 94.919 36.3677 94.0117 35.9826C94.9847 36.004 95.9984 36.2112 96.9582 35.9518C94.8887 35.4062 92.4616 34.3846 91.1034 32.5353C91.2401 31.7209 91.7805 30.7247 91.0074 29.9745C88.8235 27.2373 86.0321 25.1981 83.5129 22.8486C86.9867 24.0748 89.5427 27.0046 92.6167 28.8954C89.8872 25.7811 86.3937 23.5426 83.0961 21.1183ZM93.9644 29.8515C93.5608 30.0414 93.2899 30.4024 93.2623 30.8598C94.3483 30.5883 94.6297 31.9242 94.7507 32.7091C95.4357 33.014 96.5152 34.3512 97.1699 33.2547C96.811 32.542 98.0298 31.8801 96.9228 31.4695C95.8301 32.4764 95.1096 30.4412 93.9644 29.8515ZM100.537 32.3989C99.3867 32.7907 98.6294 33.7722 97.73 34.3418C96.0129 34.7229 98.6596 34.8459 98.7648 33.9313C99.0475 33.47 101.548 32.4604 100.537 32.3989Z" fill="#3F4040"/>
<path d="M83.0356 21.0715L83.0961 21.1183C86.3937 23.5426 89.8872 25.7811 92.6167 28.8954C89.5427 27.0046 86.9867 24.0748 83.5129 22.8486C86.0321 25.1981 88.8235 27.2373 91.0074 29.9745C91.7805 30.7247 91.2401 31.7209 91.1034 32.5353C92.4616 34.3846 94.8887 35.4062 96.9582 35.9518C95.9984 36.2112 94.9847 36.004 94.0117 35.9826C94.919 36.3677 95.4488 37.0242 94.4364 37.8212C94.4956 39.7173 93.5568 41.4116 93.2689 43.2355C93.8566 42.5789 94.2261 41.7566 94.6613 40.9944C94.8033 40.307 95.7434 39.6117 95.174 40.8312C93.8934 43.0055 94.1156 45.6893 92.8481 47.8649C93.2044 48.591 94.798 48.619 94.9939 47.6295C95.9182 45.7668 96.6519 42.6298 99.1474 42.8196C100.06 43.9215 97.7971 44.1341 97.2646 44.9043C96.1917 44.9565 95.7946 46.9743 95.533 47.8756C96.1838 48.8945 94.535 49.8051 93.6462 49.3679C92.6312 49.1272 91.1875 50.0833 90.6984 48.738C89.5427 48.5789 88.4001 48.3101 87.2312 48.2647C87.2365 48.0534 87.2391 47.8435 87.2523 47.6349C87.439 47.6549 87.8124 47.695 87.9978 47.7164C87.936 45.2868 87.8636 42.837 87.439 40.4301C86.9748 39.1704 87.7006 40.0637 87.6743 40.4381C88.0017 41.786 88.0622 44.1555 90.0791 43.6487C90.7681 43.9014 90.9443 43.2489 90.5814 42.6819C90.1488 40.5491 90.0568 38.2705 91.3624 36.4586C92.0908 34.6627 88.8221 34.3218 88.429 33.0715C89.5861 33.4646 90.7484 35.3126 92.267 34.7938C88.312 31.4227 84.4477 27.9046 80.7465 24.2634C81.4684 23.1696 82.3282 22.176 83.0356 21.0715Z" fill="#2D2E2E"/>
<path d="M38.9826 29.5533C39.4809 28.7443 38.12 26.7305 39.5401 26.8415C40.3119 27.6264 41.7687 26.9418 42.3354 28.0931C42.764 29.6991 44.5876 29.8529 45.8525 30.4172C48.5137 31.1045 47.9891 34.6106 49.1014 36.6284C50.9185 39.7641 50.0231 43.3826 50.0126 46.8085C51.6022 46.3659 50.4702 43.5096 51.1499 42.702C51.5759 43.6714 50.9001 44.7305 51.2065 45.7427C52.2123 45.2252 54.0714 45.0808 53.7598 43.531C53.9531 42.3824 54.8012 43.3853 55.3836 43.5885C55.8635 42.7501 54.9037 41.7539 55.5401 41.0585C56.0121 40.422 57.3059 38.3481 57.2481 40.4622C55.3587 40.5437 55.4599 43.1446 56.1962 44.3948C55.4586 44.4162 55.1036 43.3946 54.3778 43.4641C53.9978 44.7358 53.372 46.0008 54.2082 47.3407C52.8434 47.7044 53.0222 46.4247 53.3023 45.589C51.05 46.0958 49.3289 48.127 47.9825 49.9482C47.2081 50.5112 48.0036 51.8845 47.095 52.1893C44.706 51.3723 42.0014 51.3335 39.7281 50.3066C40.3776 48.837 39.7767 47.0759 39.8096 45.5261C42.5484 45.0728 45.1109 46.5344 47.7958 46.8045C46.1536 45.1918 43.3412 45.6598 41.2427 44.8722C39.0457 44.2317 41.1139 41.3808 40.0002 39.8417C42.7929 39.6893 45.4594 40.6815 48.1955 41.0331C46.3035 39.3255 43.1269 40.1265 40.868 38.9739C40.1646 38.5513 40.3973 37.5752 40.3 36.8918C40.4052 35.2792 39.8806 33.7387 39.7938 32.1461C40.5525 31.2823 38.7025 30.607 38.9826 29.5533Z" fill="#2D2E2E"/>
<path d="M64.8122 22.279C64.8332 21.2721 65.7378 21.7227 66.1441 22.0289C65.8956 23.0826 66.2782 22.0142 66.795 22.0637C66.9659 22.7804 67.7587 22.2268 68.3228 22.6039C69.2037 23.3327 71.3456 23.0372 71.2325 24.1952C71.009 25.4348 69.7467 24.3784 69.0683 24.1805C68.2334 23.7111 67.5852 23.9839 66.6464 23.4022C66.0837 22.9783 64.498 23.2765 64.8122 22.279Z" fill="#463936"/>
<path d="M80.544 24.48C80.594 24.4265 80.6952 24.3182 80.7465 24.2634C84.4477 27.9046 88.312 31.4227 92.267 34.7938C90.7484 35.3126 89.5861 33.4646 88.429 33.0715C88.8221 34.3218 92.0908 34.6627 91.3624 36.4586C90.0568 38.2705 90.1488 40.5491 90.5814 42.6819C90.9443 43.2489 90.7681 43.9014 90.0791 43.6487C88.0622 44.1555 88.0017 41.786 87.6743 40.4381C87.7006 40.0637 86.9748 39.1704 87.439 40.4301C87.8636 42.837 87.936 45.2868 87.9978 47.7164C87.8124 47.695 87.439 47.6549 87.2523 47.6349C87.201 47.235 87.6059 44.4537 86.6422 45.367C85.6587 44.5459 86.0163 42.7568 85.4641 41.4851C84.9566 40.858 85.1275 42.2567 84.9895 42.4519C84.2466 41.1628 83.3485 39.9981 83.0067 38.5032C82.0955 37.051 82.5978 39.6023 83.0067 40.2281C82.3296 40.6266 82.3887 39.3978 82.1205 39.0046C81.1528 37.8493 80.0694 36.8892 79.3686 35.5239C78.3338 35.0358 79.1885 36.4827 79.6013 36.8009C79.1267 37.4762 78.6389 36.5402 78.297 36.2045C77.2386 34.2001 74.7956 35.8796 73.2494 36.0401C73.2823 36.4867 73.2639 37.7209 73.9568 37.0403C74.1987 37.7102 75.4083 38.8147 74.7483 39.2787C73.9528 38.4443 73.327 37.2128 71.9385 37.2021C71.7952 36.3917 71.0011 36.0655 70.3647 35.7151C70.0978 35.4356 69.7349 34.866 69.4535 35.449C69.038 36.8718 69.7033 35.6309 70.0136 35.9424C70.2332 36.3088 71.2693 36.5255 70.9222 37.0363C69.9426 37.8493 69.3365 35.6656 68.1519 35.9572C67.3682 36.2527 67.1394 34.6574 66.39 35.3768C65.6866 35.6041 67.0882 36.0146 66.5281 36.3155C65.1541 36.7488 63.8695 35.445 62.5086 36.5094C62.013 37.1834 60.0933 37.8774 60.4628 36.3275C59.8961 33.9621 58.8442 31.7182 57.9936 29.4383C56.9075 28.616 56.4079 27.2534 55.7584 26.0833C59.0494 27.1464 62.2786 28.3966 65.5577 29.4918C66.3164 29.6884 66.7345 28.85 67.3524 28.5959C69.4036 26.8722 72.2738 27.2239 74.6418 27.9046C75.8791 28.3712 77.0861 28.9035 78.2602 29.5212C78.6468 29.0679 78.8966 28.4461 78.8532 27.8404C79.0333 27.4553 79.1779 27.0501 79.2121 26.6209C79.5737 25.8573 80.0536 25.1633 80.544 24.48ZM73.0443 30.4292C71.2575 30.5081 69.3628 30.5001 67.7193 31.2676C69.8506 31.3305 73.7727 31.0817 74.0304 33.9915C75.4162 34.8072 77.2675 34.1907 78.6336 33.5154C78.0919 31.0082 75.2453 30.4733 73.0443 30.4292Z" fill="#0F0F0F"/>
<path d="M45.7947 26.4885C47.1568 25.9777 48.9318 25.9295 50.3755 25.2462C50.4149 25.4548 50.4951 25.8734 50.5346 26.0833C51.167 27.5194 49.5524 26.6998 48.9226 26.7653C48.0141 26.423 46.1273 28.0396 45.7947 26.4885Z" fill="#0B0C0D"/>
<path d="M55.5256 26.7532C55.1575 25.5939 53.6441 25.4629 52.6291 25.2596C52.3122 27.2119 54.5185 26.1462 55.5256 26.7532Z" fill="#131310"/>
<path d="M93.9644 29.8515C95.1096 30.4412 95.8301 32.4764 96.9228 31.4695C98.0298 31.8801 96.811 32.542 97.1699 33.2547C96.5152 34.3512 95.4357 33.014 94.7507 32.7091C94.6297 31.9242 94.3483 30.5883 93.2623 30.8598C93.2899 30.4024 93.5608 30.0414 93.9644 29.8515Z" fill="#686A68"/>
<path d="M73.0443 30.4292C75.2453 30.4733 78.0919 31.0082 78.6336 33.5154C77.2675 34.1907 75.4162 34.8072 74.0304 33.9915C73.7727 31.0817 69.8506 31.3305 67.7193 31.2676C69.3628 30.5001 71.2575 30.5081 73.0443 30.4292Z" fill="#444748"/>
<path d="M7.98568 31.6032C8.92315 31.5952 8.44587 32.7693 8.19079 33.2854C7.98174 34.8406 7.9515 36.5535 8.50109 37.9242C8.99415 38.5607 8.65361 37.2623 9.19663 37.5992C9.66339 38.5165 10.635 37.6754 11.3753 37.7182C10.8757 38.0913 9.44645 38.6075 10.4405 39.2921C10.7613 39.8631 11.7408 41.687 10.6876 40.4849C11.0965 42.1684 11.8723 43.9308 13.0306 45.2186C14.4493 45.5863 14.402 47.5359 15.8628 47.9518C18.2308 49.4882 21.1128 48.3516 23.3165 47.1923C23.1403 48.1243 22.0963 48.6618 21.4468 49.3224C22.4645 48.829 21.8702 50.3708 21.2141 50.4109C20.6001 51.3014 19.4141 50.8201 18.7054 51.5996C18.6226 52.8499 17.5957 50.7946 17.0829 51.8216C15.3802 51.2252 13.2515 50.5179 12.0669 49.0175C9.87508 46.8526 7.83711 44.1247 7.00483 40.9369C7.66881 39.9005 6.3987 38.4457 6.86677 37.5658C6.56699 35.6389 7.2152 33.7682 7.44792 31.8774C7.62411 31.7798 7.80555 31.6915 7.98568 31.6032Z" fill="#2C2C2C"/>
<path d="M100.537 32.3989C101.548 32.4604 99.0475 33.47 98.7648 33.9313C98.6596 34.8459 96.0129 34.7229 97.73 34.3418C98.6294 33.7722 99.3867 32.7907 100.537 32.3989Z" fill="#748495"/>
<path d="M16.2704 33.6064C19.7822 33.3483 21.7847 38.1622 20.629 41.1281C20.2792 42.0828 19.2287 43.2836 18.1755 42.5268C15.6116 41.3955 14.9371 38.3587 14.6347 35.8261C14.3481 34.7216 15.2645 33.7909 16.2704 33.6064Z" fill="#181914"/>
<path d="M61.9946 38.6743C62.8255 38.558 63.3725 37.6701 64.164 37.5925C64.7859 37.991 64.5032 38.9779 64.8766 39.5916C65.5314 39.4553 65.4302 38.2371 66.4321 38.7412C67.0632 39.0153 68.4714 37.7463 68.4608 38.9632C67.9888 40.2856 69.4062 40.9476 70.4252 40.8339C70.9682 39.954 72.901 40.1265 72.2554 41.4811C71.7084 42.4893 72.9141 43.1526 73.5821 43.6821C74.2053 43.7704 74.7891 43.166 75.457 43.4722C76.359 44.7853 78.46 43.5738 79.5947 44.907C80.4612 45.6826 78.8256 45.5167 78.5271 44.9444C77.3556 44.102 74.4683 44.4737 75.5477 46.3592C75.9277 48.2406 77.9394 46.6079 78.5863 48.1644C79.8051 48.3917 81.0476 48.8678 81.8654 49.8613C81.2343 50.9779 80.5072 49.198 79.7157 49.2128C78.6836 48.5829 76.5641 49.178 77.5462 50.7278C77.4582 52.4167 79.6013 51.1397 79.6841 52.5865C80.4783 53.3928 81.9141 53.5867 82.39 54.8276C81.1489 55.8653 80.7189 52.9422 79.2766 53.6924C78.1471 53.7819 78.272 55.1218 78.2286 55.9308C78.6586 56.34 79.529 56.1341 79.7604 56.7746C79.6657 58.0369 81.7169 58.2615 81.4434 59.5078C80.4481 60.4559 80.1364 59.0919 79.4909 58.5196C78.4377 57.8992 78.8992 60.2714 77.708 59.5426C77.0269 59.5105 77.566 60.1644 77.9012 60.2914C79.1227 60.7875 78.8111 62.3801 79.9695 62.9992C79.3738 63.4766 78.9123 64.7055 78.0156 64.5076C77.2977 65.691 75.9632 66.4518 74.7523 66.8009C73.4874 65.6362 73.9515 68.0097 72.6591 67.7342C71.8767 67.1231 70.6868 67.1204 69.8624 67.5163C69.8611 68.7064 68.6028 68.3079 68.2294 67.551C66.9383 66.3181 65.8273 68.2009 64.6623 67.5898C64.352 66.5575 63.2121 66.1724 62.3167 66.0173C60.5483 67.6593 60.9282 64.3485 59.5017 64.0182C58.9021 63.0701 57.912 64.7028 57.4939 63.51C57.3519 62.3052 57.1297 59.7699 55.3258 60.3797C54.3199 59.3099 55.4494 57.5929 54.4133 56.4804C52.5502 56.8588 53.2352 54.4011 53.4785 53.3982C54.0662 52.291 52.6173 52.4153 52.353 51.6103C50.691 52.3391 48.8779 52.8767 47.095 52.1893C48.0036 51.8845 47.2081 50.5112 47.9825 49.9482C49.3289 48.127 51.05 46.0958 53.3023 45.589C53.0222 46.4247 52.8434 47.7044 54.2082 47.3407C53.372 46.0008 53.9978 44.7358 54.3778 43.4641C55.1036 43.3946 55.4586 44.4162 56.1962 44.3948C55.4599 43.1446 55.3587 40.5437 57.2481 40.4622C57.6044 40.7349 57.7648 41.3394 58.2749 41.326C57.8726 39.9473 59.2558 38.7773 60.2616 38.1154C60.8296 38.4764 60.873 39.4646 61.3135 40.0369C61.8302 39.7294 61.3279 38.7653 61.9946 38.6743ZM65.3171 44.451C65.0712 44.5499 64.4598 45.0955 64.7005 44.5112C63.7577 44.3962 62.4363 44.5179 62.0787 45.5916C62.7085 45.2506 63.3449 44.8936 64.0536 44.7599C63.7643 45.1878 63.5119 45.6411 63.2331 46.077C62.8886 47.1107 61.345 46.41 61.3253 47.6161C61.4673 49.0095 62.009 50.3868 62.9097 51.4659C63.4382 51.6424 64.1114 50.4991 64.3639 51.4552C64.5703 52.3979 66.1047 54.6217 64.5545 54.1042C64.6702 55.4641 65.872 57.0942 67.2118 57.6464C68.9565 58.8686 70.9853 57.3068 72.8813 57.7494C73.0075 56.7131 70.9353 57.8296 70.7749 56.8187C71.4678 56.9511 72.166 57.0514 72.8747 57.0861C73.5479 55.9268 73.7425 54.5629 73.7898 53.239C73.5163 52.8539 73.231 53.4262 72.8905 53.3714C73.7372 52.426 73.352 51.1089 72.7077 50.1809C72.4316 49.8747 73.0141 49.2809 72.4066 49.2729C71.6177 48.5241 71.6992 47.0625 70.2529 47.449C69.5166 46.767 68.2912 48.6137 68.1453 47.338C68.4503 46.6748 69.7809 46.8593 69.8454 46.0169C68.8119 45.3697 67.4011 44.0271 66.1652 44.8642C65.6655 44.808 65.6629 44.2812 65.3171 44.451ZM57.2822 49.0991C56.8694 49.3585 56.7116 49.8145 56.7511 50.3119C55.8583 56.2932 60.1117 63.5983 66.4189 63.4846C66.8489 63.141 68.211 63.3175 67.7732 62.5553C66.6267 62.5259 65.4381 62.241 64.4493 61.6393C67.1789 62.015 70.4081 61.8359 71.8412 58.9555C70.3463 59.7071 68.9657 59.0023 67.3682 58.8258C64.8714 57.8657 63.2358 55.4909 62.2273 53.0799C61.8092 51.2653 60.0683 53.092 58.9087 52.3298C58.3959 52.6467 58.1408 53.5051 57.9975 54.1336C57.6149 53.81 58.0317 53.0585 57.5886 52.7175C56.8102 51.6611 58.3998 49.7048 57.2822 49.0991Z" fill="#080808"/>
<path d="M6.26853 43.7316C6.96012 44.5941 6.77342 45.6277 6.6564 46.6106C6.73923 47.6616 7.99883 46.6199 8.25128 47.5479C9.19926 48.3262 8.95996 49.412 8.96654 50.4082C9.21504 51.0955 9.84484 50.6181 10.28 50.439C10.9519 51.2801 11.9906 52.0222 11.8394 53.2484C12.1865 53.8074 12.7269 53.4396 13.0885 53.0946C14.1246 53.3942 14.9463 54.0494 15.158 55.0937C15.8575 55.6299 16.2414 54.2192 17.0238 54.7862C18.2452 54.4653 18.0809 56.0993 19.088 56.0204C19.8099 55.1579 21.4389 54.8932 22.0464 55.9897C23.1166 56.6596 23.5466 54.3917 24.4341 55.4254C26.5246 55.519 28.2826 53.9585 30.0313 52.9917C32.252 53.0291 34.0888 51.4044 35.873 50.2625C37.3377 48.94 38.3738 47.223 39.6124 45.7066C40.0581 47.215 38.9129 48.9386 39.7281 50.3066C42.0014 51.3335 44.706 51.3723 47.095 52.1893C48.8779 52.8767 50.691 52.3391 52.353 51.6103C52.6173 52.4153 54.0662 52.291 53.4785 53.3982C53.2352 54.4011 52.5502 56.8588 54.4133 56.4804C55.4494 57.5929 54.3199 59.3099 55.3258 60.3797C57.1297 59.7699 57.3519 62.3052 57.4939 63.51C57.912 64.7028 58.9021 63.0701 59.5017 64.0182C60.9282 64.3485 60.5483 67.6593 62.3167 66.0173C63.2121 66.1724 64.352 66.5575 64.6623 67.5898C65.8273 68.2009 66.9383 66.3181 68.2294 67.551C68.6028 68.3079 69.8611 68.7064 69.8624 67.5163C70.6868 67.1204 71.8767 67.1231 72.6591 67.7342C73.9515 68.0097 73.4874 65.6362 74.7523 66.8009C73.8569 67.9014 72.4395 68.1768 71.2522 68.808C70.2595 69.5448 69.2037 67.8519 68.4109 68.8561C67.2381 69.3322 66.0902 67.6166 64.8609 68.1862C63.4527 68.6408 62.4666 66.9399 61.0479 67.1405C59.1874 67.3652 57.8358 65.1588 55.9385 65.6322C54.5067 65.0759 53.489 63.4552 51.7587 63.5943C50.5543 63.0313 49.6984 61.7276 48.2192 61.7102C47.7301 61.6259 47.3185 61.2956 47.1029 60.845C46.6006 59.7605 44.8874 60.2312 44.4627 59.112C44.2405 58.0864 42.789 58.3953 42.6023 57.2694C40.3132 56.6449 37.932 56.3306 35.6705 55.6193C34.7304 55.17 34.2308 54.0026 33.3183 53.6108C31.7892 54.6805 29.6763 54.3583 28.3075 55.7543C26.5483 56.7037 24.3973 57.7561 22.4079 57.2279C21.6546 57.8992 20.6066 57.6197 19.8112 57.1758C19.0275 56.7091 18.2124 57.7213 17.4853 57.1356C16.6333 56.4216 15.4644 56.4216 14.4599 56.4617C13.3173 55.1004 11.3687 55.9683 10.2985 54.6819C9.54637 53.9665 8.44456 54.2567 7.64252 53.7793C7.38481 52.7202 6.15414 52.3819 5.20747 52.3766C4.64472 51.7187 4.22135 50.784 3.20237 50.7893C2.21099 50.8736 2.69222 49.3585 1.70347 49.3839C0.521449 49.3304 1.38397 47.7004 0.0809849 47.58C-0.429165 45.7173 1.58251 44.8843 2.98937 44.4483C4.04648 44.0151 5.24034 44.2103 6.26853 43.7316Z" fill="black"/>
<path d="M65.3171 44.451C65.6629 44.2812 65.6655 44.808 66.1652 44.8642C67.4011 44.0271 68.8119 45.3697 69.8454 46.0169C69.7809 46.8593 68.4503 46.6748 68.1453 47.338C68.2912 48.6137 69.5166 46.767 70.2529 47.449C71.6992 47.0625 71.6177 48.5241 72.4066 49.2729C73.0141 49.2809 72.4316 49.8747 72.7077 50.1809C73.352 51.1089 73.7372 52.426 72.8905 53.3714C73.231 53.4262 73.5163 52.8539 73.7898 53.239C73.7425 54.5629 73.5479 55.9268 72.8747 57.0861C72.166 57.0514 71.4678 56.9511 70.7749 56.8187C70.9353 57.8296 73.0075 56.7131 72.8813 57.7494C70.9853 57.3068 68.9565 58.8686 67.2118 57.6464C65.872 57.0942 64.6702 55.4641 64.5545 54.1042C66.1047 54.6217 64.5703 52.3979 64.3639 51.4552C64.1114 50.4991 63.4382 51.6424 62.9097 51.4659C62.009 50.3868 61.4673 49.0095 61.3253 47.6161C61.345 46.41 62.8886 47.1107 63.2331 46.077C63.5119 45.6411 63.7643 45.1878 64.0536 44.7599C63.3449 44.8936 62.7085 45.2506 62.0787 45.5916C62.4363 44.5179 63.7577 44.3962 64.7005 44.5112C64.4598 45.0955 65.0712 44.5499 65.3171 44.451Z" fill="#151714"/>
<path d="M95.533 47.8756C95.7946 46.9743 96.1917 44.9565 97.2646 44.9043C96.4192 46.2683 96.4284 47.9317 96.1667 49.4735C96.1168 49.983 96.7426 50.0298 97.0989 50.1047C98.8384 50.2999 100.539 50.7639 102.291 50.8428C102.39 51.038 102.444 51.252 102.505 51.4659C100.287 51.597 98.0496 50.9712 95.8762 50.919C95.3016 51.8189 94.1419 51.4031 93.8947 52.5317C93.0782 52.7817 92.1184 54.1831 91.2362 53.4089C90.7286 53.0345 91.2993 54.2633 90.7444 54.2593C89.8201 54.6485 88.7117 54.3208 87.8492 54.3944C87.7335 54.9119 87.2128 54.9908 86.8184 55.2074C87.3864 53.3915 87.3811 51.5274 87.9307 49.6514C88.3081 48.8183 86.8341 49.1352 87.2312 48.2647C88.4001 48.3101 89.5427 48.5789 90.6984 48.738C91.1875 50.0833 92.6312 49.1272 93.6462 49.3679C94.535 49.8051 96.1838 48.8945 95.533 47.8756Z" fill="#1D1D1A"/>
<path d="M99.5932 46.6828C101.533 46.3445 104.087 47.4998 105.739 45.8363C105.672 46.4167 105.632 46.997 105.616 47.5854C104.679 48.2794 103.823 49.8359 102.445 49.2248C101.143 49.2916 99.2211 48.0935 99.5932 46.6828Z" fill="#1B1C16"/>
<path d="M57.2822 49.0991C58.3998 49.7048 56.8102 51.6611 57.5886 52.7175C58.0317 53.0585 57.6149 53.81 57.9975 54.1336C58.1408 53.5051 58.3959 52.6467 58.9087 52.3298C60.0683 53.092 61.8092 51.2653 62.2273 53.0799C63.2358 55.4909 64.8714 57.8657 67.3682 58.8258C68.9657 59.0023 70.3463 59.7071 71.8412 58.9555C70.4081 61.8359 67.1789 62.015 64.4493 61.6393C65.4381 62.241 66.6267 62.5259 67.7732 62.5553C68.211 63.3175 66.8489 63.141 66.4189 63.4846C60.1117 63.5983 55.8583 56.2932 56.7511 50.3119C56.7116 49.8145 56.8694 49.3585 57.2822 49.0991Z" fill="#303131"/>
<path d="M87.8492 54.3944C88.7117 54.3208 89.8201 54.6485 90.7444 54.2593C90.8627 54.9079 89.8425 54.7568 89.7281 55.2007C90.8115 55.7476 92.2722 55.8345 93.0874 56.8695C93.5384 57.7146 92.3314 58.1372 91.8029 58.5477C89.6426 58.9114 87.3969 58.6266 85.2432 58.2656C85.8217 57.276 86.4173 56.2892 86.8184 55.2074C87.2128 54.9908 87.7335 54.9119 87.8492 54.3944Z" fill="black"/>
</svg>
