<svg width="17" height="14" viewBox="0 0 17 14" fill="none" xmlns="http://www.w3.org/2000/svg">
<path d="M10.8252 0.0110252C11.0592 -0.0285879 11.2926 0.0536388 11.5272 0.0230287C11.8307 -0.00938208 12.1259 0.0890503 12.4085 0.188683C12.3461 0.260107 12.2837 0.330932 12.2213 0.402955C12.4643 0.38675 12.718 0.345936 12.9526 0.437166C13.3522 0.591417 13.7907 0.59682 14.1879 0.758273C14.4674 0.865709 14.7542 0.953339 15.0326 1.06258C15.1862 1.1232 15.3649 1.25644 15.311 1.4455C15.1538 1.65917 14.8712 1.7408 14.6156 1.7264C14.1861 1.70359 13.7709 1.57214 13.3426 1.53793C13.4781 1.63816 13.6377 1.7288 13.6941 1.89925C13.8141 2.22276 14.1015 2.44363 14.2251 2.76474C14.5676 3.57981 14.4608 4.50292 14.7824 5.32399C14.9192 5.6739 15.1316 6.00461 15.4399 6.22729C15.5803 6.34192 15.7657 6.42955 15.8281 6.61382C15.9265 6.8797 16.0105 7.1564 16.1935 7.37967C16.0069 7.61555 15.7675 7.80881 15.4885 7.92405C14.966 8.17133 14.3223 8.13772 13.8675 8.52785C13.5357 8.80694 13.5231 9.26849 13.351 9.63762C13.1692 9.98753 12.9892 10.3422 12.8554 10.7138C12.9004 10.9412 13.0936 11.0949 13.2478 11.2534C13.0168 11.3224 12.8026 11.4346 12.5734 11.5054C12.4031 11.4838 12.2489 11.3986 12.0797 11.371C11.9477 11.3668 11.8199 11.41 11.6921 11.4364C11.7173 11.5204 11.7437 11.6039 11.7701 11.6885C11.5733 11.7893 11.3712 11.7113 11.1864 11.6261C11.3082 11.8542 11.4432 12.0816 11.6393 12.2545C11.8157 12.4237 12.0443 12.5588 12.1235 12.8049C12.0101 12.7352 11.9015 12.6596 11.7929 12.584C11.6645 12.6818 11.5368 12.7809 11.4054 12.8745C11.427 13.0065 11.4498 13.1392 11.472 13.2724C11.319 13.1884 11.1504 13.141 10.9914 13.0714C10.8966 12.9927 10.8588 12.8655 10.7712 12.7803C10.689 12.7124 10.5823 12.6788 10.5103 12.5996C10.4851 12.467 10.5037 12.3295 10.4719 12.1981C10.3363 11.9742 10.1251 11.7743 10.1119 11.4958C10.0861 11.3056 10.1509 11.0559 9.94512 10.9467C9.53657 10.6904 9.04882 10.5607 8.68886 10.2252C8.61866 10.1064 8.61086 9.96293 8.57667 9.83208C8.52987 9.8837 8.48308 9.93532 8.43628 9.98693C8.2779 9.87169 8.15731 9.71504 8.12912 9.51758C8.03133 9.54219 7.93354 9.5662 7.83575 9.5914C7.83635 9.73605 7.79795 9.8915 7.85194 10.0301C7.96593 10.1754 8.13392 10.269 8.2419 10.4203C8.34329 10.5607 8.41229 10.7276 8.54367 10.8452C8.71885 10.9629 8.96603 10.9442 9.10641 11.1189C9.27379 11.3068 9.52037 11.3854 9.71535 11.536C9.81254 11.6081 9.80654 11.7419 9.84013 11.8476C9.70875 11.7767 9.58636 11.6879 9.44478 11.6393C9.34339 11.6051 9.28459 11.7215 9.2132 11.7713C9.28399 11.877 9.35479 11.982 9.42498 12.0888C9.33979 12.2167 9.263 12.3505 9.16941 12.4724C9.08481 12.5816 8.93963 12.6086 8.82024 12.6638C8.79085 12.8211 8.76385 12.9795 8.73265 13.1368C8.40629 12.9801 7.96533 12.8991 7.81295 12.53C8.12372 12.494 8.44108 12.5354 8.74885 12.4706C8.97922 12.4285 9.09381 12.132 8.95043 11.946C8.68166 11.5997 8.2923 11.3728 7.90834 11.1753C7.61917 11.0265 7.43139 10.7012 7.09242 10.6538C7.09602 10.5037 7.13382 10.3314 7.03063 10.2048C6.93704 10.0932 6.78766 10.0277 6.64307 10.0325C6.33471 10.1532 6.09593 10.4053 5.78517 10.5205C5.51399 10.4977 5.24822 10.308 4.97345 10.4149C4.70468 10.5091 4.92486 10.8782 4.72868 11.0307C4.5151 11.2101 4.21993 11.26 4.01775 11.4568C3.87917 11.5943 3.74118 11.7461 3.67339 11.9322C3.68479 12.0456 3.73578 12.15 3.77478 12.2563C3.5444 12.5366 3.30083 12.8109 2.99966 13.0173C2.84428 13.087 2.6655 13.0588 2.50051 13.0804C2.22814 13.0918 1.99837 13.2544 1.75479 13.3577C1.645 13.2088 1.55621 13.0377 1.40863 12.9225C1.19385 12.8985 0.979074 12.9363 0.764897 12.9495C0.793094 12.6728 0.700704 12.4135 0.624512 12.1537C0.648509 11.9328 0.802096 11.7539 0.85669 11.5415C0.95088 11.1903 0.886684 10.8242 0.849488 10.4701C1.04327 10.3711 1.23225 10.2078 1.46442 10.2414C1.98817 10.293 2.51371 10.3164 3.03866 10.3567C3.14544 10.3603 3.29663 10.3597 3.33562 10.2342C3.43821 9.97193 3.49401 9.68203 3.47001 9.40054C3.41122 9.21208 3.29123 9.04822 3.16764 8.89697C2.96127 8.71691 2.6559 8.70851 2.44952 8.52665C2.39192 8.45403 2.43812 8.3676 2.47652 8.29977C2.76029 8.15633 3.08965 8.25236 3.39262 8.25956C3.38302 8.11672 3.37282 7.97447 3.36202 7.83222C3.5114 7.88264 3.65839 7.94806 3.81557 7.97206C3.96496 7.93125 4.10054 7.85083 4.23013 7.768C4.39031 7.66837 4.4533 7.4733 4.60329 7.36346C4.80127 7.24102 5.03824 7.175 5.20323 7.00214C5.35681 6.84489 5.415 6.62222 5.55659 6.45596C5.91415 6.32692 6.30411 6.31192 6.67787 6.2483C6.65447 5.87557 6.3449 5.52205 6.52309 5.14513C6.68327 4.92906 6.98384 4.89785 7.21001 4.7736C7.18962 4.97527 7.24481 5.16734 7.3114 5.3546C7.26521 5.42902 7.18121 5.46863 7.11522 5.52325C7.13442 5.53466 7.17222 5.55807 7.19082 5.56947C7.39239 5.49265 7.60237 5.42962 7.78715 5.31619C7.88734 5.19915 7.73676 5.08571 7.68036 4.98968C7.48478 4.7514 7.38159 4.4585 7.25501 4.18241C7.01983 4.33366 6.78886 4.49271 6.53689 4.61455C6.28611 4.746 5.94715 4.64816 5.79236 4.41529C5.68498 4.22322 5.68318 3.99635 5.64538 3.78448C5.62438 3.58581 5.57159 3.37454 5.64538 3.18128C5.74017 3.06484 5.89615 3.02523 6.02274 2.9526C6.27591 2.83496 6.47809 2.61949 6.75586 2.55347C7.03483 2.49165 7.21421 2.25397 7.41999 2.07631C7.62637 1.89805 7.71996 1.62316 7.94134 1.4587C8.11352 1.33026 8.2755 1.18141 8.35529 0.976145C8.16871 1.01096 7.98513 1.05777 7.80035 1.09799C8.01993 0.950336 8.2341 0.789484 8.47468 0.676646C8.63906 0.584215 8.75785 0.785881 8.87544 0.87171C8.86284 0.779879 8.84844 0.687449 8.84904 0.595019C9.01102 0.486383 9.1856 0.394554 9.36798 0.325531C9.57856 0.275715 9.80294 0.29612 10.0081 0.217494C10.2703 0.113659 10.5475 0.0572405 10.8252 0.0110252ZM10.4185 1.95687C10.2127 2.07571 10.2853 2.38961 10.0801 2.51085C9.84733 2.6621 9.55457 2.72573 9.36919 2.9454C9.2096 3.10745 9.1988 3.34633 9.16041 3.5576C9.31939 3.66083 9.49157 3.74906 9.62716 3.88411C9.71115 3.95673 9.67335 4.07617 9.62896 4.159C9.53357 4.35947 9.28039 4.37447 9.12441 4.50832C9.07102 4.65537 9.05542 4.81202 9.02962 4.96567C9.08901 4.96387 9.14901 4.96207 9.2084 4.96087C9.14841 5.0719 9.11001 5.20215 9.01582 5.29038C8.90903 5.33779 8.79385 5.3612 8.68346 5.39721C8.50888 5.44163 8.39429 5.59288 8.2449 5.68231C8.11112 5.67931 7.98393 5.63129 7.85734 5.59288C7.81175 5.84916 7.59157 5.99501 7.40319 6.14566C7.62277 6.08384 7.82975 5.971 8.05712 5.93979C8.17171 5.99921 8.2587 6.11205 8.38589 6.14506C8.72965 6.15766 9.00982 5.90678 9.34399 5.87077C9.50897 5.85516 9.66075 5.93439 9.81254 5.9866C9.96612 5.89417 10.1287 5.81615 10.3051 5.77834C10.2703 5.43082 10.1809 4.90625 10.5961 4.7538C10.7928 4.80242 10.9494 4.94466 11.1282 5.03529C11.1534 4.90145 11.1948 4.7646 11.169 4.62836C10.9578 4.43629 10.683 4.63436 10.4533 4.67577C10.4797 4.51372 10.5289 4.35647 10.6009 4.20942C10.68 4.27184 10.7604 4.33366 10.8372 4.39968C10.8648 4.31805 10.8594 4.20642 10.9524 4.16861C11.2278 4.00595 11.5578 4.07617 11.8595 4.07737C12.0647 4.09178 12.2495 3.98675 12.4307 3.90692C12.3263 3.8541 12.2237 3.77667 12.1013 3.78148C11.6525 3.79048 11.2296 3.98915 10.7808 3.98674C10.5781 3.96214 10.3015 3.8715 10.2847 3.63143C10.2607 3.33793 10.1581 3.04563 10.2013 2.75033C10.3513 2.6603 10.5181 2.59909 10.6644 2.50246C10.89 2.36441 11.0484 2.14773 11.2152 1.94787C10.956 1.89505 10.6626 1.81042 10.4185 1.95687ZM7.05103 2.62369C7.18542 2.54747 7.2946 2.43583 7.366 2.29778C7.20461 2.3422 7.10022 2.46824 7.05103 2.62369ZM7.366 5.73332C7.3336 5.82996 7.3672 5.86297 7.46499 5.83356C7.49678 5.73572 7.46379 5.70211 7.366 5.73332ZM7.03483 5.88938C7.13262 5.94579 7.23341 5.99621 7.336 6.04483C7.3336 6.00341 7.3288 5.91999 7.3264 5.87797C7.22861 5.88097 7.13142 5.88397 7.03483 5.88938ZM10.6069 12.2707C10.6063 12.3475 10.6063 12.4243 10.6069 12.5018C10.6512 12.4994 10.7406 12.4946 10.7856 12.4922C10.7262 12.4177 10.6662 12.3445 10.6069 12.2707Z" fill="white"/>
<path d="M2.85868 4.42789C3.07346 4.36787 3.25223 4.23043 3.45321 4.1392C3.35422 4.39248 3.17604 4.60135 2.97986 4.78561C3.18144 4.80542 3.38302 4.82462 3.5846 4.85163C3.49221 5.02929 3.39022 5.20215 3.28223 5.3702C3.49761 5.59888 3.64459 5.88157 3.86837 6.10305C4.00215 6.23569 4.04835 6.42295 4.10234 6.59761C4.22353 6.62642 4.34532 6.65463 4.46711 6.68344C4.5193 6.93913 4.23973 7.11738 4.32012 7.37547C4.03095 7.51712 3.70699 7.54472 3.39082 7.55733C2.95707 7.55673 2.55751 7.7536 2.12975 7.79861C2.32593 7.58374 2.54011 7.38327 2.79268 7.23682C2.6355 7.19721 2.47832 7.15519 2.32353 7.10898C2.44292 7.00514 2.56711 6.90792 2.6919 6.81128C2.6271 6.76387 2.56291 6.71705 2.49872 6.67023C2.6289 6.49918 2.83288 6.44036 3.03746 6.41335C3.01586 6.2663 3.00626 6.10124 2.89347 5.99021C2.76629 5.9566 2.6337 5.9542 2.50351 5.94279C2.50951 5.86297 2.51611 5.78374 2.52211 5.70512C2.46752 5.70632 2.41292 5.70871 2.35833 5.71111C2.34813 5.6733 2.33853 5.63549 2.32893 5.59828C2.26354 5.59468 2.19875 5.59048 2.13395 5.58747C2.18555 5.50525 2.23594 5.42242 2.28874 5.342C2.22754 5.31439 2.16695 5.28738 2.10575 5.26157C2.15555 5.12232 2.19875 4.98127 2.24194 4.84023C2.45852 4.71839 2.6115 4.49451 2.85868 4.42789Z" fill="white"/>
<path d="M1.41163 6.01302C1.50342 5.87077 1.59041 5.68291 1.77999 5.6601C1.98577 5.63729 2.20835 5.68411 2.37453 5.81195C2.44592 5.92419 2.34273 6.03162 2.30193 6.13366C2.17175 6.34613 2.20114 6.60961 2.09616 6.83049C1.80699 6.94933 1.51182 7.06156 1.21125 7.14859C1.04327 7.20981 0.892683 7.10358 0.767297 7.00455C0.890284 6.85089 1.01927 6.70325 1.14826 6.555C1.09366 6.48657 1.02467 6.42655 0.989274 6.34553C0.985075 6.2537 1.00487 6.16367 1.01627 6.07364C1.14826 6.05383 1.28025 6.03462 1.41163 6.01302Z" fill="white"/>
<path d="M6.51889 10.7258C6.63827 10.6562 6.75706 10.5865 6.87645 10.5169C6.86625 10.7762 6.80386 11.0433 6.88665 11.2972C6.95564 11.5354 6.97004 11.8001 6.87405 12.0336C6.76546 12.1471 6.60408 12.1693 6.45529 12.1795C6.44449 11.9022 6.44509 11.6243 6.4157 11.3476C6.50989 11.3146 6.60348 11.2816 6.69707 11.248C6.63227 11.0757 6.57108 10.9022 6.51889 10.7258Z" fill="white"/>
</svg>
