<svg width="153" height="99" viewBox="0 0 153 99" fill="none" xmlns="http://www.w3.org/2000/svg">
<path d="M61.2323 0.093952C61.9286 0.0687983 62.6333 -0.0586447 63.328 0.0755084C65.5403 0.571875 67.8292 0.350518 70.0648 0.647331C72.377 0.99613 74.7175 1.20742 76.9948 1.76248C77.836 2.0006 78.6839 2.20351 79.5402 2.37791C80.4548 2.56069 81.2927 3.02352 82.2223 3.14594C82.9452 3.24823 83.6782 3.24319 84.4045 3.33039C86.0721 3.92402 87.7663 4.42878 89.4538 4.95868C92.2841 5.9816 95.1061 7.0347 97.8681 8.23201C99.8072 9.21469 101.848 9.97936 103.764 11.009C106.272 12.2298 108.663 13.6702 111.108 15.0118C111.46 15.2499 111.96 15.4847 111.978 15.976C112.066 17.2689 111.758 18.5501 111.746 19.843C111.743 20.4601 111.78 21.0755 111.786 21.6943C110.727 21.109 109.667 20.5204 108.656 19.8547C108.103 19.4774 107.503 19.1756 106.887 18.9207C106.922 19.4891 106.97 20.0576 107.057 20.6227C106.95 20.5204 106.845 20.4198 106.742 20.3209C106.616 21.3723 106.457 22.4254 106.489 23.4869C106.534 25.1605 106.419 26.834 106.397 28.5076C106.354 29.9078 106.417 31.3097 106.337 32.7082C106.189 34.6602 106.234 36.6188 106.129 38.5741C106.211 40.0783 105.868 41.5607 105.921 43.0632C105.936 44.2504 105.859 45.436 105.843 46.625C105.821 48.4008 105.458 50.1616 105.583 51.9424C105.593 53.4131 105.764 54.9156 105.383 56.3561C105.19 57.0252 105.335 57.7161 105.443 58.3868C105.653 59.6596 105.356 60.9374 105.368 62.2135C105.374 63.7077 105.355 65.2035 105.316 66.6976C105.211 67.2359 105.06 67.7624 104.921 68.2923C104.731 68.0257 104.545 67.7591 104.358 67.4942C104.173 67.7105 103.99 67.9251 103.807 68.1414C103.459 67.6518 103.014 67.1722 102.934 66.5534C103.034 66.0688 103.389 65.6848 103.535 65.2152C103.592 64.7943 103.492 64.3734 103.449 63.9575C103.099 64.4908 102.697 65.0006 102.143 65.3309C102.124 63.4662 102.194 61.6031 102.254 59.7401C102.326 58.4539 102.364 57.166 102.363 55.8782C102.574 47.6512 102.782 39.426 103.019 31.2007C103.086 28.2259 103.146 25.251 103.272 22.2778C103.84 22.4439 104.413 22.6652 105.015 22.6451C105.421 22.6266 105.614 22.1957 105.843 21.9173C106.392 20.4852 106.089 18.929 106.043 17.4416C105.944 16.1571 106.142 14.8726 106.067 13.5864C105.346 13.5042 104.622 13.4522 103.897 13.4271C103.807 14.6563 103.817 15.8905 103.815 17.123C103.657 17.0744 103.502 17.0241 103.35 16.9721C101.986 16.4372 100.727 15.6691 99.379 15.0923C90.8381 11.0962 81.7658 8.18506 72.4269 6.85527C70.7711 6.64733 69.1169 6.39076 67.446 6.33375C65.4253 6.2281 63.4046 6.10904 61.3822 6.10904C58.9517 6.20127 56.5179 6.29853 54.0974 6.54672C52.2483 6.60876 50.4425 7.02799 48.6167 7.29127C43.171 8.38126 37.8319 10.0213 32.7177 12.2029C32.0263 12.5232 31.0818 12.6607 30.7636 13.4573C30.4804 14.5188 30.5803 15.6205 30.6786 16.7004C30.9218 20.8038 30.9718 24.9156 31.1917 29.0207C31.1334 30.9207 31.2983 32.8172 31.25 34.7155C31.2234 35.9547 31.4533 37.199 31.2434 38.4332C30.7603 40.8765 31.7481 43.308 31.4666 45.763C31.3783 46.5964 31.1934 47.455 31.4383 48.2834C31.6748 49.1085 31.7931 49.962 31.7598 50.8223C31.7165 52.2694 31.9464 53.7099 31.8481 55.1571C31.7814 56.1062 31.8581 57.0587 32.0063 57.9978C32.2962 57.763 32.5877 57.5299 32.8776 57.2968C33.2474 57.6473 33.6106 58.0062 34.002 58.3348C33.5539 58.4824 33.1091 58.7641 32.6177 58.6887C32.073 58.6099 31.5166 58.4807 30.9685 58.6233C30.0189 58.8429 29.0377 58.7658 28.0749 58.8715C28.533 58.682 28.9994 58.5176 29.4675 58.3583C29.3992 53.6043 29.1477 48.8552 29.0527 44.1029C28.7629 35.1767 28.4764 26.2521 28.2181 17.3276C28.6479 17.4433 29.0794 17.6026 29.5325 17.5976C30.1172 17.3745 30.4337 16.7122 30.3954 16.1051C30.3604 15.0587 30.2622 14.0107 30.0706 12.981C29.8307 11.8575 29.7391 10.7088 29.8174 9.56348C29.231 9.52324 28.6463 9.48467 28.0615 9.4461C28.0382 10.7222 28.2031 11.9917 28.2198 13.2661C28.1915 13.6585 28.2631 14.1633 27.8966 14.4249C27.3502 14.8575 26.6989 15.1225 26.0958 15.4645C25.1296 15.9995 24.1734 16.5529 23.1939 17.066C23.1522 15.2868 23.0573 13.5093 22.9956 11.7301C28.9228 8.12134 35.2748 5.19512 41.9266 3.22307C48.1886 1.31475 54.7121 0.434365 61.2323 0.093952Z" fill="#5F5242"/>
<path d="M63.328 0.0755084C66.7347 -0.13746 70.153 0.132521 73.5431 0.481319C76.9731 0.878747 80.3898 1.4556 83.7399 2.30915C83.6349 2.48691 83.53 2.66466 83.4267 2.84409C83.7499 3.0101 84.0714 3.17947 84.4045 3.33039C83.6782 3.24319 82.9452 3.24823 82.2223 3.14594C81.2927 3.02352 80.4548 2.56069 79.5402 2.37791C78.6839 2.20351 77.836 2.0006 76.9948 1.76248C74.7175 1.20742 72.377 0.99613 70.0648 0.647331C67.8292 0.350518 65.5403 0.571875 63.328 0.0755084Z" fill="#6D5E4F"/>
<path d="M83.7399 2.30915C90.5166 3.93241 97.0801 6.39076 103.37 9.39411C106.964 11.0543 110.397 13.0347 113.847 14.9749C113.84 17.0643 113.709 19.1521 113.664 21.2432C113.039 21.4025 112.416 21.5618 111.786 21.6943C111.78 21.0755 111.743 20.4601 111.746 19.843C111.758 18.5501 112.066 17.2689 111.978 15.976C111.96 15.4847 111.46 15.2499 111.108 15.0118C108.663 13.6702 106.272 12.2298 103.764 11.009C101.848 9.97936 99.8072 9.21469 97.8681 8.23201C95.1061 7.0347 92.2841 5.9816 89.4538 4.95868C87.7663 4.42878 86.0721 3.92402 84.4045 3.33039C84.0714 3.17947 83.7499 3.0101 83.4267 2.84409C83.53 2.66466 83.6349 2.48691 83.7399 2.30915Z" fill="#756555"/>
<path d="M67.446 6.33375C69.1169 6.39076 70.7711 6.64733 72.4269 6.85527C72.6785 7.23425 72.8901 7.63671 73.0733 8.05426C72.4286 8.19345 71.7773 8.32089 71.1176 8.35946C70.1214 8.33598 69.1252 8.32928 68.129 8.36449C67.4027 8.34269 66.6864 8.22363 65.9734 8.09115C65.9817 7.85806 65.9917 7.62665 66.0034 7.39691C66.4865 7.04643 66.9712 6.69596 67.446 6.33375Z" fill="#18161A"/>
<path d="M48.6167 7.29127C50.4425 7.02799 52.2483 6.60876 54.0974 6.54672C49.3197 7.2745 44.602 8.41983 40.0441 10.0397C37.622 10.8614 35.2898 11.9145 32.9375 12.9106C32.8726 12.6708 32.7943 12.436 32.7177 12.2029C37.8319 10.0213 43.171 8.38126 48.6167 7.29127Z" fill="#352B1B"/>
<path d="M68.129 8.36449C69.1252 8.32928 70.1214 8.33598 71.1176 8.35946C70.6995 8.79378 70.2247 9.3371 69.5583 9.27338C68.9336 9.29685 68.4922 8.80552 68.129 8.36449Z" fill="#12120E"/>
<path d="M28.0615 9.4461C28.6463 9.48467 29.231 9.52324 29.8174 9.56348C29.7391 10.7088 29.8307 11.8575 30.0706 12.981C29.824 14.2387 29.8624 15.5199 29.9023 16.7943C29.3293 16.744 28.7562 16.6904 28.1832 16.63C28.1748 16.2292 28.1665 15.8284 28.1582 15.4276C27.107 15.8905 26.1958 16.6988 25.033 16.8732C24.425 16.9838 23.8103 17.0358 23.1939 17.066C24.1734 16.5529 25.1296 15.9995 26.0958 15.4645C26.6989 15.1225 27.3502 14.8575 27.8966 14.4249C28.2631 14.1633 28.1915 13.6585 28.2198 13.2661C28.2031 11.9917 28.0382 10.7222 28.0615 9.4461Z" fill="#212125"/>
<path d="M30.7636 13.4573C31.0818 12.6607 32.0263 12.5232 32.7177 12.2029C32.7943 12.436 32.8726 12.6708 32.9375 12.9106C32.9875 13.7642 32.9475 14.6194 32.9609 15.4746C32.1396 14.9045 31.4583 14.1683 30.7636 13.4573Z" fill="#3F372C"/>
<path d="M29.9023 16.7943C29.8624 15.5199 29.824 14.2387 30.0706 12.981C30.2622 14.0107 30.3604 15.0587 30.3954 16.1051C30.4337 16.7122 30.1172 17.3745 29.5325 17.5976C29.0794 17.6026 28.6479 17.4433 28.2181 17.3276C28.2048 17.0928 28.1932 16.8614 28.1832 16.63C28.7562 16.6904 29.3293 16.744 29.9023 16.7943Z" fill="#413A30"/>
<path d="M103.897 13.4271C104.622 13.4522 105.346 13.5042 106.067 13.5864C106.142 14.8726 105.944 16.1571 106.043 17.4416C106.089 18.929 106.392 20.4852 105.843 21.9173C105.143 21.8167 104.443 21.7228 103.744 21.6238C103.75 20.8055 103.662 19.9889 103.404 19.2108C103.369 18.4645 103.36 17.7183 103.35 16.9721C103.502 17.0241 103.657 17.0744 103.815 17.123C103.817 15.8905 103.807 14.6563 103.897 13.4271Z" fill="#212226"/>
<path d="M30.6786 16.7004C30.5803 15.6205 30.4804 14.5188 30.7636 13.4573C31.4583 14.1683 32.1396 14.9045 32.9609 15.4746C33.1158 18.5333 33.1358 21.5953 33.2441 24.6557C33.4606 32.3226 33.6755 39.9911 33.8738 47.6596C33.409 47.6646 32.9492 47.7183 32.4894 47.7753C32.7343 48.7798 33.2224 49.7038 33.8838 50.4936C33.8954 50.3578 33.9221 50.0861 33.9337 49.9503C34.0354 52.744 34.1236 55.5411 34.1403 58.3382L34.002 58.3348C33.6106 58.0062 33.2474 57.6473 32.8776 57.2968C32.5877 57.5299 32.2962 57.763 32.0063 57.9978C31.8581 57.0587 31.7814 56.1062 31.8481 55.1571C31.9464 53.7099 31.7165 52.2694 31.7598 50.8223C31.7931 49.962 31.6748 49.1085 31.4383 48.2834C31.1934 47.455 31.3783 46.5964 31.4666 45.763C31.7481 43.308 30.7603 40.8765 31.2434 38.4332C31.4533 37.199 31.2234 35.9547 31.25 34.7155C31.2983 32.8172 31.1334 30.9207 31.1917 29.0207C30.9718 24.9156 30.9218 20.8038 30.6786 16.7004Z" fill="#736452"/>
<path d="M106.887 18.9207C107.503 19.1756 108.103 19.4774 108.656 19.8547C108.125 21.7245 108.53 23.7015 108.156 25.5998C107.45 24.0302 107.374 22.2913 107.057 20.6227C106.97 20.0576 106.922 19.4891 106.887 18.9207Z" fill="#3E362B"/>
<path d="M103.404 19.2108C103.662 19.9889 103.75 20.8055 103.744 21.6238C104.443 21.7228 105.143 21.8167 105.843 21.9173C105.614 22.1957 105.421 22.6266 105.015 22.6451C104.413 22.6652 103.84 22.4439 103.272 22.2778C103.299 21.2533 103.294 20.2287 103.404 19.2108Z" fill="#443C30"/>
<path d="M106.742 20.3209C106.845 20.4198 106.95 20.5204 107.057 20.6227C107.374 22.2913 107.45 24.0302 108.156 25.5998C108.245 25.8245 108.261 26.071 108.255 26.3142C108.047 32.2454 107.907 38.1783 107.702 44.1079C107.622 47.7988 107.434 51.4863 107.367 55.1772C107.19 59.5841 107.122 63.9978 106.924 68.4014C107.185 68.8424 107.525 69.2297 107.86 69.6171C107.82 69.6792 107.738 69.8049 107.698 69.867C106.731 69.6792 105.751 69.5735 104.773 69.4612C105.509 68.73 105.31 67.635 105.316 66.6976C105.355 65.2035 105.374 63.7077 105.368 62.2135C105.356 60.9374 105.653 59.6596 105.443 58.3868C105.335 57.7161 105.19 57.0252 105.383 56.3561C105.764 54.9156 105.593 53.4131 105.583 51.9424C105.458 50.1616 105.821 48.4008 105.843 46.625C105.859 45.436 105.936 44.2504 105.921 43.0632C105.868 41.5607 106.211 40.0783 106.129 38.5741C106.234 36.6188 106.189 34.6602 106.337 32.7082C106.417 31.3097 106.354 29.9078 106.397 28.5076C106.419 26.834 106.534 25.1605 106.489 23.4869C106.457 22.4254 106.616 21.3723 106.742 20.3209Z" fill="#736351"/>
<path d="M36.0477 44.7753C36.6974 44.5858 37.3738 44.6781 38.0318 44.7619C38.0734 45.4746 38.0001 46.2275 38.2767 46.905C38.6065 47.5506 39.1179 48.0755 39.5494 48.654C43.9239 54.3337 48.3085 60.0051 52.6748 65.6915C52.4465 65.7401 52.2183 65.7971 51.9868 65.8122C51.5803 65.3091 51.3287 64.7004 50.9406 64.1839C49.373 62.0324 47.5322 60.0939 46.0279 57.8921C44.9068 56.398 43.8407 54.8603 42.6612 53.4081C41.685 52.1537 40.6355 50.9547 39.741 49.6384C39.2479 48.9005 38.6731 48.2214 37.9901 47.6562C37.5903 48.3488 37.8202 49.1068 38.1334 49.7792C38.3716 53.1716 38.3166 56.5808 38.4466 59.9799C38.5232 61.1806 38.4249 62.3896 38.6215 63.5819C38.3566 63.8167 38.0634 64.0347 37.8652 64.3365C37.7003 65.066 38.1217 65.7636 38.5415 66.327C38.5848 67.0363 38.6615 67.7423 38.7081 68.4533C38.4332 68.6713 38.1417 68.8776 37.9202 69.1543C37.7836 70.0112 38.215 70.8262 38.7015 71.4986C38.7214 72.161 38.7498 72.8251 38.7698 73.4891C38.5115 73.8027 38.2233 74.1062 38.0684 74.4902C37.9118 75.1006 38.3566 75.6188 38.7148 76.0565C38.7448 76.6903 38.878 77.3192 39.1362 77.8994C38.8231 78.0017 38.4599 78.0771 38.2383 78.3421C38.0784 78.8234 38.2966 79.3315 38.345 79.8178C38.35 79.9 38.3583 80.0626 38.3633 80.1448C38.3683 80.2907 38.3799 80.5825 38.3849 80.7283L38.27 80.6797C38.0634 80.4768 37.8718 80.2622 37.6819 80.0475C37.7752 78.1258 37.5403 76.2074 37.567 74.2856C37.5853 72.4327 37.6769 70.573 37.457 68.7283C37.2538 67.033 37.4137 65.3259 37.3105 63.6255C37.1006 60.867 37.4237 58.09 37.0689 55.3399C36.854 53.6529 37.0872 51.9508 36.954 50.2588C36.8224 48.5635 36.9456 46.8648 36.8757 45.1694C36.5991 45.0369 36.3243 44.9044 36.0477 44.7753Z" fill="#76624C"/>
<path d="M35.5513 44.9195C35.7162 44.8675 35.8811 44.8189 36.0477 44.7753C36.3243 44.9044 36.5991 45.0369 36.8757 45.1694C36.9456 46.8648 36.8224 48.5635 36.954 50.2588C37.0872 51.9508 36.854 53.6529 37.0689 55.3399C37.4237 58.09 37.1006 60.867 37.3105 63.6255C37.4137 65.3259 37.2538 67.033 37.457 68.7283C37.6769 70.573 37.5853 72.4327 37.567 74.2856C37.5403 76.2074 37.7752 78.1258 37.6819 80.0475C37.3254 79.9469 36.9706 79.848 36.6141 79.7524C36.4192 77.938 36.4159 76.1101 36.4042 74.2856C36.4242 72.0989 36.186 69.919 36.1593 67.7339C36.166 66.8854 36.1977 66.0352 36.1393 65.1901C35.9844 62.9648 36.1227 60.7295 35.9361 58.5059C35.7962 55.3164 35.7379 52.1236 35.6929 48.9324C35.6912 48.602 35.6879 48.2717 35.6779 47.943C35.6263 46.9352 35.5613 45.9274 35.5513 44.9195Z" fill="#5D4D3A"/>
<path d="M32.4894 47.7753C32.9492 47.7183 33.409 47.6646 33.8738 47.6596C34.4801 47.7133 35.0782 47.829 35.6779 47.943C35.6879 48.2717 35.6912 48.602 35.6929 48.9324C35.0965 48.8217 34.4968 48.7345 33.8971 48.6523C33.9104 49.0833 33.9254 49.516 33.9337 49.9503C33.9221 50.0861 33.8954 50.3578 33.8838 50.4936C33.2224 49.7038 32.7343 48.7798 32.4894 47.7753Z" fill="#24252A"/>
<path d="M38.1334 49.7792C37.8202 49.1068 37.5903 48.3488 37.9901 47.6562C38.6731 48.2214 39.2479 48.9005 39.741 49.6384C40.6355 50.9547 41.685 52.1537 42.6612 53.4081C43.8407 54.8603 44.9068 56.398 46.0279 57.8921C47.5322 60.0939 49.373 62.0324 50.9406 64.1839C51.3287 64.7004 51.5803 65.3091 51.9868 65.8122C52.2183 65.7971 52.4465 65.7401 52.6748 65.6915C56.0848 66.0922 59.4748 66.6741 62.8749 67.147C63.303 67.2711 63.5262 66.8536 63.7761 66.5936C64.1026 66.7915 64.4624 66.9626 64.7173 67.2594C64.9022 67.8161 64.8273 68.4148 64.8056 68.9916C64.744 69.8351 64.7673 70.6836 64.8656 71.5238C64.574 71.5087 64.2825 71.5003 63.9927 71.4986C64.2559 72.0252 64.764 72.3052 65.307 72.4695C65.357 72.7161 65.407 72.9626 65.4503 73.2141C65.337 73.2074 65.1088 73.194 64.9938 73.1873C64.8256 74.72 65.0005 76.2644 64.8672 77.8004C64.6907 80.1481 64.8872 82.5042 64.739 84.8535C64.3525 84.7982 63.9693 84.7227 63.5862 84.654C63.5762 84.332 63.5662 84.0134 63.5645 83.6948C63.6028 82.3365 63.6212 80.9782 63.5695 79.6199C63.5662 79.5126 63.5595 79.2946 63.5562 79.1873C63.5229 78.6792 63.5029 78.1727 63.4746 77.6663C63.4663 76.4455 63.5046 75.2247 63.4812 74.0039C61.8337 73.749 60.1928 73.4422 58.5369 73.2476C59.3982 74.4584 60.3361 75.6121 61.2357 76.796C61.6771 77.4114 62.4867 77.4332 63.1564 77.5942C63.0415 78.052 62.9315 78.5115 62.8232 78.9726C62.1752 78.9558 61.5255 78.934 60.8842 78.8385C53.5627 77.6076 46.2445 76.3482 38.9163 75.156L38.7731 75.1342C38.7514 75.4394 38.7281 75.7462 38.7148 76.0565C38.3566 75.6188 37.9118 75.1006 38.0684 74.4902C38.2233 74.1062 38.5115 73.8027 38.7698 73.4891C42.9411 74.2169 47.1224 74.8759 51.2971 75.5819C53.9675 75.9709 56.6112 76.5377 59.2916 76.848C58.6069 75.7831 57.7723 74.8323 57.0427 73.8027C56.6962 73.3147 56.278 72.7915 55.635 72.7412C49.9761 71.8742 44.3271 70.9368 38.6698 70.0648C38.6848 70.5411 38.6931 71.019 38.7015 71.4986C38.215 70.8262 37.7836 70.0112 37.9202 69.1543C38.1417 68.8776 38.4332 68.6713 38.7081 68.4533C44.0622 69.2633 49.4063 70.1554 54.7654 70.9368C54.2124 70.1034 53.576 69.332 52.9513 68.554L52.8713 68.4483C53.3411 68.2739 53.8125 68.1012 54.2757 67.9083C54.7704 68.4181 55.2369 68.9581 55.6667 69.5266C56.1298 70.1068 56.4746 70.8245 57.106 71.2437C58.1288 71.611 59.2383 71.6093 60.2994 71.8072C61.3556 72.0101 62.4184 72.1895 63.4896 72.2901C63.4929 71.175 63.4879 70.0598 63.4996 68.9447C60.5476 68.3779 57.5408 68.1364 54.5988 67.5176C53.7009 67.308 52.788 67.1839 51.8701 67.1202C47.4123 66.5953 42.9977 65.7418 38.5399 65.2035C38.5415 65.2957 38.5432 65.4785 38.5432 65.569C38.5399 65.8206 38.5399 66.0721 38.5415 66.327C38.1217 65.7636 37.7003 65.066 37.8652 64.3365C38.0634 64.0347 38.3566 63.8167 38.6215 63.5819C42.5579 64.1202 46.4777 64.7641 50.4158 65.2856C48.8299 63.0755 47.1041 60.9726 45.4699 58.7977C43.3376 56.0257 41.2036 53.2555 39.0729 50.4819C38.7598 50.0744 38.4316 49.6786 38.0884 49.298C38.0984 49.4187 38.1217 49.6585 38.1334 49.7792Z" fill="#62513E"/>
<path d="M39.1362 77.8994C40.3024 77.9681 41.4418 78.2532 42.5946 78.431C46.2228 79.0162 49.8328 79.7188 53.4644 80.294C56.6878 80.8558 59.9179 81.384 63.1264 82.0213C63.0315 82.5394 62.9115 83.0542 62.8082 83.5724C55.6233 82.3633 48.4584 81.0319 41.2785 79.7909C40.314 79.6669 39.2245 79.152 38.345 79.8178C38.2966 79.3315 38.0784 78.8234 38.2383 78.3421C38.4599 78.0771 38.8231 78.0017 39.1362 77.8994Z" fill="#62513E"/>
<path d="M97.2934 52.0766C98.078 51.5282 99.0392 51.6926 99.9188 51.8368C99.9438 53.0207 99.9121 54.2113 99.7522 55.3868C99.454 55.7021 99.1758 56.066 99.1741 56.5238C99.364 57.1761 99.5656 57.8351 99.5939 58.521C99.6856 61.2745 99.3774 64.0313 99.5539 66.7848C99.5223 67.5612 99.514 68.3393 99.529 69.1174C99.1808 69.2666 98.8293 69.4058 98.4795 69.545C98.671 67.3902 98.6394 65.2202 98.5977 63.0604C98.7943 60.7731 98.7293 58.4774 98.836 56.1867C98.8826 54.8838 98.9276 53.5774 98.8326 52.2762C98.3162 52.2258 97.8031 52.1571 97.2934 52.0766Z" fill="#6E5B47"/>
<path d="M97.2934 52.0766C97.8031 52.1571 98.3162 52.2258 98.8326 52.2762C98.9276 53.5774 98.8826 54.8838 98.836 56.1867C98.7293 58.4774 98.7943 60.7731 98.5977 63.0604C98.6394 65.2202 98.671 67.3902 98.4795 69.545C98.3462 69.9676 98.1746 70.3784 98.043 70.8027C98.0497 70.7256 98.0597 70.5679 98.0663 70.4908C97.6682 70.6333 97.2717 70.7792 96.8769 70.9285C97.0235 66.2214 97.0685 61.5126 97.2251 56.8072C97.2917 55.9804 97.3533 55.1521 97.3267 54.3237C97.3067 53.5741 97.3 52.8245 97.2934 52.0766Z" fill="#604F3C"/>
<path d="M95.8374 55.7725C96.3355 55.2912 96.8269 54.8033 97.3267 54.3237C97.3533 55.1521 97.2917 55.9804 97.2251 56.8072C96.8469 57.1057 96.4738 57.4125 96.1189 57.7395C96.039 57.0805 95.949 56.4248 95.8374 55.7725Z" fill="#3C3325"/>
<path d="M99.1741 56.5238C99.3874 56.5975 99.6023 56.6747 99.8222 56.7384C99.7922 57.8183 99.8288 58.8999 99.7555 59.9816C99.5989 62.2454 99.7255 64.521 99.5539 66.7848C99.3774 64.0313 99.6856 61.2745 99.5939 58.521C99.5656 57.8351 99.364 57.1761 99.1741 56.5238Z" fill="#3C3325"/>
<path d="M99.1741 56.5238C99.1758 56.066 99.454 55.7021 99.7522 55.3868C100.577 55.7407 101.476 55.8228 102.363 55.8782C102.364 57.166 102.326 58.4539 102.254 59.7401C102.298 58.8262 102.281 57.9123 102.243 57C101.438 56.8776 100.627 56.8306 99.8222 56.7384C99.6023 56.6747 99.3874 56.5975 99.1741 56.5238Z" fill="#1B1E24"/>
<path d="M81.4293 69.4729C86.2353 64.9134 91.0114 60.3136 95.8374 55.7725C95.949 56.4248 96.039 57.0805 96.1189 57.7395C92.5306 61.1822 88.8974 64.578 85.2958 68.0073C84.5645 68.6864 83.8298 69.3622 83.1535 70.0967C84.4595 70.3935 85.7939 70.5159 87.1149 70.7222C89.9635 71.1548 92.8155 71.559 95.6641 71.9916C95.3476 72.7781 94.583 73.1889 93.85 73.5042C89.722 72.8267 85.574 72.2884 81.451 71.5942C80.7846 71.4449 80.1116 71.3242 79.4319 71.2705C75.9053 70.8463 72.407 70.2225 68.8886 69.7412C68.8986 70.8748 68.9353 72.0067 68.897 73.1403C71.0426 73.5377 73.2099 73.8111 75.3605 74.1934C75.822 74.2655 76.3584 74.3359 76.7182 73.9586C77.4662 73.2946 78.1675 72.5785 78.8855 71.8809C79.4736 71.943 80.0566 72.1191 80.4848 72.5534C79.7734 73.2376 79.0321 73.8916 78.3658 74.6227C83.3684 75.4662 88.391 76.1956 93.4002 77.0022C93.4036 77.5925 93.3303 78.1861 93.0937 78.7328C88.3693 77.9329 83.6316 77.2219 78.9022 76.4522C78.1959 76.3466 77.4895 76.137 76.7715 76.1923C76.3068 76.3885 75.9902 76.8144 75.6254 77.1465C74.9108 77.839 74.1645 78.498 73.5014 79.2409C76.0885 79.6501 78.664 80.1481 81.2611 80.4902C85.2325 81.2398 89.2322 81.8234 93.2137 82.5109C93.1987 83.0878 93.1837 83.6646 93.1687 84.2432C88.2594 83.4366 83.3534 82.6199 78.4524 81.7764C77.7527 81.6557 77.0481 81.5819 76.3467 81.4846C74.8891 81.1392 73.3948 80.9799 71.9322 80.6596C71.2775 80.5087 70.6162 80.3829 69.9481 80.3175C69.5916 80.2756 69.2368 80.237 68.882 80.2001C68.887 80.5858 68.8936 80.9732 68.9053 81.3622C69.1152 81.1794 69.3251 80.9983 69.5233 80.8038C70.0664 80.9749 70.6012 81.1727 71.1143 81.4243C70.7861 81.7328 70.4646 82.0497 70.1431 82.3667C69.8932 82.6065 69.6433 82.8463 69.3917 83.0861C73.7513 83.7837 78.0926 84.5987 82.4505 85.3063C86.0471 85.9335 89.647 86.5355 93.2403 87.1861C93.182 87.758 93.1204 88.3315 93.0471 88.9033C90.6199 88.4572 88.1877 88.0447 85.7572 87.6238C80.3898 86.6462 75.0107 85.7339 69.6433 84.7697C69.0203 84.6137 68.4922 85.033 68.0074 85.3549C67.5793 85.318 67.1511 85.3097 66.7247 85.2845C66.6614 85.2677 66.5364 85.2342 66.4731 85.2174C66.17 83.6613 66.3665 82.0699 66.3216 80.4952C66.3532 77.834 66.2532 75.1711 66.3582 72.5115C66.8063 72.4695 67.2578 72.4964 67.7092 72.5182C67.6742 72.374 67.6409 72.2314 67.6076 72.0906C66.9529 71.8591 66.2233 71.5472 65.995 70.8211C65.7685 69.9022 65.8168 68.943 65.7951 68.0039C65.8251 67.4757 65.8118 66.9475 65.7618 66.4226C65.8185 66.4377 65.9301 66.4695 65.9867 66.4846C66.0583 67.905 65.8151 69.3471 66.1216 70.7507C66.4615 69.5601 66.2449 68.3108 66.2816 67.095C67.0878 66.6842 67.9957 66.7093 68.857 66.9039C68.8787 67.2879 68.902 67.6719 68.9253 68.0576C72.6468 68.5808 76.3651 69.1241 80.0783 69.706C80.5364 69.7647 81.0678 69.8368 81.4293 69.4729ZM68.8787 74.8407C68.877 75.3605 68.8837 75.8821 68.902 76.4036C68.8837 77.0945 68.8836 77.7854 68.9003 78.4762C69.3368 78.5534 69.7716 78.6322 70.2064 78.7194C70.5912 78.7831 70.9793 78.8636 71.3725 78.8586C71.8422 78.6942 72.1704 78.2851 72.5319 77.9598C73.2449 77.2169 74.0612 76.5813 74.7525 75.8167C72.8068 75.4176 70.8277 75.2113 68.8787 74.8407Z" fill="#645340"/>
<path d="M10.0202 58.4438C11.073 58.0548 12.1742 58.474 13.2453 58.5445C13.3669 58.6702 13.4885 58.796 13.6118 58.9251C13.187 59.2521 12.7639 59.5791 12.3408 59.9078C11.9926 59.896 11.6428 59.8877 11.2946 59.8793C11.5345 61.9519 11.3596 64.0414 11.5345 66.1157C11.6744 68.0559 11.7144 70.0028 11.8377 71.9447C11.891 72.7613 11.8793 73.5797 11.8327 74.398C11.5595 74.4852 11.2863 74.5724 11.0131 74.6613C10.8398 73.6015 11.1713 72.3337 10.3467 71.4919C10.5133 71.0442 10.8098 70.6065 10.7932 70.1168C10.5983 69.5148 10.2001 68.9933 10.0768 68.3661C9.9469 67.6752 9.63705 67.0431 9.23058 66.4779C9.65371 66.4746 10.0785 66.4763 10.5016 66.4746C10.5316 66.3756 10.5899 66.1761 10.6199 66.0772C10.3367 65.8726 10.0552 65.6663 9.77032 65.4651C10.0319 65.4232 10.2934 65.3796 10.5566 65.3427C10.5483 64.1822 10.505 63.0218 10.4683 61.8614C10.4333 61.3114 10.4267 60.7429 10.2168 60.2281C9.13395 59.772 7.91787 59.8407 6.80007 59.4953C7.83458 59.0341 8.94904 58.8027 10.0202 58.4438Z" fill="#6C685E"/>
<path d="M30.9685 58.6233C31.5166 58.4807 32.073 58.6099 32.6177 58.6887C33.1091 58.7641 33.5539 58.4824 34.002 58.3348L34.1403 58.3382C34.2103 58.3399 34.3485 58.3449 34.4185 58.3482C34.9099 58.9452 35.4913 59.5774 35.4963 60.4041C35.5363 62.5975 35.4397 64.7993 35.6446 66.9894C35.7795 68.3628 35.5729 69.7412 35.6612 71.1163C35.7529 72.6238 35.9011 74.133 35.8661 75.6456C35.8561 76.2074 35.7412 76.7641 35.5296 77.284C34.9233 77.9765 34.077 78.5618 33.9787 79.5595C34.3169 79.7758 34.685 79.967 34.9666 80.2622C34.9916 80.9078 34.815 81.54 34.6834 82.1671C34.3519 82.4891 33.8771 82.5847 33.4623 82.754C33.1075 81.5618 33.2774 80.3058 33.2124 79.0816C33.1658 78.218 33.1774 77.3527 33.1574 76.4891C33.1608 75.0687 32.8393 73.6534 33.0358 72.2348C33.1374 71.5439 33.0858 70.8429 32.8759 70.1789C32.671 69.5198 32.7043 68.8273 32.8043 68.1548C32.4828 68.071 32.1629 67.9888 31.8414 67.9067C31.8197 67.848 31.7748 67.7306 31.7531 67.6702C32.0996 67.3885 32.5577 67.1738 32.7476 66.7446C32.9409 66.0402 32.8059 65.3041 32.7643 64.5897C32.7143 63.7731 32.6927 62.9564 32.651 62.1398C32.4111 62.1213 32.1729 62.1045 31.933 62.0894C32.0263 61.6149 32.1196 61.1403 32.2146 60.6674C31.1667 60.3974 30.0856 60.3186 29.0261 60.1224C28.0832 59.9313 27.1303 59.7937 26.1708 59.7216C26.1808 59.6261 26.2008 59.4366 26.2108 59.341C26.8471 59.2437 27.4502 59.0123 28.0749 58.8715C29.0377 58.7658 30.0189 58.8429 30.9685 58.6233Z" fill="#6E695F"/>
<path d="M34.4185 58.3482C34.9249 58.3767 35.4314 58.4405 35.9361 58.5059C36.1227 60.7295 35.9844 62.9648 36.1393 65.1901C36.1977 66.0352 36.166 66.8854 36.1593 67.7339C36.186 69.919 36.4242 72.0989 36.4042 74.2856C36.4159 76.1101 36.4192 77.938 36.6141 79.7524C36.9706 79.848 37.3254 79.9469 37.6819 80.0475C37.8718 80.2622 38.0634 80.4768 38.27 80.6797C38.0618 80.7787 37.8552 80.8793 37.6453 80.9799C37.2372 81.166 36.8157 81.3236 36.3992 81.4897C35.9261 80.1263 36.0094 78.6473 35.5296 77.284C35.7412 76.7641 35.8561 76.2074 35.8661 75.6456C35.9011 74.133 35.7529 72.6238 35.6612 71.1163C35.5729 69.7412 35.7795 68.3628 35.6446 66.9894C35.4397 64.7993 35.5363 62.5975 35.4963 60.4041C35.4913 59.5774 34.9099 58.9452 34.4185 58.3482Z" fill="#322F29"/>
<path d="M13.2453 58.5445C13.995 58.6065 14.6696 58.9754 15.4043 59.0928C17.3517 59.1347 19.2991 59.2337 21.2498 59.2085C22.9007 59.351 24.5582 59.237 26.2108 59.341C26.2008 59.4366 26.1808 59.6261 26.1708 59.7216C27.1303 59.7937 28.0832 59.9313 29.0261 60.1224C29.4076 60.6288 29.8757 61.1085 30.0589 61.7339C29.914 62.725 29.2776 63.597 29.276 64.6233C29.2427 65.0324 29.5092 65.3712 29.6991 65.7082C30.2522 65.0324 30.7169 64.2912 31.1617 63.5433C31.6065 64.0146 32.1363 64.4053 32.7643 64.5897C32.8059 65.3041 32.9409 66.0402 32.7476 66.7446C32.5577 67.1738 32.0996 67.3885 31.7531 67.6702C31.7748 67.7306 31.8197 67.848 31.8414 67.9067C32.1629 67.9888 32.4828 68.071 32.8043 68.1548C32.7043 68.8273 32.671 69.5198 32.8759 70.1789C33.0858 70.8429 33.1374 71.5439 33.0358 72.2348C32.8393 73.6534 33.1608 75.0687 33.1574 76.4891C32.8759 75.6305 32.6327 74.5439 31.6881 74.1951C30.9935 73.905 30.3338 73.5243 29.8174 72.9676C30.2672 72.5903 30.7236 72.223 31.1817 71.8575C31.0101 71.7099 30.8369 71.5657 30.6653 71.4232C30.7219 71.1733 30.7802 70.9218 30.8386 70.6752C29.9207 70.5025 28.9844 70.5495 28.0615 70.6434C28.2015 70.9251 28.3431 71.2068 28.4863 71.4886C28.2598 71.6546 28.0332 71.8223 27.8083 71.9916C28.0699 72.4612 28.3214 72.9357 28.5613 73.4187C28.1265 73.5327 27.6934 73.6534 27.2636 73.7893C27.5784 74.3829 28.2298 74.5171 28.8312 74.6344C28.6096 74.8659 28.428 75.2214 28.0765 75.2616C27.6967 75.1258 27.3785 74.8675 27.0487 74.6411C26.8121 74.6898 26.5756 74.7384 26.3407 74.7921C26.1308 70.2795 26.0542 65.7619 25.9226 61.2476C25.8909 60.9005 25.8343 60.5568 25.7793 60.2163C23.9885 60.2633 22.2027 60.0654 20.4202 59.9262C19.559 59.9262 18.7227 60.2398 17.8564 60.1459C16.0207 59.995 14.1799 59.9564 12.3408 59.9078C12.7639 59.5791 13.187 59.2521 13.6118 58.9251C13.4885 58.796 13.3669 58.6702 13.2453 58.5445Z" fill="#5D5A50"/>
<path d="M6.49355 59.4265C6.57018 59.4433 6.72344 59.4785 6.80007 59.4953C7.91787 59.8407 9.13395 59.772 10.2168 60.2281C10.4267 60.7429 10.4333 61.3114 10.4683 61.8614C10.505 63.0218 10.5483 64.1822 10.5566 65.3427C10.2934 65.3796 10.0319 65.4232 9.77032 65.4651C10.0552 65.6663 10.3367 65.8726 10.6199 66.0772C10.5899 66.1761 10.5316 66.3756 10.5016 66.4746C10.0785 66.4763 9.65371 66.4746 9.23058 66.4779C9.63705 67.0431 9.9469 67.6752 10.0768 68.3661C10.2001 68.9933 10.5983 69.5148 10.7932 70.1168C10.8098 70.6065 10.5133 71.0442 10.3467 71.4919C11.1713 72.3337 10.8398 73.6015 11.0131 74.6613C9.74866 74.4282 8.48093 74.2102 7.21321 73.9888L7.20655 73.8278C7.12825 71.9161 7.03163 70.0061 6.92668 68.0961C6.85838 66.5752 6.79341 65.0559 6.67847 63.5383C6.64348 62.3645 6.57685 61.1906 6.51021 60.0185C6.50355 59.8189 6.49689 59.6227 6.49355 59.4265Z" fill="#5B574D"/>
<path d="M17.8564 60.1459C18.7227 60.2398 19.559 59.9262 20.4202 59.9262C22.2027 60.0654 23.9885 60.2633 25.7793 60.2163C25.8343 60.5568 25.8909 60.9005 25.9226 61.2476C25.0913 61.4958 24.6249 62.2739 24.0235 62.8374C23.677 63.208 23.2555 63.5417 23.049 64.0196C22.9557 64.4271 23.004 64.8496 23.0056 65.2638C23.0323 66.0956 22.9007 66.9206 22.9074 67.7507C22.909 69.3002 23.3205 70.8161 23.3321 72.3639C23.3421 73.0414 22.8257 73.5461 22.4509 74.0542C22.7741 74.123 23.0956 74.1934 23.4188 74.2655C23.1972 75.057 22.8757 75.8871 23.1439 76.7138C23.3571 77.4013 23.3688 78.1425 23.0023 78.7831C19.9221 77.5506 16.8403 76.3264 13.7551 75.1073C13.1237 74.8441 12.484 74.6009 11.8327 74.398C11.8793 73.5797 11.891 72.7613 11.8377 71.9447C11.7144 70.0028 11.6744 68.0559 11.5345 66.1157C11.3596 64.0414 11.5345 61.9519 11.2946 59.8793C11.6428 59.8877 11.9926 59.896 12.3408 59.9078C14.1799 59.9564 16.0207 59.995 17.8564 60.1459Z" fill="#424038"/>
<path d="M0 60.8435C0.819607 60.327 1.77915 60.099 2.73869 60.0704C3.99642 60.0268 5.25415 60.0268 6.51021 60.0185C6.57685 61.1906 6.64348 62.3645 6.67847 63.5383C5.78389 63.1895 5.09756 62.4869 4.24796 62.0626C3.33174 61.6484 2.32055 62.0928 1.36934 61.9184C0.784624 61.7675 0.396477 61.2611 0 60.8435Z" fill="black"/>
<path d="M54.4156 67.6233C54.4606 67.5964 54.5522 67.5444 54.5988 67.5176C57.5408 68.1364 60.5476 68.3779 63.4996 68.9447C63.4879 70.0598 63.4929 71.175 63.4896 72.2901C62.4184 72.1895 61.3556 72.0101 60.2994 71.8072C59.6364 70.9637 58.5636 70.6769 57.674 70.1537C57.061 69.7932 56.3813 69.5484 55.6667 69.5266C55.2369 68.9581 54.7704 68.4181 54.2757 67.9083C54.3106 67.8379 54.3806 67.6937 54.4156 67.6233Z" fill="black"/>
<path d="M4.68775 68.1917C5.40408 67.91 6.18537 67.9603 6.92668 68.0961C7.03163 70.0061 7.12825 71.9161 7.20655 73.8278C6.17371 73.5377 5.4857 72.6641 4.67609 72.0184C3.6899 71.1247 2.54711 70.4069 1.6742 69.3891C2.58376 68.7753 3.67657 68.5707 4.68775 68.1917Z" fill="black"/>
<path d="M68.8787 74.8407C70.8277 75.2113 72.8068 75.4176 74.7525 75.8167C74.0612 76.5813 73.2449 77.2169 72.5319 77.9598C72.1704 78.2851 71.8422 78.6942 71.3725 78.8586C70.9793 78.8636 70.5912 78.7831 70.2064 78.7194C70.4812 78.3304 70.7577 77.943 71.0359 77.559C70.3763 77.0827 69.6616 76.6903 68.902 76.4036C68.8837 75.8821 68.877 75.3605 68.8787 74.8407Z" fill="black"/>
<path d="M73.5014 79.2409C74.1645 78.498 74.9108 77.839 75.6254 77.1465C77.3546 78.5115 79.5202 79.147 81.2611 80.4902C78.664 80.1481 76.0885 79.6501 73.5014 79.2409Z" fill="black"/>
<path d="M63.1064 79.417C63.0165 79.1504 63.388 79.0397 63.5562 79.1873C63.5595 79.2946 63.5662 79.5126 63.5695 79.6199C63.363 79.6602 63.208 79.5914 63.1064 79.417Z" fill="black"/>
<path d="M76.3467 81.4846C77.0481 81.5819 77.7527 81.6557 78.4524 81.7764C83.3534 82.6199 88.2594 83.4366 93.1687 84.2432C94.2931 84.4477 95.4226 84.6272 96.5437 84.8535C96.5571 85.806 96.5537 86.7585 96.5137 87.711C95.4193 87.5584 94.3298 87.3656 93.2403 87.1861C89.647 86.5355 86.0471 85.9335 82.4505 85.3063C78.0926 84.5987 73.7513 83.7837 69.3917 83.0861C69.6433 82.8463 69.8932 82.6065 70.1431 82.3667C72.1104 82.9553 74.1678 83.1263 76.1752 83.5254C77.5412 83.7099 78.8839 84.1526 80.2765 84.0587C79.1204 82.9653 77.5245 82.5495 76.3467 81.4846Z" fill="black"/>
<path d="M85.7572 87.6238C88.1877 88.0447 90.6199 88.4572 93.0471 88.9033C93.8317 89.0542 94.6246 89.1733 95.4126 89.3141C95.7324 89.3829 96.1056 89.4231 96.3105 89.7183C96.6553 90.1409 97.0385 90.5316 97.3733 90.9659C97.5649 91.8949 97.4183 92.8608 97.41 93.8049C97.4066 93.8888 97.4 94.0531 97.3967 94.1369C95.5442 93.0503 93.6401 92.0542 91.7777 90.9877C91.0564 90.5668 90.2384 90.3874 89.4655 90.104C88.8074 89.8055 88.5209 89.0223 87.8446 88.7423C87.1099 88.422 86.3136 88.2912 85.5407 88.1001C85.5956 87.981 85.7023 87.7429 85.7572 87.6238Z" fill="black"/>
<path d="M29.0261 60.1224C30.0856 60.3186 31.1667 60.3974 32.2146 60.6674C32.1196 61.1403 32.0263 61.6149 31.933 62.0894C32.1729 62.1045 32.4111 62.1213 32.651 62.1398C32.6927 62.9564 32.7143 63.7731 32.7643 64.5897C32.1363 64.4053 31.6065 64.0146 31.1617 63.5433C30.7169 64.2912 30.2522 65.0324 29.6991 65.7082C29.5092 65.3712 29.2427 65.0324 29.276 64.6233C29.2776 63.597 29.914 62.725 30.0589 61.7339C29.8757 61.1085 29.4076 60.6288 29.0261 60.1224Z" fill="#545046"/>
<path d="M24.0235 62.8374C24.6249 62.2739 25.0913 61.4958 25.9226 61.2476C26.0542 65.7619 26.1308 70.2795 26.3407 74.7921C26.3257 76.8228 26.4806 78.8468 26.5306 80.8759C26.484 80.611 26.4257 80.351 26.3674 80.0911C25.4311 79.7172 24.4949 79.3432 23.5487 78.9994C23.3655 78.9257 23.1839 78.8552 23.0023 78.7831C23.3688 78.1425 23.3571 77.4013 23.1439 76.7138C22.8757 75.8871 23.1972 75.057 23.4188 74.2655C23.0956 74.1934 22.7741 74.123 22.4509 74.0542C22.8257 73.5461 23.3421 73.0414 23.3321 72.3639C23.3205 70.8161 22.909 69.3002 22.9074 67.7507C22.9007 66.9206 23.0323 66.0956 23.0056 65.2638C23.004 64.8496 22.9557 64.4271 23.049 64.0196C23.2555 63.5417 23.677 63.208 24.0235 62.8374Z" fill="#2F2E28"/>
<path d="M102.143 65.3309C102.697 65.0006 103.099 64.4908 103.449 63.9575C103.492 64.3734 103.592 64.7943 103.535 65.2152C103.389 65.6848 103.034 66.0688 102.934 66.5534C103.014 67.1722 103.459 67.6518 103.807 68.1414C103.99 67.9251 104.173 67.7105 104.358 67.4942C104.545 67.7591 104.731 68.0257 104.921 68.2923C105.06 67.7624 105.211 67.2359 105.316 66.6976C105.31 67.635 105.509 68.73 104.773 69.4612C104.322 69.3974 103.872 69.2633 103.415 69.3035C103.016 69.4863 102.692 69.8032 102.288 69.9743C101.77 70.1017 101.231 70.033 100.707 70.033C100.615 70.3181 100.527 70.6065 100.437 70.8949C101.476 70.6199 102.561 70.6384 103.615 70.8161C102.951 71.5288 103.71 72.5215 103.232 73.2996C102.762 74.2588 102.081 75.1861 102.056 76.2979C102.021 76.6199 102.274 76.8496 102.536 76.9855C103.465 76.2862 103.979 75.1895 104.755 74.341C104.88 74.9732 104.941 75.6171 104.945 76.261C105.208 76.0984 105.471 75.9374 105.736 75.7764C106.003 76.1604 106.271 76.5428 106.547 76.9201C106.434 77.4181 106.361 77.943 106.101 78.3924C105.631 78.592 105.11 78.5517 104.613 78.5685C104.723 78.9609 104.831 79.3516 104.94 79.7473C105.453 79.8127 105.968 79.8815 106.482 79.9486C106.294 80.5388 106.041 81.1224 105.991 81.7479C106.051 82.3013 106.457 82.7624 106.479 83.3292C106.489 83.668 106.446 84.0067 106.419 84.3454C106.274 85.5998 106.531 86.953 105.856 88.0933C105.974 88.4405 106.101 88.7859 106.202 89.1414C105.789 88.9134 105.373 88.6954 104.948 88.4941C104.063 88.9284 103.064 88.7406 102.123 88.8563C102.246 89.5405 102.481 90.1945 102.717 90.8468C102.946 91.4656 102.862 92.133 102.819 92.7753C102.489 92.6814 102.059 92.725 101.821 92.4483C101.721 91.8798 101.916 91.3063 101.845 90.7345C101.745 89.943 101.461 89.19 101.235 88.4304C101.593 88.479 101.958 88.5847 102.324 88.5411C102.771 88.3901 103.121 88.0363 103.572 87.8955C103.944 87.8535 104.313 87.9542 104.683 88.0045C104.675 87.9072 104.66 87.7127 104.653 87.6171C103.859 86.7786 103.081 85.9134 102.453 84.9407C101.875 84.0604 102.254 82.8312 101.52 82.0296C101.123 81.5953 100.66 81.0855 100.03 81.0755C99.3224 81.052 98.6127 81.0688 97.9131 80.9497C97.8748 80.6177 97.8364 80.289 97.8131 79.9603C97.9464 76.9083 97.8231 73.8496 98.043 70.8027C98.1746 70.3784 98.3462 69.9676 98.4795 69.545C98.8293 69.4058 99.1808 69.2666 99.529 69.1174C99.7922 69.0017 100.054 68.8826 100.312 68.7552C100.882 68.8441 101.455 68.9094 102.029 68.9631C102.033 68.564 102.038 68.1666 102.043 67.7691C102.036 66.9542 102.089 66.1425 102.143 65.3309Z" fill="#5F5A51"/>
<path d="M38.5399 65.2035C42.9977 65.7418 47.4123 66.5953 51.8701 67.1202C52.21 67.5579 52.5382 68.0039 52.8713 68.4483L52.9513 68.554C51.5953 68.5657 50.3026 68.1196 48.9915 67.8413C46.6593 67.3332 44.3371 66.7848 41.9949 66.327C40.8421 66.0855 39.671 65.9178 38.5432 65.569C38.5432 65.4785 38.5415 65.2957 38.5399 65.2035Z" fill="black"/>
<path d="M63.7761 66.5936C64.3875 66.2666 65.1005 66.3253 65.7618 66.4226C65.8118 66.9475 65.8251 67.4757 65.7951 68.0039C65.5153 69.1727 65.6052 70.3767 65.5702 71.5674C65.3337 71.5506 65.0988 71.5355 64.8656 71.5238C64.7673 70.6836 64.744 69.8351 64.8056 68.9916C64.8273 68.4148 64.9022 67.8161 64.7173 67.2594C64.4624 66.9626 64.1026 66.7915 63.7761 66.5936Z" fill="#73614C"/>
<path d="M51.8701 67.1202C52.788 67.1839 53.7009 67.308 54.5988 67.5176C54.5522 67.5444 54.4606 67.5964 54.4156 67.6233C54.3806 67.6937 54.3106 67.8379 54.2757 67.9083C53.8125 68.1012 53.3411 68.2739 52.8713 68.4483C52.5382 68.0039 52.21 67.5579 51.8701 67.1202Z" fill="#4B3E2F"/>
<path d="M100.312 68.7552C100.9 68.4466 101.473 68.1129 102.043 67.7691C102.038 68.1666 102.033 68.564 102.029 68.9631C101.455 68.9094 100.882 68.8441 100.312 68.7552Z" fill="#323433"/>
<path d="M65.5702 71.5674C65.6052 70.3767 65.5153 69.1727 65.7951 68.0039C65.8168 68.943 65.7685 69.9022 65.995 70.8211C66.2233 71.5472 66.9529 71.8591 67.6076 72.0906C67.6409 72.2314 67.6742 72.374 67.7092 72.5182C67.2578 72.4964 66.8063 72.4695 66.3582 72.5115L66.2416 72.5265C66.165 72.5349 66.0117 72.5534 65.9351 72.5634C66 75.0906 65.8968 77.6193 65.9784 80.1464C66.0817 81.5467 66.075 82.9519 66.065 84.3555C65.9151 84.4293 65.7668 84.5014 65.6169 84.5752C65.5652 81.3706 65.6302 78.1643 65.6102 74.9598C65.5969 74.3745 65.5419 73.791 65.4503 73.2141C65.407 72.9626 65.357 72.7161 65.307 72.4695C64.764 72.3052 64.2559 72.0252 63.9927 71.4986C64.2825 71.5003 64.574 71.5087 64.8656 71.5238C65.0988 71.5355 65.3337 71.5506 65.5702 71.5674Z" fill="#212225"/>
<path d="M106.924 68.4014C108.233 68.5992 109.544 68.787 110.859 68.9648C110.857 69.6255 110.825 70.2879 110.807 70.9503C119.516 72.82 128.252 74.5741 136.963 76.4388C136.916 76.7809 136.819 77.1314 136.869 77.4818C137.193 77.9279 137.757 78.1794 137.996 78.6892C137.946 79.2543 137.671 79.7641 137.481 80.2907C138.26 79.6367 138.545 78.5785 139.325 77.9396C139.711 77.5825 140.121 78.0352 140.481 78.2063C140.224 78.4041 139.973 78.6037 139.718 78.8033C139.963 79.1521 140.266 79.4824 140.384 79.905C140.486 80.4651 140.443 81.0403 140.469 81.6087C140.748 81.2935 141.102 81.0151 141.237 80.6009C141.387 80.1196 141.442 79.6132 141.61 79.1386C141.864 79.3197 142.107 79.5226 142.352 79.7205C142.755 79.4438 143.208 79.2594 143.681 79.1403C142.925 79.028 142.177 78.872 141.429 78.7194C142.164 78.5936 142.873 78.3203 143.435 77.8122C144.226 77.8893 144.996 78.0989 145.775 78.2566C146.372 78.4142 146.928 77.9748 147.528 78.0939C149.348 78.3656 151.171 78.6372 153 78.867C152.773 83.3309 152.384 87.7848 152.115 92.2454C151.982 93.6741 151.957 95.1146 151.782 96.5366C151.061 97.4472 150.195 98.2487 149.31 99C149.408 98.3141 149.583 97.645 149.703 96.9642C149.853 96.1006 149.567 95.2253 149.745 94.3633C149.891 93.4679 150.333 92.6126 150.243 91.687C150.178 90.7747 149.8 89.9346 149.418 89.123C149.931 88.4975 150.133 87.6942 150.113 86.8927C150.083 85.9754 150.105 85.0565 150.231 84.1476C150.37 83.1582 149.985 82.1319 150.393 81.1811C149.358 81.1157 148.304 80.8625 147.493 80.18C147.139 80.289 146.788 80.4349 146.416 80.4466C145.96 80.2689 145.68 79.8295 145.36 79.4807C144.844 79.7691 144.302 80.0106 143.754 80.2303C143.664 80.3678 143.573 80.507 143.483 80.6462C143.176 81.0973 142.8 81.5198 142.628 82.0464C142.578 82.5176 142.732 82.9804 142.807 83.4433C142.585 83.9681 142.505 84.5349 142.492 85.1034C142.473 85.8228 142.035 86.4852 142.159 87.2163C142.249 87.8938 142.335 88.5797 142.25 89.2638C142.067 90.7781 142.1 92.3175 141.764 93.8116C141.594 94.4874 141.277 95.123 140.813 95.6428C140.401 94.7557 139.606 94.1118 138.695 93.8032C138.399 93.7546 138.117 93.929 137.841 94.0078C137.464 93.4628 137.088 92.9178 136.693 92.3896C136.961 92.2957 137.231 92.2018 137.504 92.1112C137.461 91.8597 137.417 91.6115 137.374 91.365C136.689 91.308 136.008 91.2292 135.328 91.137C135.425 89.9614 136.541 89.2705 136.749 88.1319C136.375 88.256 136.001 88.3868 135.63 88.5176C135.62 88.1638 135.607 87.8133 135.602 87.4628C135.278 87.3907 134.955 87.3203 134.637 87.2499C134.922 86.3393 135.472 85.5478 136.133 84.8737C135.094 84.7546 134.144 84.2935 133.299 83.6914C132.398 84.5919 131.833 85.7557 130.976 86.6915C130.562 86.4148 130.154 86.1314 129.751 85.8429C129.869 85.2191 129.916 84.5852 129.994 83.9581C130.048 83.4483 130.331 83.0089 130.486 82.531C130.231 82.1889 129.886 81.9324 129.566 81.659C129.426 81.8837 129.288 82.1118 129.153 82.3415C129.066 81.9844 129 81.6238 128.923 81.2666C128.417 81.6423 127.829 81.8703 127.219 82.0045C126.483 82.0816 126.468 83.2337 125.683 83.1783C124.634 83.1314 124.212 81.9793 123.416 81.4779C122.949 81.3706 122.463 81.5031 122.017 81.6406C121.3 81.82 121.457 82.749 121.109 83.2655C120.882 83.4198 120.621 83.5103 120.372 83.6244C120.259 83.0106 120.164 82.3969 120.082 81.7798C119.658 81.7278 119.191 81.7747 118.813 81.545C118.423 81.2398 118.132 80.7921 118.032 80.3058C117.992 79.8999 118.202 79.5277 118.325 79.1554C118.98 79.2627 119.634 79.3633 120.289 79.4774C119.974 79.9771 119.614 80.4466 119.22 80.8843C119.963 80.9799 120.71 81.1979 121.465 81.0872C122.18 80.9027 122.764 80.4215 123.374 80.0274C123.646 80.3963 123.891 80.8088 124.279 81.0721C124.694 81.327 125.173 81.4494 125.636 81.592C126.244 81.1073 126.992 80.8726 127.76 80.8239C127.722 80.4181 127.827 79.8647 127.401 79.635C126.977 79.5277 126.539 79.5797 126.111 79.588C126.166 78.7848 126.085 77.9799 125.895 77.1984C125.338 78.2784 124.254 78.8586 123.344 79.5864C122.966 79.5076 122.59 79.4287 122.213 79.3549C122.033 79.8781 121.755 80.3812 121.225 80.6093C121.085 79.962 120.935 79.3197 120.759 78.6825C121.265 78.6138 121.79 78.5735 122.285 78.7379C122.658 78.8083 123.104 79.0464 123.439 78.7446C124.062 78.2348 124.35 77.4466 124.729 76.7574C124.309 76.4606 123.876 76.1889 123.431 75.9374C123.502 75.7647 123.574 75.5936 123.647 75.4259C123.083 75.2113 122.533 74.9564 122.027 74.6277C121.82 74.6898 121.625 74.7803 121.42 74.844C121.51 75.6959 121.592 76.5512 121.655 77.4064C121.25 77.4198 120.835 77.4835 120.436 77.3913C119.931 77.0576 119.591 76.5344 119.193 76.09C118.915 76.4489 118.631 76.8027 118.35 77.1582C118.283 76.1856 118.382 75.213 118.468 74.2454C117.88 74.2035 117.25 74.2437 116.717 73.9486C116.189 73.6283 115.891 73.0615 115.57 72.5551C114.853 72.6037 114.174 72.8385 113.506 73.085C113.029 73.2778 112.536 73.0447 112.076 72.9223C111.107 72.6071 110.092 72.4746 109.089 72.3102C108.51 72.2297 107.88 72.1459 107.337 72.4176C107.034 72.758 107.159 73.251 107.167 73.6652C107.29 74.7468 107.065 75.8217 106.985 76.8983C106.839 76.9033 106.692 76.9117 106.547 76.9201C106.8 75.4427 106.534 73.9402 106.772 72.4628C106.437 72.6808 106.101 72.8955 105.766 73.1118C105.801 72.5081 105.836 71.9044 105.871 71.3007C105.125 71.1129 104.375 70.9368 103.615 70.8161C102.561 70.6384 101.476 70.6199 100.437 70.8949C100.527 70.6065 100.615 70.3181 100.707 70.033C101.231 70.033 101.77 70.1017 102.288 69.9743C102.692 69.8032 103.016 69.4863 103.415 69.3035C103.872 69.2633 104.322 69.3974 104.773 69.4612C105.751 69.5735 106.731 69.6792 107.698 69.867C107.738 69.8049 107.82 69.6792 107.86 69.6171C107.525 69.2297 107.185 68.8424 106.924 68.4014Z" fill="#6C675D"/>
<path d="M28.0615 70.6434C28.9844 70.5495 29.9207 70.5025 30.8386 70.6752C30.7802 70.9218 30.7219 71.1733 30.6653 71.4232C30.8369 71.5657 31.0101 71.7099 31.1817 71.8575C30.7236 72.223 30.2672 72.5903 29.8174 72.9676C30.3338 73.5243 30.9935 73.905 31.6881 74.1951C32.6327 74.5439 32.8759 75.6305 33.1574 76.4891C33.1774 77.3527 33.1658 78.218 33.2124 79.0816C33.2774 80.3058 33.1075 81.5618 33.4623 82.754L33.4856 82.8513C31.1917 82.4455 28.8995 82.0246 26.6072 81.6054C26.6006 81.54 26.5873 81.4092 26.5806 81.3438C26.5673 81.2264 26.5439 80.9933 26.5306 80.8759C26.4806 78.8468 26.3257 76.8228 26.3407 74.7921C26.5756 74.7384 26.8121 74.6898 27.0487 74.6411C27.3785 74.8675 27.6967 75.1258 28.0765 75.2616C28.428 75.2214 28.6096 74.8659 28.8312 74.6344C28.2298 74.5171 27.5784 74.3829 27.2636 73.7893C27.6934 73.6534 28.1265 73.5327 28.5613 73.4187C28.3214 72.9357 28.0699 72.4612 27.8083 71.9916C28.0332 71.8223 28.2598 71.6546 28.4863 71.4886C28.3431 71.2068 28.2015 70.9251 28.0615 70.6434Z" fill="#57534A"/>
<path d="M96.8769 70.9285C97.2717 70.7792 97.6682 70.6333 98.0663 70.4908C98.0597 70.5679 98.0497 70.7256 98.043 70.8027C97.8231 73.8496 97.9464 76.9083 97.8131 79.9603C97.7282 81.2968 97.7432 82.6383 97.6699 83.9765C97.5366 85.7373 97.7282 87.5014 97.5766 89.2622C97.5216 90.7764 97.5432 92.294 97.41 93.8049C97.4183 92.8608 97.5649 91.8949 97.3733 90.9659C97.0385 90.5316 96.6553 90.1409 96.3105 89.7183C96.1056 89.4231 95.7324 89.3829 95.4126 89.3141C94.6246 89.1733 93.8317 89.0542 93.0471 88.9033C93.1204 88.3315 93.182 87.758 93.2403 87.1861C94.3298 87.3656 95.4193 87.5584 96.5137 87.711C96.5537 86.7585 96.5571 85.806 96.5437 84.8535C95.4226 84.6272 94.2931 84.4477 93.1687 84.2432C93.1837 83.6646 93.1987 83.0878 93.2137 82.5109C94.3531 82.6954 95.4876 82.9117 96.637 83.0291C96.6304 81.7898 96.6503 80.5506 96.702 79.3147C95.5026 79.0933 94.2965 78.9206 93.0937 78.7328C93.3303 78.1861 93.4036 77.5925 93.4002 77.0022C94.4947 77.1666 95.5859 77.3494 96.6837 77.4952C96.7953 76.3164 96.8119 75.1325 96.747 73.9519C95.7841 73.7809 94.8162 73.6451 93.85 73.5042C94.583 73.1889 95.3476 72.7781 95.6641 71.9916C96.0606 72.0453 96.4588 72.0939 96.8586 72.1459C96.8636 71.7384 96.8686 71.3326 96.8769 70.9285Z" fill="#342C20"/>
<path d="M103.615 70.8161C104.375 70.9368 105.125 71.1129 105.871 71.3007C105.836 71.9044 105.801 72.5081 105.766 73.1118C106.101 72.8955 106.437 72.6808 106.772 72.4628C106.534 73.9402 106.8 75.4427 106.547 76.9201C106.271 76.5428 106.003 76.1604 105.736 75.7764C105.471 75.9374 105.208 76.0984 104.945 76.261C104.941 75.6171 104.88 74.9732 104.755 74.341C103.979 75.1895 103.465 76.2862 102.536 76.9855C102.274 76.8496 102.021 76.6199 102.056 76.2979C102.081 75.1861 102.762 74.2588 103.232 73.2996C103.71 72.5215 102.951 71.5288 103.615 70.8161Z" fill="#544F46"/>
<path d="M79.4319 71.2705C80.1116 71.3242 80.7846 71.4449 81.451 71.5942C81.1344 71.9195 80.8129 72.2398 80.4848 72.5534C80.0566 72.1191 79.4736 71.943 78.8855 71.8809C79.0721 71.6814 79.252 71.4751 79.4319 71.2705Z" fill="#473A2B"/>
<path d="M107.337 72.4176C107.88 72.1459 108.51 72.2297 109.089 72.3102C110.092 72.4746 111.107 72.6071 112.076 72.9223C112.536 73.0447 113.029 73.2778 113.506 73.085C114.174 72.8385 114.853 72.6037 115.57 72.5551C115.891 73.0615 116.189 73.6283 116.717 73.9486C117.25 74.2437 117.88 74.2035 118.468 74.2454C118.382 75.213 118.283 76.1856 118.35 77.1582C118.631 76.8027 118.915 76.4489 119.193 76.09C119.591 76.5344 119.931 77.0576 120.436 77.3913C120.835 77.4835 121.25 77.4198 121.655 77.4064C121.592 76.5512 121.51 75.6959 121.42 74.844C121.625 74.7803 121.82 74.6898 122.027 74.6277C122.533 74.9564 123.083 75.2113 123.647 75.4259C123.574 75.5936 123.502 75.7647 123.431 75.9374C123.876 76.1889 124.309 76.4606 124.729 76.7574C124.35 77.4466 124.062 78.2348 123.439 78.7446C123.104 79.0464 122.658 78.8083 122.285 78.7379C121.79 78.5735 121.265 78.6138 120.759 78.6825C120.935 79.3197 121.085 79.962 121.225 80.6093C121.755 80.3812 122.033 79.8781 122.213 79.3549C122.59 79.4287 122.966 79.5076 123.344 79.5864C124.254 78.8586 125.338 78.2784 125.895 77.1984C126.085 77.9799 126.166 78.7848 126.111 79.588C126.539 79.5797 126.977 79.5277 127.401 79.635C127.827 79.8647 127.722 80.4181 127.76 80.8239C126.992 80.8726 126.244 81.1073 125.636 81.592C125.173 81.4494 124.694 81.327 124.279 81.0721C123.891 80.8088 123.646 80.3963 123.374 80.0274C122.764 80.4215 122.18 80.9027 121.465 81.0872C120.71 81.1979 119.963 80.9799 119.22 80.8843C119.614 80.4466 119.974 79.9771 120.289 79.4774C119.634 79.3633 118.98 79.2627 118.325 79.1554C118.202 79.5277 117.992 79.8999 118.032 80.3058C118.132 80.7921 118.423 81.2398 118.813 81.545C119.191 81.7747 119.658 81.7278 120.082 81.7798C120.164 82.3969 120.259 83.0106 120.372 83.6244C119.776 83.0878 119.183 82.5495 118.628 81.9693C118.115 81.9424 117.61 81.8435 117.141 81.6372C117.32 81.3287 117.505 81.0218 117.69 80.7166C117.257 80.5573 116.791 80.2219 116.323 80.4449C115.341 80.8206 114.602 81.6339 114.127 82.5545C114.192 81.8418 114.21 81.1274 114.177 80.4131C113.396 80.9547 113.401 81.9491 113.206 82.7842C113.084 82.2946 112.871 81.7848 113.012 81.2767C113.219 80.5355 113.719 79.9335 114.179 79.3382C114.598 79.5998 115.02 79.8597 115.445 80.1163C115.556 79.8463 115.695 79.5813 115.751 79.2929C115.513 78.8133 115.083 78.4511 114.9 77.9447C114.873 77.3242 115.23 76.5981 115.871 76.4472C116.148 76.3633 116.431 76.3113 116.714 76.2527C116.489 75.9793 116.266 75.7077 116.038 75.441C116.399 75.4611 116.761 75.4427 117.117 75.3723C116.341 74.7166 115.776 73.8714 115.201 73.0447C114.928 73.9385 114.895 74.8726 114.98 75.7982C115.097 76.7675 114.092 77.9027 113.101 77.4433C113.534 77.024 114.069 76.6819 114.374 76.1487C114.567 75.659 114.517 75.1174 114.543 74.6026C114.295 74.668 114.05 74.7384 113.805 74.8088C113.784 75.1979 113.824 75.6087 113.689 75.9844C113.527 76.2493 113.296 76.4606 113.087 76.687C112.841 76.5159 112.598 76.3499 112.354 76.1822C112.033 76.4002 111.711 76.6165 111.387 76.8278C111.465 76.1789 111.64 75.5383 112 74.9883C112.15 75.1425 112.3 75.3002 112.451 75.4611C112.573 75.2482 112.694 75.0386 112.819 74.8306C112.348 74.5456 111.881 74.2538 111.42 73.9519C110.987 74.4818 110.977 75.1593 110.948 75.8083C110.121 75.9458 109.269 75.8183 108.443 75.9894C108.924 76.3918 109.484 76.6819 109.987 77.0542C110.222 77.1968 110.284 77.6093 110.036 77.7719C109.579 78.1157 109.063 78.3672 108.578 78.6674C109.146 79.1151 109.831 79.3583 110.542 79.4556C110.001 79.5511 109.468 79.6819 108.941 79.8362C109.203 80.2873 109.508 80.7116 109.851 81.1056C109.279 81.1325 108.708 81.171 108.138 81.213C108.11 81.9793 108.403 82.6937 108.776 83.346C108.52 83.8658 108.17 84.3941 108.225 85.0028C108.263 85.5813 108.403 86.1481 108.5 86.7199C108.966 86.123 109.699 85.8614 110.245 85.37C110.57 84.7496 110.31 84.0268 110.232 83.3779C110.604 83.4651 110.977 83.5523 111.35 83.6411C111.553 83.4533 111.756 83.2655 111.961 83.081C112.418 83.4785 112.856 83.8994 113.264 84.3505C112.986 84.7663 112.763 85.2191 112.598 85.6954C113.046 85.7826 113.492 85.8714 113.94 85.9687C113.309 87.3404 111.626 87.3589 110.459 88.0246C110.857 88.9536 111.986 88.8798 112.788 89.2236C112.056 89.8239 110.844 90.104 110.692 91.1889C111.003 91.4237 111.368 91.583 111.67 91.8379C111.763 92.0676 111.786 92.3192 111.831 92.5657C112.068 92.1749 112.329 91.7993 112.618 91.4472C112.669 92.0676 112.394 92.626 112.066 93.1291C112.589 93.2616 113.151 93.327 113.622 93.6137C113.769 93.8921 113.827 94.2057 113.912 94.5092C114.44 94.6216 115.073 94.8194 115.545 94.4421C115.884 93.929 115.948 93.2884 116.236 92.7501C116.526 92.6294 116.837 92.5791 117.146 92.5137C117.21 92.73 117.279 92.9514 117.347 93.1727C117.129 93.4192 116.899 93.6573 116.729 93.9424C116.966 94.5897 117.354 95.1682 117.634 95.7988C114.922 95.6914 112.211 95.5338 109.506 95.3326C109.639 94.9368 109.774 94.5428 109.912 94.152C110.47 94.2694 111.052 94.427 111.621 94.2795C111.93 94.1973 111.961 93.8133 112.108 93.5752C111.68 93.4947 111.207 93.5182 110.827 93.2784C110.364 92.8927 110.101 92.3326 109.727 91.8698C109.293 91.204 108.355 91.536 107.762 91.1621C107.365 90.6691 107.204 90.0369 106.97 89.4584C107.229 89.2001 107.528 88.9419 107.622 88.5713C107.74 88.0866 107.63 87.5886 107.582 87.104C107.497 86.4768 107.537 85.8413 107.472 85.2141C107.427 84.7647 107.075 84.4444 106.825 84.1006C106.687 84.1811 106.552 84.2616 106.419 84.3454C106.446 84.0067 106.489 83.668 106.479 83.3292C106.457 82.7624 106.051 82.3013 105.991 81.7479C106.041 81.1224 106.294 80.5388 106.482 79.9486C105.968 79.8815 105.453 79.8127 104.94 79.7473C104.831 79.3516 104.723 78.9609 104.613 78.5685C105.11 78.5517 105.631 78.592 106.101 78.3924C106.361 77.943 106.434 77.4181 106.547 76.9201C106.692 76.9117 106.839 76.9033 106.985 76.8983C107.065 75.8217 107.29 74.7468 107.167 73.6652C107.159 73.251 107.034 72.758 107.337 72.4176Z" fill="#656055"/>
<path d="M65.9351 72.5634C66.0117 72.5534 66.165 72.5349 66.2416 72.5265C66.2882 74.123 66.135 75.716 66.1583 77.3125C66.1616 78.597 66.1666 79.8815 66.1899 81.166C66.2149 82.4707 66.12 83.7854 66.3082 85.0833C66.3499 85.1168 66.4315 85.1839 66.4731 85.2174C66.5364 85.2342 66.6614 85.2677 66.7247 85.2845C67.0012 85.6685 67.3694 86.0022 67.8608 86.0542C73.0483 86.9614 78.2342 87.9005 83.42 88.8228C84.9809 89.0811 86.5269 89.5003 88.1178 89.5003C87.6463 88.9838 86.9966 88.7021 86.3136 88.6216C81.296 87.7915 76.2984 86.8457 71.2892 85.9754C70.1864 85.8111 69.1019 85.5578 68.0074 85.3549C68.4922 85.033 69.0203 84.6137 69.6433 84.7697C75.0107 85.7339 80.3898 86.6462 85.7572 87.6238C85.7023 87.7429 85.5956 87.981 85.5407 88.1001C86.3136 88.2912 87.1099 88.422 87.8446 88.7423C88.5209 89.0223 88.8074 89.8055 89.4655 90.104C90.2384 90.3874 91.0564 90.5668 91.7777 90.9877C93.6401 92.0542 95.5442 93.0503 97.3967 94.1369C97.3967 94.2124 97.395 94.3667 97.395 94.4438C96.1423 93.8971 95.0045 93.1258 93.79 92.507C92.3391 91.7591 90.9897 90.6976 89.3355 90.4578C82.3039 89.2404 75.2872 87.9424 68.2606 86.6898C67.531 86.5338 66.788 86.6227 66.0517 86.6596C65.2154 86.7166 64.4991 86.1179 63.6628 86.1682C63.0664 86.1951 62.4667 86.1096 61.9353 85.8228C60.7859 85.2258 59.4782 85.1504 58.2338 84.8871C55.3501 84.4092 52.4815 83.839 49.6012 83.3443C46.601 82.754 43.5724 82.3113 40.5772 81.6976C39.5894 81.5064 38.5349 81.5115 37.6453 80.9799C37.8552 80.8793 38.0618 80.7787 38.27 80.6797L38.3849 80.7283C39.5427 81.0939 40.7571 81.2096 41.9482 81.431C46.4811 82.2376 51.0122 83.0609 55.5484 83.8575C56.6195 84.0671 57.6973 84.2935 58.7952 84.2834C58.2754 83.8508 57.6624 83.5355 56.9927 83.4282C50.7823 82.3449 44.582 81.1912 38.3633 80.1448C38.3583 80.0626 38.35 79.9 38.345 79.8178C39.2245 79.152 40.314 79.6669 41.2785 79.7909C48.4584 81.0319 55.6233 82.3633 62.8082 83.5724C63.0598 83.611 63.3113 83.6529 63.5645 83.6948C63.5662 84.0134 63.5762 84.332 63.5862 84.654C63.9693 84.7227 64.3525 84.7982 64.739 84.8535C65.0388 84.7865 65.3337 84.6942 65.6169 84.5752C65.7668 84.5014 65.9151 84.4293 66.065 84.3555C66.075 82.9519 66.0817 81.5467 65.9784 80.1464C65.8968 77.6193 66 75.0906 65.9351 72.5634Z" fill="black"/>
<path d="M64.9938 73.1873C65.1088 73.194 65.337 73.2074 65.4503 73.2141C65.5419 73.791 65.5969 74.3745 65.6102 74.9598C65.6302 78.1643 65.5652 81.3706 65.6169 84.5752C65.3337 84.6942 65.0388 84.7865 64.739 84.8535C64.8872 82.5042 64.6907 80.1481 64.8672 77.8004C65.0005 76.2644 64.8256 74.72 64.9938 73.1873Z" fill="#705E49"/>
<path d="M115.201 73.0447C115.776 73.8714 116.341 74.7166 117.117 75.3723C116.761 75.4427 116.399 75.4611 116.038 75.441C116.266 75.7077 116.489 75.9793 116.714 76.2527C116.431 76.3113 116.148 76.3633 115.871 76.4472C115.23 76.5981 114.873 77.3242 114.9 77.9447C115.083 78.4511 115.513 78.8133 115.751 79.2929C115.695 79.5813 115.556 79.8463 115.445 80.1163C115.02 79.8597 114.598 79.5998 114.179 79.3382C113.719 79.9335 113.219 80.5355 113.012 81.2767C112.871 81.7848 113.084 82.2946 113.206 82.7842C113.401 81.9491 113.396 80.9547 114.177 80.4131C114.21 81.1274 114.192 81.8418 114.127 82.5545C114.602 81.6339 115.341 80.8206 116.323 80.4449C116.791 80.2219 117.257 80.5573 117.69 80.7166C117.505 81.0218 117.32 81.3287 117.141 81.6372C117.61 81.8435 118.115 81.9424 118.628 81.9693C119.183 82.5495 119.776 83.0878 120.372 83.6244C120.995 84.493 120.614 85.5998 120.827 86.5707C120.917 86.8055 121.189 86.7434 121.383 86.7267C121.848 86.6545 122.301 86.5187 122.756 86.4013C122.693 86.6244 122.63 86.8474 122.566 87.0721C123.066 87.0939 123.566 87.1207 124.066 87.161C123.642 87.5316 123.253 88.0128 122.691 88.1654C122.053 88.0967 121.827 87.3823 121.513 86.9229C121.137 87.4142 120.882 87.9793 120.659 88.5545C120.457 89.1213 119.931 89.455 119.486 89.8122C119.918 90.7227 120.431 91.5897 120.922 92.4684C121.262 92.2152 121.6 91.9603 121.937 91.7054C122.195 91.7976 122.455 91.8932 122.715 91.9888C122.883 91.2174 123.028 90.3756 123.614 89.7988C124.27 89.0676 125.407 89.18 126.24 89.4986C127.089 89.8038 127.456 90.6791 127.965 91.3466C128.853 91.3214 129.601 90.7328 130.148 90.0738C130.298 90.2012 130.446 90.3303 130.597 90.4628C129.853 90.9592 129.003 91.2845 128.292 91.8329C127.687 92.2873 127.537 93.0771 127.097 93.654C126.689 94.0766 126.183 94.3818 125.733 94.7557C125.991 94.967 126.233 95.2219 126.544 95.3628C126.936 95.3477 127.311 95.2135 127.685 95.1079C127.757 94.692 127.715 94.2074 127.979 93.8586C128.597 93.5668 129.343 93.6942 129.938 93.337C130.399 92.9514 130.401 92.2605 130.796 91.8278C131.167 91.5713 131.625 91.5142 132.053 91.412C131.93 92.3544 131.122 92.9061 130.641 93.6456C130.657 94.1353 131.19 94.3767 131.5 94.6903C131.805 94.5243 132.113 94.365 132.423 94.2057C132.605 94.6132 133.076 95.123 132.68 95.5523C132.225 95.7468 131.724 95.777 131.244 95.8507C131.214 96.0989 131.185 96.3488 131.159 96.602C126.649 96.3739 122.138 96.1123 117.634 95.7988C117.354 95.1682 116.966 94.5897 116.729 93.9424C116.899 93.6573 117.129 93.4192 117.347 93.1727C117.279 92.9514 117.21 92.73 117.146 92.5137C116.837 92.5791 116.526 92.6294 116.236 92.7501C115.948 93.2884 115.884 93.929 115.545 94.4421C115.073 94.8194 114.44 94.6216 113.912 94.5092C113.827 94.2057 113.769 93.8921 113.622 93.6137C113.151 93.327 112.589 93.2616 112.066 93.1291C112.394 92.626 112.669 92.0676 112.618 91.4472C112.329 91.7993 112.068 92.1749 111.831 92.5657C111.786 92.3192 111.763 92.0676 111.67 91.8379C111.368 91.583 111.003 91.4237 110.692 91.1889C110.844 90.104 112.056 89.8239 112.788 89.2236C111.986 88.8798 110.857 88.9536 110.459 88.0246C111.626 87.3589 113.309 87.3404 113.94 85.9687C113.492 85.8714 113.046 85.7826 112.598 85.6954C112.763 85.2191 112.986 84.7663 113.264 84.3505C112.856 83.8994 112.418 83.4785 111.961 83.081C111.756 83.2655 111.553 83.4533 111.35 83.6411C110.977 83.5523 110.604 83.4651 110.232 83.3779C110.31 84.0268 110.57 84.7496 110.245 85.37C109.699 85.8614 108.966 86.123 108.5 86.7199C108.403 86.1481 108.263 85.5813 108.225 85.0028C108.17 84.3941 108.52 83.8658 108.776 83.346C108.403 82.6937 108.11 81.9793 108.138 81.213C108.708 81.171 109.279 81.1325 109.851 81.1056C109.508 80.7116 109.203 80.2873 108.941 79.8362C109.468 79.6819 110.001 79.5511 110.542 79.4556C109.831 79.3583 109.146 79.1151 108.578 78.6674C109.063 78.3672 109.579 78.1157 110.036 77.7719C110.284 77.6093 110.222 77.1968 109.987 77.0542C109.484 76.6819 108.924 76.3918 108.443 75.9894C109.269 75.8183 110.121 75.9458 110.948 75.8083C110.977 75.1593 110.987 74.4818 111.42 73.9519C111.881 74.2538 112.348 74.5456 112.819 74.8306C112.694 75.0386 112.573 75.2482 112.451 75.4611C112.3 75.3002 112.15 75.1425 112 74.9883C111.64 75.5383 111.465 76.1789 111.387 76.8278C111.711 76.6165 112.033 76.4002 112.354 76.1822C112.598 76.3499 112.841 76.5159 113.087 76.687C113.296 76.4606 113.527 76.2493 113.689 75.9844C113.824 75.6087 113.784 75.1979 113.805 74.8088C114.05 74.7384 114.295 74.668 114.543 74.6026C114.517 75.1174 114.567 75.659 114.374 76.1487C114.069 76.6819 113.534 77.024 113.101 77.4433C114.092 77.9027 115.097 76.7675 114.98 75.7982C114.895 74.8726 114.928 73.9385 115.201 73.0447ZM115.465 85.9704C115.921 86.351 116.359 86.7686 116.629 87.3102C116.038 87.659 115.443 87.9978 114.845 88.3365C114.98 87.7865 115.103 87.2348 115.203 86.678C114.417 86.8457 113.439 87.2096 113.191 88.0514C113.487 88.9335 113.81 89.8206 113.78 90.773C114.019 90.8384 114.26 90.9055 114.502 90.9743C114.657 92.0475 114.277 93.1241 114.507 94.1906C114.655 93.6791 114.747 93.1492 114.972 92.6663C115.098 92.3594 115.298 92.0492 115.206 91.7054C115.077 91.0346 115.118 90.3505 115.243 89.6831C116.336 89.8977 117.464 90.213 118.217 91.1017C118.48 90.9122 118.775 90.7479 118.98 90.4897C119.021 90.1962 119 89.9011 118.998 89.6093C118.626 89.6328 118.258 89.6562 117.89 89.6814C117.85 89.621 117.77 89.5019 117.73 89.4433C117.915 89.2085 118.227 89.0224 118.247 88.697C118.322 88.0045 118.402 87.3035 118.283 86.6126C118.175 86.6378 117.958 86.6864 117.85 86.7116C117.074 86.9396 116.757 85.8261 116.051 85.7457C115.848 85.801 115.656 85.8882 115.465 85.9704Z" fill="#6E695D"/>
<path d="M38.7731 75.1342L38.9163 75.156C38.9163 75.5299 38.9163 75.9039 38.9163 76.2812C40.0475 76.7205 41.2019 77.0995 42.3414 77.5187C43.9906 78.0956 45.7481 78.2113 47.4489 78.5601C49.0632 78.7647 50.6491 79.2879 52.2899 79.1856C53.4361 79.1269 54.5605 79.3835 55.6866 79.5528C56.7361 79.7188 57.6474 80.3393 58.6985 80.5036C59.9446 80.7116 61.199 81.0369 62.4717 80.8793C62.7466 81.2214 63.0031 81.592 63.1264 82.0213C59.9179 81.384 56.6878 80.8558 53.4644 80.294C49.8328 79.7188 46.2228 79.0162 42.5946 78.431C41.4418 78.2532 40.3024 77.9681 39.1362 77.8994C38.878 77.3192 38.7448 76.6903 38.7148 76.0565C38.7281 75.7462 38.7514 75.4394 38.7731 75.1342Z" fill="black"/>
<path d="M136.963 76.4388C139.127 76.8614 141.296 77.2789 143.435 77.8122C142.873 78.3203 142.164 78.5936 141.429 78.7194C142.177 78.872 142.925 79.028 143.681 79.1403C143.208 79.2594 142.755 79.4438 142.352 79.7205C142.107 79.5226 141.864 79.3197 141.61 79.1386C141.442 79.6132 141.387 80.1196 141.237 80.6009C141.102 81.0151 140.748 81.2935 140.469 81.6087C140.443 81.0403 140.486 80.4651 140.384 79.905C140.266 79.4824 139.963 79.1521 139.718 78.8033C139.973 78.6037 140.224 78.4041 140.481 78.2063C140.121 78.0352 139.711 77.5825 139.325 77.9396C138.545 78.5785 138.26 79.6367 137.481 80.2907C137.671 79.7641 137.946 79.2543 137.996 78.6892C137.757 78.1794 137.193 77.9279 136.869 77.4818C136.819 77.1314 136.916 76.7809 136.963 76.4388Z" fill="#77736A"/>
<path d="M33.9787 79.5595C34.077 78.5618 34.9233 77.9765 35.5296 77.284C36.0094 78.6473 35.9261 80.1263 36.3992 81.4897C35.8462 81.763 35.2798 82.0112 34.6834 82.1671C34.815 81.54 34.9916 80.9078 34.9666 80.2622C34.685 79.967 34.3169 79.7758 33.9787 79.5595Z" fill="#605B4D"/>
<path d="M63.1564 77.5942C63.2364 77.6126 63.3946 77.6478 63.4746 77.6663C63.5029 78.1727 63.5229 78.6792 63.5562 79.1873C63.388 79.0397 63.0165 79.1504 63.1064 79.417C63.208 79.5914 63.363 79.6602 63.5695 79.6199C63.6212 80.9782 63.6028 82.3365 63.5645 83.6948C63.3113 83.6529 63.0598 83.611 62.8082 83.5724C62.9115 83.0542 63.0315 82.5394 63.1264 82.0213C63.0031 81.592 62.7466 81.2214 62.4717 80.8793C61.932 80.2068 61.4189 79.5143 60.8842 78.8385C61.5255 78.934 62.1752 78.9558 62.8232 78.9726C62.9315 78.5115 63.0415 78.052 63.1564 77.5942Z" fill="#463B2C"/>
<path d="M23.5487 78.9994C24.4949 79.3432 25.4311 79.7172 26.3674 80.0911C26.4257 80.351 26.484 80.611 26.5306 80.8759C26.5439 80.9933 26.5673 81.2264 26.5806 81.3438C25.4345 80.7669 24.3833 79.9788 23.5487 78.9994Z" fill="black"/>
<path d="M143.754 80.2303C144.302 80.0106 144.844 79.7691 145.36 79.4807C145.68 79.8295 145.96 80.2689 146.416 80.4466C146.788 80.4349 147.139 80.289 147.493 80.18C148.304 80.8625 149.358 81.1157 150.393 81.1811C149.985 82.1319 150.37 83.1582 150.231 84.1476C150.105 85.0565 150.083 85.9754 150.113 86.8927C149.265 87.1509 148.309 87.1291 147.513 86.7267C147.099 86.2219 147.238 85.0782 146.372 85.1185C145.835 85.1738 146.038 85.801 146.07 86.1599C145.534 85.6601 144.851 85.3767 144.138 85.256C144.194 83.5673 144.314 81.8837 144.344 80.1951C144.056 80.341 143.764 80.4852 143.483 80.6462C143.573 80.507 143.664 80.3678 143.754 80.2303Z" fill="#58544B"/>
<path d="M97.6699 83.9765C97.7432 82.6383 97.7282 81.2968 97.8131 79.9603C97.8364 80.289 97.8748 80.6177 97.9131 80.9497C98.6127 81.0688 99.3224 81.052 100.03 81.0755C100.66 81.0855 101.123 81.5953 101.52 82.0296C102.254 82.8312 101.875 84.0604 102.453 84.9407C103.081 85.9134 103.859 86.7786 104.653 87.6171C104.66 87.7127 104.675 87.9072 104.683 88.0045C104.313 87.9542 103.944 87.8535 103.572 87.8955C103.121 88.0363 102.771 88.3901 102.324 88.5411C101.958 88.5847 101.593 88.479 101.235 88.4304C101.461 89.19 101.745 89.943 101.845 90.7345C101.916 91.3063 101.721 91.8798 101.821 92.4483C102.059 92.725 102.489 92.6814 102.819 92.7753C102.862 92.133 102.946 91.4656 102.717 90.8468C102.481 90.1945 102.246 89.5405 102.123 88.8563C103.064 88.7406 104.063 88.9284 104.948 88.4941C105.373 88.6954 105.789 88.9134 106.202 89.1414C106.259 90.5416 106.127 91.9435 106.114 93.3454C106.129 94.0464 105.881 94.7104 105.478 95.2756C105.729 95.5673 105.988 95.8541 106.239 96.1492C105.364 96.1459 104.52 95.9027 103.665 95.7619C101.573 95.3846 99.4807 94.9989 97.395 94.5897V94.4438C97.395 94.3667 97.3967 94.2124 97.3967 94.1369C97.4 94.0531 97.4066 93.8888 97.41 93.8049C97.5432 92.294 97.5216 90.7764 97.5766 89.2622C98.0014 88.9586 98.4112 88.6199 98.8926 88.4086C99.4673 88.1621 100.12 88.2292 100.697 87.9944C100.985 87.7898 101.183 87.4863 101.406 87.2197C101.137 87.1727 100.868 87.1308 100.6 87.0905C100.932 86.3175 101.376 85.5679 101.5 84.7261C101.606 83.9782 100.489 83.4164 100.02 84.0419C99.6772 84.4058 99.3191 84.7546 98.9343 85.0732C98.5028 84.654 98.4278 84.0704 98.5394 83.5003C98.2479 83.6579 97.9581 83.8155 97.6699 83.9765Z" fill="#59554B"/>
<path d="M38.3633 80.1448C44.582 81.1912 50.7823 82.3449 56.9927 83.4282C57.6624 83.5355 58.2754 83.8508 58.7952 84.2834C57.6973 84.2935 56.6195 84.0671 55.5484 83.8575C51.0122 83.0609 46.4811 82.2376 41.9482 81.431C40.7571 81.2096 39.5427 81.0939 38.3849 80.7283C38.3799 80.5825 38.3683 80.2907 38.3633 80.1448Z" fill="black"/>
<path d="M68.882 80.2001C69.2368 80.237 69.5916 80.2756 69.9481 80.3175C69.8082 80.4785 69.6683 80.6445 69.5233 80.8038C69.3251 80.9983 69.1152 81.1794 68.9053 81.3622C68.8936 80.9732 68.887 80.5858 68.882 80.2001Z" fill="black"/>
<path d="M66.7247 85.2845C67.1511 85.3097 67.5793 85.318 68.0074 85.3549C69.1019 85.5578 70.1864 85.8111 71.2892 85.9754C76.2984 86.8457 81.296 87.7915 86.3136 88.6216C86.9966 88.7021 87.6463 88.9838 88.1178 89.5003C86.5269 89.5003 84.9809 89.0811 83.42 88.8228C78.2342 87.9005 73.0483 86.9614 67.8608 86.0542C67.3694 86.0022 67.0012 85.6685 66.7247 85.2845Z" fill="black"/>
<path d="M143.483 80.6462C143.764 80.4852 144.056 80.341 144.344 80.1951C144.314 81.8837 144.194 83.5673 144.138 85.256C143.999 87.2649 143.846 89.2739 143.711 91.2828C143.578 93.5031 143.436 95.7216 143.33 97.9435C143.243 97.749 143.158 97.5545 143.075 97.365C142.683 97.3231 142.293 97.2845 141.904 97.2493L141.91 97.1067C142.3 95.4047 142.007 93.6422 142.368 91.9385C142.728 90.1727 142.6 88.3616 142.783 86.5774C142.867 85.536 143.056 84.4762 142.807 83.4433C142.732 82.9804 142.578 82.5176 142.628 82.0464C142.8 81.5198 143.176 81.0973 143.483 80.6462Z" fill="#302F29"/>
<path d="M69.9481 80.3175C70.6162 80.3829 71.2775 80.5087 71.9322 80.6596C71.6607 80.9145 71.3875 81.1694 71.1143 81.4243C70.6012 81.1727 70.0664 80.9749 69.5233 80.8038C69.6683 80.6445 69.8082 80.4785 69.9481 80.3175Z" fill="#473B2C"/>
<path d="M127.219 82.0045C127.829 81.8703 128.417 81.6423 128.923 81.2666C129 81.6238 129.066 81.9844 129.153 82.3415C129.288 82.1118 129.426 81.8837 129.566 81.659C129.886 81.9324 130.231 82.1889 130.486 82.531C130.331 83.0089 130.048 83.4483 129.994 83.9581C129.916 84.5852 129.869 85.2191 129.751 85.8429C130.154 86.1314 130.562 86.4148 130.976 86.6915C131.833 85.7557 132.398 84.5919 133.299 83.6914C134.144 84.2935 135.094 84.7546 136.133 84.8737C135.472 85.5478 134.922 86.3393 134.637 87.2499C134.955 87.3203 135.278 87.3907 135.602 87.4628C135.607 87.8133 135.62 88.1638 135.63 88.5176C136.001 88.3868 136.375 88.256 136.749 88.1319C136.541 89.2705 135.425 89.9614 135.328 91.137C136.008 91.2292 136.689 91.308 137.374 91.365C137.417 91.6115 137.461 91.8597 137.504 92.1112C137.231 92.2018 136.961 92.2957 136.693 92.3896C137.088 92.9178 137.464 93.4628 137.841 94.0078C138.117 93.929 138.399 93.7546 138.695 93.8032C139.606 94.1118 140.401 94.7557 140.813 95.6428C141.277 95.123 141.594 94.4874 141.764 93.8116C141.554 94.9067 141.639 96.0302 141.91 97.1067L141.904 97.2493C138.322 97.0296 134.739 96.8586 131.159 96.602C131.185 96.3488 131.214 96.0989 131.244 95.8507C131.724 95.777 132.225 95.7468 132.68 95.5523C133.076 95.123 132.605 94.6132 132.423 94.2057C132.113 94.365 131.805 94.5243 131.5 94.6903C131.19 94.3767 130.657 94.1353 130.641 93.6456C131.122 92.9061 131.93 92.3544 132.053 91.412C131.625 91.5142 131.167 91.5713 130.796 91.8278C130.401 92.2605 130.399 92.9514 129.938 93.337C129.343 93.6942 128.597 93.5668 127.979 93.8586C127.715 94.2074 127.757 94.692 127.685 95.1079C127.311 95.2135 126.936 95.3477 126.544 95.3628C126.233 95.2219 125.991 94.967 125.733 94.7557C126.183 94.3818 126.689 94.0766 127.097 93.654C127.537 93.0771 127.687 92.2873 128.292 91.8329C129.003 91.2845 129.853 90.9592 130.597 90.4628C130.446 90.3303 130.298 90.2012 130.148 90.0738C130.014 89.9581 129.881 89.844 129.751 89.7317C129.898 89.4148 130.044 89.0978 130.191 88.7826C130.026 88.6987 129.864 88.6165 129.703 88.5361C129.455 88.7976 129.343 89.3594 128.925 89.3426C128.83 88.7188 128.808 88.0866 128.755 87.4612C128.453 87.8385 128.157 88.2208 127.862 88.6031C127.742 88.1353 127.64 87.6641 127.554 87.1912C127.251 87.0537 126.944 86.9212 126.643 86.7887C126.268 87.0922 125.918 87.4544 125.467 87.6372C125.193 87.6691 124.917 87.6372 124.647 87.6255C125.16 87.104 125.71 86.5489 125.763 85.7708C125.16 85.4472 124.59 85.043 123.936 84.8385C123.632 84.7395 123.233 84.8569 123.116 85.1755C122.949 85.5696 122.871 85.9905 122.756 86.4013C122.301 86.5187 121.848 86.6545 121.383 86.7267C121.189 86.7434 120.917 86.8055 120.827 86.5707C120.614 85.5998 120.995 84.493 120.372 83.6244C120.621 83.5103 120.882 83.4198 121.109 83.2655C121.457 82.749 121.3 81.82 122.017 81.6406C122.463 81.5031 122.949 81.3706 123.416 81.4779C124.212 81.9793 124.634 83.1314 125.683 83.1783C126.468 83.2337 126.483 82.0816 127.219 82.0045Z" fill="#686357"/>
<path d="M97.6699 83.9765C97.9581 83.8155 98.2479 83.6579 98.5394 83.5003C98.4278 84.0704 98.5028 84.654 98.9343 85.0732C99.3191 84.7546 99.6772 84.4058 100.02 84.0419C100.489 83.4164 101.606 83.9782 101.5 84.7261C101.376 85.5679 100.932 86.3175 100.6 87.0905C100.868 87.1308 101.137 87.1727 101.406 87.2197C101.183 87.4863 100.985 87.7898 100.697 87.9944C100.12 88.2292 99.4673 88.1621 98.8926 88.4086C98.4112 88.6199 98.0014 88.9586 97.5766 89.2622C97.7282 87.5014 97.5366 85.7373 97.6699 83.9765Z" fill="#514E42"/>
<path d="M142.492 85.1034C142.505 84.5349 142.585 83.9681 142.807 83.4433C143.056 84.4762 142.867 85.536 142.783 86.5774C142.6 88.3616 142.728 90.1727 142.368 91.9385C142.007 93.6422 142.3 95.4047 141.91 97.1067C141.639 96.0302 141.554 94.9067 141.764 93.8116C142.1 92.3175 142.067 90.7781 142.25 89.2638C142.335 88.5797 142.249 87.8938 142.159 87.2163C142.035 86.4852 142.473 85.8228 142.492 85.1034Z" fill="#4B483F"/>
<path d="M106.419 84.3454C106.552 84.2616 106.687 84.1811 106.825 84.1006C107.075 84.4444 107.427 84.7647 107.472 85.2141C107.537 85.8413 107.497 86.4768 107.582 87.104C107.63 87.5886 107.74 88.0866 107.622 88.5713C107.528 88.9419 107.229 89.2001 106.97 89.4584C107.204 90.0369 107.365 90.6691 107.762 91.1621C108.355 91.536 109.293 91.204 109.727 91.8698C110.101 92.3326 110.364 92.8927 110.827 93.2784C111.207 93.5182 111.68 93.4947 112.108 93.5752C111.961 93.8133 111.93 94.1973 111.621 94.2795C111.052 94.427 110.47 94.2694 109.912 94.152C109.774 94.5428 109.639 94.9368 109.506 95.3326C108.856 95.3259 108.206 95.2303 107.558 95.2856C107.042 95.4231 106.651 95.829 106.239 96.1492C105.988 95.8541 105.729 95.5673 105.478 95.2756C105.881 94.7104 106.129 94.0464 106.114 93.3454C106.127 91.9435 106.259 90.5416 106.202 89.1414C106.101 88.7859 105.974 88.4405 105.856 88.0933C106.531 86.953 106.274 85.5998 106.419 84.3454Z" fill="#6E695E"/>
<path d="M123.116 85.1755C123.233 84.8569 123.632 84.7395 123.936 84.8385C124.59 85.043 125.16 85.4472 125.763 85.7708C125.71 86.5489 125.16 87.104 124.647 87.6255C124.917 87.6372 125.193 87.6691 125.467 87.6372C125.918 87.4544 126.268 87.0922 126.643 86.7887C126.944 86.9212 127.251 87.0537 127.554 87.1912C127.64 87.6641 127.742 88.1353 127.862 88.6031C128.157 88.2208 128.453 87.8385 128.755 87.4612C128.808 88.0866 128.83 88.7188 128.925 89.3426C129.343 89.3594 129.455 88.7976 129.703 88.5361C129.864 88.6165 130.026 88.6987 130.191 88.7826C130.044 89.0978 129.898 89.4148 129.751 89.7317C129.881 89.844 130.014 89.9581 130.148 90.0738C129.601 90.7328 128.853 91.3214 127.965 91.3466C127.456 90.6791 127.089 89.8038 126.24 89.4986C125.407 89.18 124.27 89.0676 123.614 89.7988C123.028 90.3756 122.883 91.2174 122.715 91.9888C122.455 91.8932 122.195 91.7976 121.937 91.7054C121.6 91.9603 121.262 92.2152 120.922 92.4684C120.431 91.5897 119.918 90.7227 119.486 89.8122C119.931 89.455 120.457 89.1213 120.659 88.5545C120.882 87.9793 121.137 87.4142 121.513 86.9229C121.827 87.3823 122.053 88.0967 122.691 88.1654C123.253 88.0128 123.642 87.5316 124.066 87.161C123.566 87.1207 123.066 87.0939 122.566 87.0721C122.63 86.8474 122.693 86.6244 122.756 86.4013C122.871 85.9905 122.949 85.5696 123.116 85.1755Z" fill="#757065"/>
<path d="M146.372 85.1185C147.238 85.0782 147.099 86.2219 147.513 86.7267C148.309 87.1291 149.265 87.1509 150.113 86.8927C150.133 87.6942 149.931 88.4975 149.418 89.123C149.8 89.9346 150.178 90.7747 150.243 91.687C150.333 92.6126 149.891 93.4679 149.745 94.3633C149.567 95.2253 149.853 96.1006 149.703 96.9642C149.583 97.645 149.408 98.3141 149.31 99C148.525 98.8759 147.743 98.7518 146.966 98.5942C147.003 98.128 146.951 97.6635 146.843 97.2124C146.618 97.531 146.408 97.863 146.158 98.1632C145.728 97.8563 145.922 97.3097 145.917 96.872C145.985 96.2331 145.629 95.6696 145.362 95.1213C145.903 94.4254 146.58 93.8334 147.419 93.5316C147.429 94.1805 147.304 94.8916 147.634 95.4869C148.144 95.7199 148.77 95.4181 149.07 94.9804C149.165 94.5813 149.13 94.1671 149.13 93.7613C149.302 93.5701 149.477 93.3823 149.653 93.1962C149.388 93.0201 149.127 92.8457 148.865 92.673C148.867 92.5891 148.869 92.4181 148.869 92.3343C149.178 92.3141 149.488 92.2957 149.8 92.2806C149.785 91.5696 149.788 90.8385 149.517 90.171C149.28 89.5774 149.04 88.9855 148.869 88.3717C147.778 88.1738 146.658 88.5159 145.75 89.1246C145.184 89.5405 145.019 90.275 144.581 90.7982C144.337 91.0313 144.006 91.1369 143.711 91.2828C143.846 89.2739 143.999 87.2649 144.138 85.256C144.851 85.3767 145.534 85.6601 146.07 86.1599C146.038 85.801 145.835 85.1738 146.372 85.1185Z" fill="#625F54"/>
<path d="M115.465 85.9704C115.656 85.8882 115.848 85.801 116.051 85.7457C116.757 85.8261 117.074 86.9396 117.85 86.7116C117.958 86.6864 118.175 86.6378 118.283 86.6126C118.402 87.3035 118.322 88.0045 118.247 88.697C118.227 89.0224 117.915 89.2085 117.73 89.4433C117.77 89.5019 117.85 89.621 117.89 89.6814C118.258 89.6562 118.626 89.6328 118.998 89.6093C119 89.9011 119.021 90.1962 118.98 90.4897C118.775 90.7479 118.48 90.9122 118.217 91.1017C117.464 90.213 116.336 89.8977 115.243 89.6831C115.118 90.3505 115.077 91.0346 115.206 91.7054C115.298 92.0492 115.098 92.3594 114.972 92.6663C114.747 93.1492 114.655 93.6791 114.507 94.1906C114.277 93.1241 114.657 92.0475 114.502 90.9743C114.26 90.9055 114.019 90.8384 113.78 90.773C113.81 89.8206 113.487 88.9335 113.191 88.0514C113.439 87.2096 114.417 86.8457 115.203 86.678C115.103 87.2348 114.98 87.7865 114.845 88.3365C115.443 87.9978 116.038 87.659 116.629 87.3102C116.359 86.7686 115.921 86.351 115.465 85.9704Z" fill="#645F52"/>
<path d="M145.75 89.1246C146.658 88.5159 147.778 88.1738 148.869 88.3717C149.04 88.9855 149.28 89.5774 149.517 90.171C149.788 90.8385 149.785 91.5696 149.8 92.2806C149.488 92.2957 149.178 92.3141 148.869 92.3343C148.869 92.4181 148.867 92.5891 148.865 92.673C149.127 92.8457 149.388 93.0201 149.653 93.1962C149.477 93.3823 149.302 93.5701 149.13 93.7613C149.13 94.1671 149.165 94.5813 149.07 94.9804C148.77 95.4181 148.144 95.7199 147.634 95.4869C147.304 94.8916 147.429 94.1805 147.419 93.5316C146.58 93.8334 145.903 94.4254 145.362 95.1213C145.629 95.6696 145.985 96.2331 145.917 96.872C145.922 97.3097 145.728 97.8563 146.158 98.1632C146.408 97.863 146.618 97.531 146.843 97.2124C146.951 97.6635 147.003 98.128 146.966 98.5942C145.753 98.3812 144.536 98.1917 143.33 97.9435C143.436 95.7216 143.578 93.5031 143.711 91.2828C144.006 91.1369 144.337 91.0313 144.581 90.7982C145.019 90.275 145.184 89.5405 145.75 89.1246Z" fill="#5A564C"/>
</svg>
