<svg width="63" height="109" viewBox="0 0 63 109" fill="none" xmlns="http://www.w3.org/2000/svg">
<path d="M31.102 0.082918C31.4282 0.0526642 31.7556 0.0246513 32.0841 0C32.0415 1.63483 32.0045 3.26965 31.9619 4.9056C31.5538 4.93473 31.1468 4.97171 30.741 5.01317C30.8755 3.3705 30.9753 1.72559 31.102 0.082918Z" fill="#B62924"/>
<path d="M30.3967 9.8493C30.7757 9.84706 31.1547 9.83809 31.5348 9.83137C31.6031 9.83025 31.7399 9.82689 31.8083 9.82577C31.796 10.3502 31.8128 10.8734 31.7848 11.3967C31.7287 12.4903 31.7971 13.594 31.6054 14.6765C31.4316 14.6742 31.2578 14.6742 31.0852 14.6753C30.7398 14.6832 30.3967 14.7134 30.0548 14.7426C30.1546 13.11 30.2824 11.4808 30.3967 9.8493Z" fill="#B62924"/>
<path d="M5.58692 59.6952C6.5119 59.0857 7.45483 58.5019 8.37309 57.8823C8.66572 58.3495 8.91351 58.8448 9.2252 59.3019C8.21949 59.8521 7.21602 60.4034 6.21591 60.9614C5.95579 60.5659 5.74276 60.1412 5.58692 59.6952Z" fill="#B62924"/>
<path d="M51.7241 62.2668C51.9125 61.8937 52.1872 61.5654 52.5482 61.3491C53.647 62.2792 54.776 63.1733 55.8871 64.0888C55.7941 64.2311 55.7021 64.3745 55.6091 64.5179C55.4073 64.8238 55.1998 65.1264 54.9891 65.4278C53.8208 64.5493 52.6401 63.6888 51.4562 62.8338C51.5414 62.6433 51.6277 62.4528 51.7241 62.2668Z" fill="#B62924"/>
<path d="M0 63.3111C0.882381 62.696 1.804 62.1391 2.70545 61.5519C2.91175 61.8892 3.10571 62.2343 3.28959 62.5851C2.33545 63.0926 1.40374 63.6417 0.448478 64.147C0.29039 63.8714 0.141271 63.5935 0 63.3111Z" fill="#B62924"/>
<path d="M59.3897 66.9539C60.6062 67.9153 61.8127 68.8924 63 69.8919C62.8195 70.2056 62.6323 70.5149 62.4416 70.8231C61.1399 69.9737 59.9268 68.9966 58.6542 68.1036C58.8325 67.8178 59.0142 67.5355 59.1969 67.2531C59.2451 67.178 59.3415 67.029 59.3897 66.9539Z" fill="#B62924"/>
<path d="M30.741 5.01317C31.1468 4.97171 31.5538 4.93473 31.9619 4.9056C31.9586 4.9549 31.9518 5.05575 31.9485 5.10617C31.9003 5.0804 31.805 5.02998 31.7568 5.0042C31.7713 5.94431 31.5662 6.87322 31.6088 7.81445C31.6323 8.48675 31.5998 9.1613 31.5348 9.83137C31.1547 9.83809 30.7757 9.84706 30.3967 9.8493C30.501 8.23688 30.6131 6.62446 30.741 5.01317Z" fill="#A0A19E"/>
<path d="M30.0548 14.7426C30.3967 14.7134 30.7398 14.6832 31.0852 14.6753C31.1614 16.1645 30.9506 17.6469 30.9719 19.135C30.9674 19.6224 30.9271 20.1098 30.8957 20.5961C30.8407 21.4107 30.8923 22.2287 30.8239 23.0422C30.778 23.6058 30.7488 24.1717 30.7488 24.7375C30.7533 25.5981 30.6277 26.4542 30.6412 27.3147C30.6681 28.4375 30.501 29.5535 30.5246 30.6762C30.3003 34.9801 30.2409 39.3098 29.5368 43.5722C29.3383 43.7817 29.1814 44.0249 29.0625 44.2882C29.3025 44.4686 29.6018 44.6064 29.7543 44.8776C29.8754 45.253 29.8328 45.6642 29.9707 46.0362C30.547 46.5304 31.2746 46.8699 31.7198 47.5097C31.796 47.6576 31.8207 47.8246 31.8655 47.9859C31.3027 47.6229 30.7746 47.2116 30.2331 46.8195C30.1826 46.9337 30.1321 47.048 30.0828 47.1623C30.0077 47.0144 29.9337 46.8676 29.8597 46.7208C29.7756 46.7713 29.6938 46.8228 29.6119 46.8744C29.1836 46.704 28.7553 46.5348 28.3293 46.3623C28.3494 46.5808 28.3707 46.7993 28.3965 47.0167C28.4548 47.1298 28.5154 47.243 28.5759 47.3573C28.0131 47.7898 27.485 48.2638 26.9199 48.6941C26.6923 48.8677 26.5051 49.0851 26.3212 49.3025C25.7281 49.856 25.0296 50.2762 24.3894 50.7704C23.3736 51.557 22.203 52.0993 21.0953 52.7391C17.1375 54.9252 13.1875 57.1248 9.2252 59.3019C8.91351 58.8448 8.66572 58.3495 8.37309 57.8823C14.4915 53.9862 20.5773 50.0364 26.6542 46.0766C27.1016 45.8525 27.0276 45.3045 27.0948 44.8877C27.1531 44.082 27.5119 43.3335 27.9839 42.6904C28.1487 42.4651 28.3932 42.3228 28.6264 42.1794C28.6365 42.3867 28.6544 42.5929 28.6723 42.8013C28.8282 40.9984 28.8439 39.1888 28.7867 37.3803C28.762 35.5964 28.9213 33.8159 28.9941 32.0343C29.0502 31.2712 29.1388 30.5026 29.0042 29.7429C29.0435 28.0699 29.2329 26.4037 29.3316 24.7342C29.5693 21.4029 29.7913 18.0716 30.0548 14.7426Z" fill="#A0A19E"/>
<path d="M32.5068 39.749C32.656 39.7983 32.8129 39.8364 32.9542 39.9137C32.8679 40.4269 32.7064 40.93 32.7042 41.4567C32.4586 41.4925 32.2153 41.5362 31.9731 41.5844C31.9272 41.5934 31.8352 41.6113 31.7893 41.6203C32.2131 42.092 32.7838 42.4293 33.1235 42.9772C33.4285 43.4635 33.6886 43.9924 33.7727 44.5672C33.8747 45.1152 33.8366 45.6777 33.9375 46.2256C34.0429 46.5371 34.3221 46.7455 34.5317 46.9864C34.9499 46.9562 35.3681 46.9225 35.7863 46.8833C35.774 46.9293 35.7493 47.0223 35.7359 47.0682C35.3771 47.1578 35.0127 47.2161 34.6494 47.2845C33.813 46.7253 32.9396 46.2245 32.0931 45.6821C31.7175 45.4592 31.6514 44.9953 31.4664 44.6367C31.2814 44.2042 30.9102 43.8389 30.899 43.3459C30.8654 42.7766 30.9058 42.2063 30.9181 41.6371C31.0975 41.5844 31.2769 41.5329 31.4574 41.4813C31.2959 41.4589 31.1356 41.4365 30.9753 41.4163L30.9999 41.3289C31.2847 41.3155 31.5706 41.3189 31.8577 41.32C31.8218 41.2012 31.7881 41.0824 31.7545 40.9648C31.944 40.9838 32.1335 41.0029 32.3241 41.0219C32.249 41.1239 32.175 41.227 32.1021 41.3312C32.2904 41.3233 32.4799 41.3133 32.6705 41.292C32.7008 40.9603 32.6122 40.6376 32.5057 40.3283C32.6436 40.1928 32.7804 40.0572 32.9105 39.9137C32.6986 39.9227 32.4889 39.9563 32.2815 39.9955C32.3566 39.9126 32.4306 39.8308 32.5068 39.749Z" fill="#A0A19E"/>
<path d="M28.9571 47.4682C29.5211 47.2576 30.1893 47.317 30.6905 47.6598C31.2567 48.0431 31.796 48.4655 32.3532 48.8633C31.8375 49.3451 31.1367 49.5311 30.4472 49.5524C29.8541 49.5221 29.243 49.3865 28.7587 49.028C28.4279 48.7815 28.1286 48.4957 27.8169 48.2279C28.1768 47.9478 28.5288 47.6397 28.9571 47.4682Z" fill="#A0A19E"/>
<path d="M30.8845 49.6521C31.1782 49.6039 31.472 49.5569 31.7635 49.4986C31.787 66.7231 31.7411 83.9487 31.7545 101.173C31.7825 101.506 31.713 102.011 32.1245 102.128C32.7131 102.381 33.3287 102.092 33.8377 101.794C33.8747 101.925 33.9106 102.056 33.9464 102.191C33.9476 102.811 33.9195 103.433 33.9251 104.056C33.4419 104.526 32.6515 104.917 32.027 104.485C31.4596 103.517 31.2444 102.41 30.8329 101.379C30.6333 100.8 30.7779 100.183 30.7712 99.5877C30.7735 87.2979 30.788 75.0082 30.797 62.7184C30.8688 61.385 30.8497 60.0505 30.8217 58.7159C30.8889 57.0273 30.8273 55.3365 30.8643 53.6479C30.8979 52.3156 30.871 50.9833 30.8845 49.6521Z" fill="#A0A19E"/>
<path d="M34.6461 50.0622C35.5868 50.1866 36.2864 50.8824 37.0477 51.3833C41.9069 55.0552 46.82 58.6543 51.7241 62.2668C51.6277 62.4528 51.5414 62.6433 51.4562 62.8338C47.569 60.0146 43.7109 57.1551 39.8249 54.3347C38.3718 53.2512 36.8728 52.2282 35.45 51.1054C35.2773 50.6919 34.9746 50.3569 34.6461 50.0622Z" fill="#A0A19E"/>
<path d="M2.70545 61.5519C3.66743 60.9345 4.62493 60.3115 5.58692 59.6952C5.74276 60.1412 5.95579 60.5659 6.21591 60.9614C5.24608 61.5138 4.27288 62.0584 3.28959 62.5851C3.10571 62.2343 2.91175 61.8892 2.70545 61.5519Z" fill="#A0A19E"/>
<path d="M54.9891 65.4278C55.1998 65.1264 55.4073 64.8238 55.6091 64.5179C56.2112 65.0524 56.8547 65.5376 57.4826 66.0418C58.0353 66.4699 58.5354 66.9875 59.1969 67.2531C59.0142 67.5355 58.8325 67.8178 58.6542 68.1036C57.4254 67.2206 56.2112 66.3197 54.9891 65.4278Z" fill="#A0A19E"/>
<path d="M31.7568 5.0042C31.805 5.02998 31.9003 5.0804 31.9485 5.10617C31.8722 5.80537 31.9776 6.50793 31.9261 7.20713C31.8565 8.07889 31.8857 8.95513 31.8083 9.82577C31.7399 9.82689 31.6031 9.83025 31.5348 9.83137C31.5998 9.1613 31.6323 8.48675 31.6088 7.81445C31.5662 6.87322 31.7713 5.94431 31.7568 5.0042Z" fill="#C7C8C8"/>
<path d="M31.0852 14.6753C31.2578 14.6742 31.4316 14.6742 31.6054 14.6765C31.6401 14.7078 31.7097 14.7706 31.7444 14.8008C31.6088 16.3539 31.6659 17.9136 31.6121 19.4689C31.5011 20.8875 31.5504 22.3116 31.4989 23.7313C31.4148 24.8485 31.4282 25.9701 31.3924 27.0895C31.3083 30.2617 31.2208 33.4349 31.1468 36.6082C31.0807 37.88 31.0728 39.154 31.0818 40.4269C31.0796 40.7284 31.0594 41.032 30.9999 41.3289L30.9753 41.4163C31.1356 41.4365 31.2959 41.4589 31.4574 41.4813C31.2769 41.5329 31.0975 41.5844 30.9181 41.6371C30.9058 42.2063 30.8654 42.7766 30.899 43.3459C30.9102 43.8389 31.2814 44.2042 31.4664 44.6367C31.6514 44.9953 31.7175 45.4592 32.0931 45.6821C32.9396 46.2245 33.813 46.7253 34.6494 47.2845C35.7863 48.1024 37.06 48.7243 38.124 49.6431C41.5392 52.431 44.9633 55.2076 48.383 57.9898C49.7721 59.1092 51.1321 60.2645 52.5482 61.3491C52.1872 61.5654 51.9125 61.8937 51.7241 62.2668C46.82 58.6543 41.9069 55.0552 37.0477 51.3833C36.2864 50.8824 35.5868 50.1866 34.6461 50.0622C33.6796 49.4246 32.786 48.684 31.8655 47.9859C31.8207 47.8246 31.796 47.6576 31.7198 47.5097C31.2746 46.8699 30.547 46.5304 29.9707 46.0362C29.8328 45.6642 29.8754 45.253 29.7543 44.8776C29.6018 44.6064 29.3025 44.4686 29.0625 44.2882C29.1814 44.0249 29.3383 43.7817 29.5368 43.5722C30.2409 39.3098 30.3003 34.9801 30.5246 30.6762C30.501 29.5535 30.6681 28.4375 30.6412 27.3147C30.6277 26.4542 30.7533 25.5981 30.7488 24.7375C30.7488 24.1717 30.778 23.6058 30.8239 23.0422C30.8923 22.2287 30.8407 21.4107 30.8957 20.5961C30.9271 20.1098 30.9674 19.6224 30.9719 19.135C30.9506 17.6469 31.1614 16.1645 31.0852 14.6753Z" fill="#C7C8C8"/>
<path d="M31.7893 41.6203C31.8352 41.6113 31.9272 41.5934 31.9731 41.5844C32.6851 41.7727 33.3018 42.2265 33.7738 42.7811C34.0911 43.1565 34.2234 43.6562 34.5609 44.0159C35.0138 44.1907 35.5161 44.1493 35.9938 44.1807C35.9982 45.0849 35.9265 45.9903 35.7863 46.8833C35.3681 46.9225 34.9499 46.9562 34.5317 46.9864C34.3221 46.7455 34.0429 46.5371 33.9375 46.2256C33.8366 45.6777 33.8747 45.1152 33.7727 44.5672C33.6886 43.9924 33.4285 43.4635 33.1235 42.9772C32.7838 42.4293 32.2131 42.092 31.7893 41.6203Z" fill="#C7C8C8"/>
<path d="M31.7635 49.4986C32.1144 49.4246 32.4575 49.3148 32.795 49.1949C33.2289 49.4941 33.6549 49.8045 34.0776 50.1182C34.0283 50.3569 33.9801 50.5978 33.9655 50.8432C33.9677 64.2143 33.9655 77.5876 33.9666 90.9598C33.9509 94.7034 33.9958 98.447 33.9464 102.191C33.9106 102.056 33.8747 101.925 33.8377 101.794C33.3287 102.092 32.7131 102.381 32.1245 102.128C31.713 102.011 31.7825 101.506 31.7545 101.173C31.7411 83.9487 31.787 66.7231 31.7635 49.4986Z" fill="#C7C8C8"/>
<path d="M55.8871 64.0888C57.0487 65.0513 58.2248 65.9959 59.3897 66.9539C59.3415 67.029 59.2451 67.178 59.1969 67.2531C58.5354 66.9875 58.0353 66.4699 57.4826 66.0418C56.8547 65.5376 56.2112 65.0524 55.6091 64.5179C55.7021 64.3745 55.7941 64.2311 55.8871 64.0888Z" fill="#C7C8C8"/>
<path d="M29.0042 29.7429C29.1388 30.5026 29.0502 31.2712 28.9941 32.0343C28.9213 33.8159 28.762 35.5964 28.7867 37.3803C28.8439 39.1888 28.8282 40.9984 28.6723 42.8013C28.6544 42.5929 28.6365 42.3867 28.6264 42.1794C28.7206 40.8079 28.5064 39.4431 28.558 38.0716C28.5737 37.0228 28.5131 35.9729 28.6107 34.9263C28.7609 33.1996 28.8394 31.4684 29.0042 29.7429Z" fill="#535F36"/>
<path d="M28.3293 46.3623C28.7553 46.5348 29.1836 46.704 29.6119 46.8744C29.6938 46.8228 29.7756 46.7713 29.8597 46.7208C29.9337 46.8676 30.0077 47.0144 30.0828 47.1623C30.1321 47.048 30.1826 46.9337 30.2331 46.8195C30.7746 47.2116 31.3027 47.6229 31.8655 47.9859C32.786 48.684 33.6796 49.4246 34.6461 50.0622C34.9746 50.3569 35.2773 50.6919 35.45 51.1054C34.9925 50.7749 34.5295 50.4544 34.0776 50.1182C33.6549 49.8045 33.2289 49.4941 32.795 49.1949C32.4575 49.3148 32.1144 49.4246 31.7635 49.4986C31.472 49.5569 31.1782 49.6039 30.8845 49.6521C30.871 50.9833 30.8979 52.3156 30.8643 53.6479C30.8273 55.3365 30.8889 57.0273 30.8217 58.7159C30.8497 60.0505 30.8688 61.385 30.797 62.7184C30.788 75.0082 30.7735 87.2979 30.7712 99.5877C30.7779 100.183 30.6333 100.8 30.8329 101.379C31.2444 102.41 31.4596 103.517 32.027 104.485C32.6515 104.917 33.4419 104.526 33.9251 104.056C33.9285 104.807 33.9498 105.558 33.9285 106.31C33.8545 107.065 34.3064 107.75 34.1976 108.51C33.7132 108.81 33.1549 108.939 32.5954 109H31.8173C31.3352 108.916 30.7903 108.874 30.4147 108.528C30.408 108.453 30.3967 108.302 30.3911 108.227C30.4438 105.87 30.3967 103.513 30.4214 101.156C30.445 99.0274 30.3945 96.8974 30.4629 94.7695C30.464 87.1489 30.464 79.5283 30.4629 71.9077C30.4696 71.3474 30.5358 70.7906 30.5403 70.2303C30.5369 64.0675 30.5369 57.9047 30.538 51.7419C30.5324 51.0113 30.5986 50.2729 30.4472 49.5524C31.1367 49.5311 31.8375 49.3451 32.3532 48.8633C31.796 48.4655 31.2567 48.0431 30.6905 47.6598C30.1893 47.317 29.5211 47.2576 28.9571 47.4682C28.5288 47.6397 28.1768 47.9478 27.8169 48.2279C27.3392 48.6145 26.8381 48.9697 26.3212 49.3025C26.5051 49.0851 26.6923 48.8677 26.9199 48.6941C27.485 48.2638 28.0131 47.7898 28.5759 47.3573C28.5154 47.243 28.4548 47.1298 28.3965 47.0167C28.3707 46.7993 28.3494 46.5808 28.3293 46.3623Z" fill="#535F36"/>
</svg>
