<svg width="25" height="16" viewBox="0 0 25 16" fill="none" xmlns="http://www.w3.org/2000/svg">
<path d="M10.0327 0.00348431C11.6535 0.0869698 13.2837 -0.0843383 14.9084 0.0609482C15.0235 0.942967 15.4116 1.78595 15.5916 2.66309C14.8698 2.76176 14.1602 2.92006 13.4439 3.04962C13.1587 3.10383 12.5961 3.12877 12.7199 3.57927C12.8234 4.31708 12.7431 5.10857 13.0585 5.80139C11.7389 5.44576 10.4131 5.0343 9.04336 4.88522C8.93931 5.275 8.84351 5.68158 8.59301 6.01173C8.57319 6.03829 8.53355 6.09142 8.51373 6.11798C8.24947 6.24972 7.97254 6.37224 7.66698 6.337C7.30692 6.27195 7.06082 5.96728 6.74646 5.84259C6.687 5.79055 6.65727 5.71791 6.62864 5.64743C6.46458 5.3059 6.51963 4.83318 6.33905 4.54802C6.32969 4.17234 6.6826 3.85195 6.4365 3.48494C6.37979 3.39549 6.55101 3.37381 6.59946 3.31743C6.74371 3.50717 7.0366 3.42802 7.25076 3.44428C7.23645 3.06317 7.7848 3.45729 7.93675 3.27026C7.37574 3.21009 7.79031 3.21768 8.02154 3.18352C8.23515 2.96559 7.81783 2.9206 7.6879 2.79212C7.77104 2.53028 8.01548 3.01764 8.17624 2.79862C8.39371 2.49938 8.87214 2.63274 9.19586 2.63599C9.4794 1.76264 9.88405 0.911525 10.0327 0.00348431ZM10.254 0.443139C10.7881 0.361279 9.99802 0.942968 10.254 0.443139Z" fill="#161616"/>
<path d="M10.254 0.443139C10.7881 0.361279 9.99802 0.942968 10.254 0.443139Z" fill="#C7B418"/>
<path d="M5.26492 3.11359C5.18785 2.71785 5.61287 2.7211 5.87328 2.67123C6.47614 2.7249 7.08505 2.77043 7.6879 2.79212C7.81783 2.9206 8.23515 2.96559 8.02154 3.18352C7.79031 3.21768 7.37574 3.21009 7.93675 3.27026C7.7848 3.45729 7.23645 3.06317 7.25076 3.44428C7.0366 3.42802 6.74371 3.50717 6.59946 3.31743C6.41448 3.15804 6.07424 3.18407 6.31703 2.86801C6.04065 3.00246 5.36292 2.54762 5.46312 3.01384C5.79345 3.04583 5.3954 3.20955 5.26492 3.11359Z" fill="#4F5A65"/>
<path d="M13.4439 3.04962C14.1602 2.92006 14.8698 2.76176 15.5916 2.66309C15.7683 2.5975 15.8421 2.78561 15.8019 2.92494C15.1049 2.94228 14.3408 3.01384 13.7076 3.28761C14.1828 3.5218 14.7498 3.37814 15.247 3.54023C15.4518 3.54782 15.5426 3.68335 15.5668 3.87038C16.5804 4.12192 17.8384 4.07964 18.9373 3.75112C18.9131 3.99669 19.1851 4.51983 18.787 4.49761C18.6604 4.33226 18.7287 4.04819 18.504 3.95061C18.2645 4.02488 18.2706 4.31708 18.1583 4.49923C17.975 4.45099 18.1379 4.27805 18.1588 4.16367C17.5736 4.17613 18.0878 4.89714 17.7779 5.19585C17.6474 5.38667 17.4982 5.56828 17.4415 5.7976L17.4002 5.83446C17.469 5.52545 17.4255 5.27391 17.0203 5.30427L16.9966 5.27825C17.1365 5.18555 17.2741 5.16386 17.3886 5.30102C17.6116 5.00069 17.5439 4.60549 17.6204 4.25962C17.2339 4.24661 16.8485 4.2233 16.4631 4.20161C16.3673 4.38214 16.4037 4.59573 16.5865 4.69982C16.1218 4.53176 16.2605 5.47124 16.701 5.15953C16.9096 4.96545 16.8799 5.17959 16.6966 5.2647C16.462 5.27879 16.1504 5.32921 16.2314 5.6393C16.108 6.31152 15.8295 6.98428 15.9632 7.6809C15.7882 7.7671 15.8581 7.93027 15.8785 8.07881C15.7579 8.40787 15.2866 8.42522 15.0014 8.58569C15.013 8.27126 14.9029 7.96443 14.9194 7.64783C14.9811 7.58223 15.9214 7.80016 15.536 7.58332C14.9739 7.41743 14.512 7.05205 14.0952 6.65793C13.8855 6.00306 14.2609 5.39209 13.9598 4.79685C13.7302 4.19402 14.1651 4.67976 14.441 4.60711C14.2119 4.48893 13.8012 4.37888 13.957 4.03573C14.1283 4.05687 14.7994 3.85629 14.4674 4.1615C14.6039 4.07964 15.0229 4.16475 14.8941 3.93001C14.3821 3.92676 13.8596 3.87092 13.4836 3.70341C13.3393 4.37292 13.6416 5.07171 13.4291 5.72929C13.3228 5.75911 13.2154 5.7873 13.107 5.80844L13.0585 5.80139C12.7431 5.10857 12.8234 4.31708 12.7199 3.57927C12.5961 3.12877 13.1587 3.10383 13.4439 3.04962Z" fill="#181818"/>
<path d="M3.51032 2.96614C3.83679 2.75905 4.487 3.0686 4.63344 2.71297C4.87458 2.78182 5.01607 3.04637 5.26492 3.11359C5.3954 3.20955 5.79345 3.04583 5.46312 3.01384C5.36292 2.54762 6.04065 3.00246 6.31703 2.86801C6.07424 3.18407 6.41448 3.15804 6.59946 3.31743C6.55101 3.37381 6.37979 3.39549 6.4365 3.48494C6.6826 3.85195 6.32969 4.17234 6.33905 4.54802C5.75547 4.66024 5.12398 4.27914 4.57288 4.50032C4.19851 4.48243 4.4424 4.12138 4.49525 3.9105C4.43579 3.64324 4.01022 4.04494 4.2943 4.07584C4.53104 4.24986 3.9959 4.65645 4.16492 4.35341C3.96562 4.33768 3.96507 4.12734 3.85937 4.00916C3.27028 3.62047 3.24165 4.7215 3.47563 4.87817C3.57914 4.98226 3.4938 5.71357 3.46132 5.05653C3.21687 4.90853 2.76102 4.97413 2.45161 4.93455C2.3492 4.54965 3.05446 4.91178 3.2433 4.8245C3.3936 4.65482 3.30386 4.22818 3.35286 3.96959C3.10566 3.88665 2.26167 3.96905 2.81882 3.7972C2.80396 3.59553 2.87278 3.50175 3.00161 3.72184C3.53619 3.86496 3.34515 3.28056 3.51032 2.96614ZM3.99205 2.95746C3.6964 2.94228 3.42939 3.02089 3.4894 3.38953C3.3402 3.90833 4.1875 3.47301 4.45506 3.52234C4.77273 3.19762 4.58664 2.65984 3.99205 2.95746ZM4.7375 3.19437C4.55416 3.65787 5.06562 3.52614 5.342 3.57656C5.26272 3.39495 4.93184 3.30929 4.7375 3.19437Z" fill="#4E4830"/>
<path d="M15.8019 2.92494C16.8474 2.89241 17.9612 3.003 18.9742 2.82844C18.9753 3.05775 19.3249 3.06643 19.282 3.30658C18.4776 3.72889 17.4921 3.4497 16.6156 3.58632C16.157 3.65354 15.7039 3.57439 15.247 3.54023C14.7498 3.37814 14.1828 3.5218 13.7076 3.28761C14.3408 3.01384 15.1049 2.94228 15.8019 2.92494Z" fill="#F1BE3B"/>
<path d="M16.6156 3.58632C17.4921 3.4497 18.4776 3.72889 19.282 3.30658C19.2759 3.4497 19.2115 3.60095 19.0546 3.63185C18.3009 3.72781 17.1266 4.39352 16.6156 3.58632Z" fill="#393935"/>
<path d="M15.247 3.54023C15.7039 3.57439 16.157 3.65354 16.6156 3.58632C17.1266 4.39352 18.3009 3.72781 19.0546 3.63185C19.0276 3.68552 18.9885 3.72564 18.9373 3.75112C17.8384 4.07964 16.5804 4.12192 15.5668 3.87038C15.5426 3.68335 15.4518 3.54782 15.247 3.54023Z" fill="#9F7813"/>
<path d="M13.4836 3.70341C13.8596 3.87092 14.3821 3.92676 14.8941 3.93001C15.0229 4.16475 14.6039 4.07964 14.4674 4.1615C14.7994 3.85629 14.1283 4.05687 13.957 4.03573C13.8012 4.37888 14.2119 4.48893 14.441 4.60711C14.1651 4.67976 13.7302 4.19402 13.9598 4.79685C14.2609 5.39209 13.8855 6.00306 14.0952 6.65793C14.1464 6.95935 14.0693 7.30034 14.2257 7.57194C14.4569 7.59362 14.6876 7.62615 14.9194 7.64783C14.9029 7.96443 15.013 8.27126 15.0014 8.58569C14.7652 8.61062 14.3287 8.6464 14.463 8.2447C14.2323 8.22464 13.2518 8.19753 13.5061 8.66429C13.4929 9.04377 13.1163 8.61388 12.9589 8.51901C12.9583 8.78085 12.6919 8.72881 12.4915 8.7364C12.9556 8.5125 12.1958 8.42414 12.0125 8.53039C11.5996 8.4442 11.1685 8.9283 10.9494 8.71525C11.1046 8.83994 10.7341 8.99336 10.9103 9.15437C11.1608 9.41241 11.2984 8.47184 11.4966 8.89849C11.5891 9.34844 11.8875 8.86759 12.1149 8.78302C12.3417 8.8356 12.0114 9.26008 12.3235 9.28664C12.4975 9.42651 12.8669 8.94511 12.8119 9.30833C12.6186 9.99464 13.4527 9.58155 13.782 9.79352C14.1376 9.98055 13.3635 9.8602 13.2694 9.98272C13.2727 10.5086 13.9559 10.3036 14.256 10.5785C14.4977 10.6782 14.8049 11.0583 14.4757 11.2448C14.2962 10.92 14.0693 10.4912 13.5997 10.6257C13.5182 11.2149 14.6326 11.6139 14.9541 11.1342C14.7234 10.9482 14.8396 10.6614 14.9244 10.4256C15.1209 10.4695 15.3235 10.5519 15.5239 10.4712C15.4287 10.688 15.6632 10.8864 15.6924 11.1022C15.5492 11.0908 15.3879 11.0745 15.2921 11.2046C15.5569 11.1542 15.797 11.3152 16.0574 11.3207C16.3536 11.2377 16.6206 11.3651 16.8959 11.4377C16.9994 11.2876 17.1321 11.312 17.284 11.3835C17.3793 11.0837 17.5598 10.289 17.562 11.1114C17.088 11.827 17.7107 11.2675 17.9953 11.029C18.4429 11.5337 18.5569 10.3898 19.103 10.7297C19.0238 10.8051 18.9412 10.8783 18.8806 10.9699C18.5718 11.2166 18.9357 11.319 19.1697 11.2973C19.3277 11.2242 19.6563 10.8599 19.4956 11.3911C19.4631 11.5971 19.2858 10.7254 19.4031 11.4638C19.4581 11.589 20.1221 11.6703 19.4356 11.6562C18.8322 11.5581 19.2913 11.7825 19.4504 11.808C19.2798 12.3431 19.6007 12.953 19.4851 13.3807C19.3436 13.5081 19.2335 13.7054 19.2302 13.3926C19.2699 13.1167 18.8553 13.0814 18.6742 12.9508C18.5679 13.1606 18.3912 13.308 18.1754 13.4045C17.8401 13.2733 17.4756 13.1969 17.1623 13.0234C17.0187 12.8678 17.2636 12.9313 17.36 12.9437C16.9537 12.7957 16.8221 12.2357 17.0236 11.8828C16.9306 11.8796 16.7439 11.8742 16.6509 11.8714C16.5039 11.9007 15.5944 11.7186 16.2892 11.7066C16.5782 11.6649 15.6643 11.493 15.8377 11.7755C15.9473 12.052 15.389 11.8232 15.6467 11.731C16.0139 11.5435 15.0416 11.847 15.1121 11.4909C15.0802 11.7392 14.7295 11.788 14.714 11.5039C14.2901 11.5543 14.0864 11.5483 14.6089 11.6459C14.0297 11.4242 13.9086 12.0037 13.8756 12.4087C14.0011 12.5496 13.8629 12.6982 13.8122 12.838C13.8023 12.8565 13.782 12.8922 13.7715 12.9107C13.4428 13.114 13.0822 13.2658 12.6913 13.1991C12.4722 13.5943 12.1644 12.9589 11.931 13.2126C11.653 13.4924 11.5853 12.6553 11.2902 12.9063C11.0325 13.1535 11.0028 12.7182 10.9505 12.5279C10.8982 12.2834 10.5596 12.599 10.482 12.349C10.5023 12.1349 10.5634 11.756 10.2116 11.7874C9.91048 11.641 10.3944 11.2214 10.0437 11.0875C9.76293 10.9412 10.2287 10.5926 9.94516 10.475C9.3803 10.4354 8.8292 10.5655 8.27314 10.5227C7.84701 10.7802 7.54476 10.3497 7.69396 9.97242C7.37023 10.0066 7.05807 10.1096 6.74866 10.2061C7.06082 10.5996 6.63304 11.6611 5.9366 11.8498C5.84135 11.8725 5.74611 11.8953 5.65472 11.9305C5.12453 12.0184 4.66703 12.0265 4.33284 11.634C4.02178 11.6828 4.20621 11.1797 3.85056 11.28C3.86818 11.2225 3.88579 11.1645 3.90286 11.1071C3.23064 10.2814 3.87148 8.6296 5.18509 8.82422C4.90707 8.78139 4.85972 8.32764 4.52608 8.53907C4.1908 8.29891 3.87478 8.65128 3.53179 8.68977C3.75917 8.49407 3.33689 8.57051 3.21632 8.48973C3.37268 8.05333 2.97628 8.27993 3.02913 8.45883C2.51932 8.16934 1.59825 8.94023 1.28884 8.17639C1.40005 8.0349 2.08989 8.08044 1.58889 7.86088C2.06512 8.03056 2.18459 7.74595 2.21101 7.27974C1.98254 7.37677 1.91372 7.26835 1.97703 6.99621C1.48649 6.96639 1.45896 7.32744 1.48704 7.69716C1.13028 7.63807 1.31141 7.04663 1.41051 6.90622C1.56687 7.14475 2.15706 6.9832 2.05631 6.65576C2.4918 6.71865 2.91847 6.84605 3.35671 6.88616C3.24165 6.4297 3.50922 5.92716 3.3892 5.52817C3.37158 5.5119 3.33634 5.47992 3.31872 5.4642C3.14805 5.38071 2.9917 5.34276 3.07538 5.11453C2.86837 5.06954 2.61457 5.09719 2.45161 4.93455C2.76102 4.97413 3.21687 4.90853 3.46132 5.05653C3.4938 5.71357 3.57914 4.98226 3.47563 4.87817C3.45361 4.54477 3.54335 4.18101 3.85937 4.00916C3.96507 4.12734 3.96562 4.33768 4.16492 4.35341C3.9959 4.65645 4.53104 4.24986 4.2943 4.07584C4.01022 4.04494 4.43579 3.64324 4.49525 3.9105C4.4424 4.12138 4.19851 4.48243 4.57288 4.50032C4.46773 4.68789 4.32954 4.86733 4.28935 5.08201C4.4391 5.24193 5.05076 5.01207 5.07994 5.35903C4.82448 5.33084 4.58114 5.23868 4.32568 5.21699C4.3422 5.34439 4.02233 5.54063 4.23815 5.54497C3.80982 5.71032 4.26017 6.36356 4.01352 6.23454C3.90561 6.70672 3.97608 7.16481 4.51728 7.31497C5.83915 7.65976 7.04541 8.40571 7.65927 9.64498C7.35922 9.77075 7.0344 9.85261 6.75857 10.0293C7.0867 9.97729 7.50897 9.9903 7.72974 9.71545C7.86738 9.79135 8.00832 9.8602 8.15202 9.92579C8.46583 10.0348 8.94701 10.3936 9.16558 9.99681C9.6363 9.1793 10.2793 8.34065 11.2505 8.09291C11.6288 7.9075 12.1777 8.15145 12.4617 7.80992C12.6142 7.88148 12.7816 8.00671 12.9561 7.92973L13.0018 7.91943C13.3272 8.08911 13.7869 8.02623 14.0225 7.73836C13.9697 7.09759 13.9912 6.42374 13.7484 5.81549C13.7153 5.66153 13.5513 5.77157 13.4291 5.72929C13.6416 5.07171 13.3393 4.37292 13.4836 3.70341ZM3.42773 8.24687C3.18109 8.42468 3.62483 8.61063 3.7388 8.44474C3.80982 8.25825 3.55546 8.2512 3.42773 8.24687ZM4.19245 10.089C3.76577 10.7981 4.98855 11.9219 5.46753 11.0827C5.7351 10.5828 5.42183 9.79785 4.84045 9.68835C4.64941 9.55336 4.21998 9.79297 4.19245 10.089ZM11.0743 10.578C10.6444 11.5098 12.105 12.767 12.7866 11.7771C13.2721 11.1591 12.7706 10.1085 11.9949 10.0196C11.7334 9.90628 11.1377 10.1649 11.0743 10.578Z" fill="#111111"/>
<path d="M1.94675 4.37834C2.01557 3.96796 2.41307 3.73594 2.81882 3.7972C2.26167 3.96905 3.10566 3.88665 3.35286 3.96959C3.30386 4.22818 3.3936 4.65482 3.2433 4.8245C3.05446 4.91178 2.3492 4.54965 2.45161 4.93455C2.40316 5.0755 2.3481 5.21482 2.31122 5.36011C2.68889 5.23976 2.86011 5.56991 3.31872 5.4642C3.33634 5.47992 3.37158 5.5119 3.3892 5.52817C3.1464 5.76236 2.69495 5.51841 2.37673 5.52112C2.0464 5.50648 2.30571 5.12592 2.21046 4.92859C2.11192 4.75023 2.01171 4.57188 1.94675 4.37834Z" fill="#B58D23"/>
<path d="M3.85937 4.00916C3.27028 3.62047 3.24165 4.7215 3.47563 4.87817C3.45361 4.54477 3.54335 4.18101 3.85937 4.00916Z" fill="#C99C20"/>
<path d="M18.1583 4.49923C18.2706 4.31708 18.2645 4.02488 18.504 3.95061C18.4941 4.18372 18.4281 4.41087 18.3714 4.63639C18.1489 4.70849 17.9331 4.8657 17.9904 5.14001C18.0019 5.62846 17.6865 6.18087 18.0019 6.61565C17.9733 6.67853 17.9326 6.73545 17.8946 6.794C17.7878 6.77611 17.6804 6.75931 17.5802 6.71973C17.6353 6.21069 17.7024 5.70218 17.7779 5.19585C18.0878 4.89714 17.5736 4.17613 18.1588 4.16367C18.1379 4.27805 17.975 4.45099 18.1583 4.49923Z" fill="#0E0E0E"/>
<path d="M16.4631 4.20161C16.8485 4.2233 17.2339 4.24661 17.6204 4.25962C17.5439 4.60549 17.6116 5.00069 17.3886 5.30102C17.2741 5.16386 17.1365 5.18555 16.9966 5.27825C16.9168 4.74535 16.788 5.07713 16.5865 4.69982C16.4037 4.59573 16.3673 4.38214 16.4631 4.20161Z" fill="#0D0D0D"/>
<path d="M1.94675 4.37834C2.01171 4.57188 2.11192 4.75023 2.21046 4.92859C2.30571 5.12592 2.0464 5.50648 2.37673 5.52112C2.69495 5.51841 3.1464 5.76236 3.3892 5.52817C3.50922 5.92716 3.24165 6.4297 3.35671 6.88616C2.91847 6.84605 2.4918 6.71865 2.05631 6.65576C1.46226 6.10498 1.67973 5.0755 1.94675 4.37834Z" fill="#896A11"/>
<path d="M4.57288 4.50032C5.12398 4.27914 5.75547 4.66024 6.33905 4.54802C6.51963 4.83318 6.46458 5.3059 6.62864 5.64743C6.29336 5.5428 5.78354 5.30211 5.72023 5.80356C5.95752 5.34927 5.39816 5.38288 5.07994 5.35903C5.05076 5.01207 4.4391 5.24193 4.28935 5.08201C4.32954 4.86733 4.46773 4.68789 4.57288 4.50032Z" fill="#B2891D"/>
<path d="M16.5865 4.69982C16.1218 4.53176 16.2605 5.47124 16.701 5.15953C16.6878 5.00069 16.6492 4.84564 16.5865 4.69982Z" fill="#0B0B0B"/>
<path d="M17.9904 5.14001C17.9331 4.8657 18.1489 4.70849 18.3714 4.63639C18.498 4.72855 18.6742 5.15573 18.4798 4.93238C18.2623 5.19422 18.3978 5.56557 18.4545 5.80356C18.1533 5.67074 18.5233 6.44488 18.1627 6.6666C18.5596 6.46223 18.509 7.30847 18.1137 7.2613C17.8109 7.20384 17.9992 7.78553 18.0774 7.48086C18.3323 7.81426 18.3169 8.22518 18.3361 8.60412C18.2304 8.60304 18.1374 8.51413 18.03 8.55479C17.6815 8.40842 17.2989 8.35637 16.9284 8.29349C16.8364 8.23819 16.7461 8.18073 16.6558 8.12381C16.9008 8.0105 17.2163 8.0002 17.3864 7.76926C17.6529 7.8392 17.9116 7.5161 17.8142 7.26401C17.8103 7.10355 17.8203 6.93929 17.8946 6.794C17.9326 6.73545 17.9733 6.67853 18.0019 6.61565C17.6865 6.18087 18.0019 5.62846 17.9904 5.14001ZM18.2998 4.73614C17.9271 4.86462 17.8665 6.02583 18.2756 5.52166C18.4358 5.31891 17.9238 5.14652 18.3356 5.20236C18.2144 5.05707 18.4853 4.68843 18.2998 4.73614ZM18.1308 5.71032C17.8296 5.80573 17.7597 6.45355 18.166 6.44542C18.1148 6.30068 18.395 5.66532 18.1308 5.71032ZM17.6204 8.0246C18.0515 7.99695 17.5235 8.50979 17.6204 8.0246Z" fill="#3D3634"/>
<path d="M16.5865 4.69982C16.788 5.07713 16.9168 4.74535 16.9966 5.27825L17.0203 5.30427C16.8023 5.32487 16.9779 5.64147 16.9564 5.80519C17.1761 5.65719 16.8491 6.65305 17.3325 6.67311C17.3749 6.38145 17.4068 6.08979 17.4415 5.7976C17.4982 5.56828 17.6474 5.38667 17.7779 5.19585C17.7024 5.70218 17.6353 6.21069 17.5802 6.71973C17.6804 6.75931 17.7878 6.77611 17.8946 6.794C17.8203 6.93929 17.8103 7.10355 17.8142 7.26401C17.7426 7.48465 17.5334 7.60392 17.3864 7.76926C17.4734 7.43424 17.2636 7.76167 17.1067 7.79312C16.7296 7.89883 16.2831 7.94383 15.9632 7.6809C15.8295 6.98428 16.108 6.31152 16.2314 5.6393C16.4004 5.53521 16.6856 5.49998 16.6966 5.2647C16.8799 5.17959 16.9096 4.96545 16.701 5.15953C16.6878 5.00069 16.6492 4.84564 16.5865 4.69982ZM16.8034 5.54009C16.7285 5.67616 16.7621 5.88921 16.8992 5.97433C16.8695 5.84205 17.0412 5.44522 16.8034 5.54009Z" fill="#525554"/>
<path d="M18.2998 4.73614C18.4853 4.68843 18.2144 5.05707 18.3356 5.20236C17.9238 5.14652 18.4358 5.31891 18.2756 5.52166C17.8665 6.02583 17.9271 4.86462 18.2998 4.73614Z" fill="#0C0C0A"/>
<path d="M9.04336 4.88522C10.4131 5.0343 11.7389 5.44576 13.0585 5.80139L13.107 5.80844C13.3349 5.98679 13.1296 6.2031 12.8978 6.20689C12.9347 6.77665 13.0167 7.34587 13.0018 7.91943L12.9561 7.92973C11.5621 7.16643 10.1136 6.49367 8.59301 6.01173C8.84351 5.68158 8.93931 5.275 9.04336 4.88522Z" fill="#B28811"/>
<path d="M2.31122 5.36011C2.3481 5.21482 2.40316 5.0755 2.45161 4.93455C2.61457 5.09719 2.86837 5.06954 3.07538 5.11453C2.9917 5.34276 3.14805 5.38071 3.31872 5.4642C2.86011 5.56991 2.68889 5.23976 2.31122 5.36011Z" fill="#5B5E5B"/>
<path d="M4.32568 5.21699C4.58114 5.23868 4.82448 5.33084 5.07994 5.35903C5.39816 5.38288 5.95752 5.34927 5.72023 5.80356C5.6916 5.88217 5.66297 5.96077 5.63049 6.0383C5.17629 5.88759 4.27999 5.87241 4.23815 5.54497C4.02233 5.54063 4.3422 5.34439 4.32568 5.21699Z" fill="#1C315F"/>
<path d="M16.6966 5.2647C16.462 5.27879 16.1504 5.32921 16.2314 5.6393C16.4004 5.53521 16.6856 5.49998 16.6966 5.2647Z" fill="#0B0C0B"/>
<path d="M16.9564 5.80519C16.9779 5.64147 16.8023 5.32487 17.0203 5.30427C17.4255 5.27391 17.469 5.52545 17.4002 5.83446C17.2097 5.51732 17.1211 5.70977 17.1684 5.95969C16.9262 6.33863 17.3974 6.0925 17.4002 5.83446L17.4415 5.7976C17.4068 6.08979 17.3749 6.38145 17.3325 6.67311C16.8491 6.65305 17.1761 5.65719 16.9564 5.80519Z" fill="#0E0E0E"/>
<path d="M4.23815 5.54497C4.27999 5.87241 5.17629 5.88759 5.63049 6.0383C5.26382 6.27303 4.62628 5.73742 4.16217 5.82795C4.06692 6.04209 4.64996 5.94776 4.47709 6.27899C4.47433 6.75822 4.90376 7.08837 5.3354 7.15776C5.79676 7.49333 6.68645 7.63916 7.04211 8.24307C7.45006 8.78031 7.68405 9.42976 8.15202 9.92579C8.00832 9.8602 7.86738 9.79135 7.72974 9.71545C7.71213 9.69811 7.67689 9.66233 7.65927 9.64498C7.04541 8.40571 5.83915 7.65976 4.51728 7.31497C3.97608 7.16481 3.90561 6.70672 4.01352 6.23454C4.26017 6.36356 3.80982 5.71032 4.23815 5.54497Z" fill="#7D6111"/>
<path d="M5.72023 5.80356C5.78354 5.30211 6.29336 5.5428 6.62864 5.64743C6.65727 5.71791 6.687 5.79055 6.74646 5.84259C6.8852 6.01715 7.14341 6.14563 7.11753 6.40097C7.01843 6.23454 6.76683 6.0139 6.6903 6.31586C6.84281 6.01065 6.35502 5.90981 6.26307 6.18358C6.02854 6.14563 5.63159 6.13804 5.72023 5.80356Z" fill="#1B3365"/>
<path d="M16.8992 5.97433C16.8695 5.84205 17.0412 5.44522 16.8034 5.54009C16.7285 5.67616 16.7621 5.88921 16.8992 5.97433Z" fill="#0C0C0C"/>
<path d="M17.4002 5.83446C17.2097 5.51732 17.1211 5.70977 17.1684 5.95969C16.9262 6.33863 17.3974 6.0925 17.4002 5.83446Z" fill="#2A2B2C"/>
<path d="M13.4291 5.72929C13.5513 5.77157 13.7153 5.66153 13.7484 5.81549C13.9912 6.42374 13.9697 7.09759 14.0225 7.73836C13.7869 8.02623 13.3272 8.08911 13.0018 7.91943C13.0167 7.34587 12.9347 6.77665 12.8978 6.20689C13.1296 6.2031 13.3349 5.98679 13.107 5.80844C13.2154 5.7873 13.3228 5.75911 13.4291 5.72929Z" fill="#DBA920"/>
<path d="M18.166 6.44542C18.1148 6.30068 18.395 5.66532 18.1308 5.71032C17.8296 5.80573 17.7597 6.45355 18.166 6.44542Z" fill="#060505"/>
<path d="M4.16217 5.82795C4.62628 5.73742 5.26382 6.27303 5.63049 6.0383C5.66297 5.96077 5.6916 5.88217 5.72023 5.80356C5.63159 6.13804 6.02854 6.14563 6.26307 6.18358C6.235 6.21827 6.20692 6.25351 6.17994 6.28929C6.96833 6.44217 7.70662 6.77123 8.41463 7.13608C8.73891 7.29654 9.00427 7.59037 9.36874 7.65325C9.0318 7.40984 9.23881 7.38003 9.5339 7.52965C9.80642 7.24992 10.1489 7.06126 10.4764 6.85255C11.1756 7.07373 11.8363 7.43044 12.4617 7.80992C12.1777 8.15145 11.6288 7.9075 11.2505 8.09291C10.2793 8.34065 9.6363 9.1793 9.16558 9.99681C8.94701 10.3936 8.46583 10.0348 8.15202 9.92579C7.68405 9.42976 7.45006 8.78031 7.04211 8.24307C6.68645 7.63916 5.79676 7.49333 5.3354 7.15776C4.90376 7.08837 4.47433 6.75822 4.47709 6.27899C4.64996 5.94776 4.06692 6.04209 4.16217 5.82795Z" fill="#AB830C"/>
<path d="M6.74646 5.84259C7.06082 5.96728 7.30692 6.27195 7.66698 6.337C7.20782 6.28496 7.68019 6.52457 7.80792 6.62703C8.17184 6.53867 8.4295 6.8802 8.65522 7.10517C8.61008 7.17727 8.49061 7.12306 8.41463 7.13608C7.70662 6.77123 6.96833 6.44217 6.17994 6.28929C6.20692 6.25351 6.235 6.21827 6.26307 6.18358C6.35502 5.90981 6.84281 6.01065 6.6903 6.31586C6.76683 6.0139 7.01843 6.23454 7.11753 6.40097C7.14341 6.14563 6.8852 6.01715 6.74646 5.84259Z" fill="#7C7A69"/>
<path d="M8.51373 6.11798C8.53355 6.09142 8.57319 6.03829 8.59301 6.01173C10.1136 6.49367 11.5621 7.16643 12.9561 7.92973C12.7816 8.00671 12.6142 7.88148 12.4617 7.80992C11.8363 7.43044 11.1756 7.07373 10.4764 6.85255C10.0789 6.67528 9.67264 6.51319 9.25532 6.3885C9.00647 6.30285 8.76038 6.20906 8.51373 6.11798Z" fill="#654D0F"/>
<path d="M7.66698 6.337C7.97254 6.37224 8.24947 6.24972 8.51373 6.11798C8.76038 6.20906 9.00647 6.30285 9.25532 6.3885C8.89416 6.20581 8.40747 6.58204 8.79286 6.90297C8.99106 7.2239 8.97289 6.56252 9.11053 6.7528C9.03951 7.30413 9.66163 6.59179 9.25532 6.3885C9.67264 6.51319 10.0789 6.67528 10.4764 6.85255C10.1489 7.06126 9.80642 7.24992 9.5339 7.52965C9.23881 7.38003 9.0318 7.40984 9.36874 7.65325C9.00427 7.59037 8.73891 7.29654 8.41463 7.13608C8.49061 7.12306 8.61008 7.17727 8.65522 7.10517C8.4295 6.8802 8.17184 6.53867 7.80792 6.62703C7.68019 6.52457 7.20782 6.28496 7.66698 6.337Z" fill="#283A5F"/>
<path d="M8.79286 6.90297C8.40747 6.58204 8.89416 6.20581 9.25532 6.3885C9.66163 6.59179 9.03951 7.30413 9.11053 6.7528C8.97289 6.56252 8.99106 7.2239 8.79286 6.90297Z" fill="#787E84"/>
<path d="M14.0952 6.65793C14.512 7.05205 14.9739 7.41743 15.536 7.58332C15.9214 7.80016 14.9811 7.58223 14.9194 7.64783C14.6876 7.62615 14.4569 7.59362 14.2257 7.57194C14.0693 7.30034 14.1464 6.95935 14.0952 6.65793Z" fill="#B38D33"/>
<path d="M24.3432 7.47869C23.6324 7.43641 24.4924 6.97886 24.8734 7.10355C25.0072 7.84136 24.9075 8.16067 24.8871 8.56292C24.8552 8.64261 25.0374 8.78248 24.7693 8.73585C24.5766 8.31788 24.9466 7.67548 24.515 7.41472C24.2694 7.19137 23.9633 7.33069 24.3432 7.47869Z" fill="#4B4D46"/>
<path d="M17.3864 7.76926C17.6529 7.8392 17.9116 7.5161 17.8142 7.26401C17.7426 7.48465 17.5334 7.60392 17.3864 7.76926Z" fill="#F2BD2C"/>
<path d="M24.515 7.41472C24.9466 7.67548 24.5766 8.31788 24.7693 8.73585L24.755 8.76513C24.6245 8.89686 24.717 9.07467 24.7187 9.23351C24.4797 8.82151 24.5095 8.32981 24.494 7.87118C24.4979 7.71831 24.5051 7.56597 24.515 7.41472Z" fill="#BE1116"/>
<path d="M24.3432 7.47869C24.4847 7.5573 24.4632 7.73023 24.494 7.87118C24.5095 8.32981 24.4797 8.82151 24.7187 9.23351C24.717 9.07467 24.6245 8.89686 24.755 8.76513C24.9339 8.73585 25.1101 8.9386 24.8277 8.89849C25.1756 9.07847 24.651 9.02968 25 9.21183C24.4643 9.15762 25.2621 9.40428 24.8216 9.39235C24.8491 9.44168 25.0705 9.53872 24.9444 9.54143C24.6344 9.523 25.1486 9.67479 24.8822 9.7534C24.9229 9.84068 24.9053 10.2879 24.8277 10.4619C25.1431 10.475 24.5942 10.7232 24.7038 10.4056C24.6366 10.1508 24.8194 9.85152 24.6223 9.63901C24.2793 9.91929 23.8967 10.2229 23.655 10.5362C23.6198 10.6023 23.4491 10.7167 23.3951 10.5693C23.2283 10.8837 23.9787 11.1884 23.3098 11.036C22.8473 10.9406 23.9798 11.4031 23.1925 11.2041C22.5589 11.0306 23.6968 11.5445 22.9718 11.3705C22.631 11.2036 23.0758 11.6291 22.7053 11.5277C22.3893 11.4226 22.6073 11.6226 22.7796 11.6768C22.8049 11.8844 22.5302 11.6139 22.3865 11.6812C22.0991 11.3727 22.3161 11.8275 22.6436 11.9251C22.2428 11.904 22.1558 11.802 22.1729 12.0769C21.6824 11.9706 21.874 12.13 22.2037 12.304C21.972 12.3859 21.7853 12.2525 21.58 12.1935C21.5866 12.3783 21.8712 12.348 21.9202 12.5274C21.6108 12.4011 20.9903 12.3507 21.6537 12.6792C21.3262 12.5648 20.9639 12.6922 21.395 12.8733C21.4016 12.9036 20.6154 12.7811 21.0691 13.0294C21.5502 13.3351 20.235 12.851 20.6561 13.1665C21.1797 13.3801 20.5824 13.3747 20.3192 13.2386C20.1249 13.4278 20.6605 13.3915 20.5956 13.6067C20.4045 13.5823 20.2212 13.5249 20.0434 13.456C19.8066 13.6707 20.8428 13.8426 20.1238 13.8518C19.7593 13.8794 19.9828 13.8995 20.0957 14.08C19.6596 14.1033 20.3269 14.2773 19.9795 14.3185C19.8463 14.3061 20.2944 14.6064 19.9894 14.5001C19.8788 14.4324 19.7676 14.3657 19.6514 14.3077C20.1122 14.0919 19.4268 13.5617 19.7676 13.2235C19.93 12.8771 19.3871 12.7014 19.7609 12.4211C19.696 12.1869 19.8441 11.7186 19.4504 11.808C19.2913 11.7825 18.8322 11.5581 19.4356 11.6562C20.1221 11.6703 19.4581 11.589 19.4031 11.4638C19.2858 10.7254 19.4631 11.5971 19.4956 11.3911C19.6563 10.8599 19.3277 11.2242 19.1697 11.2973C19.0397 11.1461 19.1399 10.8306 18.8806 10.9699C18.9412 10.8783 19.0238 10.8051 19.103 10.7297C18.5569 10.3898 18.4429 11.5337 17.9953 11.029C18.2018 10.7991 18.8024 10.7796 18.6731 10.3682C19.1361 10.4457 19.4917 10.1215 19.8617 9.91224C20.5207 9.49318 21.188 9.08714 21.8602 8.68923C22.0094 8.59002 22.1597 8.49082 22.3128 8.39649C22.027 8.40028 21.7424 8.41492 21.4622 8.47022C21.3245 8.40679 21.1797 8.32005 21.0245 8.38023C20.9276 8.34661 20.8329 8.30758 20.7398 8.26638C21.0305 7.84895 21.7022 8.22084 22.0925 7.99912C22.479 8.13953 22.855 8.08315 23.2168 7.88907C23.6126 7.99587 24.0101 8.10104 24.3971 8.23548C24.3938 7.98231 24.4082 7.72535 24.3432 7.47869ZM22.2175 8.91909C22.0375 8.96083 21.978 9.11533 21.8233 9.18472C21.4792 9.29802 22.0369 9.41675 22.1707 9.42054C22.528 9.31591 22.1283 9.02317 22.2175 8.91909ZM20.8868 9.73172C20.7178 9.79677 20.6886 10.0602 20.4734 9.99898C20.3214 10.3579 21.09 10.4348 21.0013 10.044C20.9413 9.95995 20.9512 9.73334 20.8868 9.73172ZM19.7263 10.1025C19.6266 10.1871 19.4532 10.2039 19.3871 10.3042C19.9647 10.4283 19.5264 11.4827 19.8182 11.8704C19.6079 11.3884 20.0384 11.7186 19.9905 11.4535C19.7417 11.6053 19.7978 11.145 19.9327 11.0604C19.6817 10.8094 19.9955 10.9542 20.1485 11.0095C20.1254 10.6501 19.6762 10.4077 19.7263 10.1025ZM21.7099 10.9574C22.4939 10.7167 21.2684 11.8118 21.7099 10.9574ZM21.0261 11.1271C21.0465 11.3163 21.0735 11.5885 21.2931 11.6497C21.5271 11.4134 21.3306 11.1049 21.0261 11.1271ZM20.3087 11.6004C20.4145 11.8058 20.6539 11.8595 20.861 11.9143C21.0206 11.628 20.4745 11.6763 20.3087 11.6004ZM20.279 12.0487C20.1188 12.0915 20.0731 12.2731 20.0968 12.4168C20.3264 12.4298 20.7563 11.9853 20.279 12.0487Z" fill="#171717"/>
<path d="M17.1067 7.79312C17.2636 7.76167 17.4734 7.43424 17.3864 7.76926C17.2163 8.0002 16.9008 8.0105 16.6558 8.12381C16.4026 8.11622 16.0442 8.32602 15.8785 8.07881C15.8581 7.93027 15.7882 7.7671 15.9632 7.6809C16.2831 7.94383 16.7296 7.89883 17.1067 7.79312Z" fill="#E7B219"/>
<path d="M15.8785 8.07881C16.0442 8.32602 16.4026 8.11622 16.6558 8.12381C16.7461 8.18073 16.8364 8.23819 16.9284 8.29349C16.1157 8.92722 14.9497 8.62851 14.2653 9.48776C14.158 9.32188 14.2213 8.83777 13.9141 8.98523C13.6955 9.12889 13.6394 8.77651 13.5061 8.66429C13.2518 8.19753 14.2323 8.22464 14.463 8.2447C14.3287 8.6464 14.7652 8.61062 15.0014 8.58569C15.2866 8.42522 15.7579 8.40787 15.8785 8.07881Z" fill="#705D1D"/>
<path d="M19.1713 8.57159C19.5187 8.44582 19.8342 8.25283 20.1557 8.07664C20.3765 8.08748 20.4959 8.39161 20.7398 8.26638C20.8329 8.30758 20.9276 8.34661 21.0245 8.38023C21.0454 8.66863 20.4216 8.73694 20.2416 8.97926C19.9641 9.0454 19.4565 9.30399 19.4356 9.71003C19.271 9.8461 19.2798 9.63522 19.2231 9.53059C18.9549 9.53601 18.9269 10.1838 18.6896 9.82767C18.4897 10.1264 18.1902 10.0375 18.0669 10.4267C17.5637 11.0528 17.6876 9.80273 17.7988 9.50511C17.9342 9.3235 18.4908 8.91421 18.5993 9.28339C18.6301 9.12997 18.6813 8.98631 18.7116 8.83452C18.2343 9.01504 17.8081 9.31646 17.3473 9.53601C17.3336 9.45686 17.3226 9.37771 17.3137 9.29802L17.3198 9.24164C17.5268 8.98902 18.6285 8.89252 18.03 8.55479C18.1374 8.51413 18.2304 8.60304 18.3361 8.60412C18.6015 8.64532 18.5272 8.12272 18.6868 8.38348C18.841 8.63719 19.32 7.91618 19.1713 8.57159Z" fill="#F1BF27"/>
<path d="M0.605056 8.13953C0.832433 8.1623 1.05981 8.20024 1.28884 8.17639C1.19084 8.23657 0.601752 8.38077 0.605056 8.13953Z" fill="#242522"/>
<path d="M3.02913 8.45883C2.97628 8.27993 3.37268 8.05333 3.21632 8.48973C3.33689 8.57051 3.75917 8.49407 3.53179 8.68977C3.87478 8.65128 4.1908 8.29891 4.52608 8.53907C4.85972 8.32764 4.90707 8.78139 5.18509 8.82422C3.87148 8.6296 3.23064 10.2814 3.90286 11.1071C3.42663 11.0951 2.87938 10.63 2.51051 11.0946C2.21212 11.1125 1.85316 10.9764 1.69019 10.701C1.28444 10.4712 0.682133 10.8208 0.322072 10.4625C1.11817 10.121 -0.447049 9.86399 0.131581 9.40103C0.96897 9.14677 1.78929 8.79007 2.63714 8.83289C2.74065 8.66917 3.03959 8.67297 3.02913 8.45883Z" fill="black" fill-opacity="0.35"/>
<path d="M16.9284 8.29349C17.2989 8.35637 17.6815 8.40842 18.03 8.55479C18.6285 8.89252 17.5268 8.98902 17.3198 9.24164C16.8887 9.34193 16.7252 9.96157 16.2462 9.76099C16.0161 9.80436 16.2292 9.98922 16.3106 10.0781C16.1598 10.1546 16.0128 10.238 15.8658 10.3205C15.4666 10.1882 15.0636 10.0586 14.6788 9.89055C14.7284 9.54252 14.4377 9.58643 14.2653 9.48776C14.9497 8.62851 16.1157 8.92722 16.9284 8.29349Z" fill="#A98419"/>
<path d="M21.0245 8.38023C21.1797 8.32005 21.3245 8.40679 21.4622 8.47022C21.5932 8.54611 21.7237 8.62309 21.8602 8.68923C21.188 9.08714 20.5207 9.49318 19.8617 9.91224C19.4917 10.1215 19.1361 10.4457 18.6731 10.3682C18.8024 10.7796 18.2018 10.7991 17.9953 11.029C17.7107 11.2675 17.088 11.827 17.562 11.1114C17.5598 10.289 17.3793 11.0837 17.284 11.3835C17.1321 11.312 16.9994 11.2876 16.8959 11.4377C16.6206 11.3651 16.3536 11.2377 16.0574 11.3207C16.44 10.8344 17.3137 10.9341 17.6188 10.3568C17.5224 10.1844 17.3793 10.0434 17.2802 9.87375C17.2807 9.67967 17.2862 9.48885 17.3137 9.29802C17.3226 9.37771 17.3336 9.45686 17.3473 9.53601C17.8081 9.31646 18.2343 9.01504 18.7116 8.83452C18.6813 8.98631 18.6301 9.12997 18.5993 9.28339C18.4908 8.91421 17.9342 9.3235 17.7988 9.50511C17.6876 9.80273 17.5637 11.0528 18.0669 10.4267C18.21 10.559 18.6967 10.0315 18.9472 10.0174C19.1807 10.437 19.2231 9.72846 19.2231 9.53059C19.2798 9.63522 19.271 9.8461 19.4356 9.71003C19.4565 9.30399 19.9641 9.0454 20.2416 8.97926C20.4216 8.73694 21.0454 8.66863 21.0245 8.38023Z" fill="#BF931B"/>
<path d="M12.0125 8.53039C12.1958 8.42414 12.9556 8.5125 12.4915 8.7364C12.6919 8.72881 12.9583 8.78085 12.9589 8.51901C13.1163 8.61388 13.4929 9.04377 13.5061 8.66429C13.6394 8.77651 13.6955 9.12889 13.9141 8.98523C14.2213 8.83777 14.158 9.32188 14.2653 9.48776C14.4377 9.58643 14.7284 9.54252 14.6788 9.89055C15.0636 10.0586 15.4666 10.1882 15.8658 10.3205C15.7568 10.3806 15.6412 10.4289 15.5239 10.4712C15.3235 10.5519 15.1209 10.4695 14.9244 10.4256C14.8396 10.6614 14.7234 10.9482 14.9541 11.1342C14.6326 11.6139 13.5182 11.2149 13.5997 10.6257C14.0693 10.4912 14.2962 10.92 14.4757 11.2448C14.8049 11.0583 14.4977 10.6782 14.256 10.5785C13.9559 10.3036 13.2727 10.5086 13.2694 9.98272C13.3635 9.8602 14.1376 9.98055 13.782 9.79352C13.4527 9.58155 12.6186 9.99464 12.8119 9.30833C12.8669 8.94511 12.4975 9.42651 12.3235 9.28664C12.0114 9.26008 12.3417 8.8356 12.1149 8.78302C11.8875 8.86759 11.5891 9.34844 11.4966 8.89849C11.2984 8.47184 11.1608 9.41241 10.9103 9.15437C10.7341 8.99336 11.1046 8.83994 10.9494 8.71525C11.1685 8.9283 11.5996 8.4442 12.0125 8.53039Z" fill="#393A3B"/>
<path d="M22.2175 8.91909C22.1283 9.02317 22.528 9.31591 22.1707 9.42054C22.0369 9.41675 21.4792 9.29802 21.8233 9.18472C21.978 9.11533 22.0375 8.96083 22.2175 8.91909Z" fill="#977512"/>
<path d="M16.2462 9.76099C16.7252 9.96157 16.8887 9.34193 17.3198 9.24164L17.3137 9.29802C17.2862 9.48885 17.2807 9.67967 17.2802 9.87375C17.1111 9.4303 16.5716 9.95344 16.3106 10.0781C16.2292 9.98922 16.0161 9.80436 16.2462 9.76099Z" fill="#62521C"/>
<path d="M18.6896 9.82767C18.9269 10.1838 18.9549 9.53601 19.2231 9.53059C19.2231 9.72846 19.1807 10.437 18.9472 10.0174C18.6967 10.0315 18.21 10.559 18.0669 10.4267C18.1902 10.0375 18.4897 10.1264 18.6896 9.82767Z" fill="#4B4228"/>
<path d="M4.19245 10.089C4.21998 9.79297 4.64941 9.55336 4.84045 9.68835C4.65822 9.72955 4.44791 9.76478 4.33614 9.92959C4.60371 10.0174 4.71713 10.3221 4.95717 10.4625C5.16803 10.6501 5.12068 11.1943 5.46753 11.0827C4.98855 11.9219 3.76577 10.7981 4.19245 10.089Z" fill="#CCCECF"/>
<path d="M6.75857 10.0293C7.0344 9.85261 7.35922 9.77075 7.65927 9.64498C7.67689 9.66233 7.71213 9.69811 7.72974 9.71545C7.50897 9.9903 7.0867 9.97729 6.75857 10.0293Z" fill="black"/>
<path d="M16.3106 10.0781C16.5716 9.95344 17.1111 9.4303 17.2802 9.87375C17.3793 10.0434 17.5224 10.1844 17.6188 10.3568C17.3137 10.9341 16.44 10.8344 16.0574 11.3207C15.797 11.3152 15.5569 11.1542 15.2921 11.2046C15.3879 11.0745 15.5492 11.0908 15.6924 11.1022C15.6632 10.8864 15.4287 10.688 15.5239 10.4712C15.6412 10.4289 15.7568 10.3806 15.8658 10.3205C16.0128 10.238 16.1598 10.1546 16.3106 10.0781Z" fill="#F6BF2E"/>
<path d="M23.655 10.5362C23.8967 10.2229 24.2793 9.91929 24.6223 9.63901C24.8194 9.85152 24.6366 10.1508 24.7038 10.4056C24.368 10.4847 24.0013 10.4533 23.655 10.5362Z" fill="#C0711A"/>
<path d="M4.33614 9.92959C4.44791 9.76478 4.65822 9.72955 4.84045 9.68835C5.42183 9.79785 5.7351 10.5828 5.46753 11.0827C5.12068 11.1943 5.16803 10.6501 4.95717 10.4625C5.17573 10.8252 5.62884 10.546 5.32273 10.2088C5.086 10.0402 4.96047 10.2332 4.95717 10.4625C4.71713 10.3221 4.60371 10.0174 4.33614 9.92959Z" fill="#6C6F6A"/>
<path d="M20.8868 9.73172C20.9512 9.73334 20.9413 9.95995 21.0013 10.044C21.09 10.4348 20.3214 10.3579 20.4734 9.99898C20.6886 10.0602 20.7178 9.79677 20.8868 9.73172Z" fill="#CDA020"/>
<path d="M6.74866 10.2061C7.05807 10.1096 7.37023 10.0066 7.69396 9.97242C7.54476 10.3497 7.84701 10.7802 8.27314 10.5227C8.8292 10.5655 9.3803 10.4354 9.94516 10.475C10.2287 10.5926 9.76293 10.9412 10.0437 11.0875C10.3944 11.2214 9.91048 11.641 10.2116 11.7874C10.5634 11.756 10.5023 12.1349 10.482 12.349C10.5596 12.599 10.8982 12.2834 10.9505 12.5279C11.0028 12.7182 11.0325 13.1535 11.2902 12.9063C11.5853 12.6553 11.653 13.4924 11.931 13.2126C12.1644 12.9589 12.4722 13.5943 12.6913 13.1991C13.0822 13.2658 13.4428 13.114 13.7715 12.9107C13.7522 13.2891 13.5342 13.8312 13.9752 14.0469C14.0776 14.164 14.1448 14.3213 14.2874 14.3993C15.1281 14.485 15.9687 14.5771 16.805 14.7002C16.9641 14.8785 17.2339 14.8129 17.4453 14.871C17.2824 15.1599 16.9498 15.2813 16.7384 15.5134C16.7412 15.7963 17.2328 15.6939 17.2405 15.9893C16.429 15.9774 15.5344 16.1113 14.8043 15.6803C13.494 15.5502 11.9409 15.4716 11.0661 14.3619C10.9301 13.9521 11.8473 14.3023 11.6535 14.0063C10.4225 13.6984 9.17439 13.3829 8.0865 12.6445C7.50952 12.0991 6.5912 12.2748 5.9366 11.8498C6.63304 11.6611 7.06082 10.5996 6.74866 10.2061Z" fill="black" fill-opacity="0.42"/>
<path d="M11.0743 10.578C11.1377 10.1649 11.7334 9.90628 11.9949 10.0196C11.1999 9.88676 11.397 10.759 11.8148 11.0285C12.1132 11.2941 12.2228 12.1008 12.7866 11.7771C12.105 12.767 10.6444 11.5098 11.0743 10.578Z" fill="#CDD0D1"/>
<path d="M11.8148 11.0285C11.397 10.759 11.1999 9.88676 11.9949 10.0196C12.7706 10.1085 13.2721 11.1591 12.7866 11.7771C12.2228 12.1008 12.1132 11.2941 11.8148 11.0285ZM12.3505 10.5324C11.8985 10.656 12.0587 11.4253 12.4463 11.203C12.9253 11.1927 12.7348 10.45 12.3505 10.5324Z" fill="#646764"/>
<path d="M19.7263 10.1025C19.6762 10.4077 20.1254 10.6501 20.1485 11.0095C19.9955 10.9542 19.6817 10.8094 19.9327 11.0604C19.7978 11.145 19.7417 11.6053 19.9905 11.4535C20.0384 11.7186 19.6079 11.3884 19.8182 11.8704C19.5264 11.4827 19.9647 10.4283 19.3871 10.3042C19.4532 10.2039 19.6266 10.1871 19.7263 10.1025Z" fill="#8C7F56"/>
<path d="M5.32273 10.2088C5.086 10.0402 4.96047 10.2332 4.95717 10.4625C5.17573 10.8252 5.62884 10.546 5.32273 10.2088Z" fill="#191A16"/>
<path d="M12.4463 11.203C12.9253 11.1927 12.7348 10.45 12.3505 10.5324C11.8985 10.656 12.0587 11.4253 12.4463 11.203Z" fill="#241F18"/>
<path d="M19.1697 11.2973C19.0397 11.1461 19.1399 10.8306 18.8806 10.9699C18.5718 11.2166 18.9357 11.319 19.1697 11.2973Z" fill="#CA9F31"/>
<path d="M21.7099 10.9574C22.4939 10.7167 21.2684 11.8118 21.7099 10.9574Z" fill="#EDBE3A"/>
<path d="M21.2931 11.6497C21.5271 11.4134 21.3306 11.1049 21.0261 11.1271C21.0465 11.3163 21.0735 11.5885 21.2931 11.6497Z" fill="#E9BB39"/>
<path d="M2.65366 11.7473C2.71807 11.2648 3.46903 11.287 3.85056 11.28C4.20621 11.1797 4.02178 11.6828 4.33284 11.634C4.66703 12.0265 5.12453 12.0184 5.65472 11.9305C6.22564 12.2569 5.41522 12.6174 5.06342 12.6282C4.1908 12.6602 3.30166 12.3122 2.65366 11.7473Z" fill="black" fill-opacity="0.35"/>
<path d="M14.6089 11.6459C14.0864 11.5483 14.2901 11.5543 14.714 11.5039C14.7295 11.788 15.0802 11.7392 15.1121 11.4909C15.0416 11.847 16.0139 11.5435 15.6467 11.731C15.389 11.8232 15.9473 12.052 15.8377 11.7755C15.6643 11.493 16.5782 11.6649 16.2892 11.7066C15.5944 11.7186 16.5039 11.9007 16.6509 11.8714C16.5523 12.156 16.1906 11.9978 16.0326 12.2097C15.8829 12.3355 16.1961 12.3583 16.2666 12.4455C16.4417 12.5409 16.5677 12.9914 16.794 12.7529C16.881 13.0771 17.0412 13.3769 17.2576 13.6366C17.4745 13.41 17.5031 13.7585 17.4745 13.9212C17.9992 14.1521 18.4578 14.5679 19.0238 14.6075C18.5723 14.6346 19.6773 14.9658 18.9125 14.8249C18.4182 14.6124 17.9353 14.9561 17.4453 14.871C17.2339 14.8129 16.9641 14.8785 16.805 14.7002C17.2268 14.5858 17.1932 13.8084 16.7704 14.2963C17.001 14.6807 16.2638 14.5863 16.516 14.3619C15.672 14.3934 14.7685 14.3635 13.9752 14.0469C13.5342 13.8312 13.7522 13.2891 13.7715 12.9107C13.782 12.8922 13.8023 12.8565 13.8122 12.838C14.2703 12.9649 14.708 13.1459 15.1473 13.3211C15.2228 13.2641 15.7854 13.3021 15.5052 13.1405C15.0124 12.7957 14.42 12.6483 13.8756 12.4087C13.9086 12.0037 14.0297 11.4242 14.6089 11.6459ZM15.7667 13.803C16.0321 13.8453 16.3613 14.1315 16.587 13.9927C16.788 13.7417 16.5176 13.1974 16.2804 13.0229C16.0585 13.1617 15.4154 13.4842 15.7667 13.803Z" fill="#B68C12"/>
<path d="M20.861 11.9143C21.0206 11.628 20.4745 11.6763 20.3087 11.6004C20.4145 11.8058 20.6539 11.8595 20.861 11.9143Z" fill="#CEA43A"/>
<path d="M19.4504 11.808C19.8441 11.7186 19.696 12.1869 19.7609 12.4211C19.3871 12.7014 19.93 12.8771 19.7676 13.2235C19.4268 13.5617 20.1122 14.0919 19.6514 14.3077C19.293 14.1857 19.5864 13.6496 19.4851 13.3807C19.6007 12.953 19.2798 12.3431 19.4504 11.808Z" fill="#A61316"/>
<path d="M16.6509 11.8714C16.7439 11.8742 16.9306 11.8796 17.0236 11.8828C16.8221 12.2357 16.9537 12.7957 17.36 12.9437C17.2636 12.9313 17.0187 12.8678 17.1623 13.0234C17.4756 13.1969 17.8401 13.2733 18.1754 13.4045C18.035 13.5173 17.8742 13.5992 17.7063 13.6648C18.171 13.9808 18.749 14.1678 19.1262 14.6216C19.1003 14.6178 19.0491 14.6113 19.0238 14.6075C18.4578 14.5679 17.9992 14.1521 17.4745 13.9212C17.5031 13.7585 17.4745 13.41 17.2576 13.6366C17.0412 13.3769 16.881 13.0771 16.794 12.7529C16.5677 12.9914 16.4417 12.5409 16.2666 12.4455C16.1961 12.3583 15.8829 12.3355 16.0326 12.2097C16.1906 11.9978 16.5523 12.156 16.6509 11.8714Z" fill="#665215"/>
<path d="M20.0968 12.4168C20.3264 12.4298 20.7563 11.9853 20.279 12.0487C20.1188 12.0915 20.0731 12.2731 20.0968 12.4168Z" fill="#F6C135"/>
<path d="M13.8756 12.4087C14.42 12.6483 15.0124 12.7957 15.5052 13.1405C15.7854 13.3021 15.2228 13.2641 15.1473 13.3211C14.708 13.1459 14.2703 12.9649 13.8122 12.838C13.8629 12.6982 14.0011 12.5496 13.8756 12.4087Z" fill="#706C82"/>
<path d="M18.1754 13.4045C18.3912 13.308 18.5679 13.1606 18.6742 12.9508C18.8553 13.0814 19.2699 13.1167 19.2302 13.3926C19.2335 13.7054 19.3436 13.5081 19.4851 13.3807C19.5864 13.6496 19.293 14.1857 19.6514 14.3077C19.7676 14.3657 19.8788 14.4324 19.9894 14.5001C19.8446 14.6389 20.4794 14.8428 19.8419 14.7425C19.8077 14.3955 19.3431 14.8861 19.1262 14.6216C18.749 14.1678 18.171 13.9808 17.7063 13.6648C17.8742 13.5992 18.035 13.5173 18.1754 13.4045Z" fill="#A98110"/>
<path d="M15.7667 13.803C15.4154 13.4842 16.0585 13.1617 16.2804 13.0229C16.5176 13.1974 16.788 13.7417 16.587 13.9927C16.4984 13.6935 16.4505 13.378 16.3018 13.1004C16.1003 13.2728 15.9115 13.4604 15.7353 13.6588C16.0122 13.7856 16.3035 13.8811 16.587 13.9927C16.3613 14.1315 16.0321 13.8453 15.7667 13.803Z" fill="#3D2525"/>
<path d="M15.7353 13.6588C15.9115 13.4604 16.1003 13.2728 16.3018 13.1004C16.4505 13.378 16.4984 13.6935 16.587 13.9927C16.3035 13.8811 16.0122 13.7856 15.7353 13.6588Z" fill="#B15516"/>
<path d="M13.9752 14.0469C14.7685 14.3635 15.672 14.3934 16.516 14.3619C16.2638 14.5863 17.001 14.6807 16.7704 14.2963C17.1932 13.8084 17.2268 14.5858 16.805 14.7002C15.9687 14.5771 15.1281 14.485 14.2874 14.3993C14.1448 14.3213 14.0776 14.164 13.9752 14.0469Z" fill="#735811"/>
</svg>
