<svg width="24" height="13" viewBox="0 0 24 13" fill="none" xmlns="http://www.w3.org/2000/svg">
<path d="M21.7125 0.00643903C21.7801 -0.0133414 21.8051 0.012525 21.7865 0.0830245C21.7179 0.102805 21.6934 0.0774457 21.7125 0.00643903Z" fill="#353738"/>
<path d="M21.6459 0.101283C21.6194 0.0738947 21.6194 0.0738947 21.6459 0.101283Z" fill="#353738"/>
<path d="M21.8463 0.0759236C22.0996 0.0962113 22.3554 0.00136688 22.6073 0.0698376C22.7984 0.139323 22.9474 0.286408 23.1115 0.403062C23.1953 0.36553 23.2796 0.329519 23.3649 0.29503C23.309 0.371616 23.2443 0.445158 23.2149 0.538481C23.2316 0.547103 23.2644 0.564347 23.2806 0.57297C23.2776 0.682016 23.3007 0.788019 23.331 0.891993C23.3894 1.09081 23.3335 1.30231 23.3766 1.50316C23.4369 1.63706 23.53 1.75117 23.603 1.87696C23.4815 1.9718 23.4094 1.75422 23.3173 1.69893C23.3369 1.7603 23.357 1.82218 23.3771 1.88355C23.3237 1.84805 23.2708 1.81204 23.2178 1.77704C23.1429 1.90181 23.1929 2.03013 23.2526 2.1483C23.2036 2.09353 23.1556 2.03824 23.1086 1.98296C23.0963 2.00223 23.0713 2.04129 23.0586 2.06107C23.0336 2.0565 22.9836 2.04687 22.9586 2.0423C22.9743 2.0849 22.9905 2.12802 23.0076 2.17164C22.9292 2.15236 22.8498 2.15388 22.7754 2.18634C22.7837 2.22996 22.793 2.27409 22.8023 2.31872C22.6685 2.35118 22.745 2.53935 22.7166 2.64332C22.5612 2.66919 22.6225 2.4232 22.4818 2.42777C22.4774 2.5642 22.4769 2.70114 22.4769 2.83758L22.4319 2.83808C22.4314 2.70418 22.4309 2.56978 22.4289 2.43588L22.3819 2.43487C22.3799 2.56877 22.3794 2.70266 22.3789 2.83656L22.3339 2.84011C22.3329 2.72194 22.3319 2.60427 22.3309 2.4866L22.2853 2.48609C22.2834 2.58601 22.2819 2.68643 22.2805 2.78686L22.2398 2.78838C22.2359 2.71687 22.2305 2.64535 22.2241 2.57434C22.1976 2.62811 22.1771 2.6839 22.1614 2.74222C22.1173 2.69151 22.0761 2.63876 22.0369 2.5855C22.0374 2.62303 22.0379 2.6981 22.0384 2.73614C22.0374 2.82591 22.034 2.91568 22.0261 3.00596C21.9698 2.90858 21.982 2.79142 21.9713 2.6839C21.9541 2.77164 21.9438 2.86598 21.9012 2.9451C21.8928 2.8604 21.8845 2.77621 21.8781 2.69201C21.8483 2.74983 21.8184 2.80765 21.7885 2.86547C21.7576 2.84873 21.7277 2.8325 21.6978 2.81577C21.6983 2.92481 21.6988 3.03335 21.6983 3.1424L21.6469 3.14493C21.6444 3.00495 21.6385 2.86446 21.6135 2.72701C21.6047 2.85228 21.5984 2.97807 21.5939 3.10385C21.5582 3.02372 21.5376 2.92836 21.4636 2.87562C21.4562 3.01509 21.4553 3.15558 21.4528 3.29557L21.4063 3.29354C21.3984 3.18957 21.3896 3.0861 21.3823 2.98212C21.3676 3.07545 21.347 3.16725 21.3161 3.25651C21.3043 3.14899 21.2975 3.04096 21.2901 2.93343C21.1666 3.00343 21.2176 3.17739 21.2127 3.29709C21.2063 3.39447 21.2749 3.46345 21.3318 3.53141C21.3352 3.54561 21.3421 3.57402 21.3455 3.58822C21.4793 3.68813 21.6307 3.76523 21.7899 3.81341C21.912 3.84841 22.0413 3.87427 22.1432 3.95897C22.0492 4.0594 21.9193 4.10657 21.8007 4.16641C21.8193 4.18518 21.8576 4.22271 21.8767 4.24148C21.7155 4.30234 21.5562 4.37791 21.443 4.51587C21.1216 4.73802 20.7447 4.86127 20.412 5.06566C20.2704 5.06972 20.1705 5.1879 20.0411 5.20869C19.7971 5.14073 19.6349 5.36288 19.4408 5.46634C19.335 5.4846 19.2262 5.44352 19.1184 5.45164C19.1292 5.47547 19.1502 5.52366 19.161 5.5475C19.1061 5.60937 19.0517 5.67226 18.9954 5.73313C18.8896 5.85536 18.7376 5.91216 18.5916 5.9639C18.4495 6.01056 18.3113 6.0699 18.1785 6.1404C17.9198 6.22003 17.6464 6.27075 17.4127 6.41885C17.3499 6.44979 17.3235 6.51775 17.2901 6.57608C16.9226 6.73787 16.5806 6.95596 16.2087 7.1066C16.121 7.14159 16.0671 7.22782 15.9867 7.27499C15.6187 7.46265 15.2345 7.6143 14.8611 7.7908C14.696 7.86383 14.5696 8.00534 14.403 8.07533C14.1648 8.18336 13.8943 8.22495 13.6881 8.3979C13.5072 8.56223 13.2485 8.56376 13.0594 8.71186C12.9506 8.79656 12.83 8.863 12.6972 8.89546C12.4513 8.95277 12.268 9.14956 12.0249 9.21854C11.7804 9.38338 11.5011 9.47467 11.2488 9.62581C11.1307 9.68769 10.9998 9.71863 10.8685 9.73385C10.7161 9.71254 10.5505 9.674 10.4099 9.76326C10.2506 9.82818 10.157 9.98034 10.0865 10.133L10.0512 10.1335C9.93749 10.0077 9.78656 10.0737 9.66112 10.1381C9.6719 10.1579 9.69395 10.1969 9.70473 10.2162C9.66896 10.2603 9.63368 10.3044 9.59791 10.3491C9.62584 10.3825 9.65377 10.4165 9.68121 10.4505C9.57047 10.4703 9.45972 10.4911 9.34751 10.4992C9.26519 10.4769 9.18532 10.4434 9.10103 10.4348C9.00842 10.4424 8.931 10.5033 8.85112 10.5464C8.85798 10.5814 8.86485 10.6174 8.87171 10.6534C8.79379 10.73 8.69873 10.7822 8.60122 10.8263L8.58456 10.8344C8.37532 10.9795 8.10973 10.9009 7.89119 11.016C7.8368 11.0404 7.78387 11.0683 7.73144 11.0962C7.68979 11.0368 7.64226 10.9825 7.59375 10.9298C7.64618 11.0865 7.71772 11.2382 7.73977 11.4045C7.71821 11.4076 7.67509 11.4137 7.65353 11.4167C7.63197 11.3974 7.58934 11.3584 7.56778 11.3386C7.37912 11.3665 7.18655 11.3827 7.00818 11.4578C7.03023 11.4938 7.05277 11.5298 7.07482 11.5663C7.02092 11.5851 6.96702 11.6044 6.91312 11.6236C6.92586 11.5729 6.9386 11.5222 6.95134 11.472C6.8602 11.508 6.75386 11.5876 6.66321 11.506C6.281 11.228 5.96053 10.8568 5.53716 10.6412C5.34556 10.5377 5.1035 10.6027 4.92758 10.4606C4.82762 10.3942 4.75461 10.2963 4.67816 10.2045C5.24315 9.956 5.81598 9.7237 6.3692 9.4488C6.22563 9.42852 6.08009 9.41787 5.93995 9.37881C5.87135 9.3499 5.80079 9.32657 5.7263 9.33773C5.72238 9.31795 5.71454 9.27839 5.71111 9.25861C5.67975 9.27737 5.64888 9.29665 5.61752 9.31592C5.61556 9.28244 5.61164 9.21499 5.61017 9.18101C5.56607 9.26824 5.52246 9.35548 5.48032 9.44322C5.46856 9.29766 5.51364 9.12015 5.39457 9.01059C5.21571 8.81938 5.06675 8.60078 4.95208 8.36291C4.93983 8.33451 4.91484 8.27821 4.9021 8.25031C4.85261 8.10526 4.81929 7.95564 4.78891 7.80601C4.95159 7.82123 5.11379 7.84253 5.27647 7.85623C5.19709 7.72639 5.09566 7.60517 4.9609 7.53568C4.78009 7.4809 4.58947 7.4738 4.40327 7.45402C4.4018 7.38961 4.40033 7.32621 4.39935 7.26281C4.52528 7.19181 4.68159 7.22934 4.80508 7.16645C4.87417 7.01327 4.89916 6.84083 4.98638 6.69577C5.10693 6.50862 5.27647 6.35646 5.47542 6.26416C5.4323 6.18402 5.37496 6.11403 5.31665 6.04606C5.40045 6.09932 5.48767 6.1475 5.57881 6.18706C5.57734 6.1617 5.57391 6.112 5.57195 6.08714C5.63516 6.1333 5.70082 6.1759 5.77531 6.20025C5.71503 6.10439 5.64447 6.01614 5.57783 5.92586C5.69494 5.98926 5.78756 6.08765 5.88801 6.17438C5.96249 6.19923 6.04285 6.18858 6.12028 6.19112C6.04677 6.07751 5.94191 5.99281 5.85665 5.88934C6.06049 5.99585 6.23641 6.1546 6.45349 6.23525C6.46574 6.21394 6.49024 6.17083 6.50249 6.14953C6.40595 6.08664 6.3055 6.02273 6.24523 5.91876C6.42948 5.96288 6.55786 6.14699 6.75485 6.14091C6.69163 5.96593 6.48632 5.89796 6.40988 5.72349C6.60392 5.84065 6.76759 6.03744 7.00769 6.04454C6.90234 5.84065 6.65096 5.78892 6.53973 5.58858C6.78425 5.68393 6.96212 5.97303 7.24143 5.93905C7.13657 5.77776 6.92292 5.71538 6.84746 5.52214C7.04493 5.65603 7.23506 5.85181 7.48938 5.83761C7.34727 5.689 7.16891 5.58503 7.02778 5.43591C7.26103 5.52518 7.43155 5.74175 7.68587 5.78638C7.66039 5.58858 7.39823 5.56626 7.32424 5.38519C7.52417 5.49018 7.69714 5.66973 7.93088 5.68849C7.84317 5.50489 7.62315 5.45113 7.53446 5.26702C7.75398 5.36389 7.9152 5.61647 8.17736 5.58249C8.072 5.44961 7.90981 5.37454 7.82945 5.21833C7.99654 5.31216 8.14305 5.442 8.31407 5.52974C8.32681 5.50743 8.35131 5.46229 8.36356 5.43997C8.26703 5.37657 8.16658 5.31317 8.10728 5.20818C8.29153 5.25383 8.42138 5.43338 8.61837 5.43388C8.51988 5.2584 8.30476 5.20311 8.20725 5.02458C8.40766 5.11689 8.5679 5.28376 8.77811 5.35882C8.78105 5.36034 8.78693 5.36288 8.79036 5.3644L8.79477 5.35628C8.80261 5.34157 8.81878 5.31216 8.82711 5.29745C8.69383 5.16203 8.52233 5.07429 8.40031 4.92771C8.61053 4.99618 8.75459 5.19246 8.96922 5.25535C9.01577 5.29644 9.07359 5.19297 9.00744 5.17471C8.91287 5.10066 8.8227 5.02002 8.76047 4.91452C8.93639 5.01241 9.09417 5.17217 9.30488 5.17877C9.20786 5.03523 9.0241 4.98654 8.9408 4.8283C9.12847 4.90844 9.28332 5.0961 9.50088 5.0753C9.40386 4.93227 9.21668 4.88663 9.13778 4.72483C9.32399 4.82576 9.48618 4.97995 9.69689 5.0261C9.65181 4.8638 9.44796 4.82678 9.39406 4.66143C9.56214 4.77606 9.73266 4.90641 9.93994 4.92669C9.83507 4.82576 9.70326 4.74867 9.63956 4.6097C9.78705 4.71925 9.94435 4.8425 10.1379 4.82171C10.0085 4.6944 9.82527 4.62796 9.73952 4.45602C9.9272 4.54985 10.082 4.70657 10.282 4.77454C10.2535 4.57927 10.0066 4.5392 9.92426 4.36726C10.1301 4.46058 10.2908 4.66651 10.5294 4.67107C10.426 4.53514 10.2614 4.4616 10.182 4.30336C10.3756 4.41545 10.5353 4.61781 10.7744 4.62086C10.7097 4.5392 10.6284 4.47479 10.5554 4.40277C10.6759 4.44588 10.7931 4.50471 10.9219 4.51891C10.822 4.37893 10.6554 4.30741 10.5735 4.1512C10.7666 4.26633 10.9258 4.46718 11.1664 4.4687C11.0626 4.33328 10.8979 4.25872 10.8195 4.10048C10.9974 4.19837 11.138 4.4053 11.3639 4.36371C11.2331 4.23691 11.039 4.1862 10.9503 4.01426C11.1493 4.12178 11.3218 4.30691 11.5585 4.31604C11.4546 4.18062 11.2904 4.10657 11.211 3.94832C11.3771 4.03708 11.5021 4.22119 11.705 4.21764C11.6324 4.05078 11.433 4.01476 11.3438 3.86058C11.555 3.94579 11.7138 4.15779 11.9519 4.16489C11.875 4.03353 11.701 4.00817 11.6359 3.86413C11.7824 3.9468 11.9235 4.05737 12.0975 4.06346C12.0171 3.93716 11.8642 3.88898 11.7843 3.76066C11.9715 3.84181 12.1308 4.00158 12.342 4.01223C12.2219 3.87174 12.021 3.83167 11.9289 3.66227C12.1215 3.75103 12.2832 3.90521 12.489 3.96252C12.4449 3.75052 12.1621 3.7495 12.0769 3.55931C12.2783 3.66075 12.4522 3.84384 12.686 3.86109C12.6061 3.73378 12.4517 3.68712 12.3729 3.55779C12.5449 3.63843 12.6968 3.76523 12.8844 3.80935C12.7899 3.69676 12.66 3.62169 12.5811 3.49439C12.7276 3.573 12.8545 3.714 13.0309 3.7069C12.9462 3.58315 12.7815 3.54358 12.7262 3.39295C12.8687 3.4954 13.0167 3.5943 13.1848 3.64705C13.126 3.52076 12.9859 3.46903 12.9114 3.3544C13.0211 3.40766 13.1211 3.47867 13.2299 3.53344C13.3181 3.52482 13.4475 3.39802 13.3534 3.31231C13.3245 3.27072 13.2951 3.22963 13.2652 3.18957C13.3357 3.24333 13.4087 3.30013 13.4999 3.30673C13.4886 3.25449 13.4769 3.20225 13.4651 3.15102C13.57 3.22507 13.6876 3.27579 13.8125 3.30267C13.764 3.22963 13.7135 3.15761 13.664 3.08559C13.8027 3.17384 13.9336 3.29658 14.1051 3.30216C14.0095 3.22558 13.909 3.15203 13.839 3.04857C13.936 3.08559 14.0262 3.13935 14.1163 3.19159C14.0546 3.08356 13.9649 2.99734 13.889 2.90098C13.9527 2.94054 14.0149 2.98872 14.0923 2.99531C14.0962 2.95829 14.1046 2.88424 14.1085 2.84721C14.179 2.9101 14.2624 2.9522 14.3579 2.94916C14.3417 2.89083 14.3251 2.83352 14.3084 2.77621C14.3775 2.84518 14.4539 2.90655 14.5421 2.94814C14.5657 2.89996 14.5764 2.84721 14.5657 2.79396C14.5946 2.79345 14.6529 2.79345 14.6823 2.79345C14.647 2.72599 14.6112 2.65854 14.576 2.5921C14.6504 2.64434 14.7337 2.67477 14.8249 2.65854C14.8474 2.6702 14.893 2.69252 14.916 2.70368C15.0297 2.77063 15.1507 2.8254 15.2791 2.85482C15.2071 2.78483 15.1326 2.71839 15.0576 2.65245C15.091 2.65955 15.1581 2.67325 15.1919 2.68035C15.1738 2.62963 15.1556 2.57891 15.138 2.5287C15.2659 2.63318 15.4119 2.71281 15.5736 2.74172C15.5878 2.76251 15.6158 2.8041 15.63 2.8249C15.5374 2.8675 15.386 2.85786 15.3639 2.98517C15.4742 2.99379 15.5849 2.99886 15.6956 3.00191C15.7103 3.03741 15.7265 3.07241 15.7442 3.10639C15.6555 3.07646 15.5638 3.05618 15.4727 3.0369C15.4727 3.06277 15.4722 3.11501 15.4717 3.14088C15.5692 3.14138 15.6667 3.1424 15.7642 3.14341C15.7799 3.17283 15.8108 3.23217 15.8265 3.26159C15.7505 3.24637 15.7182 3.27376 15.729 3.34325C15.7892 3.35897 15.8216 3.33158 15.8265 3.26159C15.8637 3.25246 15.901 3.24282 15.9377 3.23318L15.9485 3.23014L15.9558 3.22C15.9735 3.19413 16.0083 3.14189 16.0259 3.11602C16.0896 2.98111 16.044 2.83605 16.0068 2.70165C15.9132 2.71179 15.8201 2.72244 15.727 2.73259C15.7069 2.68897 15.6858 2.64637 15.6643 2.60427C15.6873 2.59717 15.7329 2.58398 15.7554 2.57739C15.7255 2.52413 15.6952 2.47037 15.6662 2.41712C15.7824 2.47037 15.8956 2.53073 16.0073 2.59311C15.971 2.53529 15.9348 2.47798 15.8985 2.42117C16.0034 2.46327 16.1082 2.50689 16.217 2.53985C16.1308 2.41711 15.9686 2.3806 15.899 2.24163C16.0514 2.3243 16.1964 2.42168 16.3567 2.48863C16.2998 2.40393 16.2273 2.33343 16.1528 2.26648C16.2685 2.31365 16.3826 2.36741 16.5056 2.39226C16.416 2.25076 16.22 2.24315 16.143 2.09048C16.2792 2.16048 16.412 2.23808 16.5517 2.30148C16.5385 2.26648 16.512 2.1975 16.4988 2.16301C16.5953 2.20764 16.6918 2.25228 16.7894 2.29539C16.7781 2.26394 16.756 2.20156 16.7448 2.17011C16.8143 2.19243 16.8844 2.21424 16.9555 2.23351C16.8633 2.11534 16.7046 2.07527 16.634 1.93681C16.7992 2.02556 16.953 2.14171 17.1358 2.19192C17.0809 2.1336 17.0255 2.07679 16.9702 2.01948C17.0491 2.0423 17.1284 2.06563 17.2083 2.08643C17.1255 1.98905 17.0079 1.9297 16.9393 1.81914C17.0892 1.89167 17.2211 1.99767 17.369 2.07476C17.3749 2.05143 17.3872 2.00578 17.393 1.98245C17.4455 1.9931 17.4984 2.00325 17.5518 2.01288C17.4881 1.92362 17.3955 1.86478 17.3171 1.79175C17.4058 1.8237 17.494 1.8587 17.5832 1.89217C17.5503 1.83334 17.518 1.77552 17.4862 1.7177C17.5665 1.75523 17.6493 1.79074 17.7258 1.83892C17.741 1.85211 17.7713 1.87899 17.7865 1.89217L17.8184 1.87087L17.8081 1.83182C17.7875 1.83334 17.7464 1.83689 17.7258 1.83892C17.6939 1.78161 17.6621 1.72531 17.6297 1.6685C17.713 1.71009 17.7958 1.75117 17.8796 1.79124C17.8458 1.73241 17.8125 1.67357 17.7792 1.61474C17.86 1.65836 17.9409 1.70198 18.0222 1.74458C18.0075 1.71009 17.9771 1.64061 17.9624 1.60612C18.0335 1.63401 18.105 1.66292 18.1771 1.69082C18.158 1.65734 18.1188 1.58989 18.0997 1.55641C18.1741 1.58431 18.2491 1.61271 18.3246 1.64111C18.3059 1.60815 18.2697 1.54323 18.2516 1.51026C18.2805 1.51432 18.3383 1.52192 18.3672 1.52598C18.3344 1.46918 18.3025 1.41237 18.2716 1.35557C18.3706 1.41643 18.4539 1.50975 18.571 1.5341C18.5284 1.45244 18.4726 1.38093 18.4152 1.31093C18.5377 1.39817 18.6612 1.48642 18.8018 1.54018C18.7871 1.50772 18.7577 1.44179 18.743 1.40882C18.7705 1.41338 18.8263 1.42251 18.8543 1.42759C18.8391 1.39614 18.8092 1.33426 18.7945 1.30282C18.869 1.33021 18.9444 1.35658 19.0204 1.38042C18.9508 1.26884 18.8214 1.22725 18.7372 1.13088C18.8249 1.16334 18.9106 1.20138 18.9974 1.2384C18.9885 1.20493 18.9709 1.13747 18.9621 1.10349C19.0689 1.21203 19.1992 1.29064 19.3433 1.33426C19.3266 1.3018 19.2928 1.23637 19.2757 1.20391C19.3061 1.21 19.3668 1.22268 19.3972 1.22927C19.3796 1.19783 19.3448 1.13595 19.3276 1.10451C19.358 1.10704 19.4193 1.11161 19.4501 1.11414C19.4158 1.06038 19.382 1.00611 19.3487 0.952856C19.4408 1.02183 19.5369 1.08574 19.6358 1.14457C19.6226 1.10653 19.5957 1.02995 19.5824 0.991402C19.6672 1.02995 19.7525 1.0685 19.8358 1.1111C19.8838 1.0903 19.9318 1.0685 19.9789 1.04466C19.9161 1.0056 19.8529 0.965536 19.8152 0.899094C19.9328 0.919889 20.0617 1.05937 20.1758 0.962493C20.1303 0.897573 20.0827 0.83468 20.0347 0.772803C20.0568 0.770267 20.1004 0.764688 20.1219 0.761645C20.1136 0.732735 20.0974 0.674409 20.0891 0.645499C20.1538 0.699261 20.2185 0.75353 20.2836 0.807799C20.2538 0.810842 20.194 0.81693 20.1641 0.819973C20.1964 0.864606 20.2459 0.874242 20.313 0.848375C20.3135 0.813886 20.3145 0.745415 20.315 0.710926C20.3699 0.73172 20.4257 0.752516 20.4816 0.772297C20.4449 0.711434 20.4066 0.651585 20.3684 0.592243C20.4351 0.632818 20.5027 0.67238 20.5708 0.711433C20.5679 0.684045 20.5615 0.629776 20.5585 0.602388C20.5875 0.617096 20.6453 0.646005 20.6747 0.660207C20.6703 0.632818 20.6614 0.577028 20.657 0.549639C20.7369 0.604416 20.8212 0.657672 20.9192 0.667816C20.8687 0.572971 20.7771 0.518193 20.6977 0.454287C20.7977 0.490298 20.9025 0.505007 21.0084 0.492834C21.0064 0.470011 21.0035 0.42487 21.0015 0.402047C21.099 0.455302 21.1931 0.522759 21.3034 0.544061C21.4004 0.52986 21.4901 0.482183 21.5587 0.409654C21.4602 0.425884 21.3141 0.506528 21.2808 0.353357C21.3132 0.366037 21.3774 0.391396 21.4097 0.404076C21.4048 0.377702 21.395 0.325461 21.3901 0.299087C21.4425 0.322418 21.495 0.345748 21.5479 0.368572C21.5185 0.312781 21.4886 0.256991 21.4592 0.2012C21.5846 0.183448 21.7115 0.197649 21.837 0.183448C21.8394 0.156567 21.8438 0.102805 21.8463 0.0759236ZM21.6101 0.25344C21.7556 0.174319 21.618 0.422335 21.6101 0.25344ZM21.0711 0.520729C21.0956 0.546596 21.0956 0.546596 21.0711 0.520729ZM20.977 0.566884C21.002 0.59275 21.002 0.59275 20.977 0.566884ZM21.1652 0.566884C21.1897 0.59275 21.1897 0.59275 21.1652 0.566884ZM21.0667 0.617603C21.0917 0.643469 21.0917 0.643469 21.0667 0.617603ZM21.0652 0.759617C21.0809 0.824537 21.0966 0.889456 21.1123 0.954884C21.2063 0.926481 21.299 0.890472 21.3876 0.846854C21.4063 0.764182 21.4249 0.681509 21.443 0.598837C21.3117 0.638398 21.1833 0.688103 21.0652 0.759617ZM20.7305 0.6668C20.6747 0.64347 20.5806 0.743386 20.6698 0.766209C20.7242 0.78954 20.8187 0.688102 20.7305 0.6668ZM20.8246 0.711433C20.9721 0.635862 20.8285 0.87982 20.8246 0.711433ZM20.5277 0.770268C20.5527 0.796134 20.5527 0.796134 20.5277 0.770268ZM20.3836 0.812871C20.5311 0.736793 20.388 0.981766 20.3836 0.812871ZM20.4052 0.997995C20.3939 1.04212 20.3826 1.08625 20.3728 1.13088C20.3111 1.05074 20.1499 1.15776 20.2244 1.24145C20.1807 1.23688 20.1376 1.23232 20.0945 1.22775C20.0573 1.26021 20.02 1.29267 19.9828 1.32513C20.0019 1.37382 20.0205 1.42251 20.0396 1.47171C20.1935 1.42961 20.3263 1.33629 20.4689 1.2663C20.6477 1.17348 20.8447 1.12074 21.0118 1.00358C21.0138 0.930033 21.0074 0.801205 20.9079 0.812364C20.732 0.844317 20.5713 0.934089 20.4052 0.997995ZM19.5481 1.17551C19.5726 1.20138 19.5726 1.20138 19.5481 1.17551ZM19.9446 1.17095C20.0906 1.09233 19.9519 1.33933 19.9446 1.17095ZM19.4756 1.35506C19.2394 1.45852 18.9876 1.51837 18.7577 1.63706C18.7813 1.75422 18.8185 1.86833 18.8651 1.9789C19.0566 1.90637 19.258 1.84145 19.4266 1.71973C19.5932 1.71871 19.7446 1.64111 19.8911 1.56706C19.8921 1.49758 19.8907 1.42809 19.8877 1.35911C19.8862 1.3231 19.8823 1.25108 19.8809 1.21457C19.7422 1.25058 19.6069 1.29876 19.4756 1.35506ZM19.066 1.27746C19.0909 1.30332 19.0909 1.30332 19.066 1.27746ZM19.1556 1.32767C19.1806 1.35303 19.1806 1.35303 19.1556 1.32767ZM21.2671 1.33223C21.2921 1.3581 21.2921 1.3581 21.2671 1.33223ZM21.1691 1.38295C21.1941 1.40882 21.1941 1.40882 21.1691 1.38295ZM21.3651 1.38295C21.3901 1.40882 21.3901 1.40882 21.3651 1.38295ZM21.0147 1.43976C20.9947 1.51026 21.0192 1.53562 21.0882 1.51584C21.1074 1.44483 21.0829 1.41947 21.0147 1.43976ZM20.9241 1.48439C20.9486 1.51026 20.9486 1.51026 20.9241 1.48439ZM18.6161 1.53055C18.6411 1.55641 18.6411 1.55641 18.6161 1.53055ZM18.4721 1.57315C18.6196 1.49758 18.4765 1.74204 18.4721 1.57315ZM20.8756 1.58532C20.8153 1.65836 20.9437 1.71567 20.9839 1.64821C21.0441 1.57518 20.9148 1.51888 20.8756 1.58532ZM17.4808 2.09657C17.4925 2.22844 17.5361 2.35321 17.5837 2.47493C17.9522 2.30604 18.3545 2.21678 18.7092 2.01796C18.7073 1.89978 18.6813 1.78516 18.647 1.67357C18.252 1.79479 17.8811 1.99006 17.4808 2.09657ZM20.4351 1.67865C20.5811 1.59952 20.4429 1.84703 20.4351 1.67865ZM20.6761 1.68422C20.6507 1.75574 20.6727 1.77856 20.7428 1.7527C20.7673 1.68067 20.7452 1.65785 20.6761 1.68422ZM21.6062 1.88558C21.6307 1.91145 21.6307 1.91145 21.6062 1.88558ZM18.9145 2.0423C18.9395 2.06817 18.9395 2.06817 18.9145 2.0423ZM21.0221 2.0423C21.0466 2.06817 21.0466 2.06817 21.0221 2.0423ZM21.1642 2.03419C21.0985 2.06969 21.0971 2.10367 21.1598 2.13715C21.2255 2.10215 21.2269 2.06766 21.1642 2.03419ZM21.3166 2.03266C21.4626 1.95354 21.3244 2.20105 21.3166 2.03266ZM21.4538 2.09353C21.6165 2.10012 21.3783 2.24467 21.4538 2.09353ZM21.5592 2.10316C21.517 2.13816 21.5146 2.26496 21.5851 2.25836C21.6263 2.22286 21.6287 2.09657 21.5592 2.10316ZM21.6532 2.10215C21.6091 2.16251 21.6209 2.19801 21.688 2.20815C21.7316 2.14678 21.7204 2.11179 21.6532 2.10215ZM21.8061 2.09251C21.7463 2.16606 21.8752 2.22185 21.9154 2.1549C21.9752 2.08186 21.8453 2.02709 21.8061 2.09251ZM21.3651 2.14425C21.3901 2.17011 21.3901 2.17011 21.3651 2.14425ZM16.8624 2.3527C16.6115 2.4511 16.3557 2.5363 16.1117 2.65144C16.1425 2.76555 16.1827 2.87714 16.2249 2.9877C16.4708 2.92938 16.6958 2.80816 16.9359 2.73259C17.1069 2.6773 17.2701 2.60173 17.4288 2.51652C17.4376 2.39987 17.4029 2.28778 17.369 2.17873C17.1912 2.20511 17.0339 2.303 16.8624 2.3527ZM22.0016 2.162C22.0178 2.21982 22.0345 2.27764 22.0521 2.33546C21.9825 2.29235 21.9115 2.25279 21.837 2.22032C21.8928 2.31618 21.9644 2.40038 22.0408 2.4795C22.0555 2.46124 22.0844 2.42422 22.0991 2.40596C22.1246 2.409 22.1761 2.41509 22.2016 2.41813C22.156 2.31669 22.0874 2.22996 22.0016 2.162ZM18.376 2.24518C18.401 2.27104 18.401 2.27104 18.376 2.24518ZM22.2109 2.24163C22.1717 2.29742 22.2452 2.40646 22.3089 2.36995C22.353 2.31263 22.2741 2.20714 22.2109 2.24163ZM22.3476 2.24112C22.3304 2.31162 22.3559 2.33596 22.4235 2.31314C22.4407 2.24112 22.4152 2.21728 22.3476 2.24112ZM22.4921 2.24416C22.5171 2.27003 22.5171 2.27003 22.4921 2.24416ZM18.2295 2.2959C18.2545 2.32176 18.2545 2.32176 18.2295 2.2959ZM18.4735 2.2959C18.4985 2.32126 18.4985 2.32126 18.4735 2.2959ZM18.572 2.2959C18.597 2.32126 18.597 2.32126 18.572 2.2959ZM21.788 2.32075C21.7581 2.29843 21.7581 2.29843 21.788 2.32075ZM21.5832 2.34256C21.6532 2.43436 21.7341 2.51602 21.8272 2.58297C21.8321 2.56217 21.8414 2.52007 21.8463 2.49928C21.8973 2.51044 21.9487 2.5216 22.0002 2.53174C21.9477 2.44349 21.8693 2.37857 21.788 2.32075C21.7899 2.34814 21.7939 2.40342 21.7963 2.43081C21.7253 2.40038 21.6542 2.37096 21.5832 2.34256ZM17.837 2.44856C17.8615 2.47443 17.8615 2.47443 17.837 2.44856ZM19.7848 2.73867C19.8951 2.70266 20.0043 2.6631 20.1126 2.6205C20.1082 2.55659 20.1043 2.49269 20.1004 2.42929C19.9994 2.53681 19.8946 2.64079 19.7848 2.73867ZM17.9296 2.49015C17.8635 2.52515 17.862 2.55964 17.9247 2.5926C17.9904 2.5571 17.9918 2.52261 17.9296 2.49015ZM22.1981 2.49877C22.2231 2.52464 22.2231 2.52464 22.1981 2.49877ZM17.7826 2.54087C17.7165 2.57587 17.715 2.61035 17.7777 2.64332C17.8434 2.60782 17.8448 2.57384 17.7826 2.54087ZM15.8284 2.5997C15.8534 2.62506 15.8534 2.62506 15.8284 2.5997ZM17.5891 2.59717C17.5636 2.66868 17.5856 2.69151 17.6557 2.66615C17.6802 2.59412 17.6581 2.5713 17.5891 2.59717ZM21.9536 2.60528C21.9781 2.63115 21.9781 2.63115 21.9536 2.60528ZM15.3203 2.73969C15.3507 2.76403 15.3507 2.76403 15.3203 2.73969C15.3149 2.57181 15.1694 2.80765 15.3203 2.73969ZM14.8553 2.74628C14.8141 2.81526 14.7734 2.88424 14.7352 2.95524C14.7984 2.94003 14.868 2.92735 14.895 2.85736C14.9753 2.88829 15.0562 2.91923 15.1385 2.94662C15.0723 2.84468 14.967 2.78077 14.8553 2.74628ZM17.102 2.75237C17.127 2.77823 17.127 2.77823 17.102 2.75237ZM16.9466 2.80359C17.1098 2.8112 16.8707 2.95474 16.9466 2.80359ZM16.6556 2.94662C16.5894 2.98162 16.588 3.01611 16.6507 3.04958C16.7159 3.01408 16.7178 2.97959 16.6556 2.94662ZM14.2055 2.99683C14.1394 3.03234 14.1379 3.06632 14.2006 3.09979C14.2658 3.06429 14.2677 3.0298 14.2055 2.99683ZM14.3667 2.99886C14.3765 3.06784 14.4103 3.07951 14.4691 3.03386C14.4593 2.96437 14.425 2.95271 14.3667 2.99886ZM14.6514 3.00596C14.6764 3.03183 14.6764 3.03183 14.6514 3.00596ZM14.7499 3.00546C14.7749 3.03082 14.7749 3.03082 14.7499 3.00546ZM16.1215 3.00596C16.1465 3.03183 16.1465 3.03183 16.1215 3.00596ZM16.5086 2.99734C16.4424 3.03234 16.4405 3.06683 16.5037 3.09979C16.5688 3.06429 16.5708 3.03031 16.5086 2.99734ZM15.0033 3.06074C15.0351 3.1287 15.2228 3.12921 15.2541 3.05871C15.1806 3.01611 15.0763 3.01915 15.0033 3.06074ZM16.3155 3.05364C16.29 3.12515 16.3121 3.14848 16.3817 3.12262C16.4067 3.0511 16.3846 3.02777 16.3155 3.05364ZM14.5539 3.10689C14.5789 3.13276 14.5789 3.13276 14.5539 3.10689ZM14.5681 3.25043C14.4363 3.24536 14.2947 3.30368 14.1952 3.39092C14.1124 3.40461 14.0291 3.42135 13.9541 3.46091C13.9306 3.56032 14.0286 3.61611 14.1041 3.64604C14.0154 3.64604 13.9286 3.62068 13.8419 3.60495C13.8767 3.70031 13.9164 3.79414 13.962 3.88492C14.1928 3.80885 14.4285 3.73327 14.6284 3.58619C14.7058 3.51721 14.8082 3.5446 14.8979 3.56387C14.9043 3.60191 14.9121 3.63995 14.9209 3.67799C14.9719 3.69878 14.9988 3.64046 15.0361 3.61662C15.0807 3.57807 15.1478 3.57047 15.1762 3.51214C15.1223 3.48729 15.0679 3.46396 15.0131 3.44316L15.0415 3.41019C15.1233 3.41729 15.2051 3.42997 15.286 3.44418C15.2924 3.44519 15.3051 3.44773 15.3115 3.44874C15.3272 3.42592 15.358 3.38078 15.3737 3.35795L15.3316 3.35136C15.3149 3.326 15.2811 3.27528 15.2639 3.24992C15.1547 3.24688 15.0459 3.24485 14.9366 3.24383L14.9356 3.19971C15.0488 3.19768 15.162 3.19616 15.2752 3.19413L15.2733 3.14544C15.038 3.14544 14.77 3.0932 14.5681 3.25043ZM15.4952 3.20529C15.4884 3.27782 15.6099 3.27579 15.6447 3.23268C15.6506 3.16015 15.529 3.16167 15.4952 3.20529ZM16.3871 3.3331C16.3493 3.37875 16.3572 3.41374 16.4101 3.4386C16.5125 3.4036 16.5943 3.32803 16.6595 3.24231C16.5669 3.26463 16.4708 3.2834 16.3871 3.3331ZM13.8679 3.31028C13.8929 3.33614 13.8929 3.33614 13.8679 3.31028ZM21.2201 3.50605C21.2446 3.53192 21.2446 3.53192 21.2201 3.50605ZM16.1548 3.59278C16.2067 3.6998 16.2337 3.88543 16.3812 3.88137C16.5439 3.87985 16.6742 3.99549 16.831 4.02187C16.8266 3.99346 16.8178 3.93615 16.8139 3.90724C16.9109 3.92753 17.0084 3.94477 17.1064 3.961C17.1015 3.86768 17.1338 3.76726 17.1074 3.67799C16.7898 3.68154 16.4713 3.62829 16.1548 3.59278ZM12.8305 3.90369C12.611 3.95948 12.4081 4.06751 12.1896 4.12736C12.1989 4.26329 12.2499 4.39009 12.3013 4.51384C12.4321 4.52246 12.5547 4.47225 12.6718 4.41798L12.6536 4.39009C12.8643 4.37183 13.0412 4.2359 13.2328 4.15678C13.2064 3.92499 13.4328 3.80073 13.5572 3.64604C13.3112 3.71096 13.0476 3.76675 12.8305 3.90369ZM14.0659 4.17504C14.0781 4.23742 14.0962 4.29828 14.1217 4.35661C14.13 4.3348 14.1462 4.2922 14.1545 4.27039C14.1707 4.28662 14.2026 4.31908 14.2187 4.33531C14.3231 4.25974 14.4231 4.17859 14.5191 4.09237C14.5088 4.07512 14.4882 4.04165 14.478 4.0244C14.3368 4.06295 14.1972 4.10809 14.0659 4.17504ZM11.46 4.41697C11.0959 4.5463 10.7367 4.69034 10.377 4.83286C10.4148 4.96879 10.4662 5.10015 10.5304 5.22492C10.7195 5.1737 10.9058 5.10776 11.0807 5.01596C11.0846 4.97538 11.0885 4.9343 11.0925 4.89423C11.287 4.86532 11.4791 4.8217 11.6574 4.73548C11.827 4.74055 11.9955 4.69896 12.1411 4.60666C12.1225 4.47276 12.1009 4.33886 12.0779 4.20598C11.8603 4.23641 11.6648 4.34342 11.46 4.41697ZM13.9159 4.31553C14.061 4.23691 13.9228 4.48493 13.9159 4.31553ZM13.7645 4.37183C13.7405 4.44283 13.7635 4.46667 13.8326 4.44233C13.8561 4.37081 13.8331 4.34698 13.7645 4.37183ZM15.212 4.67513C15.1875 4.81055 15.1787 4.9485 15.1542 5.08392C15.2321 5.03878 15.3325 5.00277 15.3575 4.90235C15.3752 4.80953 15.3423 4.7157 15.3325 4.62339C15.4114 4.59753 15.4913 4.57217 15.5717 4.54833C15.5624 4.49862 15.5467 4.45146 15.5256 4.40632C15.4183 4.49102 15.2992 4.56608 15.212 4.67513ZM17.0447 4.52043C17.077 4.56456 17.1103 4.60868 17.1436 4.65281C17.1868 4.63506 17.2299 4.61731 17.2735 4.59956C17.2691 4.53717 17.2544 4.47631 17.2318 4.41849C17.1681 4.44993 17.1059 4.48392 17.0447 4.52043ZM12.5939 4.52753C12.6188 4.5534 12.6188 4.5534 12.5939 4.52753ZM12.4468 4.57825C12.4718 4.60463 12.4718 4.60463 12.4468 4.57825ZM14.6274 4.78468C14.596 4.72635 14.5529 4.71215 14.4971 4.74208C14.4696 4.80192 14.5686 4.85619 14.6108 4.81308C14.6642 4.84808 14.7186 4.88206 14.7739 4.91452C14.8646 4.82627 14.9582 4.73345 14.9949 4.60615C14.868 4.64825 14.7171 4.67411 14.6274 4.78468ZM12.0548 4.73092C12.0798 4.75678 12.0798 4.75678 12.0548 4.73092ZM16.268 4.82779C16.3023 4.8851 16.3366 4.94292 16.3709 5.00125C16.4718 4.96879 16.5561 4.89525 16.5458 4.77555C16.4655 4.84504 16.3665 4.85873 16.268 4.82779ZM11.8588 4.83236C11.8838 4.85822 11.8838 4.85822 11.8588 4.83236ZM12.4914 4.87851C12.489 4.91604 12.4836 4.99161 12.4807 5.02915C12.5743 5.0256 12.6296 4.95104 12.6688 4.87293C12.611 4.83946 12.5498 4.85569 12.4914 4.87851ZM9.05791 5.33042C8.85749 5.39382 8.66688 5.48562 8.46646 5.54851C8.45764 5.7032 8.52233 5.84623 8.57672 5.98621C8.66688 5.97658 8.7541 5.95223 8.83692 5.9147C9.32497 5.69103 9.84291 5.54648 10.3256 5.30912C10.3324 5.16355 10.3001 5.02103 10.2712 4.88003C9.85663 5.00074 9.47099 5.20565 9.05791 5.33042ZM14.9474 4.98502C14.9724 5.01089 14.9724 5.01089 14.9474 4.98502ZM15.9176 4.96828C15.9627 5.06769 16.0494 5.12095 16.1543 5.12957C16.1166 5.02306 16.0186 4.98198 15.9176 4.96828ZM15.8074 5.28325C15.7785 5.21174 15.7442 5.14276 15.7054 5.07682C15.555 5.13413 15.6912 5.30303 15.8074 5.28325ZM13.7037 5.32636C13.8267 5.27665 13.9879 5.25383 14.0497 5.11588C13.9095 5.13109 13.7777 5.19905 13.7037 5.32636ZM15.4751 5.17674C15.4746 5.21275 15.4737 5.28528 15.4727 5.32129C15.5168 5.34158 15.5624 5.35933 15.6089 5.37404C15.6099 5.33904 15.6123 5.26955 15.6133 5.23507C15.5712 5.20514 15.5251 5.18536 15.4751 5.17674ZM10.3883 5.2376C10.4133 5.26296 10.4133 5.26296 10.3883 5.2376ZM13.4141 5.2726C13.2549 5.31216 13.0721 5.34715 12.9638 5.48663L13.006 5.47497C13.0314 5.55105 13.1118 5.61089 13.1897 5.58959C13.3 5.48511 13.4563 5.40295 13.4695 5.23101C13.4553 5.24166 13.4279 5.26195 13.4141 5.2726ZM15.2953 5.24166C15.3031 5.30151 15.3159 5.35983 15.333 5.41816C15.3668 5.41968 15.4345 5.42374 15.4683 5.42577C15.4354 5.34411 15.4011 5.23253 15.2953 5.24166ZM15.1297 5.3294C15.1444 5.40041 15.1601 5.47446 15.211 5.52873C15.2316 5.50337 15.2723 5.45164 15.2929 5.42577C15.2497 5.37505 15.1929 5.34259 15.1297 5.3294ZM13.6626 5.7311C13.7077 5.7103 13.7527 5.68951 13.7983 5.66922C13.8066 5.56829 13.8106 5.46736 13.8081 5.36694C13.6738 5.42678 13.7013 5.60886 13.6626 5.7311ZM10.2908 5.44048C10.3158 5.46634 10.3158 5.46634 10.2908 5.44048ZM14.9381 5.42323C14.9562 5.4704 14.9743 5.51859 14.9935 5.56626C15.0253 5.5688 15.0895 5.57438 15.1213 5.57691C15.1708 5.44808 15.0209 5.44251 14.9381 5.42323ZM10.1443 5.4912C10.1693 5.51706 10.1693 5.51706 10.1443 5.4912ZM10.4373 5.49069C10.4623 5.51656 10.4623 5.51656 10.4373 5.49069ZM14.7352 5.53126C14.7685 5.59568 14.817 5.64741 14.8788 5.68393C14.8989 5.63321 14.919 5.583 14.9391 5.53279C14.8719 5.48257 14.8014 5.47801 14.7352 5.53126ZM10.2428 5.54293C10.2188 5.61394 10.2413 5.63778 10.3104 5.61292C10.3344 5.54141 10.3119 5.51808 10.2428 5.54293ZM12.7409 5.53228C12.8864 5.45366 12.7482 5.70117 12.7409 5.53228ZM9.88995 5.59314C10.0531 5.60075 9.814 5.74428 9.88995 5.59314ZM10.0477 5.58706C10.0017 5.59974 9.94631 5.70117 10.0178 5.7174C10.1007 5.73059 10.1673 5.54293 10.0477 5.58706ZM7.23849 6.03338C6.9778 6.14598 6.69506 6.2038 6.44712 6.34632C6.59853 6.43964 6.74406 6.5426 6.85775 6.68411C7.06747 6.60752 7.27622 6.52789 7.48399 6.44674C7.49036 6.44421 7.5031 6.43914 7.50947 6.4366C7.82651 6.29712 8.17589 6.22256 8.46254 6.01766C8.32926 5.94209 8.35376 5.75849 8.30623 5.62915C7.95195 5.76914 7.58885 5.88325 7.23849 6.03338ZM10.3383 5.64133C10.3633 5.6677 10.3633 5.6677 10.3383 5.64133ZM9.4068 5.93955C9.37544 5.9644 9.37544 5.9644 9.4068 5.93955C9.47246 5.96288 9.55969 5.87362 9.53175 5.80616C9.46756 5.77979 9.3872 5.87514 9.4068 5.93955ZM9.60477 5.795C9.62927 5.82087 9.62927 5.82087 9.60477 5.795ZM12.7879 6.08664C12.8153 6.07954 12.8707 6.06534 12.8982 6.05824C12.9202 5.96694 12.9271 5.87311 12.9271 5.77979C12.7673 5.75899 12.8237 5.98114 12.7879 6.08664ZM9.27107 5.84268C9.21178 5.87311 9.14856 5.95173 9.17551 6.02324C9.25 6.05469 9.40484 5.82189 9.27107 5.84268ZM9.08192 5.89898C9.03243 5.93702 8.98392 5.98926 8.97265 6.05469C9.03635 6.17134 9.22207 5.87058 9.08192 5.89898ZM10.0659 5.98317C9.88162 5.91876 9.71698 6.0344 9.5494 6.09526C9.43375 6.12062 9.42444 6.26111 9.39014 6.35545C9.72482 6.28901 10.0149 6.09323 10.3378 5.99687C10.2731 5.90659 10.0972 5.81377 10.0659 5.98317ZM11.2003 6.19315C11.4154 6.41733 11.7726 6.17235 11.8534 5.92129C11.63 5.99585 11.4065 6.07649 11.2003 6.19315ZM7.05473 5.99839C7.08021 6.02476 7.08021 6.02476 7.05473 5.99839ZM8.87122 5.99839C8.8178 6.00295 8.74969 6.06939 8.78154 6.12721C8.8472 6.17692 8.96187 6.02882 8.87122 5.99839ZM9.45678 5.99585C9.48177 6.02223 9.48177 6.02223 9.45678 5.99585ZM8.62572 6.0912C8.77174 6.01259 8.63307 6.25959 8.62572 6.0912ZM6.17467 6.20126C6.19966 6.22713 6.19966 6.22713 6.17467 6.20126ZM8.22734 6.24336C8.16168 6.27836 8.15971 6.31285 8.22244 6.34632C8.2881 6.31031 8.28957 6.27582 8.22734 6.24336ZM10.9533 6.33465C11.0302 6.38639 11.1223 6.39197 11.2115 6.394C11.1718 6.27379 11.0111 6.16322 10.9533 6.33465ZM12.7458 6.31437C12.6987 6.34987 12.6737 6.43406 12.7105 6.4858C12.7899 6.5071 12.83 6.31893 12.7458 6.31437ZM7.98282 6.34429C7.91667 6.37979 7.91471 6.41428 7.97743 6.44725C8.04309 6.41175 8.04505 6.37726 7.98282 6.34429ZM8.32779 6.35038C8.3028 6.42189 8.32534 6.44522 8.39443 6.41936C8.41942 6.34683 8.39688 6.324 8.32779 6.35038ZM8.13179 6.4011C8.10679 6.47261 8.12884 6.49543 8.19843 6.47007C8.22293 6.39805 8.20088 6.37523 8.13179 6.4011ZM9.45678 6.45486C9.48226 6.48123 9.48226 6.48123 9.45678 6.45486ZM13.2867 6.49341C13.2838 6.61107 13.2779 6.72925 13.275 6.84742C13.2892 6.83677 13.3171 6.81598 13.3313 6.80533C13.3416 6.71048 13.4132 6.5142 13.2867 6.49341ZM7.49771 6.54818C7.5227 6.57354 7.5227 6.57354 7.49771 6.54818ZM9.21276 6.5563C9.23824 6.58216 9.23824 6.58216 9.21276 6.5563ZM10.3182 6.74954C10.4422 6.71505 10.5745 6.68715 10.675 6.59839C10.649 6.58571 10.5966 6.56035 10.5706 6.54717C10.4667 6.58521 10.3829 6.65875 10.3182 6.74954ZM12.3395 6.54209C12.3577 6.60549 12.3773 6.66889 12.3974 6.73229C12.4307 6.73686 12.4963 6.74649 12.5297 6.75106C12.4905 6.65875 12.4468 6.55883 12.3395 6.54209ZM13.0902 6.55021C13.0917 6.6836 13.0839 6.81648 13.079 6.94937C13.2044 6.86619 13.1417 6.68157 13.1559 6.55224C13.1392 6.55173 13.1069 6.55072 13.0902 6.55021ZM7.64177 6.60397C7.61678 6.67549 7.63932 6.69882 7.70841 6.67295C7.7334 6.60093 7.71086 6.57811 7.64177 6.60397ZM7.30121 6.65571C7.24829 6.65469 7.17087 6.71353 7.20076 6.77388C7.26152 6.82612 7.39578 6.68918 7.30121 6.65571ZM7.49722 6.65571C7.44429 6.65469 7.36638 6.71353 7.39676 6.77388C7.45704 6.82561 7.59179 6.68867 7.49722 6.65571ZM8.10826 6.67346C8.17099 6.73736 8.23371 6.82206 8.3322 6.81395C8.33563 6.79163 8.34298 6.74751 8.3469 6.72519C8.26703 6.70744 8.18814 6.68918 8.10826 6.67346ZM8.96579 6.65773C8.99127 6.68411 8.99127 6.68411 8.96579 6.65773ZM12.1367 6.64201C12.1573 6.71454 12.1773 6.79417 12.2415 6.83982C12.3214 6.84134 12.3547 6.7328 12.3047 6.67599C12.2508 6.6552 12.1945 6.64404 12.1367 6.64201ZM7.06551 6.70693C7.017 6.74446 6.97241 6.82612 7.01406 6.88445C7.10863 6.94024 7.18704 6.65824 7.06551 6.70693ZM7.88433 6.75156C7.65059 6.9022 7.35658 6.92705 7.14294 7.11268C7.2233 7.1629 7.31738 7.23898 7.4144 7.18369C7.66333 7.07921 7.91422 6.97879 8.16559 6.8809C8.09993 6.80228 7.99164 6.67194 7.88433 6.75156ZM9.45727 6.91184C9.39798 6.94379 9.32007 6.9656 9.29557 7.03863C9.57488 7.1842 9.9419 6.9727 10.0468 6.68664C9.84291 6.73888 9.65083 6.82815 9.45727 6.91184ZM11.9093 6.74751C11.9382 6.81192 11.9681 6.87583 11.999 6.93923C12.0676 6.91995 12.1347 6.89459 12.1989 6.86264C12.1421 6.81243 12.0842 6.76475 12.0254 6.7186C11.9867 6.72823 11.948 6.73787 11.9093 6.74751ZM15.1821 7.00262C14.94 7.09645 14.7259 7.25165 14.4838 7.34599C14.3506 7.40939 14.1942 7.44287 14.0918 7.55851C14.2055 7.61379 14.3349 7.59198 14.4564 7.5864C14.4657 7.65944 14.476 7.73298 14.4873 7.80601C14.5902 7.76189 14.7186 7.74059 14.7754 7.62901C14.8592 7.6077 14.9503 7.60263 15.0224 7.54836C15.2561 7.39265 15.5521 7.34853 15.7549 7.14109C15.8774 7.01175 16.1269 7.1 16.2018 6.91944C16.269 6.89155 16.3371 6.86568 16.4052 6.84032C16.3557 6.69932 16.1896 6.67752 16.0823 6.76323C16.0181 6.73128 15.9504 6.68208 15.8765 6.712C15.6324 6.77287 15.4154 6.90981 15.1821 7.00262ZM10.4976 7.10305C10.5471 7.0853 10.5966 7.06754 10.646 7.04979C10.6338 6.94633 10.6211 6.84235 10.6044 6.7399C10.5044 6.82815 10.527 6.98183 10.4976 7.10305ZM11.7069 6.85047C11.7388 6.91437 11.7716 6.97777 11.8059 7.04117C11.8515 7.02443 11.8975 7.0082 11.9436 6.99197C11.9475 6.90981 11.8882 6.85605 11.8378 6.8033C11.7941 6.81902 11.7505 6.83424 11.7069 6.85047ZM8.47675 6.86112C8.50223 6.88698 8.50223 6.88698 8.47675 6.86112ZM10.3447 6.86163C10.3246 6.97371 10.3123 7.08682 10.2927 7.19941C10.3295 7.17558 10.3662 7.15174 10.403 7.12841C10.4148 7.03559 10.4211 6.94227 10.4231 6.84945C10.4035 6.8525 10.3643 6.85858 10.3447 6.86163ZM8.32975 6.90321C8.47577 6.8246 8.33759 7.0716 8.32975 6.90321ZM10.0953 7.25166C10.1212 7.24405 10.1732 7.22934 10.1987 7.22173C10.2202 7.11269 10.23 7.00161 10.2271 6.89104C10.1061 6.96256 10.1276 7.12942 10.0953 7.25166ZM11.4938 6.94835C11.5374 7.05639 11.6579 7.16137 11.7574 7.04979C11.7118 6.94278 11.5928 6.8459 11.4938 6.94835ZM8.23322 6.96256C8.2587 6.98893 8.2587 6.98893 8.23322 6.96256ZM8.08523 7.00465C8.23028 6.92452 8.09405 7.17355 8.08523 7.00465ZM9.88407 7.34447C9.92916 7.32672 9.97375 7.30947 10.0188 7.29223C10.0267 7.19181 10.0301 7.09189 10.0272 6.99147C9.91397 7.07059 9.89388 7.21463 9.88407 7.34447ZM11.3017 6.994C11.2973 7.13044 11.4477 7.27194 11.5609 7.15174C11.5129 7.04421 11.4168 6.9798 11.3017 6.994ZM7.98772 7.06349C8.0132 7.08986 8.0132 7.08986 7.98772 7.06349ZM7.84121 7.10609C7.98674 7.02646 7.84954 7.27448 7.84121 7.10609ZM11.0675 7.08834C11.1018 7.16036 11.1375 7.23187 11.1738 7.30339C11.1184 7.27093 11.063 7.23847 11.0077 7.20651C11.0136 7.24202 11.0253 7.31302 11.0312 7.34903C11.1566 7.36121 11.2757 7.3039 11.3615 7.21159C11.2845 7.12283 11.1802 7.08733 11.0675 7.08834ZM7.74369 7.16492C7.76966 7.1913 7.76966 7.1913 7.74369 7.16492ZM5.48375 7.21717C5.39212 7.32063 5.47101 7.45656 5.58273 7.49815C5.81255 7.5722 6.05706 7.57271 6.29178 7.62393C6.35793 7.62748 6.3888 7.6919 6.42458 7.73906C6.25013 7.72537 6.07813 7.68885 5.90467 7.66755C5.92819 7.74363 5.95416 7.81869 5.98307 7.89274C5.96102 7.92774 5.93946 7.96274 5.91741 7.99824C6.1193 8.0094 6.3153 8.06062 6.51327 8.10018C6.57844 8.11743 6.63822 8.07939 6.69751 8.05707C6.7127 7.92368 6.71417 7.78928 6.7029 7.65589L6.64998 7.65741C6.64753 7.75631 6.64557 7.85572 6.6441 7.95462L6.60735 7.95665C6.60931 7.81261 6.60686 7.66856 6.59902 7.52452L6.57354 7.5159C6.5706 7.47228 6.56717 7.42917 6.56472 7.38657C6.48191 7.37744 6.39909 7.37034 6.31628 7.36577C6.33245 7.38809 6.3643 7.43374 6.38047 7.45656C6.17565 7.50322 5.9718 7.42613 5.76698 7.41396C5.67975 7.39164 5.53814 7.42309 5.52001 7.29933C5.58616 7.29426 5.65231 7.28969 5.71895 7.28462C5.64349 7.25165 5.5646 7.22985 5.48375 7.21717ZM7.59718 7.20905C7.74222 7.12892 7.606 7.37744 7.59718 7.20905ZM7.49771 7.26687C7.52319 7.29274 7.52319 7.29274 7.49771 7.26687ZM10.6637 7.29984C10.697 7.36983 10.7323 7.43931 10.7695 7.50779C10.8176 7.48699 10.8661 7.4662 10.9151 7.44591C10.9219 7.31607 10.7666 7.19079 10.6637 7.29984ZM7.35168 7.311C7.49673 7.23035 7.36099 7.47989 7.35168 7.311ZM8.41109 7.5651C8.52282 7.52909 8.71637 7.51793 8.70706 7.35309C8.56741 7.34244 8.47969 7.45707 8.41109 7.5651ZM10.4785 7.49308C10.5113 7.57727 10.6088 7.55039 10.6769 7.56155C10.6632 7.49409 10.6887 7.3891 10.6073 7.3607C10.5275 7.31759 10.4447 7.41193 10.4785 7.49308ZM10.2261 7.5017C10.2629 7.56865 10.3006 7.6356 10.3388 7.70204C10.3839 7.6848 10.4295 7.66755 10.475 7.65132C10.4814 7.52402 10.33 7.39164 10.2261 7.5017ZM7.39921 7.78015C7.39235 7.85521 7.38647 7.93028 7.38157 8.00585C7.65549 7.89072 8.01124 7.8263 8.11904 7.49663C7.8662 7.55242 7.64128 7.69037 7.39921 7.78015ZM8.61347 7.90289C8.65561 7.88209 8.69775 7.8618 8.74038 7.84202C8.7492 7.74718 8.75459 7.65234 8.75606 7.55749C8.59975 7.56459 8.64826 7.78928 8.61347 7.90289ZM10.0257 7.54785C10.0433 7.62089 10.0664 7.6924 10.0923 7.76341C10.159 7.76595 10.2325 7.77051 10.2756 7.70661C10.255 7.58843 10.1276 7.54583 10.0257 7.54785ZM8.39688 8.02411C8.41354 8.02157 8.44686 8.01599 8.46352 8.01345C8.46989 8.01193 8.48215 8.0099 8.48852 8.00889C8.53654 7.88006 8.56055 7.74312 8.56398 7.60517C8.40178 7.67516 8.41746 7.87296 8.39688 8.02411ZM9.40778 7.61937C9.43326 7.64574 9.43326 7.64574 9.40778 7.61937ZM9.83164 7.65284C9.83605 7.72791 9.8189 7.81869 9.89584 7.86231C9.9762 7.89021 10.0644 7.80754 10.0276 7.72233C9.99433 7.63763 9.89927 7.66197 9.83164 7.65284ZM9.58566 7.75327C9.60232 7.8263 9.62486 7.89832 9.65083 7.96933C9.7209 7.96781 9.79195 7.95868 9.85026 7.91455C9.79734 7.80855 9.70669 7.73399 9.58566 7.75327ZM7.99017 7.87905C7.97498 7.97744 7.96224 8.07635 7.95146 8.17576C7.97547 8.16815 8.02398 8.15192 8.04848 8.14431C8.0916 8.03932 8.11512 7.92723 8.12737 7.81464C8.0818 7.83594 8.03574 7.85724 7.99017 7.87905ZM9.34016 7.85623C9.34212 7.96223 9.42493 8.07787 9.53616 8.06519C9.61849 8.02309 9.60869 7.90593 9.53175 7.86434C9.46805 7.85775 9.40435 7.85521 9.34016 7.85623ZM7.73781 8.24981C7.79416 8.25843 7.85052 8.26705 7.90687 8.27669C7.88041 8.15445 7.86816 8.02969 7.86032 7.90542C7.76378 7.99165 7.72801 8.12047 7.73781 8.24981ZM9.10005 7.95056C9.13582 8.02106 9.16816 8.09511 9.22011 8.15547C9.2843 8.19554 9.35143 8.14634 9.4068 8.11438C9.35535 7.98302 9.22648 7.94296 9.10005 7.95056ZM5.68171 8.07584C5.55431 8.16206 5.69886 8.29596 5.80912 8.25995C5.82725 8.17068 5.79393 8.04439 5.68171 8.07584ZM8.91483 8.08548C8.86975 8.13163 8.93443 8.23358 8.99274 8.19554C9.03733 8.14837 8.97265 8.04693 8.91483 8.08548ZM8.23126 8.12656C8.25674 8.15293 8.25674 8.15293 8.23126 8.12656ZM8.65855 8.17221C8.65022 8.34516 8.83593 8.40957 8.95893 8.31422C8.91483 8.24068 8.85945 8.17677 8.7982 8.11997C8.75165 8.13721 8.7051 8.15445 8.65855 8.17221ZM8.41207 8.2564C8.44 8.33451 8.47724 8.40856 8.52135 8.47855C8.59142 8.47449 8.66198 8.46333 8.7198 8.41819C8.66982 8.2843 8.53997 8.24473 8.41207 8.2564ZM8.2293 8.37407C8.23616 8.43087 8.24302 8.48768 8.25037 8.54499C8.32338 8.56528 8.3959 8.55513 8.46156 8.51608C8.41256 8.42682 8.3273 8.37863 8.2293 8.37407ZM7.9838 8.4755C7.9887 8.53231 7.99458 8.59013 8.00046 8.64744C8.07641 8.66874 8.15237 8.65657 8.22293 8.62208C8.17638 8.52572 8.08572 8.475 7.9838 8.4755ZM7.30219 8.53485C7.3262 8.55919 7.3262 8.55919 7.30219 8.53485ZM7.73928 8.64491C7.69518 8.69157 7.76133 8.7925 7.81867 8.75446C7.86277 8.70678 7.7971 8.60636 7.73928 8.64491ZM7.88384 8.64186C7.83827 8.68853 7.9054 8.78692 7.96224 8.75091C8.00928 8.70374 7.94117 8.60433 7.88384 8.64186ZM7.08021 9.11913C7.31934 9.10848 7.49281 8.90662 7.7236 8.8559C7.72654 8.78185 7.67607 8.72302 7.61482 8.69258C7.37128 8.70932 7.16107 8.88176 7.08021 9.11913ZM7.00867 9.14246C7.03464 9.16884 7.03464 9.16884 7.00867 9.14246ZM11.7692 9.29513C11.7937 9.32048 11.7937 9.32048 11.7692 9.29513Z" fill="#0E0E0E"/>
<path d="M21.6459 0.101283C21.6719 0.128164 21.6719 0.128164 21.6459 0.101283Z" fill="#353738"/>
<path d="M21.1681 0.267134C21.1931 0.293001 21.1931 0.293001 21.1681 0.267134Z" fill="#353738"/>
<path d="M21.3901 0.299087C21.3671 0.268149 21.3671 0.268149 21.3901 0.299087Z" fill="#353738"/>
<path d="M21.2808 0.353357C21.2681 0.317854 21.2681 0.317854 21.2808 0.353357Z" fill="#353738"/>
<path d="M20.7771 0.368572C20.8021 0.394438 20.8021 0.394438 20.7771 0.368572Z" fill="#353738"/>
<path d="M21.1059 0.353865C21.1314 0.380746 21.1314 0.380746 21.1059 0.353865Z" fill="#353738"/>
<path d="M20.6977 0.454287C20.6806 0.418784 20.6806 0.418784 20.6977 0.454287Z" fill="#353738"/>
<path d="M21.2225 0.42335C21.247 0.449216 21.247 0.449216 21.2225 0.42335Z" fill="#353738"/>
<path d="M20.4331 0.520729C20.4581 0.546596 20.4581 0.546596 20.4331 0.520729Z" fill="#353738"/>
<path d="M20.657 0.549639C20.6311 0.521744 20.6311 0.521744 20.657 0.549639Z" fill="#353738"/>
<path d="M20.5585 0.602388C20.5336 0.572971 20.5336 0.572971 20.5585 0.602388Z" fill="#353738"/>
<path d="M19.8534 0.773819C19.9034 0.737808 19.995 0.801714 19.9764 0.864098C19.9254 0.89808 19.8289 0.837217 19.8534 0.773819Z" fill="#353738"/>
<path d="M19.4046 0.875256C19.4296 0.90163 19.4296 0.90163 19.4046 0.875256Z" fill="#353738"/>
<path d="M19.9764 0.864098C20.0073 0.89098 20.0073 0.89098 19.9764 0.864098Z" fill="#353738"/>
<path d="M19.1703 0.978216C19.2365 0.953871 19.3404 1.02893 19.3276 1.10451C19.261 1.14305 19.1463 1.05379 19.1703 0.978216Z" fill="#353738"/>
<path d="M19.5824 0.991402C19.5496 0.976186 19.5496 0.976186 19.5824 0.991402Z" fill="#353738"/>
<path d="M19.0135 1.02792C19.0385 1.05379 19.0385 1.05379 19.0135 1.02792Z" fill="#353738"/>
<path d="M18.621 1.17957C18.6455 1.20594 18.6455 1.20594 18.621 1.17957Z" fill="#353738"/>
<path d="M19.1948 1.16588C19.2135 1.16537 19.2512 1.16486 19.2698 1.16435L19.2757 1.20391C19.2576 1.20442 19.2208 1.20594 19.2022 1.20645L19.1948 1.16588Z" fill="#353738"/>
<path d="M18.5823 1.28152C18.6494 1.25869 18.7524 1.33325 18.743 1.40882C18.6754 1.44635 18.5598 1.3581 18.5823 1.28152Z" fill="#353738"/>
<path d="M18.7945 1.30282C18.7661 1.27949 18.7661 1.27949 18.7945 1.30282Z" fill="#353738"/>
<path d="M18.0796 1.39614C18.1442 1.37129 18.2584 1.43317 18.2516 1.51026C18.1864 1.54779 18.0614 1.47526 18.0796 1.39614Z" fill="#353738"/>
<path d="M17.7811 1.48896C17.8493 1.46867 17.8738 1.49453 17.8551 1.56554C17.7865 1.58481 17.762 1.55895 17.7811 1.48896Z" fill="#353738"/>
<path d="M17.6341 1.53967C17.7022 1.51989 17.7268 1.54525 17.7076 1.61626C17.6395 1.63553 17.615 1.60967 17.6341 1.53967Z" fill="#353738"/>
<path d="M18.0261 1.50975C18.0443 1.51127 18.081 1.51432 18.0997 1.51584V1.55641C18.0815 1.55489 18.0453 1.55235 18.0271 1.55134L18.0261 1.50975Z" fill="#353738"/>
<path d="M17.4979 1.57822C17.5655 1.55844 17.5905 1.5838 17.5719 1.65481C17.5033 1.67459 17.4788 1.64923 17.4979 1.57822Z" fill="#353738"/>
<path d="M17.9624 1.60612C17.9335 1.5838 17.9335 1.5838 17.9624 1.60612Z" fill="#353738"/>
<path d="M17.3401 1.64061C17.4087 1.62133 17.4332 1.6472 17.4136 1.7177C17.345 1.73646 17.3205 1.7106 17.3401 1.64061Z" fill="#353738"/>
<path d="M17.1931 1.69133C17.2617 1.67205 17.2862 1.69741 17.2666 1.76842C17.1985 1.78718 17.174 1.76183 17.1931 1.69133Z" fill="#353738"/>
<path d="M17.0603 1.73596C17.1265 1.71922 17.1554 1.74661 17.1471 1.81761C17.077 1.83283 17.0481 1.80544 17.0603 1.73596Z" fill="#353738"/>
<path d="M17.1471 1.81761C17.1975 1.78769 17.2985 1.8379 17.2799 1.90434C17.2284 1.93934 17.1333 1.88203 17.1471 1.81761Z" fill="#353738"/>
<path d="M23.2717 1.9363C23.2967 1.96267 23.2967 1.96267 23.2717 1.9363Z" fill="#353738"/>
<path d="M23.4188 1.9363C23.4437 1.96267 23.4437 1.96267 23.4188 1.9363Z" fill="#353738"/>
<path d="M23.6192 1.94036C23.6437 1.96622 23.6437 1.96622 23.6192 1.94036Z" fill="#353738"/>
<path d="M16.318 2.0423C16.3429 2.06766 16.3429 2.06766 16.318 2.0423Z" fill="#353738"/>
<path d="M16.5576 2.04788C16.6262 2.02911 16.6507 2.05549 16.6316 2.12599C16.563 2.14374 16.5385 2.11787 16.5576 2.04788Z" fill="#353738"/>
<path d="M23.3742 2.09302C23.3992 2.11889 23.3992 2.11889 23.3742 2.09302Z" fill="#353738"/>
<path d="M15.8275 2.19446C15.8524 2.22032 15.8524 2.22032 15.8275 2.19446Z" fill="#353738"/>
<path d="M22.8837 2.24467C22.9086 2.27054 22.9086 2.27054 22.8837 2.24467Z" fill="#353738"/>
<path d="M15.7838 2.34256C15.8289 2.29945 15.9279 2.35929 15.8985 2.42117C15.8529 2.46479 15.7505 2.40494 15.7838 2.34256Z" fill="#353738"/>
<path d="M14.4069 2.70114C14.4319 2.72752 14.4319 2.72752 14.4069 2.70114Z" fill="#353738"/>
<path d="M13.7209 2.95474C13.7454 2.9806 13.7454 2.9806 13.7209 2.95474Z" fill="#353738"/>
<path d="M13.0731 3.23927C13.1765 3.28897 13.2696 3.35998 13.3284 3.46396C13.2098 3.43809 13.1343 3.33919 13.0731 3.23927Z" fill="#353738"/>
<path d="M11.5197 3.75965C11.5879 3.73885 11.6124 3.76421 11.5942 3.83522C11.5261 3.85551 11.5011 3.83015 11.5197 3.75965Z" fill="#353738"/>
<path d="M10.3398 4.22322C10.3643 4.24858 10.3643 4.24858 10.3398 4.22322Z" fill="#353738"/>
<path d="M10.4432 4.26887C10.5113 4.24959 10.5363 4.27546 10.5182 4.34596C10.4496 4.36473 10.4246 4.33937 10.4432 4.26887Z" fill="#353738"/>
<path d="M9.4999 4.53159C9.56802 4.51232 9.59252 4.53768 9.57292 4.60868C9.50431 4.62745 9.47981 4.60158 9.4999 4.53159Z" fill="#353738"/>
<path d="M8.62425 4.83134C8.64924 4.85721 8.64924 4.85721 8.62425 4.83134Z" fill="#353738"/>
<path d="M7.9936 5.08037C8.06122 5.0611 8.08621 5.08646 8.06857 5.15747C7.99997 5.17623 7.97498 5.15087 7.9936 5.08037Z" fill="#353738"/>
<path d="M6.12028 5.8016C6.18888 5.78233 6.21338 5.80819 6.19476 5.8792C6.12665 5.89746 6.10215 5.87159 6.12028 5.8016Z" fill="#353738"/>
<path d="M2.04728 7.97542C2.24377 7.90086 2.43978 7.82579 2.63432 7.74718C2.70096 7.89883 2.76662 8.10678 2.67695 8.26198L2.64265 8.28024C2.63824 8.17322 2.63432 8.06671 2.62991 7.9602C2.56767 7.97592 2.50593 7.99215 2.44419 8.01041C2.30307 8.04946 2.16586 8.10221 2.02964 8.158C2.04385 8.18945 2.07178 8.25285 2.08599 8.28429C1.99093 8.23002 1.86891 8.16713 1.90567 8.03222C1.95271 8.01244 2.00024 7.99367 2.04728 7.97542Z" fill="#353738"/>
<path d="M1.94144 11.1667C2.33492 11.192 2.69606 11.3711 3.04593 11.5445C3.28162 11.6465 3.5232 11.7342 3.75792 11.8387C3.76772 11.9031 3.78487 11.966 3.80937 12.0269C3.51438 11.9295 3.18509 11.9087 2.92832 11.7139C2.77103 11.5998 2.57992 11.546 2.43341 11.4152C2.29082 11.2929 2.11147 11.2351 1.94144 11.1667Z" fill="#353738"/>
<path d="M21.1059 0.353865C21.0794 0.326476 21.0794 0.326476 21.1059 0.353865Z" fill="#6A6052"/>
<path d="M21.0015 0.402047C20.9765 0.37263 20.9765 0.37263 21.0015 0.402047Z" fill="#6A6052"/>
<path d="M20.3684 0.592243C20.3371 0.571956 20.3371 0.571956 20.3684 0.592243Z" fill="#6A6052"/>
<path d="M20.315 0.710926C20.292 0.678973 20.292 0.678973 20.315 0.710926Z" fill="#6A6052"/>
<path d="M20.3728 1.13088C20.3111 1.05074 20.1499 1.15776 20.2244 1.24145C20.2979 1.26579 20.3723 1.21102 20.3728 1.13088Z" fill="#6A6052"/>
<path d="M12.7105 6.4858C12.7899 6.5071 12.83 6.31893 12.7458 6.31437C12.6987 6.34987 12.6737 6.43406 12.7105 6.4858Z" fill="#6A6052"/>
<path d="M13.2867 6.49341C13.4132 6.5142 13.3416 6.71048 13.3313 6.80533C13.3171 6.81598 13.2892 6.83677 13.275 6.84742C13.2779 6.72925 13.2838 6.61107 13.2867 6.49341Z" fill="#6A6052"/>
<path d="M13.0902 6.55021C13.1069 6.55072 13.1392 6.55173 13.1559 6.55224C13.1417 6.68157 13.2044 6.86619 13.079 6.94937C13.0839 6.81648 13.0917 6.6836 13.0902 6.55021Z" fill="#6A6052"/>
<path d="M15.1821 7.00262C15.4154 6.90981 15.6324 6.77287 15.8765 6.712C15.9504 6.68208 16.0181 6.73128 16.0823 6.76323C15.7598 6.96712 15.4217 7.14616 15.0704 7.29122C14.8621 7.3815 14.6754 7.52249 14.4564 7.5864C14.3349 7.59198 14.2055 7.61379 14.0918 7.55851C14.1942 7.44287 14.3506 7.40939 14.4838 7.34599C14.7259 7.25165 14.94 7.09645 15.1821 7.00262Z" fill="#6A6052"/>
<path d="M2.1835 7.699C2.32218 7.62444 2.47457 7.57575 2.62991 7.55495C2.6304 7.61886 2.63187 7.68277 2.63432 7.74718C2.43978 7.82579 2.24377 7.90086 2.04728 7.97542C2.08648 7.88006 2.11882 7.77913 2.1835 7.699Z" fill="#6A6052"/>
<path d="M2.02964 8.158C2.16586 8.10221 2.30307 8.04946 2.44419 8.01041C2.40646 8.1859 2.24083 8.25792 2.08599 8.28429C2.07178 8.25285 2.04385 8.18945 2.02964 8.158Z" fill="#6A6052"/>
<path d="M3.70843 8.12706C3.88091 8.08142 4.05536 8.04541 4.2249 7.98911C4.28076 8.02157 4.34202 8.1367 4.25283 8.16561C4.1367 8.20872 4.04409 8.2919 3.94951 8.37052C3.80692 8.42935 3.65943 8.47348 3.51438 8.5242C3.51389 8.49021 3.51242 8.42225 3.51193 8.38827C3.42961 8.39537 3.3419 8.41515 3.26692 8.36747C3.36934 8.22343 3.55848 8.19503 3.70843 8.12706Z" fill="#6A6052"/>
<path d="M5.80912 8.25995C5.82725 8.17068 5.79393 8.04439 5.68171 8.07584C5.55431 8.16206 5.69886 8.29596 5.80912 8.25995Z" fill="#6A6052"/>
<path d="M4.3381 8.56781C4.47579 8.38776 4.71737 8.35987 4.9021 8.25031C4.91484 8.27821 4.93983 8.33451 4.95208 8.36291C4.75657 8.45674 4.55321 8.53941 4.3381 8.56781Z" fill="#6A6052"/>
<path d="M7.30219 8.53485C7.3262 8.55919 7.3262 8.55919 7.30219 8.53485Z" fill="#6A6052"/>
<path d="M4.20677 12.2708C4.22343 12.2495 4.25724 12.2069 4.27439 12.1861C4.36407 12.2358 4.4557 12.2825 4.54978 12.322C4.43512 12.3068 4.32045 12.2916 4.20677 12.2708Z" fill="#6A6052"/>
<path d="M19.1061 1.08777C19.1723 1.069 19.2017 1.09487 19.1948 1.16588C19.1253 1.18312 19.0959 1.15726 19.1061 1.08777Z" fill="#46833E"/>
<path d="M17.9428 1.42961C18.009 1.41186 18.0364 1.43874 18.0261 1.50975C17.9571 1.52649 17.9291 1.49961 17.9428 1.42961Z" fill="#46833E"/>
<path d="M19.7848 2.73867C19.8946 2.64079 19.9994 2.53681 20.1004 2.42929C20.1043 2.49269 20.1082 2.55659 20.1126 2.6205C20.0043 2.6631 19.8951 2.70266 19.7848 2.73867Z" fill="#46833E"/>
<path d="M22.0987 3.0861C22.1383 3.01661 22.1795 2.94764 22.2221 2.87967C22.3456 2.92228 22.476 2.93343 22.6024 2.96488C22.7852 3.07342 22.9248 3.2413 23.089 3.37469C23.2688 3.51062 23.4065 3.69879 23.601 3.81595L23.5883 3.84384C23.5515 3.92601 23.5148 4.00817 23.4722 4.0878C23.3982 3.92296 23.212 3.90876 23.0679 3.84689C22.9101 3.79059 22.8048 3.6506 22.6877 3.53649C22.5147 3.35491 22.2863 3.24891 22.0987 3.0861Z" fill="#46833E"/>
<path d="M16.3871 3.3331C16.4708 3.2834 16.5669 3.26463 16.6595 3.24231C16.5943 3.32803 16.5125 3.4036 16.4101 3.4386C16.3572 3.41374 16.3493 3.37875 16.3871 3.3331Z" fill="#46833E"/>
<path d="M14.0659 4.17504C14.1972 4.10809 14.3368 4.06295 14.478 4.0244C14.4882 4.04165 14.5088 4.07512 14.5191 4.09237C14.4231 4.17859 14.3231 4.25974 14.2187 4.33531C14.2026 4.31908 14.1707 4.28662 14.1545 4.27039C14.1462 4.2922 14.13 4.3348 14.1217 4.35661C14.0962 4.29828 14.0781 4.23742 14.0659 4.17504Z" fill="#46833E"/>
<path d="M13.9159 4.31553C14.061 4.23691 13.9228 4.48493 13.9159 4.31553Z" fill="#46833E"/>
<path d="M13.8326 4.44233C13.8561 4.37081 13.8331 4.34698 13.7645 4.37183C13.7405 4.44283 13.7635 4.46667 13.8326 4.44233Z" fill="#46833E"/>
<path d="M15.212 4.67513C15.2992 4.56608 15.4183 4.49102 15.5256 4.40632C15.5467 4.45146 15.5624 4.49862 15.5717 4.54833C15.4913 4.57217 15.4114 4.59753 15.3325 4.62339C15.3423 4.7157 15.3752 4.80953 15.3575 4.90235C15.3325 5.00277 15.2321 5.03878 15.1542 5.08392C15.1787 4.9485 15.1875 4.81055 15.212 4.67513Z" fill="#46833E"/>
<path d="M14.6274 4.78468C14.7171 4.67411 14.868 4.64825 14.9949 4.60615C14.9582 4.73345 14.8646 4.82627 14.7739 4.91452C14.7186 4.88206 14.6642 4.84808 14.6108 4.81308L14.6274 4.78468Z" fill="#46833E"/>
<path d="M14.0497 5.11588C13.9095 5.13109 13.7777 5.19905 13.7037 5.32636C13.8267 5.27665 13.9879 5.25383 14.0497 5.11588Z" fill="#46833E"/>
<path d="M19.4408 5.46634C19.6349 5.36288 19.7971 5.14073 20.0411 5.20869C19.9602 5.32585 19.8005 5.30303 19.6986 5.38976C19.4903 5.55561 19.2286 5.61546 18.9954 5.73313C19.0517 5.67226 19.1061 5.60937 19.161 5.5475C19.1502 5.52366 19.1292 5.47547 19.1184 5.45164C19.2262 5.44352 19.335 5.4846 19.4408 5.46634Z" fill="#46833E"/>
<path d="M13.4141 5.2726C13.4279 5.26195 13.4553 5.24166 13.4695 5.23101C13.4563 5.40295 13.3 5.48511 13.1897 5.58959C13.1118 5.61089 13.0314 5.55105 13.006 5.47497C13.1539 5.43794 13.2951 5.37201 13.4141 5.2726Z" fill="#46833E"/>
<path d="M13.6626 5.7311C13.7013 5.60886 13.6738 5.42678 13.8081 5.36694C13.8106 5.46736 13.8066 5.56829 13.7983 5.66922C13.7527 5.68951 13.7077 5.7103 13.6626 5.7311Z" fill="#46833E"/>
<path d="M12.7879 6.08664C12.8237 5.98114 12.7673 5.75899 12.9271 5.77979C12.9271 5.87311 12.9202 5.96694 12.8982 6.05824C12.8707 6.06534 12.8153 6.07954 12.7879 6.08664Z" fill="#46833E"/>
<path d="M10.0659 5.98317C10.0972 5.81377 10.2731 5.90659 10.3378 5.99687C10.0149 6.09323 9.72482 6.28901 9.39014 6.35545C9.42444 6.26111 9.43375 6.12062 9.5494 6.09526C9.71698 6.0344 9.88162 5.91876 10.0659 5.98317Z" fill="#46833E"/>
<path d="M11.8534 5.92129C11.63 5.99585 11.4065 6.07649 11.2003 6.19315C11.4154 6.41733 11.7726 6.17235 11.8534 5.92129Z" fill="#46833E"/>
<path d="M17.4127 6.41885C17.6464 6.27075 17.9198 6.22003 18.1785 6.1404C17.911 6.33922 17.6033 6.47464 17.2901 6.57608C17.3235 6.51775 17.3499 6.44979 17.4127 6.41885Z" fill="#46833E"/>
<path d="M11.2115 6.394C11.1718 6.27379 11.0111 6.16322 10.9533 6.33465C11.0302 6.38639 11.1223 6.39197 11.2115 6.394Z" fill="#46833E"/>
<path d="M10.3182 6.74954C10.3829 6.65875 10.4667 6.58521 10.5706 6.54717C10.5966 6.56035 10.649 6.58571 10.675 6.59839C10.5745 6.68715 10.4422 6.71505 10.3182 6.74954Z" fill="#46833E"/>
<path d="M7.88433 6.75156C7.99164 6.67194 8.09993 6.80228 8.16559 6.8809C7.91422 6.97879 7.66333 7.07921 7.4144 7.18369C7.31738 7.23898 7.2233 7.1629 7.14294 7.11268C7.35658 6.92705 7.65059 6.9022 7.88433 6.75156Z" fill="#46833E"/>
<path d="M9.45727 6.91184C9.65083 6.82815 9.84291 6.73888 10.0468 6.68664C9.9419 6.9727 9.57488 7.1842 9.29557 7.03863C9.32007 6.9656 9.39798 6.94379 9.45727 6.91184Z" fill="#46833E"/>
<path d="M10.4976 7.10305C10.527 6.98183 10.5044 6.82815 10.6044 6.7399C10.6211 6.84235 10.6338 6.94633 10.646 7.04979C10.5966 7.06754 10.5471 7.0853 10.4976 7.10305Z" fill="#46833E"/>
<path d="M10.3447 6.86163C10.3643 6.85858 10.4035 6.8525 10.4231 6.84945C10.4211 6.94227 10.4148 7.03559 10.403 7.12841C10.3662 7.15174 10.3295 7.17558 10.2927 7.19941C10.3123 7.08682 10.3246 6.97371 10.3447 6.86163Z" fill="#46833E"/>
<path d="M10.0953 7.25166C10.1276 7.12942 10.1061 6.96256 10.2271 6.89104C10.23 7.00161 10.2202 7.11269 10.1987 7.22173C10.1732 7.22934 10.1212 7.24405 10.0953 7.25166Z" fill="#46833E"/>
<path d="M9.88407 7.34447C9.89388 7.21463 9.91397 7.07059 10.0272 6.99147C10.0301 7.09189 10.0267 7.19181 10.0188 7.29223C9.97375 7.30947 9.92916 7.32672 9.88407 7.34447Z" fill="#46833E"/>
<path d="M8.70706 7.35309C8.56741 7.34244 8.47969 7.45707 8.41109 7.5651C8.52282 7.52909 8.71637 7.51793 8.70706 7.35309Z" fill="#46833E"/>
<path d="M7.39921 7.78015C7.64128 7.69037 7.8662 7.55242 8.11904 7.49663C8.01124 7.8263 7.65549 7.89072 7.38157 8.00585C7.38647 7.93028 7.39235 7.85521 7.39921 7.78015Z" fill="#46833E"/>
<path d="M8.61347 7.90289C8.64826 7.78928 8.59975 7.56459 8.75606 7.55749C8.75459 7.65234 8.7492 7.74718 8.74038 7.84202C8.69775 7.8618 8.65561 7.88209 8.61347 7.90289Z" fill="#46833E"/>
<path d="M8.39688 8.02411C8.41746 7.87296 8.40178 7.67516 8.56398 7.60517C8.56055 7.74312 8.53654 7.88006 8.48852 8.00889L8.46352 8.01345C8.44686 8.01599 8.41354 8.02157 8.39688 8.02411Z" fill="#46833E"/>
<path d="M7.99017 7.87905C8.03574 7.85724 8.0818 7.83594 8.12737 7.81464C8.11512 7.92723 8.0916 8.03932 8.04848 8.14431C8.02398 8.15192 7.97547 8.16815 7.95146 8.17576C7.96224 8.07635 7.97498 7.97744 7.99017 7.87905Z" fill="#46833E"/>
<path d="M7.73781 8.24981C7.72801 8.12047 7.76378 7.99165 7.86032 7.90542C7.86816 8.02969 7.88041 8.15445 7.90687 8.27669C7.85052 8.26705 7.79416 8.25843 7.73781 8.24981Z" fill="#46833E"/>
<path d="M1.34117 8.44964C1.46955 8.39334 1.5999 8.31574 1.74347 8.32132C1.88557 8.38371 2.02229 8.46993 2.12764 8.58861C2.26975 8.78236 2.49711 8.86452 2.69116 8.98777C2.74408 8.92234 2.79504 8.85438 2.85286 8.79351C2.97194 8.79909 2.97439 8.98625 3.02584 9.07653C3.02633 9.16833 3.12874 9.21854 3.1748 9.12522C3.26986 8.97407 3.42128 9.12928 3.54672 9.14094C3.63149 9.11812 3.62414 9.01059 3.64914 8.94212C3.7197 8.98625 3.79026 9.02885 3.85739 9.07805C4.17394 9.29513 4.3082 9.68515 4.43757 10.0356C4.43512 10.0473 4.43022 10.0696 4.42777 10.0813C4.51254 10.1188 4.5978 10.1563 4.67816 10.2045C4.75461 10.2963 4.82762 10.3942 4.92758 10.4606C5.1035 10.6027 5.34556 10.5377 5.53716 10.6412C5.96053 10.8568 6.281 11.228 6.66321 11.506C6.75386 11.5876 6.8602 11.508 6.95134 11.472C6.9386 11.5222 6.92586 11.5729 6.91312 11.6236C6.96702 11.6044 7.02092 11.5851 7.07482 11.5663C7.05277 11.5298 7.03023 11.4938 7.00818 11.4578C7.18655 11.3827 7.37912 11.3665 7.56778 11.3386C7.58934 11.3584 7.63197 11.3974 7.65353 11.4167C7.43498 11.5273 7.18655 11.5795 7.00034 11.7504C7.06992 11.8909 7.18606 11.9969 7.29239 12.107C7.18753 12.2252 7.1792 12.3773 7.21301 12.5269C7.13902 12.528 7.06502 12.5295 6.99103 12.5315C7.0268 12.565 7.06257 12.599 7.09834 12.6329C6.94497 12.6426 6.79748 12.6025 6.68183 12.4955C6.50788 12.3362 6.26973 12.3393 6.05412 12.3063L6.01394 12.2997C5.8934 12.2531 5.7905 12.3474 5.68465 12.391C5.57832 12.4443 5.45631 12.4301 5.34213 12.428C5.32596 12.3697 5.30979 12.3114 5.29362 12.2541C5.14025 12.1968 4.98099 12.1516 4.83987 12.0659C4.52675 11.8732 4.18472 11.7383 3.86572 11.5577C3.7736 11.5136 3.73881 11.4101 3.69275 11.3254C3.61679 11.1631 3.47959 11.0475 3.36934 10.9115C3.49723 10.9268 3.62414 10.9531 3.75351 10.9486C3.89169 10.9298 4.00244 10.8339 4.11073 10.7513C3.93138 10.5068 3.6604 10.3678 3.43941 10.1716C2.97243 9.74855 2.43586 9.42192 1.95173 9.02175C1.74396 8.83713 1.46171 8.71997 1.34117 8.44964Z" fill="#46833E"/>
<path d="M3.51438 8.5242C3.65943 8.47348 3.80692 8.42935 3.94951 8.37052C3.98283 8.50239 4.00195 8.63831 4.0044 8.77525C3.84514 8.69613 3.68785 8.59875 3.50556 8.67128C3.50752 8.63476 3.51193 8.56122 3.51438 8.5242Z" fill="#46833E"/>
<path d="M10.4099 9.76326C10.5505 9.674 10.7161 9.71254 10.8685 9.73385C10.8759 9.7587 10.8896 9.8079 10.8964 9.83275C10.7568 9.87535 10.5912 9.87992 10.4868 9.9986C10.3824 10.1071 10.2232 10.1076 10.0865 10.133C10.157 9.98034 10.2506 9.82818 10.4099 9.76326Z" fill="#46833E"/>
<path d="M9.66112 10.1381C9.78656 10.0737 9.93749 10.0077 10.0512 10.1335C10.0742 10.166 10.0967 10.1989 10.1188 10.2324C9.9468 10.2776 9.77284 10.3166 9.59791 10.3491C9.63368 10.3044 9.66896 10.2603 9.70473 10.2162C9.69395 10.1969 9.6719 10.1579 9.66112 10.1381Z" fill="#46833E"/>
<path d="M9.10103 10.4348C9.18532 10.4434 9.26519 10.4769 9.34751 10.4992C9.35535 10.5205 9.37054 10.5641 9.37838 10.5854C9.16718 10.6372 8.99078 10.7766 8.78154 10.8319C8.71637 10.8426 8.68256 10.9034 8.6365 10.9445C8.52478 10.9815 8.39345 10.9775 8.31064 11.0769C8.15628 11.1677 7.97743 11.2113 7.83435 11.3269C7.80004 11.2498 7.76721 11.1722 7.73144 11.0962C7.78387 11.0683 7.8368 11.0404 7.89119 11.016C8.10973 10.9009 8.37532 10.9795 8.58456 10.8344C8.58897 10.8324 8.5973 10.8284 8.60122 10.8263C8.69873 10.7822 8.79379 10.73 8.87171 10.6534C8.86485 10.6174 8.85798 10.5814 8.85112 10.5464C8.931 10.5033 9.00842 10.4424 9.10103 10.4348ZM8.9261 10.7158C8.95109 10.7411 8.95109 10.7411 8.9261 10.7158Z" fill="#46833E"/>
<path d="M19.5854 1.41541C19.677 1.36317 19.7868 1.37332 19.8877 1.35911C19.8907 1.42809 19.8921 1.49758 19.8911 1.56706C19.7446 1.64111 19.5932 1.71871 19.4266 1.71973C19.4771 1.61778 19.504 1.49758 19.5854 1.41541Z" fill="#306129"/>
<path d="M14.9229 2.23808C15.0488 2.38364 15.1777 2.21424 15.3154 2.19649C15.3864 2.23808 15.4501 2.29032 15.5163 2.33951C15.5815 2.29336 15.6496 2.25076 15.7236 2.22032C15.6888 2.31415 15.6006 2.35777 15.5202 2.40038C15.5692 2.46783 15.6207 2.53275 15.6643 2.60427C15.6858 2.64637 15.7069 2.68897 15.727 2.73259C15.7887 2.8883 15.9034 3.00901 16.0259 3.11602C16.0083 3.14189 15.9735 3.19413 15.9558 3.22C15.9514 3.22304 15.9421 3.22963 15.9377 3.23318C15.901 3.24282 15.8637 3.25246 15.8265 3.26159C15.8108 3.23217 15.7799 3.17283 15.7642 3.14341L15.7442 3.10639C15.7265 3.07241 15.7103 3.03741 15.6956 3.00191C15.6765 2.94155 15.6574 2.88119 15.63 2.8249C15.6158 2.8041 15.5878 2.76251 15.5736 2.74172C15.48 2.59615 15.3845 2.4511 15.2723 2.31973C15.1414 2.43537 15.0282 2.56927 14.916 2.70368C14.893 2.69252 14.8474 2.6702 14.8249 2.65854C14.8788 2.57181 14.9469 2.49573 15.018 2.42371C14.9866 2.36132 14.9547 2.29945 14.9229 2.23808ZM15.8779 3.1074C15.9024 3.13327 15.9024 3.13327 15.8779 3.1074Z" fill="#306129"/>
<path d="M21.7885 2.86547C21.8184 2.80765 21.8483 2.74983 21.8781 2.69201C21.8845 2.77621 21.8928 2.8604 21.9012 2.9451C21.9438 2.86598 21.9541 2.77164 21.9713 2.6839C21.982 2.79142 21.9698 2.90858 22.0261 3.00596C22.034 2.91568 22.0374 2.82591 22.0384 2.73614C22.1036 2.77722 22.1726 2.81678 22.2221 2.87967C22.1795 2.94764 22.1383 3.01661 22.0987 3.0861C22.2863 3.24891 22.5147 3.35491 22.6877 3.53649C22.8048 3.6506 22.9101 3.79059 23.0679 3.84689C23.212 3.90876 23.3982 3.92296 23.4722 4.0878C23.4472 4.10657 23.3967 4.1441 23.3717 4.16286C23.3315 4.19177 23.2918 4.1938 23.2522 4.16794C23.0694 4.06041 22.8503 4.04976 22.6734 3.92956C22.6161 3.87022 22.5382 3.92398 22.5309 3.9965L22.5147 4.04165C22.4921 4.04317 22.448 4.04722 22.4255 4.04875C22.401 4.05737 22.3515 4.07461 22.327 4.08273C22.1633 4.22626 21.9536 4.28814 21.7659 4.38755C21.6616 4.43827 21.5641 4.5179 21.443 4.51587C21.5562 4.37791 21.7155 4.30234 21.8767 4.24148C21.8576 4.22271 21.8193 4.18518 21.8007 4.16641C21.9193 4.10657 22.0492 4.0594 22.1432 3.95897C22.0413 3.87427 21.912 3.84841 21.7899 3.81341C21.814 3.81087 21.862 3.80631 21.886 3.80377C21.8782 3.78704 21.863 3.75306 21.8556 3.73632C21.6748 3.68509 21.4969 3.62474 21.3318 3.53141C21.2749 3.46345 21.2063 3.39447 21.2127 3.29709C21.2176 3.17739 21.1666 3.00343 21.2901 2.93343C21.2975 3.04096 21.3043 3.14899 21.3161 3.25651C21.347 3.16725 21.3676 3.07545 21.3823 2.98212C21.3896 3.0861 21.3984 3.18957 21.4063 3.29354L21.4528 3.29557C21.4553 3.15558 21.4562 3.01509 21.4636 2.87562C21.5376 2.92836 21.5582 3.02372 21.5939 3.10385C21.5984 2.97807 21.6047 2.85228 21.6135 2.72701C21.6385 2.86446 21.6444 3.00495 21.6469 3.14493L21.6983 3.1424C21.6988 3.03335 21.6983 2.92481 21.6978 2.81577C21.7277 2.8325 21.7576 2.84873 21.7885 2.86547Z" fill="#306129"/>
<path d="M14.1952 3.39092C14.2947 3.30368 14.4363 3.24536 14.5681 3.25043C14.8195 3.30723 15.0787 3.3047 15.3316 3.35136L15.3737 3.35795C15.358 3.38078 15.3272 3.42592 15.3115 3.44874L15.286 3.44418C15.2051 3.42997 15.1233 3.41729 15.0415 3.41019C14.8371 3.39396 14.6328 3.37621 14.429 3.35136C14.4677 3.39548 14.5029 3.44468 14.551 3.48019C14.7053 3.47156 14.8582 3.44925 15.0131 3.44316C15.0679 3.46396 15.1223 3.48729 15.1762 3.51214C15.1478 3.57047 15.0807 3.57807 15.0361 3.61662C14.9988 3.64046 14.9719 3.69878 14.9209 3.67799C14.9121 3.63995 14.9043 3.60191 14.8979 3.56387C14.8082 3.5446 14.7058 3.51721 14.6284 3.58619C14.4285 3.73327 14.1928 3.80885 13.962 3.88492C13.9164 3.79414 13.8767 3.70031 13.8419 3.60495C13.9286 3.62068 14.0154 3.64604 14.1041 3.64604C14.1869 3.65872 14.2281 3.57807 14.2731 3.5233C14.2398 3.52685 14.1732 3.53395 14.1394 3.53801C14.1575 3.4883 14.1756 3.43961 14.1952 3.39092Z" fill="#306129"/>
<path d="M16.1548 3.59278C16.4713 3.62829 16.7898 3.68154 17.1074 3.67799C17.1338 3.76726 17.1015 3.86768 17.1064 3.961C17.0084 3.94477 16.9109 3.92753 16.8139 3.90724C16.8178 3.93615 16.8266 3.99346 16.831 4.02187C16.6742 3.99549 16.5439 3.87985 16.3812 3.88137C16.2337 3.88543 16.2067 3.6998 16.1548 3.59278Z" fill="#306129"/>
<path d="M12.8305 3.90369C13.0476 3.76675 13.3112 3.71096 13.5572 3.64604C13.4328 3.80073 13.2064 3.92499 13.2328 4.15678C13.0412 4.2359 12.8643 4.37183 12.6536 4.39009C12.6228 4.32922 12.5449 4.25822 12.5988 4.18721C12.6639 4.08273 12.7487 3.99397 12.8305 3.90369ZM13.1314 4.11975C13.1569 4.14562 13.1569 4.14562 13.1314 4.11975Z" fill="#306129"/>
<path d="M5.48375 7.21717C5.5646 7.22985 5.64349 7.25165 5.71895 7.28462C5.65231 7.28969 5.58616 7.29426 5.52001 7.29933C5.53814 7.42309 5.67975 7.39164 5.76698 7.41396C5.9718 7.42613 6.17565 7.50322 6.38047 7.45656C6.44565 7.47279 6.51033 7.49257 6.57354 7.5159L6.59902 7.52452C6.60686 7.66856 6.60931 7.81261 6.60735 7.95665L6.6441 7.95462C6.64557 7.85572 6.64753 7.75631 6.64998 7.65741L6.7029 7.65589C6.71417 7.78928 6.7127 7.92368 6.69751 8.05707C6.63822 8.07939 6.57844 8.11743 6.51327 8.10018C6.3153 8.06062 6.1193 8.0094 5.91741 7.99824C5.93946 7.96274 5.96102 7.92774 5.98307 7.89274C5.95416 7.81869 5.92819 7.74363 5.90467 7.66755C6.07813 7.68885 6.25013 7.72537 6.42458 7.73906C6.3888 7.6919 6.35793 7.62748 6.29178 7.62393C6.05706 7.57271 5.81255 7.5722 5.58273 7.49815C5.47101 7.45656 5.39212 7.32063 5.48375 7.21717Z" fill="#306129"/>
<path d="M3.67609 7.77254C3.92011 7.67161 4.13964 7.49815 4.40327 7.45402C4.58947 7.4738 4.78009 7.4809 4.9609 7.53568C5.09566 7.60517 5.19709 7.72639 5.27647 7.85623C5.11379 7.84253 4.95159 7.82123 4.78891 7.80601C4.81929 7.95564 4.85261 8.10526 4.9021 8.25031C4.71737 8.35987 4.47579 8.38776 4.3381 8.56781C4.55321 8.53941 4.75657 8.45674 4.95208 8.36291C5.06675 8.60078 5.21571 8.81938 5.39457 9.01059C5.51364 9.12015 5.46856 9.29766 5.48032 9.44322C5.52246 9.35548 5.56607 9.26824 5.61017 9.18101C5.61164 9.21499 5.61556 9.28244 5.61752 9.31592C5.64888 9.29665 5.67975 9.27737 5.71111 9.25861C5.71454 9.27839 5.72238 9.31795 5.7263 9.33773C5.80079 9.32657 5.87135 9.3499 5.93995 9.37881C5.69592 9.52133 5.43328 9.62175 5.17651 9.73587C4.9315 9.83985 4.69483 9.96614 4.43757 10.0356C4.3082 9.68515 4.17394 9.29513 3.85739 9.07805C3.79026 9.02885 3.7197 8.98625 3.64914 8.94212C3.62414 9.01059 3.63149 9.11812 3.54672 9.14094C3.42128 9.12928 3.26986 8.97407 3.1748 9.12522C3.13217 9.08566 3.08268 9.06943 3.02584 9.07653C2.97439 8.98625 2.97194 8.79909 2.85286 8.79351C2.79504 8.85438 2.74408 8.92234 2.69116 8.98777C2.49711 8.86452 2.26975 8.78236 2.12764 8.58861C2.1541 8.5384 2.18105 8.48869 2.208 8.43949C2.35942 8.40703 2.5074 8.35733 2.64265 8.28024L2.67695 8.26198C3.01506 8.10881 3.3321 7.9105 3.67609 7.77254ZM4.02547 7.94245C3.901 7.946 3.75841 7.99925 3.70843 8.12706C3.55848 8.19503 3.36934 8.22343 3.26692 8.36747C3.3419 8.41515 3.42961 8.39537 3.51193 8.38827C3.51242 8.42225 3.51389 8.49021 3.51438 8.5242C3.51193 8.56122 3.50752 8.63476 3.50556 8.67128C3.68785 8.59875 3.84514 8.69613 4.0044 8.77525C4.00195 8.63831 3.98283 8.50239 3.94951 8.37052C4.04409 8.2919 4.1367 8.20872 4.25283 8.16561C4.34202 8.1367 4.28076 8.02157 4.2249 7.98911C4.35721 7.89173 4.52969 7.87347 4.65268 7.76239C4.5537 7.75529 4.45374 7.7487 4.35525 7.76493C4.2249 7.77964 4.15777 7.93941 4.02547 7.94245ZM2.67842 8.57948C2.69116 8.6018 2.71762 8.64643 2.73036 8.66875C2.91166 8.57796 3.11208 8.52977 3.28456 8.42225C3.08513 8.28987 2.86021 8.49072 2.67842 8.57948Z" fill="#306129"/>
<path d="M1.32255 8.41616L1.34117 8.44964C1.46171 8.71997 1.74396 8.83713 1.95173 9.02175C2.43586 9.42192 2.97243 9.74855 3.43941 10.1716C3.6604 10.3678 3.93138 10.5068 4.11073 10.7513C4.00244 10.8339 3.89169 10.9298 3.75351 10.9486C3.62414 10.9531 3.49723 10.9268 3.36934 10.9115C3.47959 11.0475 3.61679 11.1631 3.69275 11.3254C3.73881 11.4101 3.7736 11.5136 3.86572 11.5577C4.18472 11.7383 4.52675 11.8732 4.83987 12.0659C4.98099 12.1516 5.14025 12.1968 5.29362 12.2541C5.30979 12.3114 5.32596 12.3697 5.34213 12.428C5.08978 12.4098 4.84232 12.3469 4.58947 12.3291L4.54978 12.322C4.4557 12.2825 4.36407 12.2358 4.27439 12.1861C4.13817 12.0837 3.9696 12.0629 3.80937 12.0269C3.95735 12.0152 3.88434 11.8022 3.75792 11.8387C3.5232 11.7342 3.28162 11.6465 3.04593 11.5445C2.69606 11.3711 2.33492 11.192 1.94144 11.1667C1.80766 11.1266 1.65723 11.1088 1.54697 11.014C1.48278 10.8984 1.45436 10.767 1.41761 10.6407C1.30295 10.2218 1.17799 9.80587 1.05794 9.38845C1.00208 9.24846 1.07607 9.10645 1.1089 8.97103C1.17358 8.78388 1.17799 8.56325 1.32255 8.41616Z" fill="#306129"/>
<path d="M23.8588 2.97452C24.0764 3.12414 24.0058 3.47866 23.8916 3.66531C23.9044 3.52533 23.944 3.3894 23.9519 3.24891C23.946 3.15051 23.8887 3.06581 23.8588 2.97452Z" fill="#FEF135"/>
<path d="M23.8024 3.95644C23.8421 3.87326 23.8186 3.72972 23.9107 3.69219C23.8911 3.83674 23.8622 4.00209 23.7358 4.08932C23.6153 4.15729 23.4731 4.1583 23.3413 4.18467L23.3717 4.16286C23.3967 4.1441 23.4472 4.10657 23.4722 4.0878C23.5148 4.00817 23.5515 3.92601 23.5883 3.84384C23.6594 3.88087 23.7309 3.9184 23.8024 3.95644Z" fill="#FEF135"/>
<path d="M22.6734 3.92956C22.6161 3.87022 22.5382 3.92398 22.5309 3.9965C22.5985 4.02288 22.6455 4.00056 22.6734 3.92956Z" fill="#FEF135"/>
<path d="M22.327 4.08273C22.3515 4.07461 22.401 4.05737 22.4255 4.04875L22.4137 4.09439L22.3628 4.11164L22.327 4.08273Z" fill="#FEF135"/>
<path d="M7.59375 10.9298C7.64226 10.9825 7.68979 11.0368 7.73144 11.0962C7.76721 11.1722 7.80004 11.2498 7.83435 11.3269C7.82994 11.3584 7.82112 11.4223 7.81671 11.4537C7.74712 11.7601 7.74222 12.0826 7.63295 12.3783C7.55357 12.5969 7.29876 12.6482 7.09834 12.6329C7.06257 12.599 7.0268 12.565 6.99103 12.5315C7.06502 12.5295 7.13902 12.528 7.21301 12.5269C7.1792 12.3773 7.18753 12.2252 7.29239 12.107C7.38304 12.1927 7.48546 12.2632 7.58787 12.3327C7.67019 12.0304 7.71919 11.7175 7.73977 11.4045C7.71772 11.2382 7.64618 11.0865 7.59375 10.9298Z" fill="#FEF135"/>
<path d="M5.68465 12.391C5.7905 12.3474 5.8934 12.2531 6.01394 12.2997C5.58273 12.5822 5.04911 12.4681 4.58947 12.3291C4.84232 12.3469 5.08978 12.4098 5.34213 12.428C5.45631 12.4301 5.57832 12.4443 5.68465 12.391Z" fill="#FEF135"/>
<path d="M21.3455 3.58822C21.3421 3.57402 21.3352 3.54561 21.3318 3.53141C21.4969 3.62474 21.6748 3.68509 21.8556 3.73632C21.863 3.75306 21.8782 3.78704 21.886 3.80377C21.862 3.80631 21.814 3.81087 21.7899 3.81341C21.6307 3.76523 21.4793 3.68813 21.3455 3.58822Z" fill="#000100"/>
<path d="M12.9638 5.48663C13.0721 5.34715 13.2549 5.31216 13.4141 5.2726C13.2951 5.37201 13.1539 5.43794 13.006 5.47497L12.9638 5.48663Z" fill="#000100"/>
<path d="M12.7409 5.53228C12.8864 5.45366 12.7482 5.70117 12.7409 5.53228Z" fill="#000100"/>
<path d="M18.1785 6.1404C18.3113 6.0699 18.4495 6.01056 18.5916 5.9639C18.6343 6.11859 18.4667 6.14902 18.3628 6.17996C18.0482 6.25655 17.8316 6.53652 17.5219 6.62832C16.9805 6.81192 16.4924 7.12131 15.974 7.35969C15.7985 7.44033 15.6623 7.58894 15.4854 7.66552C15.2762 7.75682 15.065 7.84355 14.8533 7.92875C14.499 8.0662 14.2192 8.36037 13.8473 8.45572C13.6655 8.49985 13.5141 8.61194 13.3607 8.71541C13.1701 8.84322 12.9227 8.84271 12.7472 8.99842C12.5983 9.13891 12.3885 9.15869 12.22 9.26267C11.9622 9.43055 11.677 9.54466 11.4031 9.68008C10.3011 10.2517 9.17747 10.7827 8.07837 11.364C7.99703 11.4096 7.90687 11.4355 7.81671 11.4537C7.82112 11.4223 7.82994 11.3584 7.83435 11.3269C7.97743 11.2113 8.15628 11.1677 8.31064 11.0769C8.39345 10.9775 8.52478 10.9815 8.6365 10.9445C8.68256 10.9034 8.71637 10.8426 8.78154 10.8319C8.99078 10.7766 9.16718 10.6372 9.37838 10.5854C9.37054 10.5641 9.35535 10.5205 9.34751 10.4992C9.45972 10.4911 9.57047 10.4703 9.68121 10.4505C9.65377 10.4165 9.62584 10.3825 9.59791 10.3491C9.77284 10.3166 9.9468 10.2776 10.1188 10.2324C10.0967 10.1989 10.0742 10.166 10.0512 10.1335L10.0865 10.133C10.2232 10.1076 10.3824 10.1071 10.4868 9.9986C10.5912 9.87992 10.7568 9.87535 10.8964 9.83275C10.8896 9.8079 10.8759 9.7587 10.8685 9.73385C10.9998 9.71863 11.1307 9.68769 11.2488 9.62581C11.5011 9.47467 11.7804 9.38338 12.0249 9.21854C12.268 9.14956 12.4513 8.95277 12.6972 8.89546C12.83 8.863 12.9506 8.79656 13.0594 8.71186C13.2485 8.56376 13.5072 8.56223 13.6881 8.3979C13.8943 8.22495 14.1648 8.18336 14.403 8.07533C14.5696 8.00534 14.696 7.86383 14.8611 7.7908C15.2345 7.6143 15.6187 7.46265 15.9867 7.27499C16.0671 7.22782 16.121 7.14159 16.2087 7.1066C16.5806 6.95596 16.9226 6.73787 17.2901 6.57608C17.6033 6.47464 17.911 6.33922 18.1785 6.1404Z" fill="#000100"/>
<path d="M11.7692 9.29513C11.7937 9.32048 11.7937 9.32048 11.7692 9.29513Z" fill="#000100"/>
<path d="M0.573806 10.5448C0.738451 10.4784 0.916326 10.3465 1.0942 10.4485C1.07313 10.5012 1.05255 10.5545 1.03197 10.6077C1.11184 10.6554 1.18828 10.592 1.26571 10.5707C1.32255 10.5743 1.36812 10.6158 1.41761 10.6407C1.45436 10.767 1.48278 10.8984 1.54697 11.014C1.65723 11.1088 1.80766 11.1266 1.94144 11.1667C2.11147 11.2351 2.29082 11.2929 2.43341 11.4152C2.57992 11.546 2.77103 11.5998 2.92832 11.7139C3.18509 11.9087 3.51438 11.9295 3.80937 12.0269C3.9696 12.0629 4.13817 12.0837 4.27439 12.1861C4.25724 12.2069 4.22343 12.2495 4.20677 12.2708C4.32045 12.2916 4.43512 12.3068 4.54978 12.322L4.58947 12.3291C5.04911 12.4681 5.58273 12.5822 6.01394 12.2997L6.05412 12.3063C6.0845 12.3652 6.09627 12.4493 6.16879 12.4706C6.45251 12.5853 6.72789 12.7237 7.0219 12.81C7.08315 12.8216 7.11109 12.8805 7.14441 12.9276C6.8504 13.0793 6.51621 12.9596 6.22269 12.8683C5.86841 12.8054 5.50678 12.8034 5.15054 12.7567C3.8079 12.4848 2.46624 12.2013 1.14467 11.8336C1.01727 11.7956 0.909956 11.7124 0.809013 11.6267C0.583607 11.4339 0.33272 11.2767 0.107803 11.085C0.0210706 11.0211 0.0225406 10.9029 0 10.8066C0.148474 10.6372 0.383191 10.6326 0.573806 10.5448Z" fill="#000100"/>
<path d="M8.9261 10.7158C8.95109 10.7411 8.95109 10.7411 8.9261 10.7158Z" fill="#000100"/>
<path d="M13.1314 4.11975C13.1569 4.14562 13.1569 4.14562 13.1314 4.11975Z" fill="#FEFEFE"/>
<path d="M14.4971 4.74208C14.5529 4.71215 14.596 4.72635 14.6274 4.78468L14.6108 4.81308C14.5686 4.85619 14.4696 4.80192 14.4971 4.74208Z" fill="#FEFEFE"/>
<path d="M14.9474 4.98502C14.9724 5.01089 14.9724 5.01089 14.9474 4.98502Z" fill="#FEFEFE"/>
<path d="M8.77811 5.35882L8.79477 5.35628L8.79036 5.3644C8.78693 5.36288 8.78105 5.36034 8.77811 5.35882Z" fill="#FEFEFE"/>
<path d="M10.3383 5.64133C10.3633 5.6677 10.3633 5.6677 10.3383 5.64133Z" fill="#FEFEFE"/>
<path d="M7.05473 5.99839C7.08021 6.02476 7.08021 6.02476 7.05473 5.99839Z" fill="#FEFEFE"/>
<path d="M9.45678 5.99585C9.48177 6.02223 9.48177 6.02223 9.45678 5.99585Z" fill="#FEFEFE"/>
<path d="M7.48399 6.44674L7.50947 6.4366C7.5031 6.43914 7.49036 6.44421 7.48399 6.44674Z" fill="#FEFEFE"/>
<path d="M9.45678 6.45486C9.48226 6.48123 9.48226 6.48123 9.45678 6.45486Z" fill="#FEFEFE"/>
<path d="M9.21276 6.5563C9.23824 6.58216 9.23824 6.58216 9.21276 6.5563Z" fill="#FEFEFE"/>
<path d="M8.10826 6.67346C8.18814 6.68918 8.26703 6.70744 8.3469 6.72519C8.34298 6.74751 8.33563 6.79163 8.3322 6.81395C8.23371 6.82206 8.17099 6.73736 8.10826 6.67346Z" fill="#FEFEFE"/>
<path d="M8.96579 6.65773C8.99127 6.68411 8.99127 6.68411 8.96579 6.65773Z" fill="#FEFEFE"/>
<path d="M8.47675 6.86112C8.50223 6.88698 8.50223 6.88698 8.47675 6.86112Z" fill="#FEFEFE"/>
<path d="M8.32975 6.90321C8.47577 6.8246 8.33759 7.0716 8.32975 6.90321Z" fill="#FEFEFE"/>
<path d="M8.23322 6.96256C8.2587 6.98893 8.2587 6.98893 8.23322 6.96256Z" fill="#FEFEFE"/>
<path d="M8.08523 7.00465C8.23028 6.92452 8.09405 7.17355 8.08523 7.00465Z" fill="#FEFEFE"/>
<path d="M7.98772 7.06349C8.0132 7.08986 8.0132 7.08986 7.98772 7.06349Z" fill="#FEFEFE"/>
<path d="M7.84121 7.10609C7.98674 7.02646 7.84954 7.27448 7.84121 7.10609Z" fill="#FEFEFE"/>
<path d="M7.74369 7.16492C7.76966 7.1913 7.76966 7.1913 7.74369 7.16492Z" fill="#FEFEFE"/>
<path d="M7.49771 7.26687C7.52319 7.29274 7.52319 7.29274 7.49771 7.26687Z" fill="#FEFEFE"/>
<path d="M6.31628 7.36577C6.39909 7.37034 6.48191 7.37744 6.56472 7.38657C6.56717 7.42917 6.5706 7.47228 6.57354 7.5159C6.51033 7.49257 6.44565 7.47279 6.38047 7.45656C6.3643 7.43374 6.33245 7.38809 6.31628 7.36577Z" fill="#FEFEFE"/>
<path d="M9.40778 7.61937C9.43326 7.64574 9.43326 7.64574 9.40778 7.61937Z" fill="#FEFEFE"/>
<path d="M8.48852 8.00889L8.46352 8.01345C8.46989 8.01193 8.48215 8.0099 8.48852 8.00889Z" fill="#FEFEFE"/>
<path d="M8.23126 8.12656C8.25674 8.15293 8.25674 8.15293 8.23126 8.12656Z" fill="#FEFEFE"/>
<path d="M8.2293 8.37407C8.3273 8.37863 8.41256 8.42682 8.46156 8.51608C8.3959 8.55513 8.32338 8.56528 8.25037 8.54499C8.24302 8.48768 8.23616 8.43087 8.2293 8.37407Z" fill="#FEFEFE"/>
<path d="M7.9838 8.4755C8.08572 8.475 8.17638 8.52572 8.22293 8.62208C8.15237 8.65657 8.07641 8.66874 8.00046 8.64744C7.99458 8.59013 7.9887 8.53231 7.9838 8.4755Z" fill="#FEFEFE"/>
<path d="M7.81867 8.75446C7.86277 8.70678 7.7971 8.60636 7.73928 8.64491C7.69518 8.69157 7.76133 8.7925 7.81867 8.75446Z" fill="#FEFEFE"/>
<path d="M7.96224 8.75091C8.00928 8.70374 7.94117 8.60433 7.88384 8.64186C7.83827 8.68853 7.9054 8.78692 7.96224 8.75091Z" fill="#FEFEFE"/>
<path d="M7.08021 9.11913C7.16107 8.88176 7.37128 8.70932 7.61482 8.69258C7.67607 8.72302 7.72654 8.78185 7.7236 8.8559C7.49281 8.90662 7.31934 9.10848 7.08021 9.11913Z" fill="#FEFEFE"/>
<path d="M7.00867 9.14246C7.03464 9.16884 7.03464 9.16884 7.00867 9.14246Z" fill="#FEFEFE"/>
<path d="M5.93995 9.37881C6.08009 9.41787 6.22563 9.42852 6.3692 9.4488C5.81598 9.7237 5.24315 9.956 4.67816 10.2045C4.5978 10.1563 4.51254 10.1188 4.42777 10.0813C4.43022 10.0696 4.43512 10.0473 4.43757 10.0356C4.69483 9.96614 4.9315 9.83985 5.17651 9.73587C5.43328 9.62175 5.69592 9.52133 5.93995 9.37881Z" fill="#FEFEFE"/>
<path d="M8.60122 10.8263L8.58456 10.8344C8.58897 10.8324 8.5973 10.8284 8.60122 10.8263Z" fill="#FEFEFE"/>
<path d="M3.80937 12.0269C3.95735 12.0152 3.88434 11.8022 3.75792 11.8387C3.76772 11.9031 3.78487 11.966 3.80937 12.0269Z" fill="#FEFEFE"/>
<path d="M17.0447 4.52043C17.1059 4.48392 17.1681 4.44993 17.2318 4.41849C17.2544 4.47631 17.2691 4.53717 17.2735 4.59956C17.2299 4.61731 17.1868 4.63506 17.1436 4.65281C17.1103 4.60868 17.077 4.56456 17.0447 4.52043Z" fill="#76828C"/>
<path d="M16.268 4.82779C16.3665 4.85873 16.4655 4.84504 16.5458 4.77555C16.5561 4.89525 16.4718 4.96879 16.3709 5.00125C16.3366 4.94292 16.3023 4.8851 16.268 4.82779Z" fill="#76828C"/>
<path d="M12.4914 4.87851C12.5498 4.85569 12.611 4.83946 12.6688 4.87293C12.6296 4.95104 12.5743 5.0256 12.4807 5.02915C12.4836 4.99161 12.489 4.91604 12.4914 4.87851Z" fill="#76828C"/>
<path d="M16.1543 5.12957C16.1166 5.02306 16.0186 4.98198 15.9176 4.96828C15.9627 5.06769 16.0494 5.12095 16.1543 5.12957Z" fill="#76828C"/>
<path d="M15.7054 5.07682C15.555 5.13413 15.6912 5.30303 15.8074 5.28325C15.7785 5.21174 15.7442 5.14276 15.7054 5.07682Z" fill="#76828C"/>
<path d="M15.4751 5.17674C15.5251 5.18536 15.5712 5.20514 15.6133 5.23507C15.6123 5.26955 15.6099 5.33904 15.6089 5.37404C15.5624 5.35933 15.5168 5.34158 15.4727 5.32129C15.4737 5.28528 15.4746 5.21275 15.4751 5.17674Z" fill="#76828C"/>
<path d="M15.2953 5.24166C15.4011 5.23253 15.4354 5.34411 15.4683 5.42577C15.4345 5.42374 15.3668 5.41968 15.333 5.41816C15.3159 5.35983 15.3031 5.30151 15.2953 5.24166Z" fill="#76828C"/>
<path d="M15.1297 5.3294C15.1929 5.34259 15.2497 5.37505 15.2929 5.42577C15.2723 5.45164 15.2316 5.50337 15.211 5.52873C15.1601 5.47446 15.1444 5.40041 15.1297 5.3294Z" fill="#76828C"/>
<path d="M14.9381 5.42323C15.0209 5.44251 15.1708 5.44808 15.1213 5.57691C15.0895 5.57438 15.0253 5.5688 14.9935 5.56626C14.9743 5.51859 14.9562 5.4704 14.9381 5.42323Z" fill="#76828C"/>
<path d="M14.7352 5.53126C14.8014 5.47801 14.8719 5.48257 14.9391 5.53279C14.919 5.583 14.8989 5.63321 14.8788 5.68393C14.817 5.64741 14.7685 5.59568 14.7352 5.53126Z" fill="#76828C"/>
<path d="M12.3395 6.54209C12.4468 6.55883 12.4905 6.65875 12.5297 6.75106C12.4963 6.74649 12.4307 6.73686 12.3974 6.73229C12.3773 6.66889 12.3577 6.60549 12.3395 6.54209Z" fill="#76828C"/>
<path d="M12.1367 6.64201C12.1945 6.64404 12.2508 6.6552 12.3047 6.67599C12.3547 6.7328 12.3214 6.84134 12.2415 6.83982C12.1773 6.79417 12.1573 6.71454 12.1367 6.64201Z" fill="#76828C"/>
<path d="M11.9093 6.74751C11.948 6.73787 11.9867 6.72823 12.0254 6.7186C12.0842 6.76475 12.1421 6.81243 12.1989 6.86264C12.1347 6.89459 12.0676 6.91995 11.999 6.93923C11.9681 6.87583 11.9382 6.81192 11.9093 6.74751Z" fill="#76828C"/>
<path d="M16.0823 6.76323C16.1896 6.67752 16.3557 6.69932 16.4052 6.84032C16.3371 6.86568 16.269 6.89155 16.2018 6.91944C16.1269 7.1 15.8774 7.01175 15.7549 7.14109C15.5521 7.34853 15.2561 7.39265 15.0224 7.54836C14.9503 7.60263 14.8592 7.6077 14.7754 7.62901C14.7186 7.74059 14.5902 7.76189 14.4873 7.80601C14.476 7.73298 14.4657 7.65944 14.4564 7.5864C14.6754 7.52249 14.8621 7.3815 15.0704 7.29122C15.4217 7.14616 15.7598 6.96712 16.0823 6.76323Z" fill="#76828C"/>
<path d="M11.7069 6.85047C11.7505 6.83424 11.7941 6.81902 11.8378 6.8033C11.8882 6.85605 11.9475 6.90981 11.9436 6.99197C11.8975 7.0082 11.8515 7.02443 11.8059 7.04117C11.7716 6.97777 11.7388 6.91437 11.7069 6.85047Z" fill="#76828C"/>
<path d="M11.7574 7.04979C11.7118 6.94278 11.5928 6.8459 11.4938 6.94835C11.5374 7.05639 11.6579 7.16137 11.7574 7.04979Z" fill="#76828C"/>
<path d="M11.5609 7.15174C11.5129 7.04421 11.4168 6.9798 11.3017 6.994C11.2973 7.13044 11.4477 7.27194 11.5609 7.15174Z" fill="#76828C"/>
<path d="M11.0675 7.08834C11.1802 7.08733 11.2845 7.12283 11.3615 7.21159C11.2757 7.3039 11.1566 7.36121 11.0312 7.34903C11.0253 7.31302 11.0136 7.24202 11.0077 7.20651C11.063 7.23847 11.1184 7.27093 11.1738 7.30339C11.1375 7.23187 11.1018 7.16036 11.0675 7.08834Z" fill="#76828C"/>
<path d="M7.59718 7.20905C7.74222 7.12892 7.606 7.37744 7.59718 7.20905Z" fill="#76828C"/>
<path d="M10.6637 7.29984C10.7666 7.19079 10.9219 7.31607 10.9151 7.44591C10.8661 7.4662 10.8176 7.48699 10.7695 7.50779C10.7323 7.43931 10.697 7.36983 10.6637 7.29984Z" fill="#76828C"/>
<path d="M7.35168 7.311C7.49673 7.23035 7.36099 7.47989 7.35168 7.311Z" fill="#76828C"/>
<path d="M10.4785 7.49308C10.4447 7.41193 10.5275 7.31759 10.6073 7.3607C10.6887 7.3891 10.6632 7.49409 10.6769 7.56155C10.6088 7.55039 10.5113 7.57727 10.4785 7.49308Z" fill="#76828C"/>
<path d="M10.2261 7.5017C10.33 7.39164 10.4814 7.52402 10.475 7.65132C10.4295 7.66755 10.3839 7.6848 10.3388 7.70204C10.3006 7.6356 10.2629 7.56865 10.2261 7.5017Z" fill="#76828C"/>
<path d="M10.0257 7.54785C10.1276 7.54583 10.255 7.58843 10.2756 7.70661C10.2325 7.77051 10.159 7.76595 10.0923 7.76341C10.0664 7.6924 10.0433 7.62089 10.0257 7.54785Z" fill="#76828C"/>
<path d="M9.83164 7.65284C9.89927 7.66197 9.99433 7.63763 10.0276 7.72233C10.0644 7.80754 9.9762 7.89021 9.89584 7.86231C9.8189 7.81869 9.83605 7.72791 9.83164 7.65284Z" fill="#76828C"/>
<path d="M9.58566 7.75327C9.70669 7.73399 9.79734 7.80855 9.85026 7.91455C9.79195 7.95868 9.7209 7.96781 9.65083 7.96933C9.62486 7.89832 9.60232 7.8263 9.58566 7.75327Z" fill="#76828C"/>
<path d="M9.34016 7.85623C9.40435 7.85521 9.46805 7.85775 9.53175 7.86434C9.60869 7.90593 9.61849 8.02309 9.53616 8.06519C9.42493 8.07787 9.34212 7.96223 9.34016 7.85623Z" fill="#76828C"/>
<path d="M9.10005 7.95056C9.22648 7.94296 9.35535 7.98302 9.4068 8.11438C9.35143 8.14634 9.2843 8.19554 9.22011 8.15547C9.16816 8.09511 9.13582 8.02106 9.10005 7.95056Z" fill="#76828C"/>
<path d="M8.99274 8.19554C9.03733 8.14837 8.97265 8.04693 8.91483 8.08548C8.86975 8.13163 8.93443 8.23358 8.99274 8.19554Z" fill="#76828C"/>
<path d="M8.65855 8.17221C8.7051 8.15445 8.75165 8.13721 8.7982 8.11997C8.85945 8.17677 8.91483 8.24068 8.95893 8.31422C8.83593 8.40957 8.65022 8.34516 8.65855 8.17221Z" fill="#76828C"/>
<path d="M8.41207 8.2564C8.53997 8.24473 8.66982 8.2843 8.7198 8.41819C8.66198 8.46333 8.59142 8.47449 8.52135 8.47855C8.47724 8.40856 8.44 8.33451 8.41207 8.2564Z" fill="#76828C"/>
</svg>
