<svg width="118" height="131" viewBox="0 0 118 131" fill="none" xmlns="http://www.w3.org/2000/svg">
<path d="M87.5416 11.1333C91.7149 5.48001 99.4482 4.85333 104.328 0C110.502 2.24 114.408 7.41331 117.462 12.9733C116.622 13.1866 114.928 13.64 114.088 13.8667C113.608 16.4133 113.088 18.96 112.542 21.5067C110.822 22.1733 109.102 22.8267 107.382 23.4667C111.102 35.2667 114.208 48.2267 110.155 60.36C105.475 73.8133 96.6349 85.6 86.2216 95.1866C81.5549 99.7066 75.2883 101.893 70.2216 105.8C69.6616 112.627 69.1683 119.773 70.9283 126.48C75.5283 127.653 80.3816 127.84 84.7549 129.827C74.2216 130.587 63.6216 130.32 53.0749 130C51.7416 122.52 52.6083 114.587 50.1683 107.373C42.5549 104.293 33.8083 102.547 28.3149 95.84C23.8349 91.36 25.5416 83.68 20.4883 79.6933C16.9949 76.68 14.4616 72.7867 12.7416 68.5333C10.3549 62.4933 4.94161 58.36 2.31494 52.4533C-0.365058 45.7867 -0.791743 38.2 1.42159 31.3333C15.2616 30.4667 25.3549 42.4133 38.8749 42.8133C46.9549 43.2666 55.1149 42.8 63.1283 41.6667C68.7016 40.7467 75.0749 38.9867 77.8616 33.5467C81.5149 26.2667 82.3549 17.6533 87.5416 11.1333ZM57.8083 109.64C57.3416 115.213 57.5683 120.813 58.1549 126.373C60.3683 126.867 62.5949 127.347 64.8216 127.84C64.6349 121.267 64.0616 114.72 63.1683 108.227C61.3816 108.693 59.5949 109.16 57.8083 109.64Z" fill="white"/>
</svg>
