<svg width="191" height="146" viewBox="0 0 191 146" fill="none" xmlns="http://www.w3.org/2000/svg">
<path d="M170.667 2.99734C174.253 2.22401 177.467 -1.64266 181.213 0.79734C180.84 3.90401 178.973 7.15734 180.4 10.1973C184.333 19.544 188.76 28.8907 190.707 38.904C191.613 43.584 185.2 47.7307 181.84 43.7573C176.933 38.3573 171.427 33.4107 164.853 30.1307C162.853 28.7973 161.68 31.4373 160.52 32.5973C154.44 40.704 151.6 50.664 149.573 60.464C148.24 67.064 145.6 73.424 141.2 78.5973C137.387 82.6773 137.08 88.464 136.36 93.704C135.027 106.011 134.613 118.437 134.973 130.811C134.96 135.931 136.987 140.691 138.68 145.424C135.867 145.291 133.053 145.131 130.253 144.917C129.04 131.664 128.28 118.357 126.493 105.171C124.627 118.411 121.253 132.237 125.76 145.317C123.053 145.277 120.36 145.237 117.667 145.197C117.52 125.144 117.733 105.104 118.547 85.064C101.6 85.1707 84.4667 84.424 68.0933 79.6373C63.9733 85.784 59.44 91.6907 53.9467 96.6773C49.9867 100.237 46.8133 104.784 45.8533 110.104C43.5333 121.677 41.92 133.917 45.4533 145.411C42.4667 145.331 39.4667 145.251 36.4667 145.144C36.68 129.477 38.2933 113.837 37.4533 98.144C33.3467 101.811 30.68 106.757 29.44 112.091C26.88 122.891 24.1733 134.291 27.2 145.291C24.24 145.277 21.28 145.264 18.3333 145.251C18.6267 132.744 21.7733 120.504 21.7467 107.957C21.1867 97.0507 29.6933 88.3307 29.5733 77.504C29.4533 69.8773 27.6 62.3173 28.1867 54.664C28.5067 49.984 30.4 45.6373 31.72 41.184C24.72 48.8373 23.7467 59.5573 21.1467 69.1307C17.6 83.5707 11.8 98.504 0 108.197C1.76 100.997 4.89334 94.224 6.68 87.024C9.70667 75.064 11.5467 62.6773 16.6133 51.3307C19.44 45.3173 23.7733 39.2507 30.4 37.2107C35.3067 35.8107 40.36 34.9573 45.2 33.304C57.52 29.4373 70.2533 33.6507 82.6533 34.7973C91.0133 35.4107 99.72 35.9573 107.787 33.144C116.72 30.1307 124.28 24.144 131.173 17.864C137.827 11.7707 144.88 5.25067 154 3.30401C159.48 1.91734 165.12 2.91734 170.667 2.99734Z" fill="white"/>
</svg>
