<svg width="95" height="146" viewBox="0 0 95 146" fill="none" xmlns="http://www.w3.org/2000/svg">
<path d="M40.3318 0.556018C41.8871 0.0578138 43.6202 -0.248774 45.2124 0.266092C48.5176 1.21585 51.8379 2.11062 55.1498 3.03204C55.7253 3.17367 56.2018 3.55857 56.4988 4.06511C56.6598 4.54498 56.7857 5.03819 56.8796 5.53639C56.9434 5.97961 56.9685 6.43116 56.9333 6.88105C56.6028 6.84772 56.2756 6.81273 55.9468 6.7944C56.138 6.76108 56.331 6.71942 56.5239 6.67943C54.7623 6.06626 52.9117 5.77133 51.1299 5.22647C48.9907 4.71494 46.9019 3.99013 44.7175 3.68854C44.5614 2.77878 44.5833 1.72738 43.9692 0.984239C42.8216 0.541021 41.5314 0.777627 40.3318 0.556018Z" fill="#77797A"/>
<path d="M39.3453 4.32671C39.2262 3.03871 39.2614 1.46745 40.3318 0.556018C41.5314 0.777627 42.8216 0.541021 43.9692 0.984239C44.5833 1.72738 44.5614 2.77878 44.7175 3.68854C42.9625 3.75019 41.2193 3.96847 39.4996 4.31338L39.3453 4.32671Z" fill="#5D5E5E"/>
<path d="M39.4996 4.31338C41.2193 3.96847 42.9625 3.75019 44.7175 3.68854C44.0028 4.09177 43.3686 4.61997 42.6555 5.02653C42.1706 4.90822 41.6807 4.80825 41.1942 4.70494C40.6271 4.57664 40.0684 4.42002 39.4996 4.31338Z" fill="#9B9E9B"/>
<path d="M44.7175 3.68854C46.9019 3.99013 48.9907 4.71494 51.1299 5.22647C52.9117 5.77133 54.7623 6.06626 56.5239 6.67943C56.331 6.71942 56.138 6.76108 55.9468 6.7944C54.0475 7.01434 52.0963 7.44257 50.2004 6.96769C47.6804 6.33952 45.1604 5.71302 42.6555 5.02653C43.3686 4.61997 44.0028 4.09177 44.7175 3.68854Z" fill="#B2B3AF"/>
<path d="M56.4988 4.06511C59.7285 4.98987 62.9783 5.84465 66.2164 6.73775C67.1727 6.99102 68.0804 7.47589 68.7297 8.22903C70.1524 9.85694 70.9259 11.9364 71.3856 14.0159C71.8251 12.5979 72.3872 11.1266 73.5314 10.1135C74.1321 9.56368 74.9693 9.26543 75.7847 9.40872C77.0078 9.60867 78.1772 10.0419 79.3768 10.3418C80.979 10.745 82.5444 11.3016 84.1836 11.5448C84.4369 11.8831 84.702 12.2163 85.0141 12.5063L84.8194 12.5412C82.2474 11.8164 79.6536 11.1633 77.0883 10.4068C76.3115 10.1652 75.4374 10.1252 74.721 10.5601C73.4157 11.6065 72.7009 13.1861 72.3603 14.784C71.7782 17.1567 71.9745 19.6144 71.9443 22.0321C71.9577 27.0891 71.9191 32.1462 71.9627 37.2015C72.1859 39.0277 71.9946 40.8606 72.0214 42.6934C72.0584 45.5794 71.9543 48.4669 72.0986 51.3495C72.1657 56.0167 72.0214 60.6871 72.1926 65.3526C72.1993 69.0216 72.1808 72.6907 72.1976 76.3597C72.4124 81.52 72.1506 86.687 72.357 91.8474C72.4023 96.4562 72.2748 101.068 72.4476 105.674C72.4493 109.118 72.4459 112.562 72.4459 116.006C72.5214 118.172 72.5499 120.338 72.5281 122.506C72.555 123.757 72.3838 125.044 72.7378 126.267C72.1389 126.362 71.5349 126.428 70.9292 126.437C70.8755 126.42 70.7681 126.39 70.7145 126.373C70.9242 124.146 70.7715 121.906 70.8235 119.673C70.8269 112.675 70.8286 105.677 70.8269 98.6789C70.8453 96.7744 70.7631 94.8682 70.9091 92.9671C71.0399 91.3192 70.9879 89.6663 70.9863 88.015C70.9544 79.6289 71.0148 71.2427 70.9946 62.8549C71.0148 58.0345 70.9493 53.214 71.0416 48.3953C71.0198 45.8476 70.9359 43.2999 71.0181 40.7539C71.0483 39.8858 70.9124 39.0244 70.8319 38.1629C70.8822 37.5064 70.9913 36.8549 71.0097 36.1951C70.9745 31.3081 71.0081 26.4193 70.9913 21.5322C70.9527 19.2062 71.1909 16.8618 70.8 14.5524C70.4947 12.5812 69.9192 10.5668 68.6424 8.98717C68.0099 8.18738 67.0485 7.74749 66.0788 7.50422C63.8188 6.92937 61.574 6.30286 59.3308 5.67136C58.8006 5.49141 58.247 5.60971 57.7235 5.73634C57.4433 5.66136 57.1598 5.59971 56.8796 5.53639C56.7857 5.03819 56.6598 4.54498 56.4988 4.06511ZM71.6523 15.9037C71.9661 15.1322 72.1942 14.3225 72.2177 13.486C71.8084 14.2275 71.5953 15.0539 71.6523 15.9037Z" fill="#903D31"/>
<path d="M39.3453 4.32671L39.4996 4.31338C40.0684 4.42002 40.6271 4.57664 41.1942 4.70494C41.5784 5.19981 41.971 5.74634 42.5817 5.98294C43.3535 6.29286 44.1873 6.39617 44.9893 6.60945C48.7877 7.60253 52.6533 8.30734 56.4836 9.15379C56.4098 9.35041 56.3276 9.54536 56.237 9.73531C54.5307 9.18878 52.7523 8.93052 51.0125 8.51562C49.1619 8.08074 47.3079 7.65918 45.4674 7.1843C43.6823 6.71442 41.8217 6.9377 40.0013 6.94603C39.7429 6.08292 39.5433 5.20481 39.3453 4.32671Z" fill="#616260"/>
<path d="M41.1942 4.70494C41.6807 4.80825 42.1706 4.90822 42.6555 5.02653C45.1604 5.71302 47.6804 6.33952 50.2004 6.96769C52.0963 7.44257 54.0475 7.01434 55.9468 6.7944C56.2756 6.81273 56.6028 6.84772 56.9333 6.88105C56.8276 7.64585 56.6917 8.40898 56.4836 9.15379C52.6533 8.30734 48.7877 7.60253 44.9893 6.60945C44.1873 6.39617 43.3535 6.29286 42.5817 5.98294C41.971 5.74634 41.5784 5.19981 41.1942 4.70494Z" fill="#71726F"/>
<path d="M57.7235 5.73634C58.247 5.60971 58.8006 5.49141 59.3308 5.67136C61.574 6.30286 63.8188 6.92937 66.0788 7.50422C67.0485 7.74749 68.0099 8.18738 68.6424 8.98717C69.9192 10.5668 70.4947 12.5812 70.8 14.5524C71.1909 16.8618 70.9527 19.2062 70.9913 21.5322C71.0081 26.4193 70.9745 31.3081 71.0097 36.1951C70.9913 36.8549 70.8822 37.5064 70.8319 38.1629C70.8755 33.2875 70.8336 28.4088 70.8487 23.5317C70.8285 20.9374 70.9493 18.3264 70.5869 15.7487C70.2262 13.5193 69.5853 11.2532 68.1861 9.43372C67.666 8.7439 66.921 8.2357 66.0838 8.00909C63.3021 7.23262 60.4851 6.58279 57.7235 5.73634Z" fill="#55241A"/>
<path d="M40.0013 6.94603C41.8217 6.9377 43.6823 6.71442 45.4674 7.1843C47.3079 7.65918 49.1619 8.08074 51.0125 8.51562C52.7523 8.93052 54.5307 9.18878 56.237 9.73531C55.6381 10.1752 54.9099 10.3968 54.1734 10.4584C53.009 10.6067 51.8262 10.4801 50.697 10.1769C48.2525 9.58534 45.7963 9.03382 43.3451 8.47397C42.1555 8.19737 40.7194 8.07407 40.0013 6.94603Z" fill="#403F30"/>
<path d="M74.721 10.5601C75.4374 10.1252 76.3115 10.1652 77.0883 10.4068C79.6536 11.1633 82.2474 11.8164 84.8194 12.5412C84.7238 12.5612 84.5325 12.6012 84.4386 12.6212C84.1416 12.6512 83.8446 12.6612 83.551 12.6512C82.182 12.308 80.8314 11.8947 79.4623 11.5582C77.8919 11.1833 76.3585 10.5601 74.721 10.5601Z" fill="#5A291F"/>
<path d="M84.1836 11.5448C87.0274 11.6415 89.695 12.6862 92.4264 13.3677C93.1412 13.591 93.9834 13.6926 94.5052 14.2808C94.9464 14.9556 95.0119 15.8087 94.9984 16.5952C94.5119 16.6119 94.027 16.6252 93.5438 16.6602C93.8542 16.6169 94.1646 16.5602 94.4767 16.5036C92.9834 15.972 91.4198 15.6871 89.9064 15.2206C89.1497 14.9923 88.3797 14.7923 87.5894 14.7174C87.5357 13.7526 87.1801 12.8662 86.6885 12.0464C86.3965 12.4596 86.1113 12.8762 85.8244 13.2911C85.5526 13.0295 85.2842 12.7679 85.0141 12.5063C84.702 12.2163 84.4369 11.8831 84.1836 11.5448Z" fill="#797A7B"/>
<path d="M85.8244 13.2911C86.1113 12.8762 86.3965 12.4596 86.6885 12.0464C87.1801 12.8662 87.5357 13.7526 87.5894 14.7174L87.4267 14.7107C86.8395 14.719 86.2539 14.7873 85.6734 14.8606C85.8043 14.6157 85.9335 14.3708 86.0694 14.1275C85.509 13.641 84.9536 13.1511 84.4386 12.6212C84.5325 12.6012 84.7238 12.5612 84.8194 12.5412L85.0141 12.5063C85.2842 12.7679 85.5526 13.0295 85.8244 13.2911Z" fill="#636464"/>
<path d="M83.551 12.6512C83.8446 12.6612 84.1416 12.6512 84.4386 12.6212C84.9536 13.1511 85.509 13.641 86.0694 14.1275C85.9335 14.3708 85.8043 14.6157 85.6734 14.8606C84.8983 14.9506 84.1248 15.0606 83.3464 15.0789C83.2742 15.0639 83.1316 15.0339 83.0595 15.0189C83.1064 14.2108 83.3279 13.426 83.551 12.6512Z" fill="#343532"/>
<path d="M70.4796 128.614C70.4645 128.693 70.4343 128.851 70.4209 128.929C70.3571 130.341 70.1138 131.742 70.1138 133.158C70.087 137.411 70.1507 141.664 70.092 145.917L69.9461 145.863C69.889 143.077 69.9544 140.288 69.9309 137.502C69.9276 134.536 69.842 131.529 70.4796 128.614Z" fill="#343532"/>
<path d="M72.2177 13.486C71.8084 14.2275 71.5953 15.0539 71.6523 15.9037C71.9661 15.1322 72.1942 14.3225 72.2177 13.486Z" fill="#B4756F"/>
<path d="M85.6734 14.8606C86.2539 14.7873 86.8395 14.719 87.4267 14.7107C87.2824 15.1572 87.1448 15.6071 87.0056 16.0553C86.1986 15.8521 85.3865 15.6654 84.5879 15.4338C84.1735 15.3139 83.7624 15.1856 83.3464 15.0789C84.1248 15.0606 84.8983 14.9506 85.6734 14.8606Z" fill="#9FA29E"/>
<path d="M87.4267 14.7107L87.5894 14.7174C88.3797 14.7923 89.1497 14.9923 89.9064 15.2206C91.4198 15.6871 92.9834 15.972 94.4767 16.5036C94.1646 16.5602 93.8542 16.6169 93.5438 16.6602C92.5556 16.7602 91.564 16.8618 90.5708 16.8218C89.346 16.7718 88.185 16.3436 87.0056 16.0553C87.1448 15.6071 87.2824 15.1572 87.4267 14.7107Z" fill="#B4B5B0"/>
<path d="M83.0595 15.0189C83.1316 15.0339 83.2742 15.0639 83.3464 15.0789C83.7624 15.1856 84.1735 15.3139 84.5879 15.4338C84.4486 15.8137 84.301 16.1886 84.1634 16.5685C85.7271 16.7918 87.3076 16.9534 88.8293 17.3983C90.6698 17.9248 92.6194 18.0332 94.3995 18.773L94.2787 18.8446C92.2251 18.578 90.2235 18.0182 88.2203 17.5116C86.7187 17.1067 85.1449 17.1401 83.6081 17.285C83.3732 16.5435 83.2004 15.7837 83.0595 15.0189Z" fill="#595B58"/>
<path d="M84.5879 15.4338C85.3865 15.6654 86.1986 15.8521 87.0056 16.0553C88.185 16.3436 89.346 16.7718 90.5708 16.8218C91.564 16.8618 92.5556 16.7602 93.5438 16.6602C94.027 16.6252 94.5119 16.6119 94.9984 16.5952C94.8323 17.3283 94.6511 18.0615 94.3995 18.773C92.6194 18.0332 90.6698 17.9248 88.8293 17.3983C87.3076 16.9534 85.7271 16.7918 84.1634 16.5685C84.301 16.1886 84.4486 15.8137 84.5879 15.4338Z" fill="#70706E"/>
<path d="M83.6081 17.285C85.1449 17.1401 86.7187 17.1067 88.2203 17.5116C90.2235 18.0182 92.2251 18.578 94.2787 18.8446C93.8156 19.1329 93.3156 19.3978 92.7586 19.4261C90.8124 19.6211 88.9484 18.9096 87.071 18.5347C85.8848 18.2398 84.5309 18.1814 83.6081 17.285Z" fill="#403E2F"/>
<path d="M70.7883 42.5285C70.8252 41.0722 70.6138 39.6126 70.8319 38.1629C70.9124 39.0244 71.0483 39.8858 71.0181 40.7539C70.9359 43.2999 71.0198 45.8476 71.0416 48.3953C70.9493 53.214 71.0148 58.0345 70.9946 62.8549C71.0148 71.2427 70.9544 79.6289 70.9863 88.015C70.9879 89.6663 71.0399 91.3192 70.9091 92.9671C70.7631 94.8682 70.8453 96.7744 70.8269 98.6789C70.8286 105.677 70.8269 112.675 70.8235 119.673C70.7715 121.906 70.9242 124.146 70.7145 126.373C70.4947 126.302 70.2782 126.222 70.0652 126.145C70.2547 125.224 70.2682 124.279 70.2715 123.343C70.2715 119.785 70.2631 116.228 70.2699 112.67C70.493 107.343 70.2262 102.008 70.4326 96.6794C70.4443 93.1237 70.4309 89.5679 70.436 86.0122C70.6155 81.3517 70.4812 76.6846 70.5282 72.0192C70.7296 66.8572 70.4796 61.6852 70.6792 56.5215C70.7346 51.8577 70.5752 47.1889 70.7883 42.5285Z" fill="#622D24"/>
<path d="M33.859 106.037C34.9562 105.704 36.0787 105.281 37.2464 105.434C37.8252 105.459 38.3286 105.747 38.8503 105.96C37.9326 106.397 36.9478 106.664 35.9679 106.923C34.9898 107.18 34.0452 107.62 33.0184 107.642C32.0923 107.668 31.1695 107.548 30.2518 107.447C31.245 106.539 32.6292 106.43 33.859 106.037Z" fill="black"/>
<path d="M6.60704 113.772C7.71604 113.472 8.86867 113.39 10.0095 113.298C9.97599 113.653 10.0431 114.045 9.87365 114.372C9.47266 114.64 8.98779 114.74 8.53144 114.875C7.39559 115.166 6.28491 115.541 5.1541 115.848C4.18099 116.108 3.22131 116.501 2.19955 116.488C1.4563 116.471 0.731506 116.288 0 116.171C0.00335553 116.053 0.0100669 115.816 0.0134224 115.698C2.18948 114.985 4.41756 114.44 6.60704 113.772Z" fill="black"/>
<path d="M28.9616 115.993C30.4498 116.681 31.7517 117.684 33.1292 118.559C36.1793 120.58 39.1876 122.661 42.2562 124.657C44.3198 125.98 46.3046 127.421 48.3616 128.758C52.0208 131.167 55.6464 133.625 59.2604 136.099C60.8089 137.196 62.6847 137.652 64.3507 138.529C65.8456 139.222 67.1291 140.271 68.5803 141.041C68.5904 142.396 68.6323 143.754 68.525 145.107C67.3052 144.182 66.005 143.369 64.7718 142.463C63.0722 141.231 61.0958 140.253 59.8878 138.475C59.1765 137.414 58.1983 136.571 57.1162 135.901C50.64 131.397 44.1991 126.84 37.7195 122.339C36.1072 121.156 34.4479 120.037 32.8104 118.89C31.5319 117.919 30.136 117.096 28.9616 115.993Z" fill="black"/>
<path d="M68.5736 132.995C68.7112 130.651 69.3622 128.375 70.0652 126.145C69.8621 127.801 69.3236 129.399 69.1994 131.067C68.9511 133.205 69.1491 135.356 69.1273 137.502C69.1189 140.171 69.2095 142.841 69.1004 145.51C68.9025 145.38 68.7112 145.245 68.525 145.107C68.6323 143.754 68.5904 142.396 68.5803 141.041C68.5988 138.359 68.5904 135.676 68.5736 132.995Z" fill="#5C4C14"/>
<path d="M70.0652 126.145C70.2782 126.222 70.4947 126.302 70.7145 126.373C70.7681 126.39 70.8755 126.42 70.9292 126.437C70.8738 126.727 70.8017 127.015 70.748 127.307C70.6322 127.845 70.4997 128.381 70.4209 128.929C70.4343 128.851 70.4645 128.693 70.4796 128.614C69.842 131.529 69.9276 134.536 69.9309 137.502C69.9544 140.288 69.889 143.077 69.9461 145.863C69.6575 145.755 69.3739 145.642 69.1004 145.51C69.2095 142.841 69.1189 140.171 69.1273 137.502C69.1491 135.356 68.9511 133.205 69.1994 131.067C69.3236 129.399 69.8621 127.801 70.0652 126.145Z" fill="#8B7120"/>
<path d="M70.9292 126.437C71.5349 126.428 72.1389 126.362 72.7378 126.267C73.2814 127.968 73.7697 129.691 74.0314 131.46C74.2965 132.96 74.1874 134.488 74.2042 136.003C74.2042 138.729 74.1975 141.453 74.2126 144.177C74.1774 144.632 74.2545 145.239 73.7915 145.512C73.2596 145.83 72.6288 145.915 72.0265 146H71.2849C71.2597 143.822 71.347 141.643 71.1742 139.47C71.0064 137.354 71.2463 135.226 70.9997 133.115C70.7564 131.189 70.7329 129.244 70.748 127.307C70.8017 127.015 70.8738 126.727 70.9292 126.437Z" fill="#CBA330"/>
<path d="M70.4209 128.929C70.4997 128.381 70.6322 127.845 70.748 127.307C70.7329 129.244 70.7564 131.189 70.9997 133.115C71.2463 135.226 71.0064 137.354 71.1742 139.47C71.347 141.643 71.2597 143.822 71.2849 146L70.6943 146C70.4913 145.977 70.29 145.948 70.092 145.917C70.1507 141.664 70.087 137.411 70.1138 133.158C70.1138 131.742 70.3571 130.341 70.4209 128.929Z" fill="#B6932A"/>
</svg>
