<svg width="841" height="394" viewBox="0 0 841 394" fill="none" xmlns="http://www.w3.org/2000/svg">
<g opacity="0.93">
<path d="M340.04 13.7733C361.093 4.11995 384.453 1.45326 407.347 0.41326C417.56 0.466593 428.387 -0.586698 437.96 3.70664C446.147 8.31997 450.507 17.5066 453 26.2132C454.133 31.6132 452.987 37.0933 450.08 41.7466C448.933 40.0933 447.813 38.4533 446.693 36.8266C443.693 37.6399 440.707 38.44 437.733 39.28C427.64 42.2 417.56 45.2 407.427 48.0266C411.96 53.2533 416.24 58.7199 419.987 64.5466C425.093 62.8666 430.12 60.96 435.173 59.12C439.707 56.7466 444.453 58.7599 448.64 60.8399C447.827 62.6666 447.027 64.4933 446.227 66.3333C432.093 69.5599 418.2 73.7999 404.227 77.6799C400.667 77.0799 400.427 72.9466 399.28 70.2533C403.973 68.7866 408.853 67.6666 413.173 65.28C414.373 64.7066 415.027 62.9466 414.413 61.7733C412.413 56.72 407.24 54.2799 402.867 51.6533C401.827 54.3466 400.813 57.0666 399.787 59.7733C398.147 56.9733 396.56 54.1599 394.76 51.4799C386.187 49.3599 377.413 51.1333 368.76 51.5066C361.747 51.7999 354.76 52.4132 347.8 53.2266C347.64 54.0399 347.293 55.6799 347.133 56.4933C345.68 63.1866 345.12 70.0399 344.987 76.8932C357.08 76.0266 369.28 75.0666 381.067 72.0133C381.52 71.7866 382.453 71.3333 382.907 71.1066C385.733 72.6666 388.573 74.2266 391.427 75.7866C391.373 76.7066 391.28 78.5466 391.227 79.4666C379.827 81.7999 368.2 82.3733 356.68 83.8399C351.653 84.4666 346.587 84.0799 341.587 83.4933C341.48 70.9999 337.373 58.8799 338.107 46.3333C338.587 36.9733 337.52 27.6266 334.813 18.6666C335.84 16.4133 337.853 14.8 340.04 13.7733ZM409.96 8.39991C389.68 9.49325 369.427 13.5866 350.827 21.8932C348.293 22.8666 346.747 25.1866 345.16 27.2533C355.56 27.0399 366 27.68 376.267 29.4533C383.36 30.7333 388.8 36.04 395.627 38.0266C398.973 38.2933 402.24 37.1599 405.467 36.3866C415.213 33.5332 425.187 31.4132 434.813 28.1332C437.187 27.1466 439.933 26.6532 441.827 24.8132C444.707 21.6399 443.187 16.9066 441.44 13.5599C439.187 9.23991 433.84 8.63996 429.533 8.02662C423.04 7.45329 416.293 6.26658 409.96 8.39991Z" fill="#47494B"/>
<path d="M409.96 8.39991C416.293 6.26658 423.04 7.45329 429.533 8.02662C433.84 8.63996 439.187 9.23991 441.44 13.5599C443.187 16.9066 444.707 21.6399 441.827 24.8132C439.933 26.6532 437.187 27.1466 434.813 28.1332C433.053 22.2799 432.453 15.5199 428.08 10.8799C422.627 7.86652 415.987 8.49325 409.96 8.39991Z" fill="#222222"/>
<path d="M334.52 17.4666L334.813 18.6666C337.52 27.6266 338.587 36.9733 338.107 46.3333C337.373 58.8799 341.48 70.9999 341.587 83.4933C346.587 84.0799 351.653 84.4666 356.68 83.8399C368.2 82.3733 379.827 81.7999 391.227 79.4666C391.28 78.5466 391.373 76.7066 391.427 75.7866C388.573 74.2266 385.733 72.6666 382.907 71.1066C388.107 65.4133 391.853 58.5732 394.76 51.4799C396.56 54.1599 398.147 56.9733 399.787 59.7733C400.813 57.0666 401.827 54.3466 402.867 51.6533C407.24 54.2799 412.413 56.72 414.413 61.7733C415.027 62.9466 414.373 64.7066 413.173 65.28C408.853 67.6666 403.973 68.7866 399.28 70.2533C400.427 72.9466 400.667 77.0799 404.227 77.6799C418.613 77.5866 431.973 70.8666 446.36 70.2266C441.587 84.4666 431.893 96.3733 426.827 110.507C420.667 110 414.56 109.133 408.427 108.44C404.28 108.253 400.12 108.507 395.987 108.88C388.813 109.467 381.667 110.413 374.68 112.133C367.133 113.587 359.773 115.84 352.293 117.573C343.32 119.053 334.467 121.187 325.48 122.64C327.587 119.587 330.333 117.067 332.973 114.507C330.907 112.6 328.84 110.693 326.787 108.787C330.533 93.5466 337.093 78.3466 335.12 62.3466C334.107 51.5066 334.64 40.4665 331.733 29.8799V28.6799C331.52 24.7333 333.027 21.0266 334.52 17.4666Z" fill="#323232"/>
<path d="M453 26.2132C458 41.3199 457.653 57.9333 453.56 73.2C453.067 71.0933 452.467 69.0266 451.893 66.9733C450 66.7333 448.107 66.4799 446.227 66.3333C447.027 64.4933 447.827 62.6666 448.64 60.8399C444.453 58.7599 439.707 56.7466 435.173 59.12C435.52 57.8533 435.867 56.5866 436.2 55.3333C439.267 54.8266 442.333 54.3066 445.413 53.7999C446.68 49.6666 448.12 45.5866 450.08 41.7466C452.987 37.0933 454.133 31.6132 453 26.2132Z" fill="#363737"/>
<path d="M276.8 41.0133C293.84 32.7333 313.187 31.2666 331.733 28.6799V29.8799C331.68 32.1465 331.56 34.4266 331.453 36.7199C323.84 37.7332 316.013 38.9999 309.32 43.0532C302.413 47.2266 295.747 51.7999 288.547 55.4932C276.88 61.6132 266.267 69.4266 255.533 76.9866C254.893 76.6666 253.627 76.0266 252.987 75.7066C255.56 68.6133 257.84 61.0933 263.053 55.4132C267.547 50.5199 272.227 45.8133 276.8 41.0133Z" fill="#4C4D4E"/>
<path d="M331.733 29.8799C334.64 40.4665 334.107 51.5066 335.12 62.3466C337.093 78.3466 330.533 93.5466 326.787 108.787C328.84 110.693 330.907 112.6 332.973 114.507C330.333 117.067 327.587 119.587 325.48 122.64C325.387 123.387 325.2 124.88 325.107 125.64C326 125.573 327.8 125.427 328.707 125.36C316.413 126.267 308.16 136.947 302.24 146.653C298.013 152.987 299.32 160.72 300.8 167.693C313.387 163.8 326.813 162.227 339.853 164.467C340.573 165.813 340.973 167.6 342.413 168.427C349.68 172.4 358.867 173.213 364.653 179.64C370.08 186.307 371.947 194.947 374.4 202.987C371 203.64 367.507 203.84 364.067 203.36C366.133 207.893 367.28 212.76 368.133 217.653C364.56 218.853 360.96 219.947 357.36 221.053C356.4 216.88 355.92 212.133 352.64 209.04C349.267 205.907 344.973 204.04 340.947 201.933C342.653 199.84 344.347 197.733 346.053 195.653L344.933 195.44C344.347 195.293 343.173 195 342.573 194.853C345.787 192.933 349.053 191.147 352.467 189.613C355.013 188.347 357.787 187.4 359.987 185.533C361 183.52 361.48 181.28 362.12 179.133C358.32 179.267 354.533 179.44 350.747 179.627C350.867 177.893 351.107 176.173 351.333 174.467C342.107 171.08 332.48 168.12 322.547 168.453C315.493 168.747 308.48 169.573 301.453 170.093C300.053 168.013 298.653 165.947 297.28 163.893C294.08 167.44 290.92 171.307 286.48 173.36C278.413 177.04 269.293 177.147 261.067 180.293C255.8 182.36 252.44 187.173 248.72 191.173C254.653 190.68 260.6 190.867 266.533 191.32C251.013 193.627 235.267 193.467 219.627 194.2C220.52 189.413 221.36 184.6 222.2 179.813C220.387 179.813 218.573 179.84 216.76 179.867C208.6 196.267 201.56 213.187 193.147 229.453C187.64 241.827 182.36 254.293 176.213 266.36C172.32 274.76 169.213 283.6 163.667 291.12C155.213 285.36 146.8 277.6 145.453 266.893C143.867 253.16 149.293 239.933 150.053 226.307C151.293 226.293 152.547 226.28 153.813 226.307C157.427 226.293 161.093 227.04 164.68 226.32C168.48 224.24 171.107 220.56 174.907 218.493C177.627 217.413 180.64 217.56 183.52 217.293C180.147 212.853 175.893 207.547 178.147 201.613C181.24 200.88 182.507 204.853 184.547 206.48C188.667 203.493 192.96 200.427 195.587 195.933C203.893 181.267 211.68 165.24 210.8 147.92C210.72 142.48 206.04 139.04 202.427 135.68C197.587 138.187 191.947 140.307 186.907 137L187.893 136.2C188.4 135.813 189.427 135.027 189.933 134.64C196.147 131 201.787 126.267 205 119.667C205.347 119.053 206.067 117.827 206.427 117.213C208.973 112.733 211.307 108.147 213.693 103.6C214.96 101.2 216.253 98.8266 217.627 96.5066C217.893 96.0666 218.427 95.1999 218.693 94.7599C220.8 101.347 221.373 108.267 222.787 115.027C223.147 118.453 227.347 119.173 230.16 119.347C233.613 119.6 235.92 116.627 237.84 114.227C251.333 95.2532 266.533 76.6932 286.493 64.2132C300.267 55.7199 316.013 51.7999 331 46.1332C331.04 45.1732 331.133 43.2666 331.173 42.3066C331.267 40.4399 331.36 38.5732 331.453 36.7199C331.56 34.4266 331.68 32.1465 331.733 29.8799ZM283.787 70.7999C276.36 75.3466 269.773 81.1999 263.947 87.6666C257.76 93.2399 252.213 99.4399 247.293 106.147C244.347 110.387 241.68 114.813 239.333 119.413C236.027 125.76 232.813 132.16 229.893 138.707C225.653 146.96 222.547 155.747 220.347 164.773C224.507 168.32 228.12 172.8 233.213 175.053C236.627 175.773 240.76 175.587 243.6 173.387C256.16 176.453 268.707 172.84 281.227 171.6C283.92 167.667 288.333 166 292.92 165.373C292.32 162.587 292.707 158.733 289.507 157.507C285.133 154.8 278.56 155.827 275.347 151.613C277.693 147.053 281.44 143.453 284.627 139.507C290.347 136.147 294.547 130.84 299.627 126.653C303.96 123.107 307.92 119.08 310.72 114.2C314.84 109.56 318.24 104.333 320.84 98.7199C323.427 93.6132 326.293 88.5866 327.907 83.0666C330.44 74.8266 330.453 66.1199 331.213 57.6133C315 60.1866 298.347 62.6932 283.787 70.7999ZM359.333 193.507C358.48 196.507 360.88 199.093 361.92 201.72C364.667 200.227 367.44 198.8 370.253 197.453C369.587 195.533 368.92 193.64 368.28 191.76C365.307 192.147 361.147 190.32 359.333 193.507Z" fill="#262726"/>
<path d="M309.32 43.0532C316.013 38.9999 323.84 37.7332 331.453 36.7199C331.36 38.5732 331.267 40.4399 331.173 42.3066C321.493 45.1599 311.533 47.44 302.587 52.2666C290.4 58.8666 277.853 65.16 267.347 74.36C260.693 80.2 253.44 85.3066 246.747 91.1066C243.28 94.0933 239.413 96.5732 235.48 98.8932C236.533 90.9466 238.24 82.9066 242.387 75.9333C245.693 70.44 248.493 64.68 250.773 58.6933C252.773 55.1333 256.493 53.0266 259.573 50.52C264.747 46.4266 270.387 42.8133 276.8 41.0133C272.227 45.8133 267.547 50.5199 263.053 55.4132C257.84 61.0933 255.56 68.6133 252.987 75.7066C253.627 76.0266 254.893 76.6666 255.533 76.9866C266.267 69.4266 276.88 61.6132 288.547 55.4932C295.747 51.7999 302.413 47.2266 309.32 43.0532Z" fill="#3D3D3E"/>
<path d="M437.733 39.28C440.707 38.44 443.693 37.6399 446.693 36.8266C447.813 38.4533 448.933 40.0933 450.08 41.7466C448.12 45.5866 446.68 49.6666 445.413 53.7999C442.333 54.3066 439.267 54.8266 436.2 55.3333C437.653 50.1066 437.8 44.6533 437.733 39.28Z" fill="#212120"/>
<path d="M302.587 52.2666C311.533 47.44 321.493 45.1599 331.173 42.3066C331.133 43.2666 331.04 45.1732 331 46.1332C316.013 51.7999 300.267 55.7199 286.493 64.2132C266.533 76.6932 251.333 95.2532 237.84 114.227C235.92 116.627 233.613 119.6 230.16 119.347C227.347 119.173 223.147 118.453 222.787 115.027C221.373 108.267 220.8 101.347 218.693 94.7599C220.493 91.9066 222.427 89.1466 224.4 86.4266C225.973 84.24 227.6 82.0932 229.253 79.9732C235.853 72.3732 242.2 64.1733 250.773 58.6933C248.493 64.68 245.693 70.44 242.387 75.9333C238.24 82.9066 236.533 90.9466 235.48 98.8932C239.413 96.5732 243.28 94.0933 246.747 91.1066C253.44 85.3066 260.693 80.2 267.347 74.36C277.853 65.16 290.4 58.8666 302.587 52.2666Z" fill="#313131"/>
<path d="M368.76 51.5066C377.413 51.1333 386.187 49.3599 394.76 51.4799C391.853 58.5732 388.107 65.4133 382.907 71.1066C382.453 71.3333 381.52 71.7866 381.067 72.0133C381.787 69.3466 382.533 66.7065 383.28 64.0532C378.693 61.2265 374.12 57.9199 368.653 57.1465C361.533 56.0265 354.293 56.3599 347.133 56.4933C347.293 55.6799 347.64 54.0399 347.8 53.2266C354.76 52.4132 361.747 51.7999 368.76 51.5066Z" fill="#181816"/>
<path d="M404.227 77.6799C418.2 73.7999 432.093 69.5599 446.227 66.3333C448.107 66.4799 450 66.7333 451.893 66.9733C452.467 69.0266 453.067 71.0933 453.56 73.2C450.893 84.7867 445.373 95.7199 438.747 105.56C435.947 109.733 431.733 113.347 430.653 118.453C430.387 125.067 432.267 131.547 432.68 138.147C434.133 164.707 435.947 191.293 434.56 217.907L433.827 217.467C430.8 215.587 427.787 213.68 424.453 212.4C425.827 211.6 427.187 210.787 428.56 209.973C426.853 193.72 427.613 177.36 426.587 161.08C425.827 148.667 426.88 135.84 422.253 124.027C420.093 126.453 417.96 128.907 415.773 131.32C413.693 133.6 411.613 135.88 409.56 138.173C401.773 138.827 393.827 139.173 386.36 141.653C381.733 143.133 378.16 146.573 374.707 149.813C367.067 143.867 360.6 135.947 350.8 133.48C357.267 129.707 363.76 125.947 370.013 121.827C376.4 120.733 383.027 120.293 389.36 121.987C389.907 122.36 391.027 123.107 391.587 123.48C395.24 126.133 398.76 129 402.307 131.8C406.547 125.613 410.093 119 413.053 112.12C411.507 110.88 409.973 109.653 408.427 108.44C414.56 109.133 420.667 110 426.827 110.507C431.893 96.3733 441.587 84.4666 446.36 70.2266C431.973 70.8666 418.613 77.5866 404.227 77.6799Z" fill="#2A2726"/>
<path d="M168.107 82.8533C179.56 79.5733 191.333 76.2933 203.373 77.0133C212.053 77.4533 220.76 78.1066 229.253 79.9732C227.6 82.0932 225.973 84.24 224.4 86.4266C205.613 85.7333 186.88 83.9333 168.107 82.8533Z" fill="#FF953D"/>
<path d="M153.36 87.1066C157.973 84.8799 162.947 83.08 168.107 82.8533C186.88 83.9333 205.613 85.7333 224.4 86.4266C222.427 89.1466 220.493 91.9066 218.693 94.7599C218.427 95.1999 217.893 96.0666 217.627 96.5066C204.187 91.9333 189.827 91.8532 175.8 91.8266C168.667 91.9599 161.453 91.7466 154.427 93.1332C150.187 93.8266 146.907 96.7599 143.707 99.3866C156.107 100.427 168.587 100.28 180.947 101.907C191.8 103.32 202.747 103.96 213.693 103.6C211.307 108.147 208.973 112.733 206.427 117.213C203.2 117.04 199.973 116.88 196.76 116.72C199.573 114.627 202.387 112.533 205.2 110.44C187.733 109.347 170.307 107.653 152.88 106C148.587 105.653 144.667 103.813 140.96 101.76C144.653 96.5866 147.373 90.0933 153.36 87.1066Z" fill="#EF7B17"/>
<path d="M247.293 106.147C252.213 99.4399 257.76 93.2399 263.947 87.6666C277.387 92.9733 292.027 93.48 305.96 96.92C295.853 97.6266 286.133 100.747 276.533 103.787C270.8 105.547 265.773 108.867 260.347 111.333C256.56 113.12 252.293 111.933 248.347 111.587C247.987 109.76 247.64 107.947 247.293 106.147Z" fill="#E27F3C"/>
<path d="M154.427 93.1332C161.453 91.7466 168.667 91.9599 175.8 91.8266C189.827 91.8532 204.187 91.9333 217.627 96.5066C216.253 98.8266 214.96 101.2 213.693 103.6C202.747 103.96 191.8 103.32 180.947 101.907C168.587 100.28 156.107 100.427 143.707 99.3866C146.907 96.7599 150.187 93.8266 154.427 93.1332Z" fill="#FF8830"/>
<path d="M276.533 103.787C286.133 100.747 295.853 97.6266 305.96 96.92C306.733 97.0133 308.293 97.1999 309.067 97.2933C300.933 98.0799 293.187 100.827 285.387 103.08C277.467 105.08 269.92 108.267 262.92 112.48C264.907 114.267 266.88 116.08 268.92 117.813C260.88 120.813 252.413 118.56 244.347 117.067C245.667 115.227 246.987 113.4 248.347 111.587C252.293 111.933 256.56 113.12 260.347 111.333C265.773 108.867 270.8 105.547 276.533 103.787Z" fill="#2D2F31"/>
<path d="M111.413 162.587C112.133 162.307 113.547 161.733 114.253 161.453C114.04 165.747 113.8 170.04 113.8 174.347C113.467 173.947 112.787 173.16 112.453 172.76C111.653 171.853 110.867 170.973 110.067 170.107C100.893 175.2 92.2933 181.267 82.9199 185.96C70.7866 192.213 58.0532 197.24 46.0132 203.707C40.3332 206.8 34.2133 208.893 28.1866 211.187C29.8533 207.36 31.9199 203.56 35.3999 201.093C44.4266 194.213 54.8532 189.467 64.4932 183.547C67.2799 181.8 69.5866 179.413 71.7999 177.013C85.3599 173.213 98.2399 167.453 111.413 162.587Z" fill="#2D2F31"/>
<path d="M285.387 103.08C293.187 100.827 300.933 98.0799 309.067 97.2933C313 97.6666 316.92 98.1999 320.84 98.7199C318.24 104.333 314.84 109.56 310.72 114.2C304.653 112.76 298.307 113.493 293.32 117.453C290.707 112.64 288.04 107.853 285.387 103.08Z" fill="#DA783B"/>
<path d="M127.813 118.813C132.867 113.653 136.36 107.267 140.96 101.76C144.667 103.813 148.587 105.653 152.88 106C170.307 107.653 187.733 109.347 205.2 110.44C202.387 112.533 199.573 114.627 196.76 116.72C199.973 116.88 203.2 117.04 206.427 117.213C206.067 117.827 205.347 119.053 205 119.667C200.493 119.613 196 119.56 191.507 119.52C190.853 124.547 190.12 129.573 189.933 134.64C189.427 135.027 188.4 135.813 187.893 136.2C185.64 133.253 183.28 129.88 179.373 129.16C171.107 127.04 162.573 126.053 154.413 123.48C148.227 121.8 142.307 119.16 135.987 117.987C132.44 117.067 130.013 120.453 127.36 122.173C129.907 125.293 133.947 128.24 133.52 132.76C133.093 141.613 131.36 150.36 130.72 159.2C129.293 159.12 127.867 159.04 126.453 158.987C124.413 162.12 122.36 165.253 120.293 168.373C118.267 165.52 116.213 162.693 114.347 159.747C114.68 151.4 118.293 143.693 120.56 135.773C122.547 129.987 123.307 123.36 127.813 118.813Z" fill="#BB6323"/>
<path d="M262.92 112.48C269.92 108.267 277.467 105.08 285.387 103.08C288.04 107.853 290.707 112.64 293.32 117.453C286.213 122.76 276.147 123.04 268.92 117.813C266.88 116.08 264.907 114.267 262.92 112.48Z" fill="#EF7D24"/>
<path d="M239.333 119.413C241.68 114.813 244.347 110.387 247.293 106.147C247.64 107.947 247.987 109.76 248.347 111.587C246.987 113.4 245.667 115.227 244.347 117.067C252.413 118.56 260.88 120.813 268.92 117.813C276.147 123.04 286.213 122.76 293.32 117.453C298.307 113.493 304.653 112.76 310.72 114.2C307.92 119.08 303.96 123.107 299.627 126.653C294.547 130.84 290.347 136.147 284.627 139.507C272.973 140.133 261.293 139.347 249.627 139.56C248.48 135.427 247.24 131.32 246.333 127.133C246.307 125.467 246.307 123.827 246.32 122.187C243.987 121.253 241.653 120.32 239.333 119.413Z" fill="#C56516"/>
<path d="M430.653 118.453C431.733 113.347 435.947 109.733 438.747 105.56C449.933 143.747 445.88 184.093 449.773 223.267C444.307 222.853 439.187 220.747 434.56 217.907C435.947 191.293 434.133 164.707 432.68 138.147C432.267 131.547 430.387 125.067 430.653 118.453Z" fill="#3F3F3F"/>
<path d="M395.987 108.88C400.12 108.507 404.28 108.253 408.427 108.44C409.973 109.653 411.507 110.88 413.053 112.12C410.093 119 406.547 125.613 402.307 131.8C398.76 129 395.24 126.133 391.587 123.48C393.88 118.893 395.587 114.013 395.987 108.88Z" fill="#151515"/>
<path d="M352.293 117.573C359.773 115.84 367.133 113.587 374.68 112.133C377.707 112.973 380.72 113.933 383.76 114.813C373.307 116.147 362.867 117.68 352.293 117.573Z" fill="#CC7130"/>
<path d="M383.76 114.813C385.293 115.2 386.827 115.64 388.373 116.08C388.693 118.04 389.04 120.013 389.36 121.987C383.027 120.293 376.4 120.733 370.013 121.827C356.227 122.813 342.493 124.493 328.707 125.36C327.8 125.427 326 125.573 325.107 125.64C325.2 124.88 325.387 123.387 325.48 122.64C334.467 121.187 343.32 119.053 352.293 117.573C362.867 117.68 373.307 116.147 383.76 114.813Z" fill="#B85C04"/>
<path d="M127.36 122.173C130.013 120.453 132.44 117.067 135.987 117.987C142.307 119.16 148.227 121.8 154.413 123.48C162.573 126.053 171.107 127.04 179.373 129.16C183.28 129.88 185.64 133.253 187.893 136.2L186.907 137L186.04 137.693C177.213 138.053 168.587 135.68 160.067 133.667C155.453 132.667 151.373 130.267 147.533 127.653C144.64 125.827 141.48 124.507 138.32 123.293C137.92 134.96 141.453 146.24 141.907 157.853C139.093 158.227 136.293 158.613 133.48 158.933C132.787 159 131.413 159.133 130.72 159.2C131.36 150.36 133.093 141.613 133.52 132.76C133.947 128.24 129.907 125.293 127.36 122.173Z" fill="#D56E18"/>
<path d="M191.507 119.52C196 119.56 200.493 119.613 205 119.667C201.787 126.267 196.147 131 189.933 134.64C190.12 129.573 190.853 124.547 191.507 119.52Z" fill="#A35003"/>
<path d="M229.893 138.707C232.813 132.16 236.027 125.76 239.333 119.413C241.653 120.32 243.987 121.253 246.32 122.187C246.307 123.827 246.307 125.467 246.333 127.133C246.253 131 245.867 134.827 245.533 138.68C240.32 138.76 235.107 138.773 229.893 138.707Z" fill="#A05005"/>
<path d="M328.707 125.36C342.493 124.493 356.227 122.813 370.013 121.827C363.76 125.947 357.267 129.707 350.8 133.48C348.36 136.987 347.893 141.293 347.747 145.453C349.787 144.507 351.84 143.573 353.88 142.64C354.453 143.187 355.6 144.267 356.16 144.813C359.653 148.173 363.347 151.32 366.893 154.653C369.093 162.68 371.04 170.8 373.773 178.68C363.987 170.973 352.187 166.107 339.853 164.467C326.813 162.227 313.387 163.8 300.8 167.693C299.32 160.72 298.013 152.987 302.24 146.653C308.16 136.947 316.413 126.267 328.707 125.36ZM340.187 137.227C338.293 138.853 341.027 142.16 342.92 140.373C344.867 138.707 342.093 135.4 340.187 137.227Z" fill="#19130C"/>
<path d="M138.32 123.293C141.48 124.507 144.64 125.827 147.533 127.653C148.227 139.133 146.24 150.52 145.933 161.973C142.253 159.547 137.84 158.707 133.48 158.933C136.293 158.613 139.093 158.227 141.907 157.853C141.453 146.24 137.92 134.96 138.32 123.293Z" fill="#984D09"/>
<path d="M415.773 131.32C417.96 128.907 420.093 126.453 422.253 124.027C426.88 135.84 425.827 148.667 426.587 161.08C427.613 177.36 426.853 193.72 428.56 209.973C427.187 210.787 425.827 211.6 424.453 212.4C423.92 212.307 422.867 212.107 422.333 212.013C420.907 200.547 420.933 188.987 420.28 177.467C419.413 162.053 419.8 146.373 415.773 131.32Z" fill="#171716"/>
<path d="M147.533 127.653C151.373 130.267 155.453 132.667 160.067 133.667C168.587 135.68 177.213 138.053 186.04 137.693C186.013 140.48 186.133 143.267 186.173 146.08C182.333 146.88 178.133 147.293 175.027 149.92C170.173 153.92 166.88 159.533 161.707 163.2C157.213 166.387 152.24 168.8 147.427 171.44C147.08 168.627 146.587 165.84 146.12 163.053L145.933 161.973C146.24 150.52 148.227 139.133 147.533 127.653Z" fill="#B76121"/>
<path d="M245.533 138.68C245.867 134.827 246.253 131 246.333 127.133C247.24 131.32 248.48 135.427 249.627 139.56C246.253 140.027 242.4 140.32 239.893 142.933C238 145.6 237.253 148.88 236.187 151.96C241.92 153.16 247.44 156.227 253.413 155.733C256.653 153.947 258.573 150.587 260.907 147.827C260.627 150.867 260.387 153.893 260.147 156.947C263.093 155.893 266.053 154.867 269.027 153.893C275.36 156.387 281.627 159.107 287.64 162.333C280.133 161.653 272.533 159.453 265.027 161.16C261.107 162.04 257.24 163.173 253.547 164.773C249.4 166.52 246.72 170.32 243.6 173.387C240.76 175.587 236.627 175.773 233.213 175.053C228.12 172.8 224.507 168.32 220.347 164.773C222.547 155.747 225.653 146.96 229.893 138.707C235.107 138.773 240.32 138.76 245.533 138.68Z" fill="#0A0A0A"/>
<path d="M347.747 145.453C347.893 141.293 348.36 136.987 350.8 133.48C360.6 135.947 367.067 143.867 374.707 149.813C384.293 149.907 392.653 143 402.4 144.733C398.16 149.787 392.627 153.467 386.573 156C381.84 157.88 378.427 161.72 375.24 165.533C378.013 162.52 373.04 159.2 372.28 163.653C371.867 162.32 371.44 161 371.013 159.693C372.333 158.773 372.933 157.533 372.787 156C372.053 153.72 369.4 155.533 369.4 157.213C368.573 156.32 367.733 155.467 366.893 154.653C363.347 151.32 359.653 148.173 356.16 144.813C357.133 144.053 359.08 142.533 360.04 141.773C357.773 140.8 355.507 139.84 353.24 138.88C353.4 139.813 353.72 141.693 353.88 142.64C351.84 143.573 349.787 144.507 347.747 145.453Z" fill="#4A3D34"/>
<path d="M186.907 137C191.947 140.307 197.587 138.187 202.427 135.68C206.04 139.04 210.72 142.48 210.8 147.92C211.68 165.24 203.893 181.267 195.587 195.933C192.96 200.427 188.667 203.493 184.547 206.48C182.507 204.853 181.24 200.88 178.147 201.613C175.893 207.547 180.147 212.853 183.52 217.293C180.64 217.56 177.627 217.413 174.907 218.493C171.107 220.56 168.48 224.24 164.68 226.32C161.093 227.04 157.427 226.293 153.813 226.307C156.24 215.28 165.027 207.107 167.573 196.107C172.267 178.84 187.36 164.907 186.173 146.08C186.133 143.267 186.013 140.48 186.04 137.693L186.907 137Z" fill="#1D1E1C"/>
<path d="M342.92 140.373C344.867 138.707 342.093 135.4 340.187 137.227C338.293 138.853 341.027 142.16 342.92 140.373Z" fill="#896E57"/>
<path d="M386.36 141.653C393.827 139.173 401.773 138.827 409.56 138.173C416.133 152.973 417.347 169.36 417.707 185.36C417.733 192.92 414.8 200.2 410.827 206.52C408.173 209.733 405.173 212.667 402.547 215.92C401.507 217.227 400.493 218.56 399.507 219.92C398.28 219.253 397.067 218.587 395.853 217.947C394.413 218.973 392.973 220.013 391.56 221.067C391.227 218.213 390.893 215.387 390.68 212.547C390.813 206.093 390.547 199 394.493 193.507C398.333 188.667 403.92 185.72 408.893 182.213C398.08 180.213 386.92 180 376.213 182.707C375.4 181.347 374.573 180.013 373.773 178.68C371.04 170.8 369.093 162.68 366.893 154.653C367.733 155.467 368.573 156.32 369.4 157.213C369.8 157.84 370.6 159.067 371.013 159.693C371.44 161 371.867 162.32 372.28 163.653C372.653 165.56 373.64 166.187 375.24 165.533C378.427 161.72 381.84 157.88 386.573 156C392.627 153.467 398.16 149.787 402.4 144.733C392.653 143 384.293 149.907 374.707 149.813C378.16 146.573 381.733 143.133 386.36 141.653Z" fill="#372D21"/>
<path d="M239.893 142.933C242.4 140.32 246.253 140.027 249.627 139.56C261.293 139.347 272.973 140.133 284.627 139.507C281.44 143.453 277.693 147.053 275.347 151.613C278.56 155.827 285.133 154.8 289.507 157.507C292.707 158.733 292.32 162.587 292.92 165.373C288.333 166 283.92 167.667 281.227 171.6C268.707 172.84 256.16 176.453 243.6 173.387C246.72 170.32 249.4 166.52 253.547 164.773C257.24 163.173 261.107 162.04 265.027 161.16C272.533 159.453 280.133 161.653 287.64 162.333C281.627 159.107 275.36 156.387 269.027 153.893C266.053 154.867 263.093 155.893 260.147 156.947C260.387 153.893 260.627 150.867 260.907 147.827C258.573 150.587 256.653 153.947 253.413 155.733C247.44 156.227 241.92 153.16 236.187 151.96C237.253 148.88 238 145.6 239.893 142.933Z" fill="#171717"/>
<path d="M353.24 138.88C355.507 139.84 357.773 140.8 360.04 141.773C359.08 142.533 357.133 144.053 356.16 144.813C355.6 144.267 354.453 143.187 353.88 142.64C353.72 141.693 353.4 139.813 353.24 138.88Z" fill="#B68F6F"/>
<path d="M175.027 149.92C178.133 147.293 182.333 146.88 186.173 146.08C187.36 164.907 172.267 178.84 167.573 196.107C158.16 193.427 148.72 190.773 139.04 189.2C141.773 189.32 144.52 189.307 147.253 189.32C147.56 183.36 147.907 177.387 147.427 171.44C152.24 168.8 157.213 166.387 161.707 163.2C166.88 159.533 170.173 153.92 175.027 149.92Z" fill="#A65611"/>
<path d="M369.4 157.213C369.4 155.533 372.053 153.72 372.787 156C372.933 157.533 372.333 158.773 371.013 159.693C370.6 159.067 369.8 157.84 369.4 157.213Z" fill="#D1B99C"/>
<path d="M126.453 158.987C127.867 159.04 129.293 159.12 130.72 159.2C130.733 161.013 130.76 162.827 130.787 164.667C132.187 164.813 133.6 164.96 135.027 165.107C134.347 172.667 133.667 180.24 133.013 187.827C127.08 183.08 121.027 178.333 113.893 175.493L113.8 174.347C113.8 170.04 114.04 165.747 114.253 161.453C114.28 161.027 114.32 160.173 114.347 159.747C116.213 162.693 118.267 165.52 120.293 168.373C122.36 165.253 124.413 162.12 126.453 158.987Z" fill="#AA5915"/>
<path d="M130.72 159.2C131.413 159.133 132.787 159 133.48 158.933C137.84 158.707 142.253 159.547 145.933 161.973L146.12 163.053C142.453 163.92 138.773 164.773 135.027 165.107C133.6 164.96 132.187 164.813 130.787 164.667C130.76 162.827 130.733 161.013 130.72 159.2Z" fill="#38393B"/>
<path d="M375.24 165.533C378.013 162.52 373.04 159.2 372.28 163.653C372.653 165.56 373.64 166.187 375.24 165.533Z" fill="#B99777"/>
<path d="M71.0933 166.613C84.4533 164.56 97.9599 163.827 111.413 162.587C98.2399 167.453 85.3599 173.213 71.7999 177.013C71.4533 173.547 71.1866 170.08 71.0933 166.613Z" fill="#B05A08"/>
<path d="M135.027 165.107C138.773 164.773 142.453 163.92 146.12 163.053C146.587 165.84 147.08 168.627 147.427 171.44C147.907 177.387 147.56 183.36 147.253 189.32C144.52 189.307 141.773 189.32 139.04 189.2C137.013 188.84 134.987 188.4 133.013 187.827C133.667 180.24 134.347 172.667 135.027 165.107Z" fill="#E47516"/>
<path d="M286.48 173.36C290.92 171.307 294.08 167.44 297.28 163.893C298.653 165.947 300.053 168.013 301.453 170.093C308.48 169.573 315.493 168.747 322.547 168.453C332.48 168.12 342.107 171.08 351.333 174.467C351.107 176.173 350.867 177.893 350.747 179.627C350.867 183.013 351.627 186.333 352.467 189.613C349.053 191.147 345.787 192.933 342.573 194.853C332.213 192.093 321.373 193.053 310.773 192.12C296.053 190.893 281.28 191.707 266.533 191.32C260.6 190.867 254.653 190.68 248.72 191.173C252.44 187.173 255.8 182.36 261.067 180.293C269.293 177.147 278.413 177.04 286.48 173.36Z" fill="#2E2F31"/>
<path d="M342.413 168.427C340.973 167.6 340.573 165.813 339.853 164.467C352.187 166.107 363.987 170.973 373.773 178.68C374.573 180.013 375.4 181.347 376.213 182.707C378.387 186.44 380.56 190.253 381.72 194.453C383.107 199.533 382.96 204.867 384.067 210C384.88 213.533 387.6 216.16 389.6 219.067C389.507 219.613 389.32 220.68 389.227 221.227C382.44 219 375.333 217.253 368.133 217.653C367.28 212.76 366.133 207.893 364.067 203.36C367.507 203.84 371 203.64 374.4 202.987C371.947 194.947 370.08 186.307 364.653 179.64C358.867 173.213 349.68 172.4 342.413 168.427Z" fill="#314B3B"/>
<path d="M82.9199 185.96C92.2933 181.267 100.893 175.2 110.067 170.107C110.867 170.973 111.653 171.853 112.453 172.76C107.08 176.08 101.6 179.52 97.5199 184.44C92.8399 189.947 88.7733 196.493 81.9199 199.56C70.7733 204.64 57.8932 205.093 47.3466 211.667C44.7466 213.333 41.6532 215.747 42.0799 219.227C44.3866 222.267 47.6132 224.413 50.5999 226.707C50.3199 231.547 50.3732 236.427 50.7866 241.267C48.4666 241.12 45.7599 242.013 43.7199 240.52C40.6399 238.16 38.3333 234.987 35.7999 232.093C33.7466 235.173 31.3599 238.293 30.9332 242.107C30.0266 248.88 31.0799 255.827 29.5599 262.56C27.0266 258.347 24.5866 253.973 23.5866 249.107L23.5332 247.88C23.0132 238.507 23.4666 229.107 24.5599 219.8C25.1999 216.827 25.5999 213.093 28.1866 211.187C34.2133 208.893 40.3332 206.8 46.0132 203.707C58.0532 197.24 70.7866 192.213 82.9199 185.96Z" fill="#1C3025"/>
<path d="M97.5199 184.44C101.6 179.52 107.08 176.08 112.453 172.76C112.787 173.16 113.467 173.947 113.8 174.347L113.893 175.493C114.373 180.587 114.373 185.88 116.333 190.693C118.227 195 122.813 197.013 126.52 199.48C128.293 197.08 130.08 194.693 131.88 192.32C137.013 200.093 140.693 208.907 147.52 215.453C139.493 212.667 132.467 207.92 125.987 202.52C119.6 198.373 111.907 199.493 105.787 203.493C99.4666 203.16 93.0799 203.853 87.2133 206.373C78.2799 210.093 68.6799 211.693 59.5466 214.813C54.3066 216.44 52.0666 221.92 50.5999 226.707C47.6132 224.413 44.3866 222.267 42.0799 219.227C41.6532 215.747 44.7466 213.333 47.3466 211.667C57.8932 205.093 70.7733 204.64 81.9199 199.56C88.7733 196.493 92.8399 189.947 97.5199 184.44Z" fill="#121F14"/>
<path d="M113.893 175.493C121.027 178.333 127.08 183.08 133.013 187.827C134.987 188.4 137.013 188.84 139.04 189.2C148.72 190.773 158.16 193.427 167.573 196.107C165.027 207.107 156.24 215.28 153.813 226.307C152.547 226.28 151.293 226.293 150.053 226.307C149.293 239.933 143.867 253.16 145.453 266.893C146.8 277.6 155.213 285.36 163.667 291.12C169.213 283.6 172.32 274.76 176.213 266.36C176.587 266.907 177.333 267.987 177.707 268.52C180.653 263.707 184.053 259.2 187.467 254.72C185.867 260.96 182.413 266.533 180.8 272.747C182.867 278 189.067 279.333 193.72 281.467C188.653 285.853 184.16 290.84 179.4 295.547C171.173 294.32 165.173 303.16 157.04 300.76C122.293 292.413 86.8933 287.267 52.1333 279.013C44.6133 277.133 36.7066 276.48 29.5732 273.293C27.3999 272.533 27.1866 270.04 26.6533 268.16C36.2399 271.667 46.2933 273.507 56.4399 274.533C69.3066 275.8 81.4399 282.44 94.6266 280.573C100.613 279.68 108.853 279.747 111.76 273.307C113.707 269.507 109.04 266.84 107.267 264.027C112.627 261.493 118.44 258.867 121.52 253.493C123.587 243.96 122.28 234.173 120.773 224.68C120.587 223.173 120.4 221.693 120.187 220.227C119.52 215.72 118.72 211.253 117.947 206.787C120.627 205.36 123.307 203.947 125.987 202.52C132.467 207.92 139.493 212.667 147.52 215.453C140.693 208.907 137.013 200.093 131.88 192.32C130.08 194.693 128.293 197.08 126.52 199.48C122.813 197.013 118.227 195 116.333 190.693C114.373 185.88 114.373 180.587 113.893 175.493Z" fill="#192D22"/>
<path d="M278.36 241.747C289.92 243.64 301.707 244.347 313.067 247.44C322.84 250.627 332.56 245.4 342.44 245.813C342.653 245.067 343.08 243.573 343.28 242.813C345.293 246.16 346.853 249.747 348.52 253.28C345.56 251.867 342.693 250.067 339.413 249.547C335.653 249.547 332.253 251.533 328.96 253.133C325.107 255.32 321.467 258.973 321.467 263.707C321.693 269.587 325.76 275.92 332.12 276.28C337.36 277.707 340.907 272.76 343.347 268.947C345.707 265.693 345.36 261.56 345.347 257.773C346.307 257.68 347.293 257.6 348.28 257.547C349.067 265.587 348.693 273.72 347.067 281.653C338.667 280.467 330.2 279.853 321.827 278.48C315.293 277.413 309.013 275.24 302.573 273.813C305.32 269.52 309 265.733 310.96 260.987C310.96 257.12 308.653 253.08 305.387 251.013C300.507 248.96 295.093 250.347 290.027 250.853C286.373 247.52 282.613 244.267 278.36 241.747Z" fill="#192D22"/>
<path d="M350.747 179.627C354.533 179.44 358.32 179.267 362.12 179.133C361.48 181.28 361 183.52 359.987 185.533C357.787 187.4 355.013 188.347 352.467 189.613C351.627 186.333 350.867 183.013 350.747 179.627Z" fill="#515854"/>
<path d="M216.76 179.867C218.573 179.84 220.387 179.813 222.2 179.813C221.36 184.6 220.52 189.413 219.627 194.2C235.267 193.467 251.013 193.627 266.533 191.32C281.28 191.707 296.053 190.893 310.773 192.12C321.373 193.053 332.213 192.093 342.573 194.853C343.173 195 344.347 195.293 344.933 195.44C330.547 197.573 316.053 194.733 301.6 195.973C275.493 194.707 249.347 196 223.28 197.347C217.133 197.36 214.413 203.587 211.853 208.16C204.027 223.84 194.827 238.813 187.467 254.72C184.053 259.2 180.653 263.707 177.707 268.52C177.333 267.987 176.587 266.907 176.213 266.36C182.36 254.293 187.64 241.827 193.147 229.453C201.56 213.187 208.6 196.267 216.76 179.867Z" fill="#131815"/>
<path d="M376.213 182.707C386.92 180 398.08 180.213 408.893 182.213C403.92 185.72 398.333 188.667 394.493 193.507C390.547 199 390.813 206.093 390.68 212.547C390.36 214.72 389.96 216.88 389.6 219.067C387.6 216.16 384.88 213.533 384.067 210C382.96 204.867 383.107 199.533 381.72 194.453C380.56 190.253 378.387 186.44 376.213 182.707Z" fill="#4A4F42"/>
<path d="M359.333 193.507C361.147 190.32 365.307 192.147 368.28 191.76C368.92 193.64 369.587 195.533 370.253 197.453C367.44 198.8 364.667 200.227 361.92 201.72C360.88 199.093 358.48 196.507 359.333 193.507Z" fill="#4E5348"/>
<path d="M223.28 197.347C249.347 196 275.493 194.707 301.6 195.973C317.027 201.187 334.52 201.067 348.16 210.947C350.627 212.507 350.08 215.733 350.387 218.227C350.48 224.627 352.12 230.84 353.853 236.96C348.947 236.52 342.893 237.133 339.507 232.773C335.6 226.893 338.12 218.827 334.227 212.987C327.56 212.48 321 214.267 314.4 214.787C300.067 216.013 285.787 217.627 271.44 218.573C263.587 219.053 255.907 220.813 248.4 223.08C262.093 224.24 275.867 225.933 289.613 224.56C299.973 223.56 310.4 223.187 320.773 224.32C322.667 228.56 324.187 233.36 328.013 236.32C331.893 239.187 336.653 240.44 341.16 241.973C330.813 240.867 320.44 240.107 310.067 239.267C293.987 238.267 277.92 236.187 261.787 237.173C263.827 237.973 265.853 238.813 267.933 239.56C264.867 239.933 261.827 240.493 258.787 241.013C258.107 247.693 257.84 254.4 257.787 261.12C257.56 264.027 257.787 267.227 256.293 269.867C253.92 272.32 250.733 273.733 247.827 275.453C247.68 276.72 247.533 278 247.4 279.293C253.12 281.253 258.907 283.053 264.76 284.613C261.453 284.773 258.147 284.973 254.84 285.2C254.827 285.867 254.827 287.227 254.827 287.907C247.44 285.6 240.373 282.4 233.52 278.84C222.68 273.133 211.147 268.92 199.507 265.173C200.307 267.56 200.213 270.72 202.6 272.2C207.773 275.6 213.933 276.973 219.547 279.48C229.307 283.68 238.08 289.84 246.173 296.68C241.2 296.493 236.213 296.347 231.267 295.76C218.36 292.027 206.013 286.787 193.72 281.467C189.067 279.333 182.867 278 180.8 272.747C182.413 266.533 185.867 260.96 187.467 254.72C194.827 238.813 204.027 223.84 211.853 208.16C214.413 203.587 217.133 197.36 223.28 197.347ZM241.64 199.36C239.387 203.467 239.2 208.28 238.427 212.813C241.16 212.867 243.947 213.147 246.667 212.64C248.947 209.88 250.12 206.44 251.373 203.147C251.787 206.28 252.36 209.467 253.813 212.333C255.8 209.413 257.307 206.2 258.8 203.04C259.36 206.2 259.893 209.387 260.307 212.587C264.667 212.427 268.427 210.32 271.067 206.88C272.253 208.68 273.427 210.493 274.6 212.333C275.507 210.32 276.587 208.4 277.88 206.64C278.187 208.68 278.453 210.733 278.72 212.813C282.307 212.693 285.867 212.08 289.293 210.947C287.373 209.253 285.453 207.587 283.52 205.92C283.68 203.413 283.84 200.907 284 198.413C280.147 198.613 276.36 199.453 272.8 200.947C268.987 199.28 264.88 198.347 260.707 198.48C254.373 198.613 247.787 197.44 241.64 199.36Z" fill="#1C3427"/>
<path d="M301.6 195.973C316.053 194.733 330.547 197.573 344.933 195.44L346.053 195.653C344.347 197.733 342.653 199.84 340.947 201.933C344.973 204.04 349.267 205.907 352.64 209.04C355.92 212.133 356.4 216.88 357.36 221.053C357.72 222.787 358.107 224.547 358.573 226.293C364.053 239.08 360.24 252.96 360.96 266.32C361.387 274.013 359.84 281.56 357.907 288.96C357.2 292.067 356.56 295.2 355.987 298.36C355.347 291.733 352.867 285.613 350.28 279.56C348.733 268.867 352.76 257.72 349.093 247.253C348.24 244.173 344.867 243.387 342.28 242.36L341.16 241.973C336.653 240.44 331.893 239.187 328.013 236.32C324.187 233.36 322.667 228.56 320.773 224.32C310.4 223.187 299.973 223.56 289.613 224.56C275.867 225.933 262.093 224.24 248.4 223.08C255.907 220.813 263.587 219.053 271.44 218.573C285.787 217.627 300.067 216.013 314.4 214.787C321 214.267 327.56 212.48 334.227 212.987C338.12 218.827 335.6 226.893 339.507 232.773C342.893 237.133 348.947 236.52 353.853 236.96C352.12 230.84 350.48 224.627 350.387 218.227C350.08 215.733 350.627 212.507 348.16 210.947C334.52 201.067 317.027 201.187 301.6 195.973Z" fill="#264234"/>
<path d="M241.64 199.36C247.787 197.44 254.373 198.613 260.707 198.48C264.88 198.347 268.987 199.28 272.8 200.947C276.36 199.453 280.147 198.613 284 198.413C283.84 200.907 283.68 203.413 283.52 205.92C285.453 207.587 287.373 209.253 289.293 210.947C285.867 212.08 282.307 212.693 278.72 212.813C278.453 210.733 278.187 208.68 277.88 206.64C276.587 208.4 275.507 210.32 274.6 212.333C273.427 210.493 272.253 208.68 271.067 206.88C268.427 210.32 264.667 212.427 260.307 212.587C259.893 209.387 259.36 206.2 258.8 203.04C257.307 206.2 255.8 209.413 253.813 212.333C252.36 209.467 251.787 206.28 251.373 203.147C250.12 206.44 248.947 209.88 246.667 212.64C243.947 213.147 241.16 212.867 238.427 212.813C239.2 208.28 239.387 203.467 241.64 199.36Z" fill="#171F16"/>
<path d="M105.787 203.493C111.907 199.493 119.6 198.373 125.987 202.52C123.307 203.947 120.627 205.36 117.947 206.787C118.72 211.253 119.52 215.72 120.187 220.227C114.373 215.587 109.747 209.733 105.787 203.493Z" fill="#512A06"/>
<path d="M402.547 215.92C405.173 212.667 408.173 209.733 410.827 206.52C414.347 208.893 418.04 211.307 422.333 212.013C422.867 212.107 423.92 212.307 424.453 212.4C427.787 213.68 430.8 215.587 433.827 217.467C429.147 219.187 424.08 219.173 419.32 220.587C413.307 222.693 407.973 217.773 402.547 215.92Z" fill="#315041"/>
<path d="M389.6 219.067C389.96 216.88 390.36 214.72 390.68 212.547C390.893 215.387 391.227 218.213 391.56 221.067C392.973 220.013 394.413 218.973 395.853 217.947C397.067 218.587 398.28 219.253 399.507 219.92C400.493 218.56 401.507 217.227 402.547 215.92C407.973 217.773 413.307 222.693 419.32 220.587C424.08 219.173 429.147 219.187 433.827 217.467L434.56 217.907C439.187 220.747 444.307 222.853 449.773 223.267C450.613 223.36 452.293 223.533 453.133 223.613C453.427 221.947 453.72 220.293 454.04 218.653C456.093 220.133 458.133 221.68 460.16 223.24C460.16 221.44 460.173 219.667 460.187 217.893C462.373 218.187 464.6 218.36 466.747 218.947C469.6 220.04 470.88 223.733 474.133 224.12C478.507 225.027 482.227 222.027 485.867 220.093C487.293 221.56 488.707 223.013 490.16 224.493C490.773 222.8 491.387 221.107 492 219.44C495.013 219.747 498.52 219.667 500.44 222.493C503.653 227.08 509.693 225.493 514.48 225.92C514.813 224.333 515.16 222.76 515.533 221.2C516.867 222.587 518.173 224.013 519.6 225.36C521.6 224.68 522.027 222.44 523.04 220.853C526.773 221.04 530.133 222.52 532.573 225.413C537.12 229.96 543.547 226.16 548.173 223.76C549.813 225.24 551.467 226.733 553.147 228.213C553.493 227.067 554.173 224.76 554.52 223.613C557.373 223.667 560.227 223.693 563.093 223.707C563.32 225.453 563.547 227.213 563.787 229C569.147 229.787 576.093 232 579.68 226.413C581.027 227.253 582.387 228.12 583.76 228.987C586.653 225.733 590.84 225.773 594.84 226.253C595.133 228.04 595.453 229.84 595.773 231.653C598.613 231.88 601.467 232.413 604.333 232.147C607.4 231.533 610.16 229.853 613.28 229.413C614.6 230.427 615.827 231.6 617.08 232.733C619.013 228.267 623.653 228.933 627.653 229.32C628.48 231.013 629.213 232.8 630.293 234.387C635.44 237.093 642.133 236.533 646.173 232.133C647.08 233.6 648.027 235.053 649.027 236.507C650.387 235.16 651.573 233.653 652.773 232.187C655.707 232.453 658.64 232.773 661.587 233.04C661.867 234.76 662.147 236.493 662.453 238.24C665.36 238.72 668.253 239.573 671.24 239.467C674.347 238.907 677.16 237.4 680.027 236.173C681.733 237.933 683.453 239.72 685.213 241.48C685.533 240.227 686.187 237.693 686.52 236.44C689.227 236.72 691.973 236.88 694.667 237.507C696.453 238.733 696.893 241.133 697.987 242.933C703.427 244.08 710.28 246.413 714.147 240.92C715.747 242.467 717.36 244.027 719 245.573C719.493 244.013 720 242.467 720.507 240.92C724 241.173 727.507 241.4 731.027 241.573C730.96 243.48 730.893 245.4 730.827 247.32C734.107 247.787 737.36 248.533 740.693 248.547C744.12 248.147 747.253 246.573 750.467 245.387C751.32 247.093 752.2 248.8 753.093 250.533C754.84 249.213 756.493 247.707 758.453 246.707C760.707 246.533 762.96 246.84 765.213 247.027C765.973 249.013 766.733 251.013 767.507 253.027C771.84 254 776.253 255.267 780.747 254.893C782.24 253.84 783.507 252.493 784.853 251.28C785.827 252.76 786.8 254.253 787.787 255.773C789.467 254.52 791.08 253.147 792.947 252.173C795.973 252.347 798.853 253.427 801.76 254.267C801.493 256.053 801.227 257.853 800.973 259.667C806.613 264.267 813.707 265.84 820.853 265.84C821.027 268.027 821.2 270.213 821.427 272.413C823.493 272.187 826.04 270.68 827.853 272.427C830.053 274.373 831.627 276.907 833.333 279.293C831.88 280.88 830.413 282.48 828.987 284.107C826.627 283.933 823.813 284.293 822.147 282.267C818.547 278.6 815.2 274.52 810.48 272.253C805.16 269.053 799.747 265.8 793.6 264.48C778.427 261.213 762.973 259.44 747.72 256.627C719.733 251.507 691.427 248.667 663.227 245.133C648.653 243.52 634.16 241.24 619.573 239.773C615.947 239.48 612.307 239.32 608.68 239.053C595.427 237.387 582.093 236.493 568.787 235.28C559.173 234.507 549.573 233.053 539.893 233.52C534.8 233.36 529.72 233.227 524.64 232.96C514.947 231.213 505.08 231.387 495.293 230.76C480.64 230.133 466.013 229.053 451.36 228.68C440.84 227.867 430.293 227.333 419.76 228.107C410.707 227.747 401.653 227.76 392.6 227.627C381.333 225.72 369.907 226.907 358.573 226.293C358.107 224.547 357.72 222.787 357.36 221.053C360.96 219.947 364.56 218.853 368.133 217.653C375.333 217.253 382.44 219 389.227 221.227C389.32 220.68 389.507 219.613 389.6 219.067Z" fill="#5C6251"/>
<path d="M120.773 224.68C122.28 234.173 123.587 243.96 121.52 253.493C113.44 252.64 105.307 252.533 97.1999 252.333C87.7066 251.827 78.2266 251.173 68.7199 251.08C63.6533 251.027 58.5466 250.36 53.8533 248.413C67.2266 241.813 79.6 232.52 94.52 229.613C103.16 228.24 111.96 228.893 120.68 228.667C120.707 227.667 120.747 225.68 120.773 224.68Z" fill="black"/>
<path d="M358.573 226.293C369.907 226.907 381.333 225.72 392.6 227.627C401.547 229.6 410.733 229.32 419.76 228.107C430.293 227.333 440.84 227.867 451.36 228.68C466.013 229.053 480.64 230.133 495.293 230.76C505.08 231.387 514.947 231.213 524.64 232.96C529.64 234.2 534.8 234.307 539.893 233.52C549.573 233.053 559.173 234.507 568.787 235.28C582.093 236.493 595.427 237.387 608.68 239.053C612.28 240.787 616.16 241.84 620.08 242.6C619.96 241.893 619.707 240.48 619.573 239.773C634.16 241.24 648.653 243.52 663.227 245.133C691.427 248.667 719.733 251.507 747.72 256.627C762.973 259.44 778.427 261.213 793.6 264.48C798.4 268.64 804.453 270.613 810.48 272.253C815.2 274.52 818.547 278.6 822.147 282.267C823.813 284.293 826.627 283.933 828.987 284.107L829.72 284.12C828.24 285.653 825.453 286.667 825.147 288.92C825.213 295.813 826.653 302.587 828.12 309.307C828.6 307.613 829.08 305.92 829.533 304.253C830.387 305.88 831.347 307.493 832.293 309.107C830.787 309.653 829.307 310.213 827.827 310.8C828.84 312.16 829.867 313.533 830.907 314.92C829.107 315.573 827.32 316.24 825.547 316.933C825.507 319.373 825.467 321.813 825.453 324.267C824.067 324.333 822.68 324.4 821.32 324.493C820.813 325.88 820.333 327.293 819.853 328.72C818.453 329.64 817.053 330.587 815.653 331.52C816.76 333.147 817.867 334.76 819 336.413L819.787 337.547C816.893 338.173 814.04 338.947 811.213 339.733C812.227 337.84 813.267 335.947 814.32 334.08C807.587 334.413 801.173 336.467 794.64 337.907C782.813 339.36 770.88 337.973 759.067 337.067C751.027 336.533 742.973 337.28 734.933 336.893C722.973 336.36 710.973 336.387 699.053 335.187C688.547 334.187 678 333.693 667.453 333.507C631.2 331.573 594.973 328.72 558.893 324.6C545.08 322.973 531.187 322.013 517.387 320.173C485.6 315.56 453.693 311.8 421.907 307.24C412.28 305.493 402.653 303.68 392.88 303.107L391.92 303.027C386.333 301.8 380.84 300.133 375.16 299.4C370 298.6 364.613 298.4 359.733 296.347C358.44 294.107 358.253 291.44 357.907 288.96C359.84 281.56 361.387 274.013 360.96 266.32C360.24 252.96 364.053 239.08 358.573 226.293ZM379.373 240.867C378.92 251.947 379.973 263 380.813 274.027C396.12 276.133 411.533 277.44 426.88 279.347C427.707 270.56 427.8 261.733 427.333 252.933C427.067 250.4 427.08 247.587 425.387 245.547C420.907 243.88 416.04 243.853 411.347 243.4C400.667 242.68 390.107 240.56 379.373 240.867ZM462 251.587C459 255.707 455.653 262.2 458.573 267.053C462.6 268.493 466.933 268.68 471.147 269.253C471.107 270.12 471.04 271.867 471.013 272.747C465.387 272.333 459.747 272.053 454.12 271.84C453.693 273.84 453.267 275.853 452.853 277.88C460.307 278.92 467.813 279.48 475.333 279.693C478.053 274.8 479.707 269.387 479.64 263.76C475.08 263.027 470.52 262.4 465.947 261.84C465.947 260.907 465.96 259.053 465.96 258.12C471.267 258.32 476.573 258.613 481.88 259.027C482.4 256.96 482.92 254.893 483.467 252.867C476.373 252.107 469.093 250.027 462 251.587ZM486.013 253.053C485.507 255.067 485 257.107 484.507 259.147C486.907 259.52 489.32 259.907 491.733 260.307C490.213 267.333 488.027 274.187 486.04 281.08C488.507 281.387 491 281.693 493.48 282.013C495.707 275.24 497.853 268.453 499.76 261.6C502.76 261.373 505.76 261.173 508.76 260.96C509.173 258.947 509.587 256.947 510.013 254.96C502.013 254.173 494.027 253.453 486.013 253.053ZM513.08 255.933C510.227 265.04 507.067 274.067 504.787 283.347C507.333 283.387 509.893 283.44 512.453 283.507C515.56 274.36 518.853 265.253 520.853 255.787C518.253 255.813 515.667 255.867 513.08 255.933ZM527.293 256.88C524.24 266.067 520.907 275.187 518.907 284.693C521.2 284.773 523.507 284.88 525.813 284.987C527.213 281.28 528.613 277.587 530.013 273.893C533.093 274.093 536.173 274.293 539.267 274.507C538.373 278.427 537.467 282.36 536.587 286.307C538.92 286.52 541.253 286.733 543.613 286.973C547.08 277.707 550.28 268.333 552.707 258.747C550.133 258.68 547.573 258.627 545.027 258.587C543.933 261.68 542.853 264.787 541.76 267.893C538.653 267.76 535.56 267.667 532.467 267.627C533.027 264.12 533.587 260.613 534.147 257.12C531.853 257.027 529.56 256.933 527.293 256.88ZM559.32 259.68C555.8 268.787 552.76 278.067 550.16 287.467C558.707 288.667 567.307 289.707 575.96 289.84C576.507 287.76 577.08 285.72 577.667 283.667C571.947 283.04 566.24 282.413 560.52 281.84C562.467 274.507 564.893 267.307 567.187 260.08C564.56 259.933 561.933 259.8 559.32 259.68ZM587.56 271.907C587.48 273.56 587.427 275.213 587.373 276.893C592.667 277.627 598 278.093 603.36 278.32C603.293 277.36 603.16 275.467 603.107 274.52C597.88 273.907 592.68 273.093 587.56 271.907ZM613.96 274.44C613.88 276.16 613.813 277.88 613.747 279.627C622.04 279.533 630.28 281.467 638.573 280.587C638.827 281.72 639.08 282.867 639.347 284.027C640.253 282.173 641.32 280.387 642.467 278.68C632.96 277.227 623.173 277.427 613.96 274.44ZM583.973 290.16C585.853 290.293 587.747 290.453 589.64 290.613C588.893 287.587 588.12 284.56 587.28 281.573C585.773 284.267 584.733 287.173 583.973 290.16ZM593.427 282.84C592.613 285.36 591.813 287.88 591.027 290.4C592.32 289.827 593.64 289.293 594.96 288.773C599.053 291.653 604.267 290.427 608.84 291.8C614.4 293.36 620.2 293.787 625.947 293.053C629.427 292.467 632.64 294.08 635.987 294.667C643.373 295.587 650.787 296.147 658.227 296.28C658.707 293.933 659.187 291.6 659.653 289.28C654.067 289.147 648.52 287.907 642.92 288.147C641.067 289.427 639.667 291.213 638.12 292.84C638.027 290.893 637.933 288.96 637.84 287.04C631.28 286.787 624.76 286.12 618.253 285.28C615 284.72 611.76 285.387 608.653 286.333C608.6 285.973 608.48 285.24 608.413 284.88C603.44 283.987 598.427 283.413 593.427 282.84ZM664.68 290.013C664.147 292.693 663.6 295.387 663.067 298.08C668.12 298.507 673.173 299.32 678.28 299.227C681.88 299.333 683.987 295.893 686.387 293.76C686.32 296.147 686.28 298.56 686.28 300.987C688.267 298.693 690.213 296.36 692.16 294.027C692.013 296.28 691.88 298.56 691.76 300.84C692.68 300.44 693.627 300.093 694.587 299.733C698.947 301.947 703.96 302.68 708.147 299.653C709.173 300.747 710.2 301.84 711.253 302.96C712.24 300.347 713.28 297.76 714.347 295.2C707.187 295.44 700.333 292.92 693.227 292.587C683.68 292.067 674.24 290.36 664.68 290.013Z" fill="#76756E"/>
<path d="M419.76 228.107C410.707 227.747 401.653 227.76 392.6 227.627C401.547 229.6 410.733 229.32 419.76 228.107Z" fill="#98958F"/>
<path d="M30.9332 242.107C31.3599 238.293 33.7466 235.173 35.7999 232.093C38.3333 234.987 40.6399 238.16 43.7199 240.52C45.7599 242.013 48.4666 241.12 50.7866 241.267C51.6399 243.707 52.6933 246.08 53.8533 248.413C58.5466 250.36 63.6533 251.027 68.7199 251.08C78.2266 251.173 87.7066 251.827 97.1999 252.333C95.0399 256.853 92.7066 261.293 90.1999 265.64C93.4666 267.907 96.6933 270.24 99.8533 272.68C87.6933 274.6 75.4933 272.107 63.3333 271.68C51.4399 270.427 38.9466 271.027 27.9066 265.747C28.3199 264.947 29.1466 263.36 29.5599 262.56C31.0799 255.827 30.0266 248.88 30.9332 242.107Z" fill="#2A4639"/>
<path d="M539.893 233.52C534.8 233.36 529.72 233.227 524.64 232.96C529.64 234.2 534.8 234.307 539.893 233.52Z" fill="#A8A6A2"/>
<path d="M261.787 237.173C277.92 236.187 293.987 238.267 310.067 239.267C320.44 240.107 330.813 240.867 341.16 241.973L342.28 242.36L343.28 242.813C343.08 243.573 342.653 245.067 342.44 245.813C332.56 245.4 322.84 250.627 313.067 247.44C301.707 244.347 289.92 243.64 278.36 241.747C274.88 241 271.4 240.293 267.933 239.56C265.853 238.813 263.827 237.973 261.787 237.173Z" fill="#101C12"/>
<path d="M608.68 239.053C612.307 239.32 615.947 239.48 619.573 239.773C619.707 240.48 619.96 241.893 620.08 242.6C616.16 241.84 612.28 240.787 608.68 239.053Z" fill="#A3A19C"/>
<path d="M258.787 241.013C261.827 240.493 264.867 239.933 267.933 239.56C271.4 240.293 274.88 241 278.36 241.747C282.613 244.267 286.373 247.52 290.027 250.853C287.973 255.773 284.787 261.627 288.227 266.747C290.64 272.44 297.4 272.533 302.573 273.813C309.013 275.24 315.293 277.413 321.827 278.48C330.2 279.853 338.667 280.467 347.067 281.653C348.693 273.72 349.067 265.587 348.28 257.547C347.293 257.6 346.307 257.68 345.347 257.773C343.947 256.493 342.573 255.213 341.2 253.947C337.12 253.72 333.027 253.6 328.96 253.133C332.253 251.533 335.653 249.547 339.413 249.547C342.693 250.067 345.56 251.867 348.52 253.28C346.853 249.747 345.293 246.16 343.28 242.813L342.28 242.36C344.867 243.387 348.24 244.173 349.093 247.253C352.76 257.72 348.733 268.867 350.28 279.56C352.867 285.613 355.347 291.733 355.987 298.36C356.587 298.88 357.773 299.893 358.36 300.413C353.613 302.72 348.493 304.24 343.16 303.853C337.48 303.413 331.947 307.8 326.44 304.92C317.48 301.12 307.853 299.64 298.373 297.747C283.853 294.507 269.133 292.053 254.827 287.907C254.827 287.227 254.827 285.867 254.84 285.2C258.147 284.973 261.453 284.773 264.76 284.613C258.907 283.053 253.12 281.253 247.4 279.293C247.533 278 247.68 276.72 247.827 275.453C250.733 273.733 253.92 272.32 256.293 269.867C257.787 267.227 257.56 264.027 257.787 261.12C257.84 254.4 258.107 247.693 258.787 241.013Z" fill="#213B2E"/>
<path d="M379.373 240.867C390.107 240.56 400.667 242.68 411.347 243.4C416.04 243.853 420.907 243.88 425.387 245.547C427.08 247.587 427.067 250.4 427.333 252.933C427.8 261.733 427.707 270.56 426.88 279.347C411.533 277.44 396.12 276.133 380.813 274.027C379.973 263 378.92 251.947 379.373 240.867Z" fill="#63635C"/>
<path d="M2.22657 251.907C7.71991 246.307 16.4132 247.533 23.5332 247.88L23.5866 249.107C19.8133 251.427 15.6132 252.933 11.4399 254.373C11.7999 257.867 11.6666 261.893 14.4932 264.493C18.5866 268.867 23.1733 272.76 27.7599 276.613C34.5733 282.4 43.7732 283.4 52.1732 285.36C68.1866 288.96 84.2132 292.467 100.32 295.693C110.587 297.6 120.987 298.787 131.16 301.187C140.92 303.347 150.133 307.373 159.853 309.72C181.84 315.093 204.187 318.733 226.347 323.307C236.573 325.373 246.827 327.467 257.253 328.253C266.213 328.92 275.067 330.56 283.893 332.173C297.4 334.627 311.2 333.733 324.813 335.227C342.84 337.12 360.933 338.293 378.973 340.053C400.44 342.88 421.44 348.827 443.067 350.613C460.387 351.907 477.253 356.333 494.333 359.267C507.893 362.2 521.88 362.053 535.48 364.8C547.813 367.213 560.187 369.427 572.547 371.72C586.533 374.347 600.88 374.36 614.8 377.413C628.413 380.347 642.413 380.333 656.093 382.84C673.173 386.12 690.867 389.187 708.16 385.453C703.573 377.667 694.427 375.36 686.507 372.507C669.333 366.893 651.893 361.36 633.747 360.187C618.08 359.187 602.773 355.573 587.32 353.053C572.707 350.253 558.053 347.8 543.44 345.027C528.133 342.427 512.92 339 497.427 337.733C478.827 336.413 460.76 331.507 442.347 328.84C433.107 327.48 423.773 326.76 414.493 325.733C411.027 323.96 407.68 321.987 404.28 320.12C421.413 321.427 438.64 322.64 455.507 326.107C465.707 327.893 475.853 330 486.093 331.547C494.907 332.907 503.88 332.773 512.68 334.293C545.413 340.28 578.16 346.32 610.947 352.093C624.907 354.88 639.333 354.387 653.2 357.8C677.667 363.573 701.893 371.107 724.28 382.707C726.587 384.2 729.96 385.653 730.053 388.867C728.44 393.067 723.093 392.76 719.4 393.08C701.24 392.933 682.88 394.027 665.013 390.04C648.827 386.36 632.093 386.693 615.893 383.16C601.213 380.04 586.093 380.12 571.44 376.947C550.68 373.347 530.12 368.133 509 367.147C488.147 364.2 467.72 358.573 446.773 356.28C428.133 355.32 410.013 350.52 391.68 347.36C378.507 344.413 364.947 344.307 351.68 342.067C328.16 338.867 304.24 340.48 280.773 336.933C269.16 334.08 257.227 333.52 245.413 332.16C219.013 327.187 192.64 322.027 166.347 316.533C154.987 313.453 143.613 310.4 132.52 306.453C120.573 302.587 108.067 300.827 95.6666 299.12C73.4799 295.08 51.4399 290.373 29.4132 285.533C18.7866 283.547 12.5332 274.013 5.73325 266.587C2.43991 262.76 -1.66676 256.653 2.22657 251.907Z" fill="black"/>
<path d="M23.5866 249.107C24.5866 253.973 27.0266 258.347 29.5599 262.56C29.1466 263.36 28.3199 264.947 27.9066 265.747C27.5999 266.347 26.9733 267.547 26.6533 268.16C27.1866 270.04 27.3999 272.533 29.5732 273.293C36.7066 276.48 44.6133 277.133 52.1333 279.013C86.8933 287.267 122.293 292.413 157.04 300.76C165.173 303.16 171.173 294.32 179.4 295.547C184.813 297.093 188.787 301.187 192.947 304.733C196.347 307.733 200.853 308.8 205.147 309.853C211.04 311.2 217.027 312.667 223.133 312.36C226.68 312.36 230.453 311.613 233.787 313.227C237.907 315.067 241.987 317.173 246.52 317.84C265.493 320.747 284.387 324.147 303.307 327.387C319.253 329.667 335.12 334.227 351.373 332.947C358.6 332.52 365.507 330.013 371.867 326.707C373.813 325.693 375.747 324.667 377.693 323.64C383.333 326.093 388.947 329.147 395.253 329.333C400.907 329.813 406.413 328.12 411.76 326.507C412.44 326.307 413.813 325.92 414.493 325.733C423.773 326.76 433.107 327.48 442.347 328.84C460.76 331.507 478.827 336.413 497.427 337.733C512.92 339 528.133 342.427 543.44 345.027C558.053 347.8 572.707 350.253 587.32 353.053C602.773 355.573 618.08 359.187 633.747 360.187C651.893 361.36 669.333 366.893 686.507 372.507C694.427 375.36 703.573 377.667 708.16 385.453C690.867 389.187 673.173 386.12 656.093 382.84C642.413 380.333 628.413 380.347 614.8 377.413C600.88 374.36 586.533 374.347 572.547 371.72C560.187 369.427 547.813 367.213 535.48 364.8C521.88 362.053 507.893 362.2 494.333 359.267C477.253 356.333 460.387 351.907 443.067 350.613C421.44 348.827 400.44 342.88 378.973 340.053C360.933 338.293 342.84 337.12 324.813 335.227C311.2 333.733 297.4 334.627 283.893 332.173C275.067 330.56 266.213 328.92 257.253 328.253C246.827 327.467 236.573 325.373 226.347 323.307C204.187 318.733 181.84 315.093 159.853 309.72C150.133 307.373 140.92 303.347 131.16 301.187C120.987 298.787 110.587 297.6 100.32 295.693C84.2132 292.467 68.1866 288.96 52.1732 285.36C43.7732 283.4 34.5733 282.4 27.7599 276.613C23.1733 272.76 18.5866 268.867 14.4932 264.493C11.6666 261.893 11.7999 257.867 11.4399 254.373C15.6132 252.933 19.8133 251.427 23.5866 249.107Z" fill="black"/>
<path d="M290.027 250.853C295.093 250.347 300.507 248.96 305.387 251.013C308.653 253.08 310.96 257.12 310.96 260.987C309 265.733 305.32 269.52 302.573 273.813C297.4 272.533 290.64 272.44 288.227 266.747C284.787 261.627 287.973 255.773 290.027 250.853ZM301.853 251.373C301.973 255.613 303.48 259.627 306.24 262.867C305.48 258.787 303.973 254.907 301.853 251.373Z" fill="#606658"/>
<path d="M462 251.587C469.093 250.027 476.373 252.107 483.467 252.867C482.92 254.893 482.4 256.96 481.88 259.027C476.573 258.613 471.267 258.32 465.96 258.12C465.96 259.053 465.947 260.907 465.947 261.84C470.52 262.4 475.08 263.027 479.64 263.76C479.707 269.387 478.053 274.8 475.333 279.693C467.813 279.48 460.307 278.92 452.853 277.88C453.267 275.853 453.693 273.84 454.12 271.84C459.747 272.053 465.387 272.333 471.013 272.747C471.04 271.867 471.107 270.12 471.147 269.253C466.933 268.68 462.6 268.493 458.573 267.053C455.653 262.2 459 255.707 462 251.587Z" fill="#12140A"/>
<path d="M486.013 253.053C494.027 253.453 502.013 254.173 510.013 254.96C509.587 256.947 509.173 258.947 508.76 260.96C505.76 261.173 502.76 261.373 499.76 261.6C497.853 268.453 495.707 275.24 493.48 282.013C491 281.693 488.507 281.387 486.04 281.08C488.027 274.187 490.213 267.333 491.733 260.307C489.32 259.907 486.907 259.52 484.507 259.147C485 257.107 485.507 255.067 486.013 253.053Z" fill="#12140A"/>
<path d="M513.08 255.933C515.667 255.867 518.253 255.813 520.853 255.787C518.853 265.253 515.56 274.36 512.453 283.507C509.893 283.44 507.333 283.387 504.787 283.347C507.067 274.067 510.227 265.04 513.08 255.933Z" fill="#12140A"/>
<path d="M306.24 262.867C305.48 258.787 303.973 254.907 301.853 251.373C301.973 255.613 303.48 259.627 306.24 262.867Z" fill="#B6B9BC"/>
<path d="M97.1999 252.333C105.307 252.533 113.44 252.64 121.52 253.493C118.44 258.867 112.627 261.493 107.267 264.027C109.04 266.84 113.707 269.507 111.76 273.307C108.853 279.747 100.613 279.68 94.6266 280.573C81.4399 282.44 69.3066 275.8 56.4399 274.533C46.2933 273.507 36.2399 271.667 26.6533 268.16C26.9733 267.547 27.5999 266.347 27.9066 265.747C38.9466 271.027 51.4399 270.427 63.3333 271.68C75.4933 272.107 87.6933 274.6 99.8533 272.68C96.6933 270.24 93.4666 267.907 90.1999 265.64C92.7066 261.293 95.0399 256.853 97.1999 252.333Z" fill="#213A2E"/>
<path d="M321.467 263.707C321.467 258.973 325.107 255.32 328.96 253.133C333.027 253.6 337.12 253.72 341.2 253.947C342.573 255.213 343.947 256.493 345.347 257.773C345.36 261.56 345.707 265.693 343.347 268.947C340.907 272.76 337.36 277.707 332.12 276.28C325.76 275.92 321.693 269.587 321.467 263.707ZM337.027 254.627C337.027 259.253 339.293 263.333 342.213 266.787C341.387 262.4 339.853 258.12 337.027 254.627Z" fill="#5F6455"/>
<path d="M342.213 266.787C341.387 262.4 339.853 258.12 337.027 254.627C337.027 259.253 339.293 263.333 342.213 266.787Z" fill="#B5B8BB"/>
<path d="M527.293 256.88C529.56 256.933 531.853 257.027 534.147 257.12C533.587 260.613 533.027 264.12 532.467 267.627C535.56 267.667 538.653 267.76 541.76 267.893C542.853 264.787 543.933 261.68 545.027 258.587C547.573 258.627 550.133 258.68 552.707 258.747C550.28 268.333 547.08 277.707 543.613 286.973C541.253 286.733 538.92 286.52 536.587 286.307C537.467 282.36 538.373 278.427 539.267 274.507C536.173 274.293 533.093 274.093 530.013 273.893C528.613 277.587 527.213 281.28 525.813 284.987C523.507 284.88 521.2 284.773 518.907 284.693C520.907 275.187 524.24 266.067 527.293 256.88Z" fill="#121409"/>
<path d="M559.32 259.68C561.933 259.8 564.56 259.933 567.187 260.08C564.893 267.307 562.467 274.507 560.52 281.84C566.24 282.413 571.947 283.04 577.667 283.667C577.08 285.72 576.507 287.76 575.96 289.84C567.307 289.707 558.707 288.667 550.16 287.467C552.76 278.067 555.8 268.787 559.32 259.68Z" fill="#111409"/>
<path d="M199.507 265.173C211.147 268.92 222.68 273.133 233.52 278.84C240.373 282.4 247.44 285.6 254.827 287.907C269.133 292.053 283.853 294.507 298.373 297.747C307.853 299.64 317.48 301.12 326.44 304.92C331.947 307.8 337.48 303.413 343.16 303.853C348.493 304.24 353.613 302.72 358.36 300.413C358.72 300.68 359.44 301.213 359.8 301.48C360.467 305.52 360.533 309.84 362.707 313.453C365.4 318.107 368.787 322.307 371.867 326.707C365.507 330.013 358.6 332.52 351.373 332.947C335.12 334.227 319.253 329.667 303.307 327.387C303.16 326.733 302.867 325.44 302.733 324.787C312.867 322.787 323.16 321.667 333.253 319.4C331.68 316.587 330.853 312.773 327.64 311.347C322.387 309.04 316.573 308.693 310.947 308.053C290.48 306.24 270.093 303.733 249.693 301.333C243.253 300.6 237.24 298.133 231.267 295.76C236.213 296.347 241.2 296.493 246.173 296.68C238.08 289.84 229.307 283.68 219.547 279.48C213.933 276.973 207.773 275.6 202.6 272.2C200.213 270.72 200.307 267.56 199.507 265.173Z" fill="#172B20"/>
<path d="M793.6 264.48C798.4 268.64 804.453 270.613 810.48 272.253C805.16 269.053 799.747 265.8 793.6 264.48Z" fill="#ADABA4"/>
<path d="M587.56 271.907C592.68 273.093 597.88 273.907 603.107 274.52C603.16 275.467 603.293 277.36 603.36 278.32C598 278.093 592.667 277.627 587.373 276.893C587.427 275.213 587.48 273.56 587.56 271.907Z" fill="#51514B"/>
<path d="M613.96 274.44C623.173 277.427 632.96 277.227 642.467 278.68C641.32 280.387 640.253 282.173 639.347 284.027C639.08 282.867 638.827 281.72 638.573 280.587C630.28 281.467 622.04 279.533 613.747 279.627C613.813 277.88 613.88 276.16 613.96 274.44Z" fill="#585852"/>
<path d="M179.4 295.547C184.16 290.84 188.653 285.853 193.72 281.467C206.013 286.787 218.36 292.027 231.267 295.76C237.24 298.133 243.253 300.6 249.693 301.333C270.093 303.733 290.48 306.24 310.947 308.053C316.573 308.693 322.387 309.04 327.64 311.347C330.853 312.773 331.68 316.587 333.253 319.4C323.16 321.667 312.867 322.787 302.733 324.787C302.867 325.44 303.16 326.733 303.307 327.387C284.387 324.147 265.493 320.747 246.52 317.84C241.987 317.173 237.907 315.067 233.787 313.227C230.453 311.613 226.68 312.36 223.133 312.36C217.027 312.667 211.04 311.2 205.147 309.853C200.853 308.8 196.347 307.733 192.947 304.733C188.787 301.187 184.813 297.093 179.4 295.547Z" fill="#111F16"/>
<path d="M583.973 290.16C584.733 287.173 585.773 284.267 587.28 281.573C588.12 284.56 588.893 287.587 589.64 290.613C587.747 290.453 585.853 290.293 583.973 290.16Z" fill="#22231B"/>
<path d="M593.427 282.84C598.427 283.413 603.44 283.987 608.413 284.88C608.48 285.24 608.6 285.973 608.653 286.333C611.76 285.387 615 284.72 618.253 285.28C624.76 286.12 631.28 286.787 637.84 287.04C637.933 288.96 638.027 290.893 638.12 292.84C639.667 291.213 641.067 289.427 642.92 288.147C648.52 287.907 654.067 289.147 659.653 289.28C659.187 291.6 658.707 293.933 658.227 296.28C650.787 296.147 643.373 295.587 635.987 294.667C632.64 294.08 629.427 292.467 625.947 293.053C620.2 293.787 614.4 293.36 608.84 291.8C604.267 290.427 599.053 291.653 594.96 288.773C593.64 289.293 592.32 289.827 591.027 290.4C591.813 287.88 592.613 285.36 593.427 282.84Z" fill="#2B2B24"/>
<path d="M829.72 284.12C831.707 288.84 833.56 293.64 834.96 298.573C836.427 299.027 837.893 299.48 839.373 299.96C837.933 301.44 836.493 302.893 835.067 304.387C836.747 305.427 838.427 306.453 840.16 307.48C839.627 310.32 839.147 313.16 838.72 316.04C831.227 315.773 828.547 323.573 825.12 328.773C825.907 330.56 826.693 332.373 827.467 334.213C825.267 333.867 823.08 333.507 820.907 333.147C820.427 333.96 819.48 335.6 819 336.413C817.867 334.76 816.76 333.147 815.653 331.52C817.053 330.587 818.453 329.64 819.853 328.72C820.333 327.293 820.813 325.88 821.32 324.493C822.68 324.4 824.067 324.333 825.453 324.267C825.467 321.813 825.507 319.373 825.547 316.933C827.32 316.24 829.107 315.573 830.907 314.92C829.867 313.533 828.84 312.16 827.827 310.8C829.307 310.213 830.787 309.653 832.293 309.107C831.347 307.493 830.387 305.88 829.533 304.253C828.08 299.133 826.427 294.067 825.147 288.92C825.453 286.667 828.24 285.653 829.72 284.12Z" fill="#5F6555"/>
<path d="M355.987 298.36C356.56 295.2 357.2 292.067 357.907 288.96C358.253 291.44 358.44 294.107 359.733 296.347C364.613 298.4 370 298.6 375.16 299.4C380.84 300.133 386.333 301.8 391.92 303.027C382.813 304.427 373.547 305.56 364.347 304.28C362.773 303.413 361.267 302.467 359.8 301.48C359.44 301.213 358.72 300.68 358.36 300.413C357.773 299.893 356.587 298.88 355.987 298.36Z" fill="#5C6051"/>
<path d="M828.12 309.307C826.653 302.587 825.213 295.813 825.147 288.92C826.427 294.067 828.08 299.133 829.533 304.253C829.08 305.92 828.6 307.613 828.12 309.307Z" fill="#A8A6A0"/>
<path d="M664.68 290.013C674.24 290.36 683.68 292.067 693.227 292.587C700.333 292.92 707.187 295.44 714.347 295.2C713.28 297.76 712.24 300.347 711.253 302.96C710.2 301.84 709.173 300.747 708.147 299.653C703.96 302.68 698.947 301.947 694.587 299.733C693.627 300.093 692.68 300.44 691.76 300.84C691.88 298.56 692.013 296.28 692.16 294.027C690.213 296.36 688.267 298.693 686.28 300.987C686.28 298.56 686.32 296.147 686.387 293.76C683.987 295.893 681.88 299.333 678.28 299.227C673.173 299.32 668.12 298.507 663.067 298.08C663.6 295.387 664.147 292.693 664.68 290.013Z" fill="#31322B"/>
<path d="M359.8 301.48C361.267 302.467 362.773 303.413 364.347 304.28C367.44 305.96 370.627 307.48 373.813 309.013C374.747 313.973 376.013 318.867 377.693 323.64C375.747 324.667 373.813 325.693 371.867 326.707C368.787 322.307 365.4 318.107 362.707 313.453C360.533 309.84 360.467 305.52 359.8 301.48Z" fill="#2D3E30"/>
<path d="M392.88 303.107C402.653 303.68 412.28 305.493 421.907 307.24C453.693 311.8 485.6 315.56 517.387 320.173C531.187 322.013 545.08 322.973 558.893 324.6C594.973 328.72 631.2 331.573 667.453 333.507C678 333.693 688.547 334.187 699.053 335.187C710.973 336.387 722.973 336.36 734.933 336.893C742.973 337.28 751.027 336.533 759.067 337.067C770.88 337.973 782.813 339.36 794.64 337.907C801.173 336.467 807.587 334.413 814.32 334.08C813.267 335.947 812.227 337.84 811.213 339.733C814.04 338.947 816.893 338.173 819.787 337.547C820.44 337.413 821.733 337.147 822.387 337.013C819.493 339.587 815.307 344.947 811.4 341.053C805.2 335.96 797.413 342.147 792.947 346.773C790.907 345.213 788.88 343.68 786.84 342.173C786.427 344 786.027 345.84 785.653 347.707C782.253 347.64 778.853 347.64 775.467 347.68C775.12 345.933 774.8 344.187 774.48 342.467C769.653 341.933 764.8 341.813 759.96 341.8C759.28 343.347 758.6 344.893 757.933 346.453C756.093 345.04 754.307 343.6 752.507 342.173C751.16 343.707 749.933 345.36 748.387 346.72C745.867 346.973 743.32 346.787 740.813 346.76C740.453 344.973 740.12 343.2 739.8 341.453C735.653 341.347 731.2 340.347 727.4 342.507C725.2 343.08 722.787 345.653 720.6 343.88C719.067 342.933 717.627 341.853 716.187 340.827C715.707 342.52 715.253 344.227 714.8 345.96C711.693 345.387 708.573 344.973 705.44 344.64C705.12 342.973 704.8 341.333 704.493 339.707C698.747 339.307 691.573 336.853 687.64 342.573C686.053 341.053 684.48 339.573 682.88 338.12C682.387 340.027 681.92 341.947 681.453 343.893C679.027 343.493 676.533 343.36 674.227 342.507C671.413 340.76 669.453 337.333 665.893 337.107C661.52 336.493 657.747 339.267 654.013 341.067C652.173 339.627 650.36 338.187 648.547 336.76C648.2 337.96 647.507 340.36 647.16 341.56C644.293 341.293 641.44 341.08 638.587 340.907C637.773 339.267 637.587 337.133 636.12 335.973C630.987 333.707 624.507 333.947 620.733 338.533C619.667 337.08 618.613 335.627 617.56 334.2C616.293 335.773 615.04 337.347 613.8 338.947C611.253 338.667 608.707 338.4 606.187 338.16C605.813 336.547 605.467 334.96 605.133 333.373C599.133 331.68 593.16 332.973 588.027 336.333C586.4 334.747 584.853 333.12 583.387 331.427C582.987 332.627 582.187 335 581.787 336.187C579.04 335.867 576.293 335.627 573.547 335.467C572.587 333.587 572.76 330.587 570.307 329.973C566.84 328.813 563.133 328.827 559.547 328.413C558.947 329.88 558.36 331.347 557.787 332.827C556.08 331.253 554.373 329.667 552.68 328.133C552.013 329.707 551.387 331.307 550.76 332.92C548.56 332.467 546.267 332.307 544.227 331.387C541.853 329.547 540.253 326.32 537 325.96C532.893 325.16 529.133 327.507 525.44 328.893C524.24 327.72 523.107 326.52 521.84 325.48C519.827 325.48 519.56 327.933 518.48 329.173C515.44 328.947 512.467 328.133 510.733 325.453C507.28 320.52 498.973 319.733 495.28 324.773C493.813 323.32 492.347 321.893 490.867 320.493C490.493 321.627 489.76 323.867 489.387 325C486.707 324.747 484.04 324.533 481.373 324.36C480.92 322.507 480.48 320.653 480.053 318.827C474.853 317.427 469.573 318.12 464.987 320.96C463.827 319.667 462.68 318.36 461.467 317.173C460.213 318.24 459.24 319.573 458.227 320.893C456.307 320.613 454.347 320.493 452.507 319.893C449.747 317.4 447.653 313.333 443.36 313.573C440.333 312.867 437.733 314.613 435.453 316.333C434.253 315.147 433.053 313.973 431.867 312.813C431.48 313.853 430.693 315.92 430.293 316.96C428.053 316.64 425.813 316.387 423.64 315.813C422.227 314.44 421.667 312.467 420.747 310.813C415.88 309.4 410.947 310.333 406.413 312.387C405.44 311.32 404.467 310.28 403.507 309.253C400.973 311.187 398.187 312.747 395.28 314.04C394.08 313 392.893 311.96 391.707 310.947C392.107 308.333 392.493 305.707 392.88 303.107Z" fill="#585C47"/>
<path d="M364.347 304.28C373.547 305.56 382.813 304.427 391.92 303.027L392.88 303.107C392.493 305.707 392.107 308.333 391.707 310.947C390.48 309.893 389.253 308.867 388.013 307.867C390.147 311.507 392.24 315.427 395.84 317.853C400.813 321.293 406.413 323.68 411.76 326.507C406.413 328.12 400.907 329.813 395.253 329.333C388.947 329.147 383.333 326.093 377.693 323.64C376.013 318.867 374.747 313.973 373.813 309.013C370.627 307.48 367.44 305.96 364.347 304.28Z" fill="#49503D"/>
<path d="M388.013 307.867C389.253 308.867 390.48 309.893 391.707 310.947C392.893 311.96 394.08 313 395.28 314.04C398 316.44 401.093 318.387 404.28 320.12C407.68 321.987 411.027 323.96 414.493 325.733C413.813 325.92 412.44 326.307 411.76 326.507C406.413 323.68 400.813 321.293 395.84 317.853C392.24 315.427 390.147 311.507 388.013 307.867Z" fill="#6C747B"/>
</g>
</svg>
