<svg width="17" height="14" viewBox="0 0 17 14" fill="none" xmlns="http://www.w3.org/2000/svg">
<path d="M7.9562 1.80973C8.20888 1.75763 8.47133 1.87444 8.64521 2.0655C8.46677 2.2317 8.26163 2.36077 8.06919 2.50756C7.84223 2.67103 7.62049 2.84302 7.38539 2.99355C7.30203 2.78989 7.2877 2.55353 7.36129 2.34442C7.45149 2.07333 7.68496 1.85912 7.9562 1.80973Z" fill="#F2F2F3"/>
<path d="M8.26977 2.86107C8.43063 2.69691 8.64163 2.6036 8.82007 2.46362C8.81584 2.51437 8.85686 2.58793 8.80802 2.62369C8.67256 2.70849 8.5345 2.78921 8.4049 2.8832C8.41956 3.02897 8.43681 3.17473 8.46189 3.31913C8.4277 3.33037 8.39351 3.34229 8.35964 3.35455C8.34173 3.18801 8.31438 3.02216 8.26977 2.86107Z" fill="#F2F2F3"/>
<path d="M10.4482 2.83212C10.4583 2.70645 10.4697 2.58044 10.4729 2.45443C10.4902 2.56 10.5065 2.66558 10.5195 2.77184C10.7142 2.84472 10.92 2.87162 11.1186 2.92816C11.2466 2.95983 11.3052 3.09401 11.3762 3.1955C11.5426 3.44037 11.7109 3.68354 11.8793 3.92704C11.9802 4.08166 12.0759 4.24037 12.1954 4.38034C11.8408 4.32244 11.4905 4.24105 11.1388 4.16817C11.0408 3.93658 10.9135 3.72032 10.8008 3.49657C10.6872 3.27281 10.5735 3.04906 10.4482 2.83212Z" fill="#F2F2F3"/>
<path d="M7.56578 3.2534C7.73445 3.22377 7.87284 3.11751 8.007 3.01398C8.02849 3.15021 8.04737 3.28678 8.06496 3.42334L8.06854 3.44991C7.88814 3.42641 7.71068 3.3726 7.56578 3.2534Z" fill="#F2F2F3"/>
<path d="M10.3599 3.28439C10.5198 3.54901 10.6549 3.82896 10.8015 4.10176C10.5582 4.04522 10.3114 4.00572 10.0701 3.93862C10.0802 3.91887 10.1001 3.87902 10.1099 3.85893C10.2997 3.89469 10.4892 3.93386 10.68 3.96383C10.5836 3.74722 10.4576 3.54697 10.3479 3.33752C10.3508 3.32424 10.357 3.29767 10.3599 3.28439Z" fill="#F2F2F3"/>
<path d="M4.10021 3.48635C4.12333 3.48635 4.17021 3.48567 4.19333 3.48533C4.19757 3.98835 4.2386 4.48966 4.25553 4.99234C4.25846 5.11529 4.25781 5.23857 4.26432 5.36152C4.26855 5.44325 4.27637 5.52499 4.28093 5.60707C4.28321 5.92379 4.31967 6.23916 4.32228 6.55623C4.32358 6.75955 4.35093 6.96117 4.3568 7.16449C4.35875 7.46214 4.40564 7.75707 4.40206 8.05507C4.42876 8.34694 4.43267 8.63949 4.43657 8.93203C4.44243 9.04783 4.44927 9.16328 4.45546 9.27873C4.4929 9.6462 4.49453 10.0157 4.51081 10.3846C4.21124 10.4724 3.93903 10.6335 3.65248 10.7565C3.24383 10.939 2.84494 11.1447 2.43531 11.3242C2.4314 11.0408 2.47829 10.7599 2.47601 10.4765C3.10511 10.0675 3.73551 9.65983 4.3594 9.24127C4.3581 9.13058 4.35549 9.02024 4.35256 8.9099C3.83027 9.24706 3.30667 9.58252 2.78535 9.92172C2.70134 9.97553 2.61375 10.0229 2.52388 10.0654C2.55253 9.64586 2.58445 9.22628 2.61082 8.8067C2.6118 8.71816 2.6945 8.6749 2.75409 8.62961C3.02566 8.45081 3.29039 8.26043 3.55772 8.07448C3.80031 7.90522 4.0569 7.75775 4.28939 7.57249C4.28646 7.46691 4.2819 7.36167 4.27441 7.25644C4.19594 7.29697 4.11779 7.33852 4.0442 7.38824C3.60527 7.70054 3.15884 8.0016 2.70948 8.29756C2.77721 7.61267 2.8381 6.92643 2.88076 6.23916C3.31449 5.93946 3.75017 5.64283 4.18519 5.34517C4.18291 5.23483 4.17445 5.12482 4.1611 5.0155C3.73909 5.27331 3.3363 5.56484 2.92309 5.83831C2.94881 5.54713 2.97161 5.2556 2.99929 4.96441C3.37635 4.74849 3.75114 4.52917 4.123 4.30337C4.12333 4.20903 4.12333 4.11436 4.12267 4.02002C3.75538 4.20801 3.40761 4.43517 3.05138 4.64496C3.07125 4.43415 3.09241 4.223 3.10088 4.01116C3.2028 3.94918 3.30732 3.89128 3.41445 3.83884C3.62317 3.73837 3.8192 3.60929 4.03639 3.52926C4.05006 3.57694 4.06406 3.62496 4.07806 3.67298C4.08523 3.61066 4.09272 3.54867 4.10021 3.48635ZM2.94849 6.28752C2.93546 6.88794 2.94393 7.48939 2.95337 8.09015C3.38808 7.78023 3.82734 7.47713 4.26106 7.16585C4.26562 6.87126 4.24315 6.57769 4.22622 6.28378C4.2298 6.0086 4.19887 5.73478 4.1865 5.46028C3.76905 5.72797 3.36007 6.0103 2.94849 6.28752Z" fill="#F2F2F3"/>
<path d="M1.8658 4.62998C2.16049 4.474 2.45648 4.32006 2.75768 4.17804C2.74986 4.37625 2.74921 4.57481 2.74628 4.77336C2.41057 4.97668 2.06997 5.17216 1.72969 5.36731C1.79645 5.12618 1.82836 4.87723 1.8658 4.62998Z" fill="#F2F2F3"/>
<path d="M9.06331 5.63193C9.33683 5.14049 9.65952 4.68208 9.94085 4.19575C10.2867 4.29486 10.64 4.35957 10.9894 4.44232C11.0428 4.57208 11.1069 4.69673 11.1779 4.81695C10.8344 4.75088 10.4872 4.70865 10.1421 4.65518C10.1831 4.75633 10.2108 4.87042 10.2863 4.95079C10.4224 5.01584 10.5761 5.01686 10.7214 5.04717C10.8975 5.08225 11.076 5.10643 11.2524 5.14117C11.3355 5.15105 11.3697 5.2413 11.4087 5.306C11.5045 5.49638 11.6087 5.68233 11.7044 5.87271C11.3394 5.80323 10.9789 5.70549 10.61 5.66054C10.6673 5.77633 10.7087 5.9364 10.8497 5.96603C11.1502 6.04844 11.4595 6.0934 11.7607 6.17377C11.8395 6.1908 11.8871 6.26334 11.9226 6.33316C12.0538 6.59642 12.1658 6.87092 12.3081 7.12839C11.9437 7.09467 11.5885 6.99488 11.2277 6.93596C11.2717 7.03269 11.3081 7.13554 11.3733 7.21966C11.4263 7.26802 11.5025 7.27108 11.5683 7.28913C11.877 7.34499 12.185 7.40425 12.4911 7.4744C12.5041 7.5088 12.5175 7.54354 12.5318 7.57793C12.1671 7.52583 11.8086 7.4349 11.4452 7.37359C11.526 7.57964 11.6321 7.77376 11.722 7.97538C11.7542 8.04349 11.7835 8.11467 11.8311 8.17325C11.8975 8.21957 11.9799 8.22808 12.0561 8.24647C12.3566 8.30198 12.6536 8.37452 12.9538 8.43174C12.9743 8.47159 12.9955 8.51109 13.017 8.55094C12.6588 8.46171 12.3026 8.36465 11.9437 8.27951C11.8649 8.25601 11.7822 8.27508 11.721 8.33161C11.1264 8.83633 10.5439 9.3574 9.94118 9.85089C9.82721 9.58184 9.72041 9.30972 9.59928 9.04408C10.1619 8.45013 10.7354 7.86742 11.2919 7.26734C11.2544 7.1747 11.214 7.08377 11.1701 6.99488C10.8158 7.35554 10.4791 7.73494 10.1255 8.09628C9.91252 8.3231 9.69078 8.54038 9.48596 8.77537C9.33129 8.34966 9.12094 7.94813 8.97506 7.51936C9.5322 6.99624 10.1222 6.51127 10.6719 5.97965C10.6234 5.85432 10.567 5.73274 10.5019 5.61626C10.4026 5.68472 10.313 5.76748 10.2333 5.85977C10.0512 6.06649 9.83633 6.23814 9.6504 6.44112C9.38502 6.72549 9.1128 7.00237 8.82756 7.26495C8.75202 7.03303 8.66247 6.80655 8.57423 6.57973C8.5879 6.54942 8.60158 6.51911 8.61591 6.48914C8.82267 6.30659 9.01153 6.1043 9.21602 5.91903C9.52699 5.58493 9.87768 5.29443 10.1795 4.95079C10.1408 4.85543 10.0988 4.76178 10.0535 4.66982C9.70966 4.97497 9.43842 5.3656 9.06331 5.63193ZM10.5608 8.21241C10.2701 8.49611 9.98025 8.78116 9.69859 9.07473C9.79009 9.28588 9.88289 9.49635 9.98937 9.70001C10.316 9.43846 10.6243 9.15272 10.9447 8.88299C11.2069 8.64562 11.4875 8.43174 11.7438 8.18755C11.6243 7.92566 11.4921 7.66989 11.3746 7.40663C11.101 7.67295 10.8262 7.93723 10.5608 8.21241Z" fill="#F2F2F3"/>
<path d="M5.91326 4.68719C6.0904 4.70524 6.26526 4.741 6.44272 4.75531C6.71168 5.14219 6.98781 5.52465 7.23267 5.9289C6.78006 5.78246 6.32256 5.65338 5.87288 5.4974C5.96308 5.48446 6.05295 5.46607 6.14282 5.44938C6.1197 5.28148 6.11124 5.11188 6.08942 4.94398C6.07998 4.83057 5.98099 4.76416 5.91326 4.68719Z" fill="#F2F2F3"/>
<path d="M1.89543 5.58561C2.16179 5.43883 2.42001 5.27535 2.68636 5.12823C2.66064 5.4327 2.62352 5.73648 2.62092 6.04231C2.24971 6.27799 1.90097 6.55351 1.51576 6.7633C1.5607 6.44827 1.61214 6.13393 1.66783 5.8206C1.6815 5.69391 1.80328 5.64181 1.89543 5.58561Z" fill="#F2F2F3"/>
<path d="M6.27307 5.97692C6.29098 5.97454 6.32615 5.97045 6.34373 5.96807C6.70484 6.06547 7.06237 6.17582 7.42316 6.27356C7.44335 6.31715 7.46256 6.36177 7.4821 6.40638C7.48079 6.65568 7.56187 6.89169 7.60941 7.13315C7.68854 7.47202 7.76148 7.81225 7.83702 8.15213C7.3932 8.02919 6.94287 7.93247 6.50133 7.79965C6.57329 7.77308 6.64558 7.74686 6.71819 7.72165C6.71428 7.3409 6.6586 6.96355 6.6319 6.5845C6.62344 6.46666 6.62832 6.3478 6.60781 6.23167C6.60455 6.19897 6.58892 6.17479 6.56092 6.15981C6.46714 6.09476 6.3662 6.04299 6.27307 5.97692Z" fill="#F2F2F3"/>
<path d="M1.42198 7.23941C1.81045 6.97717 2.19468 6.70812 2.58282 6.44521C2.55579 6.64205 2.57305 6.84435 2.53267 7.03882C2.47667 7.12668 2.37996 7.17232 2.29823 7.22953C1.96642 7.43626 1.66262 7.68896 1.3256 7.88683C1.351 7.67023 1.3943 7.45601 1.42198 7.23941Z" fill="#F2F2F3"/>
<path d="M7.68073 7.01736C7.65598 6.9077 7.64035 6.79633 7.62863 6.68428C7.67617 6.79258 7.72534 6.90054 7.76929 7.01055C7.73966 7.01293 7.71003 7.01498 7.68073 7.01736Z" fill="#F2F2F3"/>
<path d="M8.13496 7.92021C8.22777 7.59633 8.30005 7.26529 8.42249 6.95129C8.49705 7.11749 8.56641 7.28709 8.61656 7.4635C8.46417 7.62527 8.29256 7.76457 8.13496 7.92021Z" fill="#F2F2F3"/>
<path d="M7.7872 7.45976C7.76115 7.38143 7.81814 7.31944 7.85851 7.26087C7.93829 7.49858 8.00276 7.74141 8.07049 7.98287C8.02002 8.02783 7.96792 8.07074 7.91647 8.11433C7.89433 7.8916 7.82953 7.67806 7.7872 7.45976Z" fill="#F2F2F3"/>
<path d="M1.37933 8.21309C1.76421 7.93689 2.14551 7.65524 2.52714 7.37393C2.48937 7.628 2.47439 7.88513 2.44345 8.14021C2.42685 8.26724 2.43271 8.39973 2.39298 8.52267C2.30962 8.62007 2.19207 8.67559 2.09178 8.75119C1.74695 8.98448 1.41612 9.24093 1.0625 9.45855C1.09441 9.16975 1.15888 8.8864 1.19763 8.59896C1.21359 8.50564 1.21847 8.4079 1.25657 8.32071C1.29043 8.27712 1.33602 8.24579 1.37933 8.21309Z" fill="#F2F2F3"/>
<path d="M8.34597 8.11024C8.48631 7.989 8.60581 7.83949 8.76634 7.74515C8.92915 8.15792 9.09815 8.56865 9.28017 8.97256C8.97506 9.3104 8.65433 9.63224 8.34141 9.96191C8.23721 9.45276 8.11347 8.9477 8.0096 8.43855C8.11543 8.32242 8.22777 8.21309 8.34597 8.11024Z" fill="#F2F2F3"/>
<path d="M6.16464 8.03191C6.74815 8.17802 7.33231 8.32446 7.91257 8.48555C8.02751 8.99061 8.13497 9.49772 8.25903 10.0007C7.71199 9.84407 7.16429 9.69048 6.61725 9.53416C6.45281 9.03795 6.31768 8.53187 6.16464 8.03191Z" fill="#F2F2F3"/>
<path d="M1.1045 9.7981C1.51218 9.50793 1.92116 9.21879 2.33535 8.93919C2.28194 9.3918 2.25883 9.84816 2.20217 10.3001C1.73067 10.5875 1.27708 10.9063 0.802002 11.1873L0.781813 11.1961C0.773347 11.0534 0.809491 10.9141 0.833912 10.7748C0.882104 10.5051 0.922156 10.2337 0.969371 9.96395C0.974581 9.88188 1.0485 9.84135 1.1045 9.7981Z" fill="#F2F2F3"/>
<path d="M8.83049 9.84101C9.02 9.65165 9.19583 9.44731 9.39381 9.26715C9.5068 9.52735 9.61523 9.78992 9.72139 10.0532C9.4534 10.2729 9.19291 10.5024 8.9285 10.7272C8.81844 10.8239 8.71131 10.9257 8.5892 11.0064C8.51366 10.7694 8.47101 10.5225 8.41598 10.2797C8.54981 10.1291 8.68819 9.98303 8.83049 9.84101Z" fill="#F2F2F3"/>
<path d="M6.58566 10.7193C6.57166 10.4261 6.58273 10.1298 6.53584 9.83965C7.13043 9.99324 7.71947 10.1693 8.31666 10.31C8.37006 10.5552 8.44007 10.7966 8.48273 11.0446C8.13464 11.0085 7.7846 10.9741 7.44465 10.8845C7.16136 10.8137 6.87156 10.7766 6.58566 10.7193Z" fill="#F2F2F3"/>
<path d="M0.673057 11.6613C1.1706 11.331 1.67629 11.0126 2.16896 10.6747C2.15821 10.9468 2.12207 11.2172 2.09797 11.4887C1.71276 11.677 1.32039 11.8497 0.935832 12.0404C0.82968 12.0966 0.71962 12.1446 0.605327 12.1797C0.623236 12.0063 0.658078 11.835 0.673057 11.6613Z" fill="#F2F2F3"/>
<path d="M6.95622 0.24959C7.50391 -0.0269511 8.14897 -0.0712246 8.73118 0.104508C9.4635 0.32111 10.0711 0.929364 10.3209 1.67964C10.4094 1.92008 10.4355 2.17721 10.4697 2.43025L10.4729 2.45443C10.4697 2.58044 10.4583 2.70645 10.4482 2.83212C10.4299 2.98503 10.3938 3.13454 10.3599 3.28439C10.357 3.29767 10.3508 3.32424 10.3479 3.33752C10.2802 3.517 10.1955 3.68865 10.1099 3.85893C10.1001 3.87902 10.0802 3.91887 10.0701 3.93862C10.0275 4.02445 9.98677 4.11163 9.94085 4.19575C9.65952 4.68208 9.33683 5.14049 9.06331 5.63193C8.89659 5.90677 8.74094 6.19046 8.61591 6.48914C8.60158 6.51911 8.5879 6.54942 8.57423 6.57973C8.5192 6.70131 8.4684 6.82528 8.42249 6.95129C8.30005 7.26529 8.22777 7.59633 8.13496 7.92021C8.1138 7.94132 8.09231 7.96244 8.07049 7.98287C8.00276 7.74141 7.93829 7.49858 7.85851 7.26087C7.83116 7.1764 7.80186 7.09297 7.76929 7.01055C7.72534 6.90054 7.67617 6.79258 7.62863 6.68428C7.58988 6.58586 7.53517 6.49629 7.4821 6.40638C7.46256 6.36177 7.44335 6.31715 7.42316 6.27356C7.3678 6.15402 7.30073 6.04095 7.23267 5.9289C6.98781 5.52465 6.71168 5.14219 6.44272 4.75531C6.25907 4.48558 6.0904 4.20529 5.92466 3.92364C5.79343 3.70363 5.68761 3.46592 5.62802 3.21355C5.49484 2.64889 5.55182 2.0403 5.77845 1.51003C6.01811 0.965805 6.43555 0.504676 6.95622 0.24959ZM9.63217 0.945711C9.7406 0.95082 9.58137 1.04686 9.63217 0.945711ZM7.9562 1.80973C7.68496 1.85912 7.45149 2.07333 7.36129 2.34442C7.2877 2.55353 7.30203 2.78989 7.38539 2.99355C7.43618 3.08686 7.4961 3.17439 7.56578 3.2534C7.71068 3.3726 7.88814 3.42641 8.06854 3.44991L8.06496 3.42334C8.1659 3.42607 8.26554 3.41108 8.36322 3.38554L8.35964 3.35455C8.39351 3.34229 8.4277 3.33037 8.46189 3.31913C8.668 3.15838 8.85784 2.91045 8.80802 2.62369C8.85686 2.58793 8.81584 2.51437 8.82007 2.46362C8.79369 2.31718 8.72824 2.18504 8.64521 2.0655C8.47133 1.87444 8.20888 1.75763 7.9562 1.80973Z" fill="#DC0306"/>
<path d="M9.63217 0.945711C9.7406 0.95082 9.58137 1.04686 9.63217 0.945711Z" fill="#FFB901"/>
<path d="M8.007 3.01398C8.09133 2.95745 8.18185 2.91113 8.26977 2.86107C8.31438 3.02216 8.34173 3.18801 8.35964 3.35455L8.36322 3.38554C8.26554 3.41108 8.1659 3.42607 8.06496 3.42334C8.04737 3.28678 8.02849 3.15021 8.007 3.01398Z" fill="#FFB901"/>
<path d="M4.48021 3.45025C4.58701 3.44684 4.69414 3.44786 4.80094 3.45399C4.96896 4.03977 5.14903 4.6218 5.31868 5.20724C5.33919 5.25867 5.34831 5.3278 5.40432 5.35198C5.5528 5.4235 5.71561 5.45381 5.87288 5.4974C6.32256 5.65338 6.78006 5.78246 7.23267 5.9289C7.30073 6.04095 7.3678 6.15402 7.42316 6.27356C7.06237 6.17582 6.70484 6.06547 6.34373 5.96807C6.05881 5.88361 5.77617 5.78655 5.48507 5.72763C5.51144 5.84853 5.54336 5.96841 5.5808 6.08659C5.78041 6.73333 5.96113 7.38654 6.16464 8.03191C6.31768 8.53187 6.45281 9.03795 6.61725 9.53416C7.16429 9.69048 7.71199 9.84407 8.25903 10.0007C8.2854 10.1022 8.3007 10.2061 8.31666 10.31C7.71947 10.1693 7.13043 9.99324 6.53584 9.83965C5.84358 9.64859 5.15001 9.4623 4.45546 9.27873C4.44927 9.16328 4.44243 9.04783 4.43657 8.93203C5.02627 9.06451 5.60164 9.25898 6.18678 9.41223C5.83153 8.1426 5.45967 6.87773 5.09498 5.61081C4.82211 5.51341 4.53979 5.45007 4.26432 5.36152C4.25781 5.23857 4.25846 5.11529 4.25553 4.99234C4.4929 5.08429 4.7381 5.15207 4.98166 5.22359C4.82276 4.62998 4.63357 4.04556 4.48021 3.45025Z" fill="#FFB901"/>
<path d="M9.94085 4.19575C9.98677 4.11163 10.0275 4.02445 10.0701 3.93862C10.3114 4.00572 10.5582 4.04522 10.8015 4.10176C10.9135 4.1256 11.0261 4.14603 11.1388 4.16817C11.4905 4.24105 11.8408 4.32244 12.1954 4.38034C12.2974 4.50158 12.3843 4.63543 12.466 4.77199C11.9737 4.66301 11.483 4.54449 10.9894 4.44232C10.64 4.35957 10.2867 4.29486 9.94085 4.19575Z" fill="#FFB901"/>
<path d="M2.92309 5.83831C3.3363 5.56484 3.73909 5.27331 4.1611 5.0155C4.17445 5.12482 4.18291 5.23483 4.18519 5.34517C3.75017 5.64283 3.31449 5.93946 2.88076 6.23916C2.78047 6.30625 2.68148 6.37573 2.58282 6.44521C2.19468 6.70812 1.81045 6.97717 1.42198 7.23941C1.44185 7.07832 1.48352 6.922 1.51576 6.7633C1.90097 6.55351 2.24971 6.27799 2.62092 6.04231C2.72218 5.97556 2.82312 5.90745 2.92309 5.83831Z" fill="#FFB901"/>
<path d="M11.2277 6.93596C11.5885 6.99488 11.9437 7.09467 12.3081 7.12839C12.3807 7.23635 12.4478 7.34941 12.4911 7.4744C12.185 7.40425 11.877 7.34499 11.5683 7.28913C11.5025 7.27108 11.4263 7.26802 11.3733 7.21966C11.3081 7.13554 11.2717 7.03269 11.2277 6.93596Z" fill="#FFB901"/>
<path d="M11.1701 6.99488C11.214 7.08377 11.2544 7.1747 11.2919 7.26734C10.7354 7.86742 10.1619 8.45013 9.59928 9.04408C9.55923 8.95519 9.52113 8.86596 9.48596 8.77537C9.69078 8.54038 9.91252 8.3231 10.1255 8.09628C10.4791 7.73494 10.8158 7.35554 11.1701 6.99488Z" fill="#FFB901"/>
<path d="M12.6878 7.22885C13.144 7.30173 13.595 7.40459 14.0495 7.48632C14.1283 7.50131 14.2107 7.50846 14.2853 7.54286C14.3771 7.62664 14.4312 7.74413 14.4891 7.8538C13.9779 7.77546 13.4735 7.65116 12.9633 7.56363C12.791 7.55784 12.7588 7.35554 12.6878 7.22885Z" fill="#FFB901"/>
<path d="M2.78535 9.92172C3.30667 9.58252 3.83027 9.24706 4.35256 8.9099C4.35549 9.02024 4.3581 9.13058 4.3594 9.24127C3.73551 9.65983 3.10511 10.0675 2.47601 10.4765C2.47634 10.3379 2.50076 10.2013 2.52388 10.0654C2.61375 10.0229 2.70134 9.97553 2.78535 9.92172Z" fill="#FFB901"/>
<path d="M9.28017 8.97256C9.32901 9.06588 9.36906 9.16396 9.39381 9.26715C9.19583 9.44731 9.02 9.65165 8.83049 9.84101C8.68819 9.98303 8.54981 10.1291 8.41598 10.2797C8.37885 10.1772 8.35541 10.0702 8.34141 9.96191C8.65433 9.63224 8.97506 9.3104 9.28017 8.97256Z" fill="#FFB901"/>
<path d="M0.802002 11.1873C1.27708 10.9063 1.73067 10.5875 2.20217 10.3001L2.22138 10.2885C2.20347 10.4155 2.22626 10.5589 2.16896 10.6747C1.67629 11.0126 1.1706 11.331 0.673057 11.6613L0.647658 11.677C0.679569 11.5122 0.652868 11.2946 0.802002 11.1873Z" fill="#FFB901"/>
<path d="M8.64521 2.0655C8.72824 2.18504 8.79369 2.31718 8.82007 2.46362C8.64163 2.6036 8.43063 2.69691 8.26977 2.86107C8.18185 2.91113 8.09133 2.95745 8.007 3.01398C7.87284 3.11751 7.73445 3.22377 7.56578 3.2534C7.4961 3.17439 7.43618 3.08686 7.38539 2.99355C7.62049 2.84302 7.84223 2.67103 8.06919 2.50756C8.26163 2.36077 8.46677 2.2317 8.64521 2.0655Z" fill="#CBD0D4"/>
<path d="M10.4697 2.43025C10.6901 2.45613 10.8982 2.54195 11.1167 2.57874C11.2297 2.60462 11.3693 2.60905 11.4341 2.72722C12.3596 4.10721 13.2931 5.48242 14.2338 6.85116C14.7109 7.57521 15.2019 8.28938 15.6887 9.00628C15.858 9.21981 15.986 9.46502 16.1553 9.67856C16.2318 9.7746 16.296 9.8812 16.3451 9.99529C15.9749 10.0099 15.6158 10.1084 15.2485 10.1479C15.0033 10.1826 14.7639 10.2565 14.5161 10.2718C14.1876 10.295 13.8721 10.4036 13.5445 10.4309C13.5451 10.309 13.5504 10.187 13.5624 10.0658C13.4113 10.0583 13.2576 10.0488 13.1173 9.98439C13.144 9.85293 13.2094 9.72181 13.1808 9.58456C13.1564 9.47592 13.1677 9.35808 13.2264 9.26341C13.2814 9.21913 13.3501 9.19938 13.4133 9.17043C12.9532 9.00968 12.4797 8.89287 12.0141 8.75187C11.595 9.09278 11.187 9.44834 10.7731 9.79572C10.5706 9.97792 10.355 10.1451 10.1655 10.3427C10.2254 10.5034 10.3 10.6655 10.3069 10.8409C10.2655 10.969 10.1304 11.017 10.0281 11.0793C10.0467 11.1321 10.0656 11.1852 10.0841 11.2387C9.65366 11.3664 9.21179 11.4437 8.77774 11.5544C8.53157 11.647 8.26652 11.6426 8.01546 11.7124C7.75139 11.7506 7.49675 11.8531 7.22942 11.8609C7.19848 11.817 7.18253 11.7642 7.16299 11.7148C7.03567 11.7046 6.9038 11.7179 6.78039 11.678C6.72275 11.5544 6.80188 11.4226 6.88165 11.333C6.63516 11.3126 6.39355 11.2557 6.14966 11.2166C5.62085 11.1263 5.08977 11.0528 4.56031 10.968C4.41704 10.9424 4.2933 11.0402 4.16729 11.0936C3.66681 11.3187 3.1787 11.5759 2.67008 11.7809C2.73879 11.8282 2.83778 11.8698 2.8355 11.9723C2.85634 12.0479 2.7808 12.0837 2.73293 12.1201C2.60203 12.2124 2.44183 12.2379 2.30409 12.3146C2.27153 12.3966 2.29009 12.4886 2.29106 12.5748C2.08169 12.6337 1.8645 12.6456 1.65317 12.6933C1.40407 12.7498 1.14618 12.7495 0.898712 12.8176C0.703991 12.871 0.500153 12.8666 0.305106 12.9167C0.202536 12.9419 0.101594 12.9729 0 13.0018C0.0547039 12.7471 0.0774977 12.4865 0.137738 12.2332C0.198303 11.9767 0.235098 11.7152 0.269939 11.4536C0.361113 10.9567 0.469219 10.4629 0.537924 9.96191C0.580581 9.68265 0.66166 9.41155 0.694223 9.13058C0.734925 8.78184 0.828051 8.44366 0.878523 8.09696C0.957322 7.74652 0.982722 7.3862 1.0651 7.03643C1.14293 6.70438 1.16637 6.36211 1.24159 6.02937C1.29597 5.78348 1.33439 5.53419 1.38128 5.28659C1.43729 4.98996 1.45845 4.68617 1.53888 4.39533C1.56135 4.28668 1.68215 4.26659 1.75965 4.21414C1.98498 4.0803 2.22692 3.98188 2.45224 3.84803C2.64501 3.73701 2.85373 3.66072 3.04976 3.55651C3.33077 3.40632 3.61959 3.27077 3.89539 3.10968C3.98689 3.0603 4.08262 2.99695 4.1904 3.0133C4.67004 3.07733 5.15001 3.13727 5.62802 3.21355C5.68761 3.46592 5.79343 3.70363 5.92466 3.92364C6.0904 4.20529 6.25907 4.48558 6.44272 4.75531C6.26526 4.741 6.0904 4.70524 5.91326 4.68719C5.98099 4.76416 6.07998 4.83057 6.08942 4.94398C6.11124 5.11188 6.1197 5.28148 6.14282 5.44938C6.05295 5.46607 5.96308 5.48446 5.87288 5.4974C5.71561 5.45381 5.5528 5.4235 5.40432 5.35198C5.34831 5.3278 5.33919 5.25867 5.31868 5.20724C5.14903 4.6218 4.96896 4.03977 4.80094 3.45399C4.69414 3.44786 4.58701 3.44684 4.48021 3.45025C4.63357 4.04556 4.82276 4.62998 4.98166 5.22359C4.7381 5.15207 4.4929 5.08429 4.25553 4.99234C4.2386 4.48966 4.19757 3.98835 4.19333 3.48533C4.17021 3.48567 4.12333 3.48635 4.10021 3.48635C4.09272 3.54867 4.08523 3.61066 4.07806 3.67298C4.06406 3.62496 4.05006 3.57694 4.03639 3.52926C3.8192 3.60929 3.62317 3.73837 3.41445 3.83884C3.30732 3.89128 3.2028 3.94918 3.10088 4.01116C3.09241 4.223 3.07125 4.43415 3.05138 4.64496C3.40761 4.43517 3.75538 4.20801 4.12267 4.02002C4.12333 4.11436 4.12333 4.20903 4.123 4.30337C3.75114 4.52917 3.37635 4.74849 2.99929 4.96441C2.97161 5.2556 2.94881 5.54713 2.92309 5.83831C2.82312 5.90745 2.72218 5.97556 2.62092 6.04231C2.62352 5.73648 2.66064 5.4327 2.68636 5.12823C2.42001 5.27535 2.16179 5.43883 1.89543 5.58561C1.80328 5.64181 1.6815 5.69391 1.66783 5.8206C1.61214 6.13393 1.5607 6.44827 1.51576 6.7633C1.48352 6.922 1.44185 7.07832 1.42198 7.23941C1.3943 7.45601 1.351 7.67023 1.3256 7.88683C1.66262 7.68896 1.96642 7.43626 2.29823 7.22953C2.37996 7.17232 2.47667 7.12668 2.53267 7.03882C2.57305 6.84435 2.55579 6.64205 2.58282 6.44521C2.68148 6.37573 2.78047 6.30625 2.88076 6.23916C2.8381 6.92643 2.77721 7.61267 2.70948 8.29756C3.15884 8.0016 3.60527 7.70054 4.0442 7.38824C4.11779 7.33852 4.19594 7.29697 4.27441 7.25644C4.2819 7.36167 4.28646 7.46691 4.28939 7.57249C4.0569 7.75775 3.80031 7.90522 3.55772 8.07448C3.29039 8.26043 3.02566 8.45081 2.75409 8.62961C2.6945 8.6749 2.6118 8.71816 2.61082 8.8067C2.58445 9.22628 2.55253 9.64586 2.52388 10.0654C2.50076 10.2013 2.47634 10.3379 2.47601 10.4765C2.47829 10.7599 2.4314 11.0408 2.43531 11.3242C2.84494 11.1447 3.24383 10.939 3.65248 10.7565C3.93903 10.6335 4.21124 10.4724 4.51081 10.3846C4.49453 10.0157 4.4929 9.6462 4.45546 9.27873C5.15001 9.4623 5.84358 9.64859 6.53584 9.83965C6.58273 10.1298 6.57166 10.4261 6.58566 10.7193C6.87156 10.7766 7.16136 10.8137 7.44465 10.8845C7.7846 10.9741 8.13464 11.0085 8.48273 11.0446C8.44007 10.7966 8.37006 10.5552 8.31666 10.31C8.3007 10.2061 8.2854 10.1022 8.25903 10.0007C8.13497 9.49772 8.02751 8.99061 7.91257 8.48555C7.33231 8.32446 6.74815 8.17802 6.16464 8.03191C5.96113 7.38654 5.78041 6.73333 5.5808 6.08659C5.54336 5.96841 5.51144 5.84853 5.48507 5.72763C5.77617 5.78655 6.05881 5.88361 6.34373 5.96807C6.32615 5.97045 6.29098 5.97454 6.27307 5.97692C6.3662 6.04299 6.46714 6.09476 6.56092 6.15981C6.58892 6.17479 6.60455 6.19897 6.60781 6.23167C6.62832 6.3478 6.62344 6.46666 6.6319 6.5845C6.6586 6.96355 6.71428 7.3409 6.71819 7.72165C6.64558 7.74686 6.57329 7.77308 6.50133 7.79965C6.94287 7.93247 7.3932 8.02919 7.83702 8.15213C7.76148 7.81225 7.68854 7.47202 7.60941 7.13315C7.56187 6.89169 7.48079 6.65568 7.4821 6.40638C7.53517 6.49629 7.58988 6.58586 7.62863 6.68428C7.64035 6.79633 7.65598 6.9077 7.68073 7.01736C7.71003 7.01498 7.73966 7.01293 7.76929 7.01055C7.80186 7.09297 7.83116 7.1764 7.85851 7.26087C7.81814 7.31944 7.76115 7.38143 7.7872 7.45976C7.82953 7.67806 7.89433 7.8916 7.91647 8.11433C7.96792 8.07074 8.02002 8.02783 8.07049 7.98287C8.09231 7.96244 8.1138 7.94132 8.13496 7.92021C8.29256 7.76457 8.46417 7.62527 8.61656 7.4635C8.56641 7.28709 8.49705 7.11749 8.42249 6.95129C8.4684 6.82528 8.5192 6.70131 8.57423 6.57973C8.66247 6.80655 8.75202 7.03303 8.82756 7.26495C9.1128 7.00237 9.38502 6.72549 9.6504 6.44112C9.83633 6.23814 10.0512 6.06649 10.2333 5.85977C10.313 5.76748 10.4026 5.68472 10.5019 5.61626C10.567 5.73274 10.6234 5.85432 10.6719 5.97965C10.1222 6.51127 9.5322 6.99624 8.97506 7.51936C9.12094 7.94813 9.33129 8.34966 9.48596 8.77537C9.52113 8.86596 9.55923 8.95519 9.59928 9.04408C9.72041 9.30972 9.82721 9.58184 9.94118 9.85089C10.5439 9.3574 11.1264 8.83633 11.721 8.33161C11.7822 8.27508 11.8649 8.25601 11.9437 8.27951C12.3026 8.36465 12.6588 8.46171 13.017 8.55094C12.9955 8.51109 12.9743 8.47159 12.9538 8.43174C12.818 8.1443 12.6735 7.86197 12.5318 7.57793C12.5175 7.54354 12.5041 7.5088 12.4911 7.4744C12.4478 7.34941 12.3807 7.23635 12.3081 7.12839C12.1658 6.87092 12.0538 6.59642 11.9226 6.33316C11.8871 6.26334 11.8395 6.1908 11.7607 6.17377C11.4595 6.0934 11.1502 6.04844 10.8497 5.96603C10.7087 5.9364 10.6673 5.77633 10.61 5.66054C10.9789 5.70549 11.3394 5.80323 11.7044 5.87271C11.6087 5.68233 11.5045 5.49638 11.4087 5.306C11.3697 5.2413 11.3355 5.15105 11.2524 5.14117C11.076 5.10643 10.8975 5.08225 10.7214 5.04717C10.5761 5.01686 10.4224 5.01584 10.2863 4.95079C10.2108 4.87042 10.1831 4.75633 10.1421 4.65518C10.4872 4.70865 10.8344 4.75088 11.1779 4.81695C11.1069 4.69673 11.0428 4.57208 10.9894 4.44232C11.483 4.54449 11.9737 4.66301 12.466 4.77199C12.3843 4.63543 12.2974 4.50158 12.1954 4.38034C12.0759 4.24037 11.9802 4.08166 11.8793 3.92704C11.7109 3.68354 11.5426 3.44037 11.3762 3.1955C11.3052 3.09401 11.2466 2.95983 11.1186 2.92816C10.92 2.87162 10.7142 2.84472 10.5195 2.77184C10.5065 2.66558 10.4902 2.56 10.4729 2.45443L10.4697 2.43025ZM1.8658 4.62998C1.82836 4.87723 1.79645 5.12618 1.72969 5.36731C2.06997 5.17216 2.41057 4.97668 2.74628 4.77336C2.74921 4.57481 2.74986 4.37625 2.75768 4.17804C2.45648 4.32006 2.16049 4.474 1.8658 4.62998ZM12.6878 7.22885C12.7588 7.35554 12.791 7.55784 12.9633 7.56363C13.4735 7.65116 13.9779 7.77546 14.4891 7.8538C14.4312 7.74413 14.3771 7.62664 14.2853 7.54286C14.2107 7.50846 14.1283 7.50131 14.0495 7.48632C13.595 7.40459 13.144 7.30173 12.6878 7.22885ZM1.37933 8.21309C1.33602 8.24579 1.29043 8.27712 1.25657 8.32071C1.21847 8.4079 1.21359 8.50564 1.19763 8.59896C1.15888 8.8864 1.09441 9.16975 1.0625 9.45855C1.41612 9.24093 1.74695 8.98448 2.09178 8.75119C2.19207 8.67559 2.30962 8.62007 2.39298 8.52267C2.43271 8.39973 2.42685 8.26724 2.44345 8.14021C2.47439 7.88513 2.48937 7.628 2.52714 7.37393C2.14551 7.65524 1.76421 7.93689 1.37933 8.21309ZM8.34597 8.11024C8.22777 8.21309 8.11543 8.32242 8.0096 8.43855C8.11347 8.9477 8.23721 9.45276 8.34141 9.96191C8.35541 10.0702 8.37885 10.1772 8.41598 10.2797C8.47101 10.5225 8.51366 10.7694 8.5892 11.0064C8.71131 10.9257 8.81844 10.8239 8.9285 10.7272C9.19291 10.5024 9.4534 10.2729 9.72139 10.0532C9.61523 9.78992 9.5068 9.52735 9.39381 9.26715C9.36906 9.16396 9.32901 9.06588 9.28017 8.97256C9.09815 8.56865 8.92915 8.15792 8.76634 7.74515C8.60581 7.83949 8.48631 7.989 8.34597 8.11024ZM1.1045 9.7981C1.0485 9.84135 0.974581 9.88188 0.969371 9.96395C0.922156 10.2337 0.882104 10.5051 0.833912 10.7748C0.809491 10.9141 0.773347 11.0534 0.781813 11.1961L0.802002 11.1873C0.652868 11.2946 0.679569 11.5122 0.647658 11.677L0.673057 11.6613C0.658078 11.835 0.623236 12.0063 0.605327 12.1797C0.71962 12.1446 0.82968 12.0966 0.935832 12.0404C1.32039 11.8497 1.71276 11.677 2.09797 11.4887C2.12207 11.2172 2.15821 10.9468 2.16896 10.6747C2.22626 10.5589 2.20347 10.4155 2.22138 10.2885L2.20217 10.3001C2.25883 9.84816 2.28194 9.3918 2.33535 8.93919C1.92116 9.21879 1.51218 9.50793 1.1045 9.7981Z" fill="#CBD0D4"/>
<path d="M10.4482 2.83212C10.5735 3.04906 10.6872 3.27281 10.8008 3.49657C10.9135 3.72032 11.0408 3.93658 11.1388 4.16817C11.0261 4.14603 10.9135 4.1256 10.8015 4.10176C10.6549 3.82896 10.5198 3.54901 10.3599 3.28439C10.3938 3.13454 10.4299 2.98503 10.4482 2.83212Z" fill="#CBD0D4"/>
<path d="M9.06331 5.63193C9.43842 5.3656 9.70966 4.97497 10.0535 4.66982C10.0988 4.76178 10.1408 4.85543 10.1795 4.95079C9.87768 5.29443 9.52699 5.58493 9.21602 5.91903C9.01153 6.1043 8.82267 6.30659 8.61591 6.48914C8.74094 6.19046 8.89659 5.90677 9.06331 5.63193Z" fill="#CBD0D4"/>
<path d="M4.26432 5.36152C4.53979 5.45007 4.82211 5.51341 5.09498 5.61081C5.45967 6.87773 5.83153 8.1426 6.18678 9.41223C5.60164 9.25898 5.02627 9.06451 4.43657 8.93203C4.43267 8.63949 4.42876 8.34694 4.40206 8.05507C4.40564 7.75707 4.35875 7.46214 4.3568 7.16449C4.74591 7.24111 5.12982 7.34499 5.51959 7.41787C5.35905 6.89033 5.20113 6.36177 5.04939 5.8315C5.02432 5.76203 5.00999 5.66701 4.92696 5.651C4.71628 5.58323 4.50072 5.5318 4.28353 5.49264C4.28288 5.52124 4.28158 5.57846 4.28093 5.60707C4.27637 5.52499 4.26855 5.44325 4.26432 5.36152Z" fill="#CBD0D4"/>
<path d="M8.4049 2.8832C8.5345 2.78921 8.67256 2.70849 8.80802 2.62369C8.85784 2.91045 8.668 3.15838 8.46189 3.31913C8.43681 3.17473 8.41956 3.02897 8.4049 2.8832Z" fill="#48CA27"/>
<path d="M10.3479 3.33752C10.4576 3.54697 10.5836 3.74722 10.68 3.96383C10.4892 3.93386 10.2997 3.89469 10.1099 3.85893C10.1955 3.68865 10.2802 3.517 10.3479 3.33752Z" fill="#48CA27"/>
<path d="M2.94849 6.28752C3.36007 6.0103 3.76905 5.72797 4.1865 5.46028C4.19887 5.73478 4.2298 6.0086 4.22622 6.28378C4.24315 6.57769 4.26562 6.87126 4.26106 7.16585C3.82734 7.47713 3.38808 7.78023 2.95337 8.09015C2.94393 7.48939 2.93546 6.88794 2.94849 6.28752Z" fill="#48CA27"/>
<path d="M4.28353 5.49264C4.50072 5.5318 4.71628 5.58323 4.92696 5.651C5.00999 5.66701 5.02432 5.76203 5.04939 5.8315C5.20113 6.36177 5.35905 6.89033 5.51959 7.41787C5.12982 7.34499 4.74591 7.24111 4.3568 7.16449C4.35093 6.96117 4.32358 6.75955 4.32228 6.55623C4.31967 6.23916 4.28321 5.92379 4.28093 5.60707C4.28158 5.57846 4.28288 5.52124 4.28353 5.49264Z" fill="#48CA27"/>
<path d="M11.4452 7.37359C11.8086 7.4349 12.1671 7.52583 12.5318 7.57793C12.6735 7.86197 12.818 8.1443 12.9538 8.43174C12.6536 8.37452 12.3566 8.30198 12.0561 8.24647C11.9799 8.22808 11.8975 8.21957 11.8311 8.17325C11.7835 8.11467 11.7542 8.04349 11.722 7.97538C11.6321 7.77376 11.526 7.57964 11.4452 7.37359Z" fill="#48CA27"/>
<path d="M10.5608 8.21241C10.8262 7.93723 11.101 7.67295 11.3746 7.40663C11.4921 7.66989 11.6243 7.92566 11.7438 8.18755C11.4875 8.43174 11.2069 8.64562 10.9447 8.88299C10.6243 9.15272 10.316 9.43846 9.98937 9.70001C9.88289 9.49635 9.79009 9.28588 9.69859 9.07473C9.98025 8.78116 10.2701 8.49611 10.5608 8.21241Z" fill="#48CA27"/>
</svg>
