<svg width="24" height="10" viewBox="0 0 24 10" fill="none" xmlns="http://www.w3.org/2000/svg">
<g opacity="0.93">
<path d="M0.296203 7.37645C1.13198 6.99858 2.05301 6.91695 2.95219 6.86337C4.96537 6.95123 6.97846 7.04453 8.99138 7.13604C9.65012 7.18964 10.3247 7.12894 10.9681 7.31548C11.3785 7.42035 11.7424 7.65998 12.1505 7.76566C12.4215 7.92748 12.7474 7.93141 13.0519 7.93017C13.0582 7.95488 13.0718 8.00361 13.0781 8.02773C13.2059 7.98515 13.3378 7.95485 13.4578 8.03727C13.7074 7.95393 13.9517 8.10326 14.2033 8.04928C14.3765 8.03306 14.5614 7.98555 14.7287 8.05854C14.8125 8.13182 14.8353 8.2695 14.9452 8.31129C15.078 8.3816 15.2341 8.32966 15.3703 8.37974C15.4972 8.50008 15.5701 8.72336 15.7709 8.72435C15.8408 8.68922 15.8848 8.6168 15.9442 8.56702C16.0607 8.59128 16.1534 8.68116 16.2646 8.72403C16.3777 8.76129 16.4714 8.66777 16.5679 8.62522C16.6609 8.72353 16.7324 8.86674 16.8794 8.8826C17.0004 8.93056 17.1182 8.86605 17.2329 8.83199C17.3248 8.92437 17.3645 9.06343 17.4676 9.14507C17.8678 9.37575 18.3268 9.44694 18.7742 9.5054C19.0161 9.51808 19.2708 9.47886 19.4952 9.59998C19.6582 9.68968 19.8427 9.68261 20.0223 9.68024C20.0259 9.7004 20.0335 9.73946 20.0376 9.75956C19.8513 9.73304 19.6678 9.75749 19.4856 9.7963C18.9573 9.78008 18.4305 9.70281 17.9012 9.72105C17.3729 9.6789 16.8514 9.84836 16.3243 9.78136C16.1034 9.7377 15.9902 10.0213 15.7753 9.99872C15.5411 9.98831 15.2946 9.98934 15.0793 9.87999C14.9785 9.83008 14.9058 9.73705 14.8081 9.68322C14.6173 9.63964 14.4205 9.62559 14.2253 9.62224C14.002 9.62343 13.8668 9.8434 13.671 9.9173C13.512 9.9237 13.3629 9.83326 13.2028 9.83373C12.87 9.81781 12.5382 9.78009 12.2064 9.76107C11.8583 9.78161 11.4369 9.79843 11.179 9.51172C11.0515 9.48792 10.9219 9.518 10.7945 9.52676C10.4684 9.5723 10.1378 9.48924 9.81359 9.55571C9.46678 9.66719 9.18315 9.97153 8.80426 9.97155C8.32683 9.992 7.86614 9.82448 7.42923 9.6438C7.23351 9.68694 7.06157 9.83329 6.85415 9.81726C6.54087 9.80487 6.22318 9.76277 5.93118 9.63857C5.80961 9.59007 5.69204 9.52793 5.56466 9.49869C5.36135 9.56065 5.17276 9.69596 4.95076 9.66626C4.59313 9.63166 4.22605 9.56299 3.91093 9.37531C3.81241 9.31854 3.70515 9.28072 3.6033 9.23212C3.50307 9.18216 3.46022 9.04763 3.34446 9.0251C2.98825 8.92885 2.59507 8.94413 2.26416 9.1228C2.15778 9.19163 2.02496 9.15991 1.95508 9.05393C1.97304 8.9955 1.99639 8.93896 2.01439 8.88113C1.75675 8.60344 1.37498 8.68756 1.04512 8.65207C0.88681 8.53056 0.866874 8.27018 0.672519 8.18654C0.438215 8.06518 0.159525 7.97285 0.0124848 7.73145C-0.0553536 7.53844 0.169497 7.45147 0.296203 7.37645Z" fill="black" fill-opacity="0.2"/>
<path d="M0.808288 0.0371816C0.985645 -0.0150539 1.17109 0.00355834 1.35307 0.00295794C2.97066 0.00295794 4.58826 0.00295794 6.20585 0.00295794C6.49644 0.0107632 6.79281 -0.0306635 7.07589 0.0587972C8.38441 0.0684038 9.6935 0.0611987 11.002 0.0623995C11.1378 0.0684036 11.266 0.133847 11.4035 0.125442C12.6369 0.119438 13.8704 0.127242 15.1038 0.121238C15.2603 0.112833 15.4065 0.193287 15.5631 0.184881C15.9496 0.18308 16.3355 0.183081 16.7214 0.18188C16.9496 0.166269 17.1408 0.3584 17.2257 0.563139C17.2581 0.812909 17.2407 1.06928 17.2367 1.32145C17.1905 1.51358 17.157 1.71172 17.1899 1.91045C17.2309 1.92126 17.3135 1.94288 17.3551 1.95368L17.3748 2.00532C17.3366 2.07917 17.306 2.15902 17.2563 2.22567C17.1645 2.27971 17.0507 2.29291 16.9721 2.37037C17.0027 2.4136 17.0339 2.45683 17.0663 2.49945C17.0218 2.58471 16.9744 2.66937 16.9473 2.76303C16.8069 3.24096 16.6844 3.72549 16.5221 4.1962L16.4776 4.1932C16.4458 3.87018 16.4626 3.51654 16.2667 3.24216C16.1315 3.55737 16.113 3.90921 15.9935 4.22923C15.9126 4.43697 15.6549 4.42856 15.5157 4.57566C15.3874 4.67653 15.2488 4.87467 15.0674 4.79301C14.9784 4.75458 15.0137 4.64591 15.0009 4.56966C14.8167 4.60508 14.6341 4.69995 14.4435 4.65552C14.2465 4.61349 14.0385 4.58587 13.8663 4.47119C13.7658 4.40575 13.6595 4.34871 13.5451 4.31569C13.797 4.10374 14.0604 3.86958 14.1644 3.53816C14.3279 3.04883 14.2251 2.48985 13.8912 2.10379C13.9703 2.01973 13.8588 1.95068 13.8172 1.88283C13.6133 1.65588 13.7022 1.31905 13.7427 1.04527C13.589 0.725249 13.217 0.745663 12.9345 0.649598C12.5884 0.540924 12.2239 0.546927 11.8669 0.558335C11.6161 0.566741 11.3689 0.509703 11.1187 0.500696C10.5589 0.494692 9.99911 0.510903 9.43989 0.494692C8.7709 0.384217 8.09151 0.462871 7.41789 0.431049C7.22667 0.415438 7.0366 0.378213 6.84365 0.380014C6.09147 0.387219 5.33929 0.374011 4.5871 0.379415C4.31673 0.380616 4.05156 0.310368 3.78119 0.315772C3.10585 0.319374 2.42993 0.321175 1.75516 0.319374C1.53794 0.305565 1.30743 0.274943 1.12199 0.147656C1.19709 0.136849 1.27277 0.127844 1.34845 0.120639C2.23524 0.0828135 3.12318 0.117637 4.01055 0.101426C4.34042 0.0858151 4.66163 0.204695 4.99324 0.166269C5.87367 0.175275 6.75468 0.15306 7.63454 0.175275L7.63511 0.132047C7.33413 0.130246 7.03141 0.169271 6.73157 0.128443C6.17639 0.0287752 5.61197 0.113433 5.05274 0.0876156C3.82163 0.0672018 2.58937 0.103826 1.35885 0.0684022C1.03937 0.0527916 0.732029 0.209499 0.411399 0.148257C0.514232 0.0335795 0.676569 0.0798106 0.808288 0.0371816ZM7.72408 0.132646L7.72004 0.175275C7.99099 0.120037 8.24633 0.251527 8.51555 0.232314C9.53694 0.219706 10.5589 0.22691 11.5803 0.222707C11.7178 0.221507 11.8472 0.279747 11.9836 0.286951C12.522 0.286951 13.061 0.274942 13.5994 0.293555L13.6052 0.351195C13.7976 0.375812 13.9928 0.374611 14.1864 0.355998L14.1812 0.294757C14.9079 0.277345 15.6353 0.277945 16.3615 0.295957L16.3591 0.252129C15.8444 0.274344 15.3291 0.255729 14.8138 0.265336C14.6376 0.275543 14.4706 0.202894 14.2956 0.201693C13.1199 0.207096 11.9437 0.199892 10.7675 0.204095C10.6306 0.203494 10.5011 0.15186 10.3654 0.142854C9.48495 0.138051 8.60394 0.155462 7.72408 0.132646ZM14.5243 0.605167L14.5266 0.66881C14.6774 0.696429 14.834 0.69703 14.9848 0.665809L14.9888 0.602166C14.8357 0.570944 14.6768 0.570343 14.5243 0.605167ZM15.8588 2.54148C16.0501 2.55049 15.7699 2.7216 15.8588 2.54148Z" fill="#B8253A"/>
<path d="M17.1061 2.51867C17.15 2.47784 17.1945 2.43701 17.239 2.39738C17.135 2.83388 16.9981 3.26257 16.8566 3.68826C16.7728 3.92242 16.7549 4.17999 16.6289 4.39794C16.622 4.32349 16.6058 4.24784 16.6272 4.17459C16.782 3.62161 16.9761 3.07885 17.1061 2.51867Z" fill="#B8253A"/>
<path d="M13.8975 2.62494C14.1061 3.05123 13.9622 3.61921 13.6098 3.91702C13.5711 3.87739 13.533 3.83776 13.4943 3.79873C13.6433 3.7531 13.6601 3.58619 13.6924 3.4535C13.7288 3.27638 13.7901 3.10707 13.8334 2.93235C13.8756 2.84048 13.8195 2.75102 13.7236 2.75042C13.7791 2.70479 13.8386 2.66517 13.8975 2.62494Z" fill="#B8253A"/>
<path d="M0.730874 3.18392L0.774202 3.17911C0.764381 3.27818 0.807709 3.31901 0.904765 3.3022C1.03764 3.65644 1.0463 4.0413 1.14972 4.40335C1.19767 4.59968 1.27623 4.79481 1.25659 5.00195C1.04746 4.89508 0.852193 4.74318 0.61071 4.73057C0.582979 4.49341 0.608976 4.25504 0.66097 4.02389C0.652882 3.74049 0.738962 3.46731 0.730874 3.18392Z" fill="#B8253A"/>
<path d="M17.5966 4.57926C17.6388 4.57446 17.7231 4.56545 17.7653 4.56065C17.7029 4.60388 17.6411 4.64891 17.5833 4.69875C17.7722 4.86746 18.0559 4.76299 18.2806 4.74978C18.1766 4.65792 18.0426 4.61889 17.9161 4.57386C17.9663 4.57266 18.0674 4.56966 18.1177 4.56846C18.2061 4.57026 18.2945 4.57266 18.3835 4.57446C18.3898 4.64471 18.3985 4.71556 18.4106 4.7858C18.6492 4.86266 18.8924 4.9263 19.1316 5.00315C19.1541 5.00856 19.1992 5.01936 19.2211 5.02477L19.2506 5.03197C19.3344 5.05719 19.4193 5.08661 19.5083 5.08721L19.5493 5.08901L19.5938 5.09141C19.6122 5.10822 19.6486 5.14185 19.6671 5.15926L19.6995 5.17787C19.7203 5.18628 19.7613 5.20309 19.7821 5.21149C19.9496 5.27874 20.127 5.30816 20.2974 5.3658C20.3072 5.44445 20.2945 5.52851 20.2425 5.58975C20.0548 5.68822 20.0109 5.90677 19.9075 6.07668C19.7035 6.22498 19.4395 6.16734 19.2073 6.18415C19.183 6.48556 19.1299 6.78576 19.1483 7.08897C19.1663 7.37116 19.0709 7.64555 19.0865 7.92774C19.0808 8.1661 19.1356 8.42788 19.0149 8.64583C18.9305 8.66024 18.8439 8.65063 18.763 8.62481C18.7318 8.41107 18.7982 8.19972 18.8156 7.98838C18.8601 7.93134 18.9236 7.83708 18.8578 7.77103C18.8416 7.78004 18.8081 7.79805 18.7913 7.80646C18.7434 7.85569 18.6902 7.89952 18.6313 7.93374C18.2569 7.91753 17.8808 7.88811 17.51 7.83948C17.4944 7.80405 17.4632 7.73441 17.4476 7.69898C17.2956 7.66896 17.135 7.67497 16.9964 7.59451C16.9773 7.26609 17.012 6.93466 16.9507 6.60924C17.0108 6.63866 17.0703 6.67108 17.1316 6.6999C17.1864 6.48076 17.1766 6.2532 17.2032 6.03045C17.3563 5.9554 17.5256 5.92418 17.6885 5.87614C17.8537 5.8077 18.0507 6.01004 18.1813 5.82751C18.0819 5.72244 17.9351 5.73625 17.8081 5.70743C17.5076 5.63478 17.3135 5.35019 17.0356 5.23551C17.0177 5.38441 17.0328 5.53932 16.9894 5.68461C16.9357 5.72064 16.8791 5.75066 16.8271 5.78849C16.8485 5.94159 16.8323 6.09349 16.778 6.23879C16.6653 6.60384 16.8941 6.96408 16.8363 7.32913C16.7468 7.31412 16.6596 7.29191 16.5712 7.27389C16.6139 7.38257 16.6607 7.49004 16.6856 7.60532C16.6463 7.60712 16.5683 7.61072 16.5296 7.61192C16.5654 7.67437 16.6122 7.729 16.6671 7.77523C16.5706 7.82867 16.4712 7.8767 16.369 7.91693C16.4106 7.66776 16.3823 7.41619 16.3892 7.16522C16.2424 6.87943 16.3511 6.55581 16.3834 6.255C16.4527 6.18836 16.4574 6.08749 16.425 6.00103C16.4689 5.82451 16.4631 5.64199 16.4331 5.46366L16.4389 5.40723C16.4533 5.35079 16.4689 5.29435 16.4851 5.23851C16.6538 5.25232 16.8514 5.27574 16.9831 5.13764C17.042 5.03197 17.0767 4.91489 17.12 4.80202C17.2754 4.72036 17.4314 4.6387 17.5966 4.57926ZM18.0692 6.13612C17.9814 6.22318 17.9866 6.36368 17.9912 6.48015C18.0669 6.48556 18.1425 6.49036 18.2188 6.49517C18.2211 6.59783 18.0588 6.52459 17.9952 6.55821C17.9947 6.59964 17.9935 6.68189 17.9923 6.72332C18.2228 6.73893 18.4551 6.73893 18.6862 6.72572C18.7289 6.58883 18.6053 6.60924 18.5169 6.59963C18.5377 6.5492 18.5885 6.52699 18.6694 6.53299C18.7 6.41891 18.7226 6.30363 18.7416 6.18716C18.6261 6.17875 18.5094 6.17815 18.3944 6.18896C18.3494 6.32945 18.4794 6.30544 18.5695 6.31684C18.4713 6.44233 18.187 6.40991 18.1102 6.31324C18.1853 6.30904 18.2616 6.30484 18.3372 6.30063C18.3355 6.26041 18.332 6.17935 18.3303 6.13852C18.2436 6.12651 18.1553 6.11871 18.0692 6.13612ZM18.8705 7.41259C18.8202 7.48764 18.8323 7.53327 18.9069 7.54948C18.9565 7.47443 18.9444 7.4288 18.8705 7.41259Z" fill="#B8253A"/>
<path d="M14.1298 5.41803C14.2309 5.35199 14.2453 5.50629 14.2592 5.57234C14.3273 5.96861 14.2366 6.37629 14.3158 6.77195C14.3273 6.88363 14.3793 7.00371 14.332 7.11299C14.2794 7.14841 14.2274 7.18563 14.1771 7.22466C14.1153 7.35015 14.2199 7.45882 14.2753 7.56029C14.2095 7.59151 14.139 7.61372 14.0668 7.62093C14.0806 7.4264 14.0824 7.23247 14.0957 7.03854C14.0552 6.72872 14.0194 6.40931 14.0899 6.1013C14.1425 5.87675 14.0887 5.64379 14.1298 5.41803Z" fill="#B8253A"/>
<path d="M1.32303 6.62666C1.21038 6.57982 1.2046 6.52639 1.3057 6.46515C1.35942 6.51318 1.3652 6.56661 1.32303 6.62666Z" fill="#B8253A"/>
<path d="M13.7808 7.20545C13.8241 7.20485 13.9108 7.20245 13.9541 7.20125C13.9536 7.24868 13.9518 7.34414 13.9507 7.39157C13.9091 7.39037 13.8259 7.38797 13.7843 7.38677C13.7837 7.34174 13.782 7.25108 13.7808 7.20545Z" fill="#B8253A"/>
<path d="M18.3286 8.88539C18.2904 8.57558 18.2968 8.15589 18.6353 8.03041C18.6452 8.18231 18.6475 8.33482 18.6515 8.48732C18.6469 8.52514 18.6376 8.6014 18.633 8.63982C18.6469 8.80614 18.4638 8.88779 18.3286 8.88539Z" fill="#B8253A"/>
<path d="M0.411399 0.148257C0.732029 0.209499 1.03937 0.0527916 1.35885 0.0684022L1.34845 0.120639C1.27277 0.127844 1.19709 0.136849 1.12199 0.147656C1.30743 0.274943 1.53794 0.305565 1.75516 0.319374C2.42993 0.321175 3.10585 0.319374 3.78119 0.315772C4.05156 0.310368 4.31673 0.380616 4.5871 0.379415C5.33929 0.374011 6.09147 0.387219 6.84365 0.380014C7.0366 0.378213 7.22667 0.415438 7.41789 0.431049C8.09151 0.462871 8.7709 0.384217 9.43989 0.494692C9.99911 0.510903 10.5589 0.494692 11.1187 0.500696C11.3689 0.509703 11.6161 0.566741 11.8669 0.558335C12.2239 0.546927 12.5884 0.540924 12.9345 0.649598C13.217 0.745663 13.589 0.725249 13.7427 1.04527C13.7022 1.31905 13.6133 1.65588 13.8172 1.88283C13.8588 1.95068 13.9703 2.01973 13.8912 2.10379C13.7964 2.10499 13.7017 2.10558 13.6075 2.11579C13.6306 2.30432 13.8322 2.43821 13.8975 2.62494C13.8386 2.66517 13.7791 2.70479 13.7236 2.75042C13.6092 2.84649 13.5099 2.96837 13.3701 3.02661C13.1396 2.81527 13.0991 2.44722 12.8513 2.25809C12.6549 2.46523 12.5988 2.76543 12.4243 2.98879C12.2377 2.98518 12.1615 2.7162 11.9841 2.7114C11.9992 3.05123 12.0737 3.39166 12.1788 3.71348C12.3377 3.69847 12.4665 3.58259 12.6225 3.55797C12.9275 3.52075 13.2638 3.56938 13.4943 3.79873C13.533 3.83776 13.5711 3.87739 13.6098 3.91702C13.336 4.18059 12.9218 4.29587 12.5694 4.14457C12.0367 3.96685 11.7507 3.32081 11.8645 2.77084C11.8981 2.52287 12.0743 2.34215 12.1967 2.13921C12.1413 2.11099 12.087 2.08157 12.0338 2.05095C12.1378 2.02993 12.2441 2.01913 12.3475 1.99571C12.3631 1.94768 12.3747 1.89904 12.3822 1.84921C12.2418 1.82339 12.0985 1.79998 11.9558 1.81319C11.9957 2.17824 11.6589 2.4148 11.6514 2.76723C11.6421 3.008 11.626 3.25777 11.6901 3.49193C11.7802 3.69126 11.9113 3.86718 12.0194 4.05631C12.1066 4.21182 12.2788 4.27186 12.4272 4.3445C12.7796 4.51502 13.1939 4.46339 13.5451 4.31569C13.6595 4.34871 13.7658 4.40575 13.8663 4.47119C14.0385 4.58587 14.2465 4.61349 14.4435 4.65552C14.6341 4.69995 14.8167 4.60508 15.0009 4.56966C15.0137 4.64591 14.9784 4.75458 15.0674 4.79301C15.2488 4.87467 15.3874 4.67653 15.5157 4.57566C15.6549 4.42856 15.9126 4.43697 15.9935 4.22923C16.113 3.90921 16.1315 3.55737 16.2667 3.24216C16.4626 3.51654 16.4458 3.87018 16.4776 4.1932L16.5221 4.1962C16.6844 3.72549 16.8069 3.24096 16.9473 2.76303C16.9744 2.66937 17.0218 2.58471 17.0663 2.49945L17.1061 2.51867C16.9761 3.07885 16.782 3.62161 16.6272 4.17459C16.6058 4.24784 16.622 4.32349 16.6289 4.39794L16.6318 4.43217L16.6029 4.44718C16.5319 4.4808 16.4446 4.51142 16.4291 4.60268C16.3719 4.80622 16.3025 5.00675 16.2546 5.21329C16.2812 5.2163 16.3343 5.2223 16.3609 5.2253C16.3921 5.22891 16.4539 5.23551 16.4851 5.23851C16.4689 5.29435 16.4533 5.35079 16.4389 5.40723C16.2731 5.33158 16.0876 5.3724 15.9132 5.3652L15.8756 5.35739C15.6266 5.26433 15.3585 5.31537 15.1003 5.31056L15.0639 5.29795C14.8328 5.19648 14.5758 5.24932 14.3348 5.26973L14.295 5.25652C14.2875 5.24091 14.273 5.21089 14.2655 5.19588C14.3192 5.16526 14.373 5.13524 14.4273 5.10582C14.3718 5.074 14.3129 5.05599 14.2511 5.05299C14.2181 5.11003 14.1864 5.16827 14.1569 5.22771C14.0333 5.34959 13.8698 5.45526 13.8351 5.64139C13.7427 6.02084 13.7947 6.47115 13.5266 6.78156C13.3435 6.83079 13.1523 6.80498 12.9657 6.80858C12.7288 6.80017 12.4856 6.82959 12.2551 6.75934C12.3799 6.65848 12.1927 6.59724 12.1574 6.72272C11.9766 6.73053 11.7923 6.74013 11.6173 6.68189C11.5959 6.58163 11.5624 6.57682 11.5162 6.66628C11.3706 6.66808 11.2221 6.66328 11.0904 6.59363C11.0829 6.59243 11.0679 6.59063 11.0604 6.58943C11.0217 6.59363 10.9448 6.60144 10.9061 6.60504C10.9616 6.51138 11.0176 6.3997 10.9541 6.29343C10.4567 5.20729 9.99507 4.10314 9.47339 3.02901C9.40349 2.87291 9.33012 2.7174 9.23076 2.57931C9.27871 2.99959 9.4526 3.38625 9.55947 3.79153C9.71777 4.21121 9.77785 4.66212 9.93788 5.08181C10.0731 5.44445 10.0985 5.87975 10.3966 6.15293C10.5312 6.27422 10.6496 6.47055 10.5352 6.65067C10.2262 6.66028 9.91881 6.71732 9.64786 6.88123L9.59991 6.87522C9.32492 6.78156 9.08171 6.58943 8.78592 6.56721C8.4624 6.5426 8.12559 6.48736 7.81132 6.60084C7.69404 6.62485 7.56752 6.6957 7.44967 6.64647C7.30697 6.52639 7.19085 6.34987 6.99848 6.31384C6.58541 6.2478 6.16772 6.22798 5.75293 6.18295C5.54322 6.21658 5.36702 6.35407 5.16539 6.41531C4.93893 6.35587 4.76388 6.15654 4.52529 6.13672C4.33522 6.11931 4.14689 6.08869 3.95682 6.07548C3.71245 6.06467 3.46981 6.26521 3.23179 6.16794C3.02844 5.99683 2.81642 5.83231 2.55587 5.77047C2.52294 5.67921 2.48654 5.67741 2.44726 5.76507C2.36522 5.78188 2.28376 5.79929 2.20231 5.8155C2.11161 5.80169 2.04575 5.72424 1.96776 5.68221C1.96256 5.68101 1.95216 5.67921 1.94754 5.67861C1.73205 5.72184 1.47959 5.65099 1.30743 5.5117C1.30628 5.33938 1.2537 5.17307 1.25659 5.00195C1.27623 4.79481 1.19767 4.59968 1.14972 4.40335C1.0463 4.0413 1.03764 3.65644 0.904765 3.3022C0.90592 3.20613 0.862592 3.16471 0.774202 3.17911L0.730874 3.18392C0.629196 2.61533 0.423531 2.06956 0.321276 1.50037C0.349584 1.19537 0.233464 0.907171 0.254262 0.603365C0.251951 0.444257 0.25195 0.261734 0.376158 0.146455L0.411399 0.148257ZM1.9562 2.01492C1.92501 2.09898 1.87994 2.19925 1.92905 2.28631C1.99202 2.44842 2.19595 2.35595 2.32305 2.39678C2.39989 2.45322 2.4617 2.54929 2.568 2.53728C2.69856 2.55769 2.82277 2.4208 2.83721 2.29471C2.78522 2.18304 2.70087 2.05275 2.56569 2.05935C2.36291 2.04314 2.16013 2.01312 1.9562 2.01492ZM5.75119 2.17343C5.74657 2.36556 5.75004 2.55769 5.76333 2.74922C6.03947 2.79605 6.3214 2.73901 6.59697 2.77984C6.85982 2.85429 7.13655 2.83568 7.40461 2.80986C7.40749 2.61773 7.3971 2.425 7.36128 2.23647C7.04585 2.19204 6.72464 2.26289 6.4121 2.19385C6.1943 2.15062 5.9713 2.16443 5.75119 2.17343ZM4.18848 4.20581C4.17288 4.41956 4.16653 4.6369 4.19253 4.85065C4.30634 5.01096 4.53569 4.91129 4.69687 4.91009C4.71189 4.74678 4.61714 4.60208 4.59577 4.44357C4.58826 4.23643 4.34793 4.1902 4.18848 4.20581ZM9.21516 4.6321C9.21227 4.67473 9.20534 4.75999 9.20245 4.80202C9.0586 4.90949 9.06149 5.10282 9.02393 5.26493C8.98812 5.44445 8.92168 5.62157 8.93728 5.8089C9.08691 5.84012 9.22556 5.79089 9.32897 5.67801C9.40234 5.69542 9.49477 5.8149 9.54676 5.70503C9.52077 5.64859 9.45664 5.60656 9.45895 5.54052C9.53232 5.47387 9.61262 5.41443 9.67559 5.33698C9.70159 5.33638 9.75359 5.33458 9.77958 5.33338C9.78883 5.16706 9.7091 5.01576 9.68946 4.85365C9.66866 4.7774 9.67386 4.67713 9.60107 4.6309C9.4734 4.61229 9.34283 4.61649 9.21516 4.6321ZM4.48543 5.59876C4.40108 5.60296 4.37508 5.76387 4.47098 5.77107C4.55591 5.76747 4.57959 5.60476 4.48543 5.59876ZM5.70151 6.02385C5.7304 6.05387 5.7304 6.05387 5.70151 6.02385ZM6.10591 6.08389C6.1348 6.11391 6.1348 6.11391 6.10591 6.08389ZM9.45549 6.08269C9.37865 6.13972 9.45375 6.30784 9.54272 6.23519C9.6184 6.17755 9.5433 6.01064 9.45549 6.08269ZM6.68478 6.13072C6.85867 6.03825 6.69344 6.32945 6.68478 6.13072ZM7.31911 6.19376C7.49184 6.1001 7.3295 6.3919 7.31911 6.19376Z" fill="#8D1D29"/>
<path d="M16.4626 4.84404C16.4966 4.72516 16.5388 4.60929 16.5856 4.49521C16.752 4.49701 16.919 4.49821 17.0836 4.52943C17.0894 4.52883 17.1004 4.52883 17.1061 4.52883C17.2696 4.4808 17.4441 4.50241 17.5966 4.57926C17.4314 4.6387 17.2754 4.72036 17.12 4.80202C16.9016 4.82663 16.6821 4.84164 16.4626 4.84404Z" fill="#8D1D29"/>
<path d="M17.0356 5.23551C17.3135 5.35019 17.5076 5.63478 17.8081 5.70743C17.9351 5.73625 18.0819 5.72244 18.1813 5.82751C18.0507 6.01004 17.8537 5.8077 17.6885 5.87614C17.5256 5.92418 17.3563 5.9554 17.2032 6.03045C17.1766 6.2532 17.1864 6.48076 17.1316 6.6999C17.0703 6.67108 17.0108 6.63866 16.9507 6.60924C17.012 6.93466 16.9773 7.26609 16.9964 7.59451C16.8854 7.65335 16.7774 7.71579 16.6671 7.77523C16.6122 7.729 16.5654 7.67437 16.5296 7.61192C16.5683 7.61072 16.6463 7.60712 16.6856 7.60532C16.6607 7.49004 16.6139 7.38257 16.5712 7.27389C16.6596 7.29191 16.7468 7.31412 16.8363 7.32913C16.8941 6.96408 16.6653 6.60384 16.778 6.23879C16.8323 6.09349 16.8485 5.94159 16.8271 5.78849C16.8791 5.75066 16.9357 5.72064 16.9894 5.68461C17.0328 5.53932 17.0177 5.38441 17.0356 5.23551Z" fill="#8D1D29"/>
<path d="M17.6671 7.99619C17.9877 7.93194 18.3182 7.98177 18.6434 7.97337C18.7122 8.13668 18.7093 8.32041 18.6515 8.48732C18.6475 8.33482 18.6452 8.18231 18.6353 8.03041C18.2968 8.15589 18.2904 8.57558 18.3286 8.88539C18.079 8.92622 17.8421 8.81274 17.5937 8.81994C17.5804 8.64222 17.5793 8.4639 17.5839 8.28618C17.607 8.18772 17.6295 8.08925 17.6671 7.99619Z" fill="#8D1D29"/>
<path d="M1.35885 0.0684022C2.58937 0.103826 3.82163 0.0672018 5.05274 0.0876156C5.61197 0.113433 6.17639 0.0287752 6.73157 0.128443C7.03141 0.169271 7.33413 0.130246 7.63511 0.132047L7.63454 0.175275C6.75468 0.15306 5.87367 0.175275 4.99324 0.166269C4.66163 0.204695 4.34042 0.0858151 4.01055 0.101426C3.12318 0.117637 2.23524 0.0828135 1.34845 0.120639L1.35885 0.0684022Z" fill="#252329"/>
<path d="M7.72408 0.132646C8.60394 0.155462 9.48495 0.138051 10.3654 0.142854C10.5011 0.15186 10.6306 0.203494 10.7675 0.204095C11.9437 0.199892 13.1199 0.207096 14.2956 0.201693C14.4706 0.202894 14.6376 0.275543 14.8138 0.265336C15.3291 0.255729 15.8444 0.274344 16.3591 0.252129L16.3615 0.295957C15.6353 0.277945 14.9079 0.277345 14.1812 0.294757C13.9871 0.300161 13.793 0.299559 13.5994 0.293555C13.061 0.274942 12.522 0.286951 11.9836 0.286951C11.8472 0.279747 11.7178 0.221507 11.5803 0.222707C10.5589 0.22691 9.53694 0.219706 8.51555 0.232314C8.24633 0.251527 7.99099 0.120037 7.72004 0.175275L7.72408 0.132646Z" fill="#252329"/>
<path d="M17.3748 2.00532C17.5591 1.96029 17.6625 1.71952 17.8589 1.74834C17.9866 1.84681 17.9669 2.09838 17.8323 2.18604C17.7202 2.28871 17.596 2.14521 17.4828 2.11879C17.3829 2.19264 17.332 2.31573 17.239 2.39738C17.1945 2.43701 17.15 2.47784 17.1061 2.51867L17.0663 2.49945C17.0339 2.45683 17.0027 2.4136 16.9721 2.37037C17.0507 2.29291 17.1645 2.27971 17.2563 2.22567C17.306 2.15902 17.3366 2.07917 17.3748 2.00532ZM17.722 1.88103C17.6613 1.89424 17.5775 1.96809 17.6134 2.03774C17.7064 2.1284 17.8502 1.91946 17.722 1.88103ZM17.8277 1.88643C17.7774 1.96149 17.7896 2.00712 17.8647 2.02333C17.9143 1.94828 17.9022 1.90265 17.8277 1.88643ZM17.7185 2.1218C17.7474 2.15242 17.7474 2.15242 17.7185 2.1218Z" fill="#0A0A0A"/>
<path d="M9.23076 2.57931C9.33012 2.7174 9.40349 2.87291 9.47339 3.02901C9.99507 4.10314 10.4567 5.20729 10.9541 6.29343C11.0176 6.3997 10.9616 6.51138 10.9061 6.60504C10.9448 6.60144 11.0217 6.59363 11.0604 6.58943L11.0904 6.59363C11.2221 6.66328 11.3706 6.66808 11.5162 6.66628C11.5416 6.66988 11.5919 6.67829 11.6173 6.68189C11.7923 6.74013 11.9766 6.73053 12.1574 6.72272C12.1823 6.73173 12.2308 6.75034 12.2551 6.75934C12.4856 6.82959 12.7288 6.80017 12.9657 6.80858C13.1523 6.80498 13.3435 6.83079 13.5266 6.78156C13.7947 6.47115 13.7427 6.02084 13.8351 5.64139C13.8698 5.45526 14.0333 5.34959 14.1569 5.22771C14.2031 5.23611 14.2488 5.24572 14.295 5.25652L14.3348 5.26973C14.5607 5.37721 14.8259 5.33398 15.0639 5.29795L15.1003 5.31056C15.1425 5.33638 15.1754 5.39462 15.2303 5.39102C15.4458 5.38982 15.6647 5.41383 15.8756 5.35739L15.9132 5.3652C15.916 5.38501 15.9218 5.42524 15.9247 5.44505C16.094 5.45106 16.2644 5.44085 16.4331 5.46366C16.4631 5.64199 16.4689 5.82451 16.425 6.00103C16.3516 6.06467 16.343 6.16794 16.3834 6.255C16.3511 6.55581 16.2424 6.87943 16.3892 7.16522C16.3823 7.41619 16.4106 7.66776 16.369 7.91693C16.4712 7.8767 16.5706 7.82867 16.6671 7.77523C16.7774 7.71579 16.8854 7.65335 16.9964 7.59451C17.135 7.67497 17.2956 7.66896 17.4476 7.69898C17.4632 7.73441 17.4944 7.80405 17.51 7.83948C17.8808 7.88811 18.2569 7.91753 18.6313 7.93374L18.6434 7.97337C18.3182 7.98177 17.9877 7.93194 17.6671 7.99619C17.6295 8.08925 17.607 8.18772 17.5839 8.28618C17.3511 8.30299 17.116 8.29939 16.8901 8.23455C16.7144 8.23515 16.54 8.22194 16.3701 8.1739C16.1945 8.1733 16.0206 8.1601 15.8508 8.11386C15.5787 8.12827 15.3198 8.02741 15.0483 8.04302C14.7774 7.97877 14.4718 7.92534 14.2222 8.08444C14.0939 8.12407 14.0818 7.90252 13.957 7.93194C13.8559 7.95656 13.7664 8.0166 13.6653 8.03941C13.6352 7.98898 13.6052 7.93855 13.5752 7.88931C13.3412 7.82627 13.102 7.80706 12.8623 7.79445C12.6283 7.71159 12.3758 7.78604 12.1424 7.69958C12.002 7.65335 11.8466 7.68938 11.7652 7.82267C11.5768 8.09705 11.2366 8.13788 10.9512 8.23695C10.7334 8.34082 10.4682 8.27958 10.277 8.14629C10.5323 7.99498 10.8495 7.8671 10.9939 7.58791C10.8108 7.5747 10.6196 7.61853 10.4416 7.56029C10.24 7.44681 10.184 7.19584 10.0488 7.02232C9.90437 7.00551 9.7507 7.00431 9.64786 6.88123C9.91881 6.71732 10.2262 6.66028 10.5352 6.65067C10.6496 6.47055 10.5312 6.27422 10.3966 6.15293C10.0985 5.87975 10.0731 5.44445 9.93788 5.08181C9.77785 4.66212 9.71777 4.21121 9.55947 3.79153C9.4526 3.38625 9.27871 2.99959 9.23076 2.57931ZM14.1298 5.41803C14.0887 5.64379 14.1425 5.87675 14.0899 6.1013C14.0194 6.40931 14.0552 6.72872 14.0957 7.03854C14.0824 7.23247 14.0806 7.4264 14.0668 7.62093C14.139 7.61372 14.2095 7.59151 14.2753 7.56029C14.2199 7.45882 14.1153 7.35015 14.1771 7.22466C14.2274 7.18563 14.2794 7.14841 14.332 7.11299C14.3793 7.00371 14.3273 6.88363 14.3158 6.77195C14.2366 6.37629 14.3273 5.96861 14.2592 5.57234C14.2453 5.50629 14.2309 5.35199 14.1298 5.41803ZM10.7253 6.49517C10.898 6.4015 10.7357 6.6939 10.7253 6.49517ZM13.7808 7.20545C13.782 7.25108 13.7837 7.34174 13.7843 7.38677C13.8259 7.38797 13.9091 7.39037 13.9507 7.39157C13.9518 7.34414 13.9536 7.24868 13.9541 7.20125C13.9108 7.20245 13.8241 7.20485 13.7808 7.20545Z" fill="#090909"/>
<path d="M9.02393 5.26493C9.06149 5.10282 9.0586 4.90949 9.20245 4.80202C9.20129 4.97854 9.19667 5.15626 9.21804 5.33218C9.37056 5.34058 9.52308 5.33518 9.67559 5.33698C9.61262 5.41443 9.53232 5.47387 9.45895 5.54052C9.45664 5.60656 9.52077 5.64859 9.54676 5.70503C9.49477 5.8149 9.40234 5.69542 9.32897 5.67801C9.22556 5.79089 9.08691 5.84012 8.93728 5.8089C8.92168 5.62157 8.98812 5.44445 9.02393 5.26493Z" fill="#252329"/>
<path d="M16.4626 4.84404C16.6821 4.84164 16.9016 4.82663 17.12 4.80202C17.0767 4.91489 17.042 5.03197 16.9831 5.13764C16.8514 5.27574 16.6538 5.25232 16.4851 5.23851C16.4539 5.23551 16.3921 5.22891 16.3609 5.2253C16.3886 5.09622 16.421 4.96833 16.4626 4.84404Z" fill="#252329"/>
<path d="M22.3783 4.87767C22.491 4.84825 22.6267 4.84765 22.6868 4.97193C22.8422 5.14545 22.7862 5.38861 22.7307 5.59155C22.7099 5.98902 22.7463 6.38769 22.7221 6.78516L22.6672 6.80378C22.6626 6.59904 22.6811 6.3943 22.6689 6.19016L22.6152 6.18896C22.5932 6.43332 22.6631 6.6933 22.543 6.92085C22.5788 6.90044 22.6493 6.85901 22.6845 6.8386C22.6631 7.00491 22.5112 7.08056 22.3922 7.16702C22.2899 7.25408 22.168 7.14961 22.0895 7.07936C22.1328 6.61345 21.9098 6.19316 21.7839 5.76327C21.8151 5.74165 21.8769 5.69782 21.9081 5.67621C22.0669 6.07728 22.0288 6.5522 22.2628 6.91965C22.2247 6.61405 22.1686 6.31084 22.1501 6.00283C22.2039 6.12231 22.2408 6.249 22.2772 6.37568C22.3506 6.34146 22.3425 6.23759 22.3691 6.16975C22.4384 5.85633 22.5025 5.53992 22.5031 5.2169L22.5528 5.23491C22.5961 5.73745 22.3928 6.21237 22.2749 6.6897C22.409 6.64226 22.4471 6.48496 22.4939 6.36248C22.5782 6.06527 22.595 5.75306 22.6597 5.45166C22.7082 5.26433 22.6447 5.03137 22.4413 4.98934C22.4413 5.01516 22.4407 5.0668 22.4401 5.09261C22.4061 5.02537 22.3905 4.95092 22.3783 4.87767ZM21.8769 5.84312C21.9063 5.87374 21.9063 5.87374 21.8769 5.84312ZM22.2235 7.04634C22.2333 7.07516 22.2524 7.1322 22.2622 7.16102C22.4211 7.02052 22.5493 6.8362 22.5014 6.60564C22.3564 6.70231 22.3726 6.93706 22.2235 7.04634Z" fill="#0A0A0A"/>
<path d="M21.5614 5.63178C21.6822 5.73985 21.7076 5.91337 21.7527 6.06407C21.8018 6.30664 21.8931 6.53839 21.9208 6.78576C21.9271 6.89864 21.9994 6.9887 22.0433 7.08837C21.9254 7.21565 21.7232 7.11839 21.7053 6.95628C21.6718 6.60444 21.4846 6.28562 21.4638 5.93498C21.6475 6.23999 21.6764 6.60864 21.7671 6.94847C21.7758 7.02953 21.8584 7.05835 21.915 7.09737C21.8463 6.59663 21.6903 6.11751 21.5614 5.63178Z" fill="#0A0A0A"/>
<path d="M2.20231 5.8155C2.28376 5.79929 2.36522 5.78188 2.44726 5.76507C2.47441 5.76627 2.52871 5.76867 2.55587 5.77047C2.81642 5.83231 3.02844 5.99683 3.23179 6.16794C3.46981 6.26521 3.71245 6.06467 3.95682 6.07548C4.14689 6.08869 4.33522 6.11931 4.52529 6.13672C4.76388 6.15654 4.93893 6.35587 5.16539 6.41531C5.36702 6.35407 5.54322 6.21658 5.75293 6.18295C6.16772 6.22798 6.58541 6.2478 6.99848 6.31384C7.19085 6.34987 7.30697 6.52639 7.44967 6.64647C7.56752 6.6957 7.69404 6.62485 7.81132 6.60084C8.12559 6.48736 8.4624 6.5426 8.78592 6.56721C9.08171 6.58943 9.32492 6.78156 9.59991 6.87522C9.63573 7.07216 9.72354 7.24988 9.82349 7.41859C9.97196 7.66896 9.98467 7.97277 10.1066 8.23455C10.1609 8.35283 10.0424 8.4609 9.97947 8.54796C9.79865 8.78632 9.4861 8.78692 9.24809 8.92862C9.0274 9.0517 8.75241 9.13876 8.51381 9.01328C8.11866 8.88839 7.88237 8.49813 7.76279 8.11086C7.68826 8.14989 7.66747 8.24775 7.60912 8.30719C7.4514 8.47711 7.20934 8.48792 7.01465 8.58879C6.82632 8.65543 6.6426 8.76591 6.44098 8.76891C6.02387 8.70406 5.63103 8.37864 5.55535 7.93314C5.38897 8.10546 5.17579 8.20152 4.94586 8.23995C4.74655 8.35943 4.52471 8.42668 4.29883 8.4663C4.14747 8.44529 4.00304 8.37985 3.86034 8.32461C3.53682 8.08204 3.29245 7.64074 3.3716 7.21986C3.25721 7.26069 3.13993 7.29131 3.02208 7.31832C3.00302 7.09017 3.05328 6.86982 3.13936 6.66208C2.94467 6.62365 2.73727 6.78876 2.5784 6.62485C2.50849 6.71071 2.35309 6.88903 2.31149 6.68009C2.18613 6.65728 2.06423 6.75874 1.93598 6.71672C1.9354 6.6915 1.93483 6.64107 1.93483 6.61585C1.9354 6.49697 1.93656 6.37749 1.92212 6.25921C1.85164 6.2496 1.78116 6.24239 1.71067 6.23699C1.69161 6.21057 1.65406 6.15714 1.63499 6.13012C1.83199 6.00944 2.06654 6.01364 2.28088 5.94879C2.34731 5.94039 2.39006 5.90376 2.41028 5.83772C2.33865 5.87675 2.25257 5.90016 2.20231 5.8155ZM3.74018 7.04454C3.67259 7.1364 3.62579 7.25348 3.66854 7.36936C3.6489 7.59691 3.7708 7.84068 3.96433 7.95175L3.96144 7.98778C4.17057 8.12287 4.47965 8.0208 4.53742 7.76263C4.51258 7.76383 4.46174 7.76683 4.43632 7.76803C4.41321 7.71519 4.38028 7.67197 4.33811 7.63894C4.42246 7.55368 4.51489 7.4306 4.4421 7.30632C4.40512 7.16822 4.24972 7.14781 4.13995 7.19524C4.0377 7.09918 3.87074 7.09497 3.74018 7.04454ZM5.8754 7.34174C5.7847 7.50325 5.76506 7.69838 5.85518 7.8653C5.91411 8.019 6.00597 8.17871 6.16368 8.23875L6.15848 8.28918C6.33411 8.3198 6.5519 8.33782 6.68131 8.18231C6.77086 8.0142 6.84943 7.82027 6.84307 7.62393C6.77894 7.65996 6.75295 7.76503 6.6738 7.76503C6.60043 7.69538 6.62874 7.5705 6.57212 7.48884C6.49009 7.40719 6.33526 7.40358 6.26594 7.50445C6.14808 7.4246 6.01405 7.36696 5.8754 7.34174ZM6.72579 7.46482C6.9176 7.46722 6.64203 7.64675 6.72579 7.46482ZM8.12328 7.79865C8.03142 8.14989 8.29371 8.56957 8.6438 8.59779C8.79169 8.61881 8.97656 8.6074 9.017 8.42548C8.94768 8.36063 8.92977 8.26697 8.90897 8.17751L8.85698 8.17691C8.93092 8.08685 9.01296 7.96737 8.94768 7.84728C8.89395 7.68337 8.70446 7.65695 8.57678 7.74161C8.52421 7.63294 8.3769 7.59812 8.27869 7.53387C8.17239 7.53627 8.10017 7.70198 8.12328 7.79865Z" fill="#090909"/>
<path d="M19.9011 6.17635C19.9935 6.21958 20.079 6.27782 20.1622 6.33786C20.1801 6.40991 20.1969 6.48256 20.2148 6.55461C20.2633 6.6927 20.1697 6.82659 20.183 6.96709C20.1657 7.10578 20.2136 7.24147 20.2125 7.37777C20.1842 7.47203 20.1547 7.56689 20.1449 7.66656C20.3922 7.66416 20.6377 7.70319 20.8676 7.80165C21.004 7.98958 21.2033 8.10306 21.4136 8.17931C21.2021 8.29099 20.9918 8.15409 20.7994 8.06583C20.3685 7.88331 19.949 7.67137 19.4979 7.54708C19.4782 7.4234 19.4794 7.26849 19.5787 7.18143C19.6458 7.16342 19.7133 7.14661 19.7815 7.131C19.8306 6.81578 19.7607 6.46815 19.9011 6.17635ZM19.9121 7.2787C19.8757 7.38257 19.7965 7.64375 19.9889 7.60412C20.0773 7.52066 20.1079 7.39037 20.1299 7.27269C20.0571 7.26849 19.9843 7.27029 19.9121 7.2787Z" fill="#0A0A0A"/>
<path d="M23.0375 8.06403C23.0756 8.05623 23.1519 8.04062 23.19 8.03281C23.1322 8.14449 23.0635 8.26217 23.0872 8.39486C23.1577 8.40626 23.2287 8.41587 23.3009 8.42308C23.3009 8.4507 23.3015 8.50473 23.3015 8.53235L23.2484 8.52875C23.1727 8.49032 23.0964 8.4531 23.0213 8.41587C22.9254 8.312 22.7949 8.26697 22.6631 8.23995C22.7718 8.24535 22.8879 8.26697 22.9924 8.22194C23 8.19552 23.015 8.14269 23.0225 8.11627L23.0375 8.06403Z" fill="#252329"/>
<path d="M23.4546 8.29219C23.4731 8.27658 23.5089 8.24475 23.5274 8.22914C23.6926 8.3108 23.5124 8.57318 23.4095 8.41347C23.4211 8.38285 23.4436 8.32281 23.4546 8.29219Z" fill="#252329"/>
<path d="M13.5994 0.293555C13.793 0.299559 13.9871 0.300161 14.1812 0.294757L14.1864 0.355998C13.9928 0.374611 13.7976 0.375812 13.6052 0.351195L13.5994 0.293555Z" fill="#90928E"/>
<path d="M14.5243 0.605167C14.6768 0.570343 14.8357 0.570944 14.9888 0.602166L14.9848 0.665809C14.834 0.69703 14.6774 0.696429 14.5266 0.66881L14.5243 0.605167Z" fill="#90928E"/>
<path d="M11.9558 1.81319C12.0985 1.79998 12.2418 1.82339 12.3822 1.84921C12.3747 1.89904 12.3631 1.94768 12.3475 1.99571C12.2441 2.01913 12.1378 2.02993 12.0338 2.05095C12.087 2.08157 12.1413 2.11099 12.1967 2.13921C12.0743 2.34215 11.8981 2.52287 11.8645 2.77084C11.7507 3.32081 12.0367 3.96685 12.5694 4.14457C12.9218 4.29587 13.336 4.18059 13.6098 3.91702C13.9622 3.61921 14.1061 3.05123 13.8975 2.62494C13.8322 2.43821 13.6306 2.30432 13.6075 2.11579C13.7017 2.10558 13.7964 2.10499 13.8912 2.10379C14.2251 2.48985 14.3279 3.04883 14.1644 3.53816C14.0604 3.86958 13.797 4.10374 13.5451 4.31569C13.1939 4.46339 12.7796 4.51502 12.4272 4.3445C12.2788 4.27186 12.1066 4.21182 12.0194 4.05631C11.9113 3.86718 11.7802 3.69126 11.6901 3.49193C11.626 3.25777 11.6421 3.008 11.6514 2.76723C11.6589 2.4148 11.9957 2.17824 11.9558 1.81319Z" fill="#90928E"/>
<path d="M18.6249 2.03594C18.7844 2.07496 18.8941 2.21906 18.9785 2.35656C18.8156 2.31152 18.6989 2.18784 18.6249 2.03594Z" fill="#90928E"/>
<path d="M12.4243 2.98879C12.5988 2.76543 12.6549 2.46523 12.8513 2.25809C13.0991 2.44722 13.1396 2.81527 13.3701 3.02661C13.5099 2.96837 13.6092 2.84649 13.7236 2.75042C13.8195 2.75102 13.8756 2.84048 13.8334 2.93235C13.7901 3.10707 13.7288 3.27638 13.6924 3.4535C13.6601 3.58619 13.6433 3.7531 13.4943 3.79873C13.2638 3.56938 12.9275 3.52075 12.6225 3.55797C12.4665 3.58259 12.3377 3.69847 12.1788 3.71348C12.0737 3.39166 11.9992 3.05123 11.9841 2.7114C12.1615 2.7162 12.2377 2.98518 12.4243 2.98879Z" fill="#90928E"/>
<path d="M15.8588 2.54148C16.0501 2.55049 15.7699 2.7216 15.8588 2.54148Z" fill="#90928E"/>
<path d="M19.1466 2.51446C19.2887 2.55289 19.4187 2.67357 19.4459 2.82728C19.3153 2.75823 19.2165 2.64595 19.1466 2.51446Z" fill="#90928E"/>
<path d="M18.0848 2.89572C18.4666 2.87951 18.852 2.8699 19.2333 2.90533C18.8658 3.0086 18.4759 2.88792 18.1044 2.98458C18.0998 2.96237 18.09 2.91794 18.0848 2.89572Z" fill="#90928E"/>
<path d="M18.3679 3.04582C18.6948 2.90293 19.1166 3.1545 19.3887 2.88071C19.3887 2.92874 19.3875 3.02361 19.3875 3.07164C19.2096 3.09446 19.0305 3.08125 18.8526 3.07644C18.6908 3.06624 18.5279 3.07404 18.3679 3.04582Z" fill="#90928E"/>
<path d="M19.5406 3.34783C19.4412 3.25717 19.4696 3.11667 19.5204 3.0086C19.573 3.10526 19.5816 3.24456 19.5406 3.34783Z" fill="#90928E"/>
<path d="M0.904765 3.3022C0.90592 3.20613 0.862592 3.16471 0.774202 3.17911C0.764381 3.27818 0.807709 3.31901 0.904765 3.3022Z" fill="#90928E"/>
<path d="M19.4216 3.594C19.2656 3.55737 19.4401 3.23195 19.4505 3.49913C19.4436 3.52315 19.4291 3.56998 19.4216 3.594Z" fill="#90928E"/>
<path d="M19.5799 3.78553C19.5181 3.71588 19.5262 3.61621 19.5787 3.54416C19.6382 3.62402 19.6382 3.70507 19.5799 3.78553Z" fill="#90928E"/>
<path d="M19.4996 4.06051C19.3159 4.05031 19.5204 3.78913 19.5169 4.02749L19.4996 4.06051Z" fill="#90928E"/>
<path d="M19.6429 4.26765C19.5822 4.21902 19.5816 4.12776 19.6463 4.08333C19.6538 4.11695 19.6683 4.1836 19.6758 4.21722L19.6429 4.26765Z" fill="#90928E"/>
<path d="M17.0836 4.52943L17.1061 4.52883C17.1004 4.52883 17.0894 4.52883 17.0836 4.52943Z" fill="#90928E"/>
<path d="M17.7653 4.56065C17.8029 4.56365 17.8785 4.57026 17.9161 4.57386C18.0426 4.61889 18.1766 4.65792 18.2806 4.74978C18.0559 4.76299 17.7722 4.86746 17.5833 4.69875C17.6411 4.64891 17.7029 4.60388 17.7653 4.56065Z" fill="#90928E"/>
<path d="M19.6995 4.80922C19.6388 4.73777 19.651 4.63871 19.6989 4.56425C19.759 4.64531 19.7596 4.72757 19.6995 4.80922Z" fill="#90928E"/>
<path d="M19.5493 5.08901C19.4696 4.97794 19.625 4.88007 19.6261 5.04458L19.5938 5.09141L19.5493 5.08901Z" fill="#90928E"/>
<path d="M20.7607 4.9281C20.9346 4.9275 21.1091 4.9245 21.2836 4.9251L21.2778 4.97553C21.1097 4.96713 20.9416 4.96893 20.7734 4.97734L20.7607 4.9281Z" fill="#90928E"/>
<path d="M19.2211 5.02477C19.2281 5.01816 19.2408 5.00435 19.2471 4.99715L19.2506 5.03197L19.2211 5.02477Z" fill="#90928E"/>
<path d="M19.6995 5.17787C19.7174 5.16106 19.7526 5.12864 19.77 5.11243L19.8023 5.15686L19.7821 5.21149C19.7613 5.20309 19.7203 5.18628 19.6995 5.17787Z" fill="#90928E"/>
<path d="M21.8578 5.58375C21.8174 5.42043 22.0011 5.5153 21.9849 5.62698L21.9462 5.64799C21.9242 5.63178 21.8798 5.59996 21.8578 5.58375Z" fill="#90928E"/>
<path d="M1.96776 5.68221C1.96256 5.68101 1.95216 5.67921 1.94754 5.67861L1.96776 5.68221Z" fill="#90928E"/>
<path d="M2.55587 5.77047C2.52294 5.67921 2.48654 5.67741 2.44726 5.76507C2.47441 5.76627 2.52871 5.76867 2.55587 5.77047Z" fill="#90928E"/>
<path d="M5.70151 6.02385C5.7304 6.05387 5.7304 6.05387 5.70151 6.02385Z" fill="#90928E"/>
<path d="M6.10591 6.08389C6.1348 6.11391 6.1348 6.11391 6.10591 6.08389Z" fill="#90928E"/>
<path d="M6.68478 6.13072C6.85867 6.03825 6.69344 6.32945 6.68478 6.13072Z" fill="#90928E"/>
<path d="M7.31911 6.19376C7.49184 6.1001 7.3295 6.3919 7.31911 6.19376Z" fill="#90928E"/>
<path d="M20.1622 6.33786C20.1824 6.34867 20.2229 6.37028 20.2431 6.38109C20.3038 6.44473 20.4661 6.37929 20.4725 6.47896C20.3829 6.49096 20.2922 6.50237 20.2148 6.55461C20.1969 6.48256 20.1801 6.40991 20.1622 6.33786Z" fill="#90928E"/>
<path d="M10.7253 6.49517C10.898 6.4015 10.7357 6.6939 10.7253 6.49517Z" fill="#90928E"/>
<path d="M11.0904 6.59363C11.0829 6.59243 11.0679 6.59063 11.0604 6.58943L11.0904 6.59363Z" fill="#90928E"/>
<path d="M11.6173 6.68189C11.5959 6.58163 11.5624 6.57682 11.5162 6.66628C11.5416 6.66988 11.5919 6.67829 11.6173 6.68189Z" fill="#90928E"/>
<path d="M12.2551 6.75934C12.3799 6.65848 12.1927 6.59724 12.1574 6.72272C12.1823 6.73173 12.2308 6.75034 12.2551 6.75934Z" fill="#90928E"/>
<path d="M3.66854 7.36936C3.74653 7.38497 3.82626 7.39638 3.90252 7.42339C3.88749 7.61192 4.13938 7.79745 3.96433 7.95175C3.7708 7.84068 3.6489 7.59691 3.66854 7.36936Z" fill="#90928E"/>
<path d="M18.9069 7.54948C18.9565 7.47443 18.9444 7.4288 18.8705 7.41259C18.8202 7.48764 18.8323 7.53327 18.9069 7.54948Z" fill="#90928E"/>
<path d="M6.72579 7.46482C6.9176 7.46722 6.64203 7.64675 6.72579 7.46482Z" fill="#90928E"/>
<path d="M5.85518 7.8653C5.89042 7.81246 5.93144 7.76683 5.97939 7.7272C6.16715 7.77944 6.18968 8.06343 6.16368 8.23875C6.00597 8.17871 5.91411 8.019 5.85518 7.8653Z" fill="#90928E"/>
<path d="M18.7913 7.80646C18.8081 7.79805 18.8416 7.78004 18.8578 7.77103C18.9236 7.83708 18.8601 7.93134 18.8156 7.98838C18.8092 7.94275 18.7977 7.85209 18.7913 7.80646Z" fill="#90928E"/>
<path d="M8.12328 7.79865C8.21745 7.86169 8.32664 7.88631 8.43525 7.90612C8.41098 7.98898 8.37459 8.06763 8.35957 8.15349C8.39596 8.30419 8.54617 8.33962 8.66633 8.39125C8.66518 8.4603 8.65304 8.52875 8.6438 8.59779C8.29371 8.56957 8.03142 8.14989 8.12328 7.79865Z" fill="#90928E"/>
<path d="M17.8837 1.44394C17.912 1.45354 17.9687 1.47156 17.997 1.48056C18.0045 1.48416 18.0201 1.49017 18.0282 1.49317C18.2772 1.60004 18.458 1.82399 18.6249 2.03594C18.6989 2.18784 18.8156 2.31152 18.9785 2.35656C19.0548 2.37997 19.1056 2.44662 19.1466 2.51446C19.2165 2.64595 19.3153 2.75823 19.4459 2.82728C19.4713 2.84709 19.5233 2.88732 19.5487 2.90713C19.5418 2.93235 19.5273 2.98338 19.5204 3.0086C19.4696 3.11667 19.4412 3.25717 19.5406 3.34783C19.6065 3.40427 19.6192 3.46971 19.5787 3.54416C19.5262 3.61621 19.5181 3.71588 19.5799 3.78553C19.6255 3.87619 19.7047 3.97766 19.6463 4.08333C19.5816 4.12776 19.5822 4.21902 19.6429 4.26765C19.6897 4.35591 19.7601 4.46279 19.6989 4.56425C19.651 4.63871 19.6388 4.73777 19.6995 4.80922C19.748 4.90168 19.8104 5.00255 19.77 5.11243C19.7526 5.12864 19.7174 5.16106 19.6995 5.17787L19.6671 5.15926C19.6567 5.13044 19.6365 5.0734 19.6261 5.04458C19.625 4.88007 19.4696 4.97794 19.5493 5.08901L19.5083 5.08721C19.4979 4.97253 19.4944 4.84825 19.417 4.75759C19.354 4.74438 19.291 4.73657 19.2275 4.73417C19.2315 4.82183 19.2408 4.90889 19.2471 4.99715C19.2408 5.00435 19.2281 5.01816 19.2211 5.02477C19.1992 5.01936 19.1541 5.00856 19.1316 5.00315C19.1067 4.86686 19.0923 4.72937 19.0594 4.59548C18.8381 4.53724 18.6082 4.57086 18.3835 4.57446C18.2945 4.57266 18.2061 4.57026 18.1177 4.56846C17.9681 4.45978 17.9791 4.25805 17.9952 4.09173C18.2517 4.06351 18.5146 4.12716 18.7671 4.05331C18.9693 4.00888 19.1824 4.00347 19.3731 3.91161C19.2957 3.65344 19.3771 3.37064 19.246 3.12388C19.1195 3.07885 18.9617 3.1587 18.8526 3.07644C19.0305 3.08125 19.2096 3.09446 19.3875 3.07164C19.3875 3.02361 19.3887 2.92874 19.3887 2.88071C19.1166 3.1545 18.6948 2.90293 18.3679 3.04582C18.2373 3.07644 17.9646 3.09626 17.99 2.88732C18.0137 2.88972 18.0611 2.89392 18.0848 2.89572C18.09 2.91794 18.0998 2.96237 18.1044 2.98458C18.4759 2.88792 18.8658 3.0086 19.2333 2.90533L19.2777 2.88071C19.1137 2.66937 18.9138 2.49105 18.7376 2.29111C18.5325 2.16863 18.3777 1.9855 18.2078 1.81919C18.0946 1.70451 17.8687 1.64207 17.8837 1.44394ZM19.3887 3.13949C19.5799 3.14789 19.3009 3.31961 19.3887 3.13949ZM19.4216 3.594C19.4343 3.85517 19.6082 3.53035 19.4505 3.49913C19.4401 3.23195 19.2656 3.55737 19.4216 3.594ZM19.4996 4.06051C19.5042 4.05211 19.5129 4.03589 19.5169 4.02749C19.5204 3.78913 19.3159 4.05031 19.4996 4.06051ZM18.183 4.16438C18.2032 4.24544 18.4152 4.24544 18.4349 4.16378C18.3615 4.11695 18.2552 4.11755 18.183 4.16438ZM18.6463 4.16498C18.6752 4.21242 18.726 4.23043 18.8 4.21842C18.8318 4.22803 19.0241 4.20101 18.9225 4.14817C18.8329 4.12956 18.7283 4.11575 18.6463 4.16498Z" fill="#63665B"/>
<path d="M4.18848 4.20581C4.34793 4.1902 4.58826 4.23643 4.59577 4.44357C4.61714 4.60208 4.71189 4.74678 4.69687 4.91009C4.53569 4.91129 4.30634 5.01096 4.19253 4.85065C4.16653 4.6369 4.17288 4.41956 4.18848 4.20581Z" fill="#63665B"/>
<path d="M16.4291 4.60268C16.4446 4.51142 16.5319 4.4808 16.6029 4.44718L16.5856 4.49521C16.5388 4.60929 16.4966 4.72516 16.4626 4.84404C16.421 4.96833 16.3886 5.09622 16.3609 5.2253C16.3343 5.2223 16.2812 5.2163 16.2546 5.21329C16.3025 5.00675 16.3719 4.80622 16.4291 4.60268Z" fill="#63665B"/>
<path d="M9.21516 4.6321C9.34283 4.61649 9.4734 4.61229 9.60107 4.6309C9.67386 4.67713 9.66866 4.7774 9.68946 4.85365C9.7091 5.01576 9.78883 5.16706 9.77958 5.33338C9.75359 5.33458 9.70159 5.33638 9.67559 5.33698C9.52308 5.33518 9.37056 5.34058 9.21804 5.33218C9.19667 5.15626 9.20129 4.97854 9.20245 4.80202C9.20534 4.75999 9.21227 4.67473 9.21516 4.6321Z" fill="#63665B"/>
<path d="M20.4834 5.12383C20.5354 5.05599 20.6152 5.02297 20.692 4.99655C20.7007 5.02177 20.718 5.0716 20.7261 5.09622C20.7538 5.08961 20.8087 5.0758 20.8364 5.0692C20.9398 5.11723 21.0404 5.17187 21.142 5.2253C21.008 5.29855 20.8618 5.26013 20.7203 5.24392C20.692 5.31837 20.67 5.39582 20.6469 5.47207L20.603 5.48828C20.5741 5.48228 20.5158 5.47027 20.4869 5.46427C20.4713 5.35139 20.4661 5.23611 20.4834 5.12383Z" fill="#63665B"/>
<path d="M15.0639 5.29795C14.8328 5.19648 14.5758 5.24932 14.3348 5.26973C14.5607 5.37721 14.8259 5.33398 15.0639 5.29795Z" fill="#63665B"/>
<path d="M15.1003 5.31056C15.3585 5.31537 15.6266 5.26433 15.8756 5.35739C15.6647 5.41383 15.4458 5.38982 15.2303 5.39102C15.1754 5.39462 15.1425 5.33638 15.1003 5.31056Z" fill="#63665B"/>
<path d="M15.9132 5.3652C16.0876 5.3724 16.2731 5.33158 16.4389 5.40723L16.4331 5.46366C16.2644 5.44085 16.094 5.45106 15.9247 5.44505C15.9218 5.42524 15.916 5.38501 15.9132 5.3652Z" fill="#63665B"/>
<path d="M3.74018 7.04454C3.87074 7.09497 4.0377 7.09918 4.13995 7.19524C4.07756 7.2889 3.95104 7.40418 4.04579 7.52306C4.09143 7.65815 4.22719 7.64074 4.33811 7.63894C4.38028 7.67197 4.41321 7.71519 4.43632 7.76803C4.46174 7.76683 4.51258 7.76383 4.53742 7.76263C4.47965 8.0208 4.17057 8.12287 3.96144 7.98778L3.96433 7.95175C4.13938 7.79745 3.88749 7.61192 3.90252 7.42339C3.82626 7.39638 3.74653 7.38497 3.66854 7.36936C3.62579 7.25348 3.67259 7.1364 3.74018 7.04454Z" fill="#63665B"/>
<path d="M5.8754 7.34174C6.01405 7.36696 6.14808 7.4246 6.26594 7.50445C6.19719 7.64134 6.1296 7.79505 6.18563 7.95115C6.29944 7.96196 6.41325 7.94875 6.52706 7.95656C6.58599 8.02561 6.63221 8.10486 6.68131 8.18231C6.5519 8.33782 6.33411 8.3198 6.15848 8.28918L6.16368 8.23875C6.18968 8.06343 6.16715 7.77944 5.97939 7.7272C5.93144 7.76683 5.89042 7.81246 5.85518 7.8653C5.76506 7.69838 5.7847 7.50325 5.8754 7.34174Z" fill="#63665B"/>
<path d="M8.12328 7.79865C8.10017 7.70198 8.17239 7.53627 8.27869 7.53387C8.3769 7.59812 8.52421 7.63294 8.57678 7.74161C8.52999 7.84608 8.45547 7.96857 8.53461 8.07904C8.59816 8.20333 8.7449 8.17511 8.85698 8.17691L8.90897 8.17751C8.92977 8.26697 8.94768 8.36063 9.017 8.42548C8.97656 8.6074 8.79169 8.61881 8.6438 8.59779C8.65304 8.52875 8.66518 8.4603 8.66633 8.39125C8.54617 8.33962 8.39596 8.30419 8.35957 8.15349C8.37459 8.06763 8.41098 7.98898 8.43525 7.90612C8.32664 7.88631 8.21745 7.86169 8.12328 7.79865Z" fill="#63665B"/>
<path d="M20.0837 9.32309C20.1651 9.29066 20.1905 9.31708 20.1599 9.40294C20.0773 9.43476 20.0519 9.40774 20.0837 9.32309Z" fill="#63665B"/>
<path d="M1.9562 2.01492C2.16013 2.01312 2.36291 2.04314 2.56569 2.05935C2.70087 2.05275 2.78522 2.18304 2.83721 2.29471C2.82277 2.4208 2.69856 2.55769 2.568 2.53728C2.4617 2.54929 2.39989 2.45322 2.32305 2.39678C2.19595 2.35595 1.99202 2.44842 1.92905 2.28631C1.87994 2.19925 1.92501 2.09898 1.9562 2.01492Z" fill="#926B6A"/>
<path d="M5.75119 2.17343C5.9713 2.16443 6.1943 2.15062 6.4121 2.19385C6.72464 2.26289 7.04585 2.19204 7.36128 2.23647C7.3971 2.425 7.40749 2.61773 7.40461 2.80986C7.13655 2.83568 6.85982 2.85429 6.59697 2.77984C6.3214 2.73901 6.03947 2.79605 5.76333 2.74922C5.75004 2.55769 5.74657 2.36556 5.75119 2.17343Z" fill="#926B6A"/>
<path d="M22.1773 4.58527C22.3027 4.51442 22.4575 4.60748 22.4962 4.74137C22.3668 4.84224 22.1374 4.781 22.0773 4.97493C22.1784 4.94551 22.2761 4.90408 22.3783 4.87767C22.3905 4.95092 22.4061 5.02537 22.4401 5.09261C22.4477 5.11063 22.4633 5.14785 22.4708 5.16586C22.335 5.25112 22.1813 5.29675 22.0398 5.3676C22.0554 5.58255 22.153 5.78308 22.1501 6.00283C22.1085 5.87134 22.0513 5.74586 21.9849 5.62698C22.0011 5.5153 21.8174 5.42043 21.8578 5.58375C21.8798 5.59996 21.9242 5.63178 21.9462 5.64799L21.9081 5.67621C21.8769 5.69782 21.8151 5.74165 21.7839 5.76327C21.7313 5.69422 21.7255 5.57354 21.6469 5.53811C21.6256 5.56153 21.5828 5.60836 21.5614 5.63178C21.5054 5.61557 21.4494 5.60176 21.3928 5.58855C21.4032 5.70623 21.4297 5.82211 21.4638 5.93498C21.3592 5.89536 21.3766 5.75066 21.335 5.6624C21.0895 5.71884 20.8653 5.84312 20.6267 5.92238C20.5187 5.9644 20.3945 5.98722 20.313 6.07908C20.3379 6.18836 20.3367 6.30424 20.2431 6.38109C20.2229 6.37028 20.1824 6.34867 20.1622 6.33786C20.079 6.27782 19.9935 6.21958 19.9011 6.17635C19.7607 6.46815 19.8306 6.81578 19.7815 7.131C19.7133 7.14661 19.6458 7.16342 19.5787 7.18143C19.4794 7.26849 19.4782 7.4234 19.4979 7.54708C19.949 7.67137 20.3685 7.88331 20.7994 8.06583C20.9918 8.15409 21.2021 8.29099 21.4136 8.17931C21.9312 8.35703 22.4898 8.30359 23.0213 8.41587C23.0964 8.4531 23.1727 8.49032 23.2484 8.52875C23.4506 8.70827 23.7481 8.68846 23.9994 8.71787C24.0161 8.99226 23.6834 8.86497 23.5332 8.82895C23.2801 8.73589 23.1149 9.0583 22.8688 8.98445C22.6649 8.91481 22.4465 8.98025 22.2426 8.91181C22.0883 8.86677 21.9248 8.9082 21.7706 8.86377C21.5701 8.80253 21.3575 8.85056 21.1582 8.78212C21.0265 8.81334 20.8965 8.79292 20.7659 8.77071C20.5366 8.76651 20.3072 8.76471 20.0785 8.77431C20.0964 9.01267 19.9785 9.23783 20.019 9.47499C20.1021 9.4912 20.2287 9.47199 20.1853 9.60348C20.0149 9.61248 19.8439 9.61308 19.6741 9.60348C19.6076 9.60047 19.5649 9.56445 19.5458 9.4948C19.6244 9.4912 19.7029 9.487 19.7815 9.48279C19.7988 9.24623 19.796 9.00787 19.7792 8.77131C19.6394 8.77852 19.402 8.68425 19.3534 8.87638C19.2194 8.9004 19.0432 8.91661 18.9467 8.79593C18.8826 8.67525 18.7335 8.70287 18.633 8.63982C18.6376 8.6014 18.6469 8.52514 18.6515 8.48732C18.7093 8.32041 18.7122 8.13668 18.6434 7.97337L18.6313 7.93374C18.6902 7.89952 18.7434 7.85569 18.7913 7.80646C18.7977 7.85209 18.8092 7.94275 18.8156 7.98838C18.7982 8.19972 18.7318 8.41107 18.763 8.62481C18.8439 8.65063 18.9305 8.66024 19.0149 8.64583C19.1356 8.42788 19.0808 8.1661 19.0865 7.92774C19.0709 7.64555 19.1663 7.37116 19.1483 7.08897C19.1299 6.78576 19.183 6.48556 19.2073 6.18415C19.4395 6.16734 19.7035 6.22498 19.9075 6.07668C20.0109 5.90677 20.0548 5.68822 20.2425 5.58975C20.3656 5.56874 20.4875 5.53872 20.603 5.48828L20.6469 5.47207C20.8416 5.39702 21.0635 5.38141 21.2345 5.24992C21.2114 5.24392 21.1651 5.23131 21.142 5.2253C21.0404 5.17187 20.9398 5.11723 20.8364 5.0692C20.8208 5.04638 20.789 5.00015 20.7734 4.97734C20.9416 4.96893 21.1097 4.96713 21.2778 4.97553C21.4222 4.97613 21.5441 5.0716 21.6828 5.09261C21.7873 4.86566 21.9913 4.73297 22.1773 4.58527ZM19.7393 8.47291C19.6313 8.50293 19.6804 8.67344 19.785 8.64943C19.8994 8.62961 19.8508 8.42307 19.7393 8.47291Z" fill="#273766"/>
<path d="M1.1838 6.20277C1.33401 6.18055 1.4819 6.11331 1.63499 6.13012C1.65406 6.15714 1.69161 6.21057 1.71067 6.23699C1.72858 6.35587 1.74187 6.47595 1.7748 6.59183C1.81466 6.59784 1.89496 6.60984 1.93483 6.61585C1.93483 6.64107 1.9354 6.6915 1.93598 6.71672C1.7049 6.80017 1.45648 6.81518 1.22424 6.89924C1.23233 6.82359 1.24793 6.74253 1.32014 6.70651C1.32072 6.6867 1.32245 6.64647 1.32303 6.62666C1.3652 6.56661 1.35942 6.51318 1.3057 6.46515C1.32014 6.41591 1.33632 6.36788 1.35423 6.32045C1.27335 6.40991 1.1474 6.31024 1.1838 6.20277Z" fill="#273766"/>
<path d="M9.59991 6.87522L9.64786 6.88123C9.7507 7.00431 9.90437 7.00551 10.0488 7.02232C10.184 7.19584 10.24 7.44681 10.4416 7.56029C10.6196 7.61853 10.8108 7.5747 10.9939 7.58791C10.8495 7.8671 10.5323 7.99498 10.277 8.14629C10.2204 8.17571 10.1638 8.20513 10.1066 8.23455C9.98467 7.97277 9.97196 7.66896 9.82349 7.41859C9.72354 7.24988 9.63573 7.07216 9.59991 6.87522Z" fill="#273766"/>
<path d="M4.13995 7.19524C4.24972 7.14781 4.40512 7.16822 4.4421 7.30632C4.51489 7.4306 4.42246 7.55368 4.33811 7.63894C4.22719 7.64074 4.09143 7.65815 4.04579 7.52306C3.95104 7.40418 4.07756 7.2889 4.13995 7.19524Z" fill="#273766"/>
<path d="M6.26594 7.50445C6.33526 7.40358 6.49009 7.40719 6.57212 7.48884C6.62874 7.5705 6.60043 7.69538 6.6738 7.76503C6.75295 7.76503 6.77894 7.65996 6.84307 7.62393C6.84943 7.82027 6.77086 8.0142 6.68131 8.18231C6.63221 8.10486 6.58599 8.02561 6.52706 7.95656C6.41325 7.94875 6.29944 7.96196 6.18563 7.95115C6.1296 7.79505 6.19719 7.64134 6.26594 7.50445Z" fill="#273766"/>
<path d="M8.57678 7.74161C8.70446 7.65695 8.89395 7.68337 8.94768 7.84728C9.01296 7.96737 8.93092 8.08685 8.85698 8.17691C8.7449 8.17511 8.59816 8.20333 8.53461 8.07904C8.45547 7.96857 8.52999 7.84608 8.57678 7.74161Z" fill="#273766"/>
<path d="M14.2511 5.05299C14.3129 5.05599 14.3718 5.074 14.4273 5.10582C14.373 5.13524 14.3192 5.16526 14.2655 5.19588C14.273 5.21089 14.2875 5.24091 14.295 5.25652C14.2488 5.24572 14.2031 5.23611 14.1569 5.22771C14.1864 5.16827 14.2181 5.11003 14.2511 5.05299Z" fill="#BCAA25"/>
<path d="M4.47098 5.77107C4.55591 5.76747 4.57959 5.60476 4.48543 5.59876C4.40108 5.60296 4.37508 5.76387 4.47098 5.77107Z" fill="#BCAA25"/>
<path d="M9.54272 6.23519C9.6184 6.17755 9.5433 6.01064 9.45549 6.08269C9.37865 6.13972 9.45375 6.30784 9.54272 6.23519Z" fill="#BCAA25"/>
<path d="M18.0692 6.13612C18.1553 6.11871 18.2436 6.12651 18.3303 6.13852C18.332 6.17935 18.3355 6.26041 18.3372 6.30063C18.2616 6.30484 18.1853 6.30904 18.1102 6.31324C18.187 6.40991 18.4713 6.44233 18.5695 6.31684C18.4794 6.30544 18.3494 6.32945 18.3944 6.18896C18.5094 6.17815 18.6261 6.17875 18.7416 6.18716C18.7226 6.30363 18.7 6.41891 18.6694 6.53299C18.5885 6.52699 18.5377 6.5492 18.5169 6.59963C18.6053 6.60924 18.7289 6.58883 18.6862 6.72572C18.4551 6.73893 18.2228 6.73893 17.9923 6.72332C17.9935 6.68189 17.9947 6.59964 17.9952 6.55821C18.0588 6.52459 18.2211 6.59783 18.2188 6.49517C18.1425 6.49036 18.0669 6.48556 17.9912 6.48015C17.9866 6.36368 17.9814 6.22318 18.0692 6.13612Z" fill="#BCAA25"/>
<path d="M19.9121 7.2787C19.9843 7.27029 20.0571 7.26849 20.1299 7.27269C20.1079 7.39037 20.0773 7.52066 19.9889 7.60412C19.7965 7.64375 19.8757 7.38257 19.9121 7.2787Z" fill="#BCAA25"/>
<path d="M20.1449 7.66656C20.1547 7.56689 20.1842 7.47203 20.2125 7.37777C20.3598 7.44861 20.5094 7.52006 20.6723 7.54468C20.9924 7.59331 21.2986 7.70979 21.6181 7.76203C22.0583 7.86289 22.4893 8.013 22.9393 8.06583C22.9601 8.07844 23.0017 8.10366 23.0225 8.11627C23.015 8.14269 23 8.19552 22.9924 8.22194C22.8879 8.26697 22.7718 8.24535 22.6631 8.23995C22.0646 8.09525 21.4713 7.92414 20.8676 7.80165C20.6377 7.70319 20.3922 7.66416 20.1449 7.66656Z" fill="#BCAA25"/>
<path d="M23.19 8.03281C23.3154 8.05383 23.4442 8.15229 23.4546 8.29219C23.4436 8.32281 23.4211 8.38285 23.4095 8.41347C23.3824 8.41587 23.3281 8.42067 23.3009 8.42308C23.2287 8.41587 23.1577 8.40626 23.0872 8.39486C23.0635 8.26217 23.1322 8.14449 23.19 8.03281Z" fill="#BCAA25"/>
<path d="M19.785 8.64943C19.8994 8.62961 19.8508 8.42307 19.7393 8.47291C19.6313 8.50293 19.6804 8.67344 19.785 8.64943Z" fill="#BCAA25"/>
</g>
</svg>
