<svg width="17" height="16" viewBox="0 0 17 16" fill="none" xmlns="http://www.w3.org/2000/svg">
<path d="M12.7277 0.138738C12.9034 -0.0851362 13.198 0.0114958 13.423 0.0871209C13.4026 0.129735 13.3612 0.214963 13.3408 0.257577C13.1356 0.222766 12.9304 0.186154 12.7277 0.138738Z" fill="white"/>
<path d="M11.4804 0.289388C11.7 0.130335 11.9693 0.0739167 12.2363 0.0733165C12.0245 0.245574 11.754 0.345207 11.4804 0.289388Z" fill="white"/>
<path d="M9.89295 0.524066C10.2883 0.394423 10.6945 0.286987 11.1132 0.280985C11.0868 0.343406 11.061 0.405827 11.0352 0.468247C11.1492 0.503659 11.2614 0.549874 11.3802 0.56668C11.5332 0.541472 11.6694 0.450241 11.8259 0.440638C11.9165 0.481452 11.9861 0.554676 12.0617 0.617697C11.6634 0.737137 11.2458 0.781551 10.8319 0.80796C10.5091 0.754542 10.2163 0.585286 9.89295 0.524066Z" fill="white"/>
<path d="M13.453 0.352409C13.8021 0.282186 14.1003 0.543272 14.4333 0.588888C14.7278 0.585887 15.0218 0.549274 15.317 0.554676C15.3164 0.592488 15.3152 0.667514 15.3146 0.705326C14.7578 0.849374 14.1729 0.801358 13.6084 0.737737C13.6552 0.647707 13.7025 0.557677 13.7469 0.466447C13.591 0.539071 13.471 0.662712 13.336 0.764746C12.9682 0.741338 12.5873 0.720931 12.2465 0.564879C12.2915 0.518664 12.3227 0.438238 12.3995 0.441839C12.6527 0.424433 12.907 0.422632 13.1608 0.408227C13.153 0.487454 13.1452 0.56668 13.138 0.645906C13.2106 0.621898 13.2832 0.59789 13.3564 0.574483C13.3858 0.499458 13.4146 0.423232 13.453 0.352409Z" fill="white"/>
<path d="M8.55509 1.16088C9.02304 0.906993 9.55759 0.575083 10.1065 0.782752C10.3969 0.934002 10.7155 1.07205 11.0508 1.01563C11.2842 0.955609 11.5104 0.86798 11.7498 0.830167C11.6262 1.02223 11.4816 1.19929 11.3268 1.36735C11.4108 1.41716 11.4942 1.46758 11.5776 1.5186C11.4504 1.61163 11.3328 1.73587 11.1744 1.77128C10.9416 1.79169 10.7095 1.75087 10.4767 1.74007C10.7539 1.91173 11.0838 2.03237 11.4108 1.93994C11.5278 1.86311 11.61 1.74187 11.7318 1.67045C11.8403 1.63503 11.9573 1.63563 12.0677 1.60502C12.1505 1.55761 12.2087 1.47898 12.2759 1.41296C12.0773 1.37335 11.9015 1.27491 11.7516 1.14047C12.0665 0.994622 12.3941 0.852975 12.7492 0.86738C12.6755 1.00423 12.5993 1.13927 12.5273 1.27732C12.6947 1.13627 12.8398 0.95801 13.0474 0.873982C13.2418 0.803159 13.4494 0.860778 13.6378 0.923798C13.3858 1.05524 13.1116 1.13207 12.8398 1.20829C12.8398 1.34934 12.8236 1.49339 12.8566 1.63203C12.922 1.69926 13.012 1.73407 13.0918 1.78208C13.0426 1.88412 12.9928 1.98675 12.9454 2.08999C13.1884 1.98795 13.4332 1.86791 13.5988 1.65424C13.4854 1.60322 13.3726 1.55221 13.2598 1.50059C13.3972 1.03604 13.9521 0.86858 14.3895 0.923798C14.7248 0.968813 15.11 0.905792 15.3932 1.13147C15.6313 1.30793 15.9133 1.40816 16.1845 1.5234C16.1599 1.64884 16.1017 1.76228 16.0195 1.86011C16.2709 1.96935 16.5019 2.1194 16.7166 2.28985C16.5294 2.41109 16.3447 2.55634 16.1215 2.60075C15.9955 2.52393 15.8983 2.41049 15.7873 2.31566C15.7441 2.49572 15.8455 2.65117 15.9073 2.81202C15.8869 2.92186 15.8107 3.01009 15.7579 3.10612C15.5923 3.0347 15.4262 2.96448 15.26 2.89425C15.395 3.0341 15.5276 3.17695 15.6529 3.3252C15.4064 3.25137 15.155 3.18835 14.9138 3.09772C14.738 3.0419 14.657 2.86244 14.5497 2.7286C14.3415 2.734 14.1333 2.7406 13.9251 2.7322C14.0493 2.47171 14.3547 2.53593 14.5857 2.46991C14.7854 2.36668 14.9606 2.22203 15.1538 2.10679C15.1244 2.04557 15.0944 1.98435 15.0656 1.92313C14.8796 2.05517 14.663 2.17821 14.4267 2.10439C14.5533 2.00896 14.6924 1.93273 14.8382 1.87091C14.7758 1.8271 14.714 1.78268 14.6528 1.73827C14.5401 1.80969 14.4279 1.88172 14.3157 1.95434C14.3529 1.87271 14.3907 1.79109 14.4285 1.70946C14.3313 1.70166 14.2347 1.68545 14.1381 1.69505C13.9779 1.86851 13.8873 2.10859 13.6773 2.23343C13.5556 2.30486 13.4284 2.37388 13.2904 2.40689C13.1824 2.38468 13.0834 2.33427 12.9826 2.29285C13.1794 2.46091 13.3696 2.63677 13.5472 2.82463C13.306 2.82403 13.0606 2.79222 12.8266 2.86784C12.7037 2.92126 12.5849 2.85404 12.4715 2.81082C12.6377 2.68478 12.793 2.54494 12.934 2.39129C12.2297 2.89545 11.2572 2.97468 10.6837 3.67211C10.7455 3.80055 10.7887 3.9368 10.8181 4.07664C11.19 4.11206 11.4372 4.43616 11.7954 4.50699C11.8655 4.52379 11.9369 4.5382 12.0077 4.5532C11.9825 4.76087 11.9555 4.97034 11.8709 5.16361C11.9081 5.22303 11.9453 5.28244 11.9831 5.34246C12.0863 5.26924 12.2243 5.21942 12.2753 5.09398C12.3479 4.93073 12.3839 4.75427 12.4253 4.58141C12.6515 4.50339 12.9034 4.45057 13.0798 4.27711C13.2106 4.14327 13.1362 3.9404 13.1338 3.77534C13.3792 3.55507 13.4854 3.23937 13.5994 2.94047C13.8075 2.95787 14.0199 2.94647 14.2263 2.98428C14.3667 3.0521 14.4639 3.18175 14.5773 3.28498C14.5683 3.44464 14.5665 3.60489 14.5707 3.76454C14.9054 3.80175 15.1064 3.48605 15.3716 3.3402C15.467 3.65651 15.482 3.98601 15.5162 4.31132C15.7009 4.48958 16.0099 4.60842 16.0291 4.90192C15.9811 5.148 15.8335 5.36107 15.7555 5.59815C15.8659 5.60475 15.9769 5.60895 16.0885 5.61616C16.0957 5.72839 16.0909 5.84183 16.0699 5.95227C16.1041 6.01109 16.1377 6.06991 16.1731 6.12873C16.1239 6.17974 16.0753 6.23076 16.0261 6.28238C15.7309 6.06931 15.3554 6.14913 15.0176 6.09751C15.2306 5.81122 15.5294 5.59935 15.7171 5.29265C15.5126 5.35267 15.326 5.4583 15.1232 5.52192C14.7692 5.59695 14.3949 5.48891 14.0475 5.60835C13.8195 5.70138 13.6102 5.83463 13.4062 5.97147C13.7121 5.86404 14.0265 5.72119 14.3589 5.77461C14.3019 5.98348 14.1141 6.11732 13.9923 6.28718C14.1771 6.29258 14.3673 6.32379 14.5035 6.46064C14.6013 6.38681 14.6978 6.31179 14.795 6.23736C14.81 6.31659 14.825 6.39641 14.8412 6.47624C14.4609 6.69591 14.0217 6.78414 13.651 7.02182C13.6318 6.9624 13.6126 6.90298 13.594 6.84356C13.7121 6.75713 13.8303 6.67131 13.9461 6.58068C13.5862 6.71392 13.2208 6.84176 12.8812 7.02182C12.7145 7.09144 12.7319 7.28771 12.7211 7.43596C12.4451 7.53499 12.1331 7.58001 11.9117 7.78768C11.745 7.94313 11.5932 8.11598 11.469 8.30745C11.3694 8.4539 11.3736 8.64356 11.2854 8.79361C10.9194 9.13392 10.3795 9.25936 10.0789 9.6747C9.87735 10.0324 10.1479 10.4508 10.0255 10.8259C9.99794 10.9111 9.96195 10.9927 9.92775 11.0756C9.81856 10.9723 9.67877 10.8769 9.64698 10.7202C9.59898 10.5114 9.61638 10.2959 9.61338 10.0834C9.26902 9.99161 8.90606 9.82835 8.54669 9.93999C8.5035 10.0144 8.4759 10.0966 8.4453 10.1765C8.19813 10.1591 7.96536 10.0618 7.71938 10.0402C7.47341 10.0828 7.25983 10.2371 7.06245 10.3829C6.90107 10.4976 6.87647 10.7052 6.81888 10.8793C6.72349 11.2058 6.53031 11.5341 6.6257 11.8846C6.68509 12.1205 6.76188 12.4242 7.02826 12.4998C7.22084 12.5353 7.41821 12.477 7.60119 12.4176C7.83637 12.3318 7.84837 12.0257 8.03015 11.8828C8.21733 11.7928 8.43211 11.818 8.63308 11.821C8.5053 12.2472 8.24013 12.6175 8.13034 13.0514C8.4561 13.0796 8.88266 12.9434 9.12263 13.2297C9.16163 13.4884 9.00804 13.726 8.99305 13.9817C8.96545 14.1948 9.04584 14.4445 9.25402 14.5375C9.4238 14.5897 9.59898 14.5177 9.76637 14.4871C9.69737 14.6756 9.61158 14.8568 9.50659 15.0285C9.21742 14.8844 8.95045 14.6942 8.71888 14.4697C8.5089 14.2632 8.43811 13.9631 8.25573 13.7374C8.11054 13.6528 7.93416 13.648 7.77818 13.5922C7.525 13.5184 7.35522 13.3053 7.15664 13.1475C6.92687 12.9314 6.5987 13.2117 6.33893 13.0604C5.87998 12.8408 5.42823 12.5941 5.02927 12.2754C5.04847 12.0311 5.14925 11.7556 4.99387 11.5347C4.85169 11.3126 4.6795 11.1092 4.57332 10.8655C4.47973 10.6518 4.32494 10.4748 4.21395 10.2719C4.13776 10.0882 4.15216 9.88357 4.13596 9.68911C4.06337 9.6723 3.99078 9.6555 3.91878 9.63929C3.83179 9.93279 4.02677 10.1867 4.09397 10.4604C4.19356 10.8193 4.35494 11.1596 4.42333 11.5269C4.25475 11.4171 4.10717 11.2796 3.96138 11.1416C3.98238 11.0504 4.00458 10.9585 4.02557 10.8673C3.89959 10.7479 3.773 10.629 3.64761 10.509C3.70101 10.4442 3.755 10.3793 3.8084 10.3145C3.62482 10.048 3.59002 9.72692 3.57922 9.41241C3.58402 9.16033 3.30745 9.0703 3.13347 8.95266C3.09747 8.57874 3.02188 8.20181 3.06687 7.82549C3.15866 7.43296 3.40164 7.09685 3.65661 6.79255C3.86599 6.53986 3.98658 6.23256 4.13176 5.94206C4.02497 5.81602 3.91998 5.68818 3.815 5.56094C3.88399 5.50032 3.95718 5.4451 4.02737 5.38568C4.02437 5.11259 3.98538 4.81969 4.15456 4.58321C4.03997 4.58381 3.92538 4.58501 3.8108 4.58621C3.7568 4.27291 3.90619 3.87678 3.65481 3.6295C3.36984 3.51486 3.04288 3.54127 2.76331 3.39902C2.48794 3.56888 2.16637 3.62409 1.852 3.66911C1.8586 3.60669 1.8652 3.54487 1.8724 3.48305C1.31806 3.82516 0.720523 4.11626 0.0785913 4.2447C0.253773 4.07905 0.460151 3.953 0.66053 3.82036C0.46915 3.79995 0.27717 3.77955 0.0857907 3.76154C0.164982 3.69072 0.244774 3.62049 0.325166 3.55087C0.216577 3.54847 0.107989 3.54547 0 3.54067C0.0407957 3.43083 0.0689925 3.31259 0.137385 3.21476C0.289769 3.09412 0.475149 3.0239 0.65573 2.95727C0.971896 2.84143 1.33426 2.86844 1.62103 2.67398C1.39305 2.65297 1.16448 2.64457 0.9359 2.63497C0.955698 2.55394 0.974897 2.47291 0.994695 2.39189C1.33906 2.27665 1.70382 2.21303 2.06378 2.29105C2.03558 2.1476 2.00499 2.00476 1.97259 1.86191C2.29356 1.80069 2.61632 1.73587 2.92109 1.61463C3.45983 1.40696 4.05617 1.34754 4.62251 1.46638C5.05026 1.56301 5.49662 1.5426 5.91897 1.66564C6.06356 1.70166 6.21654 1.75507 6.36472 1.70286C6.81828 1.55581 7.29283 1.48438 7.76438 1.42316C8.25692 1.5186 8.75607 1.58642 9.25042 1.67885C9.33621 1.43157 9.61278 1.47778 9.82156 1.45317C9.66558 1.44957 9.50959 1.44657 9.35421 1.44117C9.38301 1.35954 9.4124 1.27792 9.4412 1.19569C9.22642 1.2449 9.01585 1.31933 8.79507 1.33854C8.67928 1.35474 8.62949 1.2245 8.55509 1.16088ZM13.9683 1.07445C13.9359 1.17168 13.9683 1.20469 14.0667 1.17348C14.0985 1.07565 14.0661 1.04264 13.9683 1.07445ZM11.7726 2.06418C11.9711 1.97355 12.2009 1.89012 12.2819 1.66564C12.0833 1.75747 11.9207 1.90632 11.7726 2.06418ZM15.1886 2.17941C15.1868 2.21663 15.1826 2.29105 15.1808 2.32826C15.2528 2.29525 15.3242 2.26224 15.3962 2.22923C15.3266 2.21243 15.2576 2.19622 15.1886 2.17941ZM8.5167 13.9385C8.44051 14.0177 8.57129 14.1612 8.65228 14.0778C8.72908 13.9973 8.59769 13.8581 8.5167 13.9385Z" fill="white"/>
<path d="M0.787716 4.17748C0.923901 3.96921 1.18427 3.9392 1.40865 3.89839C1.26827 4.10425 1.02289 4.16848 0.787716 4.17748Z" fill="white"/>
<path d="M8.95645 11.746C9.15623 11.4285 9.57679 11.4105 9.90735 11.4867C10.3357 11.5719 10.6801 11.857 11.0244 12.1067C10.8133 12.1343 10.5967 12.1787 10.3849 12.1391C10.2409 12.0245 10.1455 11.8456 9.96314 11.7844C9.79756 11.7202 9.62718 11.659 9.4502 11.6386C9.28042 11.6428 9.12083 11.7124 8.95645 11.746Z" fill="white"/>
<path d="M11.1 12.1565C11.4252 12.2141 11.8194 12.2171 12.0083 12.5383C11.6064 12.5617 11.1996 12.6673 10.8025 12.5413C10.923 12.4866 11.0508 12.453 11.1804 12.4278C11.154 12.3372 11.1264 12.2472 11.1 12.1565Z" fill="white"/>
</svg>
