<svg width="14" height="14" viewBox="0 0 14 14" fill="none" xmlns="http://www.w3.org/2000/svg">
<path d="M6.8518 0H7.20262C7.97645 0.0319922 8.74836 0.175 9.47297 0.452539C11.0876 1.05984 12.4562 2.2884 13.2366 3.82676C13.7173 4.76 13.9727 5.80371 14 6.8518V7.20234C13.9645 8.13695 13.7561 9.06719 13.3613 9.91648C12.6569 11.457 11.3736 12.722 9.82297 13.4036C8.9991 13.7717 8.10223 13.9655 7.2018 14H6.60898C6.12418 13.948 5.63828 13.8882 5.1677 13.755C3.83277 13.3954 2.61461 12.6241 1.71145 11.5784C1.08773 10.8607 0.6125 10.0146 0.325391 9.1082C0.129609 8.4916 0.0265234 7.8482 0 7.20234V6.8518C0.0303516 5.60273 0.39375 4.36133 1.06012 3.30285C1.83914 2.05133 3.02148 1.05547 4.39004 0.506133C5.17098 0.188672 6.01016 0.0237891 6.8518 0ZM6.41102 1.3032C4.98422 1.44457 3.63016 2.15824 2.69063 3.23832C1.98844 4.04305 1.50746 5.04492 1.34449 6.10258C1.18316 7.10746 1.29801 8.15527 1.67316 9.10164C1.93867 9.74559 2.30563 10.3521 2.7825 10.862C3.41578 11.562 4.23063 12.0906 5.11766 12.4091C6.13703 12.7635 7.2573 12.8248 8.30785 12.5748C9.94219 12.1964 11.3794 11.0556 12.1209 9.5509C12.7146 8.39344 12.8734 7.02543 12.5899 5.75832C12.2183 4.05727 11.0204 2.56074 9.44152 1.82656C8.50856 1.36883 7.44242 1.20012 6.41102 1.3032Z" fill="white"/>
<path d="M3.3466 5.97488C3.60527 5.91555 3.88937 5.94344 4.12152 6.07633C4.37199 6.21742 4.5623 6.46242 4.63121 6.74215C4.68809 6.97922 4.66648 7.23734 4.55902 7.45746C4.44145 7.70164 4.22734 7.89879 3.97277 7.99258C3.75922 8.06832 3.52242 8.07434 3.30449 8.01445C2.94711 7.91 2.65699 7.60293 2.57633 7.23898C2.52629 7.00492 2.54816 6.75227 2.6559 6.53707C2.78961 6.26145 3.04828 6.04734 3.3466 5.97488Z" fill="white"/>
<path d="M6.7632 5.97023C7.01449 5.91773 7.2882 5.94645 7.51297 6.07551C7.79215 6.23137 8.00051 6.51793 8.04289 6.83676C8.07434 7.06016 8.04344 7.29641 7.93406 7.49547C7.78039 7.7834 7.48891 7.99969 7.16297 8.04289C6.93984 8.07461 6.70359 8.04344 6.50453 7.93406C6.24531 7.7957 6.04461 7.54633 5.97516 7.25949C5.91582 7.00164 5.94262 6.71863 6.07551 6.48703C6.21934 6.22973 6.47363 6.0323 6.7632 5.97023Z" fill="white"/>
<path d="M10.1536 5.97105C10.4057 5.91746 10.6807 5.9448 10.9063 6.07469C11.1642 6.21797 11.3591 6.47227 11.4237 6.76102C11.4737 6.99508 11.4518 7.24773 11.3441 7.4632C11.1921 7.77684 10.8765 8.01145 10.5273 8.04699C10.3056 8.07242 10.0729 8.03551 9.87848 7.9234C9.62801 7.78258 9.4377 7.53758 9.36879 7.25812C9.31027 7.01422 9.33488 6.74844 9.45 6.52449C9.58863 6.24996 9.85113 6.03613 10.1536 5.97105Z" fill="white"/>
</svg>
