<svg width="193" height="109" viewBox="0 0 193 109" fill="none" xmlns="http://www.w3.org/2000/svg">
<path d="M17.1428 9.39659C31.5961 -0.936746 50.2628 -0.723406 67.2094 0.716594C91.4094 3.03659 115.556 6.00991 139.583 9.74325C145.889 10.5699 151.676 13.2766 157.769 14.8899C162.929 14.5566 167.663 11.9833 172.449 10.1966C173.409 13.3033 175.703 16.5699 174.076 19.8633C173.436 22.8099 170.596 25.8499 172.423 28.8633C175.556 34.8499 177.969 41.5299 183.103 46.1699C185.823 48.7566 189.063 50.6899 192.223 52.6899C190.663 56.0766 189.756 60.6766 185.769 62.0499C174.689 66.5033 162.476 62.8899 151.183 66.1566C147.676 67.0099 144.209 68.0099 140.729 68.9966C139.676 76.7699 139.143 84.7299 140.649 92.4766C141.596 97.7833 143.729 102.77 145.343 107.89C142.436 107.943 139.516 108.117 136.623 107.81C134.663 105.57 134.023 102.583 133.129 99.8366C131.009 92.5166 128.356 85.2766 124.329 78.7566C121.343 88.2099 120.729 98.2632 122.463 108.01C119.516 107.53 114.516 109.383 113.463 105.423C111.489 94.7966 112.623 83.7966 110.089 73.2232C91.4761 76.6766 72.2628 76.5833 53.6628 73.1166C50.7961 72.6499 47.9294 71.9033 45.0228 72.0233C40.9028 74.2633 38.2094 78.8232 38.0494 83.5032C37.5828 91.9699 40.2894 100.197 43.6894 107.85C39.8894 107.57 35.3028 109.183 32.0761 106.57C28.4361 97.6233 27.2228 87.7966 22.8228 79.0899C15.3428 86.7299 14.8228 98.3833 18.5294 107.957C15.3561 107.757 11.8761 108.623 8.88943 107.263C7.10276 100.343 7.32943 93.0899 6.14276 86.0633C4.11609 76.6766 10.8228 67.7166 8.12943 58.3433C6.11609 53.0766 3.20943 47.9832 3.10276 42.1832C2.34276 35.9432 4.43609 29.9299 5.23609 23.8233C3.44943 21.5033 -0.603906 20.1966 0.0760938 16.7032C0.369427 14.3166 2.20943 12.5299 3.44943 10.5833C3.39609 13.4766 3.30276 16.3566 3.34276 19.2499C9.80943 19.3699 12.2894 12.4366 17.1428 9.39659Z" fill="white"/>
</svg>
