<svg width="24" height="15" viewBox="0 0 24 15" fill="none" xmlns="http://www.w3.org/2000/svg">
<path d="M5.584 0.122548C5.722 0.0479014 5.87709 0.00736169 6.0328 0.0118662C6.56342 0.0150837 7.09403 0.0157272 7.62404 0.0118662C7.78951 0.00350068 7.94339 0.0897291 8.10886 0.0813636C8.3012 0.0845811 8.49904 0.0517626 8.68589 0.118687C8.86663 0.204273 9.03943 0.0388932 9.22444 0.0800773C9.3429 0.0923039 9.46197 0.0942338 9.58104 0.0865117C9.5676 0.105817 9.54135 0.14314 9.52791 0.161801C9.32458 0.2461 9.13102 0.354853 8.92097 0.419203L8.90204 0.464247C9.3313 0.491274 9.77032 0.405047 10.191 0.524095C10.5189 0.5582 10.8566 0.473901 11.1772 0.580079C11.3378 0.634133 11.4977 0.562704 11.6559 0.533747C11.8384 0.518946 12.0216 0.525381 12.2048 0.531172C12.1932 0.552408 12.1706 0.594235 12.159 0.614827C11.9258 0.747388 11.665 0.818818 11.4214 0.928214L11.408 0.975188C11.5747 0.97004 11.7389 0.997069 11.9001 1.0389C12.3056 1.05498 12.7122 1.03568 13.1177 1.04276C13.2257 1.04211 13.3222 1.1026 13.4266 1.12384C13.6312 1.14636 13.8376 1.10067 14.0409 1.1425C13.6019 1.22937 13.1537 1.18947 12.7104 1.1824L12.7018 1.22937C13.3106 1.17725 13.9243 1.27313 14.5306 1.19012C14.7834 1.10131 15.0545 1.09359 15.3183 1.11032C15.3036 1.21715 15.1864 1.23967 15.1095 1.27764C14.8536 1.3703 14.6118 1.50093 14.3499 1.57429C14.3291 1.66824 14.458 1.69334 14.5233 1.68755C14.9287 1.69527 15.3348 1.67596 15.7396 1.69141C16.2605 1.84649 16.8137 1.6573 17.3345 1.81239C17.4725 1.82526 17.6111 1.80724 17.7491 1.82204C17.8572 1.85164 17.9482 1.94237 18.0624 1.94752C18.2462 1.91792 18.4214 1.80209 18.6125 1.85357C18.8354 1.80852 19.0632 1.80273 19.2897 1.81882C19.181 1.95846 19.007 2.01252 18.8501 2.06657C18.5582 2.15537 18.2877 2.30917 17.9921 2.38575C17.7998 2.41728 17.602 2.36708 17.4115 2.41213C17.2411 2.50673 17.0884 2.63221 16.926 2.74096C16.5554 3.09102 16.3948 3.60583 16.258 4.09489L16.2153 4.11419C15.9991 4.09167 15.8123 4.20171 15.6199 4.28408C15.3794 4.18112 15.1217 4.26091 14.875 4.20107C14.4439 4.12706 14.0049 4.22295 13.5738 4.15152C13.404 4.12192 13.2319 4.11291 13.0603 4.10583C12.8301 4.09811 12.6121 4.0093 12.3837 3.98871C12.065 3.95911 11.7444 4.01316 11.4269 3.96554C11.1118 3.91085 10.7876 3.9308 10.4811 3.82784C10.5067 3.76155 10.5336 3.69592 10.5617 3.63092C10.5946 3.61419 10.6612 3.58137 10.6942 3.56464C10.7064 3.52989 10.7302 3.45975 10.7424 3.425C10.613 3.30595 10.4249 3.35422 10.2686 3.31754C9.85703 3.2371 9.4351 3.30917 9.02416 3.22359C8.53018 3.11419 8.01605 3.11419 7.51841 3.1972C7.50986 3.15859 7.49215 3.08009 7.4836 3.04148C7.50802 2.97519 7.53306 2.90956 7.55871 2.84456C7.59351 2.82526 7.66251 2.78536 7.69731 2.76541C7.70525 2.68433 7.70159 2.60389 7.68815 2.5241C7.37186 2.46811 7.05007 2.53568 6.73439 2.48098C6.42114 2.4295 6.1079 2.36322 5.78917 2.37288C5.55775 2.38253 5.33793 2.21715 5.11017 2.32526C5.1407 2.26541 5.17062 2.20621 5.20115 2.14701C5.22741 2.13993 5.28053 2.12513 5.30679 2.11741C5.3251 2.04276 5.31656 1.97133 5.28236 1.90376C5.13276 1.8407 4.96912 1.8658 4.81281 1.85743C4.56246 1.86387 4.33165 1.73645 4.08313 1.73002C3.79737 1.72036 3.51221 1.73388 3.22645 1.73838C3.2234 1.5936 3.32903 1.4739 3.42367 1.38124C3.79492 1.06785 4.25471 0.915986 4.68214 0.711352C4.9734 0.572355 5.28297 0.488058 5.59011 0.397324C5.584 0.309165 5.49974 0.193333 5.584 0.122548ZM5.99006 0.289215C6.02181 0.322033 6.02181 0.322033 5.99006 0.289215ZM8.61811 0.603244L8.61505 0.648932C9.05225 0.632201 9.49006 0.627698 9.92725 0.64829L9.92175 0.603888C9.487 0.621906 9.05225 0.619975 8.61811 0.603244ZM11.3402 1.17146L11.339 1.2416C11.7298 1.27056 12.1248 1.2712 12.5156 1.24096L12.515 1.17017C12.1254 1.13864 11.7298 1.13607 11.3402 1.17146ZM13.7948 2.02667C13.9957 2.03697 13.702 2.22101 13.7948 2.02667ZM13.1329 2.23066C13.0481 2.2815 13.0578 2.43658 13.1793 2.40634C13.3625 2.43658 13.2435 2.19141 13.1329 2.23066Z" fill="#121212"/>
<path d="M21.2485 2.4945C21.3425 2.51059 21.4323 2.54534 21.5215 2.58137C21.5276 2.64894 21.5196 2.73066 21.6057 2.73581C21.5135 2.91278 21.3163 2.99 21.1478 3.06078C21.1215 3.04019 21.069 2.999 21.0427 2.97906C21.0153 2.95525 20.9609 2.90763 20.9334 2.88446C21.0372 2.75383 21.1148 2.59489 21.2485 2.4945Z" fill="#121212"/>
<path d="M20.7588 2.52667L20.8064 2.53504C20.8064 2.79308 20.71 3.02989 20.5817 3.24418C20.5872 3.30016 20.5988 3.35615 20.6165 3.4102C20.6868 3.35679 20.7692 3.33684 20.8535 3.36323C20.8791 3.59746 20.8473 3.83363 20.8504 4.06915C20.8449 4.31432 20.8754 4.56336 20.8272 4.80596C20.7039 5.31111 20.8229 5.84007 20.7283 6.34908C20.7081 6.36388 20.6672 6.39284 20.6471 6.40699C20.6361 6.16053 20.6532 5.91471 20.6629 5.6689C20.481 5.91343 20.495 6.24869 20.3869 6.52926C20.2654 6.59747 20.1531 6.48936 20.0371 6.46234C19.9644 6.42823 19.8209 6.43531 19.835 6.31304C19.8069 6.13865 19.8612 5.9707 19.8863 5.80081C19.9638 5.07816 20.1042 4.36259 20.1549 3.63865C20.1812 3.52089 20.299 3.4797 20.376 3.40698C20.3979 3.28665 20.2465 3.19656 20.2947 3.07236C20.3381 2.85293 20.5219 2.68433 20.7387 2.70235C20.7435 2.65795 20.7539 2.57043 20.7588 2.52667Z" fill="#121212"/>
<path d="M17.7143 3.30853C18.3048 3.23839 18.8867 3.09617 19.471 2.98227C19.3257 3.15023 19.1822 3.31947 19.0589 3.50737C18.9935 3.61484 18.8653 3.61097 18.7615 3.64251C18.6021 3.85422 18.5093 4.10969 18.3878 4.34521C18.3243 4.45396 18.3127 4.58202 18.2944 4.70557H18.2523C18.0593 4.47198 17.7815 4.61162 17.547 4.6734C17.4084 4.72166 17.2765 4.63736 17.1507 4.58845C17.2533 4.40055 17.348 4.203 17.4969 4.04984C17.5696 3.97455 17.5727 3.84328 17.6734 3.79502C17.6539 3.64058 17.5611 3.41213 17.7143 3.30853Z" fill="#121212"/>
<path d="M7.41949 3.87031C7.48848 3.81304 7.5471 3.74354 7.60511 3.67468C7.60939 3.70493 7.61916 3.7667 7.62343 3.79759C7.66129 3.9308 7.79562 3.96168 7.89881 4.01831C7.86645 4.08395 7.83042 4.14766 7.79806 4.21329C7.89332 4.18755 7.9727 4.12449 8.05696 4.0743C8.22976 4.11805 8.38913 4.21715 8.56987 4.22745C8.72374 4.25448 8.8941 4.23131 9.03454 4.31303C9.11087 4.49836 9.10537 4.70943 9.16888 4.90055C9.22688 4.82398 9.27329 4.73839 9.31481 4.65087C9.44975 4.71651 9.59081 4.76284 9.73308 4.8066C9.70743 4.83299 9.65492 4.8864 9.62866 4.91278C9.90344 4.89991 10.177 4.83878 10.4316 4.72745L10.467 4.71329C10.536 4.81625 10.6215 4.90635 10.7223 4.97584C10.9348 5.15538 11.2065 5.23775 11.4739 5.26992L11.5179 5.27765C11.6046 5.30532 11.6925 5.32977 11.7817 5.351C11.8104 5.35036 11.8684 5.34972 11.8971 5.34907C12.0106 5.37353 12.1242 5.40055 12.2353 5.43788C12.4033 5.77443 12.7159 6.00995 13.0542 6.12707C13.1397 6.03569 13.1464 5.88897 13.0987 5.777C13.0035 5.71909 12.9021 5.6734 12.8014 5.62835C12.8539 5.62385 12.9589 5.61548 13.0114 5.61098C13.0536 5.60905 13.1378 5.60454 13.18 5.60261C13.1793 5.55628 13.1781 5.46362 13.1781 5.41729C13.012 5.39798 12.8447 5.39798 12.6786 5.40056C12.9827 5.34521 13.2935 5.40184 13.5976 5.34586C13.597 5.48035 13.5958 5.61484 13.5988 5.74933C13.6013 5.87288 13.6031 5.99708 13.6251 6.1187C13.6855 6.12707 13.7454 6.13608 13.8058 6.14573C13.8107 6.17662 13.8205 6.23711 13.8248 6.268C14.0543 6.23711 14.2845 6.21008 14.5154 6.18692C14.5123 6.03569 14.4854 5.88769 14.4647 5.73904C14.4616 5.63865 14.4616 5.53762 14.4525 5.43788C14.1673 5.40313 13.8864 5.30982 13.5976 5.34586C13.771 5.30982 13.9475 5.2918 14.1233 5.27507C14.4103 5.2429 14.6521 5.04791 14.9373 5.00673C14.9434 5.19206 14.9519 5.37868 14.9928 5.56079C15.0203 5.90184 15.104 6.23389 15.1431 6.57366C15.1656 6.75899 15.1834 6.94882 15.256 7.12192C15.3104 6.96877 15.3403 6.80725 15.4007 6.65667C15.4355 6.65474 15.5058 6.65024 15.5412 6.64766C15.7995 6.92244 16.0602 7.22553 16.4204 7.34908C16.5865 7.39413 16.6244 7.1837 16.5823 7.05886C16.3069 6.91665 15.9887 6.88833 15.7219 6.73067C15.7085 6.70686 15.6822 6.65925 15.6688 6.63544C16.0058 6.71073 16.3142 6.89219 16.6531 6.95783C16.6867 6.8613 16.7093 6.76092 16.7087 6.6586C16.5279 6.60455 16.3423 6.56916 16.167 6.49837L16.1646 6.4604C16.1829 6.4411 16.2202 6.40249 16.2385 6.38318C16.4003 6.36516 16.5627 6.38318 16.7184 6.4308C16.7447 6.35616 16.7654 6.27894 16.7886 6.203C16.9254 6.35616 17.1031 6.46298 17.2851 6.5447C17.2918 6.54663 17.3058 6.55049 17.3132 6.55178C17.3815 6.56015 17.4505 6.56851 17.5195 6.57752C17.5317 6.61163 17.5574 6.67855 17.5696 6.71266C17.456 6.8124 17.2985 6.76993 17.1636 6.79052C17.1593 6.87932 17.1397 6.981 17.1843 7.06272C17.2478 7.12385 17.3229 7.17469 17.3736 7.25063C17.2948 7.28344 17.2142 7.3124 17.1355 7.34458C16.9969 7.40378 16.8503 7.45783 16.7349 7.56144C16.6861 7.85359 16.7227 8.1541 16.6781 8.44754C16.5969 8.41279 16.4888 8.3568 16.432 8.46363C16.4388 8.49451 16.4522 8.55758 16.4589 8.58847C16.5261 8.60198 16.5939 8.61228 16.6622 8.62128C16.7239 8.77894 16.7056 8.95397 16.5517 9.04085C16.5242 8.95269 16.498 8.8626 16.4546 8.78152C16.3869 8.76865 16.3185 8.75835 16.2501 8.75127C16.2495 8.59812 16.2415 8.44496 16.2275 8.2931C16.2196 8.07495 16.2287 7.85423 16.197 7.63801C16.1512 7.48422 15.9686 7.47456 15.8471 7.52218C15.8043 7.6496 15.8746 7.78087 15.8538 7.91021C15.7494 7.98808 15.6267 8.04535 15.5546 8.16247C15.5357 8.18628 15.4972 8.2339 15.4777 8.25706C15.2817 8.2429 15.0832 8.24484 14.8976 8.32141C14.9434 8.46749 15.1119 8.51318 15.1711 8.64509C15.1101 9.11549 14.9703 9.57238 14.9281 10.0466C14.8677 10.3407 14.7987 10.6425 14.8347 10.945L14.8512 10.9945C15.173 11.14 15.5253 11.1792 15.8599 11.2796C16.0303 11.3311 16.0266 11.5524 16.0736 11.6992C16.2147 12.3781 16.4809 13.1046 17.075 13.4752C17.2643 13.6367 17.5611 13.6033 17.7149 13.806C17.6429 13.8523 17.5696 13.8961 17.4988 13.9437C17.5128 13.9965 17.5311 14.0479 17.5464 14.1014C17.4695 14.1921 17.3718 14.2693 17.2606 14.3053C17.0158 14.3098 16.8057 14.1155 16.5603 14.1297C16.4259 14.1863 16.4351 14.3555 16.407 14.4797C16.1957 14.546 15.9759 14.5756 15.7561 14.5518C15.5943 14.3549 15.333 14.2288 15.2817 13.9514C15.2121 13.6361 15.0124 13.333 15.115 12.9997C15.1412 12.9681 15.1931 12.9051 15.2188 12.8735C15.2664 12.8105 15.2914 12.7223 15.2462 12.6503C15.1626 12.4836 15.0796 12.3079 14.9501 12.176C14.6839 12.1959 14.4244 12.2764 14.1569 12.2835C13.917 12.2912 13.6758 12.2661 13.4376 12.3053C12.7806 12.4102 12.1224 12.5061 11.4648 12.6046C11.3597 12.6303 11.2169 12.6277 11.1637 12.7481C11.1723 12.7847 11.1894 12.8587 11.1979 12.8954C10.9415 12.8382 10.6997 12.6644 10.5079 12.4829C10.456 12.3851 10.4084 12.2841 10.3449 12.1947C9.99258 12.1329 9.61706 12.25 9.27878 12.093C9.23665 11.9012 9.30321 11.712 9.35084 11.5293L9.40152 11.5454L9.44426 11.5614C9.66896 11.6921 9.91687 11.6104 10.0994 11.445C10.3986 11.3928 10.7302 11.4919 10.9946 11.2892C11.3536 11.1483 11.7377 11.1116 12.1035 11.001L12.148 10.9862C12.0418 10.7892 11.9062 10.6091 11.7517 10.452C10.928 10.3221 10.1074 10.5737 9.28672 10.6412C8.94112 10.6985 8.58147 10.6972 8.24991 10.8272C8.27067 10.9212 8.29998 11.0125 8.33051 11.1039C8.00445 10.9823 7.71929 10.7667 7.53855 10.4533C7.22287 10.4212 6.89681 10.4714 6.59211 10.3542C6.5683 10.214 6.60616 10.0743 6.61471 9.93532C6.27704 9.72875 5.88076 9.63995 5.56752 9.38705C5.44478 9.29696 5.3764 9.15282 5.27931 9.03763C4.97401 8.99194 4.64 9.09297 4.36462 8.90185C4.36767 8.8671 4.37439 8.7976 4.37744 8.7635C4.38294 8.71652 4.39454 8.62386 4.40003 8.57753C4.6455 8.50545 4.89829 8.54406 5.14803 8.53441C5.48264 8.47521 5.77695 8.2783 6.10729 8.19979C6.32955 8.12901 6.57563 8.13029 6.78201 8.0106C6.88032 7.9411 6.79545 7.80339 6.69592 7.8079C6.2917 7.77508 5.88137 7.78023 5.48142 7.85809C5.00881 7.93982 4.52704 7.94883 4.05382 8.02669C3.92987 8.03763 3.8627 8.1496 3.80347 8.24998C3.73814 8.22875 3.67219 8.20944 3.60625 8.19078C3.53358 8.09812 3.50183 7.981 3.44993 7.87675C3.16417 7.88254 2.88756 7.82206 2.60485 7.79374C2.52913 7.64831 2.52913 7.43531 2.69888 7.36581C2.94923 7.31883 3.20569 7.37932 3.45604 7.33621C3.59464 7.29696 3.72287 7.22875 3.85598 7.17533C4.12526 7.06079 4.41225 7.02347 4.69496 6.96877C4.88852 6.94432 5.08758 6.99451 5.27748 6.93788C5.52416 6.86388 5.78367 6.91021 6.03646 6.89734C6.20133 6.88447 6.35276 6.98228 6.51762 6.96427C6.55487 6.70751 6.46144 6.42244 6.58662 6.18627C6.63425 6.24354 6.75453 6.29824 6.77835 6.18627C6.81132 6.04727 6.63791 6.03054 6.58601 6.13415C6.60799 5.77507 6.66356 5.41664 6.72645 5.06207C6.74843 5.04856 6.79239 5.02089 6.81376 5.00673C6.84368 4.82526 6.83086 4.63865 6.8272 4.45461C6.84368 4.35808 6.75881 4.31497 6.70324 4.26156C6.65317 4.18112 6.64035 4.08331 6.63119 3.99C6.88398 3.88832 7.1557 3.89926 7.41949 3.87031ZM7.88233 4.56593C7.91835 4.56465 7.99101 4.56207 8.02765 4.56078C8.02887 4.52217 8.03192 4.4456 8.03315 4.40699C7.94217 4.39991 7.87439 4.47005 7.88233 4.56593ZM8.34578 4.53955L8.30548 4.5344C8.19862 4.8761 8.21083 5.26413 8.0014 5.56529C7.99407 5.46748 8.002 5.35165 7.91469 5.28923C7.88904 5.28923 7.83775 5.29052 7.81211 5.29116C7.42254 5.44689 7.22715 5.87546 7.06961 6.2532C6.862 6.44496 6.84063 6.79953 6.92612 7.05371C7.18196 7.13737 7.4488 7.19979 7.70464 7.26349C7.79745 7.5003 7.83775 7.75835 7.95071 7.98743L8.00445 7.99323C7.98186 8.11163 8.23648 8.11099 8.21999 7.99644C8.25235 7.99773 8.31708 8.0003 8.34944 8.00159C8.16076 7.68048 8.03009 7.32591 7.82249 7.01703C7.83836 6.8169 8.03009 6.72681 8.16687 6.6245C8.16992 6.48357 8.11985 6.34779 8.09604 6.21008C8.16931 6.20236 8.24747 6.12321 8.31891 6.16117C8.38058 6.28344 8.39524 6.45912 8.54117 6.5048C8.63215 6.47842 8.72313 6.44882 8.80862 6.40571C8.90631 6.27443 8.81045 6.07752 8.91792 5.94882C9.0553 5.78408 9.03882 5.5595 9.0205 5.3568C8.98386 5.36066 8.90998 5.36902 8.87334 5.37353C8.55094 5.20171 8.85869 4.73067 8.65047 4.48807L8.612 4.5241C8.53079 4.44109 8.42455 4.4752 8.34578 4.53955ZM8.97409 4.8568C8.85502 4.8864 8.9057 5.0891 9.02477 5.04663C9.1414 5.01896 9.08156 4.82269 8.97409 4.8568ZM10.0359 4.97262C10.0964 5.02153 10.1617 5.06722 10.2362 5.09103C10.2729 5.01188 10.3003 4.92887 10.3235 4.84521C10.224 4.87803 10.1269 4.91986 10.0359 4.97262ZM9.5328 4.91535C9.56577 4.94946 9.56577 4.94946 9.5328 4.91535ZM7.8866 5.04985C7.80966 5.15538 8.02704 5.28601 8.06368 5.15345C8.08688 5.05371 7.95316 4.97134 7.8866 5.04985ZM10.3528 5.46941C10.3565 5.39348 10.3565 5.31819 10.3528 5.24225C10.1697 5.21716 10.1709 5.49129 10.3528 5.46941ZM10.7284 5.49901L10.6832 5.49515C10.6056 5.83749 10.5635 6.21008 10.3144 6.47134C10.2948 6.39798 10.2667 6.32848 10.2295 6.26349C9.88145 6.22359 9.60057 6.53248 9.45586 6.8375C9.33923 7.01896 9.3142 7.28602 9.10171 7.37933C9.04065 7.61742 9.17865 7.84844 9.26902 8.05886C9.39236 8.35809 9.76666 8.23583 9.98343 8.40121C10.0445 8.694 10.1355 8.97843 10.2026 9.27058C10.3803 9.29117 10.5604 9.28602 10.7387 9.27444C10.5684 8.88641 10.351 8.51125 10.1892 8.1142C10.1831 7.91021 10.4139 7.83686 10.5415 7.72875C10.4921 7.56916 10.4414 7.40957 10.4157 7.24355C10.4823 7.21459 10.5501 7.18627 10.6178 7.15989C10.6838 7.21716 10.7271 7.30725 10.8102 7.34071C10.8444 7.4115 10.8847 7.47971 10.9366 7.53827C11.0966 7.54921 11.2468 7.46234 11.3897 7.39605C11.5252 7.32398 11.4293 7.12514 11.516 7.01574C11.6608 6.78601 11.7585 6.39541 11.5197 6.20043C11.4654 6.22488 11.4116 6.25191 11.3597 6.28151C11.2669 6.26092 11.096 6.2622 11.1082 6.1187C11.0801 5.86195 11.1912 5.56336 11.0318 5.34007L11.0031 5.37932C10.8938 5.24097 10.7894 5.4057 10.7284 5.49901ZM14.5813 6.00287C14.7175 6.07881 14.9416 5.91343 14.7993 5.7725C14.6619 5.62642 14.5147 5.85937 14.5813 6.00287ZM10.21 5.96426C10.1886 6.05564 10.2747 6.10969 10.3498 6.11356C10.3577 6.03762 10.3626 5.96169 10.3644 5.88575C10.3113 5.90828 10.2594 5.93466 10.21 5.96426ZM11.5429 5.88769C11.5393 5.98292 11.6125 6.04727 11.6986 6.05049C11.6968 6.01059 11.6937 5.93144 11.6925 5.89155C11.6553 5.89026 11.5808 5.88897 11.5429 5.88769ZM8.91914 6.1438C8.85014 6.24161 9.01561 6.32655 9.07484 6.24226C9.14689 6.14316 8.97715 6.055 8.91914 6.1438ZM14.2229 6.26156C14.1868 6.4707 14.3645 6.68112 14.5685 6.57559C14.5789 6.49773 14.5807 6.41922 14.5734 6.34136C14.4696 6.27057 14.3462 6.22166 14.2229 6.26156ZM13.0096 6.342C13.0139 6.37675 13.0224 6.4456 13.0261 6.48035C13.0731 6.5106 13.1213 6.53762 13.1726 6.56079C13.1702 6.48807 13.1653 6.416 13.1568 6.34393C13.1201 6.34393 13.0462 6.34264 13.0096 6.342ZM13.6568 6.51703C13.4621 6.59682 13.4938 6.85809 13.412 7.0254C13.3027 7.24612 13.2899 7.51575 13.1165 7.6985C13.089 7.58396 13.0621 7.46942 13.0383 7.35487C12.8203 7.35809 12.6158 7.47649 12.432 7.59232C12.2708 7.74677 12.1639 7.95397 12.0283 8.13287C11.9068 8.27765 11.9239 8.52218 11.7371 8.60455C11.6284 8.88062 11.6046 9.2088 11.7988 9.45076C12.0729 9.56852 12.3776 9.58461 12.6493 9.70945C12.758 9.98165 12.8111 10.2732 12.8911 10.5557L12.9424 10.5602C12.9107 10.7037 12.9833 10.8414 13.0676 10.9475C13.2838 10.8755 13.5091 10.8871 13.7326 10.8883C13.7026 10.815 13.6538 10.7513 13.5878 10.7114C13.5506 10.5048 13.3876 10.3568 13.3204 10.1612C13.2416 9.94561 13.1482 9.73712 13.0584 9.52734C13.0047 9.34587 13.1934 9.26993 13.2685 9.14316C13.2715 9.01961 13.3082 8.90314 13.3424 8.78667C13.2099 8.72746 13.1787 8.58268 13.1891 8.44497C13.2996 8.43853 13.4132 8.36131 13.5219 8.39799C13.6208 8.55951 13.6141 8.80468 13.7985 8.89606C14.0299 8.8671 14.218 8.66633 14.4586 8.69851C14.3633 9.03248 14.4018 9.38448 14.4048 9.72747L14.458 9.73583C14.4677 9.32528 14.6088 8.9366 14.6674 8.53377C14.679 8.43145 14.7187 8.33364 14.8109 8.28666C14.8451 8.02797 14.8316 7.76092 14.8158 7.5003C14.6918 7.45976 14.5721 7.407 14.4525 7.35487C14.3456 7.3375 14.2632 7.42823 14.1746 7.47585C14.1148 7.40442 14.0488 7.34007 13.9927 7.26671C14.0446 6.99966 14.0995 6.70107 13.964 6.45075L13.9231 6.46426C13.8376 6.39863 13.6489 6.342 13.6568 6.51703ZM13.0126 7.04921C13.0139 7.08717 13.0163 7.16247 13.0175 7.20043C13.0536 7.20172 13.1256 7.20558 13.1616 7.20687C13.1622 7.16697 13.1635 7.08653 13.1641 7.04663C13.1262 7.04728 13.0505 7.04856 13.0126 7.04921ZM14.8347 7.04921C14.8219 7.07688 14.7968 7.13093 14.784 7.15796C14.7962 7.26221 14.9232 7.29953 14.98 7.21137C14.9898 7.12771 14.8939 7.08138 14.8347 7.04921ZM8.77992 7.09039C8.78114 7.13865 8.78297 7.23582 8.78358 7.28409C8.82938 7.28473 8.92158 7.28537 8.96799 7.28602C9.00218 7.16118 8.89227 7.06723 8.77992 7.09039ZM16.4082 7.67469C16.4211 7.74419 16.4449 7.80918 16.4809 7.87032C16.5255 7.8716 16.6158 7.87482 16.6604 7.87611C16.6702 7.78409 16.669 7.69335 16.6574 7.60262C16.5694 7.58074 16.4577 7.57881 16.4082 7.67469ZM11.4147 8.25964C11.2706 8.34394 11.3835 8.56208 11.5313 8.50674C11.5362 8.41922 11.5368 8.2339 11.4147 8.25964ZM14.5135 9.71846C14.5013 9.81112 14.5031 9.90443 14.5184 9.99709C14.621 10.0286 14.784 10.0055 14.7852 9.86067C14.7828 9.71138 14.6185 9.69658 14.5135 9.71846Z" fill="#121212"/>
<path d="M21.2149 4.38318C21.2241 4.20171 21.3114 3.99321 21.4873 3.93594C21.6301 3.9456 21.8017 4.04083 21.8353 4.19978L21.7871 4.20686C21.7608 4.21072 21.7089 4.2178 21.6833 4.22166C21.6271 4.36516 21.8017 4.41793 21.8854 4.48356C21.9171 4.72938 21.8585 4.97649 21.8445 5.2223C21.8439 5.45139 21.6344 5.70944 21.4091 5.564C21.3835 5.37546 21.3285 5.19528 21.2619 5.01896C21.218 4.87932 21.367 4.78408 21.37 4.65409C21.3224 4.56078 21.2601 4.47713 21.2149 4.38318Z" fill="#121212"/>
<path d="M22.2365 6.45525C22.2267 6.36002 22.2774 6.28087 22.3476 6.22745C22.3861 6.35809 22.3995 6.49515 22.4245 6.629C22.5216 6.68563 22.6279 6.64702 22.725 6.61163L22.783 6.61227C22.7903 6.61291 22.8049 6.61356 22.8123 6.6142C22.8324 6.62385 22.8727 6.64316 22.8935 6.65281C22.9271 6.74419 22.9631 6.74612 23.0003 6.65989C23.1915 6.81819 23.4308 6.91536 23.5792 7.12707C23.7306 7.30661 23.7752 7.54792 23.832 7.77315C23.9211 8.13094 23.8118 8.51125 23.8882 8.86903C24.0176 9.11742 24.0805 9.51189 23.8173 9.68757C23.7624 9.76286 23.6751 9.71845 23.6335 9.65668C23.5285 9.53827 23.4412 9.4025 23.3716 9.25835C23.3978 9.11742 23.4241 8.97521 23.4211 8.83171C23.4571 8.64895 23.3118 8.52926 23.1884 8.43402C23.1756 8.42373 23.1499 8.40314 23.1377 8.39284C23.1328 8.43145 23.1231 8.50867 23.1188 8.54728C23.0315 8.42437 22.9143 8.27186 22.9112 8.10455L22.9118 8.07752C22.9155 7.97842 22.9228 7.87933 22.9167 7.78087C22.9149 7.77186 22.9124 7.75513 22.9106 7.74676C22.8691 7.64187 22.8569 7.46877 22.717 7.47263C22.7256 7.73711 22.8819 8.00095 22.7903 8.2635C22.7701 8.27058 22.7298 8.28538 22.7097 8.2931C22.706 8.25191 22.6999 8.17019 22.6963 8.12965C22.6596 8.0505 22.6181 7.97456 22.5754 7.90056C22.5705 7.8922 22.5607 7.87611 22.5564 7.86774C22.4996 7.77186 22.4429 7.67598 22.3891 7.57817C22.3849 7.57045 22.3763 7.55436 22.3726 7.54663C22.3177 7.43531 22.2658 7.32334 22.2182 7.20944C22.223 6.95783 22.2243 6.70622 22.2365 6.45525ZM23.0162 6.82205C23.0419 6.91986 23.0657 7.02089 23.1133 7.11098C23.2202 7.19271 23.3814 7.21008 23.4406 7.34779C23.5994 7.63801 23.6305 7.97714 23.628 8.30532C23.6714 8.41987 23.697 8.57109 23.8021 8.63995C23.8412 8.09747 23.7789 7.51703 23.4565 7.07237C23.3173 6.97585 23.1762 6.87546 23.0162 6.82205ZM23.0058 7.16375C23.0022 7.21137 22.9936 7.3079 22.9894 7.35616C22.8178 7.23325 22.8373 7.55564 22.9906 7.4012C23.2012 7.47842 23.3209 7.68821 23.5047 7.80082C23.5029 7.49387 23.2727 7.24869 23.0058 7.16375ZM23.0706 7.61034C23.073 7.65217 23.0785 7.73647 23.0816 7.77894C23.1915 7.92823 23.3521 8.02347 23.5059 8.11485C23.4064 7.92308 23.3075 7.62257 23.0706 7.61034ZM23.1225 8.06015C23.1701 8.25964 23.3508 8.39928 23.5059 8.5106C23.4528 8.31176 23.3252 8.10841 23.1225 8.06015ZM23.6323 8.65796C23.5755 8.71717 23.6555 8.84844 23.7294 8.8079C23.7783 8.74741 23.7062 8.61935 23.6323 8.65796ZM23.7483 8.91215C23.9486 8.92309 23.6549 9.10648 23.7483 8.91215ZM23.7428 9.47135C23.766 9.31047 23.7105 9.15153 23.6122 9.02991C23.3801 9.06273 23.545 9.5254 23.7428 9.47135Z" fill="#121212"/>
<path d="M17.6923 7.20687C17.9024 7.05629 18.1637 7.01317 18.3719 6.85423C18.6028 7.01703 18.8867 6.79116 19.1169 6.96684C18.9575 7.18113 18.6925 7.02733 18.4831 7.02669C18.6589 7.17533 18.8708 7.26543 19.0906 7.31047C19.0919 7.3819 19.0931 7.45397 19.0943 7.52604C18.9044 7.57945 18.7353 7.68949 18.5478 7.7487C18.3219 7.6985 18.1027 7.61099 17.8712 7.58718C17.9921 7.5505 18.1192 7.54406 18.2437 7.52862C18.1533 7.45654 18.0495 7.40828 17.9451 7.36517C17.9836 7.2976 18.0215 7.23003 18.0575 7.16118C17.9354 7.17533 17.8145 7.19593 17.6923 7.20687Z" fill="#121212"/>
<path d="M20.0487 7.3774C20.0377 7.21652 20.089 7.06336 20.1867 6.94174C20.1958 7.09618 20.1641 7.26478 20.2435 7.40442C20.3021 7.52347 20.3521 7.64895 20.3259 7.78602C20.1549 7.78344 20.2044 7.97971 20.216 8.09812C20.2575 8.10262 20.3405 8.11099 20.3821 8.11549C20.4651 8.12257 20.5488 8.13029 20.6324 8.13866C20.6758 8.19786 20.7197 8.25642 20.7643 8.31627C20.688 8.47843 20.542 8.55436 20.3741 8.55372C20.2428 8.47778 20.0914 8.46813 19.9522 8.52476C19.8746 8.49838 19.8295 8.43081 19.8215 8.3478C20.0041 8.06594 20.0694 7.71395 20.0487 7.3774Z" fill="#121212"/>
<path d="M21.4256 7.55371C21.4799 7.51639 21.5392 7.49001 21.6033 7.47456C21.7346 7.5846 21.6814 7.78344 21.6698 7.93467C21.4439 8.01897 21.3413 7.73518 21.4256 7.55371Z" fill="#121212"/>
<path d="M17.6545 7.81819C17.8621 7.8819 18.0514 7.99773 18.2614 8.05307C18.3445 8.08782 18.43 8.05886 18.4806 7.98229C18.6925 7.99001 18.8794 8.16826 19.0998 8.06723C19.098 8.10906 19.0943 8.19207 19.0925 8.2339C19.0094 8.30082 18.9081 8.35037 18.8519 8.44625C18.9142 8.6052 19.0345 8.7236 19.1847 8.78795C19.1205 9.09748 19.029 9.40121 18.9697 9.71331C18.8281 9.74034 18.6925 9.7931 18.5563 9.84008C18.4257 9.74934 18.3951 9.58654 18.3799 9.43467C18.3432 9.39671 18.306 9.36003 18.2688 9.32399C18.2718 9.22682 18.2944 9.13287 18.3023 9.03699C18.2376 8.92888 18.1448 8.84072 18.0477 8.76607C17.9158 8.73261 17.834 8.86839 17.7357 8.9321C17.5995 8.92309 17.4652 8.89156 17.3284 8.89027C17.2991 8.8922 17.2411 8.89606 17.2118 8.89799C17.1831 8.88319 17.1251 8.8523 17.0964 8.83686C17.1233 8.78216 17.152 8.72875 17.1819 8.67598C17.2466 8.71524 17.3125 8.7532 17.3797 8.78988C17.4298 8.82721 17.4823 8.83107 17.5379 8.80146C17.5946 8.47843 17.6349 8.14702 17.6545 7.81819Z" fill="#121212"/>
<path d="M21.381 8.45912C21.4604 8.44046 21.5624 8.40185 21.6295 8.47585C21.737 8.54857 21.7114 8.6985 21.7419 8.8124C21.8542 8.83235 21.969 8.83686 22.0826 8.85295C22.0631 8.92888 22.0038 8.97971 21.9568 9.03763C22.1406 9.22682 22.43 9.16311 22.6541 9.26865C22.6969 9.36968 22.6938 9.48486 22.6932 9.59426C22.4361 9.65604 22.1742 9.71073 21.9092 9.68628C21.6442 9.66311 21.3847 9.75385 21.1197 9.72746C21.2033 9.64252 21.3505 9.60456 21.3719 9.47006C21.3957 9.13351 21.37 8.79567 21.381 8.45912Z" fill="#121212"/>
<path d="M16.6677 9.91666C16.7758 10.1001 16.9737 10.1573 17.1495 10.2391C17.2026 10.3356 17.238 10.4424 17.2869 10.5421C17.3156 10.5396 17.373 10.5351 17.4011 10.5325C17.6459 10.4733 17.8487 10.2674 18.1069 10.2693C18.0868 10.8356 17.925 11.4025 18.0581 11.9662C17.917 12.2017 17.754 12.4231 17.5299 12.5769C17.533 12.7017 17.6697 12.7397 17.7412 12.8182C17.6349 12.8993 17.5134 12.9514 17.3913 12.999C17.4328 12.7642 17.2301 12.6322 17.122 12.4617C16.8839 12.0956 16.7532 11.6702 16.6067 11.2584C16.5621 11.1496 16.6268 11.0428 16.6732 10.9501C16.6971 10.9282 16.7447 10.8851 16.7685 10.8632C16.7154 10.7152 16.6885 10.5711 16.7648 10.4295C16.6952 10.2674 16.6372 10.1007 16.6677 9.91666Z" fill="#121212"/>
<path d="M9.22444 0.0800773C9.28428 -0.0357531 9.50288 -0.00422237 9.61096 0.0401793C9.60363 0.0517623 9.58836 0.0749287 9.58104 0.0865117C9.46197 0.0942338 9.3429 0.0923039 9.22444 0.0800773Z" fill="#101111"/>
<path d="M11.3402 1.17146C11.7298 1.13607 12.1254 1.13864 12.515 1.17017L12.5156 1.24096C12.1248 1.2712 11.7298 1.27056 11.339 1.2416L11.3402 1.17146Z" fill="#101111"/>
<path d="M2.85276 1.80788C2.97793 1.78729 3.09944 1.74353 3.22645 1.73838C3.51221 1.73388 3.79737 1.72036 4.08313 1.73002C4.33165 1.73645 4.56246 1.86387 4.81281 1.85743C4.96912 1.8658 5.13276 1.8407 5.28236 1.90376C5.31656 1.97133 5.3251 2.04276 5.30679 2.11741C5.28053 2.12513 5.22741 2.13993 5.20115 2.14701C4.88852 2.11033 4.57345 2.12191 4.26082 2.09102C3.93903 2.06528 3.61846 1.99321 3.29362 2.01766C3.30705 2.1026 3.31132 2.24417 3.4249 2.23967C3.78515 2.28085 4.14785 2.28214 4.50811 2.31946C4.70778 2.33233 4.91172 2.3703 5.11017 2.32526C5.33793 2.21715 5.55775 2.38253 5.78917 2.37288C6.1079 2.36322 6.42114 2.4295 6.73439 2.48098C7.05007 2.53568 7.37186 2.46811 7.68815 2.5241C7.70159 2.60389 7.70525 2.68433 7.69731 2.76541C7.66251 2.78536 7.59351 2.82526 7.55871 2.84456C7.09159 2.80981 6.62142 2.83234 6.15614 2.76477C5.87465 2.75061 5.59194 2.63671 5.31106 2.71586C5.28603 2.78021 5.26588 2.84585 5.25061 2.91406C5.98945 3.02217 6.74049 2.98613 7.4836 3.04148C7.49215 3.08009 7.50986 3.15859 7.51841 3.1972C8.01605 3.11419 8.53018 3.11419 9.02416 3.22359C9.4351 3.30917 9.85703 3.2371 10.2686 3.31754C10.4249 3.35422 10.613 3.30595 10.7424 3.425C10.7302 3.45975 10.7064 3.52989 10.6942 3.56464C10.6612 3.58137 10.5946 3.61419 10.5617 3.63092C10.3211 3.63221 10.0726 3.65216 9.85337 3.52925C9.47601 3.46232 9.08828 3.5833 8.70787 3.52474C8.38364 3.44817 8.05024 3.50673 7.72357 3.52667C7.68205 3.57365 7.64236 3.6232 7.60511 3.67468C7.5471 3.74354 7.48848 3.81304 7.41949 3.87031C7.1557 3.89926 6.88398 3.88832 6.63119 3.99C6.42969 3.90956 6.42481 3.62899 6.40038 3.43594C6.07127 3.44752 5.77329 3.29501 5.47104 3.18176C5.32999 3.13607 5.25794 2.96168 5.1004 2.95911C5.00759 2.92822 4.90073 2.94173 4.82807 3.01316C4.70595 3.14186 4.52277 3.11483 4.37256 3.06914C4.36645 3.06914 4.35302 3.06786 4.3463 3.06786C4.32371 3.06528 4.27791 3.06014 4.25471 3.05756C4.18938 2.94431 4.17167 2.80595 4.09901 2.69656C3.86148 2.56914 3.56595 2.5685 3.36261 2.37159C3.25698 2.26605 3.10066 2.32976 2.97121 2.32204C3.0335 2.29951 3.09395 2.27442 3.1544 2.24739L3.14951 2.20106C3.14157 2.18111 3.12448 2.14186 3.11654 2.12191C2.92603 2.08716 2.72941 2.05177 2.58775 1.89861C2.63721 1.79823 2.76788 1.84134 2.85276 1.80788ZM5.07109 2.41149C5.10284 2.44495 5.10284 2.44495 5.07109 2.41149ZM4.26692 2.60582C4.25715 2.68433 4.28463 2.77185 4.35424 2.8111C4.62352 2.86708 4.90134 2.89218 5.17429 2.85679C5.13765 2.75512 5.12727 2.60968 5.01125 2.57365C4.778 2.45331 4.49346 2.48613 4.26692 2.60582ZM5.56141 3.11998C5.59377 3.15409 5.59377 3.15409 5.56141 3.11998ZM7.21127 3.17404C7.39567 3.07494 7.22165 3.3851 7.21127 3.17404ZM6.90536 3.24804C6.93711 3.28214 6.93711 3.28214 6.90536 3.24804ZM6.46694 3.31754C6.45595 3.47005 6.41382 3.65859 6.53289 3.77828C6.75637 3.73066 6.97191 3.87224 7.19112 3.80081C7.21493 3.71973 7.21005 3.64443 7.17646 3.57494C7.04335 3.5492 6.91635 3.50222 6.84491 3.37288C6.82231 3.23131 6.58784 3.28987 6.51762 3.37288L6.51457 3.31496L6.46694 3.31754Z" fill="#101111"/>
<path d="M7.76692 3.74032C8.03864 3.72037 8.31403 3.70428 8.58514 3.75061C9.07973 3.83749 9.58348 3.80724 10.0811 3.85615C10.2148 3.87095 10.3492 3.85551 10.4811 3.82784C10.7876 3.9308 11.1118 3.91085 11.4269 3.96554C11.7444 4.01316 12.065 3.95911 12.3837 3.98871C12.6121 4.0093 12.8301 4.09811 13.0603 4.10583C13.2319 4.11291 13.404 4.12192 13.5738 4.15152C14.0049 4.22295 14.4439 4.12706 14.875 4.20107C15.1217 4.26091 15.3794 4.18112 15.6199 4.28408C15.8123 4.20171 15.9991 4.09167 16.2153 4.11419C16.2464 4.24482 16.2006 4.37674 16.1475 4.49322C15.7451 4.66761 15.3244 4.79566 14.9373 5.00673C14.6521 5.04791 14.4103 5.2429 14.1233 5.27507C13.9475 5.2918 13.771 5.30982 13.5976 5.34586C13.2935 5.40184 12.9827 5.34521 12.6786 5.40056C12.6481 5.41986 12.5864 5.45783 12.5559 5.47649C12.7092 5.5151 12.8643 5.5492 13.0114 5.61098C12.9589 5.61548 12.8539 5.62385 12.8014 5.62835C12.6133 5.56336 12.4259 5.49579 12.2353 5.43788C12.1242 5.40055 12.0106 5.37353 11.8971 5.34907C11.8549 5.25705 11.8159 5.2577 11.7817 5.351C11.6925 5.32977 11.6046 5.30532 11.5179 5.27765C11.5112 5.27185 11.4977 5.25963 11.4904 5.25384L11.4739 5.26992C11.2065 5.23775 10.9348 5.15538 10.7223 4.97584C10.7192 4.94689 10.7137 4.88897 10.7113 4.86001C10.9983 4.76284 11.2981 4.89412 11.5918 4.86194C11.8458 4.83491 12.1279 4.916 12.3599 4.78022C12.3306 4.75319 12.272 4.69978 12.2427 4.67275C11.9453 4.67662 11.6559 4.59167 11.3573 4.6232C11.0666 4.51767 10.7613 4.46876 10.4536 4.47777C10.4542 4.53504 10.4573 4.59232 10.4621 4.64959L10.467 4.71329L10.4316 4.72745C10.398 4.66954 10.3626 4.61419 10.3241 4.56078C10.213 4.52217 10.0952 4.50802 9.98526 4.4649C9.83688 4.39669 9.69888 4.26156 9.52547 4.30467C9.43205 4.40248 9.37038 4.52668 9.31481 4.65087C9.27329 4.73839 9.22688 4.82398 9.16888 4.90055C9.10537 4.70943 9.11087 4.49836 9.03454 4.31303C8.8941 4.23131 8.72374 4.25448 8.56987 4.22745C8.38913 4.21715 8.22976 4.11805 8.05696 4.0743C7.9727 4.12449 7.89332 4.18755 7.79806 4.21329C7.83042 4.14766 7.86645 4.08395 7.89881 4.01831C7.79562 3.96168 7.66129 3.9308 7.62343 3.79759C7.65946 3.78343 7.7309 3.75447 7.76692 3.74032ZM14.9666 4.72938C14.9977 4.76284 14.9977 4.76284 14.9666 4.72938ZM14.5306 4.86001C14.7321 4.8658 14.4402 5.05564 14.5306 4.86001Z" fill="#101111"/>
<path d="M17.1507 4.58845C17.2765 4.63736 17.4084 4.72166 17.547 4.6734C17.7815 4.61162 18.0593 4.47198 18.2523 4.70557C18.2333 5.11227 18.2852 5.52604 18.1998 5.92501C18.251 6.11356 18.2633 6.31047 18.2492 6.50609C18.2162 6.68306 18.1185 6.83363 17.9329 6.8375C17.9665 6.77508 18.0031 6.71394 18.0379 6.65217C17.8639 6.63672 17.6911 6.60776 17.5195 6.57752C17.4505 6.56851 17.3815 6.56015 17.3132 6.55178C17.3058 6.55049 17.2918 6.54663 17.2851 6.5447C17.1031 6.46298 16.9254 6.35616 16.7886 6.203C16.636 5.99515 16.7807 5.74547 16.8161 5.52346C16.8601 5.19013 17.0115 4.88704 17.1507 4.58845ZM16.9785 5.11484C17.0109 5.14895 17.0109 5.14895 16.9785 5.11484Z" fill="#101111"/>
<path d="M14.7993 5.7725C14.6619 5.62642 14.5147 5.85937 14.5813 6.00287C14.7175 6.07881 14.9416 5.91343 14.7993 5.7725Z" fill="#101111"/>
<path d="M20.7594 6.92308C20.9151 6.9707 21.0678 7.02797 21.2162 7.09876C21.312 7.19271 21.3596 7.03634 21.3071 6.96169L21.2968 6.90699C21.3236 6.9263 21.378 6.96491 21.4048 6.98486C21.3896 7.1541 21.4006 7.32399 21.486 7.47392C21.3541 7.36324 21.1765 7.2429 21.014 7.36967C21.0244 7.62707 21.1246 7.89477 21.0177 8.14445C20.9792 8.25771 20.8547 8.27251 20.7643 8.31627C20.7197 8.25642 20.6758 8.19786 20.6324 8.13866C20.6745 8.06208 20.7039 7.97585 20.6813 7.88769C20.564 7.8478 20.4437 7.82077 20.3259 7.78602C20.3521 7.64895 20.3021 7.52347 20.2435 7.40442C20.2795 7.30146 20.3027 7.194 20.3241 7.08653C20.4517 7.27765 20.6684 7.42566 20.8919 7.30983C20.906 7.24676 20.9481 7.16311 20.8675 7.13351C20.7271 7.14123 20.5872 7.18885 20.448 7.15474L20.4437 7.09168C20.5323 7.08203 20.6226 7.07945 20.71 7.05693C20.7228 7.02347 20.7472 6.95654 20.7594 6.92308Z" fill="#101111"/>
<path d="M8.77992 7.09039C8.89227 7.06723 9.00218 7.16118 8.96799 7.28602C8.92158 7.28537 8.82938 7.28473 8.78358 7.28409C8.78297 7.23582 8.78114 7.13865 8.77992 7.09039Z" fill="#101111"/>
<path d="M19.0906 7.31047L19.1358 7.27315C19.1541 7.29181 19.1908 7.32978 19.2091 7.34844C19.2274 7.41214 19.2579 7.46748 19.3007 7.51446L19.3306 7.5447C19.3538 7.81948 19.3697 8.09747 19.3391 8.37225C19.2995 8.37161 19.2207 8.37032 19.181 8.36968C19.159 8.33557 19.1144 8.268 19.0925 8.2339C19.0943 8.19207 19.098 8.10906 19.0998 8.06723C19.1071 7.88641 19.1004 7.70558 19.0943 7.52604C19.0931 7.45397 19.0919 7.3819 19.0906 7.31047Z" fill="#101111"/>
<path d="M16.4082 7.67469C16.4577 7.57881 16.5694 7.58074 16.6574 7.60262C16.669 7.69335 16.6702 7.78409 16.6604 7.87611C16.6158 7.87482 16.5255 7.8716 16.4809 7.87032C16.4449 7.80918 16.4211 7.74419 16.4082 7.67469Z" fill="#101111"/>
<path d="M17.2765 7.67791C17.3309 7.69979 17.3822 7.72746 17.4316 7.76092C17.4347 7.80082 17.4414 7.88061 17.4444 7.92051C17.3663 7.92952 17.2875 7.93209 17.2093 7.92887C17.2069 7.83943 17.2075 7.74162 17.2765 7.67791Z" fill="#101111"/>
<path d="M5.48142 7.85809C5.88137 7.78023 6.2917 7.77508 6.69592 7.8079C6.79545 7.80339 6.88032 7.9411 6.78201 8.0106C6.57563 8.13029 6.32955 8.12901 6.10729 8.19979C5.77695 8.2783 5.48264 8.47521 5.14803 8.53441C4.89829 8.54406 4.6455 8.50545 4.40003 8.57753C4.19731 8.4765 3.97261 8.41279 3.80347 8.24998C3.8627 8.1496 3.92987 8.03763 4.05382 8.02669C4.52704 7.94883 5.00881 7.93982 5.48142 7.85809Z" fill="#101111"/>
<path d="M20.216 8.09812C20.2044 7.97971 20.1549 7.78344 20.3259 7.78602C20.343 7.89541 20.3619 8.00545 20.3821 8.11549C20.3405 8.11099 20.2575 8.10262 20.216 8.09812Z" fill="#101111"/>
<path d="M11.5313 8.50674C11.5362 8.41922 11.5368 8.2339 11.4147 8.25964C11.2706 8.34394 11.3835 8.56208 11.5313 8.50674Z" fill="#101111"/>
<path d="M14.5135 9.71846C14.6185 9.69658 14.7828 9.71138 14.7852 9.86067C14.784 10.0055 14.621 10.0286 14.5184 9.99709C14.5031 9.90443 14.5013 9.81112 14.5135 9.71846Z" fill="#101111"/>
<path d="M9.28672 10.6412C10.1074 10.5737 10.928 10.3221 11.7517 10.452C11.9062 10.6091 12.0418 10.7892 12.148 10.9862L12.1035 11.001C11.9264 10.8845 11.7169 10.9521 11.5234 10.963C11.1918 10.9823 10.8743 11.0981 10.5427 11.1187C10.0744 11.1522 9.62134 11.2873 9.15666 11.3472C9.23482 11.4179 9.31725 11.4823 9.40152 11.5454L9.35084 11.5293C9.16399 11.472 8.98081 11.4057 8.79885 11.3349C8.73718 11.3098 8.67611 11.2828 8.61689 11.2532C8.52163 11.203 8.42638 11.1528 8.33051 11.1039C8.29998 11.0125 8.27067 10.9212 8.24991 10.8272C8.58147 10.6972 8.94112 10.6985 9.28672 10.6412Z" fill="#101111"/>
<path d="M9.50288 11.4276C10.0011 11.3896 10.4939 11.2841 10.9946 11.2892C10.7302 11.4919 10.3986 11.3928 10.0994 11.445C9.91687 11.6104 9.66896 11.6921 9.44426 11.5614C9.46197 11.5158 9.48151 11.4707 9.50288 11.4276Z" fill="#101111"/>
<path d="M18.8012 11.6078C19.0326 11.5859 19.2677 11.5145 19.4997 11.5602C19.6744 11.6303 19.6615 11.889 19.5168 11.9868C19.3794 12.0479 19.2817 11.9064 19.1737 11.8472C19.0479 11.806 18.9166 11.786 18.7939 11.7365C18.7957 11.7043 18.7994 11.64 18.8012 11.6078Z" fill="#101111"/>
<path d="M17.5299 12.5769C17.754 12.4231 17.917 12.2017 18.0581 11.9662C18.0734 12.0016 18.1039 12.073 18.1198 12.1084C18.193 12.3375 18.2773 12.573 18.4238 12.7616C18.607 12.842 18.7481 12.9842 18.8452 13.1663C18.9172 13.2828 18.985 13.4019 19.0418 13.528C18.4562 13.5016 17.8603 13.593 17.2838 13.4559C17.2893 13.4192 17.3003 13.3465 17.3058 13.3098C17.3309 13.205 17.3589 13.1013 17.3913 12.999C17.5134 12.9514 17.6349 12.8993 17.7412 12.8182C17.6697 12.7397 17.533 12.7017 17.5299 12.5769ZM18.0685 12.3883C18.2712 12.3948 17.9757 12.5814 18.0685 12.3883Z" fill="#101111"/>
<path d="M14.1569 12.2835C14.4244 12.2764 14.6839 12.1959 14.9501 12.176C15.0796 12.3079 15.1626 12.4836 15.2462 12.6503C15.2914 12.7223 15.2664 12.8105 15.2188 12.8735C15.2041 12.7616 15.1107 12.7133 15.0118 12.741C14.3523 12.7931 13.7051 12.9521 13.0462 13.0158C12.6835 13.0421 12.3312 13.1644 11.9661 13.1567C12.112 13.221 12.2469 13.3111 12.3941 13.3735C12.766 13.3285 13.1305 13.2243 13.5036 13.1818C14.0409 13.1219 14.5727 12.9932 15.115 12.9997C15.0124 13.333 15.2121 13.6361 15.2817 13.9514C15.333 14.2288 15.5943 14.3549 15.7561 14.5518C15.3452 14.5035 14.9428 14.6799 14.5331 14.6091C14.3041 14.575 14.1099 14.3195 14.1673 14.075C14.24 14.0647 14.2968 14.0338 14.3383 13.9829C13.7252 13.9533 13.1317 13.7661 12.5663 13.5248C12.1767 13.3227 11.7707 13.1599 11.3622 13.0055C11.3048 12.9733 11.2498 12.9366 11.1979 12.8954C11.1894 12.8587 11.1723 12.7847 11.1637 12.7481C11.2169 12.6277 11.3597 12.6303 11.4648 12.6046C12.1224 12.5061 12.7806 12.4102 13.4376 12.3053C13.6758 12.2661 13.917 12.2912 14.1569 12.2835Z" fill="#101111"/>
<path d="M17.7149 13.806C17.9238 13.8723 18.0886 14.037 18.2871 14.1297C18.4739 14.2442 18.6931 14.3491 18.8006 14.5576C18.6315 14.566 18.4586 14.5705 18.2938 14.5235C18.2871 14.5222 18.2736 14.5203 18.2669 14.5196C18.0392 14.4392 17.8047 14.4089 17.5623 14.4347C17.1758 14.4192 16.7954 14.5454 16.407 14.4797C16.4351 14.3555 16.4259 14.1863 16.5603 14.1297C16.8057 14.1155 17.0158 14.3098 17.2606 14.3053C17.3718 14.2693 17.4695 14.1921 17.5464 14.1014C17.5311 14.0479 17.5128 13.9965 17.4988 13.9437C17.5696 13.8961 17.6429 13.8523 17.7149 13.806Z" fill="#101111"/>
<path d="M8.61811 0.603244C9.05225 0.619975 9.487 0.621906 9.92175 0.603888L9.92725 0.64829C9.49006 0.627698 9.05225 0.632201 8.61505 0.648932L8.61811 0.603244Z" fill="#828484"/>
<path d="M14.0409 1.1425C14.2003 1.18883 14.3651 1.20492 14.5306 1.19012C13.9243 1.27313 13.3106 1.17725 12.7018 1.22937L12.7104 1.1824C13.1537 1.18947 13.6019 1.22937 14.0409 1.1425Z" fill="#828484"/>
<path d="M2.32763 1.97262C2.38198 1.87609 2.49677 1.88574 2.58775 1.89861C2.72941 2.05177 2.92603 2.08716 3.11654 2.12191C3.12448 2.14186 3.14157 2.18111 3.14951 2.20106C2.91748 2.17983 2.68545 2.14958 2.45281 2.15022C2.45342 2.17146 2.45525 2.21457 2.45647 2.23645C2.60607 2.29308 2.76422 2.31753 2.92176 2.33877C2.78498 2.40763 2.60668 2.39025 2.45464 2.42822C2.38931 2.28665 2.30993 2.13607 2.32763 1.97262Z" fill="#828484"/>
<path d="M21.4647 2.33555C21.4915 2.23452 21.5978 2.31174 21.6454 2.35228C21.7694 2.45975 21.6558 2.62063 21.6057 2.73581C21.5196 2.73066 21.5276 2.64894 21.5215 2.58137C21.5074 2.49772 21.4812 2.41792 21.4647 2.33555Z" fill="#828484"/>
<path d="M20.8535 3.36323C20.8345 3.19592 20.7484 2.98356 20.9334 2.88446C20.9609 2.90763 21.0153 2.95525 21.0427 2.97906C20.9279 3.45267 21.0568 3.94173 20.9628 4.41793C20.8913 4.80403 20.9817 5.20043 20.9078 5.58653C20.8547 5.86516 20.8693 6.15088 20.8754 6.43338L20.8699 6.49129C20.7625 6.5698 20.7252 6.69528 20.7319 6.82849C20.7649 6.81433 20.8296 6.78537 20.8626 6.77122C20.887 6.79696 20.9359 6.84908 20.9603 6.87482C20.9853 6.87675 21.0348 6.88125 21.0598 6.88318C21.1386 6.88898 21.2198 6.88383 21.2968 6.90699L21.3071 6.96169C21.2839 6.9958 21.2387 7.06465 21.2162 7.09876C21.0678 7.02797 20.9151 6.9707 20.7594 6.92308C20.7472 6.95654 20.7228 7.02347 20.71 7.05693C20.6226 7.07945 20.5323 7.08203 20.4437 7.09168C20.4437 7.05243 20.4443 6.97328 20.4443 6.93402C20.4816 6.9366 20.5567 6.9411 20.5939 6.94367C20.528 6.84908 20.4749 6.67984 20.3369 6.71008C20.3302 6.75127 20.3161 6.83428 20.3094 6.87611C20.2392 6.85487 20.2612 6.73775 20.2062 6.69206C20.1983 6.77508 20.1916 6.85809 20.1867 6.94174C20.089 7.06336 20.0377 7.21652 20.0487 7.3774C20.0694 7.71395 20.0041 8.06594 19.8215 8.3478C19.7183 8.07495 19.8875 7.80468 19.8374 7.52862C19.8551 7.38447 19.9443 7.25127 19.9058 7.09876C19.8276 7.12257 19.7513 7.15346 19.6731 7.17533C19.6121 7.04213 19.5358 6.91858 19.4234 6.82784C19.5932 6.88898 19.7617 6.98357 19.9461 6.9707C19.9778 6.75448 19.7141 6.76092 19.5797 6.7133C19.7012 6.58267 19.9314 6.63286 20.0371 6.46234C20.1531 6.48936 20.2654 6.59747 20.3869 6.52926C20.4761 6.4958 20.5646 6.45783 20.6471 6.40699C20.6672 6.39284 20.7081 6.36388 20.7283 6.34908C20.8229 5.84007 20.7039 5.31111 20.8272 4.80596C20.8754 4.56336 20.8449 4.31432 20.8504 4.06915C20.8473 3.83363 20.8791 3.59746 20.8535 3.36323Z" fill="#828484"/>
<path d="M21.32 3.11612C21.4598 3.10647 21.5862 3.1779 21.7199 3.20879C21.85 3.1335 21.9977 3.08974 22.1302 3.18884C22.1302 3.28794 22.1131 3.38639 22.0881 3.48228C21.828 3.48549 21.5654 3.47198 21.3108 3.41535C21.3022 3.31561 21.3065 3.21522 21.32 3.11612Z" fill="#828484"/>
<path d="M6.46694 3.31754L6.51457 3.31496L6.51762 3.37288C6.51884 3.40377 6.52189 3.4649 6.52373 3.49579C6.64218 3.49708 6.7466 3.43723 6.84491 3.37288C6.91635 3.50222 7.04335 3.5492 7.17646 3.57494C7.21005 3.64443 7.21493 3.71973 7.19112 3.80081C6.97191 3.87224 6.75637 3.73066 6.53289 3.77828C6.41382 3.65859 6.45595 3.47005 6.46694 3.31754Z" fill="#828484"/>
<path d="M7.72357 3.52667C8.05024 3.50673 8.38364 3.44817 8.70787 3.52474C9.08828 3.5833 9.47601 3.46232 9.85337 3.52925C10.0726 3.65216 10.3211 3.63221 10.5617 3.63092C10.5336 3.69592 10.5067 3.76155 10.4811 3.82784C10.3492 3.85551 10.2148 3.87095 10.0811 3.85615C9.58348 3.80724 9.07973 3.83749 8.58514 3.75061C8.31403 3.70428 8.03864 3.72037 7.76692 3.74032C7.72601 3.72359 7.64541 3.69077 7.60511 3.67468C7.64236 3.6232 7.68205 3.57365 7.72357 3.52667Z" fill="#828484"/>
<path d="M7.88233 4.56593C7.87439 4.47005 7.94217 4.39991 8.03315 4.40699C8.03192 4.4456 8.02887 4.52217 8.02765 4.56078C7.99101 4.56207 7.91835 4.56465 7.88233 4.56593Z" fill="#828484"/>
<path d="M8.34578 4.53955C8.42455 4.4752 8.53079 4.44109 8.612 4.5241C8.58086 4.57944 8.54972 4.63414 8.51736 4.68884C8.45752 4.64187 8.40195 4.58974 8.34578 4.53955Z" fill="#828484"/>
<path d="M10.4536 4.47777C10.7613 4.46876 11.0666 4.51767 11.3573 4.6232C11.6559 4.59167 11.9453 4.67662 12.2427 4.67275C12.272 4.69978 12.3306 4.75319 12.3599 4.78022C12.1279 4.916 11.8458 4.83491 11.5918 4.86194C11.2981 4.89412 10.9983 4.76284 10.7113 4.86001C10.6978 4.85358 10.6716 4.84135 10.6581 4.83556C10.6777 4.7667 10.7461 4.69463 10.6991 4.62256C10.6258 4.53697 10.5372 4.61162 10.4621 4.64959C10.4573 4.59232 10.4542 4.53504 10.4536 4.47777Z" fill="#828484"/>
<path d="M9.02477 5.04663C9.1414 5.01896 9.08156 4.82269 8.97409 4.8568C8.85502 4.8864 8.9057 5.0891 9.02477 5.04663Z" fill="#828484"/>
<path d="M8.06368 5.15345C8.08688 5.05371 7.95316 4.97134 7.8866 5.04985C7.80966 5.15538 8.02704 5.28601 8.06368 5.15345Z" fill="#828484"/>
<path d="M8.43309 5.03826C8.55216 4.98357 8.60712 5.20815 8.48133 5.22681C8.37326 5.24998 8.32074 5.07108 8.43309 5.03826Z" fill="#828484"/>
<path d="M10.3528 5.24225C10.1697 5.21716 10.1709 5.49129 10.3528 5.46941C10.3565 5.39348 10.3565 5.31819 10.3528 5.24225Z" fill="#828484"/>
<path d="M10.7284 5.49901C10.7894 5.4057 10.8938 5.24097 11.0031 5.37932C10.9702 5.42694 10.9348 5.47198 10.8963 5.51445C10.8401 5.51124 10.7839 5.50609 10.7284 5.49901Z" fill="#828484"/>
<path d="M10.21 5.96426C10.2594 5.93466 10.3113 5.90828 10.3644 5.88575C10.3626 5.96169 10.3577 6.03762 10.3498 6.11356C10.2747 6.10969 10.1886 6.05564 10.21 5.96426Z" fill="#828484"/>
<path d="M11.5429 5.88769C11.5808 5.88897 11.6553 5.89026 11.6925 5.89155C11.6937 5.93144 11.6968 6.01059 11.6986 6.05049C11.6125 6.04727 11.5393 5.98292 11.5429 5.88769Z" fill="#828484"/>
<path d="M10.8108 5.95654C10.9158 5.9707 10.8926 6.09489 10.9061 6.17598C10.8542 6.16632 10.8065 6.14766 10.7619 6.12064C10.7748 6.06401 10.7906 6.00931 10.8108 5.95654Z" fill="#828484"/>
<path d="M15.2988 6.0196C15.5906 5.8864 15.9191 5.94367 16.2287 5.93852C16.2379 6.06465 16.2373 6.19142 16.2281 6.31755C16.0675 6.33428 15.9081 6.36323 15.7512 6.40377C15.6682 6.35422 15.5748 6.32977 15.4801 6.34393C15.4154 6.23839 15.3476 6.13415 15.2988 6.0196Z" fill="#828484"/>
<path d="M6.58601 6.13415C6.63791 6.03054 6.81132 6.04727 6.77835 6.18627C6.75453 6.29824 6.63425 6.24354 6.58662 6.18627L6.58601 6.13415Z" fill="#828484"/>
<path d="M9.07484 6.24226C9.14689 6.14316 8.97715 6.055 8.91914 6.1438C8.85014 6.24161 9.01561 6.32655 9.07484 6.24226Z" fill="#828484"/>
<path d="M13.0096 6.342C13.0462 6.34264 13.1201 6.34393 13.1568 6.34393C13.1653 6.416 13.1702 6.48807 13.1726 6.56079C13.1213 6.53762 13.0731 6.5106 13.0261 6.48035C13.0224 6.4456 13.0139 6.37675 13.0096 6.342Z" fill="#828484"/>
<path d="M13.6568 6.51703C13.6489 6.342 13.8376 6.39863 13.9231 6.46426C13.8785 6.52154 13.8357 6.58074 13.7887 6.63608C13.7435 6.59747 13.6996 6.55757 13.6568 6.51703Z" fill="#828484"/>
<path d="M13.0126 7.04921C13.0505 7.04856 13.1262 7.04728 13.1641 7.04663C13.1635 7.08653 13.1622 7.16697 13.1616 7.20687C13.1256 7.20558 13.0536 7.20172 13.0175 7.20043C13.0163 7.16247 13.0139 7.08717 13.0126 7.04921Z" fill="#828484"/>
<path d="M14.8347 7.04921C14.8939 7.08138 14.9898 7.12771 14.98 7.21137C14.9232 7.29953 14.7962 7.26221 14.784 7.15796C14.7968 7.13093 14.8219 7.07688 14.8347 7.04921Z" fill="#828484"/>
<path d="M13.6318 7.2384C13.6727 7.18434 13.7197 7.13222 13.782 7.10584C13.9487 7.22489 13.677 7.44625 13.6318 7.2384Z" fill="#828484"/>
<path d="M15.8471 7.52218C15.9686 7.47456 16.1512 7.48422 16.197 7.63801C16.2287 7.85423 16.2196 8.07495 16.2275 8.2931C16.1341 8.37225 16.1084 8.49773 16.0669 8.60906C16.0126 8.62836 15.9582 8.62772 15.9045 8.60713C15.8477 8.45333 15.8233 8.28473 15.7366 8.14445C15.6755 8.14702 15.6144 8.15346 15.5546 8.16247C15.6267 8.04535 15.7494 7.98808 15.8538 7.91021C15.8746 7.78087 15.8043 7.6496 15.8471 7.52218Z" fill="#828484"/>
<path d="M8.00445 7.99323C8.0765 7.98936 8.14794 7.99001 8.21999 7.99644C8.23648 8.11099 7.98186 8.11163 8.00445 7.99323Z" fill="#828484"/>
<path d="M16.432 8.46363C16.4888 8.3568 16.5969 8.41279 16.6781 8.44754C16.6745 8.4913 16.6665 8.57817 16.6622 8.62128C16.5939 8.61228 16.5261 8.60198 16.4589 8.58847C16.4522 8.55758 16.4388 8.49451 16.432 8.46363Z" fill="#828484"/>
<path d="M17.1819 8.67598C17.2173 8.61035 17.2399 8.52411 17.3235 8.51382C17.4273 8.57238 17.4322 8.69014 17.3797 8.78988C17.3125 8.7532 17.2466 8.71524 17.1819 8.67598Z" fill="#828484"/>
<path d="M17.3284 8.89027C17.2991 8.8922 17.2411 8.89606 17.2118 8.89799C17.1477 9.07302 17.4035 9.05565 17.3284 8.89027Z" fill="#828484"/>
<path d="M20.0474 11.1663C20.0743 11.1741 20.1281 11.1901 20.1549 11.1979C20.263 11.4263 20.1048 11.6239 19.9235 11.732C19.9601 11.5421 19.9992 11.353 20.0474 11.1663Z" fill="#828484"/>
<path d="M20.8498 1.72809C21.1728 1.60453 21.5312 1.48484 21.8738 1.59681C22.0185 1.64057 22.1705 1.61419 22.3189 1.63349C22.4123 1.6972 22.4984 1.80595 22.4459 1.93014C22.3623 2.14829 22.4771 2.35936 22.5357 2.56528C22.6065 2.78794 22.5674 3.02474 22.5821 3.25447C22.659 3.10518 22.6529 2.92757 22.6847 2.76477C22.8361 3.0788 22.8422 3.45911 22.8221 3.80724C22.6883 4.25062 22.8459 4.72616 22.7042 5.16761C22.7134 5.40699 22.8104 5.63801 22.7207 5.87868C22.7219 5.89155 22.725 5.91857 22.7262 5.93209C22.7353 5.9604 22.7531 6.01703 22.7616 6.0447C22.7378 6.14316 22.6554 6.21072 22.6273 6.30854C22.6639 6.29824 22.7372 6.27765 22.7738 6.26735C22.7573 6.3819 22.739 6.49644 22.725 6.61163C22.6279 6.64702 22.5216 6.68563 22.4245 6.629C22.3995 6.49515 22.3861 6.35809 22.3476 6.22745C22.2774 6.28087 22.2267 6.36002 22.2365 6.45525C22.2243 6.70622 22.223 6.95783 22.2182 7.20944C22.2059 7.70365 22.107 8.19722 22.1693 8.69207C22.2994 8.68692 22.4288 8.65989 22.5595 8.66118C22.6609 8.70301 22.67 8.83428 22.7244 8.92051C22.8294 8.90636 22.9503 8.82077 23.0431 8.91665C23.2018 9.02025 23.1964 9.22875 23.2018 9.40121C23.1664 9.47714 23.0712 9.49645 23.0449 9.57753C22.9759 9.85295 22.9417 10.1354 22.9387 10.4199C22.8599 10.5801 22.6865 10.5634 22.5418 10.582C22.5381 10.8439 22.2517 10.9385 22.0466 10.8742C21.9165 10.8336 21.773 10.8388 21.6503 10.7796C21.5141 10.6985 21.5593 10.5254 21.5453 10.3903C21.4079 10.4578 21.2656 10.4096 21.1313 10.3613C21.113 10.3562 21.0769 10.3465 21.0586 10.342C20.9939 10.3993 20.9499 10.4816 20.9554 10.5737C20.9377 11.0647 20.9658 11.5569 20.9389 12.0479C20.9133 12.0492 20.8632 12.0524 20.8382 12.0544C20.8339 12.028 20.8266 11.9746 20.8229 11.9482C20.9444 11.7474 20.8724 11.4984 20.8925 11.2751C20.9127 11.0563 20.8412 10.8491 20.8022 10.638L20.7661 10.649C20.7057 10.9405 20.5237 11.1786 20.4346 11.4578C20.3387 11.7037 20.4089 11.9733 20.3796 12.2294C20.2496 12.4006 20.0291 12.3665 19.846 12.3793C19.8203 12.4778 19.8649 12.6213 19.755 12.6741C19.5217 12.8459 19.239 12.7095 18.9874 12.6747C18.8446 12.602 18.7646 12.4598 18.7273 12.3034C18.7377 12.1129 18.7646 11.9244 18.7939 11.7365C18.9166 11.786 19.0479 11.806 19.1737 11.8472C19.2817 11.9064 19.3794 12.0479 19.5168 11.9868C19.6615 11.889 19.6744 11.6303 19.4997 11.5602C19.2677 11.5145 19.0326 11.5859 18.8012 11.6078C18.7994 11.3028 18.7945 10.9984 18.7963 10.694C18.7933 10.3568 18.9258 10.0428 18.9697 9.71331C19.029 9.40121 19.1205 9.09748 19.1847 8.78795C19.0345 8.7236 18.9142 8.6052 18.8519 8.44625C18.9081 8.35037 19.0094 8.30082 19.0925 8.2339C19.1144 8.268 19.159 8.33557 19.181 8.36968C19.2207 8.37032 19.2995 8.37161 19.3391 8.37225C19.3697 8.09747 19.3538 7.81948 19.3306 7.5447C19.3233 7.53698 19.3086 7.52218 19.3007 7.51446C19.2579 7.46748 19.2274 7.41214 19.2091 7.34844C19.214 7.32141 19.2244 7.26736 19.2298 7.24033C19.3086 7.24612 19.388 7.25577 19.4674 7.26285C19.3648 7.10777 19.159 7.03891 19.1517 6.82527L19.1395 6.78602C19.0955 6.77765 19.0076 6.76092 18.9636 6.75255C18.9648 6.66375 18.8214 6.51381 18.789 6.65925C18.7963 6.6882 18.8122 6.74483 18.8195 6.77314C18.8006 6.78795 18.7621 6.8169 18.7426 6.8317C18.7212 6.82398 18.6785 6.80982 18.6565 6.80275C18.6424 6.63479 18.745 6.4958 18.9007 6.46619C18.9685 6.5254 19.0222 6.60712 19.1053 6.64509C19.2537 6.72488 19.4246 6.65925 19.5797 6.7133C19.7141 6.76092 19.9778 6.75448 19.9461 6.9707C19.7617 6.98357 19.5932 6.88898 19.4234 6.82784C19.5358 6.91858 19.6121 7.04213 19.6731 7.17533C19.7513 7.15346 19.8276 7.12257 19.9058 7.09876C19.9443 7.25127 19.8551 7.38447 19.8374 7.52862C19.8875 7.80468 19.7183 8.07495 19.8215 8.3478C19.8295 8.43081 19.8746 8.49838 19.9522 8.52476C20.0755 8.62515 20.2343 8.58525 20.3741 8.55372C20.542 8.55436 20.688 8.47843 20.7643 8.31627C20.8547 8.27251 20.9792 8.25771 21.0177 8.14445C21.1246 7.89477 21.0244 7.62707 21.014 7.36967C21.1765 7.2429 21.3541 7.36324 21.486 7.47392C21.4006 7.32399 21.3896 7.1541 21.4048 6.98486C21.378 6.96491 21.3236 6.9263 21.2968 6.90699C21.2198 6.88383 21.1386 6.88898 21.0598 6.88318C21.0421 6.71523 20.9908 6.555 20.8754 6.43338C20.8693 6.15088 20.8547 5.86516 20.9078 5.58653C20.9817 5.20043 20.8913 4.80403 20.9628 4.41793C21.0568 3.94173 20.9279 3.45267 21.0427 2.97906C21.069 2.999 21.1215 3.04019 21.1478 3.06078C21.3163 2.99 21.5135 2.91278 21.6057 2.73581C21.6558 2.62063 21.7694 2.45975 21.6454 2.35228C21.5978 2.31174 21.4915 2.23452 21.4647 2.33555C21.4812 2.41792 21.5074 2.49772 21.5215 2.58137C21.4323 2.54534 21.3425 2.51059 21.2485 2.4945C21.1148 2.59489 21.0372 2.75383 20.9334 2.88446C20.7484 2.98356 20.8345 3.19592 20.8535 3.36323C20.7692 3.33684 20.6868 3.35679 20.6165 3.4102C20.5988 3.35615 20.5872 3.30016 20.5817 3.24418C20.71 3.02989 20.8064 2.79308 20.8064 2.53504C20.8406 2.26992 20.7564 1.9739 20.8498 1.72809ZM22.0124 2.19269C22.0106 2.5286 22.1644 2.83491 22.2249 3.15988L22.2804 3.17983C22.3183 2.90956 22.2078 2.65473 22.165 2.39411C22.1553 2.30145 22.1119 2.20235 22.0124 2.19269ZM21.32 3.11612C21.3065 3.21522 21.3022 3.31561 21.3108 3.41535C21.5654 3.47198 21.828 3.48549 22.0881 3.48228C22.1131 3.38639 22.1302 3.28794 22.1302 3.18884C21.9977 3.08974 21.85 3.1335 21.7199 3.20879C21.5862 3.1779 21.4598 3.10647 21.32 3.11612ZM21.2149 4.38318C21.2601 4.47713 21.3224 4.56078 21.37 4.65409C21.367 4.78408 21.218 4.87932 21.2619 5.01896C21.3285 5.19528 21.3835 5.37546 21.4091 5.564C21.6344 5.70944 21.8439 5.45139 21.8445 5.2223C21.8585 4.97649 21.9171 4.72938 21.8854 4.48356C21.8017 4.41793 21.6271 4.36516 21.6833 4.22166C21.7089 4.2178 21.7608 4.21072 21.7871 4.20686C21.6912 4.33942 21.9477 4.31497 21.8353 4.19978C21.8017 4.04083 21.6301 3.9456 21.4873 3.93594C21.3114 3.99321 21.2241 4.20171 21.2149 4.38318ZM21.4256 7.55371C21.3413 7.73518 21.4439 8.01897 21.6698 7.93467C21.6814 7.78344 21.7346 7.5846 21.6033 7.47456C21.5392 7.49001 21.4799 7.51639 21.4256 7.55371ZM21.381 8.45912C21.37 8.79567 21.3957 9.13351 21.3719 9.47006C21.3505 9.60456 21.2033 9.64252 21.1197 9.72746C21.3847 9.75385 21.6442 9.66311 21.9092 9.68628C22.1742 9.71073 22.4361 9.65604 22.6932 9.59426C22.6938 9.48486 22.6969 9.36968 22.6541 9.26865C22.43 9.16311 22.1406 9.22682 21.9568 9.03763C22.0038 8.97971 22.0631 8.92888 22.0826 8.85295C21.969 8.83686 21.8542 8.83235 21.7419 8.8124C21.7114 8.6985 21.737 8.54857 21.6295 8.47585C21.5624 8.40185 21.4604 8.44046 21.381 8.45912ZM19.4869 8.58653C19.3685 8.8819 19.4045 9.21266 19.3025 9.51447C19.5522 9.53699 19.8002 9.62515 20.0523 9.58139C20.0694 9.25256 20.2966 8.99258 20.31 8.66311C20.0334 8.65925 19.7635 8.56337 19.4869 8.58653ZM21.1343 8.90314C21.1056 9.14059 21.0079 9.36324 20.9927 9.60263C21.3462 9.57882 21.2241 9.1303 21.2424 8.88126C21.2155 8.88641 21.1612 8.89735 21.1343 8.90314ZM22.6358 10.3678C22.6743 10.2738 22.7555 10.1309 22.6364 10.0614C22.4801 10.0383 22.4722 10.3793 22.6358 10.3678ZM22.0533 10.4533C22.0142 10.5306 22.1388 10.6142 22.1962 10.5557C22.2328 10.4771 22.1107 10.4019 22.0533 10.4533ZM20.0474 11.1663C19.9992 11.353 19.9601 11.5421 19.9235 11.732C20.1048 11.6239 20.263 11.4263 20.1549 11.1979C20.1281 11.1901 20.0743 11.1741 20.0474 11.1663ZM19.8893 11.7912C19.871 11.9179 19.9272 12.091 20.0798 12.0454C20.078 12.0016 20.0743 11.9154 20.0719 11.8716C20.0133 11.8382 19.9522 11.8111 19.8893 11.7912ZM19.3507 12.1844C19.3282 12.2403 19.3098 12.2989 19.2964 12.3594C19.3556 12.434 19.4271 12.5132 19.529 12.4984C19.5333 12.4167 19.5309 12.3356 19.5229 12.2551C19.4674 12.2249 19.4106 12.2011 19.3507 12.1844Z" fill="#0E3661"/>
<path d="M8.30548 4.5344L8.34578 4.53955C8.40195 4.58974 8.45752 4.64187 8.51736 4.68884C8.54972 4.63414 8.58086 4.57944 8.612 4.5241L8.65047 4.48807C8.85869 4.73067 8.55094 5.20171 8.87334 5.37353C8.70481 5.43659 8.53446 5.36066 8.3641 5.35165C8.3067 5.74869 8.37326 6.14637 8.54117 6.5048C8.39524 6.45912 8.38058 6.28344 8.31891 6.16117C8.24747 6.12321 8.16931 6.20236 8.09604 6.21008C8.04719 5.99837 8.00384 5.78344 8.0014 5.56529C8.21083 5.26413 8.19862 4.8761 8.30548 4.5344ZM8.48133 5.22681C8.37326 5.24998 8.32074 5.07108 8.43309 5.03826C8.55216 4.98357 8.60712 5.20815 8.48133 5.22681Z" fill="#0E3661"/>
<path d="M11.0031 5.37932L11.0318 5.34007C11.1912 5.56336 11.0801 5.86195 11.1082 6.1187C11.096 6.2622 11.2669 6.26092 11.3597 6.28151C11.1735 6.41729 10.9494 6.27829 10.7449 6.31948C10.7247 6.65989 10.707 7.01188 10.8102 7.34071C10.7271 7.30725 10.6838 7.21716 10.6178 7.15989C10.5501 7.18627 10.4823 7.21459 10.4157 7.24355C10.3614 6.99001 10.3058 6.73325 10.3144 6.47134C10.5635 6.21008 10.6056 5.83749 10.6832 5.49515L10.7284 5.49901C10.7839 5.50609 10.8401 5.51124 10.8963 5.51445C10.9348 5.47198 10.9702 5.42694 11.0031 5.37932ZM10.8108 5.95654C10.7906 6.00931 10.7748 6.06401 10.7619 6.12064C10.8065 6.14766 10.8542 6.16632 10.9061 6.17598C10.8926 6.09489 10.9158 5.9707 10.8108 5.95654Z" fill="#0E3661"/>
<path d="M13.9231 6.46426L13.964 6.45075C14.0995 6.70107 14.0446 6.99966 13.9927 7.26671C14.0488 7.34007 14.1148 7.40442 14.1746 7.47585C13.9939 7.52733 13.7991 7.44432 13.6135 7.48035C13.5976 7.71588 13.6001 7.95204 13.6025 8.18885C13.5982 8.44046 13.7173 8.66569 13.7985 8.89606C13.6141 8.80468 13.6208 8.55951 13.5219 8.39799C13.4132 8.36131 13.2996 8.43853 13.1891 8.44497C13.18 8.194 13.1232 7.94947 13.1165 7.6985C13.2899 7.51575 13.3027 7.24612 13.412 7.0254C13.4938 6.85809 13.4621 6.59682 13.6568 6.51703C13.6996 6.55757 13.7435 6.59747 13.7887 6.63608C13.8357 6.58074 13.8785 6.52154 13.9231 6.46426ZM13.782 7.10584C13.9487 7.22489 13.677 7.44625 13.6318 7.2384C13.6727 7.18434 13.7197 7.13222 13.782 7.10584Z" fill="#0E3661"/>
<path d="M16.7349 7.56144C16.8503 7.45783 16.9969 7.40378 17.1355 7.34458C17.2814 7.38383 17.4298 7.41214 17.5751 7.4559C17.5024 7.49644 17.3235 7.42694 17.3296 7.55114C17.5537 7.60391 17.7699 7.50481 17.9451 7.36517C18.0495 7.40828 18.1533 7.45654 18.2437 7.52862C18.1192 7.54406 17.9921 7.5505 17.8712 7.58718L17.834 7.62579C17.8212 7.70494 17.8639 7.77508 17.9317 7.8079C18.1002 7.90507 18.2907 7.95333 18.4806 7.98229C18.43 8.05886 18.3445 8.08782 18.2614 8.05307C18.0514 7.99773 17.8621 7.8819 17.6545 7.81819C17.6349 8.14702 17.5946 8.47843 17.5379 8.80146C17.4823 8.83107 17.4298 8.82721 17.3797 8.78988C17.4322 8.69014 17.4273 8.57238 17.3235 8.51382C17.2399 8.52411 17.2173 8.61035 17.1819 8.67598C17.152 8.72875 17.1233 8.78216 17.0964 8.83686C17.0756 9.17212 17.0714 9.51189 17.0982 9.84651C17.1715 10.0872 17.3003 10.304 17.4011 10.5325C17.373 10.5351 17.3156 10.5396 17.2869 10.5421C17.238 10.4424 17.2026 10.3356 17.1495 10.2391C16.9737 10.1573 16.7758 10.1001 16.6677 9.91666C16.6732 9.61871 16.5731 9.33557 16.5517 9.04085C16.7056 8.95397 16.7239 8.77894 16.6622 8.62128C16.6665 8.57817 16.6745 8.4913 16.6781 8.44754C16.7227 8.1541 16.6861 7.85359 16.7349 7.56144ZM17.2765 7.67791C17.2075 7.74162 17.2069 7.83943 17.2093 7.92887C17.2875 7.93209 17.3663 7.92952 17.4444 7.92051C17.4414 7.88061 17.4347 7.80082 17.4316 7.76092C17.3822 7.72746 17.3309 7.69979 17.2765 7.67791Z" fill="#0E3661"/>
<path d="M15.5546 8.16247C15.6144 8.15346 15.6755 8.14702 15.7366 8.14445C15.8233 8.28473 15.8477 8.45333 15.9045 8.60713C15.9582 8.62772 16.0126 8.62836 16.0669 8.60906C16.1084 8.49773 16.1341 8.37225 16.2275 8.2931C16.2415 8.44496 16.2495 8.59812 16.2501 8.75127C16.0345 8.84329 15.8104 8.93531 15.6383 9.10584C15.391 9.37354 15.2182 9.70237 15.0417 10.0228C15.0136 10.0286 14.9568 10.0409 14.9281 10.0466C14.9703 9.57238 15.1101 9.11549 15.1711 8.64509C15.1119 8.51318 14.9434 8.46749 14.8976 8.32141C15.0832 8.24484 15.2817 8.2429 15.4777 8.25706C15.4972 8.2339 15.5357 8.18628 15.5546 8.16247Z" fill="#0E3661"/>
<path d="M19.7287 9.09233C19.9137 8.99452 19.7397 9.30275 19.7287 9.09233Z" fill="#0E3661"/>
<path d="M22.4459 1.93014L22.4966 1.9546C22.5387 2.22938 22.67 2.48677 22.6847 2.76477C22.6529 2.92757 22.659 3.10518 22.5821 3.25447C22.5674 3.02474 22.6065 2.78794 22.5357 2.56528C22.4771 2.35936 22.3623 2.14829 22.4459 1.93014Z" fill="#1A4F89"/>
<path d="M22.0124 2.19269C22.1119 2.20235 22.1553 2.30145 22.165 2.39411C22.2078 2.65473 22.3183 2.90956 22.2804 3.17983L22.2249 3.15988C22.1644 2.83491 22.0106 2.5286 22.0124 2.19269Z" fill="#1A4F89"/>
<path d="M10.0359 4.97262C10.1269 4.91986 10.224 4.87803 10.3235 4.84521C10.3003 4.92887 10.2729 5.01188 10.2362 5.09103C10.1617 5.06722 10.0964 5.02153 10.0359 4.97262Z" fill="#1A4F89"/>
<path d="M12.2353 5.43788C12.4259 5.49579 12.6133 5.56336 12.8014 5.62835C12.9021 5.6734 13.0035 5.71909 13.0987 5.777C13.1464 5.88897 13.1397 6.03569 13.0542 6.12707C12.7159 6.00995 12.4033 5.77443 12.2353 5.43788Z" fill="#1A4F89"/>
<path d="M14.9928 5.56079C15.242 5.48678 15.1992 5.86902 15.2988 6.0196C15.3476 6.13415 15.4154 6.23839 15.4801 6.34393C15.5076 6.49065 15.667 6.51767 15.7512 6.40377C15.9081 6.36323 16.0675 6.33428 16.2281 6.31755L16.2385 6.38318C16.2202 6.40249 16.1829 6.4411 16.1646 6.4604C16.1597 6.46748 16.1499 6.48293 16.1451 6.49065L16.167 6.49837C16.3423 6.56916 16.5279 6.60455 16.7087 6.6586C16.7093 6.76092 16.6867 6.8613 16.6531 6.95783C16.3142 6.89219 16.0058 6.71073 15.6688 6.63544C15.6822 6.65925 15.7085 6.70686 15.7219 6.73067C15.9887 6.88833 16.3069 6.91665 16.5823 7.05886C16.6244 7.1837 16.5865 7.39413 16.4204 7.34908C16.0602 7.22553 15.7995 6.92244 15.5412 6.64766C15.5058 6.65024 15.4355 6.65474 15.4007 6.65667C15.3403 6.80725 15.3104 6.96877 15.256 7.12192C15.1834 6.94882 15.1656 6.75899 15.1431 6.57366C15.104 6.23389 15.0203 5.90184 14.9928 5.56079Z" fill="#1A4F89"/>
<path d="M20.3869 6.52926C20.495 6.24869 20.481 5.91343 20.6629 5.6689C20.6532 5.91471 20.6361 6.16053 20.6471 6.40699C20.5646 6.45783 20.4761 6.4958 20.3869 6.52926Z" fill="#1A4F89"/>
<path d="M13.5988 5.74933C13.8785 5.87739 14.1722 5.6837 14.4647 5.73904C14.4854 5.88769 14.5123 6.03569 14.5154 6.18692C14.2845 6.21008 14.0543 6.23711 13.8248 6.268C13.8205 6.23711 13.8107 6.17662 13.8058 6.14573C13.7454 6.13608 13.6855 6.12707 13.6251 6.1187C13.6031 5.99708 13.6013 5.87288 13.5988 5.74933Z" fill="#1A4F89"/>
<path d="M14.2229 6.26156C14.3462 6.22166 14.4696 6.27057 14.5734 6.34136C14.5807 6.41922 14.5789 6.49773 14.5685 6.57559C14.3645 6.68112 14.1868 6.4707 14.2229 6.26156Z" fill="#1A4F89"/>
<path d="M18.2492 6.50609C18.3512 6.55114 18.397 6.66053 18.4574 6.75062C18.524 6.76607 18.5905 6.78344 18.6565 6.80275C18.6785 6.80982 18.7212 6.82398 18.7426 6.8317C18.7621 6.8169 18.8006 6.78795 18.8195 6.77314C18.847 6.77636 18.902 6.78151 18.9294 6.78409C18.9856 6.85423 19.0754 6.86259 19.1517 6.82527C19.159 7.03891 19.3648 7.10777 19.4674 7.26285C19.388 7.25577 19.3086 7.24612 19.2298 7.24033C19.206 7.24869 19.1596 7.26478 19.1358 7.27315L19.0906 7.31047C18.8708 7.26543 18.6589 7.17533 18.4831 7.02669C18.6925 7.02733 18.9575 7.18113 19.1169 6.96684C18.8867 6.79116 18.6028 7.01703 18.3719 6.85423C18.1637 7.01317 17.9024 7.05629 17.6923 7.20687C17.8145 7.19593 17.9354 7.17533 18.0575 7.16118C18.0215 7.23003 17.9836 7.2976 17.9451 7.36517C17.7699 7.50481 17.5537 7.60391 17.3296 7.55114C17.3235 7.42694 17.5024 7.49644 17.5751 7.4559C17.4298 7.41214 17.2814 7.38383 17.1355 7.34458C17.2142 7.3124 17.2948 7.28344 17.3736 7.25063C17.3229 7.17469 17.2478 7.12385 17.1843 7.06272C17.1397 6.981 17.1593 6.87932 17.1636 6.79052C17.2985 6.76993 17.456 6.8124 17.5696 6.71266C17.5574 6.67855 17.5317 6.61163 17.5195 6.57752C17.6911 6.60776 17.8639 6.63672 18.0379 6.65217C18.0031 6.71394 17.9665 6.77508 17.9329 6.8375C18.1185 6.83363 18.2162 6.68306 18.2492 6.50609Z" fill="#1A4F89"/>
<path d="M20.2062 6.69206C20.2612 6.73775 20.2392 6.85487 20.3094 6.87611C20.3161 6.83428 20.3302 6.75127 20.3369 6.71008C20.4749 6.67984 20.528 6.84908 20.5939 6.94367C20.5567 6.9411 20.4816 6.9366 20.4443 6.93402C20.4443 6.97328 20.4437 7.05243 20.4437 7.09168L20.448 7.15474C20.5872 7.18885 20.7271 7.14123 20.8675 7.13351C20.9481 7.16311 20.906 7.24676 20.8919 7.30983C20.6684 7.42566 20.4517 7.27765 20.3241 7.08653C20.3027 7.194 20.2795 7.30146 20.2435 7.40442C20.1641 7.26478 20.1958 7.09618 20.1867 6.94174C20.1916 6.85809 20.1983 6.77508 20.2062 6.69206Z" fill="#1A4F89"/>
<path d="M22.2182 7.20944C22.2658 7.32334 22.3177 7.43531 22.3726 7.54663C22.3763 7.55436 22.3849 7.57045 22.3891 7.57817C22.4429 7.67598 22.4996 7.77186 22.5564 7.86774C22.5607 7.87611 22.5705 7.8922 22.5754 7.90056C22.6181 7.97456 22.6596 8.0505 22.6963 8.12965C22.612 8.15088 22.598 8.33428 22.7097 8.2931C22.7298 8.28538 22.7701 8.27058 22.7903 8.2635C22.8819 8.00095 22.7256 7.73711 22.717 7.47263C22.8569 7.46877 22.8691 7.64187 22.9106 7.74676C22.9124 7.75513 22.9149 7.77186 22.9167 7.78087C22.9228 7.87933 22.9155 7.97842 22.9118 8.07752C22.9118 8.0846 22.9118 8.09812 22.9112 8.10455C22.9143 8.27186 23.0315 8.42437 23.1188 8.54728C23.1231 8.50867 23.1328 8.43145 23.1377 8.39284C23.1499 8.40314 23.1756 8.42373 23.1884 8.43402C23.2434 8.5801 23.3276 8.71009 23.4211 8.83171C23.4241 8.97521 23.3978 9.11742 23.3716 9.25835C23.3374 9.33815 23.305 9.44046 23.2018 9.40121C23.1964 9.22875 23.2018 9.02025 23.0431 8.91665C22.9503 8.82077 22.8294 8.90636 22.7244 8.92051C22.67 8.83428 22.6609 8.70301 22.5595 8.66118C22.4288 8.65989 22.2994 8.68692 22.1693 8.69207C22.107 8.19722 22.2059 7.70365 22.2182 7.20944Z" fill="#1A4F89"/>
<path d="M18.5478 7.7487C18.7353 7.68949 18.9044 7.57945 19.0943 7.52604C19.1004 7.70558 19.1071 7.88641 19.0998 8.06723C18.8794 8.16826 18.6925 7.99001 18.4806 7.98229C18.2907 7.95333 18.1002 7.90507 17.9317 7.8079C17.8639 7.77508 17.8212 7.70494 17.834 7.62579L17.8712 7.58718C18.1027 7.61099 18.3219 7.6985 18.5478 7.7487Z" fill="#1A4F89"/>
<path d="M21.0586 10.342C21.0769 10.3465 21.113 10.3562 21.1313 10.3613C21.1813 10.3903 21.2143 10.4315 21.2314 10.4855C21.2064 10.4958 21.1563 10.517 21.1313 10.528C21.0464 11.0042 21.0336 11.4874 21.0617 11.9714C21.1765 11.9836 21.4054 11.972 21.3554 12.1618C21.1166 12.3021 20.8241 12.2506 20.5805 12.1535C20.5781 12.1155 20.5726 12.0396 20.5701 12.0016C20.6471 11.9681 20.738 11.8903 20.8229 11.9482C20.8266 11.9746 20.8339 12.028 20.8382 12.0544C20.8632 12.0524 20.9133 12.0492 20.9389 12.0479C20.9658 11.5569 20.9377 11.0647 20.9554 10.5737C20.9499 10.4816 20.9939 10.3993 21.0586 10.342Z" fill="#1A4F89"/>
<path d="M3.29362 2.01766C3.61846 1.99321 3.93903 2.06528 4.26082 2.09102C4.57345 2.12191 4.88852 2.11033 5.20115 2.14701C5.17062 2.20621 5.1407 2.26541 5.11017 2.32526C4.91172 2.3703 4.70778 2.33233 4.50811 2.31946C4.14785 2.28214 3.78515 2.28085 3.4249 2.23967C3.31132 2.24417 3.30705 2.1026 3.29362 2.01766Z" fill="#FDFDFD"/>
<path d="M2.45281 2.15022C2.68545 2.14958 2.91748 2.17983 3.14951 2.20106L3.1544 2.24739C3.09395 2.27442 3.0335 2.29951 2.97121 2.32204L2.92176 2.33877C2.76422 2.31753 2.60607 2.29308 2.45647 2.23645C2.45525 2.21457 2.45342 2.17146 2.45281 2.15022Z" fill="#FDFDFD"/>
<path d="M5.07109 2.41149C5.1029 2.44501 5.1029 2.44501 5.07109 2.41149Z" fill="#FDFDFD"/>
<path d="M4.26692 2.60582C4.49346 2.48613 4.778 2.45331 5.01125 2.57365C5.12727 2.60968 5.13765 2.75512 5.17429 2.85679C4.90134 2.89218 4.62352 2.86708 4.35424 2.8111C4.28463 2.77185 4.25715 2.68433 4.26692 2.60582Z" fill="#FDFDFD"/>
<path d="M5.31106 2.71586C5.59194 2.63671 5.87465 2.75061 6.15614 2.76477C6.62142 2.83234 7.09159 2.80981 7.55871 2.84456C7.53306 2.90956 7.50802 2.97519 7.4836 3.04148C6.74049 2.98613 5.98945 3.02217 5.25061 2.91406C5.26588 2.84585 5.28603 2.78021 5.31106 2.71586Z" fill="#FDFDFD"/>
<path d="M5.1004 2.95911C5.00759 2.92822 4.90073 2.94173 4.82807 3.01316C4.89829 3.06464 5.08941 3.0685 5.1004 2.95911Z" fill="#FDFDFD"/>
<path d="M4.37256 3.06914C4.36645 3.06914 4.35302 3.06786 4.3463 3.06786L4.37256 3.06914Z" fill="#FDFDFD"/>
<path d="M5.56141 3.11998C5.59383 3.15415 5.59383 3.15415 5.56141 3.11998Z" fill="#FDFDFD"/>
<path d="M7.21127 3.17404C7.39567 3.07494 7.22165 3.3851 7.21127 3.17404Z" fill="#FDFDFD"/>
<path d="M6.90536 3.24804C6.93716 3.2822 6.93716 3.2822 6.90536 3.24804Z" fill="#FDFDFD"/>
<path d="M6.51762 3.37288C6.58784 3.28987 6.82231 3.23131 6.84491 3.37288C6.7466 3.43723 6.64218 3.49708 6.52373 3.49579C6.52189 3.4649 6.51884 3.40377 6.51762 3.37288Z" fill="#FDFDFD"/>
<path d="M7.60511 3.67468C7.64541 3.69077 7.72601 3.72359 7.76692 3.74032C7.7309 3.75447 7.65946 3.78343 7.62343 3.79759C7.61916 3.7667 7.60939 3.70493 7.60511 3.67468Z" fill="#FDFDFD"/>
<path d="M9.31481 4.65087C9.37038 4.52668 9.43205 4.40248 9.52547 4.30467C9.69888 4.26156 9.83688 4.39669 9.98526 4.4649C10.0952 4.50802 10.213 4.52217 10.3241 4.56078C10.3626 4.61419 10.398 4.66954 10.4316 4.72745C10.177 4.83878 9.90344 4.89991 9.62866 4.91278C9.65492 4.8864 9.70743 4.83299 9.73308 4.8066C9.59081 4.76284 9.44975 4.71651 9.31481 4.65087Z" fill="#FDFDFD"/>
<path d="M10.4621 4.64959C10.5372 4.61162 10.6258 4.53697 10.6991 4.62256C10.7461 4.69463 10.6777 4.7667 10.6581 4.83556C10.6716 4.84135 10.6978 4.85358 10.7113 4.86001C10.7137 4.88897 10.7192 4.94689 10.7223 4.97584C10.6215 4.90635 10.536 4.81625 10.467 4.71329L10.4621 4.64959Z" fill="#FDFDFD"/>
<path d="M14.5306 4.86001C14.7321 4.8658 14.4402 5.05564 14.5306 4.86001Z" fill="#FDFDFD"/>
<path d="M9.5328 4.91535C9.56583 4.94952 9.56583 4.94952 9.5328 4.91535Z" fill="#FDFDFD"/>
<path d="M16.9785 5.11484C17.011 5.14901 17.011 5.14901 16.9785 5.11484Z" fill="#FDFDFD"/>
<path d="M11.4904 5.25384C11.4977 5.25963 11.5112 5.27185 11.5179 5.27765L11.4739 5.26992L11.4904 5.25384Z" fill="#FDFDFD"/>
<path d="M11.8971 5.34907C11.8549 5.25705 11.8159 5.2577 11.7817 5.351C11.8104 5.35036 11.8684 5.34972 11.8971 5.34907Z" fill="#FDFDFD"/>
<path d="M20.8754 6.43338C20.9908 6.555 21.0421 6.71523 21.0598 6.88318C21.0348 6.88125 20.9853 6.87675 20.9603 6.87482C20.9359 6.84908 20.887 6.79696 20.8626 6.77122C20.8644 6.67791 20.8669 6.5846 20.8699 6.49129L20.8754 6.43338Z" fill="#FDFDFD"/>
<path d="M22.783 6.61227L22.8123 6.6142C22.805 6.61356 22.7903 6.61291 22.783 6.61227Z" fill="#FDFDFD"/>
<path d="M22.8935 6.65281C22.9197 6.6541 22.9735 6.65796 23.0003 6.65989C22.9631 6.74612 22.9271 6.74419 22.8935 6.65281Z" fill="#FDFDFD"/>
<path d="M21.3071 6.96169C21.2839 6.9958 21.2387 7.06465 21.2162 7.09876C21.312 7.19271 21.3596 7.03634 21.3071 6.96169Z" fill="#FDFDFD"/>
<path d="M19.1358 7.27315C19.1596 7.26478 19.206 7.24869 19.2298 7.24033C19.2244 7.26736 19.214 7.32141 19.2091 7.34844C19.1908 7.32978 19.1541 7.29181 19.1358 7.27315Z" fill="#FDFDFD"/>
<path d="M22.9894 7.35616C22.8178 7.23325 22.8373 7.55564 22.9906 7.4012L22.9894 7.35616Z" fill="#FDFDFD"/>
<path d="M19.3007 7.51446C19.3086 7.5222 19.3233 7.53702 19.3307 7.54476L19.3007 7.51446Z" fill="#FDFDFD"/>
<path d="M22.9118 8.07752C22.9118 8.0846 22.9118 8.09812 22.9112 8.10455L22.9118 8.07752Z" fill="#FDFDFD"/>
<path d="M22.6963 8.12965C22.612 8.15088 22.598 8.33428 22.7097 8.2931C22.706 8.25191 22.6999 8.17019 22.6963 8.12965Z" fill="#FDFDFD"/>
<path d="M10.5427 11.1187C10.8743 11.0981 11.1918 10.9823 11.5234 10.963C11.7169 10.9521 11.9264 10.8845 12.1035 11.001C11.7377 11.1116 11.3536 11.1483 10.9946 11.2892C10.4939 11.2841 10.0011 11.3896 9.50288 11.4276C9.48151 11.4707 9.46197 11.5158 9.44426 11.5614L9.40152 11.5454C9.31725 11.4823 9.23482 11.4179 9.15666 11.3472C9.62134 11.2873 10.0744 11.1522 10.5427 11.1187Z" fill="#FDFDFD"/>
<path d="M18.0685 12.3883C18.2712 12.3948 17.9757 12.5814 18.0685 12.3883Z" fill="#FDFDFD"/>
<path d="M13.0462 13.0158C13.7051 12.9521 14.3523 12.7931 15.0118 12.741C15.1107 12.7133 15.2041 12.7616 15.2188 12.8735C15.1931 12.9051 15.1412 12.9681 15.115 12.9997C14.5727 12.9932 14.0409 13.1219 13.5036 13.1818C13.1305 13.2243 12.766 13.3285 12.3941 13.3735C12.2469 13.3111 12.112 13.221 11.9661 13.1567C12.3312 13.1644 12.6835 13.0421 13.0462 13.0158Z" fill="#FDFDFD"/>
<path d="M18.2938 14.5235C18.2871 14.5222 18.2736 14.5203 18.2669 14.5196L18.2938 14.5235Z" fill="#FDFDFD"/>
<path d="M15.7512 6.40377C15.6682 6.35422 15.5748 6.32977 15.4801 6.34393C15.5076 6.49065 15.667 6.51767 15.7512 6.40377Z" fill="#B6A31D"/>
<path d="M20.7319 6.82849C20.7252 6.69528 20.7625 6.5698 20.8699 6.49129C20.8669 6.5846 20.8644 6.67791 20.8626 6.77122C20.8296 6.78537 20.7649 6.81433 20.7319 6.82849Z" fill="#B6A31D"/>
<path d="M18.9294 6.78409L18.9636 6.75255C19.0076 6.76092 19.0955 6.77765 19.1395 6.78602L19.1517 6.82527C19.0754 6.86259 18.9856 6.85423 18.9294 6.78409Z" fill="#B6A31D"/>
<path d="M20.3259 7.78602C20.4437 7.82077 20.564 7.8478 20.6813 7.88769C20.7039 7.97585 20.6745 8.06208 20.6324 8.13866C20.5488 8.13029 20.4651 8.12257 20.3821 8.11549C20.3619 8.00545 20.343 7.89541 20.3259 7.78602Z" fill="#B6A31D"/>
<path d="M20.3741 8.55372C20.2428 8.47778 20.0914 8.46813 19.9522 8.52476C20.0755 8.62515 20.2343 8.58525 20.3741 8.55372Z" fill="#B6A31D"/>
<path d="M19.4869 8.58653C19.7635 8.56337 20.0334 8.65925 20.31 8.66311C20.2966 8.99258 20.0694 9.25256 20.0523 9.58139C19.8002 9.62515 19.5522 9.53699 19.3025 9.51447C19.4045 9.21266 19.3685 8.8819 19.4869 8.58653ZM19.7287 9.09233C19.9137 8.99452 19.7397 9.30275 19.7287 9.09233Z" fill="#B6A31D"/>
<path d="M21.1343 8.90314C21.1612 8.89735 21.2155 8.88641 21.2424 8.88126C21.2241 9.1303 21.3462 9.57882 20.9927 9.60263C21.0079 9.36324 21.1056 9.14059 21.1343 8.90314Z" fill="#B6A31D"/>
<path d="M2.37343 6.96233C2.69278 6.94625 3.00602 7.02862 3.32231 7.05886C3.5 7.0949 3.696 7.07302 3.85598 7.17533C3.72287 7.22875 3.59464 7.29696 3.45604 7.33621C3.20569 7.37932 2.94923 7.31883 2.69888 7.36581C2.52913 7.43531 2.52913 7.64831 2.60485 7.79374C1.99791 7.93016 1.3757 7.84586 0.768754 7.7577C0.517795 7.73711 0.219208 7.89992 0 7.73003C0.088538 7.59104 0.326064 7.64895 0.473831 7.60133C1.15832 7.29374 1.92402 7.37546 2.64637 7.25577C2.74102 7.22295 2.87901 7.2281 2.91321 7.10777C2.73918 7.05693 2.50532 7.10069 2.37343 6.96233Z" fill="black"/>
<path d="M2.88329 8.27701C3.12326 8.23518 3.37238 8.27572 3.60625 8.19078C3.67219 8.20944 3.73814 8.22875 3.80347 8.24998C3.97261 8.41279 4.19731 8.4765 4.40003 8.57753C4.39454 8.62386 4.38294 8.71652 4.37744 8.7635C4.28402 8.85616 4.14114 8.8182 4.02512 8.83235C3.43222 8.82656 2.83383 8.88319 2.24887 8.75642C1.93013 8.69915 1.56682 8.88641 1.27983 8.69465C1.41966 8.50031 1.71581 8.63737 1.9057 8.5254C2.20185 8.34136 2.55295 8.33621 2.88329 8.27701Z" fill="black"/>
<path d="M3.41146 8.95462C3.72959 8.95397 4.04832 8.82785 4.36462 8.90185C4.64 9.09297 4.97401 8.99194 5.27931 9.03763C5.3764 9.15282 5.44478 9.29696 5.56752 9.38705C5.88076 9.63995 6.27704 9.72875 6.61471 9.93532C6.60616 10.0743 6.5683 10.214 6.59211 10.3542C6.89681 10.4714 7.22287 10.4212 7.53855 10.4533C7.71929 10.7667 8.00445 10.9823 8.33051 11.1039C8.42638 11.1528 8.52163 11.203 8.61689 11.2532C8.44164 11.3536 8.24014 11.3375 8.04841 11.3452C7.25951 11.4643 6.45412 11.3941 5.6701 11.2622C5.4228 11.2352 5.18222 11.3195 4.93737 11.3382C4.79632 11.3491 4.63451 11.2912 4.56734 11.1509C4.76212 10.9372 5.12177 11.1206 5.32388 10.9096C5.43685 10.7835 5.63346 10.7931 5.72749 10.6496C5.33182 10.6033 4.93309 10.5627 4.54597 10.4604C4.18449 10.3793 3.8108 10.4707 3.44871 10.4064C3.4426 10.3851 3.42978 10.342 3.42306 10.3208C3.63983 10.2802 3.85965 10.2584 4.08008 10.2545C4.47026 10.2532 4.84517 10.1013 5.23718 10.1168C5.41975 10.0975 5.64995 10.1605 5.79161 10.0042C5.52355 9.9765 5.25427 9.99388 4.98683 10.0248C4.62413 9.99838 4.25959 9.97779 3.90117 9.90893C3.60441 9.85102 3.30888 9.96299 3.01151 9.94754C2.92176 9.93403 2.76605 9.87676 2.81124 9.7532C3.17271 9.72875 3.53297 9.63995 3.83095 9.41601C3.74669 9.34201 3.6325 9.35938 3.53114 9.34329C3.19653 9.31241 2.86436 9.25192 2.5389 9.16183C2.29161 9.12193 1.94417 9.35295 1.76282 9.10134C2.01745 9.07688 2.27451 9.11292 2.5273 9.06723C2.82039 9.01768 3.11349 8.95462 3.41146 8.95462Z" fill="black"/>
<path d="M12.9424 10.5602C13.1659 10.5602 13.3821 10.6232 13.5878 10.7114C13.6538 10.7513 13.7026 10.815 13.7326 10.8883C13.5091 10.8871 13.2838 10.8755 13.0676 10.9475C12.9833 10.8414 12.9107 10.7037 12.9424 10.5602Z" fill="black"/>
<path d="M15.7714 10.8607C16.0657 10.7989 16.4186 10.741 16.6732 10.9501C16.6268 11.0428 16.5621 11.1496 16.6067 11.2584C16.7532 11.6702 16.8839 12.0956 17.122 12.4617C17.2301 12.6322 17.4328 12.7642 17.3913 12.999C17.3589 13.1013 17.3309 13.205 17.3058 13.3098C17.2374 13.3768 17.1568 13.4282 17.075 13.4752C16.4809 13.1046 16.2147 12.3781 16.0736 11.6992C16.0266 11.5524 16.0303 11.3311 15.8599 11.2796C15.5253 11.1792 15.173 11.14 14.8512 10.9945L14.8347 10.945C15.1479 10.9456 15.4722 10.9829 15.7714 10.8607Z" fill="black"/>
<path d="M7.67838 11.4707C8.05452 11.4707 8.43432 11.4327 8.79885 11.3349C8.98081 11.4057 9.16399 11.472 9.35084 11.5293C9.30321 11.712 9.23665 11.9012 9.27878 12.093C9.61706 12.25 9.99258 12.1329 10.3449 12.1947C10.4084 12.2841 10.456 12.3851 10.5079 12.4829C10.4206 12.4939 10.3339 12.4952 10.2472 12.4881C9.32947 12.3729 8.41722 12.212 7.49948 12.1007C7.1209 12.0557 6.7466 11.9797 6.37901 11.8774C6.04318 11.7976 5.64018 12.0447 5.34464 11.7957C5.39227 11.6979 5.52355 11.7558 5.6072 11.7313C6.3033 11.6972 6.98534 11.5331 7.67838 11.4707Z" fill="black"/>
<path d="M18.1198 12.1084C18.3323 12.129 18.5423 12.1876 18.7273 12.3034C18.7646 12.4598 18.8446 12.602 18.9874 12.6747C18.8971 12.6901 18.778 12.6593 18.7194 12.7551C18.8006 12.8658 18.9044 12.9572 18.9764 13.0763C18.9435 13.0988 18.8781 13.1438 18.8452 13.1663C18.7481 12.9842 18.607 12.842 18.4238 12.7616C18.2773 12.573 18.193 12.3375 18.1198 12.1084Z" fill="black"/>
<path d="M11.0221 13.1181C11.1405 13.0981 11.2492 13.0441 11.3622 13.0055C11.7707 13.1599 12.1767 13.3227 12.5663 13.5248C13.1317 13.7661 13.7252 13.9533 14.3383 13.9829C14.2968 14.0338 14.24 14.0647 14.1673 14.075C14.1099 14.3195 14.3041 14.575 14.5331 14.6091C14.9428 14.6799 15.3452 14.5035 15.7561 14.5518C15.9759 14.5756 16.1957 14.546 16.407 14.4797C16.7954 14.5454 17.1758 14.4192 17.5623 14.4347C17.7467 14.5319 17.9476 14.5859 18.1375 14.6683C18.2303 14.7223 18.1216 14.8111 18.0557 14.8021C17.8004 14.7925 17.5531 14.6773 17.2954 14.712C16.9889 14.7539 16.6775 14.7178 16.3728 14.7719C16.3087 14.8362 16.2654 14.9192 16.208 14.9907C15.8733 15.0537 15.5686 14.7738 15.2316 14.8433C14.8005 14.8472 14.3456 14.9617 13.9322 14.7905C13.7692 14.7397 13.6965 14.5647 13.5659 14.4681C13.3717 14.353 13.1427 14.3748 12.9296 14.3581C12.1987 14.2757 11.4794 14.1162 10.751 14.0171C10.1965 13.9237 9.6305 13.8838 9.08889 13.7172C8.67306 13.5814 8.23465 13.7011 7.80967 13.6515C7.72357 13.6599 7.67228 13.5608 7.69304 13.4823C8.13756 13.4385 8.58758 13.4315 9.0266 13.3375C9.68545 13.2101 10.3565 13.1863 11.0221 13.1181Z" fill="black"/>
</svg>
