<svg width="1172" height="613" viewBox="0 0 1172 613" fill="none" xmlns="http://www.w3.org/2000/svg">
<g opacity="0.76">
<path d="M680.973 22.4C796.2 14.9467 911.493 8.04001 1026.71 0.466675C1033.15 9.74668 1013.51 7.18667 1007.36 10C874.6 38.2133 742 67.0133 609.08 94.3066C440.787 102.827 272.293 109.933 103.92 118.52C99.52 120.973 96.8667 112.293 102.48 112.973C188.2 97.72 274.133 83.3866 360 68.8C466.88 52.5733 572.56 25.7467 680.973 22.4Z" fill="#4D4847"/>
<path d="M609.08 94.3066C742 67.0133 874.6 38.2133 1007.36 10C1006.76 12.08 1004.49 12.4667 1002.92 13.5467C995.56 21.4133 990.467 33.3333 977.2 31.92C971.28 31.5467 957.427 41.6533 960.227 29.6667C959.827 16.56 944.707 35.4 942.067 39.28C931.387 44.3334 918.147 44.1867 906.72 48.04C897.893 51.68 904.827 29.5733 896.027 38.72C884.347 57.2666 862.733 57.56 843.627 61.68C845.36 56.5333 840.653 44.0533 835.453 52.72C823.36 76.1066 793.987 67.7066 773.853 77.72C779.293 62.24 762.173 63.52 761.12 75.8933C745.28 88.4666 721.28 90.5867 702.013 90.7067C701.08 67.0934 685.493 94.92 678.693 100.88C662.08 100.6 646.4 110 629.747 107.04C623.68 107.187 630.333 95.6933 622.707 96.88C610.547 102.56 605.427 122.733 588.293 118.827C581.72 121.653 565.907 113.147 565.4 124.24C520.76 125.293 476.093 127.467 431.52 129.707C433.16 184.76 434.453 239.787 436.493 294.813C437.587 308.187 437.467 321.613 438.067 335.027C432.133 342.707 416.867 343.707 410.6 336.307C411.16 323.8 409.72 311.347 410.507 298.867C406.707 243.027 407.027 186.987 404.107 131.093C364.68 131.013 325.28 134.093 285.88 135.32C251.773 142.387 217.533 148.72 183.387 155.507C183.053 159.907 182.827 164.413 182.64 168.853C176.667 163.053 173.84 154.733 166.787 149.84C163.413 144.867 164.44 134.387 154.973 137.653C149.547 139.973 134.64 132.44 134.813 141.733C131.867 137.827 133.387 131.093 131.84 126.147C131.533 114.573 112.933 129.92 111.72 119.293C109.773 119.093 105.867 118.707 103.92 118.52C272.293 109.933 440.787 102.827 609.08 94.3066Z" fill="#212121"/>
<path d="M977.2 31.92C990.467 33.3333 995.56 21.4133 1002.92 13.5467C1010.24 11.92 1009.76 31.3466 1003.87 33.0533C994.24 32.2133 1003.63 46.0399 995.173 47.2133C989 48.0933 994.907 57.28 991.053 59.0267C992.72 51.5867 991.68 45.84 984.627 50.1067C983.493 140.027 977.707 229.813 977.44 319.947C969.24 326.2 950.427 309.613 949.48 325.52C947.08 325.653 944.707 325.8 942.347 326.133C953.08 314.693 930.013 315.467 925.733 306.933C915.813 303.427 922.373 310.84 923.293 316.24C914.133 316.6 917.44 307.587 910.28 305.12C919.627 298.84 933.627 298.6 940.827 290.813C947.187 298.6 953.947 306.08 960.333 313.867C960.307 275.56 963.2 237.373 963.2 199.067C964.8 150.667 966.187 102.187 966.867 53.7733C920.12 65.1467 873.28 76.2533 826.627 87.9467C822.467 89.0667 818.36 90.3199 814.32 91.7199C807.76 193.013 813.04 293.827 809.68 395.067C802.12 396.147 795.32 389.787 787.933 392.227C784.427 386.827 777.507 389.693 772.2 388.36C772.4 383.107 772.827 377.947 773.387 372.773C781.88 369.627 787.387 363.813 796.24 370C797.16 374.2 794.893 379.68 797.453 383.533C797.92 357.013 797.707 330.48 797.493 303.96C798.027 277.96 797.253 251.96 797.907 225.96C800.067 199.6 798.84 173.08 798.707 146.667C798.933 129.44 799.453 112.2 798.84 94.9866C741.053 108.08 683.227 122.347 625.747 136.747C637.053 181.467 645.213 227.053 655.28 272.12C661.893 284.28 654.227 286.547 643.893 282.227C638.04 258.507 633.667 234.4 627.96 210.627C627.333 207.053 624.333 196.12 625.76 210.893C626.307 230.56 624.173 250.52 626.48 270.08C626.533 276.92 636.72 270.84 638.693 276.88C638.493 286.533 641.067 297.027 637.56 306.293C632.493 307.813 627.493 309.507 622.547 311.347C620.307 311.267 615.8 311.107 613.56 311.04C612.2 253.507 609.68 197.427 612.107 141.987C605.813 137.44 592.733 145.04 597.373 153.84C597.44 157.093 603.24 171.6 596.333 166.427C586.947 178 602.08 189.413 599.107 201.627C595.613 233.413 604.387 265.747 595.867 296.947C591.88 306.787 607.52 313.587 598.4 322.32C594.067 331.72 605.907 341.787 595.08 350.973C589.08 342.533 582.027 352.28 589.573 357.747C598.32 361.6 604.427 369.693 602.173 380.213C594.28 374.213 594.24 394.187 599.907 398.08C603.32 421.84 599.733 447.307 601.32 471.36C603.68 474.893 602.653 478.2 599.4 480.68C595.613 468.88 608.68 440.173 586 445.947C582.16 454.12 585.307 466.947 584.067 476.653C583.48 469.827 582.893 463.067 582.933 456.24C582.947 454.387 582.96 452.56 582.96 450.747C582.96 448.28 582.92 445.84 582.853 443.413C581.213 434.253 589.16 416.893 574.973 415.76C588.253 410.96 581.587 391.6 581.333 380.453C569.253 380.547 557.227 382.48 545.147 381.573C549.987 375.093 561.72 383.933 566.347 378.907C567.653 366.053 549.747 374.187 542.2 370.76C524.773 371.44 506.333 370.613 489.44 375.653C482.227 376.453 474.56 376.8 467.693 373.973C477.827 373.867 489.32 376.373 497.893 369.693C491.467 368.133 484.907 367.32 478.413 366.267C489.16 368.24 497.067 362.24 505.613 357.427C501.547 351.933 492.307 355.72 486.373 352.627C493.973 352.107 501.6 352.253 509.213 352.56C516.387 362.333 532.253 356.907 541.92 352.587C537.08 351.76 522.547 351.667 531.16 346.507C548.24 348.6 564.36 355.373 581.6 356.147C581 333.813 581.347 311.48 580.84 289.213C579.333 241.173 579.307 192.96 578.36 144.987C562.12 149.387 565.88 134.84 565.4 124.24C565.907 113.147 581.72 121.653 588.293 118.827C605.427 122.733 610.547 102.56 622.707 96.88C630.333 95.6933 623.68 107.187 629.747 107.04C646.4 110 662.08 100.6 678.693 100.88C685.493 94.92 701.08 67.0934 702.013 90.7067C721.28 90.5867 745.28 88.4666 761.12 75.8933C762.173 63.52 779.293 62.24 773.853 77.72C793.987 67.7066 823.36 76.1066 835.453 52.72C840.653 44.0533 845.36 56.5333 843.627 61.68C862.733 57.56 884.347 57.2666 896.027 38.72C904.827 29.5733 897.893 51.68 906.72 48.04C918.147 44.1867 931.387 44.3334 942.067 39.28C944.707 35.4 959.827 16.56 960.227 29.6667C957.427 41.6533 971.28 31.5467 977.2 31.92ZM566.227 358.133C563.453 358.853 555.347 362.813 561.467 364.6C570.24 368.347 553.093 366.613 552 367.08C560.88 372.573 572.133 366.187 581.587 365.413C585.44 354.96 571.507 357.893 566.227 358.133Z" fill="#373635"/>
<path d="M984.627 50.1067C991.68 45.84 992.72 51.5867 991.053 59.0267C989.867 103.387 988.76 147.733 987.04 192.093C997.2 188.093 992.72 196.2 992.173 200.173C988.693 197.827 989.213 203.413 988.213 205.52C987.413 237.293 985.973 269.68 984.267 301.72C988.733 299.12 992.96 296.147 997.293 293.307C997.667 296.107 997.933 298.92 998.213 301.747C998.453 305.653 998.987 309.613 999.027 313.573C994.573 313.547 986.107 307.72 985.587 314.773C1004.65 315.08 991.467 337.733 995.373 348.693C983.8 363.72 965.08 353.16 949.68 353.627C949.613 344.24 949.813 334.88 949.48 325.52C950.427 309.613 969.24 326.2 977.44 319.947C977.707 229.813 983.493 140.027 984.627 50.1067Z" fill="#595755"/>
<path d="M814.32 91.7199C818.36 90.3199 822.467 89.0667 826.627 87.9467C827.253 104.84 827.133 121.76 826.707 138.667C824.76 158.36 825.747 178.2 825.907 197.96C825.307 217.293 826.013 236.653 825.387 256C823.107 283.56 824.853 311.253 824.347 338.88C824.32 341.573 824.307 344.28 824.373 347C824.68 360.84 823.92 374.68 823.2 388.507C823.667 395.693 814.093 394.493 809.68 395.067C813.04 293.827 807.76 193.013 814.32 91.7199Z" fill="#4A4846"/>
<path d="M134.813 141.733C134.64 132.44 149.547 139.973 154.973 137.653C164.44 134.387 163.413 144.867 166.787 149.84C160.187 145.507 153.88 152.307 151 157.827C151.08 165.52 161.56 157.68 166.68 159.213C171.16 233.613 174.253 308.667 178.36 383.213C176.213 377.507 168.987 378.267 164.267 380.173C164.147 375.987 164.173 371.987 163.707 367.893C159.2 301.88 154.853 235.76 152.333 169.667C156.573 159.573 144.267 162.013 139.547 159.76C132.253 158.267 138.253 146.36 134.813 141.733Z" fill="#383736"/>
<path d="M826.707 138.667C824.76 158.36 825.747 178.2 825.907 197.96C827.893 178.267 826.973 158.413 826.707 138.667Z" fill="#232223"/>
<path d="M597.373 153.84C592.733 145.04 605.813 137.44 612.107 141.987C609.68 197.427 612.2 253.507 613.56 311.04C613.587 314.56 613.64 318.107 613.707 321.68C615.24 338.307 610.787 358.347 615.04 373.533C620.387 375.173 634.267 378.333 617.733 377.68C608.027 383.293 618.573 386.893 626.307 386.36C609.267 381.76 614.84 401.427 615.693 411.613C627.533 419.933 644.72 420.053 653.187 411.12C642.307 408.547 628.867 415.347 616.973 411.733C622.413 410.4 655.76 410.4 640.133 406.547C649.88 391.733 666.96 405.027 680.293 403.16C684.413 402.387 695.187 405.693 692.907 397.8C703.147 397.653 730.613 406.293 722.08 387.933C725.627 391 732.387 394.453 725.453 398C743.627 404.933 720.333 399.907 713.12 400.24C713.8 408.667 697.787 394.027 700.373 404.347C708.96 404.653 717.893 401.707 726.147 405.587C718.72 407.267 705.56 402.387 701.92 411.8C682.453 414.667 661.147 403.027 645.507 420.187C651.467 421.56 657.773 419.88 663.64 421.427C660.813 424.067 657.16 426.947 653.147 424.88C642.36 419.547 629.093 423.32 619.76 415.533C612.787 412.147 615.213 420.787 615.013 425.347C615.84 445.027 613.333 465.027 615.987 484.56L616.227 485.627C608.24 494.413 596.667 495 599.4 480.68C602.653 478.2 603.68 474.893 601.32 471.36C599.733 447.307 603.32 421.84 599.907 398.08C594.24 394.187 594.28 374.213 602.173 380.213C604.427 369.693 598.32 361.6 589.573 357.747C582.027 352.28 589.08 342.533 595.08 350.973C605.907 341.787 594.067 331.72 598.4 322.32C607.52 313.587 591.88 306.787 595.867 296.947C604.387 265.747 595.613 233.413 599.107 201.627C602.08 189.413 586.947 178 596.333 166.427C603.24 171.6 597.44 157.093 597.373 153.84Z" fill="#434141"/>
<path d="M797.907 225.96C797.88 199.533 796.6 173.027 798.707 146.667C798.84 173.08 800.067 199.6 797.907 225.96Z" fill="#111110"/>
<path d="M151 157.827C153.88 152.307 160.187 145.507 166.787 149.84C173.84 154.733 176.667 163.053 182.64 168.853C187.76 232.467 189.853 296.307 193.773 360.027C194.6 378.387 194.587 397.387 197.307 415.32C206.2 419.613 211.147 414.36 206.507 406.08C210.56 406.107 214.6 405.893 218.64 405.627C212.44 417.947 223.373 431.907 218.773 444.68C212.253 445.96 215.373 438.587 211.64 436.147C216.787 428.827 197.68 430.293 204.053 419.053C195.307 422.88 187.573 415.933 179.067 420.413C180.893 407.627 180.627 395.987 178.36 383.213C174.253 308.667 171.16 233.613 166.68 159.213C161.56 157.68 151.08 165.52 151 157.827Z" fill="#4D4947"/>
<path d="M949.813 204.4C946.307 195.907 959 194.44 963.2 199.067C963.2 237.373 960.307 275.56 960.333 313.867C953.947 306.08 947.187 298.6 940.827 290.813C940.253 285.867 939.747 280.933 939.32 276.027C938.813 256.2 941.733 236.533 940.707 216.747C946.76 215.133 953.267 212.973 949.813 204.4Z" fill="#4F5046"/>
<path d="M988.213 205.52C989.213 203.413 988.693 197.827 992.173 200.173C994.427 206.573 990.187 217.213 999.4 217.347C1000 242.053 998.987 268.053 997.293 293.307C992.96 296.147 988.733 299.12 984.267 301.72C985.973 269.68 987.413 237.293 988.213 205.52Z" fill="#777269"/>
<path d="M625.76 210.893C624.333 196.12 627.333 207.053 627.96 210.627C625.4 230.28 628.133 250.293 626.48 270.08C624.173 250.52 626.307 230.56 625.76 210.893Z" fill="#131312"/>
<path d="M824.347 338.88C824.853 311.253 823.107 283.56 825.387 256C825.6 266.307 825.533 276.6 825.787 286.933C842.6 286.72 859.44 285.547 876.253 287.413C894.12 289.56 913.733 281.427 930.213 291.2C924.653 294.933 914.653 290.587 913.133 298.653C893.187 303.04 868.44 297.96 852.733 312.467C857.08 330.48 843.573 346.013 824.347 338.88Z" fill="#050506"/>
<path d="M939.32 276.027C939.747 280.933 940.253 285.867 940.827 290.813C933.627 298.6 919.627 298.84 910.28 305.12C904.693 305.547 904.6 309.733 904.44 314.267C895.413 318.373 872.84 312.573 872.467 327.933C884.907 332.107 898.973 327.107 910.587 333.987C920.507 340.28 934.413 337.107 941.187 327.907C941.48 327.467 942.053 326.573 942.347 326.133C944.707 325.8 947.08 325.653 949.48 325.52C949.813 334.88 949.613 344.24 949.68 353.627C940.96 357.493 917.56 341.973 918.44 355.387C937.253 361.827 910.12 355.453 905 358.747C913.64 367.187 928.347 366.52 938.493 361.187C957.2 362.4 974.6 366.227 991.2 375.88C972.507 385.08 952.773 385.813 932.933 380.453C931.387 379.907 929.853 379.347 928.333 378.813C921.693 367.707 944.56 379.573 941.213 370.147C941.227 356.32 926.267 372.787 918.107 369.28C913.253 368.067 898.307 368.36 903.747 359.467C888.933 360.467 874.533 355.24 859.667 356.707C854.533 355.6 845.133 355.667 846.08 348.453C839.08 346.16 831.573 347.867 824.373 347C824.307 344.28 824.32 341.573 824.347 338.88C843.573 346.013 857.08 330.48 852.733 312.467C868.44 297.96 893.187 303.04 913.133 298.653C914.653 290.587 924.653 294.933 930.213 291.2C941.493 295.36 940.12 285.32 939.32 276.027Z" fill="#080809"/>
<path d="M998.213 301.747C994.467 286.36 1006.17 272.107 1021.65 277.48C1013.61 276.947 1015.44 279.867 1018.57 283.6C1019.35 300.64 1019.69 317.84 1017.77 334.84C1018.07 340.573 1024.43 339.04 1028.71 339.573C1026.67 340.013 1024.63 340.48 1022.61 340.92C1012.72 341.667 1003.68 337.013 996.293 330.933C995.707 336.76 997.493 343.04 995.373 348.693C991.467 337.733 1004.65 315.08 985.587 314.773C986.107 307.72 994.573 313.547 999.027 313.573C998.987 309.613 998.453 305.653 998.213 301.747Z" fill="#262C28"/>
<path d="M1021.65 277.48C1035.17 272.507 1039.72 283.267 1036.39 295.08C1032.05 307.227 1043.72 334.507 1028.71 339.573C1024.43 339.04 1018.07 340.573 1017.77 334.84C1019.69 317.84 1019.35 300.64 1018.57 283.6C1015.44 279.867 1013.61 276.947 1021.65 277.48Z" fill="#4B5853"/>
<path d="M1036.39 295.08C1048.04 299.2 1055.44 287.427 1066.56 288.72C1081.8 288.293 1095.67 295.04 1110.04 298.667C1116.89 305.12 1095.77 302.347 1100.36 312.053C1107.45 311 1118.21 313.507 1110.75 321.427C1133 318.187 1151.8 328.787 1169.43 340.587C1172.05 342.693 1171.87 347.92 1167.79 347.907C1135.53 348.853 1103.39 346.213 1071.33 345.373C1055.6 340.08 1038.01 348.613 1022.61 340.92C1024.63 340.48 1026.67 340.013 1028.71 339.573C1043.72 334.507 1032.05 307.227 1036.39 295.08Z" fill="#0D0E0E"/>
<path d="M580.84 289.213C581.347 311.48 581 333.813 581.6 356.147C564.36 355.373 548.24 348.6 531.16 346.507C519.173 343.08 506.533 342.92 494.48 346.133C504.613 350.12 516.587 342.173 527.427 347.307C523.24 353.08 515.493 351.907 509.213 352.56C501.6 352.253 493.973 352.107 486.373 352.627C492.307 355.72 501.547 351.933 505.613 357.427C497.067 362.24 489.16 368.24 478.413 366.267C484.907 367.32 491.467 368.133 497.893 369.693C489.32 376.373 477.827 373.867 467.693 373.973C474.56 376.8 482.227 376.453 489.44 375.653C497.013 380.013 486.307 383.853 487.427 389.213C490.853 403.013 472.413 402.093 464.12 406.773C445.947 404.067 429.973 392 410.867 395.12C388.2 382.307 363.427 397.04 338.92 394.547C332.053 397.027 307.493 390.613 311.813 404.747C328.867 403.693 336.12 419.92 350 425.147C339.707 422.907 319.6 431.2 335.28 440.307C322.04 451.267 304.267 454.427 287.64 455.72C285.867 459.76 289.427 463.453 291.107 466.907C268.88 466.32 247.573 459.013 225.493 457.64C220.653 457.16 215.827 456.68 211.027 456.027C211.027 453.4 211.027 450.8 210.973 448.2C210.907 444.48 210.853 440.787 210.813 437.107L211.64 436.147C215.373 438.587 212.253 445.96 218.773 444.68C232.547 448.373 249.973 443.96 243.64 425.333C244.307 434.387 257.973 423.453 263.56 426.133C277.147 428.267 267.267 416.96 260.973 418.187C254.707 414.827 267.04 415.107 268.56 411.347C263.32 409.467 256.387 409.867 253.36 404.373C260.093 393.387 275.92 399.987 284.84 391.547C322.667 384.307 358.733 389.08 396.307 382.053C408.333 380.533 425.96 387.773 435.067 377.64C441.053 371.933 455.4 375.587 452.507 363.387C459.52 363.307 467.6 368.293 457.413 371.973C466.093 377.813 465.64 365.107 475.373 367.76C467.267 365.773 459.147 363.8 451.2 361.307C450.907 355.12 450.92 349 451.187 342.867C475.16 347.587 498.187 343.747 520.573 336.147C513.533 331.787 511.32 324.573 502.947 321.48C516.973 309.92 539.587 310.547 557.253 310.04C563.733 308.373 582.36 317.52 580.4 305.56C580.533 300.093 580.68 294.64 580.84 289.213Z" fill="#020202"/>
<path d="M436.493 294.813C484.253 299.613 532.32 307.827 580.4 305.56C582.36 317.52 563.733 308.373 557.253 310.04C539.587 310.547 516.973 309.92 502.947 321.48C511.32 324.573 513.533 331.787 520.573 336.147C498.187 343.747 475.16 347.587 451.187 342.867C452.56 334.933 443.467 335.413 438.067 335.027C437.467 321.613 437.587 308.187 436.493 294.813Z" fill="black"/>
<path d="M410.507 298.867C409.72 311.347 411.16 323.8 410.6 336.307C396.147 336.64 402.12 351.613 400.747 361.24C396.867 379.747 421.773 378.453 435.067 377.64C425.96 387.773 408.333 380.533 396.307 382.053C358.733 389.08 322.667 384.307 284.84 391.547C275.92 399.987 260.093 393.387 253.36 404.373C256.387 409.867 263.32 409.467 268.56 411.347C267.04 415.107 254.707 414.827 260.973 418.187C267.267 416.96 277.147 428.267 263.56 426.133C257.973 423.453 244.307 434.387 243.64 425.333C240.2 414.947 256.48 398.373 239.72 395.827C230.173 400.733 206.173 391.627 206.507 406.08C211.147 414.36 206.2 419.613 197.307 415.32C194.587 397.387 194.6 378.387 193.773 360.027C194.547 362.373 195.44 365.293 198.507 363.827C269.213 342.347 340.333 321.147 410.507 298.867Z" fill="black"/>
<path d="M677.48 302.787C716.973 297.56 756.653 306.12 796.227 307.107C796.253 318.573 796.52 330.04 796.347 341.533C781.773 337.347 766.44 337.973 751.467 337.2C744.547 333.507 735.413 332.373 731.667 324.653C695.48 319.64 657.813 320.88 622.547 311.347C627.493 309.507 632.493 307.813 637.56 306.293C650.08 308.213 666.44 312.573 677.48 302.787Z" fill="#020202"/>
<path d="M796.227 307.107C796.547 306.32 797.173 304.747 797.493 303.96C797.707 330.48 797.92 357.013 797.453 383.533C794.893 379.68 797.16 374.2 796.24 370C800.227 354.533 786.48 360.227 779.293 362.653C764.76 359.707 750.133 357.267 735.587 354.48C729.48 343.973 714.44 346.733 704.44 345.8C711.373 358.96 695.987 344.747 690.68 352.147C687.92 354.28 683.88 352.947 680.613 353.427C674.693 351.2 669.893 346.947 664.213 344.307C654.427 350.093 641.413 348.773 631.133 345.64C630.467 337.28 621.96 334.973 615.12 334.96C614.787 347.8 614.933 360.667 615.04 373.533C610.787 358.347 615.24 338.307 613.707 321.68C660.36 320.013 706.64 328.12 751.467 337.2C766.44 337.973 781.773 337.347 796.347 341.533C796.52 330.04 796.253 318.573 796.227 307.107Z" fill="#0C0C0C"/>
<path d="M904.44 314.267C904.6 309.733 904.693 305.547 910.28 305.12C917.44 307.587 914.133 316.6 923.293 316.24C922.373 310.84 915.813 303.427 925.733 306.933C930.013 315.467 953.08 314.693 942.347 326.133C942.053 326.573 941.48 327.467 941.187 327.907C934.44 324.947 916.413 337.72 918.227 325.707C935.36 326.853 912.987 312.533 904.44 314.267Z" fill="#8A6350"/>
<path d="M613.56 311.04C615.8 311.107 620.307 311.267 622.547 311.347C657.813 320.88 695.48 319.64 731.667 324.653C735.413 332.373 744.547 333.507 751.467 337.2C706.64 328.12 660.36 320.013 613.707 321.68C613.64 318.107 613.587 314.56 613.56 311.04Z" fill="#040404"/>
<path d="M872.467 327.933C872.84 312.573 895.413 318.373 904.44 314.267C912.987 312.533 935.36 326.853 918.227 325.707C916.413 337.72 934.44 324.947 941.187 327.907C934.413 337.107 920.507 340.28 910.587 333.987C898.973 327.107 884.907 332.107 872.467 327.933Z" fill="#503B2C"/>
<path d="M996.293 330.933C1003.68 337.013 1012.72 341.667 1022.61 340.92C1038.01 348.613 1055.6 340.08 1071.33 345.373C1059.64 355.16 1037.16 340.347 1026.68 353.68C1027.97 357.4 1033.45 356.28 1035.01 359.12C1033.49 363.453 1027.99 362.947 1024.47 364.573C1030.68 372.68 1044.72 371.973 1052.37 377.667C1042.83 389.76 1032.99 382.64 1021.6 379.053C1015.55 379.653 1009.24 382.587 1016.24 387.147C995.053 399.6 957.08 388.76 932.4 393.76C948.413 379.36 885.76 394.72 909.6 377.88H910.64C916.92 381.573 926.6 384.987 932.933 380.453C952.773 385.813 972.507 385.08 991.2 375.88C974.6 366.227 957.2 362.4 938.493 361.187C928.347 366.52 913.64 367.187 905 358.747C910.12 355.453 937.253 361.827 918.44 355.387C917.56 341.973 940.96 357.493 949.68 353.627C965.08 353.16 983.8 363.72 995.373 348.693C997.493 343.04 995.707 336.76 996.293 330.933Z" fill="#020202"/>
<path d="M438.067 335.027C443.467 335.413 452.56 334.933 451.187 342.867C450.92 349 450.907 355.12 451.2 361.307C459.147 363.8 467.267 365.773 475.373 367.76C465.64 365.107 466.093 377.813 457.413 371.973C467.6 368.293 459.52 363.307 452.507 363.387C455.4 375.587 441.053 371.933 435.067 377.64C421.773 378.453 396.867 379.747 400.747 361.24C402.12 351.613 396.147 336.64 410.6 336.307C416.867 343.707 432.133 342.707 438.067 335.027Z" fill="#353735"/>
<path d="M615.12 334.96C621.96 334.973 630.467 337.28 631.133 345.64C641.413 348.773 654.427 350.093 664.213 344.307C669.893 346.947 674.693 351.2 680.613 353.427C666.893 365 640.253 365.92 630.6 376.28C644.107 377.467 640.707 385.72 629.173 385.547C640.8 386.827 652.4 383.64 663.973 384.56C664.587 397.48 681.987 386.493 689.56 391.133C700.76 395.067 711.053 388.4 722.08 387.933C730.613 406.293 703.147 397.653 692.907 397.8C695.187 405.693 684.413 402.387 680.293 403.16C666.96 405.027 649.88 391.733 640.133 406.547C655.76 410.4 622.413 410.4 616.973 411.733L615.693 411.613C614.84 401.427 609.267 381.76 626.307 386.36C618.573 386.893 608.027 383.293 617.733 377.68C634.267 378.333 620.387 375.173 615.04 373.533C614.933 360.667 614.787 347.8 615.12 334.96Z" fill="#090808"/>
<path d="M494.48 346.133C506.533 342.92 519.173 343.08 531.16 346.507C522.547 351.667 537.08 351.76 541.92 352.587C532.253 356.907 516.387 362.333 509.213 352.56C515.493 351.907 523.24 353.08 527.427 347.307C516.587 342.173 504.613 350.12 494.48 346.133Z" fill="#161719"/>
<path d="M704.44 345.8C714.44 346.733 729.48 343.973 735.587 354.48C750.133 357.267 764.76 359.707 779.293 362.653C786.48 360.227 800.227 354.533 796.24 370C787.387 363.813 781.88 369.627 773.387 372.773C770.64 366.04 760.44 358.347 755.253 367.227C749.4 373.493 764.04 375.44 762.253 381C756.693 385.573 753.733 373.733 749 378.12C744.56 385.413 732.4 389.093 734.827 399.44C738.093 404.96 729.547 403.8 726.147 405.587C717.893 401.707 708.96 404.653 700.373 404.347C697.787 394.027 713.8 408.667 713.12 400.24C720.333 399.907 743.627 404.933 725.453 398C732.387 394.453 725.627 391 722.08 387.933C717.387 378.027 696.027 398.027 685.907 388.267C664.2 384.773 705.453 382.52 694.947 379.307C673.2 382.493 651.733 381.413 630.6 376.28C640.253 365.92 666.893 365 680.613 353.427C683.88 352.947 687.92 354.28 690.68 352.147C695.987 344.747 711.373 358.96 704.44 345.8Z" fill="#060606"/>
<path d="M824.373 347C831.573 347.867 839.08 346.16 846.08 348.453C845.133 355.667 854.533 355.6 859.667 356.707C874.533 355.24 888.933 360.467 903.747 359.467C898.307 368.36 913.253 368.067 918.107 369.28C926.267 372.787 941.227 356.32 941.213 370.147C944.56 379.573 921.693 367.707 928.333 378.813C922.453 377.813 916.547 376.867 910.64 377.88H909.6C895.28 371.573 886.56 387.92 872.547 383.467C856.813 390.613 840.307 384.347 824.547 381.627C824.347 383.733 824.32 385.867 824.28 388L823.2 388.507C823.92 374.68 824.68 360.84 824.373 347Z" fill="#0C0C0C"/>
<path d="M566.227 358.133C571.507 357.893 585.44 354.96 581.587 365.413C572.133 366.187 560.88 372.573 552 367.08C553.093 366.613 570.24 368.347 561.467 364.6C555.347 362.813 563.453 358.853 566.227 358.133Z" fill="#171717"/>
<path d="M755.253 367.227C760.44 358.347 770.64 366.04 773.387 372.773C772.827 377.947 772.4 383.107 772.2 388.36C775.147 399.667 761.453 389.027 761 399.76C749.24 412.867 774.653 421.987 773.293 407.573C777.907 407.747 785.307 406.28 785.013 412.68C780.84 425.413 783.947 434.707 798.053 433.16C791.653 435.133 778.6 433.347 779.053 442.747C793.093 445.933 807.507 447.667 821.52 451.04C829.467 441.467 840.16 449.587 849.853 451.36C847.4 459.6 834.973 454.4 833.053 462.493C821.093 464.587 837.813 466.493 841.8 469.56C849.04 474.48 861.947 473.227 866.907 479.96C856.6 478.36 846.307 496.813 838.92 484.387C831.307 480.28 820.147 480.187 813.467 485.613C817.867 488 824.173 494.96 815.053 494.853C808.2 493 800.813 491.96 800.653 500.747C786.973 502.227 770.947 501.013 756.853 498.347C754.907 495.573 748.853 489.387 755.64 489C772.093 488.987 785.333 479.467 801.16 476.36C790.773 473.347 779.627 473.12 775.453 461.08C760.76 466.28 743.507 447.693 731.667 459.813C721.36 459.387 704.893 466.347 700.027 452.467C709.04 451.933 718.093 452.453 727.04 453.573C729.28 445.947 715.533 451.627 716.8 444.813C728 444.533 739.453 447.773 747.147 437.453C723.28 443.467 699.307 433.827 678.347 422.96C687.587 416.533 701.213 422.307 709.48 413.493C714.053 408.907 719.813 406.64 726.147 405.587C729.547 403.8 738.093 404.96 734.827 399.44C732.4 389.093 744.56 385.413 749 378.12C753.733 373.733 756.693 385.573 762.253 381C764.04 375.44 749.4 373.493 755.253 367.227Z" fill="#020202"/>
<path d="M163.707 367.893C164.173 371.987 164.147 375.987 164.267 380.173C163.773 392.147 164.667 404.133 165.627 416.04C161.48 418.64 156.507 419.28 152 421.053C149.4 429.787 152.2 439.107 152.333 448.12C129.173 445.4 106.147 441.48 82.9867 438.947C77.6933 437.613 81.9066 443.707 83.4133 445.293C103.96 466.093 124.72 486.693 145.4 507.373C158.933 508.707 174.093 498.467 188.04 506C190.107 511.667 195.827 516.587 196.147 522.613C187.333 531.467 171.4 521.827 162.987 532.307C145.56 535.227 123.333 537.52 111.333 521.387C103.867 516.293 116.533 513.427 112.867 507.853C94.6266 484.173 72.72 463.533 52.0133 442.027C44.9867 438.4 33.16 441.707 29.08 432.893C21.9466 426.333 4.83998 432.707 0.47998 424.52C44.3867 409.32 89.48 397.36 133.8 383.2C142.64 377.067 163.72 381.92 163.707 367.893Z" fill="black"/>
<path d="M489.44 375.653C506.333 370.613 524.773 371.44 542.2 370.76C549.747 374.187 567.653 366.053 566.347 378.907C561.72 383.933 549.987 375.093 545.147 381.573C557.227 382.48 569.253 380.547 581.333 380.453C581.587 391.6 588.253 410.96 574.973 415.76C589.16 416.893 581.213 434.253 582.853 443.413C575.987 433.16 562.613 441.173 552.707 437.36C545.12 432.96 567.093 422.253 549.813 426C538.733 427.693 528.027 424.013 517 425.133C505.707 428.147 513.987 417.773 508.16 416.547C464 410.827 420.307 403.6 375.64 403.44C368.08 404.067 360.32 404.933 353.613 408.733C362.173 422.587 384.16 417.76 392.24 429.36C378.093 439.627 403.413 439.347 410.573 438.227C418.573 442.773 424.72 432.267 432.293 436.187C431.693 444.373 438.88 444.693 444.56 446.427C430.027 459.28 409.627 458.547 393.133 467.8C385.04 470.2 370.893 478.24 366.333 467.533C364.28 463.293 358.347 466.387 354.627 465.76C357.973 469.68 370.827 469.187 365.2 476.093C346.227 481.667 331.267 470.947 313.267 469.987C305.867 469.027 298.52 467.68 291.107 466.907C289.427 463.453 285.867 459.76 287.64 455.72C304.267 454.427 322.04 451.267 335.28 440.307C319.6 431.2 339.707 422.907 350 425.147C336.12 419.92 328.867 403.693 311.813 404.747C307.493 390.613 332.053 397.027 338.92 394.547C363.427 397.04 388.2 382.307 410.867 395.12C429.973 392 445.947 404.067 464.12 406.773C472.413 402.093 490.853 403.013 487.427 389.213C486.307 383.853 497.013 380.013 489.44 375.653Z" fill="#060606"/>
<path d="M630.6 376.28C651.733 381.413 673.2 382.493 694.947 379.307C705.453 382.52 664.2 384.773 685.907 388.267C696.027 398.027 717.387 378.027 722.08 387.933C711.053 388.4 700.76 395.067 689.56 391.133C681.987 386.493 664.587 397.48 663.973 384.56C652.4 383.64 640.8 386.827 629.173 385.547C640.707 385.72 644.107 377.467 630.6 376.28Z" fill="#3B3A39"/>
<path d="M910.64 377.88C916.547 376.867 922.453 377.813 928.333 378.813C929.853 379.347 931.387 379.907 932.933 380.453C926.6 384.987 916.92 381.573 910.64 377.88Z" fill="#050505"/>
<path d="M872.547 383.467C886.56 387.92 895.28 371.573 909.6 377.88C885.76 394.72 948.413 379.36 932.4 393.76C926.747 396.44 924.373 403.36 916.267 400.533C918.227 409.64 934.64 406.773 936.173 416.013C913.92 418.027 890.507 426.093 868.52 414.747C858.173 407.76 848.067 407.92 837.667 413.533C839.187 400.88 840.96 385.72 824.28 388C824.32 385.867 824.347 383.733 824.547 381.627C840.307 384.347 856.813 390.613 872.547 383.467Z" fill="#010101"/>
<path d="M164.267 380.173C168.987 378.267 176.213 377.507 178.36 383.213C180.627 395.987 180.893 407.627 179.067 420.413C187.573 415.933 195.307 422.88 204.053 419.053C197.68 430.293 216.787 428.827 211.64 436.147L210.813 437.107C206 437.347 202.147 440.307 197.947 442.267C201.653 431.92 180.547 440.907 187.88 451.307C190.613 434.04 182.173 450.773 173.587 443.093C164.333 438.267 189.84 437.707 179.467 427.987C170.307 425.533 160.413 429.32 152 421.053C156.507 419.28 161.48 418.64 165.627 416.04C164.667 404.133 163.773 392.147 164.267 380.173Z" fill="#6C6764"/>
<path d="M772.2 388.36C777.507 389.693 784.427 386.827 787.933 392.227C784.427 398.28 786.2 405.907 785.013 412.68C785.307 406.28 777.907 407.747 773.293 407.573C774.653 421.987 749.24 412.867 761 399.76C761.453 389.027 775.147 399.667 772.2 388.36Z" fill="#76362A"/>
<path d="M823.2 388.507L824.28 388C840.96 385.72 839.187 400.88 837.667 413.533C843.68 436.213 813.587 439.173 798.053 433.16C783.947 434.707 780.84 425.413 785.013 412.68C786.2 405.907 784.427 398.28 787.933 392.227C795.32 389.787 802.12 396.147 809.68 395.067C814.093 394.493 823.667 395.693 823.2 388.507Z" fill="#686764"/>
<path d="M239.72 395.827C256.48 398.373 240.2 414.947 243.64 425.333C249.973 443.96 232.547 448.373 218.773 444.68C223.373 431.907 212.44 417.947 218.64 405.627C214.6 405.893 210.56 406.107 206.507 406.08C206.173 391.627 230.173 400.733 239.72 395.827Z" fill="#786457"/>
<path d="M375.64 403.44C420.307 403.6 464 410.827 508.16 416.547C513.987 417.773 505.707 428.147 517 425.133C528.027 424.013 538.733 427.693 549.813 426C567.093 422.253 545.12 432.96 552.707 437.36C562.613 441.173 575.987 433.16 582.853 443.413C582.92 445.84 582.96 448.28 582.96 450.747C575.733 451.947 563.227 457.987 560.893 447.627C547.12 439.093 530.133 436.747 513.667 436.28C522.08 421.347 504.347 445.387 496.507 438.773C484.72 426.92 469.627 436.987 457.68 442.667C455.947 448.507 449.307 446.947 444.56 446.427C438.88 444.693 431.693 444.373 432.293 436.187C424.72 432.267 418.573 442.773 410.573 438.227C403.413 439.347 378.093 439.627 392.24 429.36C384.16 417.76 362.173 422.587 353.613 408.733C360.32 404.933 368.08 404.067 375.64 403.44Z" fill="#0C0C0D"/>
<path d="M701.92 411.8C705.56 402.387 718.72 407.267 726.147 405.587C719.813 406.64 714.053 408.907 709.48 413.493C701.213 422.307 687.587 416.533 678.347 422.96C699.307 433.827 723.28 443.467 747.147 437.453C739.453 447.773 728 444.533 716.8 444.813C715.533 451.627 729.28 445.947 727.04 453.573C718.093 452.453 709.04 451.933 700.027 452.467C704.893 466.347 721.36 459.387 731.667 459.813C743.507 447.693 760.76 466.28 775.453 461.08C779.627 473.12 790.773 473.347 801.16 476.36C785.333 479.467 772.093 488.987 755.64 489C748.853 489.387 754.907 495.573 756.853 498.347C735.147 506.733 711.853 500.64 692.507 489.547C689.507 497.32 681.613 496.227 675.107 493.413C676.627 506.467 691.88 501.507 699.267 508.28C691.093 507.307 682.48 506.893 675.96 513.093C680.973 512.213 684.32 515.88 687.333 518.96C678.733 518.093 670.653 513.507 661.68 515.067C658.667 524.413 672.64 518.24 675.16 523.053C660.16 523.52 633.32 518.133 629.453 530.627C628.893 523.64 628.36 513.987 639.227 517.333C636.2 515.52 629.6 516.373 631.053 511.28C639.96 507.827 649.08 511.013 657.947 512.507C650.347 505.293 640.067 501.373 629.907 505.747C633.307 493.307 629.413 483.733 616.227 485.627L615.987 484.56C610.427 469.347 623.76 468.2 633.013 473.96C633.413 459.067 652.2 472.44 657.547 479.493C678.613 477.507 700.227 480.893 721.253 482.667C730.68 481.213 713.333 472.747 721.547 472.467C726.707 474.32 755.707 476.493 737.533 469.907C734 458.267 720.36 467.733 712.533 468.013C705.96 467.653 698.413 466.067 693.507 461.493C692.56 456 703.76 459.48 698.56 454.04C677.107 461.053 661.907 442.227 642.613 438.2C632.88 435.013 625.107 427.333 615.013 425.347C615.213 420.787 612.787 412.147 619.76 415.533C629.093 423.32 642.36 419.547 653.147 424.88C657.16 426.947 660.813 424.067 663.64 421.427C657.773 419.88 651.467 421.56 645.507 420.187C661.147 403.027 682.453 414.667 701.92 411.8Z" fill="#070707"/>
<path d="M616.973 411.733C628.867 415.347 642.307 408.547 653.187 411.12C644.72 420.053 627.533 419.933 615.693 411.613L616.973 411.733Z" fill="#131212"/>
<path d="M152.333 448.12C152.2 439.107 149.4 429.787 152 421.053C160.413 429.32 170.307 425.533 179.467 427.987C189.84 437.707 164.333 438.267 173.587 443.093C182.173 450.773 190.613 434.04 187.88 451.307C191.973 456.88 194.213 445.107 197.4 449.747C200.333 455.52 207.36 450.773 210.973 448.2C211.027 450.8 211.027 453.4 211.027 456.027C200.827 459.013 190.267 464.987 179.56 465.16C168.52 461.067 146.907 466.4 152.333 448.12Z" fill="#4C4C49"/>
<path d="M615.013 425.347C625.107 427.333 632.88 435.013 642.613 438.2C661.907 442.227 677.107 461.053 698.56 454.04C703.76 459.48 692.56 456 693.507 461.493C698.413 466.067 705.96 467.653 712.533 468.013C720.36 467.733 734 458.267 737.533 469.907C755.707 476.493 726.707 474.32 721.547 472.467C713.333 472.747 730.68 481.213 721.253 482.667C700.227 480.893 678.613 477.507 657.547 479.493C652.2 472.44 633.413 459.067 633.013 473.96C623.76 468.2 610.427 469.347 615.987 484.56C613.333 465.027 615.84 445.027 615.013 425.347Z" fill="#0E0E0E"/>
<path d="M496.507 438.773C504.347 445.387 522.08 421.347 513.667 436.28C530.133 436.747 547.12 439.093 560.893 447.627C563.227 457.987 575.733 451.947 582.96 450.747C582.96 452.56 582.947 454.387 582.933 456.24C575.587 450.48 569.56 464.733 564.293 457.667C542.587 457.44 521.267 449.32 499.76 446.32C487.04 437.693 471.64 447.787 457.68 442.667C469.627 436.987 484.72 426.92 496.507 438.773Z" fill="#090909"/>
<path d="M187.88 451.307C180.547 440.907 201.653 431.92 197.947 442.267C202.147 440.307 206 437.347 210.813 437.107C210.853 440.787 210.907 444.48 210.973 448.2C207.36 450.773 200.333 455.52 197.4 449.747C194.213 445.107 191.973 456.88 187.88 451.307Z" fill="#9B938A"/>
<path d="M457.68 442.667C471.64 447.787 487.04 437.693 499.76 446.32C521.267 449.32 542.587 457.44 564.293 457.667C569.56 464.733 575.587 450.48 582.933 456.24C582.893 463.067 583.48 469.827 584.067 476.653C588.387 489.333 572.747 486.24 568.2 493.533C557.147 500.107 541.293 492.813 530.413 499.973C545.093 494.173 549.173 508.72 533.347 507.573C542.027 514.947 566.733 502.307 567.08 517.6C549.333 517.187 531.48 511.52 517.787 500.013C517.72 495.827 521.533 493.067 522.427 489.227C516.093 490.013 508.987 473.933 510.2 487.893C491.973 485.68 471.173 481.787 455.133 494.507C443.707 490.56 431.44 495.013 419.84 491.48C413.667 490.707 406.293 485.787 401.053 491.053C406.413 494.72 419.28 499.44 414.64 508.187C401.173 511.947 390.32 506.24 380.227 498.867C363.04 477.16 333.427 486.48 313.267 469.987C331.267 470.947 346.227 481.667 365.2 476.093C370.827 469.187 357.973 469.68 354.627 465.76C358.347 466.387 364.28 463.293 366.333 467.533C370.893 478.24 385.04 470.2 393.133 467.8C409.627 458.547 430.027 459.28 444.56 446.427C449.307 446.947 455.947 448.507 457.68 442.667Z" fill="#030303"/>
<path d="M586 445.947C608.68 440.173 595.613 468.88 599.4 480.68C596.667 495 608.24 494.413 616.227 485.627C629.413 483.733 633.307 493.307 629.907 505.747C640.067 501.373 650.347 505.293 657.947 512.507C649.08 511.013 639.96 507.827 631.053 511.28C629.6 516.373 636.2 515.52 639.227 517.333C628.36 513.987 628.893 523.64 629.453 530.627C611.347 545.507 589.067 540.653 568.56 534.733C568.267 532.6 568.267 530.453 568.28 528.347C568.44 516.72 568.373 505.133 568.2 493.533C572.747 486.24 588.387 489.333 584.067 476.653C585.307 466.947 582.16 454.12 586 445.947Z" fill="#626260"/>
<path d="M225.493 457.64C247.573 459.013 268.88 466.32 291.107 466.907C298.52 467.68 305.867 469.027 313.267 469.987C333.427 486.48 363.04 477.16 380.227 498.867C385.04 508.36 397 509.453 404.387 516.253C431.88 538.173 461.44 557.547 487.293 581.467C491.28 584.76 483.187 589.547 486.933 592.387C504.213 609.173 534.653 617.2 555 601.373C553.373 592.387 540.653 588.987 533.373 584.773C518.213 583.907 507.68 572.653 496.04 564.507C470.893 545.533 444.64 527.893 421.053 506.96C447.693 497.973 476.84 501.267 503.853 503.387C524.133 512.587 544.693 518.907 567.053 520.493C567.04 522.173 567.013 523.867 566.973 525.587C547.093 524.987 524.133 529.307 509.213 514.053C487.16 518.4 465.16 510.267 443.413 516.667C438.013 520.04 447.053 523.707 449.133 526.24C475.12 544.053 498.76 566.587 526.787 580.547C537.533 581.56 573.507 597.827 550.547 607.8C528.227 619.453 498.653 609.667 481.92 591.92C479.307 587.773 487.907 584.267 482.013 581.32C455.44 556.413 424.92 536.16 396.32 513.68C378.027 511.787 359.893 503.787 341.507 507.16C336.4 500.56 357.587 502.253 351.933 496.64C328.747 494.493 305.347 501.133 281.867 498.04C272.907 502.8 252.12 493.307 267.92 486.653C279.773 483.147 268.533 479.053 261.16 479.547C254.6 476.76 245.667 476.213 242.893 468.44C239.653 461.32 229.52 463.547 225.493 457.64Z" fill="black"/>
<path d="M510.2 487.893C508.987 473.933 516.093 490.013 522.427 489.227C521.533 493.067 517.72 495.827 517.787 500.013C531.48 511.52 549.333 517.187 567.08 517.6C567.08 518.333 567.067 519.773 567.053 520.493C544.693 518.907 524.133 512.587 503.853 503.387C476.84 501.267 447.693 497.973 421.053 506.96C444.64 527.893 470.893 545.533 496.04 564.507C507.68 572.653 518.213 583.907 533.373 584.773C540.653 588.987 553.373 592.387 555 601.373C534.653 617.2 504.213 609.173 486.933 592.387C483.187 589.547 491.28 584.76 487.293 581.467C461.44 557.547 431.88 538.173 404.387 516.253C397 509.453 385.04 508.36 380.227 498.867C390.32 506.24 401.173 511.947 414.64 508.187C419.28 499.44 406.413 494.72 401.053 491.053C406.293 485.787 413.667 490.707 419.84 491.48C431.44 495.013 443.707 490.56 455.133 494.507C471.173 481.787 491.973 485.68 510.2 487.893Z" fill="#010101"/>
<path d="M530.413 499.973C541.293 492.813 557.147 500.107 568.2 493.533C568.373 505.133 568.44 516.72 568.28 528.347C567.96 527.653 567.293 526.267 566.973 525.587C567.013 523.867 567.04 522.173 567.053 520.493C567.067 519.773 567.08 518.333 567.08 517.6C566.733 502.307 542.027 514.947 533.347 507.573C549.173 508.72 545.093 494.173 530.413 499.973Z" fill="#262626"/>
</g>
</svg>
