<svg width="13" height="17" viewBox="0 0 13 17" fill="none" xmlns="http://www.w3.org/2000/svg">
<path d="M5.04488 0.655331C5.38228 0.443167 5.68644 0.178456 6.04467 0C6.05063 0.0213156 6.06254 0.0639469 6.06849 0.0852625C6.20246 0.59535 6.3786 1.09304 6.56566 1.58529C6.69665 1.92733 6.78695 2.28325 6.91844 2.62479C7.04992 2.96138 7.1179 3.32821 7.33374 3.62564C6.88966 3.58747 6.4436 3.59788 5.99803 3.59887C4.55119 3.57458 3.10385 3.66579 1.66643 3.82739C1.1127 3.92356 0.540114 3.94686 0.0111919 4.15159C0.116877 4.0579 0.223555 3.96421 0.33966 3.88341C1.90856 2.80821 3.47648 1.73103 5.04488 0.655331Z" fill="#9A9A9A"/>
<path d="M6.63512 0.469935C6.89016 0.582957 7.10599 0.762405 7.33622 0.917067C8.53299 1.734 9.72629 2.55639 10.9216 3.37629C11.2555 3.62415 11.6311 3.81897 11.9318 4.10945C11.9129 4.10598 11.8752 4.09954 11.8569 4.09656C11.3979 3.99296 10.9345 3.91414 10.4696 3.84078C10.3177 3.64447 10.1401 3.46899 9.94361 3.3173C9.62705 3.07242 9.34175 2.78987 9.02123 2.55044C8.55879 2.2079 8.15342 1.79745 7.7019 1.44203C7.35954 1.10246 6.93134 0.855103 6.63512 0.469935Z" fill="#9A9A9A"/>
<path d="M6.06849 0.0852625C6.28085 0.173499 6.48875 0.288504 6.63512 0.469935C6.93134 0.855103 7.35954 1.10246 7.7019 1.44203C8.15342 1.79745 8.55879 2.2079 9.02123 2.55044C9.34175 2.78987 9.62705 3.07242 9.94361 3.3173C10.1401 3.46899 10.3177 3.64447 10.4696 3.84078C9.42908 3.71883 8.38166 3.64894 7.33374 3.62564C7.1179 3.32821 7.04992 2.96138 6.91844 2.62479C6.78695 2.28325 6.69665 1.92733 6.56566 1.58529C6.3786 1.09304 6.20246 0.59535 6.06849 0.0852625Z" fill="#A8A8A8"/>
<path d="M1.66643 3.82739C3.10385 3.66579 4.55119 3.57458 5.99803 3.59887C6.4436 3.59788 6.88966 3.58747 7.33374 3.62564C8.38166 3.64894 9.42908 3.71883 10.4696 3.84078C10.9345 3.91414 11.3979 3.99296 11.8569 4.09656C12.0206 4.20512 12.0017 4.40539 11.9 4.54915C11.4426 4.49214 10.998 4.36574 10.5415 4.30575C9.41618 4.15357 8.28093 4.09508 7.14668 4.06385C5.94941 4.01824 4.75016 4.046 3.55438 4.1149C2.59527 4.16894 1.63815 4.26758 0.691944 4.43464C0.531184 4.46438 0.373896 4.5085 0.21512 4.54766L0.182373 4.5318C0.112908 4.49363 0.0111927 4.46587 0.00126923 4.37267C-0.00369251 4.29881 0.00722252 4.22495 0.0111919 4.15159C0.540114 3.94686 1.1127 3.92356 1.66643 3.82739Z" fill="#7D7D7D"/>
<path d="M9.97438 5.53909C10.283 5.53661 10.5916 5.53661 10.9002 5.53958C10.9136 6.14336 10.9062 6.74714 10.9027 7.35141C10.5916 7.36231 10.2805 7.36182 9.96991 7.35141C9.96197 6.74714 9.95304 6.14286 9.97438 5.53909Z" fill="#7D7D7D"/>
<path d="M9.9709 8.84003C10.2815 8.81773 10.5931 8.81723 10.9037 8.84003C10.9131 9.43489 10.9107 10.0302 10.9047 10.6251C10.5931 10.6395 10.2815 10.639 9.96991 10.6251C9.95651 10.0302 9.95453 9.43489 9.9709 8.84003Z" fill="#7D7D7D"/>
<path d="M9.96991 11.7742C10.2815 11.7613 10.5931 11.7618 10.9047 11.7751C10.9107 12.369 10.9131 12.9629 10.9032 13.5562C10.5931 13.5815 10.281 13.5815 9.9709 13.5582C9.95652 12.9634 9.958 12.3685 9.96991 11.7742Z" fill="#7D7D7D"/>
<path d="M3.55438 4.1149C4.75016 4.046 5.94941 4.01824 7.14668 4.06385C8.28093 4.09508 9.41618 4.15357 10.5415 4.30575C10.998 4.36574 11.4426 4.49214 11.9 4.54915C11.9199 4.55163 11.9591 4.55708 11.9789 4.56006C11.9928 4.88326 11.9759 5.20696 11.9943 5.52967C12.2389 5.55098 12.485 5.5495 12.7291 5.52124C12.7391 5.10633 12.7123 4.69191 12.7396 4.2775C12.8239 4.27601 12.9088 4.27502 12.9941 4.27452C13.0045 7.18584 12.9936 10.0972 12.9991 13.0085C12.9926 13.6722 13.0095 14.336 12.9911 14.9993C12.743 15.0161 12.4944 15.0057 12.2464 15.0057C11.9903 14.9953 11.7983 15.1975 11.5567 15.2461C10.808 15.4161 10.0399 15.4692 9.27626 15.5257C8.69425 15.5549 8.11273 15.5916 7.52973 15.5981C7.41759 15.2749 7.39427 14.9328 7.33076 14.5997C7.03206 13.3817 6.70211 12.1663 6.21486 11.0083C6.00697 10.5359 5.83529 10.0476 5.60109 9.58707C5.44331 9.27775 5.22202 9.00808 5.03149 8.71908C4.85882 8.46131 4.72187 8.17925 4.52142 7.94031C4.31848 7.69791 4.10166 7.4679 3.87788 7.24483C3.56083 6.93303 3.25965 6.60189 2.90042 6.33768C2.60271 6.12105 2.32833 5.87121 2.0078 5.6873C1.69719 5.51033 1.43373 5.25653 1.10178 5.11723C0.88843 5.02206 0.657212 4.97249 0.44733 4.86938C0.314355 4.81386 0.281112 4.66068 0.21512 4.54766C0.373896 4.5085 0.531184 4.46438 0.691944 4.43464C1.63815 4.26758 2.59527 4.16894 3.55438 4.1149ZM9.97438 5.53909C9.95304 6.14286 9.96197 6.74714 9.96991 7.35141C10.2805 7.36182 10.5916 7.36231 10.9027 7.35141C10.9062 6.74714 10.9136 6.14336 10.9002 5.53958C10.5916 5.53661 10.283 5.53661 9.97438 5.53909ZM11.9953 5.72647C11.9759 6.1384 11.9754 6.55133 11.9958 6.96327C12.2399 6.98458 12.486 6.98359 12.7306 6.95682C12.7306 6.54836 12.7301 6.14038 12.7306 5.73192C12.4855 5.71407 12.2399 5.71259 11.9953 5.72647ZM11.9958 7.15511C11.9759 7.55118 11.9759 7.94825 11.9953 8.34482C12.2399 8.3587 12.4855 8.35671 12.7306 8.33788C12.7301 7.94626 12.7311 7.55465 12.7296 7.16304C12.486 7.13478 12.2399 7.1333 11.9958 7.15511ZM12.0042 8.51534C11.9705 8.91587 11.972 9.31889 12.0017 9.71942C12.2444 9.72686 12.4865 9.72587 12.7291 9.71843C12.7311 9.3174 12.7316 8.91687 12.7286 8.51584C12.487 8.51088 12.2454 8.51038 12.0042 8.51534ZM9.9709 8.84003C9.95453 9.43489 9.95651 10.0302 9.96991 10.6251C10.2815 10.639 10.5931 10.6395 10.9047 10.6251C10.9107 10.0302 10.9131 9.43489 10.9037 8.84003C10.5931 8.81723 10.2815 8.81773 9.9709 8.84003ZM11.9968 9.89689C11.9769 10.2667 11.97 10.6375 12.0042 11.0068C12.2454 11.0127 12.487 11.0127 12.7286 11.0073C12.7321 10.6395 12.7311 10.2716 12.7296 9.90383C12.4855 9.8954 12.2409 9.89292 11.9968 9.89689ZM11.9963 11.1793C11.9755 11.5377 11.975 11.8976 11.9978 12.256C12.2419 12.2664 12.486 12.2649 12.7301 12.251C12.7306 11.8951 12.7306 11.5397 12.7301 11.1843C12.486 11.1654 12.2409 11.1639 11.9963 11.1793ZM9.96991 11.7742C9.958 12.3685 9.95652 12.9634 9.9709 13.5582C10.281 13.5815 10.5931 13.5815 10.9032 13.5562C10.9131 12.9629 10.9107 12.369 10.9047 11.7751C10.5931 11.7618 10.2815 11.7613 9.96991 11.7742ZM12.0037 12.4315C11.9705 12.7819 11.97 13.1354 12.0032 13.4863C12.2449 13.4928 12.487 13.4928 12.7286 13.4858C12.7311 13.1344 12.7316 12.7829 12.7296 12.4315C12.4875 12.424 12.2454 12.424 12.0037 12.4315ZM11.9963 13.6613C11.9755 14.0524 11.9764 14.445 11.9953 14.8367C12.2404 14.851 12.486 14.85 12.7306 14.8317C12.7306 14.4431 12.7306 14.0544 12.7306 13.6658C12.486 13.6509 12.2409 13.6494 11.9963 13.6613Z" fill="#B4B4B4"/>
<path d="M0.182373 4.5318L0.21512 4.54766C0.281112 4.66068 0.314355 4.81386 0.44733 4.86938C0.657212 4.97249 0.88843 5.02206 1.10178 5.11723C1.43373 5.25653 1.69719 5.51033 2.0078 5.6873C2.32833 5.87121 2.60271 6.12105 2.90042 6.33768C3.25965 6.60189 3.56083 6.93303 3.87788 7.24483C4.10166 7.4679 4.31848 7.69791 4.52142 7.94031C4.72187 8.17925 4.85882 8.46131 5.03149 8.71908C5.22202 9.00808 5.44331 9.27775 5.60109 9.58707C5.83529 10.0476 6.00697 10.5359 6.21486 11.0083C6.70211 12.1663 7.03206 13.3817 7.33076 14.5997C7.39427 14.9328 7.41759 15.2749 7.52973 15.5981C7.11939 15.6377 6.70707 15.6115 6.29574 15.6199C5.63484 15.6144 4.97294 15.6343 4.31303 15.5916C3.20606 15.5505 2.09562 15.4984 1.00056 15.3205C0.755454 15.2714 0.495459 15.2397 0.27863 15.1063C0.199242 15.0652 0.217105 14.9665 0.207678 14.8932C0.21264 11.7201 0.207678 8.54707 0.210159 5.37451C0.210159 5.09344 0.21909 4.81138 0.182373 4.5318Z" fill="#ADADAD"/>
<path d="M4.41127 16.1917C5.1198 16.1218 5.83281 16.161 6.54383 16.15C7.45331 16.1699 8.36677 16.1099 9.27328 16.213C9.64442 16.2447 10.0185 16.2437 10.3847 16.3206C10.7206 16.391 11.1032 16.331 11.3924 16.5511C11.1483 16.7419 10.8218 16.7375 10.5336 16.8138C9.6211 16.9229 8.7007 16.9348 7.78476 16.9977C6.87478 17.0032 5.96479 16.9972 5.05481 16.9967C4.31054 16.9571 3.56678 16.9025 2.82301 16.8535C2.50497 16.8277 2.18146 16.7999 1.8783 16.6963C1.77509 16.675 1.79246 16.5486 1.77559 16.4693C2.17947 16.3424 2.60519 16.3171 3.02248 16.2636C3.48392 16.213 3.94784 16.2041 4.41127 16.1917ZM4.19097 16.5585C4.46138 16.7057 4.77447 16.7132 5.07366 16.7424C5.54602 16.7885 6.02086 16.7583 6.49421 16.7662C7.11989 16.7568 7.75052 16.7989 8.37074 16.6963C8.48536 16.6814 8.57913 16.6106 8.67242 16.5486C8.41837 16.3979 8.1167 16.4118 7.83338 16.383C7.12435 16.3121 6.41085 16.3523 5.69983 16.3454C5.19572 16.3929 4.66779 16.3647 4.19097 16.5585Z" fill="black" fill-opacity="0.19"/>
<path d="M4.19097 16.5585C4.66779 16.3647 5.19572 16.3929 5.69983 16.3454C6.41085 16.3523 7.12435 16.3121 7.83338 16.383C8.1167 16.4118 8.41837 16.3979 8.67242 16.5486C8.57913 16.6106 8.48536 16.6814 8.37074 16.6963C7.75052 16.7989 7.11989 16.7568 6.49421 16.7662C6.02086 16.7583 5.54602 16.7885 5.07366 16.7424C4.77447 16.7132 4.46138 16.7057 4.19097 16.5585ZM5.19125 16.5595C5.66957 16.7459 6.19105 16.6859 6.69268 16.6929C7.0916 16.6889 7.51087 16.733 7.88598 16.5655C7.42007 16.4093 6.92191 16.4772 6.44062 16.4257C6.02384 16.4485 5.59117 16.4217 5.19125 16.5595Z" fill="black" fill-opacity="0.28"/>
<path d="M5.19125 16.5595C5.59117 16.4217 6.02384 16.4485 6.44062 16.4257C6.92191 16.4772 7.42007 16.4093 7.88598 16.5655C7.51087 16.733 7.0916 16.6889 6.69268 16.6929C6.19105 16.6859 5.66957 16.7459 5.19125 16.5595Z" fill="black" fill-opacity="0.24"/>
</svg>
