<svg width="85" height="46" viewBox="0 0 85 46" fill="none" xmlns="http://www.w3.org/2000/svg">
<path d="M49.8029 0.476118C48.1741 0.430362 50.8995 -0.454256 50.6457 0.309432C49.7269 0.0784736 50.1478 1.26704 50.8385 0.850881C50.8749 1.51107 50.0449 1.78016 50.1338 2.4044C50.1403 2.87831 49.8126 2.9818 49.9122 2.42837C50.1477 1.38143 48.6817 2.07649 48.1013 1.8586C47.5659 1.8695 46.5839 1.43481 46.8131 2.30417C46.7906 1.85751 46.5432 1.68211 46.0742 1.77689C44.9883 1.67122 43.9785 1.11017 42.8562 1.33677C42.8541 1.85316 42.9172 2.37281 43.049 2.87286C42.6806 2.81294 41.9449 2.91099 41.9663 2.32705C42.1023 1.77471 41.6461 0.747383 42.3754 0.624278C44.7035 0.63953 47.0444 0.592688 49.381 0.777891C49.8094 1.42392 50.1146 0.463045 49.8029 0.476118Z" fill="#175C84"/>
<path d="M42.8562 1.33677C43.9785 1.11017 44.9883 1.67122 46.0742 1.77689C46.0892 2.7552 44.4829 1.9207 43.8885 2.28784C43.8093 2.29873 43.6519 2.31834 43.5737 2.32815C43.5383 2.62774 43.6326 3.04826 43.049 2.87286C42.9172 2.37281 42.8541 1.85316 42.8562 1.33677Z" fill="#010405"/>
<path d="M37.5961 2.29219C37.867 1.0655 39.0942 1.76164 39.9145 1.46532C40.1769 1.74748 40.42 2.05143 40.7262 2.28784C40.2444 2.17671 40.3022 2.78026 40.6438 2.9197C41.1085 3.19642 40.9651 3.93941 41.6183 3.99606C40.9104 3.79887 40.5292 4.62248 39.9456 4.8676C38.924 4.74994 37.6175 4.45035 37.2963 3.55702C37.8617 3.48729 37.8488 2.98725 37.6775 2.5384C37.6571 2.47631 37.6164 2.35429 37.5961 2.29219Z" fill="#165980"/>
<path d="M46.0742 1.77689C46.5432 1.68211 46.7906 1.85751 46.8131 2.30417C47.8464 2.31942 48.882 2.3325 49.9122 2.42837C49.8126 2.9818 50.1403 2.87831 50.1338 2.4044C51.2015 2.74213 49.3243 3.77709 50.2195 4.29456C50.8031 5.18572 48.8584 4.97001 49.6145 5.99189C48.6475 5.25762 47.2543 5.53542 46.1523 5.67814C46.0517 5.71409 45.9532 5.75222 45.8557 5.79144C44.9669 5.7947 44.001 5.97991 44.1391 7.12054C42.838 7.30356 41.2563 7.1249 39.8952 6.78282C41.0068 6.38736 43.5523 7.382 42.8444 5.26307C42.0006 4.65843 40.9211 5.53651 39.9456 4.8676C40.5292 4.62248 40.9104 3.79887 41.6183 3.99606C40.9651 3.93941 41.1085 3.19642 40.6438 2.9197C40.3022 2.78026 40.2444 2.17671 40.7262 2.28784C41.1428 2.24862 41.5519 2.40113 41.9663 2.32705C41.9449 2.91099 42.6806 2.81294 43.049 2.87286C43.6326 3.04826 43.5383 2.62774 43.5737 2.32815C44.1723 2.71162 46.2669 3.75421 45.9478 2.32488C45.2603 2.30527 44.575 2.30636 43.8885 2.28784C44.4829 1.9207 46.0892 2.7552 46.0742 1.77689ZM48.897 4.88068C47.4524 5.05825 45.7283 4.7554 44.4539 5.0332C45.9628 5.54632 47.9193 5.04627 49.5898 5.02121C49.7408 4.56692 48.9891 5.02775 48.897 4.88068Z" fill="#444942"/>
<path d="M46.8131 2.30417C46.5839 1.43481 47.5659 1.8695 48.1013 1.8586C48.6817 2.07649 50.1477 1.38143 49.9122 2.42837C48.882 2.3325 47.8464 2.31942 46.8131 2.30417Z" fill="#080E11"/>
<path d="M59.6496 2.39459C60.9421 2.04162 62.3343 2.31506 63.5508 2.82818C68.0452 5.28484 69.0497 10.9869 70.1741 15.5124C70.1537 18.5377 70.0285 21.6698 69.8314 24.73C69.2778 24.7769 69.7254 25.6201 69.4919 26.0221C68.8773 26.6823 70.1034 26.788 69.8303 26.1822C70.6763 26.2313 70.5253 25.4175 70.49 24.754C71.0137 24.7736 70.4568 25.777 70.6142 26.1288C70.6271 26.4579 70.1794 27.0592 70.7095 27.1431C70.0702 27.2727 70.3754 28.189 69.9556 28.3633C70.1163 27.8676 70.0681 27.5516 69.5498 27.7565C69.1246 27.8109 68.6717 27.8894 69.1428 27.4253C69.4213 26.8337 68.661 26.9437 68.3279 27.0429C69.3206 26.2825 68.8055 25.1331 69.2274 24.1483C69.5508 23.9761 69.6997 23.6014 69.6108 23.2277C69.6183 20.0586 70.1056 16.8644 69.4202 13.7421C68.9051 11.4859 68.1823 9.2667 67.1757 7.18698C66.0566 4.99288 64.1397 2.90554 61.6489 2.46976C61.1488 2.51334 60.0544 2.05251 60.1465 2.91752L60.064 2.95783C59.4579 3.36636 61.2238 3.93178 60.5609 4.50046C60.2632 3.7335 59.4226 2.41202 58.5295 3.29119C57.7595 2.8674 59.6367 3.0951 59.6496 2.39459Z" fill="#424646"/>
<path d="M34.3931 4.39261C34.951 3.15176 36.2361 2.25515 37.5961 2.29219C37.6164 2.35429 37.6571 2.47631 37.6775 2.5384C36.4085 2.48175 35.0239 3.22693 34.5923 4.48848C34.3032 5.43302 34.8739 6.30674 35.3441 7.07478C35.2937 7.08023 35.1941 7.09112 35.1438 7.09657C34.6748 6.29366 33.9937 5.37528 34.3931 4.39261Z" fill="#1A1A19"/>
<path d="M43.5737 2.32815C43.6519 2.31834 43.8093 2.29873 43.8885 2.28784C44.575 2.30636 45.2603 2.30527 45.9478 2.32488C46.2669 3.75421 44.1723 2.71162 43.5737 2.32815Z" fill="#DCDEDF"/>
<path d="M58.1247 3.02756C58.3303 2.3641 59.0745 2.32705 59.6496 2.39459C59.6367 3.0951 57.7595 2.8674 58.5295 3.29119C58.4181 4.08211 59.6956 3.31626 59.3572 4.27713C59.852 5.08985 59.8884 3.28031 60.0886 4.06034C60.2568 4.40024 60.0158 4.72162 60.0405 5.05825C60.0469 5.1051 60.0597 5.19878 60.0662 5.24563C59.6014 5.55829 60.23 5.506 60.5459 5.55394C59.1431 5.40904 57.3569 6.65971 56.2174 5.5267C56.2796 5.51799 56.4038 5.49947 56.4659 5.48967C57.0945 5.43193 56.2603 4.69329 56.5451 4.22266C56.8803 4.7652 57.5357 4.68567 57.374 3.79778C57.8494 3.75638 58.2553 3.67577 58.1247 3.02756Z" fill="#686C64"/>
<path d="M60.1465 2.91752C60.0544 2.05251 61.1488 2.51334 61.6489 2.46976C64.1397 2.90554 66.0566 4.99288 67.1757 7.18698C68.1823 9.2667 68.9051 11.4859 69.4202 13.7421C70.1056 16.8644 69.6183 20.0586 69.6108 23.2277C69.6997 23.6014 69.5508 23.9761 69.2274 24.1483C69.2713 23.2517 69.3592 22.3573 69.3388 21.4607C69.3827 20.1632 69.4684 18.8515 69.4352 17.5627L69.4148 17.4723C69.2981 16.2913 69.4148 15.0799 69.0839 13.9305C69.0004 13.4795 68.9083 13.0339 68.7895 12.5949C68.2048 10.4324 67.5258 8.23175 66.3018 6.34486C65.1506 4.0843 62.6791 2.55038 60.1465 2.91752Z" fill="#232422"/>
<path d="M54.1924 2.64081C55.0909 2.32814 55.9144 3.56792 56.5451 4.22266C56.2603 4.69329 57.0945 5.43193 56.4659 5.48967C56.2806 4.1671 55.0363 3.34131 54.1924 2.64081Z" fill="#1B6086"/>
<path d="M58.5295 3.29119C59.4226 2.41202 60.2632 3.7335 60.5609 4.50046C60.3917 4.69111 60.2075 4.86651 60.0405 5.05825C60.0158 4.72162 60.2568 4.40024 60.0886 4.06034C59.8884 3.28031 59.852 5.08985 59.3572 4.27713C59.6956 3.31626 58.4181 4.08211 58.5295 3.29119Z" fill="#070707"/>
<path d="M60.5609 4.50046C61.2238 3.93178 59.4579 3.36636 60.064 2.95783C60.6616 3.58969 61.1488 4.32833 61.5054 5.12688C61.0224 5.15739 60.547 5.21839 60.0662 5.24563C60.0597 5.19878 60.0469 5.1051 60.0405 5.05825C60.2075 4.86651 60.3917 4.69111 60.5609 4.50046Z" fill="#167EB6"/>
<path d="M48.897 4.88068C48.9891 5.02775 49.7408 4.56692 49.5898 5.02121C47.9193 5.04627 45.9628 5.54632 44.4539 5.0332C45.7283 4.7554 47.4524 5.05825 48.897 4.88068Z" fill="#898A7A"/>
<path d="M61.5054 5.12688C63.101 5.11926 65.1549 4.96782 66.3018 6.34486C67.5258 8.23175 68.2048 10.4324 68.7895 12.5949C68.2283 13.9294 68.6053 15.6115 68.843 17.0452C68.9073 17.4036 69.341 18.3776 69.4352 17.5627C69.4684 18.8515 69.3827 20.1632 69.3388 21.4607C68.979 22.5762 68.8291 23.7735 68.2069 24.7867C67.8353 23.974 68.3343 23.0262 67.7646 22.2342C67.1371 23.4423 67.3973 25.2235 66.1283 26.1125C64.7437 27.0069 63.3087 25.5493 62.5024 24.4849C60.1732 20.99 58.7608 16.6759 59.4418 12.4478C59.3701 11.5556 59.429 10.6546 59.399 9.76784C58.4459 9.51183 57.465 10.2025 56.6447 9.62295C54.8007 9.5979 52.6975 10.2505 51.0805 9.1022C49.3864 9.7624 47.4556 9.07061 45.8139 9.32662C45.2689 8.83093 46.4061 8.48559 46.7199 8.09775C47.5969 7.68377 48.1806 6.59325 49.2846 6.80024C48.2823 7.97682 50.1874 7.89947 50.8942 7.69248C51.4767 7.66416 52.1342 7.53234 52.5026 8.07596C54.8756 8.21759 57.283 8.20343 59.6614 8.07596C59.988 8.02803 60.2396 8.33852 60.2793 8.64029C60.0565 11.6918 59.0724 14.8282 60.0233 17.8361C60.7804 20.368 61.7817 23.012 63.9545 24.6244C65.2695 25.4371 66.9925 23.9696 67.1243 22.5544C67.1917 21.6415 68.0399 20.7743 67.6533 19.8505C68.9447 20.2688 69.6751 17.652 67.9231 18.2425C67.7015 13.7911 66.6948 8.91918 63.5433 5.68467C62.5645 5.39924 61.5461 5.47659 60.5459 5.55394C60.23 5.506 59.6014 5.55829 60.0662 5.24563C60.547 5.21839 61.0224 5.15739 61.5054 5.12688Z" fill="#898B7E"/>
<path d="M46.1523 5.67814C47.2543 5.53542 48.6475 5.25762 49.6145 5.99189C49.7333 6.00388 49.8543 6.0115 49.9764 6.01477C50.3202 6.50501 49.6509 6.66842 49.2846 6.80024C48.1806 6.59325 47.5969 7.68377 46.7199 8.09775C45.3321 8.67515 43.9249 9.33098 42.8209 10.3452C41.8667 10.0707 41.0764 9.25146 40.9436 8.16965C40.3439 8.26661 40.3332 7.93651 40.481 7.54759C40.6095 7.41468 40.7873 7.3101 40.829 7.11509C39.3855 7.21205 37.9805 7.67832 36.5252 7.65C36.5616 7.12925 38.2043 7.02903 36.9225 6.95168C37.9077 6.82421 38.9015 6.76975 39.8952 6.78282C41.2563 7.1249 42.838 7.30356 44.1391 7.12054C44.001 5.97991 44.9669 5.7947 45.8557 5.79144C45.4841 6.09103 45.4681 6.56602 45.6501 6.99961C46.5871 6.96584 47.568 6.71418 48.4033 6.31436C48.5029 5.1868 46.8431 5.83175 46.1523 5.67814Z" fill="#62655D"/>
<path d="M60.5459 5.55394C61.5461 5.47659 62.5645 5.39924 63.5433 5.68467C63.0892 6.54096 62.2903 7.37001 62.9896 8.40606C64.1612 9.58373 64.1408 11.3475 65.1978 12.5688C65.6411 13.2834 65.9752 14.0776 66.5396 14.7073C66.9593 16.6726 67.5023 18.955 66.1562 20.6992C65.4965 21.2515 65.5383 22.4509 64.5895 22.5958C64.1665 22.7712 63.6343 23.5709 63.1888 23.0273C62.2197 21.5979 61.4529 20.0597 60.6166 18.553C59.5082 15.5897 59.8605 12.3313 60.8243 9.37891C61.4122 8.53788 60.457 8.04872 60.3232 7.28395C59.0199 7.08676 57.7595 6.82748 56.483 6.59761C54.5469 6.83619 52.6215 6.49302 50.7014 6.42439C50.3662 6.1237 50.711 5.98208 51.0109 5.91998C52.7403 5.72715 54.4805 5.64436 56.2174 5.5267C57.3569 6.65971 59.1431 5.40904 60.5459 5.55394ZM61.7988 9.52708C60.6605 10.1666 60.4388 11.7179 60.3307 12.9152C60.2653 14.8315 60.0479 17.1291 61.5622 18.5661C61.7474 19.6631 62.5602 20.502 63.0956 21.3746C63.3248 21.0805 64.0584 20.8713 63.887 20.3593C64.5231 17.8623 63.6664 15.1453 62.9725 12.5557C62.6684 11.5567 62.5281 10.1818 61.7988 9.52708Z" fill="#ADAE9D"/>
<path d="M45.8557 5.79144C45.9532 5.75222 46.0517 5.71409 46.1523 5.67814C46.8431 5.83175 48.5029 5.1868 48.4033 6.31436C47.568 6.71418 46.5871 6.96584 45.6501 6.99961C45.4681 6.56602 45.4841 6.09103 45.8557 5.79144Z" fill="#888979"/>
<path d="M63.5433 5.68467C66.6948 8.91918 67.7015 13.7911 67.9231 18.2425C67.6233 18.6826 66.8394 19.6173 67.6533 19.8505C68.0399 20.7743 67.1917 21.6415 67.1243 22.5544C66.9925 23.9696 65.2695 25.4371 63.9545 24.6244C61.7817 23.012 60.7804 20.368 60.0233 17.8361C59.0724 14.8282 60.0565 11.6918 60.2793 8.64029C60.2396 8.33852 59.988 8.02803 59.6614 8.07596C57.283 8.20343 54.8756 8.21759 52.5026 8.07596C52.1342 7.53234 51.4767 7.66416 50.8942 7.69248C50.1874 7.89947 48.2823 7.97682 49.2846 6.80024C49.6509 6.66842 50.3202 6.50501 49.9764 6.01477C50.3191 5.95811 50.6596 5.93741 51.0109 5.91998C50.711 5.98208 50.3662 6.1237 50.7014 6.42439C52.6215 6.49302 54.5469 6.83619 56.483 6.59761C57.7595 6.82748 59.0199 7.08676 60.3232 7.28395C60.457 8.04872 61.4122 8.53788 60.8243 9.37891C59.8605 12.3313 59.5082 15.5897 60.6166 18.553C61.4529 20.0597 62.2197 21.5979 63.1888 23.0273C63.6343 23.5709 64.1665 22.7712 64.5895 22.5958C65.5383 22.4509 65.4965 21.2515 66.1562 20.6992C67.5023 18.955 66.9593 16.6726 66.5396 14.7073C65.9752 14.0776 65.6411 13.2834 65.1978 12.5688C64.1408 11.3475 64.1612 9.58373 62.9896 8.40606C62.2903 7.37001 63.0892 6.54096 63.5433 5.68467Z" fill="#9C9E8F"/>
<path d="M35.3441 7.07478C35.8666 6.99308 36.3946 6.98327 36.9225 6.95168C38.2043 7.02903 36.5616 7.12925 36.5252 7.65C37.9805 7.67832 39.3855 7.21205 40.829 7.11509C40.7873 7.3101 40.6095 7.41468 40.481 7.54759C39.8321 8.23393 39.2152 8.96275 38.4025 9.46171C36.7865 8.92462 34.8868 9.69049 33.152 9.42794C32.9089 9.28631 32.6476 9.19372 32.3703 9.29503C30.3956 9.57502 28.4477 9.15123 26.5083 9.45082C25.3014 10.7178 26.0767 8.64464 24.9406 8.44964C25.6602 8.06289 26.4023 7.67505 27.2333 7.62494C29.873 7.49094 32.503 7.20551 35.1438 7.09657C35.1941 7.09112 35.2937 7.08023 35.3441 7.07478Z" fill="#86897D"/>
<path d="M24.977 7.88095C25.6398 7.42339 26.4805 7.52689 27.2333 7.62494C26.4023 7.67505 25.6602 8.06289 24.9406 8.44964C24.1363 8.86253 23.7176 9.72753 23.1233 10.3812C22.0696 12.291 21.6241 14.4426 21.4281 16.604C21.5577 17.7261 21.3992 18.8526 21.5491 19.9671C21.0255 19.418 21.2086 18.456 20.5628 17.9516C20.4044 16.2957 20.8381 14.6866 21.0372 13.0644C21.351 12.2757 21.7644 11.5262 21.9903 10.7058C22.8309 9.60007 23.5923 8.30038 24.977 7.88095Z" fill="#1572A8"/>
<path d="M38.4025 9.46171C39.2152 8.96275 39.8321 8.23393 40.481 7.54759C40.3332 7.93651 40.3439 8.26661 40.9436 8.16965C41.0764 9.25146 41.8667 10.0707 42.8209 10.3452C43.9249 9.33098 45.3321 8.67515 46.7199 8.09775C46.4061 8.48559 45.2689 8.83093 45.8139 9.32662C47.4556 9.07061 49.3864 9.7624 51.0805 9.1022C52.6975 10.2505 54.8007 9.5979 56.6447 9.62295C57.465 10.2025 58.4459 9.51183 59.399 9.76784C59.429 10.6546 59.3701 11.5556 59.4418 12.4478C58.7608 16.6759 60.1732 20.99 62.5024 24.4849C63.3087 25.5493 64.7437 27.0069 66.1283 26.1125C67.3973 25.2235 67.1371 23.4423 67.7646 22.2342C68.3343 23.0262 67.8353 23.974 68.2069 24.7867C68.0591 25.3031 67.7079 25.716 67.377 26.1234C66.6531 25.0536 66.4335 26.9045 65.4773 26.9634C63.8099 27.5277 62.8622 25.7911 61.9241 24.7453C60.169 21.4345 58.7265 17.8187 58.8711 13.9839C58.9503 13.2148 58.0647 13.2497 57.6331 12.876C57.0185 12.3367 56.5451 13.5002 55.924 12.8901C55.2076 13.8031 54.8607 11.9118 54.005 12.4533C53.3207 13.1244 52.5808 11.9511 52.0646 12.6821C51.5527 12.9664 51.3696 11.9031 50.8353 11.8225C50.333 11.426 49.7997 12.7028 49.5331 11.9489C48.9045 11.4924 47.8754 11.792 47.4727 12.4707C47.1611 12.9185 46.5314 12.3912 46.5079 11.9641C45.5591 11.2375 44.8834 13.0732 44.1391 12.121C43.7707 13.01 43.1507 11.5676 42.5392 12.1243C42.0605 12.6603 41.2274 11.7844 41.0711 12.5775C40.9725 11.5393 39.5183 12.206 39.1007 12.7801C38.0416 13.4218 37.4537 11.8944 36.7415 11.3671C35.9951 11.6449 34.98 12.8618 34.3374 11.829C33.5418 12.1526 32.518 11.4521 31.822 12.2114C31.1313 11.6536 30.1825 12.0306 29.4361 12.2953C28.8342 12.0872 27.9829 11.488 27.4774 12.1864C26.7985 12.1352 26.1335 11.9826 25.4738 11.8225C24.8452 11.6918 24.7574 13.3847 24.1931 12.9228C24.1995 12.0807 24.0967 10.659 23.1233 10.3812C23.7176 9.72753 24.1363 8.86253 24.9406 8.44964C26.0767 8.64464 25.3014 10.7178 26.5083 9.45082C28.4477 9.15123 30.3956 9.57502 32.3703 9.29503C32.6476 9.19372 32.9089 9.28631 33.152 9.42794C34.8868 9.69049 36.7865 8.92462 38.4025 9.46171Z" fill="#74776E"/>
<path d="M12.7487 8.70565C16.8266 8.45944 20.8948 8.02584 24.977 7.88095C23.5923 8.30038 22.8309 9.60007 21.9903 10.7058C21.3232 11.9336 21.0169 10.1143 20.0552 10.5076C17.5098 10.903 14.974 10.5577 12.5088 11.1776C12.0451 10.9335 12.8033 9.98028 12.073 10.1001C11.2249 9.96285 10.2932 10.1666 9.49219 9.82667C10.4645 9.2057 11.5793 8.7111 12.7487 8.70565Z" fill="#7B7E73"/>
<path d="M61.7988 9.52708C62.5281 10.1818 62.6684 11.5567 62.9725 12.5557C63.6664 15.1453 64.5231 17.8623 63.887 20.3593C64.0584 20.8713 63.3248 21.0805 63.0956 21.3746C62.5602 20.502 61.7474 19.6631 61.5622 18.5661C60.0479 17.1291 60.2653 14.8315 60.3307 12.9152C60.4388 11.7179 60.6605 10.1666 61.7988 9.52708Z" fill="#BFC1AD"/>
<path d="M7.70919 11.5491C8.27247 10.9444 8.83253 10.3235 9.49219 9.82667C10.2932 10.1666 11.2249 9.96285 12.073 10.1001C12.8033 9.98028 12.0451 10.9335 12.5088 11.1776C14.974 10.5577 17.5098 10.903 20.0552 10.5076C21.0169 10.1143 21.3232 11.9336 21.9903 10.7058C21.7644 11.5262 21.351 12.2757 21.0372 13.0644C20.5082 14.0743 20.6496 15.3817 20.1152 16.3491C19.4138 15.9536 19.8893 14.0635 18.9822 13.6462C18.4382 14.2639 17.6715 14.6278 17.0429 15.1605C16.6831 14.9818 16.4132 14.6735 16.1016 14.4273C15.9335 14.8478 15.6272 14.7422 15.2813 14.6528C15.1089 15.3381 14.3325 14.423 14.0295 14.9383C13.5829 15.5527 13.1321 14.728 12.5281 14.9982C11.8063 14.8043 11.7239 15.8316 11.1735 15.922C10.7205 15.2455 10.6948 14.3173 10.0737 13.7475C9.79632 13.8532 9.50718 14.0841 9.2234 13.8586C8.66334 13.4741 7.91587 13.9251 7.40828 13.3956C7.48217 12.7736 7.77987 12.1853 7.70919 11.5491Z" fill="#6A6D65"/>
<path d="M21.4281 16.604C21.6241 14.4426 22.0696 12.291 23.1233 10.3812C24.0967 10.659 24.1995 12.0807 24.1931 12.9228C24.7574 13.3847 24.8452 11.6918 25.4738 11.8225C26.1335 11.9826 26.7985 12.1352 27.4774 12.1864C27.9829 11.488 28.8342 12.0872 29.4361 12.2953C30.1825 12.0306 31.1313 11.6536 31.822 12.2114C32.518 11.4521 33.5418 12.1526 34.3374 11.829C34.98 12.8618 35.9951 11.6449 36.7415 11.3671C37.4537 11.8944 38.0416 13.4218 39.1007 12.7801C39.5183 12.206 40.9725 11.5393 41.0711 12.5775C41.2274 11.7844 42.0605 12.6603 42.5392 12.1243C43.1507 11.5676 43.7707 13.01 44.1391 12.121C44.8834 13.0732 45.5591 11.2375 46.5079 11.9641C46.5314 12.3912 47.1611 12.9185 47.4727 12.4707C47.8754 11.792 48.9045 11.4924 49.5331 11.9489C49.7997 12.7028 50.333 11.426 50.8353 11.8225C51.3696 11.9031 51.5527 12.9664 52.0646 12.6821C52.5808 11.9511 53.3207 13.1244 54.005 12.4533C54.8607 11.9118 55.2076 13.8031 55.924 12.8901C56.5451 13.5002 57.0185 12.3367 57.6331 12.876C58.0647 13.2497 58.9503 13.2148 58.8711 13.9839C58.7265 17.8187 60.169 21.4345 61.9241 24.7453C62.8622 25.7911 63.8099 27.5277 65.4773 26.9634C65.4419 26.9819 65.3723 27.0178 65.337 27.0353C64.0841 27.9003 62.9414 26.886 62.3225 25.7432C60.5127 23.2582 59.5104 20.2852 58.6494 17.3546C58.2671 17.25 58.2714 17.6466 58.341 17.9091C57.888 17.8971 57.8377 16.6171 57.4479 17.4189C56.5248 17.0136 55.2922 17.0964 54.3723 17.274C53.8915 16.0026 52.8506 17.7947 52.1824 17.0005C51.8065 16.5659 51.7915 17.2468 52.1738 17.3775C51.5891 18.4462 51.1533 16.9482 50.6275 16.5277C50.4155 15.9917 49.7012 15.7673 50.2067 15.2008C49.5009 15.5265 49.1176 16.5016 48.2491 16.5343C48.0146 16.2979 47.8036 16.1824 47.6698 16.5691C47.3935 16.3338 46.9705 16.2979 47.0722 16.7772C46.7702 16.9875 46.2873 16.5365 45.8878 16.6356C45.4316 16.7957 45.2603 15.6246 44.8512 16.2358C45.9253 16.7652 43.9731 17.1019 43.9196 16.4733C43.7932 15.7161 43.292 16.9276 43.0254 16.7532C42.8733 16.1399 42.1612 16.1181 41.9599 16.6966C41.5679 16.5582 41.0518 16.1464 40.7605 16.7424C40.3439 17.6793 40.5131 15.6137 39.9327 16.007C39.9381 16.9886 39.0343 17.1051 38.4453 16.5985C37.3616 16.482 38.4763 17.5583 37.6111 17.6934C37.2309 17.3383 37.096 16.7369 36.5831 16.5375C35.767 16.1965 36.1558 14.8936 35.7949 14.4219C35.3976 15.118 35.736 16.1541 34.9071 16.6715C34.3214 16.3022 33.4893 16.9635 33.1081 16.2488C32.9999 15.9645 32.7954 16.1552 32.6251 16.2663C31.974 15.8359 31.4407 15.2248 30.7532 14.8587C29.2487 15.568 27.6488 16.1138 26.231 16.9929L26.2181 17.0964C26.1421 17.7316 26.1249 18.3732 26.1067 19.0149C25.3218 18.2251 24.3666 18.8471 23.6769 19.4289C23.1501 18.8831 23.0494 17.9516 22.3962 17.4505C22.2923 16.6988 22.0995 15.6486 21.4281 16.604Z" fill="#666A61"/>
<path d="M6.41772 14.0569C6.84821 13.2246 7.08809 12.2648 7.70919 11.5491C7.77987 12.1853 7.48217 12.7736 7.40828 13.3956C7.91587 13.9251 8.66334 13.4741 9.2234 13.8586C9.50718 14.0841 9.79632 13.8532 10.0737 13.7475C10.6948 14.3173 10.7205 15.2455 11.1735 15.922C11.7239 15.8316 11.8063 14.8043 12.5281 14.9982C13.1321 14.728 13.5829 15.5527 14.0295 14.9383C14.3325 14.423 15.1089 15.3381 15.2813 14.6528C15.6272 14.7422 15.9335 14.8478 16.1016 14.4273C16.4132 14.6735 16.6831 14.9818 17.0429 15.1605C17.6715 14.6278 18.4382 14.2639 18.9822 13.6462C19.8893 14.0635 19.4138 15.9536 20.1152 16.3491C20.6496 15.3817 20.5082 14.0743 21.0372 13.0644C20.8381 14.6866 20.4044 16.2957 20.5628 17.9516C20.4932 18.6608 20.5404 19.4518 20.1163 20.0662C19.6355 20.113 19.2542 19.7317 18.8184 19.5901C16.3318 20.2296 13.3966 19.503 11.0803 20.4791C10.5363 19.6969 9.90233 19.1522 8.90214 19.5139C8.14718 19.0225 7.42862 19.3581 6.74113 18.7698C5.89835 17.335 6.5398 15.6246 6.41772 14.0569Z" fill="#5F6258"/>
<path d="M68.843 17.0452C68.6053 15.6115 68.2283 13.9294 68.7895 12.5949C68.9083 13.0339 69.0004 13.4795 69.0839 13.9305C68.9544 15.1115 69.0764 16.3349 69.4148 17.4723L69.4352 17.5627C69.341 18.3776 68.9073 17.4036 68.843 17.0452Z" fill="#F4F5F3"/>
<path d="M69.0839 13.9305C68.9544 15.1115 69.0764 16.3349 69.4148 17.4723C69.2981 16.2913 69.4148 15.0799 69.0839 13.9305Z" fill="#8A8B83"/>
<path d="M6.87284 23.3377C5.57602 20.4355 5.52997 17.0823 6.41772 14.0569C6.5398 15.6246 5.89835 17.335 6.74113 18.7698C7.42862 19.3581 8.14718 19.0225 8.90214 19.5139C9.90233 19.1522 10.5363 19.6969 11.0803 20.4791C13.3966 19.503 16.3318 20.2296 18.8184 19.5901C19.2542 19.7317 19.6355 20.113 20.1163 20.0662C20.5404 19.4518 20.4932 18.6608 20.5628 17.9516C20.4236 19.2252 20.8209 20.442 21.0479 21.6731C20.9355 22.086 21.1647 22.878 20.6453 23.0981C18.0613 22.7702 15.3488 22.5675 12.678 22.1797C12.3064 23.0556 10.9753 22.0784 10.9175 23.3421C10.1786 23.5382 10.4924 22.9063 10.608 22.4597C9.86271 22.5512 9.1388 22.7723 8.41811 22.9761C8.26604 23.804 8.5434 24.6952 8.88286 25.4305L8.9075 25.4872C8.61729 25.5645 8.45987 25.8162 8.39027 26.0984C8.14611 25.0688 7.2091 24.3553 6.87284 23.3377Z" fill="#525447"/>
<path d="M35.7949 14.4219C36.1558 14.8936 35.767 16.1965 36.5831 16.5375C37.096 16.7369 37.2309 17.3383 37.6111 17.6934C38.4763 17.5583 37.3616 16.482 38.4453 16.5985C39.0343 17.1051 39.9381 16.9886 39.9327 16.007C40.5131 15.6137 40.3439 17.6793 40.7605 16.7424C41.0518 16.1464 41.5679 16.5582 41.9599 16.6966C42.1612 16.1181 42.8733 16.1399 43.0254 16.7532C43.292 16.9276 43.7932 15.7161 43.9196 16.4733C43.9731 17.1019 45.9253 16.7652 44.8512 16.2358C45.2603 15.6246 45.4316 16.7957 45.8878 16.6356C46.2873 16.5365 46.7702 16.9875 47.0722 16.7772C46.9705 16.2979 47.3935 16.3338 47.6698 16.5691C47.8036 16.1824 48.0146 16.2979 48.2491 16.5343C49.1176 16.5016 49.5009 15.5265 50.2067 15.2008C49.7012 15.7673 50.4155 15.9917 50.6275 16.5277C51.1533 16.9482 51.5891 18.4462 52.1738 17.3775C51.7915 17.2468 51.8065 16.5659 52.1824 17.0005C52.8506 17.7947 53.8915 16.0026 54.3723 17.274C55.2922 17.0964 56.5248 17.0136 57.4479 17.4189C57.8377 16.6171 57.888 17.8971 58.341 17.9091C58.2714 17.6466 58.2671 17.25 58.6494 17.3546C59.5104 20.2852 60.5127 23.2582 62.3225 25.7432C62.9414 26.886 64.0841 27.9003 65.337 27.0353C64.6366 27.824 63.4994 27.8425 62.8997 26.9121C61.3051 24.9588 59.9484 22.7549 59.203 20.3222C58.1289 19.0182 56.3352 20.1882 55.1669 19.2905C54.5233 19.0715 53.9215 19.8189 53.2672 19.4942C51.1769 19.5607 49.3607 18.8101 47.2682 19.2262C45.9285 19.6446 44.7666 19.187 43.4259 19.2513C42.7845 19.8668 41.7875 18.7698 41.2413 19.4191C40.8376 20.0259 40.2733 18.8972 39.7914 19.3515C39.2281 19.4735 38.0073 18.7415 37.9816 19.7328C36.839 19.504 35.6257 18.6401 34.5752 19.4855L34.5141 19.5585L34.5034 19.4419C34.4981 19.3592 34.4895 19.1936 34.4841 19.1108C34.5259 18.7044 34.6094 18.3089 34.6062 17.9015C34.0869 17.1999 33.2655 16.8317 32.6251 16.2663C32.7954 16.1552 32.9999 15.9645 33.1081 16.2488C33.4893 16.9635 34.3214 16.3022 34.9071 16.6715C35.736 16.1541 35.3976 15.118 35.7949 14.4219Z" fill="#5F6256"/>
<path d="M26.231 16.9929C27.6488 16.1138 29.2487 15.568 30.7532 14.8587C31.4407 15.2248 31.974 15.8359 32.6251 16.2663C33.2655 16.8317 34.0869 17.1999 34.6062 17.9015C33.3276 17.6695 31.0295 18.1118 31.6849 16.1802C30.8186 16.3556 28.9413 15.2553 29.0613 16.6683C29.1908 16.9853 29.3515 16.5419 29.4329 16.4046C30.2531 15.9917 29.9801 16.8949 29.9844 17.3448C29.0281 17.4243 28.0932 17.0975 27.1423 17.1454C26.7032 18.7229 27.1797 16.2772 26.231 16.9929Z" fill="#326BC5"/>
<path d="M29.0613 16.6683C28.9413 15.2553 30.8186 16.3556 31.6849 16.1802C31.0295 18.1118 33.3276 17.6695 34.6062 17.9015C34.6094 18.3089 34.5259 18.7044 34.4841 19.1108C33.7688 19.26 34.7818 18.0268 33.7399 18.5345C33.2441 18.3939 33.3812 19.309 32.775 18.9888C33.1691 18.4593 32.7343 18.2076 32.4945 18.821C31.8209 19.3472 32.4902 17.4483 32.0254 18.2087C32.0169 18.846 31.2298 19.0792 31.4365 18.2817C31.2694 18.5061 30.6718 19.1064 30.7854 18.4767C30.9492 17.6564 29.9169 19.6631 30.039 18.1205C29.4104 17.7218 29.3354 18.5562 28.8599 18.5508C28.9253 16.9036 28.2581 19.503 28.2024 17.9364C28.1928 17.7838 27.7045 18.919 27.6745 18.2447C27.97 17.2598 26.8542 18.9975 26.9495 18.066C26.9913 17.3023 26.6721 18.4789 26.2706 18.2174C26.247 17.8394 26.2267 17.4734 26.2181 17.0964L26.231 16.9929C27.1797 16.2772 26.7032 18.7229 27.1423 17.1454C28.0932 17.0975 29.0281 17.4243 29.9844 17.3448C29.9801 16.8949 30.2531 15.9917 29.4329 16.4046C29.3515 16.5419 29.1908 16.9853 29.0613 16.6683Z" fill="#B8BFC4"/>
<path d="M21.4281 16.604C22.0995 15.6486 22.2923 16.6988 22.3962 17.4505C23.0494 17.9516 23.1501 18.8831 23.6769 19.4289C24.3666 18.8471 25.3218 18.2251 26.1067 19.0149C27.4796 20.0869 29.0259 20.9323 30.5294 21.794C31.8241 21.2253 33.1199 20.6545 34.4252 20.1109C34.708 20.0477 34.5441 19.6903 34.5752 19.4855C35.6257 18.6401 36.839 19.504 37.9816 19.7328C38.0073 18.7415 39.2281 19.4735 39.7914 19.3515C40.2733 18.8972 40.8376 20.0259 41.2413 19.4191C41.7875 18.7698 42.7845 19.8668 43.4259 19.2513C44.7666 19.187 45.9285 19.6446 47.2682 19.2262C49.3607 18.8101 51.1769 19.5607 53.2672 19.4942C53.9215 19.8189 54.5233 19.0715 55.1669 19.2905C56.3352 20.1882 58.1289 19.0182 59.203 20.3222C59.9484 22.7549 61.3051 24.9588 62.8997 26.9121C63.4994 27.8425 64.6366 27.824 65.337 27.0353C65.3723 27.0178 65.4419 26.9819 65.4773 26.9634C66.4335 26.9045 66.6531 25.0536 67.377 26.1234C66.7323 26.8206 66.168 27.8229 65.1506 27.9449C63.2209 28.2315 61.8599 26.4764 60.8822 25.0383C60.1732 24.1309 59.9355 22.4096 58.4888 22.4804C57.8066 23.0425 57.2144 21.8311 56.4541 22.366C55.7484 22.5697 57.2894 22.8388 56.5708 22.8911C55.6906 22.2538 54.6711 22.8791 53.8155 22.3485C53.9236 23.3443 52.9481 22.1339 52.4962 22.4706C51.8462 23.0305 51.4639 22.2222 50.8063 22.318C46.7103 22.5196 42.4846 22.4836 38.4763 22.7669C37.1463 22.0577 35.7917 22.8824 34.4713 22.512C33.0106 22.8889 31.4268 22.6024 29.8901 22.6285C28.2688 22.5163 26.6347 22.8333 25.0294 22.5218C23.9446 23.3465 23.0987 21.3757 21.9507 21.5097C21.8265 20.9922 21.7494 20.4617 21.5491 19.9671C21.3992 18.8526 21.5577 17.7261 21.4281 16.604Z" fill="#565749"/>
<path d="M26.1067 19.0149C26.1249 18.3732 26.1421 17.7316 26.2181 17.0964C26.2267 17.4734 26.247 17.8394 26.2706 18.2174C26.6721 18.4789 26.9913 17.3023 26.9495 18.066C26.8542 18.9975 27.97 17.2598 27.6745 18.2447C27.7045 18.919 28.1928 17.7838 28.2024 17.9364C28.2581 19.503 28.9253 16.9036 28.8599 18.5508C29.3354 18.5562 29.4104 17.7218 30.039 18.1205C29.9169 19.6631 30.9492 17.6564 30.7854 18.4767C30.6718 19.1064 31.2694 18.5061 31.4365 18.2817C31.2298 19.0792 32.0169 18.846 32.0254 18.2087C32.4902 17.4483 31.8209 19.3472 32.4945 18.821C32.7343 18.2076 33.1691 18.4593 32.775 18.9888C33.3812 19.309 33.2441 18.3939 33.7399 18.5345C34.7818 18.0268 33.7688 19.26 34.4841 19.1108C34.4895 19.1936 34.4981 19.3592 34.5034 19.4419C33.0246 19.2197 31.5339 19.1108 30.0518 18.9158C29.5549 18.3983 29.0795 19.6827 29.0912 18.7959C28.2324 18.7229 27.3757 18.614 26.5222 18.5105C26.2235 18.4615 26.2117 18.7251 26.2577 18.955C27.44 19.1794 28.6522 19.1816 29.8419 19.3657C30.2692 20.588 29.3997 20.2416 28.9178 19.845C29.0591 21.0009 30.5648 20.5139 31.3037 20.7928C32.0394 20.6904 30.9085 19.2066 32.0329 19.6348C32.7911 19.4343 34.1843 20.2982 34.5141 19.5585L34.5752 19.4855C34.5441 19.6903 34.708 20.0477 34.4252 20.1109C33.1199 20.6545 31.8241 21.2253 30.5294 21.794C29.0259 20.9323 27.4796 20.0869 26.1067 19.0149Z" fill="#3165AE"/>
<path d="M20.5628 17.9516C21.2086 18.456 21.0255 19.418 21.5491 19.9671C21.7494 20.4617 21.8265 20.9922 21.9507 21.5097C22.0792 22.0816 22.1402 22.6884 22.4101 23.219C22.5514 23.4445 22.3544 23.6352 22.1274 23.5164C21.124 23.5382 21.2953 22.3442 21.0479 21.6731C20.8209 20.442 20.4236 19.2252 20.5628 17.9516Z" fill="#11577D"/>
<path d="M67.6533 19.8505C68.9447 20.2688 69.6751 17.652 67.9231 18.2425C67.6233 18.6826 66.8394 19.6173 67.6533 19.8505Z" fill="#5E6061"/>
<path d="M26.5222 18.5105C27.3757 18.614 28.2324 18.7229 29.0912 18.7959C29.0795 19.6827 29.5549 18.3983 30.0518 18.9158C31.5339 19.1108 33.0246 19.2197 34.5034 19.4419L34.5141 19.5585C34.1843 20.2982 32.7911 19.4343 32.0329 19.6348C30.9085 19.2066 32.0394 20.6904 31.3037 20.7928C30.5648 20.5139 29.0591 21.0009 28.9178 19.845C29.3997 20.2416 30.2692 20.588 29.8419 19.3657C28.6522 19.1816 27.44 19.1794 26.2577 18.955C26.2117 18.7251 26.2235 18.4615 26.5222 18.5105Z" fill="#AAB1B4"/>
<path d="M21.9507 21.5097C23.0987 21.3757 23.9446 23.3465 25.0294 22.5218C26.6347 22.8333 28.2688 22.5163 29.8901 22.6285C31.4268 22.6024 33.0106 22.8889 34.4713 22.512C35.7917 22.8824 37.1463 22.0577 38.4763 22.7669C42.4846 22.4836 46.7103 22.5196 50.8063 22.318C51.4639 22.2222 51.8462 23.0305 52.4962 22.4706C52.9481 22.1339 53.9236 23.3443 53.8155 22.3485C54.6711 22.8791 55.6906 22.2538 56.5708 22.8911C57.2894 22.8388 55.7484 22.5697 56.4541 22.366C57.2144 21.8311 57.8066 23.0425 58.4888 22.4804C59.9355 22.4096 60.1732 24.1309 60.8822 25.0383C61.8599 26.4764 63.2209 28.2315 65.1506 27.9449C64.4535 28.1476 63.7264 28.2598 63.0014 28.2347C61.6832 27.7434 61.4893 26.0384 60.2568 25.4403C58.5038 25.4414 56.7443 25.3957 54.9924 25.4512C54.5041 25.5275 53.9697 24.9664 53.5349 25.3565C53.4032 25.3804 53.2726 25.3989 53.1408 25.4131C53.0819 24.7453 51.6984 24.9054 51.0612 24.8281C48.7942 25.8685 46.2926 25.0634 43.9196 25.5275C41.8292 25.266 39.6372 25.8554 37.6357 25.0438C33.3415 25.0961 29.0548 24.2169 24.7778 23.7572C23.9511 23.7387 23.2454 23.0687 22.4101 23.219C22.1402 22.6884 22.0792 22.0816 21.9507 21.5097Z" fill="#4B4A39"/>
<path d="M21.0479 21.6731C21.2953 22.3442 21.124 23.5382 22.1274 23.5164C22.3544 23.6352 22.5514 23.4445 22.4101 23.219C23.2454 23.0687 23.9511 23.7387 24.7778 23.7572C29.0548 24.2169 33.3415 25.0961 37.6357 25.0438C39.6372 25.8554 41.8292 25.266 43.9196 25.5275C46.2926 25.0634 48.7942 25.8685 51.0612 24.8281C51.6984 24.9054 53.0819 24.7453 53.1408 25.4131C52.6086 25.4349 52.0764 25.3673 51.5485 25.4305C51.2872 26.1158 51.3718 26.8424 51.4082 27.5538C50.8074 27.2259 50.7624 27.8763 50.3437 28.0299C49.8062 27.7619 49.8597 27.897 49.2718 27.9329C49.3489 27.6922 49.4249 27.4503 49.5085 27.2128C49.5909 27.1801 49.6744 27.1475 49.758 27.1137C50.1092 27.4667 50.438 27.532 50.5183 26.9557C50.3416 26.3424 51.3696 26.1768 50.7217 25.8816C49.5331 25.8118 48.3466 26.5265 48.0874 27.8469C35.7071 26.2727 23.2925 24.961 10.9175 23.3421C10.9753 22.0784 12.3064 23.0556 12.678 22.1797C15.3488 22.5675 18.0613 22.7702 20.6453 23.0981C21.1647 22.878 20.9355 22.086 21.0479 21.6731Z" fill="#373835"/>
<path d="M8.41811 22.9761C9.1388 22.7723 9.86271 22.5512 10.608 22.4597C10.4924 22.9063 10.1786 23.5382 10.9175 23.3421C23.2925 24.961 35.7071 26.2727 48.0874 27.8469C48.4162 27.8894 48.7567 27.909 49.0908 27.8981C49.1358 27.9068 49.2268 27.9242 49.2718 27.9329C49.8597 27.897 49.8062 27.7619 50.3437 28.0299C50.5857 28.5724 50.0407 29.9647 51.0087 29.5616C50.3309 29.8558 49.9207 30.005 50.212 30.9899C50.4497 30.1401 49.6776 30.5269 49.4506 30.102C46.9052 29.7501 44.3479 29.4636 41.8003 29.1357C39.1606 28.9897 36.582 28.2009 33.9327 28.3448C34.1693 28.177 35.0303 28.0877 33.8673 28.1138C31.2812 27.8229 28.7047 27.4351 26.1174 27.1573C26.2727 27.4264 26.5833 27.4896 26.8424 27.6094C26.2759 28.3458 28.211 29.152 26.6818 29.1651C25.9654 28.591 25.6698 27.6083 24.9962 27.0113C22.2752 26.6583 19.5584 26.252 16.8309 25.9404C16.9476 26.1419 17.1853 26.3337 17.0772 26.594C16.0855 25.6593 14.6238 25.6887 13.3098 25.4817C11.8128 25.2682 10.3018 25.1527 8.81647 24.8695C8.91713 25.0471 9.02315 25.2377 8.88286 25.4305C8.5434 24.6952 8.26604 23.804 8.41811 22.9761ZM21.2204 24.9741C21.2 25.3292 21.0811 26.6572 21.5106 26.1888C21.3617 25.0841 22.3062 27.1148 22.6596 26.2389C22.908 25.3456 22.9744 27.0734 23.1436 26.2792C23.0847 25.6615 23.5024 26.9514 23.632 26.5472C23.2165 26.2095 23.7219 25.1299 23.8461 25.9927C23.7787 27.7118 24.8731 24.9937 23.7862 25.3031C23.496 25.7563 22.7121 24.6396 22.8074 25.6343C22.5354 24.6832 21.6176 25.8369 21.441 25.3336C22.0364 25.3009 21.5555 24.9468 21.2204 24.9741ZM24.569 25.4338C23.859 25.7312 25.2136 26.4895 24.4265 26.4165C24.7724 27.2455 25.2479 26.0929 24.6107 25.7824C25.1205 25.9752 24.8827 25.3107 24.569 25.4338ZM25.3164 25.5373C24.7789 25.8565 25.0626 26.9045 25.703 26.8294C26.4869 26.4557 24.6707 26.5276 25.416 25.8554C26.1207 26.1212 25.8561 25.4044 25.3164 25.5373ZM26.0382 25.6288C26.1517 26.0025 25.6827 27.0788 26.3316 26.9285C26.1678 26.4154 26.9956 26.2269 26.6957 27.0396C27.3029 27.0745 26.746 24.9207 26.5576 26.0689C26.2492 26.496 26.3498 25.5035 26.0382 25.6288ZM27.0041 25.7367C26.9452 26.0286 26.9538 27.5963 27.2151 26.8206C27.2365 26.143 27.5728 27.5745 27.742 27.0505C27.4625 26.569 27.8555 25.5634 27.0041 25.7367ZM28.1521 25.96C28.4594 26.3195 28.4316 26.8054 28.5194 27.251C29.102 27.3011 28.1639 25.7323 29.2337 26.2825C29.0784 26.7651 29.4264 27.958 29.4735 26.9394C30.1246 25.8576 28.9135 25.9273 28.1521 25.96ZM30.7511 26.1659C30.5348 26.6322 30.9588 28.4853 31.0884 27.0353C31.5253 26.947 31.2212 27.6704 31.5917 27.5876C31.4921 27.0396 31.8776 25.8957 31.9237 27.154C31.8948 28.506 32.3553 27.0527 32.1529 26.6932C32.5427 26.9982 33.0481 27.4329 32.4377 27.5865C33.0063 28.3001 33.1327 27.0679 32.639 26.7498C33.7645 26.8501 31.0659 25.7672 31.3626 26.7128C30.8828 26.8969 31.2255 26.07 30.7511 26.1659ZM33.56 26.6344C33.1209 26.8479 33.5311 27.0527 33.5311 27.3675C33.5557 29.0289 34.1436 26.4568 33.56 26.6344ZM34.0976 26.6267C33.5246 26.9132 33.9016 28.3197 34.4606 27.8883C34.7337 27.1191 35.0185 28.6367 35.4254 27.9907C35.9084 27.6061 35.283 26.2345 34.8129 26.9372C34.5227 27.5135 34.5516 26.3369 34.0976 26.6267ZM35.9973 26.935C35.9105 27.2357 36.0562 27.2826 36.3068 27.1954C36.6966 27.4438 35.751 28.1018 36.0926 28.2413C37.3948 28.5441 36.129 28.019 36.5456 27.714C36.8904 27.2771 36.4214 26.8043 35.9973 26.935ZM36.8443 27.0418C37.3295 27.3 36.9825 27.8109 36.8454 28.3578C37.3059 28.2728 38.0009 26.521 36.8443 27.0418ZM48.2641 28.2968C48.0242 28.482 47.7362 28.5768 47.4706 28.7119C47.3003 29.7643 49.2418 29.9702 49.3735 29.0278C48.9377 28.9548 48.6539 28.2325 48.2641 28.2968Z" fill="#165F88"/>
<path d="M69.4919 26.0221C69.7254 25.6201 69.2778 24.7769 69.8314 24.73C70.0113 25.2105 69.7532 25.6931 69.8303 26.1822C70.1034 26.788 68.8773 26.6823 69.4919 26.0221Z" fill="#B3B5B3"/>
<path d="M8.81647 24.8695C10.3018 25.1527 11.8128 25.2682 13.3098 25.4817C12.3321 25.6125 14.0113 26.301 13.6279 26.8315C13.4587 27.3305 12.8911 27.4863 12.4253 27.4819C12.4467 26.9895 13.328 26.0744 12.3482 26.0733C12.1651 27.5713 10.9828 28.3785 9.99764 29.3361C9.69351 28.0397 9.4108 26.7215 8.9075 25.4872L8.88286 25.4305C9.02315 25.2377 8.91713 25.0471 8.81647 24.8695Z" fill="#14374A"/>
<path d="M21.2204 24.9741C21.5555 24.9468 22.0364 25.3009 21.441 25.3336C21.6176 25.8369 22.5354 24.6832 22.8074 25.6343C22.7121 24.6396 23.496 25.7563 23.7862 25.3031C24.8731 24.9937 23.7787 27.7118 23.8461 25.9927C23.7219 25.1299 23.2165 26.2095 23.632 26.5472C23.5024 26.9514 23.0847 25.6615 23.1436 26.2792C22.9744 27.0734 22.908 25.3456 22.6596 26.2389C22.3062 27.1148 21.3617 25.0841 21.5106 26.1888C21.0811 26.6572 21.2 25.3292 21.2204 24.9741Z" fill="#8697A1"/>
<path d="M53.5349 25.3565C53.9697 24.9664 54.5041 25.5275 54.9924 25.4512C56.7443 25.3957 58.5038 25.4414 60.2568 25.4403C61.4893 26.0384 61.6832 27.7434 63.0014 28.2347C62.1062 28.2402 61.2023 28.1846 60.3178 28.3502C58.7179 27.9929 56.846 28.8699 55.5021 27.6856C54.5469 27.2117 54.3466 25.9763 53.5349 25.3565Z" fill="#3D3B29"/>
<path d="M24.569 25.4338C24.8827 25.3107 25.1205 25.9752 24.6107 25.7824C25.2479 26.0929 24.7724 27.2455 24.4265 26.4165C25.2136 26.4895 23.859 25.7312 24.569 25.4338Z" fill="#97A0A6"/>
<path d="M51.5485 25.4305C52.0764 25.3673 52.6086 25.4349 53.1408 25.4131C53.2726 25.3989 53.4032 25.3804 53.5349 25.3565C54.3466 25.9763 54.5469 27.2117 55.5021 27.6856C55.8148 28.6563 55.954 30.1053 57.2337 30.1924C56.195 29.7719 54.4826 30.8297 53.7373 29.9473C53.0723 30.5846 51.662 30.9147 50.7742 31.5183C50.454 31.7982 50.2591 31.2503 50.212 30.9899C49.9207 30.005 50.3309 29.8558 51.0087 29.5616C50.0407 29.9647 50.5857 28.5724 50.3437 28.0299C50.7624 27.8763 50.8074 27.2259 51.4082 27.5538C51.3718 26.8424 51.2872 26.1158 51.5485 25.4305ZM51.6052 25.5297C51.8247 26.0766 52.3859 26.4829 52.2809 27.142C52.6632 27.02 53.5071 26.4579 53.3497 27.263C53.8069 27.9515 52.5133 28.7271 53.551 28.6847C53.5371 27.6323 53.3689 26.5799 53.5467 25.5286C52.8999 25.4861 52.2499 25.5166 51.6052 25.5297Z" fill="#1580BB"/>
<path d="M8.39027 26.0984C8.45987 25.8162 8.61729 25.5645 8.9075 25.4872C9.4108 26.7215 9.69351 28.0397 9.99764 29.3361C9.24696 30.2414 8.81219 31.3712 8.69439 32.5478C7.98334 32.8604 6.9478 32.8234 6.62547 33.6764C5.7495 33.5424 6.63618 32.6338 6.04613 32.2373C5.56638 31.8908 5.76342 31.2339 6.31171 31.1424C5.79876 30.5999 5.48821 30.8112 5.32972 31.4769C4.73325 32.0521 4.68934 31.0487 4.06716 31.3701C4.28027 30.1881 5.08556 28.7849 4.17961 27.6748C3.54886 26.5864 5.49142 26.3239 5.04594 27.5909C5.27082 27.9798 5.35114 28.4123 5.40361 28.859C5.92619 29.3187 6.60084 29.5671 7.2091 29.8917C7.23694 29.0681 8.27782 28.0245 7.75845 27.276C6.85464 26.6224 8.03688 26.3293 8.39027 26.0984Z" fill="#15577D"/>
<path d="M13.6279 26.8315C14.0113 26.301 12.3321 25.6125 13.3098 25.4817C14.6238 25.6887 16.0855 25.6593 17.0772 26.594C18.2273 26.7237 19.3924 26.8707 20.4975 27.2313C20.6485 27.4939 20.6603 27.8098 20.717 28.104C19.9621 28.2151 19.1279 27.9373 18.4115 28.2521C19.5412 28.9548 19.7972 30.8428 21.3617 30.6042C21.3724 30.6456 21.3928 30.7284 21.4035 30.7687C21.0865 30.8177 20.2041 30.5127 20.5757 31.1032C19.1911 30.3656 18.072 28.7435 16.3864 28.3949C15.5929 28.3448 14.7898 27.605 14.0337 28.116C13.5069 28.1628 13.5636 29.0442 14.0348 29.128C16.1915 30.3221 17.4455 32.7003 17.8996 35.0883C18.404 35.6221 20.354 35.8651 19.78 34.6209C20.5553 34.354 20.4911 32.868 20.8787 31.9998C21.2246 32.6948 21.3124 33.4672 21.3381 34.2342C21.6337 38.0396 17.8932 41.3961 14.1997 40.6073C10.5534 40.0223 8.53162 36.0296 8.69439 32.5478C8.81219 31.3712 9.24696 30.2414 9.99764 29.3361C10.9828 28.3785 12.1651 27.5713 12.3482 26.0733C13.328 26.0744 12.4467 26.9895 12.4253 27.4819C12.8911 27.4863 13.4587 27.3305 13.6279 26.8315ZM12.587 30.7916C9.86699 31.8516 10.5534 36.0699 12.6534 37.4948C13.6921 38.3413 15.5148 38.216 16.1626 36.9338C17.6683 34.5251 15.6218 30.187 12.587 30.7916Z" fill="#292927"/>
<path d="M25.3164 25.5373C25.8561 25.4044 26.1207 26.1212 25.416 25.8554C24.6707 26.5276 26.4869 26.4557 25.703 26.8294C25.0626 26.9045 24.7789 25.8565 25.3164 25.5373Z" fill="#9CA4A8"/>
<path d="M36.8454 28.3578C37.3059 28.2728 38.0009 26.521 36.8443 27.0418C37.3295 27.3 36.9825 27.8109 36.8454 28.3578Z" fill="#9CA4A8"/>
<path d="M51.6052 25.5297C52.2499 25.5166 52.8999 25.4861 53.5467 25.5286C53.3689 26.5799 53.5371 27.6323 53.551 28.6847C52.5133 28.7271 53.8069 27.9515 53.3497 27.263C53.5071 26.4579 52.6632 27.02 52.2809 27.142C52.3859 26.4829 51.8247 26.0766 51.6052 25.5297Z" fill="#142E37"/>
<path d="M26.0382 25.6288C26.3498 25.5035 26.2492 26.496 26.5576 26.0689C26.746 24.9207 27.3029 27.0745 26.6957 27.0396C26.9956 26.2269 26.1678 26.4154 26.3316 26.9285C25.6827 27.0788 26.1517 26.0025 26.0382 25.6288Z" fill="#929EA4"/>
<path d="M27.0041 25.7367C27.8555 25.5634 27.4625 26.569 27.742 27.0505C27.5728 27.5745 27.2365 26.143 27.2151 26.8206C26.9538 27.5963 26.9452 26.0286 27.0041 25.7367Z" fill="#949FA5"/>
<path d="M48.0874 27.8469C48.3466 26.5265 49.5331 25.8118 50.7217 25.8816C51.3696 26.1768 50.3416 26.3424 50.5183 26.9557C50.3705 26.472 49.9978 26.9677 49.758 27.1137C49.6744 27.1475 49.5909 27.1801 49.5085 27.2128C49.2268 27.1126 48.8606 27.5429 48.8948 27.0244C48.7139 27.3534 48.6346 27.8109 49.0908 27.8981C48.7567 27.909 48.4162 27.8894 48.0874 27.8469Z" fill="#58605F"/>
<path d="M16.8309 25.9404C19.5584 26.252 22.2752 26.6583 24.9962 27.0113C25.6698 27.6083 25.9654 28.591 26.6818 29.1651C25.6752 29.3045 24.7885 29.8275 23.8997 30.2894C24.025 29.9375 23.8783 29.7196 23.5109 29.7381C22.6007 29.3132 22.9466 30.5062 23.3 30.8439C22.3962 31.7666 21.8093 32.9792 21.547 34.2505C21.4945 34.2462 21.3906 34.2385 21.3381 34.2342C21.3124 33.4672 21.2246 32.6948 20.8787 31.9998C21.1989 31.7917 21.5748 31.6926 21.3692 31.2099C21.3863 31.0629 21.4324 30.9147 21.4035 30.7687C21.3928 30.7284 21.3724 30.6456 21.3617 30.6042C21.1411 29.7708 21.0115 28.9134 20.717 28.104C20.6603 27.8098 20.6485 27.4939 20.4975 27.2313C19.3924 26.8707 18.2273 26.7237 17.0772 26.594C17.1853 26.3337 16.9476 26.1419 16.8309 25.9404Z" fill="#103449"/>
<path d="M28.1521 25.96C28.9135 25.9273 30.1246 25.8576 29.4735 26.9394C29.4264 27.958 29.0784 26.7651 29.2337 26.2825C28.1639 25.7323 29.102 27.3011 28.5194 27.251C28.4316 26.8054 28.4594 26.3195 28.1521 25.96Z" fill="#97A1A5"/>
<path d="M30.7511 26.1659C31.2255 26.07 30.8828 26.8969 31.3626 26.7128C31.0659 25.7672 33.7645 26.8501 32.639 26.7498C33.1327 27.0679 33.0063 28.3001 32.4377 27.5865C33.0481 27.4329 32.5427 26.9982 32.1529 26.6932C32.3553 27.0527 31.8948 28.506 31.9237 27.154C31.8776 25.8957 31.4921 27.0396 31.5917 27.5876C31.2212 27.6704 31.5253 26.947 31.0884 27.0353C30.9588 28.4853 30.5348 26.6322 30.7511 26.1659Z" fill="#768796"/>
<path d="M70.6142 26.1288C71.4484 26.6757 70.2383 28.6879 71.4998 28.543C72.5129 28.36 71.7236 29.8721 72.4979 30.0911C72.7592 29.9713 72.9637 29.603 73.2828 29.7174C72.4797 30.0301 72.8084 31.0454 72.6949 31.7263C72.6414 31.7438 72.5354 31.7797 72.4818 31.7971C72.6018 30.5977 71.8157 31.5804 71.6433 32.1948C71.4045 31.9039 70.7834 32.0532 70.5746 32.5968C70.8091 33.1197 71.4913 33.1731 71.9796 33.1698C72.2452 33.6437 72.424 34.159 72.6285 34.6645C72.1552 34.5665 70.9847 34.2538 71.8864 34.7451C71.2685 34.6678 71.774 35.2637 71.8596 35.5666C70.4911 35.2005 69.2521 34.4063 67.8771 34.0228C70.1805 35.5851 72.9037 36.4163 75.4128 37.6005C75.673 37.7313 75.9868 37.7868 76.1849 37.5199C76.8713 38.1136 77.8115 38.3555 78.3919 39.0811C79.3343 38.7063 80.1257 39.7238 80.3784 40.5747C79.8248 41.2109 78.9991 41.0791 78.2742 40.883C76.9152 40.6389 75.5766 40.2936 74.2156 40.0615C73.3706 39.8186 72.5086 39.641 71.6358 39.5626C69.1354 38.9089 66.5845 38.4307 64.0498 37.9263C63.8474 37.1658 65.3455 36.9338 65.5961 36.3488C65.3873 35.5317 64.5317 35.5437 63.8388 35.4304C63.1995 36.8771 65.0361 35.6014 64.6902 36.7366C63.4897 37.1408 63.4822 36.1908 63.721 35.3443C62.2379 35.3498 60.7922 34.9946 59.338 34.7778C58.7565 35.6221 60.2557 35.4511 59.6228 36.0688C58.2542 36.2605 59.595 35.2833 59.2352 34.5763C58.4288 34.8301 57.2765 34.6297 57.827 33.4945C57.1834 33.4106 56.5141 33.4552 55.8951 33.2374C56.6651 32.5129 57.6128 33.2199 58.3999 32.9617C58.6301 32.4955 58.3892 31.8178 58.3613 31.2884C57.6364 31.4376 56.9189 31.6337 56.2057 31.8331C55.8694 31.7754 55.5353 31.7416 55.2151 31.6228C55.5439 31.4148 55.893 31.2415 56.2314 31.0509C56.6115 31.0128 56.0975 31.3995 56.226 31.6185C56.6918 31.5684 57.1405 31.4213 57.5849 31.2764C58.1022 31.0422 60.2568 30.979 58.8593 30.5596C59.9312 30.6097 60.9796 30.4245 62.0355 30.2828C62.5623 30.4985 63.0956 30.7055 63.6086 30.9583C63.5069 31.9083 65.0896 32.1567 64.9011 33.2592C64.959 33.9902 66.2151 33.8725 66.7462 33.6121C66.7677 34.0533 66.773 34.4924 66.7762 34.9358C66.9219 34.6482 66.9561 34.2484 67.3341 34.1917C67.6372 32.8267 69.6397 34.4139 70.1677 32.9432C68.767 32.8975 66.8683 32.5565 67.0279 30.833C67.0375 30.1837 67.0257 29.4974 67.4252 28.957C67.8353 28.3753 67.438 27.19 68.3279 27.0429C68.661 26.9437 69.4213 26.8337 69.1428 27.4253C68.6717 27.8894 69.1246 27.8109 69.5498 27.7565C68.8708 28.2456 69.3174 28.3654 69.9556 28.3633C70.3754 28.189 70.0702 27.2727 70.7095 27.1431C70.1794 27.0592 70.6271 26.4579 70.6142 26.1288ZM69.3206 30.7491C68.4789 32.2351 70.2148 32.185 70.974 31.9213C70.8412 31.5597 69.7757 31.9856 69.628 31.6261C70.3047 31.5727 70.9901 31.5259 71.668 31.6152C71.4474 30.7045 69.9139 31.4256 69.4041 30.9648C69.6783 30.9637 70.2266 30.9626 70.4996 30.9616C70.1923 30.7045 69.6858 30.7851 69.3206 30.7491Z" fill="#105E8A"/>
<path d="M33.5311 27.3675C33.5557 29.0289 34.1436 26.4568 33.56 26.6344C33.1209 26.8479 33.5311 27.0527 33.5311 27.3675Z" fill="#9FA6A9"/>
<path d="M34.0976 26.6267C34.5516 26.3369 34.5227 27.5135 34.8129 26.9372C35.283 26.2345 35.9084 27.6061 35.4254 27.9907C35.0185 28.6367 34.7337 27.1191 34.4606 27.8883C33.9016 28.3197 33.5246 26.9132 34.0976 26.6267Z" fill="#798F9D"/>
<path d="M50.5183 26.9557C50.3705 26.472 49.9978 26.9677 49.758 27.1137C50.1092 27.4667 50.438 27.532 50.5183 26.9557Z" fill="#CCCDCE"/>
<path d="M35.9973 26.935C36.4214 26.8043 36.8904 27.2771 36.5456 27.714C36.129 28.019 37.3948 28.5441 36.0926 28.2413C35.751 28.1018 36.6966 27.4438 36.3068 27.1954C36.0562 27.2826 35.9105 27.2357 35.9973 26.935Z" fill="#A0A7A9"/>
<path d="M49.0908 27.8981C48.6346 27.8109 48.7139 27.3534 48.8948 27.0244C48.8606 27.5429 49.2268 27.1126 49.5085 27.2128C49.4249 27.4503 49.3489 27.6922 49.2718 27.9329C49.2268 27.9242 49.1358 27.9068 49.0908 27.8981Z" fill="#C7C9CB"/>
<path d="M26.1174 27.1573C28.7047 27.4351 31.2812 27.8229 33.8673 28.1138C35.0303 28.0877 34.1693 28.177 33.9327 28.3448C36.582 28.2009 39.1606 28.9897 41.8003 29.1357C39.0471 29.3034 36.2607 29.1978 33.5225 29.0921C33.1723 29.1803 33.5075 28.6411 33.2869 28.4679C32.2653 28.3753 31.2084 28.6258 30.7147 29.566C32.0222 30.1009 32.7183 31.5008 33.8791 32.1447C33.5054 32.7755 34.7754 32.3952 33.8009 32.721C32.3371 31.2426 30.4063 30.2502 28.3834 29.871C27.8148 29.8689 26.7653 30.2839 27.1744 30.9921C29.057 31.9736 30.5102 33.8278 31.1623 35.8803C31.6999 37.1299 31.1398 39.0146 32.638 39.6094C33.2077 39.9613 33.7881 39.6661 34.2839 39.3382C34.1468 39.6715 33.9915 39.9994 33.8202 40.3176C33.3008 41.1117 32.6101 41.7589 31.8455 42.3058C28.7004 44.3223 24.1813 43.0498 22.5397 39.6432C21.6487 38.02 21.2953 36.0884 21.547 34.2505C21.8093 32.9792 22.3962 31.7666 23.3 30.8439C22.9466 30.5062 22.6007 29.3132 23.5109 29.7381C23.8783 29.7196 24.025 29.9375 23.8997 30.2894C24.7885 29.8275 25.6752 29.3045 26.6818 29.1651C28.211 29.152 26.2759 28.3458 26.8424 27.6094C26.5833 27.4896 26.2727 27.4264 26.1174 27.1573ZM34.8108 28.5746C36.3796 28.0985 34.8868 29.724 34.8108 28.5746ZM25.975 32.8648C22.3405 33.8376 23.5281 39.7129 26.7803 40.4461C28.1789 40.823 29.692 39.823 30.039 38.4165C30.7136 35.9163 28.7507 32.5118 25.975 32.8648Z" fill="#262829"/>
<path d="M7.75845 27.276C8.27782 28.0245 7.23694 29.0681 7.2091 29.8917C6.60084 29.5671 5.92619 29.3187 5.40361 28.859C5.35114 28.4123 5.27082 27.9798 5.04594 27.5909C5.91548 27.2738 6.97243 27.7597 7.75845 27.276Z" fill="#010202"/>
<path d="M0 30.76C0.0696065 28.6313 2.49727 28.0103 4.17961 27.6748C5.08556 28.7849 4.28027 30.1881 4.06716 31.3701C4.68934 31.0487 4.73325 32.0521 5.32972 31.4769C5.48821 30.8112 5.79876 30.5999 6.31171 31.1424C5.76342 31.2339 5.56638 31.8908 6.04613 32.2373C6.63618 32.6338 5.7495 33.5424 6.62547 33.6764C6.9478 32.8234 7.98334 32.8604 8.69439 32.5478C8.53162 36.0296 10.5534 40.0223 14.1997 40.6073C17.8932 41.3961 21.6337 38.0396 21.3381 34.2342C21.3906 34.2385 21.4945 34.2462 21.547 34.2505C21.2953 36.0884 21.6487 38.02 22.5397 39.6432C24.1813 43.0498 28.7004 44.3223 31.8455 42.3058C30.7233 43.9998 28.0461 43.6621 26.2834 43.3494C23.587 42.7666 21.0158 41.6172 18.6492 40.2228C14.9247 42.041 10.653 40.2838 7.33117 38.3294C6.6319 38.0614 6.38238 37.1223 5.71202 36.9C5.00846 36.9588 4.43661 37.9186 3.83907 37.0983C3.09053 36.8543 3.74162 36.6168 3.97614 36.2998C3.60134 35.3977 1.98111 36.8107 1.82048 35.6505C1.94256 35.1417 0.596475 34.7506 1.3086 34.4466C2.12568 34.5752 2.69752 35.4467 3.56171 35.5263C4.24386 35.4968 3.54779 34.7735 3.32505 34.5523C3.41179 34.0054 4.63901 34.1972 4.53835 33.6579C2.88599 33.0685 0.728191 32.5957 0 30.76Z" fill="#000101"/>
<path d="M55.5021 27.6856C56.846 28.8699 58.7179 27.9929 60.3178 28.3502C60.2075 28.5376 60.0865 28.7184 59.9773 28.9069C60.7697 29.1891 61.2409 29.9909 62.0355 30.2828C60.9796 30.4245 59.9312 30.6097 58.8593 30.5596C60.2568 30.979 58.1022 31.0422 57.5849 31.2764C57.6224 30.9267 57.9533 30.9605 58.2403 30.9147C57.9651 30.5007 56.0547 29.7207 56.2314 31.0509C55.893 31.2415 55.5439 31.4148 55.2151 31.6228C55.5353 31.7416 55.8694 31.7754 56.2057 31.8331C55.8351 32.8397 57.1727 32.4552 57.798 32.404C57.5571 33.026 58.1032 32.904 58.3999 32.9617C57.6128 33.2199 56.6651 32.5129 55.8951 33.2374C56.5141 33.4552 57.1834 33.4106 57.827 33.4945C57.2765 34.6297 58.4288 34.8301 59.2352 34.5763C59.595 35.2833 58.2542 36.2605 59.6228 36.0688C60.2557 35.4511 58.7565 35.6221 59.338 34.7778C60.7922 34.9946 62.2379 35.3498 63.721 35.3443C63.4822 36.1908 63.4897 37.1408 64.6902 36.7366C65.0361 35.6014 63.1995 36.8771 63.8388 35.4304C64.5317 35.5437 65.3873 35.5317 65.5961 36.3488C65.3455 36.9338 63.8474 37.1658 64.0498 37.9263C60.5074 37.2465 57.0131 36.3346 53.4675 35.6679L53.461 35.584C53.3839 35.1253 53.8872 33.891 53.1034 34.1982C52.3966 34.2832 54.0275 33.0347 52.7253 33.4422C52.2092 33.4868 51.7637 33.2286 51.3086 33.0293C50.937 33.2831 50.4979 33.5478 50.3459 34.0032C51.0002 34.3279 51.572 34.7767 52.0914 35.2975C50.166 34.9194 48.2566 34.3072 46.3151 34.0904C45.1457 33.7723 43.8671 33.8485 42.7523 33.3376C41.6204 32.4889 39.9948 33.6437 39.0503 32.4813C39.9563 32.4355 41.7446 33.3616 41.9749 31.9758C40.6802 31.7252 39.2624 32.0586 37.9291 31.954C38.0469 32.2645 38.0523 32.7471 38.4699 32.7526C38.3832 32.806 38.2975 32.8604 38.2129 32.9171C37.4355 32.6338 36.612 32.5194 35.7992 32.3963C35.1599 32.3059 34.5227 32.1991 33.8791 32.1447C32.7183 31.5008 32.0222 30.1009 30.7147 29.566C31.2084 28.6258 32.2653 28.3753 33.2869 28.4679C33.5075 28.6411 33.1723 29.1803 33.5225 29.0921C36.2607 29.1978 39.0471 29.3034 41.8003 29.1357C44.3479 29.4636 46.9052 29.7501 49.4506 30.102C49.6776 30.5269 50.4497 30.1401 50.212 30.9899C50.2591 31.2503 50.454 31.7982 50.7742 31.5183C51.662 30.9147 53.0723 30.5846 53.7373 29.9473C54.4826 30.8297 56.195 29.7719 57.2337 30.1924C55.954 30.1053 55.8148 28.6563 55.5021 27.6856ZM43.0982 30.9823C42.5596 31.3581 42.0691 32.7754 42.914 32.8724C44.1937 32.6404 45.5666 33.903 46.737 32.855C46.9566 32.3059 46.2198 31.844 46.0078 31.3396C45.0783 30.967 44.0888 31.0117 43.0982 30.9823Z" fill="#10344A"/>
<path d="M69.9556 28.3633C70.1163 27.8676 70.0681 27.5516 69.5498 27.7565C68.8708 28.2456 69.3174 28.3654 69.9556 28.3633Z" fill="#04090D"/>
<path d="M14.0337 28.116C14.7898 27.605 15.5929 28.3448 16.3864 28.3949C18.072 28.7435 19.1911 30.3656 20.5757 31.1032C20.8455 31.0694 21.1133 31.1195 21.3692 31.2099C21.5748 31.6926 21.1989 31.7917 20.8787 31.9998C20.4911 32.868 20.5553 34.354 19.78 34.6209C20.354 35.8651 18.404 35.6221 17.8996 35.0883C17.4455 32.7003 16.1915 30.3221 14.0348 29.128C13.5636 29.0442 13.5069 28.1628 14.0337 28.116Z" fill="#38393B"/>
<path d="M18.4115 28.2521C19.1279 27.9373 19.9621 28.2151 20.717 28.104C21.0115 28.9134 21.1411 29.7708 21.3617 30.6042C19.7972 30.8428 19.5412 28.9548 18.4115 28.2521Z" fill="#020303"/>
<path d="M48.2641 28.2968C48.6539 28.2325 48.9377 28.9548 49.3735 29.0278C49.2418 29.9702 47.3003 29.7643 47.4706 28.7119C47.7362 28.5768 48.0242 28.482 48.2641 28.2968Z" fill="#AC5933"/>
<path d="M34.8108 28.5746C36.3796 28.0985 34.8868 29.724 34.8108 28.5746Z" fill="#030303"/>
<path d="M78.5515 29.0594C78.7336 28.9025 78.9359 29.2315 78.756 29.3568C77.6113 30.3351 76.3037 31.1304 75.28 32.2514C76.1817 32.356 77.1733 32.6611 78.0407 32.3473C78.7839 31.3015 79.9993 30.602 81.2908 30.65C83.4347 30.4506 85.5743 32.709 84.4777 34.8606C83.5814 36.4773 81.5564 34.9064 80.372 36.0143C80.0614 36.4577 79.6481 37.2018 80.3184 37.5166C80.796 38.1115 79.6652 37.436 79.7445 38.0123C79.6342 38.2999 79.5624 38.6616 79.2262 38.7564C79.1523 38.3272 79.2133 37.2791 79.0291 37.2944C77.8661 36.985 76.7931 36.3433 75.5831 36.2071C75.3185 36.4937 76.6646 37.7607 77.3275 38.0428C78.3052 38.6921 77.1722 37.6234 77.8972 37.2508C78.2549 37.2508 78.6233 37.3096 78.9349 37.5014C78.6682 37.7705 78.0064 37.2835 77.7923 37.6278C77.9422 38.2749 78.68 38.5287 79.2262 38.7564C79.8965 39.1366 80.6269 39.4035 81.3925 39.4994C80.946 39.2739 81.4814 38.6823 81.6645 39.1965C82.0318 39.7881 82.3745 39.1312 82.1507 38.69C82.2664 38.8773 82.3734 39.0702 82.4902 39.2597C81.9911 40.0496 80.8592 39.543 80.1225 39.4711C80.2895 39.799 80.4502 40.14 80.4544 40.5202L80.3784 40.5747C80.1257 39.7238 79.3343 38.7063 78.3919 39.0811C77.8115 38.3555 76.8713 38.1136 76.1849 37.5199C75.3025 35.8999 73.5484 35.2147 71.8864 34.7451C70.9847 34.2538 72.1552 34.5665 72.6285 34.6645C73.2282 34.7865 73.7829 35.0491 74.3355 35.3127C73.8954 34.4085 74.2498 33.4269 74.6043 32.5652C73.7069 32.4519 73.5709 31.4278 72.4818 31.7971C72.5354 31.7797 72.6414 31.7438 72.6949 31.7263C72.8823 30.809 74.54 30.991 74.7606 31.869C74.0924 31.9595 74.5304 32.1294 74.9641 32.1523C75.7437 31.2927 76.685 30.6206 77.5759 29.8885C76.5886 29.8656 75.6045 29.8569 74.6203 29.7981C74.9116 29.7872 75.3571 29.8362 75.0872 29.4396C76.2352 29.6041 77.5235 29.7261 78.5515 29.0594ZM81.1184 31.0106C79.6802 30.8635 78.8792 32.0837 77.8512 32.806C76.8884 32.8931 75.9429 32.5935 74.9823 32.6001C74.6118 33.3354 74.1299 34.3464 74.6257 35.1308C75.4899 36.0699 76.8874 36.1026 77.9957 36.5917C78.6072 36.6909 79.6973 37.5624 79.8076 36.4185C80.4502 34.4521 82.8082 35.7496 84.0397 34.9619C85.3301 33.0075 83.2141 30.6053 81.1184 31.0106Z" fill="#303232"/>
<path d="M73.9917 29.9604C73.7722 29.0943 74.6428 29.3961 75.0872 29.4396C75.3571 29.8362 74.9116 29.7872 74.6203 29.7981C73.9414 29.737 74.8024 30.0922 75.0573 30.1227C75.552 30.5726 75.4438 31.6152 74.7606 31.869C74.54 30.991 72.8823 30.809 72.6949 31.7263C72.8084 31.0454 72.4797 30.0301 73.2828 29.7174C73.5227 29.7861 73.7508 29.8906 73.9917 29.9604Z" fill="#656C6C"/>
<path d="M27.1744 30.9921C26.7653 30.2839 27.8148 29.8689 28.3834 29.871C30.4063 30.2502 32.3371 31.2426 33.8009 32.721C33.8502 33.0445 34.5602 33.0892 34.1907 33.3725C34.8333 33.1328 35.4736 33.4749 36.1258 33.4683C36.9643 33.8943 38.7194 33.1535 38.9989 34.2342C38.1658 34.2385 37.3519 33.8562 36.5167 34.1503C36.1451 34.1765 35.7628 34.1786 35.4051 34.0664C35.7114 34.2037 37.2138 33.8322 35.9116 33.7668C35.706 33.8006 33.8502 33.4139 34.7133 33.7222C34.0044 33.9346 34.8782 34.8726 34.7561 35.3868C34.9275 36.717 34.86 38.1104 34.2839 39.3382C33.7881 39.6661 33.2077 39.9613 32.638 39.6094C31.1398 39.0146 31.6999 37.1299 31.1623 35.8803C30.5102 33.8278 29.057 31.9736 27.1744 30.9921Z" fill="#3C3E40"/>
<path d="M56.2314 31.0509C56.0547 29.7207 57.9651 30.5007 58.2403 30.9147C57.9533 30.9605 57.6224 30.9267 57.5849 31.2764C57.1405 31.4213 56.6918 31.5684 56.226 31.6185C56.0975 31.3995 56.6115 31.0128 56.2314 31.0509Z" fill="#5A5F59"/>
<path d="M12.587 30.7916C15.6218 30.187 17.6683 34.5251 16.1626 36.9338C15.5148 38.216 13.6921 38.3413 12.6534 37.4948C10.5534 36.0699 9.86699 31.8516 12.587 30.7916ZM12.9018 31.54C11.6521 32.0651 12.92 33.5838 13.5733 33.8725C13.9481 33.1143 14.9472 33.3136 15.0104 34.122C15.2267 35.1025 13.8646 35.048 13.6429 34.3115C12.8965 34.1732 12.7444 35.7354 13.5722 35.8008C13.9085 35.8411 14.763 36.6887 14.2265 36.0034C13.7478 35.7823 15.0811 34.878 14.7287 35.6908C14.9012 36.1047 14.7148 36.8096 15.4012 36.7257C17.0333 34.9107 15.3734 31.1849 12.9018 31.54Z" fill="#882412"/>
<path d="M20.5757 31.1032C20.2041 30.5127 21.0865 30.8177 21.4035 30.7687C21.4324 30.9147 21.3863 31.0629 21.3692 31.2099C21.1133 31.1195 20.8455 31.0694 20.5757 31.1032Z" fill="#080809"/>
<path d="M69.3206 30.7491C69.6858 30.7851 70.1923 30.7045 70.4996 30.9616C70.2266 30.9626 69.6783 30.9637 69.4041 30.9648C69.9139 31.4256 71.4474 30.7045 71.668 31.6152C70.9901 31.5259 70.3047 31.5727 69.628 31.6261C69.7757 31.9856 70.8412 31.5597 70.974 31.9213C70.2148 32.185 68.4789 32.2351 69.3206 30.7491Z" fill="#082B40"/>
<path d="M66.4967 32.1327C66.9079 31.8451 66.9444 31.2829 67.0279 30.833C66.8683 32.5565 68.767 32.8975 70.1677 32.9432C69.6397 34.4139 67.6372 32.8267 67.3341 34.1917C66.9561 34.2484 66.9219 34.6482 66.7762 34.9358C66.773 34.4924 66.7677 34.0533 66.7462 33.6121C66.2151 33.8725 64.959 33.9902 64.9011 33.2592C65.0896 32.1567 63.5069 31.9083 63.6086 30.9583C64.5585 31.3777 65.5169 31.7928 66.4967 32.1327Z" fill="#143549"/>
<path d="M43.0982 30.9823C44.0888 31.0117 45.0783 30.967 46.0078 31.3396C46.2198 31.844 46.9566 32.3059 46.737 32.855C45.5666 33.903 44.1937 32.6404 42.914 32.8724C42.0691 32.7754 42.5596 31.3581 43.0982 30.9823Z" fill="#0E6596"/>
<path d="M56.2057 31.8331C56.9189 31.6337 57.6364 31.4376 58.3613 31.2884C58.3892 31.8178 58.6301 32.4955 58.3999 32.9617C58.1032 32.904 57.5571 33.026 57.798 32.404C57.1727 32.4552 55.8351 32.8397 56.2057 31.8331Z" fill="#616660"/>
<path d="M12.9018 31.54C15.3734 31.1849 17.0333 34.9107 15.4012 36.7257C14.7148 36.8096 14.9012 36.1047 14.7287 35.6908C15.0811 34.878 13.7478 35.7823 14.2265 36.0034C14.763 36.6887 13.9085 35.8411 13.5722 35.8008C12.7444 35.7354 12.8965 34.1732 13.6429 34.3115C13.8646 35.048 15.2267 35.1025 15.0104 34.122C14.9472 33.3136 13.9481 33.1143 13.5733 33.8725C12.92 33.5838 11.6521 32.0651 12.9018 31.54Z" fill="#3D120B"/>
<path d="M37.9291 31.954C39.2624 32.0586 40.6802 31.7252 41.9749 31.9758C41.7446 33.3616 39.9563 32.4355 39.0503 32.4813C38.8458 32.5445 38.6584 32.6534 38.4699 32.7526C38.0523 32.7471 38.0469 32.2645 37.9291 31.954Z" fill="#10547A"/>
<path d="M70.5746 32.5968C70.7834 32.0532 71.4045 31.9039 71.6433 32.1948C71.6594 32.5467 71.8211 32.8637 71.9796 33.1698C71.4913 33.1731 70.8091 33.1197 70.5746 32.5968Z" fill="#072437"/>
<path d="M33.8791 32.1447C34.5227 32.1991 35.1599 32.3059 35.7992 32.3963C35.3794 32.8484 36.1151 32.9868 36.1258 33.4683C35.4736 33.4749 34.8333 33.1328 34.1907 33.3725C34.5602 33.0892 33.8502 33.0445 33.8009 32.721C34.7754 32.3952 33.5054 32.7755 33.8791 32.1447Z" fill="#060708"/>
<path d="M35.7992 32.3963C36.612 32.5194 37.4355 32.6338 38.2129 32.9171C39.196 34.4292 41.5433 34.7364 42.7523 33.3376C43.8671 33.8485 45.1457 33.7723 46.3151 34.0904C44.2783 37.7236 38.7216 37.5766 36.5167 34.1503C37.3519 33.8562 38.1658 34.2385 38.9989 34.2342C38.7194 33.1535 36.9643 33.8943 36.1258 33.4683C36.1151 32.9868 35.3794 32.8484 35.7992 32.3963Z" fill="#1B1B1A"/>
<path d="M38.4699 32.7526C38.6584 32.6534 38.8458 32.5445 39.0503 32.4813C39.9948 33.6437 41.6204 32.4889 42.7523 33.3376C41.5433 34.7364 39.196 34.4292 38.2129 32.9171C38.2975 32.8604 38.3832 32.806 38.4699 32.7526Z" fill="#4F201D"/>
<path d="M25.975 32.8648C28.7507 32.5118 30.7136 35.9163 30.039 38.4165C29.692 39.823 28.1789 40.823 26.7803 40.4461C23.5281 39.7129 22.3405 33.8376 25.975 32.8648ZM26.0286 33.7908C24.9748 34.1263 25.5038 35.6069 26.3209 35.9032C27.0598 36.3161 26.2556 36.7388 26.0039 36.9763C26.1174 35.9958 25.1269 35.5916 24.4994 35.389C23.8001 37.2682 25.3871 39.9166 27.4914 39.86C28.2827 39.4994 27.5899 38.6235 27.0577 38.3904C27.0577 37.9829 27.5835 38.0548 27.5781 37.631C28.0739 37.4665 27.8019 38.2128 28.0525 38.4884C27.5342 38.91 28.4444 39.3752 28.7839 38.9939C30.5551 37.1234 28.6436 33.0827 26.0286 33.7908Z" fill="#79210F"/>
<path d="M50.3459 34.0032C50.4979 33.5478 50.937 33.2831 51.3086 33.0293C51.7637 33.2286 52.2092 33.4868 52.7253 33.4422C54.0275 33.0347 52.3966 34.2832 53.1034 34.1982C53.8872 33.891 53.3839 35.1253 53.461 35.584C53.0038 35.4881 52.5465 35.3955 52.0914 35.2975C51.572 34.7767 51.0002 34.3279 50.3459 34.0032Z" fill="#115277"/>
<path d="M34.7133 33.7222C33.8502 33.4139 35.706 33.8006 35.9116 33.7668C37.2138 33.8322 35.7114 34.2037 35.4051 34.0664C35.7628 34.1786 36.1451 34.1765 36.5167 34.1503C38.7216 37.5766 44.2783 37.7236 46.3151 34.0904C48.2566 34.3072 50.166 34.9194 52.0914 35.2975C52.5465 35.3955 53.0038 35.4881 53.461 35.584L53.4675 35.6679C53.642 36.3292 53.9579 36.9381 53.8005 37.6768C54.5576 38.7085 55.8394 37.4142 56.7689 38.0472C58.4963 39.0887 60.245 40.0245 62.2968 40.2467C62.6662 40.9777 63.3794 41.5355 64.2308 41.4146C64.7994 40.7163 63.3109 40.0724 63.9855 39.5931C64.929 39.2445 64.1751 40.079 64.3518 40.4603C64.672 41.7305 66.1166 41.9343 67.1778 42.1511C70.2234 42.7001 73.1457 43.6654 76.1474 44.3789C76.9945 45.2385 78.7014 44.8779 79.2079 46H77.1658C75.8315 45.6263 74.4319 45.4912 73.0719 45.306C71.7986 45.6786 70.1966 45.3899 69.1257 44.5467C67.1371 43.8157 65.0039 43.6414 62.9414 43.2132C60.8115 42.9442 58.7136 42.0966 56.5483 42.3755C55.1573 42.0792 53.7041 41.2861 52.237 41.7066C49.2354 40.4679 45.8621 39.8513 42.6302 40.2348C41.5048 40.5605 40.5838 41.7229 39.3684 41.5856C37.6132 40.8132 35.6407 40.8612 33.8202 40.3176C33.9915 39.9994 34.1468 39.6715 34.2839 39.3382C34.86 38.1104 34.9275 36.717 34.7561 35.3868C34.8782 34.8726 34.0044 33.9346 34.7133 33.7222Z" fill="black"/>
<path d="M26.0286 33.7908C28.6436 33.0827 30.5551 37.1234 28.7839 38.9939C28.4444 39.3752 27.5342 38.91 28.0525 38.4884C27.8019 38.2128 28.0739 37.4665 27.5781 37.631C27.5835 38.0548 27.0577 37.9829 27.0577 38.3904C26.443 38.155 25.7019 37.7618 26.0039 36.9763C26.2556 36.7388 27.0598 36.3161 26.3209 35.9032C25.5038 35.6069 24.9748 34.1263 26.0286 33.7908ZM27.3532 35.5687C26.1003 35.9043 27.2922 37.8075 28.1532 36.9371C28.5558 36.461 27.969 35.4478 27.3532 35.5687Z" fill="#3B110B"/>
<path d="M67.8771 34.0228C69.2521 34.4063 70.4911 35.2005 71.8596 35.5666C71.774 35.2637 71.2685 34.6678 71.8864 34.7451C73.5484 35.2147 75.3025 35.8999 76.1849 37.5199C75.9868 37.7868 75.673 37.7313 75.4128 37.6005C72.9037 36.4163 70.1805 35.5851 67.8771 34.0228Z" fill="#157AB5"/>
<path d="M24.4994 35.389C25.1269 35.5916 26.1174 35.9958 26.0039 36.9763C25.7019 37.7618 26.443 38.155 27.0577 38.3904C27.5899 38.6235 28.2827 39.4994 27.4914 39.86C25.3871 39.9166 23.8001 37.2682 24.4994 35.389Z" fill="#A22A18"/>
<path d="M28.1532 36.9371C28.5558 36.461 27.969 35.4478 27.3532 35.5687C26.1003 35.9043 27.2922 37.8075 28.1532 36.9371Z" fill="#8F2513"/>
<path d="M77.3275 38.0428C76.6646 37.7607 75.3185 36.4937 75.5831 36.2071C76.3155 36.6386 77.1251 36.9044 77.8972 37.2508C77.1722 37.6234 78.3052 38.6921 77.3275 38.0428Z" fill="#2181BF"/>
<path d="M75.5831 36.2071C76.7931 36.3433 77.8661 36.985 79.0291 37.2944C79.0056 37.3467 78.9584 37.4502 78.9349 37.5014C78.6233 37.3096 78.2549 37.2508 77.8972 37.2508C77.1251 36.9044 76.3155 36.6386 75.5831 36.2071Z" fill="#070D10"/>
<path d="M79.0291 37.2944C79.2133 37.2791 79.1523 38.3272 79.2262 38.7564C78.68 38.5287 77.9422 38.2749 77.7923 37.6278C78.0064 37.2835 78.6682 37.7705 78.9349 37.5014C78.9584 37.4502 79.0056 37.3467 79.0291 37.2944Z" fill="#1F73A9"/>
<path d="M79.2262 38.7564C79.5624 38.6616 79.6342 38.2999 79.7445 38.0123C80.478 38.5505 81.506 38.5146 82.1507 38.69C82.3745 39.1312 82.0318 39.7881 81.6645 39.1965C81.4814 38.6823 80.946 39.2739 81.3925 39.4994C80.6269 39.4035 79.8965 39.1366 79.2262 38.7564Z" fill="#217AB2"/>
<path d="M82.4902 39.2597C82.8286 39.4297 83.1948 39.5876 83.5503 39.3665C83.5278 40.0049 83.3179 40.6204 83.0449 41.1913C83.7399 41.5987 85.7038 41.7044 84.7379 42.7753C83.5257 42.5019 82.2257 42.5258 81.0691 42.0628C81.0681 41.3623 81.7716 41.9364 82.1732 41.8678C81.9515 41.5442 81.4943 41.627 81.1901 41.4266C80.9685 41.1008 80.9106 40.591 80.4544 40.5202C80.4502 40.14 80.2895 39.799 80.1225 39.4711C80.8592 39.543 81.9911 40.0496 82.4902 39.2597Z" fill="#1772A6"/>
<path d="M71.6358 39.5626C72.5086 39.641 73.3706 39.8186 74.2156 40.0615C74.3633 40.6106 73.83 40.9407 74.4501 41.456C73.9446 41.3819 73.4895 40.7969 72.9166 41.1096C72.5878 40.4951 71.8307 40.2544 71.6358 39.5626Z" fill="#1A3A4C"/>
<path d="M80.3784 40.5747L80.4544 40.5202C80.9106 40.591 80.9685 41.1008 81.1901 41.4266C81.4943 41.627 81.9515 41.5442 82.1732 41.8678C81.7716 41.9364 81.0681 41.3623 81.0691 42.0628C82.2257 42.5258 83.5257 42.5019 84.7379 42.7753C83.1188 42.674 81.3732 42.6043 79.859 41.8994C79.3622 41.6161 78.2024 41.7055 78.2742 40.883C78.9991 41.0791 79.8248 41.2109 80.3784 40.5747Z" fill="#293A44"/>
<path d="M72.9166 41.1096C73.4895 40.7969 73.9446 41.3819 74.4501 41.456C75.0144 42.077 75.477 42.9518 76.3755 43.0771C75.612 44.2035 74.0988 42.991 73.0097 43.0934C72.2741 42.9387 73.3942 42.4953 73.6919 42.3809C73.5195 41.9114 73.1714 41.5312 72.9166 41.1096Z" fill="#155E89"/>
</svg>
