<svg width="10" height="16" viewBox="0 0 10 16" fill="none" xmlns="http://www.w3.org/2000/svg">
<path d="M2.05727 0.368522C2.30624 0.234678 2.57441 0.138046 2.82278 0C2.78919 0.124841 2.75439 0.249683 2.72439 0.375725C2.84318 0.293498 2.95717 0.204068 3.06516 0.107436C3.31653 0.333711 3.6309 0.497565 3.97706 0.487362C4.11504 0.469956 4.24703 0.42074 4.38622 0.407535C4.63639 0.531176 4.81577 0.758652 5.03115 0.930909C5.22193 1.08036 5.34492 1.30903 5.56149 1.42487C5.83266 1.4999 6.15003 1.42667 6.38401 1.61754C6.78237 1.86002 6.79016 2.37559 7.00434 2.74591C7.14473 2.95358 7.4147 2.94938 7.62947 3.0184C7.82745 3.07362 7.96784 3.23327 8.14542 3.3269C8.38899 3.43374 8.66376 3.41093 8.91754 3.47815C9.08912 3.54778 9.2145 3.69182 9.36329 3.79806C9.49827 3.90309 9.66506 3.95171 9.82464 4.00813C9.90383 4.28122 10.0124 4.59813 9.85044 4.86281C9.64286 5.19172 9.36929 5.48222 9.2181 5.84414C9.14971 6.18085 9.2301 6.53077 9.15211 6.86808C9.07412 7.2378 8.98893 7.64413 8.72196 7.92683C8.3584 8.06187 7.92764 8.11049 7.66187 8.4286C7.50949 8.56184 7.57788 8.77551 7.57488 8.95017C7.60188 9.21666 7.4219 9.43633 7.32231 9.66861C7.27371 9.66381 7.22512 9.6596 7.17772 9.6554C7.06973 9.98251 7.02714 10.36 6.77396 10.6133C6.55199 10.71 6.30601 10.6031 6.08224 10.5605C6.23102 10.782 6.55139 11.0431 6.36301 11.33C6.19982 11.5646 5.87106 11.5436 5.62029 11.6042C5.62209 11.7507 5.62449 11.8971 5.62569 12.0442C5.4751 12.0418 5.32452 12.0364 5.17453 12.0316C5.20153 12.094 5.22913 12.1564 5.25732 12.2195C5.34852 12.2429 5.4409 12.2657 5.53329 12.2897C5.41031 12.5934 5.30772 12.9103 5.10854 13.175C5.25973 13.2596 5.42111 13.3292 5.56029 13.4343C5.55369 13.6941 5.33232 13.9042 5.31132 14.1671C5.4937 14.5992 5.90166 14.8849 6.33541 15.0314C6.11524 15.1256 5.87466 15.2174 5.63289 15.1538C5.13374 15.0296 4.65199 14.7685 4.33762 14.3526C4.12344 14.0747 3.85167 13.756 3.96926 13.3784C3.90327 13.3484 3.83788 13.319 3.77248 13.2896C3.76948 13.0873 3.76468 12.8857 3.76108 12.6834C3.83008 12.7134 3.89907 12.7446 3.96806 12.7746C3.92247 12.5706 3.86667 12.3695 3.79888 12.172C3.78208 12.3155 3.75989 12.4589 3.71069 12.5958C3.53731 12.2093 3.5565 11.7735 3.40532 11.3804C3.32493 11.1931 3.38192 10.9914 3.40292 10.7994C3.43772 10.5233 3.45272 10.2376 3.36932 9.96871C3.20494 9.46214 3.30693 8.92436 3.25234 8.40399C3.20014 7.93943 3.28473 7.44907 3.10175 7.00792C2.84858 6.52476 2.19045 6.49415 1.91268 6.0386C1.6967 5.58005 1.43933 5.14311 1.21615 4.68816C1.09617 4.41747 0.797998 4.24761 0.752403 3.94391C0.720007 3.78546 0.85499 3.66542 0.899985 3.52437C0.885587 3.35871 0.776998 3.20026 0.824993 3.03161C0.921582 2.68949 1.18196 2.43441 1.39853 2.16492C1.53592 2.01907 1.50532 1.8048 1.51252 1.62114C1.52752 1.26462 1.30914 0.96452 1.19456 0.641613C1.35354 0.715437 1.50652 0.801866 1.65471 0.894897C1.81069 0.736444 1.90248 0.525775 2.05727 0.368522ZM2.6692 0.505968C2.671 0.590596 2.6728 0.675224 2.6752 0.759852C2.69799 0.760452 2.74299 0.762253 2.76519 0.762853C2.76639 0.676425 2.76759 0.589996 2.76879 0.503567C2.74419 0.504167 2.6944 0.505368 2.6692 0.505968ZM3.20614 6.3297C3.18035 6.41373 3.20974 6.44254 3.29373 6.41553C3.31893 6.3315 3.28953 6.30269 3.20614 6.3297Z" fill="white"/>
<path d="M6.75296 14.2745C6.93894 14.2727 7.12433 14.2817 7.30911 14.3057C7.18432 14.4978 6.96174 14.5014 6.76076 14.4642C6.75896 14.4168 6.75536 14.322 6.75296 14.2745Z" fill="white"/>
</svg>
