<svg width="1112" height="1023" viewBox="0 0 1112 1023" fill="none" xmlns="http://www.w3.org/2000/svg">
<path d="M228.96 1.10664C245.533 0.799968 262.093 1.09332 278.667 0.999986C300.427 1.34665 322.16 -0.0533634 343.92 0.39997C343.96 4.1733 344.013 7.94666 344.107 11.72C343.507 11.72 342.307 11.7333 341.707 11.7466C309.76 11.48 277.813 11.76 245.867 11.5733C240.227 11.52 234.6 11.7733 228.96 11.5733C228.653 8.07998 228.653 4.58664 228.96 1.10664Z" fill="#6A6C6B"/>
<path d="M343.92 0.39997C364.52 1.03997 385.12 0.986628 405.72 1.10663C406.027 4.5733 406.027 8.06664 405.72 11.5333C401.173 11.7733 396.64 11.9467 392.093 11.9333C376.107 11.3733 360.107 11.6133 344.107 11.72C344.013 7.94666 343.96 4.1733 343.92 0.39997Z" fill="#808181"/>
<path d="M815.52 8.62668C845.027 8.09335 874.547 8.50666 904.067 8.44C904.04 10.8 904.04 13.16 904.053 15.52C896.88 15.4 889.72 15.4267 882.56 15.5733C880.907 15.6 879.267 15.6133 877.64 15.6133C869.6 15.5733 861.547 15.4933 853.507 15.6267C849.907 15.64 846.32 15.5867 842.733 15.5867C836.853 15.6 830.987 15.6667 825.12 15.7067C821.92 15.7067 818.733 15.6534 815.547 15.6C815.52 13.2667 815.507 10.9467 815.52 8.62668Z" fill="#686A69"/>
<path d="M904.067 8.44C913.8 8.41333 923.547 8.04002 933.267 8.80002C933.293 11.04 933.32 13.2933 933.373 15.5467C929 15.68 924.64 15.76 920.293 15.7733C914.867 15.8 909.453 15.6 904.053 15.52C904.04 13.16 904.04 10.8 904.067 8.44Z" fill="#818383"/>
<path d="M245.867 11.5733C277.813 11.76 309.76 11.48 341.707 11.7466C340.613 15.6933 341.093 21.12 337.4 23.68C330.08 26.0667 322.187 24.64 314.627 25.1867C292.733 26.1867 270.827 24.5867 248.933 25.0533C248.867 20.4 247.933 15.76 245.867 11.5733Z" fill="#414543"/>
<path d="M341.707 11.7466C342.307 11.7333 343.507 11.72 344.107 11.72C360.107 11.6133 376.107 11.3733 392.093 11.9333C392.24 15.36 392.373 18.8 392.427 22.24C378.467 22.2666 364.507 22.9466 350.533 22.44C343.88 21.8266 338.467 26.0667 332.587 28.3467C328.093 29.88 323.24 29.4267 318.587 29.3467C303.053 28.56 287.507 30.2267 271.987 29.0933C264.32 28.4667 256.627 28.3333 248.96 29.0266C248.96 28.04 248.933 26.04 248.933 25.0533C270.827 24.5867 292.733 26.1867 314.627 25.1867C322.187 24.64 330.08 26.0667 337.4 23.68C341.093 21.12 340.613 15.6933 341.707 11.7466Z" fill="#4F5251"/>
<path d="M825.12 15.7067C830.987 15.6667 836.853 15.6 842.733 15.5867C842.56 19.1867 842.413 22.7733 842.267 26.3733C841.733 24.3733 841 22.44 840.307 20.4933C835.16 20.16 830.027 20.72 824.88 20.8C824.947 19.1067 825.013 17.4 825.12 15.7067Z" fill="#4E5150"/>
<path d="M842.733 15.5867C846.32 15.5867 849.907 15.64 853.507 15.6267C853.453 16.68 853.333 18.7867 853.267 19.84C852.72 26.1867 852.053 32.52 851.44 38.8666C849.773 41.5066 847.96 44.2666 848.08 47.5333C847.907 58.0133 847.373 68.9067 851.227 78.88C857.52 78.8933 865.213 79.7733 869.947 74.68C873.093 69.56 872.84 63.16 873.213 57.3467C873 50.84 869.92 44.76 869.867 38.2267C870.027 34.3467 871.373 30.6266 872.747 27.0266C874.36 23.2266 876.133 19.48 877.64 15.6133C879.267 15.6133 880.907 15.6 882.56 15.5733C882.293 17.44 882.053 19.3067 881.867 21.1867C880.933 30.4533 881.44 39.76 881.173 49.0533C878.28 168.893 875.373 288.747 872.587 408.587C871.867 426.067 871.733 443.573 871.587 461.067C871.4 465.24 871.213 469.44 870.493 473.587C868.293 473.907 866.107 474.253 863.933 474.6C863.507 464.293 864.627 453.493 860.173 443.853C857.2 444.08 854.293 444.84 851.587 446.08C848.907 454.067 847.48 462.413 845.587 470.613C844.453 469.16 843.387 467.68 842.307 466.213C842.893 456.107 845.613 446.147 844.88 435.973C844.427 427.72 842.853 419.267 845.24 411.16C846.84 405.72 847.933 400 846.76 394.36C845.147 386.027 845.04 377.48 846.76 369.16C849.52 356.547 844.693 343.747 847.64 331.133C850.667 318.653 844.893 306.133 847.52 293.627C849.587 283.867 849.133 273.867 848.493 263.987C847.907 256.813 849.613 249.787 850.92 242.8C852.627 233.627 848.307 224.76 848.827 215.6C848.947 209.707 850.853 204.067 851.787 198.293C852.64 192.827 850.32 187.587 849.6 182.253C848.187 174.4 849.8 166.467 850.973 158.693C853.04 146.72 848.96 134.667 851.227 122.693C853.227 112.24 853.613 101.4 851.24 90.9866C850.093 86.6 845.827 83.96 844.387 79.72C843.467 76.56 843.227 73.2667 843 70C843.28 55.4267 840.373 40.9333 842.267 26.3733C842.413 22.7733 842.56 19.1867 842.733 15.5867Z" fill="#2E312E"/>
<path d="M853.507 15.6267C861.547 15.4933 869.6 15.5733 877.64 15.6133C876.133 19.48 874.36 23.2266 872.747 27.0266C871.627 24.8533 870.4 22.7333 869.067 20.6933C863.8 20.3066 858.52 20.2933 853.267 19.84C853.333 18.7867 853.453 16.68 853.507 15.6267Z" fill="#4B4D4C"/>
<path d="M882.56 15.5733C889.72 15.4267 896.88 15.4 904.053 15.52C909.453 15.6 914.867 15.8 920.293 15.7733C920.373 18.3333 920.44 20.9066 920.493 23.4666C913.013 23.4666 905.493 23.2266 898.173 21.5466C892.813 20.32 887.28 20.52 881.867 21.1867C882.053 19.3067 882.293 17.44 882.56 15.5733Z" fill="#525656"/>
<path d="M824.88 20.8C830.027 20.72 835.16 20.16 840.307 20.4933C841 22.44 841.733 24.3733 842.267 26.3733C840.373 40.9333 843.28 55.4267 843 70C841.587 81.2267 843.827 92.4133 843.307 103.653C843.413 137.44 841.56 171.213 841.373 205.013C841.627 221.04 840.08 237.027 840.707 253.067C838.84 310.787 838.493 368.56 837.013 426.293C836.16 441.333 836.693 456.4 836.067 471.453C834.84 471.827 833.613 472.16 832.387 472.44C830.573 472.96 827.947 472.787 827.267 474.987C824.72 482 825.52 489.667 825.213 497.013C825.293 509.44 825.173 521.88 824.387 534.293C823.787 544.067 824.813 553.893 823.813 563.64C823.2 570 818.787 574.947 815.067 579.8C815.573 567.467 814.907 555.12 815.56 542.787C816.467 528.413 815.56 514 816.493 499.627C816.653 485.88 816.48 472.12 817.293 458.387C817 440.573 818.173 422.8 817.92 404.987C817.867 394.76 818.92 384.56 818.68 374.32C818.36 360.987 819.587 347.68 819.253 334.333C818.987 324.093 820.027 313.893 820.013 303.667C819.773 285.413 820.933 267.187 820.653 248.933C821.76 232.067 820.933 215.173 821.867 198.32C821.973 185.453 821.787 172.573 822.6 159.733C822.453 139.24 823.48 118.787 823.333 98.3067C824.467 82.68 823.507 67 824.52 51.3733C825 41.1866 824.493 30.9867 824.88 20.8Z" fill="#6B6D6C"/>
<path d="M881.867 21.1867C887.28 20.52 892.813 20.32 898.173 21.5466C905.493 23.2266 913.013 23.4666 920.493 23.4666L920.52 24.8533C912.533 24.64 904.533 24.7733 896.587 25.4933C895.52 40.3067 896.52 55.1867 895.44 70C894.027 88.5067 895.333 107.093 894.013 125.613C892.8 142.92 893.867 160.293 892.72 177.6C891.56 194.92 892.427 212.307 891.387 229.627C890.32 247.76 891.08 265.947 890 284.093C889.093 300.653 889.72 317.24 888.76 333.8C887.76 351.12 888.453 368.493 887.44 385.813C886.44 403.12 887.133 420.493 886.093 437.8C885.08 454.8 885.853 471.827 884.88 488.827C883.64 508.493 884.64 528.24 883.267 547.907C883.36 563.093 882.707 578.267 882.973 593.44C881.173 603.147 882.8 612.987 881.84 622.733C879.187 608.8 877.28 594.68 878.2 580.467C876.227 581.96 873.107 582.533 872.4 585.213C867.96 597.733 867 611.107 863.76 623.933C862.587 621.12 861.28 618.4 859.787 615.773C858.36 615.72 856.933 615.653 855.52 615.627C854.747 609.213 855.373 602.693 856.733 596.413C858.373 586.907 859.733 577.347 861.44 567.84C863.507 555.867 862.28 543.68 862.907 531.613C864.013 512.627 863.96 493.6 863.933 474.6C866.107 474.253 868.293 473.907 870.493 473.587C871.213 469.44 871.4 465.24 871.587 461.067C871.733 443.573 871.867 426.067 872.587 408.587C875.373 288.747 878.28 168.893 881.173 49.0533C881.44 39.76 880.933 30.4533 881.867 21.1867Z" fill="#6B6D6C"/>
<path d="M853.267 19.84C858.52 20.2933 863.8 20.3066 869.067 20.6933C870.4 22.7333 871.627 24.8533 872.747 27.0266C871.373 30.6266 870.027 34.3467 869.867 38.2267C869.92 44.76 873 50.84 873.213 57.3467C866.253 57.0933 859.293 57.0667 852.347 56.7067C851.907 50.76 851.8 44.8133 851.44 38.8666C852.053 32.52 852.72 26.1867 853.267 19.84Z" fill="#656765"/>
<path d="M332.587 28.3467C338.467 26.0667 343.88 21.8266 350.533 22.44C364.507 22.9466 378.467 22.2666 392.427 22.24C392.44 22.9466 392.467 24.3333 392.48 25.0267C383 25.6667 373.507 26.3333 363.987 26.2133C356.56 26.0267 349.107 25.84 341.693 26.5067C340.12 48.6933 343.413 70.8267 342.84 93.0134C343.907 112.093 343.933 131.2 345.173 150.253C346.187 176.92 346.213 203.64 347.92 230.267C348.16 239.307 348.173 248.347 348.84 257.373C349.667 268.8 349.093 280.267 349.573 291.72C350.467 310.347 352.32 328.96 352.147 347.627C352.053 358.307 353.12 368.947 353.307 379.627C353.387 396.093 355.173 412.507 354.813 428.987C354.387 448.133 356 467.24 356.96 486.347C357.933 504.613 356.867 522.92 358.213 541.173C359.333 557.987 360.307 574.827 360.147 591.693C359.88 609.92 361.467 628.107 362.373 646.293C363.147 661.72 362.44 677.173 363.293 692.6C364.24 711.84 365.747 731.08 365.493 750.36C365.147 774.84 368.413 799.187 368.12 823.653C367.853 840.147 369.853 856.587 369.56 873.08C369.52 878.88 369.627 884.68 369.173 890.467C366.493 886.307 363.64 882.267 360.547 878.413C358.227 882.467 356.133 886.667 353.653 890.653C352.76 883.533 352.8 876.227 350.4 869.373C347.84 862.08 348.973 854.253 347.56 846.76C346.68 841.88 346.4 836.92 346.893 831.987C347.787 822.987 345.107 814 346.787 805.04C348.493 796.627 342.547 789.307 342.4 781.04C342.08 769.907 340.44 758.68 342.333 747.6C343.387 741.373 340.933 735.027 342.827 728.893C343.64 725.547 345.08 722.027 343.733 718.613C341.587 712.053 339.533 705.387 339.48 698.427C338.933 690.107 341.547 681.907 340.613 673.587C340.093 668.44 339.32 663.213 340.267 658.067C340.933 653.373 342.707 648.733 342.213 643.947C340.32 639.493 335.133 636.52 335.307 631.267C335.08 620.053 337.107 608.827 335.213 597.667C335.773 587.04 338.053 576.547 339.4 566C339.173 561.107 335.44 557.24 334.347 552.547C332.907 546.133 333.653 539.507 333.227 533.013C333.013 525.973 331.027 518.933 332.413 511.907C333.4 506.8 333.52 501.613 333.707 496.44C333.933 490.453 336.893 484.44 334.693 478.52C331.32 469.173 332.307 459.16 332.107 449.427C331.933 441.693 334.413 434.267 337.147 427.147C339 427.667 340.853 428.173 342.707 428.72C342.733 423.96 343.627 419.24 345.92 415.053C349.48 408.213 348.08 400.307 347.96 392.947C347.707 383.44 346.293 374.027 345.773 364.547C345.267 356.333 349.853 348.467 347.867 340.253C346.28 329.213 340.373 319.573 337.16 309.027C329.6 307.333 324.88 300.947 319.173 296.293C315.933 293.76 315.347 289.48 313.253 286.173C311.4 283.813 308.787 282.253 306.307 280.667C306.347 283.827 306.867 286.987 306.773 290.16C305.307 288.733 303.933 287.253 302.613 285.72C297.027 292.413 287.467 290.267 280.693 294.88C274.533 298.547 267.88 301.453 260.813 302.853C256.72 211.587 252.453 120.32 248.96 29.0266C256.627 28.3333 264.32 28.4667 271.987 29.0933C287.507 30.2267 303.053 28.56 318.587 29.3467C323.24 29.4267 328.093 29.88 332.587 28.3467Z" fill="#6D6F6E"/>
<path d="M341.693 26.5067C349.107 25.84 356.56 26.0267 363.987 26.2133C373.507 26.3333 383 25.6667 392.48 25.0267C394.373 79.6533 395.44 134.307 397.267 188.933C403.267 406.92 409.773 624.893 415.613 842.893C415.773 846.64 415.907 850.387 415.973 854.147C413.547 856.133 411 857.987 408.8 860.24C405.84 863.307 404.4 867.453 401.733 870.747C397.093 872.907 391.907 873.627 387.04 875.187C381.147 877.413 375.333 874.04 369.56 873.08C369.853 856.587 367.853 840.147 368.12 823.653C368.413 799.187 365.147 774.84 365.493 750.36C365.747 731.08 364.24 711.84 363.293 692.6C362.44 677.173 363.147 661.72 362.373 646.293C361.467 628.107 359.88 609.92 360.147 591.693C360.307 574.827 359.333 557.987 358.213 541.173C356.867 522.92 357.933 504.613 356.96 486.347C356 467.24 354.387 448.133 354.813 428.987C355.173 412.507 353.387 396.093 353.307 379.627C353.12 368.947 352.053 358.307 352.147 347.627C352.32 328.96 350.467 310.347 349.573 291.72C349.093 280.267 349.667 268.8 348.84 257.373C348.173 248.347 348.16 239.307 347.92 230.267C346.213 203.64 346.187 176.92 345.173 150.253C343.933 131.2 343.907 112.093 342.84 93.0134C343.413 70.8267 340.12 48.6933 341.693 26.5067Z" fill="#828383"/>
<path d="M896.587 25.4933C904.533 24.7733 912.533 24.64 920.52 24.8533C918.093 128.76 914.48 232.64 912.16 336.533C915.307 337.64 918.493 338.693 921.707 339.68C914.68 347.253 912.333 357.573 911.08 367.52C910.36 375.827 912 384.12 911.347 392.453C908 410.68 910.36 429.293 909.307 447.693C908.147 464.427 907.347 481.227 907.88 498.013C905.6 536.04 905.853 574.173 903.933 612.213C898.76 614.827 893.24 616.68 887.613 618.027C885.733 609.893 885.56 601.413 882.973 593.44C882.707 578.267 883.36 563.093 883.267 547.907C884.64 528.24 883.64 508.493 884.88 488.827C885.853 471.827 885.08 454.8 886.093 437.8C887.133 420.493 886.44 403.12 887.44 385.813C888.453 368.493 887.76 351.12 888.76 333.8C889.72 317.24 889.093 300.653 890 284.093C891.08 265.947 890.32 247.76 891.387 229.627C892.427 212.307 891.56 194.92 892.72 177.6C893.867 160.293 892.8 142.92 894.013 125.613C895.333 107.093 894.027 88.5067 895.44 70C896.52 55.1867 895.52 40.3067 896.587 25.4933ZM914.293 339.16C914.4 341.427 914.533 343.68 914.707 345.96C916.667 343.88 918.613 341.773 920.613 339.733C918.493 339.533 916.387 339.333 914.293 339.16Z" fill="#838584"/>
<path d="M848.08 47.5333C847.96 44.2666 849.773 41.5066 851.44 38.8666C851.8 44.8133 851.907 50.76 852.347 56.7067C859.293 57.0667 866.253 57.0933 873.213 57.3467C872.84 63.16 873.093 69.56 869.947 74.68C865.213 79.7733 857.52 78.8933 851.227 78.88C847.373 68.9067 847.907 58.0133 848.08 47.5333Z" fill="#242624"/>
<path d="M843 70C843.227 73.2667 843.467 76.56 844.387 79.72C845.827 83.96 850.093 86.6 851.24 90.9866C853.613 101.4 853.227 112.24 851.227 122.693C848.96 134.667 853.04 146.72 850.973 158.693C849.8 166.467 848.187 174.4 849.6 182.253C850.32 187.587 852.64 192.827 851.787 198.293C850.853 204.067 848.947 209.707 848.827 215.6C848.307 224.76 852.627 233.627 850.92 242.8C849.613 249.787 847.907 256.813 848.493 263.987C849.133 273.867 849.587 283.867 847.52 293.627C844.893 306.133 850.667 318.653 847.64 331.133C844.693 343.747 849.52 356.547 846.76 369.16C845.04 377.48 845.147 386.027 846.76 394.36C847.933 400 846.84 405.72 845.24 411.16C842.853 419.267 844.427 427.72 844.88 435.973C845.613 446.147 842.893 456.107 842.307 466.213C840.387 468.147 838.413 470.053 836.067 471.453C836.693 456.4 836.16 441.333 837.013 426.293C838.493 368.56 838.84 310.787 840.707 253.067C840.08 237.027 841.627 221.04 841.373 205.013C841.56 171.213 843.413 137.44 843.307 103.653C843.827 92.4133 841.587 81.2267 843 70Z" fill="#434543"/>
<path d="M306.307 280.667C308.787 282.253 311.4 283.813 313.253 286.173C315.347 289.48 315.933 293.76 319.173 296.293C324.88 300.947 329.6 307.333 337.16 309.027C340.373 319.573 346.28 329.213 347.867 340.253C349.853 348.467 345.267 356.333 345.773 364.547C346.293 374.027 347.707 383.44 347.96 392.947C348.08 400.307 349.48 408.213 345.92 415.053C343.627 419.24 342.733 423.96 342.707 428.72C340.853 428.173 339 427.667 337.147 427.147C334.413 434.267 331.933 441.693 332.107 449.427C332.307 459.16 331.32 469.173 334.693 478.52C336.893 484.44 333.933 490.453 333.707 496.44C333.52 501.613 333.4 506.8 332.413 511.907C331.027 518.933 333.013 525.973 333.227 533.013C333.653 539.507 332.907 546.133 334.347 552.547C335.44 557.24 339.173 561.107 339.4 566C338.053 576.547 335.773 587.04 335.213 597.667C337.107 608.827 335.08 620.053 335.307 631.267C335.133 636.52 340.32 639.493 342.213 643.947C342.707 648.733 340.933 653.373 340.267 658.067C339.32 663.213 340.093 668.44 340.613 673.587C341.547 681.907 338.933 690.107 339.48 698.427C339.533 705.387 341.587 712.053 343.733 718.613C345.08 722.027 343.64 725.547 342.827 728.893C340.933 735.027 343.387 741.373 342.333 747.6C340.44 758.68 342.08 769.907 342.4 781.04C342.547 789.307 348.493 796.627 346.787 805.04C345.107 814 347.787 822.987 346.893 831.987C346.4 836.92 346.68 841.88 347.56 846.76C348.973 854.253 347.84 862.08 350.4 869.373C352.8 876.227 352.76 883.533 353.653 890.653C356.133 886.667 358.227 882.467 360.547 878.413C363.64 882.267 366.493 886.307 369.173 890.467C368.707 892.8 368.08 895.12 367.373 897.413C360.32 906.507 356.893 917.6 352 927.853C347.933 937.28 342.827 946.2 338.48 955.48C333.107 966.307 334.773 979.64 340.733 989.867C339.893 991.693 338.987 993.493 338.133 995.333C335.987 992 334.48 988.187 331.707 985.32C327.72 983.12 322.907 983 318.467 983.187C314.76 983.267 312.427 986.613 309.933 988.907C319.347 992.173 329.147 994.027 338.693 996.853C351.147 1000.55 364.32 1001.72 376.28 1007C377.267 1011.75 377.8 1016.56 378.467 1021.36L378.613 1022.33H376.653C362.747 1017.4 348.187 1014.69 333.973 1010.83C294.4 1000.6 254.707 990.853 215.187 980.48C215.24 975.56 214.973 970.653 215.027 965.747C218.787 963.693 222.653 961.893 226.493 960.013C229.547 958.387 232.853 957.16 235.587 955.013C237.267 948.84 235.813 942.36 236.2 936.067C238.813 934.867 241.48 933.8 244.24 933C247.467 937.627 252.64 939.853 258.2 940.027C257.64 941.813 257.067 943.6 256.507 945.4C251.64 944.493 246.8 943.467 241.96 942.48C245.973 949.253 248.653 956.72 250.427 964.387C249.747 967.573 249.133 970.773 248.573 974C264.027 976.627 278.773 982.173 294.213 984.867C292.627 981.333 291.093 977.773 289.24 974.4C286.12 967.653 277.16 969.547 271.2 967.76C276.573 963.467 282.147 959.413 287.627 955.253C287.307 948.16 286.96 941.067 287.28 933.973C287.773 921.627 286.213 909.333 286.533 896.987C286.427 887.2 287.973 876.773 283.467 867.667C284.187 865.573 284.747 863.427 285.027 861.24C285.427 854.053 284.44 846.893 284.08 839.733C283.96 838.093 283.867 836.48 283.8 834.867C281.173 771.107 278.36 707.347 275.6 643.587C272.933 579.96 269.613 516.36 267.453 452.707C271.107 453 274.76 453.347 278.413 453.747C277.72 456.6 276.907 459.44 276.187 462.293C274.333 471.533 276.2 480.907 276.573 490.187C277.453 502.92 277.147 515.693 277.987 528.44C278.707 540.84 279.533 553.253 279.56 565.693C279.64 584.267 282.413 602.747 281.907 621.333C281.627 638.213 284.08 654.987 284.307 671.853C284.32 688.693 285.653 705.48 286.587 722.293C286.853 746.773 289.013 771.187 289.307 795.667C289.493 811.507 291.827 827.253 291.387 843.107C290.867 860.587 293.693 877.987 292.893 895.48C293.147 899.32 292.267 905.147 296.947 906.613C304.013 909.36 311.6 910.653 319.12 911.36C325.12 911.973 332.4 908.613 333.533 902.187C331.467 888.92 332.52 875.44 331.267 862.093C326.453 735.693 321.52 609.267 316.733 482.853C315.773 471.76 316.56 460.587 315.4 449.507C305.947 447.973 296.307 447.88 286.907 445.92C297.04 443.693 307.2 447.347 317.373 446.56C322.547 446.387 325.28 441.387 328.08 437.747C325.4 437.613 322.72 437.493 320.04 437.387C313.56 420.427 307.747 403.213 301.787 386.067C300.707 372.12 301.293 358.053 299.24 344.173C285.813 341.693 272.093 341.507 258.493 340.867C259.653 336.213 261.773 331.72 261.747 326.84C261.707 318.84 260.973 310.853 260.813 302.853C267.88 301.453 274.533 298.547 280.693 294.88C287.467 290.267 297.027 292.413 302.613 285.72C303.933 287.253 305.307 288.733 306.773 290.16C306.867 286.987 306.347 283.827 306.307 280.667ZM299.213 972.387C295.893 973.067 291.92 977.587 294.973 980.613C297.64 983.947 302.507 983.853 306.347 983.253C311.613 982.693 312.253 973.88 307.373 972.32C304.72 971.56 301.853 971.707 299.213 972.387Z" fill="#676968"/>
<path d="M258.493 340.867C272.093 341.507 285.813 341.693 299.24 344.173C301.293 358.053 300.707 372.12 301.787 386.067C287.96 386.133 274.28 383.76 260.48 383.227C258.987 375.48 259.307 367.56 258.84 359.733C258.667 353.44 258.08 347.147 258.493 340.867Z" fill="#565857"/>
<path d="M260.48 383.227C274.28 383.76 287.96 386.133 301.787 386.067C307.747 403.213 313.56 420.427 320.04 437.387C322.72 437.493 325.4 437.613 328.08 437.747C325.28 441.387 322.547 446.387 317.373 446.56C307.2 447.347 297.04 443.693 286.907 445.92C284.533 447.28 282.373 449.107 279.747 449.987C275.587 450.427 271.427 449.547 267.307 449.053C266.173 433.44 266.067 417.787 265.08 402.187C264.747 395.6 262.227 389.48 260.48 383.227Z" fill="#444540"/>
<path d="M909.307 447.693C910.36 429.293 908 410.68 911.347 392.453C913.4 397.907 913.56 403.76 912.96 409.493C912.08 436.013 911.613 462.547 910.693 489.067C910.747 492.293 909.213 495.173 907.88 498.013C907.347 481.227 908.147 464.427 909.307 447.693Z" fill="#AAACAB"/>
<path d="M851.587 446.08C854.293 444.84 857.2 444.08 860.173 443.853C864.627 453.493 863.507 464.293 863.933 474.6C857.747 473.893 850.973 474.28 845.587 470.613C847.48 462.413 848.907 454.067 851.587 446.08Z" fill="#212322"/>
<path d="M279.747 449.987C282.373 449.107 284.533 447.28 286.907 445.92C296.307 447.88 305.947 447.973 315.4 449.507C316.56 460.587 315.773 471.76 316.733 482.853C321.52 609.267 326.453 735.693 331.267 862.093C332.52 875.44 331.467 888.92 333.533 902.187C323.52 899.573 313.267 897.973 303.347 894.96C301.293 878.32 301.76 861.52 300.52 844.827C295.787 728.253 290.68 611.707 285.933 495.147C284.973 482.787 286.04 470.267 283.56 458.04C281.04 459.347 278.587 460.773 276.187 462.293C276.907 459.44 277.72 456.6 278.413 453.747C274.76 453.347 271.107 453 267.453 452.707C267.413 451.8 267.347 449.96 267.307 449.053C271.427 449.547 275.587 450.427 279.747 449.987Z" fill="#545654"/>
<path d="M123.36 841.947C128.333 840.6 131.747 836.52 135.64 833.44C139.373 834.667 143.107 835.893 146.827 837.16C142.92 843.28 139.773 849.853 135.88 856C127.947 854.053 119.6 854.2 111.813 851.747C106.907 850.093 108.133 844.093 107.413 840.08C112.48 841.867 118.027 843.28 123.36 841.947Z" fill="#545654"/>
<path d="M276.187 462.293C278.587 460.773 281.04 459.347 283.56 458.04C286.04 470.267 284.973 482.787 285.933 495.147C290.68 611.707 295.787 728.253 300.52 844.827C301.76 861.52 301.293 878.32 303.347 894.96C313.267 897.973 323.52 899.573 333.533 902.187C332.4 908.613 325.12 911.973 319.12 911.36C311.6 910.653 304.013 909.36 296.947 906.613C292.267 905.147 293.147 899.32 292.893 895.48C293.693 877.987 290.867 860.587 291.387 843.107C291.827 827.253 289.493 811.507 289.307 795.667C289.013 771.187 286.853 746.773 286.587 722.293C285.653 705.48 284.32 688.693 284.307 671.853C284.08 654.987 281.627 638.213 281.907 621.333C282.413 602.747 279.64 584.267 279.56 565.693C279.533 553.253 278.707 540.84 277.987 528.44C277.147 515.693 277.453 502.92 276.573 490.187C276.2 480.907 274.333 471.533 276.187 462.293Z" fill="#3F4240"/>
<path d="M836.067 471.453C838.413 470.053 840.387 468.147 842.307 466.213C843.387 467.68 844.453 469.16 845.587 470.613C850.973 474.28 857.747 473.893 863.933 474.6C863.96 493.6 864.013 512.627 862.907 531.613C862.28 543.68 863.507 555.867 861.44 567.84C851.173 566.24 840.827 565.173 830.6 563.333C831.867 533.053 832.147 502.747 832.387 472.44C833.613 472.16 834.84 471.827 836.067 471.453Z" fill="#595B5A"/>
<path d="M827.267 474.987C827.947 472.787 830.573 472.96 832.387 472.44C832.147 502.747 831.867 533.053 830.6 563.333C829.813 565.587 828.867 567.787 828.053 570.053C820.693 574.053 818.653 582.693 814.893 589.533C814.92 586.28 814.947 583.027 815.067 579.8C818.787 574.947 823.2 570 823.813 563.64C824.813 553.893 823.787 544.067 824.387 534.293C825.173 521.88 825.293 509.44 825.213 497.013C825.52 489.667 824.72 482 827.267 474.987Z" fill="#424441"/>
<path d="M459.853 522.773C468.84 518.48 478.52 514.413 488.693 515.067C495.867 515.587 502.947 516.973 510.093 517.707C517.347 518.747 524.867 518.653 531.813 521.2C538.027 524.08 543.253 528.773 549.667 531.307C575.573 542.453 600.973 554.707 626.827 565.96C633.293 568.72 639.387 572.48 646.227 574.32C656.36 576.6 667.067 573.84 677.067 577.067C683.04 578.947 687.547 583.507 692.84 586.653C697.08 589.2 701.973 590.213 706.707 591.44C718.44 594.2 729.133 599.933 740.107 604.733C750.787 609.76 761.96 613.72 772.373 619.347C769.92 622.107 767.44 624.853 765.027 627.653C748.907 628.267 732.84 630.96 716.68 629.773C709.133 629.2 701.573 630.72 694.027 629.853C686.867 629.093 679.787 627.813 672.68 626.707C669.28 621.253 662.827 619.507 657.36 616.92C648.64 612.853 640.227 608.147 631.413 604.293C618.56 598.68 606.36 591.747 593.533 586.093C581.347 580.707 569.72 574.16 557.533 568.76C548.413 564.747 539.64 560.013 530.653 555.733C506.92 545.04 484.067 532.387 459.853 522.773Z" fill="black"/>
<path d="M746.573 637.56C754.453 636.053 762.507 635.587 770.52 635.907C770.267 637.4 770.027 638.92 769.8 640.453C762.027 639.76 754.32 638.493 746.573 637.56Z" fill="black"/>
<path d="M567.107 653.24C579.56 645.307 593.373 654.053 606.44 654.84C617.64 655.227 628.827 656 639.84 658.213C669.64 663.187 699.8 665.693 729.907 667.933C729.813 667.24 729.627 665.827 729.533 665.133C739.373 666.587 749.187 668.267 759.067 669.507C764.36 670.04 769.373 672.067 773.733 675.093C778.187 678.173 780.56 683.093 782.92 687.773C784.187 690.653 787.547 691.093 790.267 691.747C795.36 692.747 800.507 693.6 805.573 694.787C803.76 695.773 802 696.853 800.24 697.933C790.533 693.467 779.68 693.467 769.32 691.72C758.027 690.133 747.093 686.64 735.8 685.067C698.027 679.533 660.347 673.347 622.573 667.8C612.667 666.373 603.147 663.12 593.333 661.293C584.373 659.44 574.813 658.64 567.107 653.24Z" fill="black"/>
<path d="M40.6533 652.427C45.9867 651.64 51.3467 652.733 56.5867 653.693C70.9467 656.427 85.3867 658.8 99.7733 661.387C106.24 661.88 106.267 669.707 110.293 673.307C115.6 678.267 121.947 682.027 126.907 687.427C135.747 696.827 145.947 704.813 154.88 714.133C162.093 721.6 170.293 728.013 177.533 735.467C185.88 744.027 195.347 751.413 203.547 760.12C210.867 767.933 219.147 774.72 226.867 782.133C236.747 792.267 247.733 801.227 257.573 811.413C266.52 819 274.307 827.907 283.8 834.867C283.867 836.48 283.96 838.093 284.08 839.733C274.013 839.573 263.867 840.32 253.893 838.707C249.04 837.867 244.12 837.8 239.24 838.307C233.08 838.933 227.027 837.28 221.093 835.827C206.947 832.493 192.68 829.72 178.52 826.467C173.347 825.093 168.053 826.147 163.067 827.667C158.92 827.213 154.813 826.453 150.667 826C151.333 825.587 152.667 824.787 153.333 824.387C147.8 816.067 140.467 809.213 133.88 801.787C126.773 793.787 119.293 786.12 112.36 777.973C108.4 773.24 103.453 769.307 97.64 767.133C88.8667 763.827 78.7733 761.24 73.5333 752.667C69.68 747.92 74.4 742.08 73.44 736.827C71.0267 731.613 66.3733 727.933 62.64 723.72C48.1867 707.96 33.6267 692.293 19.5467 676.187C14.7067 670.347 7.04001 668.653 0.34668 665.907C8.25335 661.027 17.52 659.56 26.1467 656.507C30.92 654.947 35.6667 653.173 40.6533 652.427Z" fill="black"/>
<path d="M106.453 839.707L107.413 840.08C108.133 844.093 106.907 850.093 111.813 851.747C119.6 854.2 127.947 854.053 135.88 856C139.573 860.267 144.36 863.547 150.08 864.293C179.2 870.44 208.133 877.44 237.24 883.653C239.373 884.147 241.507 884.72 243.627 885.32C244.253 891.373 244.373 897.467 244.76 903.547C245 913.347 246.987 923.347 244.24 933C241.48 933.8 238.813 934.867 236.2 936.067C235.813 942.36 237.267 948.84 235.587 955.013C232.853 957.16 229.547 958.387 226.493 960.013C226.6 954.76 228.2 948.8 224.827 944.213C220.28 938.493 214.88 933.44 210.827 927.333C216.68 921.707 226.747 924.947 231.707 918.027C233.347 915.813 236.253 913.133 234.68 910.16C232.027 903.573 225.387 899.773 218.693 898.427C202.107 894.653 185.533 890.853 168.96 887C154.893 883.387 140.267 881.573 126.853 875.733C118.827 872.347 110 871.653 101.973 868.32C94.9334 865.467 87.8934 862.493 81.4267 858.48C88.5334 852.56 97.4667 849.667 106.587 848.947C106.733 845.853 106.667 842.76 106.453 839.707Z" fill="black"/>
<path d="M462.627 941.947C467.253 939.427 472.28 936.227 477.787 937.92C538 951.667 598.347 964.893 658.533 978.76C661.587 979.453 664.76 979.187 667.773 978.347C671.08 977.427 674.573 976.8 677.973 977.693C686.347 979.56 694.84 981.267 702.867 984.4C701.733 989.24 701.493 994.213 701.227 999.16C701.147 1003.13 696.253 1004.08 693.147 1004.51C681.88 1005.35 671.133 1001.11 660.24 999C650.587 996.6 640.56 996.907 630.8 995.227C581.32 983.827 531.84 972.467 482.36 961.067C475.453 959.2 468.4 957.24 461.173 957.827C459.933 955.427 458.76 952.84 456.693 951.067C454.387 949.68 451.72 949.08 449.147 948.48C451.827 947.187 454.52 945.947 457.213 944.68C459.027 943.787 460.827 942.88 462.627 941.947Z" fill="black"/>
<path d="M828.053 570.053C828.867 567.787 829.813 565.587 830.6 563.333C840.827 565.173 851.173 566.24 861.44 567.84C859.733 577.347 858.373 586.907 856.733 596.413C855.373 602.693 854.747 609.213 855.52 615.627C856.933 615.653 858.36 615.72 859.787 615.773C861.28 618.4 862.587 621.12 863.76 623.933C867 611.107 867.96 597.733 872.4 585.213C873.107 582.533 876.227 581.96 878.2 580.467C877.28 594.68 879.187 608.8 881.84 622.733C881.707 625.067 881.467 627.4 881.24 629.747C879.093 630.48 876.987 631.307 874.88 632.107C874.72 633.04 874.387 634.907 874.227 635.84C879.56 636.733 888.387 639.333 890.24 632.093C891.307 628.8 892.24 625.427 894.013 622.44C896.613 621.667 900.467 621.427 901.853 624.333C904.747 630.84 905.613 638.027 908.013 644.72C905.733 643.347 903.6 641.6 901.04 640.867C896.04 640.773 891.067 643 886.12 641.493C866.693 635.653 846.373 634.027 826.467 630.627C816.747 628.773 806.907 627.693 797.12 626.267C797.093 625.747 797.053 624.72 797.027 624.213C798.187 622.6 799.387 621.013 800.587 619.44C802.867 619.84 805.133 620.293 807.387 620.893C811.573 622.253 815.56 624.173 819.573 625.973C823.427 607.507 825.173 588.68 828.053 570.053Z" fill="#636667"/>
<path d="M814.893 589.533C818.653 582.693 820.693 574.053 828.053 570.053C825.173 588.68 823.427 607.507 819.573 625.973C815.56 624.173 811.573 622.253 807.387 620.893C807.56 616.08 810.947 612.88 813.947 609.573C815.627 603.08 814.333 596.187 814.893 589.533Z" fill="#323533"/>
<path d="M882.973 593.44C885.56 601.413 885.733 609.893 887.613 618.027C893.24 616.68 898.76 614.827 903.933 612.213C906.96 615.827 909.867 619.627 911.427 624.147C909.653 625.293 907.973 626.587 906.32 627.907C907.453 634.12 908.96 640.267 910.667 646.36C910.013 645.947 908.68 645.133 908.013 644.72C905.613 638.027 904.747 630.84 901.853 624.333C900.467 621.427 896.613 621.667 894.013 622.44C892.24 625.427 891.307 628.8 890.24 632.093C887.227 631.333 884.227 630.547 881.24 629.747C881.467 627.4 881.707 625.067 881.84 622.733C882.8 612.987 881.173 603.147 882.973 593.44Z" fill="#7A7B7B"/>
<path d="M785.76 617.813C790.733 617.933 795.68 618.64 800.587 619.44C799.387 621.013 798.187 622.6 797.027 624.213C793.267 624.08 789.533 623.853 785.813 623.52C785.8 621.6 785.76 619.693 785.76 617.813Z" fill="#353A3E"/>
<path d="M588.96 623.933C594.573 621.493 600.6 617.173 606.947 619.573C610.96 620.88 615.173 620.867 619.347 620.933C622.467 620.707 623.693 624.307 625.573 626.187C621.88 628.84 618.587 632.067 614.573 634.267C609.827 636.747 604.307 636.267 599.12 636.547C598.787 638.6 598.467 640.68 598.2 642.76C596.973 639 595.76 634.933 592.173 632.747C589.067 630.867 589.253 627.067 588.96 623.933Z" fill="#2D2D2E"/>
<path d="M778.16 623.32C780.493 621.227 782.96 619.253 785.76 617.813C785.76 619.693 785.8 621.6 785.813 623.52C789.533 623.853 793.267 624.08 797.027 624.213C797.053 624.72 797.093 625.747 797.12 626.267C806.907 627.693 816.747 628.773 826.467 630.627C846.373 634.027 866.693 635.653 886.12 641.493C891.067 643 896.04 640.773 901.04 640.867C903.6 641.6 905.733 643.347 908.013 644.72C908.68 645.133 910.013 645.947 910.667 646.36C917.787 649.387 925.427 650.867 932.68 653.507C941.973 656.88 951.347 660.04 960.747 663.133C967.827 665.507 975.48 665.96 982.253 669.28C986.867 671.587 991.947 672.733 997.067 673.28C1011.84 675.027 1026.52 677.573 1041.29 679.36C1046.8 680 1052.32 681.013 1057.4 683.333C1055.09 685.547 1052.81 687.76 1050.56 690.027C1057.35 691.427 1063.93 693.733 1069.68 697.68C1071.43 696.693 1073.11 695.573 1074.68 694.32C1074.17 697.107 1074.04 699.973 1074.27 702.827C1083.41 707.973 1094.17 708.733 1104.33 706.693C1103.29 709.867 1104.03 715.08 1099.84 715.987C1085.6 718.4 1071.99 710.093 1057.76 712.853C1055.75 704.933 1053 696.947 1047.72 690.573C1044.92 686.987 1040 686.92 1035.91 686.253C1019.49 684.573 1003.24 681.653 986.867 679.573C981.907 679.04 977.267 677.133 972.933 674.76C965.867 670.92 957.6 670.867 950.12 668.253C934.507 662.893 918.893 657.547 903.12 652.64C898.307 651.2 894.013 648.573 889.813 645.933C884.813 642.693 878.76 642.24 873.067 641.227C866.253 639.92 859.44 638.6 852.573 637.773C833.867 635.453 815.333 631.96 796.6 630C796.76 630.747 797.093 632.24 797.253 633C794.68 632.76 792.107 632.667 789.547 632.667C785.6 629.72 781.84 626.573 778.16 623.32Z" fill="#515558"/>
<path d="M911.427 624.147C917.84 620.2 925.64 620.693 932.813 621.653C933.973 632.253 933.04 642.907 932.68 653.507C925.427 650.867 917.787 649.387 910.667 646.36C908.96 640.267 907.453 634.12 906.32 627.907C907.973 626.587 909.653 625.293 911.427 624.147Z" fill="#2F302E"/>
<path d="M644.4 624.12C653.907 623.147 663.267 625.733 672.68 626.707C679.787 627.813 686.867 629.093 694.027 629.853C701.573 630.72 709.133 629.2 716.68 629.773C732.84 630.96 748.907 628.267 765.027 627.653C767.56 627.707 770.093 627.893 772.653 628.067C766.453 633.053 758.187 632.933 750.667 633.227C736.96 633.52 723.333 635.507 709.627 635.013C700.947 634.573 692.387 637.52 683.72 636.08C670.52 633.96 657.28 632.147 644.067 630.053C640.107 629.773 635.133 628.413 632.067 631.76C627.96 635.947 625.573 641.413 622.933 646.56C614.867 644.093 605.973 646.347 598.2 642.76C598.467 640.68 598.787 638.6 599.12 636.547C604.307 636.267 609.827 636.747 614.573 634.267C618.587 632.067 621.88 628.84 625.573 626.187C631.733 624.733 638.107 624.693 644.4 624.12Z" fill="#515457"/>
<path d="M778.16 623.32C781.84 626.573 785.6 629.72 789.547 632.667C785.053 632.667 780.573 632.68 776.107 633.053C777.893 639.56 779.893 646.107 779.92 652.933C780.333 658.133 779.307 663.76 781.64 668.627C783.907 670.92 787.613 670.933 790.547 672.067L790.627 673.187C789.867 673.307 788.347 673.56 787.573 673.693C788.44 676.24 789.413 678.747 790.507 681.24C784.64 680.027 778.84 678.28 773.733 675.093C769.373 672.067 764.36 670.04 759.067 669.507C749.187 668.267 739.373 666.587 729.533 665.133C697.52 660.8 665.653 655.507 633.653 651.173C629.707 650.667 626.267 648.573 622.933 646.56C625.573 641.413 627.96 635.947 632.067 631.76C635.133 628.413 640.107 629.773 644.067 630.053C657.28 632.147 670.52 633.96 683.72 636.08C692.387 637.52 700.947 634.573 709.627 635.013C723.333 635.507 736.96 633.52 750.667 633.227C758.187 632.933 766.453 633.053 772.653 628.067C774.533 626.547 776.333 624.92 778.16 623.32ZM746.573 637.56C754.32 638.493 762.027 639.76 769.8 640.453C770.027 638.92 770.267 637.4 770.52 635.907C762.507 635.587 754.453 636.053 746.573 637.56Z" fill="#3E403F"/>
<path d="M796.6 630C815.333 631.96 833.867 635.453 852.573 637.773C859.44 638.6 866.253 639.92 873.067 641.227C873.893 642.68 874.747 644.16 875.6 645.653C874.64 651.133 874.88 656.867 873.013 662.173C869.627 667.173 865.067 671.347 862.093 676.667C866.387 679.44 871.147 681.4 875.373 684.307C872.493 684.373 869.64 684.733 866.8 685.133C864.16 683.72 861.587 682.213 859.027 680.72C857.36 672.72 850.493 667.907 845.333 662.227C842.227 658.493 837 658.547 832.613 657.827C821.587 656.733 810.6 654.893 799.507 654.827C798.893 660.387 799.147 666 798.653 671.587C795.987 672.16 793.307 672.72 790.627 673.187L790.547 672.067C791.267 660.44 788.453 648.253 792.787 637.12C795.573 637.667 798.227 638.76 800.573 640.4C800.84 643.507 800.96 646.613 801 649.747C803.64 650.16 806.333 650.16 809.013 649.8C808.387 645.32 807.88 640.64 805.707 636.613C804.107 633.507 800.213 633.587 797.253 633C797.093 632.24 796.76 630.747 796.6 630Z" fill="#2A2C2B"/>
<path d="M874.88 632.107C876.987 631.307 879.093 630.48 881.24 629.747C884.227 630.547 887.227 631.333 890.24 632.093C888.387 639.333 879.56 636.733 874.227 635.84C874.387 634.907 874.72 633.04 874.88 632.107Z" fill="#3C4248"/>
<path d="M776.107 633.053C780.573 632.68 785.053 632.667 789.547 632.667C792.107 632.667 794.68 632.76 797.253 633C800.213 633.587 804.107 633.507 805.707 636.613C807.88 640.64 808.387 645.32 809.013 649.8C806.333 650.16 803.64 650.16 801 649.747C800.96 646.613 800.84 643.507 800.573 640.4C798.227 638.76 795.573 637.667 792.787 637.12C788.453 648.253 791.267 660.44 790.547 672.067C787.613 670.933 783.907 670.92 781.64 668.627C779.307 663.76 780.333 658.133 779.92 652.933C779.893 646.107 777.893 639.56 776.107 633.053Z" fill="#20211D"/>
<path d="M873.067 641.227C878.76 642.24 884.813 642.693 889.813 645.933C894.013 648.573 898.307 651.2 903.12 652.64C918.893 657.547 934.507 662.893 950.12 668.253C957.6 670.867 965.867 670.92 972.933 674.76C977.267 677.133 981.907 679.04 986.867 679.573C1003.24 681.653 1019.49 684.573 1035.91 686.253C1040 686.92 1044.92 686.987 1047.72 690.573C1053 696.947 1055.75 704.933 1057.76 712.853C1049.76 714.173 1041.81 711.973 1033.93 710.893C998.827 705.693 963.733 700.413 928.613 695.253C926.227 694.907 923.84 694.6 921.467 694.307C921.733 695.933 922.013 697.56 922.32 699.2C918.173 701.6 914.16 704.253 909.787 706.24C909.453 703.373 909.027 700.533 908.52 697.707C894.667 696.067 880.813 694.48 866.947 693.107C866.907 690.44 866.867 687.787 866.8 685.133C869.64 684.733 872.493 684.373 875.373 684.307C879.467 685.427 883.587 686.547 887.84 686.973C888.253 679.173 888.48 671.373 888.88 663.587C888.933 658.747 889.52 653.707 887.813 649.093C884.107 646.907 879.72 646.48 875.6 645.653C874.747 644.16 873.893 642.68 873.067 641.227Z" fill="#3F413F"/>
<path d="M146.827 837.16C147.987 836.307 149.173 835.52 150.4 834.787C165.813 839.573 181.747 842.413 197.44 846.093C206.04 847.6 214.627 850.84 223.453 849.867C229.04 846.107 223.267 839.867 221.093 835.827C227.027 837.28 233.08 838.933 239.24 838.307C244.12 837.8 249.04 837.867 253.893 838.707C263.867 840.32 274.013 839.573 284.08 839.733C284.44 846.893 285.427 854.053 285.027 861.24C276.907 860.373 268.867 858.733 261.133 856.08C268.667 855.813 276.213 855.707 283.76 855.387C283.867 852.893 283.907 850.413 283.853 847.933C268.08 847.573 252.293 848.227 236.533 846.853C236.933 859.12 237.907 871.373 237.24 883.653C208.133 877.44 179.2 870.44 150.08 864.293C144.36 863.547 139.573 860.267 135.88 856C139.773 849.853 142.92 843.28 146.827 837.16Z" fill="#3F413F"/>
<path d="M455.907 879.467C469.187 882.28 481 889.147 493.56 894.013C507.413 899.627 521 905.853 534.84 911.48C540.693 913.867 547 914.573 553.093 916.067C559 917.307 561.28 924.32 567.12 925.8C573.933 927.747 580.987 928.68 587.853 930.44C608.96 935.667 630.493 939.053 651.533 944.573C658.053 955.253 665.613 965.707 667.773 978.347C664.76 979.187 661.587 979.453 658.533 978.76C598.347 964.893 538 951.667 477.787 937.92C472.28 936.227 467.253 939.427 462.627 941.947C460.347 938.493 457.76 935.04 456.96 930.893C456.133 926.307 456.36 921.613 456.32 916.987C456.4 904.48 455.493 891.973 455.907 879.467ZM462.653 886.293C463.76 890.08 464.267 894.733 467.787 897.173C471.773 899.48 476.4 900.32 480.8 901.52C490.307 903.747 499.693 906.907 509.52 907.453C502.72 902.067 494.427 899.267 486.64 895.72C478.707 892.427 471.027 888.387 462.653 886.293Z" fill="#3F413F"/>
<path d="M875.6 645.653C879.72 646.48 884.107 646.907 887.813 649.093C889.52 653.707 888.933 658.747 888.88 663.587C888.48 671.373 888.253 679.173 887.84 686.973C883.587 686.547 879.467 685.427 875.373 684.307C871.147 681.4 866.387 679.44 862.093 676.667C865.067 671.347 869.627 667.173 873.013 662.173C874.88 656.867 874.64 651.133 875.6 645.653Z" fill="#1D1E1B"/>
<path d="M799.507 654.827C810.6 654.893 821.587 656.733 832.613 657.827C837 658.547 842.227 658.493 845.333 662.227C850.493 667.907 857.36 672.72 859.027 680.72C852.533 676.653 844.973 675 837.453 674.2C828.44 673.227 819.56 671.093 810.507 670.573C804.84 670.12 801.227 675.293 797.453 678.653C814.6 683.627 832.787 683.933 849.68 689.987C841.787 689.147 833.893 688.28 826.093 686.88C814.227 684.947 802.24 683.813 790.507 681.24C789.413 678.747 788.44 676.24 787.573 673.693C788.347 673.56 789.867 673.307 790.627 673.187C793.307 672.72 795.987 672.16 798.653 671.587C799.147 666 798.893 660.387 799.507 654.827Z" fill="#4E4F4F"/>
<path d="M797.453 678.653C801.227 675.293 804.84 670.12 810.507 670.573C819.56 671.093 828.44 673.227 837.453 674.2C844.973 675 852.533 676.653 859.027 680.72C861.587 682.213 864.16 683.72 866.8 685.133C866.867 687.787 866.907 690.44 866.947 693.107C861.133 692.36 855.4 691.173 849.68 689.987C832.787 683.933 814.6 683.627 797.453 678.653Z" fill="#5D6062"/>
<path d="M773.733 675.093C778.84 678.28 784.64 680.027 790.507 681.24C802.24 683.813 814.227 684.947 826.093 686.88C833.893 688.28 841.787 689.147 849.68 689.987C855.4 691.173 861.133 692.36 866.947 693.107C880.813 694.48 894.667 696.067 908.52 697.707C909.027 700.533 909.453 703.373 909.787 706.24C903.52 707.84 896.96 708.08 890.533 707.733C883.68 706.147 876.24 703.867 869.453 706.96C865.56 704.307 861.8 701.413 857.493 699.48C847.76 696.987 837.68 696.373 827.827 694.467C820.52 693.187 812.533 691.08 805.573 694.787C800.507 693.6 795.36 692.747 790.267 691.747C787.547 691.093 784.187 690.653 782.92 687.773C780.56 683.093 778.187 678.173 773.733 675.093Z" fill="#292C2B"/>
<path d="M1050.56 690.027C1052.81 687.76 1055.09 685.547 1057.4 683.333C1063.91 686.24 1072.16 686.347 1076.48 692.84C1076.03 693.213 1075.13 693.947 1074.68 694.32C1073.11 695.573 1071.43 696.693 1069.68 697.68C1063.93 693.733 1057.35 691.427 1050.56 690.027Z" fill="#696D72"/>
<path d="M1076.48 692.84C1078.97 690.973 1081.69 689.4 1084.48 687.987C1089.03 686.067 1092.92 689.907 1096.52 692.133C1101.43 690.213 1106.71 689.72 1111.85 691.067C1111.63 697.187 1109.04 702.76 1104.33 706.693C1094.17 708.733 1083.41 707.973 1074.27 702.827C1074.04 699.973 1074.17 697.107 1074.68 694.32C1075.13 693.947 1076.03 693.213 1076.48 692.84Z" fill="#2D2E2F"/>
<path d="M805.573 694.787C812.533 691.08 820.52 693.187 827.827 694.467C837.68 696.373 847.76 696.987 857.493 699.48C852.187 701.373 847.107 703.907 841.613 705.213C837.48 706.187 833.32 704.8 829.307 703.987C819.013 701.387 808.227 702.133 798 699.28C798.56 698.947 799.68 698.267 800.24 697.933C802 696.853 803.76 695.773 805.573 694.787Z" fill="#6D7073"/>
<path d="M921.467 694.307C923.84 694.6 926.227 694.907 928.613 695.253C926.813 696.387 925.027 697.547 923.213 698.667L922.32 699.2C922.013 697.56 921.733 695.933 921.467 694.307Z" fill="#6D6E6D"/>
<path d="M922.32 699.2L923.213 698.667C939.973 703.507 957.413 705.147 974.587 707.853C990.107 710.333 1005.8 711.96 1021.04 715.933C1036.25 720.027 1052.41 718.413 1067.53 722.96C1072.6 724.107 1074.27 729.253 1074.87 733.813C1064.67 734.92 1054.64 732.573 1044.63 731.133C1010.75 728.667 977.427 721.72 943.813 717.107C926.067 713.92 907.92 712.72 890.533 707.733C896.96 708.08 903.52 707.84 909.787 706.24C914.16 704.253 918.173 701.6 922.32 699.2Z" fill="black"/>
<path d="M500.933 857.947C599.987 805.107 698.867 751.947 798 699.28C808.227 702.133 819.013 701.387 829.307 703.987C833.32 704.8 837.48 706.187 841.613 705.213C847.107 703.907 852.187 701.373 857.493 699.48C861.8 701.413 865.56 704.307 869.453 706.96C867.373 708.067 865.36 709.293 863.347 710.507C860.44 707.933 857.933 704.947 854.88 702.56C839.933 709 825.347 716.253 811.093 724.107C799.787 729.307 789.88 736.987 778.68 742.373C773.427 744.987 768.373 747.947 763.387 751.027C755.333 756.027 746.667 759.92 738.667 765C729.267 770.973 718.853 775.093 709.56 781.227C700.253 787.293 690 791.72 680.6 797.613C674.2 801.587 667.627 805.24 660.933 808.667C651.04 813.693 641.96 820.133 632.013 825.067C625.293 828.4 618.76 832.107 612.413 836.12C602.16 842.573 591.053 847.52 580.667 853.76C563.44 864.307 545.067 872.88 528.093 883.84C526.027 885.267 524.08 886.84 522.147 888.44C510.04 883.52 497.907 878.693 485.92 873.533C483.253 872.787 482.32 870.333 481.44 868.04C488.067 864.933 494.493 861.427 500.933 857.947Z" fill="#787C82"/>
<path d="M811.093 724.107C825.347 716.253 839.933 709 854.88 702.56C857.933 704.947 860.44 707.933 863.347 710.507C809.213 741.987 754.76 772.907 700.453 804.08C647.28 834.867 593.667 864.92 540.68 896.04C534.467 893.573 528.28 891.08 522.147 888.44C524.08 886.84 526.027 885.267 528.093 883.84C545.067 872.88 563.44 864.307 580.667 853.76C591.053 847.52 602.16 842.573 612.413 836.12C618.76 832.107 625.293 828.4 632.013 825.067C641.96 820.133 651.04 813.693 660.933 808.667C667.627 805.24 674.2 801.587 680.6 797.613C690 791.72 700.253 787.293 709.56 781.227C718.853 775.093 729.267 770.973 738.667 765C746.667 759.92 755.333 756.027 763.387 751.027C768.373 747.947 773.427 744.987 778.68 742.373C789.88 736.987 799.787 729.307 811.093 724.107Z" fill="#898C90"/>
<path d="M1087.39 717.707C1091.15 717.093 1094.93 716.6 1098.76 716.4L1098.75 718.453C1094.93 718.413 1091.15 718.067 1087.39 717.707Z" fill="#121312"/>
<path d="M95.2667 825.213C102.627 821.92 109.88 818.16 117.733 816.2C122.693 814.907 126.333 820.187 131.213 819.973C135.12 819.947 139.04 819.973 142.92 820.6C143.093 823.44 143.24 826.28 143.307 829.147C140.653 830.373 138.08 831.8 135.64 833.44C131.747 836.52 128.333 840.6 123.36 841.947C118.027 843.28 112.48 841.867 107.413 840.08L106.453 839.707C103.173 838.453 99.84 837.36 96.5067 836.293C95.96 832.613 95.6 828.907 95.2667 825.213Z" fill="#2E2E2F"/>
<path d="M163.067 827.667C168.053 826.147 173.347 825.093 178.52 826.467C192.68 829.72 206.947 832.493 221.093 835.827C223.267 839.867 229.04 846.107 223.453 849.867C214.627 850.84 206.04 847.6 197.44 846.093C181.747 842.413 165.813 839.573 150.4 834.787C154.547 832.28 158.773 829.92 163.067 827.667Z" fill="#4C5055"/>
<path d="M143.307 829.147C145.747 828.053 148.227 827.053 150.667 826C154.813 826.453 158.92 827.213 163.067 827.667C158.773 829.92 154.547 832.28 150.4 834.787C149.173 835.52 147.987 836.307 146.827 837.16C143.107 835.893 139.373 834.667 135.64 833.44C138.08 831.8 140.653 830.373 143.307 829.147Z" fill="#65696F"/>
<path d="M415.613 842.893C423.373 848.547 433.427 848.6 442.493 850.507C439.453 853.04 437.68 856.507 437.08 860.4C443 861.747 449.72 863.573 455.44 860.627C457.28 858.68 458.453 856.213 459.827 853.947C467.187 855.48 474.293 858.853 479.133 864.787C471.72 870.2 461.653 871.92 455.907 879.467C455.493 891.973 456.4 904.48 456.32 916.987C456.36 921.613 456.133 926.307 456.96 930.893C457.76 935.04 460.347 938.493 462.627 941.947C460.827 942.88 459.027 943.787 457.213 944.68C456.32 943.427 455.44 942.2 454.573 940.973C454.76 931 454.693 921.013 453.987 911.067C453.107 899.373 453.773 887.613 452.827 875.933C441.213 872.4 429.36 869.627 417.427 867.493C416.853 874.307 416.507 881.16 416.64 888.027C415.6 876.747 416.013 865.44 415.973 854.147C415.907 850.387 415.773 846.64 415.613 842.893Z" fill="#626467"/>
<path d="M236.533 846.853C252.293 848.227 268.08 847.573 283.853 847.933C283.907 850.413 283.867 852.893 283.76 855.387C276.213 855.707 268.667 855.813 261.133 856.08C268.867 858.733 276.907 860.373 285.027 861.24C284.747 863.427 284.187 865.573 283.467 867.667C282.747 867.653 281.307 867.627 280.587 867.613C276.587 867.667 272.493 867.293 268.573 868.28C264.453 870.12 261.96 874.72 257.293 875.56C252.093 876.56 246.387 877.253 243.027 881.92C249.6 884.693 257.453 887.533 264.32 884.12C268.453 880.653 271.107 874.653 277.373 874.92C271.533 896.787 264.4 918.267 258.2 940.027C252.64 939.853 247.467 937.627 244.24 933C246.987 923.347 245 913.347 244.76 903.547C244.373 897.467 244.253 891.373 243.627 885.32C241.507 884.72 239.373 884.147 237.24 883.653C237.907 871.373 236.933 859.12 236.533 846.853Z" fill="#282B29"/>
<path d="M442.493 850.507C448.307 851.4 454.16 852.267 459.827 853.947C458.453 856.213 457.28 858.68 455.44 860.627C449.72 863.573 443 861.747 437.08 860.4C437.68 856.507 439.453 853.04 442.493 850.507Z" fill="#2F353C"/>
<path d="M408.8 860.24C411 857.987 413.547 856.133 415.973 854.147C416.013 865.44 415.6 876.747 416.64 888.027C417.373 898.333 416.453 908.88 419.213 918.96C420.573 924.107 422.347 929.133 424 934.2C424.987 937.28 425.973 940.373 426.987 943.48C429.533 950.853 431.147 958.547 434.013 965.827C434.76 967.48 435.747 970.253 438.12 969.533C446.253 967.147 453.667 962.853 461.24 959.16C461.267 963.6 461.467 968.053 461.04 972.507C433.627 988.973 406.16 1005.37 378.467 1021.36C377.8 1016.56 377.267 1011.75 376.28 1007C364.32 1001.72 351.147 1000.55 338.693 996.853C329.147 994.027 319.347 992.173 309.933 988.907C312.427 986.613 314.76 983.267 318.467 983.187C322.907 983 327.72 983.12 331.707 985.32C334.48 988.187 335.987 992 338.133 995.333C338.987 993.493 339.893 991.693 340.733 989.867C341.333 988.027 341.84 986.173 342.32 984.347C349.2 962.2 355.093 939.76 361.787 917.573C363.947 921.52 366.027 925.693 366.253 930.307C367.013 940.52 367.027 950.8 366.4 961.027C364.4 963.707 362.04 966.24 360.84 969.427C361.147 974.787 363.853 979.56 365.293 984.64C362.667 987.987 359.76 991.093 357.16 994.467C367.787 998.613 379.853 1000.12 390.613 995.573C391.08 986.907 390.64 977.733 385.347 970.453C386.693 970.107 388.04 969.773 389.4 969.467C394.733 968.907 397.453 963.987 401.16 960.827C406.28 958.707 412.08 958.24 416.707 954.973C418.867 952.733 422.32 950.467 421.773 946.92C421.027 941.36 418.24 936.4 416.307 931.213C415.12 920.773 415.76 910.24 414.76 899.8C414.787 896.693 411.493 895.427 409.053 894.573C402.027 892.467 393.44 892.853 388.067 898.44C383.067 903.96 375.133 903.947 369.053 907.627C367.44 908.96 365.88 910.347 364.293 911.72C365.32 906.947 366.227 902.147 367.373 897.413C368.08 895.12 368.707 892.8 369.173 890.467C369.627 884.68 369.52 878.88 369.56 873.08C375.333 874.04 381.147 877.413 387.04 875.187C391.907 873.627 397.093 872.907 401.733 870.747C404.4 867.453 405.84 863.307 408.8 860.24Z" fill="#797A7A"/>
<path d="M455.907 879.467C461.653 871.92 471.72 870.2 479.133 864.787C479.907 865.84 480.72 866.907 481.44 868.04C482.32 870.333 483.253 872.787 485.92 873.533C497.907 878.693 510.04 883.52 522.147 888.44C528.28 891.08 534.467 893.573 540.68 896.04C547.76 898.92 554.627 902.48 562.12 904.213C566.533 905.333 571.24 905.973 575.147 908.533C578.213 910.507 581.253 912.707 584.88 913.587C612.68 919.547 640.6 925.12 668.307 931.52C662.36 935.4 656.72 939.733 651.533 944.573C630.493 939.053 608.96 935.667 587.853 930.44C580.987 928.68 573.933 927.747 567.12 925.8C561.28 924.32 559 917.307 553.093 916.067C547 914.573 540.693 913.867 534.84 911.48C521 905.853 507.413 899.627 493.56 894.013C481 889.147 469.187 882.28 455.907 879.467Z" fill="#4B4F54"/>
<path d="M268.573 868.28C272.493 867.293 276.587 867.667 280.587 867.613C279.427 870 278.307 872.413 277.373 874.92C271.107 874.653 268.453 880.653 264.32 884.12C257.453 887.533 249.6 884.693 243.027 881.92C246.387 877.253 252.093 876.56 257.293 875.56C261.96 874.72 264.453 870.12 268.573 868.28Z" fill="#343A41"/>
<path d="M280.587 867.613C281.307 867.627 282.747 867.653 283.467 867.667C287.973 876.773 286.427 887.2 286.533 896.987C286.213 909.333 287.773 921.627 287.28 933.973C286.96 941.067 287.307 948.16 287.627 955.253C282.147 959.413 276.573 963.467 271.2 967.76C277.16 969.547 286.12 967.653 289.24 974.4C291.093 977.773 292.627 981.333 294.213 984.867C278.773 982.173 264.027 976.627 248.573 974C249.133 970.773 249.747 967.573 250.427 964.387C252.307 958.013 254.667 951.787 256.507 945.4C257.067 943.6 257.64 941.813 258.2 940.027C264.4 918.267 271.533 896.787 277.373 874.92C278.307 872.413 279.427 870 280.587 867.613Z" fill="#787A79"/>
<path d="M417.427 867.493C429.36 869.627 441.213 872.4 452.827 875.933C453.773 887.613 453.107 899.373 453.987 911.067C454.693 921.013 454.76 931 454.573 940.973C444.4 938.627 434.227 936.267 424 934.2C422.347 929.133 420.573 924.107 419.213 918.96C416.453 908.88 417.373 898.333 416.64 888.027C416.507 881.16 416.853 874.307 417.427 867.493Z" fill="#4E4F4E"/>
<path d="M462.653 886.293C471.027 888.387 478.707 892.427 486.64 895.72C494.427 899.267 502.72 902.067 509.52 907.453C499.693 906.907 490.307 903.747 480.8 901.52C476.4 900.32 471.773 899.48 467.787 897.173C464.267 894.733 463.76 890.08 462.653 886.293Z" fill="#272C32"/>
<path d="M388.067 898.44C393.44 892.853 402.027 892.467 409.053 894.573C411.493 895.427 414.787 896.693 414.76 899.8C415.76 910.24 415.12 920.773 416.307 931.213C416.44 939.133 416.253 947.067 416.707 954.973C412.08 958.24 406.28 958.707 401.16 960.827C397.453 963.987 394.733 968.907 389.4 969.467C382.347 969.827 373.467 970.573 368.84 964.013C367.573 957.027 367.987 949.907 368.6 942.893C369.707 931.16 368.547 919.373 369.053 907.627C375.133 903.947 383.067 903.96 388.067 898.44Z" fill="#2D2E2E"/>
<path d="M352 927.853C356.893 917.6 360.32 906.507 367.373 897.413C366.227 902.147 365.32 906.947 364.293 911.72C365.88 910.347 367.44 908.96 369.053 907.627C368.547 919.373 369.707 931.16 368.6 942.893C367.987 949.907 367.573 957.027 368.84 964.013C368.013 963.013 367.2 962.013 366.4 961.027C367.027 950.8 367.013 940.52 366.253 930.307C366.027 925.693 363.947 921.52 361.787 917.573C361.52 917.04 360.973 915.973 360.707 915.453C355.133 927 349.64 938.613 343.76 950.027C340.48 956.867 336.52 964.013 337.107 971.867C337.32 976.507 339.787 980.587 342.32 984.347C341.84 986.173 341.333 988.027 340.733 989.867C334.773 979.64 333.107 966.307 338.48 955.48C342.827 946.2 347.933 937.28 352 927.853Z" fill="#4C4E4E"/>
<path d="M343.76 950.027C349.64 938.613 355.133 927 360.707 915.453C360.973 915.973 361.52 917.04 361.787 917.573C355.093 939.76 349.2 962.2 342.32 984.347C339.787 980.587 337.32 976.507 337.107 971.867C336.52 964.013 340.48 956.867 343.76 950.027Z" fill="#2D302F"/>
<path d="M416.307 931.213C418.24 936.4 421.027 941.36 421.773 946.92C422.32 950.467 418.867 952.733 416.707 954.973C416.253 947.067 416.44 939.133 416.307 931.213Z" fill="#656665"/>
<path d="M651.533 944.573C656.72 939.733 662.36 935.4 668.307 931.52C670.12 933.053 671.667 934.88 673.133 936.76C667.387 938.787 662.227 942.173 657.933 946.48C663.453 948.733 669.547 949.72 674.573 953.067C677.453 955.373 679.413 958.587 681.72 961.44C683.627 959.467 685.493 957.453 687.44 955.533C687.68 959.813 685.267 967.107 690.933 968.587C701.253 971.933 711.88 975.107 722.84 975.053C717.36 978 711.4 979.947 705.92 982.907C711.813 984.373 717.893 985.12 723.987 985.08C717.24 988.213 709.48 987.4 702.867 984.4C694.84 981.267 686.347 979.56 677.973 977.693C674.573 976.8 671.08 977.427 667.773 978.347C665.613 965.707 658.053 955.253 651.533 944.573Z" fill="#575857"/>
<path d="M424 934.2C434.227 936.267 444.4 938.627 454.573 940.973C455.44 942.2 456.32 943.427 457.213 944.68C454.52 945.947 451.827 947.187 449.147 948.48C441.693 947.093 434.267 945.573 426.987 943.48C425.973 940.373 424.987 937.28 424 934.2Z" fill="#292C2E"/>
<path d="M657.933 946.48C662.227 942.173 667.387 938.787 673.133 936.76C678.387 938.493 683.933 939.32 689.08 941.4C691.987 943.16 693.387 946.52 695.32 949.213C692.613 951.213 689.947 953.267 687.44 955.533C685.493 957.453 683.627 959.467 681.72 961.44C679.413 958.587 677.453 955.373 674.573 953.067C669.547 949.72 663.453 948.733 657.933 946.48Z" fill="#666A6F"/>
<path d="M695.32 949.213C700.32 946.067 705.453 940.587 711.92 942.333C716.347 943.12 718.64 947.213 721.64 950.08C727.28 947.2 733.587 946.52 739.747 948.027C740.147 952.227 740.28 956.48 739.813 960.707C737.68 964.84 733.227 967.093 729.787 970.04C727.493 971.733 725.2 973.44 722.84 975.053C711.88 975.107 701.253 971.933 690.933 968.587C685.267 967.107 687.68 959.813 687.44 955.533C689.947 953.267 692.613 951.213 695.32 949.213Z" fill="#2F3032"/>
<path d="M241.96 942.48C246.8 943.467 251.64 944.493 256.507 945.4C254.667 951.787 252.307 958.013 250.427 964.387C248.653 956.72 245.973 949.253 241.96 942.48Z" fill="#282A2A"/>
<path d="M426.987 943.48C434.267 945.573 441.693 947.093 449.147 948.48C451.72 949.08 454.387 949.68 456.693 951.067C458.76 952.84 459.933 955.427 461.173 957.827L461.24 959.16C453.667 962.853 446.253 967.147 438.12 969.533C435.747 970.253 434.76 967.48 434.013 965.827C431.147 958.547 429.533 950.853 426.987 943.48Z" fill="#6A6C6F"/>
<path d="M360.84 969.427C362.04 966.24 364.4 963.707 366.4 961.027C367.2 962.013 368.013 963.013 368.84 964.013C373.467 970.573 382.347 969.827 389.4 969.467C388.04 969.773 386.693 970.107 385.347 970.453C390.64 977.733 391.08 986.907 390.613 995.573C379.853 1000.12 367.787 998.613 357.16 994.467C359.76 991.093 362.667 987.987 365.293 984.64C363.853 979.56 361.147 974.787 360.84 969.427ZM362.88 971.827C365.507 976.267 367.453 981.973 372.693 983.947C377.853 985.96 382.453 989.067 386.48 992.867C386.427 987.68 386.48 982.52 386.173 977.36C378.547 974.987 370.707 973.373 362.88 971.827Z" fill="#696C6F"/>
<path d="M722.84 975.053C725.2 973.44 727.493 971.733 729.787 970.04C730.027 975.56 729.813 982.427 723.987 985.08C717.893 985.12 711.813 984.373 705.92 982.907C711.4 979.947 717.36 978 722.84 975.053Z" fill="#6D6E6D"/>
<path d="M299.213 972.387C301.853 971.707 304.72 971.56 307.373 972.32C312.253 973.88 311.613 982.693 306.347 983.253C302.507 983.853 297.64 983.947 294.973 980.613C291.92 977.587 295.893 973.067 299.213 972.387Z" fill="#505449"/>
<path d="M362.88 971.827C370.707 973.373 378.547 974.987 386.173 977.36C386.48 982.52 386.427 987.68 386.48 992.867C382.453 989.067 377.853 985.96 372.693 983.947C367.453 981.973 365.507 976.267 362.88 971.827Z" fill="#2B2E33"/>
</svg>
