<svg width="21" height="16" viewBox="0 0 21 16" fill="none" xmlns="http://www.w3.org/2000/svg">
<path d="M11.4628 0.0309967C11.8441 -0.088086 12.3314 0.147457 12.408 0.540377C11.9399 0.509951 11.4783 0.399261 11.007 0.430212C11.2775 0.398737 11.1618 0.018931 11.4628 0.0309967Z" fill="#E9D627"/>
<path d="M11.007 0.430212C11.4783 0.399261 11.9399 0.509951 12.408 0.540377C12.107 0.977888 12.9639 0.849887 12.7818 1.21395C12.5204 1.83402 13.5674 1.39179 13.9037 1.47363C14.6068 1.33933 14.4521 2.29672 14.3782 2.71482C14.1565 2.48977 14.3835 3.21213 14.0146 3.14813C13.8967 2.76308 13.9739 2.34445 13.9599 1.94839C14.3225 1.87547 14.1383 2.31508 14.2791 2.42524C14.2405 2.17186 14.3621 1.8676 14.2202 1.63888C14.0579 1.65514 14.0295 1.77737 14.1779 1.85238C13.4587 2.10157 14.2748 1.63363 13.9064 1.69291C13.4169 1.79416 12.7662 1.84242 12.4578 2.21803C12.9692 2.76518 12.943 3.81909 13.2086 4.57502C13.1829 4.57398 13.1315 4.5724 13.1058 4.57135C12.9574 3.87102 12.7978 3.17174 12.6131 2.48032C12.6013 2.29724 12.2098 2.3177 12.4631 2.63088C12.5044 3.25987 12.5552 3.88886 12.6211 4.51575C12.5311 4.51837 12.4412 4.52204 12.3517 4.52362C12.3218 3.54735 12.2875 2.55744 12.1209 1.59586C11.8451 1.53343 12.3309 2.1556 11.9255 1.89278C11.9399 1.45946 11.3648 1.61789 11.1752 1.84714C11.3096 1.58327 10.9712 1.70393 10.8009 1.68609C10.3719 1.55284 10.9803 0.936969 10.9776 1.38182C11.0145 1.80675 11.1077 1.26274 11.3026 1.18248C11.4762 0.897101 10.8276 1.1851 10.7532 1.00359C11.074 1.00936 11.3953 1.01461 11.7161 1.00097C11.6095 0.835198 11.4387 0.731854 11.2389 0.731329C11.0734 0.711919 10.9615 0.598607 11.007 0.430212Z" fill="#404940"/>
<path d="M7.85225 0.742345C8.97846 0.65841 10.1111 0.678345 11.2389 0.731329C11.4387 0.731854 11.6095 0.835198 11.7161 1.00097C11.3953 1.01461 11.074 1.00936 10.7532 1.00359C10.6927 0.793231 10.4988 0.946937 10.4046 1.04451C9.0122 1.29789 7.52129 1.18458 6.08394 1.26904C5.71336 1.30943 5.15909 1.16779 4.94327 1.56858C4.75798 1.55861 4.86562 1.2512 4.88864 1.11323C5.66248 0.428114 6.90062 0.885035 7.85225 0.742345Z" fill="#397636"/>
<path d="M10.4046 1.04451C10.4988 0.946937 10.6927 0.793231 10.7532 1.00359C10.8276 1.1851 11.4762 0.897101 11.3026 1.18248C11.1077 1.26274 11.0145 1.80675 10.9776 1.38182C10.9803 0.936969 10.3719 1.55284 10.8009 1.68609C10.5695 1.64097 10.3435 1.65776 10.2498 1.88019C10.1197 1.89121 10.0302 1.98563 9.99221 2.10524C9.92474 3.74459 10.3483 5.43956 9.96383 7.06789C9.73891 7.36901 10.2793 7.44927 10.2937 7.74829C10.3939 8.02528 10.6879 7.96757 10.9005 7.87052C11.0659 8.35839 10.5711 9.10174 11.1747 9.40233C11.6738 9.2801 11.7343 8.49269 11.1206 8.50633C10.6547 7.98278 11.2063 7.18068 11.323 6.58789C11.6759 6.58265 12.3014 6.74002 12.0299 7.1833C12.7116 7.2793 13.5626 7.26881 13.8448 8.03944C14.1709 8.27131 13.4656 8.35 13.5138 8.04679C13.3103 7.53321 12.6864 7.26462 12.1006 7.35537C12.1258 7.934 12.0968 8.52154 11.8687 9.02777C12.559 8.66581 13.3291 8.15957 14.1436 8.59184C14.3551 8.67525 14.6213 8.69413 14.7723 8.87722C14.6422 8.90135 14.2909 8.71459 14.4119 8.95853C14.8318 9.18568 14.8237 8.8043 15.0722 8.65846C14.9003 9.16207 15.4514 8.86305 15.6597 9.0881C16.0496 9.53506 15.4267 9.41755 15.2709 9.10069C14.7793 9.06555 14.3268 9.25073 13.8635 9.36194C13.7023 9.52089 13.9198 9.78686 14.0119 9.94949C14.1757 9.63053 14.5062 9.40601 14.8623 9.34358C14.8168 9.58752 14.8125 9.83617 14.8794 10.0791C15.2082 10.2464 15.476 9.8304 15.7636 9.93532C15.8257 10.1934 15.6817 10.804 16.1743 10.738C16.3987 10.5958 16.749 10.5884 16.765 10.9058C16.636 11.08 16.381 11.3717 16.6322 11.5558C17.2256 11.5547 17.955 12.0038 18.0755 12.5971C17.8023 12.4838 17.4569 11.8847 17.0729 12.1911C16.7955 12.4602 17.1983 12.7634 17.5003 12.6821C17.6411 13.0315 18.0819 13.3294 18.0963 13.7171C17.7418 14.0555 17.7841 13.4071 17.526 13.298C17.3348 13.128 17.1153 13.3777 17.051 13.5524C17.5094 13.7302 17.5999 14.1919 17.699 14.6063C17.194 15.207 16.4271 15.8769 15.5847 15.7615C15.4107 16.2624 14.9437 15.7473 14.6202 15.7588C14.5603 15.9262 14.4671 16.0636 14.2711 15.9592C14.1179 15.7562 13.7982 15.346 13.5342 15.6523C13.1368 15.8066 13.1791 14.8214 12.725 15.0669C12.3967 15.2253 12.3866 14.6441 12.311 14.4731C12.2698 14.2003 11.8762 14.3776 11.7991 14.1336C11.685 13.8645 11.9501 13.3363 11.5029 13.3205C11.1125 13.074 11.7723 12.4932 11.3128 12.2997C11.3851 11.7667 10.9224 12.222 10.6964 12.2787C10.6659 12.0909 10.6557 11.8994 10.6273 11.7121C10.2723 11.8506 9.90867 12.0059 9.51131 11.9345C9.43901 12.1292 9.64573 12.637 9.45026 12.7267C9.66554 12.3044 8.66357 12.6585 9.25854 12.4597C9.57504 12.5321 9.59003 11.8632 9.32709 11.8517C9.22695 11.6271 8.71605 11.7835 8.89706 11.5191C9.0363 10.9509 8.29513 11.474 8.15536 11.0957C8.06378 10.9216 8.39045 10.9488 8.36421 11.1188C8.56932 11.1408 8.68017 10.8838 8.85583 10.803C8.94901 10.7474 9.4117 10.8224 9.27139 10.5827C9.11127 10.5596 8.94633 10.5769 8.79263 10.5213C9.51452 10.6608 8.74497 10.1383 8.50613 10.2244C8.52005 9.9689 8.34815 9.74437 8.22819 10.0979C7.87795 9.9647 8.13876 9.69191 8.35618 9.5765C8.67 9.57597 8.98328 9.62581 9.2971 9.60693C9.38118 9.28483 8.83815 9.56024 8.77282 9.30948C8.57789 9.09597 8.76586 8.862 8.74979 8.63066C8.71445 8.37518 8.41348 8.65689 8.31655 8.47223C8.12644 8.16797 8.82369 8.50423 8.86386 8.26502C8.62073 8.14436 8.36582 8.03682 8.08842 8.03262C7.6209 7.31812 7.59145 6.34395 6.95953 5.71444C6.77905 5.62893 6.74264 5.42277 6.68105 5.2549C6.67034 4.9669 6.12571 5.24388 6.20872 4.90132C5.65659 4.67417 5.06537 4.56873 4.46986 4.53096C4.57161 3.59036 4.62945 2.64347 4.76922 1.70812C4.85437 1.53501 4.71031 1.63573 4.62088 1.59796C4.32741 1.38707 4.53091 0.914936 4.88864 1.11323C4.86562 1.2512 4.75798 1.55861 4.94327 1.56858C5.15909 1.16779 5.71336 1.30943 6.08394 1.26904C7.52129 1.18458 9.0122 1.29789 10.4046 1.04451ZM8.82798 1.3792C8.572 1.99455 7.02004 1.20609 6.95096 1.73225C7.06235 2.14668 7.65571 2.33134 7.80459 2.7421C7.46828 2.64347 7.00558 1.84976 6.83582 1.99455C6.40954 2.76728 6.78012 3.85528 6.62161 4.72926C6.98684 4.86093 7.1973 4.59811 7.30548 4.41922C7.21337 4.80427 7.79655 4.48007 7.80887 4.83627C7.59734 4.59181 7.449 4.95483 7.31297 5.10119C7.31994 5.26224 7.65892 5.60008 7.32583 5.57752C7.42972 5.37031 7.29637 5.42539 7.1641 5.52139C7.41419 6.11628 7.53147 6.93412 8.02415 7.34645C8.15161 7.61767 8.11037 7.87524 8.50291 7.82278C9.20713 8.02685 8.89385 7.10776 8.79531 6.76206C9.05718 6.86225 8.80013 6.7075 8.84993 6.50501C9.17018 6.00297 8.56878 6.48612 8.65929 6.21071C8.91045 5.95576 8.45204 5.21555 9.07968 5.24388C9.22266 4.87719 8.92705 4.8646 8.65715 4.82526C8.73051 4.60598 9.10913 4.53358 9.0213 4.20781C9.36779 3.72571 9.16857 3.07731 9.24676 2.52806C9.14822 2.29409 9.4599 1.68661 9.03844 1.71599C8.89224 1.59114 8.92759 1.54865 9.10485 1.61265C9.69982 1.71704 9.48614 2.39062 9.57664 2.78302C9.84655 2.63351 9.63877 1.86655 9.72338 1.54445C9.46365 1.3813 9.12627 1.40019 8.82798 1.3792ZM5.35455 1.97252C5.2287 2.80662 5.20942 3.7021 5.23513 4.5084C5.57787 4.5745 5.91793 4.65844 6.24513 4.77804C6.5054 4.63326 6.40472 4.2886 6.46149 4.04204C6.46041 3.74669 6.54717 3.3863 6.25049 3.26092C6.72443 3.14289 6.38169 2.18183 6.50915 1.75743C6.23603 1.83507 6.13053 1.50563 5.87294 1.57855C5.45523 1.40019 5.55163 1.80989 5.35455 1.97252ZM10.0656 10.6771C9.62591 10.6524 9.75176 11.3334 10.2107 11.0784C10.0977 10.942 10.3151 10.5774 10.0656 10.6771ZM13.7832 10.825C13.2268 10.9037 12.777 11.3937 12.627 11.9146C12.2489 13.2083 13.366 14.7312 14.7696 14.6446C15.258 14.6488 15.7491 14.344 15.9869 13.9385C16.9342 12.5688 15.4449 10.3943 13.7832 10.825Z" fill="#0F0F0F"/>
<path d="M8.82798 1.3792C9.12627 1.40019 9.46365 1.3813 9.72338 1.54445C9.63877 1.86655 9.84655 2.63351 9.57664 2.78302C9.48614 2.39062 9.69982 1.71704 9.10485 1.61265C8.92759 1.54865 8.89224 1.59114 9.03844 1.71599C8.60895 2.20072 9.29603 2.93462 8.88367 3.43036C8.55272 3.43141 8.572 3.90932 8.80923 4.00742C8.73801 4.12335 8.70588 4.18525 8.88207 4.19732C8.80709 4.20571 8.73212 4.21463 8.65714 4.22407C8.51577 3.97594 8.81941 3.33751 8.33422 3.46971C8.05735 3.39522 8.42633 3.8684 8.17196 3.75613C8.1259 3.70158 8.08092 3.6465 8.03915 3.58931C8.22283 3.01541 7.78638 2.49186 8.04397 1.92006C8.03486 1.24018 7.33654 1.93685 6.95096 1.73225C7.02004 1.20609 8.572 1.99455 8.82798 1.3792Z" fill="#414242"/>
<path d="M5.35455 1.97252C5.55163 1.80989 5.45523 1.40019 5.87294 1.57855C5.92489 1.76845 5.71068 1.98406 5.71978 2.23901C5.28172 1.76583 5.44345 2.9682 5.4472 3.15705C5.29029 3.24413 5.19389 4.0903 5.58804 3.96807C5.87723 3.99483 5.69033 3.63076 5.81725 3.4739C5.94042 3.23154 5.83171 3.79023 5.82796 3.88938C5.95327 4.1543 6.2537 3.94761 6.46149 4.04204C6.40472 4.2886 6.5054 4.63326 6.24513 4.77804C5.91793 4.65844 5.57787 4.5745 5.23513 4.5084C5.20942 3.7021 5.2287 2.80662 5.35455 1.97252Z" fill="#585855"/>
<path d="M5.87294 1.57855C6.13053 1.50563 6.23603 1.83507 6.50915 1.75743C6.38169 2.18183 6.72443 3.14289 6.25049 3.26092C6.54717 3.3863 6.46041 3.74669 6.46149 4.04204C6.2537 3.94761 5.95327 4.1543 5.82796 3.88938C5.83171 3.79023 5.94042 3.23154 5.81725 3.4739C5.69033 3.63076 5.87723 3.99483 5.58804 3.96807C5.60089 3.38945 5.75298 2.81764 5.71978 2.23901C5.71068 1.98406 5.92489 1.76845 5.87294 1.57855Z" fill="#0D0E0E"/>
<path d="M11.9255 1.89278C12.3309 2.1556 11.8451 1.53343 12.1209 1.59586C12.2875 2.55744 12.3218 3.54735 12.3517 4.52362C12.2805 4.52624 12.2098 4.52466 12.1397 4.51837C12.3062 4.00007 11.4515 3.6145 11.9426 3.17594C12.0968 2.79141 11.9372 2.31613 11.9255 1.89278ZM11.8724 3.3118C11.8939 3.4802 11.7332 3.87102 12.0261 3.78604C12.0197 3.61869 12.1252 3.30236 11.8724 3.3118Z" fill="#7E7A71"/>
<path d="M6.95096 1.73225C7.33654 1.93685 8.03486 1.24018 8.04397 1.92006C7.78638 2.49186 8.22283 3.01541 8.03915 3.58931C8.07503 4.08558 7.32208 3.57148 7.23586 3.9644C7.24496 4.23404 6.96434 4.13594 6.78762 4.08925C6.73193 3.38944 6.82886 2.69331 6.83582 1.99455C7.00558 1.84976 7.46828 2.64347 7.80459 2.7421C7.65571 2.33134 7.06235 2.14668 6.95096 1.73225Z" fill="#0C0D0D"/>
<path d="M11.1752 1.84714C11.3648 1.61789 11.9399 1.45946 11.9255 1.89278C11.9372 2.31613 12.0968 2.79141 11.9426 3.17594C11.4515 3.6145 12.3062 4.00007 12.1397 4.51837C11.9421 4.40296 11.723 4.34788 11.4917 4.3526C11.5934 4.13751 11.1034 4.36729 10.9513 4.27181C10.3221 4.19417 11.1763 3.91823 11.2893 3.7341C10.9995 3.71994 10.7125 3.75666 10.426 3.79076C10.4292 3.46708 10.3815 3.14603 10.358 2.82393C10.8105 2.77567 10.826 2.13252 11.067 1.78734C10.7312 1.94524 10.8009 2.32924 10.4822 2.45724C10.3906 2.27049 10.3285 2.07219 10.2498 1.88019C10.3435 1.65776 10.5695 1.64097 10.8009 1.68609C10.9712 1.70393 11.3096 1.58327 11.1752 1.84714Z" fill="#0F0F0F"/>
<path d="M9.03844 1.71599C9.4599 1.68661 9.14822 2.29409 9.24676 2.52806C9.16857 3.07731 9.36779 3.72571 9.0213 4.20781C8.98649 4.20519 8.91688 4.19994 8.88207 4.19732C8.70588 4.18525 8.73801 4.12335 8.80923 4.00742C8.572 3.90932 8.55272 3.43141 8.88367 3.43036C9.29603 2.93462 8.60895 2.20072 9.03844 1.71599Z" fill="#0A0B0A"/>
<path d="M10.4822 2.45724C10.8009 2.32924 10.7312 1.94524 11.067 1.78734C10.826 2.13252 10.8105 2.77567 10.358 2.82393C10.3815 3.14603 10.4292 3.46708 10.426 3.79076C10.4645 4.09922 10.2171 4.78906 10.7361 4.56716C11.0997 4.45437 10.8983 5.40336 10.5074 5.17988C10.8014 5.1867 11.0906 5.29319 11.3857 5.26382C11.5902 5.72966 11.0884 6.11104 11.323 6.58789C11.2063 7.18068 10.6547 7.98278 11.1206 8.50633C11.7343 8.49269 11.6738 9.2801 11.1747 9.40233C10.5711 9.10174 11.0659 8.35839 10.9005 7.87052C10.6879 7.96757 10.3939 8.02528 10.2937 7.74829C10.2793 7.44927 9.73891 7.36901 9.96383 7.06789C10.3483 5.43956 9.92474 3.74459 9.99221 2.10524C10.0302 1.98563 10.1197 1.89121 10.2498 1.88019C10.3285 2.07219 10.3906 2.27049 10.4822 2.45724ZM10.2091 2.8958C10.2407 3.66486 10.1368 4.5703 10.2605 5.25542C10.2284 4.48637 10.3328 3.5804 10.2091 2.8958ZM10.4255 5.78107C10.3831 6.34553 10.7671 6.73268 10.969 7.23996C11.2812 6.96717 11.0526 6.33451 11.1147 5.94684C10.8282 6.03707 10.6804 5.75379 10.4255 5.78107Z" fill="#3F3F3E"/>
<path d="M6.62161 4.72926C6.78012 3.85528 6.40954 2.76728 6.83582 1.99455C6.82886 2.69331 6.73193 3.38944 6.78762 4.08925C6.96434 4.13594 7.24496 4.23404 7.23586 3.9644C7.32208 3.57148 8.07503 4.08558 8.03915 3.58931C8.08092 3.6465 8.1259 3.70158 8.17196 3.75613C7.88599 3.91981 8.19927 4.52676 8.65714 4.22407C8.73212 4.21463 8.80709 4.20571 8.88207 4.19732C8.91688 4.19994 8.98649 4.20519 9.0213 4.20781C9.10913 4.53358 8.73051 4.60598 8.65715 4.82526C8.92705 4.8646 9.22266 4.87719 9.07968 5.24388C8.45204 5.21555 8.91045 5.95576 8.65929 6.21071C8.56878 6.48612 9.17018 6.00297 8.84993 6.50501C8.80013 6.7075 9.05718 6.86225 8.79531 6.76206C8.89385 7.10776 9.20713 8.02685 8.50291 7.82278C8.36207 7.35485 8.23729 6.91943 8.15161 6.46828C8.48417 5.94002 8.0611 5.41857 7.83136 4.94172C7.55985 5.21608 7.85921 5.75116 7.42758 5.93897C7.65946 6.39379 7.85921 6.86383 8.02415 7.34645C7.53147 6.93412 7.41419 6.11628 7.1641 5.52139C7.29637 5.42539 7.42972 5.37031 7.32583 5.57752C7.65892 5.60008 7.31994 5.26224 7.31297 5.10119C7.449 4.95483 7.59734 4.59181 7.80887 4.83627C7.79655 4.48007 7.21337 4.80427 7.30548 4.41922C7.1973 4.59811 6.98684 4.86093 6.62161 4.72926Z" fill="#5C5B57"/>
<path d="M5.4472 3.15705C5.44345 2.9682 5.28172 1.76583 5.71978 2.23901C5.75298 2.81764 5.60089 3.38945 5.58804 3.96807C5.19389 4.0903 5.29029 3.24413 5.4472 3.15705Z" fill="#AAA092"/>
<path d="M10.2605 5.25542C10.2284 4.48637 10.3328 3.5804 10.2091 2.8958C10.2407 3.66486 10.1368 4.5703 10.2605 5.25542Z" fill="#CACAC9"/>
<path d="M12.0261 3.78604C12.0197 3.61869 12.1252 3.30236 11.8724 3.3118C11.8939 3.4802 11.7332 3.87102 12.0261 3.78604Z" fill="#0D0E0D"/>
<path d="M8.17196 3.75613C8.42633 3.8684 8.05735 3.39522 8.33422 3.46971C8.81941 3.33751 8.51577 3.97594 8.65714 4.22407C8.19927 4.52676 7.88599 3.91981 8.17196 3.75613Z" fill="#A49A8D"/>
<path d="M10.426 3.79076C10.7125 3.75666 10.9995 3.71994 11.2893 3.7341C11.1763 3.91823 10.3221 4.19417 10.9513 4.27181C11.1034 4.36729 11.5934 4.13751 11.4917 4.3526C11.4151 4.38355 11.3385 4.41555 11.2684 4.45856C11.1174 4.63745 11.6165 4.46119 11.7198 4.63798C11.1971 5.27588 12.7357 4.71929 12.8444 5.18932C12.5702 5.08388 12.2762 5.12637 12.0111 5.22657C11.8339 5.41018 11.3894 4.93542 11.3857 5.26382C11.0906 5.29319 10.8014 5.1867 10.5074 5.17988C10.8983 5.40336 11.0997 4.45437 10.7361 4.56716C10.2171 4.78906 10.4645 4.09922 10.426 3.79076Z" fill="#8E866F"/>
<path d="M11.2684 4.45856C11.3385 4.41555 11.4151 4.38355 11.4917 4.3526C11.723 4.34788 11.9421 4.40296 12.1397 4.51837C12.2098 4.52466 12.2805 4.52624 12.3517 4.52362C12.4412 4.52204 12.5311 4.51837 12.6211 4.51575C12.7828 4.53201 12.943 4.56296 13.1058 4.57135C13.1315 4.5724 13.1829 4.57398 13.2086 4.57502C15.3587 4.6747 17.5142 4.96322 19.5803 5.56913C20.0205 5.70395 20.511 5.83195 20.7981 6.21543C20.8623 6.33766 20.7718 6.4793 20.6481 6.51655C20.3123 6.55851 19.9707 6.58369 19.6344 6.53701C19.7126 6.43156 19.636 6.29989 19.5712 6.20808C17.1088 5.19772 14.4242 4.95588 11.8012 4.62276C12.272 4.45227 11.4387 4.44597 11.2684 4.45856Z" fill="#4C8E50"/>
<path d="M2.70959 4.99418C2.75725 4.1884 3.93273 4.50998 4.46986 4.53096C5.06537 4.56873 5.65659 4.67417 6.20872 4.90132C6.12571 5.24388 6.67034 4.9669 6.68105 5.2549C6.74264 5.42277 6.77905 5.62893 6.95953 5.71444C7.59145 6.34395 7.6209 7.31812 8.08842 8.03262C7.98345 8.12652 7.85975 8.19525 7.71515 8.1517C7.78263 7.9319 7.42008 8.10134 7.40669 7.89623C6.96542 6.68337 6.09411 5.55339 4.8608 5.04087C4.1705 4.72873 3.42023 4.86303 2.70959 4.99418Z" fill="#3D7A38"/>
<path d="M11.7198 4.63798C11.6165 4.46119 11.1174 4.63745 11.2684 4.45856C11.4387 4.44597 12.272 4.45227 11.8012 4.62276C11.7809 4.62696 11.7402 4.6343 11.7198 4.63798Z" fill="#0C0D0C"/>
<path d="M11.7198 4.63798C11.7402 4.6343 11.7809 4.62696 11.8012 4.62276C14.4242 4.95588 17.1088 5.19772 19.5712 6.20808C19.636 6.29989 19.7126 6.43156 19.6344 6.53701C18.7786 6.4111 17.9384 6.20231 17.0767 6.10474C16.9948 6.19602 17.0328 6.313 17.0569 6.41792C16.6702 5.90697 15.8814 6.39851 15.4144 5.92061C15.5649 6.39432 15.6324 6.88638 15.7813 7.36062C15.3384 7.05478 15.5392 6.3151 15.2131 5.91221C14.8023 5.63733 15.1006 6.27733 15.2131 6.46986C15.1954 6.74002 15.2629 7.00232 15.3469 7.2578C15.0171 7.07209 15.1424 6.6435 14.9041 6.38435C15.2768 5.9012 14.1243 5.77477 14.669 5.51929C15.9719 5.62526 17.2395 5.961 18.5285 6.14461C16.7575 5.5109 14.8505 5.27431 12.9805 5.09437C13.1995 5.33359 13.5626 5.18723 13.8094 5.40493C13.2145 5.39864 12.5349 5.33726 12.0111 5.22657C12.2762 5.12637 12.5702 5.08388 12.8444 5.18932C12.7357 4.71929 11.1971 5.27588 11.7198 4.63798Z" fill="#3C6C30"/>
<path d="M2.70959 4.99418C3.42023 4.86303 4.1705 4.72873 4.8608 5.04087C6.09411 5.55339 6.96542 6.68337 7.40669 7.89623C7.42008 8.10134 7.78263 7.9319 7.71515 8.1517C7.70551 8.45544 7.61555 8.74607 7.56895 9.04404C7.35689 8.1879 6.61143 7.66331 6.2446 6.88009C5.42471 5.48362 3.46789 4.42657 1.94807 5.4532C1.88327 5.481 1.78045 5.62631 1.78312 5.47628C1.99037 5.19929 2.3706 5.03562 2.70959 4.99418Z" fill="#383A3D"/>
<path d="M7.42758 5.93897C7.85921 5.75116 7.55985 5.21608 7.83136 4.94172C8.0611 5.41857 8.48417 5.94002 8.15161 6.46828C8.23729 6.91943 8.36207 7.35485 8.50291 7.82278C8.11037 7.87524 8.15161 7.61767 8.02415 7.34645C7.85921 6.86383 7.65946 6.39379 7.42758 5.93897Z" fill="#948B7F"/>
<path d="M1.94807 5.4532C3.46789 4.42657 5.42471 5.48362 6.2446 6.88009C6.61143 7.66331 7.35689 8.1879 7.56895 9.04404C7.85278 9.9007 7.96043 10.7941 7.91223 11.6927C7.88706 11.7121 7.83565 11.7499 7.81048 11.7693C7.06931 11.9818 7.0661 11.0176 6.44649 10.7637C6.88991 10.7406 7.10947 11.2479 7.37081 11.5143C7.70444 11.1686 7.19784 10.5659 7.51487 10.2538C7.24336 9.77427 7.22033 9.2245 7.04896 8.71827C6.66231 8.3778 6.35974 7.98961 6.21193 7.5075C5.65873 7.33806 5.6523 6.57268 5.03752 6.53071C4.26957 5.69818 2.85418 5.87392 1.95128 6.46776C1.92772 6.48035 1.88005 6.505 1.85596 6.51759C1.64282 6.50186 1.28348 6.59419 1.1512 6.35917C1.35631 6.08795 1.62514 5.68192 1.78312 5.47628C1.78045 5.62631 1.88327 5.481 1.94807 5.4532Z" fill="#151615"/>
<path d="M11.3857 5.26382C11.3894 4.93542 11.8339 5.41018 12.0111 5.22657C12.5349 5.33726 13.2145 5.39864 13.8094 5.40493C14.0981 5.41752 14.3867 5.45477 14.669 5.51929C14.1243 5.77477 15.2768 5.9012 14.9041 6.38435C15.1424 6.6435 15.0171 7.07209 15.3469 7.2578C15.2629 7.00232 15.1954 6.74002 15.2131 6.46986C15.1006 6.27733 14.8023 5.63733 15.2131 5.91221C15.5392 6.3151 15.3384 7.05478 15.7813 7.36062C15.6324 6.88638 15.5649 6.39432 15.4144 5.92061C15.8814 6.39851 16.6702 5.90697 17.0569 6.41792C17.2058 6.86068 17.1211 7.36534 17.3198 7.78764C18.0101 8.12285 18.5221 8.67839 18.9917 9.26017C18.98 9.39237 18.9478 9.53453 18.7807 9.46896C18.8659 9.62634 18.8729 9.79683 18.8322 9.97309C18.4734 10.0109 18.1258 9.91171 17.7713 9.88706C17.4034 10.0638 17.1881 9.58175 16.8646 9.79263C16.6767 9.56181 16.4973 9.21715 16.1647 9.20299C15.9853 9.36299 15.8187 9.17938 15.6597 9.0881C15.4514 8.86305 14.9003 9.16207 15.0722 8.65846C14.8237 8.8043 14.8318 9.18568 14.4119 8.95853C14.2909 8.71459 14.6422 8.90135 14.7723 8.87722C14.6213 8.69413 14.3551 8.67525 14.1436 8.59184C13.3291 8.15957 12.559 8.66581 11.8687 9.02777C12.0968 8.52154 12.1258 7.934 12.1006 7.35537C12.6864 7.26462 13.3103 7.53321 13.5138 8.04679C13.4656 8.35 14.1709 8.27131 13.8448 8.03944C13.5626 7.26881 12.7116 7.2793 12.0299 7.1833C12.3014 6.74002 11.6759 6.58265 11.323 6.58789C11.0884 6.11104 11.5902 5.72966 11.3857 5.26382Z" fill="#2B5423"/>
<path d="M12.9805 5.09437C14.8505 5.27431 16.7575 5.5109 18.5285 6.14461C17.2395 5.961 15.9719 5.62526 14.669 5.51929C14.3867 5.45477 14.0981 5.41752 13.8094 5.40493C13.5626 5.18723 13.1995 5.33359 12.9805 5.09437Z" fill="#A39438"/>
<path d="M10.4255 5.78107C10.6804 5.75379 10.8282 6.03707 11.1147 5.94684C11.0526 6.33451 11.2812 6.96717 10.969 7.23996C10.7671 6.73268 10.3831 6.34553 10.4255 5.78107Z" fill="#817B6F"/>
<path d="M1.95128 6.46776C2.85418 5.87392 4.26957 5.69818 5.03752 6.53071C5.6523 6.57268 5.65873 7.33806 6.21193 7.5075C5.68283 7.71577 5.25227 7.14658 4.74352 7.40311C4.22191 7.36691 4.7312 6.73635 4.41845 6.52179C4.18068 6.6393 4.00181 6.87694 3.73726 6.93465C3.61463 6.72271 3.69388 6.42841 3.61034 6.19969C3.32223 6.25582 3.18085 6.6052 2.97467 6.80088C2.80919 6.65976 2.86649 6.1593 2.60462 6.24691C2.51733 6.7117 2.04767 7.14239 1.95128 6.46776Z" fill="#3C3C3E"/>
<path d="M17.0767 6.10474C17.9384 6.20231 18.7786 6.4111 19.6344 6.53701C19.9707 6.58369 20.3123 6.55851 20.6481 6.51655C20.691 7.02645 20.4516 7.47865 20.3788 7.97806C20.1313 8.08403 20.0767 8.70987 19.9289 9.02043C19.719 9.28587 19.3072 9.41912 18.9917 9.26017C18.5221 8.67839 18.0101 8.12285 17.3198 7.78764C17.1211 7.36534 17.2058 6.86068 17.0569 6.41792C17.0328 6.313 16.9948 6.19602 17.0767 6.10474ZM19.0421 6.56586C19.1963 6.86488 19.4427 7.14868 19.7458 7.29924C20.1999 7.45347 20.3734 6.96717 20.4478 6.63353C19.9841 6.7416 19.5075 6.60048 19.0421 6.56586Z" fill="#212220"/>
<path d="M2.60462 6.24691C2.86649 6.1593 2.80919 6.65976 2.97467 6.80088C3.18085 6.6052 3.32223 6.25582 3.61034 6.19969C3.69388 6.42841 3.61463 6.72271 3.73726 6.93465C4.00181 6.87694 4.18068 6.6393 4.41845 6.52179C4.7312 6.73635 4.22191 7.36691 4.74352 7.40311C5.25227 7.14658 5.68283 7.71577 6.21193 7.5075C6.35974 7.98961 6.66231 8.3778 7.04896 8.71827C7.22033 9.2245 7.24336 9.77427 7.51487 10.2538C7.19784 10.5659 7.70444 11.1686 7.37081 11.5143C7.10947 11.2479 6.88991 10.7406 6.44649 10.7637C7.0661 11.0176 7.06931 11.9818 7.81048 11.7693C7.34564 12.6585 6.46577 13.2229 5.52431 13.5262C5.25227 13.7706 5.00432 13.1395 4.89989 13.5902C4.6664 13.9894 4.31991 13.0572 4.05376 13.5466C3.82991 13.9715 3.72173 13.4202 3.55036 13.2985C3.27028 13.0178 3.08285 13.6689 2.91148 13.2974C2.9645 12.9958 2.57892 12.5987 2.31704 12.8867C1.95342 12.7854 2.35132 12.0405 1.76867 12.0982C1.4993 12.2073 1.42968 11.8994 1.54482 11.7168C1.6139 11.4671 1.40879 11.0973 1.11211 11.2022C0.911822 11.0926 1.05588 10.8287 1.1105 10.6635C1.18548 10.4772 1.10461 10.217 0.872729 10.2023C0.40093 10.0014 1.29633 9.39919 0.774192 9.19879C0.32542 8.89243 1.28348 8.50475 0.93003 8.25872C0.539631 7.85531 1.44842 7.66173 1.21493 7.25203C1.29794 6.90789 1.78955 6.87484 1.85596 6.51759C1.88005 6.505 1.92772 6.48035 1.95128 6.46776C2.04767 7.14239 2.51733 6.7117 2.60462 6.24691ZM2.96289 7.94344C2.60302 7.96757 1.82971 8.7361 1.8988 9.40863C1.83079 10.5858 2.61962 12.1276 3.98521 12.073C4.54376 12.0841 5.02092 11.5684 5.09536 11.0496C5.5377 9.74175 4.54591 7.72993 2.96289 7.94344Z" fill="#0F0F0F"/>
<path d="M19.0421 6.56586C19.5075 6.60048 19.9841 6.7416 20.4478 6.63353C20.3734 6.96717 20.1999 7.45347 19.7458 7.29924C19.4427 7.14868 19.1963 6.86488 19.0421 6.56586Z" fill="#797D78"/>
<path d="M2.96289 7.94344C4.54591 7.72993 5.5377 9.74175 5.09536 11.0496C4.95398 11.2054 4.88918 11.4545 4.69532 11.5479C4.52716 11.3098 4.52931 10.1598 3.94772 10.4515C4.00395 10.2758 3.97129 10.1084 3.81545 9.99565C3.94558 9.29427 2.67692 9.22974 2.74118 8.49584C2.55053 8.72194 2.53233 8.50738 2.66514 8.34738C2.55964 8.43026 2.45735 8.51997 2.33311 8.57505C2.51144 8.26659 2.82365 8.04521 3.19102 8.02318C3.13747 7.95918 3.03679 7.96967 2.96289 7.94344Z" fill="#6A5F0D"/>
<path d="M1.8988 9.40863C1.82971 8.7361 2.60302 7.96757 2.96289 7.94344C3.03679 7.96967 3.13747 7.95918 3.19102 8.02318C2.82365 8.04521 2.51144 8.26659 2.33311 8.57505C2.45735 8.51997 2.55964 8.43026 2.66514 8.34738C2.53233 8.50738 2.55053 8.72194 2.74118 8.49584C2.67692 9.22974 3.94558 9.29427 3.81545 9.99565C3.97129 10.1084 4.00395 10.2758 3.94772 10.4515C4.52931 10.1598 4.52716 11.3098 4.69532 11.5479C4.88918 11.4545 4.95398 11.2054 5.09536 11.0496C5.02092 11.5684 4.54376 12.0841 3.98521 12.073C4.5277 11.3339 3.34526 11.1901 3.19263 10.5559C3.11766 9.91224 2.59391 9.30686 1.8988 9.40863Z" fill="#BDA50E"/>
<path d="M19.9289 9.02043C20.0767 8.70987 20.1313 8.08403 20.3788 7.97806C20.3755 8.33164 19.9487 8.77125 20.4875 8.98843C20.9657 9.69034 21.211 10.7448 20.7675 11.5589C20.7065 11.2012 20.4436 10.9305 20.3188 10.5974C20.7563 10.4237 20.774 9.92745 20.6835 9.52719C20.3788 9.61847 20.0596 9.58332 19.7474 9.55814C19.8095 9.37925 19.9 9.20876 19.9289 9.02043Z" fill="#434444"/>
<path d="M8.08842 8.03262C8.36582 8.03682 8.62073 8.14436 8.86386 8.26502C8.82369 8.50423 8.12644 8.16797 8.31655 8.47223C8.41348 8.65689 8.71445 8.37518 8.74979 8.63066C8.76586 8.862 8.57789 9.09597 8.77282 9.30948C8.83815 9.56024 9.38118 9.28483 9.2971 9.60693C8.98328 9.62581 8.67 9.57597 8.35618 9.5765C8.13876 9.69191 7.87795 9.9647 8.22819 10.0979C8.34815 9.74437 8.52005 9.9689 8.50613 10.2244C8.74497 10.1383 9.51452 10.6608 8.79263 10.5213C8.94633 10.5769 9.11127 10.5596 9.27139 10.5827C9.4117 10.8224 8.94901 10.7474 8.85583 10.803C8.68017 10.8838 8.56932 11.1408 8.36421 11.1188C8.39045 10.9488 8.06378 10.9216 8.15536 11.0957C8.29513 11.474 9.0363 10.9509 8.89706 11.5191C8.71605 11.7835 9.22695 11.6271 9.32709 11.8517C9.0197 12.0437 8.20998 11.561 8.3278 12.1297C8.2887 12.5871 8.96079 12.3012 9.25854 12.4597C8.66357 12.6585 9.66554 12.3044 9.45026 12.7267C8.98167 12.7634 8.4997 12.7959 8.04022 12.6768C7.99416 12.3495 7.99416 12.0148 7.91223 11.6927C7.96043 10.7941 7.85278 9.9007 7.56895 9.04404C7.61555 8.74607 7.70551 8.45544 7.71515 8.1517C7.85975 8.19525 7.98345 8.12652 8.08842 8.03262Z" fill="#2B5823"/>
<path d="M18.9917 9.26017C19.3072 9.41912 19.719 9.28587 19.9289 9.02043C19.9 9.20876 19.8095 9.37925 19.7474 9.55814C20.0596 9.58332 20.3788 9.61847 20.6835 9.52719C20.774 9.92745 20.7563 10.4237 20.3188 10.5974C20.0033 10.6755 20.0462 11.1949 19.6312 10.9871C19.1187 10.9929 19.38 10.1331 18.8798 10.0434C19.1213 10.0345 19.011 9.93899 18.8322 9.97309C18.8729 9.79683 18.8659 9.62634 18.7807 9.46896C18.9478 9.53453 18.98 9.39237 18.9917 9.26017Z" fill="#3C7033"/>
<path d="M13.8635 9.36194C14.3268 9.25073 14.7793 9.06555 15.2709 9.10069C15.4267 9.41755 16.0496 9.53506 15.6597 9.0881C15.8187 9.17938 15.9853 9.36299 16.1647 9.20299C16.4973 9.21715 16.6767 9.56181 16.8646 9.79263C17.1881 9.58175 17.4034 10.0638 17.7713 9.88706C17.0901 9.74542 17.5126 10.1808 17.6085 10.4909C18.0546 10.5465 18.1901 11.0322 18.1697 11.3974C18.2747 11.5783 18.5788 11.8747 18.4091 12.2409C18.3255 12.6511 18.5553 13.054 18.3047 13.448C18.189 13.8692 18.0048 14.2837 17.699 14.6063C17.5999 14.1919 17.5094 13.7302 17.051 13.5524C17.1153 13.3777 17.3348 13.128 17.526 13.298C17.7841 13.4071 17.7418 14.0555 18.0963 13.7171C18.0819 13.3294 17.6411 13.0315 17.5003 12.6821C17.1983 12.7634 16.7955 12.4602 17.0729 12.1911C17.4569 11.8847 17.8023 12.4838 18.0755 12.5971C17.955 12.0038 17.2256 11.5547 16.6322 11.5558C16.381 11.3717 16.636 11.08 16.765 10.9058C16.749 10.5884 16.3987 10.5958 16.1743 10.738C15.6817 10.804 15.8257 10.1934 15.7636 9.93532C15.476 9.8304 15.2082 10.2464 14.8794 10.0791C14.8125 9.83617 14.8168 9.58752 14.8623 9.34358C14.5062 9.40601 14.1757 9.63053 14.0119 9.94949C13.9198 9.78686 13.7023 9.52089 13.8635 9.36194Z" fill="#414142"/>
<path d="M1.8988 9.40863C2.59391 9.30686 3.11766 9.91224 3.19263 10.5559C3.34526 11.1901 4.5277 11.3339 3.98521 12.073C2.61962 12.1276 1.83079 10.5858 1.8988 9.40863Z" fill="#E3C81A"/>
<path d="M17.7713 9.88706C18.1258 9.91171 18.4734 10.0109 18.8322 9.97309C19.011 9.93899 19.1213 10.0345 18.8798 10.0434C19.38 10.1331 19.1187 10.9929 19.6312 10.9871C20.0462 11.1949 20.0033 10.6755 20.3188 10.5974C20.4436 10.9305 20.7065 11.2012 20.7675 11.5589C20.4569 12.6438 19.3227 13.2597 18.3047 13.448C18.5553 13.054 18.3255 12.6511 18.4091 12.2409C18.9237 11.9844 19.2965 11.4629 19.2895 10.888C18.6983 10.6225 18.9334 11.3507 18.4262 11.411C18.4985 11.1839 18.2779 11.3722 18.1697 11.3974C18.1901 11.0322 18.0546 10.5465 17.6085 10.4909C17.5126 10.1808 17.0901 9.74542 17.7713 9.88706Z" fill="#141514"/>
<path d="M0.266512 10.9903C0.422351 10.6944 0.82828 10.7442 1.1105 10.6635C1.05588 10.8287 0.911822 11.0926 1.11211 11.2022C1.40879 11.0973 1.6139 11.4671 1.54482 11.7168C1.42968 11.8994 1.4993 12.2073 1.76867 12.0982C2.35132 12.0405 1.95342 12.7854 2.31704 12.8867C2.57892 12.5987 2.9645 12.9958 2.91148 13.2974C3.08285 13.6689 3.27028 13.0178 3.55036 13.2985C3.72173 13.4202 3.82991 13.9715 4.05376 13.5466C4.31991 13.0572 4.6664 13.9894 4.89989 13.5902C5.00432 13.1395 5.25227 13.7706 5.52431 13.5262C6.46577 13.2229 7.34564 12.6585 7.81048 11.7693C7.83565 11.7499 7.88706 11.7121 7.91223 11.6927C7.99416 12.0148 7.99416 12.3495 8.04022 12.6768C8.4997 12.7959 8.98167 12.7634 9.45026 12.7267C9.64573 12.637 9.43901 12.1292 9.51131 11.9345C9.90867 12.0059 10.2723 11.8506 10.6273 11.7121C10.6557 11.8994 10.6659 12.0909 10.6964 12.2787C10.9224 12.222 11.3851 11.7667 11.3128 12.2997C11.7723 12.4932 11.1125 13.074 11.5029 13.3205C11.9501 13.3363 11.685 13.8645 11.7991 14.1336C11.8762 14.3776 12.2698 14.2003 12.311 14.4731C12.3866 14.6441 12.3967 15.2253 12.725 15.0669C13.1791 14.8214 13.1368 15.8066 13.5342 15.6523C13.7982 15.346 14.1179 15.7562 14.2711 15.9592C14.0756 16.1486 13.6236 15.6067 13.2964 15.7861C11.9057 15.2536 10.4913 14.7952 9.27193 13.9306C8.97685 14.0287 8.73373 13.9107 8.49702 13.7586C7.78906 14.046 7.10519 13.7197 6.51343 13.3819C5.72407 13.7774 4.79332 14.0119 3.95094 13.7638C3.53965 13.9207 3.26493 13.3971 2.83543 13.5802C2.5923 13.3656 2.30848 13.2466 1.97645 13.2702C1.82061 12.84 1.22136 13.0792 1.08855 12.6674C0.670299 12.5892 0.505357 12.2692 0.193681 12.072C-0.327387 11.6109 0.317923 11.208 0.777941 11.1251C1.18119 10.9137 0.238129 11.1251 0.266512 10.9903Z" fill="black" fill-opacity="0.49"/>
<path d="M10.2107 11.0784C10.0977 10.942 10.3151 10.5774 10.0656 10.6771C9.62591 10.6524 9.75176 11.3334 10.2107 11.0784Z" fill="#202CA8"/>
<path d="M13.7832 10.825C15.4449 10.3943 16.9342 12.5688 15.9869 13.9385C15.951 13.5314 15.7111 14.3409 15.4728 14.1095C15.0615 14.0345 15.0958 13.5183 14.9389 13.246C15.815 12.8159 14.85 11.389 14.1018 12.0442C13.8705 11.8123 13.381 11.5878 13.4126 11.1818C13.3334 10.9572 14.2448 10.9656 13.7832 10.825Z" fill="#544C0A"/>
<path d="M12.627 11.9146C12.777 11.3937 13.2268 10.9037 13.7832 10.825C14.2448 10.9656 13.3334 10.9572 13.4126 11.1818C13.381 11.5878 13.8705 11.8123 14.1018 12.0442C14.85 11.389 15.815 12.8159 14.9389 13.246C15.0958 13.5183 15.0615 14.0345 15.4728 14.1095C15.7111 14.3409 15.951 13.5314 15.9869 13.9385C15.7491 14.344 15.258 14.6488 14.7696 14.6446C14.7964 14.1289 14.3712 13.8745 13.9524 13.7119C14.3118 13.746 14.5576 13.4706 14.8216 13.2828C14.2454 13.4968 13.7114 12.8877 13.8421 12.3359C13.5931 12.4822 13.2691 12.6212 13.328 12.9769C13.3398 12.5672 13.2022 11.8543 12.627 11.9146Z" fill="#B7A00D"/>
<path d="M18.4262 11.411C18.9334 11.3507 18.6983 10.6225 19.2895 10.888C19.2965 11.4629 18.9237 11.9844 18.4091 12.2409C18.5788 11.8747 18.2747 11.5783 18.1697 11.3974C18.2779 11.3722 18.4985 11.1839 18.4262 11.411Z" fill="#6C610E"/>
<path d="M8.3278 12.1297C8.20998 11.561 9.0197 12.0437 9.32709 11.8517C9.59003 11.8632 9.57504 12.5321 9.25854 12.4597C8.96079 12.3012 8.2887 12.5871 8.3278 12.1297Z" fill="black"/>
<path d="M12.627 11.9146C13.2022 11.8543 13.3398 12.5672 13.328 12.9769C13.4394 13.2875 13.6354 13.5697 13.9524 13.7119C14.3712 13.8745 14.7964 14.1289 14.7696 14.6446C13.366 14.7312 12.2489 13.2083 12.627 11.9146Z" fill="#DEC315"/>
<path d="M13.328 12.9769C13.2691 12.6212 13.5931 12.4822 13.8421 12.3359C13.7114 12.8877 14.2454 13.4968 14.8216 13.2828C14.5576 13.4706 14.3118 13.746 13.9524 13.7119C13.6354 13.5697 13.4394 13.2875 13.328 12.9769Z" fill="#534B0B"/>
</svg>
