<svg width="26" height="12" viewBox="0 0 26 12" fill="none" xmlns="http://www.w3.org/2000/svg">
<path d="M12.362 0.0573164C13.025 -0.043554 13.6987 0.0265647 14.3667 0.00503751C14.8021 -0.0226403 15.2305 0.0720786 15.6646 0.0868401C16.3965 0.195091 17.1915 0.166798 17.8451 0.557363C17.5224 0.788627 17.1202 0.835373 16.7436 0.927632C16.2363 1.03773 15.7265 1.13614 15.2136 1.21733C15.0535 1.25485 14.9159 1.14475 14.7777 1.08632C14.4562 0.91902 14.0915 0.872891 13.7362 0.825532C13.0738 0.739423 12.4108 0.647777 11.7427 0.624405C11.2179 0.524764 10.6813 0.631172 10.1546 0.546908C10.867 0.300268 11.6089 0.123128 12.362 0.0573164Z" fill="#465666"/>
<path d="M17.8889 0.581966C18.3812 0.874736 18.8428 1.21241 19.3075 1.54454C19.4445 1.64418 19.6178 1.68108 19.7541 1.78134C20.0112 2.09072 20.3684 2.32875 20.7556 2.4493C20.5079 2.584 20.2921 2.77344 20.0231 2.86816C19.7172 2.97764 19.4114 3.09265 19.0911 3.15539C18.8716 2.96534 18.5444 3.05821 18.3117 2.89091C18.1103 2.75744 17.8558 2.83248 17.6331 2.77221L17.6206 2.71501C18.0171 2.63136 18.4118 2.75499 18.8096 2.75929C19.0186 2.76729 19.2243 2.80911 19.4326 2.82572C19.3344 2.68241 19.1462 2.68548 18.9948 2.64058C19.0392 2.59138 19.0992 2.56247 19.1737 2.55386C18.9716 2.42593 18.749 2.32321 18.5851 2.14546C18.622 1.98923 18.6777 1.83916 18.7246 1.686C18.3849 1.44982 18.0271 1.23885 17.6887 1.00083C17.6656 0.925788 17.6437 0.851364 17.6293 0.774481C17.6975 0.752338 17.7657 0.728966 17.8339 0.705594C17.8476 0.674841 17.8751 0.612719 17.8889 0.581966Z" fill="#465666"/>
<path d="M8.50451 1.67247C8.69153 1.57775 8.51389 1.87667 8.50451 1.67247Z" fill="#465666"/>
<path d="M12.2832 2.19897C12.5534 2.08088 12.8417 1.99784 13.1282 1.92403C13.329 1.86622 13.5517 1.93265 13.6768 2.09933C13.7706 2.2697 13.7937 2.49358 13.9808 2.59937C14.2303 2.75868 14.4086 2.99916 14.6494 3.16954C14.7332 3.21382 14.7345 3.30977 14.7476 3.39158C14.7558 3.47153 14.7626 3.55211 14.7677 3.63329C14.1221 3.51459 13.4635 3.49736 12.8192 3.37866C12.7248 3.09388 12.2681 3.15047 12.2387 2.83187C12.1981 2.62213 12.2144 2.40009 12.2832 2.19897Z" fill="#465666"/>
<path d="M21.2679 2.50834C22.5739 2.69717 23.8731 2.98748 25.1003 3.47461C25.4869 3.6296 25.8553 3.92053 25.9998 4.31171C25.6676 4.67829 25.1741 4.81114 24.7438 5.02703C24.6199 5.03502 24.4954 5.03933 24.3728 5.05163L24.3722 5.10822C24.4754 5.1199 24.5786 5.12728 24.6825 5.1402C24.6055 5.58735 24.3597 6.00498 24.3747 6.46874C24.4223 6.57945 24.4761 6.75905 24.6212 6.76212C25.1566 6.62558 25.6826 6.3654 25.9992 5.90226C25.9941 6.02773 25.9841 6.15321 25.976 6.27868C25.6633 6.63296 25.2198 6.84146 24.7682 6.96755C24.6068 7.00507 24.4742 7.1041 24.3597 7.21788C24.2359 7.09487 24.1583 6.90359 23.9732 6.86053C23.8455 6.82178 23.7248 6.89682 23.606 6.92757C23.4659 6.94849 23.3314 6.98908 23.1925 7.01184C23.0311 7.0143 22.866 6.99338 22.7146 7.06166C22.527 7.0838 22.3356 7.00199 22.2286 6.84823C22.1223 6.71722 22.1667 6.5407 22.1298 6.38878C21.9665 6.19995 21.7095 6.09539 21.6113 5.85367C21.5118 5.63779 21.2616 5.4139 21.4236 5.16788C21.6419 5.52154 21.8865 5.87397 22.2142 6.13722C22.5307 6.24055 22.8867 6.17781 23.1775 6.02589C23.3864 5.90534 23.6335 5.94163 23.8637 5.90841C23.9256 5.81923 23.9638 5.71651 23.9913 5.61257C23.8506 5.59842 23.7092 5.59473 23.5691 5.57997C23.5297 5.32472 23.8205 5.3647 23.9894 5.34256C24.0882 5.34133 24.2227 5.22508 24.1777 5.12851C23.6379 5.04917 23.0987 5.1525 22.5595 5.15742C22.2511 5.1894 22.086 4.86157 21.7933 4.8339C21.3648 4.7607 20.9388 4.67029 20.506 4.62232C20.1732 4.59033 19.858 4.46794 19.5252 4.43534C19.3645 4.41935 19.1874 4.3972 19.0936 4.24897C19.3113 4.04354 19.6403 4.10812 19.9105 4.14011C20.9626 4.24282 22.0278 4.26558 23.0662 4.47655C23.043 4.42181 23.0024 4.38798 22.9448 4.37568C21.7514 4.07491 20.5291 3.91007 19.3069 3.77353C19.0323 3.7397 18.7415 3.74278 18.49 3.61423C18.5551 3.58409 18.6207 3.5558 18.687 3.52935C18.9304 3.48568 19.1718 3.43217 19.407 3.3559C19.6497 3.2618 19.9205 3.34914 20.1614 3.24519C20.5179 3.10742 20.8813 2.97887 21.2209 2.80357C21.3473 2.74453 21.291 2.60921 21.2679 2.50834Z" fill="#465666"/>
<path d="M25.4068 5.20786C25.5025 5.1771 25.5776 5.11683 25.637 5.0381C25.6132 5.1402 25.6626 5.28781 25.5557 5.35363C25.4475 5.41882 25.505 5.56644 25.4962 5.66792C25.5607 5.64516 25.5888 5.58551 25.5794 5.48894L25.6276 5.4914C25.627 5.56582 25.622 5.64024 25.6138 5.71467C25.5732 5.71713 25.4919 5.72266 25.4512 5.72512C25.4462 5.55229 25.383 5.37946 25.4068 5.20786Z" fill="#465666"/>
<path d="M2.30704 5.8832C2.39148 5.88627 2.4703 5.91702 2.53535 5.97054C2.6029 6.0345 2.66983 6.09785 2.73926 6.15997C2.5391 6.24055 2.33456 6.31066 2.12314 6.35802C2.0387 6.23501 1.94238 6.12061 1.83291 6.01789C1.99242 5.97791 2.15192 5.93671 2.30704 5.8832Z" fill="#465666"/>
<path d="M19.6803 6.0874C19.7129 6.07694 19.7779 6.05541 19.8104 6.04496C19.7704 6.23747 19.5834 6.35618 19.437 6.47181C19.452 6.31005 19.5715 6.19626 19.6803 6.0874Z" fill="#465666"/>
<path d="M3.91395 6.20856C4.03155 6.17966 4.16103 6.20611 4.19355 6.3365C4.20231 6.3568 4.22045 6.398 4.22921 6.4183C4.24985 6.4835 4.288 6.54008 4.33116 6.59298L4.35931 6.63849C4.17229 6.72952 4.13914 6.46997 4.0697 6.35495C4.06095 6.38386 4.04343 6.44229 4.03468 6.47181C3.93772 6.43183 3.89769 6.3039 3.91395 6.20856Z" fill="#465666"/>
<path d="M3.84265 6.38632C3.969 6.45951 4.02154 6.60897 4.0991 6.72583L4.12225 6.77073C4.12287 6.80395 4.12475 6.86976 4.126 6.90235C3.92459 6.85069 3.84515 6.57391 3.84265 6.38632Z" fill="#465666"/>
<path d="M20.192 7.1287C20.2145 7.07027 20.2577 7.04075 20.3202 7.04075C20.4891 7.02598 20.6586 7.02106 20.8288 7.02045C20.6799 7.17298 20.3965 7.10656 20.192 7.1287Z" fill="#465666"/>
<path d="M20.775 7.22895C20.9113 7.30276 20.5879 7.42147 20.5823 7.29784C20.6361 7.24986 20.7005 7.22649 20.775 7.22895Z" fill="#465666"/>
<path d="M3.37352 7.26217C3.56305 7.38764 3.82076 7.3126 3.99902 7.44546C3.95962 7.61952 3.70003 7.84094 3.89957 7.99348C3.99339 7.81019 4.02154 7.54571 4.26236 7.49405C4.4131 7.3981 4.50005 7.57216 4.57511 7.67365C4.56573 7.78067 4.61139 7.88215 4.70146 7.94489C4.75588 8.02485 4.81217 8.12203 4.73837 8.21183C4.61264 8.14171 4.57261 7.99594 4.48003 7.89445C4.47503 8.10234 4.62515 8.23704 4.8153 8.29609C4.65955 8.40434 4.46877 8.51444 4.27174 8.45908C3.75195 8.38589 3.37415 7.92028 3.26719 7.43808C3.30159 7.37841 3.33724 7.31937 3.37352 7.26217Z" fill="#465666"/>
<path d="M25.7896 7.62813C25.7927 7.62383 25.7984 7.61583 25.8015 7.61214L25.7896 7.62813Z" fill="#465666"/>
<path d="M4.78841 7.62075L4.85471 7.6349C4.86222 7.66504 4.87723 7.7247 4.88473 7.75483C4.89474 7.82495 4.92602 7.89015 4.9673 7.94858L4.99795 7.99963C4.78716 8.06113 4.749 7.76467 4.78841 7.62075Z" fill="#465666"/>
<path d="M18.8622 8.36375C18.946 8.3416 19.0117 8.36497 19.058 8.43386C19.0861 8.49168 19.1143 8.55011 19.1418 8.60977C19.1068 8.66697 19.0611 8.7131 19.0035 8.74939C18.9541 8.65897 18.9041 8.56918 18.8572 8.47815C18.8584 8.44985 18.8609 8.39204 18.8622 8.36375Z" fill="#465666"/>
<path d="M24.6456 8.38097C24.8345 8.28563 24.6543 8.58394 24.6456 8.38097Z" fill="#465666"/>
<path d="M18.7308 8.6639L18.7865 8.68973C18.8059 8.72171 18.844 8.78629 18.8634 8.81889C18.9454 8.98557 19.0461 9.14242 19.1362 9.30541C19.0329 9.32324 18.9591 9.26297 18.9197 9.17563C18.8353 9.0151 18.7052 8.85457 18.7308 8.6639Z" fill="#465666"/>
<path d="M18.1798 9.69659C18.368 9.74456 18.5626 9.72119 18.7546 9.72427C18.8578 10.0053 18.3111 10.2188 18.6051 10.4556C18.6983 10.3172 18.7652 10.1634 18.8572 10.0244C18.9241 10.0699 18.9917 10.1148 19.0623 10.1567C19.1205 10.1333 19.1643 10.0939 19.1931 10.0379C19.23 9.95184 19.2206 9.83621 19.2994 9.7747C19.3964 9.91247 19.4752 10.0607 19.5577 10.2071C19.5609 10.2348 19.5665 10.2901 19.5696 10.3178C19.5346 10.3172 19.4645 10.3153 19.4295 10.3147C19.452 10.4734 19.4839 10.6684 19.6453 10.749C19.7848 10.7693 19.9193 10.6948 20.0406 10.6352C20.0281 10.5558 20.0112 10.4777 19.9943 10.4002C20.0475 10.4322 20.1044 10.4488 20.1651 10.4507C20.2201 10.3891 20.2714 10.3252 20.3209 10.2594C20.3621 10.3117 20.404 10.3645 20.446 10.4174C20.3515 10.5977 20.1964 10.7465 20.0369 10.8732C19.4802 11.233 18.687 11.0436 18.2773 10.5521C18.106 10.3363 17.9283 10.1019 17.8902 9.82329C17.9765 9.76609 18.064 9.6646 18.1798 9.69659ZM19.2569 10.2391C19.2043 10.2963 19.2838 10.4205 19.3588 10.3787C19.4107 10.3196 19.3313 10.196 19.2569 10.2391Z" fill="#465666"/>
<path d="M9.46153 1.59375C9.60165 1.20872 9.62666 0.601034 10.1546 0.546908C10.6813 0.631172 11.2179 0.524764 11.7427 0.624405C12.4108 0.647777 13.0738 0.739423 13.7362 0.825532C14.0915 0.872891 14.4562 0.91902 14.7777 1.08632C14.9159 1.14475 15.0535 1.25485 15.2136 1.21733C15.7265 1.13614 16.2363 1.03773 16.7436 0.927632C17.1202 0.835373 17.5224 0.788627 17.8451 0.557363L17.8889 0.581966C17.8751 0.612719 17.8476 0.674841 17.8339 0.705594C17.7657 0.728966 17.6975 0.752338 17.6293 0.774481C17.6437 0.851364 17.6656 0.925788 17.6887 1.00083C17.5955 1.06971 17.493 1.12507 17.3923 1.18227C17.4561 1.30897 17.5393 1.4406 17.4898 1.5876C17.1896 1.67678 16.875 1.75613 16.5597 1.72537C16.5472 1.60913 16.5472 1.49226 16.5672 1.37725C16.7411 1.29606 16.9801 1.35756 17.1252 1.23947C16.6842 1.2813 16.2426 1.10908 15.811 1.25669C15.836 1.59006 15.8729 2.0163 16.2088 2.19221C16.5578 2.27032 16.9194 2.26232 17.2722 2.31891C17.3535 2.32137 17.4436 2.36196 17.5211 2.32198C17.635 2.16268 17.7144 1.96525 17.8945 1.86438C18.004 1.83239 18.1679 1.80718 18.2317 1.92711C18.3155 2.04459 18.2961 2.19651 18.3174 2.33121C18.4087 2.27155 18.4969 2.20819 18.5851 2.14546C18.749 2.32321 18.9716 2.42593 19.1737 2.55386C19.0992 2.56247 19.0392 2.59138 18.9948 2.64058C19.1462 2.68548 19.3344 2.68241 19.4326 2.82572C19.2243 2.80911 19.0186 2.76729 18.8096 2.75929C18.4118 2.75499 18.0171 2.63136 17.6206 2.71501L17.6331 2.77221C17.8558 2.83248 18.1103 2.75744 18.3117 2.89091C18.5444 3.05821 18.8716 2.96534 19.0911 3.15539C18.9516 3.18983 18.8103 3.21875 18.6745 3.26549C18.6032 3.34299 18.6764 3.44324 18.687 3.52935C18.6207 3.5558 18.5551 3.58409 18.49 3.61423C18.7415 3.74278 19.0323 3.7397 19.3069 3.77353C20.5291 3.91007 21.7514 4.07491 22.9448 4.37568C23.0024 4.38798 23.043 4.42181 23.0662 4.47655C22.0278 4.26558 20.9626 4.24282 19.9105 4.14011C19.6403 4.10812 19.3113 4.04354 19.0936 4.24897C19.1874 4.3972 19.3645 4.41935 19.5252 4.43534C19.858 4.46794 20.1732 4.59033 20.506 4.62232C20.9388 4.67029 21.3648 4.7607 21.7933 4.8339C22.086 4.86157 22.2511 5.1894 22.5595 5.15742C23.0987 5.1525 23.6379 5.04917 24.1777 5.12851C24.2227 5.22508 24.0882 5.34133 23.9894 5.34256C23.8205 5.3647 23.5297 5.32472 23.5691 5.57997C23.7092 5.59473 23.8506 5.59842 23.9913 5.61257C23.9638 5.71651 23.9256 5.81923 23.8637 5.90841C23.6335 5.94163 23.3864 5.90534 23.1775 6.02589C22.8867 6.17781 22.5307 6.24055 22.2142 6.13722C21.8865 5.87397 21.6419 5.52154 21.4236 5.16788C21.2616 5.4139 21.5118 5.63779 21.6113 5.85367C21.7095 6.09539 21.9665 6.19995 22.1298 6.38878C22.1667 6.5407 22.1223 6.71722 22.2286 6.84823C22.3356 7.00199 22.527 7.0838 22.7146 7.06166C22.6596 7.19205 22.6077 7.33782 22.6715 7.47498C22.7247 7.60107 22.6909 7.76652 22.7953 7.86493C22.9761 7.85079 23.1538 7.80835 23.332 7.77759C23.5109 7.63305 23.3852 7.34274 23.5391 7.17545C23.6973 7.06843 23.9212 7.11333 24.0689 6.98601C23.915 6.96202 23.7599 6.94602 23.606 6.92757C23.7248 6.89682 23.8455 6.82178 23.9732 6.86053C24.1583 6.90359 24.2359 7.09487 24.3597 7.21788C24.4179 7.28185 24.4798 7.34336 24.538 7.40856C24.5155 7.56601 24.441 7.7124 24.3591 7.84833C24.2884 7.83418 24.2184 7.81757 24.1483 7.80404C24.0226 8.05622 23.8975 8.31147 23.718 8.53228C23.499 8.57718 23.2745 8.58579 23.0543 8.62146C22.7978 8.66513 22.5458 8.55196 22.2893 8.59809C22.0785 8.60854 21.7464 8.6842 21.6738 8.41541C21.5712 8.03408 21.4912 7.64044 21.286 7.29477C20.9964 6.81133 20.5923 6.3691 20.0594 6.1446C19.6591 6.21779 19.6666 6.69078 19.574 6.99708C19.6253 7.02414 19.6797 7.04321 19.7373 7.05489C19.691 7.06843 19.5984 7.09426 19.5521 7.10718C20.0075 7.2634 20.5229 7.40118 20.8231 7.80281C20.9958 8.00271 21.2078 8.17246 21.3273 8.41295C21.4274 8.61162 21.6213 8.7334 21.7645 8.89824C21.8208 9.02433 21.844 9.16149 21.8759 9.29557C21.8809 9.60064 21.8927 9.91186 21.8008 10.2077C21.6357 10.5811 21.4568 10.9741 21.1121 11.2219C20.9332 11.1315 21.0483 10.9101 21.059 10.7619C21.2466 10.0232 21.0952 9.21131 20.6568 8.58456C20.3903 8.2432 20.0087 8.00517 19.6247 7.80835C19.3789 7.67365 19.0511 7.67672 18.8628 7.45223C18.9673 7.38457 19.0792 7.33106 19.1849 7.26586C19.1993 7.23265 19.2269 7.16561 19.2406 7.13239C18.9641 7.16253 18.7064 7.2714 18.4381 7.33782C18.4956 7.26033 18.6095 7.20436 18.5989 7.09549C18.5951 6.69385 18.8384 6.32235 18.7577 5.91457C18.2085 5.98038 17.6963 6.27684 17.376 6.72153C17.194 6.93803 17.1458 7.22404 16.9932 7.45653C16.8656 7.21235 16.9638 6.93127 16.9075 6.67356C16.87 6.5979 16.7962 6.50626 16.7005 6.54501C16.5472 6.69754 16.5547 6.95771 16.3827 7.0961C16.1431 7.24679 15.8617 7.14223 15.609 7.09426C14.4293 6.9042 13.2421 6.7609 12.0605 6.58253C11.8535 6.54562 11.6433 6.5364 11.4344 6.51733C11.1573 6.49211 10.8964 6.38694 10.6225 6.34573C10.184 6.27746 9.74238 6.22825 9.30453 6.15875C9.11688 6.13291 8.95801 6.02774 8.80226 5.93117C8.82665 6.24301 8.83353 6.56469 8.94362 6.86176C9.11563 6.84024 9.29015 6.80518 9.46341 6.84024C11.5807 7.19205 13.7068 7.49467 15.8248 7.84341C15.9517 7.85755 16.0812 7.89323 16.1544 8.00578C16.0775 8.11157 15.9248 8.0636 15.8141 8.05991C13.7275 7.7247 11.6389 7.40364 9.55098 7.08134C9.23573 7.01307 8.90859 7.01491 8.60084 6.91343C8.16049 6.8224 7.70763 6.79411 7.27478 6.66556C7.00331 6.56284 6.72622 6.73506 6.4535 6.68094C5.81486 6.26392 5.92495 5.34502 5.34386 4.8788C5.19061 4.84928 5.04675 5.00612 4.88349 4.97291C4.82657 4.86712 4.79279 4.75148 4.76152 4.63647C4.87911 4.66476 4.99608 4.70043 5.11805 4.6992C4.99045 4.38306 4.61265 4.25636 4.30553 4.16533C3.82514 3.99496 3.27095 4.23053 2.9901 4.63155C2.83372 4.85174 2.79244 5.12298 2.7768 5.385C2.68798 5.34871 2.60229 5.29704 2.50283 5.29766C2.47531 5.52216 2.49094 5.74973 2.53535 5.97054C2.4703 5.91702 2.39148 5.88627 2.30704 5.8832C2.07936 5.69868 1.82854 5.54491 1.59648 5.36716C1.36254 5.20971 1.31626 4.90463 1.31 4.64754C1.50078 4.5399 1.48389 4.31663 1.52205 4.13027C1.59711 4.09583 1.71282 4.08722 1.71408 3.98142C1.79101 3.63637 1.83417 3.27533 1.75974 2.92536C1.68343 2.85586 1.56396 2.86939 1.46888 2.84233L1.42072 2.83187C1.4351 2.61967 1.52643 2.42224 1.61337 2.23034C2.31581 2.33859 3.02638 2.39641 3.73319 2.47144C5.46208 2.66088 7.19284 2.82634 8.92298 3.00532C9.00679 3.02008 9.08248 2.9598 9.12564 2.89522C7.58128 2.75191 6.03879 2.58462 4.49505 2.43024C4.26237 2.39333 4.02655 2.38534 3.79137 2.38841C3.85954 2.32629 3.96213 2.35766 4.04532 2.35397C5.72917 2.52126 7.41489 2.68364 9.09937 2.84294C9.26012 2.47759 9.35457 2.07965 9.41087 1.68785C9.3871 1.6651 9.33831 1.62081 9.31454 1.59805C9.35082 1.59682 9.42463 1.59498 9.46153 1.59375ZM10.3185 0.997753C10.1358 1.12446 9.96506 1.41046 10.1127 1.61405C10.1946 1.51994 10.2009 1.38217 10.2916 1.29175C10.2791 1.41538 10.2603 1.53901 10.2378 1.66264C10.6519 1.64357 11.0566 1.77581 11.4719 1.71369C11.5495 1.52548 11.6195 1.3262 11.6208 1.12077C11.7465 1.13061 11.8703 1.15828 11.9954 1.17489C11.9948 1.14414 11.9936 1.08202 11.9929 1.05126C11.4381 0.998982 10.8739 0.925175 10.3185 0.997753ZM12.0461 1.04757C12.048 1.07833 12.0505 1.14045 12.0517 1.17182C12.2431 1.18104 12.4364 1.18166 12.6203 1.2407C12.5152 1.27945 12.549 1.39631 12.5503 1.48058C12.636 1.48673 12.721 1.48673 12.8073 1.48058C12.8111 1.43383 12.8192 1.34096 12.823 1.29421C13.122 1.30098 13.4116 1.41292 13.7068 1.40738C13.7475 1.56423 13.7612 1.77888 13.9464 1.83608C14.2097 1.97755 14.5556 2.17314 14.8346 1.96156C15.0016 2.19897 15.2781 2.33306 15.4632 2.55694C15.6202 2.74945 15.9161 2.86755 15.9305 3.14371C15.9367 3.27472 15.9636 3.41618 15.9148 3.54227C15.6058 3.51213 15.2706 3.56564 14.9966 3.38358C14.9215 3.31839 14.8258 3.35406 14.7476 3.39158C14.7345 3.30977 14.7332 3.21382 14.6494 3.16954C14.4086 2.99916 14.2303 2.75868 13.9808 2.59937C13.7937 2.49358 13.7706 2.2697 13.6768 2.09933C13.5517 1.93265 13.329 1.86622 13.1282 1.92403C12.8417 1.99784 12.5534 2.08088 12.2832 2.19897C12.2144 2.40009 12.1981 2.62213 12.2387 2.83187C12.2681 3.15047 12.7248 3.09388 12.8192 3.37866C12.5133 3.39649 12.2181 3.31039 11.9198 3.26242C11.8159 3.24458 11.7077 3.29501 11.607 3.26119C11.3699 3.14863 11.0978 3.23412 10.8501 3.16093C10.5067 3.15109 10.1458 3.04222 9.91815 2.77836C9.84246 2.54402 9.98821 2.31768 9.99071 2.08457C10.002 1.91235 10.1834 1.74075 10.052 1.58206C10.0351 1.60236 10.002 1.64357 9.98508 1.66387C9.86623 2.02429 9.82182 2.40317 9.73488 2.77159C9.86185 3.00901 10.1483 3.14248 10.3973 3.2372C11.7334 3.41434 13.0701 3.5964 14.4105 3.72002C14.5306 3.78276 14.6019 3.9193 14.7408 3.95006C14.9735 4.00787 15.2061 4.06876 15.442 4.11612C15.609 4.16779 15.7172 3.99926 15.851 3.93529C16.0524 3.82458 16.272 3.99557 16.4828 3.93222C16.5528 3.76431 16.6116 3.50721 16.4352 3.38358C16.2614 3.26057 16.2057 3.03915 16.0305 2.9186C15.7785 2.71808 15.5658 2.47575 15.3287 2.25863C15.0704 2.02122 14.8784 1.71246 14.57 1.52978C14.1778 1.27146 13.6949 1.24009 13.2421 1.17489C12.8436 1.13122 12.4477 1.05434 12.0461 1.04757ZM17.7538 2.33429C17.8639 2.39087 17.9884 2.40686 18.1116 2.40686C18.0928 2.28446 18.0678 2.1633 18.0378 2.04336C17.8795 2.0329 17.8345 2.23157 17.7538 2.33429ZM12.0017 3.99988C12.0067 4.0294 12.0167 4.08845 12.0217 4.11797C11.8885 4.07553 11.7496 4.01956 11.6083 4.06384C11.5951 4.15733 11.5638 4.26989 11.6483 4.34308C11.8441 4.39782 12.0348 4.48086 12.2369 4.5073C12.4014 4.46978 12.6241 4.41566 12.6929 4.25082C12.5528 4.02694 12.2569 3.94698 12.0017 3.99988ZM19.0717 5.90842C18.9967 5.99391 18.991 6.11016 18.9742 6.21656C18.9373 6.51302 18.8484 6.79964 18.8115 7.0961C19.0154 7.05243 19.1806 6.90605 19.3676 6.81932C19.3976 6.70492 19.4114 6.58683 19.437 6.47181C19.5834 6.35618 19.7704 6.23747 19.8104 6.04496C19.7779 6.05541 19.7129 6.07694 19.6803 6.0874L19.6941 6.04127C19.5252 5.9201 19.2756 5.89858 19.0717 5.90842Z" fill="#303D45"/>
<path d="M3.70817 1.70507C4.15103 1.61774 4.59263 1.51871 5.04362 1.47873C4.75339 1.58821 4.44376 1.62389 4.14102 1.68293C3.70192 1.75797 3.26532 1.849 2.82747 1.9308C2.52097 1.98739 2.2176 2.07534 1.90298 2.07719C2.49908 1.92896 3.10081 1.79918 3.70817 1.70507Z" fill="#303D45"/>
<path d="M24.3728 5.05163C24.4954 5.03933 24.6199 5.03502 24.7438 5.02703C24.7688 5.05102 24.8195 5.09961 24.8445 5.12421C24.7113 5.532 24.6231 5.95147 24.5274 6.36848C24.4773 6.40293 24.4266 6.43614 24.3747 6.46874C24.3597 6.00498 24.6055 5.58735 24.6825 5.1402C24.5786 5.12728 24.4754 5.1199 24.3722 5.10822L24.3728 5.05163Z" fill="#303D45"/>
<path d="M3.94149 5.26568C4.12663 5.22385 4.31804 5.22139 4.50694 5.21155C4.71148 5.18387 4.87286 5.33641 5.04049 5.42621C5.32697 5.58797 5.52025 5.86106 5.69664 6.128C5.92182 6.49765 6.00501 6.98601 6.40784 7.22465C6.41659 7.33782 6.4266 7.45161 6.42035 7.56601C6.11198 7.6023 5.94059 7.8717 5.6785 7.99533C5.52526 7.70379 5.56529 7.35935 5.4577 7.05243C5.29945 6.41646 4.82407 5.88751 4.23359 5.60027C4.10287 5.52708 3.88707 5.45573 3.94149 5.26568Z" fill="#303D45"/>
<path d="M2.73926 6.15997C2.77179 6.14829 2.83748 6.12615 2.87063 6.11508C2.83185 6.21226 2.78806 6.30759 2.74553 6.40354C2.53536 6.43983 2.32894 6.49519 2.1244 6.553C2.12378 6.50441 2.12377 6.40661 2.12314 6.35802C2.33456 6.31066 2.5391 6.24055 2.73926 6.15997Z" fill="#303D45"/>
<path d="M3.45797 6.31682C3.72006 5.99145 4.25236 6.0179 4.56011 6.26638C4.74588 6.42446 4.95729 6.59298 4.99857 6.847C5.00358 6.85623 5.01296 6.87529 5.01796 6.88452C5.26879 7.24126 5.22501 7.73515 5.03361 8.10911C4.97356 8.17862 4.91538 8.28809 4.8153 8.29609C4.62515 8.23704 4.47503 8.10234 4.48003 7.89445C4.57261 7.99594 4.61264 8.14171 4.73837 8.21183C4.81217 8.12203 4.75588 8.02485 4.70146 7.94489C4.7759 7.8268 4.68833 7.71855 4.57511 7.67365C4.50005 7.57216 4.4131 7.3981 4.26236 7.49405C4.02154 7.54571 3.99339 7.81019 3.89957 7.99348C3.70003 7.84094 3.95962 7.61952 3.99902 7.44546C3.82076 7.3126 3.56305 7.38764 3.37352 7.26217C3.33724 7.31937 3.30159 7.37841 3.26719 7.43808L3.21778 7.45592C3.20527 7.07089 3.14898 6.61267 3.45797 6.31682ZM3.91395 6.20856C3.89769 6.3039 3.93772 6.43183 4.03468 6.47181C4.04343 6.44229 4.06095 6.38386 4.0697 6.35495C4.13914 6.46997 4.17229 6.72952 4.35931 6.63849L4.33116 6.59298C4.41373 6.53947 4.43313 6.47428 4.38997 6.39739C4.41061 6.37094 4.45189 6.31805 4.47191 6.2916C4.41937 6.26884 4.36432 6.25101 4.30865 6.23809C4.26612 6.26577 4.22796 6.29837 4.19355 6.3365C4.16103 6.20611 4.03155 6.17966 3.91395 6.20856ZM3.84265 6.38632C3.84515 6.57391 3.92459 6.85069 4.126 6.90235C4.12475 6.86976 4.12287 6.80395 4.12225 6.77073C4.32116 6.84208 4.15102 6.52778 4.0991 6.72583C4.02154 6.60897 3.969 6.45951 3.84265 6.38632ZM4.78841 7.62075C4.749 7.76467 4.78716 8.06113 4.99795 7.99963L4.9673 7.94858C5.12493 7.91045 5.01922 7.65581 4.88473 7.75483C4.87723 7.7247 4.86222 7.66504 4.85471 7.6349L4.78841 7.62075Z" fill="#303D45"/>
<path d="M18.5907 8.33915C19.0348 8.13679 19.559 8.27764 19.9324 8.55996C20.1113 8.66144 20.2302 8.82935 20.3177 9.00956C20.3227 9.01694 20.3315 9.0317 20.3365 9.03908C20.6198 9.40382 20.6417 9.91678 20.5004 10.3418C20.4872 10.3602 20.4597 10.3984 20.446 10.4174C20.404 10.3645 20.3621 10.3117 20.3209 10.2594C20.359 10.1819 20.394 10.1025 20.4272 10.0232C20.2614 10.0256 20.0782 10.0343 19.9506 10.153C19.9587 10.236 19.9749 10.3178 19.9943 10.4002C20.0112 10.4777 20.0281 10.5558 20.0406 10.6352C19.9193 10.6948 19.7848 10.7693 19.6453 10.749C19.4839 10.6684 19.452 10.4734 19.4295 10.3147C19.4645 10.3153 19.5346 10.3172 19.5696 10.3178C19.5903 10.3498 19.6309 10.4144 19.6509 10.4464C19.691 10.4507 19.7698 10.4599 19.8092 10.4648C19.8123 10.3892 19.8017 10.316 19.7773 10.2465C19.7041 10.2311 19.6309 10.2182 19.5577 10.2071C19.4752 10.0607 19.3964 9.91247 19.2994 9.7747C19.2206 9.83621 19.23 9.95184 19.1931 10.0379C19.1161 9.90202 18.9279 9.8565 18.8572 10.0244C18.7652 10.1634 18.6983 10.3172 18.6051 10.4556C18.3111 10.2188 18.8578 10.0053 18.7546 9.72427C18.5626 9.72119 18.368 9.74456 18.1798 9.69659C18.064 9.6646 17.9765 9.76609 17.8902 9.82329L17.8501 9.85343C17.8545 9.54836 17.8007 9.22484 17.9365 8.93822C18.0816 8.67743 18.2811 8.41419 18.5907 8.33915ZM18.8622 8.36375C18.8609 8.39204 18.8584 8.44985 18.8572 8.47815C18.8328 8.49967 18.784 8.54212 18.7596 8.56303C18.7659 8.5944 18.7796 8.65775 18.7865 8.68973L18.7308 8.6639C18.7052 8.85457 18.8353 9.0151 18.9197 9.17563C18.9591 9.26297 19.0329 9.32324 19.1362 9.30541C19.0461 9.14242 18.9454 8.98557 18.8634 8.81889C18.8985 8.80167 18.9685 8.76661 19.0035 8.74939C19.0611 8.7131 19.1068 8.66697 19.1418 8.60977L19.1893 8.63253C19.2344 8.7334 19.2857 8.89394 19.4289 8.87302C19.524 8.75555 19.6009 8.62515 19.6741 8.49353C19.6228 8.47385 19.5709 8.45663 19.5183 8.44309C19.3651 8.42833 19.2112 8.42648 19.058 8.43386C19.0117 8.36497 18.946 8.3416 18.8622 8.36375ZM19.5402 8.98927C19.5152 9.1295 19.6935 9.1621 19.7992 9.16518C19.8743 9.02863 19.9406 8.88655 19.9931 8.73955C19.9556 8.69281 19.9143 8.64975 19.8686 8.611C19.7216 8.69527 19.6234 8.84657 19.5402 8.98927ZM18.6345 8.93576C18.5357 8.96098 18.5063 9.14672 18.6182 9.17194C18.7177 9.15349 18.7377 8.95852 18.6345 8.93576ZM19.9418 9.33063C20.08 9.4395 20.2739 9.43888 20.441 9.48009C20.4078 9.27281 20.2996 9.08583 20.1814 8.91485C20.0056 8.95298 19.8843 9.16948 19.9418 9.33063ZM18.5926 9.35954C18.5563 9.42904 18.5939 9.52191 18.6439 9.57604C18.7458 9.56374 18.7008 9.32263 18.5926 9.35954ZM19.8667 9.53237C19.7679 9.82453 20.1833 9.82206 20.3753 9.8356C20.5473 9.93401 20.5173 9.59265 20.359 9.68983C20.2433 9.56189 20.0356 9.52868 19.8667 9.53237Z" fill="#303D45"/>
<path d="M10.3185 0.997753C10.8739 0.925175 11.4381 0.998982 11.9929 1.05126C11.9936 1.08202 11.9948 1.14414 11.9954 1.17489C11.8703 1.15828 11.7465 1.13061 11.6208 1.12077C11.3011 1.10908 10.9771 1.14045 10.6669 1.04327C10.4861 0.990987 10.3723 1.1632 10.2916 1.29175C10.2009 1.38217 10.1946 1.51994 10.1127 1.61405C9.96506 1.41046 10.1358 1.12446 10.3185 0.997753Z" fill="#212424"/>
<path d="M12.0461 1.04757C12.4477 1.05434 12.8436 1.13122 13.2421 1.17489C13.6949 1.24009 14.1778 1.27146 14.57 1.52978C14.8784 1.71246 15.0704 2.02122 15.3287 2.25863C15.5658 2.47575 15.7785 2.71808 16.0305 2.9186C16.2057 3.03915 16.2614 3.26057 16.4352 3.38358C16.6116 3.50721 16.5528 3.76431 16.4828 3.93222C16.272 3.99557 16.0524 3.82458 15.851 3.93529C15.7172 3.99926 15.609 4.16779 15.442 4.11612C15.2061 4.06876 14.9735 4.00787 14.7408 3.95006C14.6019 3.9193 14.5306 3.78276 14.4105 3.72002C13.0701 3.5964 11.7334 3.41434 10.3973 3.2372C10.1483 3.14248 9.86185 3.00901 9.73488 2.77159C9.82182 2.40317 9.86623 2.02429 9.98508 1.66387C10.002 1.64357 10.0351 1.60236 10.052 1.58206C10.1834 1.74075 10.002 1.91235 9.99071 2.08457C9.98821 2.31768 9.84246 2.54402 9.91815 2.77836C10.1458 3.04222 10.5067 3.15109 10.8501 3.16093C11.0978 3.23412 11.3699 3.14863 11.607 3.26119C11.7077 3.29501 11.8159 3.24458 11.9198 3.26242C12.2181 3.31039 12.5133 3.39649 12.8192 3.37866C13.4635 3.49736 14.1221 3.51459 14.7677 3.63329C14.7626 3.55211 14.7558 3.47153 14.7476 3.39158C14.8258 3.35406 14.9215 3.31839 14.9966 3.38358C15.2706 3.56564 15.6058 3.51213 15.9148 3.54227C15.9636 3.41618 15.9367 3.27472 15.9305 3.14371C15.9161 2.86755 15.6202 2.74945 15.4632 2.55694C15.2781 2.33306 15.0016 2.19897 14.8346 1.96156C14.7201 1.73706 14.4805 1.63004 14.2672 1.51748C14.0959 1.43014 13.902 1.35326 13.7068 1.40738C13.4116 1.41292 13.122 1.30098 12.823 1.29421C12.7554 1.27576 12.6879 1.25793 12.6203 1.2407C12.4364 1.18166 12.2431 1.18104 12.0517 1.17182C12.0505 1.14045 12.048 1.07833 12.0461 1.04757Z" fill="#1A1C1C"/>
<path d="M5.04362 1.47873C5.85677 1.22656 6.70494 1.40861 7.53247 1.4406C7.83522 1.50456 8.14734 1.45843 8.45071 1.51687C8.73656 1.57099 9.03432 1.50457 9.31454 1.59805C9.33831 1.62081 9.3871 1.6651 9.41087 1.68785C9.35457 2.07965 9.26012 2.47759 9.09937 2.84294C7.41489 2.68364 5.72917 2.52126 4.04532 2.35397C3.96213 2.35766 3.85954 2.32629 3.79137 2.38841C4.02655 2.38534 4.26237 2.39333 4.49505 2.43024C6.03879 2.58462 7.58128 2.75191 9.12564 2.89522C9.08248 2.9598 9.00679 3.02008 8.92298 3.00532C7.19284 2.82634 5.46208 2.66088 3.73319 2.47144C3.02638 2.39641 2.31581 2.33859 1.61337 2.23034C1.64402 2.0981 1.79602 2.10364 1.90298 2.07719C2.2176 2.07534 2.52097 1.98739 2.82747 1.9308C3.26532 1.849 3.70192 1.75797 4.14102 1.68293C4.44376 1.62389 4.75339 1.58821 5.04362 1.47873ZM8.50451 1.67247C8.69153 1.57775 8.51389 1.87667 8.50451 1.67247Z" fill="#1B1C1C"/>
<path d="M20.0231 2.86816C20.2921 2.77344 20.5079 2.584 20.7556 2.4493C20.927 2.45852 21.0983 2.47821 21.2679 2.50834C21.291 2.60921 21.3473 2.74453 21.2209 2.80357C20.8813 2.97887 20.5179 3.10742 20.1614 3.24519C19.9205 3.34914 19.6497 3.2618 19.407 3.3559C19.1718 3.43217 18.9304 3.48568 18.687 3.52935C18.6764 3.44324 18.6032 3.34299 18.6745 3.26549C18.8103 3.21875 18.9516 3.18983 19.0911 3.15539C19.4114 3.09265 19.7172 2.97764 20.0231 2.86816Z" fill="#212424"/>
<path d="M1.46888 2.84233C1.56396 2.86939 1.68343 2.85586 1.75974 2.92536C1.83417 3.27533 1.79101 3.63637 1.71408 3.98142C1.71282 4.08722 1.59711 4.09583 1.52205 4.13027L1.52766 4.08106C1.5777 3.95744 1.63587 3.83565 1.6659 3.70587C1.6071 3.65298 1.54267 3.60685 1.47825 3.56195C1.47199 3.53858 1.45886 3.4906 1.45198 3.46662C1.52078 3.4008 1.59146 3.33622 1.65526 3.26549C1.5752 3.13202 1.47201 3.0047 1.46888 2.84233Z" fill="#322222"/>
<path d="M12.0017 3.99988C12.2569 3.94698 12.5528 4.02694 12.6929 4.25082C12.6241 4.41566 12.4014 4.46978 12.2369 4.5073C12.0348 4.48086 11.8441 4.39782 11.6483 4.34308C11.5638 4.26989 11.5951 4.15733 11.6083 4.06384C11.7496 4.01956 11.8885 4.07553 12.0217 4.11797C12.0167 4.08845 12.0067 4.0294 12.0017 3.99988Z" fill="#212424"/>
<path d="M2.9901 4.63155C3.27095 4.23053 3.82514 3.99496 4.30553 4.16533C4.61265 4.25636 4.99045 4.38306 5.11805 4.6992C4.99608 4.70043 4.87911 4.66476 4.76152 4.63647C4.79279 4.75148 4.82657 4.86712 4.88349 4.97291C5.04675 5.00612 5.19061 4.84928 5.34386 4.8788C5.92495 5.34502 5.81486 6.26392 6.4535 6.68094C6.72622 6.73506 7.00331 6.56284 7.27478 6.66556C7.70763 6.79411 8.16049 6.8224 8.60084 6.91343C8.90859 7.01491 9.23573 7.01307 9.55098 7.08134C11.6389 7.40364 13.7275 7.7247 15.8141 8.05991C15.9248 8.0636 16.0775 8.11157 16.1544 8.00578C16.0812 7.89323 15.9517 7.85755 15.8248 7.84341C13.7068 7.49467 11.5807 7.19205 9.46341 6.84024C9.29015 6.80518 9.11563 6.84024 8.94362 6.86176C8.83353 6.56469 8.82665 6.24301 8.80226 5.93117C8.95801 6.02774 9.11688 6.13291 9.30453 6.15875C9.74238 6.22825 10.184 6.27746 10.6225 6.34573C10.8964 6.38694 11.1573 6.49211 11.4344 6.51733C11.6433 6.5364 11.8535 6.54562 12.0605 6.58253C13.2421 6.7609 14.4293 6.9042 15.609 7.09426C15.8617 7.14223 16.1431 7.24679 16.3827 7.0961C16.5547 6.95771 16.5472 6.69754 16.7005 6.54501C16.7962 6.50626 16.87 6.5979 16.9075 6.67356C16.9638 6.93127 16.8656 7.21235 16.9932 7.45653C17.1458 7.22404 17.194 6.93803 17.376 6.72153C17.6963 6.27684 18.2085 5.98038 18.7577 5.91457C18.8384 6.32235 18.5951 6.69385 18.5989 7.09549C18.6095 7.20436 18.4956 7.26033 18.4381 7.33782C18.7064 7.2714 18.9641 7.16253 19.2406 7.13239C19.2269 7.16561 19.1993 7.23265 19.1849 7.26586C19.0792 7.33106 18.9673 7.38457 18.8628 7.45223C19.0511 7.67672 19.3789 7.67365 19.6247 7.80835C20.0087 8.00517 20.3903 8.2432 20.6568 8.58456C21.0952 9.21131 21.2466 10.0232 21.059 10.7619C21.0483 10.9101 20.9332 11.1315 21.1121 11.2219C20.7994 11.4778 20.4497 11.6937 20.0588 11.8124C18.8659 12.1083 17.6174 11.2619 17.2428 10.156C17.0901 9.80669 17.1083 9.4192 17.122 9.0477C17.137 8.75801 17.3016 8.50644 17.3797 8.23274C17.2471 8.27026 17.0495 8.3127 17.082 8.49107C16.6398 8.36129 16.1744 8.36313 15.7253 8.26534C13.9357 7.99471 12.1468 7.71855 10.3554 7.45715C9.96317 7.3981 9.57161 7.3163 9.17254 7.32306C8.90733 7.33106 8.67526 7.18221 8.41756 7.15023C8.14296 7.11333 7.86837 7.07827 7.59502 7.03214C7.403 6.99585 7.21097 7.05244 7.01894 7.04752C6.81628 7.02476 6.63488 6.91958 6.43347 6.89067C6.41971 7.00138 6.41222 7.11271 6.40784 7.22465C6.00501 6.98601 5.92182 6.49765 5.69664 6.128C5.52025 5.86106 5.32697 5.58797 5.04049 5.42621C4.87286 5.33641 4.71148 5.18387 4.50694 5.21155C4.31804 5.22139 4.12663 5.22385 3.94149 5.26568C3.88707 5.45573 4.10287 5.52708 4.23359 5.60027C4.82407 5.88751 5.29945 6.41646 5.4577 7.05243C5.56529 7.35935 5.52526 7.70379 5.6785 7.99533C5.94059 7.8717 6.11198 7.6023 6.42035 7.56601C6.39283 7.9535 6.23581 8.32623 5.97247 8.61654C5.89491 8.67743 5.81798 8.73955 5.74292 8.80352C5.38513 8.97758 5.0042 9.12089 4.60638 9.17194C4.21231 9.16887 3.84514 8.97697 3.53552 8.75063C2.97069 8.28318 2.68797 7.55125 2.6717 6.83716C2.68359 6.69078 2.71613 6.54685 2.74553 6.40354C2.78806 6.30759 2.83185 6.21226 2.87063 6.11508C2.83748 6.12615 2.77179 6.14829 2.73926 6.15997C2.66983 6.09785 2.6029 6.0345 2.53535 5.97054C2.49094 5.74973 2.47531 5.52216 2.50283 5.29766C2.60229 5.29704 2.68798 5.34871 2.7768 5.385C2.79244 5.12298 2.83372 4.85174 2.9901 4.63155ZM3.45797 6.31682C3.14898 6.61267 3.20527 7.07089 3.21778 7.45592L3.26719 7.43808C3.37415 7.92028 3.75195 8.38589 4.27174 8.45908C4.46877 8.51444 4.65955 8.40434 4.8153 8.29609C4.91538 8.28809 4.97356 8.17862 5.03361 8.10911C5.22501 7.73515 5.26879 7.24126 5.01796 6.88452C5.01296 6.87529 5.00358 6.85623 4.99857 6.847C4.95729 6.59298 4.74588 6.42446 4.56011 6.26638C4.25236 6.0179 3.72006 5.99145 3.45797 6.31682ZM18.5907 8.33915C18.2811 8.41419 18.0816 8.67743 17.9365 8.93822C17.8007 9.22484 17.8545 9.54836 17.8501 9.85343L17.8902 9.82329C17.9283 10.1019 18.106 10.3363 18.2773 10.5521C18.687 11.0436 19.4802 11.233 20.0369 10.8732C20.1964 10.7465 20.3515 10.5977 20.446 10.4174C20.4597 10.3984 20.4872 10.3602 20.5004 10.3418C20.6417 9.91678 20.6198 9.40382 20.3365 9.03908C20.3315 9.0317 20.3227 9.01694 20.3177 9.00956C20.2302 8.82935 20.1113 8.66144 19.9324 8.55996C19.559 8.27764 19.0348 8.13679 18.5907 8.33915Z" fill="#151616"/>
<path d="M24.7438 5.02703C25.1741 4.81114 25.6676 4.67829 25.9998 4.31171C25.9954 4.84189 26.0023 5.37208 25.9992 5.90226C25.6826 6.3654 25.1566 6.62558 24.6212 6.76212C24.4761 6.75905 24.4223 6.57945 24.3747 6.46874C24.4266 6.43614 24.4773 6.40293 24.5274 6.36848C24.6231 5.95147 24.7113 5.532 24.8445 5.12421C24.8195 5.09961 24.7688 5.05102 24.7438 5.02703ZM25.4068 5.20786C25.383 5.37946 25.4462 5.55229 25.4512 5.72512C25.4919 5.72266 25.5732 5.71713 25.6138 5.71467C25.622 5.64024 25.627 5.56582 25.6276 5.4914L25.5794 5.48894C25.5888 5.58551 25.5607 5.64516 25.4962 5.66792C25.505 5.56644 25.4475 5.41882 25.5557 5.35363C25.6626 5.28781 25.6132 5.1402 25.637 5.0381C25.5776 5.11683 25.5025 5.1771 25.4068 5.20786ZM25.2767 5.24907C25.3098 5.27921 25.3098 5.27921 25.2767 5.24907Z" fill="#1B1D1D"/>
<path d="M19.0717 5.90842C19.2756 5.89858 19.5252 5.9201 19.6941 6.04127L19.6803 6.0874C19.5715 6.19626 19.452 6.31005 19.437 6.47181C19.4114 6.58683 19.3976 6.70492 19.3676 6.81932C19.1806 6.90605 19.0154 7.05243 18.8115 7.0961C18.8484 6.79964 18.9373 6.51302 18.9742 6.21656C18.991 6.11016 18.9967 5.99391 19.0717 5.90842Z" fill="#212424"/>
<path d="M1.5802 6.08617C1.66465 6.0628 1.74847 6.03942 1.83291 6.01789C1.94238 6.12061 2.0387 6.23501 2.12314 6.35802C2.12377 6.40661 2.12378 6.50441 2.1244 6.553C1.82979 6.66802 1.61023 6.33773 1.5802 6.08617Z" fill="#212424"/>
<path d="M19.574 6.99708C19.6666 6.69078 19.6591 6.21779 20.0594 6.1446C20.5923 6.3691 20.9964 6.81133 21.286 7.29477C21.4912 7.64044 21.5712 8.03408 21.6738 8.41541C21.7464 8.6842 22.0785 8.60854 22.2893 8.59809C22.5458 8.55196 22.7978 8.66513 23.0543 8.62146C23.2745 8.58579 23.499 8.57718 23.718 8.53228C23.8975 8.31147 24.0226 8.05622 24.1483 7.80404C24.2184 7.81757 24.2884 7.83418 24.3591 7.84833C24.441 7.7124 24.5155 7.56601 24.538 7.40856C24.4798 7.34336 24.4179 7.28185 24.3597 7.21788C24.4742 7.1041 24.6068 7.00507 24.7682 6.96755C25.2198 6.84146 25.6633 6.63296 25.976 6.27868C26.0398 6.63173 25.9278 6.98047 25.8815 7.3286C25.8622 7.42455 25.8684 7.53218 25.8015 7.61214C25.7984 7.61583 25.7927 7.62383 25.7896 7.62813C25.7277 7.70501 25.6651 7.78067 25.6026 7.85755C25.368 8.11342 24.9877 8.18169 24.7838 8.47077C24.6775 8.4923 24.5692 8.49783 24.4642 8.51936C24.3159 8.61716 24.2108 8.76415 24.0713 8.87241C23.8487 9.05939 23.5778 9.17317 23.3182 9.29926C23.0186 9.35093 22.7078 9.39152 22.4088 9.31341C22.2343 9.2642 22.0529 9.26174 21.8759 9.29557C21.844 9.16149 21.8208 9.02433 21.7645 8.89824C21.6213 8.7334 21.4274 8.61162 21.3273 8.41295C21.2078 8.17246 20.9958 8.00271 20.8231 7.80281C20.5229 7.40118 20.0075 7.2634 19.5521 7.10718C19.5984 7.09426 19.691 7.06843 19.7373 7.05489C19.6797 7.04321 19.6253 7.02414 19.574 6.99708ZM20.192 7.1287C20.3965 7.10656 20.6799 7.17298 20.8288 7.02045C20.6586 7.02106 20.4891 7.02598 20.3202 7.04075C20.2577 7.04075 20.2145 7.07027 20.192 7.1287ZM20.5823 7.29784C20.6361 7.24986 20.7005 7.22649 20.775 7.22895C20.9113 7.30276 20.5879 7.42147 20.5823 7.29784ZM24.6456 8.38097C24.8345 8.28563 24.6543 8.58394 24.6456 8.38097Z" fill="#131414"/>
<path d="M4.30865 6.23809C4.36432 6.25101 4.41937 6.26884 4.47191 6.2916C4.45189 6.31805 4.41061 6.37094 4.38997 6.39739C4.34931 6.40293 4.26924 6.41338 4.22921 6.4183C4.22045 6.398 4.20231 6.3568 4.19355 6.3365C4.22796 6.29837 4.26612 6.26577 4.30865 6.23809Z" fill="#212424"/>
<path d="M23.1925 7.01184C23.3314 6.98908 23.4659 6.94849 23.606 6.92757C23.7599 6.94602 23.915 6.96202 24.0689 6.98601C23.9212 7.11333 23.6973 7.06843 23.5391 7.17545C23.3852 7.34274 23.5109 7.63305 23.332 7.77759C23.1538 7.80835 22.9761 7.85079 22.7953 7.86493C22.6909 7.76652 22.7247 7.60107 22.6715 7.47498C22.6077 7.33782 22.6596 7.19205 22.7146 7.06166C22.866 6.99338 23.0311 7.0143 23.1925 7.01184Z" fill="#212424"/>
<path d="M19.5183 8.44309C19.5709 8.45663 19.6228 8.47385 19.6741 8.49353C19.6009 8.62515 19.524 8.75555 19.4289 8.87302C19.2857 8.89394 19.2344 8.7334 19.1893 8.63253C19.3332 8.63376 19.4977 8.61285 19.5183 8.44309Z" fill="#212424"/>
<path d="M19.5402 8.98927C19.6234 8.84657 19.7216 8.69527 19.8686 8.611C19.9143 8.64975 19.9556 8.69281 19.9931 8.73955C19.9406 8.88655 19.8743 9.02863 19.7992 9.16518C19.6935 9.1621 19.5152 9.1295 19.5402 8.98927Z" fill="#212424"/>
<path d="M19.9418 9.33063C19.8843 9.16948 20.0056 8.95298 20.1814 8.91485C20.2996 9.08583 20.4078 9.27281 20.441 9.48009C20.2739 9.43888 20.08 9.4395 19.9418 9.33063Z" fill="#212424"/>
<path d="M19.8667 9.53237C20.0356 9.52868 20.2433 9.56189 20.359 9.68983C20.3634 9.72673 20.3715 9.79931 20.3753 9.8356C20.1833 9.82206 19.7679 9.82453 19.8667 9.53237Z" fill="#212424"/>
<path d="M17.6887 1.00083C18.0271 1.23885 18.3849 1.44982 18.7246 1.686C18.6777 1.83916 18.622 1.98923 18.5851 2.14546C18.4969 2.20819 18.4087 2.27155 18.3174 2.33121C18.2961 2.19651 18.3155 2.04459 18.2317 1.92711C18.1679 1.80718 18.004 1.83239 17.8945 1.86438C17.7144 1.96525 17.635 2.16268 17.5211 2.32198C17.4436 2.36196 17.3535 2.32137 17.2722 2.31891C16.9194 2.26232 16.5578 2.27032 16.2088 2.19221C15.8729 2.0163 15.836 1.59006 15.811 1.25669C16.2426 1.10908 16.6842 1.2813 17.1252 1.23947C16.9801 1.35756 16.7411 1.29606 16.5672 1.37725C16.5472 1.49226 16.5472 1.60913 16.5597 1.72537C16.875 1.75613 17.1896 1.67678 17.4898 1.5876C17.5393 1.4406 17.4561 1.30897 17.3923 1.18227C17.493 1.12507 17.5955 1.06971 17.6887 1.00083Z" fill="#1B2232"/>
<path d="M10.2916 1.29175C10.3723 1.1632 10.4861 0.990987 10.6669 1.04327C10.9771 1.14045 11.3011 1.10908 11.6208 1.12077C11.6195 1.3262 11.5495 1.52548 11.4719 1.71369C11.0566 1.77581 10.6519 1.64357 10.2378 1.66264C10.2603 1.53901 10.2791 1.41538 10.2916 1.29175Z" fill="#1B2232"/>
<path d="M12.6203 1.2407C12.6879 1.25793 12.7554 1.27576 12.823 1.29421C12.8192 1.34096 12.8111 1.43383 12.8073 1.48058C12.721 1.48673 12.636 1.48673 12.5503 1.48058C12.549 1.39631 12.5152 1.27945 12.6203 1.2407Z" fill="#1B2232"/>
<path d="M13.7068 1.40738C13.902 1.35326 14.0959 1.43014 14.2672 1.51748C14.4805 1.63004 14.7201 1.73706 14.8346 1.96156C14.5556 2.17314 14.2097 1.97755 13.9464 1.83608C13.7612 1.77888 13.7475 1.56423 13.7068 1.40738Z" fill="#1B2232"/>
<path d="M17.7538 2.33429C17.8345 2.23157 17.8795 2.0329 18.0378 2.04336C18.0678 2.1633 18.0928 2.28446 18.1116 2.40686C17.9884 2.40686 17.8639 2.39087 17.7538 2.33429Z" fill="#1B2232"/>
<path d="M1.42072 2.83187L1.46888 2.84233C1.47201 3.0047 1.5752 3.13202 1.65526 3.26549C1.59146 3.33622 1.52078 3.4008 1.45198 3.46662C1.39318 3.26057 1.42072 3.04284 1.42072 2.83187Z" fill="#1B2232"/>
<path d="M1.47825 3.56195C1.54267 3.60685 1.6071 3.65298 1.6659 3.70587C1.63587 3.83565 1.5777 3.95744 1.52766 4.08106C1.49576 3.90946 1.4845 3.7354 1.47825 3.56195Z" fill="#1B2232"/>
<path d="M0.291681 6.46505C0.711392 6.30882 1.1411 6.17597 1.5802 6.08617C1.61023 6.33773 1.82979 6.66802 2.1244 6.553C2.32894 6.49519 2.53536 6.43983 2.74553 6.40354C2.71613 6.54685 2.68359 6.69078 2.6717 6.83716C2.68797 7.55125 2.97069 8.28318 3.53552 8.75063C3.84514 8.97697 4.21231 9.16887 4.60638 9.17194C5.0042 9.12089 5.38513 8.97758 5.74292 8.80352C5.72478 8.86749 5.70539 8.93206 5.68413 8.99542C5.39702 9.15902 5.06926 9.28203 4.73462 9.28757C3.8733 9.21069 3.02137 8.95298 2.28578 8.5009C2.07999 8.38343 1.97428 8.17185 1.88796 7.96396C1.58772 7.93505 1.23744 8.08943 0.98849 7.83971C1.06418 7.7942 1.14174 7.75237 1.21805 7.70809C0.944079 7.59738 0.630703 7.54264 0.411778 7.3329C0.355482 7.2308 0.344223 7.11271 0.301064 7.0063C0.21537 6.90543 0.0977758 6.83655 0.00144865 6.74675C-0.0185674 6.58375 0.173461 6.52286 0.291681 6.46505Z" fill="black" fill-opacity="0.22"/>
<path d="M4.22921 6.4183C4.26924 6.41338 4.34931 6.40293 4.38997 6.39739C4.43313 6.47428 4.41373 6.53947 4.33116 6.59298C4.288 6.54008 4.24985 6.4835 4.22921 6.4183Z" fill="black"/>
<path d="M4.12225 6.77073C4.32116 6.84208 4.15102 6.52778 4.0991 6.72583L4.12225 6.77073Z" fill="black"/>
<path d="M6.43347 6.89067C6.63488 6.91958 6.81628 7.02476 7.01894 7.04752C7.21097 7.05244 7.403 6.99585 7.59502 7.03214C7.86837 7.07827 8.14296 7.11333 8.41756 7.15023C8.67526 7.18221 8.90733 7.33106 9.17254 7.32306C9.57161 7.3163 9.96317 7.3981 10.3554 7.45715C12.1468 7.71855 13.9357 7.99471 15.7253 8.26534C16.1744 8.36313 16.6398 8.36129 17.082 8.49107C17.0495 8.3127 17.2471 8.27026 17.3797 8.23274C17.3016 8.50644 17.137 8.75801 17.122 9.0477C17.1083 9.4192 17.0901 9.80669 17.2428 10.156C17.6174 11.2619 18.8659 12.1083 20.0588 11.8124C20.0125 11.8745 19.9656 11.9373 19.9193 12H19.2831C19.1462 11.9514 19.0098 11.9022 18.8672 11.877C18.2135 11.7737 17.5812 11.5713 16.9582 11.356C16.3583 11.1297 15.7534 10.8984 15.2155 10.5478C15.0285 10.4285 14.8984 10.2151 14.6669 10.1726C14.1816 10.0558 13.6874 9.97767 13.1964 9.8891C11.1654 9.51392 9.12376 9.20085 7.09338 8.82258C6.71808 8.76354 6.34027 8.71433 5.97247 8.61654C6.23581 8.32623 6.39283 7.9535 6.42035 7.56601C6.4266 7.45161 6.41659 7.33782 6.40784 7.22465C6.41222 7.11271 6.41971 7.00138 6.43347 6.89067Z" fill="black" fill-opacity="0.32"/>
<path d="M4.70146 7.94489C4.7759 7.8268 4.68833 7.71855 4.57511 7.67365C4.56573 7.78067 4.61139 7.88215 4.70146 7.94489Z" fill="black"/>
<path d="M4.9673 7.94858C5.12493 7.91045 5.01922 7.65581 4.88473 7.75483C4.89474 7.82495 4.92602 7.89015 4.9673 7.94858Z" fill="black"/>
<path d="M19.058 8.43386C19.2112 8.42648 19.3651 8.42833 19.5183 8.44309C19.4977 8.61285 19.3332 8.63376 19.1893 8.63253L19.1418 8.60977C19.1143 8.55011 19.0861 8.49168 19.058 8.43386Z" fill="black"/>
<path d="M18.7596 8.56303C18.784 8.54212 18.8328 8.49967 18.8572 8.47815C18.9041 8.56918 18.9541 8.65897 19.0035 8.74939C18.9685 8.76661 18.8985 8.80167 18.8634 8.81889C18.844 8.78629 18.8059 8.72171 18.7865 8.68973C18.7796 8.65775 18.7659 8.5944 18.7596 8.56303Z" fill="black"/>
<path d="M18.6182 9.17194C18.7177 9.15349 18.7377 8.95852 18.6345 8.93576C18.5357 8.96098 18.5063 9.14672 18.6182 9.17194Z" fill="black"/>
<path d="M21.8759 9.29557C22.0529 9.26174 22.2343 9.2642 22.4088 9.31341C22.7078 9.39152 23.0186 9.35093 23.3182 9.29926C23.1475 9.50039 22.831 9.43765 22.6659 9.64369C22.4263 9.89402 22.1373 10.105 21.8008 10.2077C21.8927 9.91186 21.8809 9.60064 21.8759 9.29557Z" fill="black"/>
<path d="M18.6439 9.57604C18.7458 9.56374 18.7008 9.32263 18.5926 9.35954C18.5563 9.42904 18.5939 9.52191 18.6439 9.57604Z" fill="black"/>
<path d="M20.3753 9.8356C20.5473 9.93401 20.5173 9.59265 20.359 9.68983C20.3634 9.72673 20.3715 9.79931 20.3753 9.8356Z" fill="black"/>
<path d="M18.8572 10.0244C18.9279 9.8565 19.1161 9.90202 19.1931 10.0379C19.1643 10.0939 19.1205 10.1333 19.0623 10.1567C18.9917 10.1148 18.9241 10.0699 18.8572 10.0244Z" fill="black"/>
<path d="M19.9506 10.153C20.0782 10.0343 20.2614 10.0256 20.4272 10.0232C20.394 10.1025 20.359 10.1819 20.3209 10.2594C20.2714 10.3252 20.2201 10.3891 20.1651 10.4507C20.1044 10.4488 20.0475 10.4322 19.9943 10.4002C19.9749 10.3178 19.9587 10.236 19.9506 10.153Z" fill="black"/>
<path d="M19.3588 10.3787C19.4107 10.3196 19.3313 10.196 19.2569 10.2391C19.2043 10.2963 19.2838 10.4205 19.3588 10.3787Z" fill="black"/>
<path d="M19.5577 10.2071C19.6309 10.2182 19.7041 10.2311 19.7773 10.2465C19.8017 10.316 19.8123 10.3892 19.8092 10.4648C19.7698 10.4599 19.691 10.4507 19.6509 10.4464C19.6309 10.4144 19.5903 10.3498 19.5696 10.3178C19.5665 10.2901 19.5609 10.2348 19.5577 10.2071Z" fill="black"/>
</svg>
