<svg width="12" height="16" viewBox="0 0 12 16" fill="none" xmlns="http://www.w3.org/2000/svg">
<path d="M6.39552 0.0154979C6.54057 -0.0203351 6.71817 0.00275743 6.81982 0.118617C6.9709 0.471771 6.94157 0.862351 6.99581 1.23462C7.07497 2.04683 7.15975 2.85865 7.22564 3.67166C6.85518 3.65254 6.48914 3.73655 6.11908 3.71545C6.06443 3.58566 6.06001 3.44511 6.05278 3.30735C5.96679 2.52978 5.88603 1.75141 5.79924 0.974229C5.76308 0.713047 5.73053 0.4013 5.93304 0.195061C6.06443 0.0915435 6.236 0.0557104 6.39552 0.0154979ZM6.16448 0.543835C6.13153 0.627047 6.13796 0.718621 6.13113 0.80661L6.16408 0.796657C6.17211 0.851203 6.1914 0.934813 6.26453 0.930433C6.49557 0.973831 6.71375 0.601168 6.49195 0.457836C6.48954 0.476549 6.48432 0.513178 6.4819 0.531493C6.44574 0.503623 6.40958 0.474956 6.37422 0.445892C6.3019 0.468586 6.19381 0.457438 6.16448 0.543835Z" fill="#282A2A"/>
<path d="M7.14609 3.73417C7.36828 3.7262 7.60133 3.71067 7.81027 3.80066C8.02965 3.89661 8.15502 4.11678 8.24743 4.32461C8.32659 4.49343 8.31092 4.68215 8.31534 4.86251C8.31172 5.0564 8.45757 5.22004 8.43829 5.41593C8.42463 5.69542 8.35712 5.97651 8.41739 6.25521C8.46199 6.26716 8.5066 6.27831 8.5516 6.28906C8.55682 6.31374 8.56767 6.36351 8.57289 6.38819C8.36637 6.3448 8.16225 6.27831 7.94889 6.28269C7.53302 6.28348 7.11756 6.28388 6.70209 6.2807C6.51405 6.28149 6.3248 6.28826 6.14117 6.33126C5.94309 6.37625 5.78879 6.5156 5.61079 6.60478C5.50512 6.66729 5.36931 6.71626 5.32391 6.84088C5.30301 6.88946 5.31507 6.95276 5.36168 6.98262C5.48342 7.06146 5.62847 7.09092 5.76107 7.14706C6.00416 7.23943 6.20305 7.42098 6.45458 7.49464C6.78125 7.59975 7.12801 7.56113 7.46552 7.57148C7.62102 7.57745 7.77732 7.57108 7.93201 7.55117C7.97822 7.29397 7.9067 7.02443 7.99188 6.774C8.06461 6.58528 8.29525 6.57293 8.46842 6.57453C8.77982 6.58448 9.08519 6.51759 9.39498 6.50246C9.59307 6.50644 9.77991 6.43597 9.94104 6.32489C10.1829 6.20624 10.4594 6.23929 10.7201 6.24008C11.0697 6.23889 11.4201 6.2365 11.7696 6.25362C11.6933 6.28547 11.619 6.3233 11.5398 6.34758C11.408 6.36669 11.2718 6.37545 11.1525 6.43995C10.958 6.54427 10.731 6.516 10.5192 6.5383C9.91974 6.59165 9.32306 6.66809 8.72638 6.74175C8.52588 6.77678 8.32177 6.76962 8.11966 6.77917C8.05939 6.96391 8.06582 7.15781 8.09073 7.34772C8.11363 7.48309 8.02724 7.59975 7.9951 7.72556C8.03447 7.86212 8.14819 7.97361 8.14899 8.12171C8.16145 8.49955 8.12408 8.87898 8.17029 9.25603C8.196 9.43917 8.16627 9.63068 8.2181 9.80945C8.32538 9.88191 8.4624 9.85683 8.57972 9.82736C8.84733 9.75689 9.10327 9.65019 9.36967 9.57574C9.59468 9.51641 9.79558 9.39418 10.0194 9.33167C10.3296 9.39578 10.6494 9.38383 10.9612 9.43838C11.1882 9.48058 11.3992 9.36273 11.6005 9.27753C11.6009 9.33924 11.6013 9.40135 11.6009 9.46306C11.4799 9.5184 11.3654 9.59604 11.2324 9.61953C11.2131 9.62192 11.175 9.6271 11.1561 9.62949C11.0335 9.63864 10.9118 9.65099 10.7896 9.65815C10.7129 9.66134 10.6354 9.65736 10.5598 9.67368C10.5156 9.76565 10.5112 9.86997 10.4935 9.9691C10.3103 10.0579 10.1303 10.1853 9.92094 10.1964C9.70277 10.1921 9.74415 9.91774 9.69111 9.77123C9.49744 9.72026 9.34074 9.86399 9.17118 9.9273C8.81357 10.0766 8.45235 10.2231 8.1068 10.3939C8.02523 10.5528 8.10559 10.7331 8.09434 10.9016C8.03206 11.0114 7.87857 11.0811 7.90469 11.228C7.89023 11.4259 8.1514 11.4092 8.25667 11.5235C8.30891 11.8523 8.2398 12.184 8.25587 12.5144C8.26391 12.6629 8.22573 12.8123 8.24583 12.96C8.29444 13.0197 8.35592 13.0671 8.41418 13.1176C8.29886 13.2184 8.16546 13.3 8.06341 13.4146C7.94407 13.5751 8.00916 13.7841 8.018 13.9661C7.95331 14.0361 7.88942 14.1062 7.82514 14.1763C7.9284 14.3391 8.08631 14.4506 8.23819 14.5641C8.33824 14.6254 8.3073 14.7536 8.31453 14.8519C8.30409 15.09 8.32418 15.3289 8.30529 15.567C8.30007 15.7131 8.16587 15.8003 8.06381 15.8847C8.04653 15.8875 8.01157 15.8931 7.9943 15.8959C8.02644 15.7955 8.06421 15.6869 8.01358 15.5857C7.88018 15.2815 7.97702 14.9503 7.95974 14.6334C7.94889 14.488 7.78013 14.4542 7.66763 14.4144C7.304 14.2862 6.91465 14.2707 6.54579 14.1647C6.62937 14.0696 6.71334 13.9259 6.86 13.939C7.13524 13.9581 7.3932 14.0748 7.66883 14.0931C7.73835 14.0991 7.83598 14.0803 7.85005 13.9991C7.88862 13.816 7.84281 13.6241 7.89264 13.4425C7.94367 13.3219 8.02805 13.2192 8.09635 13.1081C8.03247 12.9918 7.95894 12.8728 7.95733 12.7366C7.94969 12.5527 7.95291 12.3687 7.94608 12.1852C7.93764 11.9626 7.98706 11.7432 7.98345 11.5211C7.67727 11.3463 7.31042 11.4044 6.98215 11.3053C6.71053 11.2233 6.41561 11.2519 6.15283 11.1365C5.79723 10.9792 5.42275 10.8024 5.20497 10.4656C5.08564 10.5126 4.97353 10.5747 4.86665 10.6448C4.79674 10.685 4.7212 10.7411 4.63561 10.7192C4.31819 10.6535 3.9634 10.7491 3.6737 10.5727C3.49489 10.3561 3.47078 10.0491 3.28716 9.83334C3.19233 9.73818 3.05612 9.69598 2.96531 9.59684C2.89018 9.48018 2.86848 9.33924 2.8275 9.20905C2.72463 9.29584 2.60771 9.37627 2.54422 9.4981C2.51128 9.59007 2.52413 9.6908 2.52132 9.78715C2.48194 9.80347 2.44297 9.8198 2.40359 9.83612C2.42931 9.49014 2.36582 9.14654 2.37185 8.80095C2.35698 8.4677 2.32765 8.13565 2.32524 7.8024C2.28104 7.40426 2.30716 7.00253 2.26055 6.60478C2.23644 6.36231 2.30354 6.12462 2.31118 5.88335C2.31881 5.65402 2.32524 5.42349 2.29591 5.19535C2.27903 5.05959 2.26537 4.91586 2.32203 4.78646C2.43574 4.46436 2.75316 4.27007 3.05934 4.15381C3.25783 4.08891 3.44587 3.98858 3.65361 3.95633C4.81844 3.8978 5.98166 3.79906 7.14609 3.73417ZM5.98327 9.83652C5.79361 9.91217 5.59432 9.97985 5.44043 10.1188C5.44284 10.2689 5.59432 10.327 5.70964 10.3832C5.88884 10.4628 6.05921 10.5611 6.21832 10.6754C6.38306 10.7937 6.58236 10.8554 6.78366 10.8717C7.09466 10.898 7.40163 10.9529 7.71142 10.9888C7.76004 10.9895 7.84241 10.9995 7.85728 10.9374C7.90751 10.7136 7.82956 10.4692 7.93121 10.255C7.9959 10.1562 8.08631 10.0782 8.16466 9.9902C8.03769 9.8839 7.85728 9.88748 7.70299 9.84409C7.31284 9.80029 6.92068 9.76923 6.53052 9.72504C6.34047 9.69996 6.15765 9.77162 5.98327 9.83652ZM5.58709 10.4835C5.60758 10.5042 5.60758 10.5042 5.58709 10.4835ZM5.38578 10.5552C5.50552 10.4943 5.39101 10.6882 5.38578 10.5552Z" fill="#282A2A"/>
<path d="M1.88848 10.2486C1.93871 10.171 2.04117 10.0957 2.1372 10.1379C2.32042 10.2179 2.40078 10.4978 2.23162 10.6336C2.12313 10.6647 2.01143 10.6276 1.90415 10.6101C1.89611 10.5954 1.88004 10.5659 1.87201 10.5508C1.85553 10.4521 1.82741 10.3386 1.88848 10.2486Z" fill="#282A2A"/>
<path d="M6.81982 0.118617C6.86362 0.145293 6.90741 0.171969 6.95161 0.198246C7.00545 0.432355 7.12801 0.66089 7.09385 0.906545C7.08501 0.994933 7.07216 1.08412 7.07939 1.1733C7.16738 2.00343 7.22846 2.83635 7.30842 3.66728C7.40364 3.66887 7.49887 3.66967 7.5941 3.66927C7.60374 3.40769 7.5495 3.15009 7.53182 2.8901C7.484 2.29248 7.42052 1.69646 7.36467 1.09964C7.34578 0.849212 7.3265 0.597187 7.26783 0.352328C7.35141 0.412846 7.41128 0.501234 7.41449 0.606344C7.49807 1.47947 7.57401 2.353 7.662 3.22573C7.66642 3.37146 7.67366 3.51757 7.71504 3.65852C7.83076 3.66767 7.95854 3.64657 8.06341 3.70709C8.21127 3.79747 8.36637 3.8779 8.53512 3.92129C8.89554 4.01924 9.26159 4.09648 9.6208 4.1984C9.94586 4.29077 10.2802 4.35169 10.5984 4.46595C10.9905 4.62521 11.4076 4.71081 11.8002 4.87047C11.8862 4.93975 11.9247 5.04884 11.9485 5.15315C11.9798 5.31002 12.024 5.47246 11.9842 5.63252C11.9432 5.81964 11.9826 6.01195 11.9581 6.20067C11.9211 6.27194 11.8351 6.24964 11.7696 6.25362C11.4201 6.2365 11.0697 6.23889 10.7201 6.24008C10.4594 6.23929 10.1829 6.20624 9.94104 6.32489C9.84058 6.3006 9.73893 6.2799 9.63567 6.2791C9.27444 6.2787 8.91282 6.28945 8.5516 6.28906C8.5066 6.27831 8.46199 6.26716 8.41739 6.25521C8.35712 5.97651 8.42463 5.69542 8.43829 5.41593C8.45757 5.22004 8.31172 5.0564 8.31534 4.86251C8.31092 4.68215 8.32659 4.49343 8.24743 4.32461C8.15502 4.11678 8.02965 3.89661 7.81027 3.80066C7.60133 3.71067 7.36828 3.7262 7.14609 3.73417C5.98166 3.79906 4.81844 3.8978 3.65361 3.95633C3.44587 3.98858 3.25783 4.08891 3.05934 4.15381C2.75316 4.27007 2.43574 4.46436 2.32203 4.78646C2.26537 4.91586 2.27903 5.05959 2.29591 5.19535C2.32524 5.42349 2.31881 5.65402 2.31118 5.88335C2.30354 6.12462 2.23644 6.36231 2.26055 6.60478C2.30716 7.00253 2.28104 7.40426 2.32524 7.8024C2.32765 8.13565 2.35698 8.4677 2.37185 8.80095C2.36582 9.14654 2.42931 9.49014 2.40359 9.83612C2.32685 9.86598 2.2493 9.89306 2.17175 9.92053C2.16291 9.80905 2.14925 9.69797 2.13318 9.58728C2.09822 9.35835 2.14684 9.12544 2.10345 8.8969C2.0484 8.62298 2.11349 8.34189 2.05844 8.06836C2.01344 7.82868 2.06809 7.58382 2.02308 7.34454C1.96764 7.07022 2.03353 6.78913 1.97808 6.5148C1.93268 6.27552 1.98813 6.03066 1.94272 5.79177C1.9142 5.64605 1.91219 5.49715 1.92344 5.34983C1.99938 5.30644 2.08215 5.27021 2.14443 5.2073C2.20791 5.09263 2.21997 4.95846 2.26135 4.83543C2.32203 4.61486 2.47431 4.43729 2.6049 4.25414C2.82709 4.04392 3.14814 3.99495 3.43703 3.93085C3.73196 3.89064 4.02889 3.86078 4.32663 3.85799C4.54521 3.80464 4.77183 3.84565 4.99121 3.80225C5.17684 3.76761 5.36851 3.80464 5.55374 3.76243C5.72812 3.72103 5.91375 3.77916 6.08372 3.71505L6.11908 3.71545C6.48914 3.73655 6.85518 3.65254 7.22564 3.67166C7.15975 2.85865 7.07497 2.04683 6.99581 1.23462C6.94157 0.862351 6.9709 0.471771 6.81982 0.118617ZM8.16145 3.96628C8.13211 4.01804 8.20203 4.10603 8.25949 4.08135C8.28962 4.02959 8.2181 3.9412 8.16145 3.96628ZM8.36195 4.79203C8.32377 4.83145 8.33583 4.91904 8.39489 4.93218C8.47646 4.92103 8.4415 4.74943 8.36195 4.79203ZM8.58977 5.45455C8.59178 5.61818 8.58254 5.78222 8.60182 5.94506C8.66491 5.7217 8.62432 5.47804 8.62031 5.24791C8.58334 5.31082 8.59097 5.38487 8.58977 5.45455Z" fill="#454747"/>
<path d="M10.8511 7.25655C11.0544 7.21793 11.2586 7.17811 11.4663 7.16696C11.4988 7.21912 11.5253 7.27964 11.578 7.31667C11.6821 7.34533 11.8303 7.2876 11.8922 7.40187L11.8432 7.40904C11.0745 7.52251 10.3115 7.67301 9.54405 7.79723C9.33029 7.82868 9.11412 7.84023 8.90197 7.88044C8.73281 7.90911 8.56245 7.9529 8.39007 7.93698C8.26953 7.91627 8.21167 7.79325 8.14377 7.70645C8.27837 7.65668 8.42021 7.6324 8.56245 7.61607C9.32587 7.49981 10.0889 7.37997 10.8511 7.25655Z" fill="#454747"/>
<path d="M10.8507 9.08124C10.905 9.12344 10.956 9.17082 11.0179 9.20228C11.0938 9.21621 11.171 9.19551 11.2469 9.19113C11.2831 9.18794 11.3196 9.18595 11.3562 9.18516C11.4591 9.18715 11.5591 9.21581 11.6551 9.25005C11.6415 9.25722 11.6141 9.27076 11.6005 9.27753C11.3992 9.36273 11.1882 9.48058 10.9612 9.43838C10.6494 9.38383 10.3296 9.39578 10.0194 9.33167C10.158 9.27753 10.2842 9.18954 10.432 9.15888C10.5634 9.14176 10.6968 9.15848 10.829 9.14972C10.8346 9.1326 10.8455 9.09836 10.8507 9.08124ZM11.2541 9.28629C11.2746 9.30659 11.2746 9.30659 11.2541 9.28629Z" fill="#454747"/>
<path d="M10.7896 9.65815C10.9118 9.65099 11.0335 9.63864 11.1561 9.62949C11.097 9.85722 11.0886 10.0969 11.1288 10.3286C11.2722 10.124 11.2087 9.85404 11.2324 9.61953C11.3148 9.65337 11.394 9.69996 11.4832 9.71469C11.5575 9.73022 11.6459 9.72982 11.6933 9.79949C11.5386 9.89823 11.3711 9.97508 11.2192 10.0778C11.3337 10.1132 11.4502 10.1431 11.5671 10.171C11.3928 10.3067 11.1842 10.3959 10.9668 10.4373C10.9086 10.4278 10.8511 10.4162 10.7933 10.4071C10.7961 10.3378 10.7993 10.2689 10.8025 10.2C10.7322 10.1526 10.6623 10.1045 10.5912 10.0583C10.6442 9.99777 10.6992 9.93924 10.7611 9.88748L10.7884 9.86439V9.82935C10.7888 9.77202 10.7888 9.71509 10.7896 9.65815Z" fill="#454747"/>
<path d="M2.10063 10.8056C2.28747 10.7276 2.37828 10.5468 2.47471 10.3836C2.48596 10.4552 2.49681 10.5273 2.50686 10.5994C2.52212 10.5548 2.53739 10.5106 2.55427 10.4668C2.5619 10.4473 2.57717 10.4083 2.58481 10.3887C2.59726 10.4644 2.63383 10.5448 2.60208 10.6209C2.56592 10.7156 2.48154 10.7801 2.39957 10.8351C2.29872 10.8454 2.19867 10.8247 2.10063 10.8056Z" fill="#454747"/>
<path d="M9.2206 10.6221C9.30217 10.5838 9.38333 10.5377 9.47414 10.5253C9.54405 10.5341 9.60714 10.5679 9.67062 10.5966C9.74295 10.6312 9.81407 10.6682 9.88438 10.7069C9.53361 10.9191 9.14988 11.0704 8.78866 11.2643C8.65165 11.3308 8.51423 11.4247 8.35552 11.4195C8.19158 11.3841 8.0851 11.2392 7.96577 11.1337L7.97541 11.1309C8.14819 11.0855 8.33061 11.0644 8.48691 10.9728C8.72397 10.8402 8.97992 10.7467 9.2206 10.6221Z" fill="#454747"/>
<path d="M1.24479 10.6328C1.25363 10.6515 1.27131 10.6893 1.28015 10.7085L1.24439 10.7029L1.22591 10.6643L1.24479 10.6328Z" fill="#454747"/>
<path d="M10.7507 10.6575C10.8198 10.6404 10.8901 10.6288 10.9608 10.6209C11.0424 10.634 11.1882 10.5946 11.1774 10.7212C11.0315 10.7351 10.8861 10.7136 10.7507 10.6575Z" fill="#454747"/>
<path d="M2.30073 11.4697C2.36181 11.4422 2.42609 11.4223 2.48878 11.3992C2.55105 12.1099 2.54744 12.8246 2.6049 13.5357C2.62057 13.7137 2.6057 13.8916 2.59244 14.0692C2.55507 13.9199 2.50806 13.773 2.47793 13.6221C2.39435 13.2132 2.26618 12.8063 2.28185 12.3846C2.2931 12.09 2.23443 11.7998 2.23162 11.5059C2.2489 11.4968 2.28345 11.4789 2.30073 11.4697Z" fill="#454747"/>
<path d="M6.95161 0.198246C7.06492 0.224524 7.19872 0.249607 7.26783 0.352328C7.3265 0.597187 7.34578 0.849212 7.36467 1.09964C7.42052 1.69646 7.484 2.29248 7.53182 2.8901C7.5495 3.15009 7.60374 3.40769 7.5941 3.66927C7.49887 3.66967 7.40364 3.66887 7.30842 3.66728C7.22846 2.83635 7.16738 2.00343 7.07939 1.1733C7.07216 1.08412 7.08501 0.994933 7.09385 0.906545C7.12801 0.66089 7.00545 0.432355 6.95161 0.198246Z" fill="#22231F"/>
<path d="M6.14117 6.33126C6.3248 6.28826 6.51405 6.28149 6.70209 6.2807C7.11756 6.28388 7.53302 6.28348 7.94889 6.28269C8.16225 6.27831 8.36637 6.3448 8.57289 6.38819C8.56767 6.36351 8.55682 6.31374 8.5516 6.28906C8.91282 6.28945 9.27444 6.2787 9.63567 6.2791C9.73893 6.2799 9.84058 6.3006 9.94104 6.32489C9.77991 6.43597 9.59307 6.50644 9.39498 6.50246C9.08519 6.51759 8.77982 6.58448 8.46842 6.57453C8.29525 6.57293 8.06461 6.58528 7.99188 6.774C7.9067 7.02443 7.97822 7.29397 7.93201 7.55117C7.77732 7.57108 7.62102 7.57745 7.46552 7.57148C7.12801 7.56113 6.78125 7.59975 6.45458 7.49464C6.20305 7.42098 6.00416 7.23943 5.76107 7.14706C5.62847 7.09092 5.48342 7.06146 5.36168 6.98262C5.31507 6.95276 5.30301 6.88946 5.32391 6.84088C5.36931 6.71626 5.50512 6.66729 5.61079 6.60478C5.78879 6.5156 5.94309 6.37625 6.14117 6.33126Z" fill="#22231F"/>
<path d="M10.4015 8.72849C10.5164 8.68787 10.6354 8.65841 10.7563 8.64169C10.7836 8.72251 10.8109 8.80374 10.8286 8.88735L10.8375 8.92995C10.7161 8.91482 10.5952 8.90168 10.4754 8.88098C10.4485 8.83081 10.4248 8.77945 10.4015 8.72849Z" fill="#22231F"/>
<path d="M2.54422 9.4981C2.60771 9.37627 2.72463 9.29584 2.8275 9.20905C2.86848 9.33924 2.89018 9.48018 2.96531 9.59684C3.05612 9.69598 3.19233 9.73818 3.28716 9.83334C3.47078 10.0491 3.49489 10.3561 3.6737 10.5727C3.9634 10.7491 4.31819 10.6535 4.63561 10.7192C4.7212 10.7411 4.79674 10.685 4.86665 10.6448C4.97353 10.5747 5.08564 10.5126 5.20497 10.4656C5.42275 10.8024 5.79723 10.9792 6.15283 11.1365C6.41561 11.2519 6.71053 11.2233 6.98215 11.3053C7.31042 11.4044 7.67727 11.3463 7.98345 11.5211C7.98706 11.7432 7.93764 11.9626 7.94608 12.1852C7.95291 12.3687 7.94969 12.5527 7.95733 12.7366C7.95894 12.8728 8.03247 12.9918 8.09635 13.1081C8.02805 13.2192 7.94367 13.3219 7.89264 13.4425C7.84281 13.6241 7.88862 13.816 7.85005 13.9991C7.83598 14.0803 7.73835 14.0991 7.66883 14.0931C7.3932 14.0748 7.13524 13.9581 6.86 13.939C6.71334 13.9259 6.62937 14.0696 6.54579 14.1647C6.91465 14.2707 7.304 14.2862 7.66763 14.4144C7.78013 14.4542 7.94889 14.488 7.95974 14.6334C7.97702 14.9503 7.88018 15.2815 8.01358 15.5857C8.06421 15.6869 8.02644 15.7955 7.9943 15.8959C7.68651 15.9508 7.38395 15.8521 7.08662 15.7872C6.28341 15.6005 5.48061 15.4121 4.6774 15.2258C4.26957 15.1243 3.85531 15.0466 3.4523 14.9268C3.17144 14.8416 2.8942 14.701 2.717 14.4614C2.6274 14.3503 2.61333 14.2042 2.59244 14.0692C2.6057 13.8916 2.62057 13.7137 2.6049 13.5357C2.54744 12.8246 2.55105 12.1099 2.48878 11.3992C2.59967 11.3041 2.70374 11.1942 2.76602 11.0612C2.83151 10.8625 2.89701 10.6623 3.01313 10.4855C3.12845 10.3135 3.04809 10.0925 2.93759 9.94004C2.84236 9.81104 2.66316 9.81741 2.52132 9.78715C2.52413 9.6908 2.51128 9.59007 2.54422 9.4981ZM5.58709 13.4294C5.60718 13.4497 5.60718 13.4497 5.58709 13.4294Z" fill="#22231F"/>
<path d="M5.98327 9.83652C6.15765 9.77162 6.34047 9.69996 6.53052 9.72504C6.92068 9.76923 7.31284 9.80029 7.70299 9.84409C7.85728 9.88748 8.03769 9.8839 8.16466 9.9902C8.08631 10.0782 7.9959 10.1562 7.93121 10.255C7.82956 10.4692 7.90751 10.7136 7.85728 10.9374C7.84241 10.9995 7.76004 10.9895 7.71142 10.9888C7.40163 10.9529 7.09466 10.898 6.78366 10.8717C6.58236 10.8554 6.38306 10.7937 6.21832 10.6754C6.05921 10.5611 5.88884 10.4628 5.70964 10.3832C5.59432 10.327 5.44284 10.2689 5.44043 10.1188C5.59432 9.97985 5.79361 9.91217 5.98327 9.83652Z" fill="#22231F"/>
<path d="M9.75821 10.3143C10.1038 10.3414 10.4465 10.3935 10.7933 10.4071C10.8511 10.4162 10.9086 10.4278 10.9668 10.4373C10.9644 10.4982 10.9624 10.5596 10.9608 10.6209C10.8901 10.6288 10.8198 10.6404 10.7507 10.6575C10.5823 10.7065 10.3979 10.7081 10.2448 10.7996C10.1544 10.8438 10.0696 10.9191 9.96354 10.9127C9.87112 10.8884 9.89242 10.7781 9.88438 10.7069C9.81407 10.6682 9.74295 10.6312 9.67062 10.5966C9.67986 10.497 9.70558 10.3999 9.75821 10.3143Z" fill="#22231F"/>
<path d="M6.16448 0.543835C6.19381 0.457438 6.3019 0.468586 6.37422 0.445892C6.40958 0.474956 6.44574 0.503623 6.4819 0.531493C6.47949 0.57927 6.4799 0.627048 6.4803 0.674825C6.37824 0.723797 6.27297 0.765602 6.16408 0.796657L6.13113 0.80661C6.13796 0.718621 6.13153 0.627047 6.16448 0.543835Z" fill="#666D6F"/>
<path d="M8.58977 5.45455C8.59097 5.38487 8.58334 5.31082 8.62031 5.24791C8.62432 5.47804 8.66491 5.7217 8.60182 5.94506C8.58254 5.78222 8.59178 5.61818 8.58977 5.45455Z" fill="#666D6F"/>
<path d="M11.1561 9.62949C11.175 9.6271 11.2131 9.62192 11.2324 9.61953C11.2087 9.85404 11.2722 10.124 11.1288 10.3286C11.0886 10.0969 11.097 9.85722 11.1561 9.62949Z" fill="#666D6F"/>
<path d="M1.16885 10.3111C1.25202 10.3159 1.3356 10.3191 1.41877 10.3254C1.50717 10.4947 1.70084 10.5233 1.87201 10.5508C1.88004 10.5659 1.89611 10.5954 1.90415 10.6101C1.95438 10.6886 2.01224 10.7666 2.10063 10.8056C2.19867 10.8247 2.29872 10.8454 2.39957 10.8351C2.50203 10.8211 2.60409 10.7913 2.70856 10.8004C2.76522 10.8749 2.7616 10.9728 2.76602 11.0612C2.70374 11.1942 2.59967 11.3041 2.48878 11.3992C2.42609 11.4223 2.36181 11.4422 2.30073 11.4697C2.27542 11.3742 2.26658 11.2694 2.20872 11.1862C2.11831 11.0775 1.97246 11.0485 1.84267 11.0134C1.76553 11.097 1.6924 11.1846 1.6253 11.2762C1.53931 11.2002 1.46659 11.1106 1.41033 11.0114C1.46498 10.8876 1.3814 10.7745 1.33962 10.6623C1.29582 10.5592 1.27734 10.4429 1.20501 10.3545C1.19577 10.3434 1.17809 10.3219 1.16885 10.3111Z" fill="#666D6F"/>
<path d="M6.49195 0.457836C6.71375 0.601168 6.49557 0.973831 6.26453 0.930433C6.1914 0.934813 6.17211 0.851203 6.16408 0.796657C6.27297 0.765602 6.37824 0.723797 6.4803 0.674825C6.4799 0.627048 6.47949 0.57927 6.4819 0.531493C6.48432 0.513178 6.48954 0.476549 6.49195 0.457836Z" fill="#323330"/>
<path d="M11.1525 6.43995C11.2718 6.37545 11.408 6.36669 11.5398 6.34758C11.5266 6.62191 11.4795 6.89264 11.4663 7.16696C11.2586 7.17811 11.0544 7.21793 10.8511 7.25655C10.0889 7.37997 9.32587 7.49981 8.56245 7.61607C8.42021 7.6324 8.27837 7.65668 8.14377 7.70645C8.21167 7.79325 8.26953 7.91627 8.39007 7.93698C8.56245 7.9529 8.73281 7.90911 8.90197 7.88044C9.11412 7.84023 9.33029 7.82868 9.54405 7.79723C10.3115 7.67301 11.0745 7.52251 11.8432 7.40904C11.8452 7.60214 11.8609 7.79683 11.8275 7.98834C11.7781 8.23917 11.8416 8.50154 11.7528 8.7464C11.6202 8.78821 11.4884 8.83439 11.3614 8.89173C11.3566 8.98927 11.355 9.08721 11.3562 9.18516C11.3196 9.18595 11.2831 9.18794 11.2469 9.19113C11.3176 9.07766 11.3405 8.94627 11.3337 8.81488C11.2903 8.81926 11.2469 8.82364 11.2035 8.82842C11.2453 8.789 11.2867 8.74959 11.3289 8.71017C11.2714 8.60028 11.1404 8.64965 11.0524 8.68748C10.9552 8.7253 10.8913 8.80931 10.8286 8.88735C10.8109 8.80374 10.7836 8.72251 10.7563 8.64169C10.6354 8.65841 10.5164 8.68787 10.4015 8.72849C10.4248 8.77945 10.4485 8.83081 10.4754 8.88098C10.5823 8.96259 10.7081 9.05098 10.8511 9.01356C10.8511 9.03068 10.8511 9.06452 10.8507 9.08124C10.8455 9.09836 10.8346 9.1326 10.829 9.14972C10.6968 9.15848 10.5634 9.14176 10.432 9.15888C10.2842 9.18954 10.158 9.27753 10.0194 9.33167C9.79558 9.39418 9.59468 9.51641 9.36967 9.57574C9.10327 9.65019 8.84733 9.75689 8.57972 9.82736C8.4624 9.85683 8.32538 9.88191 8.2181 9.80945C8.16627 9.63068 8.196 9.43917 8.17029 9.25603C8.12408 8.87898 8.16145 8.49955 8.14899 8.12171C8.14819 7.97361 8.03447 7.86212 7.9951 7.72556C8.02724 7.59975 8.11363 7.48309 8.09073 7.34772C8.06582 7.15781 8.05939 6.96391 8.11966 6.77917C8.32177 6.76962 8.52588 6.77678 8.72638 6.74175C9.32306 6.66809 9.91974 6.59165 10.5192 6.5383C10.731 6.516 10.958 6.54427 11.1525 6.43995ZM8.03247 7.6961C8.16667 7.70207 7.96978 7.81395 8.03247 7.6961Z" fill="#323330"/>
<path d="M11.0086 8.88456C11.0356 8.82086 11.1111 8.83917 11.1657 8.83081C11.1702 8.91044 11.1834 8.99166 11.1665 9.07129C11.128 9.12424 11.0556 9.11469 10.999 9.12703C10.9934 9.05576 10.9853 8.98449 10.9905 8.91283L11.0086 8.88456Z" fill="#323330"/>
<path d="M10.5598 9.67368C10.6354 9.65736 10.7129 9.66134 10.7896 9.65815C10.7888 9.71509 10.7888 9.77202 10.7884 9.82935C10.7242 9.82378 10.7153 9.84329 10.7611 9.88748C10.6992 9.93924 10.6442 9.99777 10.5912 10.0583C10.6623 10.1045 10.7322 10.1526 10.8025 10.2C10.7993 10.2689 10.7961 10.3378 10.7933 10.4071C10.4465 10.3935 10.1038 10.3414 9.75821 10.3143C9.70558 10.3999 9.67986 10.497 9.67062 10.5966C9.60714 10.5679 9.54405 10.5341 9.47414 10.5253C9.38333 10.5377 9.30217 10.5838 9.2206 10.6221C8.97992 10.7467 8.72397 10.8402 8.48691 10.9728C8.33061 11.0644 8.14819 11.0855 7.97541 11.1309C7.973 11.1313 7.96778 11.1325 7.96536 11.1329L7.96577 11.1337C8.0851 11.2392 8.19158 11.3841 8.35552 11.4195C8.51423 11.4247 8.65165 11.3308 8.78866 11.2643C9.14988 11.0704 9.53361 10.9191 9.88438 10.7069C9.89242 10.7781 9.87112 10.8884 9.96354 10.9127C10.0696 10.9191 10.1544 10.8438 10.2448 10.7996C10.3979 10.7081 10.5823 10.7065 10.7507 10.6575C10.8861 10.7136 11.0315 10.7351 11.1774 10.7212C11.1882 10.5946 11.0424 10.634 10.9608 10.6209C10.9624 10.5596 10.9644 10.4982 10.9668 10.4373C11.1842 10.3959 11.3928 10.3067 11.5671 10.171C11.4502 10.1431 11.3337 10.1132 11.2192 10.0778C11.3711 9.97508 11.5386 9.89823 11.6933 9.79949C11.7005 10.1817 11.6306 10.5584 11.6407 10.941C11.4976 11.0429 11.3401 11.1237 11.2063 11.238C11.1975 11.4311 11.1967 11.6242 11.2075 11.8169C11.3248 11.8559 11.4812 11.8472 11.5575 11.9594C11.5832 12.088 11.5266 12.2146 11.5262 12.3432C11.5189 12.5391 11.5386 12.7533 11.4265 12.9261C11.2694 13.1411 11.0311 13.2761 10.8515 13.4696C10.7728 13.552 10.6848 13.6249 10.5952 13.6949C10.4537 13.8056 10.344 13.9498 10.203 14.0604C9.98162 14.2249 9.81206 14.4458 9.58745 14.6071C9.33511 14.8619 9.05425 15.0857 8.7967 15.3349C8.552 15.4997 8.39449 15.79 8.10077 15.878L8.06381 15.8847C8.16587 15.8003 8.30007 15.7131 8.30529 15.567C8.32418 15.3289 8.30409 15.09 8.31453 14.8519C8.3073 14.7536 8.33824 14.6254 8.23819 14.5641C8.08631 14.4506 7.9284 14.3391 7.82514 14.1763C7.88942 14.1062 7.95331 14.0361 8.018 13.9661C8.00916 13.7841 7.94407 13.5751 8.06341 13.4146C8.16546 13.3 8.29886 13.2184 8.41418 13.1176C8.35592 13.0671 8.29444 13.0197 8.24583 12.96C8.22573 12.8123 8.26391 12.6629 8.25587 12.5144C8.2398 12.184 8.30891 11.8523 8.25667 11.5235C8.1514 11.4092 7.89023 11.4259 7.90469 11.228C7.87857 11.0811 8.03206 11.0114 8.09434 10.9016C8.10559 10.7331 8.02523 10.5528 8.1068 10.3939C8.45235 10.2231 8.81357 10.0766 9.17118 9.9273C9.34074 9.86399 9.49744 9.72026 9.69111 9.77123C9.74415 9.91774 9.70277 10.1921 9.92094 10.1964C10.1303 10.1853 10.3103 10.0579 10.4935 9.9691C10.5112 9.86997 10.5156 9.76565 10.5598 9.67368Z" fill="#323330"/>
<path d="M8.06341 3.70709C8.29243 3.71904 8.51061 3.79787 8.73522 3.83768C9.37972 3.98579 10.0258 4.12713 10.6719 4.26847C10.948 4.33696 11.2449 4.37478 11.4824 4.5424C11.6065 4.63158 11.7246 4.7359 11.8002 4.87047C11.4076 4.71081 10.9905 4.62521 10.5984 4.46595C10.2802 4.35169 9.94586 4.29077 9.6208 4.1984C9.26159 4.09648 8.89554 4.01924 8.53512 3.92129C8.36637 3.8779 8.21127 3.79747 8.06341 3.70709Z" fill="#535C64"/>
<path d="M2.23443 4.49343C2.33006 4.37876 2.46427 4.30232 2.6049 4.25414C2.47431 4.43729 2.32203 4.61486 2.26135 4.83543C2.21997 4.95846 2.20791 5.09263 2.14443 5.2073C2.08215 5.27021 1.99938 5.30644 1.92344 5.34983C1.96723 5.04924 2.03474 4.73351 2.23443 4.49343Z" fill="#535C64"/>
<path d="M11.0524 8.68748C11.1404 8.64965 11.2714 8.60028 11.3289 8.71017C11.2867 8.74959 11.2453 8.789 11.2035 8.82842C11.2469 8.82364 11.2903 8.81926 11.3337 8.81488C11.3405 8.94627 11.3176 9.07766 11.2469 9.19113C11.171 9.19551 11.0938 9.21621 11.0179 9.20228C10.956 9.17082 10.905 9.12344 10.8507 9.08124C10.8511 9.06452 10.8511 9.03068 10.8511 9.01356C10.8475 8.99285 10.8407 8.95065 10.8375 8.92995L10.8286 8.88735C10.8913 8.80931 10.9552 8.7253 11.0524 8.68748ZM10.9905 8.91283C10.9853 8.98449 10.9934 9.05576 10.999 9.12703C11.0556 9.11469 11.128 9.12424 11.1665 9.07129C11.1834 8.99166 11.1702 8.91044 11.1657 8.83081C11.1111 8.83917 11.0356 8.82086 11.0086 8.88456C11.005 8.86863 10.9982 8.83718 10.9946 8.82165C10.8997 8.75954 10.8921 8.96976 10.9905 8.91283ZM11.2505 9.00599C11.1959 9.03108 11.1943 9.05775 11.2461 9.08642C11.2999 9.06094 11.3015 9.03426 11.2505 9.00599Z" fill="#535C64"/>
<path d="M2.40359 9.83612C2.44297 9.8198 2.48194 9.80347 2.52132 9.78715C2.66316 9.81741 2.84236 9.81104 2.93759 9.94004C3.04809 10.0925 3.12845 10.3135 3.01313 10.4855C2.89701 10.6623 2.83151 10.8625 2.76602 11.0612C2.7616 10.9728 2.76522 10.8749 2.70856 10.8004C2.60409 10.7913 2.50203 10.8211 2.39957 10.8351C2.48154 10.7801 2.56592 10.7156 2.60208 10.6209C2.63383 10.5448 2.59726 10.4644 2.58481 10.3887C2.59847 10.3509 2.61374 10.3135 2.62941 10.2765C2.71137 10.3131 2.79776 10.3744 2.89058 10.3322C2.90223 10.2163 2.88094 10.0889 2.78651 10.0105C2.7162 9.99339 2.64347 9.99657 2.57235 9.99379C2.57516 10.0085 2.58159 10.0384 2.5844 10.0535C2.59003 10.0818 2.60088 10.1391 2.6061 10.1674C2.54824 10.1594 2.49038 10.1503 2.43292 10.1403C2.48034 10.2462 2.51971 10.3557 2.55427 10.4668C2.53739 10.5106 2.52212 10.5548 2.50686 10.5994C2.49681 10.5273 2.48596 10.4552 2.47471 10.3836C2.37828 10.5468 2.28747 10.7276 2.10063 10.8056C2.01224 10.7666 1.95438 10.6886 1.90415 10.6101C2.01143 10.6276 2.12313 10.6647 2.23162 10.6336C2.40078 10.4978 2.32042 10.2179 2.1372 10.1379C2.04117 10.0957 1.93871 10.171 1.88848 10.2486C1.82741 10.3386 1.85553 10.4521 1.87201 10.5508C1.70084 10.5233 1.50717 10.4947 1.41877 10.3254C1.55378 10.3175 1.68878 10.3139 1.82379 10.3075C1.85634 10.2199 1.88366 10.1284 1.93509 10.0495C1.99335 9.97746 2.08938 9.95437 2.17175 9.92053C2.2493 9.89306 2.32685 9.86598 2.40359 9.83612ZM2.37306 10.3242C2.39355 10.3446 2.39355 10.3446 2.37306 10.3242Z" fill="#535C64"/>
<path d="M1.6253 11.2762C1.6924 11.1846 1.76553 11.097 1.84267 11.0134C1.97246 11.0485 2.11831 11.0775 2.20872 11.1862C2.26658 11.2694 2.27542 11.3742 2.30073 11.4697C2.28345 11.4789 2.2489 11.4968 2.23162 11.5059C2.0042 11.5294 1.79165 11.4207 1.6253 11.2762Z" fill="#535C64"/>
<path d="M8.25949 4.08135C8.28962 4.02959 8.2181 3.9412 8.16145 3.96628C8.13211 4.01804 8.20203 4.10603 8.25949 4.08135Z" fill="#E4E5E5"/>
<path d="M8.39489 4.93218C8.47646 4.92103 8.4415 4.74943 8.36195 4.79203C8.32377 4.83145 8.33583 4.91904 8.39489 4.93218Z" fill="#E4E5E5"/>
<path d="M10.9905 8.91283C10.8921 8.96976 10.8997 8.75954 10.9946 8.82165C10.9982 8.83718 11.005 8.86863 11.0086 8.88456L10.9905 8.91283Z" fill="#E4E5E5"/>
<path d="M11.2461 9.08642C11.2999 9.06094 11.3015 9.03426 11.2505 9.00599C11.1959 9.03108 11.1943 9.05775 11.2461 9.08642Z" fill="#E4E5E5"/>
<path d="M11.2541 9.28629C11.2746 9.30659 11.2746 9.30659 11.2541 9.28629Z" fill="#E4E5E5"/>
<path d="M2.5844 10.0535C2.72544 10.0997 2.85321 10.1789 2.89058 10.3322C2.79776 10.3744 2.71137 10.3131 2.62941 10.2765C2.62137 10.2402 2.61333 10.204 2.6061 10.1674C2.60088 10.1391 2.59003 10.0818 2.5844 10.0535Z" fill="#E4E5E5"/>
<path d="M2.37306 10.3242C2.39355 10.3446 2.39355 10.3446 2.37306 10.3242Z" fill="#E4E5E5"/>
<path d="M1.20501 10.3545C1.27734 10.4429 1.29582 10.5592 1.33962 10.6623C1.3814 10.7745 1.46498 10.8876 1.41033 11.0114C1.37538 10.9525 1.34082 10.894 1.30627 10.8351C1.291 10.7941 1.28216 10.7515 1.28015 10.7085C1.27131 10.6893 1.25363 10.6515 1.24479 10.6328C1.19095 10.5504 1.21023 10.4469 1.20501 10.3545Z" fill="#E4E5E5"/>
<path d="M5.58709 10.4835C5.60758 10.5042 5.60758 10.5042 5.58709 10.4835Z" fill="#E4E5E5"/>
<path d="M5.38578 10.5552C5.50552 10.4943 5.39101 10.6882 5.38578 10.5552Z" fill="#E4E5E5"/>
<path d="M7.96536 11.1329C7.96789 11.1325 7.97337 11.1313 7.9759 11.1309L7.96577 11.1337L7.96536 11.1329Z" fill="#E4E5E5"/>
<path d="M8.03247 7.6961C8.16667 7.70207 7.96978 7.81395 8.03247 7.6961Z" fill="#A4A7A7"/>
<path d="M2.57235 9.99379C2.64347 9.99657 2.7162 9.99339 2.78651 10.0105C2.88094 10.0889 2.90223 10.2163 2.89058 10.3322C2.85321 10.1789 2.72544 10.0997 2.5844 10.0535C2.58159 10.0384 2.57516 10.0085 2.57235 9.99379Z" fill="#A4A7A7"/>
<path d="M2.43292 10.1403C2.49038 10.1503 2.54824 10.1594 2.6061 10.1674C2.61333 10.204 2.62137 10.2402 2.62941 10.2765C2.61374 10.3135 2.59847 10.3509 2.58481 10.3887C2.57717 10.4083 2.5619 10.4473 2.55427 10.4668C2.51971 10.3557 2.48034 10.2462 2.43292 10.1403Z" fill="#A4A7A7"/>
<path d="M5.58709 13.4294C5.60718 13.4497 5.60718 13.4497 5.58709 13.4294Z" fill="#A4A7A7"/>
<path d="M0.944643 11.0258C1.05996 10.9724 1.14153 10.8697 1.23916 10.7917C1.25604 10.8024 1.28939 10.8243 1.30627 10.8351C1.34082 10.894 1.37538 10.9525 1.41033 11.0114C1.46659 11.1106 1.53931 11.2002 1.6253 11.2762C1.79165 11.4207 2.0042 11.5294 2.23162 11.5059C2.23443 11.7998 2.2931 12.09 2.28185 12.3846C2.26618 12.8063 2.39435 13.2132 2.47793 13.6221C2.50806 13.773 2.55507 13.9199 2.59244 14.0692C2.61333 14.2042 2.6274 14.3503 2.717 14.4614C2.8942 14.701 3.17144 14.8416 3.4523 14.9268C3.85531 15.0466 4.26957 15.1243 4.6774 15.2258C5.48061 15.4121 6.28341 15.6005 7.08662 15.7872C7.38395 15.8521 7.68651 15.9508 7.9943 15.8959C8.01157 15.8931 8.04653 15.8875 8.06381 15.8847L8.10077 15.878C8.07345 15.917 8.04693 15.964 7.99389 15.9695C7.75964 16.0181 7.51213 16.0082 7.2823 15.9429C7.04443 15.8728 6.7921 15.87 6.55744 15.7872C6.23881 15.6797 5.89849 15.6658 5.57945 15.5606C5.32551 15.5133 5.07077 15.4699 4.82406 15.3906C4.22136 15.2636 3.62106 15.1291 3.02076 14.9921C2.83232 14.926 2.66316 14.8169 2.48837 14.7225C2.25573 14.5744 2.11068 14.332 1.92223 14.1373C1.7378 13.937 1.6249 13.6742 1.39185 13.5182C1.27814 13.6065 1.32475 13.8323 1.14876 13.8426C0.976385 13.861 0.808833 13.8024 0.643692 13.7626C0.431539 13.7125 0.247915 13.5831 0.0916127 13.4369C0.0791568 13.3908 0.0735315 13.3342 0.10447 13.294C0.178804 13.247 0.270014 13.2466 0.354794 13.2367C0.570965 13.2271 0.776287 13.1268 0.936205 12.9862C0.88839 12.9074 0.834147 12.8334 0.769858 12.7673C0.610342 12.6036 0.500649 12.4006 0.343142 12.2353C0.226619 12.1004 0.0779512 11.9817 0.0160734 11.8097C-0.0429918 11.6381 0.0795584 11.4789 0.0819692 11.3093C0.0972378 11.2229 0.0602718 11.0883 0.169563 11.0525C0.425914 11.0118 0.689497 11.0779 0.944643 11.0258Z" fill="black"/>
</svg>
