<svg width="20" height="20" viewBox="0 0 20 20" fill="none" xmlns="http://www.w3.org/2000/svg">
<path d="M1.21906 0.0481526C1.68818 -0.0870606 2.1707 0.0852242 2.59738 0.283682C7.94761 2.97922 13.3023 5.67039 18.6592 8.35285C19.249 8.64727 19.9281 9.05509 19.975 9.77914C20.1291 10.573 19.5483 11.2599 18.8402 11.5631C13.3738 14.2892 7.92303 17.0479 2.46334 19.7871C1.58318 20.304 0.336662 19.8351 0.07306 18.8624C-0.179372 18.1645 0.271877 17.5081 0.671748 16.9672C2.05007 15.1048 3.37925 13.2096 4.76205 11.3515C5.03905 10.9481 5.3719 10.5206 5.35626 10.0103C5.35849 9.43238 4.97426 8.96132 4.65928 8.50988C3.30106 6.69977 2.01209 4.84167 0.665039 3.02502C0.350057 2.56922 -0.0431123 2.08289 0.0082677 1.5006C0.0373086 0.828894 0.560054 0.224802 1.21906 0.0481526Z" fill="white"/>
</svg>
