<svg width="59" height="61" viewBox="0 0 59 61" fill="none" xmlns="http://www.w3.org/2000/svg">
<path d="M10.6553 40.5713C7.09902 37.5603 3.87465 34.1819 0.531737 30.9338C9.96183 20.7035 19.8127 10.8526 29.3851 0.752753C32.2005 2.99914 34.3876 5.89159 36.9304 8.42841C43.954 15.9559 51.1674 23.3055 58.0488 30.9575C54.6822 34.2056 51.3985 37.5663 47.7533 40.5061C44.7601 37.3351 41.8025 34.1285 38.7441 31.0168C38.6255 40.9032 38.5307 50.7897 38.4596 60.6821C32.1946 60.9014 25.9236 60.611 19.6586 60.6229C19.546 50.8846 20.0321 41.1463 19.7535 31.4139C16.4817 34.2234 13.773 37.6018 10.6553 40.5713Z" fill="white"/>
</svg>
