<svg width="11" height="7" viewBox="0 0 11 7" fill="none" xmlns="http://www.w3.org/2000/svg">
<path d="M2.62595 0.0137555C2.87561 -0.00603219 3.12677 0.0141721 3.37212 0.0606212C3.95882 0.162059 4.52894 0.339732 5.11736 0.432214C5.26586 0.451377 5.41437 0.48262 5.56481 0.472414C6.33294 0.400553 7.06276 0.136648 7.82292 0.0225039C8.2086 -0.0260281 8.61623 -0.00353266 8.97027 0.164142C9.38608 0.357437 9.69751 0.706326 9.94372 1.07521C10.1484 1.3764 10.2935 1.71008 10.4245 2.04606C10.7471 2.92255 10.9411 3.84362 10.9966 4.77239C10.9987 5.23376 11.0252 5.70554 10.8873 6.15316C10.8022 6.42893 10.6524 6.70492 10.3938 6.86197C10.1828 6.99757 9.91574 7.01632 9.67147 6.98112C9.28557 6.91946 8.93906 6.73033 8.61645 6.52517C8.40187 6.38936 8.20516 6.22981 8.00306 6.07775C7.79559 5.91133 7.60189 5.72949 7.39205 5.56577C7.13034 5.37185 6.81568 5.25854 6.49866 5.18085C5.82221 5.02526 5.10638 5.02921 4.43317 5.19835C4.13982 5.275 3.85078 5.38581 3.60801 5.56598C3.35017 5.76636 3.11773 5.99569 2.85279 6.18773C2.49057 6.46976 2.10296 6.73137 1.66735 6.8953C1.38777 7.0034 1.06774 7.04048 0.778694 6.9455C0.49503 6.84656 0.288632 6.60473 0.177362 6.33999C0.0127171 5.94236 -0.00600728 5.50704 0.00131028 5.08399C-0.00988129 4.52994 0.0762077 3.97963 0.181882 3.43661C0.302837 2.87214 0.451771 2.31017 0.686578 1.77903C0.895774 1.29662 1.17685 0.832759 1.57459 0.473039C1.86019 0.213091 2.23403 0.044791 2.62595 0.0137555ZM2.7101 0.509907C2.59108 0.523654 2.47292 0.547399 2.36058 0.588224C2.04829 0.70091 1.79562 0.928365 1.60106 1.18498C1.38476 1.47305 1.22076 1.79486 1.08861 2.12625C0.917727 2.56179 0.7901 3.01232 0.689807 3.46765C0.573802 4.034 0.497183 4.61013 0.499335 5.18814C0.502348 5.51412 0.521503 5.84801 0.647838 6.1542C0.70767 6.29313 0.813129 6.42644 0.967013 6.47288C1.14931 6.53141 1.34279 6.47538 1.51605 6.41498C1.96177 6.25022 2.33626 5.95549 2.70343 5.66867C2.91262 5.4962 3.10891 5.30853 3.33102 5.15106C3.51352 5.02651 3.7139 4.92757 3.92137 4.84821C4.72759 4.55368 5.62184 4.50723 6.46336 4.6747C6.88692 4.76364 7.30359 4.91361 7.6544 5.16481C7.93247 5.3806 8.17868 5.63264 8.46493 5.83843C8.62376 5.96528 8.79013 6.08275 8.96446 6.18836C9.22789 6.34395 9.51026 6.49892 9.82492 6.51829C9.97299 6.53058 10.1299 6.48017 10.2233 6.36478C10.3899 6.1642 10.4338 5.90029 10.4755 5.65367C10.5356 5.06754 10.4818 4.47641 10.3862 3.89652C10.2642 3.19104 10.0918 2.48722 9.78596 1.83339C9.60216 1.45868 9.38049 1.08646 9.04495 0.819428C8.78453 0.608429 8.44298 0.498867 8.10422 0.506574C7.88017 0.499075 7.66064 0.547191 7.44219 0.588224C6.84538 0.708617 6.26041 0.895663 5.64982 0.942945C5.43202 0.961483 5.21421 0.934614 4.99942 0.902328C4.42456 0.81193 3.86929 0.63384 3.29658 0.533027C3.10309 0.503241 2.90531 0.489911 2.7101 0.509907Z" fill="url(#paint0_linear_535_59)"/>
<path d="M2.37586 1.56074C2.5362 1.3991 2.77187 1.31121 3.0028 1.32745C3.28259 1.34057 3.54129 1.51658 3.6644 1.75737C3.67466 1.77612 3.68312 1.79546 3.69041 1.8152C3.73627 1.93941 3.81895 2.02317 3.94182 2.07251V2.07251C4.11959 2.14104 4.28165 2.26268 4.36989 2.42973C4.46868 2.60095 4.493 2.80861 4.44264 2.99795C4.37807 3.21749 4.213 3.411 3.9967 3.50493V3.50493C3.85127 3.57205 3.73615 3.67492 3.66856 3.82013C3.64594 3.86874 3.61815 3.91504 3.58304 3.95755C3.42335 4.17022 3.1427 4.29394 2.87216 4.26624C2.65005 4.25145 2.44731 4.12939 2.30892 3.96463C2.27135 3.92194 2.24283 3.87444 2.22038 3.8242C2.15475 3.67731 2.04634 3.57185 1.89828 3.50889V3.50889C1.71276 3.4312 1.55823 3.2829 1.47967 3.10231C1.36948 2.87214 1.39552 2.58762 1.54101 2.37724C1.64023 2.22873 1.79583 2.1175 1.96952 2.06376V2.06376C2.08347 2.02487 2.15726 1.94237 2.20064 1.83006C2.23933 1.72991 2.29659 1.63706 2.37586 1.56074ZM2.8388 1.82048C2.76046 1.8486 2.69611 1.91379 2.67244 1.99169C2.64768 2.09022 2.66662 2.19249 2.65543 2.29247C2.64661 2.39161 2.56719 2.48201 2.46647 2.50409C2.35046 2.52992 2.22822 2.50326 2.11307 2.53575C2.01407 2.5645 1.93336 2.64969 1.92174 2.7505C1.89527 2.89381 2.01299 3.04815 2.16451 3.05857C2.29924 3.07627 2.45958 3.02836 2.56913 3.12938C2.68169 3.22124 2.65457 3.37621 2.66017 3.50243C2.65522 3.62012 2.73894 3.73489 2.85667 3.76676C2.97116 3.8005 3.10697 3.7653 3.17907 3.67032C3.29787 3.52285 3.16702 3.30497 3.30196 3.16479C3.39085 3.05586 3.54602 3.07939 3.67193 3.07669C3.76038 3.07981 3.85121 3.04794 3.90846 2.98087C4.01499 2.86277 3.99282 2.65677 3.85702 2.56804C3.69711 2.45556 3.46402 2.58803 3.31853 2.44577C3.16422 2.30434 3.29529 2.0721 3.17928 1.91317C3.10805 1.80673 2.95653 1.78132 2.8388 1.82048Z" fill="url(#paint1_linear_535_59)"/>
<path d="M7.76718 1.40535C8.04116 1.32662 8.34871 1.53741 8.36507 1.81236C8.39757 2.06522 8.17438 2.31288 7.91138 2.316C7.65612 2.33767 7.41637 2.1225 7.41013 1.87672C7.39398 1.66363 7.55389 1.45618 7.76718 1.40535Z" fill="url(#paint2_linear_535_59)"/>
<path d="M6.81955 2.34287C7.09353 2.27997 7.3858 2.49972 7.39119 2.77175C7.41507 3.02524 7.18307 3.26415 6.92071 3.25957C6.66955 3.27081 6.43538 3.05773 6.43689 2.81341C6.42268 2.59303 6.59572 2.38162 6.81955 2.34287Z" fill="url(#paint3_linear_535_59)"/>
<path d="M8.75763 2.34454C9.01095 2.28455 9.29246 2.45952 9.33228 2.71072C9.38479 2.94255 9.22014 3.19187 8.98254 3.24603C8.82435 3.28456 8.64679 3.24228 8.53036 3.13043C8.39025 3.00316 8.34462 2.79029 8.41995 2.61949C8.4787 2.48264 8.60805 2.37662 8.75763 2.34454Z" fill="url(#paint4_linear_535_59)"/>
<path d="M7.79085 3.2856C8.05579 3.22395 8.34053 3.4262 8.36378 3.68761C8.40058 3.93672 8.19074 4.1848 7.93269 4.20271C7.69616 4.22833 7.4607 4.05753 7.41895 3.83091C7.36256 3.58992 7.54077 3.33122 7.79085 3.2856Z" fill="url(#paint5_linear_535_59)"/>
<defs>
<linearGradient id="paint0_linear_535_59" x1="5.37656" y1="-0.143798" x2="5.37656" y2="6.90229" gradientUnits="userSpaceOnUse">
<stop stop-color="#EDE527"/>
<stop offset="1" stop-color="#FE401C"/>
</linearGradient>
<linearGradient id="paint1_linear_535_59" x1="5.37656" y1="-0.143798" x2="5.37656" y2="6.90229" gradientUnits="userSpaceOnUse">
<stop stop-color="#EDE527"/>
<stop offset="1" stop-color="#FE401C"/>
</linearGradient>
<linearGradient id="paint2_linear_535_59" x1="5.37656" y1="-0.143798" x2="5.37656" y2="6.90229" gradientUnits="userSpaceOnUse">
<stop stop-color="#EDE527"/>
<stop offset="1" stop-color="#FE401C"/>
</linearGradient>
<linearGradient id="paint3_linear_535_59" x1="5.37656" y1="-0.143798" x2="5.37656" y2="6.90229" gradientUnits="userSpaceOnUse">
<stop stop-color="#EDE527"/>
<stop offset="1" stop-color="#FE401C"/>
</linearGradient>
<linearGradient id="paint4_linear_535_59" x1="5.37656" y1="-0.143798" x2="5.37656" y2="6.90229" gradientUnits="userSpaceOnUse">
<stop stop-color="#EDE527"/>
<stop offset="1" stop-color="#FE401C"/>
</linearGradient>
<linearGradient id="paint5_linear_535_59" x1="5.37656" y1="-0.143798" x2="5.37656" y2="6.90229" gradientUnits="userSpaceOnUse">
<stop stop-color="#EDE527"/>
<stop offset="1" stop-color="#FE401C"/>
</linearGradient>
</defs>
</svg>
