<svg width="8" height="5" viewBox="0 0 8 5" fill="none" xmlns="http://www.w3.org/2000/svg">
<mask id="path-1-inside-1_438_34" fill="white">
<path d="M1.90978 0.00982538C2.09135 -0.0043087 2.27401 0.0101229 2.45245 0.0433008C2.87914 0.115757 3.29378 0.242666 3.72172 0.308724C3.82972 0.322412 3.93772 0.344729 4.04713 0.337439C4.60577 0.28611 5.13655 0.0976056 5.6894 0.0160742C5.96989 -0.0185915 6.26635 -0.00252333 6.52383 0.117244C6.82624 0.255312 7.05273 0.504519 7.2318 0.768008C7.38065 0.983143 7.48615 1.22149 7.58148 1.46147C7.81611 2.08754 7.95714 2.74544 7.99752 3.40885C7.99909 3.7384 8.01834 4.07538 7.91801 4.39511C7.85618 4.5921 7.74724 4.78923 7.55909 4.90141C7.4057 4.99827 7.21145 5.01166 7.03379 4.98651C6.75314 4.94247 6.50114 4.80738 6.26651 4.66083C6.11045 4.56383 5.96739 4.44986 5.82041 4.34125C5.66952 4.22238 5.52865 4.09249 5.37603 3.97555C5.1857 3.83704 4.95686 3.7561 4.7263 3.70061C4.23434 3.58947 3.71373 3.5923 3.22412 3.7131C3.01078 3.76786 2.80057 3.84701 2.624 3.9757C2.43649 4.11883 2.26744 4.28263 2.07476 4.41981C1.81133 4.62126 1.52942 4.80812 1.21262 4.92521C1.00929 5.00243 0.776536 5.02891 0.566323 4.96107C0.360022 4.8904 0.209914 4.71767 0.128991 4.52857C0.00924877 4.24455 -0.00436893 3.9336 0.000952929 3.63142C-0.00718639 3.23567 0.0554238 2.84259 0.132278 2.45472C0.220245 2.05153 0.328561 1.65012 0.49933 1.27073C0.651472 0.926161 0.855895 0.594828 1.14515 0.337885C1.35286 0.152208 1.62475 0.0319936 1.90978 0.00982538ZM1.97098 0.364219C1.88442 0.374039 1.79849 0.390999 1.71678 0.42016C1.48967 0.50065 1.3059 0.663118 1.16441 0.846415C1.0071 1.05218 0.887826 1.28204 0.791719 1.51875C0.667438 1.82985 0.574618 2.15166 0.501678 2.47689C0.41731 2.88143 0.361587 3.29295 0.363153 3.70581C0.365344 3.93866 0.379275 4.17715 0.471155 4.39586C0.514669 4.49509 0.591367 4.59031 0.703282 4.62349C0.835859 4.6653 0.976575 4.62527 1.10258 4.58213C1.42674 4.46444 1.6991 4.25392 1.96613 4.04905C2.11827 3.92586 2.26102 3.79181 2.42256 3.67933C2.55529 3.59036 2.70102 3.51969 2.85191 3.46301C3.43825 3.25263 4.08861 3.21945 4.70063 3.33907C5.00867 3.4026 5.3117 3.50972 5.56684 3.68915C5.76907 3.84329 5.94813 4.02331 6.15631 4.17031C6.27183 4.26091 6.39282 4.34482 6.51961 4.42026C6.7112 4.53139 6.91656 4.64209 7.1454 4.65592C7.25309 4.6647 7.36719 4.6287 7.43512 4.54627C7.55628 4.403 7.58821 4.21449 7.61857 4.03834C7.66224 3.61967 7.62311 3.19743 7.55361 2.78323C7.46486 2.27931 7.33949 1.77659 7.11707 1.30957C6.98339 1.04191 6.82217 0.776042 6.57815 0.585306C6.38875 0.434592 6.14035 0.356334 5.89398 0.361839C5.73103 0.356482 5.57138 0.390851 5.4125 0.42016C4.97846 0.506155 4.55302 0.639759 4.10896 0.673532C3.95056 0.686774 3.79215 0.667581 3.63594 0.64452C3.21786 0.57995 2.81403 0.452743 2.39751 0.380734C2.2568 0.359458 2.11295 0.349936 1.97098 0.364219Z"/>
<path d="M1.7279 1.11481C1.84451 0.99936 2.0159 0.936575 2.18386 0.94818C2.38734 0.957553 2.57548 1.08327 2.66501 1.25526C2.69679 1.31224 2.70477 1.37696 2.72434 1.43781C2.76691 1.46296 2.82076 1.46221 2.86678 1.48037C2.99607 1.52931 3.11393 1.6162 3.1781 1.73552C3.24995 1.85782 3.26764 2.00615 3.23101 2.14139C3.18405 2.29821 3.064 2.43643 2.90669 2.50352C2.84924 2.52956 2.78523 2.53477 2.72496 2.55232C2.70289 2.64978 2.67253 2.74752 2.60585 2.82682C2.48971 2.97873 2.2856 3.0671 2.08884 3.04731C1.92731 3.03675 1.77986 2.94957 1.67922 2.83188C1.60909 2.75362 1.58233 2.65275 1.56229 2.55426C1.50328 2.53313 1.43864 2.5306 1.38057 2.50635C1.24564 2.45086 1.13326 2.34493 1.07613 2.21593C0.995985 2.05153 1.01492 1.8483 1.12074 1.69803C1.19289 1.59195 1.30606 1.5125 1.43238 1.47412C1.47542 1.45968 1.5252 1.46117 1.56433 1.43752C1.58515 1.31775 1.63633 1.2014 1.7279 1.11481ZM2.06458 1.30034C2.00761 1.32043 1.96081 1.367 1.94359 1.42264C1.92559 1.49301 1.93936 1.56606 1.93122 1.63748C1.92481 1.7083 1.86705 1.77287 1.79379 1.78864C1.70943 1.80709 1.62052 1.78804 1.53678 1.81125C1.46478 1.83178 1.40608 1.89263 1.39763 1.96464C1.37838 2.067 1.464 2.17725 1.57419 2.18469C1.67217 2.19734 1.78879 2.16312 1.86846 2.23527C1.95032 2.30089 1.9306 2.41158 1.93467 2.50174C1.93107 2.5858 1.99196 2.66778 2.07757 2.69054C2.16085 2.71464 2.25961 2.6895 2.31205 2.62166C2.39845 2.51632 2.30328 2.3607 2.40143 2.26057C2.46607 2.18276 2.57893 2.19957 2.67049 2.19763C2.73482 2.19986 2.80088 2.1771 2.84251 2.12919C2.91999 2.04484 2.90387 1.89769 2.8051 1.83431C2.68881 1.75397 2.51929 1.8486 2.41348 1.74698C2.30125 1.64596 2.39657 1.48007 2.31221 1.36655C2.2604 1.29052 2.1502 1.27237 2.06458 1.30034Z"/>
<path d="M5.64886 1.00382C5.84811 0.947585 6.07179 1.09815 6.08369 1.29454C6.10732 1.47516 5.945 1.65206 5.75373 1.65429C5.56809 1.66976 5.39372 1.51607 5.38918 1.34051C5.37744 1.18831 5.49374 1.04013 5.64886 1.00382Z"/>
<path d="M4.95968 1.67348C5.15893 1.62855 5.37149 1.78551 5.37541 1.97982C5.39278 2.16088 5.22405 2.33153 5.03324 2.32826C4.85058 2.3363 4.68028 2.18409 4.68137 2.00958C4.67104 1.85217 4.79689 1.70115 4.95968 1.67348Z"/>
<path d="M6.36919 1.67467C6.55342 1.63182 6.75815 1.7568 6.78711 1.93623C6.8253 2.10182 6.70556 2.27991 6.53276 2.31859C6.41771 2.34612 6.28858 2.31591 6.2039 2.23602C6.102 2.14511 6.06881 1.99306 6.1236 1.87106C6.16633 1.77331 6.2604 1.69758 6.36919 1.67467Z"/>
<path d="M5.66608 2.34686C5.85876 2.30282 6.06584 2.44729 6.08275 2.634C6.10951 2.81195 5.9569 2.98914 5.76923 3.00194C5.5972 3.02024 5.42597 2.89824 5.3956 2.73637C5.35459 2.56423 5.48419 2.37944 5.66608 2.34686Z"/>
</mask>
<path d="M1.90978 0.00982538C2.09135 -0.0043087 2.27401 0.0101229 2.45245 0.0433008C2.87914 0.115757 3.29378 0.242666 3.72172 0.308724C3.82972 0.322412 3.93772 0.344729 4.04713 0.337439C4.60577 0.28611 5.13655 0.0976056 5.6894 0.0160742C5.96989 -0.0185915 6.26635 -0.00252333 6.52383 0.117244C6.82624 0.255312 7.05273 0.504519 7.2318 0.768008C7.38065 0.983143 7.48615 1.22149 7.58148 1.46147C7.81611 2.08754 7.95714 2.74544 7.99752 3.40885C7.99909 3.7384 8.01834 4.07538 7.91801 4.39511C7.85618 4.5921 7.74724 4.78923 7.55909 4.90141C7.4057 4.99827 7.21145 5.01166 7.03379 4.98651C6.75314 4.94247 6.50114 4.80738 6.26651 4.66083C6.11045 4.56383 5.96739 4.44986 5.82041 4.34125C5.66952 4.22238 5.52865 4.09249 5.37603 3.97555C5.1857 3.83704 4.95686 3.7561 4.7263 3.70061C4.23434 3.58947 3.71373 3.5923 3.22412 3.7131C3.01078 3.76786 2.80057 3.84701 2.624 3.9757C2.43649 4.11883 2.26744 4.28263 2.07476 4.41981C1.81133 4.62126 1.52942 4.80812 1.21262 4.92521C1.00929 5.00243 0.776536 5.02891 0.566323 4.96107C0.360022 4.8904 0.209914 4.71767 0.128991 4.52857C0.00924877 4.24455 -0.00436893 3.9336 0.000952929 3.63142C-0.00718639 3.23567 0.0554238 2.84259 0.132278 2.45472C0.220245 2.05153 0.328561 1.65012 0.49933 1.27073C0.651472 0.926161 0.855895 0.594828 1.14515 0.337885C1.35286 0.152208 1.62475 0.0319936 1.90978 0.00982538ZM1.97098 0.364219C1.88442 0.374039 1.79849 0.390999 1.71678 0.42016C1.48967 0.50065 1.3059 0.663118 1.16441 0.846415C1.0071 1.05218 0.887826 1.28204 0.791719 1.51875C0.667438 1.82985 0.574618 2.15166 0.501678 2.47689C0.41731 2.88143 0.361587 3.29295 0.363153 3.70581C0.365344 3.93866 0.379275 4.17715 0.471155 4.39586C0.514669 4.49509 0.591367 4.59031 0.703282 4.62349C0.835859 4.6653 0.976575 4.62527 1.10258 4.58213C1.42674 4.46444 1.6991 4.25392 1.96613 4.04905C2.11827 3.92586 2.26102 3.79181 2.42256 3.67933C2.55529 3.59036 2.70102 3.51969 2.85191 3.46301C3.43825 3.25263 4.08861 3.21945 4.70063 3.33907C5.00867 3.4026 5.3117 3.50972 5.56684 3.68915C5.76907 3.84329 5.94813 4.02331 6.15631 4.17031C6.27183 4.26091 6.39282 4.34482 6.51961 4.42026C6.7112 4.53139 6.91656 4.64209 7.1454 4.65592C7.25309 4.6647 7.36719 4.6287 7.43512 4.54627C7.55628 4.403 7.58821 4.21449 7.61857 4.03834C7.66224 3.61967 7.62311 3.19743 7.55361 2.78323C7.46486 2.27931 7.33949 1.77659 7.11707 1.30957C6.98339 1.04191 6.82217 0.776042 6.57815 0.585306C6.38875 0.434592 6.14035 0.356334 5.89398 0.361839C5.73103 0.356482 5.57138 0.390851 5.4125 0.42016C4.97846 0.506155 4.55302 0.639759 4.10896 0.673532C3.95056 0.686774 3.79215 0.667581 3.63594 0.64452C3.21786 0.57995 2.81403 0.452743 2.39751 0.380734C2.2568 0.359458 2.11295 0.349936 1.97098 0.364219Z" fill="url(#paint0_linear_438_34)"/>
<path d="M1.7279 1.11481C1.84451 0.99936 2.0159 0.936575 2.18386 0.94818C2.38734 0.957553 2.57548 1.08327 2.66501 1.25526C2.69679 1.31224 2.70477 1.37696 2.72434 1.43781C2.76691 1.46296 2.82076 1.46221 2.86678 1.48037C2.99607 1.52931 3.11393 1.6162 3.1781 1.73552C3.24995 1.85782 3.26764 2.00615 3.23101 2.14139C3.18405 2.29821 3.064 2.43643 2.90669 2.50352C2.84924 2.52956 2.78523 2.53477 2.72496 2.55232C2.70289 2.64978 2.67253 2.74752 2.60585 2.82682C2.48971 2.97873 2.2856 3.0671 2.08884 3.04731C1.92731 3.03675 1.77986 2.94957 1.67922 2.83188C1.60909 2.75362 1.58233 2.65275 1.56229 2.55426C1.50328 2.53313 1.43864 2.5306 1.38057 2.50635C1.24564 2.45086 1.13326 2.34493 1.07613 2.21593C0.995985 2.05153 1.01492 1.8483 1.12074 1.69803C1.19289 1.59195 1.30606 1.5125 1.43238 1.47412C1.47542 1.45968 1.5252 1.46117 1.56433 1.43752C1.58515 1.31775 1.63633 1.2014 1.7279 1.11481ZM2.06458 1.30034C2.00761 1.32043 1.96081 1.367 1.94359 1.42264C1.92559 1.49301 1.93936 1.56606 1.93122 1.63748C1.92481 1.7083 1.86705 1.77287 1.79379 1.78864C1.70943 1.80709 1.62052 1.78804 1.53678 1.81125C1.46478 1.83178 1.40608 1.89263 1.39763 1.96464C1.37838 2.067 1.464 2.17725 1.57419 2.18469C1.67217 2.19734 1.78879 2.16312 1.86846 2.23527C1.95032 2.30089 1.9306 2.41158 1.93467 2.50174C1.93107 2.5858 1.99196 2.66778 2.07757 2.69054C2.16085 2.71464 2.25961 2.6895 2.31205 2.62166C2.39845 2.51632 2.30328 2.3607 2.40143 2.26057C2.46607 2.18276 2.57893 2.19957 2.67049 2.19763C2.73482 2.19986 2.80088 2.1771 2.84251 2.12919C2.91999 2.04484 2.90387 1.89769 2.8051 1.83431C2.68881 1.75397 2.51929 1.8486 2.41348 1.74698C2.30125 1.64596 2.39657 1.48007 2.31221 1.36655C2.2604 1.29052 2.1502 1.27237 2.06458 1.30034Z" fill="url(#paint1_linear_438_34)"/>
<path d="M5.64886 1.00382C5.84811 0.947585 6.07179 1.09815 6.08369 1.29454C6.10732 1.47516 5.945 1.65206 5.75373 1.65429C5.56809 1.66976 5.39372 1.51607 5.38918 1.34051C5.37744 1.18831 5.49374 1.04013 5.64886 1.00382Z" fill="url(#paint2_linear_438_34)"/>
<path d="M4.95968 1.67348C5.15893 1.62855 5.37149 1.78551 5.37541 1.97982C5.39278 2.16088 5.22405 2.33153 5.03324 2.32826C4.85058 2.3363 4.68028 2.18409 4.68137 2.00958C4.67104 1.85217 4.79689 1.70115 4.95968 1.67348Z" fill="url(#paint3_linear_438_34)"/>
<path d="M6.36919 1.67467C6.55342 1.63182 6.75815 1.7568 6.78711 1.93623C6.8253 2.10182 6.70556 2.27991 6.53276 2.31859C6.41771 2.34612 6.28858 2.31591 6.2039 2.23602C6.102 2.14511 6.06881 1.99306 6.1236 1.87106C6.16633 1.77331 6.2604 1.69758 6.36919 1.67467Z" fill="url(#paint4_linear_438_34)"/>
<path d="M5.66608 2.34686C5.85876 2.30282 6.06584 2.44729 6.08275 2.634C6.10951 2.81195 5.9569 2.98914 5.76923 3.00194C5.5972 3.02024 5.42597 2.89824 5.3956 2.73637C5.35459 2.56423 5.48419 2.37944 5.66608 2.34686Z" fill="url(#paint5_linear_438_34)"/>
<path d="M1.90978 0.00982538C2.09135 -0.0043087 2.27401 0.0101229 2.45245 0.0433008C2.87914 0.115757 3.29378 0.242666 3.72172 0.308724C3.82972 0.322412 3.93772 0.344729 4.04713 0.337439C4.60577 0.28611 5.13655 0.0976056 5.6894 0.0160742C5.96989 -0.0185915 6.26635 -0.00252333 6.52383 0.117244C6.82624 0.255312 7.05273 0.504519 7.2318 0.768008C7.38065 0.983143 7.48615 1.22149 7.58148 1.46147C7.81611 2.08754 7.95714 2.74544 7.99752 3.40885C7.99909 3.7384 8.01834 4.07538 7.91801 4.39511C7.85618 4.5921 7.74724 4.78923 7.55909 4.90141C7.4057 4.99827 7.21145 5.01166 7.03379 4.98651C6.75314 4.94247 6.50114 4.80738 6.26651 4.66083C6.11045 4.56383 5.96739 4.44986 5.82041 4.34125C5.66952 4.22238 5.52865 4.09249 5.37603 3.97555C5.1857 3.83704 4.95686 3.7561 4.7263 3.70061C4.23434 3.58947 3.71373 3.5923 3.22412 3.7131C3.01078 3.76786 2.80057 3.84701 2.624 3.9757C2.43649 4.11883 2.26744 4.28263 2.07476 4.41981C1.81133 4.62126 1.52942 4.80812 1.21262 4.92521C1.00929 5.00243 0.776536 5.02891 0.566323 4.96107C0.360022 4.8904 0.209914 4.71767 0.128991 4.52857C0.00924877 4.24455 -0.00436893 3.9336 0.000952929 3.63142C-0.00718639 3.23567 0.0554238 2.84259 0.132278 2.45472C0.220245 2.05153 0.328561 1.65012 0.49933 1.27073C0.651472 0.926161 0.855895 0.594828 1.14515 0.337885C1.35286 0.152208 1.62475 0.0319936 1.90978 0.00982538ZM1.97098 0.364219C1.88442 0.374039 1.79849 0.390999 1.71678 0.42016C1.48967 0.50065 1.3059 0.663118 1.16441 0.846415C1.0071 1.05218 0.887826 1.28204 0.791719 1.51875C0.667438 1.82985 0.574618 2.15166 0.501678 2.47689C0.41731 2.88143 0.361587 3.29295 0.363153 3.70581C0.365344 3.93866 0.379275 4.17715 0.471155 4.39586C0.514669 4.49509 0.591367 4.59031 0.703282 4.62349C0.835859 4.6653 0.976575 4.62527 1.10258 4.58213C1.42674 4.46444 1.6991 4.25392 1.96613 4.04905C2.11827 3.92586 2.26102 3.79181 2.42256 3.67933C2.55529 3.59036 2.70102 3.51969 2.85191 3.46301C3.43825 3.25263 4.08861 3.21945 4.70063 3.33907C5.00867 3.4026 5.3117 3.50972 5.56684 3.68915C5.76907 3.84329 5.94813 4.02331 6.15631 4.17031C6.27183 4.26091 6.39282 4.34482 6.51961 4.42026C6.7112 4.53139 6.91656 4.64209 7.1454 4.65592C7.25309 4.6647 7.36719 4.6287 7.43512 4.54627C7.55628 4.403 7.58821 4.21449 7.61857 4.03834C7.66224 3.61967 7.62311 3.19743 7.55361 2.78323C7.46486 2.27931 7.33949 1.77659 7.11707 1.30957C6.98339 1.04191 6.82217 0.776042 6.57815 0.585306C6.38875 0.434592 6.14035 0.356334 5.89398 0.361839C5.73103 0.356482 5.57138 0.390851 5.4125 0.42016C4.97846 0.506155 4.55302 0.639759 4.10896 0.673532C3.95056 0.686774 3.79215 0.667581 3.63594 0.64452C3.21786 0.57995 2.81403 0.452743 2.39751 0.380734C2.2568 0.359458 2.11295 0.349936 1.97098 0.364219Z" stroke="url(#paint6_linear_438_34)" stroke-width="10" mask="url(#path-1-inside-1_438_34)"/>
<path d="M1.7279 1.11481C1.84451 0.99936 2.0159 0.936575 2.18386 0.94818C2.38734 0.957553 2.57548 1.08327 2.66501 1.25526C2.69679 1.31224 2.70477 1.37696 2.72434 1.43781C2.76691 1.46296 2.82076 1.46221 2.86678 1.48037C2.99607 1.52931 3.11393 1.6162 3.1781 1.73552C3.24995 1.85782 3.26764 2.00615 3.23101 2.14139C3.18405 2.29821 3.064 2.43643 2.90669 2.50352C2.84924 2.52956 2.78523 2.53477 2.72496 2.55232C2.70289 2.64978 2.67253 2.74752 2.60585 2.82682C2.48971 2.97873 2.2856 3.0671 2.08884 3.04731C1.92731 3.03675 1.77986 2.94957 1.67922 2.83188C1.60909 2.75362 1.58233 2.65275 1.56229 2.55426C1.50328 2.53313 1.43864 2.5306 1.38057 2.50635C1.24564 2.45086 1.13326 2.34493 1.07613 2.21593C0.995985 2.05153 1.01492 1.8483 1.12074 1.69803C1.19289 1.59195 1.30606 1.5125 1.43238 1.47412C1.47542 1.45968 1.5252 1.46117 1.56433 1.43752C1.58515 1.31775 1.63633 1.2014 1.7279 1.11481ZM2.06458 1.30034C2.00761 1.32043 1.96081 1.367 1.94359 1.42264C1.92559 1.49301 1.93936 1.56606 1.93122 1.63748C1.92481 1.7083 1.86705 1.77287 1.79379 1.78864C1.70943 1.80709 1.62052 1.78804 1.53678 1.81125C1.46478 1.83178 1.40608 1.89263 1.39763 1.96464C1.37838 2.067 1.464 2.17725 1.57419 2.18469C1.67217 2.19734 1.78879 2.16312 1.86846 2.23527C1.95032 2.30089 1.9306 2.41158 1.93467 2.50174C1.93107 2.5858 1.99196 2.66778 2.07757 2.69054C2.16085 2.71464 2.25961 2.6895 2.31205 2.62166C2.39845 2.51632 2.30328 2.3607 2.40143 2.26057C2.46607 2.18276 2.57893 2.19957 2.67049 2.19763C2.73482 2.19986 2.80088 2.1771 2.84251 2.12919C2.91999 2.04484 2.90387 1.89769 2.8051 1.83431C2.68881 1.75397 2.51929 1.8486 2.41348 1.74698C2.30125 1.64596 2.39657 1.48007 2.31221 1.36655C2.2604 1.29052 2.1502 1.27237 2.06458 1.30034Z" stroke="url(#paint7_linear_438_34)" stroke-width="10" mask="url(#path-1-inside-1_438_34)"/>
<path d="M5.64886 1.00382C5.84811 0.947585 6.07179 1.09815 6.08369 1.29454C6.10732 1.47516 5.945 1.65206 5.75373 1.65429C5.56809 1.66976 5.39372 1.51607 5.38918 1.34051C5.37744 1.18831 5.49374 1.04013 5.64886 1.00382Z" stroke="url(#paint8_linear_438_34)" stroke-width="10" mask="url(#path-1-inside-1_438_34)"/>
<path d="M4.95968 1.67348C5.15893 1.62855 5.37149 1.78551 5.37541 1.97982C5.39278 2.16088 5.22405 2.33153 5.03324 2.32826C4.85058 2.3363 4.68028 2.18409 4.68137 2.00958C4.67104 1.85217 4.79689 1.70115 4.95968 1.67348Z" stroke="url(#paint9_linear_438_34)" stroke-width="10" mask="url(#path-1-inside-1_438_34)"/>
<path d="M6.36919 1.67467C6.55342 1.63182 6.75815 1.7568 6.78711 1.93623C6.8253 2.10182 6.70556 2.27991 6.53276 2.31859C6.41771 2.34612 6.28858 2.31591 6.2039 2.23602C6.102 2.14511 6.06881 1.99306 6.1236 1.87106C6.16633 1.77331 6.2604 1.69758 6.36919 1.67467Z" stroke="url(#paint10_linear_438_34)" stroke-width="10" mask="url(#path-1-inside-1_438_34)"/>
<path d="M5.66608 2.34686C5.85876 2.30282 6.06584 2.44729 6.08275 2.634C6.10951 2.81195 5.9569 2.98914 5.76923 3.00194C5.5972 3.02024 5.42597 2.89824 5.3956 2.73637C5.35459 2.56423 5.48419 2.37944 5.66608 2.34686Z" stroke="url(#paint11_linear_438_34)" stroke-width="10" mask="url(#path-1-inside-1_438_34)"/>
<defs>
<linearGradient id="paint0_linear_438_34" x1="3.91022" y1="-0.102713" x2="3.91022" y2="4.93021" gradientUnits="userSpaceOnUse">
<stop stop-color="#EDE527"/>
<stop offset="1" stop-color="#FE401C"/>
</linearGradient>
<linearGradient id="paint1_linear_438_34" x1="3.91022" y1="-0.102713" x2="3.91022" y2="4.93021" gradientUnits="userSpaceOnUse">
<stop stop-color="#EDE527"/>
<stop offset="1" stop-color="#FE401C"/>
</linearGradient>
<linearGradient id="paint2_linear_438_34" x1="3.91022" y1="-0.102713" x2="3.91022" y2="4.93021" gradientUnits="userSpaceOnUse">
<stop stop-color="#EDE527"/>
<stop offset="1" stop-color="#FE401C"/>
</linearGradient>
<linearGradient id="paint3_linear_438_34" x1="3.91022" y1="-0.102713" x2="3.91022" y2="4.93021" gradientUnits="userSpaceOnUse">
<stop stop-color="#EDE527"/>
<stop offset="1" stop-color="#FE401C"/>
</linearGradient>
<linearGradient id="paint4_linear_438_34" x1="3.91022" y1="-0.102713" x2="3.91022" y2="4.93021" gradientUnits="userSpaceOnUse">
<stop stop-color="#EDE527"/>
<stop offset="1" stop-color="#FE401C"/>
</linearGradient>
<linearGradient id="paint5_linear_438_34" x1="3.91022" y1="-0.102713" x2="3.91022" y2="4.93021" gradientUnits="userSpaceOnUse">
<stop stop-color="#EDE527"/>
<stop offset="1" stop-color="#FE401C"/>
</linearGradient>
<linearGradient id="paint6_linear_438_34" x1="4" y1="0" x2="4" y2="5" gradientUnits="userSpaceOnUse">
<stop stop-color="#EDE026"/>
<stop offset="1" stop-color="#FE401C"/>
</linearGradient>
<linearGradient id="paint7_linear_438_34" x1="4" y1="0" x2="4" y2="5" gradientUnits="userSpaceOnUse">
<stop stop-color="#EDE026"/>
<stop offset="1" stop-color="#FE401C"/>
</linearGradient>
<linearGradient id="paint8_linear_438_34" x1="4" y1="0" x2="4" y2="5" gradientUnits="userSpaceOnUse">
<stop stop-color="#EDE026"/>
<stop offset="1" stop-color="#FE401C"/>
</linearGradient>
<linearGradient id="paint9_linear_438_34" x1="4" y1="0" x2="4" y2="5" gradientUnits="userSpaceOnUse">
<stop stop-color="#EDE026"/>
<stop offset="1" stop-color="#FE401C"/>
</linearGradient>
<linearGradient id="paint10_linear_438_34" x1="4" y1="0" x2="4" y2="5" gradientUnits="userSpaceOnUse">
<stop stop-color="#EDE026"/>
<stop offset="1" stop-color="#FE401C"/>
</linearGradient>
<linearGradient id="paint11_linear_438_34" x1="4" y1="0" x2="4" y2="5" gradientUnits="userSpaceOnUse">
<stop stop-color="#EDE026"/>
<stop offset="1" stop-color="#FE401C"/>
</linearGradient>
</defs>
</svg>
