<svg width="7" height="7" viewBox="0 0 7 7" fill="none" xmlns="http://www.w3.org/2000/svg">
<path d="M7 6.4834V4.81304H6.08016V6.12177C6.08016 6.1631 2.65221 6.13899 0.938239 6.12177V4.81304H0V6.4834C0 6.76871 0.247097 7 0.551906 7H6.44809C6.7529 7 7 6.76871 7 6.4834Z" fill="url(#paint0_linear_290_581)"/>
<path d="M2.79632 3.04797H1.99606C1.89445 3.04797 1.81209 3.12507 1.81209 3.22017V3.50219C1.81209 3.5425 1.8272 3.58153 1.85478 3.61249L3.21668 5.14084C3.36403 5.3062 3.63554 5.30586 3.78241 5.14013L5.13634 3.61239C5.16372 3.58149 5.17871 3.5426 5.17871 3.50245V3.22017C5.17871 3.12507 5.09635 3.04797 4.99474 3.04797H4.20368V0.172202C4.20368 0.0770973 4.12131 0 4.01971 0H2.98029C2.87869 0 2.79632 0.0770973 2.79632 0.172202V3.04797Z" fill="url(#paint1_linear_290_581)"/>
<defs>
<linearGradient id="paint0_linear_290_581" x1="5.16219e-08" y1="4" x2="7" y2="4" gradientUnits="userSpaceOnUse">
<stop stop-color="#EDE527"/>
<stop offset="1" stop-color="#FE401C"/>
</linearGradient>
<linearGradient id="paint1_linear_290_581" x1="5.16219e-08" y1="4" x2="7" y2="4" gradientUnits="userSpaceOnUse">
<stop stop-color="#EDE527"/>
<stop offset="1" stop-color="#FE401C"/>
</linearGradient>
</defs>
</svg>
