<svg width="25" height="25" viewBox="0 0 25 25" fill="none" xmlns="http://www.w3.org/2000/svg">
<path d="M11.459 4.58523C12.7718 3.2735 14.7579 3.59628 16.4259 3.64092C16.4394 4.52685 16.4428 5.40935 16.436 6.29528C15.5631 6.37426 14.6597 6.33306 13.8308 6.64897C13.1642 7.49026 13.5127 8.70241 13.3774 9.70509C14.362 9.72569 15.3466 9.74286 16.3312 9.7772C16.2229 10.7352 16.1146 11.6967 16.003 12.6548C15.1774 12.6925 14.3518 12.7131 13.5297 12.7303C13.3808 15.2679 13.4721 17.8124 13.4654 20.3569C12.4672 20.35 11.4691 20.3569 10.471 20.3706C10.3323 17.8296 10.4169 15.2816 10.4135 12.7372C9.56083 12.7166 8.71159 12.696 7.86234 12.6685C7.86572 11.7036 7.86909 10.7387 7.87248 9.7772C8.71496 9.74629 9.56085 9.72569 10.4067 9.70165C10.4338 7.97786 10.092 5.90382 11.459 4.58523Z" fill="white"/>
<path d="M11.459 4.58523C12.7718 3.2735 14.7579 3.59628 16.4259 3.64092C16.4394 4.52685 16.4428 5.40935 16.436 6.29528C15.5631 6.37426 14.6597 6.33306 13.8308 6.64897C13.1642 7.49026 13.5127 8.70241 13.3774 9.70509C14.362 9.72569 15.3466 9.74286 16.3312 9.7772C16.2229 10.7352 16.1146 11.6967 16.003 12.6548C15.1774 12.6925 14.3518 12.7131 13.5297 12.7303C13.3808 15.2679 13.4721 17.8124 13.4654 20.3569C12.4672 20.35 11.4691 20.3569 10.471 20.3706C10.3323 17.8296 10.4169 15.2816 10.4135 12.7372C9.56083 12.7166 8.71159 12.696 7.86234 12.6685C7.86572 11.7036 7.86909 10.7387 7.87248 9.7772C8.71496 9.74629 9.56085 9.72569 10.4067 9.70165C10.4338 7.97786 10.092 5.90382 11.459 4.58523Z" fill="url(#paint0_linear_307_12)"/>
<path d="M9.60201 0.271099C13.3283 -0.524665 17.4072 0.44264 20.2376 3.0253C24.9741 7.02318 25.7984 14.7902 21.8434 19.6029C18.3554 24.3251 11.2841 25.7641 6.23311 22.7907C2.23523 20.6083 -0.275952 16.0387 0.0242468 11.4928C0.186259 6.15118 4.4081 1.35277 9.60201 0.271099ZM9.11598 1.10975C4.34139 2.35819 0.681825 6.98506 0.710416 11.9407C0.624645 15.6765 2.47826 19.398 5.54219 21.5471C8.65853 23.7771 12.9185 24.2679 16.4684 22.8241C21.6671 20.8704 24.8168 14.8188 23.354 9.44383C22.0388 3.30167 15.1199 -0.739091 9.11598 1.10975Z" fill="white"/>
<path d="M9.60201 0.271099C13.3283 -0.524665 17.4072 0.44264 20.2376 3.0253C24.9741 7.02318 25.7984 14.7902 21.8434 19.6029C18.3554 24.3251 11.2841 25.7641 6.23311 22.7907C2.23523 20.6083 -0.275952 16.0387 0.0242468 11.4928C0.186259 6.15118 4.4081 1.35277 9.60201 0.271099ZM9.11598 1.10975C4.34139 2.35819 0.681825 6.98506 0.710416 11.9407C0.624645 15.6765 2.47826 19.398 5.54219 21.5471C8.65853 23.7771 12.9185 24.2679 16.4684 22.8241C21.6671 20.8704 24.8168 14.8188 23.354 9.44383C22.0388 3.30167 15.1199 -0.739091 9.11598 1.10975Z" fill="url(#paint1_linear_307_12)"/>
<defs>
<linearGradient id="paint0_linear_307_12" x1="11.9082" y1="-0.5" x2="11.9082" y2="24" gradientUnits="userSpaceOnUse">
<stop stop-color="#EDE527"/>
<stop offset="1" stop-color="#FE401C"/>
</linearGradient>
<linearGradient id="paint1_linear_307_12" x1="11.9082" y1="-0.5" x2="11.9082" y2="24" gradientUnits="userSpaceOnUse">
<stop stop-color="#EDE527"/>
<stop offset="1" stop-color="#FE401C"/>
</linearGradient>
</defs>
</svg>
