<svg width="12" height="12" viewBox="0 0 12 12" fill="none" xmlns="http://www.w3.org/2000/svg">
<path d="M3.63502 3.57893C3.78819 3.37643 3.97251 3.19989 4.14775 3.01556C4.89155 3.64773 5.51982 4.39931 6.24675 5.04965C6.97497 4.41359 7.60973 3.68018 8.31848 3.02205C8.52227 3.22455 8.73905 3.41278 8.96362 3.59061C8.30679 4.32273 7.57208 4.97696 6.89189 5.68571C7.54742 6.41393 8.27045 7.07595 8.95843 7.77302C8.74554 7.97811 8.53526 8.18451 8.32367 8.3896C7.61492 7.72758 6.97367 6.99677 6.24675 6.35552C5.50425 6.9734 4.93569 7.79378 4.14516 8.34677C3.90631 8.20657 3.76482 7.95994 3.59088 7.75354C4.23862 7.0409 4.98631 6.42431 5.6003 5.67922C5.12391 5.18335 4.63194 4.70177 4.13607 4.22537C3.95174 4.02677 3.72069 3.84633 3.63502 3.57893Z" fill="white"/>
<path d="M5.10569 0.115712C6.18699 -0.0867877 7.3306 -0.0114993 8.35738 0.396097C10.1513 1.10095 11.5429 2.76379 11.87 4.66937C12.0322 5.69874 11.9712 6.78004 11.5844 7.75489C10.9483 9.42163 9.4867 10.7483 7.76156 11.2052C6.40896 11.5609 4.92007 11.4362 3.67521 10.7846C2.28627 10.094 1.22185 8.80244 0.788288 7.31485C0.31449 5.76754 0.567617 4.02682 1.43473 2.66384C2.24473 1.36316 3.60512 0.42076 5.10569 0.115712ZM3.63502 3.57893C3.72069 3.84633 3.95174 4.02677 4.13607 4.22537C4.63194 4.70177 5.12391 5.18335 5.6003 5.67922C4.98631 6.42431 4.23862 7.0409 3.59088 7.75354C3.76482 7.95994 3.90631 8.20657 4.14516 8.34677C4.93569 7.79378 5.50425 6.9734 6.24675 6.35552C6.97367 6.99677 7.61492 7.72758 8.32367 8.3896C8.53526 8.18451 8.74554 7.97811 8.95843 7.77302C8.27045 7.07595 7.54742 6.41393 6.89189 5.68571C7.57208 4.97696 8.30679 4.32273 8.96362 3.59061C8.73905 3.41278 8.52227 3.22455 8.31848 3.02205C7.60973 3.68018 6.97497 4.41359 6.24675 5.04965C5.51982 4.39931 4.89155 3.64773 4.14775 3.01556C3.97251 3.19989 3.78819 3.37643 3.63502 3.57893Z" fill="#E44444"/>
</svg>
