<svg width="25" height="25" viewBox="0 0 25 25" fill="none" xmlns="http://www.w3.org/2000/svg">
<path d="M8.53476 5.01161C8.83514 5.00492 9.13568 5.00789 9.43622 5.00655C10.5366 4.99793 11.6371 5.00135 12.7375 5.00016C13.6595 5.0012 14.5815 4.99808 15.5034 5.00224C15.8902 5.00849 16.2775 5.00388 16.6639 5.02113C17.2247 5.04864 17.7913 5.16228 18.2889 5.43163C18.747 5.67852 19.1466 6.0383 19.4326 6.47394C19.6638 6.83654 19.833 7.24169 19.909 7.66587C19.9389 7.79259 19.9481 7.92288 19.9679 8.05138C20.0008 8.2837 19.9859 8.51869 19.9932 8.7525C20.004 10.5324 19.9984 12.3122 19.9994 14.0921C19.9996 14.9201 19.9985 15.7481 19.9896 16.5761C19.992 16.7656 19.9719 16.955 19.9407 17.1418C19.861 17.7377 19.6201 18.314 19.2397 18.7807C18.927 19.1664 18.5207 19.4753 18.0655 19.6735C17.7431 19.8147 17.3974 19.9005 17.0482 19.9404C16.6449 19.9957 16.2369 19.992 15.8306 19.9933C14.1353 20.0009 12.4401 20.0018 10.7448 19.9972C10.0162 19.9976 9.28766 19.9954 8.55914 19.9866C8.11035 19.9679 7.65754 19.9239 7.22852 19.7832C6.73466 19.6212 6.28289 19.3338 5.92466 18.9574C5.58234 18.6003 5.33132 18.1587 5.18826 17.6858C5.08432 17.3551 5.04461 17.0089 5.01636 16.6647C5.0006 15.9957 5.00684 15.3264 5.00238 14.6573C5.00075 13.8442 5.00134 13.0312 5.0006 12.2181C5.0006 11.0778 4.99658 9.93744 5.00937 8.79712C5.01339 8.61745 5.01413 8.43779 5.02677 8.25842C5.03554 8.0261 5.07703 7.79705 5.11927 7.5689C5.1725 7.34 5.24344 7.11467 5.34054 6.90035C5.55616 6.42322 5.8976 6.00618 6.31293 5.68864C6.63369 5.45215 6.99802 5.27486 7.38109 5.16525C7.75687 5.06486 8.14604 5.01533 8.53476 5.01161ZM10.6327 6.97561C10.5066 6.98141 10.3811 6.99643 10.2547 6.99331C10.0658 7.00565 9.87639 7.01458 9.68902 7.04313C9.29896 7.09772 8.91545 7.21016 8.56509 7.39131C8.19719 7.58362 7.87926 7.86487 7.6272 8.19342C7.25618 8.68379 7.07431 9.29388 7.01869 9.90026C6.99312 10.0868 6.99817 10.2755 6.98702 10.4629C6.96025 10.7794 6.98018 11.0977 6.95817 11.4143C6.95891 12.1135 6.95817 12.8129 6.95862 13.5121C6.95356 13.6065 6.9723 13.7002 6.96799 13.7946C6.96724 13.9684 6.97453 14.1419 6.97364 14.3156C6.98999 14.4785 6.98092 14.6427 6.99788 14.8056C7.02018 15.3809 7.13558 15.9628 7.41068 16.4733C7.66899 16.944 8.0647 17.3398 8.53624 17.5965C8.98712 17.8373 9.49436 17.9582 10.0019 17.9942C10.077 17.9865 10.15 18.0106 10.2248 18.0095C10.3088 18.0067 10.393 18.0076 10.4763 18.0213C10.9621 18.0385 11.4482 18.0443 11.9345 18.043C12.4651 18.0432 12.9957 18.0427 13.5264 18.0429C13.7981 18.0301 14.0704 18.0314 14.3423 18.0268C14.4469 18.0186 14.5517 18.0124 14.6567 18.0137C14.7314 18.0149 14.8051 17.9994 14.8798 18C14.9742 18.0014 15.0668 17.9799 15.161 17.9752C15.7258 17.9167 16.2901 17.7446 16.7547 17.4107C16.9596 17.2619 17.1431 17.0844 17.3053 16.89C17.5009 16.6536 17.6515 16.3817 17.7581 16.0943C17.9186 15.6737 17.9833 15.2228 18.0039 14.7752C18.0173 14.6268 18.009 14.4773 18.0249 14.329C18.026 14.1259 18.0316 13.9228 18.0318 13.7197C18.0456 13.5864 18.0393 13.4524 18.0407 13.3187C18.0411 12.6839 18.0404 12.049 18.041 11.4142C18.0258 11.1673 18.0297 10.9197 18.0251 10.6723C18.0184 10.5432 18.0051 10.4144 18.0063 10.285C17.9883 9.75718 17.9067 9.22294 17.6897 8.73763C17.4998 8.29768 17.1847 7.91812 16.8058 7.62765C16.5807 7.45556 16.3264 7.32394 16.0601 7.2283C15.6025 7.05771 15.1115 7.00372 14.6265 6.98751C14.4775 6.9878 14.3293 6.96728 14.1801 6.97308C13.8085 6.9649 13.4366 6.96163 13.0647 6.96297C12.2541 6.96445 11.4432 6.95657 10.6327 6.97561Z" fill="white"/>
<path d="M8.53476 5.01161C8.83514 5.00492 9.13568 5.00789 9.43622 5.00655C10.5366 4.99793 11.6371 5.00135 12.7375 5.00016C13.6595 5.0012 14.5815 4.99808 15.5034 5.00224C15.8902 5.00849 16.2775 5.00388 16.6639 5.02113C17.2247 5.04864 17.7913 5.16228 18.2889 5.43163C18.747 5.67852 19.1466 6.0383 19.4326 6.47394C19.6638 6.83654 19.833 7.24169 19.909 7.66587C19.9389 7.79259 19.9481 7.92288 19.9679 8.05138C20.0008 8.2837 19.9859 8.51869 19.9932 8.7525C20.004 10.5324 19.9984 12.3122 19.9994 14.0921C19.9996 14.9201 19.9985 15.7481 19.9896 16.5761C19.992 16.7656 19.9719 16.955 19.9407 17.1418C19.861 17.7377 19.6201 18.314 19.2397 18.7807C18.927 19.1664 18.5207 19.4753 18.0655 19.6735C17.7431 19.8147 17.3974 19.9005 17.0482 19.9404C16.6449 19.9957 16.2369 19.992 15.8306 19.9933C14.1353 20.0009 12.4401 20.0018 10.7448 19.9972C10.0162 19.9976 9.28766 19.9954 8.55914 19.9866C8.11035 19.9679 7.65754 19.9239 7.22852 19.7832C6.73466 19.6212 6.28289 19.3338 5.92466 18.9574C5.58234 18.6003 5.33132 18.1587 5.18826 17.6858C5.08432 17.3551 5.04461 17.0089 5.01636 16.6647C5.0006 15.9957 5.00684 15.3264 5.00238 14.6573C5.00075 13.8442 5.00134 13.0312 5.0006 12.2181C5.0006 11.0778 4.99658 9.93744 5.00937 8.79712C5.01339 8.61745 5.01413 8.43779 5.02677 8.25842C5.03554 8.0261 5.07703 7.79705 5.11927 7.5689C5.1725 7.34 5.24344 7.11467 5.34054 6.90035C5.55616 6.42322 5.8976 6.00618 6.31293 5.68864C6.63369 5.45215 6.99802 5.27486 7.38109 5.16525C7.75687 5.06486 8.14604 5.01533 8.53476 5.01161ZM10.6327 6.97561C10.5066 6.98141 10.3811 6.99643 10.2547 6.99331C10.0658 7.00565 9.87639 7.01458 9.68902 7.04313C9.29896 7.09772 8.91545 7.21016 8.56509 7.39131C8.19719 7.58362 7.87926 7.86487 7.6272 8.19342C7.25618 8.68379 7.07431 9.29388 7.01869 9.90026C6.99312 10.0868 6.99817 10.2755 6.98702 10.4629C6.96025 10.7794 6.98018 11.0977 6.95817 11.4143C6.95891 12.1135 6.95817 12.8129 6.95862 13.5121C6.95356 13.6065 6.9723 13.7002 6.96799 13.7946C6.96724 13.9684 6.97453 14.1419 6.97364 14.3156C6.98999 14.4785 6.98092 14.6427 6.99788 14.8056C7.02018 15.3809 7.13558 15.9628 7.41068 16.4733C7.66899 16.944 8.0647 17.3398 8.53624 17.5965C8.98712 17.8373 9.49436 17.9582 10.0019 17.9942C10.077 17.9865 10.15 18.0106 10.2248 18.0095C10.3088 18.0067 10.393 18.0076 10.4763 18.0213C10.9621 18.0385 11.4482 18.0443 11.9345 18.043C12.4651 18.0432 12.9957 18.0427 13.5264 18.0429C13.7981 18.0301 14.0704 18.0314 14.3423 18.0268C14.4469 18.0186 14.5517 18.0124 14.6567 18.0137C14.7314 18.0149 14.8051 17.9994 14.8798 18C14.9742 18.0014 15.0668 17.9799 15.161 17.9752C15.7258 17.9167 16.2901 17.7446 16.7547 17.4107C16.9596 17.2619 17.1431 17.0844 17.3053 16.89C17.5009 16.6536 17.6515 16.3817 17.7581 16.0943C17.9186 15.6737 17.9833 15.2228 18.0039 14.7752C18.0173 14.6268 18.009 14.4773 18.0249 14.329C18.026 14.1259 18.0316 13.9228 18.0318 13.7197C18.0456 13.5864 18.0393 13.4524 18.0407 13.3187C18.0411 12.6839 18.0404 12.049 18.041 11.4142C18.0258 11.1673 18.0297 10.9197 18.0251 10.6723C18.0184 10.5432 18.0051 10.4144 18.0063 10.285C17.9883 9.75718 17.9067 9.22294 17.6897 8.73763C17.4998 8.29768 17.1847 7.91812 16.8058 7.62765C16.5807 7.45556 16.3264 7.32394 16.0601 7.2283C15.6025 7.05771 15.1115 7.00372 14.6265 6.98751C14.4775 6.9878 14.3293 6.96728 14.1801 6.97308C13.8085 6.9649 13.4366 6.96163 13.0647 6.96297C12.2541 6.96445 11.4432 6.95657 10.6327 6.97561Z" fill="url(#paint0_linear_307_14)"/>
<path d="M10.6327 7.97211C11.3588 7.95471 12.0854 7.96006 12.8119 7.95961C13.1738 7.95947 13.5356 7.96185 13.8976 7.96542C14.0809 7.97255 14.2647 7.96422 14.4479 7.98044C14.9282 7.9907 15.4227 8.02476 15.8667 8.22495C16.1426 8.34423 16.3775 8.54413 16.5631 8.77838C16.7257 8.98527 16.8296 9.23201 16.8985 9.48441C16.9771 9.77369 16.9984 10.0744 17.0147 10.3726C17.013 10.5417 17.0351 10.7101 17.0299 10.8792C17.0446 11.6229 17.0388 12.3667 17.0399 13.1105C17.0411 13.3833 17.0348 13.656 17.0348 13.9289C17.017 14.1168 17.0333 14.3058 17.0165 14.494C17.0054 14.6061 17.0152 14.7195 17 14.8314C16.9883 15.0664 16.9569 15.3014 16.8949 15.5288C16.8249 15.7722 16.7269 16.0122 16.5692 16.2127C16.4165 16.4073 16.2309 16.5792 16.0141 16.7C15.6142 16.9213 15.1513 16.9916 14.7001 17.0084C14.6106 17.0154 14.5206 17.008 14.4313 17.0178C14.1892 17.0362 13.9462 17.0187 13.7041 17.0356C12.7521 17.04 11.8001 17.0352 10.848 17.0316C10.6113 17.0132 10.3735 17.008 10.1363 17.0004C9.94687 16.9787 9.75608 16.9626 9.5705 16.9167C9.26119 16.8441 8.95694 16.7184 8.71514 16.5082C8.53699 16.3518 8.37564 16.1706 8.27006 15.9567C8.07659 15.5787 8.00908 15.1508 7.99153 14.7305C7.9783 14.5029 7.97205 14.2746 7.97324 14.0464C7.96804 13.9626 7.9606 13.8788 7.96372 13.7946C7.95778 12.9568 7.95703 12.1189 7.96358 11.2811C7.96283 11.167 7.96387 11.0531 7.9728 10.9393C7.97443 10.7757 7.97116 10.6118 7.98767 10.4486C7.98558 10.2943 8.00164 10.1408 8.01176 9.98697C8.05681 9.54271 8.17846 9.08655 8.46814 8.73659C8.62666 8.55127 8.81165 8.38394 9.0304 8.27254C9.44321 8.05852 9.91401 7.99962 10.3726 7.98415C10.4595 7.98445 10.5462 7.9785 10.6327 7.97211ZM15.3299 8.89246C15.0372 8.94317 14.8023 9.21297 14.7929 9.50984C14.7803 9.71688 14.8719 9.92599 15.0331 10.0566C15.1976 10.1958 15.4333 10.2435 15.6397 10.1824C15.9136 10.1077 16.1212 9.84047 16.1191 9.5555C16.1276 9.31247 15.9864 9.07317 15.7719 8.95998C15.6385 8.88576 15.4792 8.86405 15.3299 8.89246ZM12.253 9.6672C11.6067 9.72163 10.9828 10.0066 10.52 10.4611C10.1296 10.8377 9.85081 11.329 9.73021 11.8579C9.61422 12.3534 9.63533 12.8807 9.79118 13.3651C9.95446 13.8831 10.2734 14.3499 10.6923 14.6949C11.1041 15.036 11.614 15.2567 12.1449 15.3214C12.5687 15.3745 13.0043 15.333 13.4088 15.1946C13.9294 15.0215 14.3944 14.6894 14.7336 14.259C15.092 13.8064 15.3074 13.2415 15.3378 12.6649C15.3696 12.1509 15.2557 11.6294 15.0151 11.1743C14.7788 10.725 14.4188 10.3424 13.9869 10.0762C13.4726 9.75822 12.855 9.61425 12.253 9.6672Z" fill="white"/>
<path d="M10.6327 7.97211C11.3588 7.95471 12.0854 7.96006 12.8119 7.95961C13.1738 7.95947 13.5356 7.96185 13.8976 7.96542C14.0809 7.97255 14.2647 7.96422 14.4479 7.98044C14.9282 7.9907 15.4227 8.02476 15.8667 8.22495C16.1426 8.34423 16.3775 8.54413 16.5631 8.77838C16.7257 8.98527 16.8296 9.23201 16.8985 9.48441C16.9771 9.77369 16.9984 10.0744 17.0147 10.3726C17.013 10.5417 17.0351 10.7101 17.0299 10.8792C17.0446 11.6229 17.0388 12.3667 17.0399 13.1105C17.0411 13.3833 17.0348 13.656 17.0348 13.9289C17.017 14.1168 17.0333 14.3058 17.0165 14.494C17.0054 14.6061 17.0152 14.7195 17 14.8314C16.9883 15.0664 16.9569 15.3014 16.8949 15.5288C16.8249 15.7722 16.7269 16.0122 16.5692 16.2127C16.4165 16.4073 16.2309 16.5792 16.0141 16.7C15.6142 16.9213 15.1513 16.9916 14.7001 17.0084C14.6106 17.0154 14.5206 17.008 14.4313 17.0178C14.1892 17.0362 13.9462 17.0187 13.7041 17.0356C12.7521 17.04 11.8001 17.0352 10.848 17.0316C10.6113 17.0132 10.3735 17.008 10.1363 17.0004C9.94687 16.9787 9.75608 16.9626 9.5705 16.9167C9.26119 16.8441 8.95694 16.7184 8.71514 16.5082C8.53699 16.3518 8.37564 16.1706 8.27006 15.9567C8.07659 15.5787 8.00908 15.1508 7.99153 14.7305C7.9783 14.5029 7.97205 14.2746 7.97324 14.0464C7.96804 13.9626 7.9606 13.8788 7.96372 13.7946C7.95778 12.9568 7.95703 12.1189 7.96358 11.2811C7.96283 11.167 7.96387 11.0531 7.9728 10.9393C7.97443 10.7757 7.97116 10.6118 7.98767 10.4486C7.98558 10.2943 8.00164 10.1408 8.01176 9.98697C8.05681 9.54271 8.17846 9.08655 8.46814 8.73659C8.62666 8.55127 8.81165 8.38394 9.0304 8.27254C9.44321 8.05852 9.91401 7.99962 10.3726 7.98415C10.4595 7.98445 10.5462 7.9785 10.6327 7.97211ZM15.3299 8.89246C15.0372 8.94317 14.8023 9.21297 14.7929 9.50984C14.7803 9.71688 14.8719 9.92599 15.0331 10.0566C15.1976 10.1958 15.4333 10.2435 15.6397 10.1824C15.9136 10.1077 16.1212 9.84047 16.1191 9.5555C16.1276 9.31247 15.9864 9.07317 15.7719 8.95998C15.6385 8.88576 15.4792 8.86405 15.3299 8.89246ZM12.253 9.6672C11.6067 9.72163 10.9828 10.0066 10.52 10.4611C10.1296 10.8377 9.85081 11.329 9.73021 11.8579C9.61422 12.3534 9.63533 12.8807 9.79118 13.3651C9.95446 13.8831 10.2734 14.3499 10.6923 14.6949C11.1041 15.036 11.614 15.2567 12.1449 15.3214C12.5687 15.3745 13.0043 15.333 13.4088 15.1946C13.9294 15.0215 14.3944 14.6894 14.7336 14.259C15.092 13.8064 15.3074 13.2415 15.3378 12.6649C15.3696 12.1509 15.2557 11.6294 15.0151 11.1743C14.7788 10.725 14.4188 10.3424 13.9869 10.0762C13.4726 9.75822 12.855 9.61425 12.253 9.6672Z" fill="url(#paint1_linear_307_14)"/>
<path d="M12.2832 10.665C12.4688 10.6496 12.6582 10.6473 12.8414 10.686C13.3658 10.7816 13.8394 11.1191 14.1016 11.5832C14.4094 12.1091 14.427 12.7912 14.148 13.3327C13.9282 13.7722 13.5251 14.1158 13.0559 14.262C12.5434 14.4265 11.9604 14.3502 11.5083 14.0577C11.111 13.8068 10.8176 13.3975 10.7066 12.9409C10.6171 12.573 10.6416 12.1769 10.7817 11.8247C10.9486 11.3993 11.2785 11.0403 11.6905 10.842C11.8757 10.7485 12.0781 10.6934 12.2832 10.665Z" fill="white"/>
<path d="M12.2832 10.665C12.4688 10.6496 12.6582 10.6473 12.8414 10.686C13.3658 10.7816 13.8394 11.1191 14.1016 11.5832C14.4094 12.1091 14.427 12.7912 14.148 13.3327C13.9282 13.7722 13.5251 14.1158 13.0559 14.262C12.5434 14.4265 11.9604 14.3502 11.5083 14.0577C11.111 13.8068 10.8176 13.3975 10.7066 12.9409C10.6171 12.573 10.6416 12.1769 10.7817 11.8247C10.9486 11.3993 11.2785 11.0403 11.6905 10.842C11.8757 10.7485 12.0781 10.6934 12.2832 10.665Z" fill="url(#paint2_linear_307_14)"/>
<path d="M9.60201 0.271099C13.3283 -0.524665 17.4072 0.44264 20.2376 3.0253C24.9741 7.02318 25.7984 14.7902 21.8434 19.6029C18.3554 24.3251 11.2841 25.7641 6.23311 22.7907C2.23523 20.6083 -0.275952 16.0387 0.0242468 11.4928C0.186259 6.15118 4.4081 1.35277 9.60201 0.271099ZM9.11598 1.10975C4.34139 2.35819 0.681825 6.98506 0.710416 11.9407C0.624645 15.6765 2.47826 19.398 5.54219 21.5471C8.65853 23.7771 12.9185 24.2679 16.4685 22.8241C21.6671 20.8704 24.8168 14.8188 23.354 9.44383C22.0388 3.30167 15.1199 -0.739091 9.11598 1.10975Z" fill="white"/>
<path d="M9.60201 0.271099C13.3283 -0.524665 17.4072 0.44264 20.2376 3.0253C24.9741 7.02318 25.7984 14.7902 21.8434 19.6029C18.3554 24.3251 11.2841 25.7641 6.23311 22.7907C2.23523 20.6083 -0.275952 16.0387 0.0242468 11.4928C0.186259 6.15118 4.4081 1.35277 9.60201 0.271099ZM9.11598 1.10975C4.34139 2.35819 0.681825 6.98506 0.710416 11.9407C0.624645 15.6765 2.47826 19.398 5.54219 21.5471C8.65853 23.7771 12.9185 24.2679 16.4685 22.8241C21.6671 20.8704 24.8168 14.8188 23.354 9.44383C22.0388 3.30167 15.1199 -0.739091 9.11598 1.10975Z" fill="url(#paint3_linear_307_14)"/>
<defs>
<linearGradient id="paint0_linear_307_14" x1="11.9082" y1="-0.5" x2="11.9082" y2="24" gradientUnits="userSpaceOnUse">
<stop stop-color="#EDE527"/>
<stop offset="1" stop-color="#FE401C"/>
</linearGradient>
<linearGradient id="paint1_linear_307_14" x1="11.9082" y1="-0.5" x2="11.9082" y2="24" gradientUnits="userSpaceOnUse">
<stop stop-color="#EDE527"/>
<stop offset="1" stop-color="#FE401C"/>
</linearGradient>
<linearGradient id="paint2_linear_307_14" x1="11.9082" y1="-0.5" x2="11.9082" y2="24" gradientUnits="userSpaceOnUse">
<stop stop-color="#EDE527"/>
<stop offset="1" stop-color="#FE401C"/>
</linearGradient>
<linearGradient id="paint3_linear_307_14" x1="11.9082" y1="-0.5" x2="11.9082" y2="24" gradientUnits="userSpaceOnUse">
<stop stop-color="#EDE527"/>
<stop offset="1" stop-color="#FE401C"/>
</linearGradient>
</defs>
</svg>
