<svg width="72" height="75" viewBox="0 0 72 75" fill="none" xmlns="http://www.w3.org/2000/svg">
<path d="M38.1373 0.374564C36.6886 -0.152415 35.0435 -0.124375 33.6187 0.46528C32.2731 1.01205 31.1346 2.04704 30.4606 3.33274C29.8072 4.5673 29.5712 6.0303 29.8723 7.40012C30.3409 9.71256 31.1272 11.9433 31.8755 14.1758L32.4935 15.8532C32.787 16.7907 33.1675 17.6994 33.4966 18.625C33.6757 19.1388 33.8992 19.6625 34.3225 20.0245C35.1458 20.7692 36.4725 20.8542 37.3907 20.2356C37.87 19.9297 38.2009 19.4382 38.3857 18.9071C39.6397 15.5316 40.9053 12.1512 41.8318 8.66767C42.0108 7.94689 42.1898 7.22034 42.241 6.47729C42.3128 4.99284 41.8087 3.4952 40.8772 2.33981C40.1669 1.44996 39.2074 0.761345 38.1373 0.374564Z" fill="url(#paint0_linear_661_31)"/>
<path d="M53.5214 6.02041C54.7738 5.84722 56.0765 6.06329 57.2035 6.63728C58.6506 7.36713 59.7932 8.67922 60.3039 10.2181C60.9738 12.1726 60.6009 14.4603 59.2974 16.0726C58.5557 16.9286 57.6564 17.6288 56.7728 18.3306C54.2243 20.3008 51.5439 22.0904 48.8601 23.8701C48.3816 24.2008 47.8008 24.4028 47.2142 24.3517C46.0988 24.2882 45.0906 23.4033 44.9041 22.299C44.7787 21.7069 44.9693 21.1172 45.1302 20.5523C46.0328 17.3451 46.9361 14.1313 48.12 11.0139C48.417 10.2602 48.7174 9.50144 49.1348 8.80375C50.0902 7.28796 51.7493 6.25709 53.5214 6.02041Z" fill="url(#paint1_linear_661_31)"/>
<path d="M16.7274 6.02371C18.728 5.73094 20.8483 6.46987 22.2129 7.96503C23.0264 8.81364 23.4372 9.93852 23.8704 11.0081C25.1112 14.297 26.0608 17.6849 27.0046 21.0677C27.2034 21.7316 27.1622 22.4813 26.8008 23.0825C26.2893 23.9839 25.1904 24.5207 24.1657 24.3137C23.7309 24.2362 23.3448 24.0111 22.9835 23.7686C20.7072 22.2677 18.4459 20.742 16.2563 19.1173C15.2093 18.3314 14.1607 17.5381 13.2161 16.6293C12.1023 15.5852 11.4489 14.0884 11.3722 12.5701C11.3087 11.3991 11.5718 10.2098 12.1444 9.18475C13.0684 7.49331 14.8174 6.28678 16.7274 6.02371Z" fill="url(#paint2_linear_661_31)"/>
<path d="M5.59294 21.6203C6.31236 21.5419 7.0458 21.5906 7.74871 21.7654C8.75853 22.0079 9.63882 22.5868 10.51 23.1278C13.2301 24.8993 15.7901 26.9024 18.3353 28.9147C18.8666 29.3658 19.5176 29.7344 19.8294 30.3868C20.3475 31.3805 20.0753 32.6918 19.2305 33.42C18.8081 33.7952 18.2503 33.9981 17.6893 34.0212C15.5707 34.1111 13.4512 34.2026 11.3309 34.2175C9.32532 34.2232 7.31063 34.2538 5.31739 33.9989C3.85298 33.8257 2.48923 33.0497 1.53056 31.9388C0.56942 30.8321 0.0117095 29.3807 0.00510936 27.9143C-0.0163411 26.5115 0.457218 25.1104 1.31606 24.0028C2.33991 22.671 3.92476 21.7993 5.59294 21.6203Z" fill="url(#paint3_linear_661_31)"/>
<path d="M65.2416 21.6153C66.3356 21.518 67.451 21.7555 68.4468 22.2099C69.8171 22.8796 70.9474 24.0564 71.5117 25.4782C71.8318 26.2476 71.9729 27.0831 71.9531 27.9143C71.9729 29.5316 71.2997 31.1422 70.1273 32.258C69.101 33.34 67.6383 33.9544 66.1574 34.0393C65.0205 34.187 63.8729 34.1243 62.7336 34.2307C61.916 34.234 61.0975 34.2604 60.2816 34.2109C59.1216 34.0855 57.9526 34.2282 56.7934 34.0872C55.8397 34.0773 54.8868 34.0426 53.9364 33.9577C53.118 33.8661 52.439 33.2386 52.1214 32.5029C51.831 31.7409 51.8417 30.8098 52.3219 30.1253C52.5916 29.7122 53.0107 29.4367 53.3902 29.1349C54.6401 28.1271 55.9181 27.154 57.1878 26.1718C59.0853 24.7772 60.968 23.3439 63.0429 22.219C63.7203 21.857 64.4851 21.7044 65.2416 21.6153Z" fill="url(#paint4_linear_661_31)"/>
<path d="M58.3882 40.8125C59.1464 40.7482 59.9079 40.768 60.6677 40.7622C62.6395 40.7548 64.6187 40.7259 66.579 40.9692C67.88 41.102 69.106 41.7222 70.0589 42.6062C70.8888 43.4177 71.5233 44.4486 71.798 45.5817C72.1618 46.9887 72.0397 48.5358 71.3863 49.8413C70.4895 51.7991 68.4922 53.1854 66.3537 53.3924C65.1971 53.5054 63.9975 53.3091 62.9695 52.7566C61.7666 52.124 60.652 51.3414 59.5407 50.5629C57.5846 49.1807 55.6978 47.7045 53.8143 46.2266C53.2434 45.7285 52.5298 45.3467 52.1684 44.6515C51.548 43.5184 51.9885 41.944 53.1172 41.309C53.9636 40.7919 54.99 40.9808 55.928 40.895C56.7464 40.8101 57.569 40.8703 58.3882 40.8125Z" fill="url(#paint5_linear_661_31)"/>
<path d="M7.89391 40.8018C11.1329 40.6921 14.3728 40.8414 17.6101 40.961C18.1109 40.9808 18.615 41.1185 19.0275 41.4129C19.7469 41.9086 20.1528 42.8017 20.0877 43.6693C20.0563 44.3678 19.6793 45.0209 19.1339 45.449C16.9592 47.1866 14.7646 48.9028 12.4975 50.52C11.3738 51.3117 10.2419 52.0993 9.02501 52.7434C7.91619 53.3413 6.60854 53.5202 5.36771 53.3479C3.75233 53.1203 2.23925 52.2321 1.26243 50.9249C0.443193 49.8421 -0.00974125 48.488 0.000158945 47.1305C-0.0023161 45.6395 0.56282 44.1608 1.53964 43.0367C2.43313 42.0199 3.65993 41.2752 5.00058 41.0393C5.95678 40.8818 6.92699 40.8455 7.89391 40.8018Z" fill="url(#paint6_linear_661_31)"/>
<path d="M24.0651 50.7039C25.3372 50.3847 26.7398 51.2556 27.0467 52.5223C27.2273 53.1772 27.0376 53.8493 26.8478 54.4785C25.9461 57.6882 25.0353 60.9012 23.853 64.0219C23.6105 64.642 23.3531 65.2581 23.0445 65.8494C22.4043 67.0642 21.3046 68.0059 20.0472 68.5395C18.3543 69.257 16.3454 69.1704 14.7184 68.3169C13.7111 67.7825 12.8432 66.9792 12.2591 65.9986C11.576 64.8589 11.2583 63.4982 11.3887 62.1754C11.5364 60.7808 12.1312 59.4102 13.1534 58.4346C14.117 57.4895 15.2011 56.6796 16.2744 55.8656C18.4681 54.2451 20.7279 52.717 23.0033 51.2127C23.33 50.9942 23.6756 50.7872 24.0651 50.7039Z" fill="url(#paint7_linear_661_31)"/>
<path d="M46.7563 50.7154C47.427 50.5464 48.163 50.6635 48.7388 51.0495C50.8748 52.4473 52.9909 53.8773 55.0576 55.3758C56.1442 56.1774 57.2315 56.9831 58.2488 57.8738C58.7405 58.3175 59.2371 58.7719 59.601 59.3318C60.2758 60.352 60.6479 61.5733 60.6207 62.798C60.6405 64.4697 59.9269 66.1289 58.7166 67.2794C57.9856 67.9878 57.0773 68.509 56.0988 68.7894C54.6039 69.2182 52.9472 69.0698 51.5595 68.3655C50.3179 67.7396 49.2775 66.6963 48.7231 65.4156C47.7141 63.1708 47.0063 60.8064 46.2827 58.4585C45.8348 56.9674 45.4181 55.4665 44.9957 53.968C44.8472 53.4353 44.8142 52.8588 44.9982 52.3302C45.2622 51.5401 45.956 50.9274 46.7563 50.7154Z" fill="url(#paint8_linear_661_31)"/>
<path d="M35.3686 54.42C36.102 54.2501 36.9205 54.3779 37.5211 54.8472C37.9476 55.1548 38.224 55.6215 38.3989 56.1098C39.5432 59.1718 40.6669 62.2455 41.5818 65.3842C41.8541 66.4036 42.1552 67.4278 42.2435 68.4834C42.3433 70.2458 41.614 72.0255 40.3418 73.2436C39.3609 74.1977 38.0565 74.8154 36.6944 74.9598C35.4181 75.1074 34.1014 74.8459 32.9777 74.2241C30.7617 73.0423 29.3955 70.4083 29.8121 67.9169C30.0968 66.2757 30.6083 64.6849 31.1074 63.0999C31.8532 60.8064 32.6865 58.5426 33.5247 56.2821C33.6864 55.8261 33.891 55.3667 34.2532 55.0327C34.5634 54.7358 34.9511 54.5198 35.3686 54.42Z" fill="url(#paint9_linear_661_31)"/>
<defs>
<linearGradient id="paint0_linear_661_31" x1="35.192" y1="-1.54069" x2="35.192" y2="73.9531" gradientUnits="userSpaceOnUse">
<stop stop-color="#EDE527"/>
<stop offset="1" stop-color="#FE401C"/>
</linearGradient>
<linearGradient id="paint1_linear_661_31" x1="35.192" y1="-1.54069" x2="35.192" y2="73.9531" gradientUnits="userSpaceOnUse">
<stop stop-color="#EDE527"/>
<stop offset="1" stop-color="#FE401C"/>
</linearGradient>
<linearGradient id="paint2_linear_661_31" x1="35.192" y1="-1.54069" x2="35.192" y2="73.9531" gradientUnits="userSpaceOnUse">
<stop stop-color="#EDE527"/>
<stop offset="1" stop-color="#FE401C"/>
</linearGradient>
<linearGradient id="paint3_linear_661_31" x1="35.192" y1="-1.54069" x2="35.192" y2="73.9531" gradientUnits="userSpaceOnUse">
<stop stop-color="#EDE527"/>
<stop offset="1" stop-color="#FE401C"/>
</linearGradient>
<linearGradient id="paint4_linear_661_31" x1="35.192" y1="-1.54069" x2="35.192" y2="73.9531" gradientUnits="userSpaceOnUse">
<stop stop-color="#EDE527"/>
<stop offset="1" stop-color="#FE401C"/>
</linearGradient>
<linearGradient id="paint5_linear_661_31" x1="35.192" y1="-1.54069" x2="35.192" y2="73.9531" gradientUnits="userSpaceOnUse">
<stop stop-color="#EDE527"/>
<stop offset="1" stop-color="#FE401C"/>
</linearGradient>
<linearGradient id="paint6_linear_661_31" x1="35.192" y1="-1.54069" x2="35.192" y2="73.9531" gradientUnits="userSpaceOnUse">
<stop stop-color="#EDE527"/>
<stop offset="1" stop-color="#FE401C"/>
</linearGradient>
<linearGradient id="paint7_linear_661_31" x1="35.192" y1="-1.54069" x2="35.192" y2="73.9531" gradientUnits="userSpaceOnUse">
<stop stop-color="#EDE527"/>
<stop offset="1" stop-color="#FE401C"/>
</linearGradient>
<linearGradient id="paint8_linear_661_31" x1="35.192" y1="-1.54069" x2="35.192" y2="73.9531" gradientUnits="userSpaceOnUse">
<stop stop-color="#EDE527"/>
<stop offset="1" stop-color="#FE401C"/>
</linearGradient>
<linearGradient id="paint9_linear_661_31" x1="35.192" y1="-1.54069" x2="35.192" y2="73.9531" gradientUnits="userSpaceOnUse">
<stop stop-color="#EDE527"/>
<stop offset="1" stop-color="#FE401C"/>
</linearGradient>
</defs>
</svg>
