<svg width="7" height="7" viewBox="0 0 7 7" fill="none" xmlns="http://www.w3.org/2000/svg">
<path d="M2.22277 0H2.42566C2.48568 0.00820313 2.54584 0.0136719 2.606 0.0194141C3.01916 0.0708203 3.41742 0.236523 3.74418 0.494648C4.09555 0.771777 4.36734 1.15117 4.50748 1.57691C4.61439 1.88658 4.64488 2.21908 4.6174 2.54447C4.57639 2.9348 4.43871 3.31598 4.21135 3.63672C4.18646 3.6724 4.15775 3.7059 4.13875 3.74527C4.184 3.8057 4.24361 3.85314 4.29529 3.90783C4.33986 3.95021 4.37801 4.00039 4.42969 4.03484C4.47932 4.01516 4.52457 3.98111 4.57953 3.97783C4.66484 3.96772 4.75152 4.0008 4.81086 4.06232C5.4693 4.72076 6.12801 5.3792 6.78645 6.03777C6.86615 6.12062 6.96459 6.19404 7 6.30875V6.41977C6.97977 6.47445 6.95201 6.52723 6.91018 6.56852C6.79588 6.68199 6.68186 6.79588 6.56852 6.91031C6.52695 6.95188 6.47404 6.97922 6.41963 7H6.32242C6.26568 6.98346 6.21072 6.95775 6.16848 6.91551C5.47094 6.21865 4.77422 5.5207 4.07641 4.82398C4.01666 4.76834 3.97428 4.69082 3.97742 4.60742C3.97236 4.5418 4.01092 4.4867 4.03498 4.42914C3.99738 4.37199 3.94119 4.33057 3.89498 4.2808C3.84508 4.23336 3.80174 4.17867 3.74582 4.1382C3.70043 4.16063 3.66215 4.19439 3.62045 4.22242C3.23107 4.49135 2.75611 4.6323 2.28348 4.62574C1.82588 4.62096 1.37102 4.47494 0.995313 4.21381C0.46293 3.84809 0.0976172 3.25008 0.0191406 2.60846C0.0133984 2.55213 0.00792969 2.49566 0 2.43947V2.2091C0.0138086 2.08182 0.0220117 1.95357 0.0511328 1.82848C0.146699 1.37949 0.380488 0.961406 0.712578 0.644356C1.07666 0.292715 1.5601 0.0675391 2.0635 0.0150391C2.11668 0.0112109 2.16986 0.0065625 2.22277 0ZM2.21867 0.55166C1.99869 0.560547 1.78158 0.615234 1.58143 0.706152C1.20326 0.877051 0.890313 1.18672 0.714492 1.56242C0.601836 1.80387 0.54127 2.07102 0.547422 2.33789C0.550156 2.64414 0.636562 2.94943 0.793105 3.21262C0.976445 3.52324 1.25727 3.77521 1.58607 3.92355C1.96232 4.09418 2.4001 4.12795 2.79713 4.01324C3.18582 3.90482 3.53227 3.65586 3.76277 3.32514C3.96936 3.03051 4.08406 2.6708 4.07955 2.31055C4.08365 1.88563 3.9215 1.46303 3.64 1.14543C3.29041 0.74334 2.75051 0.516387 2.21867 0.55166Z" fill="white"/>
</svg>
