<svg width="10" height="10" viewBox="0 0 10 10" fill="none" xmlns="http://www.w3.org/2000/svg">
<path d="M5.7254 1.37403L5.92181 1.55975L6.18477 1.49712L7.15594 1.26581L7.4412 2.22252L7.51844 2.48156L7.77748 2.5588L8.73419 2.84406L8.50288 3.81523L8.44025 4.07819L8.62597 4.2746L9.31187 5L8.62597 5.7254L8.44025 5.92181L8.50288 6.18477L8.73419 7.15594L7.77748 7.4412L7.51844 7.51844L7.4412 7.77748L7.15594 8.73419L6.18477 8.50288L5.92181 8.44025L5.7254 8.62597L5 9.31187L4.2746 8.62597L4.07819 8.44025L3.81523 8.50288L2.84406 8.73419L2.5588 7.77748L2.48156 7.51844L2.22252 7.4412L1.26581 7.15594L1.49712 6.18477L1.55975 5.92181L1.37403 5.7254L0.688127 5L1.37403 4.2746L1.55975 4.07819L1.49712 3.81523L1.26581 2.84406L2.22252 2.5588L2.48156 2.48156L2.5588 2.22252L2.84406 1.26581L3.81523 1.49712L4.07819 1.55975L4.2746 1.37403L5 0.688127L5.7254 1.37403Z" stroke="url(#paint0_linear_435_5)"/>
<defs>
<linearGradient id="paint0_linear_435_5" x1="5" y1="0" x2="5" y2="10" gradientUnits="userSpaceOnUse">
<stop stop-color="#EDE527"/>
<stop offset="1" stop-color="#FE401C"/>
</linearGradient>
</defs>
</svg>
