<svg width="7" height="7" viewBox="0 0 7 7" fill="none" xmlns="http://www.w3.org/2000/svg">
<path d="M1.18806 0.0349535C1.28618 -0.0103802 1.39448 0.00227551 1.49795 0.00076439C3.13883 0.00095328 4.77989 0.00095328 6.42078 0.00076439C6.52774 0.00208662 6.64055 -0.0118913 6.74068 0.0402424C6.8927 0.111832 7.0005 0.290144 6.99983 0.477146C7 1.98883 7.00017 3.50071 6.99967 5.0124C6.9995 5.2589 6.80609 5.47688 6.58882 5.48028C6.05999 5.48236 5.53116 5.48047 5.00233 5.48104C4.73166 5.48425 4.46082 5.47443 4.19032 5.48595C4.19032 5.65897 4.18965 5.832 4.19132 6.00502C4.43946 6.00672 4.68777 6.00408 4.93592 6.00559C5.02403 6.0037 5.11197 6.05054 5.16203 6.13366C5.20709 6.20184 5.2176 6.29006 5.20893 6.37279C4.37605 6.37525 3.54317 6.37525 2.7103 6.37279C2.69711 6.25946 2.73099 6.13706 2.81426 6.06773C2.87534 6.01107 2.95727 6.00256 3.0332 6.00483C3.26499 6.00559 3.49678 6.00559 3.72841 6.00521C3.73141 5.83181 3.72941 5.65822 3.72957 5.48463C3.31839 5.47518 2.90688 5.48519 2.4957 5.47991C2.48802 5.21093 2.49036 4.94119 2.49453 4.67221C3.85156 4.66541 5.20859 4.67353 6.56562 4.66806C6.56612 3.28349 6.56562 1.89892 6.56579 0.514357C6.49554 0.503401 6.42461 0.507557 6.35403 0.507935C4.75753 0.507935 3.1612 0.507935 1.5647 0.507935C1.49444 0.508502 1.42352 0.501135 1.35393 0.51549C1.3501 0.758592 1.36378 1.00302 1.34776 1.24555C1.20541 1.24498 1.06307 1.24612 0.920725 1.24461C0.919557 0.98885 0.920224 0.733092 0.920391 0.477335C0.918389 0.285233 1.03353 0.10711 1.18806 0.0349535ZM3.90763 4.94572C3.80717 4.97953 3.76412 5.13235 3.82836 5.22641C3.89628 5.34825 4.08335 5.31614 4.11439 5.17504C4.15961 5.03904 4.02761 4.89151 3.90763 4.94572Z" fill="white"/>
<path d="M0.318638 1.52322C0.823103 1.51415 1.32807 1.52228 1.8327 1.51925C1.97404 1.51283 2.11422 1.60614 2.17479 1.75121C2.22169 1.85359 2.20984 1.9724 2.21084 2.08366C2.21017 3.58798 2.21134 5.09249 2.21034 6.59681C2.20867 6.80403 2.05081 6.99462 1.86574 6.99821C1.38163 7.00142 0.897529 6.99764 0.413423 6.99991C0.33616 7.00104 0.255726 6.99235 0.187307 6.94815C0.0711616 6.87656 -0.00276428 6.72979 0.000740106 6.58019C0.000906982 5.094 0.000740106 3.60762 0.000740106 2.12144C0.00124073 2.04097 -0.00276424 1.96012 0.00391078 1.87966C0.0204315 1.69832 0.157603 1.54079 0.318638 1.52322ZM0.494525 2.1067C0.492689 2.15109 0.492189 2.19529 0.492689 2.23987C0.9012 2.24421 1.31005 2.24421 1.71872 2.23987C1.71872 2.19548 1.71806 2.15109 1.71672 2.10689C1.30938 2.105 0.901868 2.10538 0.494525 2.1067ZM1.79716 2.10595C1.79565 2.15109 1.79515 2.19605 1.79549 2.24119C1.83604 2.24233 1.87675 2.24233 1.91747 2.24119C1.91731 2.19605 1.91664 2.1509 1.91514 2.10576C1.87575 2.105 1.83637 2.10519 1.79716 2.10595ZM0.66674 4.7761C0.649218 4.79272 0.649051 4.83352 0.665572 4.85109C0.726815 4.86035 0.788726 4.85468 0.850136 4.85373C0.851305 4.82672 0.850971 4.7999 0.848968 4.77327C0.788226 4.77308 0.727149 4.76703 0.66674 4.7761ZM1.35794 4.77704C1.35644 4.8016 1.35477 4.82635 1.3531 4.85109C1.42135 4.85657 1.48977 4.85695 1.55802 4.85185C1.55786 4.82616 1.55786 4.80047 1.55802 4.77516C1.49144 4.77024 1.42452 4.77062 1.35794 4.77704ZM0.911881 4.78271C0.911213 4.79801 0.909878 4.82861 0.909377 4.84391C0.929402 4.8492 0.950429 4.86091 0.970788 4.84939C0.991814 4.82559 0.975794 4.79669 0.968785 4.77081C0.9546 4.77365 0.926232 4.77969 0.911881 4.78271ZM1.23011 4.80462C1.21776 4.85808 1.27133 4.86299 1.3017 4.84353C1.3007 4.82786 1.29886 4.79669 1.29786 4.78101C1.27333 4.77837 1.23328 4.76042 1.23011 4.80462ZM1.02068 5.19317C0.912548 5.23548 0.83979 5.36903 0.855143 5.49766C0.868827 5.63876 0.986641 5.75512 1.11297 5.74567C1.26299 5.7487 1.38647 5.57284 1.3521 5.40794C1.32907 5.24134 1.15936 5.13254 1.02068 5.19317ZM1.07025 5.98179C0.98347 6.00578 0.954601 6.14499 1.02135 6.2111C1.08443 6.28571 1.21092 6.24302 1.22394 6.13989C1.2473 6.04204 1.15268 5.95119 1.07025 5.98179Z" fill="white"/>
</svg>
