<svg width="6" height="6" viewBox="0 0 6 6" fill="none" xmlns="http://www.w3.org/2000/svg">
<path d="M1.01834 0.0299601C1.10244 -0.0088973 1.19527 0.00195044 1.28395 0.000655192C2.69043 0.000817098 4.09705 0.000817098 5.50352 0.000655192C5.59521 0.00178853 5.6919 -0.0101926 5.77772 0.0344935C5.90803 0.0958559 6.00043 0.248695 5.99986 0.408982C6 1.70472 6.00014 3.00061 5.99971 4.29634C5.99957 4.50763 5.83379 4.69447 5.64756 4.69739C5.19428 4.69917 4.741 4.69755 4.28771 4.69803C4.05571 4.70079 3.82356 4.69237 3.5917 4.70224C3.5917 4.85055 3.59113 4.99885 3.59256 5.14716C3.80525 5.14862 4.01809 5.14635 4.23079 5.14765C4.30631 5.14603 4.38169 5.18618 4.4246 5.25742C4.46322 5.31587 4.47223 5.39148 4.46479 5.46239C3.7509 5.4645 3.03701 5.4645 2.32311 5.46239C2.31181 5.36525 2.34085 5.26033 2.41222 5.20091C2.46458 5.15234 2.53481 5.14506 2.59989 5.147C2.79856 5.14765 2.99724 5.14765 3.19578 5.14732C3.19835 4.99869 3.19663 4.8499 3.19678 4.70111C2.84434 4.69301 2.49161 4.7016 2.13917 4.69706C2.13259 4.46651 2.13459 4.23531 2.13817 4.00475C3.30134 3.99892 4.46451 4.00589 5.62768 4.00119C5.62811 2.81442 5.62768 1.62765 5.62782 0.440878C5.5676 0.431487 5.50681 0.435049 5.44631 0.435373C4.07788 0.435373 2.7096 0.435373 1.34117 0.435373C1.28095 0.435858 1.22016 0.429544 1.16051 0.441849C1.15722 0.650222 1.16895 0.859728 1.15522 1.06762C1.03321 1.06713 0.911203 1.0681 0.789193 1.06681C0.788192 0.847585 0.788764 0.628365 0.788907 0.409144C0.78719 0.244486 0.885885 0.0918082 1.01834 0.0299601ZM3.3494 4.23919C3.26329 4.26817 3.22639 4.39916 3.28145 4.47978C3.33967 4.58421 3.50001 4.55669 3.52662 4.43575C3.56538 4.31917 3.45224 4.19272 3.3494 4.23919Z" fill="white"/>
<path d="M1.01834 0.0299601C1.10244 -0.0088973 1.19527 0.00195044 1.28395 0.000655192C2.69043 0.000817098 4.09705 0.000817098 5.50352 0.000655192C5.59521 0.00178853 5.6919 -0.0101926 5.77772 0.0344935C5.90803 0.0958559 6.00043 0.248695 5.99986 0.408982C6 1.70472 6.00014 3.00061 5.99971 4.29634C5.99957 4.50763 5.83379 4.69447 5.64756 4.69739C5.19428 4.69917 4.741 4.69755 4.28771 4.69803C4.05571 4.70079 3.82356 4.69237 3.5917 4.70224C3.5917 4.85055 3.59113 4.99885 3.59256 5.14716C3.80525 5.14862 4.01809 5.14635 4.23079 5.14765C4.30631 5.14603 4.38169 5.18618 4.4246 5.25742C4.46322 5.31587 4.47223 5.39148 4.46479 5.46239C3.7509 5.4645 3.03701 5.4645 2.32311 5.46239C2.31181 5.36525 2.34085 5.26033 2.41222 5.20091C2.46458 5.15234 2.53481 5.14506 2.59989 5.147C2.79856 5.14765 2.99724 5.14765 3.19578 5.14732C3.19835 4.99869 3.19663 4.8499 3.19678 4.70111C2.84434 4.69301 2.49161 4.7016 2.13917 4.69706C2.13259 4.46651 2.13459 4.23531 2.13817 4.00475C3.30134 3.99892 4.46451 4.00589 5.62768 4.00119C5.62811 2.81442 5.62768 1.62765 5.62782 0.440878C5.5676 0.431487 5.50681 0.435049 5.44631 0.435373C4.07788 0.435373 2.7096 0.435373 1.34117 0.435373C1.28095 0.435858 1.22016 0.429544 1.16051 0.441849C1.15722 0.650222 1.16895 0.859728 1.15522 1.06762C1.03321 1.06713 0.911203 1.0681 0.789193 1.06681C0.788192 0.847585 0.788764 0.628365 0.788907 0.409144C0.78719 0.244486 0.885885 0.0918082 1.01834 0.0299601ZM3.3494 4.23919C3.26329 4.26817 3.22639 4.39916 3.28145 4.47978C3.33967 4.58421 3.50001 4.55669 3.52662 4.43575C3.56538 4.31917 3.45224 4.19272 3.3494 4.23919Z" fill="url(#paint0_linear_438_35)"/>
<path d="M0.273118 1.30562C0.705517 1.29785 1.13834 1.30481 1.57089 1.30222C1.69204 1.29671 1.81219 1.37669 1.86411 1.50104C1.9043 1.58879 1.89415 1.69063 1.89501 1.78599C1.89443 3.07541 1.89543 4.36499 1.89458 5.65441C1.89315 5.83202 1.75783 5.99539 1.59921 5.99846C1.18426 6.00121 0.769311 5.99798 0.354363 5.99992C0.288137 6.00089 0.219194 5.99344 0.160549 5.95556C0.0609956 5.8942 -0.00236938 5.76839 0.000634377 5.64016C0.000777413 4.36629 0.000634377 3.09225 0.000634377 1.81837C0.00106349 1.7494 -0.00236935 1.68011 0.0033521 1.61113C0.0175127 1.4557 0.135088 1.32067 0.273118 1.30562ZM0.423878 1.80575C0.422305 1.84379 0.421876 1.88168 0.422305 1.91989C0.772458 1.92361 1.1229 1.92361 1.47319 1.91989C1.47319 1.88184 1.47262 1.84379 1.47148 1.80591C1.12232 1.80429 0.77303 1.80461 0.423878 1.80575ZM1.54042 1.8051C1.53913 1.84379 1.5387 1.88233 1.53899 1.92102C1.57375 1.92199 1.60865 1.92199 1.64355 1.92102C1.6434 1.88233 1.64283 1.84363 1.64155 1.80494C1.60779 1.80429 1.57403 1.80445 1.54042 1.8051ZM0.571492 4.0938C0.556473 4.10805 0.55633 4.14302 0.57049 4.15808C0.622985 4.16601 0.676051 4.16115 0.728688 4.16034C0.72969 4.13719 0.729404 4.1142 0.727687 4.09137C0.675622 4.09121 0.623271 4.08603 0.571492 4.0938ZM1.16395 4.09461C1.16266 4.11566 1.16123 4.13687 1.1598 4.15808C1.2183 4.16277 1.27695 4.1631 1.33545 4.15872C1.3353 4.13671 1.3353 4.11469 1.33545 4.09299C1.27838 4.08878 1.22102 4.08911 1.16395 4.09461ZM0.781612 4.09947C0.78104 4.11258 0.779895 4.13881 0.779466 4.15192C0.796631 4.15646 0.814653 4.1665 0.832104 4.15662C0.850126 4.13622 0.836395 4.11145 0.830387 4.08927C0.818229 4.0917 0.793913 4.09688 0.781612 4.09947ZM1.05438 4.11825C1.0438 4.16407 1.08971 4.16828 1.11574 4.1516C1.11489 4.13816 1.11331 4.11145 1.11245 4.09801C1.09143 4.09574 1.0571 4.08036 1.05438 4.11825ZM0.874871 4.45129C0.782184 4.48756 0.71982 4.60202 0.732979 4.71228C0.744708 4.83323 0.845692 4.93296 0.95397 4.92486C1.08256 4.92745 1.18841 4.77672 1.15894 4.63538C1.1392 4.49257 0.993734 4.39932 0.874871 4.45129ZM0.917353 5.12725C0.842974 5.14781 0.818229 5.26713 0.875444 5.3238C0.929511 5.38775 1.03793 5.35116 1.04909 5.26276C1.06911 5.17889 0.988013 5.10102 0.917353 5.12725Z" fill="white"/>
<path d="M0.273118 1.30562C0.705517 1.29785 1.13834 1.30481 1.57089 1.30222C1.69204 1.29671 1.81219 1.37669 1.86411 1.50104C1.9043 1.58879 1.89415 1.69063 1.89501 1.78599C1.89443 3.07541 1.89543 4.36499 1.89458 5.65441C1.89315 5.83202 1.75783 5.99539 1.59921 5.99846C1.18426 6.00121 0.769311 5.99798 0.354363 5.99992C0.288137 6.00089 0.219194 5.99344 0.160549 5.95556C0.0609956 5.8942 -0.00236938 5.76839 0.000634377 5.64016C0.000777413 4.36629 0.000634377 3.09225 0.000634377 1.81837C0.00106349 1.7494 -0.00236935 1.68011 0.0033521 1.61113C0.0175127 1.4557 0.135088 1.32067 0.273118 1.30562ZM0.423878 1.80575C0.422305 1.84379 0.421876 1.88168 0.422305 1.91989C0.772458 1.92361 1.1229 1.92361 1.47319 1.91989C1.47319 1.88184 1.47262 1.84379 1.47148 1.80591C1.12232 1.80429 0.77303 1.80461 0.423878 1.80575ZM1.54042 1.8051C1.53913 1.84379 1.5387 1.88233 1.53899 1.92102C1.57375 1.92199 1.60865 1.92199 1.64355 1.92102C1.6434 1.88233 1.64283 1.84363 1.64155 1.80494C1.60779 1.80429 1.57403 1.80445 1.54042 1.8051ZM0.571492 4.0938C0.556473 4.10805 0.55633 4.14302 0.57049 4.15808C0.622985 4.16601 0.676051 4.16115 0.728688 4.16034C0.72969 4.13719 0.729404 4.1142 0.727687 4.09137C0.675622 4.09121 0.623271 4.08603 0.571492 4.0938ZM1.16395 4.09461C1.16266 4.11566 1.16123 4.13687 1.1598 4.15808C1.2183 4.16277 1.27695 4.1631 1.33545 4.15872C1.3353 4.13671 1.3353 4.11469 1.33545 4.09299C1.27838 4.08878 1.22102 4.08911 1.16395 4.09461ZM0.781612 4.09947C0.78104 4.11258 0.779895 4.13881 0.779466 4.15192C0.796631 4.15646 0.814653 4.1665 0.832104 4.15662C0.850126 4.13622 0.836395 4.11145 0.830387 4.08927C0.818229 4.0917 0.793913 4.09688 0.781612 4.09947ZM1.05438 4.11825C1.0438 4.16407 1.08971 4.16828 1.11574 4.1516C1.11489 4.13816 1.11331 4.11145 1.11245 4.09801C1.09143 4.09574 1.0571 4.08036 1.05438 4.11825ZM0.874871 4.45129C0.782184 4.48756 0.71982 4.60202 0.732979 4.71228C0.744708 4.83323 0.845692 4.93296 0.95397 4.92486C1.08256 4.92745 1.18841 4.77672 1.15894 4.63538C1.1392 4.49257 0.993734 4.39932 0.874871 4.45129ZM0.917353 5.12725C0.842974 5.14781 0.818229 5.26713 0.875444 5.3238C0.929511 5.38775 1.03793 5.35116 1.04909 5.26276C1.06911 5.17889 0.988013 5.10102 0.917353 5.12725Z" fill="url(#paint1_linear_438_35)"/>
<defs>
<linearGradient id="paint0_linear_438_35" x1="2.93267" y1="-0.123255" x2="2.93267" y2="5.91625" gradientUnits="userSpaceOnUse">
<stop stop-color="#EDE527"/>
<stop offset="1" stop-color="#FE401C"/>
</linearGradient>
<linearGradient id="paint1_linear_438_35" x1="2.93267" y1="-0.123255" x2="2.93267" y2="5.91625" gradientUnits="userSpaceOnUse">
<stop stop-color="#EDE527"/>
<stop offset="1" stop-color="#FE401C"/>
</linearGradient>
</defs>
</svg>
