<svg width="57" height="20" viewBox="0 0 57 20" fill="none" xmlns="http://www.w3.org/2000/svg">
<path d="M0.699386 19.7622L0.23617 19.3122C0.103364 19.0086 0.0122609 18.6845 0.00648671 18.3523C0.00776935 12.9922 0.00905423 7.6321 0.00648771 2.27198C-0.0114764 1.73721 -0.00826955 1.18312 0.235529 0.689495L0.698745 0.239495C1.04584 0.076822 1.42821 -0.00918935 1.81316 0.000782937C2.39122 0.012625 2.96991 -0.00732055 3.54733 0.00639136C3.59545 1.42558 3.55247 2.84725 3.56722 4.26644C3.56594 9.5019 3.56722 14.7374 3.56658 19.9722C3.00584 20.0246 2.44126 19.9772 1.8786 19.9978C1.47248 20.0146 1.06508 19.9367 0.699386 19.7622Z" fill="url(#paint0_linear_537_116)"/>
<path d="M4.31851 19.9922C4.27873 18.429 4.31466 16.8621 4.30247 15.2983C4.30118 10.2897 4.30439 5.28175 4.2999 0.273776C4.30375 0.185271 4.31016 0.0967635 4.31658 0.0070127C5.02295 0.0163617 5.73189 -0.0179166 6.43698 0.0250889C6.48446 1.37509 6.44211 2.72883 6.45687 4.07946C6.45687 9.0868 6.45751 14.0935 6.45687 19.1003C6.46072 19.3919 6.47227 19.6849 6.43634 19.9753C5.73125 20.0171 5.02424 19.9847 4.31851 19.9922Z" fill="url(#paint1_linear_537_116)"/>
<path d="M8.10187 19.9928C7.80225 19.9971 7.50135 20.0052 7.20238 19.9741C7.19532 19.8912 7.18827 19.8083 7.18313 19.7248C7.18057 13.6379 7.18634 7.5492 7.18313 1.46173C7.19596 0.983054 7.15426 0.502513 7.20174 0.0250889C8.26996 -0.0241494 9.34203 0.0201027 10.4115 0.00452089C13.2133 0.00639062 16.015 0.00576501 18.8161 0.00327172C19.144 -0.00358425 19.4981 0.0749528 19.7086 0.339219C19.9505 0.591643 19.9524 0.952513 19.9517 1.27474C19.9415 2.25078 19.9594 3.22682 19.9453 4.20162C19.9607 4.5307 19.5937 4.60425 19.3301 4.61609C18.3966 4.69649 17.6478 5.54601 17.653 6.44726C17.6466 8.6287 17.6543 10.8101 17.6491 12.9928C17.6498 13.3699 17.6254 13.7576 17.7518 14.121C17.9654 14.7673 18.5659 15.2908 19.2653 15.3781C19.4783 15.4279 19.7618 15.393 19.8914 15.6037C19.9646 15.7396 19.9472 15.8985 19.9543 16.0462C19.9389 17.0435 19.9614 18.0413 19.944 19.0392C19.9453 19.4593 19.6367 19.875 19.2056 19.961C18.8867 20.0177 18.5614 19.9897 18.2394 19.9934C14.8602 19.9915 11.481 19.9934 8.10187 19.9928ZM11.0589 12.0704C12.0501 12.6469 13.4404 12.4095 14.1712 11.5412C14.9256 10.6899 14.934 9.31804 14.1795 8.46416C13.6027 7.79664 12.6346 7.47814 11.7582 7.66637C10.944 7.8278 10.2492 8.43923 9.96628 9.19276C9.56144 10.2455 10.058 11.5169 11.0589 12.0704Z" fill="url(#paint2_linear_537_116)"/>
<path d="M11.5099 11.5051C10.9049 11.2041 10.4911 10.5415 10.5623 9.87524C10.6072 9.18591 11.1384 8.56637 11.8211 8.38189C12.4517 8.21049 13.1748 8.4118 13.6021 8.89671C14.159 9.50502 14.1487 10.5035 13.5931 11.1093C13.0984 11.6821 12.1913 11.8379 11.5099 11.5051Z" fill="url(#paint3_linear_537_116)"/>
<path d="M21.0334 12.7915C20.6754 12.7965 20.3162 12.8152 19.9614 12.7572C19.9408 11.2988 19.9601 9.83909 19.9543 8.38002C19.9601 7.99172 19.9164 7.60031 19.9922 7.21513C25.3859 7.19456 35.7948 7.21263 41.1885 7.20578C41.8115 7.19393 42.4556 7.27496 43.0548 7.06679C43.9652 6.77323 44.6684 5.94303 44.7646 5.01187C44.8083 4.58555 44.8121 4.1181 45.1149 3.77281C45.4319 3.34026 45.9817 3.14517 46.5142 3.15889C49.3583 3.16076 52.2024 3.16013 55.0471 3.15889C55.4353 3.162 55.8125 3.2717 56.166 3.42191L56.6883 3.92925C56.8679 4.26332 56.9918 4.63167 56.9911 5.01249C56.993 8.21173 56.986 11.4122 56.995 14.6121C57.0213 15.1151 56.9481 15.6286 56.6883 16.0718L56.1667 16.5785C55.7939 16.7399 55.3917 16.8428 54.9817 16.8397C52.4366 16.834 49.8927 16.8359 47.3476 16.8365C46.9402 16.8334 46.5296 16.8633 46.1254 16.8072C45.4954 16.7225 44.9372 16.2214 44.8333 15.6068C44.764 15.1892 44.7781 14.7529 44.6023 14.3578C44.2219 13.4061 43.1973 12.766 42.1515 12.7909C36.7835 12.7915 26.4015 12.7909 21.0334 12.7915ZM49.0285 11.8691C50.014 12.5385 51.5268 12.329 52.2261 11.3617C52.8812 10.5185 52.835 9.23203 52.0593 8.47475C51.3562 7.67074 50.0544 7.52053 49.1453 8.06963C48.4178 8.48348 47.9885 9.31554 48.0399 10.127C48.0687 10.8158 48.4498 11.4739 49.0285 11.8691Z" fill="url(#paint4_linear_537_116)"/>
<defs>
<linearGradient id="paint0_linear_537_116" x1="-1.03556" y1="10.2244" x2="49.7067" y2="10.2244" gradientUnits="userSpaceOnUse">
<stop stop-color="#EDE527"/>
<stop offset="1" stop-color="#FE401C"/>
</linearGradient>
<linearGradient id="paint1_linear_537_116" x1="-1.03556" y1="10.2244" x2="49.7067" y2="10.2244" gradientUnits="userSpaceOnUse">
<stop stop-color="#EDE527"/>
<stop offset="1" stop-color="#FE401C"/>
</linearGradient>
<linearGradient id="paint2_linear_537_116" x1="-1.03556" y1="10.2244" x2="49.7067" y2="10.2244" gradientUnits="userSpaceOnUse">
<stop stop-color="#EDE527"/>
<stop offset="1" stop-color="#FE401C"/>
</linearGradient>
<linearGradient id="paint3_linear_537_116" x1="-1.03556" y1="10.2244" x2="49.7067" y2="10.2244" gradientUnits="userSpaceOnUse">
<stop stop-color="#EDE527"/>
<stop offset="1" stop-color="#FE401C"/>
</linearGradient>
<linearGradient id="paint4_linear_537_116" x1="-1.03556" y1="10.2244" x2="49.7067" y2="10.2244" gradientUnits="userSpaceOnUse">
<stop stop-color="#EDE527"/>
<stop offset="1" stop-color="#FE401C"/>
</linearGradient>
</defs>
</svg>
