<svg width="12" height="12" viewBox="0 0 12 12" fill="none" xmlns="http://www.w3.org/2000/svg">
<path d="M2.45229 0.00687537C2.50948 0.00218764 2.56666 0.000625031 2.62416 0C4.87496 0.000312515 7.12576 0.000312515 9.37656 0C9.97653 0.0081254 10.5727 0.226886 11.033 0.613155C11.6311 1.10662 11.9986 1.86915 11.9995 2.64607C12.0002 3.98988 12.0002 5.3337 11.9995 6.67751C11.9983 7.30661 11.7655 7.93101 11.3527 8.40572C10.8646 8.977 10.1278 9.32733 9.37531 9.33296C7.47887 9.33546 5.58242 9.33264 3.68628 9.33421C3.63535 9.33202 3.58629 9.34764 3.55285 9.38733C2.74696 10.1961 1.93857 11.0024 1.13175 11.81C0.955507 11.9884 0.67365 12.0484 0.439601 11.959C0.181492 11.8706 -0.00287249 11.609 0.00118976 11.3362C-6.01606e-05 8.4601 0.000877388 5.58434 0.000564907 2.70857C-0.0131843 2.06041 0.224614 1.41069 0.651776 0.923482C1.10144 0.396582 1.76296 0.0631281 2.45229 0.00687537ZM2.27668 1.39163C1.7364 1.54976 1.33049 2.08198 1.33423 2.647C1.33298 4.93837 1.33486 7.22973 1.33298 9.52109C1.33455 9.57859 1.33798 9.6361 1.34173 9.69422C1.42579 9.63766 1.49797 9.56703 1.5661 9.49328C1.95014 9.10638 2.3373 8.72293 2.72165 8.33635C2.82602 8.23197 2.92695 8.1154 3.06601 8.05696C3.231 7.97945 3.41755 8.00227 3.5941 8.00039C5.51023 8.0007 7.42668 8.0007 9.34282 8.00039C9.77935 8.00102 10.2062 7.76882 10.444 7.40349C10.5946 7.1816 10.6693 6.91315 10.6671 6.64595C10.6655 5.31307 10.6677 3.97988 10.6659 2.647C10.6659 2.26355 10.4809 1.89103 10.1893 1.64508C9.94809 1.4382 9.62967 1.33006 9.31282 1.33319C7.20888 1.3335 5.10463 1.3335 3.00038 1.3335C2.75852 1.33444 2.51041 1.31663 2.27668 1.39163Z" fill="white"/>
<path d="M5.88771 2.0076C6.16832 1.95416 6.46643 2.11198 6.59361 2.3648C6.66079 2.48887 6.66891 2.63294 6.66829 2.77107C6.66392 3.40642 6.66985 4.04176 6.66548 4.6771C6.66642 4.93587 6.49861 5.18307 6.26019 5.2812C6.01239 5.38995 5.70241 5.3262 5.51898 5.12775C5.39399 5.00056 5.33056 4.82274 5.33368 4.64554C5.33337 3.98957 5.33337 3.3336 5.33368 2.67763C5.32368 2.3573 5.57367 2.06073 5.88771 2.0076Z" fill="white"/>
<path d="M5.88771 6.00779C6.20894 5.9456 6.54892 6.16343 6.63829 6.47594C6.71891 6.73002 6.62798 7.02409 6.4208 7.19066C6.23988 7.33942 5.97864 7.38099 5.76084 7.29504C5.49086 7.19316 5.30493 6.90253 5.33587 6.61407C5.35399 6.31625 5.59648 6.05842 5.88771 6.00779Z" fill="white"/>
</svg>
