<svg width="54" height="54" viewBox="0 0 54 54" fill="none" xmlns="http://www.w3.org/2000/svg">
<path d="M54 27C54 41.9117 41.9117 54 27 54C12.0883 54 0 41.9117 0 27C0 12.0883 12.0883 0 27 0C41.9117 0 54 12.0883 54 27Z" fill="#171717"/>
<path d="M50.7424 27.0313C50.7424 40.1612 40.0985 50.8051 26.9686 50.8051C13.8387 50.8051 3.19482 40.1612 3.19482 27.0313C3.19482 13.9014 13.8387 3.25751 26.9686 3.25751C40.0985 3.25751 50.7424 13.9014 50.7424 27.0313Z" fill="#2E2E2E"/>
<path d="M26.5273 8H27.6223C28.1076 8.04535 28.5973 8.03391 29.0805 8.10704C32.0823 8.4102 35.0019 9.45858 37.5234 11.1137C39.2001 12.2164 40.7073 13.5802 41.9588 15.1499C41.6006 15.4812 41.2011 15.7644 40.8262 16.0757C39.4574 17.1719 38.0883 18.2677 36.7191 19.363C36.3221 19.6899 35.9071 19.9951 35.5219 20.3354C34.6915 19.3001 33.6732 18.4139 32.5255 17.7455C31.1743 16.9496 29.6454 16.4642 28.0847 16.3151C26.8642 16.2171 25.6246 16.291 24.436 16.5954C22.1527 17.1621 20.0806 18.5108 18.6158 20.3493C18.2511 20.089 17.9108 19.7969 17.5587 19.5199C15.7595 18.076 13.9578 16.6358 12.1593 15.1903C13.9594 12.9216 16.2876 11.0757 18.9038 9.83487C21.0633 8.80365 23.4222 8.19979 25.8088 8.03963C26.0481 8.02656 26.2887 8.03228 26.5273 8Z" fill="#207137"/>
<path d="M41.9588 15.1499C44.3981 18.1631 45.8612 21.946 46.1104 25.8134C46.1234 26.0529 46.1173 26.2939 46.15 26.5321V27.08H37.8701C37.904 24.649 37.0357 22.2311 35.5219 20.3354C35.9071 19.9951 36.3221 19.6899 36.7191 19.363C38.0883 18.2677 39.4574 17.1719 40.8262 16.0757C41.2011 15.7644 41.6006 15.4812 41.9588 15.1499Z" fill="#660C0F"/>
<path d="M8.03554 25.8964C8.26386 22.0171 9.72288 18.2186 12.1593 15.1903C13.9578 16.6358 15.7595 18.076 17.5587 19.5199C17.9108 19.7969 18.2511 20.089 18.6158 20.3493C17.1115 22.2438 16.2443 24.6552 16.2807 27.08H8V26.4913C8.02614 26.2939 8.03023 26.0949 8.03554 25.8964Z" fill="#151716"/>
</svg>
