<svg width="8" height="11" viewBox="0 0 8 11" fill="none" xmlns="http://www.w3.org/2000/svg">
<mask id="path-1-outside-1_435_6" maskUnits="userSpaceOnUse" x="0" y="0" width="8" height="11" fill="black">
<rect fill="white" width="8" height="11"/>
<path d="M3.85983 1H4.03112C4.24856 1.01166 4.46929 1.01102 4.68172 1.06585C4.96446 1.13454 5.23936 1.23997 5.49041 1.38874C5.76923 1.55277 6.01691 1.76693 6.23417 2.0069C6.42658 2.21904 6.59149 2.45772 6.71205 2.71863C6.85018 3.01857 6.94288 3.34046 6.98049 3.66914C7.05743 4.33606 6.905 5.02667 6.55561 5.59808C6.48276 5.71784 6.40136 5.83227 6.31285 5.94072C6.20121 6.07811 6.08056 6.20898 5.94352 6.32093C5.92266 6.33966 5.89234 6.35766 5.8968 6.39054C5.89717 7.28751 5.89753 8.18457 5.89598 9.08163C5.89444 9.26531 5.89343 9.44898 5.8917 9.63274C5.89025 9.75516 5.89016 9.87795 5.87814 10H5.87085C5.30657 9.66819 4.74374 9.33345 4.1789 9.00256C4.11899 8.97042 4.06344 8.92946 4.00016 8.9043C3.97839 8.91274 3.95772 8.92349 3.93778 8.93561C3.3337 9.28762 2.7339 9.64689 2.13055 10H2.12317C2.10688 9.79227 2.11052 9.5837 2.10697 9.3756C2.10223 8.41435 2.1046 7.45309 2.10396 6.49184C2.1025 6.44766 2.10906 6.40266 2.10005 6.35922C2.08539 6.3404 2.06581 6.32662 2.04796 6.31138C1.93268 6.21724 1.83179 6.10695 1.73427 5.99463C1.46118 5.67486 1.2533 5.29833 1.13046 4.8947C1.02756 4.55968 0.985586 4.2062 1.00434 3.85603C1.02547 3.52863 1.08848 3.20234 1.20959 2.89716C1.39526 2.42273 1.7166 2.01103 2.10023 1.68244C2.31549 1.49739 2.55707 1.34273 2.81749 1.23079C3.00762 1.14896 3.20649 1.08862 3.40882 1.04619C3.48085 1.0326 3.55251 1.01506 3.62582 1.01019C3.70367 1.00294 3.78189 1.00569 3.85983 1ZM3.74037 1.40114C3.53986 1.42833 3.34071 1.47057 3.14931 1.53715C2.83589 1.64378 2.54705 1.819 2.30128 2.04152C2.09549 2.22767 1.91065 2.43927 1.7665 2.67777C1.61498 2.92683 1.51172 3.2039 1.45071 3.48905C1.42986 3.59191 1.42121 3.69669 1.41301 3.80111C1.40227 3.96614 1.39972 4.132 1.41347 4.29685C1.46337 4.74189 1.62891 5.17269 1.88733 5.53673C2.07145 5.79737 2.3032 6.02356 2.56708 6.20108C2.86484 6.40147 3.20476 6.53656 3.55698 6.59947C3.75585 6.63547 3.95909 6.63428 4.16014 6.62482C4.31859 6.61802 4.47621 6.59589 4.63055 6.55943C4.8194 6.51388 5.00125 6.44169 5.17462 6.3539C5.70695 6.08289 6.13811 5.61911 6.37777 5.06892C6.54969 4.67788 6.62609 4.24386 6.59158 3.81718C6.56535 3.48161 6.47721 3.15054 6.3276 2.84941C6.18701 2.56628 5.9926 2.3117 5.7634 2.09598C5.46728 1.81422 5.1046 1.60328 4.71214 1.49261C4.50516 1.42952 4.28854 1.40922 4.07346 1.39839C3.96246 1.39481 3.851 1.38911 3.74037 1.40114ZM2.49697 6.63758C2.4926 6.83374 2.49642 7.03018 2.49515 7.22653C2.49515 7.76221 2.49515 8.29799 2.49515 8.83367C2.49633 8.99402 2.49278 9.15446 2.49688 9.31471C2.55661 9.28725 2.60997 9.24767 2.66743 9.2159C2.85401 9.10367 3.04168 8.99338 3.22889 8.88226C3.48631 8.73091 3.74155 8.57561 4.00025 8.42675C4.04013 8.44355 4.07528 8.46917 4.11298 8.4903C4.48977 8.71291 4.8663 8.93616 5.24237 9.16015C5.33024 9.2102 5.41483 9.2665 5.50416 9.31389C5.50853 9.09881 5.50471 8.88354 5.50607 8.66837C5.50598 8.13571 5.50607 7.60306 5.50598 7.07041C5.5048 6.92852 5.50844 6.78645 5.50425 6.64465C5.44689 6.66541 5.3948 6.69838 5.33916 6.72308C4.84545 6.9715 4.28335 7.07877 3.73381 7.03C3.3225 6.99574 2.91911 6.8714 2.5588 6.66835C2.53886 6.65668 2.51846 6.64594 2.49697 6.63758Z"/>
<path d="M3.99496 2.1059C4.00981 2.10121 4.0129 2.11958 4.01982 2.12858C4.21095 2.49391 4.38488 2.86796 4.5679 3.23742C4.57446 3.26148 4.60041 3.26378 4.6209 3.26772C4.83579 3.3018 5.0506 3.33651 5.26568 3.3692C5.46901 3.39804 5.67144 3.43441 5.8755 3.45755C5.86457 3.47472 5.851 3.49006 5.83661 3.5043C5.57938 3.7653 5.31922 4.02336 5.05807 4.28041C5.02037 4.31999 4.97712 4.35461 4.94324 4.39787C5.00935 4.80507 5.08957 5.21007 5.1473 5.61865C5.14831 5.63179 5.14876 5.64492 5.14858 5.65814C5.10387 5.65493 5.06399 5.63261 5.02383 5.61489C4.8795 5.54573 4.73918 5.46841 4.5975 5.3942C4.42995 5.30558 4.26268 5.21668 4.09513 5.12806C4.06362 5.11181 4.03366 5.09215 4.00016 5.08012C3.67052 5.25094 3.34572 5.43167 3.01372 5.59799C2.96136 5.62113 2.91028 5.65272 2.85228 5.65823C2.85401 5.60056 2.86539 5.5439 2.87358 5.48696C2.90782 5.25177 2.95153 5.01822 2.98941 4.78367C3.00871 4.66658 3.02793 4.54949 3.04905 4.43277C3.05087 4.41229 3.06198 4.38666 3.04295 4.37105C2.75166 4.08333 2.45517 3.80084 2.16889 3.50797C2.15568 3.49493 2.14366 3.48069 2.13346 3.46517C2.54978 3.3895 2.97047 3.34018 3.38715 3.26681C3.40555 3.26341 3.42585 3.25762 3.43195 3.23742C3.60023 2.89827 3.76222 2.55599 3.93441 2.21886C3.9549 2.18139 3.9722 2.14208 3.99496 2.1059ZM3.97375 3.04842C3.89617 3.19554 3.82469 3.34579 3.7512 3.49493C3.72844 3.53809 3.70731 3.58328 3.67471 3.61992C3.65368 3.64425 3.62008 3.64747 3.59058 3.65261C3.42312 3.67823 3.25576 3.70395 3.08784 3.72654C3.05707 3.73095 3.0262 3.73572 2.9966 3.74546C3.00507 3.75878 3.01445 3.77163 3.02538 3.78302C3.16643 3.92849 3.30875 4.07277 3.4529 4.21511C3.46446 4.22613 3.47502 4.23835 3.48486 4.2512C3.45863 4.42624 3.42503 4.60018 3.3989 4.77532C3.39161 4.8273 3.3785 4.87882 3.37859 4.93162C3.4162 4.92262 3.45117 4.90563 3.48613 4.88938C3.66042 4.80636 3.82751 4.70855 4.00061 4.62323C4.00616 4.62544 4.01727 4.62994 4.02283 4.63214C4.19311 4.72067 4.36047 4.81508 4.53385 4.89746C4.56326 4.91133 4.59267 4.92777 4.62582 4.93024C4.5964 4.70304 4.55124 4.47813 4.51691 4.25175C4.53257 4.23008 4.55251 4.21227 4.57145 4.19362C4.69229 4.07368 4.8123 3.95292 4.93068 3.83041C4.95672 3.80267 4.98549 3.77723 5.00671 3.74528C4.98795 3.73931 4.96874 3.73481 4.94934 3.73187C4.76304 3.70478 4.57673 3.67787 4.39079 3.64839C4.3693 3.64444 4.34499 3.64251 4.32933 3.62534C4.29828 3.59329 4.27888 3.55223 4.25803 3.5132C4.18427 3.36672 4.11598 3.21749 4.0404 3.07193C4.02847 3.04989 4.019 3.02564 4.00016 3.00847C3.99023 3.02105 3.98112 3.03418 3.97375 3.04842Z"/>
</mask>
<path d="M3.85983 1H4.03112C4.24856 1.01166 4.46929 1.01102 4.68172 1.06585C4.96446 1.13454 5.23936 1.23997 5.49041 1.38874C5.76923 1.55277 6.01691 1.76693 6.23417 2.0069C6.42658 2.21904 6.59149 2.45772 6.71205 2.71863C6.85018 3.01857 6.94288 3.34046 6.98049 3.66914C7.05743 4.33606 6.905 5.02667 6.55561 5.59808C6.48276 5.71784 6.40136 5.83227 6.31285 5.94072C6.20121 6.07811 6.08056 6.20898 5.94352 6.32093C5.92266 6.33966 5.89234 6.35766 5.8968 6.39054C5.89717 7.28751 5.89753 8.18457 5.89598 9.08163C5.89444 9.26531 5.89343 9.44898 5.8917 9.63274C5.89025 9.75516 5.89016 9.87795 5.87814 10H5.87085C5.30657 9.66819 4.74374 9.33345 4.1789 9.00256C4.11899 8.97042 4.06344 8.92946 4.00016 8.9043C3.97839 8.91274 3.95772 8.92349 3.93778 8.93561C3.3337 9.28762 2.7339 9.64689 2.13055 10H2.12317C2.10688 9.79227 2.11052 9.5837 2.10697 9.3756C2.10223 8.41435 2.1046 7.45309 2.10396 6.49184C2.1025 6.44766 2.10906 6.40266 2.10005 6.35922C2.08539 6.3404 2.06581 6.32662 2.04796 6.31138C1.93268 6.21724 1.83179 6.10695 1.73427 5.99463C1.46118 5.67486 1.2533 5.29833 1.13046 4.8947C1.02756 4.55968 0.985586 4.2062 1.00434 3.85603C1.02547 3.52863 1.08848 3.20234 1.20959 2.89716C1.39526 2.42273 1.7166 2.01103 2.10023 1.68244C2.31549 1.49739 2.55707 1.34273 2.81749 1.23079C3.00762 1.14896 3.20649 1.08862 3.40882 1.04619C3.48085 1.0326 3.55251 1.01506 3.62582 1.01019C3.70367 1.00294 3.78189 1.00569 3.85983 1ZM3.74037 1.40114C3.53986 1.42833 3.34071 1.47057 3.14931 1.53715C2.83589 1.64378 2.54705 1.819 2.30128 2.04152C2.09549 2.22767 1.91065 2.43927 1.7665 2.67777C1.61498 2.92683 1.51172 3.2039 1.45071 3.48905C1.42986 3.59191 1.42121 3.69669 1.41301 3.80111C1.40227 3.96614 1.39972 4.132 1.41347 4.29685C1.46337 4.74189 1.62891 5.17269 1.88733 5.53673C2.07145 5.79737 2.3032 6.02356 2.56708 6.20108C2.86484 6.40147 3.20476 6.53656 3.55698 6.59947C3.75585 6.63547 3.95909 6.63428 4.16014 6.62482C4.31859 6.61802 4.47621 6.59589 4.63055 6.55943C4.8194 6.51388 5.00125 6.44169 5.17462 6.3539C5.70695 6.08289 6.13811 5.61911 6.37777 5.06892C6.54969 4.67788 6.62609 4.24386 6.59158 3.81718C6.56535 3.48161 6.47721 3.15054 6.3276 2.84941C6.18701 2.56628 5.9926 2.3117 5.7634 2.09598C5.46728 1.81422 5.1046 1.60328 4.71214 1.49261C4.50516 1.42952 4.28854 1.40922 4.07346 1.39839C3.96246 1.39481 3.851 1.38911 3.74037 1.40114ZM2.49697 6.63758C2.4926 6.83374 2.49642 7.03018 2.49515 7.22653C2.49515 7.76221 2.49515 8.29799 2.49515 8.83367C2.49633 8.99402 2.49278 9.15446 2.49688 9.31471C2.55661 9.28725 2.60997 9.24767 2.66743 9.2159C2.85401 9.10367 3.04168 8.99338 3.22889 8.88226C3.48631 8.73091 3.74155 8.57561 4.00025 8.42675C4.04013 8.44355 4.07528 8.46917 4.11298 8.4903C4.48977 8.71291 4.8663 8.93616 5.24237 9.16015C5.33024 9.2102 5.41483 9.2665 5.50416 9.31389C5.50853 9.09881 5.50471 8.88354 5.50607 8.66837C5.50598 8.13571 5.50607 7.60306 5.50598 7.07041C5.5048 6.92852 5.50844 6.78645 5.50425 6.64465C5.44689 6.66541 5.3948 6.69838 5.33916 6.72308C4.84545 6.9715 4.28335 7.07877 3.73381 7.03C3.3225 6.99574 2.91911 6.8714 2.5588 6.66835C2.53886 6.65668 2.51846 6.64594 2.49697 6.63758Z" fill="url(#paint0_linear_435_6)"/>
<path d="M3.99496 2.1059C4.00981 2.10121 4.0129 2.11958 4.01982 2.12858C4.21095 2.49391 4.38488 2.86796 4.5679 3.23742C4.57446 3.26148 4.60041 3.26378 4.6209 3.26772C4.83579 3.3018 5.0506 3.33651 5.26568 3.3692C5.46901 3.39804 5.67144 3.43441 5.8755 3.45755C5.86457 3.47472 5.851 3.49006 5.83661 3.5043C5.57938 3.7653 5.31922 4.02336 5.05807 4.28041C5.02037 4.31999 4.97712 4.35461 4.94324 4.39787C5.00935 4.80507 5.08957 5.21007 5.1473 5.61865C5.14831 5.63179 5.14876 5.64492 5.14858 5.65814C5.10387 5.65493 5.06399 5.63261 5.02383 5.61489C4.8795 5.54573 4.73918 5.46841 4.5975 5.3942C4.42995 5.30558 4.26268 5.21668 4.09513 5.12806C4.06362 5.11181 4.03366 5.09215 4.00016 5.08012C3.67052 5.25094 3.34572 5.43167 3.01372 5.59799C2.96136 5.62113 2.91028 5.65272 2.85228 5.65823C2.85401 5.60056 2.86539 5.5439 2.87358 5.48696C2.90782 5.25177 2.95153 5.01822 2.98941 4.78367C3.00871 4.66658 3.02793 4.54949 3.04905 4.43277C3.05087 4.41229 3.06198 4.38666 3.04295 4.37105C2.75166 4.08333 2.45517 3.80084 2.16889 3.50797C2.15568 3.49493 2.14366 3.48069 2.13346 3.46517C2.54978 3.3895 2.97047 3.34018 3.38715 3.26681C3.40555 3.26341 3.42585 3.25762 3.43195 3.23742C3.60023 2.89827 3.76222 2.55599 3.93441 2.21886C3.9549 2.18139 3.9722 2.14208 3.99496 2.1059ZM3.97375 3.04842C3.89617 3.19554 3.82469 3.34579 3.7512 3.49493C3.72844 3.53809 3.70731 3.58328 3.67471 3.61992C3.65368 3.64425 3.62008 3.64747 3.59058 3.65261C3.42312 3.67823 3.25576 3.70395 3.08784 3.72654C3.05707 3.73095 3.0262 3.73572 2.9966 3.74546C3.00507 3.75878 3.01445 3.77163 3.02538 3.78302C3.16643 3.92849 3.30875 4.07277 3.4529 4.21511C3.46446 4.22613 3.47502 4.23835 3.48486 4.2512C3.45863 4.42624 3.42503 4.60018 3.3989 4.77532C3.39161 4.8273 3.3785 4.87882 3.37859 4.93162C3.4162 4.92262 3.45117 4.90563 3.48613 4.88938C3.66042 4.80636 3.82751 4.70855 4.00061 4.62323C4.00616 4.62544 4.01727 4.62994 4.02283 4.63214C4.19311 4.72067 4.36047 4.81508 4.53385 4.89746C4.56326 4.91133 4.59267 4.92777 4.62582 4.93024C4.5964 4.70304 4.55124 4.47813 4.51691 4.25175C4.53257 4.23008 4.55251 4.21227 4.57145 4.19362C4.69229 4.07368 4.8123 3.95292 4.93068 3.83041C4.95672 3.80267 4.98549 3.77723 5.00671 3.74528C4.98795 3.73931 4.96874 3.73481 4.94934 3.73187C4.76304 3.70478 4.57673 3.67787 4.39079 3.64839C4.3693 3.64444 4.34499 3.64251 4.32933 3.62534C4.29828 3.59329 4.27888 3.55223 4.25803 3.5132C4.18427 3.36672 4.11598 3.21749 4.0404 3.07193C4.02847 3.04989 4.019 3.02564 4.00016 3.00847C3.99023 3.02105 3.98112 3.03418 3.97375 3.04842Z" fill="url(#paint1_linear_435_6)"/>
<path d="M3.85983 1H4.03112C4.24856 1.01166 4.46929 1.01102 4.68172 1.06585C4.96446 1.13454 5.23936 1.23997 5.49041 1.38874C5.76923 1.55277 6.01691 1.76693 6.23417 2.0069C6.42658 2.21904 6.59149 2.45772 6.71205 2.71863C6.85018 3.01857 6.94288 3.34046 6.98049 3.66914C7.05743 4.33606 6.905 5.02667 6.55561 5.59808C6.48276 5.71784 6.40136 5.83227 6.31285 5.94072C6.20121 6.07811 6.08056 6.20898 5.94352 6.32093C5.92266 6.33966 5.89234 6.35766 5.8968 6.39054C5.89717 7.28751 5.89753 8.18457 5.89598 9.08163C5.89444 9.26531 5.89343 9.44898 5.8917 9.63274C5.89025 9.75516 5.89016 9.87795 5.87814 10H5.87085C5.30657 9.66819 4.74374 9.33345 4.1789 9.00256C4.11899 8.97042 4.06344 8.92946 4.00016 8.9043C3.97839 8.91274 3.95772 8.92349 3.93778 8.93561C3.3337 9.28762 2.7339 9.64689 2.13055 10H2.12317C2.10688 9.79227 2.11052 9.5837 2.10697 9.3756C2.10223 8.41435 2.1046 7.45309 2.10396 6.49184C2.1025 6.44766 2.10906 6.40266 2.10005 6.35922C2.08539 6.3404 2.06581 6.32662 2.04796 6.31138C1.93268 6.21724 1.83179 6.10695 1.73427 5.99463C1.46118 5.67486 1.2533 5.29833 1.13046 4.8947C1.02756 4.55968 0.985586 4.2062 1.00434 3.85603C1.02547 3.52863 1.08848 3.20234 1.20959 2.89716C1.39526 2.42273 1.7166 2.01103 2.10023 1.68244C2.31549 1.49739 2.55707 1.34273 2.81749 1.23079C3.00762 1.14896 3.20649 1.08862 3.40882 1.04619C3.48085 1.0326 3.55251 1.01506 3.62582 1.01019C3.70367 1.00294 3.78189 1.00569 3.85983 1ZM3.74037 1.40114C3.53986 1.42833 3.34071 1.47057 3.14931 1.53715C2.83589 1.64378 2.54705 1.819 2.30128 2.04152C2.09549 2.22767 1.91065 2.43927 1.7665 2.67777C1.61498 2.92683 1.51172 3.2039 1.45071 3.48905C1.42986 3.59191 1.42121 3.69669 1.41301 3.80111C1.40227 3.96614 1.39972 4.132 1.41347 4.29685C1.46337 4.74189 1.62891 5.17269 1.88733 5.53673C2.07145 5.79737 2.3032 6.02356 2.56708 6.20108C2.86484 6.40147 3.20476 6.53656 3.55698 6.59947C3.75585 6.63547 3.95909 6.63428 4.16014 6.62482C4.31859 6.61802 4.47621 6.59589 4.63055 6.55943C4.8194 6.51388 5.00125 6.44169 5.17462 6.3539C5.70695 6.08289 6.13811 5.61911 6.37777 5.06892C6.54969 4.67788 6.62609 4.24386 6.59158 3.81718C6.56535 3.48161 6.47721 3.15054 6.3276 2.84941C6.18701 2.56628 5.9926 2.3117 5.7634 2.09598C5.46728 1.81422 5.1046 1.60328 4.71214 1.49261C4.50516 1.42952 4.28854 1.40922 4.07346 1.39839C3.96246 1.39481 3.851 1.38911 3.74037 1.40114ZM2.49697 6.63758C2.4926 6.83374 2.49642 7.03018 2.49515 7.22653C2.49515 7.76221 2.49515 8.29799 2.49515 8.83367C2.49633 8.99402 2.49278 9.15446 2.49688 9.31471C2.55661 9.28725 2.60997 9.24767 2.66743 9.2159C2.85401 9.10367 3.04168 8.99338 3.22889 8.88226C3.48631 8.73091 3.74155 8.57561 4.00025 8.42675C4.04013 8.44355 4.07528 8.46917 4.11298 8.4903C4.48977 8.71291 4.8663 8.93616 5.24237 9.16015C5.33024 9.2102 5.41483 9.2665 5.50416 9.31389C5.50853 9.09881 5.50471 8.88354 5.50607 8.66837C5.50598 8.13571 5.50607 7.60306 5.50598 7.07041C5.5048 6.92852 5.50844 6.78645 5.50425 6.64465C5.44689 6.66541 5.3948 6.69838 5.33916 6.72308C4.84545 6.9715 4.28335 7.07877 3.73381 7.03C3.3225 6.99574 2.91911 6.8714 2.5588 6.66835C2.53886 6.65668 2.51846 6.64594 2.49697 6.63758Z" stroke="url(#paint2_linear_435_6)" stroke-width="0.4" mask="url(#path-1-outside-1_435_6)"/>
<path d="M3.99496 2.1059C4.00981 2.10121 4.0129 2.11958 4.01982 2.12858C4.21095 2.49391 4.38488 2.86796 4.5679 3.23742C4.57446 3.26148 4.60041 3.26378 4.6209 3.26772C4.83579 3.3018 5.0506 3.33651 5.26568 3.3692C5.46901 3.39804 5.67144 3.43441 5.8755 3.45755C5.86457 3.47472 5.851 3.49006 5.83661 3.5043C5.57938 3.7653 5.31922 4.02336 5.05807 4.28041C5.02037 4.31999 4.97712 4.35461 4.94324 4.39787C5.00935 4.80507 5.08957 5.21007 5.1473 5.61865C5.14831 5.63179 5.14876 5.64492 5.14858 5.65814C5.10387 5.65493 5.06399 5.63261 5.02383 5.61489C4.8795 5.54573 4.73918 5.46841 4.5975 5.3942C4.42995 5.30558 4.26268 5.21668 4.09513 5.12806C4.06362 5.11181 4.03366 5.09215 4.00016 5.08012C3.67052 5.25094 3.34572 5.43167 3.01372 5.59799C2.96136 5.62113 2.91028 5.65272 2.85228 5.65823C2.85401 5.60056 2.86539 5.5439 2.87358 5.48696C2.90782 5.25177 2.95153 5.01822 2.98941 4.78367C3.00871 4.66658 3.02793 4.54949 3.04905 4.43277C3.05087 4.41229 3.06198 4.38666 3.04295 4.37105C2.75166 4.08333 2.45517 3.80084 2.16889 3.50797C2.15568 3.49493 2.14366 3.48069 2.13346 3.46517C2.54978 3.3895 2.97047 3.34018 3.38715 3.26681C3.40555 3.26341 3.42585 3.25762 3.43195 3.23742C3.60023 2.89827 3.76222 2.55599 3.93441 2.21886C3.9549 2.18139 3.9722 2.14208 3.99496 2.1059ZM3.97375 3.04842C3.89617 3.19554 3.82469 3.34579 3.7512 3.49493C3.72844 3.53809 3.70731 3.58328 3.67471 3.61992C3.65368 3.64425 3.62008 3.64747 3.59058 3.65261C3.42312 3.67823 3.25576 3.70395 3.08784 3.72654C3.05707 3.73095 3.0262 3.73572 2.9966 3.74546C3.00507 3.75878 3.01445 3.77163 3.02538 3.78302C3.16643 3.92849 3.30875 4.07277 3.4529 4.21511C3.46446 4.22613 3.47502 4.23835 3.48486 4.2512C3.45863 4.42624 3.42503 4.60018 3.3989 4.77532C3.39161 4.8273 3.3785 4.87882 3.37859 4.93162C3.4162 4.92262 3.45117 4.90563 3.48613 4.88938C3.66042 4.80636 3.82751 4.70855 4.00061 4.62323C4.00616 4.62544 4.01727 4.62994 4.02283 4.63214C4.19311 4.72067 4.36047 4.81508 4.53385 4.89746C4.56326 4.91133 4.59267 4.92777 4.62582 4.93024C4.5964 4.70304 4.55124 4.47813 4.51691 4.25175C4.53257 4.23008 4.55251 4.21227 4.57145 4.19362C4.69229 4.07368 4.8123 3.95292 4.93068 3.83041C4.95672 3.80267 4.98549 3.77723 5.00671 3.74528C4.98795 3.73931 4.96874 3.73481 4.94934 3.73187C4.76304 3.70478 4.57673 3.67787 4.39079 3.64839C4.3693 3.64444 4.34499 3.64251 4.32933 3.62534C4.29828 3.59329 4.27888 3.55223 4.25803 3.5132C4.18427 3.36672 4.11598 3.21749 4.0404 3.07193C4.02847 3.04989 4.019 3.02564 4.00016 3.00847C3.99023 3.02105 3.98112 3.03418 3.97375 3.04842Z" stroke="url(#paint3_linear_435_6)" stroke-width="0.4" mask="url(#path-1-outside-1_435_6)"/>
<defs>
<linearGradient id="paint0_linear_435_6" x1="3.93267" y1="0.815117" x2="3.93267" y2="9.87437" gradientUnits="userSpaceOnUse">
<stop stop-color="#EDE527"/>
<stop offset="1" stop-color="#FE401C"/>
</linearGradient>
<linearGradient id="paint1_linear_435_6" x1="3.93267" y1="0.815117" x2="3.93267" y2="9.87437" gradientUnits="userSpaceOnUse">
<stop stop-color="#EDE527"/>
<stop offset="1" stop-color="#FE401C"/>
</linearGradient>
<linearGradient id="paint2_linear_435_6" x1="4" y1="1" x2="4" y2="10" gradientUnits="userSpaceOnUse">
<stop stop-color="#EDE527"/>
<stop offset="1" stop-color="#FE401C"/>
</linearGradient>
<linearGradient id="paint3_linear_435_6" x1="4" y1="1" x2="4" y2="10" gradientUnits="userSpaceOnUse">
<stop stop-color="#EDE527"/>
<stop offset="1" stop-color="#FE401C"/>
</linearGradient>
</defs>
</svg>
