<svg width="25" height="25" viewBox="0 0 25 25" fill="none" xmlns="http://www.w3.org/2000/svg">
<path d="M13.8501 5.73603C15.2324 4.92132 16.8297 5.57198 18.0472 6.36723C18.6923 6.1559 19.3374 5.93623 19.9852 5.73047C19.625 6.29215 19.2452 6.84271 18.871 7.39604C19.3709 7.25701 19.8707 7.10964 20.3706 6.96783C19.7535 7.78532 18.7398 8.45266 18.7482 9.5788C18.5639 12.3705 17.1816 15.0983 14.9029 16.7694C11.8814 19.0411 7.5139 19.1607 4.28855 17.2338C5.88866 17.1086 7.5111 16.8139 8.84592 15.8657C7.6228 15.4375 6.43878 14.7618 5.92217 13.5106C6.32987 13.4688 6.74316 13.4271 7.15366 13.391C6.51138 12.9656 5.80488 12.5874 5.33574 11.9562C4.97551 11.4279 4.86939 10.7828 4.69626 10.1794C5.1291 10.2489 5.55914 10.3268 5.99198 10.4046C5.51446 9.72617 4.96992 9.04493 4.82192 8.20797C4.67112 7.44609 4.94758 6.69533 5.13468 5.96682C6.08972 6.91778 7.09502 7.85762 8.32652 8.4471C9.47703 9.04215 10.7616 9.28684 12.0238 9.52875C11.9512 8.0606 12.4175 6.41728 13.8501 5.73603Z" fill="white"/>
<path d="M13.8501 5.73603C15.2324 4.92132 16.8297 5.57198 18.0472 6.36723C18.6923 6.1559 19.3374 5.93623 19.9852 5.73047C19.625 6.29215 19.2452 6.84271 18.871 7.39604C19.3709 7.25701 19.8707 7.10964 20.3706 6.96783C19.7535 7.78532 18.7398 8.45266 18.7482 9.5788C18.5639 12.3705 17.1816 15.0983 14.9029 16.7694C11.8814 19.0411 7.5139 19.1607 4.28855 17.2338C5.88866 17.1086 7.5111 16.8139 8.84592 15.8657C7.6228 15.4375 6.43878 14.7618 5.92217 13.5106C6.32987 13.4688 6.74316 13.4271 7.15366 13.391C6.51138 12.9656 5.80488 12.5874 5.33574 11.9562C4.97551 11.4279 4.86939 10.7828 4.69626 10.1794C5.1291 10.2489 5.55914 10.3268 5.99198 10.4046C5.51446 9.72617 4.96992 9.04493 4.82192 8.20797C4.67112 7.44609 4.94758 6.69533 5.13468 5.96682C6.08972 6.91778 7.09502 7.85762 8.32652 8.4471C9.47703 9.04215 10.7616 9.28684 12.0238 9.52875C11.9512 8.0606 12.4175 6.41728 13.8501 5.73603Z" fill="url(#paint0_linear_307_11)"/>
<path d="M9.60201 0.271099C13.3283 -0.524665 17.4072 0.44264 20.2376 3.0253C24.9741 7.02318 25.7984 14.7902 21.8434 19.6029C18.3554 24.3251 11.2841 25.7641 6.23311 22.7907C2.23523 20.6083 -0.275952 16.0387 0.0242468 11.4928C0.186259 6.15118 4.4081 1.35277 9.60201 0.271099ZM9.11598 1.10975C4.34139 2.35819 0.681825 6.98506 0.710416 11.9407C0.624645 15.6765 2.47826 19.398 5.54219 21.5471C8.65853 23.7771 12.9185 24.2679 16.4685 22.8241C21.6671 20.8704 24.8168 14.8188 23.354 9.44383C22.0388 3.30167 15.1199 -0.739091 9.11598 1.10975Z" fill="white"/>
<path d="M9.60201 0.271099C13.3283 -0.524665 17.4072 0.44264 20.2376 3.0253C24.9741 7.02318 25.7984 14.7902 21.8434 19.6029C18.3554 24.3251 11.2841 25.7641 6.23311 22.7907C2.23523 20.6083 -0.275952 16.0387 0.0242468 11.4928C0.186259 6.15118 4.4081 1.35277 9.60201 0.271099ZM9.11598 1.10975C4.34139 2.35819 0.681825 6.98506 0.710416 11.9407C0.624645 15.6765 2.47826 19.398 5.54219 21.5471C8.65853 23.7771 12.9185 24.2679 16.4685 22.8241C21.6671 20.8704 24.8168 14.8188 23.354 9.44383C22.0388 3.30167 15.1199 -0.739091 9.11598 1.10975Z" fill="url(#paint1_linear_307_11)"/>
<defs>
<linearGradient id="paint0_linear_307_11" x1="11.9082" y1="-0.5" x2="11.9082" y2="24" gradientUnits="userSpaceOnUse">
<stop stop-color="#EDE527"/>
<stop offset="1" stop-color="#FE401C"/>
</linearGradient>
<linearGradient id="paint1_linear_307_11" x1="11.9082" y1="-0.5" x2="11.9082" y2="24" gradientUnits="userSpaceOnUse">
<stop stop-color="#EDE527"/>
<stop offset="1" stop-color="#FE401C"/>
</linearGradient>
</defs>
</svg>
