<svg width="15" height="16" viewBox="0 0 15 16" fill="none" xmlns="http://www.w3.org/2000/svg">
<path d="M15 14.8192V11.0012H13.0289V13.9926C13.0289 14.0871 5.68331 14.032 2.01051 13.9926V11.0012H0V14.8192C0 15.4713 0.529493 16 1.18265 16H13.8173C14.4705 16 15 15.4713 15 14.8192Z" fill="white"/>
<path d="M15 14.8192V11.0012H13.0289V13.9926C13.0289 14.0871 5.68331 14.032 2.01051 13.9926V11.0012H0V14.8192C0 15.4713 0.529493 16 1.18265 16H13.8173C14.4705 16 15 15.4713 15 14.8192Z" fill="url(#paint0_linear_309_49)"/>
<path d="M8.98823 5.06668L10.7031 5.06668C10.9208 5.06668 11.0973 4.89046 11.0973 4.67308L11.0973 4.02847C11.0973 3.93633 11.0649 3.84712 11.0058 3.77636L8.08747 0.28298C7.77172 -0.094987 7.18991 -0.0942061 6.87518 0.284605L3.97391 3.77657C3.91523 3.84721 3.8831 3.9361 3.8831 4.02787V4.67308C3.8831 4.89046 4.0596 5.06668 4.27732 5.06668H5.97246L5.97246 11.6399C5.97246 11.8572 6.14896 12.0335 6.36668 12.0335H8.59401C8.81173 12.0335 8.98823 11.8572 8.98823 11.6399V5.06668Z" fill="white"/>
<path d="M8.98823 5.06668L10.7031 5.06668C10.9208 5.06668 11.0973 4.89046 11.0973 4.67308L11.0973 4.02847C11.0973 3.93633 11.0649 3.84712 11.0058 3.77636L8.08747 0.28298C7.77172 -0.094987 7.18991 -0.0942061 6.87518 0.284605L3.97391 3.77657C3.91523 3.84721 3.8831 3.9361 3.8831 4.02787V4.67308C3.8831 4.89046 4.0596 5.06668 4.27732 5.06668H5.97246L5.97246 11.6399C5.97246 11.8572 6.14896 12.0335 6.36668 12.0335H8.59401C8.81173 12.0335 8.98823 11.8572 8.98823 11.6399V5.06668Z" fill="url(#paint1_linear_309_49)"/>
<defs>
<linearGradient id="paint0_linear_309_49" x1="7.33167" y1="-0.328681" x2="7.33167" y2="15.7767" gradientUnits="userSpaceOnUse">
<stop stop-color="#EDE527"/>
<stop offset="1" stop-color="#FE401C"/>
</linearGradient>
<linearGradient id="paint1_linear_309_49" x1="7.33167" y1="-0.328681" x2="7.33167" y2="15.7767" gradientUnits="userSpaceOnUse">
<stop stop-color="#EDE527"/>
<stop offset="1" stop-color="#FE401C"/>
</linearGradient>
</defs>
</svg>
