<svg width="696" height="696" viewBox="0 0 696 696" fill="none" xmlns="http://www.w3.org/2000/svg">
<path d="M373.467 14.6401C388.413 15.1067 403.213 17.7067 417.853 20.5734C423.72 21.8667 430.053 22.6001 434.947 26.4134C448.973 36.8801 460.52 50.6534 468.333 66.3334C475.347 79.9734 480.6 94.6801 482.493 109.947C483.227 115.547 483.893 121.147 484.84 126.707C492.667 109.893 499.293 92.5601 506.627 75.5201C508.933 77.4134 513.44 78.4401 512.573 82.2534C511.467 104.533 510.307 126.813 509.107 149.093C515.32 123.88 520.48 98.4134 526.16 73.0801C516.613 67.0667 508.293 59.4001 499.2 52.7867C495.107 49.7467 490.893 46.8667 486.92 43.6667C500.307 49.2267 512.907 56.4934 525.267 64.0134C530.56 67.4401 536.64 70.3334 540.027 75.9334C548.64 89.2934 554.453 104.467 556.813 120.2C559.32 137.04 559.52 154.453 555.533 171.08C554.347 176.267 553.187 181.453 552.28 186.693C565.28 173.48 577.52 159.547 590.213 146.04C591.56 147.92 592.96 149.76 594.2 151.72C592.28 158.76 588.68 165.227 586.027 172.013C580.24 186.213 573.733 200.12 568.413 214.507C582.48 193.413 595.64 171.72 609.467 150.453C602.72 141.853 597.68 132.12 591.613 123.067C589.053 119.187 586.36 115.4 584.107 111.333C596.4 122.4 606.747 135.44 616.867 148.48C621.573 154.04 622.36 161.52 623.36 168.453C626.533 192.427 621.227 216.88 611.24 238.68C607.013 248.24 600.333 256.4 595.6 265.68C612.227 258.227 628.027 249.053 644.387 241.04C645.24 243.227 646.107 245.427 646.987 247.627C631.773 264.107 616.107 280.187 601.347 297.067C621.76 282.52 641.187 266.613 661.227 251.547C656.547 235.787 654.28 219.44 649.88 203.587C656.733 216.547 661.747 230.387 666.44 244.253C668.08 249.693 670.6 255.16 670.107 260.973C667.44 288.88 652.84 314.387 633.573 334.253C625.92 342.253 616.547 348.267 608.2 355.48C626.48 353.44 644.693 350.867 662.987 348.867C663.04 351.133 663.067 353.427 663.093 355.707C649.853 362.493 636.64 369.307 623.4 376.053C616.88 379.427 610.12 382.387 603.96 386.413C627.8 379.867 651.12 371.533 674.827 364.493C676.56 347.627 679.867 330.96 681.053 314.027C682.973 330.08 683.133 346.293 682.547 362.427C682.32 367.573 682.24 372.96 679.72 377.6C672.453 391.787 662.2 404.48 649.68 414.36C635.96 425.2 620.573 434.373 603.613 439.067C598.773 440.427 594.133 442.413 589.293 443.72C607.4 448.133 625.667 451.853 643.733 456.427C642.947 458.6 642.133 460.76 641.24 462.907C618.6 465.693 595.933 468.28 573.333 471.453C596.613 473.147 619.96 473.493 643.267 474.787C637.08 485.253 630.333 495.387 623.067 505.12C620.787 508.4 617.213 510.333 613.56 511.653C596.147 518.08 577.56 521.827 558.96 520.92C553.16 520.72 547.36 520.467 541.573 520.173C557.32 530.48 573.32 540.4 589.027 550.773C587.387 552.44 585.84 554.2 584.107 555.747C561.787 551.52 539.88 545.16 517.52 541.107C534.467 548.547 551.733 555.213 568.747 562.467C559.027 570.76 548.68 578.28 538.093 585.427C533.84 588 529.733 592.147 524.36 591.52C516.307 591.067 508.4 589.293 500.613 587.28C490.64 584.653 481.533 579.653 471.76 576.427C482.12 591.787 494.493 605.667 504.827 621.053C502.067 621.973 499.027 624.68 496.2 622.453C477.907 610.96 460.133 598.587 441.6 587.493C452.227 598.187 463.907 607.787 474.653 618.36C458.387 624.773 441.6 630.347 424.387 633.52C409.267 627.493 398.08 615.04 385.747 604.88C390.92 622.56 396.947 639.987 401.973 657.72C399.627 658.067 397.293 658.413 394.96 658.72C381.44 641.253 368.64 623.173 354.72 606.027C359.827 618.133 366.773 629.373 372.427 641.24C356.853 642.36 341.213 642.293 325.653 641.227C323.453 640.84 320.827 641.12 319.133 639.453C308.693 628.693 302.933 614.667 295.587 601.853C294.373 620.187 293.653 638.547 292.88 656.893C290.573 656.72 288.28 656.533 285.987 656.347C278.947 634.773 272.787 612.933 265.8 591.347C266.467 605.213 269.333 618.867 270.613 632.68C254.667 628.733 238.627 624.387 223.653 617.6C215.387 602.64 214.52 585.053 211.84 568.493C203.76 585.373 197.667 603.107 189.813 620.08C187.68 617.987 183.36 616.747 184.16 613.08C185.227 590.76 186.507 568.467 187.573 546.16C183.547 562.213 180.32 578.453 176.667 594.6C165.067 588.107 154.173 580.467 143.507 572.56C141.547 570.893 138.867 569.293 138.867 566.413C137.787 557.387 138 548.24 138.747 539.2C139.573 528.84 142.76 518.893 144.44 508.667C131.493 521.787 119.307 535.653 106.707 549.12C105.173 547.32 103.6 545.547 102.08 543.76C110.693 522.773 120.08 502.093 128.333 480.96C117.453 496.867 107.6 513.44 97.0267 529.56C89.8801 522 83.4001 513.853 77.0401 505.627C75.2934 503.067 72.7467 500.373 73.5334 497.013C75.6134 482.427 79.9601 468.12 86.3601 454.853C90.5334 446.027 96.7201 438.36 101.107 429.653C84.4934 437.093 68.7334 446.307 52.3601 454.267C51.4801 452.093 50.6134 449.92 49.7601 447.747C65.3601 430.88 81.1734 414.213 96.6534 397.253C77.0534 411.347 58.3334 426.64 38.9867 441.067C35.9601 433.44 31.8401 426.12 30.0401 418.067C32.2401 405.547 38.6134 394.053 45.3334 383.387C52.1067 373.067 60.0534 363.467 69.3867 355.36C75.5734 349.907 82.4667 345.333 88.6534 339.867C70.3601 341.92 52.1201 344.52 33.8001 346.427C33.7334 344.133 33.6801 341.84 33.6401 339.56C53.1734 329.107 73.3067 319.787 92.6267 308.96C78.7867 312.453 65.3867 317.44 51.7067 321.507C41.9467 324.867 31.8401 327.267 22.2401 331.04C19.8401 344.6 18.4667 358.387 16.5334 372.053C12.5334 357.973 13.9601 343.213 14.3601 328.8C14.2934 320.507 19.2267 313.52 23.4401 306.8C35.6401 288 53.9601 273.947 73.7201 263.813C84.1601 258.28 95.7867 255.84 106.747 251.64C88.8401 246.787 70.5334 243.6 52.6401 238.747C53.6934 236.707 54.6134 234.573 55.9867 232.707C57.7601 232.107 59.6267 231.853 61.4801 231.6C82.5067 229.12 103.507 226.413 124.52 223.853C98.6801 222.307 72.8001 221.493 46.9334 220.4C42.7468 230.64 36.7601 239.987 31.8801 249.88C29.4934 254.587 27.3201 259.4 24.6667 263.973C28.2267 248.507 33.7601 233.573 39.6667 218.88C41.3867 214.693 43.0801 210.32 46.4134 207.12C65.0534 188.973 90.2668 178.92 115.787 175.4C128.813 173.347 142.013 174.653 155.107 175.173C139.387 164.813 123.413 154.827 107.653 144.52C109.253 142.893 110.747 141.12 112.613 139.773C118.96 140.173 125.027 142.32 131.24 143.587C147.227 147.053 163.053 151.32 179.16 154.253C155.8 144.133 132.107 134.787 108.627 124.933C100.787 133.707 91.3468 140.773 82.9734 148.987C79.5468 152.253 76.2134 155.6 72.6667 158.747C80.6267 146.507 89.9867 135.227 99.6667 124.32C103.933 119.747 107.813 114.307 113.813 111.88C129.667 105.12 147.093 102.213 164.28 103.147C179.84 103.933 195.48 106.72 209.867 112.907C214.827 114.987 219.8 117.053 224.907 118.747C214.4 103.56 202.467 89.4134 191.747 74.3734C194.533 73.4001 197.6 70.6001 200.493 72.8401C218.867 84.2001 236.493 96.7867 255.067 107.813C239.307 92.3601 222.507 77.9867 206.427 62.8534C204.093 60.7334 201.84 58.4134 199 56.9734C184.32 63.2401 169.413 69.0401 154.8 75.4801C168.453 65.0934 183.413 56.5601 198.587 48.6134C204.373 45.3467 211.227 45.7601 217.64 45.8267C241.987 46.3467 265.427 55.7201 285.44 69.2001C294.787 75.3201 302.307 83.7201 310.987 90.6801C305.547 72.9734 299.613 55.4267 294.707 37.5601C297.013 37.2001 299.347 36.8801 301.693 36.5867C315.547 54.4534 328.84 72.7601 342.933 90.4401C331.707 67.8267 319.533 45.7067 308.133 23.1867C291.293 24.7334 274.347 24.4001 257.507 25.9334C273.267 21.3601 289.427 18.2534 305.667 15.9734C309.907 15.4267 314.307 14.6401 318.52 15.8801C346.28 23.4801 369.52 42.9601 385.72 66.3067C391.653 74.9201 395.84 84.5601 401.147 93.5601C402.507 75.0667 402.68 56.5067 403.853 38.0001C405.973 38.3467 408.12 38.6134 410.213 39.1467C411.2 40.4801 411.76 42.0801 412.347 43.6267C418.6 63.3201 424.053 83.3067 430.853 102.813C428.72 78.1067 424.373 53.6134 421.6 28.9601C405.333 24.9467 389.787 18.4801 373.467 14.6401ZM203.453 148.08C171.467 174.2 146.667 209.08 132.773 247.987C115.24 296.507 114.8 351.053 131.933 399.733C131 394.96 130 390.187 129.107 385.4C123.107 354.707 124.36 322.747 131.747 292.4C141.44 252.613 162.52 215.733 191.68 187.013C224.027 154.973 266.373 133.12 311.32 125.72C355.693 118.187 402.36 124.307 443.093 143.507C483.08 162.067 517.253 192.867 539.987 230.627C565.4 272.48 576.333 322.933 570.413 371.56C569.373 380.573 567.227 389.413 565.827 398.387C584.053 345.693 581.573 286.36 559.52 235.2C540.853 191.613 508.32 154.133 467.773 129.56C426.707 104.413 377.547 92.9601 329.6 97.0534C283.653 100.693 239.027 118.8 203.453 148.08ZM334.32 132.587C310.333 134.2 286.6 139.76 264.48 149.173C225.533 165.613 191.693 193.773 168.307 228.987C142.213 267.96 129.48 315.653 132.68 362.453C135.453 408.16 153.507 452.693 183.08 487.613C209.187 518.667 244.147 542.28 282.853 554.533C330.44 569.867 383.4 567.933 429.693 549.013C471.96 532 508.427 501.107 532.4 462.387C554.12 427.84 565.107 387 565.213 346.28C564.24 322.653 560.653 299 552.613 276.68C536.813 231.653 505.653 192.227 465.467 166.48C426.907 141.453 380.173 129.44 334.32 132.587ZM590.947 347.52C587.893 386.48 576.52 424.893 556.547 458.56C532.747 499.32 496.88 532.96 454.48 553.733C408.12 576.8 354.187 583.933 303.36 574.12C262.36 566.227 223.56 547.333 191.947 520.053C155.027 488.28 128.227 445.187 115.227 398.307C110.507 382.573 108.76 366.227 106.32 350.067C104.933 373.813 107.853 397.72 113.907 420.68C125.96 467.32 153.4 509.507 189.907 540.733C221.453 567.467 259.733 586.293 300.373 594.173C349.36 604.173 401.293 598.427 447.107 578.507C487.787 560.547 523.64 531.56 548.947 494.92C578.947 452.347 594.013 399.507 590.947 347.52Z" fill="url(#paint0_linear_52_148)"/>
<path d="M316.32 171.187C360.84 166.453 406.76 177.867 444.12 202.48C461.64 213.827 477.267 227.973 490.773 243.853C495.467 249.413 499.6 255.427 504.24 261.027C494.133 239.667 479.267 220.72 461.68 205C452.293 196.4 441.6 189.493 431.04 182.48C479.813 203.533 520.147 243.467 541.027 292.387C544.76 301.6 548.867 310.84 550.267 320.773C557.173 365.667 544.4 412.2 520.013 450.027C496.24 486.907 459.693 515.12 418.28 529.453C367.8 547.32 310.32 542.56 262.653 518.573C228.987 501.813 200.453 475.76 179 445.013C202.08 494.293 248.2 531.28 300.307 546.013C239.467 531.613 186.973 487.067 162.2 429.76C153.12 408.827 147.4 386.373 145.867 363.587C144.84 315.613 163.573 267.827 195.787 232.413C226.867 198.44 270.44 175.92 316.32 171.187ZM342.2 180.147C334.16 183.067 329.373 192.427 331.56 200.68C333.507 209.56 343.12 215.68 352 213.773C361.76 212.173 368.6 201.267 365.613 191.773C363.16 182.013 351.493 176.093 342.2 180.147ZM208.96 256.547C201.947 258.16 196.44 264.493 195.68 271.627C194.24 281.453 202.627 291.133 212.533 291.213C222.84 291.96 232.027 282.04 230.68 271.84C229.973 261.533 218.88 253.773 208.96 256.547ZM479.64 256.613C471.853 258.547 466.093 266.347 466.547 274.36C466.64 283.6 475.147 291.507 484.333 291.213C494.333 291.44 503.027 281.72 501.64 271.787C500.947 261.373 489.573 253.68 479.64 256.613ZM290.733 287.427C277.2 301.227 269.72 320.64 270.373 339.96C272.707 329.547 275.333 318.96 281.267 309.907C291.6 292.56 309.867 280.573 329.707 277.187C323.827 279.587 317.8 281.707 312.253 284.84C293.24 295.533 279.547 315.187 276.187 336.747C273.387 353.707 276.813 371.6 285.76 386.28C296.573 404.373 315.493 417.4 336.32 420.8C356.653 424.4 378.36 418.76 394.44 405.813C410.133 393.387 420.387 374.293 421.853 354.32C422.2 348.52 421.827 342.707 421.667 336.907C420.8 314.813 409.467 293.427 391.787 280.173C378.28 269.907 361.373 264 344.36 264.373C324.4 264.667 304.48 272.827 290.733 287.427ZM207.533 404.227C200.053 406.627 194.84 414.52 195.613 422.347C196.147 431.427 204.627 438.947 213.693 438.533C223.333 438.507 231.68 429.347 230.733 419.72C230.4 408.627 217.92 400.307 207.533 404.227ZM479.4 403.973C471.013 406.133 465.227 415.133 466.747 423.667C467.933 432.547 476.747 439.36 485.627 438.48C495.307 437.893 503.133 428.173 501.6 418.587C500.547 408.307 489.24 400.933 479.4 403.973ZM344.907 483.187C338.067 484.573 332.453 490.413 331.333 497.28C329.293 507.12 337.16 517.4 347.2 517.92C357.36 519.133 366.96 509.84 366.24 499.667C366.133 489.12 355.147 480.573 344.907 483.187Z" fill="url(#paint1_linear_52_148)"/>
<path d="M335.347 195.653C334.92 189.653 339.867 185.76 343.947 182.32C341.867 185.96 338.693 189.76 339.747 194.253C340.733 200.253 347.12 204.587 353.053 203.013C358.293 202.147 360.4 196.76 363.08 192.893C362.587 198.653 361.107 205.307 355.213 207.88C346.627 212.827 334.8 205.52 335.347 195.653Z" fill="url(#paint2_linear_52_148)"/>
<path d="M636.813 189.947C641.44 201.04 645.6 212.307 649.773 223.587C641.853 227.693 634.053 232.04 626.093 236.08C632.307 221.44 635.653 205.76 636.813 189.947Z" fill="url(#paint3_linear_52_148)"/>
<path d="M37.6667 249.053C46.2667 250.933 54.9334 252.56 63.48 254.707C49.52 262.427 36.4934 271.907 25.6934 283.72C29.4667 272.093 33.5734 260.573 37.6667 249.053Z" fill="url(#paint4_linear_52_148)"/>
<path d="M205.093 263.067C209.307 258.973 215.373 259.893 220.6 260.88C216.347 262.013 210.973 262.187 208.493 266.427C204.787 271.587 206.88 279.427 212.453 282.293C216.387 284.6 220.987 282.813 225.107 282.107C220.56 285.733 214.6 288.867 208.8 286.053C199.453 282.827 197.427 269.107 205.093 263.067Z" fill="url(#paint5_linear_52_148)"/>
<path d="M475.907 263.227C480.067 259.12 486.053 259.76 491.28 260.813C487.067 262.027 481.627 262.307 479.32 266.68C475.8 272.067 478.147 280.16 484.147 282.627C488.173 284.6 492.56 282.6 496.573 281.64C492.107 285.187 486.48 288.813 480.587 286.373C470.907 283.6 468 269.52 475.907 263.227Z" fill="url(#paint6_linear_52_148)"/>
<path d="M337.333 288.893C352.987 285.88 369.8 289.333 382.893 298.48C397.547 308.453 407.453 325.16 408.893 342.88C411.36 363.08 401.827 383.8 385.827 396.107C391.4 388.52 397.467 381.013 400.093 371.787C402.48 364.787 403 357.32 402.72 349.987C400.253 357.52 398.44 365.4 394.2 372.227C386.2 386.12 372.133 396.2 356.533 399.733C342.133 403.08 326.493 400.52 313.907 392.787C302.027 385.6 292.827 373.867 289.267 360.4C285.373 342.68 290.507 323.387 302.2 309.573C311.067 298.92 323.707 291.453 337.333 288.893ZM343.493 324.427C334.413 326.253 326.867 333.76 324.747 342.747C321.827 353.92 328.12 366.4 338.707 370.893C350.267 376.293 365.453 370.907 370.733 359.213C375.173 350.413 373.533 339.053 366.8 331.867C361.027 325.533 351.867 322.6 343.493 324.427Z" fill="url(#paint7_linear_52_148)"/>
<path d="M647.853 337.6C658.44 325.84 667 312.413 673.387 297.947C674.027 310.013 674 322.093 674 334.173C665.28 335.28 656.587 336.627 647.853 337.6Z" fill="url(#paint8_linear_52_148)"/>
<path d="M22.7201 361.093C31.4267 359.92 40.0934 358.533 48.8401 357.773C38.2801 369.88 29.0534 383.333 23.24 398.413C22.8667 385.973 22.6667 373.533 22.7201 361.093Z" fill="url(#paint9_linear_52_148)"/>
<path d="M204.707 410.72C208.52 406.693 214.32 407.2 219.373 407.587C215.16 409.36 209.64 410.347 207.747 415.133C204.573 421.107 208.52 429.307 215.12 430.64C218.387 430.987 221.613 430.12 224.853 429.747C220.16 433.307 213.88 436.067 208.16 433.08C199.533 429.507 197.64 416.747 204.707 410.72Z" fill="url(#paint10_linear_52_148)"/>
<path d="M478.56 408.64C482.067 406.613 486.24 407.547 490.093 407.507C486.267 409.373 481.28 410.253 479.107 414.333C476.24 419.28 477.8 426.347 482.867 429.213C486.68 431.893 491.427 430.173 495.64 429.787C492.227 431.96 488.693 434.84 484.373 434.307C478.2 434.227 472.533 429.4 471.533 423.307C470.347 417.573 473.333 411.307 478.56 408.64Z" fill="url(#paint11_linear_52_148)"/>
<path d="M633.253 440.667C647.2 432.947 660.227 423.48 671 411.667C667.293 423.293 663.2 434.8 658.973 446.24C650.413 444.307 641.773 442.72 633.253 440.667Z" fill="url(#paint12_linear_52_148)"/>
<path d="M46.9867 471.8C54.9067 467.693 62.68 463.28 70.6534 459.267C64.4 474.227 60.9334 490.267 59.9734 506.44C55.8401 494.813 51.1467 483.4 46.9867 471.8Z" fill="url(#paint13_linear_52_148)"/>
<path d="M335.547 501.96C334.093 495.933 338.253 490.92 342.307 487.08C340.987 491.387 338.213 496.08 340.493 500.56C342.907 506.68 351.253 509.16 356.653 505.427C359.467 503.16 361.04 499.787 363.093 496.88C362.52 502.307 361.387 508.56 356.013 511.32C348.28 516.453 336.72 511.133 335.547 501.96Z" fill="url(#paint14_linear_52_148)"/>
<path d="M320.813 1.40007C373.973 -2.9066 428.093 5.38673 477.573 25.2801C519.52 42.1334 558.2 67.1467 590.507 98.8001C624.133 131.24 650.853 170.693 668.973 213.733C686.907 256.413 696.067 302.733 695.947 349.013C695.6 402.133 683.213 455.24 659.253 502.693C624.32 572.64 565.173 630.107 494.187 662.893C453.907 681.64 409.96 692.347 365.613 694.627C312.427 697.28 258.653 687.493 209.853 666.187C168.573 648.187 130.827 622.173 99.48 589.827C68.04 557.747 43.0934 519.387 26.1867 477.773C4.62674 424.667 -3.57327 366.133 3.0134 309.16C9.04007 253.827 28.8667 200.147 60.0401 154.053C86.9067 114.133 122.147 79.9201 162.787 54.1734C210.093 23.9734 264.907 5.86674 320.813 1.40007ZM373.467 14.6401C389.787 18.4801 405.333 24.9467 421.6 28.9601C424.373 53.6134 428.72 78.1067 430.853 102.813C424.053 83.3067 418.6 63.3201 412.347 43.6267C411.76 42.0801 411.2 40.4801 410.213 39.1467C408.12 38.6134 405.973 38.3467 403.853 38.0001C402.68 56.5067 402.507 75.0667 401.147 93.5601C395.84 84.5601 391.653 74.9201 385.72 66.3067C369.52 42.9601 346.28 23.4801 318.52 15.8801C314.307 14.6401 309.907 15.4267 305.667 15.9734C289.427 18.2534 273.267 21.3601 257.507 25.9334C274.347 24.4001 291.293 24.7334 308.133 23.1867C319.533 45.7067 331.707 67.8267 342.933 90.4401C328.84 72.7601 315.547 54.4534 301.693 36.5867C299.347 36.8801 297.013 37.2001 294.707 37.5601C299.613 55.4267 305.547 72.9734 310.987 90.6801C302.307 83.7201 294.787 75.3201 285.44 69.2001C265.427 55.7201 241.987 46.3467 217.64 45.8267C211.227 45.7601 204.373 45.3467 198.587 48.6134C183.413 56.5601 168.453 65.0934 154.8 75.4801C169.413 69.0401 184.32 63.2401 199 56.9734C201.84 58.4134 204.093 60.7334 206.427 62.8534C222.507 77.9867 239.307 92.3601 255.067 107.813C236.493 96.7867 218.867 84.2001 200.493 72.8401C197.6 70.6001 194.533 73.4001 191.747 74.3734C202.467 89.4134 214.4 103.56 224.907 118.747C219.8 117.053 214.827 114.987 209.867 112.907C195.48 106.72 179.84 103.933 164.28 103.147C147.093 102.213 129.667 105.12 113.813 111.88C107.813 114.307 103.933 119.747 99.6667 124.32C89.9867 135.227 80.6267 146.507 72.6667 158.747C76.2134 155.6 79.5468 152.253 82.9734 148.987C91.3468 140.773 100.787 133.707 108.627 124.933C132.107 134.787 155.8 144.133 179.16 154.253C163.053 151.32 147.227 147.053 131.24 143.587C125.027 142.32 118.96 140.173 112.613 139.773C110.747 141.12 109.253 142.893 107.653 144.52C123.413 154.827 139.387 164.813 155.107 175.173C142.013 174.653 128.813 173.347 115.787 175.4C90.2668 178.92 65.0534 188.973 46.4134 207.12C43.0801 210.32 41.3867 214.693 39.6667 218.88C33.7601 233.573 28.2267 248.507 24.6667 263.973C27.3201 259.4 29.4934 254.587 31.8801 249.88C36.7601 239.987 42.7468 230.64 46.9334 220.4C72.8001 221.493 98.6801 222.307 124.52 223.853C103.507 226.413 82.5067 229.12 61.4801 231.6C59.6267 231.853 57.7601 232.107 55.9867 232.707C54.6134 234.573 53.6934 236.707 52.6401 238.747C70.5334 243.6 88.8401 246.787 106.747 251.64C95.7867 255.84 84.1601 258.28 73.7201 263.813C53.9601 273.947 35.6401 288 23.4401 306.8C19.2267 313.52 14.2934 320.507 14.3601 328.8C13.9601 343.213 12.5334 357.973 16.5334 372.053C18.4667 358.387 19.8401 344.6 22.2401 331.04C31.8401 327.267 41.9467 324.867 51.7067 321.507C65.3867 317.44 78.7867 312.453 92.6267 308.96C73.3067 319.787 53.1734 329.107 33.6401 339.56C33.6801 341.84 33.7334 344.133 33.8001 346.427C52.1201 344.52 70.3601 341.92 88.6534 339.867C82.4667 345.333 75.5734 349.907 69.3867 355.36C60.0534 363.467 52.1067 373.067 45.3334 383.387C38.6134 394.053 32.2401 405.547 30.0401 418.067C31.8401 426.12 35.9601 433.44 38.9867 441.067C58.3334 426.64 77.0534 411.347 96.6534 397.253C81.1734 414.213 65.3601 430.88 49.7601 447.747C50.6134 449.92 51.4801 452.093 52.3601 454.267C68.7334 446.307 84.4934 437.093 101.107 429.653C96.7201 438.36 90.5334 446.027 86.3601 454.853C79.9601 468.12 75.6134 482.427 73.5334 497.013C72.7467 500.373 75.2934 503.067 77.0401 505.627C83.4001 513.853 89.8801 522 97.0267 529.56C107.6 513.44 117.453 496.867 128.333 480.96C120.08 502.093 110.693 522.773 102.08 543.76C103.6 545.547 105.173 547.32 106.707 549.12C119.307 535.653 131.493 521.787 144.44 508.667C142.76 518.893 139.573 528.84 138.747 539.2C138 548.24 137.787 557.387 138.867 566.413C138.867 569.293 141.547 570.893 143.507 572.56C154.173 580.467 165.067 588.107 176.667 594.6C180.32 578.453 183.547 562.213 187.573 546.16C186.507 568.467 185.227 590.76 184.16 613.08C183.36 616.747 187.68 617.987 189.813 620.08C197.667 603.107 203.76 585.373 211.84 568.493C214.52 585.053 215.387 602.64 223.653 617.6C238.627 624.387 254.667 628.733 270.613 632.68C269.333 618.867 266.467 605.213 265.8 591.347C272.787 612.933 278.947 634.773 285.987 656.347C288.28 656.533 290.573 656.72 292.88 656.893C293.653 638.547 294.373 620.187 295.587 601.853C302.933 614.667 308.693 628.693 319.133 639.453C320.827 641.12 323.453 640.84 325.653 641.227C341.213 642.293 356.853 642.36 372.427 641.24C366.773 629.373 359.827 618.133 354.72 606.027C368.64 623.173 381.44 641.253 394.96 658.72C397.293 658.413 399.627 658.067 401.973 657.72C396.947 639.987 390.92 622.56 385.747 604.88C398.08 615.04 409.267 627.493 424.387 633.52C441.6 630.347 458.387 624.773 474.653 618.36C463.907 607.787 452.227 598.187 441.6 587.493C460.133 598.587 477.907 610.96 496.2 622.453C499.027 624.68 502.067 621.973 504.827 621.053C494.493 605.667 482.12 591.787 471.76 576.427C481.533 579.653 490.64 584.653 500.613 587.28C508.4 589.293 516.307 591.067 524.36 591.52C529.733 592.147 533.84 588 538.093 585.427C548.68 578.28 559.027 570.76 568.747 562.467C551.733 555.213 534.467 548.547 517.52 541.107C539.88 545.16 561.787 551.52 584.107 555.747C585.84 554.2 587.387 552.44 589.027 550.773C573.32 540.4 557.32 530.48 541.573 520.173C547.36 520.467 553.16 520.72 558.96 520.92C577.56 521.827 596.147 518.08 613.56 511.653C617.213 510.333 620.787 508.4 623.067 505.12C630.333 495.387 637.08 485.253 643.267 474.787C619.96 473.493 596.613 473.147 573.333 471.453C595.933 468.28 618.6 465.693 641.24 462.907C642.133 460.76 642.947 458.6 643.733 456.427C625.667 451.853 607.4 448.133 589.293 443.72C594.133 442.413 598.773 440.427 603.613 439.067C620.573 434.373 635.96 425.2 649.68 414.36C662.2 404.48 672.453 391.787 679.72 377.6C682.24 372.96 682.32 367.573 682.547 362.427C683.133 346.293 682.973 330.08 681.053 314.027C679.867 330.96 676.56 347.627 674.827 364.493C651.12 371.533 627.8 379.867 603.96 386.413C610.12 382.387 616.88 379.427 623.4 376.053C636.64 369.307 649.853 362.493 663.093 355.707C663.067 353.427 663.04 351.133 662.987 348.867C644.693 350.867 626.48 353.44 608.2 355.48C616.547 348.267 625.92 342.253 633.573 334.253C652.84 314.387 667.44 288.88 670.107 260.973C670.6 255.16 668.08 249.693 666.44 244.253C661.747 230.387 656.733 216.547 649.88 203.587C654.28 219.44 656.547 235.787 661.227 251.547C641.187 266.613 621.76 282.52 601.347 297.067C616.107 280.187 631.773 264.107 646.987 247.627C646.107 245.427 645.24 243.227 644.387 241.04C628.027 249.053 612.227 258.227 595.6 265.68C600.333 256.4 607.013 248.24 611.24 238.68C621.227 216.88 626.533 192.427 623.36 168.453C622.36 161.52 621.573 154.04 616.867 148.48C606.747 135.44 596.4 122.4 584.107 111.333C586.36 115.4 589.053 119.187 591.613 123.067C597.68 132.12 602.72 141.853 609.467 150.453C595.64 171.72 582.48 193.413 568.413 214.507C573.733 200.12 580.24 186.213 586.027 172.013C588.68 165.227 592.28 158.76 594.2 151.72C592.96 149.76 591.56 147.92 590.213 146.04C577.52 159.547 565.28 173.48 552.28 186.693C553.187 181.453 554.347 176.267 555.533 171.08C559.52 154.453 559.32 137.04 556.813 120.2C554.453 104.467 548.64 89.2934 540.027 75.9334C536.64 70.3334 530.56 67.4401 525.267 64.0134C512.907 56.4934 500.307 49.2267 486.92 43.6667C490.893 46.8667 495.107 49.7467 499.2 52.7867C508.293 59.4001 516.613 67.0667 526.16 73.0801C520.48 98.4134 515.32 123.88 509.107 149.093C510.307 126.813 511.467 104.533 512.573 82.2534C513.44 78.4401 508.933 77.4134 506.627 75.5201C499.293 92.5601 492.667 109.893 484.84 126.707C483.893 121.147 483.227 115.547 482.493 109.947C480.6 94.6801 475.347 79.9734 468.333 66.3334C460.52 50.6534 448.973 36.8801 434.947 26.4134C430.053 22.6001 423.72 21.8667 417.853 20.5734C403.213 17.7067 388.413 15.1067 373.467 14.6401ZM636.813 189.947C635.653 205.76 632.307 221.44 626.093 236.08C634.053 232.04 641.853 227.693 649.773 223.587C645.6 212.307 641.44 201.04 636.813 189.947ZM37.6667 249.053C33.5734 260.573 29.4667 272.093 25.6934 283.72C36.4934 271.907 49.52 262.427 63.48 254.707C54.9334 252.56 46.2667 250.933 37.6667 249.053ZM647.853 337.6C656.587 336.627 665.28 335.28 674 334.173C674 322.093 674.027 310.013 673.387 297.947C667 312.413 658.44 325.84 647.853 337.6ZM22.7201 361.093C22.6667 373.533 22.8667 385.973 23.24 398.413C29.0534 383.333 38.2801 369.88 48.8401 357.773C40.0934 358.533 31.4267 359.92 22.7201 361.093ZM633.253 440.667C641.773 442.72 650.413 444.307 658.973 446.24C663.2 434.8 667.293 423.293 671 411.667C660.227 423.48 647.2 432.947 633.253 440.667ZM46.9867 471.8C51.1467 483.4 55.8401 494.813 59.9734 506.44C60.9334 490.267 64.4 474.227 70.6534 459.267C62.68 463.28 54.9067 467.693 46.9867 471.8Z" fill="black"/>
<path d="M203.453 148.08C239.027 118.8 283.653 100.693 329.6 97.0534C377.547 92.9601 426.707 104.413 467.773 129.56C508.32 154.133 540.853 191.613 559.52 235.2C581.573 286.36 584.053 345.693 565.827 398.387C567.227 389.413 569.373 380.573 570.413 371.56C576.333 322.933 565.4 272.48 539.987 230.627C517.253 192.867 483.08 162.067 443.093 143.507C402.36 124.307 355.693 118.187 311.32 125.72C266.373 133.12 224.027 154.973 191.68 187.013C162.52 215.733 141.44 252.613 131.747 292.4C124.36 322.747 123.107 354.707 129.107 385.4C130 390.187 131 394.96 131.933 399.733C114.8 351.053 115.24 296.507 132.773 247.987C146.667 209.08 171.467 174.2 203.453 148.08Z" fill="black"/>
<path d="M334.32 132.587C380.173 129.44 426.907 141.453 465.467 166.48C505.653 192.227 536.813 231.653 552.613 276.68C560.653 299 564.24 322.653 565.213 346.28C565.107 387 554.12 427.84 532.4 462.387C508.427 501.107 471.96 532 429.693 549.013C383.4 567.933 330.44 569.867 282.853 554.533C244.147 542.28 209.187 518.667 183.08 487.613C153.507 452.693 135.453 408.16 132.68 362.453C129.48 315.653 142.213 267.96 168.307 228.987C191.693 193.773 225.533 165.613 264.48 149.173C286.6 139.76 310.333 134.2 334.32 132.587ZM316.32 171.187C270.44 175.92 226.867 198.44 195.787 232.413C163.573 267.827 144.84 315.613 145.867 363.587C147.4 386.373 153.12 408.827 162.2 429.76C186.973 487.067 239.467 531.613 300.307 546.013C248.2 531.28 202.08 494.293 179 445.013C200.453 475.76 228.987 501.813 262.653 518.573C310.32 542.56 367.8 547.32 418.28 529.453C459.693 515.12 496.24 486.907 520.013 450.027C544.4 412.2 557.173 365.667 550.267 320.773C548.867 310.84 544.76 301.6 541.027 292.387C520.147 243.467 479.813 203.533 431.04 182.48C441.6 189.493 452.293 196.4 461.68 205C479.267 220.72 494.133 239.667 504.24 261.027C499.6 255.427 495.467 249.413 490.773 243.853C477.267 227.973 461.64 213.827 444.12 202.48C406.76 177.867 360.84 166.453 316.32 171.187Z" fill="black"/>
<path d="M342.2 180.147C351.493 176.093 363.16 182.013 365.613 191.773C368.6 201.267 361.76 212.173 352 213.773C343.12 215.68 333.507 209.56 331.56 200.68C329.373 192.427 334.16 183.067 342.2 180.147ZM335.347 195.653C334.8 205.52 346.627 212.827 355.213 207.88C361.107 205.307 362.587 198.653 363.08 192.893C360.4 196.76 358.293 202.147 353.053 203.013C347.12 204.587 340.733 200.253 339.747 194.253C338.693 189.76 341.867 185.96 343.947 182.32C339.867 185.76 334.92 189.653 335.347 195.653Z" fill="black"/>
<path d="M208.96 256.547C218.88 253.773 229.973 261.533 230.68 271.84C232.027 282.04 222.84 291.96 212.533 291.213C202.627 291.133 194.24 281.453 195.68 271.627C196.44 264.493 201.947 258.16 208.96 256.547ZM205.093 263.067C197.427 269.107 199.453 282.827 208.8 286.053C214.6 288.867 220.56 285.733 225.107 282.107C220.987 282.813 216.387 284.6 212.453 282.293C206.88 279.427 204.787 271.587 208.493 266.427C210.973 262.187 216.347 262.013 220.6 260.88C215.373 259.893 209.307 258.973 205.093 263.067Z" fill="black"/>
<path d="M479.64 256.613C489.573 253.68 500.947 261.373 501.64 271.787C503.027 281.72 494.333 291.44 484.333 291.213C475.147 291.507 466.64 283.6 466.547 274.36C466.093 266.347 471.853 258.547 479.64 256.613ZM475.907 263.227C468 269.52 470.907 283.6 480.587 286.373C486.48 288.813 492.107 285.187 496.573 281.64C492.56 282.6 488.173 284.6 484.147 282.627C478.147 280.16 475.8 272.067 479.32 266.68C481.627 262.307 487.067 262.027 491.28 260.813C486.053 259.76 480.067 259.12 475.907 263.227Z" fill="black"/>
<path d="M290.733 287.427C304.48 272.827 324.4 264.667 344.36 264.373C361.373 264 378.28 269.907 391.787 280.173C409.467 293.427 420.8 314.813 421.667 336.907C421.827 342.707 422.2 348.52 421.853 354.32C420.387 374.293 410.133 393.387 394.44 405.813C378.36 418.76 356.653 424.4 336.32 420.8C315.493 417.4 296.573 404.373 285.76 386.28C276.813 371.6 273.387 353.707 276.187 336.747C279.547 315.187 293.24 295.533 312.253 284.84C317.8 281.707 323.827 279.587 329.707 277.187C309.867 280.573 291.6 292.56 281.267 309.907C275.333 318.96 272.707 329.547 270.373 339.96C269.72 320.64 277.2 301.227 290.733 287.427ZM337.333 288.893C323.707 291.453 311.067 298.92 302.2 309.573C290.507 323.387 285.373 342.68 289.267 360.4C292.827 373.867 302.027 385.6 313.907 392.787C326.493 400.52 342.133 403.08 356.533 399.733C372.133 396.2 386.2 386.12 394.2 372.227C398.44 365.4 400.253 357.52 402.72 349.987C403 357.32 402.48 364.787 400.093 371.787C397.467 381.013 391.4 388.52 385.827 396.107C401.827 383.8 411.36 363.08 408.893 342.88C407.453 325.16 397.547 308.453 382.893 298.48C369.8 289.333 352.987 285.88 337.333 288.893Z" fill="black"/>
<path d="M343.493 324.427C351.867 322.6 361.027 325.533 366.8 331.867C373.533 339.053 375.173 350.413 370.733 359.213C365.453 370.907 350.267 376.293 338.707 370.893C328.12 366.4 321.827 353.92 324.747 342.747C326.867 333.76 334.413 326.253 343.493 324.427Z" fill="black"/>
<path d="M590.947 347.52C594.013 399.507 578.947 452.347 548.947 494.92C523.64 531.56 487.787 560.547 447.107 578.507C401.293 598.427 349.36 604.173 300.373 594.173C259.733 586.293 221.453 567.467 189.907 540.733C153.4 509.507 125.96 467.32 113.907 420.68C107.853 397.72 104.933 373.813 106.32 350.067C108.76 366.227 110.507 382.573 115.227 398.307C128.227 445.187 155.027 488.28 191.947 520.053C223.56 547.333 262.36 566.227 303.36 574.12C354.187 583.933 408.12 576.8 454.48 553.733C496.88 532.96 532.747 499.32 556.547 458.56C576.52 424.893 587.893 386.48 590.947 347.52Z" fill="black"/>
<path d="M207.533 404.227C217.92 400.307 230.4 408.627 230.733 419.72C231.68 429.347 223.333 438.507 213.693 438.533C204.627 438.947 196.147 431.427 195.613 422.347C194.84 414.52 200.053 406.627 207.533 404.227ZM204.707 410.72C197.64 416.747 199.533 429.507 208.16 433.08C213.88 436.067 220.16 433.307 224.853 429.747C221.613 430.12 218.387 430.987 215.12 430.64C208.52 429.307 204.573 421.107 207.747 415.133C209.64 410.347 215.16 409.36 219.373 407.587C214.32 407.2 208.52 406.693 204.707 410.72Z" fill="black"/>
<path d="M479.4 403.973C489.24 400.933 500.547 408.307 501.6 418.587C503.133 428.173 495.307 437.893 485.627 438.48C476.747 439.36 467.933 432.547 466.747 423.667C465.227 415.133 471.013 406.133 479.4 403.973ZM478.56 408.64C473.333 411.307 470.347 417.573 471.533 423.307C472.533 429.4 478.2 434.227 484.373 434.307C488.693 434.84 492.227 431.96 495.64 429.787C491.427 430.173 486.68 431.893 482.867 429.213C477.8 426.347 476.24 419.28 479.107 414.333C481.28 410.253 486.267 409.373 490.093 407.507C486.24 407.547 482.067 406.613 478.56 408.64Z" fill="black"/>
<path d="M344.907 483.187C355.147 480.573 366.133 489.12 366.24 499.667C366.96 509.84 357.36 519.133 347.2 517.92C337.16 517.4 329.293 507.12 331.333 497.28C332.453 490.413 338.067 484.573 344.907 483.187ZM335.547 501.96C336.72 511.133 348.28 516.453 356.013 511.32C361.387 508.56 362.52 502.307 363.093 496.88C361.04 499.787 359.467 503.16 356.653 505.427C351.253 509.16 342.907 506.68 340.493 500.56C338.213 496.08 340.987 491.387 342.307 487.08C338.253 490.92 334.093 495.933 335.547 501.96Z" fill="black"/>
<defs>
<linearGradient id="paint0_linear_52_148" x1="348.372" y1="0.291016" x2="348.372" y2="695.052" gradientUnits="userSpaceOnUse">
<stop stop-color="#EDE527"/>
<stop offset="1" stop-color="#FE401C"/>
</linearGradient>
<linearGradient id="paint1_linear_52_148" x1="348.372" y1="0.291016" x2="348.372" y2="695.052" gradientUnits="userSpaceOnUse">
<stop stop-color="#EDE527"/>
<stop offset="1" stop-color="#FE401C"/>
</linearGradient>
<linearGradient id="paint2_linear_52_148" x1="348.372" y1="0.291016" x2="348.372" y2="695.052" gradientUnits="userSpaceOnUse">
<stop stop-color="#EDE527"/>
<stop offset="1" stop-color="#FE401C"/>
</linearGradient>
<linearGradient id="paint3_linear_52_148" x1="348.372" y1="0.291016" x2="348.372" y2="695.052" gradientUnits="userSpaceOnUse">
<stop stop-color="#EDE527"/>
<stop offset="1" stop-color="#FE401C"/>
</linearGradient>
<linearGradient id="paint4_linear_52_148" x1="348.372" y1="0.291016" x2="348.372" y2="695.052" gradientUnits="userSpaceOnUse">
<stop stop-color="#EDE527"/>
<stop offset="1" stop-color="#FE401C"/>
</linearGradient>
<linearGradient id="paint5_linear_52_148" x1="348.372" y1="0.291016" x2="348.372" y2="695.052" gradientUnits="userSpaceOnUse">
<stop stop-color="#EDE527"/>
<stop offset="1" stop-color="#FE401C"/>
</linearGradient>
<linearGradient id="paint6_linear_52_148" x1="348.372" y1="0.291016" x2="348.372" y2="695.052" gradientUnits="userSpaceOnUse">
<stop stop-color="#EDE527"/>
<stop offset="1" stop-color="#FE401C"/>
</linearGradient>
<linearGradient id="paint7_linear_52_148" x1="348.372" y1="0.291016" x2="348.372" y2="695.052" gradientUnits="userSpaceOnUse">
<stop stop-color="#EDE527"/>
<stop offset="1" stop-color="#FE401C"/>
</linearGradient>
<linearGradient id="paint8_linear_52_148" x1="348.372" y1="0.291016" x2="348.372" y2="695.052" gradientUnits="userSpaceOnUse">
<stop stop-color="#EDE527"/>
<stop offset="1" stop-color="#FE401C"/>
</linearGradient>
<linearGradient id="paint9_linear_52_148" x1="348.372" y1="0.291016" x2="348.372" y2="695.052" gradientUnits="userSpaceOnUse">
<stop stop-color="#EDE527"/>
<stop offset="1" stop-color="#FE401C"/>
</linearGradient>
<linearGradient id="paint10_linear_52_148" x1="348.372" y1="0.291016" x2="348.372" y2="695.052" gradientUnits="userSpaceOnUse">
<stop stop-color="#EDE527"/>
<stop offset="1" stop-color="#FE401C"/>
</linearGradient>
<linearGradient id="paint11_linear_52_148" x1="348.372" y1="0.291016" x2="348.372" y2="695.052" gradientUnits="userSpaceOnUse">
<stop stop-color="#EDE527"/>
<stop offset="1" stop-color="#FE401C"/>
</linearGradient>
<linearGradient id="paint12_linear_52_148" x1="348.372" y1="0.291016" x2="348.372" y2="695.052" gradientUnits="userSpaceOnUse">
<stop stop-color="#EDE527"/>
<stop offset="1" stop-color="#FE401C"/>
</linearGradient>
<linearGradient id="paint13_linear_52_148" x1="348.372" y1="0.291016" x2="348.372" y2="695.052" gradientUnits="userSpaceOnUse">
<stop stop-color="#EDE527"/>
<stop offset="1" stop-color="#FE401C"/>
</linearGradient>
<linearGradient id="paint14_linear_52_148" x1="348.372" y1="0.291016" x2="348.372" y2="695.052" gradientUnits="userSpaceOnUse">
<stop stop-color="#EDE527"/>
<stop offset="1" stop-color="#FE401C"/>
</linearGradient>
</defs>
</svg>
