<svg width="35" height="35" viewBox="0 0 35 35" fill="none" xmlns="http://www.w3.org/2000/svg">
<path d="M15.9048 0.0247571C16.8832 -0.0246968 17.8667 0.017692 18.8473 0.00356237C19.5983 -0.0126868 20.2984 0.631626 20.3111 1.38968C20.3267 2.33355 20.3041 3.27882 20.3189 4.22268C20.3083 4.57875 20.5725 4.89455 20.9145 4.97438C21.8061 5.23084 22.6828 5.5537 23.5009 5.99455C23.7948 6.13867 24.0767 6.37958 24.4243 6.34708C24.644 6.33366 24.827 6.19448 24.9775 6.04471C25.6126 5.40817 26.2456 4.76738 26.8864 4.13649C27.4163 3.61016 28.3502 3.6144 28.878 4.14215C29.5301 4.78575 30.1758 5.43713 30.8244 6.08498C31.2122 6.46648 31.3669 7.0684 31.1818 7.58414C31.0575 7.98259 30.7247 8.25459 30.4414 8.54071C29.9349 9.04656 29.4283 9.55311 28.9204 10.0582C28.7628 10.2137 28.6371 10.4185 28.6427 10.6467C28.6406 10.9166 28.8045 11.1448 28.9225 11.3765C29.3605 12.1862 29.7116 13.0438 29.9575 13.9319C30.0204 14.1516 30.0953 14.3918 30.2945 14.5275C30.4923 14.6815 30.753 14.6885 30.9925 14.6885C31.8424 14.6836 32.6923 14.6822 33.5415 14.6857C34.1032 14.6744 34.6345 15.0333 34.8641 15.5406C35.0131 15.8415 35.0018 16.1849 34.9983 16.512C34.9891 17.3124 35.0039 18.1143 34.9941 18.9147C34.9778 19.6417 34.3427 20.2987 33.6108 20.3114C32.6436 20.3284 31.6757 20.303 30.7085 20.3199C30.3553 20.3213 30.0543 20.599 29.9794 20.936C29.7046 21.93 29.3054 22.888 28.8031 23.7881C28.7014 23.9767 28.5897 24.1823 28.623 24.4055C28.6463 24.6535 28.8179 24.8485 28.9889 25.0145C29.5732 25.5846 30.1433 26.1689 30.7255 26.7412C31.0801 27.0612 31.3097 27.5359 31.2525 28.0206C31.2221 28.4311 30.9798 28.7878 30.6838 29.0598C30.0903 29.6441 29.5068 30.2382 28.9154 30.8246C28.3524 31.428 27.3068 31.387 26.7769 30.761C26.1912 30.169 25.5978 29.584 25.0135 28.9906C24.8454 28.8217 24.6546 28.6444 24.4066 28.619C24.1813 28.5801 23.9707 28.6854 23.7814 28.7921C22.8827 29.3036 21.9156 29.6879 20.9201 29.9641C20.5824 30.0447 20.309 30.3513 20.3168 30.7074C20.297 31.6745 20.3302 32.6431 20.3111 33.611C20.2984 34.3436 19.6414 34.9766 18.9151 34.995C18.1373 35.0077 17.3594 34.9879 16.5823 34.9985C16.2524 34.9978 15.9069 35.0233 15.5974 34.8876C15.0598 34.6757 14.6755 34.1232 14.6861 33.5418C14.6818 32.6452 14.6847 31.748 14.6882 30.8508C14.6889 30.636 14.6656 30.4029 14.5165 30.2354C14.3568 30.0312 14.0933 29.9691 13.8581 29.8977C12.9566 29.6363 12.0834 29.2767 11.2653 28.8175C11.0752 28.7122 10.8739 28.5936 10.6478 28.6105C10.4118 28.6112 10.2147 28.7596 10.055 28.9185C9.42203 29.5572 8.78619 30.1944 8.15106 30.831C7.75684 31.2344 7.1203 31.3736 6.59608 31.1616C6.24001 31.0295 5.99203 30.7307 5.72993 30.4714C5.193 29.9246 4.63911 29.3933 4.10783 28.8408C3.61046 28.3081 3.6253 27.406 4.13609 26.8874C4.68433 26.3286 5.24174 25.7782 5.79563 25.225C6.01464 24.9968 6.30218 24.7898 6.3693 24.462C6.43571 24.1837 6.27534 23.9279 6.14817 23.6941C5.66069 22.8251 5.28908 21.894 5.02061 20.936C4.94502 20.5983 4.64406 20.322 4.29152 20.3199C3.53699 20.3058 2.78246 20.3213 2.02793 20.3164C1.66409 20.3093 1.28471 20.356 0.938528 20.221C0.386761 20.0091 -0.00604533 19.4396 0.00313901 18.8469C0.000313059 18.021 0.00949787 17.1951 0.000313533 16.3693C-0.00180593 16.1086 0.00384533 15.8394 0.113351 15.5978C0.318939 15.0856 0.831142 14.7005 1.38927 14.6892C2.2858 14.6744 3.18304 14.6885 4.07957 14.6878C4.31271 14.6885 4.56493 14.6582 4.74579 14.4957C4.95774 14.319 5.01426 14.0357 5.08844 13.7842C5.35266 12.8277 5.77161 11.9219 6.24849 11.0537C6.43076 10.7485 6.37495 10.338 6.11426 10.0957C5.46853 9.44501 4.81503 8.80141 4.17 8.15074C3.79627 7.77983 3.64226 7.20334 3.80334 6.69962C3.886 6.41632 4.0711 6.17823 4.28092 5.97618C4.77829 5.48447 5.27142 4.98922 5.76525 4.49397C6.01394 4.24459 6.25626 3.96482 6.59608 3.83977C7.1203 3.62712 7.75684 3.7663 8.15106 4.17041C8.78831 4.80483 9.42274 5.44278 10.0579 6.08003C10.3023 6.35415 10.7297 6.43186 11.047 6.2404C11.8898 5.76282 12.78 5.36507 13.709 5.08813C13.9626 5.00476 14.2523 4.96873 14.4522 4.77445C14.6239 4.6162 14.6868 4.37811 14.6847 4.15133C14.6917 3.23078 14.6748 2.31023 14.6889 1.38968C14.7016 0.720643 15.2506 0.126491 15.9048 0.0247571ZM16.6854 7.30437C14.4374 7.48523 12.2593 8.43262 10.6061 9.96852C9.12389 11.3243 8.05215 13.1265 7.5887 15.0828C6.97546 17.6 7.36686 20.3446 8.67951 22.5814C9.86076 24.616 11.7626 26.2275 13.9753 27.0343C16.2947 27.8998 18.9335 27.8701 21.2345 26.9559C23.5207 26.0601 25.4544 24.3059 26.5713 22.12C27.6487 20.0451 27.9666 17.5915 27.4629 15.3095C26.9458 12.8538 25.4607 10.6319 23.4225 9.17585C21.4888 7.78478 19.0592 7.11079 16.6854 7.30437Z" fill="url(#paint0_linear_719_53)"/>
<path d="M16.8274 8.85581C19.2839 8.65375 21.7997 9.57571 23.5468 11.3123C25.3343 13.0474 26.3043 15.5822 26.117 18.0684C25.9715 20.2521 24.9527 22.3588 23.3335 23.8304C22.2879 24.7948 20.9992 25.4935 19.6209 25.8432C17.3276 26.4317 14.8012 26.0248 12.8202 24.7248C10.917 23.4984 9.52164 21.5033 9.05748 19.2842C8.50713 16.8271 9.13095 14.1467 10.6881 12.1706C12.1519 10.2723 14.436 9.03525 16.8274 8.85581ZM14.2403 12.5493C13.822 13.3476 13.7337 14.3049 13.9803 15.1697C14.1294 15.7285 14.4466 16.2202 14.8125 16.661C14.7306 16.7176 14.6479 16.7734 14.5631 16.8249C13.4956 17.4233 12.6924 18.4753 12.3985 19.6636C12.1759 20.575 12.284 21.5188 12.2557 22.4457C12.2649 22.7877 12.2021 23.1875 12.455 23.4624C12.6316 23.6785 12.9227 23.7344 13.1883 23.7294C15.969 23.7266 18.7498 23.728 21.5305 23.7287C21.8096 23.7372 22.1056 23.6404 22.2702 23.4023C22.4405 23.1939 22.42 22.9106 22.4214 22.6591C22.4115 21.9738 22.4256 21.2892 22.4157 20.6046C22.3691 19.2425 21.6711 17.9186 20.5676 17.1174C20.3881 16.9917 20.1981 16.8815 20.0314 16.7388C20.2751 16.4484 20.5217 16.1545 20.6863 15.8097C21.0459 15.1223 21.1427 14.3162 21.0162 13.556C20.853 12.6079 20.2892 11.7376 19.4902 11.2013C18.8317 10.7457 18.0164 10.5295 17.2188 10.586C15.9698 10.6467 14.7949 11.4324 14.2403 12.5493Z" fill="url(#paint1_linear_719_53)"/>
<path d="M17.2414 12.1494C17.8752 12.0753 18.5329 12.3176 18.9617 12.7909C19.5707 13.4211 19.688 14.4589 19.238 15.2106C18.8642 15.8641 18.1104 16.2866 17.3545 16.2223C16.241 16.2244 15.3092 15.1407 15.4067 14.0456C15.4618 13.082 16.2721 12.2229 17.2414 12.1494Z" fill="url(#paint2_linear_719_53)"/>
<path d="M16.0446 17.8811C16.4035 17.7836 16.778 17.7674 17.1475 17.7865C17.6335 17.8154 18.1309 17.7321 18.6064 17.8727C19.5531 18.1129 20.357 18.8441 20.6792 19.7675C20.9759 20.5276 20.8262 21.3563 20.865 22.1504C19.7212 22.1978 18.5746 22.1568 17.4294 22.1709C16.2283 22.1631 15.0266 22.1843 13.8263 22.161C13.8143 21.5435 13.7839 20.9204 13.8616 20.3065C14.0262 19.162 14.9263 18.1687 16.0446 17.8811Z" fill="url(#paint3_linear_719_53)"/>
<path d="M16.6854 7.30437C19.0592 7.11079 21.4888 7.78478 23.4225 9.17585C25.4607 10.6319 26.9458 12.8538 27.4629 15.3095C27.9666 17.5915 27.6487 20.0451 26.5713 22.12C25.4544 24.3059 23.5207 26.0601 21.2345 26.9559C18.9335 27.8701 16.2947 27.8998 13.9753 27.0343C11.7626 26.2275 9.86076 24.616 8.67951 22.5814C7.36686 20.3446 6.97546 17.6 7.5887 15.0828C8.05215 13.1265 9.12389 11.3243 10.6061 9.96852C12.2593 8.43262 14.4374 7.48523 16.6854 7.30437ZM16.8274 8.85581C14.436 9.03525 12.1519 10.2723 10.6881 12.1706C9.13095 14.1467 8.50713 16.8271 9.05748 19.2842C9.52164 21.5033 10.917 23.4984 12.8202 24.7248C14.8012 26.0248 17.3276 26.4317 19.6209 25.8432C20.9992 25.4935 22.2879 24.7948 23.3335 23.8304C24.9527 22.3588 25.9715 20.2521 26.117 18.0684C26.3043 15.5822 25.3343 13.0474 23.5468 11.3123C21.7997 9.57571 19.2839 8.65375 16.8274 8.85581Z" fill="black" fill-opacity="0.01"/>
<path d="M14.2403 12.5493C14.7949 11.4324 15.9698 10.6467 17.2188 10.586C18.0164 10.5295 18.8317 10.7457 19.4902 11.2013C20.2892 11.7376 20.853 12.6079 21.0162 13.556C21.1427 14.3162 21.0459 15.1223 20.6863 15.8097C20.5217 16.1545 20.2751 16.4484 20.0314 16.7388C20.1981 16.8815 20.3881 16.9917 20.5676 17.1174C21.6711 17.9186 22.3691 19.2425 22.4157 20.6046C22.4256 21.2892 22.4115 21.9738 22.4214 22.6591C22.42 22.9106 22.4405 23.1939 22.2702 23.4023C22.1056 23.6404 21.8096 23.7372 21.5305 23.7287C18.7498 23.728 15.969 23.7266 13.1883 23.7294C12.9227 23.7344 12.6316 23.6785 12.455 23.4624C12.2021 23.1875 12.2649 22.7877 12.2557 22.4457C12.284 21.5188 12.1759 20.575 12.3985 19.6636C12.6924 18.4753 13.4956 17.4233 14.5631 16.8249C14.6479 16.7734 14.7306 16.7176 14.8125 16.661C14.4466 16.2202 14.1294 15.7285 13.9803 15.1697C13.7337 14.3049 13.822 13.3476 14.2403 12.5493ZM17.2414 12.1494C16.2721 12.2229 15.4618 13.082 15.4067 14.0456C15.3092 15.1407 16.241 16.2244 17.3545 16.2223C18.1104 16.2866 18.8642 15.8641 19.238 15.2106C19.688 14.4589 19.5707 13.4211 18.9617 12.7909C18.5329 12.3176 17.8752 12.0753 17.2414 12.1494ZM16.0446 17.8811C14.9263 18.1687 14.0262 19.162 13.8616 20.3065C13.7839 20.9204 13.8143 21.5435 13.8263 22.161C15.0266 22.1843 16.2283 22.1631 17.4294 22.1709C18.5746 22.1568 19.7212 22.1978 20.865 22.1504C20.8262 21.3563 20.9759 20.5276 20.6792 19.7675C20.357 18.8441 19.5531 18.1129 18.6064 17.8727C18.1309 17.7321 17.6335 17.8154 17.1475 17.7865C16.778 17.7674 16.4035 17.7836 16.0446 17.8811Z" fill="black" fill-opacity="0.01"/>
<defs>
<linearGradient id="paint0_linear_719_53" x1="17.1072" y1="-0.718989" x2="17.1072" y2="34.5114" gradientUnits="userSpaceOnUse">
<stop stop-color="#EDE527"/>
<stop offset="1" stop-color="#FE401C"/>
</linearGradient>
<linearGradient id="paint1_linear_719_53" x1="17.1072" y1="-0.718989" x2="17.1072" y2="34.5114" gradientUnits="userSpaceOnUse">
<stop stop-color="#EDE527"/>
<stop offset="1" stop-color="#FE401C"/>
</linearGradient>
<linearGradient id="paint2_linear_719_53" x1="17.1072" y1="-0.718989" x2="17.1072" y2="34.5114" gradientUnits="userSpaceOnUse">
<stop stop-color="#EDE527"/>
<stop offset="1" stop-color="#FE401C"/>
</linearGradient>
<linearGradient id="paint3_linear_719_53" x1="17.1072" y1="-0.718989" x2="17.1072" y2="34.5114" gradientUnits="userSpaceOnUse">
<stop stop-color="#EDE527"/>
<stop offset="1" stop-color="#FE401C"/>
</linearGradient>
</defs>
</svg>
