<svg width="10" height="10" viewBox="0 0 10 10" fill="none" xmlns="http://www.w3.org/2000/svg">
<path d="M4.67354 0.00141918C3.75662 0.0723781 2.95231 0.346753 2.21329 0.842519C1.92846 1.03269 1.70893 1.21434 1.46101 1.46223C1.20836 1.71484 1.02952 1.93339 0.831756 2.22858C0.382286 2.90222 0.123013 3.61086 0.0208176 4.44439C0.00189251 4.59766 0 4.66105 0 5.00071C0 5.40659 0.00946253 5.54 0.0615064 5.84086C0.237509 6.8674 0.721045 7.79933 1.46101 8.53919C1.71366 8.79181 1.93225 8.97062 2.22748 9.16836C2.83119 9.57046 3.48694 9.82875 4.19663 9.94323C4.507 9.99338 4.60068 10 5 10C5.39932 10 5.493 9.99338 5.80337 9.94323C7.69304 9.63858 9.26003 8.25914 9.80223 6.42367C9.88645 6.13794 9.93944 5.87871 9.97918 5.55703C9.99811 5.40376 10 5.34037 10 5.00071C10 4.59482 9.99054 4.45953 9.93849 4.16056C9.82021 3.47557 9.56472 2.82842 9.18622 2.25318C8.41881 1.08851 7.20288 0.29377 5.83365 0.0619708C5.55734 0.015611 5.4173 0.00425753 5.06151 0.00141918C4.87415 -0.000473059 4.70004 -0.000473059 4.67354 0.00141918ZM5.42581 0.785751C6.30678 0.877525 7.12718 1.23421 7.78198 1.80945C8.56927 2.50106 9.06321 3.42258 9.20136 4.45385C9.31207 5.28738 9.16446 6.1493 8.78123 6.90714C8.53142 7.39912 8.20212 7.82298 7.78198 8.19197C6.50927 9.30933 4.66881 9.55438 3.14913 8.80978C2.30791 8.39822 1.62945 7.72648 1.2112 6.892C0.610333 5.69516 0.613172 4.29017 1.21877 3.09428C1.46858 2.6023 1.79788 2.17844 2.21802 1.80945C2.85201 1.25313 3.63834 0.902124 4.48902 0.795213C4.76628 0.760206 5.14572 0.756422 5.42581 0.785751Z" fill="url(#paint0_linear_433_2)"/>
<path d="M4.35182 2.19925C4.3064 2.22007 4.27706 2.25034 4.25719 2.2967C4.24489 2.32792 4.243 2.44619 4.243 3.28823V4.24381H3.28539C2.37415 4.24381 2.32494 4.24476 2.28899 4.26179C2.24357 4.2826 2.21423 4.31288 2.19436 4.35924C2.18206 4.38952 2.18017 4.47467 2.18017 5.00071C2.18017 5.52675 2.18206 5.6119 2.19436 5.64218C2.21423 5.68854 2.24357 5.71881 2.28899 5.73963C2.32494 5.75666 2.37415 5.7576 3.28539 5.7576H4.243V6.71508C4.243 7.62619 4.24394 7.67539 4.26098 7.71134C4.28179 7.75675 4.31207 7.78608 4.35844 7.80595C4.38872 7.81825 4.47388 7.82014 5.00189 7.82014C5.57154 7.82014 5.61317 7.81825 5.64818 7.80217C5.6955 7.78135 5.73429 7.73688 5.74754 7.68958C5.75322 7.66687 5.757 7.32911 5.757 6.70561V5.7576H6.71272C7.55488 5.7576 7.67316 5.75571 7.70439 5.74341C7.75076 5.72354 7.78104 5.69421 7.80185 5.6488C7.81794 5.61285 7.81983 5.57406 7.81983 5.00071C7.81983 4.42925 7.81794 4.38762 7.80185 4.35262C7.78104 4.30531 7.73656 4.26652 7.68925 4.25327C7.66654 4.2476 7.32873 4.24381 6.70609 4.24381H5.757V3.29486C5.757 2.67231 5.75322 2.33455 5.74754 2.31184C5.73429 2.26453 5.6955 2.22007 5.64818 2.19925C5.61317 2.18317 5.57154 2.18127 5 2.18127C4.42657 2.18127 4.38777 2.18317 4.35182 2.19925Z" fill="url(#paint1_linear_433_2)"/>
<defs>
<linearGradient id="paint0_linear_433_2" x1="4.88778" y1="-0.205425" x2="4.88778" y2="9.86041" gradientUnits="userSpaceOnUse">
<stop stop-color="#EDE527"/>
<stop offset="1" stop-color="#FE401C"/>
</linearGradient>
<linearGradient id="paint1_linear_433_2" x1="4.88778" y1="-0.205425" x2="4.88778" y2="9.86041" gradientUnits="userSpaceOnUse">
<stop stop-color="#EDE527"/>
<stop offset="1" stop-color="#FE401C"/>
</linearGradient>
</defs>
</svg>
