<svg width="13" height="16" viewBox="0 0 13 16" fill="none" xmlns="http://www.w3.org/2000/svg">
<path d="M0 1C0 0.447715 0.447715 0 1 0H12C12.5523 0 13 0.447715 13 1V15.4907C13 15.6725 12.7771 15.76 12.6534 15.6268L7.23279 9.78916C6.83716 9.3631 6.16284 9.3631 5.76721 9.78916L0.346558 15.6268C0.22287 15.76 0 15.6725 0 15.4907V1Z" fill="white"/>
<path d="M0 1C0 0.447715 0.447715 0 1 0H12C12.5523 0 13 0.447715 13 1V15.4907C13 15.6725 12.7771 15.76 12.6534 15.6268L7.23279 9.78916C6.83716 9.3631 6.16284 9.3631 5.76721 9.78916L0.346558 15.6268C0.22287 15.76 0 15.6725 0 15.4907V1Z" fill="url(#paint0_linear_309_47)"/>
<defs>
<linearGradient id="paint0_linear_309_47" x1="6.35411" y1="-0.328681" x2="6.35411" y2="15.7767" gradientUnits="userSpaceOnUse">
<stop stop-color="#EDE527"/>
<stop offset="1" stop-color="#FE401C"/>
</linearGradient>
</defs>
</svg>
