<svg width="45" height="32" viewBox="0 0 45 32" fill="none" xmlns="http://www.w3.org/2000/svg">
<path d="M2.73469 0.0340499C2.89338 0.010552 3.05459 0.0030531 3.2153 5.33738e-05C16.0717 0.00105328 28.928 0.000553328 41.7844 5.33738e-05C42.6266 -0.00494616 43.4648 0.341521 44.0549 0.939966C44.6681 1.53891 45.0171 2.39583 44.9985 3.25075C44.9905 4.02468 44.6816 4.79011 44.1543 5.35806C43.7109 5.84601 43.1122 6.18848 42.4669 6.32847C42.0787 6.41946 41.6775 6.39896 41.2822 6.39996C28.5936 6.39996 15.9044 6.39946 3.2153 6.40046C2.3731 6.40546 1.53543 6.05799 0.94484 5.46055C0.343704 4.8731 -0.00432156 4.03868 0.000700465 3.20026C-0.00381935 2.43283 0.286956 1.6689 0.797695 1.09495C1.29086 0.528004 1.99043 0.147539 2.73469 0.0340499Z" fill="url(#paint0_linear_579_11)"/>
<path d="M2.73469 12.8329C2.89338 12.8094 3.05459 12.8019 3.2153 12.7989C15.8874 12.7999 28.5594 12.7994 41.2315 12.7994C41.6574 12.8014 42.0908 12.7754 42.5076 12.8799C43.3608 13.0728 44.1187 13.6328 44.5591 14.3842C44.8358 14.8572 44.994 15.4001 44.9985 15.9486C45.0181 16.8155 44.6565 17.6829 44.0298 18.2849C43.4412 18.8683 42.6141 19.2038 41.7839 19.1993C28.928 19.1988 16.0717 19.1988 3.2153 19.1993C2.3731 19.2043 1.53543 18.8568 0.94484 18.2594C0.343704 17.6719 -0.00432156 16.8375 0.000700465 15.9991C-0.00381935 15.2316 0.286956 14.4672 0.797695 13.8933C1.29136 13.3268 1.99043 12.9464 2.73469 12.8329Z" fill="url(#paint1_linear_579_11)"/>
<path d="M2.73469 25.6317C3.11034 25.5787 3.4905 25.6027 3.86816 25.5982C16.5071 25.5982 29.1455 25.5987 41.7844 25.5977C42.6266 25.5927 43.4648 25.9387 44.0549 26.5371C44.7057 27.1725 45.0568 28.0975 44.9925 29.0029C44.9272 30.2803 44.0067 31.4561 42.7823 31.8401C42.1877 32.0526 41.5494 31.9886 40.9307 31.9976C28.359 31.9976 15.7869 31.9971 3.2153 31.9981C2.59859 32.0021 1.98591 31.8161 1.46914 31.4831C0.812259 31.0587 0.316586 30.3917 0.113194 29.6378C-0.104762 28.8559 -0.00482348 27.993 0.38589 27.2805C0.853942 26.4061 1.74987 25.7772 2.73469 25.6317Z" fill="url(#paint2_linear_579_11)"/>
<defs>
<linearGradient id="paint0_linear_579_11" x1="22.5" y1="0" x2="22.5" y2="32" gradientUnits="userSpaceOnUse">
<stop stop-color="#EEDC26"/>
<stop offset="1" stop-color="#FC4E1D"/>
</linearGradient>
<linearGradient id="paint1_linear_579_11" x1="22.5" y1="0" x2="22.5" y2="32" gradientUnits="userSpaceOnUse">
<stop stop-color="#EEDC26"/>
<stop offset="1" stop-color="#FC4E1D"/>
</linearGradient>
<linearGradient id="paint2_linear_579_11" x1="22.5" y1="0" x2="22.5" y2="32" gradientUnits="userSpaceOnUse">
<stop stop-color="#EEDC26"/>
<stop offset="1" stop-color="#FC4E1D"/>
</linearGradient>
</defs>
</svg>
