<svg width="98" height="99" viewBox="0 0 98 99" fill="none" xmlns="http://www.w3.org/2000/svg">
<path d="M10.8546 0.377291C17.6162 -0.291411 24.449 0.14001 31.232 0.104058C37.0257 0.0249647 42.5489 4.18098 44.0009 9.85416C44.855 13.4206 44.5204 17.1236 44.5774 20.7547C44.4848 25.0042 44.8051 29.2825 44.3354 33.5176C43.6379 39.7013 38.0506 44.7848 31.9082 44.9358C25.5095 45.1156 19.0966 45.1156 12.7051 44.9358C6.55557 44.7848 0.968313 39.7013 0.270796 33.5176C-0.220313 28.8007 0.156915 24.0479 0.0287999 19.3166C0.0928576 15.477 -0.312841 11.4073 1.32419 7.81929C3.09645 4.00841 6.71927 1.06037 10.8546 0.377291ZM11.5877 9.53778C9.31005 10.1993 9.01111 12.9101 8.96129 14.9305C8.87588 19.7624 8.9257 24.6015 8.93282 29.4335C9.06094 31.3605 8.9257 33.7692 10.6339 35.0635C12.7407 36.3218 15.3315 35.9695 17.6731 36.0773C22.5985 35.8832 27.5736 36.4512 32.4633 35.7106C34.7552 35.3871 35.6164 32.9136 35.6093 30.8715C35.7944 25.8023 35.6591 20.726 35.6805 15.6568C35.6093 13.4493 35.5666 10.3287 33.0185 9.53778C29.4099 8.6318 25.6305 9.1567 21.9508 9.02727C18.4988 9.13513 14.9685 8.66775 11.5877 9.53778Z" fill="url(#paint0_linear_562_8)"/>
<path d="M64.236 0.377292C70.5279 -0.312981 76.8909 0.204723 83.2184 0.0465356C87.8306 -0.169175 92.6207 1.67155 95.3324 5.57591C98.941 10.3215 97.7595 16.6275 97.9517 22.1856C97.731 28.2614 99.1474 35.3655 94.699 40.3124C91.6171 44.2024 86.4711 45.3241 81.7664 45.0581C76.3286 44.9358 70.8766 45.2522 65.4459 44.8783C59.0758 44.4541 53.6593 38.6802 53.517 32.2449C53.3462 25.7808 53.3462 19.3095 53.517 12.8453C53.6593 6.84141 58.3569 1.33361 64.236 0.377292ZM64.9762 9.5306C62.1577 10.4581 62.3925 13.9886 62.3 16.3902C62.4281 21.6607 62.0367 26.9528 62.5349 32.2017C62.6274 34.1431 64.2075 35.7322 66.1292 35.8329C71.325 36.3362 76.5635 35.9479 81.7807 36.0701C83.9017 35.9263 86.5992 36.2283 88.0725 34.3301C89.2256 32.439 88.9836 30.0878 89.0832 27.9666C88.9765 23.1563 89.2541 18.3388 88.9267 13.5428C88.8911 11.6733 87.8448 9.65283 85.8448 9.3796C82.1437 8.71809 78.3571 9.13513 74.6204 9.02727C71.4104 9.11356 68.115 8.70371 64.9762 9.5306Z" fill="url(#paint1_linear_562_8)"/>
<path d="M10.8546 54.3048C14.5272 53.744 18.2497 54.0388 21.9508 53.9813C25.8796 54.0532 29.8512 53.7152 33.7587 54.3048C39.6307 55.2684 44.3211 60.7762 44.4706 66.7729C44.6485 73.237 44.6414 79.7155 44.4777 86.1724C44.3354 92.8523 38.5204 98.7268 31.9082 98.8706C25.5166 99.0431 19.1038 99.0431 12.7051 98.8706C6.96126 98.7196 1.65871 94.2903 0.470086 88.61C-0.362665 83.7781 0.199619 78.8383 0.0359162 73.9632C0.114209 69.8863 -0.405371 65.5649 1.33131 61.7397C3.10357 57.936 6.71927 54.9879 10.8546 54.3048ZM11.5877 63.4653C8.77623 64.3929 9.01823 67.9162 8.91858 70.3177C9.0467 75.5883 8.65524 80.8803 9.15346 86.1221C9.25311 88.0707 10.8261 89.6597 12.7478 89.7604C17.4596 90.2637 22.2141 89.8611 26.9473 90.0049C29.2818 89.897 31.8726 90.2494 33.9723 88.9839C35.8513 87.4955 35.5524 84.7775 35.6947 82.6276C35.6093 77.5728 35.8655 72.5108 35.5452 67.4704C35.5025 65.6009 34.4634 63.5732 32.4633 63.3072C28.7622 62.6456 24.9757 63.0627 21.239 62.9548C18.029 63.0411 14.7336 62.6313 11.5877 63.4653Z" fill="url(#paint2_linear_562_8)"/>
<path d="M64.236 54.3048C67.9086 53.7368 71.6382 54.0388 75.3322 53.9813C79.2682 54.0532 83.2326 53.7152 87.1402 54.2977C93.0121 55.2612 97.7097 60.769 97.8591 66.7729C98.0228 73.237 98.03 79.7155 97.8591 86.1724C97.7097 92.6078 92.3004 98.3816 85.9302 98.8131C80.7415 99.1726 75.5315 98.8562 70.3357 98.9856C66.5705 99.0216 62.4851 98.9497 59.3035 96.62C55.6736 94.1825 53.46 89.8898 53.4743 85.4965C53.4031 79.2553 53.3248 73.0069 53.517 66.7729C53.6664 60.769 58.3569 55.2612 64.236 54.3048ZM64.9691 63.4582C62.6915 64.1269 62.3925 66.8376 62.3427 68.8581C62.2573 73.69 62.3071 78.5219 62.3142 83.361C62.4281 85.4175 62.3356 88.1785 64.4708 89.2715C67.0047 90.2853 69.8232 89.9186 72.4923 89.9977C76.7415 89.8683 81.012 90.2565 85.2469 89.7604C86.8982 89.6238 88.464 88.4518 88.7202 86.7333C89.3537 83.2316 88.9836 79.6508 89.069 76.1132C88.9978 72.82 89.3252 69.4765 88.7202 66.2121C88.4711 64.4864 86.9053 63.3071 85.2469 63.1849C81.4888 62.7175 77.6881 63.0483 73.9158 62.9548C70.9336 63.0195 67.8801 62.6744 64.9691 63.4582Z" fill="url(#paint3_linear_562_8)"/>
<defs>
<linearGradient id="paint0_linear_562_8" x1="49" y1="0" x2="49" y2="99" gradientUnits="userSpaceOnUse">
<stop stop-color="#EEDC26"/>
<stop offset="1" stop-color="#FC4E1D"/>
</linearGradient>
<linearGradient id="paint1_linear_562_8" x1="49" y1="0" x2="49" y2="99" gradientUnits="userSpaceOnUse">
<stop stop-color="#EEDC26"/>
<stop offset="1" stop-color="#FC4E1D"/>
</linearGradient>
<linearGradient id="paint2_linear_562_8" x1="49" y1="0" x2="49" y2="99" gradientUnits="userSpaceOnUse">
<stop stop-color="#EEDC26"/>
<stop offset="1" stop-color="#FC4E1D"/>
</linearGradient>
<linearGradient id="paint3_linear_562_8" x1="49" y1="0" x2="49" y2="99" gradientUnits="userSpaceOnUse">
<stop stop-color="#EEDC26"/>
<stop offset="1" stop-color="#FC4E1D"/>
</linearGradient>
</defs>
</svg>
