<svg width="124" height="100" viewBox="0 0 124 100" fill="none" xmlns="http://www.w3.org/2000/svg">
<path d="M39.857 1.84173C41.3028 0.527897 43.3008 0.0166171 45.2182 0.00577178C56.0242 0.00267311 66.8303 0.00732137 77.6363 0.00422271C78.8013 -0.0112706 79.985 0.00112407 81.1189 0.303244C82.8145 0.716916 84.3983 1.74412 85.2965 3.26247C87.3907 6.9065 89.4259 10.5877 91.5449 14.2163C92.0661 14.3526 92.6153 14.2689 93.1489 14.2844C95.8372 14.2875 98.5271 14.272 101.215 14.2906C107.054 14.382 112.817 16.7928 116.975 20.8892C120.805 24.5844 123.29 29.6414 123.853 34.9324C124.041 36.5235 123.993 38.1287 123.999 39.7276C123.996 52.1222 124.003 64.5185 123.994 76.9131C123.993 82.7681 121.641 88.5734 117.573 92.786C114.206 96.334 109.684 98.7835 104.858 99.6186C102.228 100.148 99.5354 99.9594 96.8719 99.9951C73.2416 99.9951 49.6098 99.9951 25.9795 99.9951C24.2173 99.978 22.4488 100.057 20.6959 99.8525C15.7583 99.3289 11.0254 97.149 7.40321 93.7606C2.83321 89.5464 0.0781787 83.4374 0.00526961 77.2199C0.0021671 64.1032 0.00682083 50.985 0.00371832 37.8684C-0.0691907 33.8432 0.93137 29.7963 2.89371 26.2778C6.18858 20.2741 12.2617 15.874 19.0159 14.6749C21.5631 14.1605 24.1738 14.3015 26.7551 14.2829C28.6446 14.2519 30.5402 14.3433 32.425 14.2426C32.7492 13.8243 32.9633 13.3347 33.2316 12.8792C34.7906 10.1493 36.3357 7.41313 37.8932 4.68166C38.4625 3.68234 38.9697 2.60865 39.857 1.84173ZM42.1762 30.3371C41.6208 30.7693 41.0205 31.1567 40.5427 31.6788C40.6606 31.9143 40.8126 32.1312 40.9693 32.3435C42.3623 34.1593 43.7212 35.9999 45.105 37.8234C45.4928 38.327 45.8278 38.8785 46.2932 39.3185C47.8414 38.0744 49.4438 36.8799 51.2231 35.9782C55.5914 33.6836 60.7075 32.8485 65.5831 33.6077C71.2824 34.4351 76.6094 37.4671 80.289 41.8827C83.8414 46.0953 85.8689 51.5815 85.8301 57.094C85.1196 57.1824 84.4014 57.1297 83.6863 57.1374C81.2585 57.1421 78.8293 57.1312 76.4015 57.139C76.4853 57.3311 76.5877 57.5139 76.7103 57.6874C81.0429 63.4339 85.3585 69.1943 89.685 74.9455C89.9921 75.3421 90.245 75.7914 90.6374 76.1152C91.6442 74.8881 92.5455 73.579 93.5166 72.324C97.3078 67.2546 101.146 62.2177 104.906 57.1266C101.968 57.1529 99.0282 57.1235 96.0901 57.1452C95.8528 57.1374 95.6077 57.1452 95.3874 57.0522C95.3641 52.13 94.2751 47.2031 92.1251 42.7674C89.9875 38.2789 86.8136 34.291 82.9385 31.1768C77.9606 27.1547 71.7943 24.6138 65.4218 23.9879C57.242 23.111 48.7659 25.4148 42.1762 30.3371ZM33.0951 38.4633C28.8028 44.1943 24.495 49.9144 20.198 55.6423C19.8365 56.1195 19.4503 56.5843 19.1493 57.1064C22.2875 57.187 25.4288 57.1002 28.5655 57.1452C28.6973 58.098 28.6229 59.0663 28.7438 60.0223C29.279 66.5822 31.8541 72.9515 36.0053 78.0612C39.5437 82.4489 44.213 85.9225 49.4438 88.0327C55.8629 90.6511 63.1073 91.1639 69.8428 89.5402C74.8425 88.3317 79.5723 85.9597 83.4799 82.6116C83.0378 81.8648 82.439 81.2249 81.9442 80.5138C80.5388 78.6685 79.1752 76.7876 77.7496 74.961C77.0888 75.3173 76.5877 75.9107 75.9563 76.3213C73.1641 78.371 69.9282 79.8228 66.5294 80.5076C63.2779 81.1366 59.8915 81.0917 56.6634 80.3449C51.5876 79.1953 46.9339 76.3104 43.6266 72.2992C40.2557 68.2709 38.298 63.0962 38.1615 57.8486C38.1708 57.6131 38.1336 57.3543 38.2655 57.1467C41.3695 57.0971 44.4782 57.1917 47.5808 57.1033C46.9696 56.0266 46.1148 55.1109 45.4059 54.0976C42.6803 50.4676 39.9517 46.839 37.2261 43.2074C35.9432 41.5372 34.7317 39.8097 33.4054 38.1751C33.2875 38.2557 33.1835 38.3518 33.0951 38.4633Z" fill="url(#paint0_linear_536_11)"/>
<defs>
<linearGradient id="paint0_linear_536_11" x1="62" y1="0" x2="62" y2="100" gradientUnits="userSpaceOnUse">
<stop stop-color="#EEDC26"/>
<stop offset="1" stop-color="#FC4E1D"/>
</linearGradient>
</defs>
</svg>
