<svg width="12" height="12" viewBox="0 0 12 12" fill="none" xmlns="http://www.w3.org/2000/svg">
<path d="M4.55308 0.108205C5.63438 -0.094295 6.77799 -0.0190066 7.80477 0.38859C9.59871 1.09345 10.9902 2.75628 11.3174 4.66186C11.4796 5.69123 11.4186 6.77253 11.0318 7.74739C10.3957 9.41412 8.93409 10.7408 7.20895 11.1977C5.85635 11.5533 4.36746 11.4287 3.1226 10.7771C1.73366 10.0865 0.669234 8.79494 0.235676 7.30734C-0.238122 5.76003 0.0150044 4.01931 0.88212 2.65633C1.69212 1.35566 3.0525 0.413253 4.55308 0.108205ZM3.0824 3.57142C3.16808 3.83883 3.39913 4.01926 3.58346 4.21786C4.07932 4.69426 4.5713 5.17585 5.04769 5.67171C4.4337 6.41681 3.68601 7.03339 3.03827 7.74604C3.21221 7.95243 3.3537 8.19907 3.59255 8.33926C4.38308 7.78628 4.95163 6.96589 5.69413 6.34801C6.42106 6.98926 7.06231 7.72008 7.77106 8.3821C7.98264 8.177 8.19293 7.9706 8.40581 7.76551C7.71783 7.06844 6.99481 6.40642 6.33928 5.6782C7.01947 4.96945 7.75418 4.31522 8.41101 3.5831C8.18644 3.40527 7.96966 3.21705 7.76586 3.01455C7.05711 3.67267 6.42235 4.40609 5.69413 5.04214C4.96721 4.39181 4.33894 3.64022 3.59514 3.00806C3.4199 3.19238 3.23558 3.36892 3.0824 3.57142Z" fill="url(#paint0_linear_730_332)"/>
<defs>
<linearGradient id="paint0_linear_730_332" x1="5.57276" y1="-0.234039" x2="5.57276" y2="11.2339" gradientUnits="userSpaceOnUse">
<stop stop-color="#EDE527"/>
<stop offset="1" stop-color="#FE401C"/>
</linearGradient>
</defs>
</svg>
