<svg width="7" height="7" viewBox="0 0 7 7" fill="none" xmlns="http://www.w3.org/2000/svg">
<path d="M1.27522 0.0424844C1.52189 0.0139592 1.77208 -0.0231236 2.01981 0.0189511C3.06525 0.228611 4.10999 0.44576 5.15614 0.652568C5.29055 0.67931 5.42357 0.713184 5.55552 0.751336C5.57804 1.0587 5.56784 1.36677 5.56819 1.67484C5.57065 2.61439 5.56467 3.55358 5.57065 4.49313C5.86588 4.44214 6.17378 4.29916 6.47042 4.42324C6.75368 4.52059 6.94018 4.79122 7 5.07968V5.53216C6.94968 5.70724 6.91942 5.88944 6.94264 6.072C6.95813 6.31375 7.01689 6.59473 6.84939 6.79868C6.65621 7.05969 6.21952 7.06361 6.03021 6.79619C5.8965 6.5958 5.82506 6.36046 5.70859 6.15009C5.65299 6.1533 5.5974 6.15651 5.54215 6.16007C5.55482 6.46743 5.74695 6.71525 5.85497 6.99158C5.29865 7.00834 4.74162 6.99408 4.18494 6.99872C2.79008 6.99515 1.39486 7.00585 0 6.99337C0.0763585 6.8347 0.16257 6.68102 0.240688 6.52341C0.36068 6.29307 0.314935 6.02494 0.320917 5.77534C0.323028 4.73595 0.312824 3.69621 0.325843 2.65682C0.56266 2.63543 0.799829 2.61403 1.03735 2.60654C1.04192 3.82885 1.0289 5.05187 1.04333 6.27418C1.11899 6.27382 1.19464 6.27346 1.2703 6.27382C1.28191 5.04189 1.2703 3.8096 1.27522 2.57766C1.50852 2.55983 1.74217 2.54272 1.97547 2.5256C1.97547 2.44716 1.97582 2.36836 1.97617 2.28956C1.74217 2.30204 1.50817 2.31666 1.27487 2.33627C1.27452 1.57179 1.27381 0.80696 1.27522 0.0424844ZM1.97758 0.25678C1.97934 0.929975 1.97477 1.60317 1.97969 2.27637C2.12819 2.30596 2.27774 2.32949 2.42764 2.34839C3.39602 2.47497 4.36229 2.61974 5.33137 2.74061C5.33102 2.13909 5.33137 1.53756 5.33137 0.936037C4.2145 0.70427 3.09586 0.481773 1.97758 0.25678ZM1.97793 3.38635C1.97758 4.34765 1.97828 5.30895 1.97723 6.27025C2.45473 6.27631 2.93259 6.27667 3.40974 6.27025C3.4291 6.07842 3.45232 5.88302 3.41326 5.69226C3.36013 5.44124 3.34429 5.17524 3.41572 4.926C3.50651 4.61864 3.80139 4.39722 4.11316 4.37226C4.3359 4.34837 4.54808 4.43287 4.76273 4.47566C4.94993 4.51666 5.14206 4.51809 5.33243 4.51738C5.32961 4.0107 5.33243 3.50402 5.33102 2.99734C5.17232 2.96775 5.01222 2.94457 4.85211 2.92496C3.89745 2.7998 2.94315 2.66894 1.98849 2.54522C1.96632 2.82512 1.9818 3.10609 1.97793 3.38635ZM4.1304 4.83223C3.95938 4.86681 3.81406 5.00587 3.76937 5.17667C3.69019 5.44124 3.87739 5.74682 4.1501 5.78212C4.43865 5.84237 4.73141 5.57745 4.70432 5.28043C4.69869 4.99375 4.40592 4.76341 4.1304 4.83223ZM6.06505 4.83044C5.89333 4.86111 5.74624 4.99553 5.69522 5.16383C5.60267 5.43553 5.80325 5.75537 6.08581 5.78425C6.35852 5.8331 6.6351 5.59314 6.62736 5.31216C6.64214 5.018 6.34831 4.76733 6.06505 4.83044ZM4.89821 4.95488C4.8032 5.0319 4.85528 5.1731 4.84789 5.27936C5.06852 5.3061 5.30498 5.34354 5.51998 5.27401C5.58015 5.17845 5.59564 4.97307 5.45242 4.94668C5.36691 4.98056 5.29443 5.04545 5.20399 5.06649C5.09209 5.06221 5.01327 4.93313 4.89821 4.95488ZM4.65048 6.15936C4.63429 6.19644 4.61775 6.23388 4.60122 6.27097C4.83944 6.27631 5.07731 6.27631 5.31554 6.27239C5.31483 6.24387 5.31378 6.18682 5.31307 6.15829C5.09244 6.14902 4.87111 6.14866 4.65048 6.15936ZM2.05887 6.52127C2.09335 6.59651 2.12256 6.67567 2.17217 6.74306C2.25416 6.7641 2.34037 6.75982 2.42447 6.76124C2.77565 6.75518 3.12683 6.7591 3.47801 6.75946C3.45126 6.68494 3.42734 6.60935 3.39215 6.53875C3.31051 6.50131 3.21691 6.51486 3.12964 6.51093C2.77248 6.51985 2.41532 6.50487 2.05887 6.52127ZM4.47348 6.52341C4.44533 6.59829 4.41718 6.67282 4.38903 6.74769C4.74936 6.75839 5.11039 6.76089 5.47072 6.74627C5.4387 6.67424 5.41019 6.60008 5.36656 6.53447C5.07239 6.48776 4.77047 6.51771 4.47348 6.52341Z" fill="url(#paint0_linear_691_107)"/>
<path d="M0.322676 0.139114C0.557734 0.0845591 0.799477 0.0724359 1.04016 0.0710096C1.03489 0.830137 1.03841 1.58926 1.03805 2.34839C0.801237 2.38084 0.562308 2.39653 0.324084 2.41436C0.316694 1.65594 0.319158 0.897528 0.322676 0.139114Z" fill="url(#paint1_linear_691_107)"/>
<path d="M4.16347 5.07326C4.33238 5.01586 4.51536 5.1977 4.45835 5.36993C4.42281 5.53466 4.20359 5.60597 4.07973 5.49401C3.93053 5.38383 3.98472 5.11676 4.16347 5.07326Z" fill="url(#paint2_linear_691_107)"/>
<path d="M6.09812 5.07112C6.26175 5.02334 6.43347 5.19628 6.38315 5.36244C6.35043 5.53644 6.10903 5.61346 5.98904 5.48082C5.8504 5.36172 5.91761 5.1025 6.09812 5.07112Z" fill="url(#paint3_linear_691_107)"/>
<defs>
<linearGradient id="paint0_linear_691_107" x1="3.42144" y1="-0.143798" x2="3.42144" y2="6.90229" gradientUnits="userSpaceOnUse">
<stop stop-color="#EDE527"/>
<stop offset="1" stop-color="#FE401C"/>
</linearGradient>
<linearGradient id="paint1_linear_691_107" x1="3.42144" y1="-0.143798" x2="3.42144" y2="6.90229" gradientUnits="userSpaceOnUse">
<stop stop-color="#EDE527"/>
<stop offset="1" stop-color="#FE401C"/>
</linearGradient>
<linearGradient id="paint2_linear_691_107" x1="3.42144" y1="-0.143798" x2="3.42144" y2="6.90229" gradientUnits="userSpaceOnUse">
<stop stop-color="#EDE527"/>
<stop offset="1" stop-color="#FE401C"/>
</linearGradient>
<linearGradient id="paint3_linear_691_107" x1="3.42144" y1="-0.143798" x2="3.42144" y2="6.90229" gradientUnits="userSpaceOnUse">
<stop stop-color="#EDE527"/>
<stop offset="1" stop-color="#FE401C"/>
</linearGradient>
</defs>
</svg>
