<svg width="278" height="222" viewBox="0 0 278 222" fill="none" xmlns="http://www.w3.org/2000/svg">
<g opacity="0.2">
<path d="M65.4266 1.14665C75.3066 -0.960013 86.0666 1.65332 93.68 8.33332C100.453 14.4533 109.933 15.0667 118.413 17.04C133.733 20.2267 149.6 19.8 164.88 16.68C171.947 15.12 179.48 13.96 185.36 9.39999C194.573 2.35998 207.627 0.0133209 218.347 4.93332C230.16 10.2933 238.333 21.0933 244.72 32.0133C257.72 54.9733 264.773 80.64 270.653 106.187C274.453 123.76 277.373 141.653 277.147 159.68C277.027 171.36 277.92 183.267 274.96 194.693C272.893 202.827 270.24 211.413 264.013 217.373C259.533 221.68 252.6 222.453 246.907 220.387C237.747 217.133 230.707 210.027 224.64 202.693C209.28 183.707 198.84 161.36 189.84 138.827C170.147 133.16 149.533 128.947 128.947 130.733C116.587 131.787 104.493 134.76 92.5733 138.053C90.2266 138.84 87.0666 139.293 86.28 142.093C77.8933 162.4 68.1066 182.427 54.4933 199.8C47.6 208.107 39.5066 216.613 28.6666 219.32C22 221.08 15 217.693 11.1866 212.187C3.97329 201.933 2.07996 189.093 1.11996 176.88C-0.813372 140.307 5.98663 103.773 16.9466 69C22.6933 51.5733 29.48 34.08 40.72 19.3733C47.0933 11.28 55.1066 3.59999 65.4266 1.14665ZM80.2533 36.5333C62.8533 38.8933 48.44 55.2933 48.9066 72.96C47.48 91.1733 61.56 109.133 79.6933 111.773C92.8933 114.227 106.653 107.68 114.2 96.8267C125.853 81.6933 123.307 57.5867 108.627 45.3333C101.053 38.4667 90.44 34.84 80.2533 36.5333ZM192.307 40.4133C183.467 43 182.507 56.56 190.68 60.6667C198.96 66.4267 210.667 56.28 206.827 47.24C205.093 41.1467 198.027 38.44 192.307 40.4133ZM170.947 63.0266C162.467 64.36 159.04 76.2933 165.267 82.04C170.587 87.64 181.32 85.5467 183.68 78.0133C187.04 70.24 179.187 60.8933 170.947 63.0266ZM217.6 63C209.56 64.1467 205.493 74.4933 210.547 80.84C215.32 87.8933 227.627 86.04 230.067 77.84C233.013 70.1733 225.733 61.1333 217.6 63ZM192.16 86.7867C187.16 88.5067 184.2 94.2667 185.12 99.3733C186.133 104.747 191.44 108.893 196.88 108.693C204.187 108.293 209.973 99.6 206.48 92.8667C204.36 87.24 197.6 85 192.16 86.7867Z" fill="white"/>
<path d="M74.9466 43.2667C81.48 41.6133 88.4533 41.4533 94.9466 43.3867C96.36 49.0267 95.24 54.8933 96.0933 60.6C96.9866 62.5867 98.6933 64.7067 101.107 64.56C105.92 64.8933 110.733 64.5333 115.547 64.8C117.493 71.4 117.187 78.4667 115.453 85.08C109.053 86.3067 100.16 82.6267 96.2133 89.5733C95.1866 94.8133 96 100.267 94.88 105.52C88.32 107.467 81.32 107.24 74.6666 105.88C73.1466 99.2667 76.56 90.1733 69.2 86.2667C64.12 84.76 58.5733 86.0667 53.3333 85.0933C51.9733 78.5467 51.8533 71.7467 53.1333 65.1733C57.9333 64.6133 62.7733 64.9333 67.5866 64.68C70.3733 64.8667 72.2933 62.44 73.7333 60.4C74.88 54.76 73.9333 48.9333 74.9466 43.2667Z" fill="white"/>
</g>
</svg>
