<svg width="12" height="12" viewBox="0 0 12 12" fill="none" xmlns="http://www.w3.org/2000/svg">
<path d="M4.69802 6.88126C5.95715 5.71169 7.11893 4.44477 8.36378 3.26093C8.56758 3.46083 8.78177 3.65165 9.00244 3.83338C7.59662 5.29501 6.15446 6.72549 4.70061 8.1404C3.94124 7.44333 3.23898 6.68785 2.49518 5.97391C2.70547 5.76751 2.91316 5.55852 3.12734 5.35602C3.65825 5.85578 4.14893 6.39838 4.69802 6.88126Z" fill="white"/>
<path d="M4.61628 0.109221C5.73133 -0.0984714 6.91778 -0.0192887 7.96792 0.42725C9.75018 1.15937 11.1106 2.85076 11.4117 4.75634C11.5558 5.7935 11.4766 6.87739 11.0716 7.84965C10.3784 9.56831 8.80648 10.9053 6.98917 11.287C5.65085 11.5557 4.20739 11.3843 3.01316 10.7041C1.51258 9.89283 0.426093 8.36888 0.14441 6.68658C-0.09184 5.37033 0.159986 3.97619 0.837583 2.8248C1.6372 1.44105 3.04561 0.418163 4.61628 0.109221ZM4.69802 6.88126C4.14893 6.39838 3.65825 5.85578 3.12734 5.35602C2.91316 5.55852 2.70547 5.76751 2.49518 5.97391C3.23898 6.68785 3.94124 7.44333 4.70061 8.1404C6.15446 6.72549 7.59662 5.29501 9.00244 3.83338C8.78177 3.65165 8.56758 3.46083 8.36378 3.26093C7.11893 4.44477 5.95715 5.71169 4.69802 6.88126Z" fill="#42DA5F"/>
</svg>
