<svg width="5" height="5" viewBox="0 0 5 5" fill="none" xmlns="http://www.w3.org/2000/svg">
<path d="M1.04875 0.106004C1.07842 0.0512255 1.14239 0.0302023 1.19617 0.00355324C1.22182 0.00325714 1.27343 0.0023688 1.29939 0.0020727C1.34173 0.0219115 1.38346 0.0426385 1.42549 0.0636617C1.5179 0.168481 1.49193 0.309129 1.49533 0.435268C2.16352 0.43438 2.8317 0.43438 3.49988 0.435268C3.50359 0.309129 3.47701 0.168481 3.56973 0.0636617C3.61238 0.0426385 3.65472 0.0213193 3.69706 0C3.7836 0.000296101 3.88126 0.0168778 3.93503 0.0894225C4.01477 0.18832 3.98263 0.320085 3.99283 0.435861C4.22648 0.434084 4.46043 0.43438 4.69408 0.434972C4.85417 0.428458 4.99665 0.569698 4.99387 0.721598C4.99541 2.02533 4.99356 3.32906 4.99479 4.63309C5.03188 4.82141 4.86561 5.01506 4.66287 4.99907C3.1865 4.99611 1.71013 5.00499 0.234071 4.99463C0.103649 4.94874 -0.012248 4.83266 0.00104149 4.69172C0.000732429 3.36874 0.000423379 2.04576 0.00135055 0.722783C-0.00235814 0.570291 0.140736 0.428458 0.301445 0.434972C0.535093 0.43438 0.76874 0.43438 1.00239 0.435565C1.01166 0.325711 0.984772 0.204902 1.04875 0.106004ZM0.400962 2.04162C0.396944 2.52989 0.410852 3.01905 0.393854 3.50702C0.409616 3.87596 0.397253 4.24609 0.401271 4.61562C1.79883 4.61592 3.19639 4.61592 4.59395 4.61562C4.59858 3.99944 4.58406 3.38236 4.60136 2.76677C4.59055 2.69807 4.59055 2.62819 4.60105 2.5595C4.58931 2.43158 4.58962 2.30248 4.60074 2.17457C4.59704 2.13015 4.59456 2.08574 4.5924 2.04162C3.19515 2.04162 1.79821 2.04162 0.400962 2.04162Z" fill="white"/>
<path d="M1.5624 2.42092C1.72311 2.41322 1.88444 2.41648 2.04546 2.41855C2.04453 2.56808 2.04422 2.71732 2.04484 2.86685C1.88444 2.86774 1.72435 2.87011 1.56425 2.86596C1.56549 2.71761 1.56642 2.56927 1.5624 2.42092Z" fill="white"/>
<path d="M2.26891 2.41707C2.4256 2.41707 2.58229 2.41648 2.73929 2.41707C2.73898 2.5672 2.73898 2.71702 2.73898 2.86685C2.58229 2.86863 2.4256 2.86863 2.2686 2.86685C2.26921 2.71702 2.26983 2.5672 2.26891 2.41707Z" fill="white"/>
<path d="M2.9717 2.41826C3.12932 2.41589 3.28694 2.41648 3.44456 2.41796C3.44178 2.56779 3.44302 2.71761 3.44302 2.86774C3.28601 2.86833 3.12901 2.86833 2.97201 2.86774C2.97139 2.71791 2.97232 2.56808 2.9717 2.41826Z" fill="white"/>
<path d="M3.66368 2.42092C3.82501 2.41263 3.98665 2.41589 4.14828 2.41974C4.14643 2.56897 4.14581 2.71791 4.14674 2.86685C3.99097 2.86951 3.83521 2.86685 3.67944 2.86892C3.6541 2.72087 3.6745 2.57016 3.66368 2.42092Z" fill="white"/>
<path d="M2.64472 3.07738C2.70931 3.07323 2.79678 3.07679 2.81563 3.15111C2.84561 3.27192 2.70406 3.32729 2.63947 3.40753C2.56498 3.46764 2.50935 3.57838 2.40025 3.57631C2.31959 3.55173 2.26921 3.47889 2.21049 3.42441C2.1561 3.38058 2.18052 3.30863 2.20431 3.25563C2.24387 3.24231 2.28374 3.22039 2.32701 3.22898C2.3641 3.24349 2.3916 3.27932 2.43332 3.28139C2.50255 3.2121 2.57147 3.14252 2.64472 3.07738Z" fill="white"/>
<path d="M0.849404 3.09988C1.0095 3.10136 1.16959 3.09603 1.32968 3.10343C1.32937 3.25356 1.3303 3.40398 1.31608 3.5538C1.16063 3.54907 1.00486 3.55173 0.849404 3.55203C0.848786 3.40131 0.848477 3.2506 0.849404 3.09988Z" fill="white"/>
<path d="M1.5556 3.09929C1.7126 3.09988 1.8696 3.10047 2.02691 3.09899C2.0266 3.25 2.02691 3.40102 2.0266 3.55232C1.86929 3.55084 1.71229 3.55114 1.55498 3.55203C1.55344 3.40102 1.55436 3.25 1.5556 3.09929Z" fill="white"/>
<path d="M2.96861 3.09899C3.12561 3.10047 3.28292 3.09958 3.44023 3.09958C3.44023 3.2503 3.44178 3.40131 3.44023 3.55203C3.28292 3.55114 3.12561 3.55084 2.96861 3.55232C2.9683 3.40102 2.96892 3.25 2.96861 3.09899Z" fill="white"/>
<path d="M3.66554 3.10314C3.82594 3.09692 3.98634 3.09988 4.14705 3.10107C4.14581 3.25148 4.14674 3.40161 4.1455 3.55203C3.98634 3.55114 3.82686 3.55084 3.6677 3.55173C3.66554 3.4022 3.6677 3.25267 3.66554 3.10314Z" fill="white"/>
<path d="M0.84755 3.78447C1.00362 3.7821 1.1597 3.78387 1.31577 3.78269C1.33401 3.88751 1.33308 3.9944 1.32041 4.09981C1.32504 4.14364 1.32937 4.18776 1.33339 4.23188C1.17144 4.23809 1.00919 4.23572 0.847241 4.23454C0.849404 4.08442 0.849713 3.93429 0.84755 3.78447Z" fill="white"/>
<path d="M1.55467 3.78506C1.71198 3.7818 1.86929 3.78328 2.0266 3.78328C2.02784 3.934 2.02846 4.08471 2.0263 4.23543C1.86929 4.23572 1.71229 4.23602 1.55529 4.23513C1.55622 4.08501 1.55653 3.93518 1.55467 3.78506Z" fill="white"/>
<path d="M2.26365 3.78387C2.42096 3.78299 2.57827 3.78239 2.73558 3.78447C2.73651 3.93489 2.73589 4.0853 2.73651 4.23572C2.57889 4.23543 2.42158 4.23602 2.26427 4.23543C2.26303 4.08471 2.26396 3.93429 2.26365 3.78387Z" fill="white"/>
<path d="M2.9717 3.78387C3.12901 3.78299 3.28632 3.78269 3.44363 3.78417C3.44271 3.93429 3.44271 4.08442 3.44363 4.23454C3.28632 4.23632 3.12932 4.23572 2.97232 4.23543C2.97139 4.08501 2.97201 3.93429 2.9717 3.78387Z" fill="white"/>
</svg>
