<svg width="27" height="26" viewBox="0 0 27 26" fill="none" xmlns="http://www.w3.org/2000/svg">
<path d="M5.85064 1.3569C7.25689 0.304515 9.03953 0.0298458 10.7394 0.00361328C15.7124 0.00361328 20.6855 0.0051564 25.657 0.00207023C26.1448 -0.0226192 26.5995 0.176438 27 0.443392V1.46954C26.047 7.57554 25.0728 13.6785 24.0866 19.7783C23.7313 22.0713 22.3823 24.2887 20.2774 25.2701C18.9525 25.929 17.4529 25.9738 16.0105 26C11.1896 25.9938 6.36857 26.0031 1.54759 25.9969C1.09741 25.9475 0.550871 26 0.20458 25.6451C-0.108588 25.3118 0.0148739 24.8273 0.0766041 24.4245C1.2299 17.9821 2.2718 11.5212 3.44316 5.08346C3.75784 3.59284 4.64615 2.24726 5.85064 1.3569ZM6.19994 2.17473C5.10084 3.03732 4.37815 4.36129 4.1493 5.75316C3.22184 11.2481 2.26426 16.7384 1.34283 22.2364C1.19377 23.1823 0.952872 24.1144 0.87458 25.0711C6.12014 25.1066 11.3657 25.0742 16.6113 25.0911C17.7149 25.105 18.8486 24.9847 19.8604 24.5017C21.1567 23.903 22.1595 22.7472 22.7271 21.4232C23.3278 20.1023 23.385 18.6225 23.641 17.2106C24.3546 12.8714 25.0277 8.52763 25.7383 4.18847C25.9115 3.10522 26.1162 2.02351 26.2321 0.931009C25.4357 0.873915 24.6362 0.903233 23.8382 0.900147C19.3214 0.900147 14.8045 0.90169 10.2877 0.900147C8.84832 0.914034 7.35023 1.2458 6.19994 2.17473Z" fill="black"/>
<path d="M6.19994 2.17473C7.35023 1.2458 8.84832 0.914034 10.2877 0.900147C14.8045 0.90169 19.3214 0.900147 23.8382 0.900147C24.6362 0.903233 25.4357 0.873915 26.2321 0.931009C26.1162 2.02351 25.9115 3.10522 25.7383 4.18847C25.0277 8.52763 24.3546 12.8714 23.641 17.2106C23.385 18.6225 23.3278 20.1023 22.7271 21.4232C22.1595 22.7472 21.1567 23.903 19.8604 24.5017C18.8486 24.9847 17.7149 25.105 16.6113 25.0911C11.3657 25.0742 6.12014 25.1066 0.87458 25.0711C0.952872 24.1144 1.19377 23.1823 1.34283 22.2364C2.26426 16.7384 3.22184 11.2481 4.1493 5.75316C4.37815 4.36129 5.10084 3.03732 6.19994 2.17473Z" fill="#FF8F00"/>
<path d="M17.018 7.04101C17.2528 6.81002 17.7723 6.84833 17.8787 7.19087C17.8926 7.35875 17.8591 7.52551 17.829 7.69002C17.512 9.24381 17.2158 10.801 16.9092 12.3559C16.8537 12.5734 16.8085 12.8303 16.6026 12.9666C16.3504 13.0815 16.0739 13.0004 15.824 12.9294C15.8136 12.6737 15.8078 12.4156 15.8668 12.1655C16.1676 10.7018 16.4522 9.2348 16.7403 7.76776C16.8005 7.51762 16.8375 7.24157 17.018 7.04101Z" fill="#FF8F00" fill-opacity="0.99"/>
<path d="M14.7191 5.26073C15.3276 4.68834 16.2139 4.55538 17.0249 4.52046C18.1205 4.49003 19.2972 4.47539 20.2748 5.02862C20.807 5.31482 21.1367 5.90411 21.1032 6.49453C21.0719 7.06354 20.9273 7.61791 20.8186 8.17565C20.0503 12.0776 19.2902 15.9807 18.522 19.8826C18.3612 20.7311 17.8926 21.6066 17.0203 21.9288C15.9246 22.3345 14.7098 22.3423 13.5563 22.2364C12.8633 22.1666 12.1032 21.9897 11.6497 21.4308C11.2124 20.8877 11.2471 20.144 11.3697 19.5007C11.5965 18.3773 11.8082 17.2505 12.0349 16.1272C13.0484 16.1035 14.0608 16.117 15.0743 16.1204C14.9366 17.2438 14.6335 18.3412 14.468 19.4601C14.3778 19.8387 14.8464 20.0111 15.1495 19.8894C15.4665 19.824 15.5185 19.4579 15.5856 19.2021C15.8703 17.7181 16.1664 16.2365 16.4314 14.7503C15.964 15.0151 15.5058 15.3542 14.9482 15.3993C14.1082 15.5052 13.1225 15.1897 12.7569 14.3908C12.4873 13.832 12.5972 13.1965 12.7025 12.6128C13.0565 10.8551 13.3978 9.09396 13.7565 7.33622C13.9266 6.59594 14.1568 5.8151 14.7191 5.26073ZM17.018 7.04101C16.8375 7.24157 16.8005 7.51762 16.7403 7.76776C16.4522 9.2348 16.1676 10.7018 15.8668 12.1655C15.8078 12.4156 15.8136 12.6737 15.824 12.9294C16.0739 13.0004 16.3504 13.0815 16.6026 12.9666C16.8085 12.8303 16.8537 12.5734 16.9092 12.3559C17.2158 10.801 17.512 9.24381 17.829 7.69002C17.8591 7.52551 17.8926 7.35875 17.8787 7.19087C17.7723 6.84833 17.2528 6.81002 17.018 7.04101Z" fill="white"/>
<path d="M10.959 4.63764C11.8001 4.6275 12.6412 4.62975 13.4835 4.63538C12.3693 10.4754 11.2043 16.3074 10.0566 22.1407C9.03728 22.1508 8.018 22.1474 6.99988 22.1429C7.80859 17.8849 8.67284 13.637 9.47924 9.3779C8.88109 9.36776 8.28179 9.3779 7.68248 9.36889C7.82248 8.57452 7.95668 7.77678 8.14411 6.99143C8.54904 6.75031 9.0581 6.7165 9.46304 6.46185C10.1965 6.0765 10.6188 5.34637 10.959 4.63764Z" fill="white"/>
</svg>
