<svg width="27" height="26" viewBox="0 0 27 26" fill="none" xmlns="http://www.w3.org/2000/svg">
<path d="M5.85063 1.3569C7.25688 0.304515 9.03953 0.0298457 10.7394 0.00361327C15.7124 0.00361327 20.6855 0.00515639 25.657 0.00207022C26.1448 -0.0226192 26.5995 0.176439 27 0.443393V1.46955C26.0469 7.57554 25.0728 13.6785 24.0866 19.7783C23.7313 22.0713 22.3823 24.2887 20.2774 25.2701C18.9525 25.929 17.4529 25.9738 16.0105 26C11.1895 25.9938 6.36857 26.0031 1.54759 25.9969C1.09741 25.9475 0.550872 26 0.20458 25.6451C-0.108587 25.3118 0.0148731 24.8273 0.0766032 24.4245C1.2299 17.9821 2.27179 11.5212 3.44316 5.08346C3.75783 3.59283 4.64614 2.24726 5.85063 1.3569ZM6.19994 2.17474C5.10084 3.03732 4.37814 4.36129 4.14929 5.75316C3.22183 11.2481 2.26426 16.7384 1.34283 22.2364C1.19377 23.1823 0.952871 24.1143 0.874579 25.0711C6.12014 25.1066 11.3657 25.0741 16.6113 25.0911C17.7149 25.105 18.8486 24.9846 19.8604 24.5017C21.1567 23.9029 22.1594 22.7472 22.7271 21.4232C23.3278 20.1023 23.385 18.6225 23.641 17.2106C24.3546 12.8714 25.0276 8.52763 25.7383 4.18847C25.9114 3.10522 26.1162 2.02351 26.2321 0.931009C25.4357 0.873914 24.6362 0.903233 23.8382 0.900147C19.3214 0.900147 14.8045 0.90169 10.2877 0.900147C8.84831 0.914035 7.35023 1.2458 6.19994 2.17474Z" fill="black"/>
<path d="M6.19994 2.17474C7.35023 1.2458 8.84831 0.914035 10.2877 0.900147C14.8045 0.90169 19.3214 0.900147 23.8382 0.900147C24.6362 0.903233 25.4357 0.873914 26.2321 0.931009C26.1162 2.02351 25.9114 3.10522 25.7383 4.18847C25.0276 8.52763 24.3546 12.8714 23.641 17.2106C23.385 18.6225 23.3278 20.1023 22.7271 21.4232C22.1594 22.7472 21.1567 23.9029 19.8604 24.5017C18.8486 24.9846 17.7149 25.105 16.6113 25.0911C11.3657 25.0741 6.12014 25.1066 0.874579 25.0711C0.952871 24.1143 1.19377 23.1823 1.34283 22.2364C2.26426 16.7384 3.22183 11.2481 4.14929 5.75316C4.37814 4.36129 5.10084 3.03732 6.19994 2.17474ZM9.6237 5.21616C8.56977 5.64514 8.14519 6.83949 8.02324 7.90885C7.88171 8.79612 7.67544 9.67414 7.58962 10.5707C8.45234 10.6355 9.31957 10.6031 10.1838 10.6015C10.5256 9.6047 10.5587 8.53534 10.8538 7.52771C10.9125 7.2947 11.1429 7.19903 11.3085 7.06015C11.4094 7.12033 11.6111 7.23915 11.712 7.29779C11.6683 8.15729 11.4319 8.98901 11.2889 9.83462C11.185 10.4765 10.9803 11.1046 10.6114 11.64C9.1404 13.8405 7.70856 16.0671 6.25715 18.2799C5.82504 19.1333 5.78288 20.1301 5.63834 21.0652C7.49025 21.1161 9.34366 21.0652 11.1956 21.0914C11.4169 21.0513 11.715 21.1732 11.8806 20.9742C12.0899 20.3106 12.1802 19.6132 12.2359 18.9203C11.1715 18.9003 10.1085 18.945 9.04555 18.9003C9.37227 18.2136 9.83901 17.6118 10.2515 16.9791C10.9983 15.8419 11.7557 14.7108 12.5055 13.5751C12.9406 12.9131 13.451 12.2712 13.6467 11.4811C13.847 10.6972 13.9584 9.8948 14.1225 9.1032C14.2986 8.12179 14.5937 7.12187 14.4281 6.11578C14.2399 5.52941 13.6347 5.21462 13.0836 5.08191C11.9469 4.84273 10.7333 4.84428 9.6237 5.21616ZM15.8404 5.73001C15.2547 6.29632 15.0996 7.14193 14.9777 7.91965C14.8482 8.8131 14.6299 9.69266 14.5441 10.5938C15.3857 10.6015 16.2288 10.6386 17.0675 10.5861L17.1804 10.5028C17.5252 9.48588 17.486 8.3656 17.8865 7.36723C17.9964 7.08175 18.3442 7.2052 18.5716 7.14811C18.7251 7.66041 18.5505 8.17426 18.4571 8.67731C18.3277 9.2822 18.2418 9.89634 18.0958 10.4981C17.9061 11.2867 17.3626 11.9039 16.9395 12.569C15.9187 14.1429 14.8934 15.7153 13.8635 17.2846C13.5097 17.8417 13.046 18.3633 12.9255 19.036C12.7855 19.7119 12.6455 20.3909 12.5868 21.0806C14.4326 21.1022 16.2785 21.076 18.1244 21.0945C18.3533 21.0745 18.6047 21.1254 18.817 21.0112C19.0594 20.3585 19.1 19.6487 19.2476 18.9697C18.1651 18.8401 17.0735 18.9712 15.9879 18.8987C16.9666 17.2368 18.1093 15.6783 19.1452 14.0519C19.6993 13.1492 20.4491 12.3267 20.6659 11.2512C20.9173 10.0784 21.101 8.89025 21.3434 7.71442C21.4533 7.08793 21.643 6.3565 21.223 5.80408C20.6388 5.04025 19.5954 4.98161 18.7251 4.92143C17.7375 4.94612 16.5736 4.93686 15.8404 5.73001Z" fill="#0AACE9"/>
<path d="M9.6237 5.21616C10.7333 4.84428 11.9469 4.84273 13.0836 5.08191C13.6347 5.21462 14.2399 5.52941 14.4281 6.11578C14.5937 7.12187 14.2986 8.12179 14.1225 9.1032C13.9584 9.8948 13.847 10.6972 13.6467 11.4811C13.451 12.2712 12.9406 12.9131 12.5055 13.5751C11.7557 14.7108 10.9983 15.8419 10.2515 16.9791C9.83901 17.6118 9.37227 18.2136 9.04555 18.9003C10.1085 18.945 11.1715 18.9003 12.2359 18.9203C12.1802 19.6132 12.0899 20.3106 11.8806 20.9742C11.715 21.1732 11.4169 21.0513 11.1956 21.0914C9.34366 21.0652 7.49025 21.1161 5.63834 21.0652C5.78288 20.1301 5.82504 19.1333 6.25715 18.2799C7.70856 16.0671 9.1404 13.8405 10.6114 11.64C10.9803 11.1046 11.185 10.4765 11.2889 9.83462C11.4319 8.98901 11.6683 8.15729 11.712 7.29779C11.6111 7.23915 11.4094 7.12033 11.3085 7.06015C11.1429 7.19903 10.9125 7.2947 10.8538 7.52771C10.5587 8.53534 10.5256 9.6047 10.1838 10.6015C9.31957 10.6031 8.45234 10.6355 7.58962 10.5707C7.67544 9.67414 7.88171 8.79612 8.02324 7.90885C8.14519 6.83949 8.56977 5.64514 9.6237 5.21616Z" fill="white"/>
<path d="M15.8404 5.73001C16.5736 4.93686 17.7375 4.94612 18.7251 4.92143C19.5954 4.98161 20.6388 5.04025 21.223 5.80408C21.643 6.3565 21.4533 7.08793 21.3434 7.71442C21.101 8.89025 20.9173 10.0784 20.6659 11.2512C20.4491 12.3267 19.6993 13.1492 19.1452 14.0519C18.1093 15.6783 16.9666 17.2368 15.9879 18.8987C17.0735 18.9712 18.1651 18.8401 19.2476 18.9697C19.1 19.6487 19.0594 20.3585 18.817 21.0112C18.6047 21.1254 18.3533 21.0745 18.1244 21.0945C16.2785 21.076 14.4326 21.1022 12.5868 21.0806C12.6455 20.3909 12.7855 19.7119 12.9255 19.036C13.046 18.3633 13.5097 17.8417 13.8635 17.2846C14.8934 15.7153 15.9187 14.1429 16.9395 12.569C17.3626 11.9039 17.9061 11.2867 18.0958 10.4981C18.2418 9.89634 18.3277 9.2822 18.4571 8.67731C18.5505 8.17426 18.7251 7.66041 18.5716 7.14811C18.3442 7.2052 17.9964 7.08175 17.8865 7.36723C17.486 8.3656 17.5252 9.48588 17.1804 10.5028L17.0675 10.5861C16.2288 10.6386 15.3857 10.6015 14.5441 10.5938C14.6299 9.69266 14.8482 8.8131 14.9777 7.91965C15.0996 7.14193 15.2547 6.29632 15.8404 5.73001Z" fill="white"/>
</svg>
