<svg width="219" height="37" viewBox="0 0 219 37" fill="none" xmlns="http://www.w3.org/2000/svg">
<path d="M67.65 29.4H78.85V36H59.1V0.900024H67.65V29.4Z" fill="white"/>
<path d="M81.2281 22C81.2281 19.1334 81.7615 16.6167 82.8281 14.45C83.9281 12.2834 85.4115 10.6167 87.2781 9.45002C89.1448 8.28336 91.2281 7.70002 93.5281 7.70002C95.4948 7.70002 97.2115 8.10002 98.6781 8.90002C100.178 9.70002 101.328 10.75 102.128 12.05V8.10002H110.678V36H102.128V32.05C101.295 33.35 100.128 34.4 98.6281 35.2C97.1615 36 95.4448 36.4 93.4781 36.4C91.2115 36.4 89.1448 35.8167 87.2781 34.65C85.4115 33.45 83.9281 31.7667 82.8281 29.6C81.7615 27.4 81.2281 24.8667 81.2281 22ZM102.128 22.05C102.128 19.9167 101.528 18.2334 100.328 17C99.1615 15.7667 97.7281 15.15 96.0281 15.15C94.3281 15.15 92.8781 15.7667 91.6781 17C90.5115 18.2 89.9281 19.8667 89.9281 22C89.9281 24.1334 90.5115 25.8334 91.6781 27.1C92.8781 28.3334 94.3281 28.95 96.0281 28.95C97.7281 28.95 99.1615 28.3334 100.328 27.1C101.528 25.8667 102.128 24.1834 102.128 22.05Z" fill="white"/>
<path d="M132.414 28.75V36H128.064C124.964 36 122.547 35.25 120.814 33.75C119.08 32.2167 118.214 29.7334 118.214 26.3V15.2H114.814V8.10002H118.214V1.30002H126.764V8.10002H132.364V15.2H126.764V26.4C126.764 27.2334 126.964 27.8334 127.364 28.2C127.764 28.5667 128.43 28.75 129.364 28.75H132.414Z" fill="white"/>
<path d="M135.476 22C135.476 19.1334 136.01 16.6167 137.076 14.45C138.176 12.2834 139.66 10.6167 141.526 9.45002C143.393 8.28336 145.476 7.70002 147.776 7.70002C149.743 7.70002 151.46 8.10002 152.926 8.90002C154.426 9.70002 155.576 10.75 156.376 12.05V8.10002H164.926V36H156.376V32.05C155.543 33.35 154.376 34.4 152.876 35.2C151.41 36 149.693 36.4 147.726 36.4C145.46 36.4 143.393 35.8167 141.526 34.65C139.66 33.45 138.176 31.7667 137.076 29.6C136.01 27.4 135.476 24.8667 135.476 22ZM156.376 22.05C156.376 19.9167 155.776 18.2334 154.576 17C153.41 15.7667 151.976 15.15 150.276 15.15C148.576 15.15 147.126 15.7667 145.926 17C144.76 18.2 144.176 19.8667 144.176 22C144.176 24.1334 144.76 25.8334 145.926 27.1C147.126 28.3334 148.576 28.95 150.276 28.95C151.976 28.95 153.41 28.3334 154.576 27.1C155.776 25.8667 156.376 24.1834 156.376 22.05Z" fill="white"/>
<path d="M206.712 7.80002C210.178 7.80002 212.928 8.85002 214.962 10.95C217.028 13.05 218.062 15.9667 218.062 19.7V36H209.562V20.85C209.562 19.05 209.078 17.6667 208.112 16.7C207.178 15.7 205.878 15.2 204.212 15.2C202.545 15.2 201.228 15.7 200.262 16.7C199.328 17.6667 198.862 19.05 198.862 20.85V36H190.362V20.85C190.362 19.05 189.878 17.6667 188.912 16.7C187.978 15.7 186.678 15.2 185.012 15.2C183.345 15.2 182.028 15.7 181.062 16.7C180.128 17.6667 179.662 19.05 179.662 20.85V36H171.112V8.10002H179.662V11.6C180.528 10.4334 181.662 9.51669 183.062 8.85002C184.462 8.15002 186.045 7.80002 187.812 7.80002C189.912 7.80002 191.778 8.25003 193.412 9.15003C195.078 10.05 196.378 11.3334 197.312 13C198.278 11.4667 199.595 10.2167 201.262 9.25002C202.928 8.28336 204.745 7.80002 206.712 7.80002Z" fill="white"/>
<path d="M22.95 0.900024V7.75003H8.65001V15.15H19.35V21.8H8.65001V36H0.100006V0.900024H22.95Z" fill="url(#paint0_linear_579_15)"/>
<path d="M40.1438 36.35C37.5771 36.35 35.2771 35.9334 33.2438 35.1C31.2104 34.2667 29.5771 33.0334 28.3438 31.4C27.1438 29.7667 26.5104 27.8 26.4438 25.5H35.5438C35.6771 26.8 36.1271 27.8 36.8938 28.5C37.6604 29.1667 38.6604 29.5 39.8938 29.5C41.1604 29.5 42.1604 29.2167 42.8938 28.65C43.6271 28.05 43.9938 27.2334 43.9938 26.2C43.9938 25.3334 43.6938 24.6167 43.0938 24.05C42.5271 23.4834 41.8104 23.0167 40.9438 22.65C40.1104 22.2834 38.9104 21.8667 37.3438 21.4C35.0771 20.7 33.2271 20 31.7938 19.3C30.3604 18.6 29.1271 17.5667 28.0938 16.2C27.0604 14.8334 26.5438 13.05 26.5438 10.85C26.5438 7.58336 27.7271 5.03336 30.0938 3.20002C32.4604 1.33336 35.5438 0.400024 39.3438 0.400024C43.2104 0.400024 46.3271 1.33336 48.6938 3.20002C51.0604 5.03336 52.3271 7.60002 52.4938 10.9H43.2438C43.1771 9.76669 42.7604 8.88336 41.9938 8.25002C41.2271 7.58336 40.2438 7.25002 39.0438 7.25002C38.0104 7.25002 37.1771 7.53336 36.5438 8.10002C35.9104 8.63336 35.5938 9.41669 35.5938 10.45C35.5938 11.5834 36.1271 12.4667 37.1938 13.1C38.2604 13.7334 39.9271 14.4167 42.1938 15.15C44.4604 15.9167 46.2938 16.65 47.6938 17.35C49.1271 18.05 50.3604 19.0667 51.3938 20.4C52.4271 21.7334 52.9438 23.45 52.9438 25.55C52.9438 27.55 52.4271 29.3667 51.3938 31C50.3938 32.6334 48.9271 33.9334 46.9938 34.9C45.0604 35.8667 42.7771 36.35 40.1438 36.35Z" fill="url(#paint1_linear_579_15)"/>
<defs>
<linearGradient id="paint0_linear_579_15" x1="26.5" y1="-19" x2="26.5" y2="56" gradientUnits="userSpaceOnUse">
<stop stop-color="#EEDC26"/>
<stop offset="1" stop-color="#FC4E1D"/>
</linearGradient>
<linearGradient id="paint1_linear_579_15" x1="26.5" y1="-19" x2="26.5" y2="56" gradientUnits="userSpaceOnUse">
<stop stop-color="#EEDC26"/>
<stop offset="1" stop-color="#FC4E1D"/>
</linearGradient>
</defs>
</svg>
