<svg width="598" height="598" viewBox="0 0 598 598" fill="none" xmlns="http://www.w3.org/2000/svg">
<path d="M292.807 0.719697C299.766 -0.933784 307.385 0.287338 313.432 4.12014C320.367 8.42621 325.158 16.0217 325.988 24.1489C326.362 27.9174 326.222 31.7093 326.222 35.4954C326.228 66.4617 326.222 97.4279 326.228 128.394C326.228 134.143 326.602 140.138 324.364 145.578C321.665 152.752 315.758 158.648 308.571 161.312C301.496 163.976 293.304 163.532 286.585 160.044C277.71 155.58 271.756 145.94 271.861 135.978C271.861 99.5663 271.844 63.1547 271.867 26.743C271.785 14.6078 280.941 3.22037 292.807 0.719697Z" fill="url(#paint0_linear_413_248)"/>
<path d="M104.065 81.9331C112.701 80.3731 121.897 83.3762 128.055 89.5987C155.049 116.545 182.007 143.533 208.977 170.502C214.253 175.662 217.53 182.901 217.413 190.321C217.501 198.974 213.031 207.422 205.985 212.4C198.203 218.062 187.329 219.008 178.665 214.819C173.652 212.57 169.924 208.422 166.12 204.6C140.804 179.284 115.494 153.962 90.1655 128.651C87.7174 126.168 85.5264 123.381 84.0832 120.185C80.7295 113.098 80.7003 104.538 83.9897 97.4279C87.5772 89.365 95.3655 83.3762 104.065 81.9331Z" fill="url(#paint1_linear_413_248)"/>
<path d="M484.997 81.8805C490.536 81.0333 496.349 81.8396 501.368 84.3695C507.737 87.4895 512.779 93.2153 515.017 99.952C517.5 107.179 516.734 115.441 512.948 122.084C510.635 126.227 507.047 129.411 503.746 132.735C479.785 156.69 455.836 180.645 431.881 204.6C428.358 208.106 424.969 211.921 420.494 214.241C413.693 217.904 405.297 218.43 398.093 215.655C390.339 212.739 384.094 206.079 381.733 198.127C378.765 188.632 381.616 177.724 388.739 170.8C413.255 146.244 437.811 121.722 462.345 97.1767C465.301 94.2962 468.1 91.2463 471.173 88.4769C475.018 85.0063 479.879 82.6868 484.997 81.8805Z" fill="url(#paint2_linear_413_248)"/>
<path d="M21.695 272.405C23.7399 271.996 25.8258 271.867 27.9058 271.844C61.4019 271.879 94.898 271.844 128.394 271.861C132.934 271.885 137.538 271.558 142.008 272.539C149.405 274.216 155.983 279.177 159.635 285.825C163.409 292.545 164.064 300.894 161.47 308.139C158.881 315.524 152.893 321.606 145.578 324.364C142.002 325.842 138.093 326.193 134.26 326.233C101.337 326.21 68.419 326.234 35.4954 326.222C31.7152 326.222 27.9174 326.362 24.1489 325.988C16.0217 325.158 8.42623 320.367 4.12017 313.432C0.193882 307.245 -0.980499 299.421 0.830735 292.334C3.17365 282.407 11.6806 274.304 21.695 272.405Z" fill="url(#paint3_linear_413_248)"/>
<path d="M456.958 272.346C460.937 271.634 464.997 271.861 469.023 271.856C500.574 271.861 532.124 271.856 563.675 271.856C568.512 271.873 573.455 271.517 578.176 272.831C584.743 274.666 590.586 279.065 594.092 284.926C597.761 290.914 598.9 298.37 597.282 305.194C595.395 313.929 588.728 321.355 580.379 324.446C574.694 326.689 568.483 326.193 562.506 326.222C529.384 326.222 496.262 326.228 463.145 326.222C455.106 326.391 446.996 323.067 441.726 316.944C435.872 310.447 433.64 301.022 435.726 292.556C438.068 282.443 446.733 274.163 456.958 272.346Z" fill="url(#paint4_linear_413_248)"/>
<path d="M185.279 381.032C191.729 379.84 198.606 381.026 204.221 384.444C211.378 388.721 216.42 396.422 217.25 404.748C218.033 411.543 216.116 418.601 211.968 424.046C209.789 426.897 207.13 429.339 204.6 431.881C179.284 457.197 153.962 482.514 128.645 507.836C124.9 511.657 120.174 514.561 114.921 515.747C106.356 517.792 96.8378 515.385 90.3816 509.361C84.685 504.214 81.3722 496.548 81.565 488.865C81.5709 481.661 84.7668 474.667 89.8792 469.648C114.12 445.395 138.374 421.16 162.615 396.907C165.77 393.833 168.761 390.585 172.022 387.623C175.714 384.246 180.365 381.949 185.279 381.032Z" fill="url(#paint5_linear_413_248)"/>
<path d="M402.627 381.055C408.662 379.916 415.072 380.839 420.488 383.755C424.963 386.074 428.358 389.89 431.881 393.401C455.836 417.356 479.785 441.311 503.74 465.266C507.345 468.871 511.277 472.371 513.544 477.033C517.178 484.144 517.401 492.867 514.205 500.17C511.517 506.387 506.393 511.517 500.17 514.199C493.136 517.284 484.769 517.202 477.816 513.924C473.177 511.885 469.625 508.175 466.137 504.623C441.901 480.37 417.648 456.128 393.401 431.881C390.287 428.744 386.933 425.752 384.59 421.966C380.547 415.451 379.501 407.202 381.733 399.869C384.526 390.386 392.893 382.826 402.627 381.055Z" fill="url(#paint6_linear_413_248)"/>
<path d="M293.959 435.428C301.092 434.09 308.758 435.673 314.665 439.926C321.145 444.455 325.462 451.951 326.052 459.838C326.403 464.255 326.169 468.69 326.222 473.113C326.228 503.103 326.222 533.1 326.228 563.09C326.216 568.875 326.619 574.881 324.446 580.373C321.355 588.728 313.935 595.395 305.194 597.282C298.37 598.9 290.914 597.761 284.926 594.092C278.937 590.498 274.444 584.486 272.715 577.72C271.575 573.327 271.861 568.746 271.856 564.259C271.867 530.178 271.85 496.098 271.861 462.023C271.867 456.152 273.813 450.321 277.377 445.658C281.403 440.37 287.409 436.614 293.959 435.428Z" fill="url(#paint7_linear_413_248)"/>
<defs>
<linearGradient id="paint0_linear_413_248" x1="299" y1="0" x2="299" y2="598" gradientUnits="userSpaceOnUse">
<stop stop-color="#EEDC26"/>
<stop offset="1" stop-color="#FC4E1D"/>
</linearGradient>
<linearGradient id="paint1_linear_413_248" x1="299" y1="0" x2="299" y2="598" gradientUnits="userSpaceOnUse">
<stop stop-color="#EEDC26"/>
<stop offset="1" stop-color="#FC4E1D"/>
</linearGradient>
<linearGradient id="paint2_linear_413_248" x1="299" y1="0" x2="299" y2="598" gradientUnits="userSpaceOnUse">
<stop stop-color="#EEDC26"/>
<stop offset="1" stop-color="#FC4E1D"/>
</linearGradient>
<linearGradient id="paint3_linear_413_248" x1="299" y1="0" x2="299" y2="598" gradientUnits="userSpaceOnUse">
<stop stop-color="#EEDC26"/>
<stop offset="1" stop-color="#FC4E1D"/>
</linearGradient>
<linearGradient id="paint4_linear_413_248" x1="299" y1="0" x2="299" y2="598" gradientUnits="userSpaceOnUse">
<stop stop-color="#EEDC26"/>
<stop offset="1" stop-color="#FC4E1D"/>
</linearGradient>
<linearGradient id="paint5_linear_413_248" x1="299" y1="0" x2="299" y2="598" gradientUnits="userSpaceOnUse">
<stop stop-color="#EEDC26"/>
<stop offset="1" stop-color="#FC4E1D"/>
</linearGradient>
<linearGradient id="paint6_linear_413_248" x1="299" y1="0" x2="299" y2="598" gradientUnits="userSpaceOnUse">
<stop stop-color="#EEDC26"/>
<stop offset="1" stop-color="#FC4E1D"/>
</linearGradient>
<linearGradient id="paint7_linear_413_248" x1="299" y1="0" x2="299" y2="598" gradientUnits="userSpaceOnUse">
<stop stop-color="#EEDC26"/>
<stop offset="1" stop-color="#FC4E1D"/>
</linearGradient>
</defs>
</svg>
