<svg width="17" height="15" viewBox="0 0 17 15" fill="none" xmlns="http://www.w3.org/2000/svg">
<path d="M2.26055 0.0187204C2.49324 -0.00588773 2.72793 0.00114313 2.96182 0.000361922C4.6616 0.000361922 6.36178 0.000361922 8.06196 0.000361922C8.38949 0.00153374 8.721 -0.0121373 9.04334 0.0581717C9.84104 0.221836 10.5359 0.790558 10.8471 1.52841C10.9902 1.84597 11.0503 2.19361 11.0491 2.5393C11.0503 3.08693 11.0527 3.63495 11.0487 4.18258C11.0531 4.61576 10.6559 5.00402 10.214 4.99894C9.7741 5.0173 9.36688 4.64779 9.35174 4.21617C9.34656 3.64432 9.35294 3.07248 9.35015 2.50063C9.35333 2.18697 9.16128 1.88074 8.86962 1.7491C8.6696 1.64872 8.4389 1.6663 8.22134 1.6663C6.32194 1.66864 4.42253 1.66434 2.52313 1.66864C2.0944 1.67059 1.71029 2.04011 1.69993 2.46001C1.70033 5.82 1.69993 9.18038 1.69993 12.5404C1.71069 12.9599 2.09479 13.329 2.52352 13.3313C4.50222 13.336 6.48092 13.331 8.45961 13.3337C8.73335 13.3427 9.01067 13.2243 9.17523 13.0079C9.29875 12.8529 9.35493 12.6552 9.35094 12.4603C9.34975 11.9259 9.35094 11.3912 9.34935 10.8569C9.34098 10.5776 9.48522 10.2983 9.72389 10.144C9.95141 9.98972 10.2582 9.95769 10.5148 10.0589C10.8236 10.1799 11.0503 10.4881 11.0487 10.8174C11.0503 11.4049 11.0543 11.9924 11.0459 12.5798C11.0292 13.4833 10.4574 14.3469 9.62946 14.7395C9.25731 14.9266 8.83655 15.0043 8.42057 14.9992C6.46817 14.9992 4.51537 15.0016 2.56297 14.9981C1.90314 15.002 1.2469 14.7446 0.774733 14.2918C0.283446 13.8286 0.00014902 13.1669 0.000547469 12.499C-0.000647877 9.17921 0.000547384 5.85945 0.000148935 2.54008C0.000547384 2.18072 0.0678853 1.81863 0.218897 1.49013C0.570728 0.691344 1.37759 0.109732 2.26055 0.0187204Z" fill="white"/>
<path d="M12.9792 4.42905C13.2171 4.17477 13.6219 4.09508 13.9427 4.23687C14.1212 4.30796 14.2475 4.45639 14.381 4.58646C15.1711 5.36104 15.9612 6.136 16.7521 6.91057C16.9972 7.14532 17.0693 7.52968 16.929 7.83552C16.8521 8.0195 16.6904 8.14684 16.5521 8.28472C15.7688 9.05304 14.985 9.82136 14.2017 10.5897C13.8686 10.9346 13.2398 10.9045 12.943 10.5295C12.7421 10.2932 12.6935 9.94558 12.8218 9.66473C12.8768 9.53388 12.976 9.42842 13.078 9.33155C13.3876 9.03508 13.6873 8.72884 13.9996 8.4351C14.0299 8.40581 14.053 8.37026 14.0761 8.3355C10.8101 8.33003 7.54318 8.33472 4.2771 8.33316C3.98583 8.33784 3.69257 8.19644 3.53678 7.95231C3.35469 7.68553 3.35469 7.31446 3.53638 7.04767C3.69257 6.80354 3.98583 6.66214 4.2771 6.66644C7.54358 6.66527 10.8105 6.66957 14.0769 6.66449C14.016 6.56332 13.9184 6.49262 13.8355 6.4102C13.6036 6.1817 13.3713 5.95359 13.1382 5.72664C13.0171 5.61024 12.8876 5.49306 12.8218 5.33565C12.6852 5.03801 12.7497 4.66576 12.9792 4.42905Z" fill="white"/>
</svg>
