<svg width="100" height="75" viewBox="0 0 100 75" fill="none" xmlns="http://www.w3.org/2000/svg">
<path d="M54.1686 15.0046C54.2298 15.0641 54.2298 15.0641 54.1686 15.0046Z" fill="url(#paint0_linear_128_39)"/>
<path d="M54.2851 56.7874C54.3463 56.8469 54.3463 56.8469 54.2851 56.7874Z" fill="url(#paint1_linear_128_39)"/>
<path d="M48.56 0.347519C49.8471 -0.112338 51.2861 -0.122843 52.5697 0.358023C52.5897 1.28474 52.5038 2.21846 52.6121 3.14051C52.7744 3.23154 52.9485 3.2969 53.1215 3.36927C53.1086 3.73108 53.1097 4.09407 53.1262 4.45588C52.5791 4.50257 52.0297 4.50607 51.4826 4.51074C51.4861 4.67297 51.4908 4.83404 51.4967 4.99627C52.6368 4.9811 53.7792 4.99978 54.9146 5.11299C54.9193 6.31282 54.9216 7.51381 54.9134 8.71364C54.6451 8.74516 54.3781 8.77667 54.1122 8.80702C55.2393 15.1026 56.3547 21.3994 57.4724 27.6962C63.4211 27.5748 69.378 27.4487 75.3255 27.7137C80.1035 27.9062 84.8956 28.2949 89.576 29.3045C92.3821 29.9254 95.1481 30.7926 97.7189 32.0835C98.7237 32.6075 99.2061 33.7233 99.4955 34.7551C100.219 37.5609 100.058 40.508 99.6732 43.3523C99.4532 44.8112 99.1802 46.2655 98.7437 47.6778C98.366 48.9219 97.9072 50.1615 97.1812 51.2516C96.9706 51.5375 96.7659 51.8573 96.4424 52.0301C96.0459 52.1001 95.6388 52.0592 95.2387 52.0627C93.5422 49.7448 91.1808 47.9007 88.4912 46.8502C84.9086 45.4041 80.7718 45.3913 77.1762 46.8059C72.5688 48.5508 68.9486 52.6393 67.8155 57.4036C63.767 57.3966 59.7173 57.4071 55.6687 57.3989C55.617 60.1627 55.7005 62.9301 55.6264 65.6939C55.0134 65.7032 54.4016 65.709 53.7898 65.6974C53.6933 64.5372 53.7486 63.3724 53.738 62.2099C51.9626 62.2158 50.1872 62.2356 48.4117 62.2018C48.427 63.3666 48.4482 64.5349 48.3682 65.6974C47.7552 65.7055 47.1434 65.7044 46.5304 65.6974C46.4669 62.9324 46.5187 60.1651 46.5034 57.3989C45.9574 57.4001 45.4103 57.4001 44.8644 57.3978C45.2821 54.5324 45.2821 51.5912 44.6656 48.7539C43.8479 44.761 41.9101 41.0157 39.1863 37.9717C37.1815 35.7857 34.799 33.9147 32.1152 32.6157C27.742 30.4308 22.6675 29.6721 17.8354 30.4518C14.1657 31.0132 10.6642 32.5036 7.65813 34.6559C8.04287 32.2469 8.52173 29.853 8.92528 27.4464C10.0348 21.236 11.1278 15.0233 12.2432 8.81402C11.9596 8.77667 11.6761 8.74049 11.3925 8.70781C11.3937 7.51148 11.3961 6.31632 11.3913 5.12233C12.6538 4.97877 13.9257 4.99394 15.194 4.9916C26.6737 4.99511 38.1533 4.9881 49.633 4.99627C49.6342 4.83287 49.6365 4.67064 49.6389 4.5084C49.1071 4.50257 48.5753 4.50257 48.0447 4.46055C48.0376 4.07889 48.0364 3.69607 48.0399 3.31325C48.2141 3.28523 48.3894 3.25839 48.5659 3.23271C48.5553 2.27098 48.5859 1.30925 48.56 0.347519ZM34.9001 8.84203C34.9013 15.4574 34.899 22.0717 34.9013 28.6859C37.5403 28.6859 40.1782 28.6987 42.8172 28.6836C43.9608 26.438 45.2492 24.2694 46.4422 22.0507C46.6375 21.5581 47.2587 21.6585 47.6834 21.7122C48.3376 21.8091 48.8553 22.2421 49.2294 22.7615C48.1388 24.7339 47.0446 26.7053 45.961 28.6812C48.3706 28.6952 50.779 28.6789 53.1886 28.6859C51.9838 22.0763 50.8484 15.4563 49.6424 8.8467C44.7291 8.84436 39.8146 8.8572 34.9001 8.84203ZM18.0024 8.8467C16.82 15.4574 15.6611 22.0728 14.4669 28.6824C18.0118 28.6929 21.5568 28.6894 25.103 28.6847C24.5335 25.4459 23.9582 22.2094 23.3793 18.9729C23.1781 17.8162 22.9134 16.6363 23.1028 15.4609C23.1534 15.2217 23.2181 14.8949 23.5111 14.8505C24.1699 14.6848 24.8476 14.6054 25.5147 14.4724C25.9324 14.4163 26.3536 14.2856 26.7784 14.3393C27.089 14.5564 27.2349 14.9229 27.3878 15.2543C27.8655 16.4402 28.022 17.717 28.242 18.9659C28.7197 21.5453 29.1456 24.1329 29.6245 26.7111C29.7492 27.3647 29.7962 28.0416 30.028 28.6707C30.881 28.7291 31.7376 28.6707 32.5929 28.6882C32.5917 22.0728 32.587 15.4586 32.5953 8.84437C27.7314 8.8467 22.8675 8.84086 18.0024 8.8467ZM54.1686 15.0046C54.2298 15.0641 54.2298 15.0641 54.1686 15.0046ZM66.5319 32.3986C66.0848 32.7336 66.093 33.5086 66.4531 33.9147C66.8284 34.0805 67.2672 33.9883 67.6696 34.0128C69.5921 33.9906 71.5134 34.0431 73.4348 34.0023C75.8291 34.0781 78.2245 33.9906 80.62 34.0058C81.6519 34.1505 81.6389 32.2142 80.6188 32.3344C78.8516 32.3636 77.0833 32.3624 75.3161 32.3566C72.7277 32.3297 70.1392 32.3788 67.552 32.3554C67.2108 32.3601 66.866 32.3321 66.5319 32.3986ZM66.5272 34.9605C65.9636 35.3071 66.0789 36.7241 66.9519 36.5583C68.9556 36.5163 70.9593 36.6073 72.963 36.5502C74.609 36.598 76.2562 36.6178 77.9033 36.5735C78.9787 36.4906 80.0741 36.7357 81.1365 36.5046C81.4365 36.0681 81.4718 35.4157 81.1259 34.9932C80.4953 34.8449 79.8388 34.9383 79.1987 34.9173C75.3161 34.8706 71.4334 34.9348 67.552 34.9138C67.2096 34.915 66.8649 34.9045 66.5272 34.9605ZM66.3789 37.5049C66.2448 37.9566 66.0742 38.4818 66.3601 38.9148C66.4601 39.1412 66.7472 39.0899 66.9508 39.1167C68.6026 39.1284 70.2545 39.0817 71.9041 39.1541C73.2759 39.0945 74.6502 39.1144 76.022 39.1202C77.6268 39.2171 79.2352 39.1296 80.84 39.1027C81.2354 39.098 81.3589 38.6323 81.3671 38.3149C81.3683 37.9764 81.2648 37.4769 80.8424 37.4605C80.14 37.4045 79.4329 37.45 78.7293 37.4442C77.5127 37.4932 76.2973 37.415 75.0819 37.4465C73.7489 37.4874 72.4147 37.4664 71.0817 37.4512C69.5145 37.5025 67.9449 37.4162 66.3789 37.5049ZM54.2851 56.7874C54.3463 56.8469 54.3463 56.8469 54.2851 56.7874ZM48.4188 57.3978C48.42 58.4505 48.4223 59.5033 48.4153 60.5561C50.1907 60.5432 51.9661 60.5397 53.7415 60.5526C53.7392 59.4975 53.731 58.4424 53.7463 57.3873C51.9708 57.4153 50.1954 57.3931 48.4188 57.3978Z" fill="url(#paint2_linear_128_39)"/>
<path d="M19.719 32.206C24.5276 31.7777 29.4786 33.0184 33.4895 35.69C36.9803 37.9694 39.7864 41.2806 41.4195 45.0995C43.4149 49.6596 43.6985 54.9199 42.2631 59.6772C41.0147 63.8241 38.4616 67.5706 35.0484 70.2656C32.0046 72.6851 28.2891 74.2607 24.4194 74.7579C19.6084 75.4092 14.5845 74.367 10.4348 71.8669C6.9922 69.8057 4.14611 66.7735 2.33303 63.2125C0.0952172 58.8579 -0.576598 53.7259 0.508188 48.9546C1.45061 44.5977 3.8249 40.5581 7.18515 37.6018C10.6183 34.5053 15.0987 32.5935 19.719 32.206ZM20.5379 40.2348C17.6024 40.4624 14.7504 41.6786 12.582 43.6581C9.70887 46.2025 8.04169 50.0272 8.17464 53.8496C8.21817 58.1412 10.5666 62.3068 14.1798 64.6528C17.6436 66.9591 22.2169 67.524 26.1371 66.0977C30.0798 64.7251 33.2706 61.4151 34.4719 57.4433C35.7414 53.4201 34.9202 48.8262 32.3305 45.4823C31.0199 43.7643 29.2821 42.3742 27.3302 41.4335C25.2112 40.4905 22.8581 40.0411 20.5379 40.2348Z" fill="url(#paint3_linear_128_39)"/>
<path d="M20.3002 45.5092C21.9898 45.2326 23.7723 45.501 25.2983 46.276C27.0737 47.1572 28.5091 48.7002 29.2303 50.5384C29.868 52.1047 29.9457 53.866 29.5715 55.5058C29.1033 57.3371 27.9808 58.9839 26.4454 60.1021C24.6923 61.3847 22.4028 61.9263 20.2555 61.5517C18.7248 61.3112 17.2624 60.6156 16.1282 59.5652C14.4622 58.1074 13.4386 55.933 13.4233 53.7259C13.355 51.8655 13.9904 49.9992 15.1434 48.5368C16.3917 46.9273 18.2789 45.8243 20.3002 45.5092Z" fill="url(#paint4_linear_128_39)"/>
<path d="M81.253 47.142C84.6803 46.7604 88.23 47.6871 91.0173 49.7016C92.8845 51.0426 94.4175 52.8389 95.4305 54.8942C96.473 57.0231 96.9683 59.4193 96.8447 61.7828C96.7036 64.0669 96.0235 66.3241 94.8152 68.2779C92.8927 71.4316 89.6701 73.788 86.0439 74.6156C82.9543 75.3789 79.6235 74.9774 76.7444 73.6608C73.6771 72.2112 71.1393 69.6447 69.8298 66.5261C68.2144 62.8507 68.3309 58.4739 70.1251 54.8826C72.1876 50.6517 76.5279 47.5937 81.253 47.142ZM81.5989 52.3919C79.7458 52.6521 77.9751 53.496 76.6515 54.8114C74.9878 56.3987 74.0101 58.6688 74.0136 60.9588C73.9713 62.7643 74.5702 64.5652 75.6079 66.0417C76.608 67.4761 78.0751 68.5744 79.7152 69.1918C81.1671 69.752 82.7719 69.8454 84.3038 69.6167C86.8264 69.1953 89.1195 67.6045 90.3854 65.3986C91.9432 62.8145 91.9656 59.4029 90.4631 56.792C89.8195 55.6506 88.9242 54.6468 87.8394 53.901C86.051 52.6381 83.7732 52.0919 81.5989 52.3919Z" fill="url(#paint5_linear_128_39)"/>
<path d="M82.0684 55.7719C83.2202 55.5934 84.4168 55.856 85.4357 56.4034C86.5616 57.0581 87.4711 58.1097 87.8688 59.3516C88.3794 60.8385 88.1723 62.5531 87.3076 63.8696C86.6122 64.9912 85.4627 65.8141 84.185 66.1549C82.8931 66.5144 81.473 66.3393 80.2882 65.7265C78.9564 65.0321 77.9433 63.7541 77.5951 62.301C77.1703 60.6681 77.6139 58.845 78.7269 57.574C79.5646 56.5878 80.7788 55.9353 82.0684 55.7719Z" fill="url(#paint6_linear_128_39)"/>
<defs>
<linearGradient id="paint0_linear_128_39" x1="50" y1="0" x2="50" y2="75" gradientUnits="userSpaceOnUse">
<stop stop-color="#EEDC26"/>
<stop offset="1" stop-color="#FC4E1D"/>
</linearGradient>
<linearGradient id="paint1_linear_128_39" x1="50" y1="0" x2="50" y2="75" gradientUnits="userSpaceOnUse">
<stop stop-color="#EEDC26"/>
<stop offset="1" stop-color="#FC4E1D"/>
</linearGradient>
<linearGradient id="paint2_linear_128_39" x1="50" y1="0" x2="50" y2="75" gradientUnits="userSpaceOnUse">
<stop stop-color="#EEDC26"/>
<stop offset="1" stop-color="#FC4E1D"/>
</linearGradient>
<linearGradient id="paint3_linear_128_39" x1="50" y1="0" x2="50" y2="75" gradientUnits="userSpaceOnUse">
<stop stop-color="#EEDC26"/>
<stop offset="1" stop-color="#FC4E1D"/>
</linearGradient>
<linearGradient id="paint4_linear_128_39" x1="50" y1="0" x2="50" y2="75" gradientUnits="userSpaceOnUse">
<stop stop-color="#EEDC26"/>
<stop offset="1" stop-color="#FC4E1D"/>
</linearGradient>
<linearGradient id="paint5_linear_128_39" x1="50" y1="0" x2="50" y2="75" gradientUnits="userSpaceOnUse">
<stop stop-color="#EEDC26"/>
<stop offset="1" stop-color="#FC4E1D"/>
</linearGradient>
<linearGradient id="paint6_linear_128_39" x1="50" y1="0" x2="50" y2="75" gradientUnits="userSpaceOnUse">
<stop stop-color="#EEDC26"/>
<stop offset="1" stop-color="#FC4E1D"/>
</linearGradient>
</defs>
</svg>
