<svg width="100" height="100" viewBox="0 0 100 100" fill="none" xmlns="http://www.w3.org/2000/svg">
<path d="M54.1686 20.0061C54.2298 20.0855 54.2298 20.0855 54.1686 20.0061Z" fill="url(#paint0_linear_128_39)"/>
<path d="M54.2851 75.7165C54.3463 75.7958 54.3463 75.7958 54.2851 75.7165Z" fill="url(#paint1_linear_128_39)"/>
<path d="M48.56 0.463358C49.8471 -0.149784 51.2861 -0.16379 52.5697 0.477364C52.5897 1.71299 52.5038 2.95794 52.6121 4.18734C52.7744 4.30872 52.9485 4.39587 53.1215 4.49236C53.1086 4.97478 53.1097 5.45876 53.1262 5.94118C52.5791 6.00343 52.0297 6.00809 51.4826 6.01432C51.4861 6.23063 51.4908 6.44539 51.4967 6.6617C52.6368 6.64147 53.7792 6.66637 54.9146 6.81732C54.9193 8.41709 54.9216 10.0184 54.9134 11.6182C54.6451 11.6602 54.3781 11.7022 54.1122 11.7427C55.2393 20.1368 56.3547 28.5325 57.4724 36.9282C63.4211 36.7664 69.378 36.5983 75.3255 36.9516C80.1035 37.2083 84.8956 37.7265 89.576 39.0727C92.3821 39.9006 95.1481 41.0568 97.7189 42.778C98.7237 43.4767 99.2061 44.9644 99.4955 46.3401C100.219 50.0812 100.058 54.0106 99.6732 57.8031C99.4532 59.7483 99.1802 61.6873 98.7437 63.5703C98.366 65.2293 97.9072 66.8819 97.1812 68.3354C96.9706 68.7167 96.7659 69.1431 96.4424 69.3734C96.0459 69.4668 95.6388 69.4123 95.2387 69.417C93.5422 66.3264 91.1808 63.8676 88.4912 62.467C84.9086 60.5389 80.7718 60.5217 77.1762 62.4079C72.5688 64.7344 68.9486 70.1857 67.8155 76.5381C63.767 76.5288 59.7173 76.5428 55.6687 76.5319C55.617 80.217 55.7005 83.9067 55.6264 87.5918C55.0134 87.6043 54.4016 87.612 53.7898 87.5965C53.6933 86.0496 53.7486 84.4965 53.738 82.9466C51.9626 82.9543 50.1872 82.9808 48.4117 82.9357C48.427 84.4888 48.4482 86.0465 48.3682 87.5965C47.7552 87.6074 47.1434 87.6058 46.5304 87.5965C46.4669 83.9098 46.5187 80.2201 46.5034 76.5319C45.9574 76.5335 45.4103 76.5335 44.8644 76.5304C45.2821 72.7099 45.2821 68.7883 44.6656 65.0051C43.8479 59.6814 41.9101 54.6876 39.1863 50.629C37.1815 47.7142 34.799 45.2196 32.1152 43.4876C27.742 40.5744 22.6675 39.5629 17.8354 40.6024C14.1657 41.3509 10.6642 43.3382 7.65813 46.2078C8.04287 42.9958 8.52173 39.8041 8.92528 36.5952C10.0348 28.3146 11.1278 20.031 12.2432 11.752C11.9596 11.7022 11.6761 11.654 11.3925 11.6104C11.3937 10.0153 11.3961 8.42176 11.3913 6.82977C12.6538 6.63836 13.9257 6.65859 15.194 6.65547C26.6737 6.66014 38.1533 6.65081 49.633 6.6617C49.6342 6.44383 49.6365 6.22752 49.6389 6.01121C49.1071 6.00343 48.5753 6.00343 48.0447 5.9474C48.0376 5.43852 48.0364 4.92809 48.0399 4.41766C48.2141 4.38031 48.3894 4.34452 48.5659 4.31028C48.5553 3.02797 48.5859 1.74567 48.56 0.463358ZM34.9001 11.7894C34.9013 20.6099 34.899 29.4289 34.9013 38.2479C37.5403 38.2479 40.1782 38.265 42.8172 38.2448C43.9608 35.2506 45.2492 32.3592 46.4422 29.4009C46.6375 28.7442 47.2587 28.878 47.6834 28.9496C48.3376 29.0787 48.8553 29.6561 49.2294 30.3486C48.1388 32.9786 47.0446 35.607 45.961 38.2416C48.3706 38.2603 50.779 38.2385 53.1886 38.2479C51.9838 29.4351 50.8484 20.6084 49.6424 11.7956C44.7291 11.7925 39.8146 11.8096 34.9001 11.7894ZM18.0024 11.7956C16.82 20.6099 15.6611 29.4304 14.4669 38.2432C18.0118 38.2572 21.5568 38.2525 25.103 38.2463C24.5335 33.9279 23.9582 29.6125 23.3793 25.2972C23.1781 23.755 22.9134 22.1817 23.1028 20.6146C23.1534 20.2956 23.2181 19.8598 23.5111 19.8007C24.1699 19.5797 24.8476 19.4739 25.5147 19.2965C25.9324 19.2218 26.3536 19.0475 26.7784 19.1191C27.089 19.4085 27.2349 19.8972 27.3878 20.3391C27.8655 21.9202 28.022 23.6227 28.242 25.2878C28.7197 28.727 29.1456 32.1771 29.6245 35.6148C29.7492 36.4863 29.7962 37.3888 30.028 38.2276C30.881 38.3054 31.7376 38.2276 32.5929 38.251C32.5917 29.4304 32.587 20.6115 32.5953 11.7925C27.7314 11.7956 22.8675 11.7878 18.0024 11.7956ZM54.1686 20.0061C54.2298 20.0855 54.2298 20.0855 54.1686 20.0061ZM66.5319 43.1981C66.0848 43.6448 66.093 44.6781 66.4531 45.2196C66.8284 45.4406 67.2672 45.3177 67.6696 45.3504C69.5921 45.3208 71.5134 45.3908 73.4348 45.3364C75.8291 45.4375 78.2245 45.3208 80.62 45.341C81.6519 45.534 81.6389 42.9523 80.6188 43.1125C78.8516 43.1515 77.0833 43.1499 75.3161 43.1421C72.7277 43.1063 70.1392 43.1717 67.552 43.1406C67.2108 43.1468 66.866 43.1094 66.5319 43.1981ZM66.5272 46.614C65.9636 47.0762 66.0789 48.9654 66.9519 48.7444C68.9556 48.6884 70.9593 48.8098 72.963 48.7335C74.609 48.7973 76.2562 48.8238 77.9033 48.7647C78.9787 48.6542 80.0741 48.981 81.1365 48.6728C81.4365 48.0908 81.4718 47.2209 81.1259 46.6576C80.4953 46.4599 79.8388 46.5844 79.1987 46.5564C75.3161 46.4942 71.4334 46.5798 67.552 46.5518C67.2096 46.5533 66.8649 46.5393 66.5272 46.614ZM66.3789 50.0065C66.2448 50.6088 66.0742 51.309 66.3601 51.8864C66.4601 52.1883 66.7472 52.1198 66.9508 52.1556C68.6026 52.1712 70.2545 52.1089 71.9041 52.2054C73.2759 52.1261 74.6502 52.1525 76.022 52.1603C77.6268 52.2895 79.2352 52.1727 80.84 52.1369C81.2354 52.1307 81.3589 51.5098 81.3671 51.0865C81.3683 50.6352 81.2648 49.9692 80.8424 49.9474C80.14 49.8727 79.4329 49.9334 78.7293 49.9256C77.5127 49.9909 76.2973 49.8867 75.0819 49.9287C73.7489 49.9832 72.4147 49.9552 71.0817 49.9349C69.5145 50.0034 67.9449 49.8882 66.3789 50.0065ZM54.2851 75.7165C54.3463 75.7958 54.3463 75.7958 54.2851 75.7165ZM48.4188 76.5304C48.42 77.9341 48.4223 79.3377 48.4153 80.7414C50.1907 80.7243 51.9661 80.7197 53.7415 80.7368C53.7392 79.33 53.731 77.9232 53.7463 76.5164C51.9708 76.5537 50.1954 76.5241 48.4188 76.5304Z" fill="url(#paint2_linear_128_39)"/>
<path d="M19.719 42.9414C24.5276 42.3702 29.4786 44.0245 33.4895 47.5866C36.9803 50.6259 39.7864 55.0408 41.4195 60.1327C43.4149 66.2128 43.6985 73.2266 42.2631 79.5696C41.0147 85.0988 38.4616 90.0942 35.0484 93.6875C32.0046 96.9135 28.2891 99.0143 24.4194 99.6773C19.6084 100.546 14.5845 99.1559 10.4348 95.8226C6.9922 93.0743 4.14611 89.0313 2.33303 84.2833C0.0952172 78.4772 -0.576598 71.6346 0.508188 65.2728C1.45061 59.4635 3.8249 54.0775 7.18515 50.1357C10.6183 46.0071 15.0987 43.458 19.719 42.9414ZM20.5379 53.6465C17.6024 53.9499 14.7504 55.5715 12.582 58.2108C9.70887 61.6033 8.04169 66.703 8.17464 71.7995C8.21817 77.5217 10.5666 83.0757 14.1798 86.2037C17.6436 89.2787 22.2169 90.032 26.1371 88.1303C30.0798 86.3002 33.2706 81.8868 34.4719 76.5911C35.7414 71.2268 34.9202 65.1016 32.3305 60.6431C31.0199 58.3524 29.2821 56.499 27.3302 55.2447C25.2112 53.9873 22.8581 53.3881 20.5379 53.6465Z" fill="url(#paint3_linear_128_39)"/>
<path d="M20.3002 60.6789C21.9898 60.3101 23.7723 60.668 25.2983 61.7013C27.0737 62.8763 28.5091 64.9336 29.2303 67.3846C29.868 69.473 29.9457 71.8213 29.5715 74.0078C29.1033 76.4494 27.9808 78.6452 26.4454 80.1361C24.6923 81.8463 22.4028 82.5684 20.2555 82.0689C18.7248 81.7483 17.2624 80.8208 16.1282 79.4202C14.4622 77.4765 13.4386 74.5773 13.4233 71.6346C13.355 69.154 13.9904 66.6656 15.1434 64.7157C16.3917 62.5697 18.2789 61.0991 20.3002 60.6789Z" fill="url(#paint4_linear_128_39)"/>
<path d="M81.253 62.856C84.6803 62.3472 88.23 63.5828 91.0173 66.2688C92.8845 68.0569 94.4175 70.4519 95.4305 73.1923C96.473 76.0308 96.9683 79.2257 96.8447 82.377C96.7036 85.4225 96.0235 88.4322 94.8152 91.0373C92.8927 95.2421 89.6701 98.3841 86.0439 99.4874C82.9543 100.505 79.6235 99.9698 76.7444 98.2144C73.6771 96.2816 71.1393 92.8596 69.8298 88.7014C68.2144 83.8009 68.3309 77.9652 70.1251 73.1768C72.1876 67.5355 76.5279 63.4583 81.253 62.856ZM81.5989 69.8558C79.7458 70.2029 77.9751 71.328 76.6515 73.0818C74.9878 75.1983 74.0101 78.2251 74.0136 81.2783C73.9713 83.6858 74.5702 86.087 75.6079 88.0556C76.608 89.9681 78.0751 91.4325 79.7152 92.2558C81.1671 93.0027 82.7719 93.1272 84.3038 92.8222C86.8264 92.2604 89.1195 90.1393 90.3854 87.1981C91.9432 83.7527 91.9656 79.2039 90.4631 75.7227C89.8195 74.2007 88.9242 72.8624 87.8394 71.868C86.051 70.1842 83.7732 69.4559 81.5989 69.8558Z" fill="url(#paint5_linear_128_39)"/>
<path d="M82.0684 74.3626C83.2202 74.1245 84.4168 74.4746 85.4357 75.2045C86.5616 76.0775 87.4711 77.4796 87.8688 79.1354C88.3794 81.118 88.1723 83.4041 87.3076 85.1595C86.6122 86.655 85.4627 87.7521 84.185 88.2065C82.8931 88.6858 81.473 88.4524 80.2882 87.6354C78.9564 86.7095 77.9433 85.0054 77.5951 83.068C77.1703 80.8908 77.6139 78.4601 78.7269 76.7654C79.5646 75.4504 80.7788 74.5804 82.0684 74.3626Z" fill="url(#paint6_linear_128_39)"/>
<defs>
<linearGradient id="paint0_linear_128_39" x1="50" y1="0" x2="50" y2="100" gradientUnits="userSpaceOnUse">
<stop stop-color="#EEDC26"/>
<stop offset="1" stop-color="#FC4E1D"/>
</linearGradient>
<linearGradient id="paint1_linear_128_39" x1="50" y1="0" x2="50" y2="100" gradientUnits="userSpaceOnUse">
<stop stop-color="#EEDC26"/>
<stop offset="1" stop-color="#FC4E1D"/>
</linearGradient>
<linearGradient id="paint2_linear_128_39" x1="50" y1="0" x2="50" y2="100" gradientUnits="userSpaceOnUse">
<stop stop-color="#EEDC26"/>
<stop offset="1" stop-color="#FC4E1D"/>
</linearGradient>
<linearGradient id="paint3_linear_128_39" x1="50" y1="0" x2="50" y2="100" gradientUnits="userSpaceOnUse">
<stop stop-color="#EEDC26"/>
<stop offset="1" stop-color="#FC4E1D"/>
</linearGradient>
<linearGradient id="paint4_linear_128_39" x1="50" y1="0" x2="50" y2="100" gradientUnits="userSpaceOnUse">
<stop stop-color="#EEDC26"/>
<stop offset="1" stop-color="#FC4E1D"/>
</linearGradient>
<linearGradient id="paint5_linear_128_39" x1="50" y1="0" x2="50" y2="100" gradientUnits="userSpaceOnUse">
<stop stop-color="#EEDC26"/>
<stop offset="1" stop-color="#FC4E1D"/>
</linearGradient>
<linearGradient id="paint6_linear_128_39" x1="50" y1="0" x2="50" y2="100" gradientUnits="userSpaceOnUse">
<stop stop-color="#EEDC26"/>
<stop offset="1" stop-color="#FC4E1D"/>
</linearGradient>
</defs>
</svg>
