<svg width="41" height="29" viewBox="0 0 41 29" fill="none" xmlns="http://www.w3.org/2000/svg">
<path d="M23.0657 0.303223C23.4184 -0.0501292 23.9522 -0.00469849 24.4098 0.0104452C24.1696 0.36548 23.9073 0.706213 23.624 1.02928C23.4979 1.17567 23.3592 1.33636 23.3541 1.5408C23.3338 1.86134 23.5648 2.13561 23.5487 2.45783C23.5538 4.74621 23.5352 7.03543 23.5563 9.3238C23.7695 9.32885 23.9826 9.3381 24.1958 9.34736C24.233 9.10001 24.1958 8.7189 24.5104 8.64486C24.7617 8.61626 25.0636 8.56998 25.2768 8.73656C25.4155 8.92922 25.3851 9.18583 25.4282 9.40877C26.3688 9.44832 27.3069 9.53161 28.2458 9.6048C28.2957 9.37849 28.294 9.12441 28.4335 8.93007C28.568 8.76012 28.8049 8.80976 28.9918 8.82911C30.319 9.02766 31.6478 9.22453 32.9767 9.41719C33.1611 9.44832 33.3869 9.48365 33.4757 9.67379C33.5307 9.9001 33.4774 10.1348 33.4622 10.3628C34.1862 10.526 34.9078 10.7204 35.5895 11.0165C36.6672 11.4464 37.4242 12.4333 37.859 13.4732C38.2481 14.3852 38.1212 15.3897 38.1339 16.3521C38.1483 16.544 38.0907 16.7905 38.2794 16.9167C38.8546 17.3516 39.3578 17.8774 39.7918 18.4521C40.5615 19.587 41.0267 20.9432 40.9988 22.3204C41.02 23.7137 40.5412 25.0917 39.7385 26.2267C39.0229 27.2118 38.029 28.0044 36.8964 28.4671C35.746 28.9887 34.4425 29.0863 33.2008 28.9256C31.6258 28.6656 30.1337 27.8563 29.1178 26.6229C28.1629 25.5124 27.619 24.0763 27.5259 22.6233C24.0274 22.6048 20.529 22.6216 17.0305 22.6149C16.7124 22.6132 16.4164 22.4862 16.117 22.397C15.8979 23.2274 15.6889 24.0771 15.2288 24.8149C14.2747 26.6027 12.5897 27.9699 10.6645 28.6042C8.45345 29.3076 5.92348 29.0829 3.93993 27.8546C2.04689 26.7685 0.680828 24.8494 0.202916 22.7352C-0.204789 20.9886 0.012598 19.115 0.758648 17.4862C0.974342 17.0774 1.23064 16.6904 1.43872 16.2773C1.30084 16.1645 1.17058 16.0383 1.01494 15.9492C0.773873 15.8718 0.49643 15.9088 0.27566 15.7716C0.0904167 15.6387 0.139477 15.3863 0.159778 15.1937C0.34333 14.0276 0.860997 12.88 1.75761 12.0858C1.94455 11.9117 2.17969 11.7905 2.34464 11.5945C2.41484 11.3404 2.42753 11.0493 2.63054 10.8558C3.13383 10.3477 3.8452 10.118 4.52442 9.95058C5.93194 9.63509 7.36736 9.33053 8.81971 9.41803C9.06162 7.88263 9.28239 6.34386 9.50655 4.80594C8.90176 4.77313 8.29273 4.84464 7.69133 4.77565C7.62112 3.9335 7.69809 3.08209 7.65919 2.23656C7.42319 2.23488 7.18719 2.2332 6.95205 2.22983C7.29124 1.87564 7.14998 1.34729 7.37244 0.941781C7.54161 0.58927 8.15571 0.599366 8.30881 0.962814C8.47375 1.2985 8.47375 1.6813 8.51266 2.04559C8.97873 2.13981 9.45664 2.10532 9.92948 2.10784C12.61 2.10784 15.2905 2.10784 17.9711 2.10868C18.3213 2.11626 18.6215 1.87648 18.9751 1.89667C19.6459 1.89499 20.3167 1.89667 20.9883 1.90172C20.99 2.26601 21.012 2.64376 20.8749 2.9887C20.7802 3.25035 20.5865 3.45563 20.4038 3.65839C20.7946 5.90386 21.2006 8.1468 21.61 10.3889C21.7402 10.3897 21.8713 10.3897 22.0033 10.3906C22.0033 10.0246 22.0033 9.65949 22.0092 9.29436C22.1496 9.28342 22.29 9.27332 22.4313 9.26323C22.4186 6.99588 22.4305 4.7277 22.4245 2.46035C22.4093 2.13561 22.6326 1.86302 22.6352 1.5408C22.6546 1.10163 22.7096 0.609462 23.0657 0.303223ZM8.00683 2.23152C8.0043 2.97524 8.0026 3.71812 8.00683 4.46184C8.52788 4.46437 9.04978 4.46521 9.57083 4.461C9.57252 4.28348 9.66388 4.08577 9.58521 3.91919C9.28578 3.55406 8.82563 3.34794 8.55241 2.9601C8.51773 2.72032 8.53381 2.47718 8.53465 2.23572C8.35871 2.23488 8.18277 2.2332 8.00683 2.23152ZM10.8269 4.15645C10.574 5.96275 10.2737 7.76232 10.0234 9.56862C11.628 9.88243 13.2004 10.4293 14.5978 11.2832C15.9706 12.1186 17.176 13.3487 17.6564 14.9084C18.8465 14.927 20.0384 14.9135 21.2293 14.9152C20.5755 11.3261 19.8607 7.74718 19.2094 4.15729C16.4147 4.1413 13.6208 4.14383 10.8269 4.15645ZM7.76238 16.7972C6.38193 16.8965 5.08269 17.742 4.43899 18.9611C3.96531 19.8125 3.83251 20.8338 4.02536 21.7845C4.24106 22.8446 4.8966 23.8062 5.80506 24.3993C6.83785 25.0959 8.19292 25.2617 9.37797 24.8949C10.4827 24.5558 11.4207 23.7305 11.9029 22.6864C12.2657 21.9158 12.3732 21.0332 12.2243 20.1961C12.0399 19.1276 11.4047 18.1475 10.5097 17.5308C9.72139 16.968 8.72666 16.719 7.76238 16.7972ZM33.7261 18.898C32.6628 19.0553 31.7003 19.741 31.202 20.6874C30.6514 21.7038 30.6692 22.9994 31.2469 24.0005C32.0098 25.4148 33.8386 26.1072 35.3586 25.5805C36.0996 25.3382 36.7551 24.8393 37.1781 24.1873C37.678 23.4234 37.8539 22.4601 37.6585 21.57C37.442 20.5377 36.712 19.6299 35.7519 19.1849C35.1268 18.887 34.4096 18.7894 33.7261 18.898Z" fill="black"/>
<path d="M23.0657 0.303223C23.4184 -0.0501292 23.9522 -0.00469849 24.4098 0.0104452C24.1696 0.36548 23.9073 0.706213 23.624 1.02928C23.4979 1.17567 23.3592 1.33636 23.3541 1.5408C23.3338 1.86134 23.5648 2.13561 23.5487 2.45783C23.5538 4.74621 23.5352 7.03543 23.5563 9.3238C23.7695 9.32885 23.9826 9.3381 24.1958 9.34736C24.233 9.10001 24.1958 8.7189 24.5104 8.64486C24.7617 8.61626 25.0636 8.56998 25.2768 8.73656C25.4155 8.92922 25.3851 9.18583 25.4282 9.40877C26.3688 9.44832 27.3069 9.53161 28.2458 9.6048C28.2957 9.37849 28.294 9.12441 28.4335 8.93007C28.568 8.76012 28.8049 8.80976 28.9918 8.82911C30.319 9.02766 31.6478 9.22453 32.9767 9.41719C33.1611 9.44832 33.3869 9.48365 33.4757 9.67379C33.5307 9.9001 33.4774 10.1348 33.4622 10.3628C34.1862 10.526 34.9078 10.7204 35.5895 11.0165C36.6672 11.4464 37.4242 12.4333 37.859 13.4732C38.2481 14.3852 38.1212 15.3897 38.1339 16.3521C38.1483 16.544 38.0907 16.7905 38.2794 16.9167C38.8546 17.3516 39.3578 17.8774 39.7918 18.4521C40.5615 19.587 41.0267 20.9432 40.9988 22.3204C41.02 23.7137 40.5412 25.0917 39.7385 26.2267C39.0229 27.2118 38.029 28.0044 36.8964 28.4671C35.746 28.9887 34.4425 29.0863 33.2008 28.9256C31.6258 28.6656 30.1337 27.8563 29.1178 26.6229C28.1629 25.5124 27.619 24.0763 27.5259 22.6233C24.0274 22.6048 20.529 22.6216 17.0305 22.6149C16.7124 22.6132 16.4164 22.4862 16.117 22.397C15.8979 23.2274 15.6889 24.0771 15.2288 24.8149C14.2747 26.6027 12.5897 27.9699 10.6645 28.6042C8.45345 29.3076 5.92348 29.0829 3.93993 27.8546C2.04689 26.7685 0.680828 24.8494 0.202916 22.7352C-0.204789 20.9886 0.012598 19.115 0.758648 17.4862C0.974342 17.0774 1.23064 16.6904 1.43872 16.2773C1.30084 16.1645 1.17058 16.0383 1.01494 15.9492C0.773873 15.8718 0.49643 15.9088 0.27566 15.7716C0.0904167 15.6387 0.139477 15.3863 0.159778 15.1937C0.34333 14.0276 0.860997 12.88 1.75761 12.0858C1.94455 11.9117 2.17969 11.7905 2.34464 11.5945C2.41484 11.3404 2.42753 11.0493 2.63054 10.8558C3.13383 10.3477 3.8452 10.118 4.52442 9.95058C5.93194 9.63509 7.36736 9.33053 8.81971 9.41803C9.06162 7.88263 9.28239 6.34386 9.50655 4.80594C8.90176 4.77313 8.29273 4.84464 7.69133 4.77565C7.62112 3.9335 7.69809 3.08209 7.65919 2.23656C7.42319 2.23488 7.18719 2.2332 6.95205 2.22983C7.29124 1.87564 7.14998 1.34729 7.37244 0.941781C7.54161 0.58927 8.15571 0.599366 8.30881 0.962814C8.47375 1.2985 8.47375 1.6813 8.51266 2.04559C8.97873 2.13981 9.45664 2.10532 9.92948 2.10784C12.61 2.10784 15.2905 2.10784 17.9711 2.10868C18.3213 2.11626 18.6215 1.87648 18.9751 1.89667C19.6459 1.89499 20.3167 1.89667 20.9883 1.90172C20.99 2.26601 21.012 2.64376 20.8749 2.9887C20.7802 3.25035 20.5865 3.45563 20.4038 3.65839C20.7946 5.90386 21.2006 8.1468 21.61 10.3889C21.7402 10.3897 21.8713 10.3897 22.0033 10.3906C22.0033 10.0246 22.0033 9.65949 22.0092 9.29436C22.1496 9.28342 22.29 9.27332 22.4313 9.26323C22.4186 6.99588 22.4305 4.7277 22.4245 2.46035C22.4093 2.13561 22.6326 1.86302 22.6352 1.5408C22.6546 1.10163 22.7096 0.609462 23.0657 0.303223ZM8.00683 2.23152C8.0043 2.97524 8.0026 3.71812 8.00683 4.46184C8.52788 4.46437 9.04978 4.46521 9.57083 4.461C9.57252 4.28348 9.66388 4.08577 9.58521 3.91919C9.28578 3.55406 8.82563 3.34794 8.55241 2.9601C8.51773 2.72032 8.53381 2.47718 8.53465 2.23572C8.35871 2.23488 8.18277 2.2332 8.00683 2.23152ZM10.8269 4.15645C10.574 5.96275 10.2737 7.76232 10.0234 9.56862C11.628 9.88243 13.2004 10.4293 14.5978 11.2832C15.9706 12.1186 17.176 13.3487 17.6564 14.9084C18.8465 14.927 20.0384 14.9135 21.2293 14.9152C20.5755 11.3261 19.8607 7.74718 19.2094 4.15729C16.4147 4.1413 13.6208 4.14383 10.8269 4.15645ZM7.76238 16.7972C6.38193 16.8965 5.08269 17.742 4.43899 18.9611C3.96531 19.8125 3.83251 20.8338 4.02536 21.7845C4.24106 22.8446 4.8966 23.8062 5.80506 24.3993C6.83785 25.0959 8.19292 25.2617 9.37797 24.8949C10.4827 24.5558 11.4207 23.7305 11.9029 22.6864C12.2657 21.9158 12.3732 21.0332 12.2243 20.1961C12.0399 19.1276 11.4047 18.1475 10.5097 17.5308C9.72139 16.968 8.72666 16.719 7.76238 16.7972ZM33.7261 18.898C32.6628 19.0553 31.7003 19.741 31.202 20.6874C30.6514 21.7038 30.6692 22.9994 31.2469 24.0005C32.0098 25.4148 33.8386 26.1072 35.3586 25.5805C36.0996 25.3382 36.7551 24.8393 37.1781 24.1873C37.678 23.4234 37.8539 22.4601 37.6585 21.57C37.442 20.5377 36.712 19.6299 35.7519 19.1849C35.1268 18.887 34.4096 18.7894 33.7261 18.898Z" fill="url(#paint0_linear_726_64)"/>
<defs>
<linearGradient id="paint0_linear_726_64" x1="20.0399" y1="-0.595734" x2="20.0399" y2="28.5952" gradientUnits="userSpaceOnUse">
<stop stop-color="#EDE527"/>
<stop offset="1" stop-color="#FE401C"/>
</linearGradient>
</defs>
</svg>
