<svg width="13" height="16" viewBox="0 0 13 16" fill="none" xmlns="http://www.w3.org/2000/svg">
<path d="M6.32001 0H6.68009C6.90019 0.0503125 7.1217 0.117812 7.31425 0.251563C7.72521 0.52125 8.01137 1.0075 8.07124 1.53406C8.10132 1.72625 8.069 1.91969 8.06309 2.1125C8.09289 2.12875 8.12269 2.14531 8.15333 2.16094C8.94827 2.50656 9.64623 3.11156 10.1623 3.86531C10.7824 4.7675 11.1369 5.895 11.1414 7.03156C11.147 8.0425 11.1428 9.05375 11.1431 10.0647C11.1456 10.1431 11.1524 10.2388 11.2204 10.2841C11.2893 10.3244 11.3708 10.3194 11.4464 10.3297C11.9959 10.3659 12.5179 10.7269 12.7903 11.2588C12.9812 11.6209 13.0439 12.0609 12.9697 12.4719C12.8685 13.0738 12.4732 13.6009 11.9569 13.8153C11.7154 13.9225 11.452 13.9428 11.1945 13.9372C10.3695 13.9344 9.54448 13.9391 8.71946 13.9344C8.67448 13.9356 8.63007 13.9397 8.58565 13.9434C8.54686 14.0838 8.53196 14.2309 8.49233 14.3713C8.3456 14.8922 8.02767 15.35 7.61221 15.6412C7.32493 15.8478 6.99014 15.9587 6.6517 16H6.34868C5.98437 15.9556 5.62316 15.8287 5.32239 15.5916C4.92689 15.2906 4.62611 14.8369 4.49512 14.3234C4.4642 14.1978 4.44874 14.0681 4.41444 13.9434C4.37003 13.9397 4.32534 13.9356 4.28092 13.9344C3.40896 13.9384 2.53671 13.9356 1.66475 13.9363C1.32181 13.9409 0.977743 13.8303 0.696926 13.6094C0.351738 13.3469 0.107183 12.9291 0.0298814 12.4722C-0.0533235 12.0091 0.0388765 11.5091 0.285961 11.1241C0.573806 10.6669 1.05167 10.3628 1.55399 10.3297C1.62961 10.3194 1.71113 10.3247 1.78 10.2837C1.85589 10.2312 1.85505 10.1209 1.85814 10.0334C1.85589 9.01219 1.85477 7.99063 1.85814 6.96938C1.85308 5.91313 2.15161 4.8575 2.70228 3.99656C3.1852 3.23906 3.85225 2.62594 4.61768 2.25281C4.72478 2.20031 4.8389 2.16375 4.93813 2.09344C4.92717 1.89812 4.90018 1.70094 4.93279 1.50625C4.99716 0.997813 5.27432 0.530625 5.6687 0.26375C5.86575 0.124687 6.09288 0.0515625 6.32001 0ZM6.04172 1.24C5.89836 1.39688 5.82134 1.62719 5.84889 1.85031C6.00096 1.85188 6.15078 1.81844 6.30258 1.81531C6.58621 1.79781 6.86899 1.82562 7.15149 1.84969C7.19169 1.53469 7.0191 1.20812 6.75486 1.08969C6.51846 0.97375 6.22387 1.03719 6.04172 1.24Z" fill="white"/>
<path d="M10.8415 1.9225C10.9871 1.89281 11.1366 1.96 11.2398 2.07406C12.0831 3.00281 12.6804 4.20125 12.9491 5.48625C12.9899 5.65 12.9851 5.8375 12.8893 5.97719C12.7524 6.2 12.4505 6.25906 12.2523 6.10406C12.137 6.02438 12.0758 5.88094 12.0468 5.73844C11.8273 4.66156 11.3342 3.65594 10.6391 2.86719C10.5314 2.75531 10.4401 2.60875 10.4493 2.43719C10.4375 2.18562 10.6211 1.95813 10.8415 1.9225Z" fill="white"/>
<path d="M1.92926 1.95219C2.14093 1.86562 2.39729 1.97094 2.49961 2.19625C2.57888 2.37 2.56791 2.59969 2.45435 2.75219C2.37873 2.85531 2.28934 2.94469 2.21007 3.04437C1.59391 3.80375 1.15483 4.74031 0.951601 5.73812C0.92321 5.88875 0.855465 6.03937 0.730096 6.11656C0.514494 6.26875 0.189826 6.18469 0.0759813 5.92375C-0.0240895 5.72312 0.0470283 5.49219 0.095096 5.28687C0.375913 4.09062 0.947103 2.98125 1.73165 2.10469C1.78927 2.0425 1.85168 1.98125 1.92926 1.95219Z" fill="white"/>
</svg>
