<svg width="33" height="43" viewBox="0 0 33 43" fill="none" xmlns="http://www.w3.org/2000/svg">
<path d="M0.666193 43V0.818181H17.3082C20.5076 0.818181 23.2332 1.42921 25.4851 2.65128C27.737 3.85961 29.4534 5.54167 30.6342 7.69744C31.8288 9.83949 32.4261 12.3111 32.4261 15.1122C32.4261 17.9134 31.822 20.3849 30.6136 22.527C29.4053 24.669 27.6546 26.3374 25.3615 27.532C23.0822 28.7266 20.3222 29.3239 17.0817 29.3239H6.47443V22.1768H15.6399C17.3563 22.1768 18.7706 21.8816 19.8828 21.2912C21.0088 20.687 21.8464 19.8563 22.3956 18.799C22.9586 17.728 23.2401 16.4991 23.2401 15.1122C23.2401 13.7116 22.9586 12.4896 22.3956 11.446C21.8464 10.3887 21.0088 9.57173 19.8828 8.99503C18.7569 8.40459 17.3288 8.10938 15.5987 8.10938H9.58452V43H0.666193Z" fill="url(#paint0_linear_132_198)"/>
<defs>
<linearGradient id="paint0_linear_132_198" x1="16" y1="-13" x2="16" y2="57" gradientUnits="userSpaceOnUse">
<stop stop-color="#EEDC26"/>
<stop offset="1" stop-color="#FC4E1D"/>
</linearGradient>
</defs>
</svg>
