<svg width="4" height="4" viewBox="0 0 4 4" fill="none" xmlns="http://www.w3.org/2000/svg">
<path d="M0.316051 4V0.363636H1.75071C2.02652 0.363636 2.26148 0.416311 2.45561 0.521662C2.64974 0.625829 2.7977 0.770833 2.8995 0.956676C3.00249 1.14134 3.05398 1.3544 3.05398 1.59588C3.05398 1.83736 3.00189 2.05043 2.89773 2.23509C2.79356 2.41974 2.64264 2.56357 2.44496 2.66655C2.24846 2.76953 2.01054 2.82102 1.73118 2.82102H0.816761V2.2049H1.60689C1.75485 2.2049 1.87678 2.17945 1.97266 2.12855C2.06972 2.07647 2.14193 2.00485 2.18928 1.91371C2.23781 1.82138 2.26207 1.71544 2.26207 1.59588C2.26207 1.47514 2.23781 1.36979 2.18928 1.27983C2.14193 1.18868 2.06972 1.11825 1.97266 1.06854C1.87559 1.01764 1.75249 0.992188 1.60334 0.992188H1.08487V4H0.316051Z" fill="white"/>
</svg>
