<svg width="60" height="60" viewBox="0 0 60 60" fill="none" xmlns="http://www.w3.org/2000/svg">
<path d="M28.9756 0H30.9006C33.2913 0.1 35.6775 0.429375 37.9838 1.075C42.3381 2.26375 46.4013 4.47938 49.7869 7.46125C52.9906 10.27 55.6038 13.7563 57.3613 17.64C58.2706 19.6431 58.9531 21.7494 59.3944 23.9044C59.7344 25.5119 59.8981 27.1494 60 28.7875V31.1506C59.9263 32.1406 59.8769 33.1344 59.7288 34.1169C59.0438 39.1481 57.0481 43.9956 53.9837 48.045C51.4562 51.3925 48.2319 54.2162 44.5638 56.2531C41.315 58.0612 37.7225 59.245 34.0369 59.7338C33.0188 59.8888 31.9894 59.9325 30.9631 60H29.0369C28.0275 59.9319 27.015 59.8894 26.0125 59.7425C21.855 59.2044 17.8163 57.7694 14.2525 55.5619C10.4606 53.2194 7.20375 50.02 4.78313 46.2781C2.2575 42.3819 0.669375 37.8875 0.170625 33.2719C0.0775 32.505 0.058125 31.7325 0 30.9631V29.0369C0.024375 28.7331 0.045625 28.4294 0.056875 28.125C0.32875 23.6612 1.5975 19.2544 3.795 15.3563C6.35813 10.7788 10.1494 6.90375 14.6512 4.21375C18.0994 2.14437 21.9744 0.7925 25.9613 0.2675C26.96 0.118125 27.9694 0.071875 28.9756 0ZM22.4844 5.1625C18.1813 6.44062 14.24 8.89875 11.1856 12.1869C9.60813 13.9081 8.22 15.81 7.1225 17.8738C6.09875 19.7825 5.33313 21.825 4.81313 23.9263C4.51 25.2881 4.28 26.6687 4.19 28.0619C4.09313 29.5994 4.13 31.1444 4.26063 32.6781C4.705 37.4237 6.54312 42.02 9.46062 45.7863C10.7444 47.445 12.2175 48.9669 13.8737 50.255C14.1294 49.0863 14.4231 47.9219 14.8738 46.8106C15.5763 45.0137 16.6094 43.3413 17.9312 41.9331C19.2544 40.5144 20.8463 39.3588 22.5619 38.4619C24.9475 39.7588 27.6469 40.5581 30.3781 40.4738C32.7812 40.4119 35.1381 39.6969 37.2513 38.5694C37.5119 38.4 37.7713 38.6369 37.9975 38.7538C39.8588 39.81 41.5513 41.1875 42.8763 42.875C44.1013 44.4244 45.005 46.2163 45.5944 48.0981C45.8031 48.8188 46.0431 49.5406 46.12 50.2906C46.3169 50.1888 46.4756 50.0331 46.6444 49.8931C48.6044 48.2438 50.3313 46.3163 51.7381 44.175C53.7 41.2025 55.0238 37.8125 55.5963 34.2969C56.3194 29.7725 55.8425 25.06 54.2206 20.7744C51.9331 14.7813 47.3537 9.69938 41.6231 6.81438C39.4281 5.70438 37.0688 4.925 34.65 4.485C30.6163 3.77125 26.4119 3.98687 22.4844 5.1625Z" fill="url(#paint0_linear_126_12)"/>
<path d="M29.3981 14.6525C31.85 14.4825 34.3488 15.2125 36.3238 16.6756C37.7856 17.7444 38.9644 19.1931 39.725 20.8356C40.7669 23.0862 41.0044 25.7056 40.3531 28.1012C39.7906 30.2525 38.5131 32.2012 36.7969 33.61C35.2275 34.9019 33.285 35.7419 31.2637 35.97C28.9131 36.2619 26.4725 35.7256 24.4569 34.4819C22.5119 33.285 20.9494 31.4675 20.0881 29.35C18.8881 26.4625 19.05 23.0425 20.5425 20.2919C21.4981 18.5162 22.965 17.0206 24.7219 16.03C26.1462 15.2175 27.7619 14.7481 29.3981 14.6525Z" fill="url(#paint1_linear_126_12)"/>
<defs>
<linearGradient id="paint0_linear_126_12" x1="30" y1="0" x2="30" y2="60" gradientUnits="userSpaceOnUse">
<stop stop-color="#EEDC26"/>
<stop offset="1" stop-color="#FC4E1D"/>
</linearGradient>
<linearGradient id="paint1_linear_126_12" x1="30" y1="0" x2="30" y2="60" gradientUnits="userSpaceOnUse">
<stop stop-color="#EEDC26"/>
<stop offset="1" stop-color="#FC4E1D"/>
</linearGradient>
</defs>
</svg>
