<svg width="57" height="20" viewBox="0 0 57 20" fill="none" xmlns="http://www.w3.org/2000/svg">
<path d="M56.3006 0.237837L56.7638 0.687838C56.8966 0.99137 56.9877 1.31547 56.9935 1.64767C56.9922 7.00779 56.9909 12.3679 56.9935 17.728C57.0115 18.2628 57.0083 18.8169 56.7645 19.3105L56.3013 19.7605C55.9542 19.9232 55.5718 20.0092 55.1868 19.9992C54.6088 19.9874 54.0301 20.0073 53.4527 19.9936C53.4046 18.5744 53.4475 17.1527 53.4328 15.7336C53.4341 10.4981 53.4328 5.26263 53.4334 0.0277947C53.9942 -0.0245599 54.5587 0.0228084 55.1214 0.00224052C55.5275 -0.0145877 55.9349 0.0633215 56.3006 0.237837Z" fill="url(#paint0_linear_537_117)"/>
<path d="M52.6815 0.00784854C52.7213 1.57101 52.6853 3.13791 52.6975 4.70169C52.6988 9.71028 52.6956 14.7183 52.7001 19.7262C52.6962 19.8147 52.6898 19.9032 52.6834 19.993C51.977 19.9836 51.2681 20.0179 50.563 19.9749C50.5155 18.6249 50.5579 17.2712 50.5431 15.9205C50.5431 10.9132 50.5425 5.90647 50.5431 0.899749C50.5393 0.608059 50.5277 0.31512 50.5637 0.0246769C51.2687 -0.0170821 51.9758 0.0153277 52.6815 0.00784854Z" fill="url(#paint1_linear_537_117)"/>
<path d="M48.8981 0.00722587C49.1977 0.002863 49.4986 -0.00523979 49.7976 0.0259237C49.8047 0.108819 49.8117 0.191714 49.8169 0.275232C49.8194 6.36208 49.8137 12.4508 49.8169 18.5383C49.804 19.0169 49.8457 19.4975 49.7983 19.9749C48.73 20.0241 47.658 19.9799 46.5885 19.9955C43.7867 19.9936 40.985 19.9942 38.1838 19.9967C37.856 20.0036 37.5019 19.925 37.2914 19.6608C37.0495 19.4084 37.0476 19.0475 37.0483 18.7253C37.0585 17.7492 37.0406 16.7732 37.0547 15.7984C37.0393 15.4693 37.4063 15.3957 37.6699 15.3839C38.6034 15.3035 39.3522 14.454 39.347 13.5527C39.3534 11.3713 39.3457 9.18985 39.3509 7.00716C39.3502 6.63009 39.3746 6.24241 39.2482 5.87905C39.0346 5.23272 38.4341 4.70917 37.7347 4.62191C37.5217 4.57205 37.2382 4.60695 37.1086 4.39629C37.0354 4.26042 37.0528 4.10148 37.0457 3.95377C37.0611 2.95654 37.0386 1.95868 37.056 0.960828C37.0547 0.540745 37.3633 0.125024 37.7944 0.0390128C38.1133 -0.0177047 38.4386 0.0103427 38.7606 0.00660309C42.1398 0.00847309 45.519 0.00660232 48.8981 0.00722587ZM45.9411 7.92961C44.9499 7.35308 43.5596 7.59055 42.8288 8.45876C42.0744 9.31015 42.066 10.682 42.8205 11.5358C43.3973 12.2034 44.3654 12.5219 45.2418 12.3336C46.056 12.1722 46.7508 11.5608 47.0337 10.8072C47.4386 9.75454 46.942 8.48307 45.9411 7.92961Z" fill="url(#paint2_linear_537_117)"/>
<path d="M45.4901 8.49491C46.0951 8.79595 46.5089 9.45848 46.4377 10.1248C46.3928 10.8141 45.8616 11.4336 45.1789 11.6181C44.5483 11.7895 43.8252 11.5882 43.3979 11.1033C42.841 10.495 42.8513 9.4965 43.4069 8.89068C43.9016 8.3179 44.8087 8.16208 45.4901 8.49491Z" fill="url(#paint3_linear_537_117)"/>
<path d="M35.9666 7.20848C36.3246 7.20349 36.6838 7.1848 37.0386 7.24276C37.0592 8.70121 37.0399 10.1609 37.0457 11.62C37.0399 12.0083 37.0835 12.3997 37.0078 12.7849C31.6141 12.8054 21.2052 12.7874 15.8115 12.7942C15.1885 12.8061 14.5444 12.725 13.9452 12.9332C13.0348 13.2268 12.3316 14.057 12.2354 14.9881C12.1917 15.4144 12.1879 15.8819 11.8851 16.2272C11.5681 16.6597 11.0183 16.8548 10.4858 16.8411C7.64169 16.8392 4.79759 16.8399 1.95285 16.8411C1.5647 16.838 1.18746 16.7283 0.833949 16.5781L0.31171 16.0707C0.132069 15.7367 0.00824425 15.3683 0.00888584 14.9875C0.00696121 11.7883 0.0140179 8.58777 0.00503606 5.38791C-0.0212684 4.88493 0.0518727 4.37136 0.31171 3.92821L0.83331 3.42149C1.20606 3.26007 1.60833 3.15723 2.01829 3.16034C4.56342 3.16595 7.10726 3.16408 9.65238 3.16346C10.0598 3.16658 10.4704 3.13666 10.8746 3.19275C11.5046 3.27752 12.0628 3.77863 12.1667 4.39317C12.236 4.81076 12.2219 5.24705 12.3977 5.6422C12.7781 6.59394 13.8027 7.23403 14.8485 7.2091C20.2165 7.20848 30.5985 7.2091 35.9666 7.20848ZM7.97146 8.13092C6.986 7.46153 5.47317 7.67095 4.77385 8.63826C4.11881 9.48154 4.165 10.768 4.94067 11.5252C5.64383 12.3293 6.94558 12.4795 7.85469 11.9304C8.58224 11.5165 9.01145 10.6845 8.96012 9.87296C8.93125 9.18424 8.55016 8.52607 7.97146 8.13092Z" fill="url(#paint4_linear_537_117)"/>
<defs>
<linearGradient id="paint0_linear_537_117" x1="58.0356" y1="9.77556" x2="7.29329" y2="9.77555" gradientUnits="userSpaceOnUse">
<stop stop-color="#EDE527"/>
<stop offset="1" stop-color="#FE401C"/>
</linearGradient>
<linearGradient id="paint1_linear_537_117" x1="58.0356" y1="9.77556" x2="7.29329" y2="9.77555" gradientUnits="userSpaceOnUse">
<stop stop-color="#EDE527"/>
<stop offset="1" stop-color="#FE401C"/>
</linearGradient>
<linearGradient id="paint2_linear_537_117" x1="58.0356" y1="9.77556" x2="7.29329" y2="9.77555" gradientUnits="userSpaceOnUse">
<stop stop-color="#EDE527"/>
<stop offset="1" stop-color="#FE401C"/>
</linearGradient>
<linearGradient id="paint3_linear_537_117" x1="58.0356" y1="9.77556" x2="7.29329" y2="9.77555" gradientUnits="userSpaceOnUse">
<stop stop-color="#EDE527"/>
<stop offset="1" stop-color="#FE401C"/>
</linearGradient>
<linearGradient id="paint4_linear_537_117" x1="58.0356" y1="9.77556" x2="7.29329" y2="9.77555" gradientUnits="userSpaceOnUse">
<stop stop-color="#EDE527"/>
<stop offset="1" stop-color="#FE401C"/>
</linearGradient>
</defs>
</svg>
