<svg width="72" height="72" viewBox="0 0 72 72" fill="none" xmlns="http://www.w3.org/2000/svg">
<path d="M35.1 0H36.9C37.6327 0.0604688 38.3653 0.106875 39.1008 0.139219C44.6625 0.600469 50.1047 2.40328 54.8536 5.33391C60.7641 8.96625 65.5931 14.3381 68.5477 20.6184C70.3645 24.4237 71.4656 28.5609 71.8566 32.7572C71.8959 33.5855 71.9255 34.4138 72 35.2406V36.9014C71.8748 38.2205 71.8945 39.5536 71.6695 40.8628C71.0311 45.6398 69.3984 50.2748 66.9305 54.4134C64.6284 58.2919 61.5698 61.7105 58.0134 64.4808C53.7609 67.7686 48.7687 70.1002 43.5066 71.2083C41.3353 71.6906 39.1162 71.8748 36.9 72H35.0986C33.12 71.8847 31.1414 71.7272 29.1909 71.3503C23.1848 70.207 17.4909 67.4817 12.8222 63.5344C9.15047 60.435 6.08766 56.61 3.91641 52.3209C1.85484 48.3005 0.585 43.8834 0.156094 39.3877C0.108281 38.558 0.0759375 37.7283 0 36.9V35.2406C0.118125 34.0706 0.084375 32.8894 0.248906 31.725C1.23609 23.2805 5.34797 15.2536 11.6227 9.5175C16.9847 4.55625 23.8936 1.29375 31.1358 0.330469C32.4464 0.104062 33.7795 0.126562 35.1 0ZM33.9342 5.94984C28.7423 6.26203 23.6559 8.01703 19.3303 10.897C18.5864 11.4075 17.8791 11.9714 17.152 12.5058C13.6505 15.3436 10.7536 18.9408 8.80734 23.0119C7.07625 26.6231 6.08062 30.5845 5.91328 34.5867C5.55609 41.6363 7.76812 48.8138 12.1472 54.3642C14.7333 57.742 18.0605 60.5489 21.7997 62.5725C26.2659 64.9744 31.3495 66.1908 36.4177 66.1134C41.7937 66.0727 47.1389 64.5047 51.7191 61.7006C55.1123 59.5772 58.1231 56.8223 60.4519 53.5612C63.1505 49.8923 64.9294 45.5639 65.6958 41.0794C66.9361 33.9342 65.4848 26.3545 61.6486 20.1938C59.2045 16.2788 55.8759 12.9291 51.9806 10.4541C46.6425 7.09875 40.2258 5.46469 33.9342 5.94984Z" fill="url(#paint0_linear_662_37)"/>
<path d="M27.0478 16.643C29.4722 15.5855 32.0991 15.0356 34.7358 14.8936C37.4062 14.7417 40.1611 15.0356 42.6108 16.1705C44.6048 17.0916 46.3275 18.6806 47.2134 20.7098C48.0895 22.6139 48.1908 24.7964 47.7886 26.8312C47.4047 28.7142 46.4962 30.4552 45.3473 31.9809C44.0536 33.7655 42.3591 35.228 41.1778 37.0969C40.2961 38.4539 39.697 40.0064 39.5156 41.618C39.4172 42.4434 39.4917 43.2745 39.4608 44.1028C36.6848 44.1309 33.9047 44.1239 31.1287 44.107C31.0528 43.283 31.0472 42.4533 31.0387 41.6264C31.0542 39.4284 31.7517 37.2741 32.8556 35.3869C33.9778 33.4266 35.6077 31.8319 36.8564 29.9587C37.6509 28.8436 38.3555 27.5611 38.378 26.1591C38.4131 25.0327 37.9209 23.857 36.9605 23.2284C35.7834 22.4522 34.3153 22.2905 32.94 22.4255C31.6055 22.5534 30.2977 22.9191 29.0714 23.4562C28.568 23.677 28.1236 24.0202 27.5963 24.1875C26.8861 21.9445 26.1675 19.7016 25.4995 17.4459C25.9706 17.1 26.5162 16.8792 27.0478 16.643Z" fill="url(#paint1_linear_662_37)"/>
<path d="M34.373 47.1839C35.9817 47.0095 37.7086 47.437 38.9194 48.5452C40.5253 50.0316 41.0147 52.463 40.4747 54.5358C40.0725 56.1473 38.8744 57.5409 37.312 58.1273C35.3025 58.8797 32.8148 58.5984 31.2286 57.0797C29.2627 55.2389 28.9941 52.013 30.3061 49.7264C31.1316 48.2667 32.7263 47.3569 34.373 47.1839Z" fill="url(#paint2_linear_662_37)"/>
<defs>
<linearGradient id="paint0_linear_662_37" x1="35.192" y1="-1.47906" x2="35.192" y2="70.995" gradientUnits="userSpaceOnUse">
<stop stop-color="#EDE527"/>
<stop offset="1" stop-color="#FE401C"/>
</linearGradient>
<linearGradient id="paint1_linear_662_37" x1="35.192" y1="-1.47906" x2="35.192" y2="70.995" gradientUnits="userSpaceOnUse">
<stop stop-color="#EDE527"/>
<stop offset="1" stop-color="#FE401C"/>
</linearGradient>
<linearGradient id="paint2_linear_662_37" x1="35.192" y1="-1.47906" x2="35.192" y2="70.995" gradientUnits="userSpaceOnUse">
<stop stop-color="#EDE527"/>
<stop offset="1" stop-color="#FE401C"/>
</linearGradient>
</defs>
</svg>
