<svg width="99" height="99" viewBox="0 0 99 99" fill="none" xmlns="http://www.w3.org/2000/svg">
<path d="M48.2644 0H50.9289C55.0262 0.191426 59.1177 0.750234 63.0622 1.90072C74.9036 5.23424 85.3237 13.2142 91.7239 23.7078C95.7477 30.2588 98.2169 37.765 98.8086 45.4317C98.8569 46.3773 98.9575 47.3189 99 48.2644V50.7356C98.8105 54.4732 98.4006 58.2166 97.4299 61.8402C94.3903 73.813 86.6269 84.4748 76.2319 91.1303C70.2958 94.9723 63.5166 97.4976 56.5151 98.4934C54.6685 98.8086 52.791 98.8472 50.927 99H46.7311C44.8091 98.7409 42.8697 98.6075 40.9613 98.2498C31.999 96.7087 23.5125 92.5805 16.7179 86.5419C7.25484 78.2139 1.12342 66.1579 0.197227 53.5664C0.148887 52.6208 0.0367383 51.6811 0 50.7356V48.2644C0.129551 46.4643 0.195293 44.6563 0.46793 42.8697C1.76537 32.7976 6.36539 23.2147 13.2896 15.8013C20.79 7.71117 31.0535 2.2217 41.9706 0.582012C44.0492 0.206895 46.1626 0.148887 48.2644 0ZM46.4971 6.88166C41.5046 7.23744 36.572 8.46721 32.0106 10.5323C24.6514 13.8387 18.2667 19.276 13.8349 26.0204C9.20777 32.9794 6.71537 41.3383 6.79078 49.6953C6.78885 56.5615 8.52908 63.4103 11.7446 69.4721C17.0369 79.5055 26.4651 87.267 37.357 90.4555C45.6676 92.9363 54.742 92.799 62.9656 90.0397C69.7254 87.8026 75.8858 83.8136 80.7391 78.6083C85.1825 73.8362 88.5431 68.0451 90.411 61.7938C92.9459 53.4426 92.8125 44.3083 90.0397 36.0345C86.5651 25.4654 78.7533 16.4317 68.8301 11.414C61.9813 7.90453 54.1696 6.34025 46.4971 6.88166Z" fill="url(#paint0_linear_569_13)"/>
<path d="M42.4308 28.7023C43.0611 28.0777 43.8036 27.486 44.7086 27.3546C45.9151 27.1341 47.1894 27.6755 47.9261 28.6423C48.6628 29.5646 48.8097 30.8834 48.3824 31.97C48.1194 32.6139 47.6244 33.1225 47.1468 33.6136C43.2352 37.502 39.3506 41.4137 35.4408 45.3041C35.2107 45.5419 34.9903 45.7894 34.7853 46.0524C35.756 46.1355 36.7325 46.0969 37.7051 46.0969C48.5332 46.0969 59.3613 46.0949 70.1895 46.0949C71.0132 46.0988 71.8388 46.0505 72.6606 46.1259C73.9503 46.2477 75.122 47.1836 75.5262 48.4133C75.8703 49.4729 75.6925 50.7104 74.9828 51.5844C74.3138 52.4487 73.2213 52.9283 72.1346 52.9051C62.0123 52.8993 51.888 52.9051 41.7656 52.9031C39.4395 52.936 37.1076 52.8393 34.7834 52.9495C34.9884 53.2106 35.2069 53.46 35.437 53.6998C39.4105 57.654 43.3686 61.6236 47.3344 65.5875C48.0614 66.2875 48.6512 67.2098 48.6183 68.2559C48.7092 70.0773 47.0579 71.7325 45.2461 71.6919C44.1846 71.7286 43.2429 71.1234 42.5255 70.3964C36.8562 64.7193 31.1831 59.052 25.5118 53.3788C24.8409 52.6904 24.0848 52.0659 23.5647 51.248C22.9228 50.2522 22.886 48.8987 23.4932 47.8777C23.965 47.0791 24.6765 46.4701 25.3185 45.8146C31.0245 40.1124 36.7286 34.4083 42.4308 28.7023Z" fill="url(#paint1_linear_569_13)"/>
<defs>
<linearGradient id="paint0_linear_569_13" x1="49.5" y1="0" x2="49.5" y2="99" gradientUnits="userSpaceOnUse">
<stop stop-color="#EEDC26"/>
<stop offset="1" stop-color="#FC4E1D"/>
</linearGradient>
<linearGradient id="paint1_linear_569_13" x1="49.5" y1="0" x2="49.5" y2="99" gradientUnits="userSpaceOnUse">
<stop stop-color="#EEDC26"/>
<stop offset="1" stop-color="#FC4E1D"/>
</linearGradient>
</defs>
</svg>
