<svg width="12" height="12" viewBox="0 0 12 12" fill="none" xmlns="http://www.w3.org/2000/svg">
<path d="M8.81421 0.271505C9.25281 0.0311654 9.79869 -0.0529959 10.3074 0.0325775C10.8944 0.125494 11.4239 0.454796 11.7194 0.90328C11.9163 1.19559 12.0148 1.53703 11.9982 1.87537C11.9809 2.34193 11.7422 2.79832 11.3496 3.11802C10.9684 3.43433 10.4427 3.62073 9.91315 3.61056C9.41292 3.62129 8.9241 3.44648 8.54649 3.16773C8.49235 3.11661 8.42192 3.16575 8.36779 3.18919C6.77906 3.99861 5.70241 4.79334 4.11564 5.60558C4.18999 5.88179 4.18608 6.1676 4.11597 6.44381C5 7 5 7 6.14448 7.73475C6.94732 8.13353 7.74071 8.54671 8.54649 8.94069C8.82138 8.75259 9.12726 8.58851 9.47488 8.52694C9.99826 8.42244 10.5679 8.51169 11.0163 8.76756C11.4699 9.02004 11.7976 9.43633 11.9043 9.89414C11.9995 10.298 11.9242 10.7321 11.6894 11.0913C11.482 11.4184 11.1507 11.6844 10.7597 11.84C10.2467 12.0467 9.6301 12.0538 9.11193 11.8572C8.45094 11.6152 7.96506 11.0506 7.89332 10.4316C7.86104 10.2353 7.89984 10.039 7.92691 9.84471C6.38807 9.06608 5.3711 8.28801 3.83292 7.50881C3.72889 7.45882 3.63237 7.39528 3.51987 7.36026C3.47291 7.36167 3.43997 7.39754 3.4028 7.41787C2.94561 7.75367 2.31201 7.89629 1.72309 7.8062C1.29786 7.73955 0.895787 7.55795 0.596432 7.2874C0.232185 6.96995 0.013376 6.53051 0.000984457 6.08287C-0.0114071 5.73098 0.0932692 5.37541 0.310122 5.07689C0.619259 4.64309 1.14655 4.32735 1.72863 4.24431C2.2631 4.161 2.83246 4.27199 3.27399 4.54537C3.34964 4.59141 3.41649 4.64874 3.49769 4.68771C3.57563 4.68828 3.64019 4.63462 3.70802 4.60553C5.27099 3.81136 6.31861 3.02652 7.88093 2.2315C7.81538 1.93016 7.80038 1.61611 7.90343 1.31957C8.04235 0.888594 8.37333 0.505349 8.81421 0.271505Z" fill="url(#paint0_linear_547_148)"/>
<defs>
<linearGradient id="paint0_linear_547_148" x1="6" y1="0" x2="6" y2="12" gradientUnits="userSpaceOnUse">
<stop stop-color="#EDE527"/>
<stop offset="1" stop-color="#FE401C"/>
</linearGradient>
</defs>
</svg>
