<svg width="464" height="682" viewBox="0 0 464 682" fill="none" xmlns="http://www.w3.org/2000/svg">
<path d="M224.693 0H236.413C257.333 1.16 278.24 4.29333 298.08 11.16C337.907 24.5467 373.467 50.3867 398.293 84.3067C423.88 118.68 438.08 161.227 438.787 204.04C439.84 247.96 426.6 292.12 401.333 328.067C379.533 359.28 348.933 384.267 313.933 399.307C272.893 417.133 226.053 421.013 182.533 410.813C143.84 401.893 107.92 381.413 80.4667 352.733C46.8133 317.933 26.08 270.933 23.2133 222.6C20.7333 186.08 27.6 148.853 43.8933 116.013C63.7067 75.4533 97.1867 41.7467 137.693 21.8133C164.653 8.21334 194.627 1.41333 224.693 0ZM216.493 70.1867C180.373 73.9333 146.147 92.5067 123.307 120.733C103.36 145.12 91.7733 176.427 92.0133 208C91.6933 244.027 106.533 279.813 131.88 305.36C151.16 325.12 176.453 338.92 203.547 344.333C233.68 350.48 265.853 346.053 293.24 332.027C324 316.493 348.64 289.107 360.667 256.787C370.6 230.733 372.08 201.64 365.333 174.613C355.6 135.28 327.587 100.973 291.067 83.4533C268.093 72.16 241.96 67.5733 216.493 70.1867Z" fill="#8A8A8A"/>
<path d="M213.747 93.8933C236.2 90.7333 259.613 93.88 280.107 103.72C305.133 115.493 325.653 136.533 336.653 161.907C347.213 185.773 349.28 213.28 342.333 238.427C337.2 257.507 327.133 275.293 313.16 289.28C296.12 306.853 273.253 318.587 249.107 322.44C224.053 326.44 197.667 322.08 175.44 309.8C151.36 296.747 132.187 274.88 122.613 249.2C115.587 231.173 113.84 211.373 116.24 192.253C119.72 166.573 132.24 142.253 151.093 124.493C168.187 108.2 190.347 97.2667 213.747 93.8933Z" fill="#8A8A8A"/>
<path d="M92.0267 393.733C97.12 396.813 101.587 400.787 106.64 403.933C140.573 425.893 180.72 437.693 221 439.427C219.92 444.653 217.707 449.56 215.813 454.52C190.413 521.173 165.067 587.827 139.653 654.48C136.067 663.52 133.12 672.84 128.947 681.653C126.067 676.733 123.96 671.44 121.773 666.2C113.347 647.013 105 627.787 96.6133 608.573C94.2667 603.32 92.44 597.773 89.2667 592.947C84.2133 594.36 79.5467 596.8 74.7467 598.853C56.7867 606.707 38.8267 614.547 20.8533 622.333C13.9333 625.253 7.24 628.8 0 630.933C1.45333 625.52 3.72 620.4 5.76 615.213C32.0667 547.333 58.4933 479.48 84.8267 411.613C87.2533 405.653 89.1333 399.48 92.0267 393.733Z" fill="#8A8A8A"/>
<path d="M337.293 414.813C349.467 408.947 360.533 401.173 371.733 393.733C378.56 409.36 384.08 425.547 390.52 441.347C412.48 498.053 434.613 554.707 456.547 611.427C458.973 617.92 461.947 624.227 463.787 630.933C457.507 629.093 451.653 626.16 445.68 623.533C426.787 615.333 407.92 607.107 389.04 598.853C384.24 596.8 379.573 594.36 374.52 592.947C371.693 597.2 370 602.053 367.973 606.707C358.2 629.333 348.187 651.853 338.48 674.507C337.373 676.933 336.173 679.32 334.84 681.64C330.667 672.84 327.72 663.52 324.133 654.48C300.573 592.707 277.093 530.893 253.52 469.12C250.093 459.173 245.373 449.64 242.787 439.413C275.573 438.107 308.04 429.653 337.293 414.813Z" fill="#8A8A8A"/>
</svg>
