<svg width="25" height="25" viewBox="0 0 25 25" fill="none" xmlns="http://www.w3.org/2000/svg">
<path d="M9.60201 0.271099C13.3283 -0.524665 17.4072 0.44264 20.2376 3.0253C24.9741 7.02318 25.7984 14.7902 21.8434 19.6029C18.3554 24.3251 11.2841 25.7641 6.23311 22.7907C2.23523 20.6083 -0.275952 16.0387 0.0242468 11.4928C0.186259 6.15118 4.4081 1.35277 9.60201 0.271099ZM9.11598 1.10975C4.34139 2.35819 0.681825 6.98506 0.710416 11.9407C0.624645 15.6765 2.47826 19.398 5.54219 21.5471C8.65853 23.7771 12.9185 24.2679 16.4684 22.8241C21.6671 20.8704 24.8168 14.8188 23.354 9.44383C22.0388 3.30167 15.1199 -0.739091 9.11598 1.10975Z" fill="url(#paint0_linear_359_6)"/>
<path d="M12.5317 4.64593H15.1758C15.3126 4.70115 15.4479 4.7918 15.4995 4.93526C15.5435 5.07003 15.5262 5.2138 15.5401 5.35276C15.6017 6.01728 15.8945 6.66258 16.3725 7.13591C16.8491 7.62544 17.5053 7.94119 18.1894 8.00572C18.3377 8.02223 18.4912 8.00302 18.6356 8.04744C18.8182 8.10927 18.9484 8.29386 18.9408 8.48565C18.9386 9.28673 18.9411 10.0881 18.9399 10.8892C18.9423 11.1038 18.7657 11.3046 18.5488 11.3253C18.3222 11.3433 18.0938 11.3259 17.8681 11.3013C17.1215 11.2299 16.3856 11.03 15.7149 10.6968C15.6557 10.6683 15.5953 10.6416 15.5329 10.6218C15.5289 11.931 15.5326 13.2408 15.5313 14.5506C15.531 14.9615 15.5383 15.3763 15.464 15.7824C15.2941 16.8491 14.7593 17.8528 13.9724 18.6002C13.2182 19.3262 12.2287 19.8085 11.1876 19.9592C11.0286 19.9799 10.869 19.9934 10.7101 20.0132H10.0809C9.82427 19.9688 9.56369 19.9469 9.31039 19.8851C8.2996 19.6594 7.36587 19.1137 6.67361 18.3513C6.08691 17.7135 5.67192 16.923 5.48202 16.0814C5.28726 15.2037 5.32457 14.2742 5.61125 13.4203C5.92249 12.4697 6.53285 11.6194 7.33068 11.0077C8.17492 10.3552 9.23333 9.97826 10.3045 9.95215C10.4365 9.94794 10.5799 9.94704 10.6928 10.0248C10.832 10.1124 10.9076 10.276 10.9012 10.4375C10.8997 11.2187 10.8997 12 10.9012 12.7813C10.906 12.9347 10.8366 13.0907 10.7067 13.1784C10.5833 13.2669 10.4243 13.2594 10.2799 13.2735C9.74753 13.3128 9.25305 13.6271 8.97154 14.0719C8.79529 14.3477 8.70216 14.6743 8.71186 15.0005C8.70519 15.4742 8.92573 15.9391 9.27884 16.2551C9.56733 16.5148 9.94592 16.6723 10.3345 16.7002C10.8378 16.7315 11.3508 16.5328 11.6975 16.1699C12.0175 15.846 12.1902 15.3925 12.1838 14.9411C12.1835 11.7596 12.1841 8.57779 12.1832 5.39628C12.1862 5.24471 12.1668 5.08834 12.2114 4.94097C12.259 4.7948 12.397 4.70535 12.5317 4.64593Z" fill="url(#paint1_linear_359_6)"/>
<defs>
<linearGradient id="paint0_linear_359_6" x1="11.9082" y1="-0.5" x2="11.9082" y2="24" gradientUnits="userSpaceOnUse">
<stop stop-color="#EDE527"/>
<stop offset="1" stop-color="#FE401C"/>
</linearGradient>
<linearGradient id="paint1_linear_359_6" x1="11.9082" y1="-0.5" x2="11.9082" y2="24" gradientUnits="userSpaceOnUse">
<stop stop-color="#EDE527"/>
<stop offset="1" stop-color="#FE401C"/>
</linearGradient>
</defs>
</svg>
