<svg width="7" height="9" viewBox="0 0 7 9" fill="none" xmlns="http://www.w3.org/2000/svg">
<path d="M2.05664 1.87189C2.42899 1.08276 3.09481 0.412044 3.90759 0C3.81227 0.319847 3.71742 0.656299 3.80523 0.987944C3.91463 1.4865 4.28135 1.89156 4.68656 2.21446C5.1223 2.56839 5.62424 2.85023 6.02054 3.2461C6.56427 3.77874 6.96244 4.47349 6.99156 5.21893C7.01081 5.79134 7.01644 6.38515 6.78683 6.92697C6.4882 7.57234 5.98485 8.13994 5.33594 8.5048C4.5997 8.93563 3.68268 9.10779 2.82951 8.9317C1.34153 8.66297 0.135265 7.40499 0.01694 5.99845C-0.0267276 5.34259 3.6372e-05 4.66313 0.265799 4.04616C0.467703 3.61314 0.703884 3.18274 1.06027 2.84105C1.07154 3.2745 1.08515 3.71888 1.26452 4.12656C1.3974 4.42674 1.57865 4.73916 1.88526 4.91263C1.91108 4.65614 1.79088 4.41494 1.78525 4.16064C1.74533 3.39335 1.71951 2.59155 2.05664 1.87189ZM4.37291 3.34092C4.49499 3.71539 4.78611 4.02868 4.85466 4.42106C5.06079 5.35133 4.56965 6.36199 3.72024 6.8741C3.86157 6.40219 4.02497 5.91674 3.93858 5.42037C3.86439 5.45838 3.83575 5.53179 3.81086 5.60214C3.55919 6.29077 2.93939 6.85007 2.19704 7.07378C2.03176 7.12666 1.85662 7.14894 1.69462 7.21142C2.22427 7.70474 2.96427 8.03639 3.72446 7.98963C4.09728 7.94856 4.47339 7.87253 4.80583 7.7043C5.43173 7.39101 5.89329 6.82298 6.08017 6.18809C6.23841 5.63535 6.16234 5.02886 5.86042 4.52942C5.55381 3.97537 5.02416 3.51614 4.37291 3.34092Z" fill="url(#paint0_linear_435_4)"/>
<defs>
<linearGradient id="paint0_linear_435_4" x1="3.42144" y1="-0.184883" x2="3.42144" y2="8.87437" gradientUnits="userSpaceOnUse">
<stop stop-color="#EDE527"/>
<stop offset="1" stop-color="#FE401C"/>
</linearGradient>
</defs>
</svg>
