<svg width="5" height="5" viewBox="0 0 5 5" fill="none" xmlns="http://www.w3.org/2000/svg">
<path d="M2.03946 0.55299C2.1423 0.249574 2.40521 0.0132087 2.70105 0.000812867C3.23396 -0.000314025 3.76662 -0.000313965 4.29928 0.00109465C4.69188 0.0157442 5.02191 0.432413 4.99886 0.865139C4.99886 1.9833 4.9981 3.10146 4.99937 4.21962C4.97834 4.62276 4.66554 4.98252 4.29903 4.99886C3.82589 5.00055 3.35275 4.99942 2.87961 4.99971C2.76462 4.99745 2.64583 5.01098 2.53514 4.96703C2.30617 4.89462 2.12507 4.69037 2.03946 4.44697C1.85203 4.43936 1.65852 4.46387 1.47818 4.39231C1.28163 4.29962 1.11218 4.11989 1.04633 3.89056C0.880677 3.88098 0.710215 3.91282 0.548872 3.85619C0.240622 3.77252 0.0146906 3.44037 0 3.09272C0.00101315 2.69747 0.00101315 2.30249 0 1.90723C0.0139308 1.59001 0.200603 1.28716 0.468833 1.17165C0.652719 1.08601 0.853069 1.11531 1.04658 1.10939C1.11218 0.879789 1.28188 0.700331 1.47818 0.607363C1.65852 0.536087 1.85203 0.560597 2.03946 0.55299ZM2.68382 0.565104C2.5668 0.598347 2.48905 0.731884 2.49968 0.864294C2.50019 1.96442 2.49842 3.06455 2.5007 4.16468C2.49057 4.31484 2.61898 4.44866 2.75145 4.44415C3.25042 4.44556 3.74965 4.44556 4.24863 4.44415C4.38667 4.45035 4.49938 4.3123 4.49811 4.16243C4.50166 3.06314 4.49887 1.96358 4.49938 0.864012C4.51356 0.705684 4.39503 0.549609 4.24888 0.555807C3.77549 0.553553 3.30209 0.556089 2.82896 0.55468C2.78032 0.555525 2.73119 0.552708 2.68382 0.565104ZM1.50275 1.40126C1.503 2.13374 1.503 2.86622 1.50275 3.5987C1.48958 3.74576 1.60609 3.88972 1.73906 3.88859C1.82392 3.89 1.91003 3.89648 1.99438 3.88211C2.00628 3.81675 2.00071 3.74942 2.00147 3.68321C2.00096 2.89439 2.00122 2.10557 2.00147 1.31674C2.00046 1.25025 2.00628 1.1832 1.99412 1.11756C1.91003 1.10291 1.82392 1.11024 1.73906 1.11165C1.60609 1.10996 1.48958 1.25392 1.50275 1.40126ZM0.502014 1.93456C0.500241 2.31151 0.500494 2.68845 0.502014 3.06511C0.498974 3.1733 0.567362 3.2719 0.654239 3.31359C0.764165 3.35726 0.884223 3.32543 0.998455 3.3381C0.998455 2.77917 0.998962 2.22051 0.998455 1.66185C0.916644 1.66495 0.835085 1.66411 0.753527 1.66411C0.623591 1.66101 0.498468 1.7875 0.502014 1.93456Z" fill="white"/>
</svg>
