<svg width="112" height="65" viewBox="0 0 112 65" fill="none" xmlns="http://www.w3.org/2000/svg">
<path d="M60.4743 0.328803C61.0227 -0.155907 61.4971 -0.0650239 62.0403 0.452616C63.1556 2.93676 66.1872 1.14148 68.1034 2.64172C67.925 3.1936 67.399 4.18937 68.1338 4.51339C68.1351 4.72545 68.1351 4.94014 68.1404 5.15484C67.6818 5.19699 67.2431 5.14957 66.8598 4.89931C66.8242 3.09218 65.7855 4.48704 66.2757 5.44856C65.9189 7.98275 66.4304 10.538 66.1608 13.0762C66.1753 13.2514 66.2004 13.4252 66.2308 13.6004C66.2453 14.6146 67.6329 14.7384 68.3954 14.965C68.4073 15.4207 68.5408 15.9818 69.191 15.8422C70.6328 15.9502 72.1697 16.5192 73.5784 16.3914C73.7727 16.2716 73.9696 16.0951 74.2088 16.2149C74.5484 16.3335 74.8986 16.4836 75.2541 16.5745C75.5911 16.7431 75.8514 16.5166 76.0483 16.2584C76.0509 16.5574 76.0853 16.8511 76.4646 16.7747C77.4412 16.776 78.4046 16.9591 79.3481 17.1988C79.6996 17.2766 80.0644 17.3793 80.4291 17.4254C81.0463 17.4834 81.6806 17.5281 82.2713 17.7376C82.9413 17.997 82.821 16.7971 83.0298 16.4612C83.0444 16.8946 83.0404 17.3464 83.0959 17.7837C84.6632 18.2051 86.2966 18.325 87.8586 18.7702C86.4103 18.8519 85.1548 19.9925 83.6668 19.3208C78.8341 18.188 73.9537 17.27 69.0945 16.2703C68.8897 16.4178 68.7007 16.5877 68.5223 16.7668C68.4483 16.9302 68.4113 17.1066 68.373 17.2831C68.3479 17.9206 67.9131 18.3685 67.2854 18.4488C66.7396 19.5012 68.2527 19.6316 68.8897 19.708C68.9505 20.281 68.8011 20.9883 69.4156 21.2886C70.6063 22.3094 69.4434 24.8423 71.3926 24.9028C70.9843 25.3902 70.12 24.9279 69.783 25.4771C69.9416 26.112 69.3905 27.4739 70.4874 27.3896C71.131 28.5487 69.4711 27.4766 70.1663 28.6765C71.2724 28.4407 72.4049 28.55 73.5282 28.5421C74.9541 29.2152 73.3537 30.182 73.9061 31.1619C73.2071 31.1132 73.515 30.2057 73.4119 29.7104C73.0498 29.9199 72.6771 29.9436 72.463 29.5287C72.4908 30.1016 72.5622 30.6812 72.5899 31.2594C70.8231 30.9156 69.0033 31.2107 67.6818 29.7302C66.7792 29.7618 65.6546 30.1109 65.7035 31.2107C64.9053 31.4451 64.0622 31.1646 63.2614 31.0803C63.116 29.8883 65.796 31.7929 65.2423 30.1965C65.6044 28.1878 62.9574 29.0242 61.7337 28.5593C61.1351 28.1786 60.5946 28.4512 60.0871 28.7779C60.1347 28.6356 60.1809 28.4934 60.2259 28.3525C61.8672 27.3119 63.7873 28.4631 65.4498 27.7782C65.8026 25.7906 66.2282 23.6674 65.7326 21.6429C65.2185 21.1793 65.7775 20.1558 65.0203 19.9807C63.3486 19.4894 63.9274 17.2515 63.5019 16.0977C63.083 15.8712 62.0958 16.2808 62.1883 15.5946C62.8821 15.6077 63.5785 15.7869 64.2723 15.6907C64.9291 15.0861 63.4186 15.0769 63.5838 14.4802C63.7979 13.7716 62.45 14.3485 62.5544 13.6281C63.0512 13.5714 63.9856 14.2076 64.1283 13.4134C64.2472 11.0175 64.1243 8.61762 64.1732 6.22173C63.7675 5.31684 65.171 5.30368 65.0917 4.545C64.2948 4.20386 63.157 4.81897 62.5834 4.12878C63.1715 3.79423 64.3609 4.59637 64.2935 3.4926C63.0684 3.17121 61.702 2.56796 61.4958 1.14412C61.6082 0.00741921 61.0558 0.888591 60.7624 1.10197C60.7161 0.826685 60.7703 0.475007 60.4743 0.328803ZM69.7672 27.8704C69.232 27.7097 68.9716 28.9294 69.5742 28.7331C70.079 28.8648 70.3262 27.6267 69.7672 27.8704ZM70.5482 29.0176C70.0196 29.4562 71.0305 30.0648 71.4442 29.8066C71.8049 29.1375 71.0424 28.7805 70.5482 29.0176Z" fill="#414242"/>
<path d="M45.935 0.169435C46.5866 -0.17961 47.8737 0.127283 48.7459 0.0759144C47.8116 0.162846 46.872 0.193144 45.935 0.169435Z" fill="#7F6220"/>
<path d="M48.7459 0.0759144C49.0736 0.0469371 49.4027 0.0443015 49.7331 0.0693273C51.5435 0.255045 53.3672 0.143086 55.1856 0.166795C56.9485 0.161526 58.7193 0.112791 60.4743 0.328803C60.7703 0.475007 60.7161 0.826685 60.7624 1.10197C60.7835 1.76976 61.1351 2.39936 61.0611 3.07242C60.3567 2.72601 59.5189 2.11354 58.8026 2.71285C57.826 2.80768 56.8084 2.45732 55.8173 2.55479C55.4433 2.35063 55.8094 1.64332 54.9345 2.13462C48.5186 2.20574 42.1251 1.54585 35.7158 1.36672C35.4925 1.35881 35.0445 1.34169 34.8211 1.33379C38.261 0.0759099 42.2784 0.442085 45.935 0.169435C46.872 0.193144 47.8116 0.162846 48.7459 0.0759144Z" fill="#F8BF40"/>
<path d="M49.7331 0.0693273C51.5039 0.093036 53.6276 -0.138783 55.1856 0.166795C53.3672 0.143086 51.5435 0.255045 49.7331 0.0693273Z" fill="#7F6222"/>
<path d="M62.0403 0.452616C64.715 0.637016 67.4439 0.494768 70.0843 0.990016C70.6195 0.917573 72.8384 1.13754 72.1895 2.0872C70.8283 2.28214 69.4474 2.34931 68.1034 2.64172C66.1872 1.14148 63.1556 2.93676 62.0403 0.452616Z" fill="#EDB836"/>
<path d="M60.7624 1.10197C61.0558 0.888591 61.6082 0.00741921 61.4958 1.14412C61.702 2.56796 63.0684 3.17121 64.2935 3.4926C64.3609 4.59637 63.1715 3.79423 62.5834 4.12878C63.157 4.81897 64.2948 4.20386 65.0917 4.545C65.171 5.30368 63.7675 5.31684 64.1732 6.22173C64.1243 8.61762 64.2472 11.0175 64.1283 13.4134C63.9856 14.2076 63.0512 13.5714 62.5544 13.6281C62.45 14.3485 63.7979 13.7716 63.5838 14.4802C63.4186 15.0769 64.9291 15.0861 64.2723 15.6907C63.5785 15.7869 62.8821 15.6077 62.1883 15.5946C62.0958 16.2808 63.083 15.8712 63.5019 16.0977C63.9274 17.2515 63.3486 19.4894 65.0203 19.9807C65.7775 20.1558 65.2185 21.1793 65.7326 21.6429C66.2282 23.6674 65.8026 25.7906 65.4498 27.7782C63.7873 28.4631 61.8672 27.3119 60.2259 28.3525C60.4954 25.6312 58.3572 29.123 60.0871 28.7779C60.5946 28.4512 61.1351 28.1786 61.7337 28.5593C62.9574 29.0242 65.6044 28.1878 65.2423 30.1965C65.796 31.7929 63.116 29.8883 63.2614 31.0803C64.0622 31.1646 64.9053 31.4451 65.7035 31.2107C65.6546 30.1109 66.7792 29.7618 67.6818 29.7302C69.0033 31.2107 70.8231 30.9156 72.5899 31.2594C72.5622 30.6812 72.4908 30.1016 72.463 29.5287C72.6771 29.9436 73.0498 29.9199 73.4119 29.7104C73.515 30.2057 73.2071 31.1132 73.9061 31.1619C73.3537 30.182 74.9541 29.2152 73.5282 28.5421C72.4049 28.55 71.2724 28.4407 70.1663 28.6765C69.4711 27.4766 71.131 28.5487 70.4874 27.3896C69.3905 27.4739 69.9416 26.112 69.783 25.4771C70.12 24.9279 70.9843 25.3902 71.3926 24.9028C74.2907 25.8775 77.7874 26.4545 79.6204 29.1638C81.3436 32.5515 84.3223 35.1819 85.4971 38.887C84.9355 39.5706 83.8016 38.6183 82.9823 38.6789C82.0308 38.5327 81.0872 38.3299 80.1529 38.1046C79.7115 38.0269 79.7617 37.1128 79.3111 37.2524C79.216 37.8017 79.2054 38.3707 79.0944 38.9213C78.4059 38.4616 78.9662 37.1774 78.1059 36.8692C76.4236 36.7519 77.531 34.6919 76.7342 33.7436C76.3866 32.7675 73.9048 31.6203 74.1718 33.6145C73.1582 33.6079 74.9052 31.7784 73.5678 32.267C72.504 32.6477 72.2556 31.3016 71.2909 31.3872C71.6027 32.3118 72.3838 33.168 72.7221 33.9793C71.3596 35.0884 71.5538 32.2315 70.568 31.864C69.6588 32.3 68.9716 31.428 68.1734 31.1014C68.6637 32.1393 66.9034 32.9822 66.4422 32.0273C66.2704 30.6733 64.5895 31.8482 63.9591 32.3105C63.4741 32.4672 63.0711 33.5394 62.5411 33.0125C61.4972 31.9957 59.9431 32.3777 58.9572 33.3036C56.7886 32.9282 55.2993 34.8684 53.6513 35.8984C53.1214 36.6149 51.7946 37.205 52.5043 38.2706C53.099 39.2808 53.0487 40.6968 52.0219 41.4515C51.6625 41.059 51.3374 39.7142 50.6555 40.4347C50.1203 41.059 50.4493 41.8374 51.0942 42.1786C51.2766 43.2455 51.755 44.5178 51.122 45.5215C50.5603 46.0036 50.2247 44.3426 49.7331 45.046C49.1225 45.6835 50.0608 46.1748 50.5894 46.3684C50.6396 47.6184 52.1382 49.2569 50.9951 50.3278C50.67 49.8391 49.8586 49.685 49.8758 50.4806C49.0287 49.7153 48.1314 51.367 47.2354 51.5132C45.5835 51.342 43.9594 50.8942 42.3062 50.6913C41.101 50.8046 40.7653 49.4808 40.168 48.7288C39.7583 48.115 39.2627 47.5091 39.305 46.7175C38.7381 46.8452 38.1884 46.8492 37.7655 46.4317C37.7589 47.4511 36.4849 47.8976 36.0832 46.8689C35.5123 46.0181 34.3269 46.6687 34.019 47.4156C32.9909 47.3826 33.2591 45.8824 32.1953 45.8547C31.6627 45.5913 31.1976 46.1248 30.7112 46.2775C29.884 45.0658 32.642 43.9818 31.5768 42.6567C30.8156 42.1562 30.8553 41.5226 31.2769 40.8469C31.594 39.3836 29.3223 38.5301 30.3333 36.9139C31.1579 36.1553 30.8526 34.68 29.7598 34.3455C28.1158 33.9899 29.14 32.1037 28.4581 31.1448C27.1418 31.4385 26.563 29.7974 25.3512 29.7052C24.6389 30.016 24.4605 31.7244 25.7027 31.2884C25.2772 32.6898 24.2451 30.3861 23.4548 30.0766C21.7554 29.6169 20.5369 28.0311 18.634 28.1773C17.9283 26.2569 15.617 27.3159 14.2545 26.2371C14.8505 25.3085 16.2949 26.4334 16.9411 25.5548C18.7516 26.033 20.1101 27.4621 21.8968 27.9718C24.2028 28.6989 26.7639 28.3077 28.9299 27.3277C29.1056 26.6599 28.9114 25.8275 28.5453 25.2058C28.1343 24.7053 27.6282 24.3036 27.1167 23.9163C27.089 23.591 27.5515 22.9601 27.0189 22.9113C27.94 22.3634 27.7022 20.6774 28.9893 20.2889C30.8659 19.7357 32.8785 20.5958 34.7352 20.9396C34.8819 21.4941 35.1343 22.0249 35.2335 22.5939C34.9744 22.2409 34.8396 21.8234 34.6758 21.4269C34.1815 21.6166 33.834 21.9735 33.867 22.5412C34.652 21.6864 33.7296 24.3259 33.723 23.0615C33.4891 23.483 33.1547 24.455 33.2974 24.5973C33.8921 23.1326 33.4349 24.9081 33.23 25.5799C33.6463 25.9092 34.6718 25.5575 34.6903 24.8831C34.8595 25.6181 35.655 25.186 36.1519 25.0398C36.1413 24.7606 35.6233 24.1929 36.1876 24.3325C35.7872 23.2577 35.2612 22.2277 34.9374 21.1226C35.8295 21.4229 36.7254 21.7127 37.6082 22.0407C37.6439 21.1002 37.6135 20.1585 37.5355 19.2233C37.451 18.7873 37.6928 18.0247 37.0479 17.9944C37.1523 17.9733 37.3611 17.9312 37.4655 17.9101C37.4761 14.3986 37.5884 10.8765 37.965 7.38609C38.0932 6.61951 38.8147 6.23754 39.4478 5.93723C39.5574 4.90853 38.6562 6.40482 38.3416 5.76732C37.8685 5.70936 36.8748 6.66298 36.9699 5.73966C37.7126 5.38007 38.6628 5.2971 38.8848 4.35007C37.5157 3.29635 35.7568 5.65667 34.4273 4.78472C34.0732 4.10771 34.4247 3.38196 34.8436 2.84456C34.3811 2.92228 33.7098 2.42703 34.1485 2.17019C37.6849 3.95492 41.7155 3.2621 45.536 3.58085C48.3878 3.59797 51.2383 3.7534 54.0888 3.85482C54.3544 3.85745 54.6227 3.85613 54.8896 3.83637C54.9966 3.82847 55.2094 3.81267 55.3164 3.80476C55.9428 5.1206 54.883 8.52674 57.2234 7.99198C57.1732 8.81915 56.0922 8.33971 55.5543 8.31863C55.3561 7.75753 55.5728 6.6801 54.6874 6.86319C54.4548 6.74728 54.2262 6.62346 54.0042 6.49175C53.5654 5.64746 54.2764 5.22597 54.5989 4.69384C49.9472 4.77419 45.3034 4.48573 40.6926 4.26313C39.7913 10.0862 39.161 16.0898 39.6883 21.934C41.5106 22.4846 43.5682 22.4767 45.2373 23.5067C45.8862 24.3075 45.9985 25.3902 46.3394 26.3372C46.2839 27.5411 47.4178 27.6596 48.1777 27.0551C49.215 27.981 50.9079 27.848 52.203 27.6149C53.6646 27.2658 53.8866 25.6826 53.7544 24.4484C55.2041 24.5367 54.8235 23.5541 53.654 23.5264C52.684 23.072 53.8773 22.7664 54.357 23.1985C54.953 21.3307 55.8887 24.1534 57.0384 23.7464C57.7071 23.9413 57.3754 23.0918 57.4441 22.6835C57.4586 21.5468 57.3886 20.4101 57.4546 19.276C57.8405 18.5041 57.0582 18.4277 56.4833 18.6029C56.9578 17.5637 58.5356 18.0431 57.8207 19.1561C57.937 20.256 57.5987 21.7904 57.9555 22.69C58.1722 21.6614 58.1524 20.2006 58.2224 18.9928C57.9159 17.8337 59.273 18.5489 59.7422 17.9444C59.3286 17.5439 58.7392 17.8179 58.237 17.8087C58.2661 17.0065 58.3797 16.2057 58.3269 15.4036C58.3427 15.0519 58.3533 14.7028 58.3559 14.3551C58.3599 14.1022 58.3083 13.8559 58.2489 13.6136C58.3044 13.2593 58.3625 12.9076 58.4339 12.5599C58.7273 12.2898 58.5 11.9526 58.3718 11.6602C58.9017 10.949 58.3744 9.92819 58.5066 9.12605C58.3268 8.64397 58.8858 7.18852 57.9423 7.35316C58.1273 6.95933 58.3255 6.57209 58.5 6.17431C59.3854 6.62214 58.9149 8.06442 59.8083 8.31468C60.2351 8.28439 59.4012 9.25776 60.1862 9.09575C61.9544 8.97984 61.2527 7.08578 61.3954 5.85951C61.3888 5.20621 61.4377 4.55686 61.3928 3.90751C60.8073 4.17093 60.0276 3.63617 59.5347 4.04843C60.4465 4.22098 59.4792 5.38534 58.8052 4.98756C57.8921 5.35768 57.4216 4.18278 58.089 3.72178C58.9546 3.29107 60.6184 3.68358 61.0611 3.07242C61.1351 2.39936 60.7835 1.76976 60.7624 1.10197ZM38.7645 7.24647C38.2069 10.8383 38.2002 14.5487 38.154 18.1893C38.4804 19.5052 37.299 22.0921 38.9231 22.7032C38.9984 21.2491 38.7619 19.8029 38.791 18.35C38.6469 14.471 39.0037 10.596 39.3235 6.73542C39.0209 6.72225 38.9086 7.03836 38.7645 7.24647ZM40.7851 23.7438C40.2407 24.9055 41.882 24.0151 41.8608 24.9371C41.5344 24.5551 40.5142 24.2179 40.7917 25.0346C41.2899 25.1544 41.5992 25.4297 41.7406 25.9421C41.0666 26.0277 40.2156 26.2806 40.1733 27.0933C40.2261 29.5945 40.2354 32.1182 40.3094 34.63C40.2063 35.2622 40.2658 35.901 40.2393 36.5425C39.568 36.3304 39.2707 35.5415 38.7936 35.0752C38.0179 33.2549 36.1109 35.0791 34.7128 35.0752C34.5687 34.2954 35.1978 32.1867 33.8789 33.0586C33.127 34.6537 33.9516 36.5794 33.6305 38.3141C34.3679 38.1903 35.2004 39.3362 35.8784 38.7527C35.5282 36.5609 38.446 38.3878 39.3249 37.8504C38.7513 37.4105 37.591 37.645 36.8166 37.425C36.8629 36.8876 37.9716 37.1326 38.2491 36.661C37.9293 36.6057 36.884 36.4463 37.7364 36.3489C37.8778 35.6482 36.9316 35.9906 36.5655 35.9458C36.1744 35.5757 37.1404 35.5296 37.3928 35.386C38.931 34.6379 39.8587 36.6716 40.386 37.7108C40.46 38.5314 40.1971 39.4824 40.616 40.2397C41.097 40.9339 42.0181 40.7086 42.733 40.8996C43.1216 43.6933 42.6987 46.5897 42.9868 49.3333C44.3492 49.4782 45.9417 50.1183 47.2354 49.7904C47.1641 47.0678 47.0385 44.3282 47.1574 41.5977C48.5649 41.2171 47.6742 39.3572 47.9266 38.3444C48.2569 38.4445 48.6415 38.5788 48.9441 38.3285C49.926 36.4266 51.0176 34.6129 52.5003 33.0573C52.0867 31.4767 54.0187 30.9499 54.2434 29.7065C52.758 28.4473 50.7057 28.8121 48.9587 28.903C47.0451 27.8164 44.114 29.0242 42.7608 27.2829C42.7396 26.9247 42.737 26.5809 42.6432 26.2411C43.111 25.9223 44.1233 25.5957 44.073 24.9555C43.3251 24.8554 42.4278 24.5564 43.9528 24.646C44.0532 23.6739 42.4899 23.8821 42.2745 24.6552C42.1516 23.8768 41.4948 23.7174 40.7851 23.7438ZM39.5892 24.0085C39.8336 24.4748 39.3989 25.464 40.0966 25.4995C41.1935 26.0172 40.7508 23.3974 39.5892 24.0085ZM44.2158 24.5314C44.1708 25.2835 44.2501 26.5216 45.4025 26.116C45.6311 25.1795 45.2201 24.3668 44.2158 24.5314ZM37.7893 25.2414C37.2329 25.7919 35.1991 25.2427 35.3312 26.2174C34.06 26.681 32.7014 26.5835 31.3892 26.7995C31.7949 27.2316 32.7001 28.5737 33.0067 27.7005C33.5974 27.333 33.6331 27.9823 34.0031 28.1167C33.6767 27.1776 34.7881 27.4133 35.2295 27.1591C36.4413 26.6547 37.7232 26.3794 39.0249 26.2082C39.5112 25.6681 38.0985 25.5614 37.7893 25.2414ZM31.4024 30.4652C31.5068 30.9631 31.0073 32.1906 31.9231 31.9061C31.8147 31.4003 32.3182 30.1807 31.4024 30.4652Z" fill="#141413"/>
<path d="M70.0843 0.990016C72.2001 1.02426 74.3052 0.560622 76.4197 0.756877C77.6064 0.9123 76.9575 2.52055 77.2403 3.33191C77.7213 4.49363 76.8254 4.81633 76.5994 5.69487C76.6866 6.31261 77.0077 6.90797 76.9152 7.54415C79.2107 7.62581 81.5022 7.77201 83.7976 7.85499C84.128 7.86553 84.9725 7.85763 84.7808 8.43849C84.3289 8.64396 83.569 8.50699 83.4369 9.10234C83.1276 11.5404 83.3708 14.0258 83.0298 16.4612C82.821 16.7971 82.9413 17.997 82.2713 17.7376C83.3298 14.882 82.0387 11.2388 83.2994 8.31863C82.344 8.39503 81.4004 8.22248 80.4503 8.20799C80.2481 10.6592 80.3366 13.121 80.1595 15.5748C80.2573 16.1622 79.8635 16.9921 80.4291 17.4254C80.0644 17.3793 79.6996 17.2766 79.3481 17.1988C79.7842 17.2173 79.923 16.9828 79.767 16.4929C79.6534 13.74 80.03 10.9964 79.8767 8.24487C78.7032 8.14082 77.5178 7.98671 76.3404 8.08813C76.6417 10.9305 75.6545 14.0983 76.4646 16.7747C76.0853 16.8511 76.0509 16.5574 76.0483 16.2584C75.8514 16.5166 75.5911 16.7431 75.2541 16.5745C75.8157 15.181 75.5184 13.2118 75.6783 11.6234C75.8567 10.8778 74.6079 11.2783 74.3885 11.6721C74.0066 13.1407 74.3026 14.7108 74.2088 16.2149C73.9696 16.0951 73.7727 16.2716 73.5784 16.3914L73.6062 16.2847C74.0608 15.4418 72.3692 16.3546 72.7683 15.3469C74.2286 15.6657 73.5797 14.039 73.6934 13.2053C73.8374 12.5585 72.6745 12.9234 72.7696 12.3135C73.0643 12.0093 73.5044 11.9276 73.8242 12.2371C73.7066 11.2006 74.7545 10.5604 75.6783 10.7554C75.8752 9.5989 75.3281 8.11052 76.1435 7.13188C75.6479 5.35373 75.5105 3.48733 75.5541 1.64859C76.2214 0.83986 76.8267 2.13199 76.8571 2.71417C77.6949 0.0390372 74.5616 1.48395 73.2071 1.51687C72.1274 1.31667 72.915 2.7326 71.7917 2.65752C73.2533 3.13696 72.2622 4.65169 71.7679 5.49467C71.871 8.8771 72.467 12.3333 71.9318 15.7131C71.7375 16.1135 71.238 15.9199 70.8772 15.9199C71.0913 15.8751 71.308 15.833 71.5168 15.7632C71.6027 12.3293 71.7243 8.84681 71.1429 5.44725C70.8455 5.60926 69.6086 5.02049 70.1729 6.03601C70.4623 9.30649 70.268 12.5941 70.4966 15.8606C70.2337 15.7579 70.2416 15.3127 69.972 15.6868C70.5984 12.1305 69.8531 8.53596 69.8663 4.9599C70.2707 4.53578 70.4094 3.76788 69.9522 3.33454C69.1963 3.25287 69.0707 4.31055 69.3179 4.83609C68.8646 4.93356 68.5223 4.66354 68.1338 4.51339C67.399 4.18937 67.925 3.1936 68.1034 2.64172C69.4474 2.34931 70.8283 2.28214 72.1895 2.0872C72.8384 1.13754 70.6195 0.917573 70.0843 0.990016ZM71.0887 3.22521C70.6076 3.52684 70.5825 4.42646 71.0702 4.74389C71.6794 4.59769 71.8327 3.16989 71.0887 3.22521Z" fill="#2F302F"/>
<path d="M34.1485 2.17019C34.2925 1.83958 34.5079 1.52346 34.8211 1.33379C35.0445 1.34169 35.4925 1.35881 35.7158 1.36672C36.3647 2.11222 37.5065 1.98183 38.3945 2.15832C43.4427 2.6707 48.4908 3.20677 53.5536 3.53869C53.9487 3.39249 54.2962 3.14224 54.6464 2.91174C54.476 3.23839 54.1588 3.47679 54.0888 3.85482C51.2383 3.7534 48.3878 3.59797 45.536 3.58085C41.7155 3.2621 37.6849 3.95492 34.1485 2.17019Z" fill="#B3871D"/>
<path d="M35.7158 1.36672C42.1251 1.54585 48.5186 2.20574 54.9345 2.13462C54.846 2.39673 54.7588 2.65884 54.6464 2.91174C54.2962 3.14224 53.9487 3.39249 53.5536 3.53869C48.4908 3.20677 43.4427 2.6707 38.3945 2.15832C37.5065 1.98183 36.3647 2.11222 35.7158 1.36672Z" fill="#D09C18"/>
<path d="M54.9345 2.13462C55.8094 1.64332 55.4433 2.35063 55.8173 2.55479C56.227 2.79187 57.2313 2.41517 57.3476 3.00393C57.1441 3.72178 57.6291 3.7613 58.089 3.72178C57.4216 4.18278 57.8921 5.35768 58.8052 4.98756C59.4792 5.38534 60.4465 4.22098 59.5347 4.04843C60.0276 3.63617 60.8073 4.17093 61.3928 3.90751C61.4377 4.55686 61.3888 5.20621 61.3954 5.85951C60.9421 5.71331 60.6527 5.03893 60.1426 5.22992C60.2285 6.28232 59.8135 7.27677 59.8083 8.31468C58.9149 8.06442 59.3854 6.62214 58.5 6.17431C58.3255 6.57209 58.1273 6.95933 57.9423 7.35316C58.8858 7.18852 58.3268 8.64397 58.5066 9.12605C58.3744 9.92819 58.9017 10.949 58.3718 11.6602C58.9969 9.27225 56.967 11.6075 55.964 10.8489C55.7222 10.0454 55.3746 9.16951 55.5543 8.31863C56.0922 8.33971 57.1732 8.81915 57.2234 7.99198C54.883 8.52674 55.9428 5.1206 55.3164 3.80476C55.9693 3.69544 56.6314 3.66251 57.2868 3.56109C57.5168 2.86959 56.5798 3.25156 56.1966 3.34376C55.7459 3.52816 54.9107 3.18702 54.8896 3.83637C54.6227 3.85613 54.3544 3.85745 54.0888 3.85482C54.1588 3.47679 54.476 3.23839 54.6464 2.91174C54.7588 2.65884 54.846 2.39673 54.9345 2.13462Z" fill="#373837"/>
<path d="M58.8026 2.71285C59.5189 2.11354 60.3567 2.72601 61.0611 3.07242C60.6184 3.68358 58.9546 3.29107 58.089 3.72178C57.6291 3.7613 57.1441 3.72178 57.3476 3.00393C57.2313 2.41517 56.227 2.79187 55.8173 2.55479C56.8084 2.45732 57.826 2.80768 58.8026 2.71285Z" fill="#B4881B"/>
<path d="M56.1966 3.34376C56.5798 3.25156 57.5168 2.86959 57.2868 3.56109C56.6314 3.66251 55.9693 3.69544 55.3164 3.80476C55.2094 3.81267 54.9966 3.82847 54.8896 3.83637C54.9107 3.18702 55.7459 3.52816 56.1966 3.34376Z" fill="#AF851D"/>
<path d="M71.0702 4.74389C71.6794 4.59769 71.8327 3.16989 71.0887 3.22521C70.6076 3.52684 70.5825 4.42646 71.0702 4.74389Z" fill="#949795"/>
<path d="M69.3179 4.83609C69.0707 4.31055 69.1963 3.25287 69.9522 3.33454C70.4094 3.76788 70.2707 4.53578 69.8663 4.9599C69.6826 4.91644 69.5002 4.87429 69.3179 4.83609Z" fill="#A5A8A5"/>
<path d="M66.8598 4.89931C66.8242 3.09218 65.7855 4.48704 66.2757 5.44856C66.5572 5.37217 66.725 5.14035 66.8598 4.89931Z" fill="#909392"/>
<path d="M40.6926 4.26313C45.3034 4.48573 49.9472 4.77419 54.5989 4.69384C54.2764 5.22597 53.5654 5.64746 54.0042 6.49175C52.7329 7.13979 52.9813 8.885 52.536 10.0533C52.2003 11.273 54.6953 11.7511 54.4945 10.4155C54.4482 10.8489 54.5513 11.2243 54.9649 11.3849C54.1918 12.6046 53.21 14.1075 53.6368 15.6565C54.3451 15.7869 55.0376 16.4046 54.1773 16.9143C53.6434 17.5071 54.731 17.2911 55.035 17.5979C54.5724 17.9417 54.1535 18.3355 53.7412 18.7346C53.391 17.8614 52.2122 17.482 52.9324 16.485C53.5958 15.4128 51.6598 14.2642 52.4223 13.1051C53.3064 13.1038 53.136 11.4284 52.3219 11.3481C52.2492 9.5146 52.5294 7.54151 52.4514 5.79629C49.4318 5.33397 46.2813 5.59082 43.218 5.32344C42.7159 5.87927 42.848 6.71829 42.659 7.40848C41.9599 7.51121 41.2595 8.18823 40.7204 7.63635C40.7521 9.06677 39.1689 12.3425 41.2952 12.9682C41.0481 13.466 40.8102 14.1655 40.1244 14.1035C40.09 16.4665 39.7253 18.9125 40.2737 21.2227C41.5688 22.2844 43.5735 21.8115 45.0153 22.6795C46.2879 23.2169 46.4333 24.671 46.7914 25.8314C47.5909 25.8011 48.3812 25.5219 49.034 25.0635C50.0053 26.0198 48.023 26.5256 47.4614 27.1183C46.946 27.5385 46.7372 26.5453 46.3394 26.3372C45.9985 25.3902 45.8862 24.3075 45.2373 23.5067C43.5682 22.4767 41.5106 22.4846 39.6883 21.934C39.161 16.0898 39.7913 10.0862 40.6926 4.26313Z" fill="#444643"/>
<path d="M68.1338 4.51339C68.5223 4.66354 68.8646 4.93356 69.3179 4.83609C69.5002 4.87429 69.6826 4.91644 69.8663 4.9599C69.8531 8.53596 70.5984 12.1305 69.972 15.6868C70.2416 15.3127 70.2337 15.7579 70.4966 15.8606C70.5918 15.8751 70.7821 15.9054 70.8772 15.9199C71.238 15.9199 71.7375 16.1135 71.9318 15.7131C72.2291 16.315 73.0472 16.1175 73.6062 16.2847L73.5784 16.3914C72.1697 16.5192 70.6328 15.9502 69.191 15.8422C68.5408 15.9818 68.4073 15.4207 68.3954 14.965C69.0668 13.308 67.2206 13.4792 66.2308 13.6004C66.2004 13.4252 66.1753 13.2514 66.1608 13.0762C67.0779 12.926 68.1219 12.7061 68.8091 13.4766C68.7959 10.8397 68.7179 8.20272 68.5236 5.57237C68.558 5.32475 68.3016 5.26284 68.1404 5.15484C68.1351 4.94014 68.1351 4.72545 68.1338 4.51339Z" fill="#515552"/>
<path d="M66.8598 4.89931C67.2431 5.14957 67.6818 5.19699 68.1404 5.15484C68.3016 5.26284 68.558 5.32475 68.5236 5.57237C68.7179 8.20272 68.7959 10.8397 68.8091 13.4766C68.1219 12.7061 67.0779 12.926 66.1608 13.0762C66.4304 10.538 65.9189 7.98275 66.2757 5.44856C66.5572 5.37217 66.725 5.14035 66.8598 4.89931Z" fill="#0E0F0E"/>
<path d="M60.1426 5.22992C60.6527 5.03893 60.9421 5.71331 61.3954 5.85951C61.2527 7.08578 61.9544 8.97984 60.1862 9.09575C59.4012 9.25776 60.2351 8.28439 59.8083 8.31468C59.8135 7.27677 60.2285 6.28232 60.1426 5.22992Z" fill="#10110F"/>
<path d="M43.218 5.32344C46.2813 5.59082 49.4318 5.33397 52.4514 5.79629C52.5294 7.54151 52.2492 9.5146 52.3219 11.3481C50.9171 12.415 49.515 10.5802 48.0561 10.6921C47.5909 10.3273 48.549 9.06282 47.9332 8.73222C47.5843 9.31703 47.5698 10.0243 47.3372 10.6553C45.9086 11.6168 43.962 11.3415 42.3419 11.032C42.3947 9.81886 42.4833 8.6084 42.659 7.40848C42.848 6.71829 42.7159 5.87927 43.218 5.32344Z" fill="#0C0C0C"/>
<path d="M54.0042 6.49175C54.2262 6.62346 54.4548 6.74728 54.6874 6.86319C54.661 8.04862 54.5632 9.23141 54.4945 10.4155C54.6953 11.7511 52.2003 11.273 52.536 10.0533C52.9813 8.885 52.7329 7.13979 54.0042 6.49175Z" fill="#606361"/>
<path d="M54.6874 6.86319C55.5728 6.6801 55.3561 7.75753 55.5543 8.31863C55.3746 9.16951 55.7222 10.0454 55.964 10.8489C56.967 11.6075 58.9969 9.27225 58.3718 11.6602C57.2538 11.5167 55.886 12.2108 54.9649 11.3849C54.5513 11.2243 54.4482 10.8489 54.4945 10.4155C54.5632 9.23141 54.661 8.04862 54.6874 6.86319Z" fill="#0B0C0B"/>
<path d="M40.7204 7.63635C41.2595 8.18823 41.9599 7.51121 42.659 7.40848C42.4833 8.6084 42.3947 9.81886 42.3419 11.032C41.8569 11.0965 41.2714 10.9108 41.2384 10.3457C40.5406 10.1244 40.9582 11.4021 40.8459 11.842C41.3666 11.975 41.6864 10.9398 42.2652 11.5654C42.1569 12.8905 42.1172 14.2181 42.0723 15.5471C41.9322 16.9591 41.9309 18.3816 41.9864 19.7989C42.1093 19.7712 42.2322 19.7396 42.3551 19.7041L42.4634 19.6711C43.7334 19.1759 43.3911 20.0017 43.6739 20.6867C43.1612 20.7235 42.4291 20.4035 42.0683 20.7077C42.6458 21.365 43.6145 21.0805 44.3928 21.0515C45.454 21.6666 46.7901 22.0012 47.4032 23.2064C47.7653 23.5936 48.3825 23.4053 48.8688 23.4685C49.3075 23.8965 49.2296 24.542 49.034 25.0635C48.3812 25.5219 47.5909 25.8011 46.7914 25.8314C46.4333 24.671 46.2879 23.2169 45.0153 22.6795C43.5735 21.8115 41.5688 22.2844 40.2737 21.2227C39.7253 18.9125 40.09 16.4665 40.1244 14.1035C40.8102 14.1655 41.0481 13.466 41.2952 12.9682C39.1689 12.3425 40.7521 9.06677 40.7204 7.63635Z" fill="#919493"/>
<path d="M47.9332 8.73222C48.549 9.06282 47.5909 10.3273 48.0561 10.6921C49.515 10.5802 50.9171 12.415 52.3219 11.3481C53.136 11.4284 53.3064 13.1038 52.4223 13.1051C51.6598 14.2642 53.5958 15.4128 52.9324 16.485C52.2122 17.482 53.391 17.8614 53.7412 18.7346C54.1535 18.3355 54.5724 17.9417 55.035 17.5979C54.731 17.2911 53.6434 17.5071 54.1773 16.9143C55.0376 16.4046 54.3451 15.7869 53.6368 15.6565C53.21 14.1075 54.1918 12.6046 54.9649 11.3849C55.886 12.2108 57.2538 11.5167 58.3718 11.6602C58.5 11.9526 58.7273 12.2898 58.4339 12.5599C57.9357 12.307 57.3542 12.8891 57.1573 13.3317C57.4983 13.4963 57.8775 13.5517 58.2489 13.6136C58.3083 13.8559 58.3599 14.1022 58.3559 14.3551C58.0216 14.4947 57.715 14.687 57.4335 14.9136C56.7728 15.0993 55.4724 15.8211 57.0318 15.4655C57.6344 15.4233 58.3031 15.4655 57.9344 16.1491C58.3506 16.776 58.2343 15.7632 58.3269 15.4036C58.3797 16.2057 58.2661 17.0065 58.237 17.8087C58.7392 17.8179 59.3286 17.5439 59.7422 17.9444C59.273 18.5489 57.9159 17.8337 58.2224 18.9928C58.089 19.0468 57.9542 19.1008 57.8207 19.1561C58.5356 18.0431 56.9578 17.5637 56.4833 18.6029C57.0582 18.4277 57.8405 18.5041 57.4546 19.276C57.1177 18.7913 56.523 19.0323 56.3538 19.5197C55.2742 19.0099 55.1169 21.0555 56.4186 20.0992C57.0952 20.3126 57.156 21.9617 56.4767 22.3989C55.7208 22.9838 57.1956 23.2485 57.4441 22.6835C57.3754 23.0918 57.7071 23.9413 57.0384 23.7464C55.8887 24.1534 54.953 21.3307 54.357 23.1985C53.8773 22.7664 52.684 23.072 53.654 23.5264C54.8235 23.5541 55.2041 24.5367 53.7544 24.4484C53.8866 25.6826 53.6646 27.2658 52.203 27.6149C50.9079 27.848 49.215 27.981 48.1777 27.0551C47.4178 27.6596 46.2839 27.5411 46.3394 26.3372C46.7372 26.5453 46.946 27.5385 47.4614 27.1183C48.023 26.5256 50.0053 26.0198 49.034 25.0635C49.2296 24.542 49.3075 23.8965 48.8688 23.4685C48.3191 22.2909 47.3279 21.5599 45.9892 21.5744C45.4937 20.6458 46.1597 20.065 46.9037 19.6514C46.2879 19.658 45.8624 19.1403 45.2703 19.1113C45.68 18.0853 45.5188 16.7958 45.7976 15.6578C44.8118 16.8156 44.1986 18.2433 43.2392 19.4235C42.996 19.4393 42.7555 19.4736 42.5256 19.5565C43.8642 17.6058 45.3139 15.7131 46.5839 13.7124C46.4874 13.0182 46.3579 12.3214 46.1557 11.6497C44.858 11.655 43.5603 11.5483 42.2652 11.5654C41.6864 10.9398 41.3666 11.975 40.8459 11.842C40.9582 11.4021 40.5406 10.1244 41.2384 10.3457C41.2714 10.9108 41.8569 11.0965 42.3419 11.032C43.962 11.3415 45.9086 11.6168 47.3372 10.6553C47.5698 10.0243 47.5843 9.31703 47.9332 8.73222ZM49.9194 11.7498C50.2736 12.5506 50.5551 13.4213 51.114 14.1088C51.677 14.0219 51.2911 12.872 51.9783 12.6297C52.4501 11.2927 50.5471 11.8789 49.9194 11.7498ZM55.4645 12.0119C55.7882 13.0604 57.4256 13.0235 57.9872 12.0356C57.1467 11.9895 56.3036 12.0159 55.4645 12.0119ZM57.0833 14.3038C56.7291 14.77 55.7248 14.5685 55.7116 15.1928C56.1688 15.1889 57.3159 14.5738 57.0833 14.3038ZM50.4599 16.5653C49.3683 16.2689 49.6088 17.2476 49.6392 17.9523C50.5907 18.1762 51.0916 17.2133 51.8924 16.942C51.4061 16.8551 50.9568 16.5877 50.4599 16.5653Z" fill="#393C39"/>
<path d="M42.2652 11.5654C43.5603 11.5483 44.858 11.655 46.1557 11.6497C46.3579 12.3214 46.4874 13.0182 46.5839 13.7124C45.3139 15.7131 43.8642 17.6058 42.5256 19.5565L42.4634 19.6711L42.3551 19.7041C41.763 18.5871 42.2692 16.8709 42.0723 15.5471C42.1172 14.2181 42.1569 12.8905 42.2652 11.5654Z" fill="#0B0B0B"/>
<path d="M49.9194 11.7498C50.5471 11.8789 52.4501 11.2927 51.9783 12.6297C51.2911 12.872 51.677 14.0219 51.114 14.1088C50.5551 13.4213 50.2736 12.5506 49.9194 11.7498Z" fill="#0C0C0B"/>
<path d="M57.9872 12.0356C57.1467 11.9895 56.3036 12.0159 55.4645 12.0119C55.7882 13.0604 57.4256 13.0235 57.9872 12.0356Z" fill="#0A0B0A"/>
<path d="M57.1573 13.3317C57.3542 12.8891 57.9357 12.307 58.4339 12.5599C58.3625 12.9076 58.3044 13.2593 58.2489 13.6136C57.8775 13.5517 57.4983 13.4963 57.1573 13.3317Z" fill="#0D0D0C"/>
<path d="M68.3954 14.965C69.0668 13.308 67.2206 13.4792 66.2308 13.6004C66.2453 14.6146 67.6329 14.7384 68.3954 14.965Z" fill="#0F0F0F"/>
<path d="M55.7116 15.1928C56.1688 15.1889 57.3159 14.5738 57.0833 14.3038C56.7291 14.77 55.7248 14.5685 55.7116 15.1928Z" fill="#111211"/>
<path d="M57.4335 14.9136C57.715 14.687 58.0216 14.4947 58.3559 14.3551C58.3533 14.7028 58.3427 15.0519 58.3269 15.4036C58.2343 15.7632 58.3506 16.776 57.9344 16.1491C58.3031 15.4655 57.6344 15.4233 57.0318 15.4655C57.1652 15.2811 57.2961 15.0954 57.4335 14.9136Z" fill="#7B7D7D"/>
<path d="M57.4335 14.9136C56.7728 15.0993 55.4724 15.8211 57.0318 15.4655C57.1652 15.2811 57.2961 15.0954 57.4335 14.9136Z" fill="#101110"/>
<path d="M41.9864 19.7989C41.9309 18.3816 41.9322 16.9591 42.0723 15.5471C42.2692 16.8709 41.763 18.5871 42.3551 19.7041C42.2322 19.7396 42.1093 19.7712 41.9864 19.7989Z" fill="#4A4C4B"/>
<path d="M43.2392 19.4235C44.1986 18.2433 44.8118 16.8156 45.7976 15.6578C45.5188 16.7958 45.68 18.0853 45.2703 19.1113C44.5964 19.2378 43.9237 19.3787 43.2392 19.4235Z" fill="#0E0F0E"/>
<path d="M68.5223 16.7668C68.7007 16.5877 68.8897 16.4178 69.0945 16.2703C73.9537 17.27 78.8341 18.188 83.6668 19.3208C85.1548 19.9925 86.4103 18.8519 87.8586 18.7702C89.0586 18.9164 90.3127 19.2207 91.4505 19.55C90.9047 19.9899 90.1501 20.0175 89.6123 20.4443C94.4239 22.2659 99.6862 22.5478 104.397 24.7422C105.583 25.4376 106.799 24.2732 108.066 24.5156C109.488 25.057 110.825 25.8341 112 26.7982C111.935 28.3538 111.771 30.0463 111.117 31.4583C109.537 32.7214 107.438 32.9335 105.53 33.3708C105.12 33.3471 104.726 33.3774 104.331 33.2931C104.5 32.3039 104.659 31.3134 104.77 30.3163C105.211 30.3203 105.678 30.3703 106.118 30.2663C106.443 29.4944 105.202 29.1612 104.741 28.7463C99.0822 25.4982 92.706 23.72 86.4922 21.8918C85.1575 21.4177 83.7527 21.1608 82.4219 20.6708C77.8152 19.2734 73.1383 18.1274 68.5223 16.7668ZM108.711 30.0608C108.554 30.5271 107.872 31.2541 108.444 31.6677C108.968 31.4056 109.177 30.4006 108.711 30.0608ZM106.758 30.6114C106.265 30.9789 105.772 31.7823 106.358 32.2921C107.368 32.6477 107.897 30.4744 106.758 30.6114Z" fill="#323940"/>
<path d="M50.4599 16.5653C50.9568 16.5877 51.4061 16.8551 51.8924 16.942C51.0916 17.2133 50.5907 18.1762 49.6392 17.9523C49.6088 17.2476 49.3683 16.2689 50.4599 16.5653Z" fill="#8E908F"/>
<path d="M68.5223 16.7668C73.1383 18.1274 77.8152 19.2734 82.4219 20.6708C82.1339 20.6906 82.0942 20.7499 82.303 20.8487C84.6672 21.444 86.927 22.4832 89.3123 22.9666C88.4454 22.445 87.3776 22.3858 86.4922 21.8918C92.706 23.72 99.0822 25.4982 104.741 28.7463C105.202 29.1612 106.443 29.4944 106.118 30.2663C104.584 30.0042 103.071 29.9172 101.531 30.1056C101.879 29.8922 102.27 29.7974 102.674 29.7276C99.0875 28.2234 95.419 26.9115 91.8047 25.4732C91.362 25.1939 90.8677 25.0043 90.351 24.9226C86.0746 23.4948 81.8233 21.9788 77.465 20.8131C77.6923 20.7828 78.4891 20.9237 77.9698 20.6577C74.8735 19.2839 71.6054 18.3 68.373 17.2831C68.4113 17.1066 68.4483 16.9302 68.5223 16.7668Z" fill="#BE3432"/>
<path d="M68.373 17.2831C71.6054 18.3 74.8735 19.2839 77.9698 20.6577C78.4891 20.9237 77.6923 20.7828 77.465 20.8131C75.3519 20.3468 73.2811 19.7001 71.1534 19.2931C70.8468 19.1495 70.8931 19.4103 70.9367 19.6237C73.2163 20.1624 75.4774 20.7828 77.7134 21.4848C77.9143 21.9182 77.7147 22.8402 78.4059 22.802C78.649 22.4885 79.4419 21.5415 79.1433 22.474C78.431 23.2116 80.6908 23.4961 80.0868 23.1721C79.1155 22.6308 80.1622 22.852 80.63 22.557C80.7463 22.9179 80.145 23.5014 80.7344 23.5765C81.1546 23.8294 81.07 22.9377 81.3885 23.1695C81.3449 24.6697 83.5835 23.9453 84.1003 24.5867C84.7068 23.8096 84.7187 25.1518 85.4033 25.0622C85.7231 23.3407 85.3808 25.4758 86.2067 25.3191C86.405 25.1399 86.5001 24.8581 86.7644 24.7461C86.8398 24.7988 86.9891 24.9028 87.0631 24.9542C86.7301 26.2793 88.0265 24.9911 87.8851 25.7985C88.3568 26.0725 88.9013 26.2279 89.4484 26.245C89.1947 25.975 88.3648 25.9776 88.5696 25.5219C88.9568 25.6273 89.3282 25.7853 89.6665 26.0014C89.5594 26.8298 90.8175 26.9497 91.4412 26.7772C92.0835 27.0617 92.8341 27.2329 93.3469 27.7387C92.6531 28.0838 93.068 29.0624 93.7684 29.0466C94.1649 29.0756 94.597 29.0519 94.967 29.235C95.1904 29.3904 95.4111 29.5524 95.6476 29.6933C95.9542 29.7723 96.4181 29.4865 96.6546 29.7947C96.8581 30.0661 97.1264 30.2913 97.4554 30.398C98.5959 29.9172 99.4655 30.8669 100.462 31.2357C100.824 30.8669 101.074 30.3717 101.531 30.1056C103.071 29.9172 104.584 30.0042 106.118 30.2663C105.678 30.3703 105.211 30.3203 104.77 30.3163C103.533 29.9831 102.214 30.4994 101.413 31.4636C100.709 31.8455 100.77 32.8005 100.617 33.4683C100.034 37.8346 99.0611 42.1891 98.6342 46.5502C95.012 45.673 91.2721 45.1566 87.6948 44.1609C86.7882 42.5118 86.2874 40.6138 85.4971 38.887C84.3223 35.1819 81.3436 32.5515 79.6204 29.1638C77.7874 26.4545 74.2907 25.8775 71.3926 24.9028C69.4434 24.8423 70.6063 22.3094 69.4156 21.2886C68.8011 20.9883 68.9505 20.281 68.8897 19.708C68.2527 19.6316 66.7396 19.5012 67.2854 18.4488C67.9131 18.3685 68.3479 17.9206 68.373 17.2831ZM91.2853 38.5011C91.206 39.2795 91.0118 40.0514 91.0078 40.8377C91.5483 41.1235 92.2183 41.1617 92.8288 41.2592C92.9213 40.4794 93.0601 39.701 93.0998 38.9173C92.5804 38.5617 91.8879 38.5669 91.2853 38.5011Z" fill="#971614"/>
<path d="M29.7902 18.6517C32.1438 18.1406 34.6427 17.4478 37.0479 17.9944C37.6928 18.0247 37.451 18.7873 37.5355 19.2233C37.3201 19.6211 37.9161 21.2359 37.0373 20.7525C34.8066 19.5513 32.3565 18.6609 29.7902 18.6517Z" fill="#B14648"/>
<path d="M38.154 18.1893C38.3654 18.2407 38.5782 18.2934 38.791 18.35C38.7619 19.8029 38.9984 21.2491 38.9231 22.7032C37.299 22.0921 38.4804 19.5052 38.154 18.1893Z" fill="#A4353B"/>
<path d="M26.263 22.7072C26.1586 20.6142 28.1462 19.4512 29.7902 18.6517C32.3565 18.6609 34.8066 19.5513 37.0373 20.7525C37.9161 21.2359 37.3201 19.6211 37.5355 19.2233C37.6135 20.1585 37.6439 21.1002 37.6082 22.0407C36.7254 21.7127 35.8295 21.4229 34.9374 21.1226C35.2612 22.2277 35.7872 23.2577 36.1876 24.3325C35.6233 24.1929 36.1413 24.7606 36.1519 25.0398C35.655 25.186 34.8595 25.6181 34.6903 24.8831C34.6718 25.5575 33.6463 25.9092 33.23 25.5799C33.4349 24.9081 33.8921 23.1326 33.2974 24.5973C33.1547 24.455 33.4891 23.483 33.723 23.0615C33.7296 24.3259 34.652 21.6864 33.867 22.5412C33.834 21.9735 34.1815 21.6166 34.6758 21.4269C34.8396 21.8234 34.9744 22.2409 35.2335 22.5939C35.1343 22.0249 34.8819 21.4941 34.7352 20.9396C32.8785 20.5958 30.8659 19.7357 28.9893 20.2889C27.7022 20.6774 27.94 22.3634 27.0189 22.9113C26.752 23.0404 26.1573 23.2156 26.263 22.7072Z" fill="#692B22"/>
<path d="M56.3538 19.5197C56.523 19.0323 57.1177 18.7913 57.4546 19.276C57.3886 20.4101 57.4586 21.5468 57.4441 22.6835C57.1956 23.2485 55.7208 22.9838 56.4767 22.3989C57.156 21.9617 57.0952 20.3126 56.4186 20.0992C55.1169 21.0555 55.2742 19.0099 56.3538 19.5197Z" fill="#7E7F7D"/>
<path d="M57.8207 19.1561C57.9542 19.1008 58.089 19.0468 58.2224 18.9928C58.1524 20.2006 58.1722 21.6614 57.9555 22.69C57.5987 21.7904 57.937 20.256 57.8207 19.1561Z" fill="#828381"/>
<path d="M43.2392 19.4235C43.9237 19.3787 44.5964 19.2378 45.2703 19.1113C45.8624 19.1403 46.2879 19.658 46.9037 19.6514C46.1597 20.065 45.4937 20.6458 45.9892 21.5744C47.3279 21.5599 48.3191 22.2909 48.8688 23.4685C48.3825 23.4053 47.7653 23.5936 47.4032 23.2064C46.7901 22.0012 45.454 21.6666 44.3928 21.0515C43.6145 21.0805 42.6458 21.365 42.0683 20.7077C42.4291 20.4035 43.1612 20.7235 43.6739 20.6867C43.3911 20.0017 43.7334 19.1759 42.4634 19.6711L42.5256 19.5565C42.7555 19.4736 42.996 19.4393 43.2392 19.4235Z" fill="#515657"/>
<path d="M70.9367 19.6237C70.8931 19.4103 70.8468 19.1495 71.1534 19.2931C73.2811 19.7001 75.3519 20.3468 77.465 20.8131C81.8233 21.9788 86.0746 23.4948 90.351 24.9226C89.8779 25.082 89.7854 25.5799 89.6665 26.0014C89.3282 25.7853 88.9568 25.6273 88.5696 25.5219C89.1735 24.4959 88.037 24.0269 87.8362 25.2255C88.2947 24.1995 87.2336 23.8175 87.0631 24.9542C86.9891 24.9028 86.8398 24.7988 86.7644 24.7461C86.1764 24.459 86.8384 24.0493 87.2441 24.156C86.7221 23.8663 84.9883 23.2077 85.9702 24.1508C85.3663 24.8357 85.6689 23.0285 84.8588 23.4092C84.3593 23.9901 83.6258 23.5528 83.1303 23.1985C83.5096 22.8837 83.9562 23.5541 84.3329 23.2314C83.7963 22.935 83.0153 22.4187 82.5065 23.0114C82.1233 22.1105 80.2269 21.8708 79.1829 21.6324C78.4918 21.984 78.4323 20.846 77.7134 21.4848C75.4774 20.7828 73.2163 20.1624 70.9367 19.6237Z" fill="#363328"/>
<path d="M91.4505 19.55C97.0577 20.7854 102.814 22.1065 108.066 24.5156C106.799 24.2732 105.583 25.4376 104.397 24.7422C99.6862 22.5478 94.4239 22.2659 89.6123 20.4443C90.1501 20.0175 90.9047 19.9899 91.4505 19.55Z" fill="#404850"/>
<path d="M82.303 20.8487C82.0942 20.7499 82.1339 20.6906 82.4219 20.6708C83.7527 21.1608 85.1575 21.4177 86.4922 21.8918C87.3776 22.3858 88.4454 22.445 89.3123 22.9666C86.927 22.4832 84.6672 21.444 82.303 20.8487Z" fill="#F09B9D"/>
<path d="M12.4665 21.9432C15.5615 21.2201 18.8586 20.4772 21.9959 21.3992C23.809 21.9893 25.5481 22.831 27.1167 23.9163C27.6282 24.3036 28.1343 24.7053 28.5453 25.2058C27.0308 25.6431 25.4212 25.8683 23.9861 26.5269C24.1685 26.8312 24.4539 27.0511 24.6931 27.308C24.072 27.3027 23.3174 27.3527 22.8258 26.8865C20.0559 24.1784 16.427 22.0433 12.4665 21.9432Z" fill="#E04348"/>
<path d="M77.7134 21.4848C78.4323 20.846 78.4918 21.984 79.1829 21.6324C80.2269 21.8708 82.1233 22.1105 82.5065 23.0114C83.0153 22.4187 83.7963 22.935 84.3329 23.2314C83.9562 23.5541 83.5096 22.8837 83.1303 23.1985C83.6258 23.5528 84.3593 23.9901 84.8588 23.4092C85.6689 23.0285 85.3663 24.8357 85.9702 24.1508C84.9883 23.2077 86.7221 23.8663 87.2441 24.156C86.8384 24.0493 86.1764 24.459 86.7644 24.7461C86.5001 24.8581 86.405 25.1399 86.2067 25.3191C85.3808 25.4758 85.7231 23.3407 85.4033 25.0622C84.7187 25.1518 84.7068 23.8096 84.1003 24.5867C83.5835 23.9453 81.3449 24.6697 81.3885 23.1695C81.07 22.9377 81.1546 23.8294 80.7344 23.5765C80.145 23.5014 80.7463 22.9179 80.63 22.557C80.1622 22.852 79.1155 22.6308 80.0868 23.1721C80.6908 23.4961 78.431 23.2116 79.1433 22.474C79.4419 21.5415 78.649 22.4885 78.4059 22.802C77.7147 22.8402 77.9143 21.9182 77.7134 21.4848Z" fill="#9A782A"/>
<path d="M11.5295 22.366C11.7859 22.1461 12.0938 21.8247 12.4665 21.9432C16.427 22.0433 20.0559 24.1784 22.8258 26.8865C23.3174 27.3527 24.072 27.3027 24.6931 27.308C24.4539 27.0511 24.1685 26.8312 23.9861 26.5269C25.4212 25.8683 27.0308 25.6431 28.5453 25.2058C28.9114 25.8275 29.1056 26.6599 28.9299 27.3277C26.7639 28.3077 24.2028 28.6989 21.8968 27.9718C20.8449 25.4982 17.927 24.4695 15.5971 23.4145C14.3893 22.5926 12.5801 23.3078 11.5295 22.366Z" fill="#C23335"/>
<path d="M8.64731 25.8578C8.51252 24.0717 10.2952 23.1537 11.5295 22.366C12.5801 23.3078 14.3893 22.5926 15.5971 23.4145C17.927 24.4695 20.8449 25.4982 21.8968 27.9718C20.1101 27.4621 18.7516 26.033 16.9411 25.5548C16.4455 25.3915 15.9434 25.2427 15.4319 25.1413C13.2382 24.6526 10.9216 25.0596 8.97372 26.1502C8.68696 26.3544 8.64335 26.1238 8.64731 25.8578Z" fill="#982C29"/>
<path d="M40.7851 23.7438C41.4948 23.7174 42.1516 23.8768 42.2745 24.6552C42.4899 23.8821 44.0532 23.6739 43.9528 24.646C42.4278 24.5564 43.3251 24.8554 44.073 24.9555C44.1233 25.5957 43.111 25.9223 42.6432 26.2411C42.3736 26.058 42.0617 25.9671 41.7406 25.9421C41.5992 25.4297 41.2899 25.1544 40.7917 25.0346C40.5142 24.2179 41.5344 24.5551 41.8608 24.9371C41.882 24.0151 40.2407 24.9055 40.7851 23.7438Z" fill="#826B18"/>
<path d="M40.0966 25.4995C41.1935 26.0172 40.7508 23.3974 39.5892 24.0085C39.8336 24.4748 39.3989 25.464 40.0966 25.4995Z" fill="#715D15"/>
<path d="M87.0631 24.9542C87.2336 23.8175 88.2947 24.1995 87.8362 25.2255C88.037 24.0269 89.1735 24.4959 88.5696 25.5219C88.3648 25.9776 89.1947 25.975 89.4484 26.245C88.9013 26.2279 88.3568 26.0725 87.8851 25.7985C88.0265 24.9911 86.7301 26.2793 87.0631 24.9542Z" fill="#A3852C"/>
<path d="M45.4025 26.116C45.6311 25.1795 45.2201 24.3668 44.2158 24.5314C44.1708 25.2835 44.2501 26.5216 45.4025 26.116Z" fill="#7D6617"/>
<path d="M8.97372 26.1502C10.9216 25.0596 13.2382 24.6526 15.4319 25.1413C13.3202 26.004 11.0379 26.3965 8.79796 26.7679C8.26936 26.9971 8.42265 25.8894 8.64731 25.8578C8.64335 26.1238 8.68696 26.3544 8.97372 26.1502Z" fill="#46291C"/>
<path d="M90.351 24.9226C90.8677 25.0043 91.362 25.1939 91.8047 25.4732C91.4545 25.7814 91.0197 25.5193 90.6259 25.4824C89.9162 25.863 92.0439 26.1555 90.9219 26.191C89.7656 25.9434 90.9417 26.5493 91.4412 26.7772C90.8175 26.9497 89.5594 26.8298 89.6665 26.0014C89.7854 25.5799 89.8779 25.082 90.351 24.9226Z" fill="#997C2C"/>
<path d="M37.7893 25.2414C38.0985 25.5614 39.5112 25.6681 39.0249 26.2082C37.7232 26.3794 36.4413 26.6547 35.2295 27.1591C34.7881 27.4133 33.6767 27.1776 34.0031 28.1167C33.6331 27.9823 33.5974 27.333 33.0067 27.7005C32.7001 28.5737 31.7949 27.2316 31.3892 26.7995C32.7014 26.5835 34.06 26.681 35.3312 26.2174C35.1991 25.2427 37.2329 25.7919 37.7893 25.2414Z" fill="#4C4F51"/>
<path d="M90.6259 25.4824C91.0197 25.5193 91.4545 25.7814 91.8047 25.4732C95.419 26.9115 99.0875 28.2234 102.674 29.7276C102.27 29.7974 101.879 29.8922 101.531 30.1056C101.074 30.3717 100.824 30.8669 100.462 31.2357C99.4655 30.8669 98.5959 29.9172 97.4554 30.398C98.6897 30.3809 98.9712 28.0153 97.4872 28.0917C96.8845 28.3828 96.8436 29.2152 96.6546 29.7947C96.4181 29.4865 95.9542 29.7723 95.6476 29.6933C96.644 29.8553 96.093 28.799 96.5542 28.3577C97.0933 27.7031 95.6278 27.1749 95.2406 27.5964C94.9618 28.5039 96.6361 27.4397 96.0441 28.2286C95.2802 28.251 96.3546 29.3061 95.5578 29.2429C95.5723 28.5066 94.716 28.4078 94.967 29.235C94.597 29.0519 94.1649 29.0756 93.7684 29.0466C94.6935 29.3495 95.3212 27.549 94.1794 27.5306C93.6733 27.0208 94.6763 27.2685 94.9961 27.2922C94.4147 26.8667 93.3456 26.4307 93.368 27.549C94.4133 27.3804 94.3724 28.2524 93.9112 28.8082C93.5081 28.5672 93.9349 27.8915 93.2596 27.9468C92.8368 28.3893 93.479 28.766 93.7684 29.0466C93.068 29.0624 92.6531 28.0838 93.3469 27.7387C92.8341 27.2329 92.0835 27.0617 91.4412 26.7772C90.9417 26.5493 89.7656 25.9434 90.9219 26.191C92.0439 26.1555 89.9162 25.863 90.6259 25.4824Z" fill="#2E2B24"/>
<path d="M40.1733 27.0933C40.2156 26.2806 41.0666 26.0277 41.7406 25.9421C42.0617 25.9671 42.3736 26.058 42.6432 26.2411C42.737 26.5809 42.7396 26.9247 42.7608 27.2829C42.1621 28.8609 44.0334 29.4786 43.448 30.9393C44.3955 30.6799 44.0611 31.6414 44.0664 32.1287C42.3273 31.7718 43.0898 33.8437 43.7546 34.4746C44.3981 35.2372 44.4246 36.8415 43.1837 36.64C42.5863 38.2324 45.0562 39.1122 44.2039 40.843C42.9775 40.3714 43.0026 42.1232 43.6885 42.7002C44.3704 43.2863 44.2514 44.2623 44.3479 45.075C43.3674 44.5824 42.8031 45.8824 43.5577 46.5238C44.2131 47.2193 44.4642 48.003 44.3862 48.9856C45.2624 48.9737 45.9879 49.4295 46.7121 49.8536C46.646 48.5338 46.9936 47.1284 46.4861 45.8719C47.0068 44.2281 46.5046 42.3445 46.2099 40.8838C46.5799 40.8825 47.3028 41.275 46.868 40.3425C46.6976 37.5356 47.2182 34.6511 46.5284 31.8956C46.9367 31.2897 46.0196 31.6875 45.9694 31.1685C46.3698 30.8116 46.8086 30.4415 47.3808 30.4507C46.9804 31.0329 47.4323 31.4846 47.7429 31.9667C47.7653 34.0939 47.8922 36.2172 47.9266 38.3444C47.6742 39.3572 48.5649 41.2171 47.1574 41.5977C47.0385 44.3282 47.1641 47.0678 47.2354 49.7904C45.9417 50.1183 44.3492 49.4782 42.9868 49.3333C42.6987 46.5897 43.1216 43.6933 42.733 40.8996C42.0181 40.7086 41.097 40.9339 40.616 40.2397C40.1971 39.4824 40.46 38.5314 40.386 37.7108C40.3979 36.6821 40.4257 35.6508 40.3094 34.63C40.2354 32.1182 40.2261 29.5945 40.1733 27.0933ZM41.8793 26.4123C41.2318 26.436 40.2829 26.8325 40.6437 27.6926C40.6966 31.8113 40.8195 35.9274 40.9252 40.0448C41.4274 40.4492 42.1529 40.295 42.7476 40.3412C42.7489 36.8573 42.7938 33.1482 42.3723 29.7961C41.0481 29.746 41.4538 29.1428 42.3458 29.1138C42.2401 28.3367 42.8255 26.656 41.8793 26.4123Z" fill="#B1840E"/>
<path d="M10.7617 27.1841C11.8454 26.6388 13.0413 26.299 14.2545 26.2371C15.617 27.3159 17.9283 26.2569 18.634 28.1773C20.5369 28.0311 21.7554 29.6169 23.4548 30.0766C24.2451 30.3861 25.2772 32.6898 25.7027 31.2884C24.4605 31.7244 24.6389 30.016 25.3512 29.7052C26.563 29.7974 27.1418 31.4385 28.4581 31.1448C29.14 32.1037 28.1158 33.9899 29.7598 34.3455C30.8526 34.68 31.1579 36.1553 30.3333 36.9139C29.3223 38.5301 31.594 39.3836 31.2769 40.8469C30.1919 41.8546 29.9778 44.5429 27.9665 43.6037C27.9096 42.8872 29.0541 42.6685 29.0316 41.9454C27.2912 40.1304 24.7578 39.5838 22.8126 38.1099C22.4994 37.5093 21.8267 36.2277 22.8945 36.067C24.738 35.9168 26.3516 37.2946 27.5846 38.4971C28.0114 38.4603 28.285 37.9795 28.3735 37.5975C26.756 36.6307 25.1464 35.3676 23.1958 35.2109C21.9642 34.7815 20.3612 34.4548 20.0255 32.9638C20.1035 31.8798 21.5611 32.163 22.313 32.0036C21.4858 31.4675 20.3625 32.1011 19.7335 31.1883C18.9432 31.5979 18.071 31.6124 17.4869 30.7721C16.846 30.2623 17.5318 29.3324 17.0032 28.741C16.4284 27.9705 16.0359 29.9541 15.1439 29.4115C13.71 29.7552 14.2783 28.0719 13.669 27.4015C12.7004 27.5846 12.1705 28.6659 11.326 29.015C10.7221 28.7055 10.9044 27.7769 10.7617 27.1841Z" fill="#363637"/>
<path d="M41.8793 26.4123C42.8255 26.656 42.2401 28.3367 42.3458 29.1138C41.4538 29.1428 41.0481 29.746 42.3723 29.7961C42.7938 33.1482 42.7489 36.8573 42.7476 40.3412C42.1529 40.295 41.4274 40.4492 40.9252 40.0448C40.8195 35.9274 40.6966 31.8113 40.6437 27.6926C40.2829 26.8325 41.2318 26.436 41.8793 26.4123Z" fill="#242523"/>
<path d="M93.368 27.549C93.3456 26.4307 94.4147 26.8667 94.9961 27.2922C94.6763 27.2685 93.6733 27.0208 94.1794 27.5306C95.3212 27.549 94.6935 29.3495 93.7684 29.0466C93.479 28.766 92.8368 28.3893 93.2596 27.9468C93.9349 27.8915 93.5081 28.5672 93.9112 28.8082C94.3724 28.2524 94.4133 27.3804 93.368 27.549Z" fill="#947924"/>
<path d="M7.10643 29.8277C7.55178 28.2234 9.37282 27.6504 10.7617 27.1841C10.9044 27.7769 10.7221 28.7055 11.326 29.015C12.1705 28.6659 12.7004 27.5846 13.669 27.4015C14.2783 28.0719 13.71 29.7552 15.1439 29.4115C16.0359 29.9541 16.4284 27.9705 17.0032 28.741C17.5318 29.3324 16.846 30.2623 17.4869 30.7721C18.071 31.6124 18.9432 31.5979 19.7335 31.1883C20.3625 32.1011 21.4858 31.4675 22.313 32.0036C21.5611 32.163 20.1035 31.8798 20.0255 32.9638C20.3612 34.4548 21.9642 34.7815 23.1958 35.2109C25.1464 35.3676 26.756 36.6307 28.3735 37.5975C28.285 37.9795 28.0114 38.4603 27.5846 38.4971C26.3516 37.2946 24.738 35.9168 22.8945 36.067C21.8267 36.2277 22.4994 37.5093 22.8126 38.1099C24.7578 39.5838 27.2912 40.1304 29.0316 41.9454C29.0541 42.6685 27.9096 42.8872 27.9665 43.6037C29.9778 44.5429 30.1919 41.8546 31.2769 40.8469C30.8553 41.5226 30.8156 42.1562 31.5768 42.6567C32.642 43.9818 29.884 45.0658 30.7112 46.2775C31.2887 47.8318 29.1915 48.4153 28.918 49.7403C28.7713 50.3054 28.244 50.6202 27.8158 50.9679C27.6295 51.1062 27.4405 51.2432 27.2489 51.3723C25.5283 52.7474 23.3782 53.2123 21.4686 54.1317C20.759 54.0961 20.011 54.2423 19.489 53.6404C18.9062 54.1462 18.7291 55.3922 17.6217 54.8719C17.2186 53.7497 15.7042 53.4889 15.239 54.6704C15.1663 54.7982 15.0593 54.8456 14.9179 54.8113C13.8038 54.7323 14.2571 53.2676 13.1708 53.103C12.4638 52.5011 11.6762 53.9829 11.0749 52.9607C11.0881 51.8636 10.027 50.3528 8.77946 50.9758C7.76322 50.5846 8.55084 49.3096 7.89801 48.63C7.58217 47.4722 5.86025 48.0043 5.82192 46.6911C6.32806 45.8903 6.05979 44.859 5.44926 44.2136C4.79379 44.0595 4.39469 43.6287 4.34447 42.9491C4.36694 42.0758 5.48494 40.8259 4.36165 40.1528C2.29085 39.1294 5.76377 37.1708 4.17003 35.9959C3.65068 34.742 4.73828 33.8055 5.47436 32.973C4.75546 31.5834 6.09547 30.556 7.10643 29.8277ZM11.4185 34.5075C9.87764 35.2688 9.09134 36.9758 8.79268 38.5854C8.40415 42.5105 10.3996 47.1706 14.5042 48.2203C17.7604 48.9895 20.2581 45.5913 19.9753 42.6396C20.1458 39.9882 18.7859 37.0338 16.7733 35.4124C15.3804 34.1769 13.1008 33.4617 11.4185 34.5075Z" fill="#080908"/>
<path d="M58.9572 33.3036C59.9431 32.3777 61.4972 31.9957 62.5411 33.0125C63.0711 33.5394 63.4741 32.4672 63.9591 32.3105C64.0635 32.9098 65.048 32.3843 64.9053 32.7557C63.4662 32.9506 63.8679 36.0407 65.5608 35.2952C66.5044 35.4598 67.7373 33.9964 68.3888 35.0884C67.5695 36.8889 69.7064 38.3312 71.2697 37.666C71.9569 37.2801 72.9071 38.4919 72.2172 39.0069C71.4851 39.8275 72.5476 40.7692 73.067 41.3422C75.5845 42.1838 78.5512 42.6304 80.3141 44.9538C80.1939 45.7889 79.2503 45.2739 79.0045 44.7852C77.9896 43.6735 75.9756 42.3933 74.625 43.6762C74.6713 44.7734 75.1523 46.1103 76.4408 46.1761C77.6487 47.5288 79.7168 47.787 80.5811 49.5362C81.3793 50.0591 80.0313 51.2853 79.7102 50.3963C79.216 49.2688 78.2195 48.331 76.9734 48.1374C75.484 48.1163 75.7629 50.6228 76.9073 50.956C78.0293 52.231 79.6534 53.2874 80.0274 55.059C79.5305 55.2697 79.0666 55.5951 78.5076 55.6148C78.39 54.5848 77.7887 52.8277 76.4487 53.3414C76.3721 54.0316 75.1563 54.382 75.9241 55.0945C76.8716 56.0956 77.4689 57.3324 78.209 58.4836C78.4482 59.4372 75.6334 59.4069 76.6866 60.2683C75.7774 61.1653 74.4585 61.9569 73.1938 62.4943C72.8106 62.734 72.3811 62.7195 71.9886 62.518C71.6834 65.1694 67.7875 61.675 67.5193 64.5806C66.1951 65.2484 66.0167 63.0027 64.7005 63.3768C63.6539 62.8604 63.638 64.5056 62.7711 64.3001C61.5619 64.142 61.8936 62.3178 60.5325 62.2664C59.9219 61.8673 59.3563 62.5219 58.7524 62.6049C57.2908 62.244 57.8775 60.0022 56.2627 59.6347C55.4975 59.9838 54.6147 59.8073 54.328 58.9696C54.4826 57.7183 53.9236 55.9204 52.3602 56.06C50.6066 55.2341 52.462 53.1386 51.2475 52.0414C50.4321 51.8926 49.9392 51.2998 49.8758 50.4806C49.8586 49.685 50.67 49.8391 50.9951 50.3278C52.1382 49.2569 50.6396 47.6184 50.5894 46.3684C50.0608 46.1748 49.1225 45.6835 49.7331 45.046C50.2247 44.3426 50.5603 46.0036 51.122 45.5215C51.755 44.5178 51.2766 43.2455 51.0942 42.1786C50.4493 41.8374 50.1203 41.059 50.6555 40.4347C51.3374 39.7142 51.6625 41.059 52.0219 41.4515C53.0487 40.6968 53.099 39.2808 52.5043 38.2706C51.7946 37.205 53.1214 36.6149 53.6513 35.8984C55.2993 34.8684 56.7886 32.9282 58.9572 33.3036ZM60.2259 41.1354C58.1352 41.819 56.6432 43.8 56.2362 45.914C54.8566 51.1128 59.4409 57.4154 64.8009 56.953C67.0435 56.9636 69.1262 55.4686 70.0222 53.4547C73.3366 47.6144 66.8532 38.6354 60.2259 41.1354Z" fill="#080908"/>
<path d="M42.7608 27.2829C44.114 29.0242 47.0451 27.8164 48.9587 28.903C50.7057 28.8121 52.758 28.4473 54.2434 29.7065C54.0187 30.9499 52.0867 31.4767 52.5003 33.0573C51.0176 34.6129 49.926 36.4266 48.9441 38.3285C48.6415 38.5788 48.2569 38.4445 47.9266 38.3444C47.8922 36.2172 47.7653 34.0939 47.7429 31.9667C47.4323 31.4846 46.9804 31.0329 47.3808 30.4507C46.8086 30.4415 46.3698 30.8116 45.9694 31.1685C46.0196 31.6875 46.9367 31.2897 46.5284 31.8956C46.4544 32.1906 46.4597 32.5357 46.1914 32.7386C45.5346 32.7557 44.862 33.052 44.1708 33.0165C44.0651 34.5404 44.2475 37.1102 46.3751 36.8994C46.3196 36.9771 46.2086 37.1339 46.1518 37.2129C45.1752 36.9073 44.0281 37.3025 43.1837 36.64C44.4246 36.8415 44.3981 35.2372 43.7546 34.4746C43.0898 33.8437 42.3273 31.7718 44.0664 32.1287C44.0611 31.6414 44.3955 30.6799 43.448 30.9393C44.0334 29.4786 42.1621 28.8609 42.7608 27.2829Z" fill="#2E2E2D"/>
<path d="M60.2259 28.3525C60.4954 25.6312 58.3572 29.123 60.0871 28.7779C60.1347 28.6356 60.1809 28.4934 60.2259 28.3525Z" fill="#AA681E"/>
<path d="M95.2406 27.5964C95.6278 27.1749 97.0933 27.7031 96.5542 28.3577C96.093 28.799 96.644 29.8553 95.6476 29.6933C95.4111 29.5524 95.1904 29.3904 94.967 29.235C94.716 28.4078 95.5723 28.5066 95.5578 29.2429C96.3546 29.3061 95.2802 28.251 96.0441 28.2286C96.6361 27.4397 94.9618 28.5039 95.2406 27.5964Z" fill="#937823"/>
<path d="M69.5742 28.7331C70.079 28.8648 70.3262 27.6267 69.7672 27.8704C69.232 27.7097 68.9716 28.9294 69.5742 28.7331Z" fill="#ACA014"/>
<path d="M96.6546 29.7947C96.8436 29.2152 96.8845 28.3828 97.4872 28.0917C98.9712 28.0153 98.6897 30.3809 97.4554 30.398C97.1264 30.2913 96.8581 30.0661 96.6546 29.7947Z" fill="#7F681F"/>
<path d="M71.4442 29.8066C71.8049 29.1375 71.0424 28.7805 70.5482 29.0176C70.0196 29.4562 71.0305 30.0648 71.4442 29.8066Z" fill="#A0A4A8"/>
<path d="M108.444 31.6677C108.968 31.4056 109.177 30.4006 108.711 30.0608C108.554 30.5271 107.872 31.2541 108.444 31.6677Z" fill="#9C9E9D"/>
<path d="M101.413 31.4636C102.214 30.4994 103.533 29.9831 104.77 30.3163C104.659 31.3134 104.5 32.3039 104.331 33.2931C103.471 33.1298 102.617 32.8835 101.742 32.8347C101.487 35.0686 100.928 37.2669 100.669 39.4942C101.953 39.0951 101.4 41.47 100.449 40.8035C100.137 42.8885 99.7641 44.9657 99.369 47.0362C99.9729 47.1916 100.603 47.2852 101.197 47.4972C101.255 47.5143 101.371 47.5499 101.428 47.5683C101.692 47.6395 101.96 47.7027 102.235 47.7277C104.557 47.5302 107.303 46.836 108.813 44.9156C108.268 46.8465 106.312 47.9661 104.494 48.5285C101.256 50.2092 97.5532 49.6758 94.0579 49.3939C91.9897 48.6892 90.9933 50.9982 89.3612 51.803C89.196 51.9466 89.0361 52.098 88.8643 52.2363C88.4771 51.4487 89.0652 50.4648 88.345 49.7021C87.63 48.659 89.1418 49.0383 89.3004 48.5272C87.1569 48.5523 85.0399 47.7896 82.9149 47.9477C82.8263 47.322 83.314 46.4698 82.599 46.0668C81.0251 45.2541 82.6783 43.4773 81.8563 42.3432C80.9366 42.957 81.526 41.358 80.8018 41.1604C79.8133 40.8825 80.0274 39.5548 80.0485 38.7922C80.8626 38.2456 82.2343 39.5127 82.9823 38.6789C83.8016 38.6183 84.9355 39.5706 85.4971 38.887C86.2874 40.6138 86.7882 42.5118 87.6948 44.1609C91.2721 45.1566 95.012 45.673 98.6342 46.5502C98.8378 46.5726 98.9435 46.4843 98.9514 46.2854C99.8077 41.3501 100.491 36.3844 101.413 31.4636ZM83.6007 40.8746C83.1607 42.0192 84.6104 41.6583 85.1918 41.8941C85.616 40.6902 84.3566 40.9773 83.6007 40.8746ZM84.9236 44.0279C85.3121 44.7918 84.5575 45.7243 85.5632 45.7336C85.509 45.1435 86.1962 43.634 84.9236 44.0279Z" fill="#272725"/>
<path d="M31.9231 31.9061C31.8147 31.4003 32.3182 30.1807 31.4024 30.4652C31.5068 30.9631 31.0073 32.1906 31.9231 31.9061Z" fill="#9E8E0F"/>
<path d="M106.358 32.2921C107.368 32.6477 107.897 30.4744 106.758 30.6114C106.265 30.9789 105.772 31.7823 106.358 32.2921Z" fill="#D0D2D0"/>
<path d="M68.1734 31.1014C68.9716 31.428 69.6588 32.3 70.568 31.864C71.5538 32.2315 71.3596 35.0884 72.7221 33.9793C72.3838 33.168 71.6027 32.3118 71.2909 31.3872C72.2556 31.3016 72.504 32.6477 73.5678 32.267C74.9052 31.7784 73.1582 33.6079 74.1718 33.6145C73.9048 31.6203 76.3866 32.7675 76.7342 33.7436C77.531 34.6919 76.4236 36.7519 78.1059 36.8692C78.9662 37.1774 78.4059 38.4616 79.0944 38.9213C79.2054 38.3707 79.216 37.8017 79.3111 37.2524C79.7617 37.1128 79.7115 38.0269 80.1529 38.1046C81.0872 38.3299 82.0308 38.5327 82.9823 38.6789C82.2343 39.5127 80.8626 38.2456 80.0485 38.7922C80.0274 39.5548 79.8133 40.8825 80.8018 41.1604C81.526 41.358 80.9366 42.957 81.8563 42.3432C82.6783 43.4773 81.0251 45.2541 82.599 46.0668C83.314 46.4698 82.8263 47.322 82.9149 47.9477C82.7827 48.896 81.8577 49.9023 82.6929 50.7282C83.0867 52.4813 81.0846 53.8011 81.0938 55.5068C80.6075 56.5776 79.6983 57.4443 78.953 58.3558C78.238 59.0315 77.5535 59.7849 76.6866 60.2683C75.6334 59.4069 78.4482 59.4372 78.209 58.4836C77.4689 57.3324 76.8716 56.0956 75.9241 55.0945C75.1563 54.382 76.3721 54.0316 76.4487 53.3414C77.7887 52.8277 78.39 54.5848 78.5076 55.6148C79.0666 55.5951 79.5305 55.2697 80.0274 55.059C79.6534 53.2874 78.0293 52.231 76.9073 50.956C75.7629 50.6228 75.484 48.1163 76.9734 48.1374C78.2195 48.331 79.216 49.2688 79.7102 50.3963C80.0313 51.2853 81.3793 50.0591 80.5811 49.5362C79.7168 47.787 77.6487 47.5288 76.4408 46.1761C75.1523 46.1103 74.6713 44.7734 74.625 43.6762C75.9756 42.3933 77.9896 43.6735 79.0045 44.7852C79.2503 45.2739 80.1939 45.7889 80.3141 44.9538C78.5512 42.6304 75.5845 42.1838 73.067 41.3422C72.5476 40.7692 71.4851 39.8275 72.2172 39.0069C72.9071 38.4919 71.9569 37.2801 71.2697 37.666C69.7064 38.3312 67.5695 36.8889 68.3888 35.0884C67.7373 33.9964 66.5044 35.4598 65.5608 35.2952C63.8679 36.0407 63.4662 32.9506 64.9053 32.7557C65.048 32.3843 64.0635 32.9098 63.9591 32.3105C64.5895 31.8482 66.2704 30.6733 66.4422 32.0273C66.9034 32.9822 68.6637 32.1393 68.1734 31.1014Z" fill="#3F3F41"/>
<path d="M105.53 33.3708C107.438 32.9335 109.537 32.7214 111.117 31.4583C110.438 35.955 109.557 40.4334 108.813 44.9156C107.303 46.836 104.557 47.5302 102.235 47.7277L102.254 47.625C102.34 47.2364 102.447 46.8663 102.521 46.4804C102.978 46.7254 102.321 47.6698 103.137 47.5868C103.519 46.1603 103.433 44.6034 104.112 43.2692C104.071 43.0558 104.68 42.2695 104.079 42.363C104.278 40.6046 104.659 38.8659 104.951 37.1234C105.042 36.5662 105.946 35.5112 105.268 35.3017C105.313 34.9948 105.349 33.7633 105.538 34.5417C105.825 35.4875 105.478 33.4775 105.53 33.3708Z" fill="#C59321"/>
<path d="M100.617 33.4683C100.77 32.8005 100.709 31.8455 101.413 31.4636C100.491 36.3844 99.8077 41.3501 98.9514 46.2854C98.9435 46.4843 98.8378 46.5726 98.6342 46.5502C99.0611 42.1891 100.034 37.8346 100.617 33.4683Z" fill="#C9322E"/>
<path d="M46.5284 31.8956C47.2182 34.6511 46.6976 37.5356 46.868 40.3425C47.3028 41.275 46.5799 40.8825 46.2099 40.8838C46.8892 39.9802 46.9328 38.1995 46.1518 37.2129C46.2086 37.1339 46.3196 36.9771 46.3751 36.8994C46.4808 35.5441 46.6989 34.057 46.1914 32.7386C46.4597 32.5357 46.4544 32.1906 46.5284 31.8956Z" fill="#6C5009"/>
<path d="M44.1708 33.0165C44.862 33.052 45.5346 32.7557 46.1914 32.7386C46.6989 34.057 46.4808 35.5441 46.3751 36.8994C44.2475 37.1102 44.0651 34.5404 44.1708 33.0165Z" fill="#131514"/>
<path d="M33.8789 33.0586C35.1978 32.1867 34.5687 34.2954 34.7128 35.0752C36.1109 35.0791 38.0179 33.2549 38.7936 35.0752C39.2707 35.5415 39.568 36.3304 40.2393 36.5425C40.2658 35.901 40.2063 35.2622 40.3094 34.63C40.4257 35.6508 40.3979 36.6821 40.386 37.7108C39.8587 36.6716 38.931 34.6379 37.3928 35.386C37.1404 35.5296 36.1744 35.5757 36.5655 35.9458C36.9316 35.9906 37.8778 35.6482 37.7364 36.3489C36.884 36.4463 37.9293 36.6057 38.2491 36.661C37.9716 37.1326 36.8629 36.8876 36.8166 37.425C37.591 37.645 38.7513 37.4105 39.3249 37.8504C38.446 38.3878 35.5282 36.5609 35.8784 38.7527C35.2004 39.3362 34.3679 38.1903 33.6305 38.3141C33.9516 36.5794 33.127 34.6537 33.8789 33.0586Z" fill="#4E2A26"/>
<path d="M101.742 32.8347C102.617 32.8835 103.471 33.1298 104.331 33.2931C104.726 33.3774 105.12 33.3471 105.53 33.3708C105.478 33.4775 105.825 35.4875 105.538 34.5417C105.349 33.7633 105.313 34.9948 105.268 35.3017C105.946 35.5112 105.042 36.5662 104.951 37.1234C104.659 38.8659 104.278 40.6046 104.079 42.363C104.68 42.2695 104.071 43.0558 104.112 43.2692C103.433 44.6034 103.519 46.1603 103.137 47.5868C102.321 47.6698 102.978 46.7254 102.521 46.4804C103.216 42.2392 103.903 37.9927 104.701 33.7699C104.504 33.3945 103.577 33.2417 104.078 34.1466C103.537 38.3615 102.604 42.5197 102.033 46.7306C101.708 47.1152 102.068 47.3774 102.254 47.625L102.235 47.7277C101.96 47.7027 101.692 47.6395 101.428 47.5683C102.052 42.9017 102.941 38.2732 103.68 33.625C103.77 33.2602 103.285 33.3155 103.056 33.2246C102.956 38.0072 101.209 42.7515 101.197 47.4972C100.603 47.2852 99.9729 47.1916 99.369 47.0362C99.7641 44.9657 100.137 42.8885 100.449 40.8035C101.4 41.47 101.953 39.0951 100.669 39.4942C100.928 37.2669 101.487 35.0686 101.742 32.8347Z" fill="#AA7F16"/>
<path d="M103.056 33.2246C103.285 33.3155 103.77 33.2602 103.68 33.625C102.941 38.2732 102.052 42.9017 101.428 47.5683C101.371 47.5499 101.255 47.5143 101.197 47.4972C101.209 42.7515 102.956 38.0072 103.056 33.2246Z" fill="#594310"/>
<path d="M104.078 34.1466C103.577 33.2417 104.504 33.3945 104.701 33.7699C103.903 37.9927 103.216 42.2392 102.521 46.4804C102.447 46.8663 102.34 47.2364 102.254 47.625C102.068 47.3774 101.708 47.1152 102.033 46.7306C102.604 42.5197 103.537 38.3615 104.078 34.1466Z" fill="#58430E"/>
<path d="M11.4185 34.5075C13.1008 33.4617 15.3804 34.1769 16.7733 35.4124C15.8562 35.6047 15.0738 34.1176 13.973 34.8289C12.9501 35.2833 11.9471 36.2527 12.0568 37.4685C11.3947 37.0298 11.7978 35.9169 10.8556 35.9709C9.33978 35.984 12.7308 34.7617 11.4185 34.5075Z" fill="#6E5211"/>
<path d="M8.79268 38.5854C9.09134 36.9758 9.87764 35.2688 11.4185 34.5075C12.7308 34.7617 9.33978 35.984 10.8556 35.9709C11.7978 35.9169 11.3947 37.0298 12.0568 37.4685C12.337 37.9374 12.633 38.3997 13.0136 38.7961C12.9316 39.5087 12.6303 40.1831 12.5828 40.9062C11.7753 39.5482 10.4181 38.5169 8.79268 38.5854Z" fill="#A2770A"/>
<path d="M13.973 34.8289C15.0738 34.1176 15.8562 35.6047 16.7733 35.4124C18.7859 37.0338 20.1458 39.9882 19.9753 42.6396C19.5907 43.962 19.4916 45.6348 18.2705 46.4988C17.4882 46.8663 18.03 45.1487 17.0217 45.8034C14.5122 45.7968 13.0506 43.0558 12.5828 40.9062C12.6303 40.1831 12.9316 39.5087 13.0136 38.7961C12.633 38.3997 12.337 37.9374 12.0568 37.4685C11.9471 36.2527 12.9501 35.2833 13.973 34.8289ZM13.8527 37.4526C11.8295 40.2279 14.5835 45.7559 18.2256 44.3374C18.404 41.5819 16.3808 38.5288 13.8527 37.4526Z" fill="#4F2811"/>
<path d="M43.1837 36.64C44.0281 37.3025 45.1752 36.9073 46.1518 37.2129C46.9328 38.1995 46.8892 39.9802 46.2099 40.8838C46.5046 42.3445 47.0068 44.2281 46.4861 45.8719C46.9936 47.1284 46.646 48.5338 46.7121 49.8536C45.9879 49.4295 45.2624 48.9737 44.3862 48.9856C44.4642 48.003 44.2131 47.2193 43.5577 46.5238C42.8031 45.8824 43.3674 44.5824 44.3479 45.075C44.2514 44.2623 44.3704 43.2863 43.6885 42.7002C43.0026 42.1232 42.9775 40.3714 44.2039 40.843C45.0562 39.1122 42.5863 38.2324 43.1837 36.64Z" fill="#252318"/>
<path d="M18.2256 44.3374C18.404 41.5819 16.3808 38.5288 13.8527 37.4526C11.8295 40.2279 14.5835 45.7559 18.2256 44.3374Z" fill="#8B231E"/>
<path d="M8.79268 38.5854C10.4181 38.5169 11.7753 39.5482 12.5828 40.9062C13.0506 43.0558 14.5122 45.7968 17.0217 45.8034C18.03 45.1487 17.4882 46.8663 18.2705 46.4988C19.4916 45.6348 19.5907 43.962 19.9753 42.6396C20.2581 45.5913 17.7604 48.9895 14.5042 48.2203C10.3996 47.1706 8.40415 42.5105 8.79268 38.5854Z" fill="#C29219"/>
<path d="M91.2853 38.5011C91.8879 38.5669 92.5804 38.5617 93.0998 38.9173C93.0601 39.701 92.9213 40.4794 92.8288 41.2592C92.2183 41.1617 91.5483 41.1235 91.0078 40.8377C91.0118 40.0514 91.206 39.2795 91.2853 38.5011Z" fill="#272726"/>
<path d="M60.2259 41.1354C66.8532 38.6354 73.3366 47.6144 70.0222 53.4547C68.9928 53.4073 68.8857 55.5542 67.5946 54.8311C69.5187 54.0052 70.9526 51.5343 70.2958 49.5138C70.416 47.0362 69.1593 44.2728 66.9907 42.9412C65.8079 41.5187 63.7226 41.0485 61.9835 41.5819C60.4281 42.1562 59.096 43.7776 59.6774 45.4807C59.2096 44.7839 59.0088 43.5682 59.6576 42.8556C58.385 43.0215 59.3325 41.7492 60.1162 41.686C60.5126 41.6175 60.4373 41.3817 60.2259 41.1354Z" fill="#6F5411"/>
<path d="M85.1918 41.8941C85.616 40.6902 84.3566 40.9773 83.6007 40.8746C83.1607 42.0192 84.6104 41.6583 85.1918 41.8941Z" fill="#ACA20E"/>
<path d="M56.2362 45.914C56.6432 43.8 58.1352 41.819 60.2259 41.1354C60.4373 41.3817 60.5126 41.6175 60.1162 41.686C59.3325 41.7492 58.385 43.0215 59.6576 42.8556C59.0088 43.5682 59.2096 44.7839 59.6774 45.4807C60.7835 45.7797 59.5651 46.9084 59.6933 47.6013C59.4739 50.744 62.2755 54.4188 65.6731 53.8366C65.9017 54.6388 66.7819 55.1261 67.5946 54.8311C68.8857 55.5542 68.9928 53.4073 70.0222 53.4547C69.1262 55.4686 67.0435 56.9636 64.8009 56.953C65.052 55.8545 64.3701 54.7824 63.6829 54.0039C61.5104 53.153 60.0342 51.0364 59.4634 48.8328C59.6061 47.4946 58.4022 46.6977 57.6291 45.802C57.1917 45.3503 56.7397 46.1353 56.2362 45.914Z" fill="#A37912"/>
<path d="M61.9835 41.5819C63.7226 41.0485 65.8079 41.5187 66.9907 42.9412C65.1617 42.4143 63.2006 43.1388 61.8659 44.4125C58.7748 47.708 62.7632 54.0724 67.1096 52.4826C68.5514 52.0453 69.7857 50.935 70.2958 49.5138C70.9526 51.5343 69.5187 54.0052 67.5946 54.8311C66.7819 55.1261 65.9017 54.6388 65.6731 53.8366C62.2755 54.4188 59.4739 50.744 59.6933 47.6013C59.5651 46.9084 60.7835 45.7797 59.6774 45.4807C59.096 43.7776 60.4281 42.1562 61.9835 41.5819Z" fill="#38290B"/>
<path d="M61.8659 44.4125C63.2006 43.1388 65.1617 42.4143 66.9907 42.9412C69.1593 44.2728 70.416 47.0362 70.2958 49.5138C69.7857 50.935 68.5514 52.0453 67.1096 52.4826C67.555 49.0277 64.8525 45.8218 61.8659 44.4125Z" fill="#591C18"/>
<path d="M1.92743 44.2965C2.59347 43.7473 3.45245 43.2152 4.34447 42.9491C4.39469 43.6287 4.79379 44.0595 5.44926 44.2136C6.05979 44.859 6.32806 45.8903 5.82192 46.6911C5.86025 48.0043 7.58217 47.4722 7.89801 48.63C8.55084 49.3096 7.76322 50.5846 8.77946 50.9758C10.027 50.3528 11.0881 51.8636 11.0749 52.9607C11.6762 53.9829 12.4638 52.5011 13.1708 53.103C14.2571 53.2676 13.8038 54.7323 14.9179 54.8113C13.6069 55.3092 12.6475 53.6048 11.2586 54.079C9.68734 53.1478 7.73943 53.0767 6.28048 51.94C5.59066 51.4434 4.52552 51.6805 4.04713 50.8731C3.56214 49.98 2.08865 50.3554 1.7781 49.3123C1.67502 48.7274 0.971978 48.7235 0.574203 48.4113C0.15132 47.7172 -0.427502 46.6134 0.48434 46.0088C1.13452 45.5887 1.93007 45.4728 2.57761 45.0592C2.63312 44.61 1.68559 44.8866 1.92743 44.2965Z" fill="black" fill-opacity="0.19"/>
<path d="M85.5632 45.7336C85.509 45.1435 86.1962 43.634 84.9236 44.0279C85.3121 44.7918 84.5575 45.7243 85.5632 45.7336Z" fill="#9B920B"/>
<path d="M61.8659 44.4125C58.7748 47.708 62.7632 54.0724 67.1096 52.4826C67.555 49.0277 64.8525 45.8218 61.8659 44.4125Z" fill="#8F231E"/>
<path d="M56.2362 45.914C56.7397 46.1353 57.1917 45.3503 57.6291 45.802C58.4022 46.6977 59.6061 47.4946 59.4634 48.8328C60.0342 51.0364 61.5104 53.153 63.6829 54.0039C64.3701 54.7824 65.052 55.8545 64.8009 56.953C59.4409 57.4154 54.8566 51.1128 56.2362 45.914Z" fill="#CB9819"/>
<path d="M30.7112 46.2775C31.1976 46.1248 31.6627 45.5913 32.1953 45.8547C33.2591 45.8824 32.9909 47.3826 34.019 47.4156C34.3269 46.6687 35.5123 46.0181 36.0832 46.8689C36.4849 47.8976 37.7589 47.4511 37.7655 46.4317C38.1884 46.8492 38.7381 46.8452 39.305 46.7175C39.2627 47.5091 39.7583 48.115 40.168 48.7288C40.7653 49.4808 41.101 50.8046 42.3062 50.6913C43.9594 50.8942 45.5835 51.342 47.2354 51.5132C48.1314 51.367 49.0287 49.7153 49.8758 50.4806C49.9392 51.2998 50.4321 51.8926 51.2475 52.0414C52.462 53.1386 50.6066 55.2341 52.3602 56.06C53.9236 55.9204 54.4826 57.7183 54.328 58.9696C54.6147 59.8073 55.4975 59.9838 56.2627 59.6347C57.8775 60.0022 57.2908 62.244 58.7524 62.6049C59.3563 62.5219 59.9219 61.8673 60.5325 62.2664C61.8936 62.3178 61.5619 64.142 62.7711 64.3001C61.2685 64.9033 59.9655 63.1028 58.3771 63.3056C56.8032 63.5269 55.6495 62.1439 54.1429 61.9319C51.9175 61.9029 50.3872 59.964 48.1644 59.8508C46.6328 58.9551 45.1104 58.0739 43.3964 57.4957C42.8718 56.2075 41.9348 57.8144 41.0521 57.4549C39.3526 57.0663 37.5831 56.9109 35.9272 56.3735C34.8066 54.3108 32.4847 53.4981 30.5936 52.3391C29.4928 52.3167 28.573 51.7108 27.8158 50.9679C28.244 50.6202 28.7713 50.3054 28.918 49.7403C29.1915 48.4153 31.2887 47.8318 30.7112 46.2775Z" fill="black" fill-opacity="0.29"/>
<path d="M82.9149 47.9477C85.0399 47.7896 87.1569 48.5523 89.3004 48.5272C89.1418 49.0383 87.63 48.659 88.345 49.7021C89.0652 50.4648 88.4771 51.4487 88.8643 52.2363C87.8956 52.9673 86.5688 53.0608 85.7152 53.9038C84.7425 54.6283 83.3496 53.3269 82.5541 54.4412C82.3294 55.3237 80.9049 54.3424 81.0938 55.5068C81.0846 53.8011 83.0867 52.4813 82.6929 50.7282C81.8577 49.9023 82.7827 48.896 82.9149 47.9477Z" fill="#1A1B18"/>
<path d="M21.4686 54.1317C23.3782 53.2123 25.5283 52.7474 27.2489 51.3723C27.7815 52.8883 25.4728 53.427 24.3812 53.8972C21.4977 55.3382 18.2058 55.7794 15.239 54.6704C15.7042 53.4889 17.2186 53.7497 17.6217 54.8719C18.7291 55.3922 18.9062 54.1462 19.489 53.6404C20.011 54.2423 20.759 54.0961 21.4686 54.1317Z" fill="#010101"/>
<path d="M71.9886 62.518C72.3811 62.7195 72.8106 62.734 73.1938 62.4943C72.4551 63.9985 70.6143 63.8562 69.4645 64.8388C68.9465 65.1009 67.81 65.0627 67.5193 64.5806C67.7875 61.675 71.6834 65.1694 71.9886 62.518Z" fill="#010101"/>
<path d="M88.8643 52.2363C89.0361 52.098 89.196 51.9466 89.3612 51.803C91.4201 52.725 93.9323 52.6499 96.0348 53.6338C96.319 53.7589 96.085 54.299 95.7732 54.1475C94.6605 54.0461 93.2187 53.6193 92.324 53.7642C93.7513 54.6111 92.7099 56.4038 91.625 57.1651C90.1369 58.0726 88.4996 58.7167 86.8437 59.2475C84.1888 59.4503 81.5564 58.7931 78.953 58.3558C79.6983 57.4443 80.6075 56.5776 81.0938 55.5068C80.9049 54.3424 82.3294 55.3237 82.5541 54.4412C83.3496 53.3269 84.7425 54.6283 85.7152 53.9038C86.5688 53.0608 87.8956 52.9673 88.8643 52.2363Z" fill="black"/>
</svg>
