<svg width="26" height="8" viewBox="0 0 26 8" fill="none" xmlns="http://www.w3.org/2000/svg">
<path d="M2.45042 0.491455C3.49247 0.322518 4.53854 0.174057 5.57944 0C5.56564 0.266717 5.54608 0.533434 5.55413 0.800663C5.54436 0.887692 5.63407 0.93786 5.69158 0.994684C4.7841 0.874892 3.8657 0.841106 2.95592 0.739743C2.53668 0.712099 2.11917 0.671655 1.70167 0.631212C1.93342 0.528825 2.20199 0.542649 2.45042 0.491455Z" fill="#7D7E7D"/>
<path d="M21.8646 1.19536C21.9054 1.18871 21.9859 1.17642 22.0268 1.17028C22.0314 1.44723 21.9336 1.71753 21.9693 1.99654C22.0043 2.2909 21.9158 2.5786 21.9198 2.87092C21.86 2.8832 21.7737 2.87348 21.7409 2.92979C21.745 3.00863 21.8629 2.99532 21.9238 2.98559C21.9169 3.04805 21.9112 3.1105 21.9054 3.17347C21.8611 3.17193 21.7732 3.16937 21.7289 3.16835C21.7737 3.04958 21.611 3.07876 21.5724 3.15197C21.5391 3.1704 21.473 3.20726 21.4396 3.22569C21.3924 3.21186 21.3453 3.2006 21.2987 3.18934C21.2786 2.95027 21.362 2.6984 21.255 2.47007C21.1406 2.22793 21.2533 1.95609 21.1595 1.70781C21.0595 1.82913 21.1423 1.98015 21.1555 2.11428C21.2188 2.3682 21.1929 2.63031 21.1227 2.88116C21.1475 2.88627 21.1975 2.89651 21.2228 2.90214C21.2176 2.96562 21.2124 3.0291 21.2078 3.09361C21.1751 3.10282 21.1107 3.12176 21.0785 3.13149C21.0877 3.14685 21.1061 3.17808 21.1153 3.19343C21.0986 3.22415 21.0825 3.25538 21.0658 3.28661C21.1066 3.28507 21.1883 3.28302 21.2291 3.282C21.0652 3.38541 20.8645 3.42483 20.6926 3.51646C20.4855 3.61936 20.2676 3.70639 20.0364 3.75656C20.1043 3.4878 20.2509 3.14838 20.003 2.91955C19.9335 2.83662 19.8915 2.73935 19.8443 2.64567C19.8328 3.03985 19.972 3.42585 19.9444 3.81799C19.8288 3.87021 19.7115 3.92089 19.5993 3.97925C19.4234 4.06321 19.2871 4.19426 19.1445 4.31559C19.1019 3.89939 19.1807 3.48728 19.1985 3.07262C19.1715 2.73372 19.2715 2.39021 19.1749 2.05592C20.0749 1.77794 20.96 1.45952 21.8646 1.19536ZM21.7927 1.38375C21.795 1.58085 21.8117 1.77948 21.7714 1.97503C21.7231 2.20489 21.7536 2.44089 21.711 2.67178C21.7525 2.64618 21.7944 2.62058 21.837 2.5955C21.8634 2.19312 21.8284 1.7892 21.9112 1.39041C21.8813 1.38887 21.8226 1.38529 21.7927 1.38375ZM19.2894 3.86458C19.2359 3.89683 19.2336 4.02481 19.317 4.01611C19.3687 3.98283 19.3716 3.85536 19.2894 3.86458Z" fill="#7D7E7D"/>
<path d="M20.9284 3.59786C20.956 3.59172 21.0106 3.57892 21.0376 3.57278C21.0152 3.68335 21.0025 3.797 21.029 3.9086C21.01 3.8999 20.9726 3.88198 20.9537 3.87328C20.9404 3.78164 20.9324 3.6895 20.9284 3.59786Z" fill="#7D7E7D"/>
<path d="M4.2671 3.94802C4.37292 3.95314 4.47873 3.95877 4.58455 3.96389C4.65011 4.15228 4.62193 4.39289 4.8025 4.53265C4.97675 4.61405 5.18378 4.66933 5.25394 4.85414C4.94167 4.98929 4.59605 4.79117 4.4241 4.55978C4.29241 4.37856 4.27918 4.15689 4.2671 3.94802Z" fill="#7D7E7D"/>
<path d="M24.2195 4.47327C24.2696 4.40774 24.4415 4.43026 24.4375 4.51985C24.361 4.51985 24.2851 4.50808 24.2195 4.47327Z" fill="#7D7E7D"/>
<path d="M24.4933 4.52855C24.5433 4.4661 24.7227 4.4707 24.7204 4.56388C24.6422 4.57053 24.5657 4.55261 24.4933 4.52855Z" fill="#7D7E7D"/>
<path d="M15.6917 6.15343C15.4473 5.9205 15.311 5.52631 15.4921 5.24116C15.6991 5.34253 15.7227 5.55907 15.7992 5.73723C15.8389 5.80941 15.8814 5.88108 15.9263 5.95173C16.0269 6.05514 16.1805 6.08636 16.3099 6.15087C16.3973 6.21691 16.4496 6.31008 16.5146 6.3925C16.2202 6.4053 15.8958 6.36281 15.6917 6.15343Z" fill="#7D7E7D"/>
<path d="M5.57944 0C5.84455 0.0358353 6.11139 0.0542655 6.37938 0.0598968C6.70372 0.119793 7.03784 0.0870287 7.36276 0.148973C7.74692 0.137198 8.12302 0.216036 8.50718 0.213477C8.79759 0.273373 9.09836 0.234977 9.38878 0.29129C9.60501 0.325589 9.82699 0.287194 10.0421 0.328149C10.2848 0.377294 10.5361 0.338387 10.7787 0.386508C11.0065 0.426951 11.2417 0.391116 11.4688 0.437702C11.7 0.481728 11.9387 0.438726 12.1699 0.481729C12.412 0.531386 12.6639 0.491454 12.9071 0.540088C13.1188 0.578995 13.3379 0.546744 13.5501 0.584115C13.7922 0.633261 14.0441 0.593841 14.2867 0.642475C14.5335 0.688037 14.7888 0.641451 15.0349 0.693668C15.2466 0.732575 15.4651 0.699812 15.6773 0.737695C15.92 0.787352 16.1719 0.747421 16.4145 0.796054C16.6457 0.840592 16.8844 0.797079 17.115 0.840081C17.3577 0.889739 17.6096 0.850319 17.8528 0.898441C18.0806 0.938372 18.3158 0.903048 18.5429 0.949634C18.758 0.991101 18.9794 0.955266 19.1956 0.987006C19.4861 1.04332 19.7862 1.00492 20.0767 1.06482C20.3446 1.06994 20.6098 1.09042 20.8749 1.1242C21.209 1.10219 21.5322 1.1882 21.8646 1.19536C20.96 1.45952 20.0749 1.77794 19.1749 2.05592C19.2715 2.39021 19.1715 2.73372 19.1985 3.07262C19.1807 3.48728 19.1019 3.89939 19.1445 4.31559C19.0559 4.30586 18.9673 4.29614 18.8788 4.28641C18.8598 4.12822 18.8512 3.96952 18.8638 3.81082C18.7016 3.88966 18.5274 3.97823 18.3353 3.95263C17.7562 3.88761 17.1742 3.84308 16.5997 3.74888C16.0488 3.70434 15.4967 3.66851 14.9487 3.59888C14.0774 3.51442 13.2067 3.42483 12.3366 3.33268C12.3384 3.39462 12.3395 3.45657 12.3407 3.51902C12.2038 3.52721 12.0623 3.55281 11.9283 3.51749C11.803 3.50264 11.8007 3.37056 11.7535 3.28968C11.2509 3.20828 10.7391 3.18217 10.2336 3.11664C10.1502 3.10743 10.0662 3.09821 9.98341 3.08695L9.96616 3.08439C9.80686 3.06084 9.64411 3.02194 9.48309 3.05521C9.47619 3.05624 9.46354 3.0588 9.45721 3.05982C9.24501 3.13763 9.03165 3.04651 8.81945 3.01887C8.67683 2.99736 8.54283 2.94771 8.40309 2.9175C8.21964 2.88167 8.02583 2.96051 7.84871 2.88935C7.56749 2.77877 7.25695 2.79822 6.95848 2.77416C6.76123 2.75983 6.56513 2.73321 6.36845 2.71375C6.31669 2.70863 6.26493 2.70454 6.21318 2.70044C6.19305 2.93593 5.89573 2.91085 5.70826 2.87041C5.69618 2.75317 5.6841 2.63645 5.67145 2.51973C5.38046 2.60574 5.07049 2.60215 4.77202 2.54994L4.71969 2.53816C4.38844 2.46547 4.04627 2.45881 3.70927 2.41888C3.34985 2.38612 2.99215 2.33339 2.631 2.31854C2.66838 2.40352 2.69713 2.49311 2.75521 2.5699C2.9933 2.88935 3.24978 3.19804 3.45969 3.53233C3.25323 3.59274 3.04793 3.668 2.82882 3.68233C2.72589 3.68898 2.61892 3.69769 2.52863 3.74735C2.50333 3.76014 2.45215 3.78625 2.42684 3.79956C2.42454 3.76168 2.41937 3.68591 2.41649 3.64803C2.45847 3.64138 2.54186 3.62704 2.58384 3.61987C2.59247 3.36442 2.60799 3.10641 2.54991 2.85454C2.50965 2.67587 2.5085 2.49362 2.52863 2.31342C2.41822 2.29909 2.3078 2.28527 2.19739 2.27196C2.09272 2.39892 1.92422 2.48492 1.74307 2.45523C1.63438 2.36922 1.68096 2.22435 1.64818 2.11121C1.57515 1.81275 1.64876 1.50559 1.57917 1.20765C1.53719 1.0126 1.54927 0.813461 1.55962 0.616367C1.59528 0.620463 1.66601 0.627628 1.70167 0.631212C2.11917 0.671655 2.53668 0.712099 2.95592 0.739743C3.8657 0.841106 4.7841 0.874892 5.69158 0.994684C5.63407 0.93786 5.54436 0.887692 5.55413 0.800663C5.54608 0.533434 5.56564 0.266717 5.57944 0ZM4.58972 1.53375C4.58225 1.63153 4.61618 1.71293 4.71682 1.76054C4.7657 1.69296 4.77835 1.61412 4.78813 1.53631C4.73867 1.5358 4.63918 1.53426 4.58972 1.53375ZM8.74009 1.88084C8.73836 1.95456 8.73778 2.02879 8.73663 2.10302C8.78437 2.10199 8.87868 2.10046 8.92584 2.09995C8.94539 1.98527 8.88328 1.87828 8.74009 1.88084ZM15.3472 2.50488C15.3466 2.59959 15.3512 2.6984 15.4145 2.77979C15.4703 2.73833 15.5278 2.6984 15.587 2.66051C15.5651 2.61034 15.5433 2.56017 15.522 2.51C15.4783 2.50898 15.3909 2.50591 15.3472 2.50488ZM18.9823 3.77089C18.9639 3.8011 18.9271 3.86151 18.9087 3.89171C18.9184 3.98079 19.0306 3.99461 19.1105 4.00434C19.0933 3.91475 19.0651 3.82772 18.9823 3.77089Z" fill="#555755"/>
<path d="M21.7927 1.38375C21.8226 1.38529 21.8813 1.38887 21.9112 1.39041C21.8284 1.7892 21.8634 2.19312 21.837 2.5955C21.7944 2.62058 21.7525 2.64618 21.711 2.67178C21.7536 2.44089 21.7231 2.20489 21.7714 1.97503C21.8117 1.77948 21.795 1.58085 21.7927 1.38375Z" fill="#555755"/>
<path d="M21.1555 2.11428C21.1423 1.98015 21.0595 1.82913 21.1595 1.70781C21.2533 1.95609 21.1406 2.22793 21.255 2.47007C21.362 2.6984 21.2786 2.95027 21.2987 3.18934C21.3453 3.2006 21.3924 3.21186 21.4396 3.22569C21.4574 3.23183 21.4931 3.24411 21.5109 3.25026C21.4172 3.26408 21.3234 3.27585 21.2291 3.282C21.1883 3.28302 21.1066 3.28507 21.0658 3.28661C21.0825 3.25538 21.0986 3.22415 21.1153 3.19343C21.1061 3.17808 21.0877 3.14685 21.0785 3.13149C21.1107 3.12176 21.1751 3.10282 21.2078 3.09361C21.2124 3.0291 21.2176 2.96562 21.2228 2.90214C21.1975 2.89651 21.1475 2.88627 21.1227 2.88116C21.1929 2.63031 21.2188 2.3682 21.1555 2.11428Z" fill="#555755"/>
<path d="M19.8443 2.64567C19.8915 2.73935 19.9335 2.83662 20.003 2.91955C20.2509 3.14838 20.1043 3.4878 20.0364 3.75656C20.2676 3.70639 20.4855 3.61936 20.6926 3.51646C20.7708 3.54308 20.8496 3.57022 20.9284 3.59786C20.9324 3.6895 20.9404 3.78164 20.9537 3.87328C20.9726 3.88198 21.01 3.8999 21.029 3.9086C21.3643 3.97157 21.7225 3.97771 22.0411 4.09085C21.9112 4.09751 21.7812 4.10672 21.6518 4.1144C21.6622 4.17532 21.6725 4.23624 21.6834 4.29818C21.5558 4.33351 21.4344 4.38419 21.3183 4.44255C21.596 4.44716 21.8726 4.46712 22.1481 4.49835C22.2994 4.52087 22.4224 4.42668 22.5478 4.36934C22.6467 4.34426 22.7468 4.3202 22.8463 4.29665C22.8785 4.34938 22.9112 4.40159 22.9434 4.45535C22.9693 4.52292 23.0504 4.58384 23.1349 4.55364L23.1764 4.54647C23.2689 4.56439 23.3696 4.58282 23.4616 4.55057C23.6105 4.51268 23.7543 4.46149 23.8969 4.40876C23.9861 4.39391 24.1189 4.37344 24.1753 4.45586C24.0683 4.47224 23.9631 4.49374 23.8584 4.51832C24.1655 4.67701 24.5284 4.60381 24.859 4.5649C25.0643 4.5475 25.2645 4.61097 25.4519 4.67906C25.6222 4.73947 25.8073 4.74203 25.9856 4.77326C25.9891 4.79732 25.9965 4.84595 26 4.87052C25.8442 4.85977 25.6912 4.82803 25.5359 4.81472C25.3812 4.82445 25.2311 4.86848 25.0758 4.8695C24.8314 4.87769 24.5968 4.78708 24.3524 4.81779C24.3259 4.89458 24.2868 4.96626 24.2316 5.02974C24.2219 4.95858 24.2138 4.88742 24.2069 4.81626C23.8607 4.83315 23.5226 4.73896 23.1764 4.75841L23.1194 4.75892C23.0119 4.76609 22.8744 4.73998 22.8071 4.83725C22.741 4.7922 22.6829 4.72258 22.5944 4.71643C22.2792 4.68879 21.9601 4.74561 21.6478 4.68828C21.4126 4.64374 21.1716 4.6591 20.933 4.66166C20.7041 4.66985 20.4838 4.59562 20.2549 4.6079C20.2475 4.64937 20.2314 4.73179 20.2239 4.77326C19.9841 4.60534 19.6603 4.49169 19.3705 4.62992C19.4193 4.57258 19.4677 4.51524 19.516 4.45791C19.4855 4.3545 19.3889 4.2347 19.4774 4.13437C19.5131 4.07959 19.5556 4.02891 19.5993 3.97925C19.7115 3.92089 19.8288 3.87021 19.9444 3.81799C19.972 3.42585 19.8328 3.03985 19.8443 2.64567ZM20.4447 3.90144C20.4033 3.96236 20.5085 4.05399 20.5776 4.01867C20.6241 3.9557 20.5149 3.85946 20.4447 3.90144ZM20.3176 4.03966C20.2889 4.15843 20.2613 4.27771 20.2388 4.3975C20.5764 4.41081 20.9686 4.4405 21.2343 4.21627C20.9272 4.16303 20.6218 4.10211 20.3176 4.03966Z" fill="#555755"/>
<path d="M4.2671 3.94802C4.29873 3.76117 4.4218 3.60759 4.58282 3.48984C4.58397 3.54462 4.58282 3.60042 4.5926 3.65571C4.76857 3.89683 5.22921 3.75502 5.34596 4.05143C5.36091 4.23829 5.29132 4.4492 5.43854 4.60944C5.52078 4.50193 5.53343 4.37702 5.44314 4.27105C5.46212 4.2516 5.4995 4.21269 5.51848 4.19273C5.52136 4.12003 5.52596 4.04785 5.53228 3.97567C5.59957 4.05297 5.56104 4.15996 5.57024 4.25057C5.55816 4.37958 5.59267 4.52753 5.49375 4.63657C5.43164 4.72309 5.33963 4.78708 5.25394 4.85414C5.18378 4.66933 4.97675 4.61405 4.8025 4.53265C4.62193 4.39289 4.65011 4.15228 4.58455 3.96389C4.47873 3.95877 4.37292 3.95314 4.2671 3.94802Z" fill="#555755"/>
<path d="M22.0434 3.65929C22.1263 3.66851 22.1263 3.85741 22.0434 3.86662C21.9963 3.80878 21.9963 3.71663 22.0434 3.65929Z" fill="#555755"/>
<path d="M15.0395 4.10519C15.2264 3.9987 15.4358 3.92908 15.6514 3.88506C15.6347 3.91168 15.6008 3.96543 15.5841 3.99205C15.4737 4.02788 15.3587 4.05706 15.2575 4.11133C15.0959 4.29767 15.0125 4.5265 14.9354 4.7492C14.9113 4.805 14.9009 4.87667 14.8331 4.90636C14.6519 5.00209 14.4506 5.06096 14.2545 5.12649C14.3155 4.8567 14.5887 4.6934 14.7215 4.45637C14.7968 4.31917 14.8975 4.19324 15.0395 4.10519Z" fill="#555755"/>
<path d="M18.9978 4.63197C19.0392 4.52344 19.0869 4.41491 19.1715 4.32634C19.1669 4.46456 19.1807 4.6161 19.0852 4.73435C19.1813 4.87769 19.11 5.02922 18.9811 5.13366C19.0829 5.17308 19.1749 5.09322 19.2669 5.06506C19.1387 5.25396 18.9029 5.3456 18.6631 5.36096C18.7816 5.19765 18.942 5.05943 19.026 4.87667C18.8069 4.87923 18.5901 4.90534 18.3756 4.94424C18.4216 4.81012 18.5826 4.7881 18.7126 4.7492C18.7223 4.71183 18.7321 4.67497 18.7419 4.63811C18.827 4.63657 18.9121 4.63452 18.9978 4.63197Z" fill="#555755"/>
<path d="M15.5255 5.06608C15.6428 4.91455 15.8354 4.82957 16.0258 4.77172C16.0407 4.78657 16.0706 4.81575 16.0856 4.83059C15.9729 4.86592 15.8228 4.92684 15.8705 5.05943C16.0626 5.28826 16.4692 5.12188 16.6469 5.3584C16.8211 5.5903 16.5618 5.89849 16.7533 6.1263C16.9022 6.14831 16.9603 5.94405 17.0678 5.86982C16.9649 6.08944 16.8079 6.35718 16.5146 6.3925C16.4496 6.31008 16.3973 6.21691 16.3099 6.15087C16.1805 6.08636 16.0269 6.05514 15.9263 5.95173C16.0315 5.94661 16.1788 6.02544 16.2512 5.9292C16.165 5.75361 16.1799 5.5043 15.9522 5.4188C15.8993 5.52375 15.8481 5.63023 15.7992 5.73723C15.7227 5.55907 15.6991 5.34253 15.4921 5.24116C15.4162 5.19765 15.4979 5.11369 15.5255 5.06608Z" fill="#555755"/>
<path d="M24.1091 5.57238C24.1362 5.57341 24.1908 5.57494 24.2184 5.57546L24.2725 5.57699L24.3282 5.57904C24.3035 5.66607 24.2799 5.75361 24.2581 5.84217C24.0982 5.84217 24.1281 5.66965 24.1091 5.57238Z" fill="#555755"/>
<path d="M4.58972 1.53375C4.63918 1.53426 4.73867 1.5358 4.78813 1.53631C4.77835 1.61412 4.7657 1.69296 4.71682 1.76054C4.61618 1.71293 4.58225 1.63153 4.58972 1.53375Z" fill="#9B5A2B"/>
<path d="M8.74009 1.88084C8.88328 1.87828 8.94539 1.98527 8.92584 2.09995C8.87868 2.10046 8.78437 2.10199 8.73663 2.10302C8.73778 2.02879 8.73836 1.95456 8.74009 1.88084Z" fill="#9B5A2B"/>
<path d="M15.3472 2.50488C15.3909 2.50591 15.4783 2.50898 15.522 2.51C15.5433 2.56017 15.5651 2.61034 15.587 2.66051C15.5278 2.6984 15.4703 2.73833 15.4145 2.77979C15.3512 2.6984 15.3466 2.59959 15.3472 2.50488Z" fill="#9B5A2B"/>
<path d="M2.631 2.31854C2.99215 2.33339 3.34985 2.38612 3.70927 2.41888C4.04627 2.45881 4.38844 2.46547 4.71969 2.53816C4.6041 2.66051 4.58052 2.81921 4.55522 2.97228C4.78123 2.91392 5.00953 2.8617 5.23611 2.80436C5.23381 2.77262 5.22864 2.70812 5.22576 2.67587C5.07279 2.63799 4.9227 2.59396 4.77202 2.54994C5.07049 2.60215 5.38046 2.60574 5.67145 2.51973C5.6841 2.63645 5.69618 2.75317 5.70826 2.87041C5.89573 2.91085 6.19305 2.93593 6.21318 2.70044C6.26493 2.70454 6.31669 2.70863 6.36845 2.71375C6.37995 2.77672 6.39088 2.83969 6.4018 2.90266C6.55535 2.97689 6.71867 3.03422 6.88832 3.07108C6.91133 2.97177 6.9349 2.87296 6.95848 2.77416C7.25695 2.79822 7.56749 2.77877 7.84871 2.88935C8.02583 2.96051 8.21964 2.88167 8.40309 2.9175C8.54283 2.94771 8.67683 2.99736 8.81945 3.01887C9.03165 3.04651 9.24501 3.13763 9.45721 3.05982C9.46354 3.0588 9.47619 3.05624 9.48309 3.05521C9.64411 3.02194 9.80686 3.06084 9.96616 3.08439C9.97018 3.0849 9.97881 3.08644 9.98341 3.08695C10.0662 3.09821 10.1502 3.10743 10.2336 3.11664C10.4803 3.26562 10.4222 3.55127 10.3975 3.77806C10.3704 3.87328 10.3641 4.01406 10.2341 4.04273C9.89082 4.14614 9.52335 4.08573 9.17197 4.05655C8.97414 4.31456 8.63772 4.42156 8.31798 4.51115C8.07932 4.51012 7.83893 4.49835 7.60775 4.44357C7.34551 4.2946 7.14251 4.08164 6.99874 3.83847C6.83772 3.86048 6.67957 3.89427 6.52545 3.94034C6.54097 4.06218 6.55535 4.18402 6.56168 4.30689C6.50417 4.60586 6.40353 4.94731 6.08954 5.11318C5.78417 5.28058 5.42417 5.38553 5.06359 5.37734C4.71739 5.34406 4.43215 5.12854 4.21707 4.89868C3.98531 4.6422 3.90595 4.31047 3.85017 3.99307C3.88582 3.80622 3.93816 3.62192 3.97784 3.43507C3.84097 3.46783 3.70525 3.50264 3.5701 3.54104C3.5678 3.67311 3.5655 3.8057 3.5678 3.93829C3.57471 4.13795 3.5701 4.33811 3.55573 4.53726C3.22621 4.63555 2.89611 4.74459 2.54703 4.77275C2.57579 4.57975 2.59247 4.38624 2.59189 4.1917C2.59362 4.04171 2.59132 3.88864 2.52863 3.74735C2.61892 3.69769 2.72589 3.68898 2.82882 3.68233C3.04793 3.668 3.25323 3.59274 3.45969 3.53233C3.24978 3.19804 2.9933 2.88935 2.75521 2.5699C2.69713 2.49311 2.66838 2.40352 2.631 2.31854ZM4.03419 2.66205C3.89215 2.86938 3.83579 3.1105 3.74608 3.33729C3.97554 3.31937 4.18314 3.23132 4.32174 3.06494C4.29586 2.92569 4.2671 2.78594 4.19407 2.65949C4.15381 2.66 4.07445 2.66154 4.03419 2.66205ZM3.68857 2.73525C3.62244 2.78338 3.70007 2.90573 3.77886 2.85505C3.84499 2.80641 3.76563 2.6856 3.68857 2.73525ZM6.38168 3.07569C6.40583 3.23899 6.31267 3.45247 6.45874 3.57841C6.61689 3.61424 6.76813 3.55435 6.89983 3.48063C6.86647 3.41049 6.85669 3.32756 6.79919 3.26869C6.66002 3.2047 6.51337 3.15197 6.38168 3.07569ZM4.2671 3.94802C4.27918 4.15689 4.29241 4.37856 4.4241 4.55978C4.59605 4.79117 4.94167 4.98929 5.25394 4.85414C5.33963 4.78708 5.43164 4.72309 5.49375 4.63657C5.59267 4.52753 5.55816 4.37958 5.57024 4.25057C5.56104 4.15996 5.59957 4.05297 5.53228 3.97567C5.52596 4.04785 5.52136 4.12003 5.51848 4.19273C5.4995 4.21269 5.46212 4.2516 5.44314 4.27105C5.53343 4.37702 5.52078 4.50193 5.43854 4.60944C5.29132 4.4492 5.36091 4.23829 5.34596 4.05143C5.22921 3.75502 4.76857 3.89683 4.5926 3.65571C4.58282 3.60042 4.58397 3.54462 4.58282 3.48984C4.4218 3.60759 4.29873 3.76117 4.2671 3.94802Z" fill="#070707"/>
<path d="M21.7409 2.92979C21.7737 2.87348 21.86 2.8832 21.9198 2.87092C21.9704 2.90624 21.9716 2.94464 21.9238 2.98559C21.8629 2.99532 21.745 3.00863 21.7409 2.92979Z" fill="#282928"/>
<path d="M21.7289 3.16835C21.7737 3.04958 21.611 3.07876 21.5724 3.15197C21.6116 3.15606 21.6898 3.16425 21.7289 3.16835Z" fill="#282928"/>
<path d="M21.5828 3.28097C21.7542 3.20213 21.5903 3.45093 21.5828 3.28097Z" fill="#282928"/>
<path d="M21.7593 3.33422C21.8393 3.31323 21.868 3.33882 21.8468 3.41049C21.7662 3.43097 21.7369 3.40589 21.7593 3.33422Z" fill="#282928"/>
<path d="M21.9267 3.44377C21.956 3.46988 21.956 3.46988 21.9267 3.44377Z" fill="#282928"/>
<path d="M21.9854 3.54718C22.0147 3.57329 22.0147 3.57329 21.9854 3.54718Z" fill="#282928"/>
<path d="M14.9487 3.59888C15.4967 3.66851 16.0488 3.70434 16.5997 3.74888C17.1742 3.84308 17.7562 3.88761 18.3353 3.95263C18.5274 3.97823 18.7016 3.88966 18.8638 3.81082C18.8512 3.96952 18.8598 4.12822 18.8788 4.28641C18.9673 4.29614 19.0559 4.30586 19.1445 4.31559C19.2871 4.19426 19.4234 4.06321 19.5993 3.97925C19.5556 4.02891 19.5131 4.07959 19.4774 4.13437C19.3889 4.2347 19.4855 4.3545 19.516 4.45791C19.4677 4.51524 19.4193 4.57258 19.3705 4.62992C19.6603 4.49169 19.9841 4.60534 20.2239 4.77326C20.2279 4.79373 20.236 4.83418 20.24 4.85414C20.1687 5.03383 20.0588 5.20174 19.934 5.35584C19.4774 5.80071 18.6769 6.00548 18.0673 5.68808C18.0691 5.95019 17.942 6.19643 17.7562 6.39557C17.4232 6.70017 16.9701 6.89726 16.4985 6.9546C15.748 6.95767 15.0924 6.42219 14.9291 5.78535C14.687 5.86777 14.4547 5.97067 14.2097 6.04695C14.2005 5.78893 14.1947 5.52989 14.2183 5.27239C14.2287 5.22325 14.2407 5.17461 14.2545 5.12649C14.4506 5.06096 14.6519 5.00209 14.8331 4.90636C14.9009 4.87667 14.9113 4.805 14.9354 4.7492C15.0125 4.5265 15.0959 4.29767 15.2575 4.11133C15.3587 4.05706 15.4737 4.02788 15.5841 3.99205C15.6008 3.96543 15.6347 3.91168 15.6514 3.88506C15.4358 3.92908 15.2264 3.9987 15.0395 4.10519C14.9889 3.93983 14.9722 3.76833 14.9487 3.59888ZM15.43 3.85792C15.4588 3.88352 15.4588 3.88352 15.43 3.85792ZM15.8906 3.89222C15.7687 4.09751 15.4938 4.18556 15.3949 4.39955C15.7187 4.21167 16.081 4.09495 16.4588 4.02788C16.2932 3.92447 16.0821 3.92499 15.8906 3.89222ZM17.2634 4.05297C17.234 4.13641 17.2657 4.16457 17.3594 4.13795C17.3887 4.0545 17.3571 4.02584 17.2634 4.05297ZM18.9978 4.63197C18.9121 4.63452 18.827 4.63657 18.7419 4.63811C18.7321 4.67497 18.7223 4.71183 18.7126 4.7492C18.5826 4.7881 18.4216 4.81012 18.3756 4.94424C18.5901 4.90534 18.8069 4.87923 19.026 4.87667C18.942 5.05943 18.7816 5.19765 18.6631 5.36096C18.9029 5.3456 19.1387 5.25396 19.2669 5.06506C19.1749 5.09322 19.0829 5.17308 18.9811 5.13366C19.11 5.02922 19.1813 4.87769 19.0852 4.73435C19.1807 4.6161 19.1669 4.46456 19.1715 4.32634C19.0869 4.41491 19.0392 4.52344 18.9978 4.63197ZM15.0838 4.67241C15.1131 4.698 15.1131 4.698 15.0838 4.67241ZM15.5255 5.06608C15.4979 5.11369 15.4162 5.19765 15.4921 5.24116C15.311 5.52631 15.4473 5.9205 15.6917 6.15343C15.8958 6.36281 16.2202 6.4053 16.5146 6.3925C16.8079 6.35718 16.9649 6.08944 17.0678 5.86982C16.9603 5.94405 16.9022 6.14831 16.7533 6.1263C16.5618 5.89849 16.8211 5.5903 16.6469 5.3584C16.4692 5.12188 16.0626 5.28826 15.8705 5.05943C15.8228 4.92684 15.9729 4.86592 16.0856 4.83059C16.0706 4.81575 16.0407 4.78657 16.0258 4.77172C15.8354 4.82957 15.6428 4.91455 15.5255 5.06608Z" fill="#070707"/>
<path d="M18.9823 3.77089C19.0651 3.82772 19.0933 3.91475 19.1105 4.00434C19.0306 3.99461 18.9184 3.98079 18.9087 3.89171C18.9271 3.86151 18.9639 3.8011 18.9823 3.77089Z" fill="#282928"/>
<path d="M19.317 4.01611C19.3687 3.98283 19.3716 3.85536 19.2894 3.86458C19.2359 3.89683 19.2336 4.02481 19.317 4.01611Z" fill="#282928"/>
<path d="M21.6518 4.1144C21.7812 4.10672 21.9112 4.09751 22.0411 4.09085C22.3574 4.09136 22.6611 4.1789 22.9705 4.22703C23.2741 4.30638 23.614 4.28129 23.8969 4.40876C23.7543 4.46149 23.6105 4.51268 23.4616 4.55057C23.392 4.45944 23.2569 4.48248 23.1764 4.54647L23.1349 4.55364C23.1459 4.46507 23.0217 4.41695 22.9434 4.45535C22.9112 4.40159 22.8785 4.34938 22.8463 4.29665C22.7468 4.3202 22.6467 4.34426 22.5478 4.36934C22.4178 4.39136 22.289 4.42105 22.1573 4.42924C21.99 4.42053 21.8364 4.35194 21.6834 4.29818C21.6725 4.23624 21.6622 4.17532 21.6518 4.1144ZM21.8123 4.26235C21.841 4.28846 21.841 4.28846 21.8123 4.26235ZM22.0998 4.31405C22.1286 4.34016 22.1286 4.34016 22.0998 4.31405Z" fill="#282928"/>
<path d="M23.8584 4.51832C23.9631 4.49374 24.0683 4.47224 24.1753 4.45586L24.2195 4.47327C24.2851 4.50808 24.361 4.51985 24.4375 4.51985L24.4933 4.52855C24.5657 4.55261 24.6422 4.57053 24.7204 4.56388C24.7555 4.56439 24.8245 4.5649 24.859 4.5649C24.5284 4.60381 24.1655 4.67701 23.8584 4.51832Z" fill="#282928"/>
<path d="M20.3044 4.6719C20.4959 4.67906 20.2158 4.82445 20.3044 4.6719Z" fill="#282928"/>
<path d="M21.9865 4.7794C22.0762 4.78042 22.0377 4.90533 21.971 4.91557C21.8813 4.91506 21.9204 4.78913 21.9865 4.7794Z" fill="#282928"/>
<path d="M23.1194 4.75892L23.1764 4.75841C23.181 4.9468 23.1804 5.13519 23.1758 5.32358H23.12C23.1154 5.1357 23.1154 4.94731 23.1194 4.75892Z" fill="#282928"/>
<path d="M20.3746 4.82599C20.4039 4.85209 20.4039 4.85209 20.3746 4.82599Z" fill="#282928"/>
<path d="M20.4223 4.90227C20.5787 5.00926 20.7202 5.13161 20.8847 5.22939C20.6615 5.22427 20.5298 5.05329 20.4223 4.90227Z" fill="#282928"/>
<path d="M21.4356 5.22222C21.5776 5.13263 21.7329 5.05943 21.8588 4.9509C21.7973 5.11676 21.6219 5.20328 21.4356 5.22222Z" fill="#282928"/>
<path d="M22.8486 5.04049C22.9314 5.05021 22.9308 5.2386 22.8486 5.24936C22.8014 5.19048 22.8014 5.09833 22.8486 5.04049Z" fill="#282928"/>
<path d="M24.1551 5.05584C24.3236 5.18536 24.2598 5.40345 24.2725 5.57699L24.2184 5.57546C24.2155 5.40089 24.185 5.22785 24.1551 5.05584Z" fill="#282928"/>
<path d="M21.0181 5.23911C21.1227 5.19662 21.2625 5.19663 21.3677 5.23963C21.3073 5.3072 21.0779 5.3072 21.0181 5.23911Z" fill="#282928"/>
<path d="M24.1068 5.2857C24.1977 5.2857 24.1603 5.41112 24.0884 5.41471C23.9976 5.4142 24.0361 5.28928 24.1068 5.2857Z" fill="#282928"/>
<path d="M22.8796 5.32051C22.9946 5.48689 23.1706 5.59747 23.3621 5.68603C23.1309 5.68655 22.9032 5.53092 22.8796 5.32051Z" fill="#282928"/>
<path d="M15.9522 5.4188C16.1799 5.5043 16.165 5.75361 16.2512 5.9292C16.1788 6.02544 16.0315 5.94661 15.9263 5.95173C15.8814 5.88108 15.8389 5.80941 15.7992 5.73723C15.8481 5.63023 15.8993 5.52375 15.9522 5.4188Z" fill="#282928"/>
<path d="M23.6818 5.68706C23.7848 5.5944 23.909 5.52477 24.0436 5.47409C23.9648 5.59235 23.8302 5.65992 23.6818 5.68706Z" fill="#282928"/>
<path d="M23.0711 5.68603L23.1119 5.68552C23.0935 5.83449 23.2592 6.11657 23.005 6.15189C23.032 5.99678 23.0579 5.84217 23.0711 5.68603Z" fill="#282928"/>
<path d="M23.4357 5.69422C23.4742 5.64866 23.6174 5.64815 23.6077 5.72187C23.5691 5.76692 23.4259 5.76743 23.4357 5.69422Z" fill="#282928"/>
<path d="M3.5678 3.93829C3.66154 3.95621 3.75586 3.97464 3.85017 3.99307C3.90595 4.31047 3.98531 4.6422 4.21707 4.89868C4.43215 5.12854 4.71739 5.34406 5.06359 5.37734C5.42417 5.38553 5.78417 5.28058 6.08954 5.11318C6.40353 4.94731 6.50417 4.60586 6.56168 4.30689C6.90615 4.37549 7.26098 4.38419 7.60775 4.44357C7.83893 4.49835 8.07932 4.51012 8.31798 4.51115C9.30136 4.67804 10.2997 4.76712 11.29 4.89817C12.2653 5.0282 13.247 5.12137 14.2183 5.27239C14.1947 5.52989 14.2005 5.78893 14.2097 6.04695C14.4547 5.97067 14.687 5.86777 14.9291 5.78535C15.0924 6.42219 15.748 6.95767 16.4985 6.9546C16.9701 6.89726 17.4232 6.70017 17.7562 6.39557C17.9954 6.51127 18.1662 6.73447 18.4469 6.77901C19.0766 6.90699 19.6942 7.07542 20.3234 7.20699C20.7305 7.29094 21.1285 7.42404 21.5489 7.44811C21.5489 7.46398 21.5477 7.4952 21.5477 7.51107C20.6569 7.41688 19.7563 7.41329 18.865 7.32217C18.6102 7.30476 18.3549 7.38821 18.1024 7.32422C17.8603 7.26637 17.6067 7.32575 17.3657 7.26893C17.0017 7.17473 16.6141 7.23719 16.2506 7.13736C16.0833 7.08259 15.9355 7.20135 15.7705 7.19624C15.633 7.19368 15.4956 7.20135 15.3616 7.22746C15.3288 7.4993 15.7797 7.47319 15.8791 7.68769C15.9188 7.83666 15.7313 7.90577 15.6077 7.95082C15.2546 8.05423 14.8774 7.97284 14.5254 7.90475C14.0084 7.79776 13.5041 7.64418 13.017 7.4563C12.8467 7.3749 12.6667 7.49316 12.4925 7.46756C12.3079 7.4005 12.1308 7.31091 11.9789 7.19624C11.9347 7.08873 11.9847 6.96996 11.9916 6.85887C11.3182 6.72884 10.631 6.66024 9.95293 6.54608C9.67114 6.4739 9.37268 6.59779 9.10009 6.48772C8.69293 6.34796 8.25702 6.29165 7.82571 6.24967C7.17069 6.21435 6.43171 6.36332 5.8572 6.00343C5.6749 5.90258 5.45235 5.90617 5.24589 5.8862C5.31088 5.97016 5.37184 6.05616 5.43222 6.14268C5.25164 6.3152 4.97503 6.38482 4.71739 6.39864C4.23892 6.38841 3.77713 6.24967 3.3372 6.092C3.13017 6.02084 2.96454 5.88108 2.76212 5.80275C2.4924 5.82682 2.24799 5.97067 1.97483 5.96708C1.70339 5.80429 1.51706 5.55907 1.27783 5.36556C1.06793 5.20687 0.787286 5.25448 0.536551 5.25755C0.31687 5.15823 0.155847 4.98213 0 4.81626C0.235783 4.7108 0.49687 4.66882 0.748756 4.60637C1.12428 4.51371 1.50039 4.42412 1.87477 4.33095C2.1117 4.27668 2.34403 4.19273 2.59189 4.1917C2.59247 4.38624 2.57579 4.57975 2.54703 4.77275C2.89611 4.74459 3.22621 4.63555 3.55573 4.53726C3.5701 4.33811 3.57471 4.13795 3.5678 3.93829Z" fill="black" fill-opacity="0.25"/>
</svg>
