<svg width="538" height="403" viewBox="0 0 538 403" fill="none" xmlns="http://www.w3.org/2000/svg">
<path d="M390.891 2.05604C398.623 1.68671 406.344 0.989734 414.094 0.882507C411.568 60.1609 407.976 119.427 406.04 178.73C408.983 186.003 398.105 180.838 397.432 184.341C399.928 187.361 409.948 182.578 408.709 189.738C408.637 191.424 408.703 192.937 409.9 190.846C408.965 204.208 408.524 217.599 407.797 230.973C407.428 229.555 406.356 225.463 406.915 232.009C404.747 253.193 403.52 274.668 403.758 295.964C403.973 309.058 402.055 322.121 402.203 335.233C401.369 334.053 399.91 330.163 400.839 336.204C400.875 346.825 399.124 357.441 400.238 368.026C398.355 371.803 390.134 367.663 385.786 367.526C385.488 364.774 385.452 362.045 385.393 359.311C385.905 354.438 386.167 349.542 386.125 344.651C387.001 341.506 388.687 338.622 392.601 340.1C393.953 335.936 390.766 328.382 394.948 324.927C399.541 323.664 395.728 321.073 393.083 320.346C391.886 314.627 392.452 308.724 392.273 302.91C390.915 295.785 402.746 295.315 399.594 287.672C398.105 283.395 395.752 287.928 394.566 289.983C392.213 291.782 390.891 288.077 389.074 287.136C389.056 283.645 389.217 280.154 389.021 276.687C384.922 276.556 381.908 280.619 377.946 280.768C376.785 278.665 373.491 277.122 373.663 274.489C379.334 270.355 385.303 266.072 389.902 260.835C388.085 253.973 394.161 245.216 389.235 239.533C388.437 230.431 391.403 221.263 390.081 212.232C390.998 207.335 394.418 202.778 393.214 197.47C387.436 197.673 386.352 207.812 379.549 207.049C380.18 193.831 380.103 180.505 381.61 167.37C383.26 163.39 376.975 165.934 374.777 165.32C374.479 165.326 373.878 165.332 373.58 165.338C373.139 165.338 372.263 165.338 371.823 165.338C371.03 165.13 370.25 164.909 369.475 164.689C370.238 161.794 367.659 156.867 371.65 156.147C372.424 156.016 373.205 155.89 373.991 155.783C374.11 156.587 374.575 156.992 375.373 156.998C377.065 156.301 381.336 158.422 381.711 155.521C382.557 131.24 383.594 106.953 384.451 82.6904C387.752 80.7484 392.857 81.2369 394.995 77.6806C393.25 74.1361 385.577 75.7684 381.652 76.787C382.009 79.7536 377.249 79.5213 379.751 76.8585C376.386 73.594 371.221 66.7256 375.331 61.5549C375.337 64.0092 373.068 69.1739 378.244 67.0115C381.449 62.4544 377.053 56.7595 379.066 51.8866C379.358 54.0252 377.821 58.0283 381.241 57.5279C382.486 56.0148 382.754 44.7382 384.261 51.1718C384.029 49.8434 383.725 48.5387 383.343 47.2639C384.231 47.3116 385.125 47.3474 386.024 47.3176C386.197 39.2458 386.584 31.174 386.822 23.1201C391.445 19.1289 398.742 21.333 403.413 17.0201C404.973 15.6202 410.692 13.017 407.922 10.515C400.059 11.1524 391.493 13.285 384.023 12.4987C381.008 15.7572 376.969 13.6603 373.27 13.6067C373.068 15.1853 375.558 15.7989 374.801 17.6575C368.254 16.4304 361.618 15.4772 355.155 13.8986C355.691 11.766 353.451 7.16122 356.841 6.70848C367.861 3.92059 382.664 6.22597 390.891 2.05604ZM394.018 83.167C390.289 87.1165 396.532 87.1582 399.201 86.7352C398.814 89.8269 390.301 85.5915 393.244 92.043C396.092 90.9528 401.054 92.9782 402.43 89.2968C404.836 83.715 398.313 81.3799 394.018 83.167ZM393.87 93.2582C392.219 95.7601 392.047 100.228 395.627 100.979C398.445 100.222 400.208 93.6692 399.285 99.7692C402.638 104.16 404.139 90.3988 398.224 93.3773C396.145 93.6156 397.134 96.9277 395.085 96.8622C395.496 95.3074 396.103 93.3952 393.87 93.2582ZM390.26 100.377C387.621 105.619 395.859 101.145 392.66 106.936C393.22 114.888 396.735 103.933 401.572 107.472C404.491 99.3522 390.355 108.621 393.107 100.395L390.26 100.377ZM399.999 109.539C397.777 110.218 395.603 111.046 393.464 111.951C388.985 116.461 396.866 118.022 400.25 118.963C398.707 121.906 388.705 118.23 392.595 124.235C398.748 125.772 389.378 126.004 392.094 129.977C394.829 130.567 397.563 131.288 400.375 131.377C403.854 127.815 394.358 128.041 398.981 126.921C402.269 126.016 399.326 123.544 397.301 123.198C402.466 123.83 402.93 113.917 397.509 114.519C398.087 113.429 404.765 111.493 399.999 109.539ZM395.234 132.128C389.068 132.92 390.736 143.839 397.206 141.933C402.466 140.319 401.089 131.044 395.234 132.128ZM391.421 142.201C388.633 146.907 400.267 149.451 390.843 148.748C389.247 154.133 397.468 152.608 399.749 151.446C403.699 146.365 391.826 150.053 396.878 147.515C399.433 146.806 400.809 145.084 399.898 142.189C397.116 144.101 394.185 144.167 391.421 142.201ZM390.432 180.279C390.283 183.644 387.364 194.123 393.22 190.93C393.607 186.343 399.928 177.765 390.432 180.279Z" fill="#3A4140"/>
<path d="M414.094 0.882507C416.286 4.23036 424.721 4.0159 424.703 10.4257C424.256 10.938 423.798 11.4562 423.44 12.04C421.314 56.9739 418.466 102.301 416.78 147.235C415.321 151.333 415.625 158.565 415.928 164.117C416.351 168.46 412.038 177.854 418.847 178.253C421.028 178.17 421.48 175.31 423.619 176.954C425.055 176.561 426.472 176.079 427.866 175.549C428.784 175.304 429.63 174.733 429.653 173.684C433.085 119.314 435.348 64.7776 439.137 10.4495C442.765 7.34588 440.311 15.2509 442.646 16.3529C443.492 14.0535 442.813 11.5456 443.164 9.16278C444.087 9.19256 445.934 9.25214 446.857 9.28193C444.308 63.4909 440.072 117.658 437.922 171.879C442.527 170.384 447.703 169.598 450.974 165.767C457.258 166.023 469.023 162.997 465.223 173.791C468.344 167.316 459.981 165.964 460.302 172.058C460.654 166.875 452.385 171.266 454.262 175.096C454.173 174.143 454 172.248 453.91 171.301C449.103 175.155 437.862 173.184 437.076 180.392C437.094 175.054 428.117 179.736 430.493 184.037C432.429 177.985 425.65 180.558 423.822 182.757C420.152 184.079 409.28 184.025 409.9 190.846C408.703 192.937 408.637 191.424 408.709 189.738C409.948 182.578 399.928 187.361 397.432 184.341C398.105 180.838 408.983 186.003 406.04 178.73C407.976 119.427 411.568 60.1609 414.094 0.882507Z" fill="#565E5E"/>
<path d="M424.703 10.4257C430.827 9.74061 437.004 9.35936 443.164 9.16278C442.813 11.5456 443.492 14.0535 442.646 16.3529C440.311 15.2509 442.765 7.34588 439.137 10.4495C435.348 64.7776 433.085 119.314 429.653 173.684C429.63 174.733 428.784 175.304 427.866 175.549C430.684 138.704 430.91 100.657 433.561 63.4194C434.103 47.5261 436.415 31.7042 435.456 15.7811C431.715 15.376 429.213 19.8735 429.111 23.132C426.836 41.4618 429.427 60.1192 426.02 78.3656C425.138 96.2069 424.536 114.108 422.928 131.907C421.945 137.841 419.58 144.572 423.458 149.951C425.376 158.786 421.707 168.186 423.619 176.954C421.48 175.31 421.028 178.17 418.847 178.253C412.038 177.854 416.351 168.46 415.928 164.117C415.625 158.565 415.321 151.333 416.78 147.235C418.466 102.301 421.314 56.9739 423.44 12.04C423.798 11.4562 424.256 10.938 424.703 10.4257Z" fill="#353A39"/>
<path d="M384.023 12.4987C391.493 13.285 400.059 11.1524 407.922 10.515C410.692 13.017 404.973 15.6202 403.413 17.0201C398.742 21.333 391.445 19.1289 386.822 23.1201C386.584 31.174 386.197 39.2458 386.024 47.3176C385.125 47.3474 384.231 47.3116 383.343 47.2639C384.052 37.9174 380.812 26.8552 387.186 18.8132C385.542 18.146 385.691 16.752 385.994 15.1734C383.034 12.9634 377.893 19.4863 383.117 18.974C378.095 25.6101 380.442 33.8547 379.34 41.4261C379.126 40.2883 378.608 39.3351 377.291 39.5734C376.576 46.8946 376.761 54.323 375.331 61.5549C371.221 66.7256 376.386 73.594 379.751 76.8585C377.249 79.5213 382.009 79.7536 381.652 76.787C385.577 75.7684 393.25 74.1361 394.995 77.6806C392.857 81.2369 387.752 80.7484 384.451 82.6904C383.594 106.953 382.557 131.24 381.711 155.521C381.336 158.422 377.065 156.301 375.373 156.998C376.04 130.263 377.5 103.534 378.328 76.7989C373.562 78.2107 374.73 74.8569 373.794 72.1941C371.149 86.3301 371.084 100.83 375.576 114.566C375.385 128.274 375.01 142.082 373.991 155.783C373.205 155.89 372.424 156.016 371.65 156.147C371.971 140.563 375.063 124.485 372.043 109.092C364.734 90.649 374.188 71.8605 374.551 53.0423C376.791 40.9912 371.858 29.6669 374.801 17.6575C375.558 15.7989 373.068 15.1853 373.27 13.6067C376.969 13.6603 381.008 15.7572 384.023 12.4987Z" fill="#212321"/>
<path d="M383.117 18.974C377.893 19.4863 383.034 12.9634 385.994 15.1734C385.691 16.752 385.542 18.146 387.186 18.8132C380.812 26.8552 384.052 37.9174 383.343 47.2639C383.725 48.5387 384.029 49.8434 384.261 51.1718C382.754 44.7382 382.486 56.0148 381.241 57.5279C377.821 58.0283 379.358 54.0252 379.066 51.8866C378.923 48.3898 378.935 44.893 379.34 41.4261C380.442 33.8547 378.095 25.6101 383.117 18.974Z" fill="#5B6364"/>
<path d="M429.111 23.132C429.213 19.8735 431.715 15.376 435.456 15.7811C436.415 31.7042 434.103 47.5261 433.561 63.4194C430.91 100.657 430.684 138.704 427.866 175.549C426.472 176.079 425.055 176.561 423.619 176.954C421.707 168.186 425.376 158.786 423.458 149.951C419.58 144.572 421.945 137.841 422.928 131.907C424.536 114.108 425.138 96.2069 426.02 78.3656C429.427 60.1192 426.836 41.4618 429.111 23.132Z" fill="#232826"/>
<path d="M256.846 24.8179C266.919 26.5573 276.873 22.1372 286.899 24.4664C303.198 26.9028 320.342 28.2193 336.08 31.2693C330.594 32.2463 324.309 31.043 319.722 34.6529C311.418 33.8606 302.548 30.1375 294.226 31.734C290.724 35.4035 301.023 35.1533 292.546 36.1005C286.548 37.6076 293.928 28.1717 287.799 30.5902C284.671 29.8456 284.022 33.6641 286.679 34.7721C279.024 31.9067 285.606 43.0226 280.728 42.5996C282.568 38.668 277.582 33.813 282.33 32.2701C281.425 25.5029 274.628 35.4154 270.362 31.4123C273.758 36.1481 276.26 41.3427 277.511 47.0674C281.139 47.7405 284.802 46.9661 288.359 46.2155C289.127 49.0451 291.129 53.6678 286.691 54.0192C281.58 54.0014 278.595 55.6276 281.824 60.2622C278.327 62.6748 277.606 76.1437 285.487 72.6111C286.095 75.8696 286.899 79.146 288.317 82.1662C291.111 79.843 284.028 72.9745 289.872 74.9403C293.053 79.0626 299.177 76.2151 303.597 77.4304C305.026 84.9779 303.698 92.7459 303.877 100.377C303.442 105.071 292.135 98.8101 294.226 104.386C291.242 105.238 292.809 109.497 292.094 111.659C298.867 138.144 304.717 164.897 311.77 191.317C320.104 196.088 313.021 181.958 312.514 177.92C314.695 177.479 323.368 179.325 320.699 175.876C330.171 178.807 339.994 183.323 349.621 178.277C349.365 175.537 349.263 172.785 349.305 170.032C350.401 170.044 351.503 170.032 352.605 170.158C353.946 176.198 365.085 171.641 363.56 178.235C359.98 176.621 356.239 177.479 352.939 179.242C350.145 180.743 345.862 179.713 343.985 182.78C344.98 188.255 351.313 195.112 357.228 191.877C360.022 187.6 366.128 187.719 370.691 187.814C370.333 191.984 371.447 196.47 370.089 200.515C362.827 206.352 350.306 203.886 344.998 212.423C349.561 218.153 346.755 227.232 346.708 234.482C337.832 234.952 344.14 217.784 333.721 220.864C333.596 228.471 337.385 235.756 336.206 243.399C327.484 248.153 318.031 251.554 307.922 249.773C312.103 249.225 316.333 249.344 320.556 249.267C315.993 234.827 316.273 219.702 316.839 204.81C317.423 195.987 307.91 192.157 307.427 183.793C302.25 163.605 297.717 143.256 292.54 123.073C291.147 116.711 288.031 110.391 290.211 103.903C287.977 104.773 288.603 108.002 285.332 105.214C283.236 101.127 281.728 96.7729 280.043 92.5136C279.578 91.1315 279.036 89.7793 278.428 88.4628C276.528 84.0784 274.467 79.706 273.21 75.0893C271.542 71.944 274.032 71.9082 275.932 71.6461C278.065 62.2757 270.708 52.0236 268.969 42.4149C266.776 34.8853 259.002 29.4346 251.151 30.2805C214.682 31.9663 178.171 32.985 141.726 35.052C141.268 33.259 142.114 30.8106 144.21 30.6081C161.873 29.2082 179.708 28.9878 197.425 27.9989C197.812 22.2087 209.291 22.447 210.298 27.4092C225.768 26.2237 241.316 25.7174 256.846 24.8179ZM271.071 38.3522C271.995 40.9257 272.221 44.2557 274.169 46.2572C273.782 43.5289 273.043 40.2764 271.071 38.3522ZM274.669 47.8716C275.188 52.0653 276.957 56.0029 278.118 60.0299C279.25 58.9159 276.331 50.6654 274.669 47.8716ZM291.492 80.2064C288.913 81.5407 289.473 88.9691 286.232 85.3056C286.28 82.9645 284.332 79.3485 281.919 81.4633C283.712 87.8373 285.732 94.4496 287.31 100.99C288.948 99.5667 290.616 98.6612 292.928 99.525C293.386 103.326 300.106 99.8288 302.667 100.937C302.876 97.6366 303.901 92.8948 298.706 95.7244C296.46 94.6462 296.317 92.4957 296.865 90.1069C297.241 92.2217 297.098 96.0938 300.69 94.3126C304.651 91.906 302.107 86.4255 302.53 82.7321C301.762 79.0626 296.538 80.3731 296.639 83.9176C295.543 82.5355 294.441 81.1178 294.048 79.3604C296.472 77.5912 302.495 81.0701 302.626 78.4192C299.272 79.0209 291.254 75.9769 291.492 80.2064ZM336.843 183.358C331.726 185.461 323.803 183.9 321.754 190.233C328.849 195.6 331.327 205.036 332.03 213.566C338.07 212.369 349.257 211.887 345.921 202.516C343.479 198.894 344.819 193.777 340.923 191.353C341.894 188.44 340.703 182.423 336.843 183.358Z" fill="#434748"/>
<path d="M270.362 31.4123C274.628 35.4154 281.425 25.5029 282.33 32.2701C277.582 33.813 282.568 38.668 280.728 42.5996C285.606 43.0226 279.024 31.9067 286.679 34.7721C284.022 33.6641 284.671 29.8456 287.799 30.5902C293.928 28.1717 286.548 37.6076 292.546 36.1005C301.023 35.1533 290.724 35.4035 294.226 31.734C302.548 30.1375 311.418 33.8606 319.722 34.6529C324.309 31.043 330.594 32.2463 336.08 31.2693C335.812 37.1906 331.672 40.461 326.4 38.0663C323.618 40.4908 328.169 43.2072 328.646 45.7985C332.601 57.2301 336.64 68.5306 342.443 79.1281C345.51 83.2027 341.215 75.5003 343.693 73.8383C345.177 75.5241 347.22 75.6552 349.311 74.845C345.195 73.2545 345.135 64.3249 349.269 63.342C350.699 66.6482 347.619 72.5277 351.479 74.3506C352.701 75.0416 354.66 75.2442 354.327 77.0849C357.931 77.9427 362.988 76.0007 365.734 79.1222C365.014 85.3056 365.329 91.5724 365.175 97.8034C361.195 101.491 354.458 96.4512 350.931 101.258C350.753 100.603 350.598 99.9539 350.455 99.3046C350.532 96.5286 353.552 87.9147 348.435 92.2634C344.17 95.5934 348.894 101.431 348.87 105.756C348.096 112.916 352.599 118.85 355.637 124.866C360.206 140.694 365.127 156.397 368.886 172.463C369.964 174.619 368.028 175.09 366.324 174.405C368.677 176.776 372.764 181.136 371.376 174.399C371.59 171.373 371.864 168.364 371.823 165.338C372.263 165.338 373.139 165.338 373.58 165.338C374.581 168.746 371.566 174.459 374.724 176.859C374.068 187.909 374.241 199.085 372.454 210.028C372.603 213.674 366.574 206.37 369.339 212.953C371.37 218.266 368.308 222.347 363.072 223.348C360.588 223.479 362.077 226.314 363.965 225.439C370.339 223.169 374.342 216.021 381.169 214.919C385.971 216.742 380.097 221.096 380.222 224.23C382.009 229.698 383.766 235.947 381.217 241.457C378.983 244.192 374.873 243.125 371.87 244.096C371.441 248.463 372.394 253.014 371.501 257.327C367.623 257.946 373.264 249.38 368.969 250.536C368.689 252.037 368.719 253.836 368.505 255.415C368.451 254.128 368.123 252.835 366.676 253.776C362.291 256.088 357.978 258.619 353.171 259.978C353.177 259.674 353.183 259.066 353.189 258.762C356.573 256.725 360.391 255.558 363.798 253.568C365.329 252.591 368.773 251.989 367.474 249.523C362.345 247.158 356.376 247.015 350.931 245.651C346.142 244.406 341.209 242.375 336.206 243.399C337.385 235.756 333.596 228.471 333.721 220.864C344.14 217.784 337.832 234.952 346.708 234.482C346.755 227.232 349.561 218.153 344.998 212.423C350.306 203.886 362.827 206.352 370.089 200.515C371.447 196.47 370.333 191.984 370.691 187.814C370.083 183.817 365.824 181.44 363.56 178.235C365.085 171.641 353.946 176.198 352.605 170.158C356.084 170.688 359.462 171.748 362.935 172.368C361.297 165.684 360.528 158.654 357.877 152.275C353.397 151.029 347.988 156.17 344.236 152.358C338.147 133.79 332.006 115.097 326.382 96.3261C324.214 89.3742 333.989 89.5053 337.772 85.9847C332.518 72.2239 328.813 57.7245 322.159 44.5595C313.581 36.6783 300.66 41.581 290.176 40.7529C285.082 39.1684 288.251 43.9936 288.359 46.2155C284.802 46.9661 281.139 47.7405 277.511 47.0674C276.26 41.3427 273.758 36.1481 270.362 31.4123ZM345.117 76.4415C346.213 80.0276 346.857 83.7746 348.018 87.331C350.252 86.1753 351.152 83.7806 350.479 81.2607C349.543 78.9613 348.846 74.9463 345.117 76.4415ZM350.479 81.2607C351.015 82.7798 350.842 84.3703 350.997 85.9847C353.141 84.1022 350.288 73.1234 350.479 81.2607ZM354.077 78.4133C353.761 79.1698 352.54 81.5705 354.237 80.4029C357.454 78.4133 361.201 78.9554 364.74 79.5213C362.542 76.376 357.27 79.2354 354.077 78.4133ZM360.611 80.1647C357.955 83.584 359.134 88.7487 360.004 92.6208C364.912 92.0311 365.758 80.1825 360.611 80.1647ZM348.685 90.8397C351.426 90.8814 351.467 88.3377 350.997 85.9847C349.335 87.1225 347.274 88.6415 348.685 90.8397ZM336.861 89.261C333.87 91.0839 327.181 91.4234 328.485 96.058C334.597 114.495 340.232 133.117 346.344 151.548C350.002 150.773 354.44 151.155 357.377 148.575C350.961 128.768 346.041 108.371 338.368 89.0108C337.993 89.0704 337.236 89.1955 336.861 89.261ZM363.042 92.7995C359.247 92.8174 357.121 96.4214 353.374 96.332C353.588 101.223 369.672 98.0596 363.042 92.7995ZM375.605 221.525C372.549 223.836 369.178 226.755 367.76 230.139C368.737 234.088 366.157 230.335 365.74 228.495C362.935 227.607 364.186 230.931 365.21 232.152C361.606 231.855 359.075 228.137 355.929 227.428C351.95 231.628 356.876 235.596 358.294 239.634C360.933 238.598 362.583 235.816 364.752 233.308C367.17 232.849 365.216 237.871 366.574 238.747C368.022 237.514 368.254 235.518 368.933 233.85C371.126 236.352 374.027 241.32 377.714 238.449C380.293 231.539 370.274 232.522 373.949 225.85C374.634 224.521 379.37 220.625 375.605 221.525Z" fill="#2C302D"/>
<path d="M251.151 30.2805C259.002 29.4346 266.776 34.8853 268.969 42.4149C270.708 52.0236 278.065 62.2757 275.932 71.6461C272.388 61.7932 270.291 51.2135 265.93 41.7954C251.8 41.8073 237.2 42.6115 222.933 43.2668C223.189 63.3122 222.307 83.3278 222.23 103.361C220.967 109.878 226.12 114.674 231.106 117.759C239.475 127.708 243.794 141.278 242.817 154.234C241.507 159.119 246.546 151.679 249.042 152.757C254.118 153.639 255.559 159.179 258.228 162.759C265.007 164.933 273.972 161.442 279.524 167.042C283.236 170.396 277.076 177.705 282.693 179.439C289.473 179.069 295.93 176.246 302.673 175.233C302.054 171.408 300.213 167.882 298.903 164.272C295.4 163.575 291.015 166.839 288.21 163.724C283.402 157.701 287.126 146.335 279.53 142.505C279.405 139.699 281.395 136.739 280.346 134.01C278.476 134.314 272.757 134.797 274.419 131.133C274.89 128.613 277.487 130.668 278.774 129.477C276.337 118.349 273.019 107.394 270.648 96.2665C270.863 91.6379 277.576 92.3646 278.428 88.4628C279.036 89.7793 279.578 91.1315 280.043 92.5136C277.844 93.282 275.587 93.985 273.621 95.2538C274.931 105.965 278.869 116.175 281.079 126.725C281.86 130.978 292.916 131.514 291.045 125.772C289.026 118.945 287.405 112.017 285.332 105.214C288.603 108.002 287.977 104.773 290.211 103.903C288.031 110.391 291.147 116.711 292.54 123.073C297.717 143.256 302.25 163.605 307.427 183.793C307.91 192.157 317.423 195.987 316.839 204.81C316.273 219.702 315.993 234.827 320.556 249.267C316.333 249.344 312.103 249.225 307.922 249.773C305.741 249.97 303.549 250.292 301.399 250.619C295.561 251.578 290.181 254.152 284.772 256.421C288.555 240.599 284.612 223.658 289.943 207.913C284.957 207.723 278.416 204.887 274.58 209.283C269.296 213.68 261.802 214.222 256.387 218.505C252.241 223.747 260.837 233.636 254.952 236.948C257.043 235.369 255.5 233.898 254.195 232.474C254.648 224.492 252.432 214.251 259.235 208.205C260.563 205.191 257.775 201.813 258.681 198.543C261.755 206.668 268.7 206.716 275.265 202.778C278.976 198.757 283.563 206.632 286.458 202.373C281.83 198.769 279.757 192.937 274.854 189.673C275.223 187.945 277.809 184.341 274.223 185.074C268.254 187.201 262.446 188.589 256.214 189.137C250.77 189.339 256.631 193.211 256.941 195.731C254.058 195.004 251.479 193.467 248.875 192.091C250.079 184.359 259.938 188.16 265.233 185.717C267.408 184.276 273.698 185.497 273.138 181.452C273.174 179.766 278.518 177.687 272.644 179.373C268.248 180.57 261.379 179.409 259.175 183.734C265.364 182.774 259.235 185.437 256.411 185.574C255.762 180.964 256.143 173.744 250.15 172.677C244.557 169.979 239.94 174.584 236.586 178.491C234.698 174.774 229.324 174.715 232.44 179.099C227.091 176.287 226.721 167.34 219.263 168.811C225.714 166.363 216.553 158.631 212.52 160.328C209.785 160.93 206.36 169.365 204.49 164.659C205.55 160.394 203.697 156.147 201.386 152.638C198.973 157.082 203.227 163.069 201.988 166.792C195.298 164.48 199.76 172.183 203.721 170.193C202.137 172.117 204.245 173.416 204.394 175.281C202.327 176.037 197.097 175.209 198.854 178.581C200.01 181.643 204.007 178.456 205.705 180.803C201.446 181.762 197.722 180.588 195.649 176.871C201.166 173.887 190.383 176.823 187.774 177.24C183.902 171.188 177.6 165.35 176.301 158.154C182.943 158.023 189.442 156.373 196.037 155.67C195.953 154.878 195.798 154.103 195.643 153.341C195.596 153.055 195.5 152.483 195.453 152.203C193.85 142.076 191.199 132.062 190.628 121.81C189.859 117.205 197.043 117.92 196.287 113.184C194.774 104.219 204.287 106.387 209.684 104.392C210.244 86.4076 210.423 68.4114 210.864 50.4391C210.363 47.0197 211.495 40.4253 205.949 41.0806C189.567 40.6278 173.257 37.5361 156.863 38.5012C156.714 39.5317 156.655 40.5682 156.601 41.6107C155.38 35.2903 145.366 35.9813 143.186 40.9257C143.162 38.8645 142.322 36.9821 141.726 35.052C178.171 32.985 214.682 31.9663 251.151 30.2805ZM205.163 110.587C204.132 115.412 195.739 117.116 199.051 122.43C204.216 132.944 210.798 143.625 210.369 155.783C207.903 159.631 212.704 159.518 212.984 157.195C213.794 146.729 216.91 135.887 214.42 125.48C211.156 120.941 211.751 111.403 205.163 110.587ZM293.374 140.515C290.771 141.742 287.965 142.541 285.464 143.958C287.108 150.047 288.138 156.355 290.318 162.294C292.88 162.306 295.489 161.943 297.902 161.037C297.026 155.837 295.525 150.767 294.512 145.609C294.494 143.887 296.121 139.878 293.374 140.515ZM246.91 155.908C244.848 158.178 241.84 160.007 240.667 162.866C245.242 161.996 249.93 161.407 254.564 162.163C253.462 158.94 250.841 155.021 246.91 155.908Z" fill="#2D2F2F"/>
<path d="M143.186 40.9257C145.366 35.9813 155.38 35.2903 156.601 41.6107C155.618 75.3394 152.747 109.015 150.936 142.713C151.424 145.18 148.464 150.422 152.705 150.291C151.246 150.231 149.739 150.35 150.156 152.215C149.852 155.599 149.613 158.994 149.59 162.407C150.03 166.768 148.047 172.016 151.353 175.614C149.042 174.756 146.891 173.666 144.735 175.614C141.768 171.855 136.133 169.365 135.591 164.2C136.049 160.99 136.615 157.797 136.484 154.544C136.651 153.18 136.913 151.834 137.032 150.464C138.825 113.941 141.023 77.4304 143.186 40.9257Z" fill="#3D4545"/>
<path d="M274.169 46.2572C273.782 43.5289 273.043 40.2764 271.071 38.3522C271.995 40.9257 272.221 44.2557 274.169 46.2572Z" fill="#BDC0C1"/>
<path d="M328.646 45.7985C328.169 43.2072 323.618 40.4908 326.4 38.0663C333.781 45.6079 334.871 57.0573 339.017 66.4337C340.501 68.8344 339.952 73.743 343.693 73.8383C341.215 75.5003 345.51 83.2027 342.443 79.1281C336.64 68.5306 332.601 57.2301 328.646 45.7985Z" fill="#5A6266"/>
<path d="M377.291 39.5734C378.608 39.3351 379.126 40.2883 379.34 41.4261C378.935 44.893 378.923 48.3898 379.066 51.8866C377.053 56.7595 381.449 62.4544 378.244 67.0115C373.068 69.1739 375.337 64.0092 375.331 61.5549C376.761 54.323 376.576 46.8946 377.291 39.5734Z" fill="#040404"/>
<path d="M278.118 60.0299C279.25 58.9159 276.331 50.6654 274.669 47.8716C275.188 52.0653 276.957 56.0029 278.118 60.0299Z" fill="#BBBEBF"/>
<path d="M281.824 60.2622C278.327 62.6748 277.606 76.1437 285.487 72.6111C285.767 68.3757 288.645 60.0001 281.824 60.2622Z" fill="#965A1E"/>
<path d="M349.269 63.342C356.025 60.8996 355.81 72.6469 351.479 74.3506C347.619 72.5277 350.699 66.6482 349.269 63.342Z" fill="#895523"/>
<path d="M373.794 72.1941C374.73 74.8569 373.562 78.2107 378.328 76.7989C377.5 103.534 376.04 130.263 375.373 156.998C374.575 156.992 374.11 156.587 373.991 155.783C375.01 142.082 375.385 128.274 375.576 114.566C371.084 100.83 371.149 86.3301 373.794 72.1941Z" fill="#060504"/>
<path d="M345.117 76.4415C348.846 74.9463 349.543 78.9613 350.479 81.2607C351.152 83.7806 350.252 86.1753 348.018 87.331C346.857 83.7746 346.213 80.0276 345.117 76.4415Z" fill="#020202"/>
<path d="M350.997 85.9847C353.141 84.1022 350.288 73.1234 350.479 81.2607C351.015 82.7798 350.842 84.3703 350.997 85.9847Z" fill="#090909"/>
<path d="M291.492 80.2064C291.254 75.9769 299.272 79.0209 302.626 78.4192C302.495 81.0701 296.472 77.5912 294.048 79.3604C293.184 79.6106 292.332 79.9025 291.492 80.2064Z" fill="#0D0C0C"/>
<path d="M354.077 78.4133C357.27 79.2354 362.542 76.376 364.74 79.5213C361.201 78.9554 357.454 78.4133 354.237 80.4029C352.54 81.5705 353.761 79.1698 354.077 78.4133Z" fill="#10100D"/>
<path d="M291.492 80.2064C292.332 79.9025 293.184 79.6106 294.048 79.3604C294.441 81.1178 295.543 82.5355 296.639 83.9176C296.675 85.9608 296.746 88.0518 296.865 90.1069C296.317 92.4957 296.46 94.6462 298.706 95.7244C296.859 97.1064 294.84 98.2323 292.928 99.525C290.616 98.6612 288.948 99.5667 287.31 100.99C285.732 94.4496 283.712 87.8373 281.919 81.4633C284.332 79.3485 286.28 82.9645 286.232 85.3056C289.473 88.9691 288.913 81.5407 291.492 80.2064Z" fill="#242626"/>
<path d="M360.004 92.6208C364.912 92.0311 365.758 80.1825 360.611 80.1647C357.955 83.584 359.134 88.7487 360.004 92.6208Z" fill="#6F7160"/>
<path d="M296.639 83.9176C296.538 80.3731 301.762 79.0626 302.53 82.7321C302.107 86.4255 304.651 91.906 300.69 94.3126C297.098 96.0938 297.241 92.2217 296.865 90.1069C296.746 88.0518 296.675 85.9608 296.639 83.9176Z" fill="#767867"/>
<path d="M394.018 83.167C398.313 81.3799 404.836 83.715 402.43 89.2968C401.054 92.9782 396.092 90.9528 393.244 92.043C390.301 85.5915 398.814 89.8269 399.201 86.7352C396.532 87.1582 390.289 87.1165 394.018 83.167Z" fill="#B0B2B0"/>
<path d="M350.455 99.3046C350.532 96.5286 353.552 87.9147 348.435 92.2634C349.15 94.5866 349.847 96.9397 350.455 99.3046Z" fill="#090A0A"/>
<path d="M348.87 105.756C348.894 101.431 344.17 95.5934 348.435 92.2634C349.15 94.5866 349.847 96.9397 350.455 99.3046C350.598 99.9539 350.753 100.603 350.931 101.258C357.424 122.203 364.09 143.16 368.975 164.558C369.571 167.882 370.357 171.176 371.376 174.399C372.764 181.136 368.677 176.776 366.324 174.405C368.028 175.09 369.964 174.619 368.886 172.463C365.127 156.397 360.206 140.694 355.637 124.866C352.599 118.85 348.096 112.916 348.87 105.756Z" fill="#3F4649"/>
<path d="M353.374 96.332C353.588 101.223 369.672 98.0596 363.042 92.7995C359.247 92.8174 357.121 96.4214 353.374 96.332Z" fill="#040505"/>
<path d="M393.87 93.2582C396.103 93.3952 395.496 95.3074 395.085 96.8622C397.134 96.9277 396.145 93.6156 398.224 93.3773C404.139 90.3988 402.638 104.16 399.285 99.7692C400.208 93.6692 398.445 100.222 395.627 100.979C392.047 100.228 392.219 95.7601 393.87 93.2582Z" fill="#B6B8B6"/>
<path d="M390.26 100.377L393.107 100.395C390.355 108.621 404.491 99.3522 401.572 107.472C396.735 103.933 393.22 114.888 392.66 106.936C395.859 101.145 387.621 105.619 390.26 100.377Z" fill="#B7BAB7"/>
<path d="M292.094 111.659C292.809 109.497 291.242 105.238 294.226 104.386C296.281 110.307 297.461 116.479 299.236 122.483C304.127 141.04 307.743 159.322 312.514 177.92C313.021 181.958 320.104 196.088 311.77 191.317C304.717 164.897 298.867 138.144 292.094 111.659Z" fill="#555E61"/>
<path d="M399.999 109.539C404.765 111.493 398.087 113.429 397.509 114.519C402.93 113.917 402.466 123.83 397.301 123.198C399.326 123.544 402.269 126.016 398.981 126.921C394.358 128.041 403.854 127.815 400.375 131.377C397.563 131.288 394.829 130.567 392.094 129.977C389.378 126.004 398.748 125.772 392.595 124.235C388.705 118.23 398.707 121.906 400.25 118.963C396.866 118.022 388.985 116.461 393.464 111.951C395.603 111.046 397.777 110.218 399.999 109.539Z" fill="#B7B9B7"/>
<path d="M205.163 110.587C211.751 111.403 211.156 120.941 214.42 125.48C216.91 135.887 213.794 146.729 212.984 157.195C212.704 159.518 207.903 159.631 210.369 155.783C210.798 143.625 204.216 132.944 199.051 122.43C195.739 117.116 204.132 115.412 205.163 110.587Z" fill="#3D3D3F"/>
<path d="M299.236 122.483C304.788 120.708 310.584 114.96 316.601 118.087C318.305 124.145 311.073 127.612 307.54 131.431C308.672 134.785 313.116 133.915 315.171 136.56C318.585 134.308 320.318 137.173 318.37 140.396C320.419 145.603 325.947 138.913 329.623 141.308C333.936 142.13 334.317 147.717 337.778 149.892C344.772 154.872 341.436 165.868 349.305 170.032C349.263 172.785 349.365 175.537 349.621 178.277C339.994 183.323 330.171 178.807 320.699 175.876C323.368 179.325 314.695 177.479 312.514 177.92C307.743 159.322 304.127 141.04 299.236 122.483ZM311.841 120.869C308.505 122.066 305.08 123.288 302.244 125.48C303.847 126.761 301.667 130.549 304.264 129.364C307.826 127.023 311.013 124.062 313.473 120.565C313.062 120.643 312.246 120.798 311.841 120.869Z" fill="#2B2D2E"/>
<path d="M311.841 120.869C312.246 120.798 313.062 120.643 313.473 120.565C311.013 124.062 307.826 127.023 304.264 129.364C301.667 130.549 303.847 126.761 302.244 125.48C305.08 123.288 308.505 122.066 311.841 120.869Z" fill="#020202"/>
<path d="M397.206 141.933C402.466 140.319 401.089 131.044 395.234 132.128C389.068 132.92 390.736 143.839 397.206 141.933Z" fill="#A6A8A6"/>
<path d="M391.421 142.201C394.185 144.167 397.116 144.101 399.898 142.189C400.809 145.084 399.433 146.806 396.878 147.515C391.826 150.053 403.699 146.365 399.749 151.446C397.468 152.608 389.247 154.133 390.843 148.748C400.267 149.451 388.633 146.907 391.421 142.201Z" fill="#B2B5B2"/>
<path d="M62.8612 158.976C87.3565 154.353 112.257 152.811 137.032 150.464C136.913 151.834 136.651 153.18 136.484 154.544C120.668 156.236 104.787 157.916 89.1853 160.924C103.828 162.193 118.47 163.247 133.101 164.093C132.213 164.915 131.462 166.667 130.003 165.97C121.121 164.754 111.959 164.159 103.077 164.516L102.702 164.594C86.7965 164.284 70.5755 161.174 54.7596 162.711C54.4439 162.717 53.8065 162.735 53.4908 162.747C55.7604 159.911 59.6027 159.739 62.8612 158.976Z" fill="#F3D74D"/>
<path d="M150.156 152.215C149.739 150.35 151.246 150.231 152.705 150.291C166.966 150.452 181.215 151.315 195.453 152.203C195.5 152.483 195.596 153.055 195.643 153.341C180.483 152.84 165.334 152.006 150.156 152.215Z" fill="#CEB34C"/>
<path d="M150.156 152.215C165.334 152.006 180.483 152.84 195.643 153.341C195.798 154.103 195.953 154.878 196.037 155.67C189.442 156.373 182.943 158.023 176.301 158.154C167.419 159.62 158.549 161.389 149.59 162.407C149.613 158.994 149.852 155.599 150.156 152.215Z" fill="#696F6D"/>
<path d="M201.386 152.638C203.697 156.147 205.55 160.394 204.49 164.659C206.36 169.365 209.785 160.93 212.52 160.328C216.553 158.631 225.714 166.363 219.263 168.811C226.721 167.34 227.091 176.287 232.44 179.099C229.324 174.715 234.698 174.774 236.586 178.491C239.94 174.584 244.557 169.979 250.15 172.677C256.143 173.744 255.762 180.964 256.411 185.574C259.235 185.437 265.364 182.774 259.175 183.734C261.379 179.409 268.248 180.57 272.644 179.373C278.518 177.687 273.174 179.766 273.138 181.452C273.698 185.497 267.408 184.276 265.233 185.717C259.938 188.16 250.079 184.359 248.875 192.091C248.476 192.103 247.678 192.127 247.279 192.139C239.064 185.896 229.056 182.173 218.709 181.976C220.973 180.999 220.997 178.188 221.104 176.055C215.683 173.815 219.662 181.208 216.136 181.798C212.657 181.809 209.047 181.869 205.705 180.803C204.007 178.456 200.01 181.643 198.854 178.581C197.097 175.209 202.327 176.037 204.394 175.281C204.245 173.416 202.137 172.117 203.721 170.193C199.76 172.183 195.298 164.48 201.988 166.792C203.227 163.069 198.973 157.082 201.386 152.638Z" fill="#1D1E1E"/>
<path d="M89.1853 160.924C104.787 157.916 120.668 156.236 136.484 154.544C136.615 157.797 136.049 160.99 135.591 164.2C134.757 164.159 133.929 164.129 133.101 164.093C118.47 163.247 103.828 162.193 89.1853 160.924Z" fill="#6D7472"/>
<path d="M246.91 155.908C250.841 155.021 253.462 158.94 254.564 162.163C249.93 161.407 245.242 161.996 240.667 162.866C241.84 160.007 244.848 158.178 246.91 155.908Z" fill="#020202"/>
<path d="M149.59 162.407C158.549 161.389 167.419 159.62 176.301 158.154C177.6 165.35 183.902 171.188 187.774 177.24C190.383 176.823 201.166 173.887 195.649 176.871C197.722 180.588 201.446 181.762 205.705 180.803C209.047 181.869 212.657 181.809 216.136 181.798C219.662 181.208 215.683 173.815 221.104 176.055C220.997 178.188 220.973 180.999 218.709 181.976C229.056 182.173 239.064 185.896 247.279 192.139C252.73 195.165 255.142 201.265 258.019 206.376C252.217 208.711 255.625 216.366 250.24 218.886C244.348 220.256 237.843 222.287 232.214 219.083C226.763 216.795 225.351 210.665 221.128 207.026C221.008 200.455 212.937 197.381 212.603 190.971C209.214 192.413 202.345 192.318 202.619 187.475C205.038 186.11 207.963 186.128 210.542 185.193C196.388 182.304 181.865 183.603 167.574 181.976C162.802 183.519 164.5 188.672 164.006 192.419C157.268 187.332 153.45 177.342 144.735 175.614C146.891 173.666 149.042 174.756 151.353 175.614C148.047 172.016 150.03 166.768 149.59 162.407ZM228.222 204.607C227.752 206.906 230.444 208.324 232.416 208.229C232.887 205.924 230.194 204.506 228.222 204.607Z" fill="#4E575C"/>
<path d="M54.7596 162.711C70.5755 161.174 86.7965 164.284 102.702 164.594C94.9517 168.174 97.1737 178.331 92.2353 183.668C77.7299 177.622 61.9974 176.323 46.6997 174.059C45.9372 170.062 54.9205 167.715 54.7596 162.711Z" fill="#E7BF21"/>
<path d="M39.2177 173.505C43.8285 169.723 48.6596 166.232 53.4908 162.747C53.8065 162.735 54.4439 162.717 54.7596 162.711C54.9205 167.715 45.9372 170.062 46.6997 174.059C61.9974 176.323 77.7299 177.622 92.2353 183.668C97.1737 178.331 94.9517 168.174 102.702 164.594L103.077 164.516C108.986 170.837 118.393 165.672 125.636 168.472C147.862 188.91 167.252 212.881 190.211 232.587C172.745 226.517 157.012 216.045 139.582 209.819C139.01 204.863 133.881 205.685 130.056 205.161C127.096 204.643 124.344 202.939 122.58 200.515C127.227 200.628 131.867 200.711 136.502 201.075C135.46 197.554 134.596 193.962 133.279 190.537C120.805 188.958 108.075 189.321 95.5415 187.987C94.3977 191.442 94.9219 195.135 95.4104 198.674C95.4223 199.841 95.4223 201.015 95.4283 202.194C95.047 210.099 94.6241 217.998 94.6539 225.927C93.9867 231.473 93.939 237.091 94.6896 242.637C94.1237 242.494 93.5578 242.339 92.9978 242.19C90.6746 237.931 95.0291 233.064 93.5637 228.477C92.2651 214.621 95.0172 200.634 92.8251 186.998C80.5 180.344 65.9291 178.468 52.0373 177.675C47.4801 177.377 42.8932 176.377 39.2177 173.505ZM100.39 170.181C99.7888 171.849 99.1514 173.541 98.937 175.322C109.004 176.597 119.131 176.15 129.24 176.722C128.877 175.132 128.484 173.547 127.977 172.004C118.863 170.545 109.6 170.068 100.39 170.181ZM98.0017 177.931C97.6502 180.547 95.8036 182.798 95.9823 185.491C108.039 186.456 120.144 186.313 132.225 186.819C131.498 184.442 131.212 181.792 129.788 179.719C119.227 178.36 108.605 178.521 98.0017 177.931Z" fill="#D5B023"/>
<path d="M103.077 164.516C111.959 164.159 121.121 164.754 130.003 165.97C131.462 166.667 132.213 164.915 133.101 164.093C133.929 164.129 134.757 164.159 135.591 164.2C136.133 169.365 141.768 171.855 144.735 175.614C153.45 177.342 157.268 187.332 164.006 192.419C175.658 205.054 187.679 217.391 199.301 230.038C203.274 233.499 196.739 232.784 194.75 234.303C194.428 234.47 193.791 234.809 193.469 234.976C192.385 234.172 191.295 233.379 190.211 232.587C167.252 212.881 147.862 188.91 125.636 168.472C118.393 165.672 108.986 170.837 103.077 164.516Z" fill="#EFC626"/>
<path d="M368.975 164.558L369.475 164.689C370.25 164.909 371.03 165.13 371.823 165.338C371.864 168.364 371.59 171.373 371.376 174.399C370.357 171.176 369.571 167.882 368.975 164.558Z" fill="#0C0C0B"/>
<path d="M373.58 165.338C373.878 165.332 374.479 165.326 374.777 165.32C374.753 169.157 374.849 173.011 374.724 176.859C371.566 174.459 374.581 168.746 373.58 165.338Z" fill="#100F0B"/>
<path d="M374.777 165.32C376.975 165.934 383.26 163.39 381.61 167.37C380.103 180.505 380.18 193.831 379.549 207.049C386.352 207.812 387.436 197.673 393.214 197.47C394.418 202.778 390.998 207.335 390.081 212.232C391.403 221.263 388.437 230.431 389.235 239.533C394.161 245.216 388.085 253.973 389.902 260.835C385.303 266.072 379.334 270.355 373.663 274.489C373.491 277.122 376.785 278.665 377.946 280.768C381.908 280.619 384.922 276.556 389.021 276.687C389.217 280.154 389.056 283.645 389.074 287.136C388.02 290.37 389.938 295.482 386.644 297.62C382.682 295.202 383.224 285.176 376.743 287.225C369.791 284.961 370.006 276.014 364.609 271.981C362.631 270.444 361.154 268.359 360.433 265.964C363.173 268.341 363.787 265.684 363.715 262.7C366.795 261.306 369.219 259.227 368.505 255.415C368.719 253.836 368.689 252.037 368.969 250.536C373.264 249.38 367.623 257.946 371.501 257.327C372.394 253.014 371.441 248.463 371.87 244.096C374.873 243.125 378.983 244.192 381.217 241.457C383.766 235.947 382.009 229.698 380.222 224.23C380.097 221.096 385.971 216.742 381.169 214.919C374.342 216.021 370.339 223.169 363.965 225.439C362.077 226.314 360.588 223.479 363.072 223.348C368.308 222.347 371.37 218.266 369.339 212.953C366.574 206.37 372.603 213.674 372.454 210.028C374.241 199.085 374.068 187.909 374.724 176.859C374.849 173.011 374.753 169.157 374.777 165.32Z" fill="#1A1D1B"/>
<path d="M460.302 172.058C459.981 165.964 468.344 167.316 465.223 173.791C464.502 187.087 463.507 200.372 462.59 213.656C462.763 211.708 461.762 211.434 461.53 213.435C459.165 211.464 455.519 210.898 456.812 215.997C452.725 215.05 452.123 211.541 451.831 207.937C451.474 211.565 451.665 215.27 451.015 218.88C448.484 217.701 446.244 215.842 446.428 212.709C446.232 215.508 446.464 218.368 446.16 221.18C443.813 223.312 440.96 218.636 440.352 216.319C439.53 219.017 442.485 229.025 437.398 223.586C432.09 217.742 436.159 233.213 430.666 226.809C426.764 222.776 427.932 229.001 427.104 231.384C424.536 230.52 419.473 225.26 420.343 231.706C421.492 237.686 417.602 233.439 415.476 232.444C412.062 230.592 414.237 237.77 413.391 239.265C409.852 237.746 406.183 235.298 407.797 230.973C408.524 217.599 408.965 204.208 409.9 190.846C409.28 184.025 420.152 184.079 423.822 182.757C425.65 180.558 432.429 177.985 430.493 184.037C428.117 179.736 437.094 175.054 437.076 180.392C437.862 173.184 449.103 175.155 453.91 171.301C454 172.248 454.173 174.143 454.262 175.096C452.385 171.266 460.654 166.875 460.302 172.058Z" fill="#323838"/>
<path d="M100.39 170.181C109.6 170.068 118.863 170.545 127.977 172.004C128.484 173.547 128.877 175.132 129.24 176.722C119.131 176.15 109.004 176.597 98.937 175.322C99.1514 173.541 99.7888 171.849 100.39 170.181Z" fill="#171C4F"/>
<path d="M38.4076 174.238C38.6101 174.059 39.0152 173.69 39.2177 173.505C42.8932 176.377 47.4801 177.377 52.0373 177.675C65.9291 178.468 80.5 180.344 92.8251 186.998C95.0172 200.634 92.2651 214.621 93.5637 228.477C95.0291 233.064 90.6746 237.931 92.9978 242.19C79.7672 240.242 66.4235 239.14 53.1691 237.335C49.3268 233.326 50.2501 227.637 49.9463 222.603C49.1004 208.467 47.641 194.367 47.1167 180.219C47.1048 177.866 44.3169 177.229 42.4345 177.193C40.8678 176.555 39.4322 175.602 38.4076 174.238Z" fill="#BA9915"/>
<path d="M41.9163 230.741C41.5171 211.875 39.4024 193.044 38.4076 174.238C39.4322 175.602 40.8678 176.555 42.4345 177.193C44.0965 196.214 44.4182 215.443 46.5568 234.374C47.0155 237.46 51.0007 236.501 53.1691 237.335C66.4235 239.14 79.7672 240.242 92.9978 242.19C93.5578 242.339 94.1237 242.494 94.6896 242.637C93.939 237.091 93.9867 231.473 94.6539 225.927C95.0947 231.003 94.1535 236.227 95.1006 241.255C116.308 243.268 137.39 246.83 158.632 248.284C171.315 252.198 186.13 252.323 199.706 254.08C200.123 255.063 200.51 256.058 200.85 257.077C166.168 251.608 130.533 248.195 95.4223 244.4C79.0405 239.748 60.4843 242.351 44.5671 235.733C43.0302 234.476 41.9997 232.754 41.9163 230.741Z" fill="#806A17"/>
<path d="M42.4345 177.193C44.3169 177.229 47.1048 177.866 47.1167 180.219C47.641 194.367 49.1004 208.467 49.9463 222.603C50.2501 227.637 49.3268 233.326 53.1691 237.335C51.0007 236.501 47.0155 237.46 46.5568 234.374C44.4182 215.443 44.0965 196.214 42.4345 177.193Z" fill="#A18514"/>
<path d="M352.939 179.242C356.239 177.479 359.98 176.621 363.56 178.235C365.824 181.44 370.083 183.817 370.691 187.814C366.128 187.719 360.022 187.6 357.228 191.877C351.313 195.112 344.98 188.255 343.985 182.78C345.862 179.713 350.145 180.743 352.939 179.242Z" fill="#4C5861"/>
<path d="M98.0017 177.931C108.605 178.521 119.227 178.36 129.788 179.719C131.212 181.792 131.498 184.442 132.225 186.819C120.144 186.313 108.039 186.456 95.9823 185.491C95.8036 182.798 97.6502 180.547 98.0017 177.931Z" fill="#161C50"/>
<path d="M393.22 190.93C393.607 186.343 399.928 177.765 390.432 180.279C390.283 183.644 387.364 194.123 393.22 190.93Z" fill="#87807C"/>
<path d="M164.006 192.419C164.5 188.672 162.802 183.519 167.574 181.976C181.865 183.603 196.388 182.304 210.542 185.193C207.963 186.128 205.038 186.11 202.619 187.475C202.345 192.318 209.214 192.413 212.603 190.971C212.937 197.381 221.008 200.455 221.128 207.026C225.351 210.665 226.763 216.795 232.214 219.083C237.843 222.287 244.348 220.256 250.24 218.886C255.625 216.366 252.217 208.711 258.019 206.376C255.142 201.265 252.73 195.165 247.279 192.139C247.678 192.127 248.476 192.103 248.875 192.091C251.479 193.467 254.058 195.004 256.941 195.731C256.631 193.211 250.77 189.339 256.214 189.137C262.446 188.589 268.254 187.201 274.223 185.074C277.809 184.341 275.223 187.945 274.854 189.673C279.757 192.937 281.83 198.769 286.458 202.373C283.563 206.632 278.976 198.757 275.265 202.778C268.7 206.716 261.755 206.668 258.681 198.543C257.775 201.813 260.563 205.191 259.235 208.205C252.432 214.251 254.648 224.492 254.195 232.474C255.5 233.898 257.043 235.369 254.952 236.948C240.917 240.45 225.607 239.527 212.984 231.896C220.133 230.33 212.895 218.523 209.416 213.948C209.434 207.556 204.222 204.542 199.247 202.057C190.568 195.35 179.136 196.16 169.242 192.592C179.083 206.382 193.57 216.473 204.883 229.168C207.54 230.657 203.894 232.319 203.078 233.892C207.546 237.901 215.278 235.881 218.411 241.195C222.408 241.29 222.825 249.797 217.494 247.545C209.756 248.201 206.813 240.534 203.87 235.542C201.309 231.837 196.317 238.8 194.75 234.303C196.739 232.784 203.274 233.499 199.301 230.038C187.679 217.391 175.658 205.054 164.006 192.419ZM208.749 238.699C205.663 240.492 209.863 241.636 211.483 242.69C213.199 240.445 211.513 237.722 208.749 238.699Z" fill="#41494C"/>
<path d="M336.843 183.358C340.703 182.423 341.894 188.44 340.923 191.353C344.819 193.777 343.479 198.894 345.921 202.516C349.257 211.887 338.07 212.369 332.03 213.566C331.327 205.036 328.849 195.6 321.754 190.233C323.803 183.9 331.726 185.461 336.843 183.358Z" fill="#545D62"/>
<path d="M95.5415 187.987C108.075 189.321 120.805 188.958 133.279 190.537C134.596 193.962 135.46 197.554 136.502 201.075C131.867 200.711 127.227 200.628 122.58 200.515C113.544 199.925 104.483 198.221 95.4104 198.674C94.9219 195.135 94.3977 191.442 95.5415 187.987Z" fill="#1B1E4C"/>
<path d="M169.242 192.592C179.136 196.16 190.568 195.35 199.247 202.057C204.222 204.542 209.434 207.556 209.416 213.948C212.895 218.523 220.133 230.33 212.984 231.896C225.607 239.527 240.917 240.45 254.952 236.948C257.93 238.169 262.332 237.412 264.656 239.724C259.217 243.608 262.821 250.22 266.216 254.211C269.368 258.411 267.33 263.748 265.305 267.966C258.27 268.21 250.377 271.457 243.818 267.65C241.06 265.446 234.817 260.323 235.978 267.799C237.081 274.811 233.697 288.696 244.062 289.411C244.39 292.604 251.818 292.592 248.268 295.082C238.588 294.469 229.027 291.77 219.275 291.192C217.214 290.633 213.187 291.961 212.335 289.036C209.762 275.782 209.392 262.158 207.23 248.862C203.096 247.14 199.795 244.019 195.822 242.059C194.875 239.754 194.154 237.365 193.469 234.976C193.791 234.809 194.428 234.47 194.75 234.303C196.317 238.8 201.309 231.837 203.87 235.542C206.813 240.534 209.756 248.201 217.494 247.545C222.825 249.797 222.408 241.29 218.411 241.195C215.278 235.881 207.546 237.901 203.078 233.892C203.894 232.319 207.54 230.657 204.883 229.168C193.57 216.473 179.083 206.382 169.242 192.592Z" fill="#2E3031"/>
<path d="M95.4104 198.674C104.483 198.221 113.544 199.925 122.58 200.515C124.344 202.939 127.096 204.643 130.056 205.161C118.506 204.256 106.937 203.535 95.4283 202.194C95.4223 201.015 95.4223 199.841 95.4104 198.674Z" fill="#AB8D15"/>
<path d="M95.4283 202.194C106.937 203.535 118.506 204.256 130.056 205.161C133.881 205.685 139.01 204.863 139.582 209.819C140.618 212.333 141.816 214.782 143.025 217.224C141.911 217.004 140.797 216.777 139.671 216.652C139.743 223.544 139.749 230.496 138.343 237.269C143.472 238.306 149.125 238.52 154.373 239.801C155.821 242.607 157.179 245.472 158.632 248.284C137.39 246.83 116.308 243.268 95.1006 241.255C94.1535 236.227 95.0947 231.003 94.6539 225.927C94.6241 217.998 95.047 210.099 95.4283 202.194ZM109.195 207.729C107.67 212.125 106.991 217.087 106.157 221.757C109.666 223.902 110.13 220.739 110.44 217.855C112.698 217.605 116.737 218.32 115.003 214.293C113.764 213.56 110.005 213.846 112.191 211.833C114.872 212.852 118.601 212.357 116.838 208.306C114.282 208.14 111.745 207.86 109.195 207.729ZM119.393 208.86C118.208 213.572 117.237 218.338 116.26 223.104C120.889 225.052 120.418 220.53 121.145 217.79C127.31 216.104 119.661 226.821 126.798 223.634C127.989 218.922 128.74 214.114 129.919 209.402C125.714 207.836 125.416 211.076 124.999 214.108C118.226 216.932 127.024 205.387 119.393 208.86ZM106.24 224.349C105.382 226.779 104.721 229.317 104.435 231.89C105.472 234.416 109.898 231.009 109.112 234.958C107.604 238.884 104.102 231.986 102.702 236.418C103.524 241.261 112.894 240.445 113.24 234.952C114.485 231.545 110.976 230.318 108.611 229.484C107.902 226.785 113.728 230.151 113.859 227.845C115.938 223.437 108.939 224.795 106.24 224.349ZM121.21 225.653C115.742 227.297 113.168 235.816 117.017 240.2C125.785 245.3 131.159 225.183 121.21 225.653Z" fill="#13140A"/>
<path d="M232.416 208.229C232.887 205.924 230.194 204.506 228.222 204.607C227.752 206.906 230.444 208.324 232.416 208.229Z" fill="#DDDEDF"/>
<path d="M274.58 209.283C278.416 204.887 284.957 207.723 289.943 207.913C284.612 223.658 288.555 240.599 284.772 256.421C271.304 263.045 259.979 275.079 256.125 289.787C254.761 292.181 253.718 294.767 253.2 297.483C252.539 299.354 250.555 298.323 249.179 298.085C248.393 297.876 247.607 297.698 246.814 297.584L246.236 297.513C234.787 295.922 223.248 294.665 211.918 292.432C207.915 280.75 204.692 268.812 200.85 257.077C200.51 256.058 200.123 255.063 199.706 254.08C198.032 250.196 197.139 246.056 195.822 242.059C199.795 244.019 203.096 247.14 207.23 248.862C209.392 262.158 209.762 275.782 212.335 289.036C213.187 291.961 217.214 290.633 219.275 291.192C229.027 291.77 238.588 294.469 248.268 295.082C251.818 292.592 244.39 292.604 244.062 289.411C233.697 288.696 237.081 274.811 235.978 267.799C234.817 260.323 241.06 265.446 243.818 267.65C250.377 271.457 258.27 268.21 265.305 267.966C267.33 263.748 269.368 258.411 266.216 254.211C262.821 250.22 259.217 243.608 264.656 239.724C262.332 237.412 257.93 238.169 254.952 236.948C260.837 233.636 252.241 223.747 256.387 218.505C261.802 214.222 269.296 213.68 274.58 209.283Z" fill="#1F211F"/>
<path d="M109.195 207.729C111.745 207.86 114.282 208.14 116.838 208.306C118.601 212.357 114.872 212.852 112.191 211.833C110.005 213.846 113.764 213.56 115.003 214.293C116.737 218.32 112.698 217.605 110.44 217.855C110.13 220.739 109.666 223.902 106.157 221.757C106.991 217.087 107.67 212.125 109.195 207.729Z" fill="#AC8E13"/>
<path d="M451.831 207.937C452.123 211.541 452.725 215.05 456.812 215.997C455.519 210.898 459.165 211.464 461.53 213.435C461.762 211.434 462.763 211.708 462.59 213.656C462.929 220.173 461.881 226.6 461.726 233.1C461.464 233.933 460.94 235.596 460.684 236.43C460.731 229.758 460.916 223.086 461.494 216.444C456.901 218.481 452.534 220.989 448.174 223.473C443.414 226.201 438.404 228.495 433.776 231.443C429.064 234.249 423.863 236.167 419.264 239.17C422.058 240.873 423.589 243.626 424.477 246.699C425.21 248.058 428.397 251.137 424.888 250.476C423.279 246.467 421.546 238.568 415.452 241.088C414.82 245.419 408.595 242.607 406.755 246.92C408.053 248.945 412.074 246.562 411.729 250.494C411.211 253.389 408.309 255.623 409.96 258.893C407.601 260.347 403.258 264.892 409.828 263.742C414.582 266.602 410.412 275.591 411.091 280.827C403.854 282.99 404.038 289.691 403.758 295.964C403.52 274.668 404.747 253.193 406.915 232.009C406.356 225.463 407.428 229.555 407.797 230.973C406.183 235.298 409.852 237.746 413.391 239.265C414.237 237.77 412.062 230.592 415.476 232.444C417.602 233.439 421.492 237.686 420.343 231.706C419.473 225.26 424.536 230.52 427.104 231.384C427.932 229.001 426.764 222.776 430.666 226.809C436.159 233.213 432.09 217.742 437.398 223.586C442.485 229.025 439.53 219.017 440.352 216.319C440.96 218.636 443.813 223.312 446.16 221.18C446.464 218.368 446.232 215.508 446.428 212.709C446.244 215.842 448.484 217.701 451.015 218.88C451.665 215.27 451.474 211.565 451.831 207.937Z" fill="#525A5C"/>
<path d="M119.393 208.86C127.024 205.387 118.226 216.932 124.999 214.108C125.416 211.076 125.714 207.836 129.919 209.402C128.74 214.114 127.989 218.922 126.798 223.634C119.661 226.821 127.31 216.104 121.145 217.79C120.418 220.53 120.889 225.052 116.26 223.104C117.237 218.338 118.208 213.572 119.393 208.86Z" fill="#AE8F12"/>
<path d="M139.582 209.819C157.012 216.045 172.745 226.517 190.211 232.587C191.295 233.379 192.385 234.172 193.469 234.976C194.154 237.365 194.875 239.754 195.822 242.059C197.139 246.056 198.032 250.196 199.706 254.08C186.13 252.323 171.315 252.198 158.632 248.284C157.179 245.472 155.821 242.607 154.373 239.801C164.595 244.418 161.492 231.67 161.367 225.665C156.083 221.531 148.839 220.62 143.025 217.224C141.816 214.782 140.618 212.333 139.582 209.819Z" fill="#B89715"/>
<path d="M139.671 216.652C140.797 216.777 141.911 217.004 143.025 217.224C148.839 220.62 156.083 221.531 161.367 225.665C161.492 231.67 164.595 244.418 154.373 239.801C149.125 238.52 143.472 238.306 138.343 237.269C139.749 230.496 139.743 223.544 139.671 216.652Z" fill="#292B2B"/>
<path d="M448.174 223.473C452.534 220.989 456.901 218.481 461.494 216.444C460.916 223.086 460.731 229.758 460.684 236.43C460.94 235.596 461.464 233.933 461.726 233.1C459.802 261.372 458.08 289.763 455.966 317.957C454.137 318.702 451.45 317.326 449.3 317.159C451.689 291.222 452.916 265.178 454.631 239.2C454.53 235.536 449.884 238.443 447.983 239.158C448.239 233.951 448.817 228.602 448.174 223.473Z" fill="#313735"/>
<path d="M375.605 221.525C379.37 220.625 374.634 224.521 373.949 225.85C370.274 232.522 380.293 231.539 377.714 238.449C374.027 241.32 371.126 236.352 368.933 233.85C368.254 235.518 368.022 237.514 366.574 238.747C365.216 237.871 367.17 232.849 364.752 233.308C362.583 235.816 360.933 238.598 358.294 239.634C356.876 235.596 351.95 231.628 355.929 227.428C359.075 228.137 361.606 231.855 365.21 232.152C364.186 230.931 362.935 227.607 365.74 228.495C366.157 230.335 368.737 234.088 367.76 230.139C369.178 226.755 372.549 223.836 375.605 221.525Z" fill="#464D4D"/>
<path d="M106.24 224.349C108.939 224.795 115.938 223.437 113.859 227.845C113.728 230.151 107.902 226.785 108.611 229.484C110.976 230.318 114.485 231.545 113.24 234.952C112.894 240.445 103.524 241.261 102.702 236.418C104.102 231.986 107.604 238.884 109.112 234.958C109.898 231.009 105.472 234.416 104.435 231.89C104.721 229.317 105.382 226.779 106.24 224.349Z" fill="#9EA19D"/>
<path d="M117.017 240.2C125.785 245.3 131.159 225.183 121.21 225.653C115.742 227.297 113.168 235.816 117.017 240.2ZM121.121 229.078C119.453 231.58 118.22 235.274 119.894 237.996C122.229 236.555 124.242 229.71 121.121 229.078Z" fill="#A3A5A1"/>
<path d="M119.894 237.996C122.229 236.555 124.242 229.71 121.121 229.078C119.453 231.58 118.22 235.274 119.894 237.996Z" fill="#1C1F16"/>
<path d="M419.264 239.17C423.863 236.167 429.064 234.249 433.776 231.443C434.705 236.245 431.595 244.15 434.223 247.432C440.519 247.831 430.291 247.801 429.719 251.227C428.593 254.783 423.863 253.395 422.303 255.832C419.729 256.266 416.816 254.902 414.415 256.29C412.861 257.041 411.419 257.988 409.96 258.893C408.309 255.623 411.211 253.389 411.729 250.494C412.074 246.562 408.053 248.945 406.755 246.92C408.595 242.607 414.82 245.419 415.452 241.088C421.546 238.568 423.279 246.467 424.888 250.476C428.397 251.137 425.21 248.058 424.477 246.699C423.589 243.626 422.058 240.873 419.264 239.17Z" fill="#404642"/>
<path d="M44.5671 235.733C60.4843 242.351 79.0405 239.748 95.4223 244.4L95.3151 245.014C95.053 246.467 94.8147 247.938 94.6062 249.422C91.1452 248.403 87.4816 244.966 84.1099 245.8C86.5999 250.19 82.853 248.29 81.0837 245.716C73.8579 244.215 64.547 240.254 58.7032 247.206C57.3211 250.268 51.5786 249.66 53.318 253.878C53.8958 256.934 53.4193 266.298 58.8164 262.766C68.8778 248.487 91.0499 249.428 101.451 262.962C95.3449 260.567 89.3879 252.942 82.5194 257.678C84.9201 252.668 77.3546 254.08 79.3622 258.643C83.0674 259.555 87.1897 262.086 87.5173 266.137C97.0188 274.537 104.018 285.271 107.259 297.602C106.979 299.866 111.286 298.192 109.82 300.64C107.11 304.036 116.183 309.236 110.148 309.081C114.967 313.972 122.134 303.047 113.097 303.696C119.274 305.668 118.071 297.388 114.747 295.398C118.708 292.878 113.609 288.53 115.092 285.289C117.868 296.554 122.169 307.997 120.656 319.858C118.774 325.94 109.284 322.092 108.54 328.043C106.044 328.525 102.106 327.691 102.356 331.307C93.7126 329.323 84.926 329.24 76.3181 326.738C59.7814 318.964 54.1043 299.818 52.8593 282.954C52.1683 280.845 54.0031 277.539 51.2688 276.371C52.0611 274.59 52.6866 272.66 52.0253 270.736C51.9717 270.444 51.8705 269.866 51.8168 269.574C49.6783 258.232 48.2486 246.705 44.5671 235.733ZM64.4755 281.864C56.1059 296.298 67.6268 321.561 85.8494 318.964C105.055 312.084 98.52 281.602 81.4531 275.919C75.9607 272.791 67.1562 275.698 64.4755 281.864Z" fill="#2A2A28"/>
<path d="M447.983 239.158C449.884 238.443 454.53 235.536 454.631 239.2C452.916 265.178 451.689 291.222 449.3 317.159C447.531 318.136 446.006 319.477 444.528 320.847C445.857 293.843 447.328 266.834 449.705 239.902C448.966 239.754 447.483 239.456 446.744 239.307C447.054 239.265 447.674 239.194 447.983 239.158Z" fill="#4A504E"/>
<path d="M438.065 242.255C436.427 238.097 442.229 236.036 440.257 240.951C439.935 241.153 439.286 241.553 438.958 241.755C438.732 241.88 438.285 242.13 438.065 242.255Z" fill="#262725"/>
<path d="M211.483 242.69C213.199 240.445 211.513 237.722 208.749 238.699C205.663 240.492 209.863 241.636 211.483 242.69Z" fill="#E1E1E1"/>
<path d="M440.257 240.951C442.193 239.676 444.308 238.693 446.744 239.307C447.483 239.456 448.966 239.754 449.705 239.902C447.328 266.834 445.857 293.843 444.528 320.847C444.909 324.737 441.317 332.558 447.215 333.559C477.5 337.604 507.697 342.477 538 346.492V352.46C506.064 347.79 474.17 342.923 442.3 337.854C440.251 337.52 437.862 335.894 439.089 333.291C440.888 303.523 442.622 273.72 444.498 243.965C444.6 241.136 440.865 242.404 438.958 241.755C439.286 241.553 439.935 241.153 440.257 240.951Z" fill="#F6D434"/>
<path d="M438.065 242.255C438.285 242.13 438.732 241.88 438.958 241.755C440.865 242.404 444.6 241.136 444.498 243.965C442.622 273.72 440.888 303.523 439.089 333.291C437.862 335.894 440.251 337.52 442.3 337.854C474.17 342.923 506.064 347.79 538 352.46V356.601C505.707 353.414 473.777 346.986 441.603 342.709C436.844 342.137 433.722 337.52 435.056 332.844C435.491 324.415 436.331 316.009 436.748 307.58C436.826 306.568 436.981 304.53 437.058 303.512C437.85 284.872 439.352 266.262 440.275 247.635C438.541 246.437 436.302 246.276 434.318 246.854C434.342 244.608 436.826 243.798 438.065 242.255Z" fill="#B89712"/>
<path d="M58.7032 247.206C64.547 240.254 73.8579 244.215 81.0837 245.716C82.853 248.29 86.5999 250.19 84.1099 245.8C87.4816 244.966 91.1452 248.403 94.6062 249.422C108.951 259.721 117.588 275.758 119.423 293.2C121.586 300.2 125.255 306.621 127.662 313.537C120.734 330.306 101.099 341.321 83.1746 336.543C58.721 329.651 44.7816 300.092 51.2688 276.371C54.0031 277.539 52.1683 280.845 52.8593 282.954C54.1043 299.818 59.7814 318.964 76.3181 326.738C84.926 329.24 93.7126 329.323 102.356 331.307C102.106 327.691 106.044 328.525 108.54 328.043C109.284 322.092 118.774 325.94 120.656 319.858C122.169 307.997 117.868 296.554 115.092 285.289C112.31 277.033 108.176 268.681 101.451 262.962C91.0499 249.428 68.8778 248.487 58.8164 262.766C53.4193 266.298 53.8958 256.934 53.318 253.878C51.5786 249.66 57.3211 250.268 58.7032 247.206Z" fill="#1D1D1B"/>
<path d="M336.206 243.399C341.209 242.375 346.142 244.406 350.931 245.651C354.726 248.981 361.725 248.355 363.798 253.568C360.391 255.558 356.573 256.725 353.189 258.762C351.003 259.632 348.799 261.062 346.344 260.603C332.822 253.735 316.005 253.032 301.399 250.619C303.549 250.292 305.741 249.97 307.922 249.773C318.031 251.554 327.484 248.153 336.206 243.399Z" fill="#F9D330"/>
<path d="M95.4223 244.4C130.533 248.195 166.168 251.608 200.85 257.077C204.692 268.812 207.915 280.75 211.918 292.432C223.248 294.665 234.787 295.922 246.236 297.513C244.58 302.261 244.443 307.27 244.032 312.227C229.986 311.583 216.165 307.419 202.291 305.007C190.419 302.958 182.121 293.438 169.939 292.717C165.048 293.2 162.415 288.863 158.061 287.886C155.97 286.975 153.092 286.713 151.978 284.479C152.473 282.453 154.004 280.952 155.499 279.612C159.991 280.482 164.399 280.786 163.541 274.709C164.22 278.26 164.911 282.06 169.319 281.447C167.562 276.979 168.009 267.364 161.2 268.085C160.044 271.582 159.252 275.192 158.227 278.742C156.756 274.828 158.99 265.673 152.366 266.9C150.656 276.437 151.782 265.369 146.617 265.661C145.056 263.349 147.225 259.453 143.43 259.06C140.463 257.041 129.502 257.809 132.725 252.418C122.455 249.011 111.679 247.712 100.98 246.455C98.9548 246.372 96.715 246.717 95.3151 245.014L95.4223 244.4ZM174.71 266C177.51 274.072 164.613 264.553 168.08 273.012C173.745 273.881 167.872 283.99 175.175 282.078C176.223 278.063 171.696 268.198 178.851 271.457C178.809 268.407 179.756 263.951 174.71 266ZM178.851 271.457C175.967 274.721 179.988 277.694 182.3 279.195C181.4 280.595 177.147 276.586 177.689 280.964C179.607 284.592 187.589 284.711 187.131 279.153C186.976 276.3 178.862 272.904 184.939 274.68C189.746 273.065 181.227 267.192 178.851 271.457ZM187.75 271.32C187.709 276.014 186.458 282.745 192.075 284.884C200.475 288.214 200.796 269.628 193.541 272.315C192.724 274.56 195.643 280.1 192.54 280.273C192.897 275.954 193.392 270.73 187.75 271.32Z" fill="#C2A016"/>
<path d="M94.6062 249.422C94.8147 247.938 95.053 246.467 95.3151 245.014C96.715 246.717 98.9548 246.372 100.98 246.455C95.6487 249.571 100.623 254.348 104.906 255.331C109.088 258.095 117.827 259.352 116.141 266.161C121.365 274.34 119.572 284.961 124.975 292.974C159.925 302.082 197.466 303.303 230.689 318.392C233.792 319.876 237.396 320.477 240.53 321.258C246.922 315.181 246.403 305.537 246.814 297.584C247.607 297.698 248.393 297.876 249.179 298.085C247.66 308.843 247.261 319.804 242.901 330.098C242.859 331.819 241.62 332.379 240.041 332.308C229.396 330.396 218.691 328.805 208.052 326.851C209.368 323.849 203.673 323.533 202.047 322.568C173.602 315.575 146.712 303.351 119.423 293.2C117.588 275.758 108.951 259.721 94.6062 249.422Z" fill="#A0830F"/>
<path d="M350.931 245.651C356.376 247.015 362.345 247.158 367.474 249.523C368.773 251.989 365.329 252.591 363.798 253.568C361.725 248.355 354.726 248.981 350.931 245.651Z" fill="#AF9331"/>
<path d="M100.98 246.455C111.679 247.712 122.455 249.011 132.725 252.418C129.502 257.809 140.463 257.041 143.43 259.06C147.225 259.453 145.056 263.349 146.617 265.661C145.098 269.479 145.247 273.703 144.979 277.747C146.135 277.938 148.434 279.463 148.696 277.593C149.459 270.76 149.363 278.909 151.424 279.112C153.229 279.517 153.033 277.211 153.384 276.091C154.01 277.307 154.617 278.552 155.499 279.612C154.004 280.952 152.473 282.453 151.978 284.479C153.092 286.713 155.97 286.975 158.061 287.886C162.415 288.863 165.048 293.2 169.939 292.717C182.121 293.438 190.419 302.958 202.291 305.007C216.165 307.419 229.986 311.583 244.032 312.227C244.443 307.27 244.58 302.261 246.236 297.513L246.814 297.584C246.403 305.537 246.922 315.181 240.53 321.258C237.396 320.477 233.792 319.876 230.689 318.392C197.466 303.303 159.925 302.082 124.975 292.974C119.572 284.961 121.365 274.34 116.141 266.161C117.827 259.352 109.088 258.095 104.906 255.331C100.623 254.348 95.6487 249.571 100.98 246.455ZM122.789 263.105C122.819 267.215 122.568 271.707 124.099 275.49C128.007 277.05 128.043 274.072 127.721 271.153C128.96 273.107 128.954 276.395 131.921 276.532C137.652 277.42 129.02 270.426 132.66 267.549C136.025 264.112 127.453 261.92 128.162 266.59C125.642 273.554 129.121 259.942 122.789 263.105ZM136.728 264.952C129.223 267.871 136.079 281.441 142.602 276.866C146.903 272.958 142.93 263.093 136.728 264.952Z" fill="#B39312"/>
<path d="M434.318 246.854C436.302 246.276 438.541 246.437 440.275 247.635C439.352 266.262 437.85 284.872 437.058 303.512C434.514 303.148 432.132 311.899 436.748 307.58C436.331 316.009 435.491 324.415 435.056 332.844C435.027 331.784 434.967 330.729 434.878 329.687C429.117 334.667 423.696 340.046 417.722 344.77C417.948 336.823 418.496 328.895 418.913 320.966C425.209 318.494 429.832 312.912 428.867 305.871C429.397 293.111 430.315 280.375 431.107 267.632C427.842 269.473 425.001 271.987 421.677 273.72C421.778 267.752 422.583 261.795 422.303 255.832C423.863 253.395 428.593 254.783 429.719 251.227C430.291 247.801 440.519 247.831 434.223 247.432L434.318 246.854Z" fill="#4F5756"/>
<path d="M284.772 256.421C290.181 254.152 295.561 251.578 301.399 250.619C316.005 253.032 332.822 253.735 346.344 260.603C344.67 260.454 343.068 259.918 341.472 259.441C327.55 255.975 313.104 251.519 298.635 254.08C289.336 255.647 280.936 260.162 273.74 266.197C270.583 272.172 271.792 278.564 272.138 284.842C269.111 289.816 263.297 292.878 261.653 298.901C263.893 293.659 259.05 289.34 261.475 284.056C258.752 281.5 257.984 288.136 256.125 289.787C259.979 275.079 271.304 263.045 284.772 256.421Z" fill="#AF8E15"/>
<path d="M298.635 254.08C313.104 251.519 327.55 255.975 341.472 259.441C344.087 264.207 335.741 262.223 333.412 263.933C324.988 263.778 316.571 261.383 308.059 262.956C301.202 262.569 295.722 267.609 289.121 268.544C290.98 262.825 292.856 257.345 298.635 254.08Z" fill="#0E0F0E"/>
<path d="M366.676 253.776C368.123 252.835 368.451 254.128 368.505 255.415C369.219 259.227 366.795 261.306 363.715 262.7C363.787 265.684 363.173 268.341 360.433 265.964C358.449 264.398 356.305 263.045 354.059 261.914C353.517 261.366 352.665 260.841 353.171 259.978C357.978 258.619 362.291 256.088 366.676 253.776Z" fill="#897426"/>
<path d="M79.3622 258.643C77.3546 254.08 84.9201 252.668 82.5194 257.678C89.3879 252.942 95.3449 260.567 101.451 262.962C108.176 268.681 112.31 277.033 115.092 285.289C113.609 288.53 118.708 292.878 114.747 295.398C118.071 297.388 119.274 305.668 113.097 303.696C122.134 303.047 114.967 313.972 110.148 309.081C116.183 309.236 107.11 304.036 109.82 300.64C111.286 298.192 106.979 299.866 107.259 297.602C104.018 285.271 97.0188 274.537 87.5173 266.137C87.1897 262.086 83.0674 259.555 79.3622 258.643Z" fill="#353637"/>
<path d="M273.74 266.197C280.936 260.162 289.336 255.647 298.635 254.08C292.856 257.345 290.98 262.825 289.121 268.544C282.157 276.89 272.549 282.96 269.314 293.974C263.697 306.621 263.941 321.18 267.39 334.435C264.566 335.632 261.999 337.33 259.3 338.777C258.514 325.523 257.305 311.691 261.653 298.901C263.297 292.878 269.111 289.816 272.138 284.842C271.792 278.564 270.583 272.172 273.74 266.197Z" fill="#625012"/>
<path d="M414.415 256.29C416.816 254.902 419.729 256.266 422.303 255.832C422.583 261.795 421.778 267.752 421.677 273.72C420.48 289.447 420.319 305.251 418.913 320.966C418.496 328.895 417.948 336.823 417.722 344.77C418.526 349.184 415.077 354.963 418.931 358.412C417.179 360.103 415.303 361.706 413.885 363.707C411.3 363.249 410.835 359.913 411.264 357.828C412.527 330.217 414.38 302.636 415.416 275.019C415.47 268.871 418.198 261.884 414.415 256.29Z" fill="#F9D325"/>
<path d="M409.96 258.893C411.419 257.988 412.861 257.041 414.415 256.29C418.198 261.884 415.47 268.871 415.416 275.019C414.38 302.636 412.527 330.217 411.264 357.828C410.835 359.913 411.3 363.249 413.885 363.707C422.011 365.215 430.184 366.501 438.339 367.859C471.549 373.536 504.712 379.511 538 384.67V388.798C495.61 384.265 453.69 375.889 411.759 368.396C406.57 366.936 406.487 361.003 407.094 356.648C407.69 349.083 408.113 341.5 408.161 333.916C409.572 316.242 409.971 298.514 411.091 280.827C410.412 275.591 414.582 266.602 409.828 263.742C403.258 264.892 407.601 260.347 409.96 258.893Z" fill="#B89712"/>
<path d="M346.344 260.603C348.799 261.062 351.003 259.632 353.189 258.762C353.183 259.066 353.177 259.674 353.171 259.978C352.665 260.841 353.517 261.366 354.059 261.914C345.207 267.049 335.068 269.467 325.274 265.476C321.069 262.95 315.016 264.886 313.366 269.539C310.894 271.379 313.408 266.602 313.926 265.393C309.393 263.516 301.833 268.961 304.633 274.239C309.095 275.996 305.211 268.389 307.439 267.811C309.375 268.973 307.564 275.728 311.222 273.983C312.336 271.713 313.539 273.887 314.796 274.775C319.853 274.477 325.548 276.723 327.604 281.602C329.82 278.373 333.727 280.768 336.003 282.692C337.796 287.666 342.943 291.508 347.738 292.396C360.445 305.466 365.901 324.873 365.216 342.149C361.63 343.793 367.79 346.944 364.073 347.647C360.838 349.16 367.009 351.388 367.134 353.58C365.157 352.8 359.712 351.656 362.452 355.159C375.909 363.553 378.453 344.037 381.92 335.036C386.876 332.35 383.951 341.434 385.982 344.055C373.818 366.066 350.312 383.943 324.148 382.127C297.61 379.94 275.003 359.585 267.39 334.435C263.941 321.18 263.697 306.621 269.314 293.974C272.549 282.96 282.157 276.89 289.121 268.544C295.722 267.609 301.202 262.569 308.059 262.956C316.571 261.383 324.988 263.778 333.412 263.933C335.741 262.223 344.087 264.207 341.472 259.441C343.068 259.918 344.67 260.454 346.344 260.603ZM285.058 310.898C276.433 334.059 298.783 364.053 323.785 360.538C330.54 360.937 337.433 357.059 342.061 352.395C359.498 334.214 348.638 301.724 326.513 292.843C311.15 284.562 288.281 293.48 285.058 310.898Z" fill="#262625"/>
<path d="M354.059 261.914C356.305 263.045 358.449 264.398 360.433 265.964C361.154 268.359 362.631 270.444 364.609 271.981C370.006 276.014 369.791 284.961 376.743 287.225C383.224 285.176 382.682 295.202 386.644 297.62C389.938 295.482 388.02 290.37 389.074 287.136C390.891 288.077 392.213 291.782 394.566 289.983C395.752 287.928 398.105 283.395 399.594 287.672C402.746 295.315 390.915 295.785 392.273 302.91C392.452 308.724 391.886 314.627 393.083 320.346C395.728 321.073 399.541 323.664 394.948 324.927C390.766 328.382 393.953 335.936 392.601 340.1C388.687 338.622 387.001 341.506 386.125 344.651L385.982 344.055C383.951 341.434 386.876 332.35 381.92 335.036C378.453 344.037 375.909 363.553 362.452 355.159C359.712 351.656 365.157 352.8 367.134 353.58C367.009 351.388 360.838 349.16 364.073 347.647C367.79 346.944 361.63 343.793 365.216 342.149C365.901 324.873 360.445 305.466 347.738 292.396C342.943 291.508 337.796 287.666 336.003 282.692C333.727 280.768 329.82 278.373 327.604 281.602C325.548 276.723 319.853 274.477 314.796 274.775C313.539 273.887 312.336 271.713 311.222 273.983C307.564 275.728 309.375 268.973 307.439 267.811C305.211 268.389 309.095 275.996 304.633 274.239C301.833 268.961 309.393 263.516 313.926 265.393C313.408 266.602 310.894 271.379 313.366 269.539C315.016 264.886 321.069 262.95 325.274 265.476C335.068 269.467 345.207 267.049 354.059 261.914ZM338.005 272.72C335.461 272.857 333.424 278.587 336.2 278.093C334.686 273.232 342.014 273.166 339.315 278.147C336.825 284.348 344.653 278.462 343.557 283.484C345.028 289.316 348.644 278.016 347.715 284.241C345.564 289.09 352.01 288.44 351.95 292.396C356.745 295.934 359.766 301.903 361.839 307.527C364.204 308.378 363.995 310.183 363.62 312.245C365.437 313.633 366.36 315.467 365.359 317.689C368.314 319.375 373.461 323.211 367.021 321.966C366.819 326.923 373.312 323.664 375.969 324.355C375.611 327.435 368.636 323.92 367.635 327.953C368.338 330.277 373.657 330.324 372.043 333.523C370.143 338.974 382.039 335.918 378.721 331.164C377.809 322.032 381.306 311.851 374.825 304.095C372.103 294.85 365.657 287.267 358.681 280.893C353.761 280.625 349.156 274.793 343.819 279.195C348.084 274.185 342.538 272.952 338.005 272.72Z" fill="#333435"/>
<path d="M122.789 263.105C129.121 259.942 125.642 273.554 128.162 266.59C127.453 261.92 136.025 264.112 132.66 267.549C129.02 270.426 137.652 277.42 131.921 276.532C128.954 276.395 128.96 273.107 127.721 271.153C128.043 274.072 128.007 277.05 124.099 275.49C122.568 271.707 122.819 267.215 122.789 263.105Z" fill="#302C45"/>
<path d="M142.602 276.866C146.903 272.958 142.93 263.093 136.728 264.952C129.223 267.871 136.079 281.441 142.602 276.866ZM138.39 269.026C136.282 270.23 137.205 272.612 139.01 273.548C141.518 273.268 140.815 269.211 138.39 269.026Z" fill="#2B2847"/>
<path d="M144.979 277.747C145.247 273.703 145.098 269.479 146.617 265.661C151.782 265.369 150.656 276.437 152.366 266.9C158.99 265.673 156.756 274.828 158.227 278.742C159.252 275.192 160.044 271.582 161.2 268.085C168.009 267.364 167.562 276.979 169.319 281.447C164.911 282.06 164.22 278.26 163.541 274.709C164.399 280.786 159.991 280.482 155.499 279.612C154.617 278.552 154.01 277.307 153.384 276.091C153.033 277.211 153.229 279.517 151.424 279.112C149.363 278.909 149.459 270.76 148.696 277.593C148.434 279.463 146.135 277.938 144.979 277.747Z" fill="#2F2C45"/>
<path d="M174.71 266C179.756 263.951 178.809 268.407 178.851 271.457C171.696 268.198 176.223 278.063 175.175 282.078C167.872 283.99 173.745 273.881 168.08 273.012C164.613 264.553 177.51 274.072 174.71 266Z" fill="#2F2C46"/>
<path d="M178.851 271.457C181.227 267.192 189.746 273.065 184.939 274.68C178.862 272.904 186.976 276.3 187.131 279.153C187.589 284.711 179.607 284.592 177.689 280.964C177.147 276.586 181.4 280.595 182.3 279.195C179.988 277.694 175.967 274.721 178.851 271.457Z" fill="#2F2C46"/>
<path d="M187.75 271.32C193.392 270.73 192.897 275.954 192.54 280.273C195.643 280.1 192.724 274.56 193.541 272.315C200.796 269.628 200.475 288.214 192.075 284.884C186.458 282.745 187.709 276.014 187.75 271.32Z" fill="#2F2C46"/>
<path d="M421.677 273.72C425.001 271.987 427.842 269.473 431.107 267.632C430.315 280.375 429.397 293.111 428.867 305.871C429.832 312.912 425.209 318.494 418.913 320.966C420.319 305.251 420.48 289.447 421.677 273.72Z" fill="#343A39"/>
<path d="M139.01 273.548C141.518 273.268 140.815 269.211 138.39 269.026C136.282 270.23 137.205 272.612 139.01 273.548Z" fill="#A58817"/>
<path d="M44.0072 273.667C41.8686 268.49 48.3558 270.182 51.8168 269.574C51.8705 269.866 51.9717 270.444 52.0253 270.736C49.2374 271.147 44.728 270.295 46.3721 274.239C31.7178 279.29 15.3717 281.685 2.51049 291.192C4.49419 298.472 12.1609 303.351 16.8491 309.397C21.7994 314.621 33.7134 310.714 35.8401 318.351C25.7965 323.938 37.0077 332.236 43.0124 335.644C61.6042 346.194 85.9625 356.07 106.294 344.27C128.651 348.165 150.912 353.02 173.227 357.339C187.131 361.599 203.274 360.044 215.093 369.653C227.257 368.354 236.842 377.808 248.131 381.281C264.28 387.434 280.579 393.85 297.836 396.012C308.339 398.526 319.764 396.662 328.152 389.692C334.067 389.132 338.934 395.369 345.332 394.606C345.773 388.292 352.897 385.951 357.019 382.18C361.773 382.121 365.234 386.183 369.791 387.16C394.549 393.385 420.224 395.977 444.772 403H438.267C412.199 395.196 383.635 395.548 358.741 383.943C354.911 386.356 350.437 388.858 347.994 392.802C353.957 399.545 338.958 395.268 336.045 394.058C329.933 387.166 324.369 396.096 318.18 397.579C302.9 400.313 287.4 396.251 272.829 391.801C255.571 386.624 239.034 379.273 222.873 371.475C215.796 373.864 210.357 368.145 204.621 365.286C173.745 358.829 142.769 352.83 111.852 346.563C109.201 345.896 106.151 345.479 103.703 346.986C91.1392 353.997 75.9249 351.204 63.0458 346.587C51.0543 341.946 37.4604 337.068 30.0498 325.964C26.8033 321.174 38.622 317.719 30.997 315.497C17.0337 314.907 8.71772 303.803 0.806784 293.808C-0.879056 290.067 3.31469 289.066 5.51283 287.493C17.3495 280.416 31.0447 277.581 44.0072 273.667Z" fill="black"/>
<path d="M46.3721 274.239C44.728 270.295 49.2374 271.147 52.0253 270.736C52.6866 272.66 52.0611 274.59 51.2688 276.371C44.7816 300.092 58.721 329.651 83.1746 336.543C101.099 341.321 120.734 330.306 127.662 313.537C154.546 317.421 181.245 322.52 208.052 326.851C218.691 328.805 229.396 330.396 240.041 332.308C243.901 334.351 252.509 331.093 253.075 337.044C252.551 340.767 257.144 340.463 259.3 338.777C261.999 337.33 264.566 335.632 267.39 334.435C275.003 359.585 297.61 379.94 324.148 382.127C350.312 383.943 373.818 366.066 385.982 344.055L386.125 344.651C386.167 349.542 385.905 354.438 385.393 359.311C378.953 364.625 371.138 369.402 366.384 376.134C371.209 381.894 380.008 382.335 386.959 383.681C419.652 390.532 452.886 395.25 485.328 403L444.772 403C420.224 395.977 394.549 393.385 369.791 387.16C365.234 386.183 361.773 382.121 357.019 382.18C352.897 385.951 345.773 388.292 345.332 394.606C338.934 395.369 334.067 389.132 328.152 389.692C319.764 396.662 308.339 398.526 297.836 396.012C280.579 393.85 264.28 387.434 248.131 381.281C236.842 377.808 227.257 368.354 215.093 369.653C203.274 360.044 187.131 361.599 173.227 357.339C150.912 353.02 128.651 348.165 106.294 344.27C85.9625 356.07 61.6042 346.194 43.0124 335.644C37.0077 332.236 25.7965 323.938 35.8401 318.351C33.7134 310.714 21.7994 314.621 16.8491 309.397C12.1609 303.351 4.49419 298.472 2.51049 291.192C15.3717 281.685 31.7178 279.29 46.3721 274.239Z" fill="black"/>
<path d="M338.005 272.72C342.538 272.952 348.084 274.185 343.819 279.195C349.156 274.793 353.761 280.625 358.681 280.893C365.657 287.267 372.103 294.85 374.825 304.095C381.306 311.851 377.809 322.032 378.721 331.164C382.039 335.918 370.143 338.974 372.043 333.523C373.657 330.324 368.338 330.277 367.635 327.953C368.636 323.92 375.611 327.435 375.969 324.355C373.312 323.664 366.819 326.923 367.021 321.966C373.461 323.211 368.314 319.375 365.359 317.689C366.36 315.467 365.437 313.633 363.62 312.245C363.995 310.183 364.204 308.378 361.839 307.527C359.766 301.903 356.745 295.934 351.95 292.396C352.01 288.44 345.564 289.09 347.715 284.241C348.644 278.016 345.028 289.316 343.557 283.484C344.653 278.462 336.825 284.348 339.315 278.147C342.014 273.166 334.686 273.232 336.2 278.093C333.424 278.587 335.461 272.857 338.005 272.72Z" fill="#424243"/>
<path d="M64.4755 281.864C67.1562 275.698 75.9607 272.791 81.4531 275.919C83.4546 278.546 87.8807 279.791 89.6261 283.21C84.3244 280.756 78.3435 275.859 72.3031 279.344C71.1772 282.042 75.6569 282.817 75.1922 285.635C74.9182 289.221 82.853 290.793 78.1291 293.665C74.5667 291.609 73.5362 284.902 68.4965 286.707C66.0542 286.719 67.0549 282.489 64.4755 281.864Z" fill="#585954"/>
<path d="M89.6261 283.21C87.8807 279.791 83.4546 278.546 81.4531 275.919C98.52 281.602 105.055 312.084 85.8494 318.964C67.6268 321.561 56.1059 296.298 64.4755 281.864C67.0549 282.489 66.0542 286.719 68.4965 286.707C73.5362 284.902 74.5667 291.609 78.1291 293.665C79.1358 297.864 73.1847 301.879 77.7001 305.138C80.6667 307.288 83.6989 305.233 86.4153 304.054C89.4712 305.382 88.4526 310.237 91.7587 311.274C98.2102 302.964 96.441 290.734 89.6261 283.21Z" fill="#7A7B7B"/>
<path d="M72.3031 279.344C78.3435 275.859 84.3244 280.756 89.6261 283.21C96.441 290.734 98.2102 302.964 91.7587 311.274C88.4526 310.237 89.4712 305.382 86.4153 304.054C83.6989 305.233 80.6667 307.288 77.7001 305.138C73.1847 301.879 79.1358 297.864 78.1291 293.665C82.853 290.793 74.9182 289.221 75.1922 285.635C75.6569 282.817 71.1772 282.042 72.3031 279.344Z" fill="#2A2B28"/>
<path d="M403.758 295.964C404.038 289.691 403.854 282.99 411.091 280.827C409.971 298.514 409.572 316.242 408.161 333.916C405.98 333.344 403.931 333.815 402.203 335.233C402.055 322.121 403.973 309.058 403.758 295.964Z" fill="#272A26"/>
<path d="M256.125 289.787C257.984 288.136 258.752 281.5 261.475 284.056C259.05 289.34 263.893 293.659 261.653 298.901C257.305 311.691 258.514 325.523 259.3 338.777C257.144 340.463 252.551 340.767 253.075 337.044C253.403 323.855 253.248 310.666 253.2 297.483C253.718 294.767 254.761 292.181 256.125 289.787Z" fill="#CCA613"/>
<path d="M285.058 310.898C288.281 293.48 311.15 284.562 326.513 292.843C348.638 301.724 359.498 334.214 342.061 352.395C337.433 357.059 330.54 360.937 323.785 360.538C321.414 357.953 322.058 355.481 324.137 352.991C320.288 347.439 315.326 340.01 307.421 341.803C311.859 341.446 319.162 335.149 321.069 341.672C322.016 344.627 323.666 348.154 327.222 348.392C328.074 348.475 329.778 348.648 330.63 348.731C331.619 348.702 332.613 348.678 333.614 348.654C333.811 355.35 338.487 349.178 340.834 347.594C347.357 348.118 348.322 339.081 349.341 334.012C353.076 309.481 327.127 283.573 302.56 292.64C301.262 294.534 306.117 291.669 306.629 294.064C304.74 296.321 297.521 296.792 296.746 301.01C299.117 302.338 299.171 304.911 299.546 307.378C299.725 308.48 299.945 309.576 300.195 310.672C298.593 315.706 306.724 316.129 304.877 321.132C304.085 323.468 302.227 325.195 300.577 326.947C301.851 320.584 296.252 315.992 291.933 312.394C289.24 312.644 287.977 315.277 286.661 317.278C286.113 315.14 287.078 312.417 285.058 310.898Z" fill="#6A6C6B"/>
<path d="M302.56 292.64C327.127 283.573 353.076 309.481 349.341 334.012C348.322 339.081 347.357 348.118 340.834 347.594C338.487 349.178 333.811 355.35 333.614 348.654C353.112 341.452 349.096 313.919 335.485 302.916C326.102 291.335 304.115 291.347 299.546 307.378C299.171 304.911 299.117 302.338 296.746 301.01C297.521 296.792 304.74 296.321 306.629 294.064C306.117 291.669 301.262 294.534 302.56 292.64Z" fill="#4B4C47"/>
<path d="M119.423 293.2C146.712 303.351 173.602 315.575 202.047 322.568C203.673 323.533 209.368 323.849 208.052 326.851C181.245 322.52 154.546 317.421 127.662 313.537C125.255 306.621 121.586 300.2 119.423 293.2Z" fill="#8E7410"/>
<path d="M299.546 307.378C304.115 291.347 326.102 291.335 335.485 302.916C349.096 313.919 353.112 341.452 333.614 348.654C332.613 348.678 331.619 348.702 330.63 348.731C329.778 348.648 328.074 348.475 327.222 348.392C322.361 345.354 325.566 334.44 318.12 336.799C313.605 338.521 307.177 342.697 304.145 336.639C301.78 332.85 299.915 327.405 304.598 324.474C309.84 319.691 305.974 312.477 300.195 310.672C299.945 309.576 299.725 308.48 299.546 307.378Z" fill="#202220"/>
<path d="M249.179 298.085C250.555 298.323 252.539 299.354 253.2 297.483C253.248 310.666 253.403 323.855 253.075 337.044C252.509 331.093 243.901 334.351 240.041 332.308C241.62 332.379 242.859 331.819 242.901 330.098C247.261 319.804 247.66 308.843 249.179 298.085Z" fill="#74600C"/>
<path d="M437.058 303.512C434.514 303.148 432.132 311.899 436.748 307.58C436.826 306.568 436.981 304.53 437.058 303.512Z" fill="#050505"/>
<path d="M300.195 310.672C305.974 312.477 309.84 319.691 304.598 324.474C299.915 327.405 301.78 332.85 304.145 336.639C307.177 342.697 313.605 338.521 318.12 336.799C325.566 334.44 322.361 345.354 327.222 348.392C323.666 348.154 322.016 344.627 321.069 341.672C319.162 335.149 311.859 341.446 307.421 341.803C304.925 340.398 302.769 338.497 300.886 336.365C300.725 336.061 300.404 335.447 300.249 335.138C299.999 333.47 299.558 331.784 299.242 330.157C299.212 329.907 299.159 329.401 299.135 329.151C299.82 328.567 300.308 327.798 300.577 326.947C302.227 325.195 304.085 323.468 304.877 321.132C306.724 316.129 298.593 315.706 300.195 310.672Z" fill="#424445"/>
<path d="M323.785 360.538C298.783 364.053 276.433 334.059 285.058 310.898C287.078 312.417 286.113 315.14 286.661 317.278C287.977 315.277 289.24 312.644 291.933 312.394C296.252 315.992 301.851 320.584 300.577 326.947C299.272 326.774 298.688 328.061 299.135 329.151C299.159 329.401 299.212 329.907 299.242 330.157C299.236 331.849 299.218 333.684 300.249 335.138C300.404 335.447 300.725 336.061 300.886 336.365C302.769 338.497 304.925 340.398 307.421 341.803C315.326 340.01 320.288 347.439 324.137 352.991C322.058 355.481 321.414 357.953 323.785 360.538Z" fill="#808282"/>
<path d="M300.577 326.947C299.272 326.774 298.688 328.061 299.135 329.151C299.82 328.567 300.308 327.798 300.577 326.947Z" fill="#696A6A"/>
<path d="M300.249 335.138C299.999 333.47 299.558 331.784 299.242 330.157C299.236 331.849 299.218 333.684 300.249 335.138Z" fill="#616466"/>
<path d="M400.839 336.204C399.91 330.163 401.369 334.053 402.203 335.233C403.931 333.815 405.98 333.344 408.161 333.916C408.113 341.5 407.69 349.083 407.094 356.648C407.166 352.359 402.835 358.954 401.095 360.246C400.357 362.754 400.422 365.429 400.238 368.026C399.124 357.441 400.875 346.825 400.839 336.204Z" fill="#505755"/>
<path d="M418.931 358.412C427.128 359.311 435.217 361.051 443.372 362.26C440.626 362.522 438.976 365.399 438.339 367.859C430.184 366.501 422.011 365.215 413.885 363.707C415.303 361.706 417.179 360.103 418.931 358.412Z" fill="#D4B136"/>
<path d="M438.339 367.859C438.976 365.399 440.626 362.522 443.372 362.26C474.903 367.556 506.475 372.625 538 377.915L538 384.67C504.712 379.511 471.549 373.536 438.339 367.859Z" fill="#F9D83D"/>
</svg>
