<svg width="100" height="73" viewBox="0 0 100 73" fill="none" xmlns="http://www.w3.org/2000/svg">
<g opacity="0.98">
<path d="M53.5552 0.0230838C54.4516 -0.139151 55.5723 0.573099 55.4733 1.55178C54.3262 1.00836 52.8951 1.05717 51.748 1.60059C50.643 1.96199 49.5764 2.42363 48.5031 2.86681C47.0642 2.94463 45.7427 4.29263 44.3144 3.82307C46.9955 1.85911 50.2179 0.375252 53.5552 0.0230838Z" fill="#3F3F3F"/>
<path d="M51.748 1.60059C52.8951 1.05717 54.3262 1.00836 55.4733 1.55178C54.9149 3.31394 53.2054 4.67381 51.608 5.4929C51.7981 4.77801 52.0793 4.09082 52.3671 3.41155C53.113 2.97628 54.0252 2.32998 54.1664 1.40933C53.2225 1.1429 52.9519 2.22974 52.5836 2.8523C52.4107 2.25085 51.6542 3.46959 51.3863 3.67403C51.4113 3.0119 52.4305 1.98441 51.748 1.60059Z" fill="#1E1E1B"/>
<path d="M51.3863 3.67403C51.6542 3.46959 52.4107 2.25085 52.5836 2.8523C52.507 3.03696 52.4397 3.22425 52.3671 3.41155C52.0793 4.09082 51.7981 4.77801 51.608 5.4929C50.5387 7.54128 51.6041 9.90358 52.5664 11.8821C52.3618 12.0984 52.148 12.3041 51.9367 12.5125C51.4311 11.5972 51.175 10.5552 50.647 9.65957C49.9262 9.37203 49.6001 8.6822 49.2001 8.06888C47.7124 7.4107 46.1837 6.8198 44.7157 6.10623C44.3936 6.02577 43.6108 5.79231 44.189 5.45202C45.4919 5.90574 46.8952 7.30387 48.2114 6.16295C49.2807 5.42432 51.1104 5.15656 51.3863 3.67403Z" fill="#3E3E3E"/>
<path d="M44.3144 3.82307C45.7427 4.29263 47.0642 2.94463 48.5031 2.86681C47.0285 3.66479 45.5355 4.44299 44.189 5.45202C43.6108 5.79231 44.3936 6.02577 44.7157 6.10623C46.1837 6.8198 47.7124 7.4107 49.2001 8.06888C49.6001 8.6822 49.9262 9.37203 50.647 9.65957C51.175 10.5552 51.4311 11.5972 51.9367 12.5125C51.6622 12.8027 51.3955 13.1008 51.1209 13.3897C50.5321 11.9427 50.0028 10.4167 48.8675 9.32191C48.1454 6.9728 45.6239 8.71913 44.0345 8.98161C42.783 9.39445 40.5151 9.2164 40.8161 7.36323C41.5197 5.86486 42.9401 4.58149 44.3144 3.82307ZM42.1415 7.87103C42.2471 9.26519 45.2939 8.66506 46.3711 8.02799C47.1064 7.55447 45.8246 7.23924 45.4206 7.33684C45.1777 6.24341 41.7665 5.97697 42.1415 7.87103Z" fill="#21211E"/>
<path d="M21.2756 5.49555C22.9575 5.27528 25.537 5.27528 27.2149 5.49555C25.2347 5.4995 23.2558 5.50478 21.2756 5.49555Z" fill="#80801A"/>
<path d="M18.7265 5.94136C19.3984 5.28715 20.4228 5.54039 21.2756 5.49555C23.2558 5.50478 25.2347 5.4995 27.2149 5.49555C30.2841 4.65799 30.8069 8.02404 31.5 10.0645C32.226 12.0192 32.7158 14.491 34.8795 15.384C37.6557 15.8957 40.4887 16.1015 43.2926 16.4563C43.1659 17.1527 44.2431 17.7753 43.6847 18.3965C41.1131 19.0072 38.358 18.7922 35.8458 19.3079C35.2254 19.147 34.9376 18.5179 34.4174 18.2105C31.533 17.7093 28.5693 17.6513 25.7126 17.0353C23.508 16.546 22.3449 14.4594 21.6426 12.5073C20.5522 10.3639 20.2262 7.86048 18.7265 5.94136Z" fill="#FCF22F"/>
<path d="M18.0664 6.24605C18.2301 6.05084 18.4849 5.98357 18.7265 5.94136C20.2262 7.86048 20.5522 10.3639 21.6426 12.5073C22.3449 14.4594 23.508 16.546 25.7126 17.0353C28.5693 17.6513 31.533 17.7093 34.4174 18.2105C34.9376 18.5179 35.2254 19.147 35.8458 19.3079C38.358 18.7922 41.1131 19.0072 43.6847 18.3965C44.2431 17.7753 43.1659 17.1527 43.2926 16.4563C44.9784 16.484 45.4193 18.4572 44.7566 19.7392C41.5131 20.1217 38.2814 20.6836 35.0287 20.9329C34.2405 20.6836 34.9468 19.4688 34.1587 19.1233C31.5435 18.7856 28.9231 18.4743 26.3079 18.1314C24.3872 17.766 22.6723 16.4932 21.8103 14.7311C20.3318 12.0865 20.1733 8.63736 17.9344 6.55864C17.9674 6.48082 18.0334 6.32387 18.0664 6.24605Z" fill="#CEBD1D"/>
<path d="M17.9569 9.07658C17.9186 8.22188 16.9734 6.73935 18.0664 6.24605C18.0334 6.32387 17.9674 6.48082 17.9344 6.55864C17.5278 7.24979 17.9516 7.95017 18.1179 8.62812C18.7225 12.0232 20.1958 15.2059 21.0222 18.5521C19.6796 15.5805 18.9126 12.2237 17.9569 9.07658Z" fill="#3E3E36"/>
<path d="M45.4206 7.33684C45.1777 6.24341 41.7665 5.97697 42.1415 7.87103C43.2675 7.94885 44.3632 7.69561 45.4206 7.33684Z" fill="#020202"/>
<path d="M18.1179 8.62812C17.9516 7.95017 17.5278 7.24979 17.9344 6.55864C20.1733 8.63736 20.3318 12.0865 21.8103 14.7311C22.6723 16.4932 24.3872 17.766 26.3079 18.1314C28.9231 18.4743 31.5435 18.7856 34.1587 19.1233C34.9468 19.4688 34.2405 20.6836 35.0287 20.9329C33.7983 20.8564 32.5719 20.739 31.3442 20.6454C28.9627 19.6509 26.1099 19.879 23.6532 18.9531C20.5958 16.2611 20.2684 11.8913 18.1179 8.62812Z" fill="#AC9E13"/>
<path d="M42.1415 7.87103C43.2675 7.94885 44.3632 7.69561 45.4206 7.33684C45.8246 7.23924 47.1064 7.55447 46.3711 8.02799C45.2939 8.66506 42.2471 9.26519 42.1415 7.87103Z" fill="#434343"/>
<path d="M18.1179 8.62812C20.2684 11.8913 20.5958 16.2611 23.6532 18.9531C26.1099 19.879 28.9627 19.6509 31.3442 20.6454C28.8426 20.6731 26.3277 20.5636 23.8459 20.2273C22.6921 20.1745 21.6902 19.4543 21.0222 18.5521C20.1958 15.2059 18.7225 12.0232 18.1179 8.62812Z" fill="#928612"/>
<path d="M55.3017 9.76378C62.4607 9.12935 69.6382 9.86401 76.8104 9.89963C83.5589 10.112 90.3496 10.5209 97.0017 11.7541C98.4063 12.618 99.6274 14.458 99.9376 15.9115C99.7224 15.9643 99.5086 16.0105 99.2947 16.05C99.2472 16.0487 99.1508 16.0434 99.1033 16.0408C97.5007 15.6583 95.8796 16.7451 94.3139 16.2888C94.0776 15.1742 93.7753 13.9489 93.1799 12.932C90.1503 11.6671 86.7457 11.5655 83.4942 11.1236C74.124 10.1476 64.7168 10.1911 55.3017 9.76378Z" fill="#589952"/>
<path d="M54.1083 10.4536C54.4687 10.1885 54.8265 9.76773 55.3017 9.76378C64.7168 10.1911 74.124 10.1476 83.4942 11.1236C86.7457 11.5655 90.1503 11.6671 93.1799 12.932C93.7753 13.9489 94.0776 15.1742 94.3139 16.2888C95.8796 16.7451 97.5007 15.6583 99.1033 16.0408C97.7343 16.6383 96.2175 16.5697 94.7944 16.9417C94.5872 16.9535 94.3799 16.9628 94.1753 16.9641C93.8928 15.5765 92.669 14.5596 91.8664 13.453C79.4718 10.8625 66.6402 11.307 54.1083 10.4536Z" fill="#3D8536"/>
<path d="M52.5664 11.8821C53.0958 11.4758 53.542 10.6897 54.1083 10.4536C66.6402 11.307 79.4718 10.8625 91.8664 13.453C92.669 14.5596 93.8928 15.5765 94.1753 16.9641C93.4228 17.063 92.0684 16.517 92.3416 17.799C92.2796 17.4851 92.2096 17.1712 92.108 16.8678C88.4394 16.8546 84.776 16.6805 81.1087 16.6805C80.1794 16.5605 79.2434 16.5697 78.3127 16.575C78.2071 16.5684 77.9946 16.5552 77.889 16.5486C77.7094 16.5328 77.5299 16.5262 77.3517 16.5302C77.258 16.5288 77.0731 16.5275 76.9807 16.5262C76.7946 16.5183 76.6098 16.5183 76.4263 16.5288C76.2626 16.5302 76.0989 16.5302 75.9378 16.5302C75.3926 16.4668 74.8501 16.4668 74.3075 16.5064C66.3709 16.3706 58.4265 16.1991 50.4899 15.934C49.9262 16.8467 48.9282 17.6803 48.8595 18.8067C53.9578 18.9122 59.0614 19.0481 64.1505 19.3712C64.6944 19.3673 66.4633 19.3488 65.3505 19.9912C64.8237 20.1125 63.9498 19.8843 63.7043 20.5491C61.0891 18.9689 57.8337 19.6852 54.94 19.391C52.7803 19.5058 50.6206 19.3185 48.4635 19.2169C47.1513 19.1088 47.2015 17.0577 48.3038 16.5513C49.2807 15.8852 47.8681 15.438 47.2582 15.3602C46.3579 16.1793 45.2385 14.71 45.6398 14.1072C45.8233 15.0212 46.8794 15.9392 47.4655 14.83C47.88 15.2587 48.4714 15.413 49.0074 15.6306C49.8153 15.008 50.3658 14.0861 51.1209 13.3897C51.3955 13.1008 51.6622 12.8027 51.9367 12.5125C52.148 12.3041 52.3618 12.0984 52.5664 11.8821Z" fill="#316B29"/>
<path d="M45.6398 14.1072C46.0926 13.0335 47.9434 13.8104 47.4655 14.83C46.8794 15.9392 45.8233 15.0212 45.6398 14.1072Z" fill="#D48224"/>
<path d="M50.4899 15.934C58.4265 16.1991 66.3709 16.3706 74.3075 16.5064C75.3464 16.8559 74.3484 18.7342 74.5808 19.5968C71.093 19.8474 67.6343 19.1734 64.1505 19.3712C59.0614 19.0481 53.9578 18.9122 48.8595 18.8067C48.9282 17.6803 49.9262 16.8467 50.4899 15.934ZM53.6305 16.3178C53.4655 16.8137 53.9579 17.9863 53.3994 18.0087C53.307 17.1052 52.4344 18.0496 53.1143 18.5337C54.3684 19.3923 54.445 16.1885 53.6305 16.3178ZM54.9875 16.3323C54.173 16.8586 54.1612 18.593 55.2304 18.7632C56.5083 18.6629 56.4542 15.8654 54.9875 16.3323ZM56.5426 16.3231C56.4199 17.1039 56.371 17.894 56.3908 18.6854C57.2832 19.1246 56.6694 17.2543 57.4232 17.9256C57.6397 20.2761 58.3512 17.2002 58.0133 16.4009C57.2489 15.9313 57.8113 17.646 56.9149 17.2358C56.9149 16.7926 57.3004 16.0804 56.5426 16.3231ZM58.668 16.3257C58.2086 16.8823 58.3723 19.6429 59.035 18.5508C59.0971 16.7583 59.2264 19.3158 60.0753 18.8199C60.1281 18.0272 60.0858 17.2318 60.0779 16.4418C59.509 16.3033 59.6555 17.0432 59.5156 17.3888C59.1908 17.0617 59.2766 16.1806 58.668 16.3257ZM61.831 16.4497C61.9221 17.1316 61.0852 18.9346 62.0687 18.9584C64.1188 19.4187 63.8838 15.6781 61.831 16.4497ZM63.9485 16.5882C63.7637 17.4046 63.7584 18.2488 63.7875 19.0837C64.2152 18.9927 65.4099 19.4095 65.2317 18.5798C64.5505 18.5165 63.67 18.0298 65.0997 18.1301L65.097 17.5379C63.1551 17.1316 65.9828 17.6447 65.2343 16.5776C64.9135 16.5803 64.2706 16.5855 63.9485 16.5882ZM66.6191 16.6423C65.1894 16.4128 65.9142 18.1762 65.6396 19.0784C66.1135 19.1721 67.6079 19.2037 66.9505 18.5653C64.9822 18.3161 67.7821 18.2686 66.9505 17.642C64.7234 17.5365 68.9029 16.7056 66.6191 16.6423ZM67.7716 16.7122C67.6752 17.4851 67.6026 18.2633 67.6277 19.0441C67.9472 19.4609 68.693 18.7698 68.3009 18.2923C68.8435 18.1578 68.6943 18.8713 68.8382 19.1998C69.8521 19.4398 68.924 18.1129 69.4019 17.5814C69.7452 16.6343 68.3656 16.5644 67.7716 16.7122ZM69.8745 16.7135C69.827 17.5392 69.8178 18.3662 69.7425 19.1919C70.26 19.18 71.5498 19.7036 71.3082 18.7038C70.4092 19.0072 69.8587 18.0232 71.1722 18.2672C71.5616 17.5181 69.9854 17.9217 70.5478 17.402C72.2785 17.4046 70.8501 16.1147 69.8745 16.7135Z" fill="#9E8922"/>
<path d="M99.2947 16.05C99.5086 16.0105 99.7224 15.9643 99.9376 15.9115C99.8373 17.0274 100.191 18.7223 99.8426 19.5981C99.8967 19.0784 99.7106 18.7408 99.0584 18.9149C99.1455 17.9639 99.0149 16.9707 99.2947 16.05Z" fill="#38392D"/>
<path d="M99.1033 16.0408C99.1508 16.0434 99.2472 16.0487 99.2947 16.05C99.0149 16.9707 99.1455 17.9639 99.0584 18.9149C99.7106 18.7408 99.8967 19.0784 99.8426 19.5981C98.7007 20.0083 97.4637 19.8883 96.2888 20.1059C95.0875 20.0307 96.6677 19.3343 96.9541 18.837C95.9839 18.5733 94.8723 18.961 93.9958 18.5904C95.9641 18.8357 93.9601 18.3622 94.3971 18.3081C95.1337 18.4928 94.6532 16.9905 94.0195 17.4825C93.0981 17.3717 94.9317 17.6091 94.7944 16.9417C96.2175 16.5697 97.7343 16.6383 99.1033 16.0408Z" fill="#646D50"/>
<path d="M53.6305 16.3178C54.445 16.1885 54.3684 19.3923 53.1143 18.5337C52.4344 18.0496 53.307 17.1052 53.3994 18.0087C53.9579 17.9863 53.4655 16.8137 53.6305 16.3178Z" fill="#312E23"/>
<path d="M55.2304 18.7632C56.5083 18.6629 56.4542 15.8654 54.9875 16.3323C54.173 16.8586 54.1612 18.593 55.2304 18.7632Z" fill="#494323"/>
<path d="M56.5426 16.3231C57.3004 16.0804 56.9149 16.7926 56.9149 17.2358C57.8113 17.646 57.2489 15.9313 58.0133 16.4009C58.3512 17.2002 57.6397 20.2761 57.4232 17.9256C56.6694 17.2543 57.2832 19.1246 56.3908 18.6854C56.371 17.894 56.4199 17.1039 56.5426 16.3231Z" fill="#323021"/>
<path d="M58.668 16.3257C59.2766 16.1806 59.1908 17.0617 59.5156 17.3888C59.6555 17.0432 59.509 16.3033 60.0779 16.4418C60.0858 17.2318 60.1281 18.0272 60.0753 18.8199C59.2264 19.3158 59.0971 16.7583 59.035 18.5508C58.3723 19.6429 58.2086 16.8823 58.668 16.3257Z" fill="#2D2C21"/>
<path d="M62.0687 18.9584C64.1188 19.4187 63.8838 15.6781 61.831 16.4497C61.9221 17.1316 61.0852 18.9346 62.0687 18.9584Z" fill="#3F3B20"/>
<path d="M74.3075 16.5064C74.8501 16.4668 75.3926 16.4668 75.9378 16.5302C76.1807 17.2767 74.9346 19.9872 76.4012 19.6799C76.5042 18.6313 76.4646 17.5774 76.4263 16.5288C76.6098 16.5183 76.7946 16.5183 76.9807 16.5262C77.2791 17.2938 75.9233 19.8012 77.2263 19.7326C77.3768 18.6722 77.4045 17.5972 77.3517 16.5302C77.5299 16.5262 77.7094 16.5328 77.889 16.5486C78.1306 17.4468 77.0058 19.6166 78.1398 19.887C78.2098 18.7843 78.3088 17.679 78.3127 16.575C79.2434 16.5697 80.1794 16.5605 81.1087 16.6805C80.9662 17.7832 80.9345 18.8977 80.8883 20.0096C81.4625 19.9094 82.2031 20.2919 82.7127 19.9384C83.2275 19.9147 83.7437 19.8975 84.2638 19.8883C82.0619 20.2866 85.7807 20.1653 86.3971 20.0571C86.5437 20.0571 86.6928 20.0624 86.842 20.0703C88.3021 20.3473 89.8691 20.2352 91.3661 20.2695C91.972 20.5966 92.0156 20.0571 92.17 19.7379C92.1568 19.9503 92.1515 20.1653 92.1753 20.3803C92.3562 20.3895 94.739 21.0002 92.9661 20.9316C92.1793 20.5768 91.337 20.7667 90.5199 20.9144C82.1384 20.5095 73.728 20.4726 65.3505 19.9912C66.4633 19.3488 64.6944 19.3673 64.1505 19.3712C67.6343 19.1734 71.093 19.8474 74.5808 19.5968C74.3484 18.7342 75.3464 16.8559 74.3075 16.5064ZM74.887 16.5776C74.8487 17.6341 74.8725 18.6946 74.7537 19.7485C75.7279 20.1521 75.5022 18.87 75.5405 18.4229C75.3227 17.8412 76.2415 16.2162 74.887 16.5776Z" fill="#374B1C"/>
<path d="M63.9485 16.5882C64.2706 16.5855 64.9135 16.5803 65.2343 16.5776C65.9828 17.6447 63.1551 17.1316 65.097 17.5379L65.0997 18.1301C63.67 18.0298 64.5505 18.5165 65.2317 18.5798C65.4099 19.4095 64.2152 18.9927 63.7875 19.0837C63.7584 18.2488 63.7637 17.4046 63.9485 16.5882Z" fill="#35321E"/>
<path d="M66.6191 16.6423C68.9029 16.7056 64.7234 17.5365 66.9505 17.642C67.7821 18.2686 64.9822 18.3161 66.9505 18.5653C67.6079 19.2037 66.1135 19.1721 65.6396 19.0784C65.9142 18.1762 65.1894 16.4128 66.6191 16.6423Z" fill="#2E2C1D"/>
<path d="M74.887 16.5776C76.2415 16.2162 75.3227 17.8412 75.5405 18.4229C75.5022 18.87 75.7279 20.1521 74.7537 19.7485C74.8725 18.6946 74.8487 17.6341 74.887 16.5776Z" fill="#97821C"/>
<path d="M75.9378 16.5302C76.0989 16.5302 76.2626 16.5302 76.4263 16.5288C76.4646 17.5774 76.5042 18.6313 76.4012 19.6799C74.9346 19.9872 76.1807 17.2767 75.9378 16.5302Z" fill="#947E1C"/>
<path d="M76.9807 16.5262C77.0731 16.5275 77.258 16.5288 77.3517 16.5302C77.4045 17.5972 77.3768 18.6722 77.2263 19.7326C75.9233 19.8012 77.2791 17.2938 76.9807 16.5262Z" fill="#94801D"/>
<path d="M77.889 16.5486C77.9946 16.5552 78.2071 16.5684 78.3127 16.575C78.3088 17.679 78.2098 18.7843 78.1398 19.887C77.0058 19.6166 78.1306 17.4468 77.889 16.5486Z" fill="#8F7B1C"/>
<path d="M67.7716 16.7122C68.3656 16.5644 69.7452 16.6343 69.4019 17.5814C68.924 18.1129 69.8521 19.4398 68.8382 19.1998C68.6943 18.8713 68.8435 18.1578 68.3009 18.2923C68.693 18.7698 67.9472 19.4609 67.6277 19.0441C67.6026 18.2633 67.6752 17.4851 67.7716 16.7122Z" fill="#34301C"/>
<path d="M69.8745 16.7135C70.8501 16.1147 72.2785 17.4046 70.5478 17.402C69.9854 17.9217 71.5616 17.5181 71.1722 18.2672C69.8587 18.0232 70.4092 19.0072 71.3082 18.7038C71.5498 19.7036 70.26 19.18 69.7425 19.1919C69.8178 18.3662 69.827 17.5392 69.8745 16.7135Z" fill="#2E2B1C"/>
<path d="M81.1087 16.6805C84.776 16.6805 88.4394 16.8546 92.108 16.8678C92.2096 17.1712 92.2796 17.4851 92.3416 17.799C92.2902 18.4414 92.3799 19.1154 92.17 19.7379C92.0156 20.0571 91.972 20.5966 91.3661 20.2695C89.8691 20.2352 88.3021 20.3473 86.842 20.0703C88.1529 19.8157 87.0572 18.1894 87.4348 17.3571C86.9173 16.5961 84.0764 17.0841 85.3701 18.0839C85.8612 17.6394 87.4796 17.7397 86.3074 18.2422C85.275 18.688 86.8301 18.7197 86.908 19.362C86.1094 19.6746 85.6117 18.9874 84.8909 18.9439C84.6427 19.949 85.6935 20.0835 86.3971 20.0571C85.7807 20.1653 82.0619 20.2866 84.2638 19.8883C85.0678 19.3818 84.1767 18.3398 84.4922 17.6236C84.5912 16.5803 82.6414 16.6858 82.2124 17.3268C81.4625 19.0943 84.1199 16.6119 83.8388 18.1182C82.7312 17.6038 82.8632 19.2222 83.8282 18.8779C84.0473 19.6007 82.8328 19.2393 82.5398 18.9215C81.5021 18.2738 82.0011 20.1178 82.7127 19.9384C82.2031 20.2919 81.4625 19.9094 80.8883 20.0096C80.9345 18.8977 80.9662 17.7832 81.1087 16.6805ZM88.5199 17.1422C87.4427 17.5774 87.4796 20.4423 88.9965 20.0189C91.704 20.9712 91.1945 15.6042 88.5199 17.1422Z" fill="#272515"/>
<path d="M82.2124 17.3268C82.6414 16.6858 84.5912 16.5803 84.4922 17.6236C84.1767 18.3398 85.0678 19.3818 84.2638 19.8883C83.7437 19.8975 83.2275 19.9147 82.7127 19.9384C82.0011 20.1178 81.5021 18.2738 82.5398 18.9215C82.8328 19.2393 84.0473 19.6007 83.8282 18.8779C82.8632 19.2222 82.7312 17.6038 83.8388 18.1182C84.1199 16.6119 81.4625 19.0943 82.2124 17.3268Z" fill="#947F1B"/>
<path d="M92.3416 17.799C92.0684 16.517 93.4228 17.063 94.1753 16.9641C94.3799 16.9628 94.5872 16.9535 94.7944 16.9417C94.9317 17.6091 93.0981 17.3717 94.0195 17.4825C94.6532 16.9905 95.1337 18.4928 94.3971 18.3081C93.9601 18.3622 95.9641 18.8357 93.9958 18.5904C94.8723 18.961 95.9839 18.5733 96.9541 18.837C96.6677 19.3343 95.0875 20.0307 96.2888 20.1059C94.9568 20.5346 93.5509 20.5755 92.1753 20.3803C92.1515 20.1653 92.1568 19.9503 92.17 19.7379C92.3799 19.1154 92.2902 18.4414 92.3416 17.799Z" fill="#818977"/>
<path d="M85.3701 18.0839C84.0764 17.0841 86.9173 16.5961 87.4348 17.3571C87.0572 18.1894 88.1529 19.8157 86.842 20.0703C86.6928 20.0624 86.5437 20.0571 86.3971 20.0571C85.6935 20.0835 84.6427 19.949 84.8909 18.9439C85.6117 18.9874 86.1094 19.6746 86.908 19.362C86.8301 18.7197 85.275 18.688 86.3074 18.2422C87.4796 17.7397 85.8612 17.6394 85.3701 18.0839Z" fill="#947F1A"/>
<path d="M88.9965 20.0189C91.704 20.9712 91.1945 15.6042 88.5199 17.1422C87.4427 17.5774 87.4796 20.4423 88.9965 20.0189ZM88.772 17.9085C88.1173 18.6181 88.9291 19.978 89.9351 19.2327C90.4473 18.4822 89.8281 17.3888 88.772 17.9085Z" fill="#988319"/>
<path d="M89.9351 19.2327C90.4473 18.4822 89.8281 17.3888 88.772 17.9085C88.1173 18.6181 88.9291 19.978 89.9351 19.2327Z" fill="#2B2613"/>
<path d="M21.0222 18.5521C21.6902 19.4543 22.6921 20.1745 23.8459 20.2273C26.3277 20.5636 28.8426 20.6731 31.3442 20.6454C32.5719 20.739 33.7983 20.8564 35.0287 20.9329C38.2814 20.6836 41.5131 20.1217 44.7566 19.7392C45.4193 20.408 42.2352 20.1837 42.9335 20.9329C42.5415 20.9342 41.5038 20.6084 41.8761 21.3365C42.0438 22.8072 40.3527 22.9773 39.2913 23.2121C36.9283 23.5128 34.5481 24.2053 32.1481 23.9455C29.2386 22.8824 26.2287 23.0842 23.2215 22.9035C23.1964 22.2638 24.0598 22.5144 24.4347 22.3548C26.5152 22.0712 28.6023 21.8391 30.6815 21.5515C29.595 20.6955 26.7423 22.43 26.3858 20.9342C24.7436 20.4489 21.6466 20.9118 21.0222 18.5521Z" fill="#273524"/>
<path d="M48.4635 19.2169C50.6206 19.3185 52.7803 19.5058 54.94 19.391C57.8337 19.6852 61.0891 18.9689 63.7043 20.5491C64.4752 21.0002 65.2766 21.3972 66.0594 21.8285C67.1617 26.929 66.3393 32.6191 66.4435 37.7869C69.6409 38.2432 73.2422 39.1335 76.6533 39.4633C77.8943 39.826 79.3266 39.2971 80.4487 40.0436C75.6936 39.673 70.8659 39.3578 66.1676 38.606C65.6158 37.5046 65.765 36.2318 65.7597 35.0421C66.0633 30.9756 65.7386 26.8815 65.9894 22.8204C65.6686 21.5185 64.2759 21.2376 63.2502 20.6784C61.6898 19.7603 62.5795 22.8085 62.2865 23.5273C61.7267 25.2921 62.1452 27.2007 61.6409 28.9457C61.1485 28.8006 60.1809 28.3786 60.4066 27.7085C60.3617 26.0664 57.8852 27.3959 57.2159 27.8879C56.7275 26.532 57.076 24.8292 56.643 23.4126C54.7222 24.6524 57.0601 27.4817 55.5327 28.9747C55.645 29.3638 55.637 29.7727 55.6172 30.175C54.0859 30.051 52.573 29.9956 51.0602 29.7543C50.5242 30.0392 50.6866 29.2676 50.5797 28.951C50.548 28.55 50.5321 28.1623 50.4609 27.7718C50.3236 26.9501 50.2047 26.1231 50.0965 25.2974C50.0873 25.2367 50.0688 25.1154 50.0609 25.0534C49.8787 23.2253 49.6028 21.4011 49.2939 19.5928C49.3044 19.0942 48.5242 19.581 48.4635 19.2169Z" fill="#254B19"/>
<path d="M96.2888 20.1059C97.4637 19.8883 98.7007 20.0083 99.8426 19.5981C98.7297 25.1167 97.4479 30.6063 96.2822 36.1184C96.0551 36.8108 96.1792 37.771 95.4452 38.176C94.1964 39.2641 92.6849 39.892 91.1931 40.5607C90.8908 40.6979 90.5978 40.8601 90.2862 40.9775C89.8638 39.8814 90.4156 38.7656 90.5832 37.6813C91.5377 32.4437 92.7152 27.2429 93.7119 22.0198C93.4862 21.4038 92.1027 21.1097 91.9601 21.9301C91.506 22.5816 90.8644 21.6992 90.3509 21.7428C88.6743 27.7098 87.8255 33.9565 86.4434 40.0186C85.3186 40.4011 83.8691 40.0885 82.6282 40.2204C82.2388 40.2006 81.8665 40.2164 81.4863 40.1821C80.5899 39.2101 81.2738 37.8845 81.3424 36.7541C81.7688 32.5571 82.6388 28.4221 83.0625 24.2251C82.9186 22.9813 81.0124 23.4917 80.1635 23.0169C78.2982 23.2728 76.5821 22.2044 74.7669 22.5249C74.7854 22.4471 74.8237 22.2928 74.8421 22.215C79.4243 21.8351 84.2044 23.4139 88.6097 21.752C89.2169 21.5924 90.413 21.7837 90.5199 20.9144C91.337 20.7667 92.1793 20.5768 92.9661 20.9316C94.739 21.0002 92.3562 20.3895 92.1753 20.3803C93.5509 20.5755 94.9568 20.5346 96.2888 20.1059ZM85.213 23.1936C84.5807 23.9257 84.6546 25.2302 84.7272 26.1165C85.8401 26.3922 87.1351 26.1257 88.3034 26.1917C88.7443 25.2856 89.4585 24.1763 88.9648 23.1963C87.7173 23.1092 86.4605 23.1791 85.213 23.1936Z" fill="#387528"/>
<path d="M63.7043 20.5491C63.9498 19.8843 64.8237 20.1125 65.3505 19.9912C73.728 20.4726 82.1384 20.5095 90.5199 20.9144C90.413 21.7837 89.2169 21.5924 88.6097 21.752C84.2044 23.4139 79.4243 21.8351 74.8421 22.215C71.9154 22.1437 68.9768 22.091 66.0594 21.8285C65.2766 21.3972 64.4752 21.0002 63.7043 20.5491Z" fill="#3D7E42"/>
<path d="M62.2865 23.5273C62.5795 22.8085 61.6898 19.7603 63.2502 20.6784C64.2759 21.2376 65.6686 21.5185 65.9894 22.8204C65.7386 26.8815 66.0633 30.9756 65.7597 35.0421C65.765 36.2318 65.6158 37.5046 66.1676 38.606C65.1525 37.5574 64.8119 35.9983 64.0106 34.7862C63.464 34.5567 63.1089 36.2107 63.2145 34.6859C63.4772 32.1469 61.8746 29.7081 59.74 28.5302C58.9215 28.5025 57.909 29.7292 59.1987 29.836C61.0112 29.3678 62.0753 31.2474 62.4238 32.7286C61.8733 32.2788 61.5103 31.676 61.3241 31.0007C59.3849 30.907 57.4654 30.7672 55.6172 30.175C55.637 29.7727 55.645 29.3638 55.5327 28.9747C57.0601 27.4817 54.7222 24.6524 56.643 23.4126C57.076 24.8292 56.7275 26.532 57.2159 27.8879C57.8852 27.3959 60.3617 26.0664 60.4066 27.7085C60.1809 28.3786 61.1485 28.8006 61.6409 28.9457C62.1452 27.2007 61.7267 25.2921 62.2865 23.5273Z" fill="#27361A"/>
<path d="M41.8761 21.3365C41.5038 20.6084 42.5415 20.9342 42.9335 20.9329C44.9494 20.805 47.3823 20.8762 48.7355 22.637C49.3044 23.3651 49.6463 24.2343 50.0609 25.0534C50.0688 25.1154 50.0873 25.2367 50.0965 25.2974C48.5071 24.9571 45.8972 26.5254 45.1883 24.3464C44.6787 22.8336 43.7494 21.1374 41.8761 21.3365Z" fill="#4D964C"/>
<path d="M18.9113 21.8272C21.1806 21.5317 23.9198 21.1149 26.3858 20.9342C26.7423 22.43 29.595 20.6955 30.6815 21.5515C28.6023 21.8391 26.5152 22.0712 24.4347 22.3548C24.0598 22.5144 23.1964 22.2638 23.2215 22.9035C21.7522 22.79 20.3384 22.2018 18.9113 21.8272Z" fill="#4C5E41"/>
<path d="M41.8761 21.3365C43.7494 21.1374 44.6787 22.8336 45.1883 24.3464C45.8972 26.5254 48.5071 24.9571 50.0965 25.2974C50.2047 26.1231 50.3236 26.9501 50.4609 27.7718C49.1883 27.7125 48.1216 28.8389 46.7632 28.4986C45.8893 28.8943 44.7223 28.9035 43.9474 29.4984C41.686 29.6316 38.7804 30.0603 37.2795 27.8932C35.7428 26.652 36.9138 29.3243 36.9653 30.1961C36.6524 29.501 36.4108 28.7598 35.9382 28.153C36.2867 29.4338 36.8887 30.6353 37.3917 31.862C37.529 32.2379 37.496 31.7855 37.5144 31.6246C38.1534 33.7323 39.3111 35.6923 39.8101 37.8132C39.492 38.5387 40.7144 38.4424 40.5349 39.1006C40.2484 39.4607 39.8722 40.2758 40.5705 40.3773C39.8088 40.682 38.9507 40.7388 38.2497 41.1846C40.8715 41.4246 43.4827 42.2318 46.1177 42.1646C46.4701 42.7819 45.3758 42.7542 45.0642 42.8663C42.6444 43.2963 40.3659 41.9562 37.9738 42.1184C36.193 42.0749 34.2564 41.5618 33.1475 40.0634C30.5693 35.8677 28.8954 31.1827 26.568 26.8485C25.731 25.3146 24.0307 24.5482 22.3238 24.659C17.5701 24.1868 12.7807 24.0866 8.0388 23.4759C8.28435 23.348 8.54441 23.1936 8.8322 23.2148C14.7873 23.5339 20.7423 23.9085 26.6855 24.3517C28.5033 24.2396 30.4742 24.9228 32.1481 23.9455C34.5481 24.2053 36.9283 23.5128 39.2913 23.2121C40.3527 22.9773 42.0438 22.8072 41.8761 21.3365Z" fill="#41843A"/>
<path d="M91.9601 21.9301C92.1027 21.1097 93.4862 21.4038 93.7119 22.0198C92.7152 27.2429 91.5377 32.4437 90.5832 37.6813C90.4156 38.7656 89.8638 39.8814 90.2862 40.9775C89.8902 40.9748 89.5008 40.8931 89.1087 40.8548C86.9014 40.7242 84.8856 40.107 82.6282 40.2204C83.8691 40.0885 85.3186 40.4011 86.4434 40.0186C87.8255 33.9565 88.6743 27.7098 90.3509 21.7428C90.8644 21.6992 91.506 22.5816 91.9601 21.9301Z" fill="#2C611E"/>
<path d="M8.8322 23.2148C12.1629 22.5764 15.5529 22.2822 18.9113 21.8272C20.3384 22.2018 21.7522 22.79 23.2215 22.9035C26.2287 23.0842 29.2386 22.8824 32.1481 23.9455C30.4742 24.9228 28.5033 24.2396 26.6855 24.3517C20.7423 23.9085 14.7873 23.5339 8.8322 23.2148Z" fill="#568C4F"/>
<path d="M66.0594 21.8285C68.9768 22.091 71.9154 22.1437 74.8421 22.215C74.8237 22.2928 74.7854 22.4471 74.7669 22.5249C76.5821 22.2044 78.2982 23.2728 80.1635 23.0169C81.0124 23.4917 82.9186 22.9813 83.0625 24.2251C82.6388 28.4221 81.7688 32.5571 81.3424 36.7541C81.2738 37.8845 80.5899 39.2101 81.4863 40.1821C81.1299 40.1373 80.7932 40.1004 80.4487 40.0436C79.3266 39.2971 77.8943 39.826 76.6533 39.4633C73.2422 39.1335 69.6409 38.2432 66.4435 37.7869C66.3393 32.6191 67.1617 26.929 66.0594 21.8285Z" fill="#2C5F20"/>
<path d="M85.213 23.1936C86.4605 23.1791 87.7173 23.1092 88.9648 23.1963C89.4585 24.1763 88.7443 25.2856 88.3034 26.1917C87.1351 26.1257 85.8401 26.3922 84.7272 26.1165C84.6546 25.2302 84.5807 23.9257 85.213 23.1936Z" fill="#191C18"/>
<path d="M7.1266 25.1642C7.14112 24.5166 7.46455 23.7582 8.0388 23.4759C12.7807 24.0866 17.5701 24.1868 22.3238 24.659C24.0307 24.5482 25.731 25.3146 26.568 26.8485C28.8954 31.1827 30.5693 35.8677 33.1475 40.0634C34.2564 41.5618 36.193 42.0749 37.9738 42.1184C40.3659 41.9562 42.6444 43.2963 45.0642 42.8663C45.3758 42.7542 46.4701 42.7819 46.1177 42.1646C46.9084 41.8757 47.752 41.6357 48.3632 41.0171C45.7823 40.8311 43.1065 39.7192 40.5705 40.3773C39.8722 40.2758 40.2484 39.4607 40.5349 39.1006C40.7144 38.4424 39.492 38.5387 39.8101 37.8132C39.3111 35.6923 38.1534 33.7323 37.5144 31.6246C37.2821 31.1682 37.055 30.7039 36.9653 30.1961C36.9138 29.3243 35.7428 26.652 37.2795 27.8932C38.7804 30.0603 41.686 29.6316 43.9474 29.4984C45.8114 29.4944 47.6767 29.9561 49.5315 29.7688C50.5493 29.8796 49.8747 29.5472 49.6925 29.3243C49.818 28.9998 50.2972 29.0671 50.5797 28.951C50.6866 29.2676 50.5242 30.0392 51.0602 29.7543C52.573 29.9956 54.0859 30.051 55.6172 30.175C57.4654 30.7672 59.3849 30.907 61.3241 31.0007C61.5103 31.676 61.8733 32.2788 62.4238 32.7286C62.5796 33.4646 62.7459 34.2836 62.4225 34.9959C61.9419 35.3507 61.3162 35.4602 60.7789 35.7174C61.1419 34.6424 59.4614 34.9313 58.8766 34.7519C60.8911 33.7244 57.1895 33.1836 57.1855 32.0176C57.1961 30.9413 55.9829 31.4386 55.4799 31.7604C53.5433 32.9779 51.9315 34.6305 50.2113 36.1236C48.5546 37.6893 46.321 36.1302 44.4609 35.8757C42.2391 35.7952 41.154 33.5397 39.3824 32.7035C38.919 35.0777 40.2444 38.4675 42.9916 38.9317C45.3401 39.1045 47.6609 39.6677 50.0014 39.7561C51.4905 38.6297 53.2885 37.6655 54.0437 35.8638C54.6509 34.7163 55.8628 35.1238 56.7816 35.6066C56.1057 36.0432 55.839 37.0733 56.3974 37.7038C54.5572 38.7932 52.8767 40.1307 51.047 41.2413C48.5493 42.0353 46.5718 44.2749 43.7586 43.9795C40.3263 43.1868 36.4821 43.6313 33.3613 41.8335C29.5475 37.3714 28.762 30.9216 24.5773 26.7338C20.0479 25.9253 15.1952 25.3607 10.5444 25.5836C9.37741 25.2091 8.18534 26.0295 7.1266 25.1642Z" fill="#306829"/>
<path d="M7.91735 28.8217C5.79592 29.538 7.22825 26.1429 7.1266 25.1642C8.18534 26.0295 9.37741 25.2091 10.5444 25.5836C15.1952 25.3607 20.0479 25.9253 24.5773 26.7338C28.762 30.9216 29.5475 37.3714 33.3613 41.8335C36.4821 43.6313 40.3263 43.1868 43.7586 43.9795C46.5718 44.2749 48.5493 42.0353 51.047 41.2413C50.3605 41.7636 49.6516 42.2609 49.0048 42.8346C47.5196 43.4901 46.5625 45.0822 44.6906 44.759C43.7018 44.3963 42.2589 44.0322 41.2504 44.3791C39.8867 43.9135 38.3976 44.0045 36.9824 43.7935C35.8405 43.5205 34.564 43.7289 33.5277 43.0918C33.0696 42.7331 32.6102 42.3835 32.1482 42.0327C30.3726 39.0874 29.2228 35.8189 27.6611 32.7602C26.6974 30.6934 25.7575 27.9736 23.3007 27.3445C20.8968 27.0015 18.4546 26.9053 16.0335 26.6969C15.5318 26.6401 15.0315 26.5861 14.5312 26.5359C12.7582 26.5096 10.9814 26.0928 9.21899 26.2827C8.40052 26.805 8.02824 27.8971 7.91735 28.8217Z" fill="#29561B"/>
<path d="M9.21899 26.2827C10.9814 26.0928 12.7582 26.5096 14.5312 26.5359C14.411 27.0055 14.609 27.6927 14.0189 27.9262C12.048 28.5355 9.94374 28.5395 7.91735 28.8217C8.02824 27.8971 8.40052 26.805 9.21899 26.2827Z" fill="#132A0B"/>
<path d="M16.0335 26.6969C18.4546 26.9053 20.8968 27.0015 23.3007 27.3445C25.7575 27.9736 26.6974 30.6934 27.6611 32.7602C29.2228 35.8189 30.3726 39.0874 32.1482 42.0327C32.0043 42.059 31.83 42.1659 31.7402 41.9905C29.5911 39.5583 28.8901 36.2265 26.7541 33.7824C25.5462 32.1416 24.1099 30.1328 21.9185 29.9086C20.5034 29.2069 18.9588 28.9932 17.5423 29.257C17.0816 29.1396 16.6143 29.0855 16.1404 29.0961C16.1325 28.2928 16.0849 27.4948 16.0335 26.6969Z" fill="#0B0C0C"/>
<path d="M46.7632 28.4986C48.1216 28.8389 49.1883 27.7125 50.4609 27.7718C50.5321 28.1623 50.548 28.55 50.5797 28.951C50.2972 29.0671 49.818 28.9998 49.6925 29.3243C49.8747 29.5472 50.5493 29.8796 49.5315 29.7688C47.6767 29.9561 45.8114 29.4944 43.9474 29.4984C44.7223 28.9035 45.8893 28.8943 46.7632 28.4986Z" fill="#636951"/>
<path d="M35.9382 28.153C36.4108 28.7598 36.6524 29.501 36.9653 30.1961C37.055 30.7039 37.2821 31.1682 37.5144 31.6246C37.496 31.7855 37.529 32.2379 37.3917 31.862C36.8887 30.6353 36.2867 29.4338 35.9382 28.153Z" fill="#C1D5BF"/>
<path d="M59.1987 29.836C57.909 29.7292 58.9215 28.5025 59.74 28.5302C61.8746 29.7081 63.4772 32.1469 63.2145 34.6859C63.1089 36.2107 63.464 34.5567 64.0106 34.7862C64.8119 35.9983 65.1525 37.5574 66.1676 38.606C70.8659 39.3578 75.6936 39.673 80.4487 40.0436C80.7932 40.1004 81.1299 40.1373 81.4863 40.1821C81.8665 40.2164 82.2388 40.2006 82.6282 40.2204C84.8856 40.107 86.9014 40.7242 89.1087 40.8548C90.2189 41.2835 88.3153 42.4798 87.7331 42.6183C86.2242 42.5708 84.6916 43.0602 83.2289 42.4666C80.8962 43.4176 78.2375 43.8305 76.4382 45.7126C75.959 46.6715 74.5148 45.7113 74.1504 46.6649C73.9616 46.6175 73.7755 46.5634 73.5907 46.5093C72.6811 45.925 72.0052 44.8223 70.8567 44.7339C68.8277 44.6654 66.8277 44.2802 64.8053 44.1457C67.7241 44.7854 70.5861 45.739 73.4732 46.5528C73.0811 46.8377 72.6045 46.9063 72.1333 46.9538C70.0329 46.3273 67.9604 45.5755 65.7927 45.218C64.8568 45.007 63.9208 44.7959 62.9769 44.6363C63.0139 44.453 63.0878 44.0876 63.1261 43.9056C61.0733 43.6854 59.039 43.3121 56.973 43.2395C56.8344 43.7803 56.8278 44.6495 56.1492 44.825C55.8469 44.9766 54.8951 45.1956 55.7321 45.2299C55.6872 45.4765 55.6384 45.7245 55.5948 45.9725C54.206 46.0226 53.2423 45.0307 52.6787 43.9017C52.9546 41.7939 50.2576 42.5563 49.0048 42.8346C49.6516 42.2609 50.3605 41.7636 51.047 41.2413C52.8767 40.1307 54.5572 38.7932 56.3974 37.7038C57.8232 36.9704 59.3017 36.3413 60.7789 35.7174C61.3162 35.4602 61.9419 35.3507 62.4225 34.9959C62.7459 34.2836 62.5796 33.4646 62.4238 32.7286C62.0753 31.2474 61.0112 29.3678 59.1987 29.836Z" fill="#12130F"/>
<path d="M17.5423 29.257C18.9588 28.9932 20.5034 29.2069 21.9185 29.9086C24.1099 30.1328 25.5462 32.1416 26.7541 33.7824C28.8901 36.2265 29.5911 39.5583 31.7402 41.9905C31.83 42.1659 32.0043 42.059 32.1482 42.0327C32.6102 42.3835 33.0696 42.7331 33.5277 43.0918C33.3561 44.4002 34.7448 45.4871 34.0438 46.8654C33.3217 48.1435 34.5798 49.051 34.1745 50.2816C33.8115 50.7366 34.2696 50.953 34.5085 51.193L34.4438 51.2616C31.5435 51.6111 28.6234 51.7641 25.7363 52.2073C24.6868 52.0925 24.2195 53.1491 24.4545 54.0552C24.2644 56.3173 24.44 58.6782 24.5654 60.8994C23.7033 60.4087 22.8347 61.5655 21.9146 61.0458C20.77 60.3942 19.545 62.3964 18.646 61.1381C17.8513 60.9614 16.8229 60.811 16.1219 61.3848C14.7675 61.2832 14.5061 59.2216 12.8889 59.6582C12.2196 60.4035 11.3338 59.4103 11.2295 58.669C11.1028 57.5927 9.90546 56.8646 8.89688 57.1785C7.95168 56.1933 8.43484 54.1462 6.73981 53.6727C5.16623 53.157 6.18272 51.3711 5.5055 50.3357C4.93256 49.3939 3.85139 48.7384 4.01376 47.4629C5.43025 45.8867 3.00915 44.5295 3.60848 42.8478C3.67581 42.0775 4.62894 41.4906 4.27383 40.6952C3.54512 39.276 4.56425 37.8423 5.44873 36.7831C5.45929 34.6767 7.58337 33.3498 8.98401 32.1271C9.2388 32.5914 9.38665 33.1427 9.78665 33.5107C10.6368 32.7352 11.1094 31.0706 12.5259 31.2302C13.0671 31.6299 12.7332 32.4489 13.1186 32.9317C14.4216 33.181 15.1767 30.9756 16.3463 31.924C17.0618 32.5742 15.945 34.0001 17.1648 34.2784C18.1377 34.1808 18.6975 34.3733 19.0512 35.2914C20.1562 35.8229 19.4275 34.3193 18.8757 34.0884C19.578 33.2614 20.8215 34.467 20.1971 35.2979C19.4644 36.4046 20.605 37.3595 21.6704 37.4149C21.6572 38.0269 22.9139 40.099 22.7185 38.2182C22.044 37.0509 23.409 37.1801 23.7258 38.2723C26.0611 38.23 27.9541 39.7508 29.8683 40.8614C28.5152 37.5178 26.6234 34.2731 24.1337 31.6853C23.97 30.5404 22.4545 31.1432 21.9397 30.5483C20.8849 29.1726 18.5522 30.3386 17.5423 29.257ZM8.21042 43.229C7.39987 47.8916 9.97014 53.8283 14.9259 54.9706C18.4968 56.0812 21.7007 51.9198 21.3958 48.4917C21.4367 43.9874 18.6605 38.8051 13.8843 38.0757C10.9048 37.7381 8.48897 40.4248 8.21042 43.229ZM24.3766 39.0768C22.7674 38.8698 22.4123 40.6174 23.7878 41.2281C24.8849 41.3758 23.9 43.1393 24.9693 43.3714C25.1766 42.7805 24.04 41.2927 25.4697 41.7728C25.7112 42.2213 25.8301 42.8373 26.4056 42.9823C28.7686 43.746 30.5389 45.6058 32.061 47.4827C32.4029 48.1171 31.2531 48.8096 31.0511 47.9615C30.465 45.8788 28.7119 44.3673 26.671 43.7685C25.8855 43.8133 24.2921 43.8515 24.8769 45.0241C25.1753 46.384 27.1172 46.3866 27.265 47.8045C27.7165 48.1396 28.271 48.3123 28.803 48.4812C30.0082 47.2268 31.2003 50.428 32.4082 49.0668C33.1765 48.6817 33.8273 46.7982 32.5376 46.7296C32.3026 46.0384 31.9752 45.3934 31.628 44.7551C32.0082 43.349 30.3845 42.6302 29.7455 41.6159C28.3726 40.2112 26.4241 38.9304 24.3766 39.0768Z" fill="#151514"/>
<path d="M8.98401 32.1271C11.0843 30.6472 13.6388 29.778 16.1404 29.0961C16.6143 29.0855 17.0816 29.1396 17.5423 29.257C18.5522 30.3386 20.8849 29.1726 21.9397 30.5483C22.4545 31.1432 23.97 30.5404 24.1337 31.6853C26.6234 34.2731 28.5152 37.5178 29.8683 40.8614C27.9541 39.7508 26.0611 38.23 23.7258 38.2723C23.409 37.1801 22.044 37.0509 22.7185 38.2182C22.9139 40.099 21.6572 38.0269 21.6704 37.4149C20.605 37.3595 19.4644 36.4046 20.1971 35.2979C20.8215 34.467 19.578 33.2614 18.8757 34.0884C19.4275 34.3193 20.1562 35.8229 19.0512 35.2914C18.6975 34.3733 18.1377 34.1808 17.1648 34.2784C15.945 34.0001 17.0618 32.5742 16.3463 31.924C15.1767 30.9756 14.4216 33.181 13.1186 32.9317C12.7332 32.4489 13.0671 31.6299 12.5259 31.2302C11.1094 31.0706 10.6368 32.7352 9.78665 33.5107C9.38665 33.1427 9.2388 32.5914 8.98401 32.1271Z" fill="#3A3B3C"/>
<path d="M55.4799 31.7604C55.9829 31.4386 57.1961 30.9413 57.1855 32.0176C57.1895 33.1836 60.8911 33.7244 58.8766 34.7519C58.1704 35.017 57.4773 35.3151 56.7816 35.6066C55.8628 35.1238 54.6509 34.7163 54.0437 35.8638C53.2885 37.6655 51.4905 38.6297 50.0014 39.7561C47.6609 39.6677 45.3401 39.1045 42.9916 38.9317C40.2444 38.4675 38.919 35.0777 39.3824 32.7035C41.154 33.5397 42.2391 35.7952 44.4609 35.8757C46.321 36.1302 48.5546 37.6893 50.2113 36.1236C51.9315 34.6305 53.5433 32.9779 55.4799 31.7604Z" fill="#275420"/>
<path d="M56.7816 35.6066C57.4773 35.3151 58.1704 35.017 58.8766 34.7519C59.4614 34.9313 61.1419 34.6424 60.7789 35.7174C59.3017 36.3413 57.8232 36.9704 56.3974 37.7038C55.839 37.0733 56.1057 36.0432 56.7816 35.6066Z" fill="#498D3E"/>
<path d="M8.21042 43.229C8.48897 40.4248 10.9048 37.7381 13.8843 38.0757C18.6605 38.8051 21.4367 43.9874 21.3958 48.4917C21.7007 51.9198 18.4968 56.0812 14.9259 54.9706C15.5424 54.9547 16.7688 55.1882 16.8994 54.3282C16.2381 53.6226 16.6816 52.6399 17.1371 51.9554C15.4909 51.2787 14.4863 49.6353 13.747 48.0815C12.584 47.24 12.4955 45.7878 12.4995 44.4767C11.7589 44.4227 11.3483 43.3068 10.5919 43.7526C10.1734 43.8502 9.68631 44.7023 9.51866 43.8872C9.30216 42.9586 8.94969 41.7794 8.21042 43.229ZM12.5404 38.4424C10.9206 38.5492 10.7596 40.4644 10.3187 41.6396C11.6797 40.9326 12.3041 42.1685 12.8836 43.3015C14.2856 43.3873 15.1675 44.9964 15.3245 46.2547C15.2546 47.6515 16.7437 48.3387 17.7456 48.9824C18.5892 49.7091 18.9298 51.5531 17.6796 52.0332C18.4612 51.5412 20.0057 53.1543 20.3278 51.9079C20.9324 50.548 21.3047 48.646 21.042 47.4656C20.7793 43.7434 18.5839 39.8906 14.9496 38.6112C14.4229 38.2208 13.2467 38.3659 12.5404 38.4424Z" fill="#BAA310"/>
<path d="M91.1931 40.5607C92.6849 39.892 94.1964 39.2641 95.4452 38.176C96.1779 38.3092 97.0914 38.11 97.7013 38.6389C97.7739 39.3617 97.663 40.1043 97.4017 40.781C96.3231 41.8533 94.8948 42.7054 93.4123 43.0351C93.9456 41.4734 92.57 40.5989 91.1931 40.5607Z" fill="#393D3C"/>
<path d="M12.5404 38.4424C13.2467 38.3659 14.4229 38.2208 14.9496 38.6112C13.9318 39.4066 12.3015 38.8566 11.5015 40.0028C13.0737 40.2732 12.3002 43.4229 14.2288 42.4693C15.0711 43.0232 15.2097 44.2987 15.8869 45.0808C15.7985 45.9144 15.7219 47.4748 16.7305 47.7755C18.9034 47.5144 19.0367 50.246 19.5727 51.5254C20.9549 50.8079 20.4281 48.6948 21.042 47.4656C21.3047 48.646 20.9324 50.548 20.3278 51.9079C20.0057 53.1543 18.4612 51.5412 17.6796 52.0332C18.9298 51.5531 18.5892 49.7091 17.7456 48.9824C16.7437 48.3387 15.2546 47.6515 15.3245 46.2547C15.1675 44.9964 14.2856 43.3873 12.8836 43.3015C12.3041 42.1685 11.6797 40.9326 10.3187 41.6396C10.7596 40.4644 10.9206 38.5492 12.5404 38.4424Z" fill="#8D7C0D"/>
<path d="M11.5015 40.0028C12.3015 38.8566 13.9318 39.4066 14.9496 38.6112C18.5839 39.8906 20.7793 43.7434 21.042 47.4656C20.4281 48.6948 20.9549 50.8079 19.5727 51.5254C19.0367 50.246 18.9034 47.5144 16.7305 47.7755C16.7872 47.7346 16.9008 47.6528 16.9589 47.6133C17.9225 46.992 19.7245 47.6304 19.7879 46.0885C20.0968 45.462 18.3423 45.2958 19.1489 44.7735C19.6585 44.1338 18.4268 44.7128 18.1654 44.2182C17.6585 43.8542 16.8862 44.6337 16.7107 43.746C16.4612 44.1721 16.2552 44.6218 15.9648 45.0228L15.8869 45.0808C15.2097 44.2987 15.0711 43.0232 14.2288 42.4693C12.3002 43.4229 13.0737 40.2732 11.5015 40.0028Z" fill="#5F550E"/>
<path d="M24.3766 39.0768C26.4241 38.9304 28.3726 40.2112 29.7455 41.6159C30.3845 42.6302 32.0082 43.349 31.628 44.7551C31.9752 45.3934 32.3026 46.0384 32.5376 46.7296C33.8273 46.7982 33.1765 48.6817 32.4082 49.0668C31.2003 50.428 30.0082 47.2268 28.803 48.4812C28.271 48.3123 27.7165 48.1396 27.265 47.8045C27.1172 46.3866 25.1753 46.384 24.8769 45.0241C24.2921 43.8515 25.8855 43.8133 26.671 43.7685C28.7119 44.3673 30.465 45.8788 31.0511 47.9615C31.2531 48.8096 32.4029 48.1171 32.061 47.4827C30.5389 45.6058 28.7686 43.746 26.4056 42.9823C25.8301 42.8373 25.7112 42.2213 25.4697 41.7728C24.04 41.2927 25.1766 42.7805 24.9693 43.3714C23.9 43.1393 24.8849 41.3758 23.7878 41.2281C22.4123 40.6174 22.7674 38.8698 24.3766 39.0768Z" fill="#404041"/>
<path d="M40.5705 40.3773C43.1065 39.7192 45.7823 40.8311 48.3632 41.0171C47.752 41.6357 46.9084 41.8757 46.1177 42.1646C43.4827 42.2318 40.8715 41.4246 38.2497 41.1846C38.9507 40.7388 39.8088 40.682 40.5705 40.3773Z" fill="#353733"/>
<path d="M90.2862 40.9775C90.5978 40.8601 90.8908 40.6979 91.1931 40.5607C92.57 40.5989 93.9456 41.4734 93.4123 43.0351C94.8948 42.7054 96.3231 41.8533 97.4017 40.781C97.4096 41.3692 97.2406 41.9469 97.1205 42.5194C96.9409 43.2686 96.6017 44.5137 95.6076 44.362C95.506 44.573 95.4756 44.8065 95.4347 45.036C95.1812 46.3642 94.0076 45.8867 93.077 45.7219C93.1469 46.5212 94.1093 46.9934 94.0208 47.8322C93.135 48.1396 92.5383 47.6252 92.1608 46.8944C92.0446 47.9905 93.3463 48.4363 94.2479 48.2952C94.941 48.77 94.3416 49.9189 94.5634 50.6087C93.3463 50.2935 93.7489 54.567 91.3582 53.3706C91.844 52.7019 92.3773 51.9949 92.4842 51.1508C92.6532 50.7973 92.6849 49.4308 92.0591 50.1075C91.7317 51.3038 90.4077 51.9646 90.4301 53.2335C88.9582 53.3548 87.4625 53.798 85.947 53.2506C85.4031 52.326 84.4619 51.5557 84.4619 50.4003C83.283 50.7063 82.9569 49.0958 81.9074 48.8637C80.549 48.3677 81.8441 47.3033 81.7477 46.4011C80.3642 46.6293 78.557 47.1134 77.9774 45.3671C76.4474 44.7986 78.3603 46.2495 77.419 46.694C76.3827 46.7929 75.2105 46.6992 74.1504 46.6649C74.5148 45.7113 75.959 46.6715 76.4382 45.7126C78.2375 43.8305 80.8962 43.4176 83.2289 42.4666C84.6916 43.0602 86.2242 42.5708 87.7331 42.6183C88.3153 42.4798 90.2189 41.2835 89.1087 40.8548C89.5008 40.8931 89.8902 40.9748 90.2862 40.9775Z" fill="#1D1E1B"/>
<path d="M8.21042 43.229C8.94969 41.7794 9.30216 42.9586 9.51866 43.8872C9.68631 44.7023 10.1734 43.8502 10.5919 43.7526C11.3483 43.3068 11.7589 44.4227 12.4995 44.4767C12.4955 45.7878 12.584 47.24 13.747 48.0815C14.4863 49.6353 15.4909 51.2787 17.1371 51.9554C16.6816 52.6399 16.2381 53.6226 16.8994 54.3282C16.7688 55.1882 15.5424 54.9547 14.9259 54.9706C9.97014 53.8283 7.39987 47.8916 8.21042 43.229Z" fill="#E1C514"/>
<path d="M49.0048 42.8346C50.2576 42.5563 52.9546 41.7939 52.6787 43.9017C53.2423 45.0307 54.206 46.0226 55.5948 45.9725C58.5756 46.5053 61.4878 47.1042 64.4726 47.6805C62.8937 47.8612 61.3188 47.087 59.7611 47.5038C56.0819 48.0749 52.3037 49.3187 48.585 48.4627C49.2595 47.5922 51.2239 46.5779 49.6226 45.7509C47.319 46.475 45.0378 47.3574 42.7672 48.2068C45.0497 48.5418 47.051 47.5289 49.1447 46.777C48.4081 47.6159 47.5988 48.3849 46.7962 49.1604C45.3216 47.2585 42.5877 50.4148 40.5349 49.1446C41.2821 50.122 42.5547 49.8292 43.6081 50.0402C43.3652 50.0969 43.1249 50.1695 42.8847 50.2367C41.9421 50.2763 41.0088 50.3977 40.0728 50.4992C38.8478 50.0178 37.4603 50.0481 36.1745 49.7751C37.8616 48.6566 39.9078 47.8665 41.8497 47.4629C43.1513 47.794 42.9494 46.2138 42.952 45.3525C43.4629 44.9898 44.0701 44.8025 44.6906 44.759C46.5625 45.0822 47.5196 43.4901 49.0048 42.8346Z" fill="#585618"/>
<path d="M95.6076 44.362C96.6017 44.5137 96.9409 43.2686 97.1205 42.5194C100.334 45.9263 100.47 51.5861 97.4531 55.1236C96.3654 55.3122 96.7772 53.984 96.7324 53.3113C97.2366 50.4148 95.473 47.8599 95.4347 45.036C95.4756 44.8065 95.506 44.573 95.6076 44.362Z" fill="#424242"/>
<path d="M33.5277 43.0918C34.564 43.7289 35.8405 43.5205 36.9824 43.7935C36.3897 44.4134 35.7587 44.9991 35.1897 45.6427C34.7171 46.1927 35.7626 46.7494 35.3178 47.4088C37.6887 48.1923 40.3883 46.6478 41.2504 44.3791C42.2589 44.0322 43.7018 44.3963 44.6906 44.759C44.0701 44.8025 43.4629 44.9898 42.952 45.3525C42.9494 46.2138 43.1513 47.794 41.8497 47.4629C39.9078 47.8665 37.8616 48.6566 36.1745 49.7751C35.6042 50.2301 34.9996 50.6483 34.5085 51.193C34.2696 50.953 33.8115 50.7366 34.1745 50.2816C34.5798 49.051 33.3217 48.1435 34.0438 46.8654C34.7448 45.4871 33.3561 44.4002 33.5277 43.0918Z" fill="#141512"/>
<path d="M56.973 43.2395C59.039 43.3121 61.0733 43.6854 63.1261 43.9056C63.0878 44.0876 63.0139 44.453 62.9769 44.6363C62.7934 46.2772 64.8924 46.0569 65.7927 45.218C67.9604 45.5755 70.0329 46.3273 72.1333 46.9538C71.1102 47.1068 70.2521 47.8837 69.2224 47.9364C66.4567 47.2084 63.637 46.7375 60.8634 46.0767C61.1617 45.5662 62.1954 45.7337 62.1875 45.0769C61.1961 45.2932 60.1928 45.2365 59.1908 45.0861C58.1888 45.8115 56.8529 45.3723 55.7321 45.2299C54.8951 45.1956 55.8469 44.9766 56.1492 44.825C56.8278 44.6495 56.8344 43.7803 56.973 43.2395Z" fill="#6D6C32"/>
<path d="M16.7107 43.746C16.8862 44.6337 17.6585 43.8542 18.1654 44.2182C18.4268 44.7128 19.6585 44.1338 19.1489 44.7735C18.3423 45.2958 20.0968 45.462 19.7879 46.0885C19.7245 47.6304 17.9225 46.992 16.9589 47.6133C15.8368 46.777 17.7324 47.7465 17.9225 46.8575C18.6011 45.6612 17.1344 43.9122 15.9648 45.0228C16.2552 44.6218 16.4612 44.1721 16.7107 43.746Z" fill="#20221F"/>
<path d="M36.9824 43.7935C38.3976 44.0045 39.8867 43.9135 41.2504 44.3791C40.3883 46.6478 37.6887 48.1923 35.3178 47.4088C35.7626 46.7494 34.7171 46.1927 35.1897 45.6427C35.7587 44.9991 36.3897 44.4134 36.9824 43.7935Z" fill="#716B21"/>
<path d="M64.8053 44.1457C66.8277 44.2802 68.8277 44.6654 70.8567 44.7339C72.0052 44.8223 72.6811 45.925 73.5907 46.5093L73.4732 46.5528C70.5861 45.739 67.7241 44.7854 64.8053 44.1457Z" fill="#9E993E"/>
<path d="M15.9648 45.0228C17.1344 43.9122 18.6011 45.6612 17.9225 46.8575C17.7324 47.7465 15.8368 46.777 16.9589 47.6133C16.9008 47.6528 16.7872 47.7346 16.7305 47.7755C15.7219 47.4748 15.7985 45.9144 15.8869 45.0808L15.9648 45.0228Z" fill="#4E5341"/>
<path d="M62.9769 44.6363C62.7934 46.2772 64.8924 46.0569 65.7927 45.218C64.8568 45.007 63.9208 44.7959 62.9769 44.6363Z" fill="#B6AE47"/>
<path d="M55.7321 45.2299C56.8529 45.3723 58.1888 45.8115 59.1908 45.0861C60.1928 45.2365 61.1961 45.2932 62.1875 45.0769C62.1954 45.7337 61.1617 45.5662 60.8634 46.0767C63.637 46.7375 66.4567 47.2084 69.2224 47.9364C70.2521 47.8837 71.1102 47.1068 72.1333 46.9538C72.6045 46.9063 73.0811 46.8377 73.4732 46.5528L73.5907 46.5093C73.7755 46.5634 73.9616 46.6175 74.1504 46.6649C75.2105 46.6992 76.3827 46.7929 77.419 46.694C78.3603 46.2495 76.4474 44.7986 77.9774 45.3671C78.557 47.1134 80.3642 46.6293 81.7477 46.4011C81.8441 47.3033 80.549 48.3677 81.9074 48.8637C79.5682 49.0919 77.7055 47.3534 75.394 47.4682C73.7359 47.3838 71.4296 47.2994 70.157 48.3348C72.2851 48.5907 74.3392 49.597 76.4646 50.0745C78.5094 51.4357 80.3523 53.1873 81.782 55.1763C82.5952 58.2285 84.4526 61.1751 83.7675 64.4013C83.9721 65.7651 85.7292 63.6706 85.5259 65.2652C84.4209 67.1923 82.6665 68.8199 80.6969 69.8605C80.7946 69.5691 80.8104 69.2578 80.5741 69.0283C80.3787 69.2142 80.1701 69.879 79.8744 69.4833C79.3741 68.8951 80.7893 69.0824 80.355 68.4849C80.1081 68.1696 79.1444 67.493 79.9906 67.3703C80.3721 67.8003 81.9101 68.717 81.5325 67.5655C80.9886 67.0076 81.0546 65.74 80.1952 65.6068C83.4322 59.4881 77.9259 51.3275 71.1075 51.6098C70.6732 50.5981 69.4547 51.9026 69.0363 50.8844C68.0369 50.705 66.664 50.577 65.4693 50.8487C66.1373 50.0402 67.0191 49.4691 67.8719 48.8782C67.5287 48.5234 67.0983 48.2451 66.6006 48.1818C65.8904 48.0143 65.1815 47.8481 64.4726 47.6805C61.4878 47.1042 58.5756 46.5053 55.5948 45.9725C55.6384 45.7245 55.6872 45.4765 55.7321 45.2299Z" fill="#2E2F2D"/>
<path d="M93.077 45.7219C94.0076 45.8867 95.1812 46.3642 95.4347 45.036C95.473 47.8599 97.2366 50.4148 96.7324 53.3113C96.7772 53.984 96.3654 55.3122 97.4531 55.1236C95.1944 58.1533 91.2063 59.8719 87.4255 59.2995C87.3476 57.6138 86.9146 55.9756 86.7628 54.3005C88.3615 54.749 90.0974 54.4891 91.3582 53.3706C93.7489 54.567 93.3463 50.2935 94.5634 50.6087C94.3416 49.9189 94.941 48.77 94.2479 48.2952C93.3463 48.4363 92.0446 47.9905 92.1608 46.8944C92.5383 47.6252 93.135 48.1396 94.0208 47.8322C94.1093 46.9934 93.1469 46.5212 93.077 45.7219Z" fill="#292928"/>
<path d="M42.7672 48.2068C45.0378 47.3574 47.319 46.475 49.6226 45.7509C51.2239 46.5779 49.2595 47.5922 48.585 48.4627C48.519 49.1248 46.0015 50.1813 46.7962 49.1604C47.5988 48.3849 48.4081 47.6159 49.1447 46.777C47.051 47.5289 45.0497 48.5418 42.7672 48.2068Z" fill="#222422"/>
<path d="M0.193334 48.9283C0.972204 47.8283 2.95635 47.6753 4.01376 47.4629C3.85139 48.7384 4.93256 49.3939 5.5055 50.3357C3.79066 51.0703 1.56362 51.3843 0.456036 53.0145C0.735902 55.2871 3.06459 56.308 4.6461 57.594C8.14705 59.4881 11.9318 61.0392 15.8526 61.6512C18.3397 61.3162 19.6189 63.6759 21.071 65.227C23.5212 65.2745 25.8657 63.9977 28.3264 64.2681C30.2564 64.9197 31.5567 66.6225 33.0775 67.857C36.292 67.6697 39.426 66.538 42.6405 66.3046C44.556 67.5906 46.8002 68.8937 49.183 68.6062C50.5638 67.1843 46.3936 66.8375 47.1315 65.3747C47.81 65.1623 48.5652 65.132 49.1737 64.7258C49.3401 64.8484 49.5064 64.9711 49.6688 65.103C49.0985 65.467 48.4094 65.5277 47.7982 65.7875C48.3579 66.848 50.8344 67.2754 50.1387 68.7605C47.4193 70.0373 44.5916 67.9375 42.2642 66.7187C39.5514 67.373 36.758 67.6526 34.0702 68.4044C32.1165 68.6339 31.2597 66.546 29.8115 65.6807C28.2102 63.842 25.7535 65.0252 23.768 65.3641C22.6208 65.5343 20.8743 66.269 20.0809 64.9869C19.0222 64.1322 18.5681 62.6259 17.1727 62.2263C12.547 61.8715 8.11801 60.0144 4.08109 57.7615C2.60387 56.494 0.366268 55.6393 0.000595284 53.5236C-0.0482491 51.342 2.9207 51.1112 4.50088 50.1945C3.50419 48.9204 0.412473 50.9358 0.193334 48.9283Z" fill="black" fill-opacity="0.24"/>
<path d="M59.7611 47.5038C61.3188 47.087 62.8937 47.8612 64.4726 47.6805C65.1815 47.8481 65.8904 48.0143 66.6006 48.1818C61.5578 50.0745 56.1228 50.4966 50.8516 51.4278C48.4556 51.2273 45.7929 51.1772 43.6081 50.0402C42.5547 49.8292 41.2821 50.122 40.5349 49.1446C42.5877 50.4148 45.3216 47.2585 46.7962 49.1604C46.0015 50.1813 48.519 49.1248 48.585 48.4627C52.3037 49.3187 56.0819 48.0749 59.7611 47.5038Z" fill="#C3B52F"/>
<path d="M70.157 48.3348C71.4296 47.2994 73.7359 47.3838 75.394 47.4682C77.7055 47.3534 79.5682 49.0919 81.9074 48.8637C82.9569 49.0958 83.283 50.7063 84.4619 50.4003C84.4619 51.5557 85.4031 52.326 85.947 53.2506C86.0064 53.7426 86.3245 54.0934 86.7628 54.3005C86.9146 55.9756 87.3476 57.6138 87.4255 59.2995C87.2948 61.3874 86.7932 63.5585 85.5259 65.2652C85.7292 63.6706 83.9721 65.7651 83.7675 64.4013C84.4526 61.1751 82.5952 58.2285 81.782 55.1763C80.3523 53.1873 78.5094 51.4357 76.4646 50.0745C74.3392 49.597 72.2851 48.5907 70.157 48.3348Z" fill="#434344"/>
<path d="M50.8516 51.4278C56.1228 50.4966 61.5578 50.0745 66.6006 48.1818C67.0983 48.2451 67.5287 48.5234 67.8719 48.8782C67.0191 49.4691 66.1373 50.0402 65.4693 50.8487C65.0073 51.3051 64.602 51.8156 64.2099 52.3326C60.3076 52.8853 56.3869 53.7334 52.6219 54.8294C53.6041 54.9323 54.441 55.4454 55.1116 56.1431C54.7803 56.9108 53.9024 56.1722 53.3374 56.2698C51.9513 56.0363 50.5691 55.6934 49.1645 55.6301C48.717 56.0046 48.9097 56.4017 49.4483 56.4584C49.4364 57.4212 49.6767 58.3577 49.6688 59.3219C48.7988 59.8297 48.4688 60.7886 48.086 61.6565C47.0048 61.7778 45.9474 62.0469 44.8715 62.2025C45.2886 61.8702 45.7216 61.5576 46.115 61.1988C45.7652 61.1236 45.4114 61.0735 45.0616 61.0089C46.6193 59.4604 47.4021 56.9899 46.5823 54.9033C50.1282 54.228 53.9301 53.7281 56.9836 51.7839C55.4126 51.5491 53.7057 52.0029 52.0965 52.1189C50.5678 52.4513 49.2015 51.5544 47.7282 51.3565C46.0926 51.0875 44.3883 51.0083 42.8847 50.2367C43.1249 50.1695 43.3652 50.0969 43.6081 50.0402C45.7929 51.1772 48.4556 51.2273 50.8516 51.4278Z" fill="#E9D619"/>
<path d="M34.5085 51.193C34.9996 50.6483 35.6042 50.2301 36.1745 49.7751C37.4603 50.0481 38.8478 50.0178 40.0728 50.4992C38.189 50.6997 36.3092 50.9384 34.4438 51.2616L34.5085 51.193Z" fill="#B6A92D"/>
<path d="M92.0591 50.1075C92.6849 49.4308 92.6532 50.7973 92.4842 51.1508C92.2888 50.4056 92.0816 52.0266 91.8255 52.3735C91.5377 52.8562 90.8037 52.7956 90.4301 53.2335C90.4077 51.9646 91.7317 51.3038 92.0591 50.1075Z" fill="#686017"/>
<path d="M40.0728 50.4992C41.0088 50.3977 41.9421 50.2763 42.8847 50.2367C44.3883 51.0083 46.0926 51.0875 47.7282 51.3565C49.2015 51.5544 50.5678 52.4513 52.0965 52.1189C53.7057 52.0029 55.4126 51.5491 56.9836 51.7839C53.9301 53.7281 50.1282 54.228 46.5823 54.9033C43.4669 54.993 40.2471 56.4716 37.2029 55.9229C37.121 55.6512 37.0471 55.3781 36.956 55.113C36.7989 54.4535 36.1587 54.046 35.5303 53.9207C32.2696 53.3311 28.9733 52.9077 25.7363 52.2073C28.6234 51.7641 31.5435 51.6111 34.4438 51.2616C36.3092 50.9384 38.189 50.6997 40.0728 50.4992Z" fill="#FCF130"/>
<path d="M5.5055 50.3357C6.18272 51.3711 5.16623 53.157 6.73981 53.6727C8.43484 54.1462 7.95168 56.1933 8.89688 57.1785C9.90546 56.8646 11.1028 57.5927 11.2295 58.669C11.3338 59.4103 12.2196 60.4035 12.8889 59.6582C14.5061 59.2216 14.7675 61.2832 16.1219 61.3848C16.8229 60.811 17.8513 60.9614 18.646 61.1381C19.545 62.3964 20.77 60.3942 21.9146 61.0458C22.8347 61.5655 23.7033 60.4087 24.5654 60.8994C25.4208 60.8743 26.2274 60.5683 27.0657 60.4351C28.7 61.8346 31.595 61.7224 32.3897 59.4577C33.0722 59.2784 34.5138 59.2203 34.2075 58.1256C33.8445 56.5876 34.7369 54.9244 36.2009 54.3849C36.4689 54.6065 36.7118 54.8611 36.956 55.113C37.0471 55.3781 37.121 55.6512 37.2029 55.9229C37.228 56.1326 37.2808 56.552 37.3059 56.7617C37.2702 58.0609 37.1422 59.3786 37.3309 60.6752C37.4867 61.5998 37.1144 62.6958 37.6715 63.5255C40.0794 63.1496 42.4754 62.6602 44.8715 62.2025C45.9474 62.0469 47.0048 61.7778 48.086 61.6565C48.2695 62.7341 48.5031 63.8275 49.1737 64.7258C48.5652 65.132 47.81 65.1623 47.1315 65.3747C46.3936 66.8375 50.5638 67.1843 49.183 68.6062C46.8002 68.8937 44.556 67.5906 42.6405 66.3046C39.426 66.538 36.292 67.6697 33.0775 67.857C31.5567 66.6225 30.2564 64.9197 28.3264 64.2681C25.8657 63.9977 23.5212 65.2745 21.071 65.227C19.6189 63.6759 18.3397 61.3162 15.8526 61.6512C11.9318 61.0392 8.14705 59.4881 4.6461 57.594C3.06459 56.308 0.735902 55.2871 0.456036 53.0145C1.56362 51.3843 3.79066 51.0703 5.5055 50.3357Z" fill="#010100" fill-opacity="0.27"/>
<path d="M65.4693 50.8487C66.664 50.577 68.0369 50.705 69.0363 50.8844C69.4547 51.9026 70.6732 50.5981 71.1075 51.6098C77.9259 51.3275 83.4322 59.4881 80.1952 65.6068C81.0546 65.74 80.9886 67.0076 81.5325 67.5655C81.9101 68.717 80.3721 67.8003 79.9906 67.3703C79.1444 67.493 80.1081 68.1696 80.355 68.4849C80.7893 69.0824 79.3741 68.8951 79.8744 69.4833C80.1701 69.879 80.3787 69.2142 80.5741 69.0283C80.8104 69.2578 80.7946 69.5691 80.6969 69.8605C79.852 70.5728 78.7101 70.8683 77.6646 71.1901C70.0792 73.1343 62.4159 66.3679 62.3419 58.793C62.2126 57.0888 62.8119 55.4995 63.2819 53.9022C63.6145 53.3931 63.9168 52.8641 64.2099 52.3326C64.602 51.8156 65.0073 51.3051 65.4693 50.8487ZM68.8237 56.1576C68.099 56.0587 67.3452 55.9295 67.1947 55.08C66.5333 55.5127 66.3617 56.3489 65.8653 56.9253C64.9307 56.5639 64.998 58.057 64.8977 58.5951C64.2403 63.8803 69.2739 69.4161 74.689 68.4954C75.9563 68.0483 76.4157 66.5117 75.6289 65.3549C79.9484 63.3369 78.6837 56.8752 74.7656 55.1856C72.8422 54.1673 70.3168 54.5815 68.8237 56.1576Z" fill="#232322"/>
<path d="M91.8255 52.3735C92.0816 52.0266 92.2888 50.4056 92.4842 51.1508C92.3773 51.9949 91.844 52.7019 91.3582 53.3706C90.0974 54.4891 88.3615 54.749 86.7628 54.3005C86.3245 54.0934 86.0064 53.7426 85.947 53.2506C87.4625 53.798 88.9582 53.3548 90.4301 53.2335C90.8037 52.7956 91.5377 52.8562 91.8255 52.3735Z" fill="#B9A518"/>
<path d="M24.4545 54.0552C24.2195 53.1491 24.6868 52.0925 25.7363 52.2073C28.9733 52.9077 32.2696 53.3311 35.5303 53.9207C36.1587 54.046 36.7989 54.4535 36.956 55.113C36.7118 54.8611 36.4689 54.6065 36.2009 54.3849C33.4696 53.5936 30.5746 53.3337 27.7627 52.8721C26.568 53.1596 27.401 54.2939 27.9647 54.8677C28.6036 56.9029 31.0419 57.6494 31.731 59.5619C31.5066 59.5949 31.2835 59.6305 31.0591 59.6648C30.3053 57.9066 28.1337 57.1653 27.3548 55.3531C27.0551 54.1541 25.4287 54.1132 25.199 52.8549C24.4202 52.6294 24.6103 53.5593 24.4545 54.0552Z" fill="#AA9B09"/>
<path d="M52.6219 54.8294C56.3869 53.7334 60.3076 52.8853 64.2099 52.3326C63.9168 52.8641 63.6145 53.3931 63.2819 53.9022C61.1881 54.7477 58.8885 55.8543 57.8548 57.991C57.6806 58.6413 57.7915 59.4169 57.3136 59.9656C56.4212 60.0737 55.5328 60.2188 54.6747 60.4852C54.4925 60.2491 54.3169 60.0078 54.1559 59.7585C54.5559 58.4593 54.346 57.1785 53.3374 56.2698C53.9024 56.1722 54.7803 56.9108 55.1116 56.1431C54.441 55.4454 53.6041 54.9323 52.6219 54.8294Z" fill="#E0CC08"/>
<path d="M24.4545 54.0552C24.6103 53.5593 24.4202 52.6294 25.199 52.8549C25.4287 54.1132 27.0551 54.1541 27.3548 55.3531C28.1337 57.1653 30.3053 57.9066 31.0591 59.6648C29.7205 59.8811 28.3977 60.1792 27.0657 60.4351C26.2274 60.5683 25.4208 60.8743 24.5654 60.8994C24.44 58.6782 24.2644 56.3173 24.4545 54.0552Z" fill="#DFCC06"/>
<path d="M27.9647 54.8677C27.401 54.2939 26.568 53.1596 27.7627 52.8721C30.5746 53.3337 33.4696 53.5936 36.2009 54.3849C34.7369 54.9244 33.8445 56.5876 34.2075 58.1256C34.5138 59.2203 33.0722 59.2784 32.3897 59.4577C32.1693 59.4947 31.9501 59.5303 31.731 59.5619C31.0419 57.6494 28.6036 56.9029 27.9647 54.8677Z" fill="#716909"/>
<path d="M57.8548 57.991C58.8885 55.8543 61.1881 54.7477 63.2819 53.9022C62.8119 55.4995 62.2126 57.0888 62.3419 58.793C60.6971 59.3047 58.9835 59.5553 57.3136 59.9656C57.7915 59.4169 57.6806 58.6413 57.8548 57.991Z" fill="#9A8E0C"/>
<path d="M68.8237 56.1576C70.3168 54.5815 72.8422 54.1673 74.7656 55.1856C78.6837 56.8752 79.9484 63.3369 75.6289 65.3549C74.7128 65.7269 73.6976 65.8706 72.7181 65.7084C74.5213 66.2281 73.2105 64.669 73.7794 63.8447C73.3214 62.1247 71.4455 63.5202 70.5557 62.44C69.159 61.5101 70.5953 59.9642 70.3273 58.7112C69.6131 58.3129 68.8712 56.8541 67.9828 57.5822C68.1967 57.0704 68.4171 56.5467 68.8237 56.1576ZM70.4963 57.8776C71.5088 58.9156 70.4079 59.8679 70.2428 61.026C69.9933 61.9585 71.1326 62.9399 71.9814 62.3885C73.7108 61.8517 74.5068 63.7035 75.7623 64.3868C76.9068 64.4211 77.6038 63.4806 77.7504 62.4281C78.8645 59.3456 76.5055 55.7831 73.4243 55.0682C71.6435 54.0222 68.9676 56.0363 70.4963 57.8776Z" fill="#B7A112"/>
<path d="M37.2029 55.9229C40.2471 56.4716 43.4669 54.993 46.5823 54.9033C47.4021 56.9899 46.6193 59.4604 45.0616 61.0089C45.4114 61.0735 45.7652 61.1236 46.115 61.1988C45.7216 61.5576 45.2886 61.8702 44.8715 62.2025C42.4754 62.6602 40.0794 63.1496 37.6715 63.5255C37.1144 62.6958 37.4867 61.5998 37.3309 60.6752C37.3639 59.3707 37.4735 58.0583 37.3059 56.7617C37.2808 56.552 37.228 56.1326 37.2029 55.9229Z" fill="#FCEB0B"/>
<path d="M70.4963 57.8776C68.9676 56.0363 71.6435 54.0222 73.4243 55.0682C72.3075 55.1302 71.0336 55.8371 70.6758 56.9213C71.2593 57.5202 72.1596 57.8064 72.4844 58.6795C70.9847 59.4683 72.7273 62.0416 74.0567 61.2291C74.9926 61.613 74.9359 62.5428 75.1722 63.3672C76.2058 63.9304 76.9226 62.8277 77.7504 62.4281C77.6038 63.4806 76.9068 64.4211 75.7623 64.3868C74.5068 63.7035 73.7108 61.8517 71.9814 62.3885C71.1326 62.9399 69.9933 61.9585 70.2428 61.026C70.4079 59.8679 71.5088 58.9156 70.4963 57.8776Z" fill="#81730D"/>
<path d="M65.8653 56.9253C66.3617 56.3489 66.5333 55.5127 67.1947 55.08C67.3452 55.9295 68.099 56.0587 68.8237 56.1576C68.4171 56.5467 68.1967 57.0704 67.9828 57.5822C66.5874 60.9746 69.1656 65.1399 72.7181 65.7084C73.6976 65.8706 74.7128 65.7269 75.6289 65.3549C76.4157 66.5117 75.9563 68.0483 74.689 68.4954C69.2739 69.4161 64.2403 63.8803 64.8977 58.5951C64.998 58.057 64.9307 56.5639 65.8653 56.9253Z" fill="#2D2E2C"/>
<path d="M70.6758 56.9213C71.0336 55.8371 72.3075 55.1302 73.4243 55.0682C76.5055 55.7831 78.8645 59.3456 77.7504 62.4281C76.9226 62.8277 76.2058 63.9304 75.1722 63.3672C74.9359 62.5428 74.9926 61.613 74.0567 61.2291C75.0362 61.0062 75.5616 59.7057 74.8355 58.9499C74.3537 58.1243 73.1313 57.9897 72.4844 58.6795C72.1596 57.8064 71.2593 57.5202 70.6758 56.9213Z" fill="#615809"/>
<path d="M49.1645 55.6301C50.5691 55.6934 51.9513 56.0363 53.3374 56.2698C54.346 57.1785 54.5559 58.4593 54.1559 59.7585C52.9321 58.5938 51.0721 58.3445 49.6688 59.3219C49.6767 58.3577 49.4364 57.4212 49.4483 56.4584C48.9097 56.4017 48.717 56.0046 49.1645 55.6301Z" fill="#B4A508"/>
<path d="M37.3309 60.6752C37.3639 59.3707 37.4735 58.0583 37.3059 56.7617C37.2702 58.0609 37.1422 59.3786 37.3309 60.6752Z" fill="#554F0F"/>
<path d="M67.9828 57.5822C68.8712 56.8541 69.6131 58.3129 70.3273 58.7112C70.5953 59.9642 69.159 61.5101 70.5557 62.44C71.4455 63.5202 73.3214 62.1247 73.7794 63.8447C73.2105 64.669 74.5213 66.2281 72.7181 65.7084C69.1656 65.1399 66.5874 60.9746 67.9828 57.5822Z" fill="#DCC114"/>
<path d="M72.4844 58.6795C73.1313 57.9897 74.3537 58.1243 74.8355 58.9499C75.5616 59.7057 75.0362 61.0062 74.0567 61.2291C72.7273 62.0416 70.9847 59.4683 72.4844 58.6795Z" fill="#C7AF12"/>
<path d="M49.6688 59.3219C51.0721 58.3445 52.9321 58.5938 54.1559 59.7585C54.3169 60.0078 54.4925 60.2491 54.6747 60.4852C55.9195 62.2263 55.3189 65.008 53.1935 65.7361C52.0595 66.393 50.5889 65.93 49.6688 65.103C49.5064 64.9711 49.3401 64.8484 49.1737 64.7258C48.5031 63.8275 48.2695 62.7341 48.086 61.6565C48.4688 60.7886 48.7988 59.8297 49.6688 59.3219Z" fill="#252622"/>
<path d="M57.3136 59.9656C58.9835 59.5553 60.6971 59.3047 62.3419 58.793C62.4159 66.3679 70.0792 73.1343 77.6646 71.1901C76.3128 72.7175 74.2718 73.2899 72.2719 72.8626C65.5379 71.781 58.9387 69.4266 53.1935 65.7361C55.3189 65.008 55.9195 62.2263 54.6747 60.4852C55.5328 60.2188 56.4212 60.0737 57.3136 59.9656Z" fill="black" fill-opacity="0.15"/>
<path d="M31.731 59.5619C31.9501 59.5303 32.1693 59.4947 32.3897 59.4577C31.595 61.7224 28.7 61.8346 27.0657 60.4351C28.3977 60.1792 29.7205 59.8811 31.0591 59.6648C31.2835 59.6305 31.5066 59.5949 31.731 59.5619Z" fill="#1E1E15"/>
</g>
</svg>
