<svg width="25" height="6" viewBox="0 0 25 6" fill="none" xmlns="http://www.w3.org/2000/svg">
<path d="M1.179 0.0281768C1.29313 -0.00137835 1.41132 -0.012532 1.52662 0.0186961C1.85975 0.168703 2.23402 0.158665 2.59264 0.133571C2.77746 0.135244 2.96517 0.145282 3.14072 0.207181C3.43213 0.330978 3.74615 0.216661 4.0451 0.189894L4.10014 0.193239C3.94081 0.203277 3.7896 0.255138 3.6407 0.306999C3.9495 0.348823 4.25656 0.290828 4.55899 0.236179C5.02248 0.255139 5.47959 0.339901 5.9425 0.361091C5.96336 0.324844 6.00508 0.252907 6.02593 0.217218C6.13485 0.19547 6.14818 0.341015 6.20611 0.400683C6.53229 0.440276 6.85905 0.480426 7.18813 0.480426C7.19914 0.40626 7.21073 0.332094 7.22231 0.258485C7.33645 0.283579 7.45116 0.308115 7.56529 0.333767C7.62207 0.433028 7.66147 0.57188 7.80689 0.565746C9.47197 0.741404 11.1388 0.910929 12.8033 1.09049C12.8172 1.01688 12.8317 0.94383 12.8462 0.870778C12.9881 0.871336 13.1306 0.870779 13.2737 0.869663C13.2847 0.957771 13.2958 1.04644 13.3068 1.13566C13.6862 1.17469 14.0634 1.23771 14.444 1.2589C14.5559 1.28511 14.6074 1.17581 14.6746 1.11391C14.6995 1.10834 14.7488 1.09607 14.7737 1.08993C14.8125 1.15797 14.8513 1.22711 14.8896 1.29571C15.9388 1.44237 17.0013 1.49032 18.0483 1.65093C18.039 1.75911 18.0297 1.86673 18.0199 1.97547C17.6578 1.96097 17.2997 1.90465 16.9399 1.8645C16.6676 1.82658 16.4133 1.96265 16.1416 1.95651C16.134 1.97938 16.1196 2.02511 16.112 2.04853C16.0755 2.00168 16.0379 1.95651 16.0008 1.9119C15.8125 1.89238 15.623 1.88346 15.4336 1.88625C15.6682 2.11321 15.9973 2.29556 16.0437 2.64353C15.8814 2.65022 15.7186 2.65692 15.557 2.64576C15.5049 2.44278 15.4655 2.21192 15.2853 2.07362C15.1903 1.99165 15.0587 1.9777 14.9371 1.96878C14.8687 1.96599 14.8009 1.96432 14.7331 1.9632C14.7639 1.89573 14.7946 1.82826 14.8258 1.76134C14.608 1.74851 14.3907 1.73067 14.1741 1.71338C13.6683 1.64256 13.159 1.60185 12.6532 1.53493C12.6544 1.57899 12.6567 1.6671 12.6579 1.71115C12.8456 1.70836 13.0327 1.69442 13.2199 1.67769C13.1863 1.81153 13.1538 1.9448 13.1208 2.07864C13.0825 2.06024 13.0443 2.04128 13.0067 2.02343C13.0009 2.0396 12.9899 2.07195 12.9841 2.08812C11.2002 1.90354 9.42041 1.67658 7.63713 1.48084C7.59658 1.62862 7.55313 1.77584 7.50852 1.92306C7.38511 1.84777 7.2675 1.76413 7.14873 1.68271C7.20551 1.77082 7.26171 1.85948 7.31675 1.94815C7.16669 1.92194 7.01258 1.89908 6.87585 1.82993C6.73913 1.74461 6.60008 1.65985 6.44597 1.60799C6.38861 1.50371 6.34979 1.36039 6.20843 1.33976C5.82316 1.24552 5.42166 1.23604 5.02943 1.1825C4.7328 1.15016 4.43443 1.09495 4.13548 1.13454C4.19457 1.23269 4.27626 1.31522 4.39098 1.3537C4.30813 1.38493 4.2276 1.42118 4.14475 1.4524C4.05553 1.20481 4.06827 0.941042 4.09666 0.685083C4.14938 0.655528 4.2021 0.625415 4.25483 0.596417C3.2253 0.550691 2.2091 0.359417 1.18074 0.299192C1.18016 0.208853 1.17958 0.117958 1.179 0.0281768ZM4.28611 0.650509C4.35563 0.857953 4.62098 0.807207 4.79479 0.813341C4.7525 0.56965 4.46687 0.656086 4.28611 0.650509ZM4.95006 0.691774C4.94658 0.74252 4.93905 0.844012 4.93558 0.894758C7.29937 1.14347 9.65852 1.4301 12.0223 1.68215C12.1614 1.69386 12.301 1.69108 12.4406 1.68606L12.4881 1.69386C12.4846 1.65594 12.4771 1.58066 12.4736 1.54274C12.1747 1.45742 11.8589 1.47415 11.5542 1.42062C10.3225 1.28455 9.08959 1.15573 7.85903 1.01354C7.73621 0.992902 7.61106 0.989557 7.48766 1.00183C7.29879 0.977846 7.11165 0.941042 6.92278 0.915391C6.98014 0.97004 7.03865 1.02469 7.09717 1.07878C6.55083 1.04142 6.01203 0.925986 5.46569 0.903122C5.55144 0.856838 5.63602 0.808879 5.71945 0.759249C5.60474 0.757018 5.48771 0.743636 5.37589 0.774307C5.23916 0.724676 5.09548 0.700139 4.95006 0.691774ZM6.77968 1.4301C6.87064 1.54441 6.98014 1.64479 7.11223 1.7145C7.04792 1.59906 6.9755 1.48865 6.90019 1.38047C6.87006 1.39273 6.80981 1.41727 6.77968 1.4301Z" fill="#070707"/>
<path d="M2.64189 1.94034C2.69287 1.65037 2.90955 1.405 3.18822 1.28957C3.3545 1.46188 3.53874 1.61635 3.70212 1.79089C3.90084 2.0028 3.99875 2.27716 4.1152 2.53423C4.14591 2.50524 4.17719 2.47624 4.2079 2.44724C4.34231 2.43051 4.47093 2.38701 4.5897 2.32567C4.59317 2.51471 4.56305 2.70487 4.497 2.88332C4.36317 3.09132 4.16792 3.26921 3.92169 3.34338C3.72935 3.41308 3.52541 3.35286 3.33248 3.31996C3.12971 3.20564 2.92867 3.0718 2.80179 2.87719C2.61581 2.60282 2.5938 2.25653 2.64189 1.94034ZM3.07467 1.86227L3.09379 1.91134C2.76297 2.18961 2.91998 2.74335 3.30352 2.90061C3.45647 2.98871 3.61 2.8744 3.73166 2.79075C3.89504 2.52921 3.80408 2.20578 3.62043 1.97938C3.47269 1.85669 3.26296 1.76747 3.07467 1.86227Z" fill="black"/>
<path d="M5.7432 1.56337C5.83648 1.53995 5.9315 1.52211 6.02709 1.51263C6.0746 1.61245 6.12153 1.71282 6.16903 1.81264C6.0549 1.79591 5.94019 1.78086 5.82605 1.76524C5.79824 1.69777 5.77101 1.63029 5.7432 1.56337Z" fill="#222D24"/>
<path d="M13.2285 1.82379C13.2714 1.821 13.356 1.81654 13.3989 1.81431C13.4006 1.85837 13.4053 1.94703 13.4076 1.99164C13.4099 2.01507 13.4151 2.06302 13.418 2.08645C13.3525 2.10596 13.2876 2.12548 13.2233 2.14556C13.2251 2.03793 13.2268 1.93086 13.2285 1.82379Z" fill="#222D24"/>
<path d="M6.02709 1.87566C6.33937 1.9041 6.65512 1.9225 6.95928 2.0028C7.08616 2.10652 7.2171 2.21526 7.38511 2.24872C7.12266 2.30504 6.87122 2.47791 6.59313 2.41267C6.38398 2.37363 6.20438 2.25708 6.052 2.11879C6.04389 2.03737 6.03578 1.95651 6.02709 1.87566Z" fill="black"/>
<path d="M14.9597 2.18849C15.0362 2.17176 15.1132 2.15225 15.1926 2.14555C15.345 2.16228 15.4035 2.31341 15.455 2.43051C15.298 2.42549 15.141 2.41824 14.9846 2.40988C14.9759 2.33627 14.9678 2.2621 14.9597 2.18849Z" fill="#222D24"/>
<path d="M11.5513 2.43219C11.7135 2.39705 11.8786 2.37809 12.0438 2.36415C12.2089 2.50301 12.3995 2.60729 12.5866 2.71547C12.8798 2.88388 13.115 3.15991 13.1863 3.48558C13.2245 3.63893 13.232 3.80009 13.2876 3.9501C13.3467 4.05493 13.4447 4.13189 13.5292 4.21665C13.4725 4.29082 13.4122 4.36331 13.3479 4.43302C13.2199 4.5228 13.0802 4.59696 12.9354 4.65942C12.6793 4.65998 12.4064 4.68451 12.1718 4.56518C11.8682 4.42354 11.6533 4.1581 11.5055 3.87314C11.385 3.51234 11.4291 3.1259 11.6058 2.79075C11.4291 2.77347 11.2547 2.74168 11.0814 2.70711C11.1428 2.63907 11.2048 2.5716 11.2663 2.50356C11.3618 2.48182 11.4563 2.45561 11.5513 2.43219ZM12.0159 3.06121C11.695 3.36959 11.8236 3.9434 12.2228 4.12854C12.4342 4.21107 12.6776 4.14806 12.8404 3.99973C13.0327 3.73763 12.9487 3.31884 12.6932 3.11697C12.5119 2.95191 12.2274 2.95693 12.0159 3.06121Z" fill="black"/>
<path d="M14.21 2.82309C14.2372 2.82588 14.2911 2.83034 14.3183 2.83257C14.3821 2.85153 14.4446 2.87328 14.5078 2.89559C14.4539 2.92124 14.4 2.94801 14.3467 2.97533C14.506 2.97199 14.6654 2.96585 14.8247 2.97143C14.9776 3.02942 15.1404 3.02887 15.2969 2.98202C15.5477 2.99931 15.7951 3.04392 16.0431 3.08073C15.8571 3.31717 15.5871 3.52294 15.2604 3.4984C14.8739 3.53465 14.5292 3.31382 14.3015 3.03165L14.2685 2.99429C14.2482 2.93741 14.2285 2.88053 14.21 2.82309Z" fill="#050505"/>
<path d="M1.52662 0.0186961C1.8835 0.0404443 2.23981 0.070557 2.59264 0.133571C2.23402 0.158665 1.85975 0.168703 1.52662 0.0186961Z" fill="#406438"/>
<path d="M3.14072 0.207181C3.43213 0.0934209 3.74615 0.126322 4.0451 0.189894C3.74615 0.216661 3.43213 0.330978 3.14072 0.207181Z" fill="#406438"/>
<path d="M4.10014 0.193239C4.25367 0.200489 4.40604 0.21945 4.55899 0.236179C4.25656 0.290828 3.9495 0.348823 3.6407 0.306999C3.7896 0.255138 3.94081 0.203277 4.10014 0.193239Z" fill="#406438"/>
<path d="M5.37589 0.774307C5.48771 0.743636 5.60474 0.757018 5.71945 0.759249C5.63602 0.808879 5.55144 0.856838 5.46569 0.903122C6.01203 0.925986 6.55083 1.04142 7.09717 1.07878C7.03865 1.02469 6.98014 0.97004 6.92278 0.915391C7.11165 0.941042 7.29879 0.977846 7.48766 1.00183C7.49229 1.03417 7.50272 1.09941 7.50736 1.13176C9.15216 1.3102 10.7981 1.48754 12.4406 1.68606C12.301 1.69108 12.1614 1.69386 12.0223 1.68215C9.65852 1.4301 7.29937 1.14347 4.93558 0.894758C5.08273 0.856281 5.22873 0.813899 5.37589 0.774307Z" fill="#406438"/>
<path d="M4.13548 1.13454C4.43443 1.09495 4.7328 1.15016 5.02943 1.1825C5.42166 1.23604 5.82316 1.24552 6.20843 1.33976C6.34979 1.36039 6.38861 1.50371 6.44597 1.60799C6.30692 1.5723 6.16788 1.53884 6.02709 1.51263C5.9315 1.52211 5.83648 1.53995 5.7432 1.56337C5.62559 1.60241 5.5103 1.64758 5.39501 1.6933C5.53811 1.72007 5.68179 1.74572 5.82605 1.76524C5.94019 1.78086 6.0549 1.79591 6.16903 1.81264C6.40252 1.85223 6.64063 1.86618 6.87585 1.82993C7.01258 1.89908 7.16669 1.92194 7.31675 1.94815C7.26171 1.85948 7.20551 1.77082 7.14873 1.68271C7.2675 1.76413 7.38511 1.84777 7.50852 1.92306C7.96679 2.10262 8.47837 2.04574 8.94997 2.17902C8.54499 2.23924 8.14929 2.11154 7.74779 2.08533C7.48418 2.06525 7.21826 2.05968 6.95928 2.0028C6.65512 1.9225 6.33937 1.9041 6.02709 1.87566C6.03578 1.95651 6.04389 2.03737 6.052 2.11879C5.54738 2.10373 5.04681 2.01562 4.54161 2.04183C4.55841 2.13608 4.57579 2.23032 4.5897 2.32567C4.47093 2.38701 4.34231 2.43051 4.2079 2.44724C4.17719 2.47624 4.14591 2.50524 4.1152 2.53423C3.99875 2.27716 3.90084 2.0028 3.70212 1.79089C3.53874 1.61635 3.3545 1.46188 3.18822 1.28957C3.34523 1.26169 3.50687 1.24106 3.66562 1.26726C3.85681 1.30463 4.01613 1.42396 4.20095 1.4775C4.29712 1.48084 4.38924 1.45184 4.48194 1.43177C4.49468 1.43177 4.52017 1.43121 4.53234 1.43065C4.57637 1.51765 4.57695 1.64702 4.68703 1.68494C4.80522 1.74963 4.93673 1.68829 5.05666 1.66598C4.97265 1.53438 4.91182 1.33864 4.72643 1.31634C4.61345 1.31801 4.50163 1.33474 4.39098 1.3537C4.27626 1.31522 4.19457 1.23269 4.13548 1.13454Z" fill="#0C0C0C"/>
<path d="M6.77968 1.4301C6.80981 1.41727 6.87006 1.39273 6.90019 1.38047C6.9755 1.48865 7.04792 1.59906 7.11223 1.7145C6.98014 1.64479 6.87064 1.54441 6.77968 1.4301Z" fill="#406438"/>
<path d="M14.1741 1.71338C14.3907 1.73067 14.608 1.74851 14.8258 1.76134C14.7946 1.82826 14.7639 1.89573 14.7331 1.9632C14.8009 1.96432 14.8687 1.96599 14.9371 1.96878C14.944 2.04183 14.9516 2.11488 14.9597 2.18849C14.9678 2.2621 14.9759 2.33627 14.9846 2.40988C15.141 2.41824 15.298 2.42549 15.455 2.43051C15.3971 2.48739 15.338 2.5426 15.2789 2.59892C15.371 2.61565 15.4631 2.63238 15.557 2.64576C15.7186 2.65692 15.8814 2.65022 16.0437 2.64353C15.9973 2.29556 15.6682 2.11321 15.4336 1.88625C15.623 1.88346 15.8125 1.89238 16.0008 1.9119C16.0379 1.95651 16.0755 2.00168 16.112 2.04853C16.2279 2.24649 16.2499 2.47512 16.2569 2.69818C17.2528 2.82309 18.2516 2.92682 19.2464 3.06121C19.3895 3.08351 19.5349 3.07738 19.6786 3.05954C19.8854 3.02998 20.0905 3.08352 20.2939 3.11474C20.2956 3.08575 20.2979 3.02887 20.2991 2.99987C20.1502 2.97924 19.959 3.01994 19.8599 2.8822C20.0181 2.89503 20.1745 2.92124 20.3315 2.94745C20.3489 3.00768 20.3669 3.06846 20.3848 3.12924C20.6699 3.19393 20.9509 3.27702 21.2434 3.30657C22.1264 3.40416 23.0064 3.52405 23.8911 3.61049C23.8789 3.63279 23.8552 3.67685 23.8436 3.69915C23.8077 3.69804 23.7364 3.69525 23.7005 3.69414C23.6941 3.69358 23.6814 3.69302 23.675 3.69246C23.1264 3.65231 22.5823 3.56811 22.036 3.50677C21.5319 3.4365 21.0181 3.41699 20.525 3.28427C20.0772 3.15824 19.6062 3.21846 19.149 3.15768C18.24 3.05117 17.331 2.94187 16.422 2.82979C16.0014 2.77792 15.5755 2.77514 15.1578 2.70153C15.0727 2.76231 14.9869 2.82309 14.9023 2.88499C14.7077 2.86659 14.513 2.84986 14.3183 2.83257C14.2911 2.83034 14.2372 2.82588 14.21 2.82309L14.166 2.82533C14.2928 2.78294 14.4255 2.76343 14.5576 2.74279C14.5431 2.7071 14.5286 2.67141 14.5147 2.63628C14.4388 2.64186 14.3479 2.70097 14.2824 2.64074C14.1764 2.50245 14.1717 2.32066 14.1521 2.15727C14.1822 2.01395 14.013 2.04351 13.9887 2.15225C13.8572 2.17901 13.7268 2.20801 13.5964 2.23924C13.5362 2.18905 13.4754 2.13942 13.418 2.08645C13.4151 2.06302 13.4099 2.01507 13.4076 1.99164C13.67 1.91692 13.9226 1.81655 14.1741 1.71338Z" fill="#406438"/>
<path d="M8.99284 2.18292C9.85087 2.21414 10.6927 2.41044 11.5513 2.43219C11.4563 2.45561 11.3618 2.48182 11.2663 2.50356C10.6933 2.45561 10.1266 2.35802 9.55424 2.30783C9.36131 2.29222 9.17592 2.24091 8.99284 2.18292Z" fill="#406438"/>
<path d="M12.0438 2.36415C12.2436 2.3424 12.4424 2.31173 12.6428 2.29054C12.9389 2.35579 13.2204 2.49464 13.4313 2.70822C13.4719 2.76956 13.5113 2.83201 13.5495 2.89559C13.5814 2.948 13.6127 3.00098 13.6439 3.05452C13.655 3.07348 13.6764 3.11084 13.6874 3.1298C13.6926 3.14932 13.7042 3.18835 13.71 3.20787C13.761 3.45992 13.7656 3.72369 13.6897 3.97184C13.6405 4.05549 13.5866 4.13746 13.5292 4.21665C13.4447 4.13189 13.3467 4.05493 13.2876 3.9501C13.232 3.80009 13.2245 3.63893 13.1863 3.48558C13.115 3.15991 12.8798 2.88388 12.5866 2.71547C12.3995 2.60729 12.2089 2.50301 12.0438 2.36415Z" fill="#151515"/>
<path d="M23.9861 3.39635C24.3256 3.35453 24.6622 3.42591 25 3.44543C24.9902 3.48223 24.9705 3.5564 24.9606 3.5932C24.6953 3.57815 24.4322 3.54692 24.1704 3.50732C24.1078 3.47108 24.0464 3.43427 23.9861 3.39635Z" fill="#406438"/>
<path d="M4.72643 1.31634C4.91182 1.33864 4.97265 1.53438 5.05666 1.66598C4.93673 1.68829 4.80522 1.74963 4.68703 1.68494C4.57695 1.64702 4.57637 1.51765 4.53234 1.43065C4.52017 1.43121 4.49468 1.43177 4.48194 1.43177C4.56363 1.39441 4.64416 1.3537 4.72643 1.31634Z" fill="#2B5B20"/>
<path d="M13.1208 2.07864C13.1538 1.9448 13.1863 1.81153 13.2199 1.67769C13.2807 1.72119 13.3398 1.76747 13.3989 1.81431C13.356 1.81654 13.2714 1.821 13.2285 1.82379C13.2268 1.93086 13.2251 2.03793 13.2233 2.14556C13.2876 2.12548 13.3525 2.10596 13.418 2.08645C13.4754 2.13942 13.5362 2.18905 13.5964 2.23924C13.7268 2.20801 13.8572 2.17901 13.9887 2.15225C14.0298 2.15336 14.1115 2.15615 14.1521 2.15727C14.1717 2.32066 14.1764 2.50245 14.2824 2.64074C14.3479 2.70097 14.4388 2.64186 14.5147 2.63628C14.5286 2.67141 14.5431 2.7071 14.5576 2.74279C14.4255 2.76343 14.2928 2.78294 14.166 2.82533C14.057 2.88611 13.9574 2.96139 13.8548 3.0311C13.9921 3.01381 14.13 2.99708 14.2685 2.99429L14.3015 3.03165C14.1167 3.12422 13.9157 3.18166 13.71 3.20787C13.7042 3.18835 13.6926 3.14932 13.6874 3.1298C13.8444 3.13426 13.7372 2.94466 13.6439 3.05452C13.6127 3.00098 13.5814 2.948 13.5495 2.89559C13.6132 2.78071 13.6451 2.65357 13.6607 2.52531C13.5831 2.58442 13.5066 2.64576 13.4313 2.70822C13.2204 2.49464 12.9389 2.35579 12.6428 2.29054C12.75 2.27827 12.8572 2.26712 12.9649 2.25709C12.9702 2.20021 12.9759 2.14388 12.9841 2.08812C12.9899 2.07195 13.0009 2.0396 13.0067 2.02343C13.0443 2.04128 13.0825 2.06024 13.1208 2.07864Z" fill="#2B5B20"/>
<path d="M6.95928 2.0028C7.21826 2.05968 7.48418 2.06525 7.74779 2.08533C8.14929 2.11154 8.54499 2.23924 8.94997 2.17902L8.99284 2.18292C9.17592 2.24091 9.36131 2.29222 9.55424 2.30783C10.1266 2.35802 10.6933 2.45561 11.2663 2.50356C11.2048 2.5716 11.1428 2.63907 11.0814 2.70711C9.85087 2.54762 8.61799 2.39259 7.38511 2.24872C7.2171 2.21526 7.08616 2.10652 6.95928 2.0028Z" fill="#2B5B20"/>
<path d="M3.37709 2.15169C3.4976 2.08756 3.65055 2.09927 3.70385 2.23924C3.81915 2.3675 3.62216 2.62569 3.48254 2.50747C3.35798 2.43107 3.39795 2.27047 3.37709 2.15169Z" fill="#2B5B20"/>
<path d="M15.1578 2.70153C15.5755 2.77514 16.0014 2.77792 16.422 2.82979C17.331 2.94187 18.24 3.05117 19.149 3.15768C19.6062 3.21846 20.0772 3.15824 20.525 3.28427C21.0181 3.41699 21.5319 3.4365 22.036 3.50677C22.5823 3.56811 23.1264 3.65231 23.675 3.69246C23.6814 3.69302 23.6941 3.69358 23.7005 3.69414C23.7364 3.69525 23.8077 3.69804 23.8436 3.69915C23.8552 3.67685 23.8789 3.63279 23.8911 3.61049C23.9235 3.53967 23.9548 3.46773 23.9861 3.39635C24.0464 3.43427 24.1078 3.47108 24.1704 3.50732C24.1391 3.50398 24.0765 3.49673 24.0452 3.49338C24.0632 3.55417 24.0846 3.61495 24.1095 3.67462C24.372 3.83299 24.7544 3.68354 24.9716 3.92221C24.6089 4.00419 24.2323 4.06999 23.8587 4.02705C22.5377 3.85306 21.215 3.68744 19.8895 3.55249C18.6068 3.40081 17.3258 3.23352 16.0431 3.08073C15.7951 3.04392 15.5477 2.99931 15.2969 2.98202C15.1399 2.96418 14.9817 2.96362 14.8247 2.97143C14.6654 2.96585 14.506 2.97199 14.3467 2.97533C14.4 2.94801 14.4539 2.92124 14.5078 2.89559C14.4446 2.87328 14.3821 2.85153 14.3183 2.83257C14.513 2.84986 14.7077 2.86659 14.9023 2.88499C14.9869 2.82309 15.0727 2.76231 15.1578 2.70153Z" fill="#2B5B20"/>
<path d="M12.3601 3.32442C12.5611 3.16939 12.8334 3.36512 12.7842 3.59432C12.7651 3.75492 12.5553 3.72815 12.4354 3.71254C12.3103 3.6222 12.3792 3.45212 12.3601 3.32442Z" fill="#2B5B20"/>
<path d="M6.02709 1.51263C6.16788 1.53884 6.30692 1.5723 6.44597 1.60799C6.60008 1.65985 6.73913 1.74461 6.87585 1.82993C6.64063 1.86618 6.40252 1.85223 6.16903 1.81264C6.12153 1.71282 6.0746 1.61245 6.02709 1.51263Z" fill="#6A6112"/>
<path d="M3.07467 1.86227C3.26296 1.76747 3.47269 1.85669 3.62043 1.97938C3.80408 2.20578 3.89504 2.52921 3.73166 2.79075C3.61927 2.74502 3.49992 2.70933 3.39969 2.64019C3.25022 2.41936 3.19865 2.15225 3.09379 1.91134L3.07467 1.86227ZM3.37709 2.15169C3.39795 2.27047 3.35798 2.43107 3.48254 2.50747C3.62216 2.62569 3.81915 2.3675 3.70385 2.23924C3.65055 2.09927 3.4976 2.08756 3.37709 2.15169Z" fill="#6A6112"/>
<path d="M14.9371 1.96878C15.0587 1.9777 15.1903 1.99165 15.2853 2.07362C15.4655 2.21192 15.5049 2.44278 15.557 2.64576C15.4631 2.63238 15.371 2.61565 15.2789 2.59892C15.338 2.5426 15.3971 2.48739 15.455 2.43051C15.4035 2.31341 15.345 2.16228 15.1926 2.14555C15.1132 2.15225 15.0362 2.17176 14.9597 2.18849C14.9516 2.11488 14.944 2.04183 14.9371 1.96878Z" fill="#6A6112"/>
<path d="M13.4313 2.70822C13.5066 2.64576 13.5831 2.58442 13.6607 2.52531C13.6451 2.65357 13.6132 2.78071 13.5495 2.89559C13.5113 2.83201 13.4719 2.76956 13.4313 2.70822Z" fill="#6A6112"/>
<path d="M12.0159 3.06121C12.2274 2.95693 12.5119 2.95191 12.6932 3.11697C12.9487 3.31884 13.0327 3.73763 12.8404 3.99973C12.5947 4.00586 12.334 3.90772 12.2234 3.6841C12.1393 3.48112 12.1 3.26419 12.0159 3.06121ZM12.3601 3.32442C12.3792 3.45212 12.3103 3.6222 12.4354 3.71254C12.5553 3.72815 12.7651 3.75492 12.7842 3.59432C12.8334 3.36512 12.5611 3.16939 12.3601 3.32442Z" fill="#6A6112"/>
<path d="M3.30352 2.90061C2.91998 2.74335 2.76297 2.18961 3.09379 1.91134C3.19865 2.15225 3.25022 2.41936 3.39969 2.64019C3.49992 2.70933 3.61927 2.74502 3.73166 2.79075C3.61 2.8744 3.45647 2.98871 3.30352 2.90061Z" fill="#E6CA18"/>
<path d="M15.2969 2.98202C15.1399 2.96418 14.9817 2.96362 14.8247 2.97143C14.9776 3.02942 15.1404 3.02887 15.2969 2.98202Z" fill="#E6CA18"/>
<path d="M12.2228 4.12854C11.8236 3.9434 11.695 3.36959 12.0159 3.06121C12.1 3.26419 12.1393 3.48112 12.2234 3.6841C12.334 3.90772 12.5947 4.00586 12.8404 3.99973C12.6776 4.14806 12.4342 4.21107 12.2228 4.12854Z" fill="#E6CA18"/>
<path d="M4.497 2.88332C5.04276 2.67643 5.64066 2.79577 6.17019 2.98704C6.41758 3.08463 6.64469 3.2391 6.91641 3.27144C7.66205 3.36513 8.40537 3.47442 9.15042 3.57313C9.50557 3.61997 9.8584 3.69135 10.2176 3.70696C10.6539 3.71533 11.0675 3.88318 11.5055 3.87314C11.6533 4.1581 11.8682 4.42354 12.1718 4.56518C12.4064 4.68451 12.6793 4.65998 12.9354 4.65942C13.3653 4.68842 13.7882 4.77653 14.2152 4.83229C15.1074 4.95553 15.9967 5.09884 16.8913 5.20814C17.4637 5.26335 18.0233 5.39774 18.5934 5.46856C19.3153 5.56225 20.032 5.71727 20.7631 5.72843C21.0893 5.73122 21.401 5.83773 21.6774 6H20.8599C20.3477 5.86951 19.8194 5.821 19.2985 5.73791C17.3808 5.46354 15.4626 5.19588 13.5478 4.9059C13.2668 4.83954 13.0038 5.00795 12.7239 4.97784C12.5171 4.9572 12.3091 4.95664 12.1011 4.96055C11.9482 4.96334 11.8207 4.86575 11.6741 4.83898C11.5664 4.86854 11.4731 4.93211 11.3769 4.98509C11.5901 5.13955 11.8294 5.26168 12.0217 5.44124C12.1104 5.52489 12.0397 5.66987 11.9227 5.68326C11.4574 5.79144 10.976 5.66039 10.5299 5.53158C10.2408 5.43232 9.92851 5.36038 9.6817 5.17691C9.56988 5.11 9.54671 4.92542 9.69329 4.88415C10.0363 4.76816 10.4059 4.93322 10.7547 4.82727C10.4441 4.58804 10.0299 4.59696 9.65737 4.53228C8.31904 4.3332 6.98014 4.13914 5.64297 3.93337C4.85562 3.80734 4.05495 3.82017 3.26006 3.83634C3.38289 3.92333 3.51962 3.99973 3.61174 4.11962C3.6662 4.2897 3.4611 4.36498 3.32205 4.37391C2.80353 4.41629 2.26936 4.28859 1.81919 4.04155C1.69 3.98523 1.59556 3.79618 1.75778 3.71811C2.09844 3.58093 2.47445 3.72536 2.83018 3.66458C2.72995 3.5458 2.59264 3.46717 2.43332 3.45323C1.71143 3.34561 0.987231 3.24969 0.265927 3.13928C0.160483 3.13092 0.077055 3.06957 0 3.006C0.16338 3.00712 0.32676 3.0166 0.488401 3.04225C1.17263 3.14987 1.85975 3.24189 2.54339 3.35397C2.80642 3.40081 3.07119 3.35174 3.33248 3.31996C3.52541 3.35286 3.72935 3.41308 3.92169 3.34338C4.16792 3.26921 4.36317 3.09132 4.497 2.88332ZM4.31276 3.46885C4.71658 3.53855 5.12271 3.59265 5.52768 3.65622C5.75132 3.69246 5.98364 3.66124 6.20264 3.72592C6.34284 3.7644 6.48363 3.80399 6.62847 3.82351C7.60527 3.96236 8.58207 4.10289 9.5583 4.24398C9.86767 4.29751 10.1672 4.18319 10.4638 4.11795C10.6208 4.08505 10.7726 4.0343 10.914 3.95958C10.2622 3.82128 9.59537 3.76775 8.9378 3.66458C8.28312 3.56142 7.62265 3.48948 6.96797 3.38464C6.52766 3.28315 6.08097 3.41587 5.63718 3.40193C5.43267 3.38799 5.26987 3.22404 5.06361 3.22293C4.8 3.25862 4.55667 3.37182 4.31276 3.46885Z" fill="black" fill-opacity="0.38"/>
<path d="M13.5292 4.21665C13.5866 4.13746 13.6405 4.05549 13.6897 3.97184C14.1428 4.09118 14.5582 4.31145 15.006 4.44752C14.4551 4.50105 13.8948 4.53562 13.3479 4.43302C13.4122 4.36331 13.4725 4.29082 13.5292 4.21665Z" fill="black"/>
</svg>
