<svg width="26" height="10" viewBox="0 0 26 10" fill="none" xmlns="http://www.w3.org/2000/svg">
<path d="M12.7321 0.123064C12.8194 0.0837082 12.9061 0.0424788 12.9922 0C13.0026 0.0387306 13.0233 0.11744 13.0336 0.156795C13.056 0.15742 13.1008 0.159295 13.1232 0.15992C13.1243 0.242379 13.1261 0.324837 13.1289 0.407296C13.1536 0.406671 13.203 0.406046 13.2283 0.405422C13.2478 0.545352 13.2852 0.681533 13.3426 0.80897C13.4615 0.852698 13.5815 0.896427 13.701 0.94078C13.6671 1.03636 13.6413 1.13693 13.6499 1.24063C13.6275 1.30747 13.6039 1.37369 13.5832 1.44115C13.473 1.4955 13.3587 1.54048 13.2427 1.57671C13.2616 1.45177 13.2995 1.33183 13.3501 1.21814C13.4224 1.27186 13.4948 1.32559 13.5677 1.37868C13.5718 1.14068 13.3317 1.06197 13.1571 1.13818C13.0606 1.16817 12.9658 1.20377 12.8716 1.24C12.9411 1.15505 13.0106 1.07134 13.0801 0.987006C12.975 0.694027 12.8492 0.41042 12.7321 0.123064ZM13.4902 0.953898C13.4626 1.05447 13.4965 1.08821 13.5907 1.05572C13.6177 0.954523 13.5844 0.920789 13.4902 0.953898Z" fill="#050505"/>
<path d="M5.14383 0.334831C5.22366 0.309844 5.3035 0.285481 5.38333 0.260493C5.60158 0.595326 5.67395 1.00887 5.80835 1.38618C5.9123 1.3362 6.01454 1.28311 6.11849 1.23438C6.08633 1.28123 6.05417 1.32808 6.02258 1.37494C6.10873 1.39867 6.19545 1.42304 6.28218 1.44865C6.27644 1.41179 6.26552 1.33745 6.25978 1.3006C6.36144 1.34995 6.46252 1.39867 6.56476 1.44677C6.55787 1.46364 6.54408 1.498 6.53719 1.51487C6.50503 1.52986 6.44012 1.55985 6.40739 1.57546C6.34593 1.51612 6.21498 1.58233 6.29137 1.66917C6.26323 1.66229 6.20752 1.6498 6.17995 1.64293C6.17363 1.64105 6.16157 1.63731 6.15525 1.63543C6.1317 1.62669 6.08518 1.6092 6.06163 1.60045C6.08576 1.80785 6.07714 2.01899 5.99731 2.21264C5.95078 2.11332 5.90369 2.01462 5.86406 1.91279C5.96744 1.78723 6.06393 1.64605 5.98524 1.47489C5.93068 1.58421 5.8744 1.6929 5.82787 1.8066C5.81983 1.82721 5.80375 1.86844 5.79514 1.88905C5.77331 1.86219 5.72966 1.8091 5.70726 1.78223C5.68314 1.79223 5.63489 1.81222 5.61077 1.82221C5.54645 1.7991 5.48212 1.77599 5.41837 1.75287C5.49246 1.61419 5.61652 1.53798 5.7578 1.5055C5.68027 1.45677 5.59297 1.43616 5.50509 1.42554C5.38907 1.06009 5.22883 0.711518 5.14383 0.334831Z" fill="#090A09"/>
<path d="M11.8194 1.49488C11.959 1.27499 12.0836 1.04073 12.2651 0.857072C12.4087 1.0045 12.5529 1.15005 12.6942 1.3006C12.6603 1.28998 12.5919 1.26999 12.558 1.25937C12.5569 1.28686 12.554 1.34058 12.5523 1.36744C12.4736 1.36869 12.3949 1.37057 12.3168 1.37244C12.3823 1.3412 12.4472 1.30809 12.5121 1.27499C12.4282 1.17941 12.3461 1.08258 12.264 0.985757C12.1583 1.11819 12.079 1.27124 12.0331 1.4399C12.0136 1.46302 11.9751 1.50924 11.9556 1.53173C11.9102 1.51924 11.8648 1.50675 11.8194 1.49488Z" fill="#060606"/>
<path d="M7.19826 1.31934C7.22525 1.2019 7.18735 1.02761 7.31772 0.976385C7.30853 1.07883 7.29762 1.18128 7.28556 1.28373C7.64682 1.32121 7.7146 1.75662 7.80534 2.06209C7.89666 2.04585 7.98856 2.02898 8.08045 2.01337C8.07528 2.03711 8.06495 2.08458 8.05978 2.10832C8.03336 2.11957 7.98052 2.1433 7.9541 2.15455C8.07011 2.27449 8.2183 2.4063 8.3883 2.32321C8.301 2.28261 8.21313 2.24513 8.12583 2.2064C8.20451 2.1964 8.28377 2.18703 8.36303 2.17766C8.36188 2.14893 8.35958 2.09145 8.35844 2.06272C8.31766 2.06022 8.23667 2.05522 8.19647 2.05272C8.22289 2.03398 8.2763 1.99775 8.30272 1.97901C8.25276 1.70102 8.12066 1.43678 8.14708 1.14693C8.23495 1.14318 8.3234 1.13568 8.4107 1.12381C8.50662 1.37056 8.52729 1.6498 8.64676 1.88468C8.73521 1.91342 8.82768 1.92091 8.919 1.93278C8.89315 2.02274 8.86845 2.11394 8.84433 2.20577C8.77713 2.13081 8.70936 2.05647 8.64101 1.98401C8.67088 2.26074 8.82078 2.48876 8.97528 2.70115C8.96896 2.73488 8.95575 2.80172 8.94944 2.83483C8.88913 2.85357 8.82882 2.87169 8.76852 2.8898C8.74152 2.89605 8.68811 2.90854 8.66169 2.91479C8.5629 2.92041 8.46412 2.91917 8.3659 2.91792C8.36877 2.83046 8.37165 2.74363 8.37452 2.6568C8.43195 2.61682 8.48939 2.57746 8.54682 2.5381C8.52729 2.51687 8.48939 2.47376 8.47043 2.4519C8.27918 2.44503 8.07299 2.36319 7.89379 2.47126C8.01268 2.52124 8.13272 2.56622 8.25391 2.60869C8.21026 2.61557 8.12353 2.62931 8.07988 2.63618C8.09883 2.6568 8.13559 2.69865 8.15454 2.71927C8.10113 2.81484 8.04944 2.91042 7.9966 3.00662C7.99086 2.9429 7.98454 2.87981 7.97822 2.81734C7.97305 2.66991 7.90413 2.54435 7.82544 2.43066C7.82946 2.35382 7.83463 2.27699 7.8398 2.2014C7.81223 2.17329 7.75767 2.11769 7.7301 2.08958C7.67784 2.21639 7.62672 2.34383 7.57675 2.47126C7.52047 2.47939 7.46476 2.48751 7.40904 2.49625C7.37516 2.39443 7.3407 2.29323 7.30739 2.19265C7.27005 2.19328 7.19654 2.19453 7.15978 2.19515C7.23272 2.30697 7.28613 2.43191 7.33553 2.5581C7.20056 2.55435 7.06501 2.54997 6.93004 2.54248C6.94325 2.45315 6.9622 2.36382 7.0093 2.28761C7.0093 2.36507 7.00873 2.44315 7.007 2.52124C7.04836 2.51749 7.13164 2.51 7.17299 2.50625C7.14887 2.37944 7.08626 2.27011 7.00126 2.18141C6.99437 1.98526 6.97369 1.7891 6.92487 1.59982C6.9668 1.48925 6.97197 1.37056 6.95646 1.25375C7.03687 1.27561 7.11728 1.29748 7.19826 1.31934ZM7.0518 1.40305C7.02883 1.4905 7.05755 1.52174 7.13795 1.49675C7.16035 1.40992 7.13221 1.37869 7.0518 1.40305ZM7.10751 1.77161C7.29877 1.78036 7.01906 1.95777 7.10751 1.77161ZM8.61172 2.39443C8.64216 2.42691 8.64216 2.42691 8.61172 2.39443Z" fill="#0D0D0C"/>
<path d="M4.29725 1.22501C4.47816 1.21876 4.62692 1.08321 4.80267 1.06197C5.08582 1.08133 5.18174 1.4399 5.43502 1.52923C5.35749 1.63106 5.27478 1.72913 5.19667 1.83033C5.14728 1.75225 4.98531 1.84408 5.07491 1.91654C5.17714 1.99525 5.30235 2.02774 5.4086 2.1002C5.48729 2.18016 5.53726 2.28636 5.5901 2.38756C5.64581 2.50187 5.70611 2.61369 5.78537 2.71114C5.59469 2.748 5.40056 2.73551 5.2116 2.69303C5.20643 2.56372 5.29316 2.37381 5.15015 2.30197C5.13464 2.62056 5.23515 2.92354 5.27536 3.23526C5.14613 3.30585 5.0192 3.38143 4.89399 3.46014C5.05308 3.43703 5.21218 3.41642 5.37127 3.39393C5.42354 3.46014 5.47523 3.52636 5.52749 3.59258C5.70611 3.58321 5.88761 3.5932 6.05646 3.66129C6.05417 3.68753 6.04842 3.74063 6.04555 3.76687C5.85085 3.89493 5.63777 3.98051 5.42124 4.0536C5.26272 4.23288 5.33164 4.51274 5.31613 4.73825C5.39022 4.68453 5.45627 4.60457 5.54587 4.58208C5.65557 4.60832 5.71013 4.76699 5.83649 4.75075C6.45161 4.76574 7.06846 4.73201 7.68358 4.77261C7.86565 4.77012 8.05001 4.72076 8.23093 4.76324C8.36475 4.87007 8.41989 5.0481 8.5026 5.19803C8.28262 5.40917 8.44344 5.74463 8.43712 6.01262C8.54452 5.9614 8.65193 5.91017 8.7599 5.85895C8.76737 5.78086 8.77541 5.70277 8.78403 5.62531C8.90866 5.84833 9.05856 6.0526 9.21134 6.25312C9.20559 6.05447 9.22455 5.85645 9.27854 5.66654C9.27624 5.58033 9.28256 5.4935 9.30898 5.41229C9.36469 5.501 9.4227 5.58846 9.48013 5.67716C9.56111 5.63343 9.64267 5.59095 9.72193 5.54348C9.77477 5.60157 9.83852 5.62594 9.91376 5.61532C9.98326 5.62094 10.0602 5.58346 10.0838 5.50787C10.1446 5.55097 10.2038 5.59658 10.2624 5.64405C10.2245 5.50725 10.2733 5.24987 10.0889 5.24363C10.0861 5.33108 10.0843 5.41916 10.0838 5.50787C10.0349 5.46289 9.97866 5.44103 9.91434 5.44353L9.87988 5.42229C9.69781 5.23613 9.55652 5.00874 9.44969 4.76387C9.81268 4.74138 10.1768 4.75637 10.5404 4.75137C10.6173 4.74888 10.6943 4.7445 10.7707 4.73763C10.9372 4.72576 11.1072 4.71264 11.2692 4.76574C11.5541 4.85445 11.8522 4.79323 12.1428 4.83633C12.5489 4.89755 12.9607 4.85757 13.3667 4.92254C13.3133 4.98876 13.2122 5.02936 13.1979 5.12306C13.2306 5.20927 13.2748 5.28985 13.3156 5.37294C13.4012 5.32796 13.5229 5.32234 13.562 5.21177C13.6194 5.12431 13.57 5.02436 13.5442 4.93628C13.7136 4.94253 13.8836 4.92941 14.0536 4.93253C14.2483 4.96502 14.4407 5.02936 14.64 5.01687C15.1369 4.96752 15.6273 5.14992 16.1241 5.05497C16.1839 5.3011 16.2551 5.56035 16.181 5.81334C16.142 6.08196 15.9283 6.24625 15.7451 6.40118C15.7795 6.53486 15.8226 6.66916 15.8284 6.80972C15.8111 6.96652 15.7525 7.11394 15.7077 7.26387C15.5504 7.36257 15.3959 7.50875 15.2046 7.50437C14.9996 7.47376 14.8428 7.31135 14.6802 7.18766C14.5011 7.29385 14.3287 7.46627 14.1111 7.44628C13.8653 7.42566 13.6257 7.26762 13.5183 7.02211C13.4121 6.7941 13.2674 6.59295 13.1117 6.40367C13.0485 6.41617 12.9854 6.42928 12.9228 6.4424C12.9417 6.62169 12.9595 6.80222 12.9612 6.98401C12.9308 7.0496 12.8981 7.11457 12.863 7.17829C12.7562 7.34945 12.5827 7.47126 12.3857 7.44815C12.1796 7.47126 12.036 7.2901 11.8729 7.18828C11.7126 7.07896 11.5133 7.05522 11.3634 6.92904C11.291 6.76224 11.2572 6.57984 11.1888 6.41242C11.2037 6.59358 11.2715 6.78473 11.2014 6.96277C11.1658 7.08021 11.1141 7.19265 11.0912 7.31447C11.1331 7.58558 11.2497 7.84233 11.2393 8.12281C11.1854 8.55322 10.8735 8.8487 10.5524 9.06297C10.4008 9.09358 10.2463 9.1067 10.0947 9.13481C9.96086 9.14418 9.89021 9.28411 9.79487 9.36782C9.71217 9.4459 9.62314 9.51649 9.5301 9.57896C9.24408 9.69328 8.90866 9.76199 8.62895 9.59145C8.34063 9.4559 8.14535 9.16917 8.02072 8.86557C7.99545 8.79123 7.97305 8.71627 7.95352 8.64068C7.89149 8.35082 7.90068 8.03661 8.04255 7.77486C8.14363 7.53561 8.35901 7.40192 8.54682 7.25387C8.3458 7.1052 8.09137 7.04211 7.93572 6.82659C7.72838 6.92404 7.66061 7.16454 7.53253 7.34508C7.4257 7.44628 7.27005 7.53811 7.12647 7.47876C7.01792 7.44066 6.91568 7.38506 6.81288 7.33196C6.62736 7.39755 6.443 7.49313 6.24427 7.49625C5.80203 7.45315 5.46833 7.01212 5.38678 6.55984C5.36955 6.29498 5.32992 5.98201 5.50682 5.76649C5.61939 5.60845 5.78824 5.52099 5.92953 5.3998C5.9996 5.2074 5.90541 4.995 5.88244 4.79885C5.78652 4.80635 5.67797 4.78261 5.59871 4.85695C5.40401 5.01249 5.1961 5.15242 5.0146 5.32609C4.94855 5.51037 4.98761 5.71339 5.00714 5.90392C5.04849 6.19565 5.0393 6.49175 5.02437 6.78536C4.90146 6.85907 4.76936 6.91217 4.63266 6.9484C4.57465 6.76537 4.53675 6.57546 4.49942 6.38618C4.38914 5.88018 4.3116 5.36544 4.17089 4.86819C4.25589 4.79198 4.33515 4.70827 4.41384 4.62456C4.15711 4.6964 3.90152 4.83508 3.62986 4.77386C3.62871 4.79635 3.62526 4.84195 3.62411 4.86444C3.23011 5.00125 2.82807 5.10807 2.43465 5.24363C2.19917 5.32484 1.98379 5.00312 2.15494 4.7926C1.91199 4.78323 1.67134 4.91816 1.43242 4.82196C1.43988 4.8507 1.45367 4.90942 1.46056 4.93816C1.28596 5 1.10389 5.0987 0.91608 5.05497C0.744925 4.96502 0.697829 4.75012 0.644415 4.57084C0.698977 4.6077 0.752966 4.64455 0.806954 4.68141C0.772493 4.6052 0.737458 4.52961 0.702423 4.45402C0.73631 4.41404 0.770196 4.37469 0.804657 4.33533C0.765601 4.34033 0.687491 4.35033 0.648435 4.35532C0.662219 4.32534 0.690362 4.26537 0.704146 4.23538C0.743776 4.22851 0.783406 4.22226 0.823036 4.21664C0.796041 4.04673 0.812123 3.87556 0.850604 3.71002C0.972365 3.68753 1.12457 3.71252 1.20842 3.5907C1.27792 3.61444 1.34799 3.63756 1.41748 3.66129C1.45711 3.63256 1.49732 3.60445 1.53809 3.57759C2.13024 3.41829 2.72986 3.28648 3.31741 3.1047C3.33522 3.17279 3.3559 3.24025 3.37887 3.30772C2.68793 3.50824 1.9924 3.69003 1.29802 3.87619C1.20268 3.88556 1.16879 3.98863 1.11997 4.06172C1.14869 4.06047 1.2067 4.05735 1.23542 4.05547C1.22795 4.08608 1.21359 4.14668 1.20612 4.17729C1.29572 4.18416 1.39566 4.16667 1.45022 4.08046C1.37958 4.05859 1.30836 4.05047 1.23542 4.05547C1.77875 3.83933 2.35309 3.74 2.90446 3.55322C3.06643 3.47639 3.22609 3.58133 3.37542 3.6413C3.3111 3.58508 3.24734 3.52886 3.18302 3.47389C3.25251 3.45452 3.32258 3.43703 3.39265 3.41829C3.43286 3.49575 3.46789 3.57821 3.52245 3.64568C3.70912 3.67004 3.89118 3.59633 4.07268 3.56134C4.28231 3.51512 4.49137 3.46827 4.69756 3.40767C4.59705 3.35145 4.49195 3.30335 4.38053 3.28086C4.04798 3.20715 3.7206 3.10532 3.38691 3.03598C3.21116 2.98725 3.02737 2.93416 2.84645 2.98726L2.82692 2.96477C2.77236 2.88606 2.62705 2.83358 2.67472 2.71364C2.75226 2.61119 2.84301 2.51624 2.87459 2.38381C2.65232 2.27386 2.46853 2.47376 2.26809 2.54373C2.26177 2.5456 2.24913 2.54997 2.24339 2.55247C2.17102 2.57246 2.09865 2.5912 2.02571 2.60745C2.01997 2.6087 2.00906 2.61182 2.00331 2.61307L1.96081 2.62369C1.8804 2.6012 1.81608 2.62619 1.76726 2.69927C1.75118 2.7074 1.71844 2.72301 1.70236 2.73051C1.60874 2.69553 1.50019 2.68741 1.42035 2.76362C1.3991 2.72614 1.35718 2.65242 1.33593 2.61494C1.43988 2.53686 1.55188 2.46939 1.67536 2.43566C2.11359 2.31447 2.55411 2.20265 2.99061 2.07521C3.08825 2.04585 3.19048 2.04398 3.29157 2.0446C3.28755 2.01712 3.27893 1.96214 3.27491 1.93403C3.35819 1.9559 3.4409 1.97838 3.5236 2.00212C3.51843 1.96901 3.5081 1.90217 3.50293 1.86844C3.5885 1.88343 3.67408 1.89842 3.75908 1.91529C3.76713 1.7866 3.78206 1.65855 3.80618 1.53236C3.81709 1.62669 3.82801 1.72164 3.83834 1.81659L3.8797 1.81971C3.88601 1.72539 3.89233 1.63168 3.89865 1.53798C3.93713 1.67791 3.97446 1.81909 4.0049 1.96152C3.9871 2.02211 3.9693 2.08208 3.95206 2.14268C3.89693 2.15017 3.84179 2.15767 3.78665 2.16517C3.55806 2.13893 3.33694 2.20827 3.13362 2.31697L3.09112 2.33196C3.0894 2.47251 3.08538 2.61369 3.08193 2.75425C3.4811 2.72426 3.84409 3.06159 4.23866 2.93478C4.20076 2.82671 4.13643 2.73551 4.06464 2.6518L4.04051 2.61619C4.10599 2.59932 4.17089 2.58183 4.23636 2.56247C4.28633 2.3001 4.12667 2.08146 4.10886 1.82846C4.18525 1.75475 4.26508 1.68541 4.34894 1.62294L4.36961 1.60732C4.45462 1.66292 4.54019 1.71851 4.62692 1.77349C4.56489 1.66229 4.50344 1.55235 4.44198 1.44115C4.42418 1.47489 4.38857 1.54173 4.37076 1.57546L4.34492 1.59483C4.32711 1.47176 4.31218 1.34807 4.29725 1.22501ZM4.59188 1.20502C4.42418 1.3056 4.6028 1.48925 4.65047 1.61294C4.7326 1.62981 4.81473 1.64918 4.89686 1.66917C4.9497 1.50362 5.11511 1.59358 5.22711 1.60982C5.1444 1.34807 4.85953 0.984506 4.59188 1.20502ZM4.60969 1.89718C4.53617 1.89093 4.24728 1.96901 4.4506 2.01899C4.51894 2.07334 4.77165 1.90967 4.60969 1.89718ZM4.76017 1.94465C4.68837 2.22951 4.84115 2.48626 4.88595 2.75924C4.925 2.76112 5.00311 2.76487 5.04217 2.76674C4.99909 2.54435 5.03356 2.27386 4.87848 2.09833C4.93247 2.04523 4.98818 1.994 5.04447 1.9434C5.01231 1.93528 4.94855 1.91779 4.91639 1.90967C4.84172 1.83658 4.78946 1.84845 4.76017 1.94465ZM4.47529 2.1458C4.50458 2.17703 4.50458 2.17703 4.47529 2.1458ZM4.35468 2.28636C4.30471 2.34882 4.32424 2.47751 4.40235 2.5025C4.50918 2.48501 4.45174 2.24887 4.35468 2.28636ZM2.91652 2.38756C2.88723 2.48876 2.91939 2.52311 3.01301 2.49188C3.04173 2.38943 3.01014 2.35507 2.91652 2.38756ZM4.33515 2.57559C4.33458 2.69303 4.33573 2.81047 4.34032 2.92791C4.37995 2.93603 4.45864 2.9529 4.49827 2.96102C4.50688 3.00787 4.52411 3.10095 4.5333 3.1478C4.65334 2.99413 4.52813 2.75987 4.50918 2.58058C4.45117 2.57871 4.39316 2.57684 4.33515 2.57559ZM4.80726 2.87481C4.80669 3.00287 4.80726 3.13093 4.81014 3.25962C4.90663 3.23651 5.00311 3.21402 5.0996 3.1909C5.07146 3.08783 5.04275 2.98476 5.01518 2.88168C4.94626 2.87918 4.87676 2.87669 4.80726 2.87481ZM4.7056 3.58258C4.7349 3.61382 4.7349 3.61382 4.7056 3.58258ZM4.07095 3.63693C4.10025 3.66817 4.10025 3.66817 4.07095 3.63693ZM2.64313 3.6944C2.6035 3.69815 2.47772 3.77998 2.56273 3.81559C2.6305 3.82121 2.69195 3.8031 2.74824 3.76124C2.82463 3.69065 2.68449 3.65879 2.64313 3.6944ZM3.95838 3.70252C3.98767 3.73376 3.98767 3.73376 3.95838 3.70252ZM3.3266 3.83308C3.3559 3.86432 3.3559 3.86432 3.3266 3.83308ZM3.04001 3.89493C3.0693 3.92679 3.0693 3.92679 3.04001 3.89493ZM1.94703 3.95552C1.87753 4.05047 2.03663 4.13293 2.09176 4.05048C2.16126 3.9549 2.00216 3.87181 1.94703 3.95552ZM4.01639 3.9574C4.04568 3.98863 4.04568 3.98863 4.01639 3.9574ZM3.04001 4.01924C3.0693 4.0511 3.0693 4.0511 3.04001 4.01924ZM3.43688 4.02486C3.46617 4.05672 3.46617 4.05672 3.43688 4.02486ZM2.75283 4.08171C2.78212 4.11357 2.78212 4.11357 2.75283 4.08171ZM3.95896 4.08171C3.98767 4.11357 3.98767 4.11357 3.95896 4.08171ZM4.29265 4.08296C4.48391 4.0917 4.2042 4.26911 4.29265 4.08296ZM2.0125 4.13543C1.98953 4.22226 2.01825 4.2535 2.09865 4.22913C2.12163 4.14168 2.09291 4.11044 2.0125 4.13543ZM4.64817 4.1448C4.67746 4.17604 4.67746 4.17604 4.64817 4.1448ZM1.37556 4.19478C1.27677 4.21727 1.30376 4.39905 1.40772 4.36282C1.5088 4.34095 1.48468 4.14855 1.37556 4.19478ZM3.38404 4.20727C3.4139 4.2385 3.4139 4.2385 3.38404 4.20727ZM4.01639 4.20727C4.04568 4.2385 4.04568 4.2385 4.01639 4.20727ZM2.75283 4.33158C2.78155 4.36344 2.78155 4.36344 2.75283 4.33158ZM3.6781 4.32284C3.6557 4.40967 3.68442 4.44028 3.76425 4.41654C3.78723 4.32846 3.75851 4.29723 3.6781 4.32284ZM4.64817 4.33283C4.67746 4.36407 4.67746 4.36407 4.64817 4.33283ZM1.77587 4.39468C1.80574 4.42591 1.80574 4.42591 1.77587 4.39468ZM4.07383 4.39468C4.10312 4.42654 4.10312 4.42654 4.07383 4.39468ZM1.4238 4.46402C1.40025 4.55085 1.42897 4.58208 1.50938 4.5571C1.53235 4.47026 1.50363 4.43903 1.4238 4.46402ZM3.03139 4.46402C3.00842 4.55085 3.03713 4.58208 3.11754 4.5571C3.13994 4.47026 3.11122 4.43903 3.03139 4.46402ZM2.74249 4.52024C2.93375 4.52961 2.65405 4.7064 2.74249 4.52024ZM3.44549 4.52836C3.39667 4.57958 3.36853 4.67329 3.40184 4.742C3.53164 4.81634 3.59482 4.49775 3.44549 4.52836ZM4.18869 4.51899C4.21799 4.55085 4.21799 4.55085 4.18869 4.51899ZM2.06362 4.58146C2.09291 4.61332 2.09291 4.61332 2.06362 4.58146ZM1.43012 4.64268C1.36062 4.73763 1.51972 4.82071 1.57485 4.73825C1.64435 4.64205 1.48526 4.55959 1.43012 4.64268ZM4.56949 4.85757C4.65047 4.88193 4.73088 4.90755 4.81186 4.93378C4.80784 4.82696 4.80439 4.71951 4.80037 4.61332C4.68206 4.63518 4.58672 4.72576 4.56949 4.85757ZM1.25954 4.70702C1.28883 4.73826 1.28883 4.73826 1.25954 4.70702ZM0.789724 4.77948C0.766176 4.86632 0.794319 4.89693 0.874727 4.87131C0.898275 4.78386 0.870132 4.75325 0.789724 4.77948ZM1.66158 4.76887C1.69087 4.80072 1.69087 4.80072 1.66158 4.76887ZM2.75341 4.75825C2.92456 4.66142 2.7626 4.96564 2.75341 4.75825ZM2.74479 4.90005C2.72239 4.98688 2.75111 5.01812 2.83152 4.99438C2.85392 4.90692 2.8252 4.87569 2.74479 4.90005ZM0.922397 4.95377C0.935607 5.03811 0.975811 5.05122 1.04473 4.99375C1.03152 4.90879 0.990744 4.89568 0.922397 4.95377ZM2.18998 5.02186C2.14575 5.11307 2.28819 5.21677 2.3617 5.17554C2.38698 5.08746 2.26579 4.98126 2.18998 5.02186ZM15.2753 5.4454C15.4453 5.34795 15.2845 5.65405 15.2753 5.4454ZM9.74433 5.70965C9.93559 5.71527 9.65703 5.89768 9.74433 5.70965ZM9.877 5.69715C10.0482 5.60032 9.88677 5.90517 9.877 5.69715ZM14.1208 5.76837C14.1507 5.80023 14.1507 5.80023 14.1208 5.76837ZM10.9068 5.8452C10.8574 5.88768 10.8545 6.04323 10.9372 6.03573C10.9861 5.992 10.9889 5.83708 10.9068 5.8452ZM10.2589 6.49238C10.4525 6.45427 10.6506 6.44428 10.8425 6.39618C10.6541 6.41242 10.3991 6.31872 10.2589 6.49238ZM9.45429 6.56234C9.45429 6.68853 9.45429 6.81472 9.45429 6.94153C9.51229 6.91404 9.56973 6.88718 9.62774 6.86094C9.62774 6.78786 9.62716 6.71539 9.62716 6.64355C9.56973 6.61607 9.51172 6.58921 9.45429 6.56234ZM8.4957 8.76874C8.525 8.8006 8.525 8.8006 8.4957 8.76874Z" fill="#090909"/>
<path d="M4.04798 1.31996C4.03822 1.18441 4.14562 1.19003 4.23751 1.18441C4.12724 1.26749 4.06062 1.41867 3.94345 1.48363C3.81767 1.46927 3.9222 1.32871 3.93828 1.2575C3.96585 1.27311 4.02099 1.30435 4.04798 1.31996Z" fill="#1F211E"/>
<path d="M12.0773 1.41304C12.1359 1.37869 12.1985 1.36557 12.2663 1.37431C12.2766 1.49675 12.1181 1.51487 12.0773 1.41304Z" fill="#1F211E"/>
<path d="M9.75696 1.82909C10.0309 1.6473 10.3147 1.42616 10.6529 1.45302C10.8551 1.52299 11.0366 1.69665 11.2623 1.64418C11.4099 1.66791 11.561 1.6879 11.7097 1.65792C11.6931 1.68291 11.6598 1.73288 11.6431 1.75787C12.0193 1.85032 12.4076 1.84095 12.7889 1.89405C13.0428 1.89842 13.3122 2.02649 13.5528 1.88531C13.6125 1.92091 13.6723 1.95777 13.7337 1.99275C13.9801 2.00712 14.23 1.9965 14.4746 1.95839C14.7848 1.88343 15.1007 1.60045 15.424 1.75662C15.7589 1.99962 15.9875 2.44378 16.413 2.52311C16.2987 2.56372 16.1856 2.6062 16.0719 2.64742C16.0702 2.6899 16.0667 2.77486 16.065 2.81734C15.876 2.71926 15.6779 2.62494 15.5297 2.45877C15.3804 2.30822 15.2592 2.11019 15.0651 2.02399C14.7245 1.92654 14.3374 2.09458 14.1547 2.42316C14.2328 2.41879 14.3109 2.41442 14.3896 2.41004C14.3919 2.53561 14.3902 2.66242 14.3845 2.7886C14.3081 2.80297 14.2311 2.81609 14.1541 2.82796C14.0818 2.82609 14.0094 2.82234 13.9376 2.81797C13.9451 2.70115 13.9537 2.58433 13.9554 2.46752C13.9434 2.46189 13.9187 2.4494 13.9066 2.44378C13.8457 2.41254 13.7854 2.37881 13.7314 2.33508C13.7188 2.31322 13.6941 2.26949 13.682 2.24763C13.5402 2.21202 13.3954 2.19453 13.2524 2.16767C12.9647 2.11582 12.6723 2.10582 12.384 2.0546C12.276 2.05585 12.1663 2.08333 12.0842 2.16454C12.1663 2.19328 12.2485 2.22201 12.3318 2.24638C12.6563 2.28948 12.9825 2.31134 13.3087 2.33821C13.3736 2.34758 13.4391 2.35757 13.5046 2.36694C13.5206 2.49375 13.5362 2.61994 13.5511 2.74738C13.4448 2.7555 13.3392 2.76112 13.2329 2.76237C13.2065 2.75737 13.1536 2.748 13.1272 2.743C12.7407 2.65555 12.3473 2.62306 11.9538 2.5987C11.9458 2.59745 11.9291 2.5962 11.9211 2.59558L11.8797 2.5912C11.87 2.58995 11.851 2.58808 11.8413 2.58683C11.6155 2.55435 11.3864 2.52873 11.1595 2.56622C11.2882 2.6924 11.4869 2.62556 11.6454 2.65617C11.4266 2.68053 11.1957 2.66679 11.0004 2.7936C11.2859 2.89418 11.5954 2.78923 11.874 2.91479C11.8131 2.98538 11.7517 3.05597 11.6908 3.12656C11.9222 3.14218 12.152 3.1072 12.3823 3.09658C12.4885 3.09158 12.5638 3.18715 12.6172 3.27586C12.5598 3.30647 12.5023 3.33833 12.4455 3.37081C12.7039 3.41642 12.9664 3.39705 13.2266 3.41267C13.3478 3.41766 13.4236 3.52699 13.4862 3.62569C13.4035 3.70252 13.3202 3.77873 13.2335 3.84995C13.0698 3.66567 12.8682 3.82121 12.6959 3.8993C12.5896 3.95802 12.4684 3.93678 12.3547 3.93678C12.3323 3.79748 12.2927 3.66254 12.2272 3.5401C12.2209 3.65879 12.218 3.77749 12.2152 3.89743C12.2209 3.92241 12.233 3.97301 12.2387 3.998C12.0429 3.95427 11.8436 3.93616 11.6437 3.92741C11.5127 3.91867 11.4272 3.76499 11.2985 3.75812C11.1228 3.80747 10.9677 3.93803 10.781 3.9399C10.4927 3.94365 10.2038 3.94365 9.91606 3.93553C9.79315 3.9449 9.72595 3.81497 9.62487 3.76437C9.42959 3.80685 9.24695 3.8968 9.05339 3.94553C9.00687 3.78498 8.96667 3.62194 8.92302 3.46014C8.95059 3.44015 9.00572 3.39955 9.03329 3.37956C9.11312 3.42329 9.19238 3.46827 9.27164 3.51324C9.29462 3.3983 9.31817 3.28461 9.33999 3.17029C9.26303 3.22089 9.18607 3.27149 9.11025 3.32459C9.07349 3.26337 9.03731 3.20215 9.00055 3.14155C9.0867 3.06347 9.17113 2.98288 9.25786 2.90667C9.71963 2.78298 10.1711 2.50999 10.6587 2.59183C10.6225 2.4419 10.588 2.29135 10.553 2.1408C10.746 2.05585 10.9545 2.08833 11.1561 2.10395C11.0745 1.8472 10.8086 1.96214 10.6259 1.98151C10.6058 1.96089 10.5651 1.91904 10.5444 1.8978C10.6857 1.88968 10.827 1.87656 10.9683 1.86282C10.8522 1.81909 10.7391 1.76162 10.6179 1.73726C10.5547 1.67416 10.4933 1.60857 10.4341 1.54173C10.375 1.61044 10.3124 1.67604 10.2463 1.73726C10.2923 1.73538 10.3836 1.73101 10.4295 1.72913C10.4272 1.79223 10.4255 1.85532 10.4238 1.91904C10.4347 1.93716 10.4565 1.97276 10.4674 1.99088C10.3101 2.03211 10.1527 2.07521 9.99761 2.12644C9.99876 2.08521 10.0005 2.00337 10.0016 1.96214C9.89423 1.99213 9.83507 2.08895 9.77534 2.18141C9.56283 2.33196 9.2837 2.36194 9.05741 2.22326C9.28083 2.1508 9.50655 2.08333 9.72423 1.9915C9.73227 1.9509 9.74892 1.86969 9.75696 1.82909ZM10.1739 1.82971C10.1205 1.8953 10.2182 2.02773 10.2785 1.94652C10.3302 1.89155 10.2848 1.77786 10.209 1.80597C10.2635 1.60045 9.98038 1.78723 10.1739 1.82971ZM11.399 2.11644C11.4852 2.11894 11.5713 2.12769 11.6552 2.14893C11.727 2.13893 11.7988 2.12831 11.8688 2.10832C11.8562 2.27199 12.1296 2.19765 12.0291 2.06334L12.0572 2.01212C11.8441 2.01399 11.5478 1.89842 11.399 2.11644ZM10.7667 2.43816C10.7724 2.62619 11.0303 2.55622 11.1486 2.61931C11.1084 2.43878 10.8976 2.47002 10.7667 2.43816ZM9.67885 3.67566C9.75639 3.69628 9.8345 3.71752 9.91204 3.74001C9.92869 3.65317 9.94592 3.56697 9.96258 3.48076C9.86379 3.53823 9.7696 3.60382 9.67885 3.67566Z" fill="#080908"/>
<path d="M6.18856 1.96527C6.25461 1.97276 6.32124 1.97839 6.38729 1.98338C6.37695 2.09208 6.36546 2.20015 6.3534 2.30885C6.27701 2.28511 6.20062 2.26262 6.12424 2.242C6.13974 2.14768 6.16099 2.05585 6.18856 1.96527Z" fill="#1F211E"/>
<path d="M6.47975 2.14205C6.5728 2.10957 6.60439 2.14455 6.57452 2.24638C6.4809 2.27824 6.44931 2.24325 6.47975 2.14205Z" fill="#1F211E"/>
<path d="M14.5849 2.13456C14.7555 2.03773 14.5935 2.34258 14.5849 2.13456Z" fill="#1F211E"/>
<path d="M12.9291 2.20952C12.9676 2.1558 13.1123 2.1483 13.1054 2.23825C13.0663 2.29135 12.9222 2.29947 12.9291 2.20952Z" fill="#1F211E"/>
<path d="M14.8715 2.27074C14.9002 2.3026 14.9002 2.3026 14.8715 2.27074Z" fill="#1F211E"/>
<path d="M14.9858 2.33321C15.0151 2.36507 15.0151 2.36507 14.9858 2.33321Z" fill="#1F211E"/>
<path d="M15.1012 2.39568C15.1305 2.42691 15.1305 2.42691 15.1012 2.39568Z" fill="#1F211E"/>
<path d="M21.6321 2.56622C21.7378 2.48063 21.8538 2.41192 21.9784 2.36382C22.1364 2.64743 22.3862 2.86919 22.4672 3.20215C22.512 3.21839 22.5574 3.23463 22.6033 3.2515C22.5861 3.31209 22.5694 3.37331 22.5534 3.43516C22.6286 3.38581 22.705 3.33708 22.7814 3.2896C22.7469 3.35769 22.713 3.42641 22.6786 3.4945C22.7136 3.50262 22.7842 3.51761 22.8193 3.52573C22.8233 3.54885 22.8319 3.59632 22.8359 3.61944C22.6349 3.62881 22.4333 3.61319 22.2369 3.56884C22.0502 3.22401 21.8303 2.9023 21.6321 2.56622ZM22.1082 2.63431C22.1375 2.66617 22.1375 2.66617 22.1082 2.63431ZM22.338 3.00974C22.3673 3.04098 22.3673 3.04098 22.338 3.00974Z" fill="#0E0E0E"/>
<path d="M5.95595 2.44565C5.99099 2.50125 6.02545 2.55747 6.06336 2.61182C6.08231 2.60932 6.12079 2.6037 6.13974 2.60057C6.34593 2.55372 6.55729 2.54061 6.7652 2.58558C6.45908 2.64743 6.14778 2.66804 5.83879 2.7049L5.83994 2.6418C5.90828 2.60495 5.98524 2.53936 5.95595 2.44565Z" fill="#1F211E"/>
<path d="M15.2058 2.45877C15.397 2.46814 15.1167 2.64493 15.2058 2.45877Z" fill="#1F211E"/>
<path d="M14.4695 2.50937C14.6406 2.41192 14.4792 2.71677 14.4695 2.50937Z" fill="#1F211E"/>
<path d="M14.6303 2.58745C14.821 2.60057 14.5384 2.77174 14.6303 2.58745Z" fill="#1F211E"/>
<path d="M14.7687 2.63681C14.8405 2.59808 14.9025 2.73176 14.8491 2.78548C14.7767 2.82484 14.7164 2.68991 14.7687 2.63681Z" fill="#1F211E"/>
<path d="M15.3884 2.64493C15.4177 2.67679 15.4177 2.67679 15.3884 2.64493Z" fill="#1F211E"/>
<path d="M15.5607 2.76987C15.5894 2.80172 15.5894 2.80172 15.5607 2.76987Z" fill="#1F211E"/>
<path d="M15.6756 2.78236C15.783 2.73051 15.8628 2.90167 15.7973 2.98851C15.7152 3.00537 15.6268 2.85857 15.6756 2.78236Z" fill="#1F211E"/>
<path d="M14.9875 2.89793C15.0168 2.92979 15.0168 2.92979 14.9875 2.89793Z" fill="#1F211E"/>
<path d="M15.9053 2.89543C15.934 2.92729 15.934 2.92729 15.9053 2.89543Z" fill="#1F211E"/>
<path d="M1.16649 2.92791C1.24633 3.06097 1.29342 3.21214 1.33707 3.36269C1.26471 3.36332 1.19234 3.36394 1.11997 3.36519C1.12457 3.34395 1.13318 3.3021 1.13778 3.28086C1.15616 3.16404 1.16132 3.04598 1.16649 2.92791Z" fill="#1F211E"/>
<path d="M6.10988 3.06472C6.36316 2.97726 6.63023 2.98226 6.89271 2.96102C6.8973 2.9604 6.90764 2.95915 6.91281 2.95852C7.0518 2.93978 7.19079 2.91542 7.33036 2.8973C7.33725 2.97289 7.34414 3.0491 7.35104 3.12531C7.4033 3.10782 7.45557 3.09095 7.50841 3.07409C7.48658 3.1453 7.46476 3.21714 7.4435 3.2896C7.47165 3.28835 7.52851 3.28586 7.55665 3.28461C7.57848 3.33646 7.60088 3.38831 7.62328 3.44078C7.55378 3.43141 7.48371 3.42204 7.41421 3.41329C7.49749 3.492 7.5825 3.56884 7.66922 3.64318C7.62213 3.72938 7.54689 3.78873 7.47337 3.84683C7.49175 3.86057 7.52793 3.88743 7.54574 3.90117C7.50553 3.93803 7.46533 3.97489 7.42455 4.01237C7.21204 4.00862 6.99954 4.0005 6.7876 3.98176C6.77325 3.85932 6.75889 3.73626 6.74338 3.61444C6.56706 3.65442 6.64459 3.90742 6.6176 4.0536C6.49296 4.01299 6.36833 3.97176 6.24485 3.92929C6.24312 3.88868 6.23968 3.80747 6.23796 3.76687C6.31147 3.73813 6.38499 3.7094 6.45908 3.68128C6.39245 3.45452 6.32353 3.21402 6.12596 3.08158L6.10988 3.06472ZM6.36431 3.14843C6.3936 3.17966 6.3936 3.17966 6.36431 3.14843ZM6.60094 3.45702C6.63023 3.48888 6.63023 3.48888 6.60094 3.45702ZM7.17529 3.58258C7.20458 3.61444 7.20458 3.61444 7.17529 3.58258ZM7.40502 3.58258C7.43432 3.61382 7.43432 3.61382 7.40502 3.58258Z" fill="#070707"/>
<path d="M7.62442 3.02099C7.81511 3.02911 7.53655 3.20777 7.62442 3.02099Z" fill="#1F211E"/>
<path d="M15.9679 3.01724C15.9972 3.0491 15.9972 3.0491 15.9679 3.01724Z" fill="#1F211E"/>
<path d="M15.385 3.07971C15.4659 3.04785 15.4918 3.07659 15.4614 3.16529C15.3798 3.1959 15.354 3.16779 15.385 3.07971Z" fill="#1F211E"/>
<path d="M22.7573 3.07409C22.8308 3.01912 22.9491 3.13718 22.8974 3.22027C22.8308 3.24713 22.7291 3.1478 22.7573 3.07409Z" fill="#1F211E"/>
<path d="M5.54242 3.32521C5.52117 3.10907 5.77963 3.17654 5.90599 3.12969C5.89967 3.32709 5.66993 3.29273 5.54242 3.32521Z" fill="#1F211E"/>
<path d="M15.5601 3.20777C15.5894 3.239 15.5894 3.239 15.5601 3.20777Z" fill="#1F211E"/>
<path d="M15.7818 3.21464C15.8617 3.18966 15.8904 3.22089 15.868 3.30835C15.7876 3.33333 15.7589 3.3021 15.7818 3.21464Z" fill="#1F211E"/>
<path d="M8.03278 3.64505C8.14133 3.62194 8.17235 3.82559 8.07126 3.85557C7.97592 3.8612 7.93744 3.67691 8.03278 3.64505Z" fill="#1F211E"/>
<path d="M22.763 3.92304C22.7929 3.83683 22.8181 3.74812 22.8428 3.65942C22.8601 3.72376 22.8802 3.78623 22.9014 3.84995C22.8836 3.89493 22.8664 3.94115 22.8497 3.98676C22.8244 4.0561 22.8009 4.12606 22.7779 4.19665C22.763 4.17604 22.7337 4.13418 22.7188 4.11357C22.6407 4.12481 22.5585 4.17041 22.481 4.1398C22.3713 4.0461 22.4431 3.88056 22.435 3.75437C22.4994 3.76124 22.5643 3.76874 22.6297 3.77686C22.6665 3.83308 22.6803 3.93303 22.763 3.92304Z" fill="#1F211E"/>
<path d="M14.9209 3.77686C14.9984 3.71627 15.0754 3.86557 15.0099 3.92491C14.9318 3.98613 14.8548 3.83558 14.9209 3.77686Z" fill="#1F211E"/>
<path d="M8.94197 4.008C8.97011 3.99238 9.02582 3.96114 9.05339 3.94553C9.11312 4.11732 9.15505 4.29473 9.18664 4.47526C9.09302 4.42779 8.99998 4.38031 8.90693 4.33408C8.92187 4.22539 8.93623 4.11732 8.94197 4.008Z" fill="#1F211E"/>
<path d="M13.7337 4.01612C13.7774 3.94553 13.9078 4.01299 13.8509 4.0917C13.8067 4.16167 13.6774 4.09358 13.7337 4.01612Z" fill="#1F211E"/>
<path d="M5.60273 4.17104C5.76757 4.09733 5.95193 4.14418 6.12538 4.13044L6.12596 4.18853C5.95136 4.18603 5.77676 4.19103 5.60273 4.17104Z" fill="#1F211E"/>
<path d="M6.78301 4.14918C6.88869 4.09733 7.02768 4.09795 7.13393 4.1498C7.07248 4.23163 6.84332 4.23288 6.78301 4.14918Z" fill="#1F211E"/>
<path d="M5.50796 4.22476C5.58952 4.21352 5.59067 4.36782 5.5384 4.40905C5.4557 4.42029 5.45512 4.26474 5.50796 4.22476Z" fill="#1F211E"/>
<path d="M14.2409 4.21664C14.327 4.23663 14.4126 4.256 14.4993 4.27474C14.4993 4.36657 14.5005 4.45839 14.5045 4.55085C14.4166 4.54835 14.3287 4.54773 14.2409 4.54773C14.2409 4.51587 14.2409 4.4509 14.2409 4.41842C14.2409 4.35095 14.2409 4.28348 14.2409 4.21664Z" fill="#1F211E"/>
<path d="M18.9247 4.32659C18.9712 4.32471 19.0642 4.32034 19.1113 4.31847C19.1532 4.31534 19.2365 4.3091 19.2784 4.3066C19.3112 4.38406 19.3686 4.40967 19.4496 4.38343C19.7638 4.36719 20.0802 4.36469 20.3927 4.41529C20.6925 4.46027 20.9957 4.43466 21.2973 4.44965C21.2553 4.49463 21.2151 4.54148 21.1767 4.59083C21.1508 4.58208 21.0985 4.56584 21.0727 4.5571C21.0084 4.54086 20.944 4.52336 20.8803 4.50462C20.8556 4.5015 20.8056 4.49588 20.7809 4.49275C20.5684 4.49963 20.3559 4.49713 20.144 4.50525C20.1135 4.48713 20.0521 4.4509 20.0216 4.43278C19.6552 4.37032 19.2566 4.56959 18.9247 4.32659Z" fill="#1F211E"/>
<path d="M8.03795 4.3953C8.1241 4.32034 8.20796 4.48776 8.12755 4.54898C8.0414 4.62331 7.95812 4.45527 8.03795 4.3953Z" fill="#1F211E"/>
<path d="M25.0437 4.56084C25.0489 4.48963 25.0564 4.41904 25.0609 4.34845C25.3401 4.53398 25.2752 4.93503 25.2034 5.22676C25.127 5.29673 25.0081 5.34233 24.9903 5.46289C24.9409 5.75275 24.9323 6.0501 24.8714 6.33808C24.8324 6.245 24.7996 6.14568 24.822 6.0426C24.8605 5.78086 24.841 5.49413 24.9771 5.26174L25.0144 5.23176L25.0541 5.20115C25.1 4.99 25.0644 4.77324 25.0437 4.56084ZM25.1368 4.55335C25.1333 4.74825 25.1327 4.94253 25.1362 5.13743L25.1942 5.14243C25.1965 4.94503 25.1965 4.74888 25.1948 4.5521L25.1368 4.55335Z" fill="#1F211E"/>
<path d="M24.2029 5.14118C24.4585 4.9063 24.7336 4.69578 24.9639 4.42904C24.9645 4.45777 24.965 4.51587 24.9656 4.5446C24.7089 4.74138 24.5182 5.04935 24.2029 5.14118Z" fill="#1F211E"/>
<path d="M10.8517 4.509C11.0234 4.41279 10.8597 4.71639 10.8517 4.509Z" fill="#1F211E"/>
<path d="M21.16 4.8507C21.2869 4.72264 21.4282 4.58958 21.616 4.6508C21.6223 4.80447 21.6017 4.9569 21.562 5.10432C21.4753 5.44041 21.5299 5.79023 21.5167 6.13318C21.4747 6.4424 21.4512 6.7535 21.4615 7.06647C21.473 7.37444 21.3179 7.71427 21.5075 7.99101C21.3811 7.99788 21.2548 7.98538 21.1324 7.95352C21.2404 7.72426 21.2329 7.46377 21.2588 7.21514C21.3122 6.75287 21.2858 6.28623 21.2829 5.82209C21.2628 5.55285 21.3225 5.28923 21.334 5.02249C21.3013 4.94128 21.2169 4.90692 21.16 4.8507Z" fill="#0C0C0B"/>
<path d="M14.1048 4.68016C14.1869 4.67704 14.269 4.67516 14.3511 4.67579L14.4046 4.68328C14.4051 4.73139 14.4057 4.82821 14.4063 4.87631C14.3052 4.88006 14.2035 4.88256 14.1025 4.88506C14.103 4.83383 14.1042 4.73138 14.1048 4.68016Z" fill="#1F211E"/>
<path d="M15.5883 4.76199C15.7112 4.76387 15.8341 4.75887 15.9576 4.75637C15.9076 4.82883 15.8582 4.9013 15.8088 4.97439C15.7485 4.95877 15.6876 4.94315 15.6273 4.92879C15.6176 4.88693 15.598 4.80322 15.5883 4.76199Z" fill="#1F211E"/>
<path d="M5.42354 5.2555C5.50222 5.19178 5.58837 5.17991 5.66878 5.24675C5.64466 5.31297 5.62054 5.37919 5.59641 5.44603C5.52864 5.39418 5.47121 5.32796 5.42354 5.2555Z" fill="#1F211E"/>
<path d="M21.8182 5.2074C21.8728 5.12057 22.029 5.20802 21.9589 5.30297C21.9038 5.38981 21.747 5.30235 21.8182 5.2074Z" fill="#1F211E"/>
<path d="M21.8211 5.9464C21.9296 5.89955 21.9526 6.09133 21.8521 6.11195C21.7453 6.15317 21.7217 5.96764 21.8211 5.9464Z" fill="#1F211E"/>
<path d="M25.2826 6.51674C25.3407 6.50675 25.3981 6.498 25.4567 6.48926C25.4458 6.5917 25.4348 6.69478 25.4245 6.79785C25.6181 6.80722 25.8105 6.83783 26 6.88531C25.9925 6.9609 25.9851 7.03711 25.9776 7.11394C25.8151 7.11332 25.6525 7.09458 25.4934 7.05897C25.4251 7.14081 25.3608 7.22826 25.2809 7.29698C25.1368 7.33446 24.988 7.27824 24.8444 7.2595C24.8077 7.17579 24.7387 7.10083 24.737 7.00525C24.7778 6.88406 24.8479 6.77911 24.9145 6.67416C24.9983 6.67167 25.0828 6.66979 25.1678 6.66792C25.2057 6.61669 25.2442 6.56672 25.2826 6.51674Z" fill="#1F211E"/>
<path d="M13.1571 1.13818C13.3317 1.06197 13.5718 1.14068 13.5677 1.37868C13.4948 1.32559 13.4224 1.27186 13.3501 1.21814C13.2995 1.33183 13.2616 1.45177 13.2427 1.57671C13.3587 1.54048 13.473 1.4955 13.5832 1.44115C13.5781 1.46677 13.5672 1.51799 13.562 1.5436C13.5471 1.65667 13.5499 1.77099 13.5528 1.88531C13.3122 2.02649 13.0428 1.89842 12.7889 1.89405C12.4076 1.84095 12.0193 1.85032 11.6431 1.75787C11.6598 1.73288 11.6931 1.68291 11.7097 1.65792C11.731 1.64605 11.7735 1.62106 11.7947 1.60919C11.7913 1.57858 11.7855 1.51674 11.7821 1.48613L11.8194 1.49488C11.8648 1.50675 11.9102 1.51924 11.9556 1.53173C11.9751 1.50924 12.0136 1.46302 12.0331 1.4399L12.0773 1.41304C12.1181 1.51487 12.2766 1.49675 12.2663 1.37431L12.3168 1.37244C12.3949 1.37057 12.4736 1.36869 12.5523 1.36744C12.5919 1.36557 12.6718 1.36307 12.712 1.36119C12.7522 1.30435 12.793 1.24813 12.8343 1.1919C12.824 1.26124 12.8136 1.33121 12.8039 1.40117C12.9383 1.34245 13.0526 1.24625 13.1571 1.13818Z" fill="#62CA0E"/>
<path d="M5.50509 1.42554C5.59297 1.43616 5.68027 1.45677 5.7578 1.5055C5.61652 1.53798 5.49246 1.61419 5.41837 1.75287C5.48212 1.77599 5.54645 1.7991 5.61077 1.82221C5.6705 2.00837 5.62858 2.20202 5.5901 2.38756C5.53726 2.28636 5.48729 2.18016 5.4086 2.1002C5.30235 2.02774 5.17714 1.99525 5.07491 1.91654C5.10535 1.89468 5.16623 1.8522 5.19667 1.83033C5.27478 1.72913 5.35749 1.63106 5.43502 1.52923C5.45283 1.50362 5.48729 1.45177 5.50509 1.42554Z" fill="#62CA0E"/>
<path d="M5.98524 1.47489C6.06393 1.64605 5.96744 1.78723 5.86406 1.91279C5.85487 1.88593 5.83649 1.83346 5.82787 1.8066C5.8744 1.6929 5.93068 1.58421 5.98524 1.47489Z" fill="#62CA0E"/>
<path d="M6.40739 1.57546C6.44012 1.55985 6.50503 1.52986 6.53719 1.51487C6.59635 1.58546 6.66182 1.65042 6.71409 1.72789C6.73074 1.87406 6.60956 2.01524 6.67044 2.1608C6.77152 2.22389 6.89213 2.18266 7.00126 2.18141C7.08626 2.27011 7.14887 2.37944 7.17299 2.50625C7.13164 2.51 7.04836 2.51749 7.007 2.52124C7.00873 2.44315 7.0093 2.36507 7.0093 2.28761C6.9622 2.36382 6.94325 2.45315 6.93004 2.54248C7.06501 2.54997 7.20056 2.55435 7.33553 2.5581C7.28613 2.43191 7.23272 2.30697 7.15978 2.19515C7.19654 2.19453 7.27005 2.19328 7.30739 2.19265C7.3407 2.29323 7.37516 2.39443 7.40904 2.49625C7.46476 2.48751 7.52047 2.47939 7.57675 2.47126C7.62672 2.34383 7.67784 2.21639 7.7301 2.08958C7.75767 2.11769 7.81223 2.17329 7.8398 2.2014C7.83463 2.27699 7.82946 2.35382 7.82544 2.43066C7.90413 2.54435 7.97305 2.66991 7.97822 2.81734C7.76399 2.85982 7.54631 2.87481 7.33036 2.8973C7.19079 2.91542 7.0518 2.93978 6.91281 2.95852L6.89271 2.96102C6.63023 2.98226 6.36316 2.97726 6.10988 3.06472L6.09839 3.06784C6.10528 3.07159 6.11907 3.07846 6.12596 3.08158C6.32353 3.21402 6.39245 3.45452 6.45908 3.68128C6.38499 3.7094 6.31147 3.73813 6.23796 3.76687C6.23968 3.80747 6.24312 3.88868 6.24485 3.92929C6.36833 3.97176 6.49296 4.01299 6.6176 4.0536C6.64459 3.90742 6.56706 3.65442 6.74338 3.61444C6.75889 3.73626 6.77325 3.85932 6.7876 3.98176C6.99954 4.0005 7.21204 4.00862 7.42455 4.01237C7.47854 4.13043 7.56929 4.21727 7.67152 4.28473C7.70541 4.44465 7.71172 4.61082 7.68358 4.77261C7.06846 4.73201 6.45161 4.76574 5.83649 4.75075C5.71013 4.76699 5.65557 4.60832 5.54587 4.58208C5.45627 4.60457 5.39022 4.68453 5.31613 4.73825C5.33164 4.51274 5.26272 4.23288 5.42124 4.0536C5.63777 3.98051 5.85085 3.89493 6.04555 3.76687C6.04842 3.74063 6.05417 3.68753 6.05646 3.66129C5.88761 3.5932 5.70611 3.58321 5.52749 3.59258C5.47523 3.52636 5.42354 3.46014 5.37127 3.39393C5.21218 3.41642 5.05308 3.43703 4.89399 3.46014C5.0192 3.38143 5.14613 3.30585 5.27536 3.23526C5.23515 2.92354 5.13464 2.62056 5.15015 2.30197C5.29316 2.37381 5.20643 2.56372 5.2116 2.69303C5.40056 2.73551 5.59469 2.748 5.78537 2.71114L5.83879 2.7049C6.14778 2.66804 6.45908 2.64743 6.7652 2.58558C6.55729 2.54061 6.34593 2.55372 6.13974 2.60057C6.10011 2.46814 6.05704 2.33633 5.99731 2.21264C6.07714 2.01899 6.08576 1.80785 6.06163 1.60045C6.08518 1.6092 6.1317 1.62669 6.15525 1.63543C6.16157 1.63731 6.17363 1.64105 6.17995 1.64293C6.20752 1.6498 6.26323 1.66229 6.29137 1.66917C6.32009 1.64543 6.3781 1.59858 6.40739 1.57546ZM6.18856 1.96527C6.16099 2.05585 6.13974 2.14768 6.12424 2.242C6.20062 2.26262 6.27701 2.28511 6.3534 2.30885C6.36546 2.20015 6.37695 2.09208 6.38729 1.98338C6.32124 1.97839 6.25461 1.97276 6.18856 1.96527ZM6.57452 2.24638C6.4809 2.27824 6.44931 2.24325 6.47975 2.14205C6.5728 2.10957 6.60439 2.14455 6.57452 2.24638ZM5.90599 3.12969C5.89967 3.32709 5.66993 3.29273 5.54242 3.32521C5.52117 3.10907 5.77963 3.17654 5.90599 3.12969ZM5.60273 4.17104C5.77676 4.19103 5.95136 4.18603 6.12596 4.18853L6.12538 4.13044C5.95193 4.14418 5.76757 4.09733 5.60273 4.17104ZM7.13393 4.1498C7.07248 4.23163 6.84332 4.23288 6.78301 4.14918C6.88869 4.09733 7.02768 4.09795 7.13393 4.1498ZM5.5384 4.40905C5.4557 4.42029 5.45512 4.26474 5.50796 4.22476C5.58952 4.21352 5.59067 4.36782 5.5384 4.40905Z" fill="#62CA0E"/>
<path d="M9.00687 1.60545C9.13954 1.67166 9.24293 1.78473 9.35665 1.88031C9.48817 1.94965 9.63118 1.87594 9.75696 1.82909C9.74892 1.86969 9.73227 1.9509 9.72423 1.9915C9.50655 2.08333 9.28083 2.1508 9.05741 2.22326C9.2837 2.36194 9.56283 2.33196 9.77534 2.18141C9.83507 2.08895 9.89423 1.99213 10.0016 1.96214C10.0005 2.00337 9.99876 2.08521 9.99761 2.12644C10.1527 2.07521 10.3101 2.03211 10.4674 1.99088C10.4565 1.97276 10.4347 1.93716 10.4238 1.91904C10.4255 1.85532 10.4272 1.79223 10.4295 1.72913C10.4921 1.72851 10.5547 1.73163 10.6179 1.73726C10.7391 1.76162 10.8522 1.81909 10.9683 1.86282C10.827 1.87656 10.6857 1.88968 10.5444 1.8978C10.5651 1.91904 10.6058 1.96089 10.6259 1.98151C10.8086 1.96214 11.0745 1.8472 11.1561 2.10395C10.9545 2.08833 10.746 2.05585 10.553 2.1408C10.588 2.29135 10.6225 2.4419 10.6587 2.59183C10.1711 2.50999 9.71963 2.78298 9.25786 2.90667C9.18549 2.92229 9.11312 2.9379 9.04018 2.95227C9.00974 2.91292 8.97988 2.87356 8.94944 2.83483C8.95575 2.80172 8.96896 2.73488 8.97528 2.70115C8.82078 2.48876 8.67088 2.26074 8.64101 1.98401C8.70936 2.05647 8.77713 2.13081 8.84433 2.20577C8.86845 2.11394 8.89315 2.02274 8.919 1.93278C8.95001 1.82346 8.97815 1.71414 9.00687 1.60545ZM9.06258 1.77661C9.03961 1.86407 9.06833 1.8953 9.14931 1.87094C9.17113 1.78411 9.14242 1.75225 9.06258 1.77661Z" fill="#62CA0E"/>
<path d="M4.0049 1.96152C4.03822 1.91592 4.07325 1.87156 4.10886 1.82846C4.12667 2.08146 4.28633 2.3001 4.23636 2.56247C4.17089 2.58183 4.10599 2.59932 4.04051 2.61619C3.97619 2.57871 3.82858 2.66929 3.95896 2.70615C3.98538 2.6924 4.03822 2.66554 4.06464 2.6518C4.13643 2.73551 4.20076 2.82671 4.23866 2.93478C3.84409 3.06159 3.4811 2.72426 3.08193 2.75425C3.08538 2.61369 3.0894 2.47251 3.09112 2.33196L3.13362 2.31697C3.3559 2.29198 3.57472 2.24075 3.78665 2.16517C3.84179 2.15767 3.89693 2.15017 3.95206 2.14268C3.9693 2.08208 3.9871 2.02211 4.0049 1.96152Z" fill="#62CA0E"/>
<path d="M10.1739 1.82971L10.209 1.80597C10.2848 1.77786 10.3302 1.89155 10.2785 1.94652C10.2182 2.02773 10.1205 1.8953 10.1739 1.82971Z" fill="#62CA0E"/>
<path d="M4.91639 1.90967C4.94855 1.91779 5.01231 1.93528 5.04447 1.9434C4.98818 1.994 4.93247 2.04523 4.87848 2.09833C5.03356 2.27386 4.99909 2.54435 5.04217 2.76674C5.00311 2.76487 4.925 2.76112 4.88595 2.75924C4.84115 2.48626 4.68837 2.22951 4.76017 1.94465C4.8176 1.97089 4.86929 1.95964 4.91639 1.90967Z" fill="#62CA0E"/>
<path d="M11.399 2.11644C11.5478 1.89842 11.8441 2.01399 12.0572 2.01212L12.0291 2.06334C11.9751 2.07521 11.9211 2.08958 11.8688 2.10832C11.7988 2.12831 11.727 2.13893 11.6552 2.14893C11.5713 2.12769 11.4852 2.11894 11.399 2.11644Z" fill="#62CA0E"/>
<path d="M8.05978 2.10832C8.09424 2.09395 8.16201 2.06647 8.19647 2.05272C8.23667 2.05522 8.31766 2.06022 8.35844 2.06272C8.35958 2.09145 8.36188 2.14893 8.36303 2.17766C8.28377 2.18703 8.20451 2.1964 8.12583 2.2064C8.21313 2.24513 8.301 2.28261 8.3883 2.32321C8.2183 2.4063 8.07011 2.27449 7.9541 2.15455C7.98052 2.1433 8.03336 2.11957 8.05978 2.10832Z" fill="#62CA0E"/>
<path d="M12.384 2.0546C12.6723 2.10582 12.9647 2.11582 13.2524 2.16767C13.2662 2.21077 13.2944 2.29573 13.3087 2.33821C12.9825 2.31134 12.6563 2.28948 12.3318 2.24638C12.349 2.18203 12.3662 2.11831 12.384 2.0546ZM13.1054 2.23825C13.0663 2.29135 12.9222 2.29947 12.9291 2.20952C12.9676 2.1558 13.1123 2.1483 13.1054 2.23825Z" fill="#62CA0E"/>
<path d="M4.47529 2.1458C4.50458 2.17703 4.50458 2.17703 4.47529 2.1458Z" fill="#62CA0E"/>
<path d="M4.40235 2.5025C4.50918 2.48501 4.45174 2.24887 4.35468 2.28636C4.30471 2.34882 4.32424 2.47751 4.40235 2.5025Z" fill="#62CA0E"/>
<path d="M2.26809 2.54373C2.46853 2.47376 2.65232 2.27386 2.87459 2.38381C2.84301 2.51624 2.75226 2.61119 2.67472 2.71364C2.62705 2.83358 2.77236 2.88606 2.82692 2.96477C2.7804 2.91917 2.62763 2.88481 2.65003 2.9985C2.7132 3.03411 2.77868 3.03036 2.84645 2.98726C3.02737 2.93416 3.21116 2.98725 3.38691 3.03598L3.33005 3.04785C2.93203 3.14093 2.53918 3.25962 2.14058 3.3527C1.93382 3.40455 1.71499 3.43891 1.53809 3.57759C1.49732 3.60445 1.45711 3.63256 1.41748 3.66129C1.34799 3.63756 1.27792 3.61444 1.20842 3.5907C1.17683 3.57883 1.11365 3.55447 1.08207 3.5426C1.09413 3.48326 1.10676 3.42391 1.11997 3.36519C1.19234 3.36394 1.26471 3.36332 1.33707 3.36269C1.29342 3.21214 1.24633 3.06097 1.16649 2.92791C1.16132 3.04598 1.15616 3.16404 1.13778 3.28086C1.10217 3.19153 1.06598 3.10345 1.02865 3.01599C1.12974 2.88106 1.22852 2.74363 1.33593 2.61494C1.35718 2.65242 1.3991 2.72614 1.42035 2.76362C1.48353 2.89605 1.62539 2.78798 1.70236 2.73051C1.71844 2.72301 1.75118 2.7074 1.76726 2.69927C1.84882 2.72489 1.91314 2.69928 1.96081 2.62369L2.00331 2.61307L2.02571 2.60745C2.09865 2.5912 2.17102 2.57246 2.24339 2.55247C2.24913 2.54997 2.26177 2.5456 2.26809 2.54373ZM1.97575 3.0997C1.81378 3.13656 1.57887 3.0947 1.50536 3.30272C1.78679 3.22089 2.07855 3.19215 2.35711 3.0972C2.39617 3.10532 2.4737 3.12156 2.51276 3.13031L2.49151 3.0872C2.56789 3.02099 2.55756 2.99163 2.46107 2.9985L2.45475 2.9479C2.30312 2.99912 2.04409 2.90979 1.97575 3.0997Z" fill="#62CA0E"/>
<path d="M3.01301 2.49188C3.04173 2.38943 3.01014 2.35507 2.91652 2.38756C2.88723 2.48876 2.91939 2.52311 3.01301 2.49188Z" fill="#62CA0E"/>
<path d="M5.91115 2.37569C5.92264 2.39318 5.94504 2.42816 5.95595 2.44565C5.98524 2.53936 5.90828 2.60495 5.83994 2.6418C5.8296 2.5481 5.82902 2.43253 5.91115 2.37569Z" fill="#62CA0E"/>
<path d="M16.413 2.52311C16.6836 2.39193 16.9782 2.37756 17.2648 2.45502C17.0465 2.53561 16.8248 2.60995 16.6221 2.73301C17.2947 3.14405 17.9902 3.51075 18.6685 3.9093C18.8379 3.94365 18.9884 3.79498 19.128 3.70752L19.1636 3.73251C19.1791 3.92929 19.1555 4.12669 19.1113 4.31847C19.0642 4.32034 18.9712 4.32471 18.9247 4.32659C19.2566 4.56959 19.6552 4.37032 20.0216 4.43278C20.0521 4.4509 20.1135 4.48713 20.144 4.50525C20.3559 4.49713 20.5684 4.49963 20.7809 4.49275C20.8056 4.59208 20.8389 4.59645 20.8803 4.50462C20.944 4.52336 21.0084 4.54086 21.0727 4.5571C21.0842 4.65392 21.1186 4.66454 21.1767 4.59083C21.2151 4.54148 21.2553 4.49463 21.2973 4.44965C21.6183 4.16667 21.9262 3.86557 22.2369 3.56884C22.4333 3.61319 22.6349 3.62881 22.8359 3.61944L22.8428 3.65942C22.8181 3.74812 22.7929 3.83683 22.763 3.92304C22.6803 3.93303 22.6665 3.83308 22.6297 3.77686C22.5643 3.76874 22.4994 3.76124 22.435 3.75437C22.4431 3.88056 22.3713 4.0461 22.481 4.1398C22.5585 4.17041 22.6407 4.12481 22.7188 4.11357C22.7337 4.13418 22.763 4.17604 22.7779 4.19665L22.8101 4.24225C22.6665 4.3422 22.5132 4.42404 22.3535 4.48651C22.3265 4.64018 22.3035 4.7951 22.2788 4.9494C22.5333 5.00437 22.7929 5.01687 23.0496 5.05685C23.0852 4.99375 23.122 4.93066 23.1587 4.86882C23.2271 4.84445 23.296 4.82259 23.3632 4.79635C23.4511 4.87257 23.466 4.99938 23.4987 5.10932C23.7055 5.13931 23.9128 5.16055 24.1213 5.17429L24.142 5.17616C24.3993 5.2555 24.671 5.14868 24.9225 5.24238C24.7669 5.43791 24.6331 5.67341 24.6325 5.94078C24.6244 6.27936 24.5779 6.62919 24.3763 6.90093C24.312 6.77411 24.2511 6.64543 24.1925 6.51549C23.3 6.39368 22.4023 6.3056 21.5167 6.13318C21.5299 5.79023 21.4753 5.44041 21.562 5.10432C21.6017 4.9569 21.6223 4.80447 21.616 4.6508C21.4282 4.58958 21.2869 4.72264 21.16 4.8507C20.9659 4.96627 20.7304 5.00375 20.5724 5.18178C20.6563 5.17054 20.7413 5.16305 20.8263 5.15555C20.77 5.24738 20.7149 5.34108 20.6615 5.43541L20.6144 5.42729C20.5667 5.37669 20.5213 5.32546 20.4754 5.27486C20.3421 5.30047 20.2072 5.30297 20.0722 5.30672C20.1578 5.26862 20.2445 5.23238 20.3312 5.19678C20.1405 5.20615 19.8884 5.10495 19.7592 5.31172C19.3497 5.28049 18.9413 5.24113 18.5301 5.24425C18.0884 5.16304 17.6393 5.21927 17.197 5.14618C16.8719 5.10245 16.5394 5.15867 16.2183 5.07496C16.3734 5.06559 16.5291 5.05122 16.6841 5.04123C16.6818 4.97126 16.679 4.9013 16.6772 4.83196C16.4406 4.77699 16.1994 4.747 15.9576 4.75637C15.8341 4.75887 15.7112 4.76387 15.5883 4.76199C15.2465 4.68953 14.8979 4.66704 14.5516 4.71452C14.5148 4.70702 14.4413 4.69141 14.4046 4.68328L14.3511 4.67579C14.2604 4.66204 14.1697 4.64955 14.0789 4.63768C14.0703 4.73513 14.0617 4.83383 14.0536 4.93253C13.8836 4.92941 13.7136 4.94253 13.5442 4.93628C13.5 4.93253 13.4109 4.92566 13.3667 4.92254C12.9607 4.85757 12.5489 4.89755 12.1428 4.83633C11.8522 4.79323 11.5541 4.85445 11.2692 4.76574C11.1072 4.71264 10.9372 4.72576 10.7707 4.73763C10.7977 4.72576 10.8511 4.7014 10.8775 4.68891C10.8247 4.60457 10.7713 4.52149 10.7173 4.43903C10.6719 4.44778 10.6265 4.45652 10.5811 4.46589C10.5668 4.56085 10.5536 4.6558 10.5404 4.75137C10.1768 4.75637 9.81268 4.74138 9.44969 4.76387C9.55652 5.00874 9.69781 5.23613 9.87988 5.42229C9.82072 5.45165 9.76788 5.49163 9.72193 5.54348C9.64267 5.59095 9.56111 5.63343 9.48013 5.67716C9.4227 5.58846 9.36469 5.501 9.30898 5.41229C9.31587 5.38793 9.3285 5.33921 9.3354 5.31484C9.36986 5.32296 9.43935 5.33858 9.47381 5.3467C9.39398 5.11744 9.20732 4.96252 9.12174 4.73576C9.09819 4.62581 8.99366 4.67516 8.92129 4.67391C8.67433 4.42091 8.49111 4.10482 8.32168 3.78811C8.24414 3.65567 8.3929 3.54198 8.43712 3.42641C8.56692 3.61819 8.6772 3.82371 8.79092 4.02736C8.78 3.95365 8.76909 3.88119 8.75761 3.80872C8.81791 3.85682 8.87822 3.90555 8.93852 3.9549L8.94197 4.008C8.93623 4.11732 8.92187 4.22539 8.90693 4.33408C8.99998 4.38031 9.09302 4.42779 9.18664 4.47526C9.15505 4.29473 9.11312 4.11732 9.05339 3.94553C9.24695 3.8968 9.42959 3.80685 9.62487 3.76437C9.72595 3.81497 9.79315 3.9449 9.91606 3.93553C10.2038 3.94365 10.4927 3.94365 10.781 3.9399C10.9677 3.93803 11.1228 3.80747 11.2985 3.75812C11.4272 3.76499 11.5127 3.91867 11.6437 3.92741C11.8436 3.93616 12.0429 3.95427 12.2387 3.998L12.2812 3.99738L12.2956 3.94678C12.2755 3.93428 12.2353 3.90929 12.2152 3.89743C12.218 3.77749 12.2209 3.65879 12.2272 3.5401C12.2927 3.66254 12.3323 3.79748 12.3547 3.93678C12.4684 3.93678 12.5896 3.95802 12.6959 3.8993C12.8682 3.82121 13.0698 3.66567 13.2335 3.84995C13.3202 3.77873 13.4035 3.70252 13.4862 3.62569C13.4236 3.52699 13.3478 3.41766 13.2266 3.41267C12.9664 3.39705 12.7039 3.41642 12.4455 3.37081C12.5023 3.33833 12.5598 3.30647 12.6172 3.27586C12.5638 3.18715 12.4885 3.09158 12.3823 3.09658C12.152 3.1072 11.9222 3.14218 11.6908 3.12656C11.7517 3.05597 11.8131 2.98538 11.874 2.91479C11.5954 2.78923 11.2859 2.89418 11.0004 2.7936C11.1957 2.66679 11.4266 2.68053 11.6454 2.65617C11.4869 2.62556 11.2882 2.6924 11.1595 2.56622C11.3864 2.52873 11.6155 2.55435 11.8413 2.58683C11.851 2.58808 11.87 2.58995 11.8797 2.5912L11.9211 2.59558C11.9291 2.5962 11.9458 2.59745 11.9538 2.5987C12.3473 2.62306 12.7407 2.65555 13.1272 2.743C13.2432 2.88543 13.3799 3.00975 13.5436 3.08158C13.4552 2.95852 13.3518 2.8492 13.2329 2.76237C13.3392 2.76112 13.4448 2.7555 13.5511 2.74738C13.7142 2.72051 13.8095 2.57121 13.9066 2.44378C13.9187 2.4494 13.9434 2.46189 13.9554 2.46752C13.9537 2.58433 13.9451 2.70115 13.9376 2.81797C13.9238 2.98975 13.9089 3.16154 13.8922 3.33333C14.0025 3.33208 14.1134 3.33209 14.2242 3.33396C14.2064 3.22152 14.188 3.10907 14.1737 2.99663C14.2805 3.08596 14.3914 3.16842 14.5039 3.249C14.6734 3.1553 14.8468 3.06784 15.0289 3.00725C15.0817 2.99225 15.1495 2.95915 15.1914 3.01912C15.3287 3.18153 15.4183 3.39018 15.5814 3.52761C15.7238 3.62194 15.8979 3.61694 16.0581 3.63568C16.0719 3.36269 16.0621 3.0897 16.065 2.81734C16.0667 2.77486 16.0702 2.6899 16.0719 2.64742C16.1856 2.6062 16.2987 2.56372 16.413 2.52311ZM15.5923 3.67254C15.6561 3.75625 15.7169 3.84245 15.7761 3.93054C15.6779 3.87181 15.5808 3.81184 15.4861 3.74875C15.4705 3.87494 15.4562 4.00175 15.443 4.12856C15.5274 4.13231 15.6124 4.13543 15.6974 4.13856C15.5814 4.27287 15.5665 4.45152 15.5831 4.62769C15.822 4.60895 16.0575 4.65205 16.2942 4.67516C16.6933 4.64455 17.0936 4.63643 17.4934 4.65767C17.7605 4.67891 18.0235 4.60207 18.2906 4.61769C18.4336 4.60895 18.653 4.57147 18.6628 4.37844C18.2205 4.37157 17.784 4.29598 17.3429 4.27786C17.0845 4.21664 16.818 4.25412 16.5595 4.2004C16.3091 4.14168 16.0524 4.1954 15.8002 4.15292C15.8094 4.06797 15.8238 3.98363 15.8375 3.89993C15.8938 3.94116 15.9524 3.97864 16.0133 4.01362C16.0547 3.95427 16.1155 3.82934 16.003 3.81122C15.8709 3.74938 15.7307 3.71189 15.5923 3.67254ZM15.0099 3.92491C14.9318 3.98613 14.8548 3.83558 14.9209 3.77686C14.9984 3.71627 15.0754 3.86557 15.0099 3.92491ZM13.8509 4.0917C13.8067 4.16167 13.6774 4.09358 13.7337 4.01612C13.7774 3.94553 13.9078 4.01299 13.8509 4.0917ZM8.72372 4.14293C8.63297 4.16729 8.67547 4.32784 8.76392 4.30097C8.85639 4.27786 8.81389 4.11044 8.72372 4.14293ZM13.4873 4.20665C13.4959 4.27162 13.5051 4.33721 13.5138 4.40342C13.7578 4.49213 14.0048 4.28223 14.2409 4.41842C14.2409 4.4509 14.2409 4.51587 14.2409 4.54773C14.3287 4.54773 14.4166 4.54835 14.5045 4.55085C14.5005 4.45839 14.4993 4.36657 14.4993 4.27474C14.4126 4.256 14.327 4.23663 14.2409 4.21664C13.9939 4.30535 13.7354 4.25975 13.4873 4.20665ZM10.8517 4.509C11.0234 4.41279 10.8597 4.71639 10.8517 4.509ZM21.9589 5.30297C21.9038 5.38981 21.747 5.30235 21.8182 5.2074C21.8728 5.12057 22.029 5.20802 21.9589 5.30297ZM22.0244 5.42104C22.0209 5.53161 22.0221 5.64218 22.0284 5.75275C22.0985 5.744 22.1691 5.73588 22.2398 5.72901L22.2524 5.67404L22.2426 5.73901C22.9066 5.79211 23.5659 5.89768 24.2264 5.98638C24.2281 5.93891 24.2322 5.84458 24.2339 5.7971C24.3315 5.74775 24.4303 5.69715 24.5136 5.62094C24.5147 5.50412 24.401 5.51474 24.3264 5.51225C24.1856 5.50225 24.0903 5.63343 23.9846 5.71152C23.5498 5.64968 23.1122 5.60532 22.6774 5.54161C22.4712 5.44853 22.2421 5.45727 22.0244 5.42104ZM21.8521 6.11195C21.7453 6.15317 21.7217 5.96764 21.8211 5.9464C21.9296 5.89955 21.9526 6.09133 21.8521 6.11195ZM24.2965 6.33371C24.2138 6.41617 24.3459 6.55422 24.4206 6.46552C24.5102 6.38181 24.3717 6.23938 24.2965 6.33371Z" fill="#62CA0E"/>
<path d="M11.1486 2.61931C11.1084 2.43878 10.8976 2.47002 10.7667 2.43816C10.7724 2.62619 11.0303 2.55622 11.1486 2.61931Z" fill="#62CA0E"/>
<path d="M4.80726 2.87481C4.87676 2.87669 4.94626 2.87918 5.01518 2.88168C5.04275 2.98476 5.07146 3.08783 5.0996 3.1909C5.00311 3.21402 4.90663 3.23651 4.81014 3.25962C4.80726 3.13093 4.80669 3.00287 4.80726 2.87481Z" fill="#62CA0E"/>
<path d="M6.36431 3.14843C6.3936 3.17966 6.3936 3.17966 6.36431 3.14843Z" fill="#62CA0E"/>
<path d="M3.45353 3.40142C3.47708 3.39643 3.52475 3.38643 3.54887 3.38143L3.56611 3.38268C3.73496 3.44265 3.89693 3.52574 4.07268 3.56134C3.89118 3.59633 3.70912 3.67004 3.52245 3.64568C3.46789 3.57821 3.43286 3.49575 3.39265 3.41829L3.45353 3.40142Z" fill="#62CA0E"/>
<path d="M24.9363 4.11919C24.9633 4.12106 25.0173 4.12544 25.0443 4.12794C25.0495 4.20103 25.0569 4.27411 25.0609 4.34845C25.0564 4.41904 25.0489 4.48963 25.0437 4.56084C25.0144 4.78323 25.0207 5.00812 25.0144 5.23176L24.9771 5.26174C24.9604 5.02311 24.9679 4.78323 24.9656 4.5446C24.965 4.51587 24.9645 4.45777 24.9639 4.42904C24.9581 4.32471 24.9472 4.22164 24.9363 4.11919Z" fill="#62CA0E"/>
<path d="M8.18958 4.2485C8.33546 4.2916 8.39577 4.45153 8.47445 4.57521C8.58013 4.76449 8.72085 4.93316 8.78747 5.1468C8.55142 4.98501 8.45378 4.67891 8.28147 4.45152C8.26826 4.52836 8.23725 4.59395 8.18843 4.6483C8.17235 4.51524 8.17522 4.38093 8.18958 4.2485Z" fill="#62CA0E"/>
<path d="M19.2784 4.3066C19.3589 4.28036 19.4157 4.30597 19.4496 4.38343C19.3686 4.40967 19.3112 4.38406 19.2784 4.3066Z" fill="#62CA0E"/>
<path d="M24.9903 5.46289C25.0081 5.34233 25.127 5.29673 25.2034 5.22676C25.2568 5.26049 25.3102 5.29423 25.3642 5.32859C25.2855 5.71964 25.3263 6.12132 25.2826 6.51674C25.2442 6.56672 25.2057 6.61669 25.1678 6.66792C25.0828 6.66979 24.9983 6.67167 24.9145 6.67416C24.903 6.56172 24.8892 6.44928 24.8714 6.33808C24.9323 6.0501 24.9409 5.75275 24.9903 5.46289ZM25.1523 5.38231C25.3234 5.28548 25.1615 5.58971 25.1523 5.38231ZM25.1523 5.64343C25.1821 5.67529 25.1821 5.67529 25.1523 5.64343ZM25.1523 5.89393C25.1821 5.92641 25.1821 5.92641 25.1523 5.89393ZM25.1523 6.14318C25.1821 6.17566 25.1821 6.17566 25.1523 6.14318ZM25.0954 6.38181C25.2666 6.28498 25.1046 6.58921 25.0954 6.38181Z" fill="#62CA0E"/>
<path d="M11.2623 1.64418C11.4157 1.53548 11.5937 1.43241 11.7821 1.48613C11.7855 1.51674 11.7913 1.57858 11.7947 1.60919C11.7735 1.62106 11.731 1.64605 11.7097 1.65792C11.561 1.6879 11.4099 1.66791 11.2623 1.64418Z" fill="#3E800F"/>
<path d="M5.61077 1.82221C5.63489 1.81222 5.68314 1.79223 5.70726 1.78223C5.72966 1.8091 5.77331 1.86219 5.79514 1.88905C5.83821 2.0496 5.8675 2.21452 5.91115 2.37569C5.82902 2.43253 5.8296 2.5481 5.83994 2.6418L5.83879 2.7049L5.78537 2.71114C5.70611 2.61369 5.64581 2.50187 5.5901 2.38756C5.62858 2.20202 5.6705 2.00837 5.61077 1.82221Z" fill="#3E800F"/>
<path d="M13.7314 2.33508C13.7854 2.37881 13.8457 2.41254 13.9066 2.44378C13.8095 2.57121 13.7142 2.72051 13.5511 2.74738C13.5362 2.61994 13.5206 2.49375 13.5046 2.36694C13.5804 2.36069 13.6556 2.3482 13.7314 2.33508Z" fill="#3E800F"/>
<path d="M7.89379 2.47126C8.07299 2.36319 8.27918 2.44503 8.47043 2.4519C8.48939 2.47376 8.52729 2.51687 8.54682 2.5381C8.48939 2.57746 8.43195 2.61682 8.37452 2.6568C8.37165 2.74363 8.36877 2.83046 8.3659 2.91792C8.46412 2.91917 8.5629 2.92041 8.66169 2.91479C8.807 3.24213 8.87305 3.6007 8.93852 3.9549C8.87822 3.90555 8.81791 3.85682 8.75761 3.80872C8.76909 3.88119 8.78 3.95365 8.79092 4.02736C8.6772 3.82371 8.56692 3.61819 8.43712 3.42641C8.3929 3.54198 8.24414 3.65567 8.32168 3.78811C8.49111 4.10482 8.67433 4.42091 8.92129 4.67391C9.07752 4.87256 9.19985 5.09933 9.3354 5.31484C9.3285 5.33921 9.31587 5.38793 9.30898 5.41229C9.28256 5.4935 9.27624 5.58033 9.27854 5.66654C9.22455 5.85645 9.20559 6.05447 9.21134 6.25312C9.05856 6.0526 8.90866 5.84833 8.78403 5.62531C8.69787 5.47664 8.59851 5.33858 8.5026 5.19803C8.41989 5.0481 8.36475 4.87007 8.23093 4.76324C8.05001 4.72076 7.86565 4.77012 7.68358 4.77261C7.71172 4.61082 7.70541 4.44465 7.67152 4.28473C7.56929 4.21727 7.47854 4.13043 7.42455 4.01237C7.46533 3.97489 7.50553 3.93803 7.54574 3.90117C7.52793 3.88743 7.49175 3.86057 7.47337 3.84683C7.54689 3.78873 7.62213 3.72938 7.66922 3.64318C7.76743 3.42454 7.87541 3.21089 7.9966 3.00662C8.04944 2.91042 8.10113 2.81484 8.15454 2.71927C8.13559 2.69865 8.09883 2.6568 8.07988 2.63618C8.12353 2.62931 8.21026 2.61557 8.25391 2.60869C8.13272 2.56622 8.01268 2.52124 7.89379 2.47126ZM8.07126 3.85557C7.97592 3.8612 7.93744 3.67691 8.03278 3.64505C8.14133 3.62194 8.17235 3.82559 8.07126 3.85557ZM8.18958 4.2485C8.17522 4.38093 8.17235 4.51524 8.18843 4.6483C8.23725 4.59395 8.26826 4.52836 8.28147 4.45152C8.45378 4.67891 8.55142 4.98501 8.78747 5.1468C8.72085 4.93316 8.58013 4.76449 8.47445 4.57521C8.39577 4.45153 8.33546 4.2916 8.18958 4.2485ZM8.12755 4.54898C8.0414 4.62331 7.95812 4.45527 8.03795 4.3953C8.1241 4.32034 8.20796 4.48776 8.12755 4.54898Z" fill="#3E800F"/>
<path d="M4.33515 2.57559C4.39316 2.57684 4.45117 2.57871 4.50918 2.58058C4.52813 2.75987 4.65334 2.99413 4.5333 3.1478C4.52411 3.10095 4.50688 3.00787 4.49827 2.96102C4.45864 2.9529 4.37995 2.93603 4.34032 2.92791C4.33573 2.81047 4.33458 2.69303 4.33515 2.57559Z" fill="#3E800F"/>
<path d="M14.6406 2.76987C14.6699 2.8011 14.6699 2.8011 14.6406 2.76987Z" fill="#3E800F"/>
<path d="M8.76852 2.8898C8.82882 2.87169 8.88913 2.85357 8.94944 2.83483C8.97988 2.87356 9.00974 2.91292 9.04018 2.95227C9.02697 3.01537 9.01376 3.07846 9.00055 3.14155C9.03731 3.20215 9.07349 3.26337 9.11025 3.32459C9.0913 3.33833 9.05282 3.36582 9.03329 3.37956C9.00572 3.39955 8.95059 3.44015 8.92302 3.46014C8.8696 3.27024 8.81676 3.08096 8.76852 2.8898Z" fill="#3E800F"/>
<path d="M13.9376 2.81797C14.0094 2.82234 14.0818 2.82609 14.1541 2.82796C14.1593 2.87044 14.1685 2.95477 14.1737 2.99663C14.188 3.10907 14.2064 3.22152 14.2242 3.33396C14.1134 3.33209 14.0025 3.33208 13.8922 3.33333C13.9089 3.16154 13.9238 2.98975 13.9376 2.81797Z" fill="#3E800F"/>
<path d="M14.6992 2.89543C14.7285 2.92729 14.7285 2.92729 14.6992 2.89543Z" fill="#3E800F"/>
<path d="M1.97575 3.0997C2.04409 2.90979 2.30312 2.99912 2.45475 2.9479L2.46107 2.9985C2.46853 3.02036 2.48404 3.06534 2.49151 3.0872L2.51276 3.13031C2.4737 3.12156 2.39617 3.10532 2.35711 3.0972C2.23075 3.06784 2.1021 3.08158 1.97575 3.0997Z" fill="#3E800F"/>
<path d="M3.33005 3.04785L3.38691 3.03598C3.7206 3.10532 4.04798 3.20715 4.38053 3.28086C4.49195 3.30335 4.59705 3.35145 4.69756 3.40767C4.49137 3.46827 4.28231 3.51512 4.07268 3.56134C3.89693 3.52574 3.73496 3.44265 3.56611 3.38268C3.56151 3.38268 3.5529 3.38206 3.54887 3.38143C3.52475 3.38643 3.47708 3.39643 3.45353 3.40142C3.43458 3.37768 3.39725 3.33083 3.37887 3.30772C3.3559 3.24025 3.33522 3.17279 3.31741 3.1047L3.33005 3.04785Z" fill="#3E800F"/>
<path d="M22.9462 3.55447C22.9428 3.44328 22.8687 3.27836 23.0123 3.24025C23.0289 3.4514 22.9881 3.66067 22.9014 3.84995C22.8802 3.78623 22.8601 3.72376 22.8428 3.65942L22.8359 3.61944C22.8319 3.59632 22.8233 3.54885 22.8193 3.52573C22.8509 3.53261 22.914 3.54698 22.9462 3.55447Z" fill="#3E800F"/>
<path d="M15.5923 3.67254C15.7307 3.71189 15.8709 3.74938 16.003 3.81122C16.1155 3.82934 16.0547 3.95427 16.0133 4.01362C15.9524 3.97864 15.8938 3.94116 15.8375 3.89993C15.8238 3.98363 15.8094 4.06797 15.8002 4.15292C16.0524 4.1954 16.3091 4.14168 16.5595 4.2004C16.818 4.25412 17.0845 4.21664 17.3429 4.27786C17.784 4.29598 18.2205 4.37157 18.6628 4.37844C18.653 4.57147 18.4336 4.60895 18.2906 4.61769C18.0235 4.60207 17.7605 4.67891 17.4934 4.65767C17.0936 4.63643 16.6933 4.64455 16.2942 4.67516C16.0575 4.65205 15.822 4.60895 15.5831 4.62769C15.5665 4.45152 15.5814 4.27287 15.6974 4.13856C15.6124 4.13543 15.5274 4.13231 15.443 4.12856C15.4562 4.00175 15.4705 3.87494 15.4861 3.74875C15.5808 3.81184 15.6779 3.87181 15.7761 3.93054C15.7169 3.84245 15.6561 3.75625 15.5923 3.67254Z" fill="#3E800F"/>
<path d="M13.4873 4.20665C13.7354 4.25975 13.9939 4.30535 14.2409 4.21664C14.2409 4.28348 14.2409 4.35095 14.2409 4.41842C14.0048 4.28223 13.7578 4.49213 13.5138 4.40342C13.5051 4.33721 13.4959 4.27162 13.4873 4.20665Z" fill="#3E800F"/>
<path d="M10.5811 4.46589C10.6265 4.45652 10.6719 4.44778 10.7173 4.43903C10.7713 4.52149 10.8247 4.60457 10.8775 4.68891C10.8511 4.7014 10.7977 4.72576 10.7707 4.73763C10.6943 4.7445 10.6173 4.74888 10.5404 4.75137C10.5536 4.6558 10.5668 4.56085 10.5811 4.46589Z" fill="#3E800F"/>
<path d="M14.0789 4.63768C14.1697 4.64955 14.2604 4.66204 14.3511 4.67579C14.269 4.67516 14.1869 4.67704 14.1048 4.68016C14.1042 4.73138 14.103 4.83383 14.1025 4.88506C14.2035 4.88256 14.3052 4.88006 14.4063 4.87631C14.6469 4.86257 14.8882 4.85632 15.1294 4.86382C15.1294 4.84133 15.1288 4.79698 15.1288 4.77449C14.9347 4.77886 14.74 4.76762 14.5516 4.71452C14.8979 4.66704 15.2465 4.68953 15.5883 4.76199C15.598 4.80322 15.6176 4.88693 15.6273 4.92879C15.6876 4.94315 15.7485 4.95877 15.8088 4.97439C15.9139 5.00125 16.0185 5.02998 16.1241 5.05497C15.6273 5.14992 15.1369 4.96752 14.64 5.01687C14.4407 5.02936 14.2483 4.96502 14.0536 4.93253C14.0617 4.83383 14.0703 4.73513 14.0789 4.63768Z" fill="#3E800F"/>
<path d="M20.5724 5.18178C20.7304 5.00375 20.9659 4.96627 21.16 4.8507C21.2169 4.90692 21.3013 4.94128 21.334 5.02249C21.3225 5.28923 21.2628 5.55285 21.2829 5.82209C21.1169 5.62719 20.9193 5.44353 20.6615 5.43541C20.7149 5.34108 20.77 5.24738 20.8263 5.15555C20.7413 5.16305 20.6563 5.17054 20.5724 5.18178Z" fill="#3E800F"/>
<path d="M19.7592 5.31172C19.8884 5.10495 20.1405 5.20615 20.3312 5.19678C20.2445 5.23238 20.1578 5.26862 20.0722 5.30672C20.2072 5.30297 20.3421 5.30047 20.4754 5.27486C20.5213 5.32546 20.5667 5.37669 20.6144 5.42729C20.3238 5.4579 20.0389 5.38918 19.7592 5.31172Z" fill="#3E800F"/>
<path d="M24.6325 5.94078C24.6331 5.67341 24.7669 5.43791 24.9225 5.24238L24.9771 5.26174C24.841 5.49413 24.8605 5.78086 24.822 6.0426C24.7996 6.14568 24.8324 6.245 24.8714 6.33808C24.8892 6.44928 24.903 6.56172 24.9145 6.67416C24.8479 6.77911 24.7778 6.88406 24.737 7.00525C24.7387 7.10083 24.8077 7.17579 24.8444 7.2595C24.7387 7.23388 24.6308 7.21077 24.5326 7.16079C24.4688 7.08271 24.4229 6.99088 24.3763 6.90093C24.5779 6.62919 24.6244 6.27936 24.6325 5.94078Z" fill="#3E800F"/>
<path d="M9.72193 5.54348C9.76788 5.49163 9.82072 5.45165 9.87988 5.42229L9.91434 5.44353C9.91434 5.48663 9.91376 5.57221 9.91376 5.61532C9.83852 5.62594 9.77477 5.60157 9.72193 5.54348Z" fill="#3E800F"/>
<path d="M22.0244 5.42104C22.2421 5.45727 22.4712 5.44853 22.6774 5.54161C22.5436 5.5466 22.4098 5.55472 22.2765 5.55972C22.2708 5.58783 22.2587 5.6453 22.2524 5.67404L22.2398 5.72901C22.1691 5.73588 22.0985 5.744 22.0284 5.75275C22.0221 5.64218 22.0209 5.53161 22.0244 5.42104Z" fill="#3E800F"/>
<path d="M23.9846 5.71152C24.0903 5.63343 24.1856 5.50225 24.3264 5.51225C24.401 5.51474 24.5147 5.50412 24.5136 5.62094C24.4303 5.69715 24.3315 5.74775 24.2339 5.7971C24.1512 5.76649 24.0685 5.73588 23.9846 5.71152Z" fill="#3E800F"/>
<path d="M24.4206 6.46552C24.5102 6.38181 24.3717 6.23938 24.2965 6.33371C24.2138 6.41617 24.3459 6.55422 24.4206 6.46552Z" fill="#3E800F"/>
<path d="M10.8425 6.39618C10.6541 6.41242 10.3991 6.31872 10.2589 6.49238C10.4525 6.45427 10.6506 6.44428 10.8425 6.39618Z" fill="#3E800F"/>
<path d="M4.34492 1.59483L4.37076 1.57546L4.36961 1.60732L4.34894 1.62294L4.34492 1.59483Z" fill="#C8CBCF"/>
<path d="M13.5528 1.88531C13.5499 1.77099 13.5471 1.65667 13.562 1.5436C13.6275 1.68916 13.6958 1.83471 13.7337 1.99275C13.6723 1.95777 13.6125 1.92091 13.5528 1.88531Z" fill="#C8CBCF"/>
<path d="M5.79514 1.88905C5.80375 1.86844 5.81983 1.82721 5.82787 1.8066C5.83649 1.83346 5.85487 1.88593 5.86406 1.91279C5.90369 2.01462 5.95078 2.11332 5.99731 2.21264C6.05704 2.33633 6.10011 2.46814 6.13974 2.60057C6.12079 2.6037 6.08231 2.60932 6.06336 2.61182C6.02545 2.55747 5.99099 2.50125 5.95595 2.44565C5.94504 2.42816 5.92264 2.39318 5.91115 2.37569C5.8675 2.21452 5.83821 2.0496 5.79514 1.88905Z" fill="#C8CBCF"/>
<path d="M8.61172 2.39443C8.64216 2.42691 8.64216 2.42691 8.61172 2.39443Z" fill="#C8CBCF"/>
<path d="M17.2648 2.45502C17.9023 2.84233 18.4956 3.3096 19.128 3.70752C18.9884 3.79498 18.8379 3.94365 18.6685 3.9093C17.9902 3.51075 17.2947 3.14405 16.6221 2.73301C16.8248 2.60995 17.0465 2.53561 17.2648 2.45502Z" fill="#C8CBCF"/>
<path d="M8.66169 2.91479C8.68811 2.90854 8.74152 2.89605 8.76852 2.8898C8.81676 3.08096 8.8696 3.27024 8.92302 3.46014C8.96667 3.62194 9.00687 3.78498 9.05339 3.94553C9.02582 3.96114 8.97011 3.99238 8.94197 4.008L8.93852 3.9549C8.87305 3.6007 8.807 3.24213 8.66169 2.91479Z" fill="#C8CBCF"/>
<path d="M12.2152 3.89743C12.2353 3.90929 12.2755 3.93428 12.2956 3.94678L12.2812 3.99738L12.2387 3.998C12.233 3.97301 12.2209 3.92241 12.2152 3.89743Z" fill="#C8CBCF"/>
<path d="M22.7779 4.19665C22.8009 4.12606 22.8244 4.0561 22.8497 3.98676C23.0008 4.27036 23.1047 4.60208 23.3632 4.79635C23.296 4.82259 23.2271 4.84445 23.1587 4.86882C23.068 4.64455 22.9474 4.43591 22.8101 4.24225L22.7779 4.19665Z" fill="#C8CBCF"/>
<path d="M8.76392 4.30097C8.85639 4.27786 8.81389 4.11044 8.72372 4.14293C8.63297 4.16729 8.67547 4.32784 8.76392 4.30097Z" fill="#C8CBCF"/>
<path d="M8.92129 4.67391C8.99366 4.67516 9.09819 4.62581 9.12174 4.73576C9.20732 4.96252 9.39398 5.11744 9.47381 5.3467C9.43935 5.33858 9.36986 5.32296 9.3354 5.31484C9.19985 5.09933 9.07752 4.87256 8.92129 4.67391Z" fill="#C8CBCF"/>
<path d="M14.4046 4.68328C14.4413 4.69141 14.5148 4.70702 14.5516 4.71452C14.74 4.76762 14.9347 4.77886 15.1288 4.77449C15.1288 4.79698 15.1294 4.84133 15.1294 4.86382C14.8882 4.85632 14.6469 4.86257 14.4063 4.87631C14.4057 4.82821 14.4051 4.73139 14.4046 4.68328Z" fill="#C8CBCF"/>
<path d="M15.9576 4.75637C16.1994 4.747 16.4406 4.77699 16.6772 4.83196C16.679 4.9013 16.6818 4.97126 16.6841 5.04123C16.5291 5.05122 16.3734 5.06559 16.2183 5.07496C16.1948 5.06997 16.1477 5.05997 16.1241 5.05497C16.0185 5.02998 15.9139 5.00125 15.8088 4.97439C15.8582 4.9013 15.9076 4.82883 15.9576 4.75637Z" fill="#C8CBCF"/>
<path d="M24.1213 5.17429C24.1265 5.17491 24.1368 5.17554 24.142 5.17616L24.1213 5.17429Z" fill="#C8CBCF"/>
<path d="M9.91434 5.44353C9.97866 5.44103 10.0349 5.46289 10.0838 5.50787C10.0602 5.58346 9.98326 5.62094 9.91376 5.61532C9.91376 5.57221 9.91434 5.48663 9.91434 5.44353Z" fill="#C8CBCF"/>
<path d="M15.2753 5.4454C15.4453 5.34795 15.2845 5.65405 15.2753 5.4454Z" fill="#C8CBCF"/>
<path d="M9.74433 5.70965C9.93559 5.71527 9.65703 5.89768 9.74433 5.70965Z" fill="#C8CBCF"/>
<path d="M9.877 5.69715C10.0482 5.60032 9.88677 5.90517 9.877 5.69715Z" fill="#C8CBCF"/>
<path d="M14.1208 5.76837C14.1507 5.80023 14.1507 5.80023 14.1208 5.76837Z" fill="#C8CBCF"/>
<path d="M4.63266 6.9484C4.76936 6.91217 4.90146 6.85907 5.02437 6.78536C5.16393 7.00462 5.35059 7.17954 5.49992 7.39068C5.20012 7.2926 4.95832 7.05335 4.6476 6.98338L4.63266 6.9484Z" fill="#080808"/>
<path d="M12.863 7.17829C12.8981 7.11457 12.9308 7.0496 12.9612 6.98401C13.0813 7.1102 13.1956 7.24263 13.3024 7.38318C13.1548 7.31697 13.0101 7.2445 12.863 7.17829Z" fill="#080808"/>
<path d="M8.4957 8.76874C8.525 8.8006 8.525 8.8006 8.4957 8.76874Z" fill="#C8CBCF"/>
<path d="M12.0842 2.16454C12.1663 2.08333 12.276 2.05585 12.384 2.0546C12.3662 2.11831 12.349 2.18203 12.3318 2.24638C12.2485 2.22201 12.1663 2.19328 12.0842 2.16454Z" fill="black"/>
<path d="M3.78665 2.16517C3.55806 2.13893 3.33694 2.20827 3.13362 2.31697C3.3559 2.29198 3.57472 2.24075 3.78665 2.16517Z" fill="black"/>
<path d="M3.95896 2.70615C3.82858 2.66929 3.97619 2.57871 4.04051 2.61619L4.06464 2.6518C4.03822 2.66554 3.98538 2.6924 3.95896 2.70615Z" fill="black"/>
<path d="M9.04018 2.95227C9.11312 2.9379 9.18549 2.92229 9.25786 2.90667C9.17113 2.98288 9.0867 3.06347 9.00055 3.14155C9.01376 3.07846 9.02697 3.01537 9.04018 2.95227Z" fill="black"/>
<path d="M2.14058 3.3527C2.53918 3.25962 2.93203 3.14093 3.33005 3.04785L3.31741 3.1047C2.72986 3.28648 2.13024 3.41829 1.53809 3.57759C1.71499 3.43891 1.93382 3.40455 2.14058 3.3527Z" fill="black"/>
<path d="M4.56949 4.85757C4.58672 4.72576 4.68206 4.63518 4.80037 4.61332C4.80439 4.71951 4.80784 4.82696 4.81186 4.93378C4.73088 4.90755 4.65047 4.88193 4.56949 4.85757Z" fill="black"/>
<path d="M5.59871 4.85695C5.67797 4.78261 5.78652 4.80635 5.88244 4.79885C5.90541 4.995 5.9996 5.2074 5.92953 5.3998C5.78824 5.52099 5.61939 5.60845 5.50682 5.76649C5.32992 5.98201 5.36955 6.29498 5.38678 6.55984C5.46833 7.01212 5.80203 7.45315 6.24427 7.49625C6.443 7.49313 6.62736 7.39755 6.81288 7.33196C6.91568 7.38506 7.01792 7.44066 7.12647 7.47876C7.27005 7.53811 7.4257 7.44628 7.53253 7.34508C7.66061 7.16454 7.72838 6.92404 7.93572 6.82659C8.09137 7.04211 8.3458 7.1052 8.54682 7.25387C8.35901 7.40192 8.14363 7.53561 8.04255 7.77486C7.90068 8.03661 7.89149 8.35082 7.95352 8.64068C7.72895 8.46514 7.52621 8.25275 7.27407 8.12282C6.96508 7.95977 6.67905 7.74051 6.34593 7.63493C6.34995 7.67554 6.35685 7.75737 6.36087 7.79798C6.55097 7.91979 6.79966 7.97914 6.92545 8.19028C6.87146 8.31459 6.73649 8.27586 6.63713 8.26399C6.3936 8.21964 6.15295 8.14343 5.93298 8.02037C5.76068 7.92104 5.66935 7.72052 5.51715 7.59433C5.3908 7.50687 5.23285 7.53936 5.09156 7.53623C4.85149 7.55247 4.60165 7.51125 4.37306 7.6112C4.47529 7.70427 4.57982 7.79423 4.6855 7.88418C4.13528 7.90355 3.73956 7.43816 3.29042 7.16892C3.29042 7.08458 3.29042 7.00087 3.29099 6.91717C3.22207 6.87656 3.15028 6.8422 3.07676 6.81409C3.32775 6.82909 3.57989 6.85782 3.8303 6.82471C4.11288 6.78036 4.38225 6.8978 4.6476 6.98338C4.95832 7.05335 5.20012 7.2926 5.49992 7.39068C5.35059 7.17954 5.16393 7.00462 5.02437 6.78536C5.0393 6.49175 5.04849 6.19565 5.00714 5.90392C4.98761 5.71339 4.94855 5.51037 5.0146 5.32609C5.1961 5.15242 5.40401 5.01249 5.59871 4.85695ZM5.42354 5.2555C5.47121 5.32796 5.52864 5.39418 5.59641 5.44603C5.62054 5.37919 5.64466 5.31297 5.66878 5.24675C5.58837 5.17991 5.50222 5.19178 5.42354 5.2555Z" fill="black" fill-opacity="0.26"/>
<path d="M2.75341 5.263C3.21863 5.09933 3.71831 5.08183 4.17089 4.86819C4.3116 5.36544 4.38914 5.88018 4.49942 6.38618C4.02156 6.34933 3.53969 6.4018 3.08136 6.55422C2.62188 6.63606 2.22156 6.93091 1.75749 6.99275C1.50421 7.02336 1.30721 6.81097 1.07173 6.75975C0.839117 6.79161 0.630056 6.95965 0.388831 6.92966C0.248117 6.90905 0.0798339 6.87282 0 6.73039C0.00976386 6.5611 0.0580088 6.39805 0.0901721 6.23251C0.553094 5.95515 1.08551 5.86519 1.58289 5.68403C1.9901 5.5972 2.3462 5.3492 2.75341 5.263Z" fill="black" fill-opacity="0.42"/>
<path d="M8.43712 6.01262C8.44344 5.74463 8.28262 5.40917 8.5026 5.19803C8.59851 5.33858 8.69787 5.47664 8.78403 5.62531C8.77541 5.70277 8.76737 5.78086 8.7599 5.85895C8.65193 5.91017 8.54452 5.9614 8.43712 6.01262Z" fill="black"/>
<path d="M10.0889 5.24363C10.2733 5.24987 10.2245 5.50725 10.2624 5.64405C10.2038 5.59658 10.1446 5.55097 10.0838 5.50787C10.0843 5.41916 10.0861 5.33108 10.0889 5.24363Z" fill="black"/>
<path d="M12.9228 6.4424C12.9854 6.42928 13.0485 6.41617 13.1117 6.40367C13.2674 6.59295 13.4121 6.7941 13.5183 7.02211C13.6257 7.26762 13.8653 7.42566 14.1111 7.44628C14.3287 7.46627 14.5011 7.29385 14.6802 7.18766C14.8428 7.31135 14.9996 7.47376 15.2046 7.50437C15.3959 7.50875 15.5504 7.36257 15.7077 7.26387C15.9932 7.37069 16.2855 7.4594 16.5853 7.50562C16.5968 7.47252 16.6198 7.40567 16.6313 7.37257C16.8536 7.40442 17.0666 7.47814 17.278 7.55497C17.5077 7.64118 17.7547 7.6112 17.9902 7.65867C18.2337 7.74425 18.4215 7.9504 18.6605 8.04785C19.325 8.27586 20.0216 8.33896 20.7132 8.38643C20.9992 8.42142 21.2525 8.58259 21.5155 8.6969C21.9187 8.89118 22.3627 8.96677 22.7555 9.18978C22.516 9.28723 22.2541 9.34408 22.0003 9.28411C21.4506 9.1473 20.9297 8.88618 20.3668 8.81247C19.8005 8.73313 19.2394 8.61132 18.6696 8.56322C18.6926 8.62631 18.7156 8.68941 18.7391 8.75375C18.2538 8.62381 17.8426 8.22027 17.3245 8.24401C16.4171 8.23963 15.5136 8.13094 14.609 8.06284C14.6039 8.12594 14.5987 8.18841 14.5941 8.25212C14.2541 8.28211 13.9324 8.1478 13.6068 8.06722C13.5574 8.12656 13.5086 8.18653 13.4598 8.24713C13.0009 8.21964 12.5845 7.98414 12.1353 7.90417C11.8964 7.85982 11.654 7.84296 11.4122 7.82796C11.5983 7.93041 11.7913 8.02724 11.9452 8.18528C11.7155 8.3096 11.4639 8.20777 11.2393 8.12281C11.2497 7.84233 11.1331 7.58558 11.0912 7.31447C11.1141 7.19265 11.1658 7.08021 11.2014 6.96277C11.2715 6.78473 11.2037 6.59358 11.1888 6.41242C11.2572 6.57984 11.291 6.76224 11.3634 6.92904C11.5133 7.05522 11.7126 7.07896 11.8729 7.18828C12.036 7.2901 12.1796 7.47126 12.3857 7.44815C12.5827 7.47126 12.7562 7.34945 12.863 7.17829C13.0101 7.2445 13.1548 7.31697 13.3024 7.38318C13.1956 7.24263 13.0813 7.1102 12.9612 6.98401C12.9595 6.80222 12.9417 6.62169 12.9228 6.4424Z" fill="black" fill-opacity="0.33"/>
<path d="M9.45429 6.56234C9.51172 6.58921 9.56973 6.61607 9.62716 6.64355C9.62716 6.71539 9.62774 6.78786 9.62774 6.86094C9.56973 6.88718 9.51229 6.91404 9.45429 6.94153C9.45429 6.81472 9.45429 6.68853 9.45429 6.56234Z" fill="black"/>
<path d="M7.18046 9.03298C7.41536 8.82746 7.7347 8.79998 8.02072 8.86557C8.14535 9.16917 8.34063 9.4559 8.62895 9.59145C8.90866 9.76199 9.24408 9.69328 9.5301 9.57896C9.50253 9.65392 9.47554 9.72951 9.44854 9.80572C9.29864 9.87381 9.14988 9.94628 8.99481 10H8.95231C8.39175 9.87007 7.81281 9.73201 7.32979 9.37843C7.22698 9.3066 7.10579 9.17479 7.18046 9.03298Z" fill="black" fill-opacity="0.35"/>
<path d="M10.0947 9.13481C10.2463 9.1067 10.4008 9.09358 10.5524 9.06297C10.5364 9.12981 10.5185 9.19603 10.4973 9.26225C10.2923 9.4128 10.0286 9.36907 9.79487 9.36782C9.89021 9.28411 9.96086 9.14418 10.0947 9.13481Z" fill="black"/>
</svg>
