<svg width="22" height="14" viewBox="0 0 22 14" fill="none" xmlns="http://www.w3.org/2000/svg">
<path d="M7.96977 0.00415516C8.04765 -0.0117015 8.07835 0.0178252 8.06243 0.0927341C7.98285 0.109684 7.95215 0.0801576 7.96977 0.00415516Z" fill="#252625"/>
<path d="M8.47343 0.614363C8.55244 0.596319 8.58314 0.625846 8.56609 0.702395C8.48821 0.718252 8.45694 0.688725 8.47343 0.614363Z" fill="#252625"/>
<path d="M8.69342 0.868615C8.7406 0.89158 8.78722 0.916185 8.83383 0.941884C8.88442 0.981799 8.93445 1.02226 8.9839 1.06382C9.06576 1.02062 9.14705 0.977426 9.22948 0.936417C9.48812 0.912906 9.75189 0.94954 10.0049 0.877911C10.3743 0.872444 10.7478 0.854947 11.1156 0.8883C11.1952 0.904157 11.2748 0.921654 11.3544 0.939698C11.3032 0.981253 11.2469 1.0157 11.1884 1.04577C11.3117 1.0321 11.4283 0.991641 11.5454 0.953913C11.7841 0.963208 12.0229 1.04413 12.2633 0.988908C12.5459 0.90197 12.8136 1.16005 13.0825 1.04085C13.1018 1.11849 13.1211 1.19668 13.1422 1.27433C13.0762 1.25628 13.0103 1.23715 12.9438 1.22293C12.937 1.22293 12.9227 1.22293 12.9159 1.22293C12.7062 1.26722 12.5009 1.33229 12.2861 1.35033C11.9717 1.21199 11.6301 1.31315 11.3032 1.33775C11.4567 1.45859 11.6511 1.49304 11.8393 1.42688C11.7841 1.47718 11.7313 1.53131 11.6801 1.58599C11.6466 1.62208 11.613 1.65817 11.58 1.69535C11.6346 1.8222 11.6863 1.95015 11.75 2.07372C11.8751 2.42202 12.2486 2.59152 12.4253 2.90701C12.5362 3.10057 12.6613 3.28648 12.788 3.47074C12.7914 3.47566 12.7971 3.48605 12.8005 3.49098C12.8443 3.56916 12.883 3.65063 12.9233 3.7321C12.9262 3.73812 12.9318 3.75015 12.9347 3.75616C12.9932 3.88138 13.0398 4.01206 13.0802 4.14438C13.0092 4.14 12.9387 4.13563 12.8682 4.13125C12.7209 3.73648 12.4913 3.37724 12.2349 3.04043C12.1167 2.91029 12.1138 2.73423 12.1047 2.57129C11.9376 2.55981 11.7625 2.5352 11.6471 2.40562C10.9275 1.76315 9.9679 1.35088 8.97594 1.37767C8.50071 1.40173 8.02037 1.45531 7.56844 1.60513C7.41894 1.6445 7.36437 1.79705 7.3115 1.92062C7.14949 2.28532 7.25068 2.6965 7.11027 3.06722C7.10742 3.10495 7.10174 3.17986 7.0989 3.21704C7.12334 3.3171 7.14665 3.41771 7.17848 3.51613C7.18076 3.52214 7.1853 3.53362 7.18758 3.53964C7.23533 3.64407 7.28819 3.7507 7.37233 3.83271C7.55196 3.87044 7.74125 3.87919 7.9027 3.97378C7.66565 3.98308 7.41723 3.9787 7.20406 3.86443C7.19781 3.85841 7.18587 3.84693 7.18019 3.84091C7.14381 3.76929 7.10742 3.69766 7.07161 3.62603C7.06593 3.61564 7.05456 3.59432 7.04887 3.58338L7.03011 3.54948C7.02613 3.54182 7.01761 3.52597 7.01363 3.51831L6.99771 3.48769C6.98464 3.18642 6.97043 2.88186 7.00624 2.58168C7.04376 2.38921 7.05911 2.19237 7.03466 1.99772C6.88686 2.3143 6.86356 2.66752 6.87265 3.01035C6.83002 2.96716 6.79079 2.92232 6.75441 2.87585C6.74645 3.25149 6.9079 3.60252 7.0881 3.9273C7.06479 3.92785 7.01874 3.92895 6.99544 3.92949C6.91699 3.70203 6.80785 3.48605 6.72883 3.25914C6.65038 2.7993 6.72485 2.33125 6.89312 1.89656C6.95337 1.92336 7.01533 1.94796 7.0773 1.97257C7.133 1.7041 7.27626 1.41922 7.55651 1.31424C7.77025 1.24425 7.99251 1.20379 8.20796 1.13982C8.39725 1.1606 8.58484 1.12888 8.75311 1.04249C8.74231 1.01132 8.72071 0.948993 8.70991 0.91728L8.69342 0.868615ZM12.7477 1.15568C12.7795 1.18575 12.7795 1.18575 12.7477 1.15568ZM11.0502 1.20871C11.0628 1.28089 11.1042 1.29346 11.1742 1.24589C11.1611 1.17262 11.1202 1.1606 11.0502 1.20871ZM11.206 1.70738C11.239 1.73909 11.239 1.73909 11.206 1.70738Z" fill="#030303"/>
<path d="M13.1791 0.99164C13.4389 1.00312 13.7027 0.858773 13.9556 0.970317C13.8618 0.967583 13.7686 0.964849 13.6754 0.961568C13.6595 1.05561 13.6453 1.15021 13.6339 1.24589C13.6805 1.25027 13.7732 1.25956 13.8192 1.26448C13.8306 1.28362 13.8539 1.32244 13.8652 1.34158C13.8095 1.38806 13.7481 1.42961 13.7055 1.48812C13.7095 1.56248 13.7265 1.63575 13.7413 1.70956C13.6117 1.65215 13.4776 1.60568 13.3411 1.56685C13.394 1.68715 13.448 1.81236 13.5463 1.90586C13.6475 1.90531 13.7476 1.88727 13.8488 1.87742C13.8698 1.92609 13.8903 1.9753 13.9113 2.02505C13.9329 2.1109 14.0153 2.18526 14.112 2.1705C14.1375 2.21588 14.1637 2.26072 14.191 2.30555C14.1677 2.32414 14.1205 2.36133 14.0966 2.37992C14.0165 2.27657 13.9568 2.12129 13.7987 2.12074C13.8874 2.24213 14.0295 2.33727 14.0511 2.49365C14.1279 2.4849 14.204 2.47505 14.2819 2.47615C14.3138 2.52973 14.341 2.58605 14.3649 2.64456C14.3712 2.60355 14.3842 2.52153 14.3905 2.48052C14.486 2.59425 14.3769 2.73368 14.3695 2.85835C14.4076 2.79984 14.4519 2.74517 14.5014 2.69432C14.4968 2.80367 14.4633 2.90756 14.4275 3.01035C14.4564 2.99012 14.5133 2.94911 14.5417 2.92888C14.5792 3.40786 14.9482 3.77858 15.0124 4.25154C14.9379 4.24553 14.864 4.23952 14.7901 4.23459C14.8072 4.14766 14.8242 4.06072 14.8419 3.97433C14.7776 4.05525 14.7117 4.13617 14.6452 4.21546C14.6355 4.20124 14.6162 4.17226 14.6065 4.15805C14.594 4.04267 14.5832 3.9273 14.5662 3.81303C14.5173 3.50027 14.4513 3.17603 14.2376 2.92396C14.0176 2.66205 13.8397 2.3575 13.5509 2.15738C13.3593 2.01521 13.1996 1.83478 12.9898 1.71667C12.8534 1.64067 12.7249 1.55318 12.605 1.45531C12.6823 1.4739 12.7602 1.4914 12.8386 1.50725C12.8471 1.50999 12.8636 1.51491 12.8722 1.51764C12.8875 1.52202 12.9188 1.53186 12.9341 1.53678C13.0984 1.47718 13.253 1.3968 13.4105 1.32299C13.4128 1.39024 13.415 1.4575 13.4173 1.5253C13.4435 1.49741 13.4963 1.44219 13.5225 1.41485C13.5282 1.40829 13.5395 1.39516 13.5452 1.3886L13.5725 1.35416C13.5759 1.34923 13.5816 1.33994 13.585 1.33502C13.5742 1.31533 13.5532 1.27542 13.5424 1.25574C13.548 1.17864 13.456 1.10756 13.402 1.19067C13.3332 1.21691 13.2633 1.24097 13.1945 1.26722C13.1899 1.19122 13.1859 1.11521 13.1814 1.03976L13.1791 0.99164ZM13.0319 1.59255C13.0643 1.62427 13.0643 1.62427 13.0319 1.59255ZM14.2217 2.58058C14.2546 2.61175 14.2546 2.61175 14.2217 2.58058ZM14.2785 2.68994C14.3109 2.72111 14.3109 2.72111 14.2785 2.68994Z" fill="#252625"/>
<path d="M6.10466 1.30877C6.14616 1.37165 6.20073 1.43508 6.19619 1.51491C6.09273 1.551 6.02735 1.36783 6.10466 1.30877Z" fill="#252625"/>
<path d="M6.24451 1.5756C6.45484 1.63137 6.65948 1.71448 6.82604 1.85337C6.61741 1.79541 6.41561 1.70573 6.24451 1.5756Z" fill="#252625"/>
<path d="M10.2766 2.62159C10.284 2.34328 10.2163 2.05294 10.3232 1.78611C10.3732 1.98842 10.3613 2.19729 10.3601 2.40343C10.3516 2.77469 10.3846 3.14814 10.3283 3.51722C10.2493 3.22524 10.2982 2.91959 10.2766 2.62159Z" fill="#252625"/>
<path d="M11.077 2.47998C11.1486 2.39851 11.2185 2.3154 11.2987 2.24158C11.3151 2.26017 11.3481 2.29681 11.3646 2.3154C11.4033 2.3739 11.4402 2.43459 11.4772 2.49474C11.4385 2.53684 11.4004 2.57949 11.3629 2.62269C11.3885 2.61995 11.4396 2.61394 11.4652 2.6112C11.5738 2.63909 11.7119 2.62597 11.7972 2.70361C11.8808 2.86983 11.8353 3.0705 11.9132 3.23891C11.9677 3.28538 12.032 3.31819 12.0962 3.35154C11.8774 3.43575 11.6397 3.35975 11.4175 3.33077C11.4186 3.4363 11.4186 3.54237 11.4175 3.64899C11.4982 3.67469 11.5783 3.70148 11.6596 3.72554C11.5783 3.73757 11.4976 3.75343 11.4169 3.76874C11.3919 3.94918 11.4033 4.13125 11.4612 4.30568C11.7324 4.16187 12.0456 4.23405 12.3361 4.26303C12.7283 4.31005 13.124 4.25483 13.5162 4.29146C13.9551 4.32973 14.3916 4.41175 14.8333 4.38988C15.1761 4.36637 15.5143 4.438 15.8566 4.43854C15.8321 4.38168 15.8071 4.32645 15.7804 4.27123C15.8583 4.16734 15.9572 4.07493 16.0902 4.04322C16.2027 4.05416 16.313 4.0815 16.4261 4.09243L16.4586 4.09735L16.479 4.07166C16.5217 4.02409 16.566 3.97761 16.6115 3.93277C16.6922 3.93441 16.7735 3.93168 16.8542 3.94261C16.9781 3.97378 17.1015 4.00932 17.2254 4.04377C17.2254 4.01752 17.2248 3.96449 17.2248 3.93769C17.3118 4.02572 17.4181 4.09243 17.5261 4.15477C17.3146 4.22366 17.0929 4.25155 16.8718 4.21874C16.9463 4.31661 17.0333 4.40628 17.1367 4.47737C17.131 4.51728 17.1254 4.5572 17.1202 4.59711C17.3635 4.61297 17.6068 4.61023 17.8501 4.60477C17.9678 4.60969 18.1162 4.58071 18.1901 4.69444C18.4157 4.98532 18.7 5.25325 18.8256 5.60209C18.9126 6.14395 19.2156 6.61801 19.4071 7.12761C19.4788 7.40319 19.85 7.46716 19.8966 7.75149C19.9739 8.05276 20.0819 8.34638 20.2308 8.62141C20.3116 8.58423 20.3923 8.54705 20.4736 8.50987C20.5088 8.59954 20.5441 8.68867 20.5799 8.77834C20.6401 8.75373 20.7004 8.72968 20.7618 8.70616C20.7112 8.64821 20.6691 8.58478 20.6333 8.51862C20.6776 8.51917 20.7669 8.51971 20.8118 8.52026C20.7584 8.49784 20.7055 8.47488 20.6532 8.45136L20.6447 8.41582C20.8908 8.2835 21.1239 8.09377 21.4166 8.07682C21.3467 8.18836 21.4019 8.28842 21.4985 8.36169C21.565 8.36169 21.6309 8.36169 21.698 8.36279C21.7196 8.27366 21.7537 8.18727 21.7657 8.0965C21.735 8.01777 21.6247 7.94231 21.7134 7.86248C21.8134 7.91661 21.9089 7.97731 21.9999 8.04456C22.0044 8.39778 21.8833 8.73733 21.7594 9.06595C21.7037 9.201 21.6969 9.34918 21.7191 9.49243C21.7458 9.50228 21.7998 9.52196 21.8271 9.53235C21.9027 9.83581 21.5883 10.0884 21.2916 10.0392C21.4161 9.95501 21.5377 9.86042 21.6054 9.72536C21.4348 9.75708 21.2904 9.85058 21.162 9.95829C21.1387 9.92439 21.0926 9.85604 21.0693 9.8216C21.1864 9.7281 21.3285 9.64335 21.3933 9.50556C21.3717 9.38964 21.2472 9.28958 21.2938 9.16874C21.3348 8.99541 21.4758 8.87348 21.5792 8.7346C21.5684 8.66516 21.5485 8.59681 21.5332 8.52846C21.3257 8.52299 21.1057 8.59736 20.9869 8.7685C20.9386 8.96425 20.9425 9.16819 20.8851 9.36285C20.834 9.56297 20.7322 9.75051 20.7078 9.9572C20.6958 10.159 20.7385 10.358 20.7589 10.5581C20.7049 10.7774 20.3968 10.8009 20.2013 10.8266C20.0955 10.5597 19.8471 10.3749 19.7516 10.1015C19.4827 10.2514 19.2724 10.4919 18.9762 10.5975C18.7972 10.6565 18.6369 10.755 18.4618 10.8217C18.3492 10.8381 18.2424 10.7867 18.1332 10.7703C18.0241 10.8025 17.9735 10.9485 17.8462 10.9359C17.6739 10.9135 17.5318 10.7998 17.3903 10.7101C17.3567 10.7265 17.2896 10.7593 17.2561 10.7757C17.2299 10.5275 17.4124 10.3099 17.4045 10.0622C17.3829 9.97907 17.3158 9.91838 17.2703 9.84784C17.6012 9.88229 17.9667 9.87299 18.2463 9.67615C18.6062 9.40823 18.8734 8.96206 18.7818 8.5137C18.6977 8.72913 18.7227 8.97791 18.5766 9.17147C18.4817 9.30325 18.3708 9.50337 18.1759 9.4815C17.9064 9.4476 17.6233 9.40933 17.392 9.26279C17.2538 9.15343 17.106 9.05556 16.94 8.9894C17.0037 8.91941 17.0691 8.85106 17.1379 8.7849C17.1538 8.78873 17.1862 8.79693 17.2021 8.80076C17.2129 8.88387 17.2379 8.96479 17.2641 9.04517C17.2908 8.85598 17.293 8.66516 17.2896 8.47488L17.3442 8.4787C17.309 8.56455 17.3306 8.65859 17.3402 8.74717C17.3362 8.79037 17.3289 8.87676 17.3249 8.91996C17.3846 8.89316 17.4448 8.86692 17.5051 8.84013C17.5142 8.74717 17.5244 8.65422 17.5341 8.56181C17.6739 8.52682 17.8444 8.51971 17.9343 8.39395C17.9638 8.24359 17.903 8.0801 17.7984 7.96856C17.7069 7.92646 17.6017 7.93247 17.5034 7.92044C17.4875 7.86084 17.4715 7.80234 17.4568 7.74328C17.4516 7.68041 17.4471 7.61807 17.4431 7.55574C16.9582 7.25009 16.5108 6.88265 15.981 6.64754C16.0385 6.55021 16.1044 6.44413 16.0447 6.33259C15.9458 6.38891 15.8475 6.44632 15.7491 6.50319C15.669 6.45179 15.5882 6.40039 15.5035 6.3561C15.5911 6.28885 15.6775 6.21995 15.7645 6.15215C15.9145 6.19207 16.0527 6.12263 16.1658 6.0335C15.6678 5.95805 15.1619 5.98375 14.6634 5.9154C14.1364 5.92961 13.6151 5.81807 13.0882 5.85853L13.066 5.90118C13.0381 5.95805 13.0109 6.01491 12.9847 6.07287C12.95 6.0674 12.8812 6.05647 12.8471 6.051C12.8619 5.94274 12.8761 5.83393 12.8875 5.72512C12.9358 5.69669 12.9836 5.66771 13.0313 5.63818C12.9864 5.57913 12.9415 5.52062 12.8955 5.46266C13.045 5.55507 13.2081 5.65076 13.3889 5.57639C13.4832 5.60045 13.577 5.64966 13.6777 5.62998C13.7851 5.45665 13.7305 5.23083 13.8238 5.04984C13.8488 5.04055 13.8982 5.02305 13.9232 5.01376C13.9147 5.22208 13.8954 5.4304 13.8704 5.63763C13.9755 5.63271 14.0807 5.63217 14.1859 5.63709C14.233 5.43204 14.1745 5.16795 14.3564 5.01704C14.3621 5.18873 14.3217 5.3637 14.3621 5.53265C14.4525 5.72512 14.7265 5.73004 14.8925 5.63162C15.0113 5.56491 15.0169 5.41892 15.0283 5.30246C15.0323 5.14936 15.0493 4.98423 14.9743 4.84371C14.7299 4.77536 14.4724 4.80106 14.2217 4.78466C13.8664 4.77755 13.5054 4.72232 13.1564 4.80871C13.0438 4.75404 12.9233 4.71795 12.7983 4.70483C12.7636 4.90057 12.717 5.09413 12.6704 5.28824C12.6436 5.08812 12.6084 4.88909 12.5623 4.69225C12.4504 4.69717 12.3389 4.70045 12.227 4.70209C12.1451 4.853 12.0774 5.01813 12.1434 5.18818C12.1502 5.27184 12.1548 5.3555 12.157 5.44025C12.1064 5.4315 12.0558 5.42494 12.0053 5.41838C11.9945 5.33034 11.9837 5.24231 11.9734 5.15483C11.8847 5.16686 11.7961 5.17888 11.708 5.19037C11.6898 5.10726 11.6704 5.02524 11.6477 4.94377C11.6846 4.84808 11.7227 4.75349 11.7608 4.6589C11.692 4.67967 11.6233 4.701 11.5545 4.72287C11.517 4.69608 11.4794 4.66874 11.4419 4.64195C11.3942 4.51127 11.31 4.39535 11.2663 4.26357C11.4237 3.97487 11.3947 3.64735 11.3771 3.33295C11.3765 3.19353 11.3339 3.0612 11.2611 2.94201C11.2805 2.88788 11.2992 2.8332 11.3174 2.77852C11.3379 2.62433 11.1804 2.56035 11.077 2.47998ZM17.0537 4.06127C17.0276 4.13563 17.0554 4.16406 17.1367 4.14656C17.1617 4.07165 17.1339 4.04322 17.0537 4.06127ZM16.1351 4.13453C16.0515 4.25975 15.981 4.41722 16.1442 4.51673C16.2647 4.42925 16.3608 4.30786 16.3204 4.15367C16.2744 4.1493 16.1817 4.13946 16.1351 4.13453ZM16.3818 4.15477C16.5541 4.07056 16.392 4.33356 16.3818 4.15477ZM11.3822 4.27396C11.4118 4.30294 11.4118 4.30294 11.3822 4.27396ZM11.8523 4.69991C11.7995 4.78083 12.0104 4.99571 12.0013 4.81199C12.0064 4.7431 11.9245 4.64304 11.8523 4.69991ZM16.3187 4.76552C16.2886 4.8541 16.3204 4.88362 16.4136 4.85464C16.4426 4.76552 16.4108 4.73599 16.3187 4.76552ZM16.6598 4.76497C16.6297 4.85355 16.6615 4.88308 16.7547 4.8541C16.7837 4.76497 16.7519 4.73545 16.6598 4.76497ZM11.8313 4.88417C11.7819 4.95197 11.7949 4.99243 11.8694 5.00556C11.9188 4.93775 11.9063 4.89729 11.8313 4.88417ZM15.4456 5.39596C15.3574 5.26145 15.1971 5.2691 15.0528 5.29097C15.0522 5.41783 14.997 5.59225 15.134 5.67427C15.308 5.7705 15.5769 5.7541 15.7002 5.58897C15.7861 5.39268 15.7883 5.17506 15.7929 4.96619C15.6007 5.03344 15.4183 5.17834 15.4456 5.39596ZM16.7189 5.4222C16.6876 5.51133 16.7183 5.54195 16.811 5.51406C16.8417 5.42439 16.8116 5.39377 16.7189 5.4222ZM17.7859 5.90173C17.7865 5.99031 17.7876 6.07889 17.7882 6.16801C17.9979 6.19152 18.2049 6.24565 18.418 6.2369C18.4169 6.12481 18.4169 6.01272 18.418 5.90118C18.2071 5.89517 17.9962 5.89517 17.7859 5.90173ZM16.4495 6.18715C16.3733 6.21777 16.2681 6.2894 16.2653 6.37251C16.3483 6.39438 16.5649 6.25659 16.4495 6.18715ZM17.5767 7.23259C17.5096 7.28399 17.5886 7.41084 17.6654 7.36109C17.733 7.30914 17.6534 7.1801 17.5767 7.23259ZM20.2558 8.6832C20.3155 8.79092 20.3485 8.91339 20.4196 9.01564C20.5179 9.04407 20.6327 9.03861 20.714 8.97245C20.6276 8.95987 20.5406 8.9544 20.4537 8.95604C20.5259 8.93964 20.5759 8.87785 20.6498 8.86692C20.5719 8.85598 20.4946 8.8445 20.4173 8.83302C20.4054 8.80294 20.3809 8.74225 20.369 8.71218C20.3405 8.70507 20.2843 8.69031 20.2558 8.6832ZM20.2433 9.85659C20.2757 9.88776 20.2757 9.88776 20.2433 9.85659Z" fill="#030303"/>
<path d="M10.683 4.06345C10.6802 3.84255 10.6785 3.61947 10.7359 3.40403C10.7848 3.50245 10.8416 3.60361 10.8354 3.71625C10.8268 4.17718 10.8462 4.64413 10.9587 5.09304C11.1031 5.09796 11.2469 5.10452 11.3913 5.11327C11.177 5.15319 10.9616 5.18763 10.7438 5.19912C10.7058 5.02415 10.6762 4.84754 10.6643 4.66928C9.99405 4.5654 9.31816 4.47408 8.63885 4.47354C8.17271 4.39207 7.69635 4.4544 7.22907 4.38058C6.97099 4.40847 6.79591 4.22749 6.65323 4.04978C6.84537 4.05361 7.03637 4.07001 7.2268 4.09462C7.6827 4.15531 8.14429 4.07603 8.59962 4.14328C8.91398 4.18812 9.23175 4.17171 9.54781 4.16789C9.92754 4.15914 10.3027 4.27068 10.6825 4.21436C10.683 4.18976 10.6836 4.14109 10.6842 4.11649L10.683 4.06345Z" fill="#030303"/>
<path d="M9.29087 3.78788C9.43185 3.75343 9.5137 3.91363 9.60523 3.99018C9.62171 4.01096 9.65411 4.05252 9.67003 4.07275C9.58078 4.0815 9.49154 4.09243 9.40286 4.10337C9.41593 4.02572 9.42957 3.94808 9.44322 3.87099C9.39774 3.87263 9.30679 3.87591 9.26131 3.87755C9.27325 3.95027 9.28575 4.02299 9.29826 4.09571C9.22607 4.09189 9.15387 4.08806 9.08168 4.08478C9.13057 3.97433 9.17547 3.85076 9.29087 3.78788Z" fill="#252625"/>
<path d="M12.0513 3.91637C12.1951 3.86442 12.3441 3.75397 12.5027 3.81904C12.514 3.84966 12.5362 3.91199 12.547 3.94316C12.58 4.03229 12.622 4.11868 12.6641 4.20507C12.5686 4.20343 12.4737 4.20343 12.3782 4.20561C12.4072 4.18757 12.4651 4.15203 12.4941 4.13399C12.4987 4.09462 12.5083 4.01698 12.5135 3.97761C12.4685 3.98034 12.3799 3.98636 12.3355 3.98909C12.3281 4.02627 12.3139 4.10173 12.3071 4.13945C12.2741 4.14328 12.2082 4.15148 12.1752 4.15531C12.2082 4.07876 12.2423 4.00221 12.2764 3.92621C12.2014 3.92238 12.1263 3.9191 12.0513 3.91637Z" fill="#252625"/>
<path d="M5.4606 3.87919C5.56975 3.91309 5.67946 3.94644 5.78974 3.97925C5.78917 4.16023 5.90059 4.30458 6.02622 4.4287C5.87103 4.43581 5.71584 4.44838 5.56122 4.43472C5.53962 4.41175 5.49585 4.36637 5.47425 4.3434C5.4697 4.18812 5.46458 4.03338 5.4606 3.87919Z" fill="#252625"/>
<path d="M3.18279 3.98745C3.25442 3.98964 3.32604 3.99182 3.39767 3.99456C3.40051 4.06619 3.40336 4.13836 3.4062 4.21054C3.33002 4.21108 3.25442 4.21272 3.17881 4.21382C3.17995 4.13836 3.18166 4.06291 3.18279 3.98745Z" fill="#252625"/>
<path d="M3.08331 4.86722C3.15323 4.68842 3.23339 4.48939 3.43462 4.41558C3.92008 4.54517 4.42317 4.65726 4.85349 4.92026C4.80972 4.97767 4.76311 5.03344 4.71365 5.08648C4.52947 5.14061 4.38394 5.31394 4.45443 5.50531C4.5704 5.8126 4.75344 6.09201 4.89499 6.38946C4.87168 6.59559 4.83416 6.80009 4.78584 7.0024C4.78357 6.89468 4.78641 6.78587 4.77049 6.67925C4.71649 6.58247 4.59996 6.53818 4.51469 6.47093C4.47888 6.35173 4.44306 6.22105 4.31743 6.1609C4.25092 6.30416 4.21568 6.45835 4.21057 6.61473C4.18726 6.61035 4.14008 6.60106 4.11677 6.59669C4.12473 6.51412 4.13325 6.43101 4.14178 6.34899C3.99512 6.29049 3.84789 6.18551 3.68133 6.22816C3.49601 6.2637 3.30899 6.20847 3.12311 6.23745C2.82182 6.28666 2.50406 6.21995 2.21812 6.35118C2.25337 6.47038 2.3068 6.58302 2.37502 6.688C2.487 6.55294 2.6041 6.41242 2.78203 6.35665C2.83319 6.49498 2.88208 6.63441 2.92528 6.77548C3.0782 6.73338 3.22486 6.6705 3.38118 6.64262C3.52785 6.75142 3.43689 6.99091 3.58924 7.09918C3.67906 7.16807 3.79673 7.10738 3.89848 7.10191C4.31743 7.27032 4.79835 7.30969 5.15307 7.60987C4.96093 7.69189 4.80062 7.53059 4.64316 7.45076C4.48286 7.3507 4.26514 7.27852 4.08664 7.37858C3.96044 7.43709 3.98148 7.63776 4.11791 7.66947C4.4425 7.7832 4.74264 7.98059 5.09793 7.99043C5.10645 7.90294 5.11498 7.81601 5.12351 7.72907C6.35479 8.03308 7.57413 8.37974 8.79972 8.70507C9.04643 8.77725 9.30622 8.81388 9.54383 8.91339C9.66776 8.94565 9.63138 9.08782 9.64274 9.18022C9.63479 9.50282 9.71039 9.81996 9.82408 10.1218C8.74515 9.99875 7.67645 9.80137 6.59979 9.66576C6.32921 9.63569 6.06146 9.53891 5.78747 9.59086C5.65388 9.50392 5.5004 9.54492 5.35828 9.58593C5.35999 9.63842 5.36169 9.69037 5.3634 9.74286C5.39921 9.75926 5.47083 9.79152 5.50665 9.80793C5.4174 9.90361 5.29746 9.94681 5.165 9.94298C5.18263 9.98399 5.20025 10.0255 5.21844 10.0671C5.30087 10.0693 5.38386 10.072 5.46686 10.0759C5.36851 10.1765 5.25653 10.2645 5.13033 10.3312C5.16046 10.3717 5.19115 10.4121 5.22185 10.4531C5.11612 10.4963 5.01038 10.5412 4.90579 10.5871C4.94103 10.6358 4.97571 10.6839 5.01095 10.7331C4.84667 10.8599 4.65169 10.9458 4.45728 11.0212C4.18442 11.1262 3.88995 11.1967 3.60004 11.1104C3.5665 11.1639 3.53296 11.2181 3.49886 11.2722C3.28796 11.299 3.21235 11.0584 3.02419 11.0404C2.93893 11.1257 2.8474 11.2317 2.7087 11.1962C2.69506 11.0245 2.59728 10.8949 2.4455 10.8107C2.36763 10.872 2.29032 10.9337 2.213 10.9961C2.09079 10.8304 2.10159 10.6095 1.96573 10.452C1.85601 10.4559 1.74858 10.4777 1.64114 10.4941C1.61726 10.2885 1.64057 10.0742 1.51778 9.89159C1.43365 9.89377 1.35009 9.89651 1.26652 9.90307C1.24151 9.84456 1.21536 9.7866 1.18864 9.72864C1.2273 9.65702 1.26596 9.58539 1.30461 9.51431C1.27164 9.43448 1.24265 9.35355 1.21366 9.27318C1.13009 9.24201 1.03402 9.23053 0.966378 9.16929C0.893615 8.95386 1.14089 8.8106 1.07893 8.59353C1.00105 8.54814 0.922607 8.50386 0.84416 8.45902C0.819147 8.26273 0.984 8.12548 1.08916 7.9784C1.03516 7.89857 0.980589 7.81874 0.921469 7.74274C0.94705 7.55574 1.09542 7.43271 1.23469 7.31625C1.22559 7.14237 1.07609 7.00841 1.07609 6.8411C1.1733 6.62403 1.32394 6.41953 1.52745 6.28283C1.71674 6.18223 1.90263 6.06631 2.11523 6.01601C2.37615 5.9657 2.6439 5.99742 2.90709 6.01273C2.72007 6.13083 3.05887 6.20027 3.00771 6.02038C3.41416 5.95149 3.81037 5.83502 4.21909 5.77816C3.8837 5.53101 3.43746 5.43204 3.0259 5.53867C3.00316 5.38885 2.9952 5.23466 3.05034 5.09031C2.92983 5.07062 2.79795 5.04766 2.75474 4.92135C2.61831 5.0072 2.48132 5.10343 2.31703 5.13022C2.15332 5.14444 1.98903 5.13241 1.82532 5.13296C1.69173 5.02524 1.65592 4.84098 1.80542 4.72779C1.8401 4.74638 1.90888 4.78356 1.94299 4.80215C1.96857 4.89511 1.99472 4.98806 2.02144 5.08101C2.33068 4.98095 2.64276 4.8787 2.97246 4.86886C2.99691 4.87597 3.0458 4.89128 3.07024 4.89893L3.08331 4.86722ZM3.25953 4.72178C3.15721 4.90276 3.0475 5.1335 3.18052 5.32761C3.33173 5.06187 3.50625 4.80707 3.63187 4.52876C3.50454 4.58344 3.35106 4.61406 3.25953 4.72178ZM1.71049 6.6191C1.73891 6.70878 1.79633 6.79134 1.88955 6.82852C1.93162 6.67324 2.0203 6.53654 2.10329 6.3993C1.95606 6.42937 1.78894 6.48842 1.71049 6.6191ZM2.33181 7.52129C2.02769 7.62518 1.85147 7.92427 1.77245 8.20914C1.73777 8.52518 1.7139 8.85872 1.83725 9.16163C1.99131 9.56898 2.29088 9.95665 2.72064 10.1201C3.02306 10.2404 3.40279 10.1792 3.6171 9.93205C3.8729 9.71716 3.93998 9.38198 3.9792 9.0736C3.96329 8.86965 3.92236 8.6657 3.86153 8.46941C3.83823 8.45191 3.79161 8.41692 3.7683 8.39942C3.91042 8.71054 3.91326 9.06048 3.86039 9.39128C3.81151 9.52579 3.7666 9.70951 3.59322 9.73247C3.57844 9.62202 3.56423 9.51212 3.55172 9.40167C3.36413 9.43174 3.24134 9.58703 3.06797 9.64608C2.97587 9.49462 2.87071 9.34918 2.73087 9.2349C2.56261 9.11242 2.53475 8.89918 2.4563 8.72366C2.51713 8.55853 2.54498 8.3781 2.66948 8.24195C2.6996 8.24414 2.75986 8.24796 2.78999 8.25015C2.70245 8.18016 2.62684 8.0976 2.52964 8.04019C2.62229 7.93794 2.71097 7.82968 2.8241 7.74766C2.92471 7.66181 3.0691 7.70118 3.19132 7.6897C3.19985 7.74492 3.31411 7.80452 3.334 7.72743C3.32548 7.66291 3.24134 7.58581 3.1737 7.62299C3.12254 7.57597 3.06114 7.54426 2.99065 7.52785C2.98326 7.52567 2.96962 7.52129 2.96223 7.5191C2.93836 7.512 2.89061 7.49833 2.86673 7.49122C2.70472 7.3835 2.49723 7.45732 2.33181 7.52129ZM3.41927 7.84663C3.39426 7.9363 3.51193 8.0544 3.60686 8.02542C3.62562 7.94231 3.50397 7.83241 3.41927 7.84663ZM3.64836 8.11127C3.63131 8.19274 3.69441 8.33982 3.78934 8.34529C3.82515 8.26218 3.74727 8.1058 3.64836 8.11127ZM5.43161 8.08229C5.47595 8.30045 5.59703 8.53885 5.80452 8.65258C5.77325 8.45902 5.73005 8.25179 5.61295 8.09049C5.56747 8.0883 5.47709 8.08393 5.43161 8.08229ZM5.77098 8.13642C5.79599 8.32451 5.92276 8.47761 6.01428 8.64055C6.04668 8.70726 6.12456 8.72804 6.18652 8.76248C6.10296 8.52791 6.0825 8.19055 5.77098 8.13642ZM6.12001 8.24687C6.1564 8.41309 6.2644 8.55088 6.35081 8.69523C6.38321 8.76631 6.45029 8.80787 6.5276 8.82427C6.46905 8.60337 6.45825 8.19766 6.12001 8.24687ZM6.45484 8.3103C6.52817 8.50604 6.64584 8.68375 6.751 8.86473C6.78511 8.8784 6.85389 8.90629 6.888 8.91996C6.86185 8.73624 6.7925 8.56345 6.73224 8.38848C6.63958 8.36224 6.54693 8.33599 6.45484 8.3103ZM8.80143 8.89754C8.86794 9.17038 9.05496 9.39183 9.17604 9.64171C9.23857 9.79316 9.41366 9.83472 9.5535 9.89377C9.53929 9.64116 9.48017 9.39292 9.41366 9.14906C9.30338 8.92816 9.02085 8.92105 8.80143 8.89754Z" fill="#030303"/>
<path d="M18.887 4.90604C19.0257 5.0493 19.1394 5.21333 19.2468 5.37955C19.2616 5.78964 19.518 6.13302 19.634 6.51686C19.7494 6.46273 19.8284 6.34899 19.9608 6.32876C19.9153 6.46163 19.8767 6.62129 19.7351 6.69018C19.7556 6.73885 19.7761 6.78861 19.7965 6.83782C19.8898 6.81649 19.9824 6.79462 20.0768 6.77767C20.0683 6.83891 20.0415 6.8914 19.9966 6.9346C19.9398 6.95865 19.8835 6.98381 19.8278 7.00896C19.8909 7.14019 19.9762 7.26485 20.1262 7.31297C20.2132 7.35343 20.3229 7.38788 20.3428 7.4934C20.4014 7.69025 20.4997 7.87943 20.5236 8.08447L20.4986 8.13259C20.2809 7.84389 20.0563 7.55902 19.8522 7.26157C19.7221 6.99255 19.5095 6.76838 19.3952 6.4928C19.219 5.96625 19.0979 5.42165 18.887 4.90604Z" fill="#252625"/>
<path d="M9.20276 5.93782C9.43696 5.80823 9.6814 5.67317 9.95085 5.62998C10.363 5.63654 10.7564 5.78362 11.1293 5.94219C11.1332 5.91813 11.1412 5.87002 11.1452 5.84541C11.1457 5.8208 11.1463 5.77105 11.1463 5.74644C11.2412 5.7541 11.3453 5.73769 11.434 5.7798C11.5584 5.85252 11.5289 6.01218 11.5403 6.13083C11.5334 6.162 11.5198 6.22487 11.513 6.25659C11.4777 6.26096 11.4067 6.26971 11.3714 6.27409C11.3083 6.20519 11.2452 6.13684 11.1827 6.06795C10.8706 6.2708 10.5773 6.50045 10.3277 6.77275C9.90935 7.20908 9.71551 7.79085 9.57283 8.35568C9.36932 8.36388 9.18798 8.26054 9.0254 8.15556C8.93502 8.10471 8.92649 7.99699 8.89863 7.9106L8.89465 7.88982C8.87646 7.77008 8.85714 7.65088 8.84008 7.53113C8.83838 7.52348 8.83554 7.50817 8.83383 7.49997C8.79517 7.34687 8.79233 7.18721 8.88783 7.05325C8.97424 6.82907 8.90773 6.59723 8.80484 6.3911C8.81109 6.18059 9.03734 6.07506 9.18173 5.95203C9.18741 5.9482 9.19764 5.94164 9.20276 5.93782Z" fill="#030303"/>
<path d="M11.6528 5.7459C11.6858 5.70051 11.7205 5.65568 11.7568 5.61248C11.7938 5.77105 11.8279 5.93016 11.8592 6.09037C11.9217 6.11005 11.9842 6.13083 12.0473 6.15161C11.9706 6.21503 11.8825 6.2626 11.7892 6.29978C11.7614 6.21777 11.7341 6.13575 11.7074 6.05319L11.6937 6.01218C11.7136 5.92469 11.7477 5.80495 11.6528 5.7459Z" fill="#252625"/>
<path d="M12.3884 5.85361C12.5032 5.82299 12.6192 5.79456 12.7352 5.76722C12.7494 5.80057 12.7778 5.86728 12.7926 5.90063C12.7727 6.10732 12.5112 6.08709 12.356 6.13247C12.3685 6.03952 12.381 5.94656 12.3884 5.85361Z" fill="#252625"/>
<path d="M12.5203 6.25768C12.6959 6.20355 12.8824 6.19918 13.0643 6.17785C13.1535 6.29432 13.2451 6.40914 13.3292 6.52943C13.2831 6.55786 13.2365 6.5852 13.1894 6.612C13.1103 6.57153 13.041 6.5174 12.9694 6.4671C12.9688 6.70003 12.7812 6.85312 12.6362 7.01497C12.8324 7.09043 13.0393 7.02481 13.2405 7.01333C13.4417 6.99146 13.6379 7.04997 13.8294 7.10191C13.8084 7.11175 13.7669 7.13034 13.7464 7.13964C13.9477 7.17846 14.1569 7.22111 14.3598 7.16588C14.4888 7.12816 14.6219 7.15331 14.7435 7.2047C14.7111 7.28071 14.6787 7.35671 14.6463 7.43326C14.6094 7.43654 14.536 7.4431 14.4991 7.44638C14.453 7.39608 14.407 7.34632 14.3609 7.29656C14.1824 7.34577 13.9994 7.38733 13.8129 7.38296C13.5986 7.38296 13.3582 7.35944 13.1814 7.50215C13.1552 7.65635 13.2701 7.78812 13.3332 7.92099C13.4452 7.78648 13.5401 7.61534 13.7197 7.55628C13.8101 7.52074 13.9079 7.54972 14.0017 7.55464C14.0221 7.69189 14.0437 7.82968 14.0659 7.96746C14.299 8.01558 14.5286 7.94997 14.727 7.83131C14.9328 7.9352 14.8117 8.16758 14.8475 8.34255C14.9891 8.53174 15.2409 8.44097 15.4325 8.39723C15.5485 8.4787 15.6752 8.55033 15.819 8.57494C16.134 8.63782 16.462 8.76084 16.6604 9.01728C16.3426 8.94948 16.1357 8.64219 15.802 8.62305C15.6235 8.64492 15.4149 8.86692 15.5524 9.03369C15.6604 9.19772 15.9032 9.0397 16.0339 9.17202C16.2766 9.39128 16.6319 9.4558 16.8434 9.71224C16.9133 9.77567 16.923 9.86971 16.9412 9.95556C16.6967 9.87135 16.5847 9.60671 16.3369 9.53399C16.1863 9.48423 16.0464 9.57937 15.9134 9.63241C15.9452 9.72372 15.972 9.81667 15.9936 9.91072C16.0839 9.92002 16.1766 9.92166 16.2641 9.949C16.3852 10.0458 16.4557 10.1923 16.5921 10.2754C16.7632 10.3886 16.9338 10.5269 16.9952 10.7265C17.0588 10.7981 16.8849 10.8949 16.8479 10.8129C16.7087 10.6871 16.6251 10.504 16.4523 10.4159C16.3352 10.382 16.2147 10.4384 16.0993 10.4559C16.0976 10.5526 16.0959 10.65 16.0936 10.7473C16.255 10.8282 16.3955 10.9414 16.4983 11.0874C16.6154 11.2531 16.836 11.4045 16.7757 11.632C16.7161 11.6686 16.6558 11.7042 16.595 11.7392C16.5279 11.6112 16.4796 11.4685 16.3778 11.3613C16.2278 11.2941 15.985 11.2968 15.9378 11.4854C15.985 11.609 16.1294 11.6763 16.1902 11.796C16.2698 11.9475 16.3198 12.1126 16.4176 12.2559L16.4398 12.2816C16.2181 12.468 15.9691 12.6184 15.7235 12.7726C15.47 12.895 15.1966 12.9765 14.9504 13.1132C14.8021 13.0722 14.6497 12.9738 14.4985 13.0651C14.4076 13.1187 14.3439 13.2548 14.2211 13.2275C14.042 13.1187 13.8778 12.9765 13.6612 12.9426C13.6129 13.0175 13.5651 13.093 13.5174 13.1684C13.4525 13.146 13.3872 13.1247 13.3224 13.1034C13.2439 12.9661 13.1905 12.7862 13.0194 12.7316C12.8653 12.6501 12.7283 12.9218 12.5771 12.7791C12.4475 12.6288 12.5021 12.369 12.3134 12.2504C12.2031 12.2449 12.0962 12.2728 11.9899 12.2947C11.8228 12.1 11.8364 11.8359 11.7989 11.5997C11.6801 11.5921 11.5613 11.5866 11.4425 11.5981C11.3942 11.4898 11.3379 11.3766 11.3765 11.2574C11.3805 11.2345 11.3885 11.1896 11.3919 11.1672C11.4163 11.0557 11.4254 10.9425 11.426 10.8293C11.3532 10.8249 11.2805 10.8217 11.2077 10.8178C11.1645 10.7577 11.1213 10.6986 11.0758 10.6412C11.1173 10.4438 11.1799 10.2508 11.2611 10.066C11.16 9.98946 11.0696 9.90033 11.0087 9.79043C11.1173 9.5925 11.2106 9.388 11.3174 9.18952C11.2304 9.20264 11.144 9.21522 11.0576 9.22834C10.8388 8.60446 10.9508 7.9095 11.2555 7.33101C11.3424 7.16424 11.335 6.92147 11.5545 6.85531C11.5584 6.85258 11.5658 6.84766 11.5692 6.84492C11.6659 6.73666 11.7415 6.61309 11.8148 6.48952C11.9444 6.47967 12.0763 6.47694 12.2036 6.44796C12.3162 6.39602 12.4066 6.30853 12.5203 6.25768ZM12.8255 7.38952C12.6937 7.53277 12.5294 7.64268 12.373 7.75969C12.4447 7.88435 12.5339 7.99972 12.6527 8.08775C12.684 7.95817 12.6561 7.79195 12.7772 7.70064C12.8494 7.63721 12.9296 7.58308 13.0086 7.52785C12.9671 7.49122 12.9256 7.45513 12.8847 7.41959C13.0006 7.38077 13.1143 7.33702 13.2314 7.30148C13.2348 7.23423 13.2382 7.16698 13.2411 7.10027C13.0938 7.18393 12.9551 7.2818 12.8255 7.38952ZM12.6954 9.09492C12.4094 9.31692 12.281 9.66686 12.2184 10.0048C12.1047 10.9031 12.813 11.8507 13.7618 11.9661C14.249 12.0197 14.7555 11.7878 15.0198 11.3887C15.1824 11.1929 15.2096 10.9381 15.2699 10.703C15.3324 10.4876 15.2455 10.2727 15.2153 10.0605C15.1937 10.0644 15.1505 10.0715 15.1289 10.0753C15.1397 10.2339 15.1801 10.3897 15.1869 10.5483C15.1437 10.9015 15.0522 11.2935 14.7213 11.5013C14.6116 11.4707 14.5014 11.4423 14.3911 11.416C14.3632 11.2744 14.3342 11.1333 14.3013 10.9928C14.0221 11.0338 13.8459 11.3548 13.5418 11.2946C13.141 11.1557 12.8773 10.7429 12.8727 10.3405C12.9517 10.0977 13.2507 10.0206 13.3542 9.79043C13.4719 9.74669 13.3087 9.68107 13.2667 9.64717C13.1041 9.57719 13.0444 9.41588 12.9955 9.26388C13.041 9.19061 13.1177 9.10969 13.0012 9.05556C13.1848 8.97299 13.3718 8.87457 13.5816 8.88551C13.8448 8.85598 14.0744 9.00088 14.3172 9.07196C14.6082 9.18514 14.7225 9.51212 14.9999 9.63514C14.8691 9.40495 14.685 9.20155 14.4553 9.05884C14.3155 8.97518 14.1716 8.862 13.9966 8.88277C13.9289 8.75209 13.7612 8.86528 13.6509 8.87348C13.66 8.83903 13.6771 8.77123 13.6856 8.73678C13.336 8.78709 12.962 8.85106 12.6954 9.09492ZM15.0033 9.7959C15.0101 9.89979 15.0829 9.96923 15.1761 10.0135C15.1369 9.92767 15.1431 9.76473 15.0033 9.7959ZM15.5689 12.129C15.6212 12.298 15.7383 12.4352 15.8531 12.5692C15.8486 12.386 15.8048 12.146 15.5689 12.129Z" fill="#030303"/>
<path d="M14.6997 6.97888C14.7566 6.96029 14.814 6.9428 14.8714 6.92475C14.8805 6.95264 14.8981 7.00896 14.9067 7.03684C14.9055 7.1123 14.9033 7.1883 14.9004 7.2643C14.8714 7.25337 14.8134 7.23095 14.7839 7.21947C14.756 7.13909 14.7276 7.05871 14.6997 6.97888Z" fill="#252625"/>
<path d="M8.24548 0.340972C8.32449 0.323475 8.35576 0.353001 8.3387 0.42955C8.26139 0.44486 8.23013 0.415334 8.24548 0.340972Z" fill="#464747"/>
<path d="M11.1156 0.8883C11.5101 0.847292 11.9075 0.865881 12.2946 0.946258L12.2633 0.988908C12.0229 1.04413 11.7841 0.963208 11.5454 0.953913C11.4283 0.991641 11.3117 1.0321 11.1884 1.04577C11.2469 1.0157 11.3032 0.981253 11.3544 0.939698C11.2748 0.921654 11.1952 0.904157 11.1156 0.8883Z" fill="#464747"/>
<path d="M13.9556 0.970317C13.9664 1.02445 13.9772 1.07858 13.9875 1.13326C14.1148 1.1338 14.2313 1.17044 14.316 1.26448C14.2689 1.48593 14.4536 1.68496 14.3814 1.89875C14.3234 1.8818 14.2649 1.8654 14.2069 1.84899C14.2711 2.03216 14.2745 2.22627 14.2632 2.41764C14.245 2.38976 14.2092 2.33344 14.191 2.30555C14.1637 2.26072 14.1375 2.21588 14.112 2.1705C14.0801 2.09122 14.0125 2.001 13.9113 2.02505C13.8903 1.9753 13.8698 1.92609 13.8488 1.87742C13.9136 1.88563 13.9789 1.89492 14.0437 1.90531C13.9903 1.7041 13.9676 1.49632 13.9829 1.28909C14.1893 1.39243 14.1125 1.68058 14.3143 1.77572C14.266 1.58763 14.3246 1.3301 14.1341 1.20762C14.0261 1.19286 13.9232 1.24425 13.8192 1.26448C13.8635 1.16606 13.909 1.06819 13.9556 0.970317Z" fill="#464747"/>
<path d="M13.0825 1.04085C13.1069 1.0403 13.157 1.03976 13.1814 1.03976C13.1859 1.11521 13.1899 1.19122 13.1945 1.26722C13.2633 1.24097 13.3332 1.21691 13.402 1.19067C13.4372 1.20707 13.5071 1.23933 13.5424 1.25574C13.5532 1.27542 13.5742 1.31533 13.585 1.33502L13.5725 1.35416L13.5452 1.3886C13.5395 1.39516 13.5282 1.40829 13.5225 1.41485C13.4963 1.44219 13.4435 1.49741 13.4173 1.5253C13.415 1.4575 13.4128 1.39024 13.4105 1.32299C13.253 1.3968 13.0984 1.47718 12.9341 1.53678C12.9188 1.53186 12.8875 1.52202 12.8722 1.51764C12.8636 1.51491 12.8471 1.50999 12.8386 1.50725C12.7602 1.4914 12.6823 1.4739 12.605 1.45531C12.7249 1.55318 12.8534 1.64067 12.9898 1.71667C13.1996 1.83478 13.3593 2.01521 13.5509 2.15738C13.8397 2.3575 14.0176 2.66205 14.2376 2.92396C14.4513 3.17603 14.5173 3.50027 14.5662 3.81303C14.5144 3.7753 14.4627 3.73757 14.411 3.70039C14.4422 3.86497 14.486 4.03119 14.6065 4.15805C14.6162 4.17226 14.6355 4.20124 14.6452 4.21546C14.7117 4.13617 14.7776 4.05525 14.8419 3.97433C14.8242 4.06072 14.8072 4.14766 14.7901 4.23459C14.864 4.23952 14.9379 4.24553 15.0124 4.25154C15.2546 4.28052 15.4967 4.25045 15.7377 4.22749C15.7485 4.23842 15.7696 4.26029 15.7804 4.27123C15.8071 4.32645 15.8321 4.38168 15.8566 4.43854C15.5143 4.438 15.1761 4.36637 14.8333 4.38988C14.3916 4.41175 13.9551 4.32973 13.5162 4.29146C13.124 4.25483 12.7283 4.31005 12.3361 4.26303C12.0456 4.23405 11.7324 4.16187 11.4612 4.30568C11.4033 4.13125 11.3919 3.94918 11.4169 3.76874C11.4976 3.75343 11.5783 3.73757 11.6596 3.72554C11.8484 3.76983 12.0678 3.81576 12.2167 3.66047C12.182 3.60689 12.1479 3.55331 12.1138 3.50027C12.1349 3.42973 12.1565 3.3592 12.1781 3.28921C12.1576 3.30507 12.1167 3.33569 12.0962 3.35154C12.032 3.31819 11.9677 3.28538 11.9132 3.23891C11.8353 3.0705 11.8808 2.86983 11.7972 2.70361C11.7119 2.62597 11.5738 2.63909 11.4652 2.6112C11.5295 2.59152 11.5931 2.57074 11.6574 2.54996C11.5727 2.4581 11.4863 2.36187 11.3646 2.3154C11.3481 2.29681 11.3151 2.26017 11.2987 2.24158C11.2185 2.3154 11.1486 2.39851 11.077 2.47998C11.1804 2.56035 11.3379 2.62433 11.3174 2.77852C11.2214 2.82937 11.1247 2.87749 11.0264 2.92342C11.0195 3.0612 11.0383 3.19899 11.0849 3.33077C11.1821 3.33077 11.2793 3.33186 11.3771 3.33295C11.3947 3.64735 11.4237 3.97487 11.2663 4.26357C11.31 4.39535 11.3942 4.51127 11.4419 4.64195C11.4385 4.71522 11.4334 4.78848 11.4266 4.86175C11.4163 4.94541 11.4038 5.02907 11.3913 5.11327C11.2469 5.10452 11.1031 5.09796 10.9587 5.09304C10.8462 4.64413 10.8268 4.17718 10.8354 3.71625C10.8416 3.60361 10.7848 3.50245 10.7359 3.40403C10.6785 3.61947 10.6802 3.84255 10.683 4.06345C10.529 3.90653 10.3726 3.73648 10.3283 3.51722C10.3846 3.14814 10.3516 2.77469 10.3601 2.40343C10.3613 2.19729 10.3732 1.98842 10.3232 1.78611C10.3175 1.75877 10.3061 1.70519 10.3005 1.6784C10.0952 1.62809 9.89059 1.5756 9.68083 1.54936C9.62342 1.5417 9.566 1.53459 9.50916 1.52858C9.4813 1.62645 9.45402 1.72433 9.42275 1.82111C9.36761 1.95507 9.31816 2.0934 9.31986 2.23939C9.31759 2.52809 9.21868 2.81351 9.26643 3.10276C9.29883 3.21102 9.36363 3.30671 9.41934 3.40513C9.40854 3.42591 9.38751 3.46746 9.37671 3.48824C9.52621 3.61892 9.55691 3.81193 9.60523 3.99018C9.5137 3.91363 9.43185 3.75343 9.29087 3.78788C9.17547 3.85076 9.13057 3.97433 9.08168 4.08478C9.15387 4.08806 9.22607 4.09189 9.29826 4.09571C9.28575 4.02299 9.27325 3.95027 9.26131 3.87755C9.30679 3.87591 9.39774 3.87263 9.44322 3.87099C9.42957 3.94808 9.41593 4.02572 9.40286 4.10337C9.49154 4.09243 9.58078 4.0815 9.67003 4.07275C9.79737 4.06127 9.9247 4.0547 10.0526 4.04814C10.0367 3.9951 10.0208 3.94207 10.0049 3.88958C10.1589 4.10227 10.4374 4.12086 10.6842 4.11649C10.6836 4.14109 10.683 4.18976 10.6825 4.21436C10.3027 4.27068 9.92754 4.15914 9.54781 4.16789C9.23175 4.17171 8.91398 4.18812 8.59962 4.14328C8.14429 4.07603 7.6827 4.15531 7.2268 4.09462C7.03637 4.07001 6.84537 4.05361 6.65323 4.04978C6.79591 4.22749 6.97099 4.40847 7.22907 4.38058C7.12448 4.39589 7.02159 4.41995 6.9187 4.4451C6.7817 4.26303 6.62139 4.0979 6.42755 3.97105C6.43153 4.07548 6.4446 4.18101 6.4338 4.28545C6.38548 4.34997 6.32238 4.40191 6.26383 4.45768C6.18482 4.44456 6.1058 4.43362 6.02622 4.4287C5.90059 4.30458 5.78917 4.16023 5.78974 3.97925C5.67946 3.94644 5.56975 3.91309 5.4606 3.87919C5.46458 4.03338 5.4697 4.18812 5.47425 4.3434C5.49585 4.36637 5.53962 4.41175 5.56122 4.43472C5.40433 4.42214 5.22242 4.40847 5.1002 4.52384C4.99333 4.64031 4.93649 4.78848 4.85349 4.92026C4.42317 4.65726 3.92008 4.54517 3.43462 4.41558C3.57617 4.36199 3.72112 4.31661 3.86551 4.27068C3.90587 4.19249 3.9468 4.11376 3.98659 4.03557C4.16964 4.01698 4.318 4.1236 4.45386 4.22585C4.46694 4.18046 4.49366 4.0897 4.50673 4.04432C4.56926 4.04486 4.63179 4.04595 4.69432 4.0465C4.70455 4.08696 4.72559 4.16843 4.73582 4.20944C4.87623 4.20507 5.01721 4.20015 5.15761 4.18976C5.15136 4.11266 5.15079 4.03557 5.15591 3.95902C4.6875 3.83545 4.19465 3.84802 3.72624 3.7321C4.02582 3.72281 4.32312 3.67469 4.62326 3.68563C4.68523 3.69383 4.73809 3.66048 4.79039 3.63423C4.75344 3.60798 4.67954 3.55495 4.64202 3.5287C4.63577 3.52433 4.6227 3.51558 4.61644 3.5112C4.60849 3.46965 4.59314 3.38599 4.58518 3.34444C4.22421 3.18696 3.87972 2.99668 3.5125 2.85124L3.53979 2.82171C3.54604 2.8157 3.55798 2.80312 3.56366 2.79711C3.91497 2.92615 4.24354 3.1137 4.58177 3.2739C4.60223 3.21485 4.63975 3.16892 4.69375 3.13611L4.68523 3.18642C4.62724 3.36904 4.86713 3.47348 5.01266 3.52487C4.99674 3.4948 4.96434 3.43465 4.94785 3.40458C4.98821 3.3428 5.02687 3.28046 5.06609 3.21868C5.29177 3.26461 5.50551 3.34553 5.71129 3.44504L5.713 3.46801C5.71755 3.57244 5.72891 3.67633 5.75279 3.77858C5.79258 3.75288 5.83294 3.72718 5.8733 3.70148C5.98245 3.73156 6.09216 3.76054 6.20244 3.78842C6.15696 3.74194 6.11092 3.69656 6.06374 3.65227C6.11547 3.61345 6.17174 3.60197 6.2337 3.61728C6.41618 3.65665 6.59638 3.70367 6.78056 3.73429C6.72826 3.75944 6.67653 3.78405 6.62424 3.80811C6.59354 3.81795 6.53271 3.83818 6.50259 3.84857C6.58046 3.90215 6.67255 3.93004 6.76862 3.93332C6.80842 3.93332 6.88857 3.93386 6.92836 3.93386L6.99544 3.92949C7.01874 3.92895 7.06479 3.92785 7.0881 3.9273C6.9079 3.60252 6.74645 3.25149 6.75441 2.87585C6.79079 2.92232 6.83002 2.96716 6.87265 3.01035C6.86867 3.17822 6.90903 3.34225 6.99771 3.48769L7.01363 3.51831C7.01761 3.52597 7.02613 3.54182 7.03011 3.54948L7.04887 3.58338C7.05456 3.59432 7.06593 3.61564 7.07161 3.62603C7.10742 3.69766 7.14381 3.76929 7.18019 3.84091L7.18815 3.85786L7.20406 3.86443C7.41723 3.9787 7.66565 3.98308 7.9027 3.97378C7.74125 3.87919 7.55196 3.87044 7.37233 3.83271C7.28819 3.7507 7.23533 3.64407 7.18758 3.53964C7.1853 3.53362 7.18076 3.52214 7.17848 3.51613C7.14665 3.41771 7.12334 3.3171 7.0989 3.21704C7.20008 3.22415 7.18985 3.09019 7.11027 3.06722C7.25068 2.6965 7.14949 2.28532 7.3115 1.92062C7.36437 1.79705 7.41894 1.6445 7.56844 1.60513C8.02037 1.45531 8.50071 1.40173 8.97594 1.37767C9.9679 1.35088 10.9275 1.76315 11.6471 2.40562C11.7625 2.5352 11.9376 2.55981 12.1047 2.57129C12.1138 2.73423 12.1167 2.91029 12.2349 3.04043C12.4913 3.37724 12.7209 3.73648 12.8682 4.13125C12.9387 4.13563 13.0092 4.14 13.0802 4.14438C13.0398 4.01206 12.9932 3.88138 12.9347 3.75616C12.9318 3.75015 12.9262 3.73812 12.9233 3.7321C12.883 3.65063 12.8443 3.56916 12.8005 3.49098C12.7971 3.48605 12.7914 3.47566 12.788 3.47074C12.6613 3.28648 12.5362 3.10057 12.4253 2.90701C12.2486 2.59152 11.8751 2.42202 11.75 2.07372C12.1417 2.34 12.4208 2.72548 12.688 3.10166C12.9074 3.40021 13.0364 3.74796 13.2343 4.05962C13.2553 3.73648 13.2075 3.41005 13.2729 3.09018C13.3167 2.86819 13.3019 2.64128 13.2957 2.4171C12.8398 2.01139 12.2713 1.75385 11.6801 1.58599C11.7313 1.53131 11.7841 1.47718 11.8393 1.42688C11.9871 1.39407 12.136 1.36947 12.2861 1.35033C12.5009 1.33229 12.7062 1.26722 12.9159 1.22293C12.9227 1.22293 12.937 1.22293 12.9438 1.22293C13.0103 1.23715 13.0762 1.25628 13.1422 1.27433C13.1211 1.19668 13.1018 1.11849 13.0825 1.04085ZM12.1758 1.59857C12.2059 1.62864 12.2059 1.62864 12.1758 1.59857ZM8.05561 1.84079C7.98114 1.82439 7.90668 1.80744 7.83164 1.79541C7.70544 1.77572 7.48545 1.73526 7.52865 1.92882C7.73273 1.9321 7.9368 1.93976 8.14088 1.9321C7.98001 2.00756 7.74296 1.89492 7.63779 2.0595C7.54229 2.11473 7.46442 2.001 7.38597 1.96436C7.38824 2.08575 7.39165 2.20823 7.36209 2.32742C7.30241 2.54614 7.34788 2.77414 7.30127 2.9945C7.42178 3.22578 7.45305 3.48824 7.57527 3.71898C7.74865 3.66977 7.92941 3.66376 8.10734 3.64462C8.24491 3.56206 8.36656 3.44723 8.45353 3.316C8.4865 3.16673 8.47741 3.0109 8.44444 2.86272C8.38589 2.62323 8.42056 2.37554 8.41033 2.13277C8.08347 2.09723 7.76627 2.17761 7.44225 2.19073L7.44395 2.13988C7.66963 2.11309 7.89303 2.06497 8.12212 2.06825C8.23411 2.04638 8.41942 2.05403 8.42625 1.90804C8.39271 1.81454 8.36201 1.72104 8.33245 1.627C8.21876 1.6691 8.1369 1.75713 8.05561 1.84079ZM12.3452 1.65488C12.3753 1.68386 12.3753 1.68386 12.3452 1.65488ZM12.4583 1.70847C12.489 1.738 12.489 1.738 12.4583 1.70847ZM12.5697 1.76479C12.6004 1.79431 12.6004 1.79431 12.5697 1.76479ZM8.77301 1.91789C8.72241 1.99115 8.85884 2.06224 8.91285 2.00373C8.96912 1.92609 8.82815 1.86102 8.77301 1.91789ZM12.8562 1.92445C12.8858 1.95452 12.8858 1.95452 12.8562 1.92445ZM10.9849 2.02669C10.9661 2.10215 10.9962 2.13113 11.0753 2.11309C11.0929 2.03763 11.0622 2.00865 10.9849 2.02669ZM13.0256 2.03599C13.0558 2.06497 13.0558 2.06497 13.0256 2.03599ZM13.3315 2.73149C13.3508 3.03715 13.303 3.34881 13.3599 3.65118L13.4162 3.68125C13.4446 3.24602 13.4412 2.8075 13.4173 2.37226C13.2951 2.45045 13.3457 2.61284 13.3315 2.73149ZM13.4724 2.61011C13.4594 3.08526 13.4702 3.56041 13.4719 4.03557C13.7265 4.03283 13.9727 4.10009 14.22 4.15148C14.133 3.93113 14.0057 3.72937 13.9016 3.51722C13.8266 3.38654 13.8635 3.23125 13.921 3.10221C13.797 2.92451 13.6788 2.70088 13.4724 2.61011ZM8.7514 2.67682C8.74913 2.96825 8.75027 3.25968 8.75311 3.55112C8.82985 3.55002 8.90659 3.54893 8.9839 3.54838C8.99072 3.40896 8.92308 3.28593 8.87362 3.16017C8.85429 2.99942 8.86623 2.83812 8.86453 2.67736C8.8361 2.67736 8.77983 2.67682 8.7514 2.67682ZM13.7675 2.70197C13.7322 2.77524 13.8266 2.89826 13.9102 2.8753C13.9437 2.80148 13.8522 2.67627 13.7675 2.70197ZM10.7507 2.90975C10.7524 3.06558 10.7518 3.22141 10.749 3.37779L10.7882 3.38326C10.7848 3.22524 10.7842 3.06722 10.7871 2.90975H10.7507ZM9.16865 3.01582C9.19878 3.04425 9.19878 3.04425 9.16865 3.01582ZM12.1775 3.12791C12.2076 3.15689 12.2076 3.15689 12.1775 3.12791ZM13.9806 3.21048C13.9556 3.45434 14.1381 3.64681 14.2285 3.8606C14.3007 3.97269 14.3302 4.17117 14.5059 4.1575C14.3541 3.83271 14.2512 3.46637 13.9806 3.21048ZM5.40376 3.51777C5.40433 3.53909 5.40546 3.58228 5.40603 3.60416C5.41513 3.60416 5.43389 3.6047 5.44298 3.6047C5.44469 3.58338 5.44696 3.54018 5.4481 3.51831L5.40376 3.51777ZM12.3759 3.59049C12.4231 3.66321 12.4776 3.73484 12.5027 3.81904C12.3441 3.75397 12.1951 3.86442 12.0513 3.91637C12.1263 3.9191 12.2014 3.92238 12.2764 3.92621C12.2423 4.00221 12.2082 4.07876 12.1752 4.15531C12.2082 4.15148 12.2741 4.14328 12.3071 4.13945C12.3139 4.10173 12.3281 4.02627 12.3355 3.98909C12.3799 3.98636 12.4685 3.98034 12.5135 3.97761C12.5083 4.01698 12.4987 4.09462 12.4941 4.13399C12.4651 4.15203 12.4072 4.18757 12.3782 4.20561C12.4737 4.20343 12.5686 4.20343 12.6641 4.20507C12.622 4.11868 12.58 4.03229 12.547 3.94316C12.609 3.96175 12.6709 3.98034 12.7334 3.99893C12.6476 3.82888 12.5612 3.65938 12.4788 3.48769C12.4532 3.52979 12.4185 3.56424 12.3759 3.59049ZM8.42397 3.56424C8.45581 3.59486 8.45581 3.59486 8.42397 3.56424ZM5.62432 3.61947C5.65502 3.64845 5.65502 3.64845 5.62432 3.61947ZM9.39547 3.61509C9.42559 3.64517 9.42559 3.64517 9.39547 3.61509ZM5.4697 3.72773C5.49983 3.75671 5.49983 3.75671 5.4697 3.72773Z" fill="#464747"/>
<path d="M2.6024 2.56582C2.78828 2.4428 3.01226 2.44608 3.2277 2.4592C3.23225 2.52645 3.2368 2.59316 3.24191 2.66042C3.32889 2.65932 3.38914 2.68885 3.42325 2.74954L3.43689 2.78344C3.35617 2.76868 3.27716 2.75063 3.19757 2.73368C3.18336 2.76485 3.15494 2.82718 3.14073 2.85835C3.05887 3.0798 2.74394 3.05191 2.55351 2.99286C2.58762 2.89225 2.62116 2.79219 2.65583 2.69268C2.58364 2.69486 2.51088 2.5948 2.6024 2.56582Z" fill="#030303"/>
<path d="M16.8542 3.94261C16.9383 3.82998 17.1037 3.89723 17.2243 3.88301L17.2248 3.93769C17.2248 3.96449 17.2254 4.01752 17.2254 4.04377C17.1015 4.00932 16.9781 3.97378 16.8542 3.94261Z" fill="#464747"/>
<path d="M17.5261 4.15477C17.6449 4.21327 17.6552 4.36856 17.6927 4.47901C17.9837 4.48393 18.2839 4.45331 18.5618 4.5572C18.6892 4.65288 18.8176 4.76224 18.887 4.90604C19.0979 5.42165 19.219 5.96625 19.3952 6.4928C19.5095 6.76838 19.7221 6.99255 19.8522 7.26157C20.0563 7.55902 20.2809 7.84389 20.4986 8.13259L20.5236 8.08447C20.6305 8.16157 20.6168 8.30264 20.6447 8.41582L20.6532 8.45136C20.7055 8.47488 20.7584 8.49784 20.8118 8.52026C20.7669 8.51971 20.6776 8.51917 20.6333 8.51862C20.6691 8.58478 20.7112 8.64821 20.7618 8.70616C20.7004 8.72968 20.6401 8.75373 20.5799 8.77834C20.5441 8.68867 20.5088 8.59954 20.4736 8.50987C20.3923 8.54705 20.3116 8.58423 20.2308 8.62141C20.0819 8.34638 19.9739 8.05276 19.8966 7.75149C19.85 7.46716 19.4788 7.40319 19.4071 7.12761C19.2156 6.61801 18.9126 6.14395 18.8256 5.60209C18.7 5.25325 18.4157 4.98532 18.1901 4.69444C18.1162 4.58071 17.9678 4.60969 17.8501 4.60477C17.6068 4.61023 17.3635 4.61297 17.1202 4.59711C17.1254 4.5572 17.131 4.51728 17.1367 4.47737C17.0333 4.40628 16.9463 4.31661 16.8718 4.21874C17.0929 4.25155 17.3146 4.22366 17.5261 4.15477Z" fill="#464747"/>
<path d="M1.80542 4.72779C2.02598 4.60641 2.31135 4.60804 2.53759 4.71467C2.69619 4.77645 2.88265 4.73708 3.02647 4.84261L2.97246 4.86886C2.64276 4.8787 2.33068 4.98095 2.02144 5.08101C1.99472 4.98806 1.96857 4.89511 1.94299 4.80215C1.90888 4.78356 1.8401 4.74638 1.80542 4.72779Z" fill="#464747"/>
<path d="M12.0053 5.41838C12.0558 5.42494 12.1064 5.4315 12.157 5.44025C12.2326 5.45282 12.3082 5.46758 12.3844 5.48235C12.3873 5.60592 12.3912 5.72949 12.3884 5.85361C12.381 5.94656 12.3685 6.03952 12.356 6.13247C12.5112 6.08709 12.7727 6.10732 12.7926 5.90063C12.7778 5.86728 12.7494 5.80057 12.7352 5.76722C12.7863 5.7541 12.8369 5.73988 12.8875 5.72512C12.8761 5.83393 12.8619 5.94274 12.8471 6.051C12.8812 6.05647 12.95 6.0674 12.9847 6.07287C13.0046 6.09912 13.0444 6.15161 13.0643 6.17785C12.8824 6.19918 12.6959 6.20355 12.5203 6.25768C12.4066 6.30853 12.3162 6.39602 12.2036 6.44796C12.0763 6.47694 11.9444 6.47967 11.8148 6.48952C11.7415 6.61309 11.6659 6.73666 11.5692 6.84492L11.5545 6.85531C11.335 6.92147 11.3424 7.16424 11.2555 7.33101C10.9508 7.9095 10.8388 8.60446 11.0576 9.22834C11.144 9.21522 11.2304 9.20264 11.3174 9.18952C11.2106 9.388 11.1173 9.5925 11.0087 9.79043C10.608 9.8812 10.2356 10.078 9.82408 10.1218C9.71039 9.81996 9.63479 9.50282 9.64274 9.18022C9.63138 9.08782 9.66776 8.94565 9.54383 8.91339C9.30622 8.81388 9.04643 8.77725 8.79972 8.70507C7.57413 8.37974 6.35479 8.03308 5.12351 7.72907C5.11498 7.81601 5.10645 7.90294 5.09793 7.99043C4.74264 7.98059 4.4425 7.7832 4.11791 7.66947C3.98148 7.63776 3.96044 7.43709 4.08664 7.37858C4.26514 7.27852 4.48286 7.3507 4.64316 7.45076C4.80062 7.53059 4.96093 7.69189 5.15307 7.60987C4.79835 7.30969 4.31743 7.27032 3.89848 7.10191C3.79673 7.10738 3.67906 7.16807 3.58924 7.09918C3.43689 6.99091 3.52785 6.75142 3.38118 6.64262C3.22486 6.6705 3.0782 6.73338 2.92528 6.77548C2.88208 6.63441 2.83319 6.49498 2.78203 6.35665C2.6041 6.41242 2.487 6.55294 2.37502 6.688C2.3068 6.58302 2.25337 6.47038 2.21812 6.35118C2.50406 6.21995 2.82182 6.28666 3.12311 6.23745C3.30899 6.20847 3.49601 6.2637 3.68133 6.22816C3.84789 6.18551 3.99512 6.29049 4.14178 6.34899C4.13325 6.43101 4.12473 6.51412 4.11677 6.59669C4.14008 6.60106 4.18726 6.61035 4.21057 6.61473C4.21568 6.45835 4.25092 6.30416 4.31743 6.1609C4.44306 6.22105 4.47888 6.35173 4.51469 6.47093C4.59996 6.53818 4.71649 6.58247 4.77049 6.67925C4.78641 6.78587 4.78357 6.89468 4.78584 7.0024C4.83416 6.80009 4.87168 6.59559 4.89499 6.38946C5.0894 6.77548 5.15761 7.20307 5.24573 7.61917C5.26335 7.63065 5.29859 7.65416 5.31621 7.66564C5.77269 7.8078 6.23825 7.92263 6.70155 8.04347C7.7225 8.31248 8.7406 8.59243 9.76439 8.85051C9.87354 8.70562 9.8724 8.50987 9.92186 8.34092C9.98609 7.97074 10.1544 7.63065 10.2925 7.28289C10.5938 6.89632 10.9167 6.50045 11.3714 6.27409C11.4067 6.26971 11.4777 6.26096 11.513 6.25659C11.5198 6.22487 11.5334 6.162 11.5403 6.13083C11.596 6.10513 11.6517 6.07943 11.7074 6.05319C11.7341 6.13575 11.7614 6.21777 11.7892 6.29978C11.8825 6.2626 11.9706 6.21503 12.0473 6.15161C11.9842 6.13083 11.9217 6.11005 11.8592 6.09037C11.8279 5.93016 11.7938 5.77105 11.7568 5.61248C11.837 5.54468 11.9223 5.4829 12.0053 5.41838ZM12.1167 5.52828C12.024 5.54687 12.0632 5.6781 12.1513 5.63107C12.244 5.61303 12.2048 5.47907 12.1167 5.52828Z" fill="#464747"/>
<path d="M3.0259 5.53867C3.43746 5.43204 3.8837 5.53101 4.21909 5.77816C3.81037 5.83502 3.41416 5.95149 3.00771 6.02038C2.9827 6.01874 2.9321 6.01437 2.90709 6.01273C2.6439 5.99742 2.37615 5.9657 2.11523 6.01601C1.90263 6.06631 1.71674 6.18223 1.52745 6.28283C1.55132 6.15981 1.65478 6.07834 1.74971 6.00288C2.11353 5.72457 2.59217 5.66278 3.0259 5.53867Z" fill="#464747"/>
<path d="M5.62034 5.6349C5.88353 5.66388 6.12683 5.76941 6.37809 5.84213C6.76805 5.97172 7.19383 6.04389 7.52069 6.30142C7.71567 6.24839 7.89303 6.37579 8.07039 6.43156C8.02207 6.48077 7.97375 6.52998 7.926 6.57919C8.12724 6.7044 8.3586 6.76673 8.57916 6.85149C8.62407 6.79353 8.66898 6.73557 8.71616 6.68034L8.75709 6.65738C8.74913 6.75416 8.73947 6.85039 8.73037 6.94772C8.36315 6.87554 8.01582 6.73885 7.66451 6.61746C7.44338 6.55513 7.36948 6.31837 7.18928 6.20355C6.69074 5.95476 6.13081 5.8547 5.62034 5.6349Z" fill="#464747"/>
<path d="M13.0882 5.85853C13.6151 5.81807 14.1364 5.92961 14.6634 5.9154C15.1619 5.98375 15.6678 5.95805 16.1658 6.0335C16.0527 6.12263 15.9145 6.19207 15.7645 6.15215C15.5263 6.11279 15.2801 6.09911 15.0431 6.15434C14.8197 6.04662 14.5724 6.00069 14.324 6.00452C14.1483 5.99905 13.9744 5.97281 13.7999 5.95914C13.5549 5.94328 13.307 5.95477 13.066 5.90118L13.0882 5.85853Z" fill="#464747"/>
<path d="M1.71049 6.6191C1.78894 6.48842 1.95606 6.42937 2.10329 6.3993C2.0203 6.53654 1.93162 6.67324 1.88955 6.82852C1.79633 6.79134 1.73891 6.70878 1.71049 6.6191Z" fill="#464747"/>
<path d="M12.9694 6.4671C13.041 6.5174 13.1103 6.57153 13.1894 6.612C13.2365 6.5852 13.2831 6.55786 13.3292 6.52943C13.5657 6.55896 13.7936 6.48131 14.0261 6.45452C14.1637 6.46163 14.3007 6.47967 14.4371 6.49772C14.764 6.53107 15.0698 6.65629 15.3518 6.81266C15.2693 6.82961 15.1869 6.84656 15.1051 6.86516C15.026 6.88101 14.9482 6.90179 14.8714 6.92475C14.814 6.9428 14.7566 6.96029 14.6997 6.97888C14.4189 7.06582 14.1245 7.11175 13.8294 7.10191C13.6379 7.04997 13.4417 6.99146 13.2405 7.01333C13.0393 7.02481 12.8324 7.09043 12.6362 7.01497C12.7812 6.85312 12.9688 6.70003 12.9694 6.4671Z" fill="#464747"/>
<path d="M19.8278 7.00896C19.8835 6.98381 19.9398 6.95865 19.9966 6.9346C20.0245 6.93514 20.0796 6.93569 20.1075 6.93624C20.0938 7.062 20.1069 7.1883 20.1262 7.31297C19.9762 7.26485 19.8909 7.14019 19.8278 7.00896Z" fill="#464747"/>
<path d="M14.9067 7.03684C14.9516 7.16534 14.9959 7.29383 15.0374 7.42396C15.1232 7.36929 15.2091 7.31461 15.2955 7.26048C15.5183 7.35507 15.6161 7.57597 15.769 7.74219C15.8719 7.75422 15.9697 7.70501 16.068 7.68095C16.1237 7.70665 16.18 7.7318 16.2369 7.75695C16.313 7.92372 16.3642 8.09924 16.4097 8.2753C16.4279 8.27804 16.4637 8.2835 16.4813 8.28624C16.5705 8.29881 16.6604 8.31139 16.7502 8.32451C16.7968 8.38684 16.844 8.45027 16.8911 8.51315C17.002 8.49292 17.1134 8.47488 17.2265 8.47105C17.218 8.5804 17.2083 8.69031 17.2021 8.80076C17.1862 8.79693 17.1538 8.78873 17.1379 8.7849C17.0691 8.85106 17.0037 8.91941 16.94 8.9894C17.106 9.05556 17.2538 9.15343 17.392 9.26279C17.2601 9.41917 17.16 9.65702 17.2703 9.84784C17.3158 9.91838 17.3829 9.97907 17.4045 10.0622C17.4124 10.3099 17.2299 10.5275 17.2561 10.7757C17.2731 10.796 17.3084 10.8359 17.326 10.8561C17.2305 11.1229 17.1043 11.3777 16.9622 11.6249C16.8815 11.7561 16.7991 11.8879 16.6996 12.0071C16.612 12.0967 16.5154 12.1771 16.4176 12.2559C16.3198 12.1126 16.2698 11.9475 16.1902 11.796C16.1294 11.6763 15.985 11.609 15.9378 11.4854C15.985 11.2968 16.2278 11.2941 16.3778 11.3613C16.4796 11.4685 16.5279 11.6112 16.595 11.7392C16.6558 11.7042 16.7161 11.6686 16.7757 11.632C16.836 11.4045 16.6154 11.2531 16.4983 11.0874C16.3955 10.9414 16.255 10.8282 16.0936 10.7473C16.0959 10.65 16.0976 10.5526 16.0993 10.4559C16.2147 10.4384 16.3352 10.382 16.4523 10.4159C16.6251 10.504 16.7087 10.6871 16.8479 10.8129C16.8849 10.8949 17.0588 10.7981 16.9952 10.7265C16.9338 10.5269 16.7632 10.3886 16.5921 10.2754C16.4557 10.1923 16.3852 10.0458 16.2641 9.949C16.1766 9.92166 16.0839 9.92002 15.9936 9.91072C15.972 9.81667 15.9452 9.72372 15.9134 9.63241C16.0464 9.57937 16.1863 9.48423 16.3369 9.53399C16.5847 9.60671 16.6967 9.87135 16.9412 9.95556C16.923 9.86971 16.9133 9.77567 16.8434 9.71224C16.6319 9.4558 16.2766 9.39128 16.0339 9.17202C15.9032 9.0397 15.6604 9.19772 15.5524 9.03369C15.4149 8.86692 15.6235 8.64492 15.802 8.62305C16.1357 8.64219 16.3426 8.94948 16.6604 9.01728C16.462 8.76084 16.134 8.63782 15.819 8.57494C15.6752 8.55033 15.5485 8.4787 15.4325 8.39723C15.2409 8.44097 14.9891 8.53174 14.8475 8.34255C14.8117 8.16758 14.9328 7.9352 14.727 7.83131C14.5286 7.94997 14.299 8.01558 14.0659 7.96746C14.0437 7.82968 14.0221 7.69189 14.0017 7.55464C13.9079 7.54972 13.8101 7.52074 13.7197 7.55628C13.5401 7.61534 13.4452 7.78648 13.3332 7.92099C13.2701 7.78812 13.1552 7.65635 13.1814 7.50215C13.3582 7.35944 13.5986 7.38296 13.8129 7.38296C13.9994 7.38733 14.1824 7.34577 14.3609 7.29656C14.407 7.34632 14.453 7.39608 14.4991 7.44638C14.536 7.4431 14.6094 7.43654 14.6463 7.43326C14.6787 7.35671 14.7111 7.28071 14.7435 7.2047L14.7839 7.21947C14.8134 7.23095 14.8714 7.25337 14.9004 7.2643C14.9033 7.1883 14.9055 7.1123 14.9067 7.03684Z" fill="#464747"/>
<path d="M17.6654 7.36109C17.733 7.30914 17.6534 7.1801 17.5767 7.23259C17.5096 7.28399 17.5886 7.41084 17.6654 7.36109Z" fill="#464747"/>
<path d="M12.373 7.75969C12.5294 7.64268 12.6937 7.53277 12.8255 7.38952C12.8403 7.39717 12.8699 7.41193 12.8847 7.41959C12.9256 7.45513 12.9671 7.49122 13.0086 7.52785C12.9296 7.58308 12.8494 7.63721 12.7772 7.70064C12.6561 7.79195 12.684 7.95817 12.6527 8.08775C12.5339 7.99972 12.4447 7.88435 12.373 7.75969Z" fill="#464747"/>
<path d="M2.08851 7.87287C2.23233 7.59347 2.56943 7.51145 2.86673 7.49122C2.89061 7.49833 2.93836 7.512 2.96223 7.5191C2.96962 7.52129 2.98326 7.52567 2.99065 7.52785C3.06114 7.54426 3.12254 7.57597 3.1737 7.62299C3.17825 7.63994 3.18677 7.6733 3.19132 7.6897C3.0691 7.70118 2.92471 7.66181 2.8241 7.74766C2.71097 7.82968 2.62229 7.93794 2.52964 8.04019C2.62684 8.0976 2.70245 8.18016 2.78999 8.25015C2.75986 8.24796 2.6996 8.24414 2.66948 8.24195C2.50633 8.1397 2.34659 8.01503 2.27383 7.83514C2.21187 7.84772 2.14991 7.85975 2.08851 7.87287Z" fill="#464747"/>
<path d="M7.61562 7.80398C7.65599 7.80835 7.73614 7.81655 7.77593 7.82093C7.84073 7.83733 7.90497 7.85756 7.96807 7.88053C7.91179 7.9281 7.85836 7.97949 7.80947 8.03472C7.74467 7.95762 7.67929 7.88162 7.61562 7.80398Z" fill="#464747"/>
<path d="M17.5034 7.92044C17.6017 7.93247 17.7069 7.92646 17.7984 7.96856C17.903 8.0801 17.9638 8.24359 17.9343 8.39395C17.8444 8.51971 17.6739 8.52682 17.5341 8.56181C17.5244 8.65422 17.5142 8.74717 17.5051 8.84013C17.4448 8.86692 17.3846 8.89316 17.3249 8.91996C17.3289 8.87676 17.3362 8.79037 17.3402 8.74717C17.3959 8.67008 17.4408 8.56783 17.3806 8.48034C17.4778 8.43879 17.5722 8.39176 17.6677 8.34638C17.5869 8.21461 17.5409 8.06752 17.5034 7.92044Z" fill="#464747"/>
<path d="M20.9869 8.7685C21.1057 8.59736 21.3257 8.52299 21.5332 8.52846C21.5485 8.59681 21.5684 8.66516 21.5792 8.7346C21.4758 8.87348 21.3348 8.99541 21.2938 9.16874C21.2472 9.28958 21.3717 9.38964 21.3933 9.50556C21.3285 9.64335 21.1864 9.7281 21.0693 9.8216C20.9226 9.93095 20.71 10.0299 20.7368 10.2421C20.8914 10.1666 21.0301 10.0655 21.162 9.95829C21.2904 9.85058 21.4348 9.75708 21.6054 9.72536C21.5377 9.86042 21.4161 9.95501 21.2916 10.0392C21.0909 10.1879 20.8232 10.2989 20.7589 10.5581C20.7385 10.358 20.6958 10.159 20.7078 9.9572C20.7322 9.75051 20.834 9.56297 20.8851 9.36285C20.9425 9.16819 20.9386 8.96425 20.9869 8.7685Z" fill="#464747"/>
<path d="M20.2558 8.6832C20.2843 8.69031 20.3405 8.70507 20.369 8.71218C20.3809 8.74225 20.4054 8.80294 20.4173 8.83302C20.4946 8.8445 20.5719 8.85598 20.6498 8.86692C20.5759 8.87785 20.5259 8.93964 20.4537 8.95604C20.5406 8.9544 20.6276 8.95987 20.714 8.97245C20.6327 9.03861 20.5179 9.04407 20.4196 9.01564C20.3485 8.91339 20.3155 8.79092 20.2558 8.6832Z" fill="#464747"/>
<path d="M3.06797 9.64608C2.61775 9.65155 2.27326 9.10805 2.4563 8.72366C2.53475 8.89918 2.56261 9.11242 2.73087 9.2349C2.87071 9.34918 2.97587 9.49462 3.06797 9.64608Z" fill="#464747"/>
<path d="M12.6738 9.34535C12.7556 9.22397 12.8517 9.10367 13.0012 9.05556C13.1177 9.10969 13.041 9.19061 12.9955 9.26388C13.0444 9.41588 13.1041 9.57719 13.2667 9.64717C13.3087 9.68107 13.4719 9.74669 13.3542 9.79043C13.095 9.68654 12.9409 9.4301 12.6738 9.34535Z" fill="#464747"/>
<path d="M5.35828 9.58593C5.5004 9.54492 5.65388 9.50392 5.78747 9.59086C5.78405 9.7199 5.7886 9.84948 5.77041 9.97797C5.69822 10.1037 5.59533 10.2093 5.50494 10.3235C5.38841 10.5078 5.20764 10.6352 5.01095 10.7331C4.97571 10.6839 4.94103 10.6358 4.90579 10.5871C5.01038 10.5412 5.11612 10.4963 5.22185 10.4531C5.19115 10.4121 5.16046 10.3717 5.13033 10.3312C5.25653 10.2645 5.36851 10.1765 5.46686 10.0759C5.38386 10.072 5.30087 10.0693 5.21844 10.0671C5.20025 10.0255 5.18263 9.98399 5.165 9.94298C5.29746 9.94681 5.4174 9.90361 5.50665 9.80793C5.47083 9.79152 5.39921 9.75926 5.3634 9.74286C5.36169 9.69037 5.35999 9.63842 5.35828 9.58593Z" fill="#464747"/>
<path d="M15.8531 12.5692C15.8486 12.386 15.8048 12.146 15.5689 12.129C15.6212 12.298 15.7383 12.4352 15.8531 12.5692Z" fill="#464747"/>
<path d="M6.20585 0.982892C6.60036 0.961567 7.0034 1.02827 7.38995 0.930401C7.82937 0.915091 8.27049 0.942432 8.70991 0.91728C8.72071 0.948993 8.74231 1.01132 8.75311 1.04249C8.58484 1.12888 8.39725 1.1606 8.20796 1.13982C8.03287 1.10756 7.85438 1.08623 7.67645 1.10318C7.1404 1.14529 6.60207 1.12888 6.06487 1.14857C6.11262 1.09334 6.15981 1.03866 6.20585 0.982892Z" fill="#F82C38"/>
<path d="M8.83383 0.941884C8.96458 0.921653 9.09759 0.922748 9.22948 0.936417C9.14705 0.977426 9.06576 1.02062 8.9839 1.06382C8.93445 1.02226 8.88442 0.981799 8.83383 0.941884Z" fill="#F82C38"/>
<path d="M5.4697 3.72773C5.49983 3.75671 5.49983 3.75671 5.4697 3.72773Z" fill="#F82C38"/>
<path d="M6.50259 3.84857C6.53271 3.83818 6.59354 3.81795 6.62424 3.80811C6.66062 3.83162 6.73338 3.87809 6.76976 3.90106L6.76862 3.93332C6.67255 3.93004 6.58046 3.90215 6.50259 3.84857Z" fill="#F82C38"/>
<path d="M7.22907 4.38058C7.69635 4.4544 8.17271 4.39207 8.63885 4.47354C9.31816 4.47408 9.99405 4.5654 10.6643 4.66928C10.6762 4.84754 10.7058 5.02415 10.7438 5.19912C10.9616 5.18763 11.177 5.15319 11.3913 5.11327C11.4038 5.02907 11.4163 4.94541 11.4266 4.86175C11.4999 4.88909 11.5738 4.91698 11.6477 4.94377C11.6704 5.02524 11.6898 5.10726 11.708 5.19037C11.7961 5.17888 11.8847 5.16686 11.9734 5.15483C11.9837 5.24231 11.9945 5.33034 12.0053 5.41838C11.9223 5.4829 11.837 5.54468 11.7568 5.61248C11.7205 5.65568 11.6858 5.70051 11.6528 5.7459C11.5806 5.82737 11.6517 5.93399 11.6937 6.01218L11.7074 6.05319C11.6517 6.07943 11.596 6.10513 11.5403 6.13083C11.5289 6.01218 11.5584 5.85252 11.434 5.7798C11.3453 5.73769 11.2412 5.7541 11.1463 5.74644C11.0616 5.76394 11.061 5.79729 11.1452 5.84541C11.1412 5.87002 11.1332 5.91813 11.1293 5.94219C10.7564 5.78362 10.363 5.63654 9.95085 5.62998C9.6814 5.67317 9.43696 5.80823 9.20276 5.93782C9.19764 5.94164 9.18741 5.9482 9.18173 5.95203C9.03734 6.07506 8.81109 6.18059 8.80484 6.3911C8.90773 6.59723 8.97424 6.82907 8.88783 7.05325C8.81564 6.93132 8.78949 6.79243 8.75709 6.65738C8.72525 6.60161 8.69058 6.54802 8.65647 6.49498C8.6866 6.4414 8.71673 6.38781 8.74686 6.33478C8.6326 6.19207 8.49219 6.06467 8.31085 6.00671C7.73045 5.80932 7.15688 5.58842 6.55602 5.45173C6.09386 5.31284 5.60329 5.24833 5.16955 5.0318C5.02175 4.9476 4.86031 5.04984 4.71365 5.08648C4.76311 5.03344 4.80972 4.97767 4.85349 4.92026C4.93649 4.78848 4.99333 4.64031 5.1002 4.52384C5.22242 4.40847 5.40433 4.42214 5.56122 4.43472C5.71584 4.44838 5.87103 4.43581 6.02622 4.4287C6.1058 4.43362 6.18482 4.44456 6.26383 4.45768C6.48042 4.50142 6.70553 4.51181 6.9187 4.4451C7.02159 4.41995 7.12448 4.39589 7.22907 4.38058Z" fill="#F82C38"/>
<path d="M12.1434 5.18818C12.4015 5.26035 12.6448 5.37081 12.8955 5.46266C12.9415 5.52062 12.9864 5.57913 13.0313 5.63818C12.9836 5.66771 12.9358 5.69669 12.8875 5.72512C12.8369 5.73988 12.7863 5.7541 12.7352 5.76722C12.6192 5.79456 12.5032 5.82299 12.3884 5.85361C12.3912 5.72949 12.3873 5.60592 12.3844 5.48235C12.3082 5.46758 12.2326 5.45282 12.157 5.44025C12.1548 5.3555 12.1502 5.27184 12.1434 5.18818Z" fill="#F82C38"/>
<path d="M13.7999 5.95914C13.9744 5.97281 14.1483 5.99905 14.324 6.00452C14.3649 6.16801 14.4019 6.33259 14.4371 6.49772C14.3007 6.47967 14.1637 6.46163 14.0261 6.45452C13.9903 6.31892 13.9619 6.18223 13.9443 6.04334C13.8965 6.01437 13.8482 5.98648 13.7999 5.95914Z" fill="#F82C38"/>
<path d="M10.3277 6.77275C10.5773 6.50045 10.8706 6.2708 11.1827 6.06795C11.2452 6.13684 11.3083 6.20519 11.3714 6.27409C10.9167 6.50045 10.5938 6.89632 10.2925 7.28289C10.3067 7.11285 10.3147 6.9428 10.3277 6.77275ZM10.4733 6.8996C10.5028 6.92804 10.5028 6.92804 10.4733 6.8996Z" fill="#F82C38"/>
<path d="M14.8714 6.92475C14.9482 6.90179 15.026 6.88101 15.1051 6.86516C15.3978 6.88156 15.682 6.95975 15.9742 6.98545C16.1385 7.00622 16.3255 7.01115 16.4449 7.13855C16.7223 7.401 16.9901 7.6733 17.2635 7.93958C17.3885 8.05167 17.3999 8.22718 17.4306 8.37919C17.4374 8.16704 17.4431 7.95489 17.4568 7.74328C17.4715 7.80234 17.4875 7.86084 17.5034 7.92044C17.5409 8.06752 17.5869 8.21461 17.6677 8.34638C17.5722 8.39176 17.4778 8.43879 17.3806 8.48034L17.3442 8.4787L17.2896 8.47488L17.2265 8.47105C17.1134 8.47488 17.002 8.49292 16.8911 8.51315C16.844 8.45027 16.7968 8.38684 16.7502 8.32451C16.6604 8.31139 16.5705 8.29881 16.4813 8.28624C16.6973 8.18836 16.9071 8.07901 17.1191 7.97348C17.0088 7.81546 16.8997 7.63174 16.7115 7.55191C16.5421 7.59237 16.3886 7.67658 16.2369 7.75695C16.18 7.7318 16.1237 7.70665 16.068 7.68095C15.9697 7.70501 15.8719 7.75422 15.769 7.74219C15.6161 7.57597 15.5183 7.35507 15.2955 7.26048C15.2091 7.31461 15.1232 7.36929 15.0374 7.42396C14.9959 7.29383 14.9516 7.16534 14.9067 7.03684C14.8981 7.00896 14.8805 6.95264 14.8714 6.92475Z" fill="#F82C38"/>
<path d="M7.53263 7.61971C7.67474 7.58581 7.72306 7.72415 7.77593 7.82093C7.73614 7.81655 7.65599 7.80835 7.61562 7.80398C7.67929 7.88162 7.74467 7.95762 7.80947 8.03472C7.70999 8.01394 7.61165 7.99207 7.51273 7.96911C7.51842 7.85264 7.52524 7.73618 7.53263 7.61971Z" fill="#F82C38"/>
<path d="M13.6754 0.961568C13.7686 0.964849 13.8618 0.967583 13.9556 0.970317C13.909 1.06819 13.8635 1.16606 13.8192 1.26448C13.7732 1.25956 13.6805 1.25027 13.6339 1.24589C13.6453 1.15021 13.6595 1.05561 13.6754 0.961568Z" fill="#7D7F85"/>
<path d="M12.7477 1.15568C12.7795 1.18575 12.7795 1.18575 12.7477 1.15568Z" fill="#7D7F85"/>
<path d="M11.1742 1.24589C11.1611 1.17262 11.1202 1.1606 11.0502 1.20871C11.0628 1.28089 11.1042 1.29346 11.1742 1.24589Z" fill="#7D7F85"/>
<path d="M11.3032 1.33775C11.6301 1.31315 11.9717 1.21199 12.2861 1.35033C12.136 1.36947 11.9871 1.39407 11.8393 1.42688C11.6511 1.49304 11.4567 1.45859 11.3032 1.33775Z" fill="#7D7F85"/>
<path d="M13.7055 1.48812C13.7481 1.42961 13.8095 1.38806 13.8652 1.34158C13.9613 1.47937 13.9482 1.69097 13.7413 1.70956C13.7265 1.63575 13.7095 1.56248 13.7055 1.48812Z" fill="#7D7F85"/>
<path d="M9.50916 1.52858C9.566 1.53459 9.62342 1.5417 9.68083 1.54936C9.61034 1.65215 9.55122 1.77572 9.42275 1.82111C9.45402 1.72433 9.4813 1.62645 9.50916 1.52858Z" fill="#7D7F85"/>
<path d="M12.1758 1.59857C12.2059 1.62864 12.2059 1.62864 12.1758 1.59857Z" fill="#7D7F85"/>
<path d="M13.0319 1.59255C13.0643 1.62427 13.0643 1.62427 13.0319 1.59255Z" fill="#7D7F85"/>
<path d="M8.05561 1.84079C8.1369 1.75713 8.21876 1.6691 8.33245 1.627C8.36201 1.72104 8.39271 1.81454 8.42625 1.90804C8.33074 1.91406 8.23581 1.92171 8.14088 1.9321C7.9368 1.93976 7.73273 1.9321 7.52865 1.92882C7.48545 1.73526 7.70544 1.77572 7.83164 1.79541C7.90668 1.80744 7.98114 1.82439 8.05561 1.84079Z" fill="#7D7F85"/>
<path d="M12.3452 1.65488C12.3753 1.68386 12.3753 1.68386 12.3452 1.65488Z" fill="#7D7F85"/>
<path d="M10.3005 1.6784C10.3061 1.70519 10.3175 1.75877 10.3232 1.78611C10.2163 2.05294 10.284 2.34328 10.2766 2.62159C10.2982 2.91959 10.2493 3.22524 10.3283 3.51722C10.3726 3.73648 10.529 3.90653 10.683 4.06345L10.6842 4.11649C10.4374 4.12086 10.1589 4.10227 10.0049 3.88958C10.0208 3.94207 10.0367 3.9951 10.0526 4.04814C9.9247 4.0547 9.79737 4.06127 9.67003 4.07275C9.65411 4.05252 9.62171 4.01096 9.60523 3.99018C9.55691 3.81193 9.52621 3.61892 9.37671 3.48824C9.38751 3.46746 9.40854 3.42591 9.41934 3.40513C9.66719 3.34608 9.92811 3.29304 10.1794 3.36849C10.1686 2.901 10.176 2.43295 10.176 1.96546C10.1612 1.85227 10.2356 1.76315 10.3005 1.6784Z" fill="#7D7F85"/>
<path d="M11.206 1.70738C11.239 1.73909 11.239 1.73909 11.206 1.70738Z" fill="#7D7F85"/>
<path d="M12.4583 1.70847C12.489 1.738 12.489 1.738 12.4583 1.70847Z" fill="#7D7F85"/>
<path d="M12.5697 1.76479C12.6004 1.79431 12.6004 1.79431 12.5697 1.76479Z" fill="#7D7F85"/>
<path d="M12.8562 1.92445C12.8858 1.95452 12.8858 1.95452 12.8562 1.92445Z" fill="#7D7F85"/>
<path d="M13.0256 2.03599C13.0558 2.06497 13.0558 2.06497 13.0256 2.03599Z" fill="#7D7F85"/>
<path d="M13.3315 2.73149C13.3457 2.61284 13.2951 2.45045 13.4173 2.37226C13.4412 2.8075 13.4446 3.24602 13.4162 3.68125L13.3599 3.65118C13.303 3.34881 13.3508 3.03715 13.3315 2.73149Z" fill="#7D7F85"/>
<path d="M13.9102 2.8753C13.9437 2.80148 13.8522 2.67627 13.7675 2.70197C13.7322 2.77524 13.8266 2.89826 13.9102 2.8753Z" fill="#7D7F85"/>
<path d="M3.42325 2.74954C3.42666 2.75774 3.43348 2.77524 3.43689 2.78344L3.42325 2.74954Z" fill="#7D7F85"/>
<path d="M10.7507 2.90975H10.7871C10.7842 3.06722 10.7848 3.22524 10.7882 3.38326L10.749 3.37779C10.7518 3.22141 10.7524 3.06558 10.7507 2.90975Z" fill="#7D7F85"/>
<path d="M9.16865 3.01582C9.19878 3.04425 9.19878 3.04425 9.16865 3.01582Z" fill="#7D7F85"/>
<path d="M7.0989 3.21704C7.20008 3.22415 7.18985 3.09019 7.11027 3.06722C7.10742 3.10495 7.10174 3.17986 7.0989 3.21704Z" fill="#7D7F85"/>
<path d="M12.1775 3.12791C12.2076 3.15689 12.2076 3.15689 12.1775 3.12791Z" fill="#7D7F85"/>
<path d="M5.01266 3.52487C4.86713 3.47348 4.62724 3.36904 4.68523 3.18642C4.77561 3.25586 4.86657 3.3253 4.94785 3.40458C4.96434 3.43465 4.99674 3.4948 5.01266 3.52487Z" fill="#7D7F85"/>
<path d="M5.75279 3.77858C5.72891 3.67633 5.71755 3.57244 5.713 3.46801C5.83522 3.51777 5.96369 3.56479 6.06374 3.65227C6.11092 3.69656 6.15696 3.74194 6.20244 3.78842C6.09216 3.76054 5.98245 3.73156 5.8733 3.70148C5.83294 3.72718 5.79258 3.75288 5.75279 3.77858Z" fill="#7D7F85"/>
<path d="M5.40603 3.60416L5.44298 3.6047C5.43389 3.6047 5.41513 3.60416 5.40603 3.60416Z" fill="#7D7F85"/>
<path d="M5.62432 3.61947C5.65502 3.64845 5.65502 3.64845 5.62432 3.61947Z" fill="#7D7F85"/>
<path d="M9.39547 3.61509C9.42559 3.64517 9.42559 3.64517 9.39547 3.61509Z" fill="#7D7F85"/>
<path d="M14.411 3.70039C14.4627 3.73757 14.5144 3.7753 14.5662 3.81303C14.5832 3.9273 14.594 4.04267 14.6065 4.15805C14.486 4.03119 14.4422 3.86497 14.411 3.70039Z" fill="#7D7F85"/>
<path d="M6.76976 3.90106C6.85048 3.84638 6.90335 3.85732 6.92836 3.93386C6.88857 3.93386 6.80842 3.93332 6.76862 3.93332L6.76976 3.90106Z" fill="#7D7F85"/>
<path d="M6.42755 3.97105C6.62139 4.0979 6.7817 4.26303 6.9187 4.4451C6.70553 4.51181 6.48042 4.50142 6.26383 4.45768C6.32238 4.40191 6.38548 4.34997 6.4338 4.28545C6.4446 4.18101 6.43153 4.07548 6.42755 3.97105Z" fill="#7D7F85"/>
<path d="M16.4261 4.09243C16.4392 4.08751 16.4659 4.07658 16.479 4.07166L16.4586 4.09735L16.4261 4.09243Z" fill="#7D7F85"/>
<path d="M17.1367 4.14656C17.1617 4.07165 17.1339 4.04322 17.0537 4.06127C17.0276 4.13563 17.0554 4.16406 17.1367 4.14656Z" fill="#7D7F85"/>
<path d="M16.1351 4.13453C16.1817 4.13946 16.2744 4.1493 16.3204 4.15367C16.3608 4.30786 16.2647 4.42925 16.1442 4.51673C15.981 4.41722 16.0515 4.25975 16.1351 4.13453Z" fill="#7D7F85"/>
<path d="M11.3822 4.27396C11.4118 4.30294 11.4118 4.30294 11.3822 4.27396Z" fill="#7D7F85"/>
<path d="M16.4136 4.85464C16.4426 4.76552 16.4108 4.73599 16.3187 4.76552C16.2886 4.8541 16.3204 4.88362 16.4136 4.85464Z" fill="#7D7F85"/>
<path d="M16.7547 4.8541C16.7837 4.76497 16.7519 4.73545 16.6598 4.76497C16.6297 4.85355 16.6615 4.88308 16.7547 4.8541Z" fill="#7D7F85"/>
<path d="M11.8694 5.00556C11.9188 4.93775 11.9063 4.89729 11.8313 4.88417C11.7819 4.95197 11.7949 4.99243 11.8694 5.00556Z" fill="#7D7F85"/>
<path d="M16.811 5.51406C16.8417 5.42439 16.8116 5.39377 16.7189 5.4222C16.6876 5.51133 16.7183 5.54195 16.811 5.51406Z" fill="#7D7F85"/>
<path d="M12.1513 5.63107C12.244 5.61303 12.2048 5.47907 12.1167 5.52828C12.024 5.54687 12.0632 5.6781 12.1513 5.63107Z" fill="#7D7F85"/>
<path d="M11.1463 5.74644C11.0616 5.76394 11.061 5.79729 11.1452 5.84541C11.1457 5.8208 11.1463 5.77105 11.1463 5.74644Z" fill="#7D7F85"/>
<path d="M11.6937 6.01218C11.7136 5.92469 11.7477 5.80495 11.6528 5.7459C11.5806 5.82737 11.6517 5.93399 11.6937 6.01218Z" fill="#7D7F85"/>
<path d="M17.7859 5.90173C17.9962 5.89517 18.2071 5.89517 18.418 5.90118C18.4169 6.01272 18.4169 6.12481 18.418 6.2369C18.2049 6.24565 17.9979 6.19152 17.7882 6.16801C17.7876 6.07889 17.7865 5.99031 17.7859 5.90173Z" fill="#7D7F85"/>
<path d="M7.926 6.57919C7.97375 6.52998 8.02207 6.48077 8.07039 6.43156C8.28527 6.51522 8.49844 6.60325 8.71616 6.68034C8.66898 6.73557 8.62407 6.79353 8.57916 6.85149C8.3586 6.76673 8.12724 6.7044 7.926 6.57919Z" fill="#7D7F85"/>
<path d="M11.5692 6.84492L11.5545 6.85531C11.5584 6.85258 11.5658 6.84766 11.5692 6.84492Z" fill="#7D7F85"/>
<path d="M10.4733 6.8996C10.5028 6.92804 10.5028 6.92804 10.4733 6.8996Z" fill="#7D7F85"/>
<path d="M2.33181 7.52129C2.49723 7.45732 2.70472 7.3835 2.86673 7.49122C2.56943 7.51145 2.23233 7.59347 2.08851 7.87287C2.14991 7.85975 2.21187 7.84772 2.27383 7.83514C2.34659 8.01503 2.50633 8.1397 2.66948 8.24195C2.54498 8.3781 2.51713 8.55853 2.4563 8.72366C2.27326 9.10805 2.61775 9.65155 3.06797 9.64608C3.24134 9.58703 3.36413 9.43174 3.55172 9.40167C3.56423 9.51212 3.57844 9.62202 3.59322 9.73247C3.7666 9.70951 3.81151 9.52579 3.86039 9.39128C3.91326 9.06048 3.91042 8.71054 3.7683 8.39942C3.79161 8.41692 3.83823 8.45191 3.86153 8.46941C3.92236 8.6657 3.96329 8.86965 3.9792 9.0736C3.93998 9.38198 3.8729 9.71716 3.6171 9.93205C3.40279 10.1792 3.02306 10.2404 2.72064 10.1201C2.29088 9.95665 1.99131 9.56898 1.83725 9.16163C1.7139 8.85872 1.73777 8.52518 1.77245 8.20914C1.85147 7.92427 2.02769 7.62518 2.33181 7.52129Z" fill="#7D7F85"/>
<path d="M5.40376 7.55628C5.821 7.68204 6.24109 7.79687 6.66232 7.90841C6.67199 7.94231 6.69131 8.00957 6.70155 8.04347C6.23825 7.92263 5.77269 7.8078 5.31621 7.66564C5.33838 7.6383 5.38216 7.58362 5.40376 7.55628Z" fill="#7D7F85"/>
<path d="M16.2369 7.75695C16.3886 7.67658 16.5421 7.59237 16.7115 7.55191C16.8997 7.63174 17.0088 7.81546 17.1191 7.97348C16.9071 8.07901 16.6973 8.18836 16.4813 8.28624C16.4637 8.2835 16.4279 8.27804 16.4097 8.2753C16.3642 8.09924 16.313 7.92372 16.2369 7.75695Z" fill="#7D7F85"/>
<path d="M3.1737 7.62299C3.24134 7.58581 3.32548 7.66291 3.334 7.72743C3.31411 7.80452 3.19985 7.74492 3.19132 7.6897C3.18677 7.6733 3.17825 7.63994 3.1737 7.62299Z" fill="#7D7F85"/>
<path d="M3.60686 8.02542C3.62562 7.94231 3.50397 7.83241 3.41927 7.84663C3.39426 7.9363 3.51193 8.0544 3.60686 8.02542Z" fill="#7D7F85"/>
<path d="M8.89863 7.9106C8.8975 7.90568 8.89522 7.89529 8.89465 7.88982L8.89863 7.9106Z" fill="#7D7F85"/>
<path d="M3.78934 8.34529C3.82515 8.26218 3.74727 8.1058 3.64836 8.11127C3.63131 8.19274 3.69441 8.33982 3.78934 8.34529Z" fill="#7D7F85"/>
<path d="M5.43161 8.08229C5.47709 8.08393 5.56747 8.0883 5.61295 8.09049C5.73005 8.25179 5.77325 8.45902 5.80452 8.65258C5.59703 8.53885 5.47595 8.30045 5.43161 8.08229Z" fill="#7D7F85"/>
<path d="M5.77098 8.13642C6.0825 8.19055 6.10296 8.52791 6.18652 8.76248C6.12456 8.72804 6.04668 8.70726 6.01428 8.64055C5.92276 8.47761 5.79599 8.32451 5.77098 8.13642Z" fill="#7D7F85"/>
<path d="M6.12001 8.24687C6.45825 8.19766 6.46905 8.60337 6.5276 8.82427C6.45029 8.80787 6.38321 8.76631 6.35081 8.69523C6.2644 8.55088 6.1564 8.41309 6.12001 8.24687Z" fill="#7D7F85"/>
<path d="M6.45484 8.3103C6.54693 8.33599 6.63958 8.36224 6.73224 8.38848C6.7925 8.56345 6.86185 8.73624 6.888 8.91996C6.85389 8.90629 6.78511 8.8784 6.751 8.86473C6.64584 8.68375 6.52817 8.50604 6.45484 8.3103Z" fill="#7D7F85"/>
<path d="M17.2265 8.47105L17.2896 8.47488C17.293 8.66516 17.2908 8.85598 17.2641 9.04517C17.2379 8.96479 17.2129 8.88387 17.2021 8.80076C17.2083 8.69031 17.218 8.5804 17.2265 8.47105Z" fill="#7D7F85"/>
<path d="M17.3442 8.4787L17.3806 8.48034C17.4408 8.56783 17.3959 8.67008 17.3402 8.74717C17.3306 8.65859 17.309 8.56455 17.3442 8.4787Z" fill="#7D7F85"/>
<path d="M18.5766 9.17147C18.7227 8.97791 18.6977 8.72913 18.7818 8.5137C18.8734 8.96206 18.6062 9.40823 18.2463 9.67615C17.9667 9.87299 17.6012 9.88229 17.2703 9.84784C17.16 9.65702 17.2601 9.41917 17.392 9.26279C17.6233 9.40933 17.9064 9.4476 18.1759 9.4815C18.3708 9.50337 18.4817 9.30325 18.5766 9.17147Z" fill="#7D7F85"/>
<path d="M12.6954 9.09492C12.962 8.85106 13.336 8.78709 13.6856 8.73678C13.6771 8.77123 13.66 8.83903 13.6509 8.87348C13.7612 8.86528 13.9289 8.75209 13.9966 8.88277C14.1716 8.862 14.3155 8.97518 14.4553 9.05884C14.685 9.20155 14.8691 9.40495 14.9999 9.63514C14.7225 9.51212 14.6082 9.18514 14.3172 9.07196C14.0744 9.00088 13.8448 8.85598 13.5816 8.88551C13.3718 8.87457 13.1848 8.97299 13.0012 9.05556C12.8517 9.10367 12.7556 9.22397 12.6738 9.34535C12.9409 9.4301 13.095 9.68654 13.3542 9.79043C13.2507 10.0206 12.9517 10.0977 12.8727 10.3405C12.8773 10.7429 13.141 11.1557 13.5418 11.2946C13.8459 11.3548 14.0221 11.0338 14.3013 10.9928C14.3342 11.1333 14.3632 11.2744 14.3911 11.416C14.5014 11.4423 14.6116 11.4707 14.7213 11.5013C15.0522 11.2935 15.1437 10.9015 15.1869 10.5483C15.1801 10.3897 15.1397 10.2339 15.1289 10.0753C15.1505 10.0715 15.1937 10.0644 15.2153 10.0605C15.2455 10.2727 15.3324 10.4876 15.2699 10.703C15.2096 10.9381 15.1824 11.1929 15.0198 11.3887C14.7555 11.7878 14.249 12.0197 13.7618 11.9661C12.813 11.8507 12.1047 10.9031 12.2184 10.0048C12.281 9.66686 12.4094 9.31692 12.6954 9.09492Z" fill="#7D7F85"/>
<path d="M8.80143 8.89754C9.02085 8.92105 9.30338 8.92816 9.41366 9.14906C9.48017 9.39292 9.53929 9.64116 9.5535 9.89377C9.41366 9.83472 9.23857 9.79316 9.17604 9.64171C9.05496 9.39183 8.86794 9.17038 8.80143 8.89754Z" fill="#7D7F85"/>
<path d="M15.1761 10.0135C15.1369 9.92767 15.1431 9.76473 15.0033 9.7959C15.0101 9.89979 15.0829 9.96923 15.1761 10.0135Z" fill="#7D7F85"/>
<path d="M20.2433 9.85659C20.2757 9.88776 20.2757 9.88776 20.2433 9.85659Z" fill="#7D7F85"/>
<path d="M6.06487 1.14857C6.60207 1.12888 7.1404 1.14529 7.67645 1.10318C7.85438 1.08623 8.03287 1.10756 8.20796 1.13982C7.99251 1.20379 7.77025 1.24425 7.55651 1.31424C7.27626 1.41922 7.133 1.7041 7.0773 1.97257C7.01533 1.94796 6.95337 1.92336 6.89312 1.89656C6.87606 1.88617 6.84309 1.8643 6.82604 1.85337C6.65948 1.71448 6.45484 1.63137 6.24451 1.5756L6.19903 1.56139L6.19619 1.51491C6.20073 1.43508 6.14616 1.37165 6.10466 1.30877C6.095 1.26886 6.07454 1.18848 6.06487 1.14857Z" fill="#AB1E1E"/>
<path d="M4.36234 3.60033C4.45216 3.58885 4.52151 3.45598 4.61644 3.5112C4.6227 3.51558 4.63577 3.52433 4.64202 3.5287C4.67954 3.55495 4.75344 3.60798 4.79039 3.63423C4.73809 3.66048 4.68523 3.69383 4.62326 3.68563C4.32312 3.67469 4.02582 3.72281 3.72624 3.7321C4.19465 3.84802 4.6875 3.83545 5.15591 3.95902C5.15079 4.03557 5.15136 4.11266 5.15761 4.18976C5.01721 4.20015 4.87623 4.20507 4.73582 4.20944C4.72559 4.16843 4.70455 4.08696 4.69432 4.0465C4.63179 4.04595 4.56926 4.04486 4.50673 4.04432C4.49366 4.0897 4.46694 4.18046 4.45386 4.22585C4.318 4.1236 4.16964 4.01698 3.98659 4.03557C3.9468 4.11376 3.90587 4.19249 3.86551 4.27068C3.72112 4.31661 3.57617 4.36199 3.43462 4.41558C3.23339 4.48939 3.15323 4.68842 3.08331 4.86722C3.00714 4.6589 2.85366 4.45167 2.91164 4.22147C2.95541 4.05908 2.93381 3.87919 3.02647 3.73156C3.15096 3.67469 3.28341 3.64517 3.41529 3.70039C3.73079 3.66649 4.04401 3.60525 4.36234 3.60033ZM3.18279 3.98745C3.18166 4.06291 3.17995 4.13836 3.17881 4.21382C3.25442 4.21272 3.33002 4.21108 3.4062 4.21054C3.40336 4.13836 3.40051 4.06619 3.39767 3.99456C3.32604 3.99182 3.25442 3.98964 3.18279 3.98745Z" fill="#AB1E1E"/>
<path d="M4.71365 5.08648C4.86031 5.04984 5.02175 4.9476 5.16955 5.0318C5.60329 5.24833 6.09386 5.31284 6.55602 5.45173C7.15688 5.58842 7.73045 5.80932 8.31085 6.00671C8.49219 6.06467 8.6326 6.19207 8.74686 6.33478C8.71673 6.38781 8.6866 6.4414 8.65647 6.49498C8.69058 6.54802 8.72525 6.60161 8.75709 6.65738L8.71616 6.68034C8.49844 6.60325 8.28527 6.51522 8.07039 6.43156C7.89303 6.37579 7.71567 6.24839 7.52069 6.30142C7.19383 6.04389 6.76805 5.97172 6.37809 5.84213C6.12683 5.76941 5.88353 5.66388 5.62034 5.6349C6.13081 5.8547 6.69074 5.95476 7.18928 6.20355C7.36948 6.31837 7.44338 6.55513 7.66451 6.61746C8.01582 6.73885 8.36315 6.87554 8.73037 6.94772C8.73947 6.85039 8.74913 6.75416 8.75709 6.65738C8.78949 6.79243 8.81564 6.93132 8.88783 7.05325C8.79233 7.18721 8.79517 7.34687 8.83383 7.49997C8.83554 7.50817 8.83838 7.52348 8.84008 7.53113C8.85714 7.65088 8.87646 7.77008 8.89465 7.88982C8.89522 7.89529 8.8975 7.90568 8.89863 7.9106C8.92649 7.99699 8.93502 8.10471 9.0254 8.15556C9.18798 8.26054 9.36932 8.36388 9.57283 8.35568C9.71551 7.79085 9.90935 7.20908 10.3277 6.77275C10.3147 6.9428 10.3067 7.11285 10.2925 7.28289C10.1544 7.63065 9.98609 7.97074 9.92186 8.34092C9.8724 8.50987 9.87354 8.70562 9.76439 8.85051C8.7406 8.59243 7.7225 8.31248 6.70155 8.04347C6.69131 8.00957 6.67199 7.94231 6.66232 7.90841C6.24109 7.79687 5.821 7.68204 5.40376 7.55628C5.38216 7.58362 5.33838 7.6383 5.31621 7.66564C5.29859 7.65416 5.26335 7.63065 5.24573 7.61917C5.15761 7.20307 5.0894 6.77548 4.89499 6.38946C4.75344 6.09201 4.5704 5.8126 4.45443 5.50531C4.38394 5.31394 4.52947 5.14061 4.71365 5.08648ZM7.53263 7.61971C7.52524 7.73618 7.51842 7.85264 7.51273 7.96911C7.61165 7.99207 7.70999 8.01394 7.80947 8.03472C7.85836 7.97949 7.91179 7.9281 7.96807 7.88053C7.90497 7.85756 7.84073 7.83733 7.77593 7.82093C7.72306 7.72415 7.67474 7.58581 7.53263 7.61971Z" fill="#AB1E1E"/>
<path d="M13.066 5.90118C13.307 5.95477 13.5549 5.94328 13.7999 5.95914C13.8482 5.98648 13.8965 6.01437 13.9443 6.04334C13.9619 6.18223 13.9903 6.31892 14.0261 6.45452C13.7936 6.48131 13.5657 6.55896 13.3292 6.52943C13.2451 6.40914 13.1535 6.29432 13.0643 6.17785C13.0444 6.15161 13.0046 6.09912 12.9847 6.07287C13.0109 6.01491 13.0381 5.95805 13.066 5.90118Z" fill="#AB1E1E"/>
<path d="M14.324 6.00452C14.5724 6.00069 14.8197 6.04662 15.0431 6.15434C15.1954 6.22323 15.3529 6.28283 15.5035 6.3561C15.5882 6.40039 15.669 6.45179 15.7491 6.50319C15.8475 6.44632 15.9458 6.38891 16.0447 6.33259C16.1044 6.44413 16.0385 6.55021 15.981 6.64754C16.5108 6.88265 16.9582 7.25009 17.4431 7.55574C17.4471 7.61807 17.4516 7.68041 17.4568 7.74328C17.4431 7.95489 17.4374 8.16704 17.4306 8.37919C17.3999 8.22718 17.3885 8.05167 17.2635 7.93958C16.9901 7.6733 16.7223 7.401 16.4449 7.13855C16.3255 7.01115 16.1385 7.00622 15.9742 6.98545C15.682 6.95975 15.3978 6.88156 15.1051 6.86516C15.1869 6.84656 15.2693 6.82961 15.3518 6.81266C15.0698 6.65629 14.764 6.53107 14.4371 6.49772C14.4019 6.33259 14.3649 6.16801 14.324 6.00452Z" fill="#AB1E1E"/>
<path d="M13.8294 7.10191C14.1245 7.11175 14.4189 7.06582 14.6997 6.97888C14.7276 7.05871 14.756 7.13909 14.7839 7.21947L14.7435 7.2047C14.6219 7.15331 14.4888 7.12816 14.3598 7.16588C14.1569 7.22111 13.9477 7.17846 13.7464 7.13964C13.7669 7.13034 13.8084 7.11175 13.8294 7.10191Z" fill="#AB1E1E"/>
<path d="M12.8255 7.38952C12.9551 7.2818 13.0938 7.18393 13.2411 7.10027C13.2382 7.16698 13.2348 7.23423 13.2314 7.30148C13.1143 7.33702 13.0006 7.38077 12.8847 7.41959C12.8699 7.41193 12.8403 7.39717 12.8255 7.38952Z" fill="#AB1E1E"/>
<path d="M13.5424 1.25574C13.548 1.17864 13.456 1.10756 13.402 1.19067C13.4372 1.20707 13.5071 1.23933 13.5424 1.25574Z" fill="#030303"/>
<path d="M9.68083 1.54936C9.89059 1.5756 10.0952 1.62809 10.3005 1.6784C10.2356 1.76315 10.1612 1.85227 10.176 1.96546C10.176 2.43295 10.1686 2.901 10.1794 3.36849C9.92811 3.29304 9.66719 3.34608 9.41934 3.40513C9.36363 3.30671 9.29883 3.21102 9.26643 3.10276C9.21868 2.81351 9.31759 2.52809 9.31986 2.23939C9.31816 2.0934 9.36761 1.95507 9.42275 1.82111C9.55122 1.77572 9.61034 1.65215 9.68083 1.54936Z" fill="#030303"/>
<path d="M11.58 1.69535C11.613 1.65817 11.6466 1.62208 11.6801 1.58599C12.2713 1.75385 12.8398 2.01139 13.2957 2.4171C13.3019 2.64128 13.3167 2.86819 13.2729 3.09018C13.2075 3.41005 13.2553 3.73648 13.2343 4.05962C13.0364 3.74796 12.9074 3.40021 12.688 3.10166C12.4208 2.72548 12.1417 2.34 11.75 2.07372C11.6863 1.95015 11.6346 1.8222 11.58 1.69535Z" fill="#030303"/>
<path d="M8.14088 1.9321C8.23581 1.92171 8.33074 1.91406 8.42625 1.90804C8.41942 2.05403 8.23411 2.04638 8.12212 2.06825C7.89303 2.06497 7.66963 2.11309 7.44395 2.13988L7.44225 2.19073C7.76627 2.17761 8.08347 2.09723 8.41033 2.13277C8.42056 2.37554 8.38589 2.62323 8.44444 2.86272C8.47741 3.0109 8.4865 3.16673 8.45353 3.316C8.36656 3.44723 8.24491 3.56206 8.10734 3.64462C7.92941 3.66376 7.74865 3.66977 7.57527 3.71898C7.45305 3.48824 7.42178 3.22578 7.30127 2.9945C7.34788 2.77414 7.30241 2.54614 7.36209 2.32742C7.39165 2.20823 7.38824 2.08575 7.38597 1.96436C7.46442 2.001 7.54229 2.11473 7.63779 2.0595C7.74296 1.89492 7.98001 2.00756 8.14088 1.9321Z" fill="#030303"/>
<path d="M8.91285 2.00373C8.96912 1.92609 8.82815 1.86102 8.77301 1.91789C8.72241 1.99115 8.85884 2.06224 8.91285 2.00373Z" fill="#030303"/>
<path d="M11.0753 2.11309C11.0929 2.03763 11.0622 2.00865 10.9849 2.02669C10.9661 2.10215 10.9962 2.13113 11.0753 2.11309Z" fill="#030303"/>
<path d="M14.112 2.1705C14.0801 2.09122 14.0125 2.001 13.9113 2.02505C13.9329 2.1109 14.0153 2.18526 14.112 2.1705Z" fill="#030303"/>
<path d="M11.3646 2.3154C11.4863 2.36187 11.5727 2.4581 11.6574 2.54996C11.5931 2.57074 11.5295 2.59152 11.4652 2.6112C11.4396 2.61394 11.3885 2.61995 11.3629 2.62269C11.4004 2.57949 11.4385 2.53684 11.4772 2.49474C11.4402 2.43459 11.4033 2.3739 11.3646 2.3154Z" fill="#030303"/>
<path d="M13.4724 2.61011C13.6788 2.70088 13.797 2.92451 13.921 3.10221C13.8635 3.23125 13.8266 3.38654 13.9016 3.51722C14.0057 3.72937 14.133 3.93113 14.22 4.15148C13.9727 4.10009 13.7265 4.03283 13.4719 4.03557C13.4702 3.56041 13.4594 3.08526 13.4724 2.61011Z" fill="#030303"/>
<path d="M8.7514 2.67682C8.77983 2.67682 8.8361 2.67736 8.86453 2.67736C8.86623 2.83812 8.85429 2.99942 8.87362 3.16017C8.92308 3.28593 8.99072 3.40896 8.9839 3.54838C8.90659 3.54893 8.82985 3.55002 8.75311 3.55112C8.75027 3.25968 8.74913 2.96825 8.7514 2.67682Z" fill="#030303"/>
<path d="M11.0264 2.92342C11.1247 2.87749 11.2214 2.82937 11.3174 2.77852C11.2992 2.8332 11.2805 2.88788 11.2611 2.94201C11.3339 3.0612 11.3765 3.19353 11.3771 3.33295C11.2793 3.33186 11.1821 3.33077 11.0849 3.33077C11.0383 3.19899 11.0195 3.0612 11.0264 2.92342Z" fill="#030303"/>
<path d="M13.9806 3.21048C14.2512 3.46637 14.3541 3.83271 14.5059 4.1575C14.3302 4.17117 14.3007 3.97269 14.2285 3.8606C14.1381 3.64681 13.9556 3.45434 13.9806 3.21048Z" fill="#030303"/>
<path d="M12.0962 3.35154C12.1167 3.33569 12.1576 3.30507 12.1781 3.28921C12.1565 3.3592 12.1349 3.42973 12.1138 3.50027C12.1479 3.55331 12.182 3.60689 12.2167 3.66047C12.0678 3.81576 11.8484 3.76983 11.6596 3.72554C11.5783 3.70148 11.4982 3.67469 11.4175 3.64899C11.4186 3.54237 11.4186 3.4363 11.4175 3.33077C11.6397 3.35975 11.8774 3.43575 12.0962 3.35154Z" fill="#030303"/>
<path d="M12.3759 3.59049C12.4185 3.56424 12.4532 3.52979 12.4788 3.48769C12.5612 3.65938 12.6476 3.82888 12.7334 3.99893C12.6709 3.98034 12.609 3.96175 12.547 3.94316C12.5362 3.91199 12.514 3.84966 12.5027 3.81904C12.4776 3.73484 12.4231 3.66321 12.3759 3.59049Z" fill="#030303"/>
<path d="M8.42397 3.56424C8.45581 3.59486 8.45581 3.59486 8.42397 3.56424Z" fill="#030303"/>
<path d="M0.155189 9.6849C0.366655 9.55039 0.656 9.499 0.886794 9.61819C0.681012 9.7527 0.370634 9.85604 0.155189 9.6849Z" fill="#030303"/>
<path d="M5.78747 9.59086C6.06146 9.53891 6.32921 9.63569 6.59979 9.66576C7.67645 9.80137 8.74515 9.99875 9.82408 10.1218C10.2356 10.078 10.608 9.8812 11.0087 9.79043C11.0696 9.90033 11.16 9.98946 11.2611 10.066C11.1799 10.2508 11.1173 10.4438 11.0758 10.6412C10.1572 10.5264 9.24426 10.3728 8.3279 10.2454C8.0306 10.2377 7.72704 10.3071 7.43429 10.2289C7.27569 10.1781 7.10003 10.2273 6.94769 10.1551C6.77374 10.0764 6.57648 10.0944 6.39685 10.0359C6.27179 9.99219 6.13877 10.0053 6.00973 10.0173C6.07567 10.0983 6.14787 10.1754 6.23257 10.2393C6.22973 10.2842 6.22688 10.3296 6.22347 10.3744C6.84025 10.4876 7.44736 10.639 8.05902 10.7714C8.2415 10.6461 8.44557 10.5073 8.6775 10.5078C8.78892 10.5904 9.01972 10.6882 8.95434 10.8523C8.7173 10.966 8.45694 11.0251 8.2017 11.089C8.20284 11.042 8.20455 10.995 8.20625 10.948C7.94988 10.7998 7.64973 10.7796 7.36266 10.732C6.74475 10.5898 6.12342 10.4619 5.50494 10.3235C5.59533 10.2093 5.69822 10.1037 5.77041 9.97797C5.7886 9.84948 5.78405 9.7199 5.78747 9.59086Z" fill="#030303" fill-opacity="0.35"/>
<path d="M0 10.3246C0.342211 10.0217 0.822558 9.95064 1.26652 9.90307C1.35009 9.89651 1.43365 9.89377 1.51778 9.89159C1.64057 10.0742 1.61726 10.2885 1.64114 10.4941C1.74858 10.4777 1.85601 10.4559 1.96573 10.452C2.10159 10.6095 2.09079 10.8304 2.213 10.9961C2.29032 10.9337 2.36763 10.872 2.4455 10.8107C2.59728 10.8949 2.69506 11.0245 2.7087 11.1962C2.8474 11.2317 2.93893 11.1257 3.02419 11.0404C3.21235 11.0584 3.28796 11.299 3.49886 11.2722C3.53296 11.2181 3.5665 11.1639 3.60004 11.1104C3.88995 11.1967 4.18442 11.1262 4.45728 11.0212C4.61701 11.1421 4.75401 11.2908 4.81825 11.48C4.4533 11.732 4.0298 11.8955 3.59152 11.9863C3.39824 12.0503 3.1953 11.9929 2.99691 12.0158C2.81273 12.0443 2.65299 11.907 2.46824 11.9354C2.34261 11.9546 2.23631 11.8857 2.13172 11.8316C1.98335 11.7277 1.77075 11.8463 1.64057 11.7036C1.4922 11.5445 1.23071 11.6347 1.08916 11.4685C0.959557 11.3329 0.73331 11.3608 0.615071 11.2115C0.520707 11.1115 0.367224 11.0967 0.270017 10.9999C0.158031 10.8862 0.0147801 10.7708 0.00511634 10.6024C0.0250124 10.411 0.246142 10.3613 0.392804 10.2831C0.261491 10.2946 0.130745 10.3077 0 10.3246Z" fill="#030303" fill-opacity="0.45"/>
<path d="M5.58907 10.8457C5.83124 10.6926 6.13138 10.6297 6.41845 10.6713C6.73963 10.7107 7.06536 10.7342 7.37574 10.8293C7.32514 10.8998 7.27512 10.9709 7.2251 11.042C7.41155 10.966 7.60767 10.8402 7.8197 10.8998C7.93169 10.9217 8.00843 11.0048 8.0738 11.0879C7.77536 11.2574 7.42235 11.2126 7.0989 11.1541C6.94541 11.1147 6.77317 11.2695 6.81353 11.4198C6.82717 11.5079 6.84991 11.5937 6.87095 11.6807C6.60946 11.6353 6.33887 11.5893 6.11319 11.445C5.93413 11.328 5.74313 11.2241 5.58225 11.083C5.50608 11.0262 5.48846 10.8867 5.58907 10.8457Z" fill="#171717"/>
<path d="M9.56373 10.867C9.53076 10.7954 9.66094 10.7763 9.7121 10.7801C10.0242 10.8189 10.3124 10.9622 10.6284 10.9879C10.8814 11.0404 11.1708 11.0333 11.3919 11.1672C11.3885 11.1896 11.3805 11.2345 11.3765 11.2574C11.0571 11.1678 10.724 11.1328 10.4073 11.0327C10.1333 10.9414 9.80817 11.0431 9.56373 10.867Z" fill="#030303" fill-opacity="0.32"/>
<path d="M8.8469 10.9715C8.94013 10.9474 9.03393 10.9004 9.13284 10.9113C9.34374 11.0267 9.50518 11.2602 9.77008 11.2542C10.0157 11.2558 10.2612 11.2848 10.4903 11.375C10.4841 11.4237 10.4784 11.4729 10.4727 11.5221C10.5221 11.5418 10.5716 11.562 10.6211 11.5828C10.6643 11.5445 10.7075 11.5062 10.7512 11.4685C10.9042 11.5297 11.0412 11.6232 11.1952 11.6828C11.2793 11.6599 11.3595 11.6243 11.4425 11.5981C11.5613 11.5866 11.6801 11.5921 11.7989 11.5997C11.8364 11.8359 11.8228 12.1 11.9899 12.2947C12.0962 12.2728 12.2031 12.2449 12.3134 12.2504C12.5021 12.369 12.4475 12.6288 12.5771 12.7791C12.7283 12.9218 12.8653 12.6501 13.0194 12.7316C13.1905 12.7862 13.2439 12.9661 13.3224 13.1034C13.3872 13.1247 13.4525 13.146 13.5174 13.1684C13.5651 13.093 13.6129 13.0175 13.6612 12.9426C13.8778 12.9765 14.042 13.1187 14.2211 13.2275C14.3439 13.2548 14.4076 13.1187 14.4985 13.0651C14.5752 13.1356 14.71 13.2073 14.656 13.3297C14.5605 13.6179 14.2569 13.7808 13.9806 13.8836C13.8175 13.9345 13.6521 14.0318 13.4753 13.9897C13.3241 13.9542 13.1717 13.9864 13.0205 13.9995C12.8727 13.976 12.7431 13.8973 12.5993 13.8628C12.4947 13.8601 12.3912 13.8798 12.2872 13.876C12.1343 13.8361 12.0047 13.742 11.8563 13.6906C11.7182 13.6573 11.5727 13.6775 11.4328 13.6545C11.2913 13.5993 11.1764 13.4965 11.036 13.4396C10.8791 13.3855 10.7069 13.4025 10.5494 13.3533C10.4306 13.2876 10.3351 13.1876 10.2095 13.1345C10.0765 13.0875 9.93323 13.0799 9.79907 13.0372C9.69504 12.9771 9.61489 12.8863 9.51029 12.8272C9.37386 12.7655 9.2164 12.7589 9.08452 12.6884C8.97992 12.5801 8.87135 12.4729 8.71673 12.4358C8.55756 12.4029 8.52459 12.2231 8.3893 12.1558C8.254 12.07 8.06698 11.9896 8.0613 11.8086C8.08347 11.6183 8.24832 11.4969 8.391 11.3859C8.33757 11.322 8.2847 11.2585 8.23183 11.1946C8.41886 11.0786 8.64169 11.0453 8.8469 10.9715Z" fill="#030303" fill-opacity="0.26"/>
<path d="M16.9622 11.6249C17.1043 11.3777 17.2305 11.1229 17.326 10.8561C17.567 10.8561 17.7853 11.0196 17.8996 11.2121C17.8626 11.4215 17.633 11.5275 17.4437 11.5893C17.2874 11.6347 17.1106 11.7534 16.9622 11.6249Z" fill="#030303" fill-opacity="0.35"/>
<path d="M16.4176 12.2559C16.5154 12.1771 16.612 12.0967 16.6996 12.0071C16.8826 12.0213 17.0617 12.0645 17.2248 12.1471C17.1236 12.252 17.0117 12.3532 16.869 12.4013C16.7172 12.4177 16.5666 12.3554 16.4398 12.2816L16.4176 12.2559Z" fill="#030303" fill-opacity="0.46"/>
<path d="M3.25953 4.72178C3.35106 4.61406 3.50454 4.58344 3.63187 4.52876C3.50625 4.80707 3.33173 5.06187 3.18052 5.32761C3.0475 5.1335 3.15721 4.90276 3.25953 4.72178Z" fill="#861716"/>
<path d="M11.4419 4.64195C11.4794 4.66874 11.517 4.69608 11.5545 4.72287C11.6233 4.701 11.692 4.67967 11.7608 4.6589C11.7227 4.75349 11.6846 4.84808 11.6477 4.94377C11.5738 4.91698 11.4999 4.88909 11.4266 4.86175C11.4334 4.78848 11.4385 4.71522 11.4419 4.64195Z" fill="#861716"/>
<path d="M12.0013 4.81199C12.0064 4.7431 11.9245 4.64304 11.8523 4.69991C11.7995 4.78083 12.0104 4.99571 12.0013 4.81199Z" fill="#861716"/>
<path d="M12.227 4.70209C12.3389 4.70045 12.4504 4.69717 12.5623 4.69225C12.6084 4.88909 12.6436 5.08812 12.6704 5.28824C12.717 5.09413 12.7636 4.90057 12.7983 4.70483C12.9233 4.71795 13.0438 4.75404 13.1564 4.80871C13.5054 4.72232 13.8664 4.77755 14.2217 4.78466C14.4724 4.80106 14.7299 4.77536 14.9743 4.84371C15.0493 4.98423 15.0323 5.14936 15.0283 5.30246C15.0169 5.41892 15.0113 5.56491 14.8925 5.63162C14.7265 5.73004 14.4525 5.72512 14.3621 5.53265C14.3217 5.3637 14.3621 5.18873 14.3564 5.01704C14.1745 5.16795 14.233 5.43204 14.1859 5.63709C14.0807 5.63217 13.9755 5.63271 13.8704 5.63763C13.8954 5.4304 13.9147 5.22208 13.9232 5.01376C13.8982 5.02305 13.8488 5.04055 13.8238 5.04984C13.7305 5.23083 13.7851 5.45665 13.6777 5.62998C13.577 5.64966 13.4832 5.60045 13.3889 5.57639C13.2081 5.65076 13.045 5.55507 12.8955 5.46266C12.6448 5.37081 12.4015 5.26035 12.1434 5.18818C12.0774 5.01813 12.1451 4.853 12.227 4.70209Z" fill="#861716"/>
<path d="M15.4456 5.39596C15.4183 5.17834 15.6007 5.03344 15.7929 4.96619C15.7883 5.17506 15.7861 5.39268 15.7002 5.58897C15.5769 5.7541 15.308 5.7705 15.134 5.67427C14.997 5.59225 15.0522 5.41783 15.0528 5.29097C15.1971 5.2691 15.3574 5.26145 15.4456 5.39596Z" fill="#861716"/>
</svg>
