<svg width="25" height="10" viewBox="0 0 25 10" fill="none" xmlns="http://www.w3.org/2000/svg">
<path d="M6.17111 0.000557026C6.22988 5.43493e-07 6.28812 0 6.34689 0C6.36437 0.485253 6.40302 0.969394 6.4475 1.45298C6.50521 1.79522 6.47132 2.16695 6.29024 2.46522C6.15893 2.68058 5.87936 2.74346 5.78088 2.9872C5.60191 3.34892 5.78988 3.7557 5.72211 4.13968C5.68557 4.14747 5.61197 4.16416 5.57491 4.17251C5.58603 4.22482 5.59662 4.27713 5.60721 4.32999C5.61462 4.36672 5.62945 4.44018 5.63686 4.47691C5.66175 4.59043 5.6914 4.70284 5.72158 4.81525C5.92649 4.7557 6.12769 4.68281 6.33048 4.61491C6.47397 4.58264 6.61322 4.53589 6.75248 4.48692C6.96374 4.43239 7.1713 4.36505 7.37885 4.29661C7.24066 4.2699 7.09241 4.26433 6.96957 4.18698C6.80437 4.06956 6.71224 3.87479 6.62911 3.69171C6.58357 3.51697 6.57775 3.335 6.57987 3.15582C6.58728 2.54424 6.57881 1.93322 6.58304 1.32165C6.66776 1.31998 6.75248 1.31887 6.83772 1.31775C6.8499 2.0768 6.83084 2.83584 6.84461 3.59488C6.88538 3.74068 6.92509 3.90039 7.03416 4.00779C7.21577 4.04953 7.40215 4.07679 7.57 4.16695C7.70078 4.24875 7.84533 4.17307 7.9777 4.13857C7.99888 3.9566 8.01 3.77351 8.01211 3.59043C8.01635 3.42738 8.04229 3.25877 8.13125 3.12131C8.24138 2.94101 8.43411 2.84586 8.56701 2.68781C8.67608 2.51419 8.72533 2.30718 8.76451 2.10573C8.81057 1.8236 8.7285 1.54257 8.73009 1.26044C8.73274 0.929328 8.66232 0.601559 8.69038 0.270452C8.72956 0.266556 8.80793 0.258209 8.84711 0.254313C8.83122 0.630496 8.91753 1 8.90588 1.37563C8.89158 1.66667 8.99854 1.95381 8.94241 2.2443C8.89052 2.54202 8.79787 2.88314 8.5183 3.02727C8.29115 3.15359 8.22814 3.43795 8.19637 3.68392C8.17361 3.96327 8.2615 4.24096 8.21544 4.5192C8.07354 4.5103 7.93163 4.5192 7.79185 4.54369C7.81356 4.73734 7.85274 4.92877 7.90834 5.11519C8.24932 5.03673 8.56807 4.88147 8.9027 4.77963C9.19868 4.67056 9.49731 4.56928 9.8007 4.48581C9.66939 4.27268 9.57832 4.02838 9.59579 3.77017C9.59579 3.02838 9.60003 2.28659 9.60109 1.5448C9.68581 1.54313 9.77052 1.54146 9.85577 1.54035C9.85736 2.05954 9.86954 2.5793 9.85153 3.09794C9.78376 3.51252 9.77264 3.97663 10.0077 4.3389C10.093 4.00612 10.0702 3.64163 10.2418 3.33667C10.345 3.09906 10.633 3.02615 10.7167 2.77574C10.8406 2.48024 10.8321 2.1497 10.8057 1.83584C10.8025 1.45966 10.8205 1.07958 10.7622 0.707846C10.7458 0.614914 10.7246 0.523094 10.7056 0.431274C10.7882 0.434613 10.8713 0.438509 10.9544 0.443517C10.9994 0.837507 10.9364 1.23651 10.9936 1.62938C11.0519 2.06956 11.0577 2.53812 10.8808 2.95103C10.7765 3.20256 10.4705 3.27713 10.3858 3.54257C10.2582 3.80523 10.2836 4.10406 10.3482 4.38119C10.5303 4.5153 10.6733 4.70506 10.6918 4.94602C10.6299 4.9054 10.57 4.86144 10.5144 4.81247C10.3847 4.58208 10.111 4.5793 9.88754 4.54869C10.0072 4.6995 10.2296 4.60935 10.3487 4.76127C9.96908 4.83806 9.58573 4.88926 9.20715 4.97106C8.89264 5.04174 8.66497 5.31942 8.34728 5.38175C8.31286 5.3133 8.27844 5.24596 8.24456 5.17863C8.06453 5.31831 7.84215 5.3044 7.63406 5.26155C7.59488 4.99833 7.68542 4.71564 7.56311 4.47023C7.54988 4.5153 7.52446 4.6049 7.51175 4.64997C7.10405 4.64775 6.72865 4.81914 6.39031 5.04396C6.21135 5.09238 6.02974 5.13022 5.84654 5.15693C5.84389 5.0857 5.84071 5.01503 5.83806 4.94435C5.78035 4.92098 5.72264 4.89761 5.66545 4.87424C5.66386 5.00891 5.66175 5.14302 5.65804 5.27769C5.47166 5.23762 5.45313 5.03005 5.4203 4.86867C5.41342 4.77574 5.41289 4.68281 5.41871 4.59043C5.48384 4.37062 5.39701 4.12855 5.21169 4.00668C5.23392 4.07846 5.25669 4.15025 5.27999 4.22204L5.25987 4.22426C5.03855 4.23595 4.81828 4.25821 4.60066 4.30106C4.29515 4.34391 4.03147 4.51976 3.75561 4.64997C3.46281 4.62716 3.17054 4.65832 2.88091 4.70395C2.86344 4.64886 2.84596 4.59377 2.82955 4.53868L2.82584 4.49138C2.79566 4.25376 2.8502 3.98664 2.70036 3.78297C2.61617 3.61881 2.41232 3.66166 2.26724 3.61102C1.96755 3.56539 1.79441 3.25654 1.72187 2.97551C1.68322 2.6906 1.72134 2.40178 1.69487 2.1163C1.72293 1.68614 1.65569 1.25543 1.7044 0.826378C1.77376 0.821369 1.84313 0.816917 1.91249 0.814135C1.92467 1.42794 1.91196 2.04229 1.91566 2.65665C1.91672 2.85253 1.98079 3.04285 2.07345 3.21146C2.18729 3.47913 2.52669 3.31219 2.71253 3.48581C3.03922 3.67446 2.99581 4.11241 3.12447 4.42849C3.65448 4.26767 4.18449 4.10518 4.72192 3.97385C4.52495 3.74903 4.35234 3.47524 4.35604 3.15749C4.35181 2.47079 4.35022 1.78353 4.35446 1.09627C4.42329 1.09627 4.49265 1.09627 4.56148 1.09627C4.5689 1.67168 4.56201 2.24708 4.56254 2.82304C4.57525 3.12076 4.5906 3.46299 4.79128 3.69505C4.99407 3.7941 5.22439 3.80746 5.44466 3.81302C5.47802 3.49249 5.47219 3.15637 5.60562 2.8581C5.72952 2.57151 6.08004 2.48971 6.18805 2.19032C6.33419 1.86088 6.23094 1.49805 6.21611 1.15415C6.20923 0.768504 6.11922 0.3862 6.17111 0.000557026Z" fill="#165E94"/>
<path d="M13.5182 0.597107C13.5854 0.59655 13.6537 0.59655 13.7215 0.59655C13.694 1.09961 13.8031 1.59488 13.7776 2.09794C13.7856 2.49138 13.7962 2.90707 13.6151 3.26544C13.4901 3.4808 13.2535 3.60378 13.1587 3.84196C12.9744 4.29827 13.2148 4.82582 12.9813 5.26934C12.9628 5.43795 12.994 5.60545 13.0337 5.7685C13.3265 5.65554 13.6214 5.54647 13.901 5.40011C14.2309 5.25932 14.5613 5.11909 14.8917 4.97941C14.9462 5.01503 15.0007 5.05064 15.0558 5.08681C14.7471 5.22482 14.4379 5.36004 14.1223 5.47969C13.9365 5.5537 13.74 5.6138 13.5838 5.74847C13.5727 5.84474 13.5669 5.94213 13.5606 6.03951C13.3562 6.10239 13.1507 6.18698 12.9977 6.34836L12.967 6.34001C12.8902 6.29271 12.7653 6.26878 12.7589 6.15526C12.6816 5.79633 12.886 5.42905 12.7457 5.07958C12.7203 4.99722 12.6387 4.96049 12.5794 4.91041C12.6011 5.00668 12.6255 5.10239 12.6504 5.19811C12.3729 5.27268 12.069 5.27268 11.8191 5.43517C11.6714 5.52643 11.5321 5.63272 11.3854 5.72565C11.2187 5.78742 11.0492 5.84029 10.8803 5.89649C10.8475 5.75125 10.8157 5.60545 10.7882 5.4591C11.1101 5.37396 11.4167 5.23818 11.7264 5.11519C11.8122 5.08459 11.8969 5.05008 11.9822 5.01781C12.1129 4.96605 12.2496 4.93545 12.3878 4.91486C12.0965 4.75904 11.9626 4.41903 11.9207 4.09516C11.8593 3.53589 11.9705 2.97385 11.9165 2.41402C11.9282 2.19811 11.9282 1.98275 11.9303 1.76739C12.0145 1.76572 12.0987 1.76405 12.1834 1.76349C12.2088 2.0985 12.1802 2.43239 12.1394 2.76461C12.1288 3.24708 12.1373 3.73066 12.1347 4.21313C12.1595 4.35726 12.2125 4.49305 12.2676 4.62716C12.4418 4.67446 12.616 4.72454 12.7939 4.75404C12.8156 4.38564 12.8405 4.0039 12.9892 3.66389C13.0962 3.41681 13.3668 3.30106 13.461 3.04619C13.5748 2.73011 13.5976 2.38286 13.559 2.04897C13.4917 1.56817 13.5346 1.08069 13.5182 0.597107Z" fill="#165E94"/>
<path d="M15.6462 0.760713C15.7092 0.762383 15.7722 0.763495 15.8352 0.765164C15.8622 1.19811 15.8082 1.63439 15.8712 2.06511C15.9289 2.468 15.8972 2.8837 15.7955 3.27602C15.742 3.48414 15.5652 3.6483 15.5768 3.87535C15.5736 4.27769 15.5403 4.69894 15.7081 5.07457C15.8929 5.08792 16.0846 5.1202 16.2127 5.27546C16.2117 5.31163 16.2101 5.38342 16.209 5.41903C16.1598 5.40178 16.1105 5.38453 16.0613 5.36839C15.9363 5.32387 15.804 5.31608 15.6732 5.31553C15.5233 5.29382 15.4603 5.13467 15.4058 5.00779C15.275 4.71731 15.3423 4.38898 15.3057 4.08013C15.2438 4.20646 15.2019 4.34335 15.1956 4.48637C15.131 4.49861 15.0664 4.51196 15.0023 4.52476C14.997 4.48637 14.9864 4.40902 14.9812 4.37062C15.0119 4.19366 15.042 4.01057 15.1321 3.85476C15.1972 3.734 15.2909 3.62549 15.3147 3.48581C15.4063 3.03395 15.3645 2.5704 15.3746 2.11297C15.4603 2.10462 15.5461 2.09739 15.6319 2.08737L15.6795 2.08013C15.6811 1.65665 15.6716 1.23261 15.6478 0.809684L15.6462 0.760713ZM15.6435 2.25042C15.6303 2.46244 15.6314 2.67557 15.6509 2.88759C15.6981 2.68893 15.7547 2.42515 15.6435 2.25042Z" fill="#165E94"/>
<path d="M18.7701 0.987202C18.8464 0.988315 18.9226 0.990541 18.9989 0.992767C19.0084 1.03172 19.0275 1.10963 19.037 1.14858C19.1768 1.08514 19.324 1.04062 19.4764 1.03283C19.5622 1.29104 19.7041 1.53756 19.7084 1.81803C19.7131 2.13856 19.72 2.46188 19.6724 2.78019C19.6157 3.21313 19.6941 3.65387 19.6369 4.08514C19.4706 4.54869 19.2625 5.00278 19.1815 5.49416C19.1635 5.56205 19.1688 5.6522 19.1042 5.69505C18.9443 5.82137 18.7606 5.90929 18.5827 6.00501C18.2989 6.16917 17.9823 6.29215 17.7408 6.52365C17.4162 6.59822 17.1637 6.84085 16.8534 6.95381C16.9582 6.7212 16.7973 6.50807 16.6972 6.31219C16.5844 6.11964 16.5145 5.88648 16.3292 5.75348C16.3514 5.03617 16.3742 4.31831 16.3657 3.60045C16.3668 3.28548 16.3425 2.96327 16.4245 2.65609C16.4806 2.53645 16.5283 2.41291 16.5738 2.28881C16.5447 2.26489 16.4865 2.21759 16.4573 2.19421C16.5352 2.10518 16.5977 1.98831 16.72 1.96216C17.133 1.82248 17.5428 1.6739 17.9563 1.53701C18.0167 1.51419 18.077 1.49193 18.1374 1.46967L18.158 1.46244C18.1771 1.45632 18.2152 1.44352 18.2343 1.4374C18.4069 1.38063 18.5769 1.31553 18.7463 1.24986C18.7542 1.16194 18.7622 1.07457 18.7701 0.987202ZM19.3367 1.27824L19.2948 1.24819C19.2752 1.40067 19.2752 1.55426 19.279 1.70785L19.3298 1.70952C19.3383 1.59265 19.3504 1.47691 19.3557 1.3606C19.379 1.4552 19.3976 1.55036 19.4119 1.64719L19.4309 1.64162C19.4018 1.72565 19.424 1.77629 19.4976 1.79521C19.5352 1.79911 19.6099 1.80801 19.6469 1.81191C19.5871 1.62604 19.5342 1.43573 19.4468 1.26155C19.4103 1.20868 19.3737 1.21425 19.3367 1.27824ZM19.1212 1.32053C19.1148 1.52365 19.118 1.72732 19.1238 1.93044H19.1741C19.1794 1.72621 19.181 1.52254 19.1784 1.31887L19.1212 1.32053ZM18.8792 1.61603C18.8723 1.56706 18.8591 1.46912 18.8522 1.41959C18.8241 1.4424 18.7675 1.48804 18.7394 1.51085L18.7113 1.46745C18.6838 1.67613 18.6918 1.88703 18.6997 2.09683L18.7505 2.09961C18.7585 2.01836 18.7648 1.93656 18.7701 1.85532C18.7839 1.93322 18.8077 2.0089 18.8294 2.0857C18.8935 2.04341 18.9576 2.00056 19.0216 1.95826C19.1228 1.92209 19.119 1.65275 19.02 1.6138C19.0211 1.53088 19.0195 1.44853 19.0163 1.36561C18.8893 1.37451 18.9253 1.52866 18.8792 1.61603ZM18.4921 1.54424C18.4921 1.57151 18.4927 1.62549 18.4932 1.65275L18.4302 1.64886C18.4392 1.83139 18.3487 2.08625 18.4868 2.22259C18.5139 2.19811 18.5673 2.14858 18.5938 2.1241C18.6949 2.15303 18.6881 1.92042 18.5885 1.94769C18.5949 1.81191 18.5922 1.67668 18.5917 1.54146C18.5668 1.54201 18.517 1.54368 18.4921 1.54424ZM18.2756 1.65387C18.2708 1.82026 18.2703 1.98664 18.2745 2.15359L18.328 2.15415C18.3317 1.98609 18.3338 1.81859 18.3328 1.65109L18.2756 1.65387ZM18.0236 1.72677C17.9838 1.93934 18.013 2.15971 18.0108 2.37563L18.0638 2.37451C18.0701 2.14691 18.0781 1.91875 18.0611 1.69115L18.0236 1.72677ZM17.8292 1.82638L17.7985 1.79466C17.6593 1.98442 17.7498 2.26043 17.7419 2.48525L17.8033 2.4847L17.8049 2.43016C17.8287 2.42961 17.8764 2.42849 17.8997 2.42794C17.9007 2.2443 17.9092 2.0601 17.8954 1.87702C17.9224 1.78631 17.9002 1.76962 17.8292 1.82638ZM17.5438 1.89037L17.5401 1.93767L17.4835 1.93155C17.4729 2.15303 17.475 2.37451 17.4819 2.59599L17.5364 2.601C17.5396 2.52087 17.5423 2.44074 17.5428 2.36116C17.5677 2.42682 17.6016 2.48915 17.6349 2.55147C17.6317 2.32387 17.6307 2.09627 17.6423 1.86923C17.618 1.87424 17.5682 1.88481 17.5438 1.89037ZM17.0461 2.12187L17.0159 2.08013C16.9905 2.30718 17.0001 2.53645 17.0043 2.76516L17.0557 2.76683C17.0615 2.66722 17.07 2.56817 17.0726 2.46856C17.08 2.56149 17.1113 2.64997 17.1578 2.72899C17.1711 2.49694 17.1637 2.26433 17.1653 2.03228C17.1351 2.05454 17.0758 2.09961 17.0461 2.12187ZM19.5013 2.04897L19.4997 2.10128L19.4442 2.09794C19.4415 2.34502 19.432 2.59321 19.4537 2.84029C19.4637 2.81914 19.4833 2.77685 19.4929 2.7557C19.5151 2.7557 19.5591 2.75515 19.5813 2.75459C19.5834 2.51975 19.6337 2.28937 19.6464 2.05565C19.6099 2.05398 19.5373 2.05064 19.5013 2.04897ZM16.7946 2.15526C16.7872 2.39566 16.7883 2.63606 16.7936 2.87591L16.8476 2.87424C16.855 2.63439 16.8555 2.39399 16.8502 2.15415L16.7946 2.15526ZM16.8995 2.15526C16.8926 2.37674 16.8926 2.59822 16.9 2.8197L16.9545 2.82026C16.9609 2.59766 16.9604 2.37507 16.9551 2.15248L16.8995 2.15526ZM17.2685 2.15303C17.2637 2.31998 17.2637 2.48692 17.2685 2.65442L17.3252 2.65275C17.3289 2.48637 17.3299 2.31998 17.3262 2.15415L17.2685 2.15303ZM19.2313 2.26656L19.1752 2.26989L19.1762 2.21925C19.1482 2.21925 19.092 2.21981 19.064 2.21981L19.0672 2.27602L19.011 2.24318C18.9687 2.40234 18.9798 2.56873 18.9697 2.73233C18.84 2.65721 18.9258 2.45075 18.9088 2.32053C18.8845 2.32053 18.8352 2.32109 18.8109 2.32109C18.813 2.45075 18.8151 2.58097 18.8162 2.71118L18.7553 2.71341C18.7532 2.60156 18.7511 2.49026 18.7495 2.37896C18.7251 2.38008 18.6764 2.38175 18.652 2.38286L18.6515 2.43517L18.5959 2.43294C18.5848 2.67334 18.5859 2.91374 18.5938 3.1547L18.6478 3.15637C18.652 3.07568 18.6552 2.99611 18.6568 2.91597C18.6775 2.97663 18.6997 3.03673 18.7235 3.09627C18.8289 3.06066 18.9311 3.01614 19.0296 2.96383L19.0497 3.00779C19.0698 2.88425 19.0841 2.76016 19.0878 2.6355C19.109 2.7468 19.1423 2.85698 19.2011 2.95326L19.1969 2.9015C19.2271 2.75849 19.2435 2.61213 19.2482 2.46633C19.3028 2.59933 19.3007 2.74402 19.3012 2.88592C19.3737 2.81747 19.3854 2.71953 19.3616 2.62437C19.3928 2.46911 19.3938 2.31052 19.3907 2.15303L19.3277 2.14802C19.2472 2.14524 19.2149 2.18475 19.2313 2.26656ZM16.6908 2.26656C16.6813 2.46967 16.6813 2.67334 16.6877 2.87702L16.7417 2.87535C16.7475 2.67168 16.748 2.468 16.7438 2.26433L16.6908 2.26656ZM17.3951 2.28993C17.3522 2.39176 17.3511 2.52643 17.3945 2.62883C17.466 2.57151 17.4655 2.34669 17.3951 2.28993ZM18.185 2.2788C18.2126 2.30718 18.2126 2.30718 18.185 2.2788ZM18.4037 2.50306C18.3947 2.5704 18.3894 2.63829 18.3862 2.70673L18.3264 2.71118C18.3275 2.66667 18.3296 2.57763 18.3307 2.53311C18.2999 2.55593 18.2385 2.60156 18.2078 2.62437L18.1835 2.5793C18.1559 2.78854 18.1644 3 18.1697 3.21035L18.2189 3.21146C18.2253 3.09182 18.2359 2.97273 18.2454 2.8542C18.2999 2.99889 18.2994 3.15415 18.2904 3.30773L18.3338 3.30662L18.3307 3.24986L18.3772 3.27991C18.4043 3.25598 18.4593 3.20868 18.4863 3.18475C18.5832 3.22371 18.5732 3.01725 18.48 3.05621C18.4932 2.88203 18.4789 2.70785 18.4609 2.53534C18.4556 2.53255 18.445 2.52643 18.4397 2.52365L18.4037 2.50306ZM16.604 2.56817C16.5617 2.67001 16.5537 2.80523 16.6003 2.90707C16.6744 2.85142 16.6697 2.62716 16.604 2.56817ZM17.9637 2.66166L17.9627 2.71341L17.9076 2.71063C17.8949 2.96939 17.8981 3.22871 17.9039 3.48748L17.9595 3.49082C17.9643 3.41124 17.9669 3.33166 17.9674 3.25209C17.9886 3.31831 18.0299 3.37396 18.0712 3.42794L18.0606 3.36951C18.1411 3.33166 18.139 3.30106 18.0537 3.27824C18.058 3.07123 18.0527 2.86422 18.0622 2.65776C18.0373 2.65888 17.9881 2.66055 17.9637 2.66166ZM17.7 2.8325L17.6423 2.82193C17.6312 3.08125 17.6339 3.34057 17.6397 3.59989L17.6979 3.59933C17.6984 3.55426 17.6985 3.46466 17.699 3.41959C17.7281 3.46633 17.7593 3.51196 17.7927 3.55704C17.7953 3.33111 17.8075 3.10351 17.7747 2.8798L17.8043 2.84196C17.7895 2.82304 17.7604 2.78464 17.7456 2.76572C17.7339 2.78242 17.7112 2.8158 17.7 2.8325ZM16.487 2.84585C16.4393 2.91263 16.4515 2.95159 16.523 2.96327C16.5707 2.89594 16.5585 2.85698 16.487 2.84585ZM17.439 2.89371L17.4348 2.94101L17.3776 2.93322C17.3681 3.19199 17.3702 3.45075 17.3755 3.70952L17.4258 3.71174C17.43 3.57485 17.439 3.43795 17.4422 3.30106C17.4882 3.41068 17.5004 3.52866 17.4962 3.64775L17.529 3.64385C17.5152 3.38342 17.5227 3.12243 17.537 2.86199C17.5121 2.86978 17.4634 2.88592 17.439 2.89371ZM17.2823 2.95047C17.2426 3.20089 17.2749 3.45854 17.2706 3.71174L17.3246 3.71007C17.3278 3.44519 17.3363 3.1803 17.3215 2.91597L17.2823 2.95047ZM19.3827 3.04507C19.3335 3.08792 19.2721 3.13244 19.2853 3.21091L19.226 3.21258L19.2244 3.15136C19.1582 3.1714 19.092 3.19254 19.0269 3.21536C19.0349 3.39844 19.0306 3.58264 19.0243 3.76628L18.9597 3.76795C18.957 3.59822 18.956 3.42849 18.9586 3.25932C18.8755 3.28436 18.7924 3.3094 18.7098 3.33389C18.7098 3.47913 18.7087 3.62437 18.7071 3.76962L18.6494 3.7724C18.6478 3.63773 18.6462 3.50362 18.6452 3.37006C18.6171 3.39065 18.561 3.43183 18.5329 3.45242L18.4821 3.41124C18.4106 3.74903 18.4789 4.10128 18.4408 4.44463L18.3767 4.44574C18.3587 4.18086 18.3915 3.9143 18.3545 3.65164C18.4498 3.6266 18.3682 3.43573 18.3037 3.53534C18.2931 3.61046 18.2835 3.68559 18.2809 3.76238L18.2232 3.76795C18.2301 3.67446 18.2279 3.57874 18.1146 3.57986C18.0998 3.59822 18.0696 3.6355 18.0548 3.65387C17.9981 3.8709 18.0416 4.10017 18.0177 4.3222L17.9515 4.32554C17.9531 4.12131 17.9521 3.91708 17.9568 3.71341C17.9298 3.71452 17.8753 3.71675 17.8478 3.71731L17.8494 3.77574L17.7932 3.74179C17.727 4.0217 17.7863 4.31553 17.7535 4.60045L17.6863 4.60323C17.6804 4.38119 17.6958 4.15748 17.6688 3.93712L17.6985 3.89928C17.6836 3.88036 17.6545 3.84252 17.6397 3.8236C17.628 3.84029 17.6053 3.87368 17.5936 3.89037L17.537 3.87869C17.5237 4.23038 17.5317 4.58319 17.5348 4.93545L17.5851 4.93656C17.5883 4.7813 17.5973 4.6266 17.6005 4.4719C17.7006 4.68169 17.6503 4.91987 17.6519 5.14524L17.6932 5.14691L17.6921 5.09571L17.7456 5.09905C17.7726 5.09905 17.8266 5.0985 17.8536 5.09794C17.8504 4.99499 17.8462 4.89204 17.8282 4.79132C17.8531 4.61157 17.8642 4.43016 17.8674 4.2493C17.9971 4.50306 17.8631 4.79855 17.95 5.05899L17.9521 5.00111C17.9664 4.98442 17.996 4.94992 18.0103 4.93267C18.0961 4.9143 18.1803 4.89149 18.2645 4.86644C18.2602 4.67891 18.2608 4.49137 18.2735 4.3044C18.4122 4.41792 18.3153 4.66166 18.3561 4.8286C18.3603 4.8069 18.3698 4.76349 18.3746 4.74235C18.4466 4.72788 18.4736 4.67501 18.4556 4.58375C18.4831 4.62326 18.5139 4.65999 18.5477 4.69505C18.5594 4.68614 18.5816 4.66945 18.5933 4.66055C18.615 4.65999 18.6589 4.65943 18.6812 4.65888L18.6748 4.61937C18.6971 4.46077 18.7182 4.30106 18.7198 4.14079C18.8019 4.27268 18.7617 4.4374 18.7654 4.58598H18.8098L18.8072 4.52977L18.8448 4.56539C18.8585 4.42237 18.8686 4.2788 18.8818 4.13634C18.9067 4.25376 18.9268 4.37284 18.9597 4.48859L19.02 4.50751C19.0417 4.48247 19.0857 4.43239 19.1079 4.4079L19.1609 4.41402L19.1964 4.37396C19.2212 4.35837 19.2705 4.32665 19.2954 4.31107L19.3208 4.31274C19.3526 4.30328 19.4166 4.28436 19.4484 4.2749C19.6681 3.89482 19.5622 3.43183 19.5823 3.01169C19.5622 3.0039 19.5225 2.98831 19.5024 2.98052C19.4722 2.99666 19.4124 3.02894 19.3827 3.04507ZM16.9349 3.12131L16.9037 3.07179C16.891 3.0946 16.8666 3.14023 16.8545 3.16249L16.7994 3.1547C16.793 3.41402 16.792 3.67335 16.7989 3.93322L16.8518 3.93378C16.8746 3.91653 16.9191 3.88203 16.9413 3.86477C16.9381 3.84585 16.9323 3.80801 16.9291 3.78909C16.9503 3.60935 16.9662 3.42905 16.9736 3.24875C17.0355 3.45186 17.0117 3.66722 17.008 3.87646L17.0578 3.87479C17.0498 3.59544 17.0551 3.31553 17.0663 3.03617C17.0334 3.05732 16.9678 3.10017 16.9349 3.12131ZM16.4261 3.09794C16.4679 3.43406 16.4028 3.77908 16.4653 4.10963L16.5288 4.10017C16.5341 3.89594 16.5389 3.69226 16.5368 3.48859C16.5204 3.41347 16.5659 3.28492 16.4727 3.25543C16.4732 3.21647 16.4748 3.13968 16.4759 3.10072L16.4261 3.09794ZM17.1626 3.09905C17.1557 3.32165 17.1557 3.5448 17.1637 3.76739L17.2187 3.76572C17.2256 3.54368 17.2246 3.32165 17.2177 3.09961L17.1626 3.09905ZM16.5998 3.22705C16.5495 3.49972 16.5818 3.78575 16.5881 4.06288C16.6003 4.02894 16.6247 3.96105 16.6368 3.9271C16.6628 3.94324 16.7152 3.97496 16.7411 3.9911C16.738 3.85865 16.7327 3.72565 16.7089 3.59544C16.7676 3.50807 16.8057 3.25654 16.6766 3.23873L16.6464 3.18698L16.5998 3.22705ZM17.269 3.99165C17.268 4.23205 17.2706 4.47245 17.2727 4.71341L17.3225 4.71397C17.3252 4.4719 17.3289 4.23038 17.3273 3.98831L17.269 3.99165ZM17.0456 4.09961C16.9932 4.33556 17.0371 4.58264 17.0117 4.82304L16.9466 4.82693C16.9545 4.60267 16.9556 4.37785 16.9551 4.15359L16.8984 4.15637C16.8947 4.61547 16.9355 5.07401 16.9111 5.53367L16.9588 5.53422L16.9545 5.47913L17.0069 5.5192C17.0207 5.49304 17.0477 5.44185 17.061 5.41569L17.1001 5.45576C17.1118 5.37006 17.1192 5.28492 17.1213 5.19922C17.1409 5.26711 17.1769 5.32888 17.2087 5.39176C17.2198 5.17307 17.2219 4.95326 17.1928 4.73623C17.2314 4.50807 17.2209 4.27602 17.2177 4.04563L17.1647 4.04841L17.1076 4.02949C17.0922 4.04674 17.0615 4.0818 17.0456 4.09961ZM16.6908 4.43461C16.7104 4.83806 16.7104 5.24263 16.6998 5.64608L16.7475 5.64496L16.7438 5.59098L16.801 5.62604C16.8645 5.28603 16.8237 4.92988 16.8275 4.58375C16.8677 4.48581 16.8846 4.30607 16.8132 4.23651C16.7729 4.34725 16.7634 4.49471 16.8216 4.601C16.7872 4.68948 16.7994 4.78798 16.7989 4.88147L16.7343 4.88203C16.7321 4.65275 16.7385 4.42348 16.7348 4.19421C16.658 4.24597 16.6993 4.35615 16.6908 4.43461ZM16.5569 4.335L16.5204 4.29772L16.4727 4.32832C16.3927 4.51697 16.4637 4.73567 16.443 4.93656C16.4563 5.19978 16.3589 5.50306 16.5241 5.73289C16.5378 5.56761 16.5315 5.40067 16.5029 5.23762C16.5288 5.05732 16.541 4.8759 16.5458 4.69393C16.6353 5.02671 16.5648 5.37563 16.5828 5.71564L16.6368 5.71397C16.631 5.26711 16.6315 4.82137 16.631 4.37507C16.6453 4.28548 16.621 4.27212 16.5569 4.335ZM17.4289 4.54702C17.4221 4.78742 17.4215 5.02783 17.4284 5.26878L17.483 5.26822C17.4909 5.02782 17.4893 4.78742 17.4824 4.54702H17.4289ZM19.1355 4.68336C19.0905 4.72176 19.0878 4.86032 19.1635 4.85476C19.2075 4.81525 19.2107 4.67668 19.1355 4.68336ZM18.9634 5.1586L19.0174 5.15915C19.0195 5.00445 19.0227 4.84919 19.0121 4.69505C18.9099 4.81747 18.9793 5.00835 18.9634 5.1586ZM18.5822 4.96327L18.5557 4.91875C18.5229 5.16361 18.5361 5.4118 18.5419 5.65832L18.5901 5.65888C18.5943 5.52142 18.6039 5.38453 18.6139 5.24819C18.6425 5.36338 18.6642 5.4808 18.6886 5.59766L18.7421 5.62159C18.7548 5.41736 18.7971 5.2059 18.7474 5.00445L18.6955 4.98052C18.6965 4.95437 18.6981 4.90206 18.6986 4.87591C18.6695 4.89761 18.6113 4.94157 18.5822 4.96327ZM18.8585 4.88036C18.8527 5.08347 18.8522 5.2877 18.8575 5.49138L18.9099 5.49249C18.9157 5.28826 18.9173 5.08459 18.9126 4.88091L18.8585 4.88036ZM18.3084 5.22482C18.2962 5.19366 18.2713 5.13133 18.2586 5.10017C18.1962 5.12243 18.1342 5.14469 18.0723 5.16806C18.085 5.42682 18.0749 5.6867 18.0797 5.94602C18.2258 5.81803 18.1437 5.59989 18.1247 5.43294C18.1496 5.41792 18.1993 5.38787 18.2242 5.37284C18.2311 5.54202 18.2327 5.71174 18.2295 5.88147C18.265 5.8325 18.301 5.78464 18.337 5.73623C18.3635 5.73511 18.4159 5.73178 18.4424 5.73066L18.4387 5.69282C18.5377 5.69449 18.5308 5.44797 18.4323 5.45465C18.4371 5.29494 18.436 5.13467 18.4302 4.97551C18.3492 5.03283 18.3179 5.12632 18.3084 5.22482ZM19.0857 5.00556C19.1127 5.0345 19.1127 5.0345 19.0857 5.00556ZM17.9362 5.2621C17.9245 5.29327 17.9012 5.35559 17.8896 5.38731L17.87 5.38676C17.8568 5.3734 17.8298 5.34558 17.8165 5.33166C17.8028 5.59154 17.798 5.85142 17.8028 6.1113C17.8689 6.069 17.9447 6.03784 17.9976 5.97663C18.014 5.77741 18.0087 5.57596 17.9828 5.37841C18.0791 5.35559 18.0003 5.15915 17.9362 5.2621ZM18.9703 5.22927C19.1461 5.23706 18.8887 5.39566 18.9703 5.22927ZM17.6005 5.73623C17.592 5.63717 17.5878 5.53868 17.5851 5.44018L17.538 5.43628C17.5481 5.69783 17.5465 5.95938 17.5449 6.22148C17.6111 6.19755 17.6773 6.17418 17.7445 6.15248C17.7519 5.92599 17.7196 5.70173 17.6863 5.47858C17.7694 5.45632 17.7705 5.42571 17.6895 5.38787C17.6339 5.49638 17.6767 5.63829 17.6005 5.73623ZM17.4104 5.55259L17.3601 5.56761L17.3733 5.61102L17.3262 5.60768L17.2892 5.64107C17.2664 5.64441 17.2203 5.65053 17.1976 5.65331C17.143 5.91096 17.1849 6.17696 17.1684 6.43795C17.2712 6.38286 17.3866 6.34279 17.4687 6.25431C17.4904 6.05008 17.4602 5.84418 17.4252 5.64385C17.5507 5.6828 17.4808 5.41792 17.4104 5.55259Z" fill="#165E94"/>
<path d="M12.2014 6.10907C12.3555 6.01725 12.2151 6.29438 12.2014 6.10907Z" fill="#165E94"/>
<path d="M17.9081 6.76962C18.2592 6.80801 18.6076 6.8631 18.9586 6.90039C18.9607 6.98609 18.9623 7.07234 18.965 7.15915C18.7505 7.14914 18.5345 7.16082 18.3275 7.22371L18.2867 7.21313C18.1649 7.1714 18.0384 7.14747 17.9102 7.13912C17.9092 7.01558 17.9087 6.8926 17.9081 6.76962Z" fill="#165E94"/>
<path d="M20.5561 6.76962C20.6937 6.78186 20.8298 6.80913 20.9648 6.84085C21.6018 6.99555 22.2414 7.13801 22.8815 7.27768C22.9657 7.29438 23.0505 7.31219 23.1352 7.32999C23.15 7.20312 23.1659 7.07624 23.1818 6.94992C23.0939 6.931 23.0065 6.91152 22.9197 6.89149C23.0362 6.79744 23.1743 6.85698 23.3009 6.88982C23.3258 7.04452 23.2517 7.25598 23.3756 7.37006C23.6842 7.47857 24.0146 7.57874 24.3424 7.51196C24.3562 7.52643 24.3832 7.55537 24.3964 7.56984C24.3212 7.60823 24.246 7.64719 24.1714 7.68614C24.1375 7.93155 24.1597 8.19421 24.0517 8.42237C24.0236 8.202 24.048 7.97718 24.0093 7.75849C23.9956 7.68169 23.9024 7.6739 23.8516 7.63495C23.8807 7.69115 23.9109 7.74736 23.941 7.80356C23.698 7.87813 23.4486 7.79187 23.2035 7.78241C22.3558 7.71397 21.5091 7.63161 20.6625 7.55203C20.3437 7.48581 20.0218 7.44185 19.6999 7.39955C19.7126 7.37674 19.738 7.33166 19.7507 7.30885C20.0599 7.3389 20.367 7.4168 20.6794 7.36839C20.7011 7.3695 20.7451 7.37229 20.7668 7.37396C20.7943 7.38954 20.8499 7.4207 20.8775 7.43628C21.5833 7.46188 22.2859 7.56483 22.9901 7.61825C23.2427 7.63216 23.4942 7.70117 23.7472 7.65053C23.555 7.57151 23.3523 7.53422 23.1511 7.49137C22.2626 7.27824 21.3635 7.11185 20.4851 6.85476C20.5031 6.83361 20.5386 6.79076 20.5561 6.76962Z" fill="#165E94"/>
<path d="M7.91363 7.01002C7.94011 7.03728 7.94011 7.03728 7.91363 7.01002Z" fill="#165E94"/>
<path d="M6.69635 7.734C6.72283 7.76183 6.72283 7.76183 6.69635 7.734Z" fill="#165E94"/>
<path d="M6.74877 7.84641C6.77472 7.87479 6.77472 7.87479 6.74877 7.84641Z" fill="#165E94"/>
<path d="M8.64908 0.276572L8.69038 0.270452C8.66232 0.601559 8.73274 0.929328 8.73009 1.26044C8.7285 1.54257 8.81057 1.8236 8.76451 2.10573C8.74174 1.89928 8.69991 1.69505 8.70626 1.48637C8.72744 1.08069 8.61519 0.682804 8.64908 0.276572Z" fill="#3F4143"/>
<path d="M10.8057 1.83584C10.8025 1.45966 10.8205 1.07958 10.7622 0.707846C10.802 1.08292 10.7289 1.46411 10.8057 1.83584Z" fill="#3F4143"/>
<path d="M1.65992 0.830831L1.7044 0.826378C1.65569 1.25543 1.72293 1.68614 1.69487 2.1163C1.60698 1.69449 1.68958 1.25877 1.65992 0.830831Z" fill="#3F4143"/>
<path d="M17.9801 1.38843C18.0405 1.3695 18.1019 1.35003 18.1633 1.33111C18.1808 1.35782 18.2163 1.41069 18.2343 1.4374C18.2152 1.44352 18.1771 1.45632 18.158 1.46244C18.1527 1.46411 18.1427 1.46745 18.1374 1.46967C18.077 1.49193 18.0167 1.51419 17.9563 1.53701C17.9621 1.49972 17.9738 1.42571 17.9801 1.38843Z" fill="#3F4143"/>
<path d="M16.3165 2.67557C16.254 2.4975 16.3186 2.30885 16.4573 2.19421C16.4865 2.21759 16.5447 2.26489 16.5738 2.28881C16.5283 2.41291 16.4806 2.53645 16.4245 2.65609C16.3975 2.6611 16.3435 2.67056 16.3165 2.67557Z" fill="#3F4143"/>
<path d="M11.8763 2.76628C11.8699 2.64663 11.8916 2.52922 11.9165 2.41402C11.9705 2.97385 11.8593 3.53589 11.9207 4.09516C11.9626 4.41903 12.0965 4.75904 12.3878 4.91486C12.2496 4.93545 12.1129 4.96605 11.9822 5.01781C11.917 5 11.8524 4.98219 11.7873 4.96494C11.7608 4.85921 11.7344 4.75403 11.7079 4.64886C11.6475 4.66333 11.5866 4.67891 11.5252 4.68559C11.468 4.61881 11.4225 4.54313 11.3749 4.46967C11.315 4.47245 11.2552 4.47579 11.1954 4.47969C11.1414 4.4168 11.0873 4.35337 11.0339 4.29048C10.9587 4.32832 10.8835 4.36617 10.8083 4.40401C10.7681 4.335 10.7284 4.266 10.6886 4.19755C11.0572 4.04563 11.5035 3.90039 11.8784 4.10462C11.8895 3.65888 11.8884 3.21258 11.8763 2.76628Z" fill="#161616"/>
<path d="M6.84461 3.59488C7.07017 3.54368 7.29996 3.49583 7.53135 3.50306C7.69178 3.53088 7.84798 3.58431 8.01211 3.59043C8.01 3.77351 7.99888 3.9566 7.9777 4.13857C7.84533 4.17307 7.70078 4.24875 7.57 4.16695C7.40215 4.07679 7.21577 4.04953 7.03416 4.00779C6.92509 3.90039 6.88538 3.74068 6.84461 3.59488Z" fill="#161616"/>
<path d="M8.21544 4.5192C8.2615 4.24096 8.17361 3.96327 8.19637 3.68392C8.35628 3.86811 8.54001 4.03228 8.66073 4.24986C8.7751 4.40846 8.82116 4.60323 8.9027 4.77963C8.56807 4.88147 8.24932 5.03673 7.90834 5.11519C7.85274 4.92877 7.81356 4.73734 7.79185 4.54369C7.93163 4.5192 8.07354 4.5103 8.21544 4.5192Z" fill="#161616"/>
<path d="M5.21169 4.00668C5.39701 4.12855 5.48384 4.37062 5.41871 4.59043C5.41818 4.55203 5.41713 4.47579 5.41607 4.43795C5.14338 4.39955 4.87017 4.3606 4.60066 4.30106C4.81828 4.25821 5.03855 4.23595 5.25987 4.22426C5.26569 4.22593 5.27734 4.22927 5.28317 4.23094L5.27999 4.22204C5.25669 4.15025 5.23392 4.07846 5.21169 4.00668Z" fill="#3F4143"/>
<path d="M12.1347 4.21313C12.2268 4.23539 12.348 4.21425 12.4126 4.30162C12.5185 4.47635 12.7287 4.54702 12.7939 4.75404C12.616 4.72454 12.4418 4.67446 12.2676 4.62716C12.2125 4.49305 12.1595 4.35726 12.1347 4.21313Z" fill="#161616"/>
<path d="M5.60721 4.32999C5.72581 4.32777 5.84495 4.32499 5.96355 4.335C6.22512 4.39343 6.49568 4.40289 6.75248 4.48692C6.61322 4.53589 6.47397 4.58264 6.33048 4.61491C6.10333 4.54758 5.87036 4.50863 5.63686 4.47691C5.62945 4.44018 5.61462 4.36672 5.60721 4.32999Z" fill="#3F4143"/>
<path d="M2.82955 4.53868C2.84596 4.59377 2.86344 4.64886 2.88091 4.70395C3.17054 4.65832 3.46281 4.62716 3.75561 4.64997C3.82974 4.66834 3.90334 4.68893 3.97747 4.7084C4.20302 4.7429 4.33222 4.9488 4.51913 5.05954C4.6462 5.17307 4.71609 5.34891 4.86911 5.43461C4.88129 5.61658 4.98189 5.7685 5.04119 5.93489C5.04225 5.97607 5.04437 6.05787 5.04543 6.09905C5.07614 6.14023 5.10685 6.18086 5.13809 6.22259C5.11109 6.3695 5.1042 6.51975 5.13332 6.66778C5.14497 6.75793 5.11797 6.8453 5.09044 6.92988C4.98295 7.02059 4.87811 7.11519 4.77804 7.21536C4.81034 7.1163 4.84158 7.01725 4.87229 6.9182C4.68432 6.87535 4.52707 7.05565 4.3391 7.00946C4.21414 6.98052 4.04153 6.97774 3.97799 6.83918C3.92981 6.6483 3.92399 6.44407 3.83768 6.26489C3.63066 5.75849 3.25472 5.28102 2.7443 5.10518C2.51451 5.00612 2.2863 5.14524 2.05862 5.17696C2.14811 5.10183 2.24182 5.03172 2.34084 4.97051C2.49598 4.88982 2.65694 4.82193 2.81684 4.75237C2.82214 4.68114 2.82637 4.60991 2.82955 4.53868Z" fill="#161616"/>
<path d="M9.88754 4.54869C10.111 4.5793 10.3847 4.58208 10.5144 4.81247C10.5563 5.0768 10.515 5.34224 10.4896 5.60601C10.2555 5.58653 10.0236 5.53534 9.78853 5.54647C9.7467 5.62938 9.70381 5.71174 9.6588 5.79299C9.66992 5.69393 9.68263 5.59544 9.6964 5.49694C9.32364 5.47134 8.95724 5.39455 8.58501 5.3645C8.67503 5.51864 8.81904 5.61658 8.95671 5.71786C9.08273 5.86255 9.19868 6.01892 9.3104 6.17696C9.36229 6.31608 9.44383 6.44018 9.50684 6.57373C9.52855 6.75515 9.55344 6.93823 9.63021 7.10518C9.60638 7.17696 9.58256 7.24875 9.55979 7.32165C9.68369 7.56873 9.49572 7.82026 9.45178 8.06567C9.39671 8.05175 9.34164 8.0384 9.28658 8.0256C9.20927 8.07012 9.13144 8.11408 9.05307 8.15693C9.01072 8.05954 8.9943 7.94213 8.92018 7.86477C8.83387 7.82471 8.73592 7.83027 8.64432 7.81747C8.73645 7.88926 8.83652 7.9527 8.91647 8.04118C8.9583 8.1291 8.94188 8.23317 8.95247 8.32888C8.77351 8.3005 8.57495 8.22371 8.50612 8.03061C8.504 7.90707 8.58448 7.78687 8.53365 7.665C8.46164 7.42961 8.44258 7.18197 8.37693 6.94546C8.39758 6.91987 8.43835 6.86867 8.459 6.84307C8.34357 6.7212 8.20749 6.60768 8.15402 6.43795C8.10213 6.22983 7.85539 6.19533 7.78814 5.99221C7.63512 5.95159 7.49428 5.87535 7.39209 5.74569C7.32008 5.74346 7.24807 5.74235 7.17606 5.74124C7.12788 5.69894 7.0797 5.65665 7.03204 5.61492C6.93303 5.66333 6.83455 5.7123 6.73659 5.76127C6.72971 5.71898 6.71594 5.63439 6.70906 5.5921C6.85096 5.52365 6.97698 5.42348 7.11888 5.35504C7.27561 5.32554 7.43657 5.34224 7.59435 5.31887C7.60441 5.3044 7.624 5.27546 7.63406 5.26155C7.84215 5.3044 8.06453 5.31831 8.24456 5.17863C8.27844 5.24596 8.31286 5.3133 8.34728 5.38175C8.66497 5.31942 8.89264 5.04174 9.20715 4.97106C9.58573 4.88926 9.96908 4.83806 10.3487 4.76127C10.2296 4.60935 10.0072 4.6995 9.88754 4.54869Z" fill="#161616"/>
<path d="M12.5794 4.91041C12.6387 4.96049 12.7203 4.99722 12.7457 5.07958C12.886 5.42905 12.6816 5.79633 12.7589 6.15526C12.7653 6.26878 12.8902 6.29271 12.967 6.34001C12.8929 6.32387 12.8182 6.31108 12.7441 6.29828C12.7346 6.17808 12.725 6.05788 12.7166 5.93823C12.5858 5.90484 12.4534 5.88091 12.3194 5.87034C12.3009 5.93155 12.2829 5.99332 12.2649 6.05509C12.2427 5.98943 12.2183 5.92543 12.1913 5.86255C11.9308 5.77741 11.6528 5.77462 11.3854 5.72565C11.5321 5.63272 11.6714 5.52643 11.8191 5.43517C12.069 5.27268 12.3729 5.27268 12.6504 5.19811C12.6255 5.10239 12.6011 5.00668 12.5794 4.91041Z" fill="#3F4143"/>
<path d="M10.7538 4.98219C11.0783 5.02393 11.4008 5.08292 11.7264 5.11519C11.4167 5.23818 11.1101 5.37396 10.7882 5.4591C10.7559 5.30273 10.7474 5.1419 10.7538 4.98219Z" fill="#3F4143"/>
<path d="M12.9813 5.26934C13.2858 5.33111 13.595 5.34947 13.901 5.40011C13.6214 5.54647 13.3265 5.65554 13.0337 5.7685C12.994 5.60545 12.9628 5.43795 12.9813 5.26934Z" fill="#3F4143"/>
<path d="M15.6732 5.31553C15.804 5.31608 15.9363 5.32387 16.0613 5.36839C16.1322 5.60211 16.1402 5.84864 16.1137 6.09071C16.172 6.12465 16.2302 6.1586 16.2884 6.19254C16.2291 6.32443 16.146 6.45131 16.127 6.59822C16.1201 6.72399 16.2741 6.72343 16.3525 6.77407C16.2403 6.85476 16.0888 6.80412 16.0105 6.69672C15.9988 6.58765 16.0168 6.47913 16.0285 6.37118C15.2078 6.24652 14.3828 6.15081 13.5606 6.03951C13.5669 5.94213 13.5727 5.84474 13.5838 5.74847C13.6606 5.78965 13.7337 5.8453 13.82 5.86422C13.9608 5.7941 14.0832 5.68781 14.2298 5.62938C14.4162 5.55593 14.6147 5.52532 14.8107 5.49305C15.2231 5.58487 15.6441 5.6355 16.0645 5.66778C16.0189 5.5793 15.993 5.47412 15.921 5.40512C15.8405 5.36784 15.7558 5.34391 15.6732 5.31553Z" fill="#3F4143"/>
<path d="M13.3149 6.45965C13.3678 6.41013 13.4674 6.44296 13.4896 6.51196C13.4753 6.61603 13.264 6.55982 13.3149 6.45965Z" fill="#3F4143"/>
<path d="M10.2508 6.98164C10.3402 7.07123 10.4408 7.14747 10.5409 7.22371C10.4244 7.18753 10.3042 7.16806 10.1846 7.14914C10.2068 7.09293 10.2285 7.03729 10.2508 6.98164Z" fill="#3F4143"/>
<path d="M12.1865 7.1625C12.2617 7.05398 12.3899 7.02783 12.5032 6.98498C12.5773 7.13801 12.6504 7.29215 12.7208 7.44741C12.4312 7.61269 12.1013 7.43462 11.8006 7.399C11.9456 7.35448 12.0918 7.29271 12.1865 7.1625Z" fill="#3F4143"/>
<path d="M22.7767 8.1675C22.9154 8.16138 23.0415 8.22092 23.1177 8.34446C23.1431 8.34613 23.1939 8.34947 23.2188 8.35114C23.1495 8.64552 23.1346 8.95047 23.1548 9.25209C23.2532 9.27212 23.3517 9.3005 23.4322 9.36728C23.1299 9.54368 22.7682 9.52922 22.4617 9.37507C22.4717 9.20757 22.6999 9.21425 22.8132 9.14246C22.8508 8.84196 22.9011 8.54146 22.8831 8.23762C22.8567 8.21981 22.8032 8.18475 22.7767 8.1675Z" fill="#3F4143"/>
<path d="M15.6478 0.809684C15.6716 1.23261 15.6811 1.65665 15.6795 2.08013L15.6319 2.08737C15.6557 1.66166 15.6367 1.23539 15.6478 0.809684Z" fill="#242627"/>
<path d="M19.3367 1.27824C19.3737 1.21425 19.4103 1.20868 19.4468 1.26155C19.5342 1.43573 19.5871 1.62604 19.6469 1.81191C19.6099 1.80801 19.5352 1.79911 19.4976 1.79521C19.5135 1.7379 19.5109 1.68114 19.4897 1.62604C19.4749 1.62994 19.4457 1.63773 19.4309 1.64162L19.4119 1.64719C19.3976 1.55036 19.379 1.4552 19.3557 1.3606C19.351 1.34001 19.3414 1.29883 19.3367 1.27824Z" fill="#242627"/>
<path d="M15.6509 2.88759C15.6981 2.68893 15.7547 2.42515 15.6435 2.25042C15.6303 2.46244 15.6314 2.67557 15.6509 2.88759Z" fill="#242627"/>
<path d="M5.96355 4.335C6.04986 4.00557 6.35431 3.82527 6.62911 3.69171C6.71224 3.87479 6.80437 4.06956 6.96957 4.18698C7.09241 4.26433 7.24066 4.2699 7.37885 4.29661C7.1713 4.36505 6.96374 4.43239 6.75248 4.48692C6.49568 4.40289 6.22512 4.39343 5.96355 4.335Z" fill="#161616"/>
<path d="M10.3482 4.38119C10.4615 4.31942 10.5727 4.25431 10.6886 4.19755C10.7284 4.266 10.7681 4.335 10.8083 4.40401C10.8835 4.36617 10.9587 4.32832 11.0339 4.29048C11.0873 4.35337 11.1414 4.4168 11.1954 4.47969C11.2552 4.47579 11.315 4.47245 11.3749 4.46967C11.4225 4.54313 11.468 4.61881 11.5252 4.68559C11.5866 4.67891 11.6475 4.66333 11.7079 4.64886C11.7344 4.75403 11.7608 4.85921 11.7873 4.96494C11.8524 4.98219 11.917 5 11.9822 5.01781C11.8969 5.05008 11.8122 5.08459 11.7264 5.11519C11.4008 5.08292 11.0783 5.02393 10.7538 4.98219C10.7379 4.97329 10.7072 4.95492 10.6918 4.94602C10.6733 4.70506 10.5303 4.5153 10.3482 4.38119Z" fill="#0B0B0B"/>
<path d="M3.75561 4.64997C4.03147 4.51976 4.29515 4.34391 4.60066 4.30106C4.87017 4.3606 5.14338 4.39955 5.41607 4.43795C5.41713 4.47579 5.41818 4.55203 5.41871 4.59043C5.41289 4.68281 5.41342 4.77574 5.4203 4.86867C4.93371 4.86255 4.46512 4.67724 3.97747 4.7084C3.90334 4.68893 3.82974 4.66834 3.75561 4.64997Z" fill="#242627"/>
<path d="M5.63686 4.47691C5.87036 4.50863 6.10333 4.54758 6.33048 4.61491C6.12769 4.68281 5.92649 4.7557 5.72158 4.81525C5.6914 4.70284 5.66175 4.59043 5.63686 4.47691Z" fill="#242627"/>
<path d="M7.56311 4.47023C7.68542 4.71564 7.59488 4.99833 7.63406 5.26155C7.624 5.27546 7.60441 5.3044 7.59435 5.31887C7.57159 5.25765 7.53029 5.22315 7.46993 5.2148C7.2952 5.17251 7.11464 5.16249 6.93568 5.16194C6.89226 5.24263 6.84831 5.32332 6.80225 5.40345C6.80702 5.31052 6.81284 5.21814 6.81866 5.12577C6.6757 5.10017 6.53327 5.069 6.39031 5.04396C6.72865 4.81914 7.10405 4.64775 7.51175 4.64997C7.52446 4.6049 7.54988 4.5153 7.56311 4.47023Z" fill="#242627"/>
<path d="M2.05862 5.17696C2.2863 5.14524 2.51451 5.00612 2.7443 5.10518C3.25472 5.28102 3.63066 5.75849 3.83768 6.26489C3.92399 6.44407 3.92981 6.6483 3.97799 6.83918C4.04153 6.97774 4.21414 6.98052 4.3391 7.00946C4.52707 7.05565 4.68432 6.87535 4.87229 6.9182C4.84158 7.01725 4.81034 7.1163 4.77804 7.21536C4.87811 7.11519 4.98295 7.02059 5.09044 6.92988C5.07402 7.06566 5.06714 7.20479 5.02054 7.33389C4.98825 7.38676 4.95489 7.43851 4.92047 7.49082C4.87282 7.56094 4.82305 7.62938 4.76798 7.69393C4.71927 7.73845 4.66897 7.7813 4.61708 7.82248C4.22156 8.12076 3.74714 8.2788 3.26584 8.32721C3.0837 8.34725 2.91744 8.23595 2.73477 8.24764C2.61405 8.14914 2.48062 8.07067 2.35778 7.97663C2.07716 7.71508 1.85954 7.38008 1.75311 7.00056C1.7224 6.91542 1.69116 6.83139 1.65569 6.74847C1.69805 6.6355 1.64722 6.5281 1.59903 6.42849C1.64775 5.98442 1.71023 5.48191 2.05862 5.17696Z" fill="#0B0B0B"/>
<path d="M6.11816 6.12298C6.27542 5.90428 6.46497 5.70117 6.70906 5.5921C6.71594 5.63439 6.72971 5.71898 6.73659 5.76127C6.83455 5.7123 6.93303 5.66333 7.03204 5.61492C7.0797 5.65665 7.12788 5.69894 7.17606 5.74124C7.24807 5.74235 7.32008 5.74346 7.39209 5.74569C7.49428 5.87535 7.63512 5.95159 7.78814 5.99221C7.85539 6.19533 8.10213 6.22983 8.15402 6.43795C8.20749 6.60768 8.34357 6.7212 8.459 6.84307C8.43835 6.86867 8.39758 6.91987 8.37693 6.94546C8.44258 7.18197 8.46164 7.42961 8.53365 7.665C8.58448 7.78687 8.504 7.90707 8.50612 8.03061C8.57495 8.22371 8.77351 8.3005 8.95247 8.32888C8.94188 8.23317 8.9583 8.1291 8.91647 8.04118C8.83652 7.9527 8.73645 7.88926 8.64432 7.81747C8.73592 7.83027 8.83387 7.82471 8.92018 7.86477C8.9943 7.94213 9.01072 8.05954 9.05307 8.15693C9.13144 8.11408 9.20927 8.07012 9.28658 8.0256C9.34164 8.0384 9.39671 8.05175 9.45178 8.06567L9.43748 8.10852C9.3014 8.38064 9.06102 8.56205 8.85134 8.76683C8.55907 8.89928 8.27633 9.06733 7.95705 9.1163C7.74579 9.14469 7.52129 9.19755 7.31532 9.11464C7.2073 9.06733 7.07493 9.10406 6.98174 9.02115C6.85202 8.91041 6.67888 8.86199 6.57404 8.71898C6.4888 8.60545 6.34425 8.5537 6.28653 8.41569C6.10175 8.0729 5.89842 7.70729 5.90478 7.30273C5.88625 7.23428 5.85765 7.16973 5.83277 7.10518C5.87672 6.97997 6.01544 6.79855 5.83118 6.72732C5.90849 6.601 5.98208 6.47301 6.0525 6.34279C5.74858 6.29549 5.44572 6.23595 5.13809 6.22259C5.10685 6.18086 5.07614 6.14023 5.04543 6.09905C5.37583 6.15804 5.70834 6.20479 6.04033 6.25153C6.06574 6.20813 6.09169 6.16528 6.11816 6.12298ZM7.91363 7.01002C7.94011 7.03728 7.94011 7.03728 7.91363 7.01002ZM6.69635 7.734C6.72283 7.76183 6.72283 7.76183 6.69635 7.734ZM6.74877 7.84641C6.77472 7.87479 6.77472 7.87479 6.74877 7.84641Z" fill="#0B0B0B"/>
<path d="M16.3292 5.75348C16.5145 5.88648 16.5844 6.11964 16.6972 6.31219C16.7973 6.50807 16.9582 6.7212 16.8534 6.95381C16.7396 6.94936 16.613 6.95771 16.523 6.87145C16.6358 6.81246 16.7496 6.72065 16.7067 6.57151C16.6374 6.36728 16.5341 6.16583 16.3356 6.07513C16.3319 5.96772 16.3297 5.86032 16.3292 5.75348Z" fill="#242627"/>
<path d="M9.80494 6.23205C10.8284 6.39176 11.862 6.46355 12.8881 6.59711C12.8087 6.69894 12.7287 6.80078 12.6435 6.89816C12.598 6.92933 12.5508 6.95827 12.5032 6.98498C12.3899 7.02783 12.2617 7.05398 12.1865 7.1625C12.0918 7.29271 11.9456 7.35448 11.8006 7.399C11.5432 7.43628 11.2817 7.43294 11.0227 7.41847C10.8904 7.38509 10.7707 7.30439 10.633 7.28826C10.6098 7.27212 10.5642 7.23984 10.5409 7.22371C10.4408 7.14747 10.3402 7.07123 10.2508 6.98164C10.1629 6.82527 10.0252 6.70228 9.96537 6.52921C9.9246 6.42293 9.86954 6.32387 9.80494 6.23205Z" fill="#0B0B0B"/>
<path d="M14.8234 6.83027C15.4852 6.8965 16.1471 6.96605 16.8047 7.06733C16.6951 7.2315 16.5468 7.35782 16.4092 7.49416C16.0189 7.48692 15.6372 7.35615 15.2454 7.39956C15.1458 7.30662 15.0431 7.21592 14.961 7.10573C14.9462 7.07902 14.9166 7.02616 14.9017 6.99944C14.8747 6.94324 14.8483 6.88648 14.8234 6.83027Z" fill="#242627"/>
<path d="M18.8792 1.61603C18.9253 1.52866 18.8893 1.37451 19.0163 1.36561C19.0195 1.44853 19.0211 1.53088 19.02 1.6138C19.0153 1.72844 19.0121 1.84363 19.0216 1.95826C18.9576 2.00056 18.8935 2.04341 18.8294 2.0857C18.8077 2.0089 18.7839 1.93322 18.7701 1.85532C18.7632 1.74012 18.7574 1.62493 18.7394 1.51085C18.7675 1.48804 18.8241 1.4424 18.8522 1.41959C18.8591 1.46912 18.8723 1.56706 18.8792 1.61603Z" fill="#0F4872"/>
<path d="M18.4921 1.54424C18.517 1.54368 18.5668 1.54201 18.5917 1.54146C18.5922 1.67668 18.5949 1.81191 18.5885 1.94769C18.5816 2.00668 18.5832 2.06567 18.5938 2.1241C18.5673 2.14858 18.5139 2.19811 18.4868 2.22259C18.4948 2.03283 18.4948 1.84252 18.4932 1.65275C18.4927 1.62549 18.4921 1.57151 18.4921 1.54424Z" fill="#0F4872"/>
<path d="M17.7985 1.79466L17.8292 1.82638C17.8456 1.83918 17.879 1.86422 17.8954 1.87702C17.9092 2.0601 17.9007 2.2443 17.8997 2.42794C17.8764 2.42849 17.8287 2.42961 17.8049 2.43016C17.8107 2.21814 17.8112 2.00612 17.7985 1.79466Z" fill="#0F4872"/>
<path d="M17.5438 1.89037C17.5682 1.88481 17.618 1.87424 17.6423 1.86923C17.6307 2.09627 17.6317 2.32387 17.6349 2.55147C17.6016 2.48915 17.5677 2.42682 17.5428 2.36116C17.5391 2.21981 17.5354 2.07846 17.5401 1.93767L17.5438 1.89037Z" fill="#0F4872"/>
<path d="M17.0461 2.12187C17.0758 2.09961 17.1351 2.05454 17.1653 2.03228C17.1637 2.26433 17.1711 2.49694 17.1578 2.72899C17.1113 2.64997 17.08 2.56149 17.0726 2.46856C17.0678 2.35281 17.0636 2.23651 17.0461 2.12187Z" fill="#0F4872"/>
<path d="M19.5013 2.04897C19.5373 2.05064 19.6099 2.05398 19.6464 2.05565C19.6337 2.28937 19.5834 2.51975 19.5813 2.75459C19.5591 2.75515 19.5151 2.7557 19.4929 2.7557C19.4982 2.53756 19.4918 2.31942 19.4997 2.10128L19.5013 2.04897Z" fill="#0F4872"/>
<path d="M19.2313 2.26656C19.2149 2.18475 19.2472 2.14524 19.3277 2.14802C19.3298 2.30718 19.3372 2.46689 19.3616 2.62437C19.3854 2.71953 19.3737 2.81747 19.3012 2.88592C19.3007 2.74402 19.3028 2.59933 19.2482 2.46633C19.2408 2.39955 19.235 2.33333 19.2313 2.26656Z" fill="#0F4872"/>
<path d="M19.064 2.21981C19.092 2.21981 19.1482 2.21925 19.1762 2.21925L19.1752 2.26989C19.1672 2.4808 19.1731 2.69171 19.1969 2.9015L19.2011 2.95326C19.1423 2.85698 19.109 2.7468 19.0878 2.6355C19.0815 2.5153 19.0762 2.39566 19.0672 2.27602L19.064 2.21981Z" fill="#0F4872"/>
<path d="M18.9697 2.73233C18.9798 2.56873 18.9687 2.40234 19.011 2.24318C19.0174 2.48303 18.9983 2.72454 19.0296 2.96383C18.9311 3.01614 18.8289 3.06066 18.7235 3.09627C18.6997 3.03673 18.6775 2.97663 18.6568 2.91597C18.6505 2.7557 18.6494 2.59544 18.6515 2.43517L18.652 2.38286C18.6764 2.38175 18.7251 2.38008 18.7495 2.37896C18.7511 2.49026 18.7532 2.60156 18.7553 2.71341L18.8162 2.71118C18.8151 2.58097 18.813 2.45075 18.8109 2.32109C18.8352 2.32109 18.8845 2.32053 18.9088 2.32053C18.9258 2.45075 18.84 2.65721 18.9697 2.73233Z" fill="#0F4872"/>
<path d="M18.4037 2.50306L18.4397 2.52365C18.445 2.52643 18.4556 2.53255 18.4609 2.53534C18.4789 2.70785 18.4932 2.88203 18.48 3.05621C18.4816 3.08848 18.4847 3.15248 18.4863 3.18475C18.4593 3.20868 18.4043 3.25598 18.3772 3.27991C18.3862 3.08848 18.3815 2.89761 18.3862 2.70673C18.3894 2.63829 18.3947 2.5704 18.4037 2.50306Z" fill="#0F4872"/>
<path d="M18.2078 2.62437C18.2385 2.60156 18.2999 2.55593 18.3307 2.53311C18.3296 2.57763 18.3275 2.66667 18.3264 2.71118C18.3232 2.89093 18.3169 3.07067 18.3307 3.24986L18.3338 3.30662L18.2904 3.30773C18.2994 3.15415 18.2999 2.99889 18.2454 2.8542C18.2338 2.77685 18.2232 2.70006 18.2078 2.62437Z" fill="#0F4872"/>
<path d="M16.3165 2.67557C16.3435 2.67056 16.3975 2.6611 16.4245 2.65609C16.3425 2.96327 16.3668 3.28548 16.3657 3.60045C16.3742 4.31831 16.3514 5.03617 16.3292 5.75348C16.3297 5.86032 16.3319 5.96772 16.3356 6.07513C16.5341 6.16583 16.6374 6.36728 16.7067 6.57151C16.5797 6.62104 16.4616 6.69004 16.3525 6.77407C16.2741 6.72343 16.1201 6.72399 16.127 6.59822C16.146 6.45131 16.2291 6.32443 16.2884 6.19254C16.2302 6.1586 16.172 6.12465 16.1137 6.09071C16.1402 5.84864 16.1322 5.60211 16.0613 5.36839C16.1105 5.38453 16.1598 5.40178 16.209 5.41903C16.2101 5.38342 16.2117 5.31163 16.2127 5.27546C16.2143 4.56817 16.2148 3.86032 16.2106 3.15248C16.2069 2.98665 16.2514 2.82471 16.3165 2.67557Z" fill="#0F4872"/>
<path d="M17.9637 2.66166C17.9881 2.66055 18.0373 2.65888 18.0622 2.65776C18.0527 2.86422 18.058 3.07123 18.0537 3.27824C18.0553 3.30106 18.059 3.34669 18.0606 3.36951L18.0712 3.42794C18.0299 3.37396 17.9886 3.31831 17.9674 3.25209C17.9616 3.0729 17.959 2.89316 17.9627 2.71341L17.9637 2.66166Z" fill="#0F4872"/>
<path d="M17.7 2.8325C17.7112 2.8158 17.7339 2.78242 17.7456 2.76572C17.753 2.7941 17.7678 2.85142 17.7747 2.8798C17.8075 3.10351 17.7953 3.33111 17.7927 3.55704C17.7593 3.51196 17.7281 3.46633 17.699 3.41959C17.6947 3.22371 17.6894 3.02783 17.7 2.8325Z" fill="#0F4872"/>
<path d="M17.439 2.89371C17.4634 2.88592 17.5121 2.86978 17.537 2.86199C17.5227 3.12243 17.5152 3.38342 17.529 3.64385L17.4962 3.64775C17.5004 3.52866 17.4882 3.41068 17.4422 3.30106C17.4348 3.18086 17.43 3.06066 17.4348 2.94101L17.439 2.89371Z" fill="#0F4872"/>
<path d="M19.5024 2.98052C19.5225 2.98831 19.5622 3.0039 19.5823 3.01169C19.5622 3.43183 19.6681 3.89482 19.4484 4.2749C19.4166 4.28436 19.3526 4.30328 19.3208 4.31274C19.3457 4.23762 19.3769 4.13801 19.3229 4.06956C19.2255 4.0857 19.2906 4.24096 19.2954 4.31107C19.2705 4.32665 19.2212 4.35837 19.1964 4.37396C19.1423 4.31386 19.1127 4.32499 19.1079 4.4079C19.0857 4.43239 19.0417 4.48247 19.02 4.50751C19.0195 4.26043 19.0174 4.0128 19.0243 3.76628C19.0306 3.58264 19.0349 3.39844 19.0269 3.21536C19.092 3.19254 19.1582 3.1714 19.2244 3.15136L19.226 3.21258C19.2292 3.39733 19.2302 3.58153 19.2308 3.76628L19.2832 3.76572C19.2832 3.58041 19.2795 3.39566 19.2853 3.21091C19.2721 3.13244 19.3335 3.08792 19.3827 3.04507C19.3933 3.39566 19.3864 3.74736 19.3891 4.0985L19.4357 4.10184C19.4452 3.72732 19.5109 3.35615 19.5024 2.98052ZM19.064 3.37785C19.0809 3.58319 19.0057 3.82916 19.1169 4.00779C19.1312 3.798 19.1243 3.58765 19.1206 3.37785H19.064Z" fill="#0F4872"/>
<path d="M16.9349 3.12131C16.9678 3.10017 17.0334 3.05732 17.0663 3.03617C17.0551 3.31553 17.0498 3.59544 17.0578 3.87479L17.008 3.87646C17.0117 3.66722 17.0355 3.45186 16.9736 3.24875C16.9641 3.21703 16.9445 3.15303 16.9349 3.12131Z" fill="#0F4872"/>
<path d="M16.4261 3.09794L16.4759 3.10072C16.4748 3.13968 16.4732 3.21647 16.4727 3.25543C16.4589 3.53979 16.4759 3.82471 16.4653 4.10963C16.4028 3.77908 16.4679 3.43406 16.4261 3.09794Z" fill="#0F4872"/>
<path d="M16.8545 3.16249C16.8666 3.14023 16.891 3.0946 16.9037 3.07179C16.8936 3.31107 16.8868 3.55259 16.9291 3.78909C16.9323 3.80801 16.9381 3.84585 16.9413 3.86477C16.9191 3.88203 16.8746 3.91653 16.8518 3.93378C16.8502 3.67668 16.8407 3.41959 16.8545 3.16249Z" fill="#0F4872"/>
<path d="M16.6464 3.18698L16.6766 3.23873C16.6813 3.35782 16.6845 3.47802 16.7089 3.59544C16.7327 3.72565 16.738 3.85865 16.7411 3.9911C16.7152 3.97496 16.6628 3.94324 16.6368 3.9271C16.6384 3.68002 16.6305 3.43294 16.6464 3.18698Z" fill="#0F4872"/>
<path d="M18.7098 3.33389C18.7924 3.3094 18.8755 3.28436 18.9586 3.25932C18.956 3.42849 18.957 3.59822 18.9597 3.76795C18.9629 4.00779 18.9607 4.24819 18.9597 4.48859C18.9268 4.37284 18.9067 4.25376 18.8818 4.13634C18.8718 4.0217 18.857 3.90762 18.8209 3.79911C18.7934 4.04118 18.795 4.28603 18.8072 4.52977L18.8098 4.58598H18.7654C18.7617 4.4374 18.8019 4.27268 18.7198 4.14079C18.7039 4.11185 18.6716 4.05454 18.6558 4.0256C18.6372 4.22315 18.6399 4.42348 18.6748 4.61937L18.6812 4.65888C18.6589 4.65943 18.615 4.65999 18.5933 4.66055C18.6039 4.56761 18.6139 4.47134 18.5927 4.37952C18.5509 4.28548 18.5197 4.45186 18.5313 4.48581C18.5313 4.55537 18.5371 4.62549 18.5477 4.69505C18.5139 4.65999 18.4831 4.62326 18.4556 4.58375C18.4434 4.56539 18.4191 4.52754 18.4069 4.50918C18.3629 4.57818 18.3725 4.66333 18.3746 4.74235C18.3698 4.76349 18.3603 4.8069 18.3561 4.8286C18.3153 4.66166 18.4122 4.41792 18.2735 4.3044C18.2608 4.49137 18.2602 4.67891 18.2645 4.86644C18.1803 4.89149 18.0961 4.9143 18.0103 4.93267C18.0167 4.72899 18.0098 4.52588 18.0177 4.3222C18.0416 4.10017 17.9981 3.8709 18.0548 3.65387C18.0543 3.87646 18.0553 4.09961 18.0601 4.3222L18.1152 4.32443C18.1173 4.07624 18.1236 3.82749 18.1146 3.57986C18.2279 3.57874 18.2301 3.67446 18.2232 3.76795C18.2242 3.91542 18.2232 4.06344 18.2237 4.21146L18.2777 4.21091C18.2782 4.06121 18.2766 3.91152 18.2809 3.76238C18.2835 3.68559 18.2931 3.61046 18.3037 3.53534C18.3164 3.56427 18.3418 3.62215 18.3545 3.65164C18.3915 3.9143 18.3587 4.18086 18.3767 4.44574L18.4408 4.44463C18.4789 4.10128 18.4106 3.74903 18.4821 3.41124C18.4874 3.5754 18.445 3.75403 18.525 3.9054C18.543 3.75515 18.5499 3.60267 18.5329 3.45242C18.561 3.43183 18.6171 3.39065 18.6452 3.37006C18.6462 3.50362 18.6478 3.63773 18.6494 3.7724L18.7071 3.76962C18.7087 3.62437 18.7098 3.47913 18.7098 3.33389Z" fill="#0F4872"/>
<path d="M17.8478 3.71731C17.8753 3.71675 17.9298 3.71452 17.9568 3.71341C17.9521 3.91708 17.9531 4.12131 17.9515 4.32554C17.9473 4.55092 17.9531 4.77574 17.9521 5.00111L17.95 5.05899C17.8631 4.79855 17.9971 4.50306 17.8674 4.2493C17.8573 4.09126 17.8568 3.93322 17.8494 3.77574L17.8478 3.71731Z" fill="#0F4872"/>
<path d="M17.7535 4.60045C17.7863 4.31553 17.727 4.0217 17.7932 3.74179C17.7959 4.09126 17.7583 4.44574 17.8282 4.79132C17.8462 4.89204 17.8504 4.99499 17.8536 5.09794C17.8266 5.0985 17.7726 5.09905 17.7456 5.09905C17.7472 4.93267 17.7482 4.76683 17.7535 4.60045Z" fill="#0F4872"/>
<path d="M17.5936 3.89037C17.6053 3.87368 17.628 3.84029 17.6397 3.8236C17.6471 3.85198 17.6614 3.90874 17.6688 3.93712C17.6958 4.15748 17.6804 4.38119 17.6863 4.60323C17.6868 4.76739 17.6884 4.93155 17.6921 5.09571L17.6932 5.14691L17.6519 5.14524C17.6503 4.91987 17.7006 4.68169 17.6005 4.4719C17.5878 4.27824 17.5814 4.08403 17.5936 3.89037Z" fill="#0F4872"/>
<path d="M17.1076 4.02949L17.1647 4.04841C17.1589 4.27824 17.1579 4.50918 17.1928 4.73623C17.2219 4.95326 17.2198 5.17307 17.2087 5.39176C17.1769 5.32888 17.1409 5.26711 17.1213 5.19922C17.1038 4.80968 17.1224 4.41903 17.1076 4.02949Z" fill="#0F4872"/>
<path d="M17.0117 4.82304C17.0371 4.58264 16.9932 4.33556 17.0456 4.09961C17.0424 4.53812 17.0578 4.97663 17.061 5.41569C17.0477 5.44185 17.0207 5.49304 17.0069 5.5192C17.0069 5.28715 17.0048 5.05509 17.0117 4.82304Z" fill="#0F4872"/>
<path d="M16.8984 4.15637L16.9551 4.15359C16.9556 4.37785 16.9545 4.60267 16.9466 4.82693C16.9408 5.04396 16.9323 5.2621 16.9545 5.47913L16.9588 5.53422L16.9111 5.53367C16.9355 5.07401 16.8947 4.61547 16.8984 4.15637Z" fill="#0F4872"/>
<path d="M16.6908 4.43461C16.6993 4.35615 16.658 4.24597 16.7348 4.19421C16.7385 4.42348 16.7321 4.65275 16.7343 4.88203C16.7337 5.11797 16.7221 5.35504 16.7438 5.59098L16.7475 5.64496L16.6998 5.64608C16.7104 5.24263 16.7104 4.83806 16.6908 4.43461Z" fill="#0F4872"/>
<path d="M16.443 4.93656C16.4637 4.73567 16.3927 4.51697 16.4727 4.32832C16.4679 4.63161 16.4489 4.93767 16.5029 5.23762C16.5315 5.40067 16.5378 5.56761 16.5241 5.73289C16.3589 5.50306 16.4563 5.19978 16.443 4.93656Z" fill="#0F4872"/>
<path d="M16.5204 4.29772L16.5569 4.335C16.5754 4.34502 16.6125 4.36505 16.631 4.37507C16.6315 4.82137 16.631 5.26711 16.6368 5.71397L16.5828 5.71564C16.5648 5.37563 16.6353 5.02671 16.5458 4.69393C16.5357 4.56205 16.5288 4.42961 16.5204 4.29772Z" fill="#0F4872"/>
<path d="M14.8917 4.97941C14.9065 4.77407 14.9409 4.57151 14.9812 4.37062C14.9864 4.40902 14.997 4.48637 15.0023 4.52476C15.0664 4.51196 15.131 4.49861 15.1956 4.48637C15.2019 4.79076 15.2242 5.09683 15.185 5.40067C15.0595 5.42961 14.9351 5.46188 14.8107 5.49305C14.6147 5.52532 14.4162 5.55593 14.2298 5.62938C14.0832 5.68781 13.9608 5.7941 13.82 5.86422C13.7337 5.8453 13.6606 5.78965 13.5838 5.74847C13.74 5.6138 13.9365 5.5537 14.1223 5.47969C14.4379 5.36004 14.7471 5.22482 15.0558 5.08681C15.0007 5.05064 14.9462 5.01503 14.8917 4.97941Z" fill="#0F4872"/>
<path d="M16.8216 4.601L16.8275 4.58375C16.8237 4.92988 16.8645 5.28603 16.801 5.62604C16.8073 5.37785 16.8095 5.12966 16.7989 4.88147C16.7994 4.78798 16.7872 4.68948 16.8216 4.601Z" fill="#0F4872"/>
<path d="M10.5144 4.81247C10.57 4.86144 10.6299 4.9054 10.6918 4.94602C10.7072 4.95492 10.7379 4.97329 10.7538 4.98219C10.7474 5.1419 10.7559 5.30273 10.7882 5.4591C10.8157 5.60545 10.8475 5.75125 10.8803 5.89649C10.8348 5.94268 10.7908 5.99165 10.7395 6.03228C10.6627 6.0256 10.5886 6.00223 10.5144 5.98386C10.5049 5.85754 10.4933 5.73178 10.4896 5.60601C10.515 5.34224 10.5563 5.0768 10.5144 4.81247Z" fill="#0F4872"/>
<path d="M5.4203 4.86867C5.45313 5.03005 5.47166 5.23762 5.65804 5.27769C5.66175 5.14302 5.66386 5.00891 5.66545 4.87424C5.72264 4.89761 5.78035 4.92098 5.83806 4.94435C5.84071 5.01503 5.84389 5.0857 5.84654 5.15693C5.801 5.20089 5.75599 5.24597 5.71152 5.29104C5.66651 5.29939 5.57703 5.31608 5.53202 5.32443L5.50661 5.3005C5.50237 5.29549 5.4939 5.28548 5.48914 5.28047C5.39807 5.16695 5.43513 5.00501 5.4203 4.86867Z" fill="#0F4872"/>
<path d="M18.5822 4.96327C18.6113 4.94157 18.6695 4.89761 18.6986 4.87591C18.6981 4.90206 18.6965 4.95437 18.6955 4.98052C18.6875 5.18586 18.6849 5.39177 18.6886 5.59766C18.6642 5.4808 18.6425 5.36338 18.6139 5.24819C18.6049 5.15248 18.5975 5.05732 18.5822 4.96327Z" fill="#0F4872"/>
<path d="M18.3084 5.22482C18.3179 5.12632 18.3492 5.03283 18.4302 4.97551C18.436 5.13467 18.4371 5.29494 18.4323 5.45465C18.4275 5.53367 18.4281 5.6138 18.4387 5.69282L18.4424 5.73066C18.4159 5.73178 18.3635 5.73511 18.337 5.73623C18.301 5.78464 18.265 5.8325 18.2295 5.88147C18.2327 5.71174 18.2311 5.54202 18.2242 5.37284C18.1993 5.38787 18.1496 5.41792 18.1247 5.43294C18.1437 5.59989 18.2258 5.81803 18.0797 5.94602C18.0749 5.6867 18.085 5.42682 18.0723 5.16806C18.1342 5.14469 18.1962 5.12243 18.2586 5.10017C18.2713 5.13133 18.2962 5.19366 18.3084 5.22482Z" fill="#0F4872"/>
<path d="M17.8896 5.38731C17.9012 5.35559 17.9245 5.29327 17.9362 5.2621C17.9478 5.29104 17.9711 5.34947 17.9828 5.37841C18.0087 5.57596 18.014 5.77741 17.9976 5.97663C17.9447 6.03784 17.8689 6.069 17.8028 6.1113C17.798 5.85142 17.8028 5.59154 17.8165 5.33166C17.8298 5.34558 17.8568 5.3734 17.87 5.38676C17.8737 5.39065 17.8806 5.39789 17.8843 5.40178L17.8896 5.38731Z" fill="#0F4872"/>
<path d="M17.6005 5.73623C17.6767 5.63829 17.6339 5.49638 17.6895 5.38787C17.6889 5.41068 17.6868 5.45632 17.6863 5.47858C17.7196 5.70173 17.7519 5.92599 17.7445 6.15248C17.6773 6.17418 17.6111 6.19755 17.5449 6.22148C17.5465 5.95938 17.5481 5.69783 17.538 5.43628L17.5851 5.44018C17.5878 5.53868 17.592 5.63717 17.6005 5.73623Z" fill="#0F4872"/>
<path d="M17.3601 5.56761L17.4104 5.55259C17.4141 5.5754 17.4215 5.62104 17.4252 5.64385C17.4602 5.84418 17.4904 6.05008 17.4687 6.25431C17.3866 6.34279 17.2712 6.38286 17.1684 6.43795C17.1849 6.17696 17.143 5.91096 17.1976 5.65331C17.1706 5.78353 17.3257 5.75682 17.2892 5.64107L17.3262 5.60768C17.2505 5.71675 17.4469 5.72454 17.3733 5.61102L17.3601 5.56761Z" fill="#0F4872"/>
<path d="M17.8462 6.56205C18.2385 6.54201 18.6261 6.62827 19.0169 6.65776C19.505 6.734 20.0065 6.71786 20.4851 6.85476C21.3635 7.11185 22.2626 7.27824 23.1511 7.49137C23.3523 7.53422 23.555 7.57151 23.7472 7.65053C23.4942 7.70117 23.2427 7.63216 22.9901 7.61825C22.2859 7.56483 21.5833 7.46188 20.8775 7.43628C20.8499 7.4207 20.7943 7.38954 20.7668 7.37396C20.7451 7.37229 20.7011 7.3695 20.6794 7.36839C20.3813 7.28047 20.07 7.28214 19.7682 7.22148C19.7873 7.09405 19.7994 6.9655 19.8121 6.83695C19.3033 6.79021 18.7992 6.69227 18.2888 6.66333C18.1363 6.65609 17.9886 6.61436 17.8462 6.56205Z" fill="#0F4872"/>
<path d="M22.889 6.9143L22.9197 6.89149C23.0065 6.91152 23.0939 6.931 23.1818 6.94992C23.1659 7.07624 23.15 7.20312 23.1352 7.32999C23.0505 7.31219 22.9657 7.29438 22.8815 7.27768C22.8831 7.15581 22.8837 7.03506 22.889 6.9143Z" fill="#0F4872"/>
<path d="M16.8047 7.06733C17.2998 7.1074 17.7901 7.20924 18.2867 7.21313L18.3275 7.22371C18.7791 7.31942 19.2424 7.34446 19.6999 7.39955C20.0218 7.44185 20.3437 7.48581 20.6625 7.55203C21.5091 7.63161 22.3558 7.71397 23.2035 7.78241C23.4486 7.79187 23.698 7.87813 23.941 7.80356C23.9109 7.74736 23.8807 7.69115 23.8516 7.63495C23.9024 7.6739 23.9956 7.68169 24.0093 7.75849C24.048 7.97718 24.0236 8.202 24.0517 8.42237C24.1597 8.19421 24.1375 7.93155 24.1714 7.68614C24.246 7.64719 24.3212 7.60823 24.3964 7.56984C24.5653 7.72565 24.389 7.97997 24.4811 8.15748C24.6357 8.25264 24.8369 8.20033 25 8.28325C24.9995 8.30662 24.9984 8.35281 24.9979 8.37563C24.838 8.48804 24.6532 8.39176 24.4806 8.39955C24.3133 8.45687 24.1412 8.49026 23.9686 8.52365C23.9543 8.44352 23.9405 8.36338 23.9273 8.28381C23.7059 8.27713 23.4846 8.26656 23.2654 8.23317C23.2538 8.26266 23.2305 8.32165 23.2188 8.35114C23.1939 8.34947 23.1431 8.34613 23.1177 8.34446C23.0415 8.22092 22.9154 8.16138 22.7767 8.1675C22.6528 8.16249 22.5289 8.16416 22.4055 8.15581C21.0093 8.02393 19.6115 7.90985 18.221 7.72287C17.6519 7.64162 17.0784 7.60045 16.5108 7.50696C16.4854 7.50362 16.4346 7.4975 16.4092 7.49416C16.5468 7.35782 16.6951 7.2315 16.8047 7.06733Z" fill="#0F4872"/>
<path d="M18.4302 1.64886L18.4932 1.65275C18.4948 1.84252 18.4948 2.03283 18.4868 2.22259C18.3487 2.08625 18.4392 1.83139 18.4302 1.64886Z" fill="#0A0B08"/>
<path d="M17.7419 2.48525C17.7498 2.26043 17.6593 1.98442 17.7985 1.79466C17.8112 2.00612 17.8107 2.21814 17.8049 2.43016L17.8033 2.4847L17.7419 2.48525Z" fill="#0A0B08"/>
<path d="M2.27889 4.67947C2.46368 4.62382 2.64635 4.56205 2.82584 4.49138L2.82955 4.53868C2.82637 4.60991 2.82214 4.68114 2.81684 4.75237C2.65694 4.82193 2.49598 4.88982 2.34084 4.97051C2.31754 4.87368 2.29689 4.77685 2.27889 4.67947Z" fill="#0A0B08"/>
<path d="M3.97747 4.7084C4.46512 4.67724 4.93371 4.86255 5.4203 4.86867C5.43513 5.00501 5.39807 5.16695 5.48914 5.28047C5.4939 5.28548 5.50237 5.29549 5.50661 5.3005L5.53202 5.32443C5.63792 5.38398 5.74699 5.4374 5.85607 5.49138C5.80841 5.42404 5.7597 5.35726 5.71152 5.29104C5.75599 5.24597 5.801 5.20089 5.84654 5.15693C6.02974 5.13022 6.21135 5.09238 6.39031 5.04396C6.53327 5.069 6.6757 5.10017 6.81866 5.12577C6.81284 5.21814 6.80702 5.31052 6.80225 5.40345C6.84831 5.32332 6.89226 5.24263 6.93568 5.16194C7.11464 5.16249 7.2952 5.17251 7.46993 5.2148C7.53029 5.22315 7.57159 5.25765 7.59435 5.31887C7.43657 5.34224 7.27561 5.32554 7.11888 5.35504C6.97698 5.42348 6.85096 5.52365 6.70906 5.5921C6.46497 5.70117 6.27542 5.90428 6.11816 6.12298C5.93337 5.9744 5.73323 5.84975 5.52196 5.74847C5.30858 5.63495 5.09891 5.51029 4.86911 5.43461C4.71609 5.34891 4.6462 5.17307 4.51913 5.05954C4.33222 4.9488 4.20302 4.7429 3.97747 4.7084Z" fill="#0A0B08"/>
<path d="M18.6955 4.98052L18.7474 5.00445C18.7971 5.2059 18.7548 5.41736 18.7421 5.62159L18.6886 5.59766C18.6849 5.39177 18.6875 5.18586 18.6955 4.98052Z" fill="#0A0B08"/>
<path d="M8.58501 5.3645C8.95724 5.39455 9.32364 5.47134 9.6964 5.49694C9.68263 5.59544 9.66992 5.69393 9.6588 5.79299C9.70381 5.71174 9.7467 5.62938 9.78853 5.54647C10.0236 5.53534 10.2555 5.58653 10.4896 5.60601C10.4933 5.73178 10.5049 5.85754 10.5144 5.98386C10.5886 6.00223 10.6627 6.0256 10.7395 6.03228C10.7908 5.99165 10.8348 5.94268 10.8803 5.89649C11.0492 5.84029 11.2187 5.78742 11.3854 5.72565C11.6528 5.77462 11.9308 5.77741 12.1913 5.86255C12.2183 5.92543 12.2427 5.98943 12.2649 6.05509C12.2829 5.99332 12.3009 5.93155 12.3194 5.87034C12.4534 5.88091 12.5858 5.90484 12.7166 5.93823C12.725 6.05788 12.7346 6.17808 12.7441 6.29828C12.8182 6.31108 12.8929 6.32387 12.967 6.34001L12.9977 6.34836C13.1507 6.18698 13.3562 6.10239 13.5606 6.03951C14.3828 6.15081 15.2078 6.24652 16.0285 6.37118C16.0168 6.47913 15.9988 6.58765 16.0105 6.69672C16.0888 6.80412 16.2403 6.85476 16.3525 6.77407C16.4616 6.69004 16.5797 6.62104 16.7067 6.57151C16.7496 6.72065 16.6358 6.81246 16.523 6.87145C16.613 6.95771 16.7396 6.94936 16.8534 6.95381C17.1637 6.84085 17.4162 6.59822 17.7408 6.52365C17.9823 6.29215 18.2989 6.16917 18.5827 6.00501C19.2334 6.12688 19.8969 6.15749 20.5476 6.28047C20.5539 6.44352 20.5608 6.60601 20.5561 6.76962C20.5386 6.79076 20.5031 6.83361 20.4851 6.85476C20.0065 6.71786 19.505 6.734 19.0169 6.65776C18.6261 6.62827 18.2385 6.54201 17.8462 6.56205C17.9886 6.61436 18.1363 6.65609 18.2888 6.66333C18.7992 6.69227 19.3033 6.79021 19.8121 6.83695C19.7994 6.9655 19.7873 7.09405 19.7682 7.22148C19.764 7.24374 19.755 7.28715 19.7507 7.30885C19.738 7.33166 19.7126 7.37674 19.6999 7.39955C19.2424 7.34446 18.7791 7.31942 18.3275 7.22371C18.5345 7.16082 18.7505 7.14914 18.965 7.15915C18.9623 7.07234 18.9607 6.98609 18.9586 6.90039C18.6076 6.8631 18.2592 6.80801 17.9081 6.76962C17.9087 6.8926 17.9092 7.01558 17.9102 7.13912C18.0384 7.14747 18.1649 7.1714 18.2867 7.21313C17.7901 7.20924 17.2998 7.1074 16.8047 7.06733C16.1471 6.96605 15.4852 6.8965 14.8234 6.83027C14.7201 6.82137 14.6169 6.81247 14.5136 6.80078C14.1663 6.75348 13.8195 6.70451 13.47 6.67668C13.2752 6.65609 13.0819 6.6266 12.8881 6.59711C11.862 6.46355 10.8284 6.39176 9.80494 6.23205C9.63974 6.21925 9.47401 6.20534 9.3104 6.17696C9.19868 6.01892 9.08273 5.86255 8.95671 5.71786C8.81904 5.61658 8.67503 5.51864 8.58501 5.3645ZM12.2014 6.10907C12.3555 6.01725 12.2151 6.29438 12.2014 6.10907ZM13.4896 6.51196C13.4753 6.61603 13.264 6.55982 13.3149 6.45965C13.3678 6.41013 13.4674 6.44296 13.4896 6.51196Z" fill="#0A0B08"/>
<path d="M5.13809 6.22259C5.44572 6.23595 5.74858 6.29549 6.0525 6.34279C5.98208 6.47301 5.90849 6.601 5.83118 6.72732C5.5998 6.69338 5.36735 6.66166 5.13332 6.66778C5.1042 6.51975 5.11109 6.3695 5.13809 6.22259Z" fill="#0A0B08"/>
<path d="M5.04119 5.93489C5.19845 5.86422 5.35888 5.80245 5.52196 5.74847C5.73323 5.84975 5.93337 5.9744 6.11816 6.12298C6.09169 6.16528 6.06574 6.20813 6.04033 6.25153C5.70834 6.20479 5.37583 6.15804 5.04543 6.09905C5.04437 6.05787 5.04225 5.97607 5.04119 5.93489Z" fill="black"/>
<path d="M0 5.93378C0.362165 5.95771 0.430469 6.46967 0.780985 6.52421C1.05632 6.54981 1.32635 6.4552 1.59903 6.42849C1.64722 6.5281 1.69805 6.6355 1.65569 6.74847C1.58262 6.67947 1.50743 6.6138 1.43278 6.54758C1.10079 6.58876 0.732273 6.67501 0.421997 6.50306C0.247268 6.34892 0.0577135 6.17585 0 5.93378Z" fill="black"/>
<path d="M9.3104 6.17696C9.47401 6.20534 9.63974 6.21925 9.80494 6.23205C9.86954 6.32387 9.9246 6.42293 9.96537 6.52921C10.0252 6.70228 10.1629 6.82527 10.2508 6.98164C10.2285 7.03729 10.2068 7.09293 10.1846 7.14914C10.3042 7.16806 10.4244 7.18753 10.5409 7.22371C10.5642 7.23984 10.6098 7.27212 10.633 7.28826C10.7707 7.30439 10.8904 7.38509 11.0227 7.41847C11.2817 7.43294 11.5432 7.43628 11.8006 7.399C12.1013 7.43462 12.4312 7.61269 12.7208 7.44741C12.6504 7.29215 12.5773 7.13801 12.5032 6.98498C12.5508 6.95827 12.598 6.92933 12.6435 6.89816C12.697 6.92265 12.7452 6.97051 12.8071 6.97051C13.0528 6.95604 13.2805 6.83639 13.47 6.67668C13.8195 6.70451 14.1663 6.75348 14.5136 6.80078C14.1477 7.06177 13.7284 7.22092 13.3366 7.43183C13.2773 7.46856 13.1899 7.49917 13.2074 7.58987C13.4753 7.72065 13.7803 7.61658 14.0201 7.46689C14.3018 7.28603 14.6158 7.17195 14.9017 6.99944C14.9166 7.02616 14.9462 7.07902 14.961 7.10573C14.7206 7.2877 14.4363 7.38342 14.1816 7.53756C14.1313 7.5754 14.0471 7.60378 14.063 7.68559C14.3167 7.76795 14.5756 7.8414 14.8403 7.86923C15.0383 7.8887 15.1982 7.74402 15.3576 7.64385C15.3221 7.56149 15.2861 7.47858 15.2454 7.39956C15.6372 7.35615 16.0189 7.48692 16.4092 7.49416C16.4346 7.4975 16.4854 7.50362 16.5108 7.50696C16.5553 7.59878 16.5992 7.6906 16.6432 7.78297C16.5278 7.88703 16.415 7.99555 16.3038 8.10518C16.9471 8.28325 17.6312 8.26433 18.2576 8.51364C18.7961 8.65888 19.3388 8.7852 19.8757 8.93656C19.989 8.97552 20.1092 8.97663 20.2193 8.9271C20.4962 8.80634 20.7578 9.0256 21.0003 9.13968C21.3164 9.33333 21.6987 9.335 22.0169 9.52309C22.2139 9.63606 22.4357 9.68447 22.638 9.78353C22.5813 9.8798 22.486 9.93656 22.4002 10H22.2705C21.974 9.89649 21.6775 9.77796 21.363 9.7507C20.4269 9.65999 19.4902 9.56928 18.5541 9.47579C17.3548 9.38397 16.1751 9.12855 14.9864 8.94936C14.7604 8.91319 14.5533 9.10184 14.3272 9.02671C13.9211 8.92432 13.5018 8.9143 13.0872 8.8798C12.8627 8.87312 12.7039 8.67279 12.4889 8.63272C12.2766 8.59043 12.0563 8.59265 11.8509 8.51753C11.6745 8.45353 11.5093 8.36004 11.3388 8.28158C11.2202 8.32387 11.1027 8.38397 10.9751 8.38509C10.6818 8.34391 10.4821 8.0345 10.1766 8.04229C9.92937 8.05231 9.68528 8.10907 9.43748 8.10852L9.45178 8.06567C9.49572 7.82026 9.68369 7.56873 9.55979 7.32165C9.58256 7.24875 9.60638 7.17696 9.63021 7.10518C9.55344 6.93823 9.52855 6.75515 9.50684 6.57373C9.44383 6.44018 9.36229 6.31608 9.3104 6.17696ZM15.3666 8.64663C15.8802 8.76572 16.4039 8.82638 16.9222 8.9182C17.1843 8.95659 17.4162 9.11352 17.682 9.13356C18.5509 9.21703 19.4203 9.29494 20.2881 9.38342C20.3951 9.39121 20.5026 9.38342 20.6095 9.37451C20.4841 9.31163 20.3501 9.27101 20.2156 9.23984C19.6332 9.09516 19.056 8.92488 18.4699 8.79688C17.628 8.65943 16.7835 8.53701 15.9427 8.39455C15.7251 8.34947 15.4969 8.46466 15.3666 8.64663Z" fill="black"/>
<path d="M5.13332 6.66778C5.36735 6.66166 5.5998 6.69338 5.83118 6.72732C6.01544 6.79855 5.87672 6.97997 5.83277 7.10518C5.85765 7.16973 5.88625 7.23428 5.90478 7.30273C5.89842 7.70729 6.10175 8.0729 6.28653 8.41569C6.34425 8.5537 6.4888 8.60545 6.57404 8.71898C6.67888 8.86199 6.85202 8.91041 6.98174 9.02115C7.07493 9.10406 7.2073 9.06733 7.31532 9.11464C7.52129 9.19755 7.74579 9.14469 7.95705 9.1163C8.27633 9.06733 8.55907 8.89928 8.85134 8.76683C8.78886 8.86811 8.71791 8.97162 8.60249 9.00946C8.27103 9.14302 7.92263 9.31553 7.55888 9.24541C6.98386 9.17418 6.41626 9.02838 5.88784 8.7763C5.57438 8.62438 5.22916 8.48192 5.00731 8.19199C4.91465 8.02504 5.12221 7.9182 5.20692 7.80913C5.0629 7.76183 4.91624 7.72287 4.76798 7.69393C4.82305 7.62938 4.87282 7.56094 4.92047 7.49082C5.20745 7.56706 5.57597 7.71286 5.81159 7.44129C5.57121 7.28436 5.28634 7.35392 5.02054 7.33389C5.06714 7.20479 5.07402 7.06566 5.09044 6.92988C5.11797 6.8453 5.14497 6.75793 5.13332 6.66778Z" fill="black"/>
<path d="M1.09126 7.30328C1.27605 7.13411 1.53179 7.09683 1.75311 7.00056C1.85954 7.38008 2.07716 7.71508 2.35778 7.97663C2.48062 8.07067 2.61405 8.14914 2.73477 8.24764C2.91744 8.23595 3.0837 8.34725 3.26584 8.32721C3.74714 8.2788 4.22156 8.12076 4.61708 7.82248C4.59802 7.93378 4.57578 8.06511 4.45665 8.10295C4.02724 8.29716 3.55494 8.46411 3.08158 8.37729C2.44621 8.30495 1.8193 8.08681 1.2877 7.71007C1.16645 7.62493 1.00919 7.46967 1.09126 7.30328Z" fill="black"/>
</svg>
