<svg width="25" height="15" viewBox="0 0 25 15" fill="none" xmlns="http://www.w3.org/2000/svg">
<path d="M17.9539 0.0570892C18.1315 0.0677338 18.305 0.0373213 18.4779 0.00133257C18.6166 -0.017929 18.6518 0.178235 18.7906 0.163028C18.9764 0.172659 19.1628 0.148835 19.3486 0.164042C19.3895 0.212195 19.431 0.259336 19.4734 0.306983C19.4491 0.391632 19.4801 0.513285 19.3978 0.568535C19.2586 0.584248 19.1322 0.505681 19.0018 0.472227C18.8646 0.453979 18.7264 0.452459 18.5897 0.436238C18.439 0.396701 18.2169 0.417483 18.175 0.594386C18.0787 0.776357 18.1434 0.969479 18.2278 1.14081C18.291 1.37955 18.4696 1.55949 18.6725 1.69432C18.8516 1.80634 18.6663 2.10084 18.4779 1.99997C18.5969 1.95537 18.6663 1.86413 18.6451 1.73639C18.5343 1.66644 18.4121 1.6188 18.2863 1.58179C18.3065 1.62995 18.3272 1.6781 18.3479 1.72626C18.3283 1.73437 18.2889 1.75008 18.2692 1.75768C18.2232 1.73031 18.1771 1.70243 18.132 1.67405C18.1186 1.65935 18.0927 1.62944 18.0792 1.61474C18.029 1.53465 17.9788 1.45457 17.9322 1.37296C17.8955 1.29388 17.8675 1.21177 17.8385 1.13067C17.8069 0.907639 17.8095 0.682076 17.8147 0.458034C17.7992 0.388591 17.8147 0.338917 17.8613 0.309518C17.8758 0.404305 17.8561 0.517846 17.9286 0.594386C18.0637 0.620744 18.1062 0.43269 18.1574 0.340437C18.2273 0.204593 18.072 0.135657 17.9767 0.0798996L17.9539 0.0570892ZM19.2586 0.315093C19.1555 0.335875 19.2001 0.499599 19.301 0.465638C19.3983 0.444349 19.3492 0.29279 19.2586 0.315093Z" fill="#90403C"/>
<path d="M18.4396 0.976068C18.4975 0.816907 18.5151 0.647101 18.5731 0.487433C18.5767 0.630374 18.5824 0.773315 18.5819 0.916763C18.5338 0.935518 18.4861 0.955286 18.4396 0.976068Z" fill="#90403C"/>
<path d="M21.405 4.38739C21.524 4.30883 21.5587 4.47458 21.6012 4.54909C21.7891 5.0063 22.0402 5.43461 22.2524 5.88067C22.1794 5.92578 22.1064 5.98053 22.0164 5.98154C21.8186 5.55474 21.6193 5.12896 21.405 4.71028C21.434 4.64945 21.4619 4.58862 21.4899 4.5278C21.4552 4.48978 21.3444 4.45075 21.405 4.38739Z" fill="#90403C"/>
<path d="M4.13852 8.11856C4.24154 8.11298 4.34457 8.11298 4.44811 8.11805C4.44655 8.15505 4.44448 8.22855 4.44345 8.26556C4.33991 8.2321 4.13127 8.2691 4.13852 8.11856Z" fill="#90403C"/>
<path d="M13.0435 9.28033C13.0824 9.28033 13.1595 9.28084 13.1983 9.28084C13.2025 9.3807 13.2009 9.48055 13.1937 9.58041C13.1579 9.5799 13.086 9.57889 13.0503 9.57787C13.042 9.47903 13.0399 9.37968 13.0435 9.28033Z" fill="#90403C"/>
<path d="M2.84374 11.6084C2.87739 11.6145 2.94418 11.6272 2.97783 11.6333C2.98404 11.6662 2.9975 11.7321 3.00371 11.7646C2.96437 11.7641 2.88568 11.763 2.84581 11.7625C2.8453 11.724 2.84426 11.647 2.84374 11.6084Z" fill="#90403C"/>
<path d="M5.1791 12.1599C5.16047 12.0611 5.23864 12.0064 5.33338 12.0175C5.32768 12.0875 5.33027 12.1655 5.26867 12.2147C5.2464 12.201 5.20136 12.1736 5.1791 12.1599Z" fill="#90403C"/>
<path d="M10.1956 12.8757C10.3085 12.8594 10.3913 12.9568 10.3282 13.0581C10.2961 13.0642 10.2309 13.0769 10.1982 13.0835C10.1962 13.0135 10.1951 12.9446 10.1956 12.8757Z" fill="#90403C"/>
<path d="M12.9679 13.4099C13.0699 13.3425 13.1678 13.4342 13.1481 13.5422C13.0668 13.5427 12.8862 13.5311 12.9679 13.4099Z" fill="#90403C"/>
<path d="M17.8613 0.309518C17.8416 0.210168 17.8841 0.126026 17.9767 0.0798996C18.072 0.135657 18.2273 0.204593 18.1574 0.340437C18.1062 0.43269 18.0637 0.620744 17.9286 0.594386C17.8561 0.517846 17.8758 0.404305 17.8613 0.309518ZM17.9809 0.220814C17.9353 0.266433 17.927 0.383523 18.0052 0.400757C18.1067 0.387579 18.0932 0.161509 17.9809 0.220814Z" fill="#747171"/>
<path d="M15.4224 4.79949C15.5772 4.66162 15.6797 4.47559 15.849 4.35242C15.7273 4.62664 15.499 4.83345 15.3152 5.06662C15.1392 5.26785 15.0015 5.50253 14.7934 5.67538C14.8363 5.51166 14.9632 5.39153 15.0569 5.25568C15.1884 5.11173 15.3261 4.9698 15.4224 4.79949Z" fill="#747171"/>
<path d="M13.8874 5.07371C13.9112 5.08436 13.9588 5.10514 13.9821 5.11527C13.8279 5.28964 13.7424 5.50608 13.642 5.71137C13.5198 5.96836 13.3681 6.21521 13.3039 6.49501C13.2889 6.5016 13.2589 6.51529 13.2439 6.52238C13.2449 6.49248 13.247 6.43317 13.2475 6.40377C13.4318 5.94808 13.6876 5.52332 13.8874 5.07371Z" fill="#747171"/>
<path d="M10.2132 5.69768C10.2811 5.68096 10.3147 5.71188 10.3126 5.78994C10.2971 5.80362 10.2661 5.82998 10.251 5.84367C10.192 5.80312 10.1791 5.75446 10.2132 5.69768Z" fill="#747171"/>
<path d="M9.96941 5.91818C10.0455 5.9126 10.1221 5.91057 10.1988 5.90804C10.2702 5.96278 10.3385 6.02209 10.3944 6.09305C10.4628 6.21724 10.5461 6.33382 10.6523 6.43064C10.7817 6.54114 10.8371 6.70435 10.9101 6.85135C11.0338 7.13774 11.1197 7.44744 11.1141 7.7607C11.1115 7.96446 11.1311 8.17026 11.099 8.37301C11.0851 8.38062 11.0576 8.39532 11.0442 8.40292C10.8371 8.34767 10.6471 8.47794 10.4576 8.53927C10.4918 8.65991 10.6134 8.58235 10.6983 8.56563L10.7159 8.60567C10.5446 8.68779 10.3556 8.7258 10.1651 8.71161C10.1568 8.55042 10.1563 8.38923 10.1377 8.22956C10.1599 8.23058 10.2044 8.23261 10.2267 8.23362C10.3235 8.1216 10.468 8.08662 10.6098 8.06584C10.5653 8.1809 10.5239 8.29698 10.4954 8.41711C10.6383 8.39025 10.7781 8.3502 10.9158 8.30256C10.8899 8.25896 10.864 8.21537 10.8381 8.17178C10.8977 8.14542 10.9577 8.11906 11.0183 8.09372C11.0338 7.98677 11.0364 7.87779 11.0157 7.77185C10.9463 7.38712 10.8443 7.0024 10.6471 6.65975C10.4923 6.35866 10.2319 6.12904 9.96941 5.91818Z" fill="#747171"/>
<path d="M14.6085 5.88827C14.7333 5.8827 14.7597 6.03983 14.8229 6.11992C14.9482 6.25272 14.6619 6.38705 14.6008 6.24056C14.5573 6.1331 14.5092 5.9785 14.6085 5.88827ZM14.6551 6.14678C14.6277 6.2294 14.6562 6.25728 14.7406 6.23093C14.768 6.1483 14.739 6.12042 14.6551 6.14678Z" fill="#747171"/>
<path d="M13.2517 7.46721C13.6275 7.05056 13.9474 6.58676 14.3347 6.17973C14.3052 6.26489 14.2658 6.34751 14.2073 6.41797C13.7756 6.94918 13.3438 7.4809 12.9048 8.00704C12.8805 7.96041 12.8566 7.91479 12.8328 7.86866C12.8851 7.83318 12.9374 7.79719 12.9892 7.7607C13.1077 7.69278 13.1678 7.56859 13.2517 7.46721Z" fill="#747171"/>
<path d="M4.12351 6.75656C4.10798 6.63947 4.27416 6.51225 4.33111 6.66026C4.401 6.92434 4.55424 7.15497 4.66709 7.40183C4.77581 7.35063 4.73388 7.21022 4.75718 7.11544L4.80014 7.10226C4.80636 7.18843 4.81361 7.2746 4.80998 7.36178C4.80791 7.39676 4.80429 7.46772 4.80222 7.50269C4.72456 7.51283 4.64587 7.52196 4.57028 7.49712C4.52732 7.35266 4.50402 7.2011 4.43516 7.06576C4.35337 6.94411 4.23895 6.84628 4.12351 6.75656Z" fill="#747171"/>
<path d="M8.99717 6.6486C9.09812 6.71297 9.21719 6.78444 9.26171 6.89849C9.27362 7.11848 9.26275 7.34049 9.20425 7.55389C9.12297 7.55338 9.04221 7.55186 8.96144 7.54882C8.94229 7.35722 9.00907 7.17626 9.05929 6.9948C9.03133 6.88075 9.00286 6.76619 8.99717 6.6486Z" fill="#747171"/>
<path d="M8.44944 6.92789C8.59387 7.11239 8.63218 7.35773 8.81079 7.51942C8.70673 7.59647 8.50535 7.64918 8.56592 7.81392C8.64823 7.84028 8.72951 7.86866 8.81027 7.90009C8.65393 7.95433 8.48309 7.96244 8.32363 7.91479C8.26306 7.91074 8.23562 7.88032 8.2408 7.82254C8.30137 7.80986 8.36194 7.79669 8.42303 7.78401C8.38213 7.59647 8.26306 7.43477 8.22579 7.24672C8.21233 7.10023 8.35884 7.01862 8.44944 6.92789Z" fill="#747171"/>
<path d="M15.1822 7.24114C15.2712 7.32123 15.1444 7.4221 15.1133 7.50168C14.9891 7.66997 14.9363 7.90567 14.7494 8.01769C14.7504 7.99184 14.753 7.94013 14.754 7.91378C14.9332 7.71305 15.0294 7.45961 15.1822 7.24114Z" fill="#747171"/>
<path d="M1.87926 7.92696C2.26392 7.88793 2.64702 7.94976 3.02908 7.98727C3.2988 8.02732 3.57422 8.04607 3.84084 8.10335C3.97027 8.2762 4.03343 8.49618 4.09037 8.70299C3.91694 8.66802 3.74403 8.7106 3.5706 8.72023C3.61564 8.69691 3.64877 8.66396 3.66948 8.6224C3.51779 8.63102 3.36766 8.65332 3.21701 8.66903C3.24859 8.63761 3.2812 8.60669 3.31434 8.57678C3.19734 8.57323 3.07982 8.5783 2.96282 8.58742C2.81941 8.85354 2.70293 9.13384 2.54348 9.39083C2.48239 9.50235 2.33484 9.46636 2.22923 9.48309C2.26029 9.44913 2.29135 9.41567 2.32242 9.38171C2.19765 9.38881 2.07392 9.40807 1.95071 9.42632C1.94967 9.30466 1.76226 9.29503 1.77469 9.16933C1.76796 8.77193 1.7633 8.37403 1.82749 7.98018C1.84043 7.967 1.86632 7.94013 1.87926 7.92696ZM2.13501 8.13224C2.11275 8.20574 2.09359 8.28076 2.07754 8.35629C2.28307 8.36186 2.48808 8.34665 2.69361 8.35223C3.09224 8.38721 3.48363 8.47439 3.88122 8.51697C3.85741 8.41508 3.81185 8.3203 3.75646 8.2321C3.55403 8.16215 3.33608 8.19712 3.13055 8.14694C3.00475 8.11805 2.87377 8.13934 2.74745 8.11501C2.54503 8.0704 2.3395 8.13376 2.13501 8.13224ZM2.44977 8.5859C2.4653 8.65636 2.65426 8.65788 2.6698 8.58742C2.60715 8.54637 2.51293 8.54586 2.44977 8.5859Z" fill="#747171"/>
<path d="M11.9626 8.47337L12.0107 8.46222C12.1515 8.45715 12.3084 8.49162 12.3809 8.62291C12.297 8.67664 12.2017 8.71009 12.1055 8.73543C11.9569 8.74202 11.9558 8.57729 11.9626 8.47337Z" fill="#747171"/>
<path d="M8.07928 8.78004C8.30137 8.83377 8.44219 9.02993 8.63063 9.14398C8.80769 9.29858 9.06602 9.39286 9.15714 9.62147C8.93504 9.63718 8.71968 9.5723 8.49965 9.55709C8.3987 9.55202 8.29827 9.49626 8.27238 9.39539C8.19938 9.19315 8.11655 8.99242 8.07928 8.78004Z" fill="#747171"/>
<path d="M10.2448 8.84391C10.3805 8.82617 10.5187 8.81349 10.6486 8.76737C10.718 8.81958 10.7884 8.87128 10.8599 8.92146C10.8977 8.87179 10.9354 8.8216 10.9712 8.77041C10.966 8.84492 10.9525 8.91943 10.9386 8.99344C10.6978 9.03145 10.4586 9.07606 10.2288 9.15615C10.2614 9.10394 10.2935 9.05122 10.3246 8.998C10.2909 8.95035 10.2609 8.89967 10.2448 8.84391Z" fill="#747171"/>
<path d="M22.0744 9.26209L22.107 9.26918C22.1385 9.27577 22.2007 9.28946 22.2317 9.29605C22.3322 9.59764 22.356 9.92002 22.4849 10.213C22.4751 10.3316 22.4041 10.4188 22.2742 10.396C22.2053 10.0888 22.1996 9.76593 22.0785 9.47194C22.0738 9.40199 22.0759 9.33153 22.0744 9.26209Z" fill="#747171"/>
<path d="M22.5827 9.70409C22.6578 9.71676 22.6516 9.90177 22.5843 9.92002C22.5444 9.85818 22.5392 9.76542 22.5827 9.70409Z" fill="#747171"/>
<path d="M23.1061 9.83284C23.1155 9.88302 23.1248 9.9332 23.1341 9.98389C23.1175 10.0097 23.0839 10.0614 23.0673 10.0873C22.9524 10.0959 22.8369 10.0949 22.723 10.0853C22.7355 9.88961 23.0714 10.0295 23.1061 9.83284Z" fill="#747171"/>
<path d="M23.8661 10.4659C23.9339 10.435 24.0012 10.4041 24.0685 10.3711C24.1327 10.4036 24.1607 10.4685 24.1871 10.5313C24.0955 10.547 24.0059 10.5704 23.9153 10.5876C23.8977 10.58 23.8615 10.5648 23.8433 10.5572C23.849 10.5344 23.8604 10.4887 23.8661 10.4659Z" fill="#747171"/>
<path d="M2.8075 11.1117C2.96437 11.0387 2.80906 11.28 2.8075 11.1117Z" fill="#747171"/>
<path d="M22.4657 11.4386C22.502 11.4351 22.5739 11.4285 22.6102 11.4255C22.6102 11.4447 22.6097 11.4838 22.6097 11.503C22.5118 11.5659 22.4134 11.6282 22.3187 11.6956C22.297 11.6531 22.2757 11.6105 22.255 11.5684C22.2555 11.5456 22.2571 11.4995 22.2576 11.4762C22.3265 11.4625 22.3958 11.4488 22.4657 11.4386Z" fill="#747171"/>
<path d="M4.58944 11.762C4.62568 11.6389 4.73699 11.5588 4.85295 11.5121C4.83949 11.6835 4.87884 11.8502 4.91973 12.016L4.87935 12.0008C4.796 11.906 4.69712 11.8274 4.58944 11.762Z" fill="#747171"/>
<path d="M9.52885 12.6734C9.51539 12.4914 9.70435 12.4108 9.83843 12.3348C9.79754 12.4788 9.79391 12.6278 9.82083 12.7753C9.72506 12.7368 9.62928 12.6977 9.52885 12.6734Z" fill="#747171"/>
<path d="M12.3079 13.0794C12.3493 12.9035 12.5393 12.8544 12.6894 12.7986C12.6123 12.9223 12.5471 13.0541 12.5548 13.2036C12.4715 13.1641 12.3892 13.122 12.3079 13.0794Z" fill="#747171"/>
<path d="M10.7817 13.0531C10.8511 13.0698 10.848 13.2543 10.7724 13.2675C10.731 13.2051 10.7418 13.1134 10.7817 13.0531Z" fill="#747171"/>
<path d="M13.5664 13.3957H13.6063C13.5887 13.5828 13.6197 13.7769 13.5731 13.9604C13.4955 14.0638 13.4106 14.2392 13.2636 14.2306C13.2273 14.1712 13.1942 14.1104 13.1611 14.0501C13.2729 14.0466 13.4297 14.0988 13.497 13.9807C13.6171 13.8088 13.569 13.5899 13.5664 13.3957Z" fill="#747171"/>
<path d="M19.3486 0.164042C19.4475 0.140725 19.5816 0.0555689 19.6587 0.165563C20.0056 0.558904 20.1469 1.0744 20.3944 1.52502C20.501 1.74045 20.6201 1.94979 20.719 2.16877C20.8738 2.55957 21.0938 2.91997 21.2729 3.29962C21.48 3.82222 21.7943 4.29615 22.0014 4.81875C22.1862 5.21006 22.4124 5.58211 22.5708 5.98509C22.7437 6.33686 22.928 6.68357 23.1056 7.03281C23.1486 7.09263 23.132 7.15548 23.0533 7.16612C23.0611 7.20668 23.0694 7.24723 23.0777 7.28828C23.029 7.28423 22.9829 7.29943 22.9394 7.31768C22.984 7.11087 22.839 6.93955 22.7572 6.76315C22.6185 6.47828 22.4595 6.20254 22.3316 5.91311C22.1463 5.46503 21.8812 5.05394 21.699 4.60485C21.4774 4.13294 21.2155 3.67978 21.0125 3.19875C20.7071 2.64118 20.4633 2.05522 20.1692 1.49157C20.1164 1.36231 20.0289 1.25283 19.9487 1.13979C19.8922 0.987727 19.857 0.825525 19.7581 0.692215C19.7545 0.686639 19.7483 0.676501 19.7452 0.671432C19.6686 0.540657 19.577 0.418497 19.4734 0.306983C19.431 0.259336 19.3895 0.212195 19.3486 0.164042Z" fill="#3C3D40"/>
<path d="M19.5309 4.29767C19.5593 4.28602 19.6163 4.2627 19.6453 4.25053C19.6603 4.52526 19.7416 4.80709 19.944 5.0068C20.2639 5.26886 20.6589 5.41332 21.027 5.59479C21.0327 5.6176 21.0436 5.66322 21.0493 5.68603C21.1042 5.67741 21.1591 5.6693 21.2144 5.66119C21.2704 5.71999 21.3247 5.7798 21.378 5.84113C21.3563 5.93085 21.3304 6.01956 21.2983 6.10623C21.2445 6.10116 21.1911 6.0966 21.1378 6.09255C21.0653 6.00384 21.0203 5.8974 21.0446 5.78284L21.0208 5.76611C20.6377 5.51166 20.1661 5.39153 19.8208 5.0803C19.6437 4.86184 19.5086 4.58254 19.5309 4.29767ZM21.1197 5.85431C21.099 5.92426 21.1254 5.9491 21.1989 5.92984C21.2191 5.85989 21.1927 5.83454 21.1197 5.85431Z" fill="#3C3D40"/>
<path d="M13.9821 5.11527C14.0292 5.13048 14.0593 5.169 14.0582 5.21817C13.8491 5.62216 13.6342 6.02361 13.4432 6.43621C13.3966 6.45598 13.35 6.47524 13.3039 6.49501C13.3681 6.21521 13.5198 5.96836 13.642 5.71137C13.7424 5.50608 13.8279 5.28964 13.9821 5.11527Z" fill="#3C3D40"/>
<path d="M7.67857 5.39558C8.01612 5.30941 8.36453 5.26835 8.71243 5.24909C8.71657 5.24909 8.72485 5.24808 8.72899 5.24808C9.0127 5.21716 9.30468 5.20347 9.58579 5.26329C9.73489 5.28964 9.8871 5.27697 10.0377 5.27494C10.0388 5.29522 10.0403 5.33628 10.0409 5.35655L10.0036 5.36061C9.93835 5.36618 9.87415 5.3748 9.80996 5.38646L9.78925 5.39001C9.39217 5.46857 8.99975 5.56944 8.60371 5.65105C8.18541 5.79298 7.74639 5.6622 7.32809 5.59479C7.39436 5.46452 7.54967 5.43613 7.67857 5.39558Z" fill="#3C3D40"/>
<path d="M9.04065 6.14171C9.23272 6.07835 9.43566 6.05909 9.62825 5.99979C9.59874 6.20406 9.71418 6.384 9.75715 6.57713C9.75042 6.67141 9.74059 6.76569 9.7323 6.86047C9.71315 6.83158 9.67484 6.7743 9.65568 6.74541C9.6738 6.65468 9.71988 6.54722 9.66604 6.46105C9.57492 6.48538 9.62669 6.63136 9.62566 6.70182C9.55784 6.71804 9.49002 6.73375 9.4222 6.74896C9.42375 6.68205 9.42582 6.61565 9.42841 6.54874C9.29433 6.41999 9.06188 6.34852 9.04065 6.14171Z" fill="#3C3D40"/>
<path d="M14.2022 6.00181C14.2979 6.05605 14.0996 6.2512 14.0443 6.15743C14.0696 6.08849 14.1317 6.02665 14.2022 6.00181Z" fill="#3C3D40"/>
<path d="M10.7703 6.38147C10.8619 6.41188 10.8925 6.50616 10.9334 6.58219C11.0447 6.80978 11.1565 7.04447 11.186 7.29842L11.143 7.29132C11.0757 6.96692 10.9189 6.67495 10.7703 6.38147Z" fill="#3C3D40"/>
<path d="M8.02958 6.49602C8.06634 6.49349 8.13933 6.48791 8.17557 6.48538C8.20094 6.52897 8.22734 6.57256 8.25426 6.61616C8.31069 6.63238 8.36712 6.6491 8.42407 6.66634C8.43339 6.75301 8.44167 6.8402 8.44944 6.92789C8.35884 7.01862 8.21233 7.10023 8.22579 7.24672C8.26306 7.43477 8.38213 7.59647 8.42303 7.78401C8.36194 7.79669 8.30137 7.80986 8.2408 7.82254C8.23562 7.88032 8.26306 7.91074 8.32363 7.91479C8.48309 7.96244 8.65393 7.95433 8.81027 7.90009C8.72951 7.86866 8.64823 7.84028 8.56592 7.81392C8.50535 7.64918 8.70673 7.59647 8.81079 7.51942C8.88379 7.18589 8.86878 6.83006 8.79526 6.49755C8.86308 6.54418 8.96196 6.56902 8.99717 6.6486C9.00286 6.76619 9.03133 6.88075 9.05929 6.9948C9.00907 7.17626 8.94229 7.35722 8.96144 7.54882C9.04221 7.55186 9.12297 7.55338 9.20425 7.55389C9.26275 7.34049 9.27362 7.11848 9.26171 6.89849C9.45533 7.01 9.58528 7.23658 9.62773 7.44846C9.63135 7.54476 9.63498 7.64209 9.64067 7.7389C9.66863 7.73586 9.72506 7.72876 9.75301 7.72572L9.78045 7.72218C9.88917 8.11095 9.94612 8.52964 9.82963 8.92298C9.79029 9.07657 9.82135 9.26513 9.67329 9.37107C9.36163 9.18048 9.09501 8.93008 8.78801 8.7329C8.58249 8.5636 8.34331 8.43029 8.159 8.23818C8.03838 7.92442 8.03734 7.58278 8.0301 7.25229C8.03268 7.00037 7.98713 6.74693 8.02958 6.49602Z" fill="#3C3D40"/>
<path d="M4.08364 6.74592L4.12351 6.75656C4.23895 6.84628 4.35337 6.94411 4.43516 7.06576C4.50402 7.2011 4.52732 7.35266 4.57028 7.49712C4.64587 7.52196 4.72456 7.51283 4.80222 7.50269C4.80429 7.46772 4.80791 7.39676 4.80998 7.36178C5.22414 7.45049 5.6497 7.46873 6.06955 7.52297C6.00329 7.54477 5.94168 7.57822 5.88214 7.6137C6.00898 7.60813 6.13427 7.58684 6.258 7.55946C6.48527 7.562 6.74774 7.58227 6.9336 7.72471L6.90771 7.75614C6.79537 7.7906 6.68148 7.82102 6.57431 7.86968C6.5945 8.01667 6.61004 8.16925 6.54998 8.31016C6.64886 8.3502 6.77311 8.36541 6.83109 8.46476C6.78657 8.56005 6.7084 8.65383 6.73118 8.76483C6.75551 8.95289 6.77415 9.145 6.83731 9.32545C6.92117 9.50488 7.02109 9.67672 7.1148 9.85159C7.28823 9.91698 7.46528 9.85615 7.63405 9.80851C7.76141 9.83182 7.89032 9.84399 8.02026 9.83334C8.00887 9.89518 7.998 9.95803 7.98764 10.0209C7.82664 10.0305 7.65735 10.0178 7.50877 10.0908C7.54811 10.1461 7.59005 10.1998 7.6237 10.2591C7.64441 10.3787 7.61024 10.5126 7.68582 10.6195C7.73656 10.7087 7.83285 10.7564 7.91931 10.8076C7.92811 10.8304 7.94675 10.8765 7.95555 10.8998C7.8313 10.8973 7.70394 10.9079 7.5828 10.8755C7.49427 10.8213 7.40989 10.7594 7.30583 10.7386C7.223 10.6869 7.17433 10.5942 7.09253 10.541C6.97657 10.4969 6.85387 10.4725 6.7348 10.4381C6.55619 10.1289 6.50028 9.76998 6.34911 9.44963C6.24247 9.32595 6.04004 9.32443 5.92822 9.20278C5.78067 8.96657 5.73771 8.68677 5.62795 8.43587C5.52234 8.3056 5.4421 8.15961 5.40327 7.99691C5.27022 7.97764 5.13562 7.96092 5.00723 7.92037C4.85657 7.86714 4.69453 7.91631 4.53974 7.88641C3.66689 7.76729 2.79146 7.66338 1.91084 7.6137C1.96572 7.51233 2.14743 7.54983 2.25356 7.50168C2.25149 7.47786 2.24735 7.43072 2.24528 7.4074C2.39697 7.32326 2.56884 7.36026 2.73192 7.37547C3.03995 7.31667 3.35989 7.23354 3.67207 7.30146C3.91901 7.31515 4.17113 7.27308 4.41342 7.341C4.39427 7.26294 4.38184 7.17981 4.33214 7.11392C4.26122 7.04397 4.15975 7.00899 4.09814 6.92992C4.08882 6.86858 4.08416 6.80725 4.08364 6.74592ZM6.17879 8.38366C6.1907 8.45107 6.22797 8.46222 6.29061 8.41762C6.27922 8.3497 6.24195 8.33804 6.17879 8.38366Z" fill="#3C3D40"/>
<path d="M20.7449 7.52398C20.7237 7.40993 20.6615 7.22239 20.8003 7.16004C20.8251 7.35012 20.88 7.53564 20.9634 7.70849C21.1622 8.11552 21.4303 8.49416 21.7865 8.7846C21.786 8.80538 21.786 8.84695 21.786 8.86722C21.6995 8.851 21.6172 8.81603 21.5556 8.75318C21.1875 8.41711 20.9204 7.98322 20.7449 7.52398Z" fill="#3C3D40"/>
<path d="M11.2357 7.60965H11.2828C11.2932 7.85549 11.2492 8.10436 11.302 8.34767C11.3398 8.48554 11.245 8.6153 11.2528 8.75368C11.2642 8.86063 11.1974 8.94883 11.143 9.035C11.1254 9.00662 11.0908 8.95035 11.0737 8.92247C11.1337 9.16628 11.1456 9.42023 11.1161 9.66911C11.0742 9.73551 11.0038 9.77759 10.9272 9.79533C10.8914 9.69902 10.8681 9.52617 10.7206 9.57027C10.5684 9.63921 10.5632 9.87795 10.3768 9.90127C10.2505 9.93827 10.1491 9.8227 10.1211 9.71372C10.0377 9.54746 10.1154 9.36448 10.0709 9.19163C10.1237 9.17997 10.176 9.16831 10.2288 9.15615C10.4586 9.07606 10.6978 9.03145 10.9386 8.99344C10.9525 8.91943 10.966 8.84492 10.9712 8.77041C10.9717 8.74608 10.9732 8.69792 10.9738 8.67359C10.9018 8.6817 10.8298 8.69032 10.7589 8.70401C10.748 8.67917 10.7268 8.63 10.7159 8.60567L10.6983 8.56563C10.8169 8.5195 10.9334 8.46577 11.0442 8.40292C11.0576 8.39532 11.0851 8.38062 11.099 8.37301C11.1311 8.17026 11.1115 7.96446 11.1141 7.7607C11.1508 7.79618 11.1876 7.83166 11.2248 7.86664C11.229 7.78097 11.2321 7.69531 11.2357 7.60965ZM11.1726 7.90668C11.1586 8.05976 11.1586 8.21436 11.1731 8.36744L11.2274 8.36693C11.2409 8.21639 11.2466 8.06432 11.2248 7.91479L11.1726 7.90668Z" fill="#3C3D40"/>
<path d="M2.13501 8.13224C2.3395 8.13376 2.54503 8.0704 2.74745 8.11501C2.87377 8.13934 3.00475 8.11805 3.13055 8.14694C3.33608 8.19712 3.55403 8.16215 3.75646 8.2321C3.81185 8.3203 3.85741 8.41508 3.88122 8.51697C3.48363 8.47439 3.09224 8.38721 2.69361 8.35223C2.48808 8.34665 2.28307 8.36186 2.07754 8.35629C2.09359 8.28076 2.11275 8.20574 2.13501 8.13224Z" fill="#3C3D40"/>
<path d="M2.6698 8.58742C2.60715 8.54637 2.51293 8.54586 2.44977 8.5859C2.4653 8.65636 2.65426 8.65788 2.6698 8.58742Z" fill="#3C3D40"/>
<path d="M5.01292 8.63254C5.11284 8.66041 5.22 8.68272 5.30335 8.74709C5.36185 8.83174 5.38826 8.9316 5.4188 9.02841C5.33338 9.01878 5.2433 9.02081 5.16357 8.98533C5.06262 8.89561 5.03208 8.75875 5.01292 8.63254Z" fill="#3C3D40"/>
<path d="M11.0002 9.8668C11.0716 9.84145 11.1467 9.83892 11.2217 9.83841C11.2254 9.955 11.2264 10.0721 11.2264 10.1892C11.4418 10.0518 11.7011 10.0924 11.9439 10.0903L11.9346 10.1273C11.8849 10.2617 11.9351 10.4011 11.9388 10.5384C11.9072 10.6585 11.8259 10.7609 11.7783 10.876C11.8694 10.8496 11.96 10.8218 12.0495 10.7908C12.0853 10.8714 12.1179 10.9536 12.1474 11.0372C12.0325 11.0544 11.9108 11.098 11.799 11.0458C11.6975 10.9911 11.5857 11.021 11.4801 11.0428C11.4671 10.8238 11.3812 10.6079 11.2476 10.4335C11.0799 10.3853 10.8982 10.3934 10.7356 10.3225C10.8076 10.3068 10.9266 10.364 10.965 10.2799C10.9841 10.1425 10.9738 10.0031 11.0002 9.8668ZM11.0162 9.94182C11.0136 10.0442 11.0141 10.1466 11.0224 10.2485C11.2352 10.2642 11.187 10.0189 11.1824 9.88403C11.1192 9.882 11.0638 9.90126 11.0162 9.94182Z" fill="#3C3D40"/>
<path d="M13.1942 10.2054C13.363 10.1948 13.5317 10.2084 13.7005 10.2049C13.7207 10.2241 13.7616 10.2622 13.7823 10.2809C13.861 10.2353 13.9583 10.143 14.0489 10.2221C14.1338 10.3184 14.023 10.4173 13.977 10.5009C14.022 10.6991 14.0494 10.9003 14.0877 11.1C14.271 11.0387 14.461 11.0453 14.6443 11.1006C14.884 11.0118 15.1014 10.8349 15.3711 10.8491C15.5368 10.8542 15.7076 10.8309 15.8702 10.8709C16.4479 11.0519 16.8942 11.6211 16.8787 12.2218C16.8694 12.4169 16.814 12.6106 16.7218 12.7844C16.6607 12.8858 16.5908 12.9836 16.5044 13.0662L16.4604 13.0794C16.4454 12.9405 16.4873 12.7697 16.3687 12.6653C16.2347 12.5411 16.1472 12.3799 16.1094 12.204C16.2595 12.2441 16.3801 12.3439 16.509 12.424C16.39 12.2674 16.1943 12.1939 16.0721 12.0403C15.9137 11.8583 15.7925 11.6389 15.5813 11.5081C15.5011 11.6084 15.5259 11.7326 15.5482 11.8477C15.3799 11.9557 15.527 12.131 15.5704 12.2669C15.4353 12.3982 15.2624 12.4798 15.1087 12.5867C15.2733 12.8118 15.6005 12.7672 15.8101 12.6313C15.7672 12.7282 15.7221 12.8275 15.6377 12.8975C15.3204 12.8863 15.0082 12.6714 14.6935 12.7758C14.768 12.8954 14.9 12.9583 15.0201 13.0257C14.9373 13.0272 14.855 13.0338 14.7727 13.0409C14.7737 13.1752 14.7872 13.3085 14.7965 13.4429C14.7892 13.5103 14.7784 13.5777 14.7659 13.6456C14.7276 13.8833 14.5894 14.0932 14.4211 14.2645C14.3399 13.9396 14.037 13.7348 13.9314 13.419C14.1038 13.4494 14.2239 13.5868 14.3844 13.6466C14.315 13.5432 14.2104 13.4738 14.1064 13.4084C13.9562 13.3141 13.8537 13.1671 13.7668 13.0181C13.9107 13.0368 14.0494 13.0799 14.1882 13.12C14.0722 13.0399 13.935 13.0019 13.8087 12.9416C13.6508 12.863 13.5804 12.6937 13.453 12.5827C13.2837 12.4717 13.1202 12.2953 12.8955 12.3602C12.8416 12.3201 12.7878 12.2806 12.7345 12.2405C12.6522 12.2861 12.5672 12.3267 12.4798 12.3617C12.444 12.3054 12.4114 12.2476 12.3819 12.1883C12.5289 12.0961 12.7091 12.0763 12.852 11.9749C13.0575 11.9785 13.2651 11.9709 13.4567 11.8867C13.466 11.8107 13.4753 11.7352 13.4857 11.6602C13.5198 11.7691 13.5509 11.8791 13.5809 11.9896C13.8258 12.0261 14.124 12.0667 14.2581 12.2978C14.3093 12.278 14.3606 12.2583 14.4118 12.239C14.4646 12.2243 14.5066 12.1959 14.5381 12.1533C14.5651 12.0763 14.4615 12.056 14.4066 12.052C14.4035 11.9273 14.4175 11.7828 14.3176 11.6875C14.1141 11.5025 13.8216 11.5532 13.5742 11.4954C13.5918 11.3809 13.7005 11.2886 13.6694 11.169C13.6368 10.9642 13.584 10.7549 13.452 10.5876C13.321 10.6342 13.1875 10.7173 13.0456 10.6565C13.1409 10.4999 13.2848 10.3828 13.4127 10.2541C13.3381 10.2434 13.263 10.2368 13.1942 10.2054Z" fill="#161616"/>
<path d="M10.4141 10.2515C10.484 10.216 10.5586 10.2759 10.6248 10.2966L10.6486 10.3194C10.5725 10.3478 10.4027 10.3722 10.4141 10.2515Z" fill="#3C3D40"/>
<path d="M24.4703 10.2809C24.5702 10.2561 24.6737 10.2353 24.7778 10.2505C24.9673 10.4137 25.0335 10.6981 24.9844 10.9348C24.8839 11.1761 24.6054 11.2739 24.374 11.356C24.432 11.2394 24.4962 11.1218 24.5143 10.9916C24.5138 10.986 24.5127 10.9753 24.5122 10.9698C24.4646 10.805 24.3885 10.6479 24.2694 10.5217C24.3429 10.4958 24.4133 10.4624 24.4843 10.4299C24.5081 10.432 24.5557 10.4355 24.58 10.4375C24.6137 10.4522 24.682 10.4811 24.7162 10.4953C24.6737 10.3853 24.5883 10.3052 24.4703 10.2809Z" fill="#3C3D40"/>
<path d="M3.09949 10.3407C3.24652 10.3098 3.39251 10.3595 3.54057 10.3499C3.69951 10.4041 3.86517 10.4761 3.98166 10.5998C4.1059 10.7832 4.32852 10.9176 4.36476 11.1492C4.27623 11.3773 4.07122 11.5375 3.92781 11.7326C3.83359 11.6774 3.73471 11.6308 3.63014 11.5983C3.71763 11.6972 3.82324 11.7848 3.87501 11.9085C3.84964 11.9237 3.79891 11.9531 3.77354 11.9678C3.62237 11.8847 3.55714 11.723 3.5121 11.5684C3.39976 11.1447 3.0472 10.7995 2.63149 10.6525C2.5295 10.6013 2.42544 10.6651 2.32656 10.6905C2.46323 10.4056 2.82252 10.3889 3.09949 10.3407Z" fill="#161616"/>
<path d="M22.2685 10.4441C22.3829 10.6773 22.4756 10.9231 22.5501 11.171C22.5191 11.1857 22.4564 11.2151 22.4254 11.2298C22.3606 11.2992 22.4373 11.3733 22.4657 11.4386C22.3958 11.4488 22.3265 11.4625 22.2576 11.4762C22.2778 11.1325 22.2561 10.7878 22.2685 10.4441Z" fill="#3C3D40"/>
<path d="M5.51199 10.6743C5.9101 10.6596 6.26421 10.8806 6.56034 11.1213C6.65766 11.3383 6.77518 11.5461 6.8606 11.7691C6.89891 12.0413 6.90306 12.3313 6.78864 12.5883C6.64835 12.534 6.58001 12.4134 6.57431 12.2704C6.39726 12.1625 6.21296 12.0616 6.01054 12.0074C6.15394 12.1539 6.30148 12.3526 6.53704 12.312C6.42263 12.4012 6.25075 12.4529 6.12288 12.3581C5.95618 12.2497 5.97015 12.0307 5.89457 11.869C5.73098 11.5081 5.42967 11.1903 5.04347 11.058C4.92388 11.0073 4.80014 11.0646 4.67952 11.0793C4.67279 11.0321 4.66968 10.985 4.6702 10.9378C4.76856 10.8953 4.86589 10.8496 4.96322 10.8045C4.95183 10.7807 4.92854 10.732 4.91715 10.7082C5.11594 10.7199 5.31629 10.7143 5.51199 10.6743Z" fill="#161616"/>
<path d="M23.1098 11.539C23.0554 11.2379 23.3184 10.8846 23.6533 10.9485C23.6787 11.1 23.4747 11.0732 23.3821 11.135C23.1631 11.2187 23.1802 11.4767 23.2252 11.6617C23.1569 11.6556 23.1175 11.6014 23.1098 11.539Z" fill="#3C3D40"/>
<path d="M2.37263 11.2029C2.43631 11.0676 2.61026 11.0286 2.74797 11.058C2.7547 11.1553 2.69309 11.2349 2.65944 11.3221C2.63252 11.4214 2.63304 11.5279 2.58593 11.6216C2.56833 11.4604 2.46996 11.3276 2.37263 11.2029Z" fill="#3C3D40"/>
<path d="M21.9951 11.4082C22.0857 11.4544 22.1738 11.5066 22.255 11.5684C22.2757 11.6105 22.297 11.6531 22.3187 11.6956C22.4134 11.6282 22.5118 11.5659 22.6097 11.503C22.6179 11.6987 22.5879 11.8933 22.5361 12.0824C22.4678 12.0763 22.3995 12.0697 22.3322 12.0631C22.2892 11.8112 22.0526 11.6525 21.9951 11.4082Z" fill="#3C3D40"/>
<path d="M9.71004 11.6916C9.88658 11.5679 10.1133 11.5491 10.3121 11.4721C10.5285 11.4822 10.7574 11.4462 10.966 11.5106C11.2471 11.6292 11.4811 11.8213 11.6908 12.0363C11.8016 12.2101 11.8544 12.4144 11.8865 12.6156C11.6892 12.6587 11.5888 12.8341 11.434 12.9395C11.1689 12.9461 10.9499 12.7114 10.9256 12.4636C10.8014 12.3647 10.7082 12.2405 10.6181 12.1148C10.4747 12.0834 10.3577 12.0079 10.2785 11.8867C10.2055 11.8918 10.1325 11.8964 10.0595 11.8999C10.0289 11.8583 9.9984 11.8173 9.96838 11.7762C9.90159 11.8056 9.83584 11.8365 9.77113 11.8695C9.70745 11.8315 9.66656 11.7605 9.71004 11.6916Z" fill="#161616"/>
<path d="M23.2925 11.7149C23.3386 11.7473 23.3852 11.7803 23.4318 11.8142C23.6968 11.8122 23.9557 11.7499 24.2171 11.7154C24.244 11.7144 24.2984 11.7124 24.3253 11.7113C24.3274 11.7362 24.331 11.7869 24.3326 11.8117C24.2746 11.8294 24.2166 11.8467 24.1586 11.8639C24.1576 11.8381 24.1565 11.7869 24.156 11.7615C23.9536 11.8011 23.7517 11.8426 23.5498 11.8837C23.5508 11.9394 23.5524 11.9947 23.5534 12.0504C23.7051 12.0368 23.8563 12.0246 24.009 12.0165C24.1079 12.0763 24.2042 12.1883 24.1633 12.31C24.0991 12.5112 24.127 12.7221 24.1177 12.9289C24.0157 12.9233 23.8899 12.9593 23.8159 12.8706C23.8221 12.6633 23.862 12.4448 23.7874 12.2451C23.57 12.1189 23.3137 12.0824 23.0823 11.9876C23.1558 11.9805 23.2299 11.9739 23.3039 11.9668C23.2873 11.8999 23.248 11.8431 23.2076 11.7889C23.235 11.7636 23.2635 11.7387 23.2925 11.7149ZM23.4157 11.9719C23.3971 12.0428 23.4235 12.0677 23.4949 12.0464C23.5136 11.9744 23.4872 11.9496 23.4157 11.9719ZM23.9774 12.5822C23.907 12.6177 23.9049 12.6521 23.9707 12.6851C24.0406 12.6491 24.0427 12.6151 23.9774 12.5822Z" fill="#3C3D40"/>
<path d="M18.0052 0.400757C18.1067 0.387579 18.0932 0.161509 17.9809 0.220814C17.9353 0.266433 17.927 0.383523 18.0052 0.400757Z" fill="#1A1B1A"/>
<path d="M19.301 0.465638C19.3983 0.444349 19.3492 0.29279 19.2586 0.315093C19.1555 0.335875 19.2001 0.499599 19.301 0.465638Z" fill="#1A1B1A"/>
<path d="M18.7528 1.18541C18.8315 1.12712 18.8998 1.26601 18.8325 1.31517C18.7528 1.37499 18.6839 1.23407 18.7528 1.18541Z" fill="#1A1B1A"/>
<path d="M18.4825 1.74095C18.5726 1.71713 18.6249 1.8697 18.5255 1.89049C18.4251 1.92191 18.3779 1.76123 18.4825 1.74095Z" fill="#1A1B1A"/>
<path d="M14.0836 4.67581C14.1669 4.64996 14.1954 4.67834 14.1706 4.76198C14.0872 4.78783 14.0582 4.75944 14.0836 4.67581Z" fill="#1A1B1A"/>
<path d="M14.7406 6.23093C14.768 6.1483 14.739 6.12042 14.6551 6.14678C14.6277 6.2294 14.6562 6.25728 14.7406 6.23093Z" fill="#1A1B1A"/>
<path d="M6.06955 7.52297C6.13478 7.50219 6.20157 7.48647 6.26783 7.46975C6.26576 7.49205 6.26059 7.53716 6.258 7.55946C6.13427 7.58684 6.00898 7.60813 5.88214 7.6137C5.94168 7.57822 6.00329 7.54477 6.06955 7.52297Z" fill="#1A1B1A"/>
<path d="M14.4015 7.66946C14.4869 7.66845 14.4429 7.79466 14.3797 7.7977C14.2979 7.79567 14.3414 7.67402 14.4015 7.66946Z" fill="#1A1B1A"/>
<path d="M2.98974 8.85506C3.11295 8.73138 3.30139 8.78815 3.44894 8.82819C3.65809 8.85303 3.86517 8.9022 4.07691 8.87229C4.23378 8.93819 4.37149 9.04818 4.46623 9.18808C4.41135 9.25549 4.33214 9.22001 4.26122 9.20785C4.10435 9.31835 3.89779 9.26259 3.72177 9.24333C3.54678 9.20683 3.35782 9.21697 3.19268 9.14702C3.11606 9.05629 3.0881 8.93109 2.98974 8.85506Z" fill="#1A1B1A"/>
<path d="M22.4243 9.29199C22.6707 9.32646 22.9161 9.26462 23.1626 9.30213C23.1434 9.35789 23.1248 9.41365 23.1098 9.47092C23.1129 9.5211 23.117 9.57179 23.1227 9.62197C23.0689 9.64022 23.0161 9.65898 22.9632 9.67773C22.9632 9.71524 22.9632 9.75275 22.9638 9.79077C22.9995 9.8009 23.0704 9.82219 23.1061 9.83284C23.0714 10.0295 22.7355 9.88961 22.723 10.0853C22.8369 10.0949 22.9524 10.0959 23.0673 10.0873C23.0839 10.0614 23.1175 10.0097 23.1341 9.98389C23.1362 10.0239 23.1408 10.104 23.1429 10.1436C23.1444 10.1765 23.1481 10.2424 23.1496 10.2748C23.2226 10.3093 23.2977 10.3412 23.3691 10.3803C23.4266 10.4705 23.4173 10.583 23.4245 10.6859C23.3127 10.6753 23.2226 10.6074 23.1289 10.5541C23.0533 10.6697 23.0342 10.8055 23.0419 10.9404C23.1165 10.9307 23.191 10.9206 23.2661 10.9095C23.2469 10.8598 23.2283 10.8106 23.2097 10.762C23.3707 10.7544 23.5493 10.6783 23.701 10.7579C23.7005 10.9561 23.6927 11.1548 23.701 11.353C23.6885 11.3798 23.6647 11.4331 23.6528 11.4594L23.6647 11.4969C23.5343 11.5578 23.4048 11.6247 23.2925 11.7149C23.2635 11.7387 23.235 11.7636 23.2076 11.7889C23.248 11.8431 23.2873 11.8999 23.3039 11.9668C23.2299 11.9739 23.1558 11.9805 23.0823 11.9876C23.3137 12.0824 23.57 12.1189 23.7874 12.2451C23.862 12.4448 23.8221 12.6633 23.8159 12.8706C23.3065 12.752 22.8224 12.5406 22.3156 12.4088C22.3021 12.2932 22.3052 12.1767 22.3322 12.0631C22.3995 12.0697 22.4678 12.0763 22.5361 12.0824C22.5879 11.8933 22.6179 11.6987 22.6097 11.503C22.6097 11.4838 22.6102 11.4447 22.6102 11.4255C22.5739 11.4285 22.502 11.4351 22.4657 11.4386C22.4373 11.3733 22.3606 11.2992 22.4254 11.2298C22.4564 11.2151 22.5191 11.1857 22.5501 11.171C22.4756 10.9231 22.3829 10.6773 22.2685 10.4441C22.2561 10.7878 22.2778 11.1325 22.2576 11.4762C22.2571 11.4995 22.2555 11.5456 22.255 11.5684C22.1738 11.5066 22.0857 11.4544 21.9951 11.4082L21.9589 11.3895C21.9149 11.1852 22.0319 10.9029 21.8036 10.7777C21.8538 10.7016 21.9553 10.6479 21.9465 10.5465C21.9589 10.1927 21.9346 9.83892 21.9563 9.48562C21.9869 9.48207 22.0479 9.47548 22.0785 9.47194C22.1996 9.76593 22.2053 10.0888 22.2742 10.396C22.4041 10.4188 22.4751 10.3316 22.4849 10.213C22.5729 9.90532 22.4005 9.60271 22.4243 9.29199ZM22.5843 9.92002C22.5444 9.85818 22.5392 9.76542 22.5827 9.70409C22.6578 9.71676 22.6516 9.90177 22.5843 9.92002ZM23.1098 11.539C23.1175 11.6014 23.1569 11.6556 23.2252 11.6617C23.1802 11.4767 23.1631 11.2187 23.3821 11.135C23.4747 11.0732 23.6787 11.1 23.6533 10.9485C23.3184 10.8846 23.0554 11.2379 23.1098 11.539Z" fill="#1A1B1A"/>
<path d="M23.4628 9.75021C23.4892 9.77607 23.4892 9.77607 23.4628 9.75021Z" fill="#1A1B1A"/>
<path d="M8.02026 9.83334C8.39922 9.88352 8.56022 10.2581 8.86722 10.4289C9.12245 10.2551 9.431 10.3752 9.71626 10.3539C9.70901 10.4756 9.59822 10.5308 9.51901 10.6063C9.50296 10.7331 9.50607 10.8608 9.50037 10.9885C9.44498 10.9961 9.3901 11.0042 9.33471 11.0124C9.36473 10.9571 9.39476 10.9024 9.42531 10.8476C9.34558 10.7827 9.27155 10.7097 9.18302 10.657C9.08621 10.6271 8.98888 10.6758 8.89777 10.7026C8.96455 10.7858 9.09346 10.7741 9.18872 10.8086C9.12814 10.9819 8.98112 11.097 8.80096 11.1381C8.68344 11.0742 8.57834 10.99 8.45927 10.9297C8.2817 10.879 8.09377 10.8694 7.91931 10.8076C7.83285 10.7564 7.73656 10.7087 7.68582 10.6195C7.61024 10.5126 7.64441 10.3787 7.6237 10.2591C7.59005 10.1998 7.54811 10.1461 7.50877 10.0908C7.65735 10.0178 7.82664 10.0305 7.98764 10.0209C7.998 9.95803 8.00887 9.89518 8.02026 9.83334Z" fill="#1A1B1A"/>
<path d="M2.92917 10.1755C3.0969 10.0995 3.28017 10.178 3.45205 10.1973C4.2726 10.3509 5.10093 10.4583 5.92097 10.6124C6.12495 10.6494 6.35481 10.617 6.536 10.7326C6.61935 10.8425 6.55878 10.9951 6.56034 11.1213C6.26421 10.8806 5.9101 10.6596 5.51199 10.6743C5.31629 10.7143 5.11594 10.7199 4.91715 10.7082C4.60031 10.7133 4.29745 10.6033 3.98166 10.5998C3.86517 10.4761 3.69951 10.4041 3.54057 10.3499C3.39251 10.3595 3.24652 10.3098 3.09949 10.3407C3.04151 10.287 2.98456 10.2318 2.92917 10.1755Z" fill="#1A1B1A"/>
<path d="M23.9153 10.5876C24.0059 10.5704 24.0955 10.547 24.1871 10.5313C24.2078 10.5288 24.2487 10.5242 24.2694 10.5217C24.3885 10.6479 24.4646 10.805 24.5122 10.9698L24.5143 10.9916C24.4962 11.1218 24.432 11.2394 24.374 11.356C24.3093 11.3636 24.2456 11.3626 24.183 11.3535C24.1664 11.3484 24.1327 11.3393 24.1162 11.3347C24.0934 11.3281 24.0468 11.3155 24.0235 11.3094C24.0002 11.3069 23.9531 11.3018 23.9293 11.2992C23.966 11.2506 24.0385 11.2602 24.0918 11.242C24.0592 11.0514 24.0618 10.8583 24.0856 10.6672C24.0287 10.6403 23.9717 10.6134 23.9153 10.5876Z" fill="#1A1B1A"/>
<path d="M10.966 11.5106C10.9883 11.2952 11.1891 11.1857 11.3838 11.1396C11.4614 11.2019 11.5339 11.2724 11.6183 11.3271C11.8388 11.3722 12.0682 11.3824 12.2815 11.4599C12.2882 11.5684 12.3726 11.6429 12.4394 11.721C12.3576 11.8188 12.2297 11.7412 12.1241 11.7342C12.0154 11.8016 11.9693 11.9182 11.9419 12.0357C11.858 12.0403 11.7741 12.0393 11.6908 12.0363C11.4811 11.8213 11.2471 11.6292 10.966 11.5106Z" fill="#1A1B1A"/>
<path d="M8.28739 11.3074C8.46911 11.3312 8.65186 11.3525 8.83098 11.3895C8.84237 11.4032 8.86515 11.4305 8.87654 11.4442C8.88068 11.648 8.92003 11.8594 8.85894 12.0586C8.50069 12.2223 8.07979 12.4043 7.68686 12.2431C7.37624 12.1635 7.20384 11.8675 6.9103 11.7565C7.30013 11.6774 7.67806 11.8984 8.06685 11.9105C8.27031 11.909 8.42769 11.7636 8.55453 11.6242C8.59336 11.573 8.66532 11.5137 8.60992 11.4483C8.50586 11.3976 8.32622 11.4391 8.28739 11.3074Z" fill="#1A1B1A"/>
<path d="M19.4734 0.306983C19.577 0.418497 19.6686 0.540657 19.7452 0.671432C19.7483 0.676501 19.7545 0.686639 19.7581 0.692215C19.857 0.825525 19.8922 0.987727 19.9487 1.13979C20.0289 1.25283 20.1164 1.36231 20.1692 1.49157C20.4633 2.05522 20.7071 2.64118 21.0125 3.19875C21.2155 3.67978 21.4774 4.13294 21.699 4.60485C21.8812 5.05394 22.1463 5.46503 22.3316 5.91311C22.4595 6.20254 22.6185 6.47828 22.7572 6.76315C22.839 6.93955 22.984 7.11087 22.9394 7.31768C22.9829 7.29943 23.029 7.28423 23.0777 7.28828C23.118 7.41196 23.1688 7.53311 23.1916 7.66186C23.2066 7.77844 23.1387 7.88742 23.1408 8.00299C23.1926 8.10538 23.2718 8.20422 23.2635 8.32537C23.2511 8.51697 23.2148 8.71212 23.2578 8.9022C23.2744 8.91183 23.3086 8.93059 23.3256 8.94022C23.3215 8.96556 23.3137 9.01625 23.3096 9.0421C23.4696 9.01016 23.4887 8.84594 23.5591 8.73037C23.6725 8.76179 23.7864 8.73695 23.9008 8.72834C23.9909 8.79373 23.9733 8.95137 23.9231 9.04058C23.9179 9.00155 23.9086 8.92248 23.9034 8.88345C23.8687 8.88446 23.7993 8.88699 23.7647 8.88851C23.7724 8.95137 23.7817 9.01675 23.8496 9.04565C23.847 9.0867 23.8428 9.12776 23.8376 9.16933C23.8635 9.20937 23.8894 9.24992 23.9163 9.29098C23.7859 9.31734 23.6585 9.35383 23.5301 9.38678C23.513 9.39083 23.4789 9.39945 23.4618 9.40351C23.4514 9.46535 23.4432 9.52769 23.4359 9.59055C23.4059 9.52161 23.3743 9.45369 23.3417 9.38678C23.2635 9.41364 23.1859 9.44102 23.1098 9.47092C23.1248 9.41365 23.1434 9.35789 23.1626 9.30213C22.9161 9.26462 22.6707 9.32646 22.4243 9.29199C22.4005 9.60271 22.5729 9.90532 22.4849 10.213C22.356 9.92002 22.3322 9.59764 22.2317 9.29605C22.2007 9.28946 22.1385 9.27577 22.107 9.26918C22.1329 9.14398 22.2033 9.035 22.2581 8.92146C22.1013 8.95187 21.9511 9.00611 21.8015 9.06085C21.5038 8.93616 21.3035 8.66954 21.1171 8.42167C20.8624 8.08713 20.6434 7.71457 20.5523 7.304C20.5704 6.82753 21.0679 6.61768 21.2916 6.25222C21.2631 6.25982 21.2062 6.27502 21.1777 6.28263C21.1647 6.21927 21.1518 6.1554 21.1378 6.09255C21.1911 6.0966 21.2445 6.10116 21.2983 6.10623C21.3304 6.01956 21.3563 5.93085 21.378 5.84113C21.4484 5.82897 21.5189 5.8168 21.5898 5.80565C21.5137 5.68146 21.4402 5.55525 21.3853 5.42093C21.216 5.00832 20.9727 4.62968 20.8018 4.21809C20.7045 3.98341 20.5751 3.76393 20.4658 3.53481C20.398 3.40404 20.3463 3.24234 20.1884 3.19368C20.1987 3.34017 20.2406 3.48666 20.2194 3.63366C20.1205 3.90889 19.8586 4.06755 19.6453 4.25053C19.6163 4.2627 19.5593 4.28602 19.5309 4.29767C19.5086 4.58254 19.6437 4.86184 19.8208 5.0803C20.1661 5.39153 20.6377 5.51166 21.0208 5.76611C20.8205 5.80109 20.6574 5.6617 20.4855 5.58769C20.2044 5.45489 19.9093 5.33019 19.695 5.10108C19.4734 4.83193 19.3642 4.47052 19.4237 4.12787C19.5785 3.92207 19.8627 3.83692 19.9678 3.58956C20.045 3.48666 20.0434 3.36146 19.972 3.25704C19.9233 3.26465 19.8746 3.27326 19.827 3.28188C19.7317 3.18709 19.6675 3.06696 19.6204 2.94379C19.6437 2.8784 19.7064 2.83684 19.7499 2.78463C19.7317 2.69035 19.7364 2.59505 19.7416 2.50027C19.5873 2.24176 19.5883 1.92952 19.5573 1.63907C19.4449 1.6117 19.3316 1.58788 19.2166 1.57622C19.1711 1.68773 19.1416 1.80634 19.0815 1.91178C18.9319 2.10388 18.7274 2.24226 18.5462 2.40142C17.6992 3.46182 16.8181 4.49485 15.968 5.55221C15.8428 5.76459 15.6113 5.90804 15.5295 6.14577C15.5197 6.38198 15.6429 6.6121 15.7988 6.78748C15.8666 6.85439 15.834 6.95627 15.8365 7.03991C15.7066 7.09212 15.5611 7.10124 15.4369 7.16511C15.3085 7.43528 15.147 7.68923 14.9927 7.94571C14.958 8.01465 15.0005 8.09879 14.9621 8.16722C14.5961 8.78714 14.2146 9.39894 13.8589 10.026C13.8159 10.0924 13.788 10.1831 13.7005 10.2049C13.5317 10.2084 13.363 10.1948 13.1942 10.2054C13.263 10.2368 13.3381 10.2434 13.4127 10.2541C13.2848 10.3828 13.1409 10.4999 13.0456 10.6565C13.1875 10.7173 13.321 10.6342 13.452 10.5876C13.584 10.7549 13.6368 10.9642 13.6694 11.169C13.7005 11.2886 13.5918 11.3809 13.5742 11.4954C13.8216 11.5532 14.1141 11.5025 14.3176 11.6875C14.4175 11.7828 14.4035 11.9273 14.4066 12.052C14.4041 12.1138 14.4035 12.1767 14.4118 12.239C14.3606 12.2583 14.3093 12.278 14.2581 12.2978C14.124 12.0667 13.8258 12.0261 13.5809 11.9896C13.5509 11.8791 13.5198 11.7691 13.4857 11.6602C13.4753 11.7352 13.466 11.8107 13.4567 11.8867C13.2651 11.9709 13.0575 11.9785 12.852 11.9749C12.7091 12.0763 12.5289 12.0961 12.3819 12.1883C12.4114 12.2476 12.444 12.3054 12.4798 12.3617C12.5672 12.3267 12.6522 12.2861 12.7345 12.2405C12.7878 12.2806 12.8416 12.3201 12.8955 12.3602C13.1202 12.2953 13.2837 12.4717 13.453 12.5827C13.5804 12.6937 13.6508 12.863 13.8087 12.9416C13.935 13.0019 14.0722 13.0399 14.1882 13.12C14.0494 13.0799 13.9107 13.0368 13.7668 13.0181C13.8537 13.1671 13.9562 13.3141 14.1064 13.4084C14.2104 13.4738 14.315 13.5432 14.3844 13.6466C14.2239 13.5868 14.1038 13.4494 13.9314 13.419C14.037 13.7348 14.3399 13.9396 14.4211 14.2645L14.432 14.2939C14.2544 14.4642 14.0303 14.5757 13.8196 14.7009C13.4406 14.8713 12.9845 14.9012 12.6107 14.702C12.4057 14.6437 12.2753 14.4718 12.1267 14.334C11.9149 14.1474 11.8818 13.8509 11.7182 13.638C11.6488 13.7277 11.5862 13.8271 11.4909 13.894C11.2476 14.0613 10.9903 14.2245 10.6926 14.2787C10.3365 14.3928 9.95388 14.2605 9.6531 14.0678C9.25032 13.7845 9.02616 13.3055 8.99872 12.8285C8.99095 12.6182 9.08932 12.426 9.14626 12.2284C9.05618 12.1625 8.95937 12.1072 8.85894 12.0586C8.92003 11.8594 8.88068 11.648 8.87654 11.4442C8.86515 11.4305 8.84237 11.4032 8.83098 11.3895C8.65186 11.3525 8.46911 11.3312 8.28739 11.3074C8.32622 11.4391 8.50586 11.3976 8.60992 11.4483C8.66532 11.5137 8.59336 11.573 8.55453 11.6242C8.42769 11.7636 8.27031 11.909 8.06685 11.9105C7.67806 11.8984 7.30013 11.6774 6.9103 11.7565L6.8606 11.7691C6.77518 11.5461 6.65766 11.3383 6.56034 11.1213C6.55878 10.9951 6.61935 10.8425 6.536 10.7326C6.35481 10.617 6.12495 10.6494 5.92097 10.6124C5.10093 10.4583 4.2726 10.3509 3.45205 10.1973C3.28017 10.178 3.0969 10.0995 2.92917 10.1755C2.98456 10.2318 3.04151 10.287 3.09949 10.3407C2.82252 10.3889 2.46323 10.4056 2.32656 10.6905C2.42544 10.6651 2.5295 10.6013 2.63149 10.6525C3.0472 10.7995 3.39976 11.1447 3.5121 11.5684C3.55714 11.723 3.62237 11.8847 3.77354 11.9678C3.79891 11.9531 3.84964 11.9237 3.87501 11.9085C3.82324 11.7848 3.71763 11.6972 3.63014 11.5983C3.73471 11.6308 3.83359 11.6774 3.92781 11.7326C4.07122 11.5375 4.27623 11.3773 4.36476 11.1492C4.32852 10.9176 4.1059 10.7832 3.98166 10.5998C4.29745 10.6033 4.60031 10.7133 4.91715 10.7082C4.92854 10.732 4.95183 10.7807 4.96322 10.8045C4.86589 10.8496 4.76856 10.8953 4.6702 10.9378C4.66968 10.985 4.67279 11.0321 4.67952 11.0793C4.80014 11.0646 4.92388 11.0073 5.04347 11.058C5.42967 11.1903 5.73098 11.5081 5.89457 11.869C5.97015 12.0307 5.95618 12.2497 6.12288 12.3581C6.25075 12.4529 6.42263 12.4012 6.53704 12.312C6.30148 12.3526 6.15394 12.1539 6.01054 12.0074C6.21296 12.0616 6.39726 12.1625 6.57431 12.2704C6.58001 12.4134 6.64835 12.534 6.78864 12.5883C6.75292 12.6531 6.71409 12.7165 6.67268 12.7783C6.58622 12.9111 6.45265 13.0049 6.31857 13.0875C6.04574 13.2345 5.74495 13.3526 5.43226 13.3729C5.30749 13.3364 5.17859 13.3242 5.04968 13.308C4.96892 13.233 4.86434 13.2067 4.75821 13.1869C4.68159 13.1058 4.62257 13.0085 4.51541 12.9598C4.38857 12.8229 4.32489 12.6415 4.22653 12.4848C3.8543 12.7515 3.40235 12.9421 2.93279 12.9137C2.73037 12.9304 2.56263 12.8006 2.398 12.7064C2.02681 12.4032 1.79539 11.9359 1.80471 11.4604C1.81559 11.2927 1.87202 11.133 1.90308 10.9688C1.61472 10.8324 1.32946 10.689 1.03955 10.5557C0.964999 10.5323 0.922547 10.469 0.931348 10.3929C0.928242 10.2627 0.867153 10.136 0.884237 10.0067C1.00797 9.83993 1.23576 9.83081 1.41437 9.75478C1.51946 9.53935 1.3802 9.30314 1.39262 9.07859C1.40349 8.69184 1.38279 8.30458 1.4009 7.91885C1.43456 7.6872 1.69755 7.58532 1.91084 7.6137C2.79146 7.66338 3.66689 7.76729 4.53974 7.88641C4.69453 7.91631 4.85657 7.86714 5.00723 7.92037C5.13562 7.96092 5.27022 7.97764 5.40327 7.99691C5.4421 8.15961 5.52234 8.3056 5.62795 8.43587C5.73771 8.68677 5.78067 8.96657 5.92822 9.20278C6.04004 9.32443 6.24247 9.32595 6.34911 9.44963C6.50028 9.76998 6.55619 10.1289 6.7348 10.4381C6.85387 10.4725 6.97657 10.4969 7.09253 10.541C7.17433 10.5942 7.223 10.6869 7.30583 10.7386C7.40989 10.7594 7.49427 10.8213 7.5828 10.8755C7.70394 10.9079 7.8313 10.8973 7.95555 10.8998C7.94675 10.8765 7.92811 10.8304 7.91931 10.8076C8.09377 10.8694 8.2817 10.879 8.45927 10.9297C8.57834 10.99 8.68344 11.0742 8.80096 11.1381C8.98112 11.097 9.12814 10.9819 9.18872 10.8086C9.09346 10.7741 8.96455 10.7858 8.89777 10.7026C8.98888 10.6758 9.08621 10.6271 9.18302 10.657C9.27155 10.7097 9.34558 10.7827 9.42531 10.8476C9.39476 10.9024 9.36473 10.9571 9.33471 11.0124C9.3901 11.0042 9.44498 10.9961 9.50037 10.9885C9.50607 10.8608 9.50296 10.7331 9.51901 10.6063C9.59822 10.5308 9.70901 10.4756 9.71626 10.3539C9.431 10.3752 9.12245 10.2551 8.86722 10.4289C8.56022 10.2581 8.39922 9.88352 8.02026 9.83334C8.08808 9.78823 8.14968 9.72436 8.12742 9.63718C8.13622 9.53276 8.01301 9.50843 7.95555 9.44406C7.74898 9.05984 7.64285 8.62645 7.40419 8.25795C7.35967 8.0552 7.46476 7.86157 7.45493 7.65932C7.44768 7.15244 7.45752 6.64505 7.4513 6.13817C7.46217 6.03831 7.36226 5.98712 7.31256 5.91463C7.28616 5.80768 7.29392 5.69616 7.2903 5.58769L7.32809 5.59479C7.74639 5.6622 8.18541 5.79298 8.60371 5.65105C8.99975 5.56944 9.39217 5.46857 9.78925 5.39001C9.79443 5.38899 9.80478 5.38747 9.80996 5.38646C9.87415 5.3748 9.93835 5.36618 10.0036 5.36061C10.0051 5.40217 10.0093 5.48479 10.0108 5.52636C9.98442 5.53041 9.93162 5.53954 9.90573 5.5441C9.88399 5.53193 9.8405 5.50811 9.81824 5.49595C9.80996 5.55576 9.80168 5.61557 9.79288 5.67538C9.88088 5.73621 9.97614 5.7869 10.075 5.82846C10.1107 5.75699 10.1465 5.68501 10.1812 5.61354C10.1532 5.57857 10.1263 5.5441 10.0994 5.50912C10.0854 5.4559 10.0662 5.40521 10.0409 5.35655C10.0403 5.33628 10.0388 5.29522 10.0377 5.27494C10.0916 5.28305 10.1366 5.30739 10.1724 5.34794C10.264 5.42954 10.3986 5.46046 10.4659 5.56944C10.6088 5.78943 10.7035 6.03527 10.805 6.27553C10.7775 6.28972 10.7232 6.3176 10.6963 6.33179C10.6854 6.35663 10.6631 6.4058 10.6523 6.43064C10.5461 6.33382 10.4628 6.21724 10.3944 6.09305C10.4561 6.14577 10.5259 6.1924 10.6114 6.19342C10.6171 6.01094 10.5316 5.8462 10.4535 5.68704C10.4064 5.72049 10.3587 5.75446 10.3126 5.78994C10.3147 5.71188 10.2811 5.68096 10.2132 5.69768C10.1791 5.75446 10.192 5.80312 10.251 5.84367C10.2376 5.85989 10.2117 5.89182 10.1988 5.90804C10.1221 5.91057 10.0455 5.9126 9.96941 5.91818C9.85396 5.93693 9.74059 5.96735 9.62825 5.99979C9.43566 6.05909 9.23272 6.07835 9.04065 6.14171C9.06188 6.34852 9.29433 6.41999 9.42841 6.54874C9.42582 6.61565 9.42375 6.68205 9.4222 6.74896C9.49002 6.73375 9.55784 6.71804 9.62566 6.70182C9.63291 6.71297 9.64792 6.73477 9.65568 6.74541C9.67484 6.7743 9.71315 6.83158 9.7323 6.86047C9.74059 6.76569 9.75042 6.67141 9.75715 6.57713C9.81824 6.73933 9.80426 6.91066 9.80478 7.07894C10.0533 7.41146 10.0885 7.83369 10.1377 8.22956C10.1563 8.38923 10.1568 8.55042 10.1651 8.71161C10.3556 8.7258 10.5446 8.68779 10.7159 8.60567C10.7268 8.63 10.748 8.67917 10.7589 8.70401C10.7315 8.71972 10.6761 8.75165 10.6486 8.76737C10.5187 8.81349 10.3805 8.82617 10.2448 8.84391C10.2609 8.89967 10.2909 8.95035 10.3246 8.998C10.2935 9.05122 10.2614 9.10394 10.2288 9.15615C10.176 9.16831 10.1237 9.17997 10.0709 9.19163C10.1154 9.36448 10.0377 9.54746 10.1211 9.71372C10.1491 9.8227 10.2505 9.93827 10.3768 9.90127C10.5632 9.87795 10.5684 9.63921 10.7206 9.57027C10.8681 9.52617 10.8914 9.69902 10.9272 9.79533C10.9862 10.0037 10.8231 10.1648 10.631 10.2176C10.6295 10.2373 10.6264 10.2769 10.6248 10.2966C10.5586 10.2759 10.484 10.216 10.4141 10.2515C10.4027 10.3722 10.5725 10.3478 10.6486 10.3194C10.6704 10.3199 10.7139 10.3215 10.7356 10.3225C10.8982 10.3934 11.0799 10.3853 11.2476 10.4335C11.3812 10.6079 11.4671 10.8238 11.4801 11.0428C11.5857 11.021 11.6975 10.9911 11.799 11.0458C11.9108 11.098 12.0325 11.0544 12.1474 11.0372C12.1179 10.9536 12.0853 10.8714 12.0495 10.7908C11.96 10.8218 11.8694 10.8496 11.7783 10.876C11.8259 10.7609 11.9072 10.6585 11.9388 10.5384C11.9351 10.4011 11.8849 10.2617 11.9346 10.1273C12.0589 10.1709 12.0718 10.3139 12.1526 10.4005C12.1609 10.3357 12.1676 10.2708 12.1722 10.2059C12.2173 10.1745 12.2634 10.1451 12.311 10.1182C12.2825 9.95753 12.195 9.80901 12.1878 9.64478C12.2898 9.3807 12.473 9.12827 12.472 8.83833C12.3498 8.80386 12.2276 8.77041 12.1055 8.73543C12.2017 8.71009 12.297 8.67664 12.3809 8.62291C12.3084 8.49162 12.1515 8.45715 12.0107 8.46222C12.2023 8.42015 12.267 8.2103 12.2458 8.03948C12.2722 8.02935 12.325 8.00958 12.3514 7.99944C12.3457 7.97764 12.3343 7.93355 12.3286 7.91175C12.3483 7.91023 12.3866 7.90719 12.4057 7.90567C12.3296 7.7683 12.4202 7.62688 12.4518 7.49154C12.487 7.38763 12.4891 7.26193 12.5838 7.18792C12.5471 7.40183 12.4735 7.60711 12.4187 7.81696C12.4632 7.78756 12.4958 7.74853 12.5155 7.69987C12.5988 7.50016 12.7143 7.31413 12.7774 7.10631C12.75 7.10226 12.6946 7.09465 12.6672 7.09111C12.7163 7.0683 12.766 7.0465 12.8168 7.02673C12.9478 6.82601 13.014 6.58929 13.1595 6.39769C13.1818 6.39921 13.2258 6.40225 13.2475 6.40377C13.247 6.43317 13.2449 6.49248 13.2439 6.52238C13.2589 6.51529 13.2889 6.5016 13.3039 6.49501C13.35 6.47524 13.3966 6.45598 13.4432 6.43621C13.5794 6.38096 13.6337 6.23752 13.7077 6.12397C13.8796 5.84924 14.0375 5.5441 14.0582 5.21817C14.0593 5.169 14.0292 5.13048 13.9821 5.11527C13.9588 5.10514 13.9112 5.08436 13.8874 5.07371C13.8631 4.9181 13.9164 4.75843 13.9738 4.61448C14.0189 4.75995 14.0981 4.89123 14.1799 5.01948C14.2099 5.00123 14.2399 4.98349 14.27 4.96575C14.2601 4.83852 14.2368 4.7123 14.2058 4.58862C14.1457 4.57849 14.0857 4.56936 14.0261 4.56227C14.1369 4.50702 14.2751 4.48015 14.3383 4.36357C15.5006 3.06493 16.6442 1.75059 17.8147 0.458034C17.8095 0.682076 17.8069 0.907639 17.8385 1.13067C17.8302 1.11343 17.8137 1.07947 17.8054 1.06224C16.8776 2.09882 15.9442 3.12982 15.0217 4.17095C14.9057 4.30072 14.6919 4.43757 14.7773 4.63779C14.7991 4.78631 14.915 4.88262 15.045 4.94598C15.0382 5.04938 15.032 5.1538 15.0569 5.25568C14.9632 5.39153 14.8363 5.51166 14.7934 5.67538C15.0015 5.50253 15.1392 5.26785 15.3152 5.06662C15.499 4.83345 15.7273 4.62664 15.849 4.35242C15.6797 4.47559 15.5772 4.66162 15.4224 4.79949C15.4514 4.61752 15.6279 4.50144 15.7263 4.35242C15.9846 4.13699 16.2657 3.92917 16.436 3.63416C16.4816 3.54799 16.5473 3.47602 16.6323 3.42584C16.6286 3.38934 16.6255 3.35335 16.6224 3.31736C16.6421 3.31939 16.6814 3.32395 16.7011 3.32598C16.7037 3.25451 16.6928 3.17746 16.7332 3.11359C16.8414 2.92047 16.9625 2.73293 17.1039 2.56109C17.3643 2.25291 17.5843 1.91532 17.823 1.59143C17.8732 1.52553 17.9037 1.44899 17.9322 1.37296C17.9788 1.45457 18.029 1.53465 18.0792 1.61474C17.9519 1.65935 18.0751 1.79722 18.132 1.67405C18.1771 1.70243 18.2232 1.73031 18.2692 1.75768C18.335 1.84132 18.4002 1.92647 18.4779 1.99997C18.6663 2.10084 18.8516 1.80634 18.6725 1.69432C18.4696 1.55949 18.291 1.37955 18.2278 1.14081C18.2713 0.956807 18.2123 0.773315 18.175 0.594386C18.2169 0.417483 18.439 0.396701 18.5897 0.436238L18.5731 0.487433C18.5151 0.647101 18.4975 0.816907 18.4396 0.976068C18.4861 0.955286 18.5338 0.935518 18.5819 0.916763C18.7041 0.866075 18.8408 0.842759 18.9516 0.768754C19.0101 0.681063 18.9945 0.571576 19.0018 0.472227C19.1322 0.505681 19.2586 0.584248 19.3978 0.568535C19.4801 0.513285 19.4491 0.391632 19.4734 0.306983ZM18.6917 1.12459C18.6611 1.25131 18.6632 1.38563 18.7471 1.49309C18.7362 1.52097 18.7248 1.54935 18.7139 1.57774C18.7383 1.57064 18.7859 1.55696 18.8097 1.54986C18.8837 1.44139 18.9718 1.31974 18.9464 1.18186C18.8915 1.08961 18.7792 1.12611 18.6917 1.12459ZM17.7997 2.02937C17.8996 1.97209 17.9871 1.89049 18.0192 1.77796C17.9182 1.83524 17.8426 1.92394 17.7997 2.02937ZM17.662 2.14393C17.634 2.2159 17.6573 2.23871 17.7308 2.21236C17.7583 2.14038 17.735 2.11757 17.662 2.14393ZM19.9419 2.50179C19.9683 2.52764 19.9683 2.52764 19.9419 2.50179ZM19.9942 2.60316C20.0201 2.62901 20.0201 2.62901 19.9942 2.60316ZM16.5732 3.51961C16.5996 3.54597 16.5996 3.54597 16.5732 3.51961ZM21.405 4.38739C21.3444 4.45075 21.4552 4.48978 21.4899 4.5278C21.4619 4.58862 21.434 4.64945 21.405 4.71028C21.6193 5.12896 21.8186 5.55474 22.0164 5.98154C22.1064 5.98053 22.1794 5.92578 22.2524 5.88067C22.0402 5.43461 21.7891 5.0063 21.6012 4.54909C21.5587 4.47458 21.524 4.30883 21.405 4.38739ZM14.4144 4.87552C14.3709 4.91911 14.4222 5.0286 14.4874 4.9992C14.5345 4.95459 14.4802 4.8446 14.4144 4.87552ZM14.4978 5.0874C14.6691 5.09551 14.4175 5.23896 14.4978 5.0874ZM14.5583 5.23845C14.5847 5.2643 14.5847 5.2643 14.5583 5.23845ZM9.73437 5.49848C9.90573 5.50558 9.65517 5.65055 9.73437 5.49848ZM10.3132 5.54359C10.3396 5.56944 10.3396 5.56944 10.3132 5.54359ZM14.0406 5.70833C13.8139 5.99776 13.657 6.33129 13.4375 6.62528C13.4624 6.84831 13.2335 6.99176 13.2418 7.21428C13.3775 7.21225 13.3241 7.01051 13.4515 6.98821C13.4018 7.15497 13.2827 7.29437 13.2517 7.46721C13.1678 7.56859 13.1077 7.69278 12.9892 7.7607C13.0047 7.69024 13.0244 7.61928 13.1005 7.59089C13.086 7.54477 13.0073 7.44086 12.9757 7.53412C12.9115 7.63803 12.8665 7.75208 12.8328 7.86866C12.8566 7.91479 12.8805 7.96041 12.9048 8.00704C13.3438 7.4809 13.7756 6.94918 14.2073 6.41797C14.2658 6.34751 14.3052 6.26489 14.3347 6.17973C14.4087 6.13259 14.4004 6.0373 14.3425 5.98154C14.2689 5.89943 14.2922 5.78284 14.2762 5.68298C14.197 5.68805 14.1188 5.69616 14.0406 5.70833ZM14.6085 5.88827C14.5092 5.9785 14.5573 6.1331 14.6008 6.24056C14.6619 6.38705 14.9482 6.25272 14.8229 6.11992C14.7597 6.03983 14.7333 5.8827 14.6085 5.88827ZM21.5991 5.8979C21.6255 5.92375 21.6255 5.92375 21.5991 5.8979ZM21.6503 5.99928C21.6768 6.02513 21.6768 6.02513 21.6503 5.99928ZM21.4288 6.08697C21.4971 6.2441 21.2579 6.09356 21.4288 6.08697C21.4536 6.05402 21.4536 6.05402 21.4288 6.08697ZM21.7021 6.10015C21.7285 6.126 21.7285 6.126 21.7021 6.10015ZM21.4971 6.13918C21.435 6.29074 21.4055 6.45548 21.3361 6.60349C21.1647 6.79559 20.9556 6.95323 20.8003 7.16004C20.6615 7.22239 20.7237 7.40993 20.7449 7.52398C20.9204 7.98322 21.1875 8.41711 21.5556 8.75318C21.6172 8.81603 21.6995 8.851 21.786 8.86722C21.786 8.84695 21.786 8.80538 21.7865 8.7846C21.829 8.814 21.8766 8.83732 21.9237 8.86165C22.0775 8.68931 22.3177 8.62595 22.5206 8.52406C22.6205 8.52305 22.5889 8.6371 22.5988 8.70046C22.6293 8.70756 22.6904 8.72124 22.7215 8.72834C22.6723 8.54789 22.6304 8.34767 22.7411 8.17989C22.8126 8.08206 22.767 7.97308 22.692 7.89452C22.7168 7.85092 22.7417 7.80784 22.7676 7.76577C22.6407 7.59089 22.4036 7.68112 22.2193 7.65223C22.0505 7.51334 22.0402 7.28322 21.9465 7.10124C21.8336 6.82702 21.6938 6.56496 21.5872 6.28871C21.5618 6.2365 21.5484 6.17365 21.4971 6.13918ZM21.7544 6.20203C21.7808 6.22788 21.7808 6.22788 21.7544 6.20203ZM8.01871 6.24258C8.02078 6.32673 8.0244 6.41138 8.02958 6.49602C7.98713 6.74693 8.03268 7.00037 8.0301 7.25229C8.03734 7.58278 8.03838 7.92442 8.159 8.23818C8.34331 8.43029 8.58249 8.5636 8.78801 8.7329C9.09501 8.93008 9.36163 9.18048 9.67329 9.37107C9.82135 9.26513 9.79029 9.07657 9.82963 8.92298C9.94612 8.52964 9.88917 8.11095 9.78045 7.72218L9.75301 7.72572C9.73696 7.62282 9.69244 7.52956 9.62773 7.44846C9.58528 7.23658 9.45533 7.01 9.26171 6.89849C9.21719 6.78444 9.09812 6.71297 8.99717 6.6486C8.96196 6.56902 8.86308 6.54418 8.79526 6.49755L8.78646 6.46004C8.58973 6.38654 8.39508 6.24563 8.17505 6.29733C8.12276 6.27908 8.07099 6.26083 8.01871 6.24258ZM21.8057 6.30341C21.8321 6.32926 21.8321 6.32926 21.8057 6.30341ZM21.8574 6.40428C21.8838 6.43013 21.8838 6.43013 21.8574 6.40428ZM21.9004 6.50667C22.0718 6.51478 21.8207 6.65823 21.9004 6.50667ZM15.1765 6.57915C15.2334 6.67445 15.2246 6.86301 15.3711 6.85794C15.3235 6.75504 15.2816 6.63947 15.1765 6.57915ZM21.9615 6.65772C21.9874 6.68408 21.9874 6.68408 21.9615 6.65772ZM15.0615 6.81131C14.9875 6.93651 15.0864 7.0688 15.1309 7.18691C15.0351 7.12558 15.0015 6.94158 14.8747 6.9578C14.7312 7.07387 14.6479 7.24469 14.5071 7.36533C14.5977 7.5696 14.6122 7.79061 14.593 8.01059C14.6458 7.97663 14.6997 7.9452 14.754 7.91378C14.753 7.94013 14.7504 7.99184 14.7494 8.01769C14.9363 7.90567 14.9891 7.66997 15.1133 7.50168C15.1444 7.4221 15.2712 7.32123 15.1822 7.24114L15.1589 7.21681C15.2205 7.15041 15.1754 7.06627 15.164 6.99074C15.3012 6.96743 15.2624 7.11493 15.2857 7.19907C15.3639 7.17373 15.3913 7.08806 15.3716 7.01457C15.2888 6.92079 15.1713 6.86808 15.0615 6.81131ZM13.16 7.26598C13.1859 7.29183 13.1859 7.29183 13.16 7.26598ZM13.0518 7.37648C13.0099 7.42565 13.0772 7.52551 13.1393 7.49256C13.1802 7.44288 13.1134 7.34252 13.0518 7.37648ZM22.2203 7.41805C22.2467 7.4439 22.2467 7.4439 22.2203 7.41805ZM22.4787 7.41805C22.5051 7.4439 22.5051 7.4439 22.4787 7.41805ZM14.3958 7.5103C14.3109 7.60052 14.2777 7.72826 14.1747 7.80378C13.861 8.14998 13.5835 8.52913 13.3542 8.93413C13.4158 9.20582 13.3718 9.50843 13.568 9.73754C13.6513 9.67874 13.6798 9.57585 13.7228 9.48917C13.8196 9.23573 13.9858 9.01675 14.1084 8.77497C14.1245 8.7841 14.1561 8.80234 14.1721 8.81147C14.1701 8.66701 14.2348 8.53572 14.316 8.41914C14.3316 8.42877 14.3632 8.44803 14.3787 8.45716C14.3735 8.32993 14.4429 8.22095 14.4853 8.10589C14.5045 7.94267 14.5014 7.77692 14.4874 7.6137C14.4905 7.54882 14.46 7.51435 14.3958 7.5103ZM1.87926 7.92696C1.86632 7.94013 1.84043 7.967 1.82749 7.98018C1.7633 8.37403 1.76796 8.77193 1.77469 9.16933C1.76226 9.29503 1.94967 9.30466 1.95071 9.42632C2.07392 9.40807 2.19765 9.38881 2.32242 9.38171C2.29135 9.41567 2.26029 9.44913 2.22923 9.48309C2.33484 9.46636 2.48239 9.50235 2.54348 9.39083C2.70293 9.13384 2.81941 8.85354 2.96282 8.58742C3.07982 8.5783 3.19734 8.57323 3.31434 8.57678C3.2812 8.60669 3.24859 8.63761 3.21701 8.66903C3.36766 8.65332 3.51779 8.63102 3.66948 8.6224C3.64877 8.66396 3.61564 8.69691 3.5706 8.72023C3.74403 8.7106 3.91694 8.66802 4.09037 8.70299C4.03343 8.49618 3.97027 8.2762 3.84084 8.10335C3.57422 8.04607 3.2988 8.02732 3.02908 7.98727C2.64702 7.94976 2.26392 7.88793 1.87926 7.92696ZM4.13852 8.11856C4.13127 8.2691 4.33991 8.2321 4.44345 8.26556C4.44448 8.22855 4.44655 8.15505 4.44811 8.11805C4.34457 8.11298 4.24154 8.11298 4.13852 8.11856ZM12.8075 8.17989C12.7469 8.25947 12.6884 8.34057 12.6309 8.42218C12.6646 8.47186 12.7013 8.52001 12.7396 8.56715C12.8427 8.51595 12.9762 8.4085 12.9302 8.28076C12.8986 8.23717 12.8504 8.2103 12.8075 8.17989ZM4.80532 8.46121C4.80636 8.65535 4.91922 8.82211 4.95287 9.00915C4.90731 9.0274 4.86123 9.04565 4.81568 9.0644C5.09058 9.0862 5.3603 9.14601 5.6352 9.17034C5.58395 8.97113 5.52752 8.76585 5.41052 8.59351C5.22932 8.49416 5.01137 8.46172 4.80532 8.46121ZM2.98974 8.85506C3.0881 8.93109 3.11606 9.05629 3.19268 9.14702C3.35782 9.21697 3.54678 9.20683 3.72177 9.24333C3.89779 9.26259 4.10435 9.31835 4.26122 9.20785C4.33214 9.22001 4.41135 9.25549 4.46623 9.18808C4.37149 9.04818 4.23378 8.93819 4.07691 8.87229C3.86517 8.9022 3.65809 8.85303 3.44894 8.82819C3.30139 8.78815 3.11295 8.73138 2.98974 8.85506ZM8.07928 8.78004C8.11655 8.99242 8.19938 9.19315 8.27238 9.39539C8.29827 9.49626 8.3987 9.55202 8.49965 9.55709C8.71968 9.5723 8.93504 9.63718 9.15714 9.62147C9.06602 9.39286 8.80769 9.29858 8.63063 9.14398C8.44219 9.02993 8.30137 8.83377 8.07928 8.78004ZM5.07867 9.29199C5.08695 9.35991 5.11491 9.44152 5.19463 9.45521C5.37997 9.50843 5.57773 9.54493 5.76929 9.50488C5.77187 9.47802 5.77757 9.42479 5.78016 9.39844C5.55392 9.3295 5.31526 9.29605 5.07867 9.29199ZM13.0435 9.28033C13.0399 9.37968 13.042 9.47903 13.0503 9.57787C13.086 9.57889 13.1579 9.5799 13.1937 9.58041C13.2009 9.48055 13.2025 9.3807 13.1983 9.28084C13.1595 9.28084 13.0824 9.28033 13.0435 9.28033ZM2.37263 11.2029C2.11999 11.4092 2.15106 11.7899 2.2898 12.052C2.40111 12.2466 2.59576 12.4499 2.84426 12.425C2.97783 12.4235 3.16627 12.3926 3.19992 12.2405C3.01459 12.2106 2.8044 12.1812 2.68377 12.0231C2.58179 11.9131 2.5823 11.7605 2.58593 11.6216C2.63304 11.5279 2.63252 11.4214 2.65944 11.3221C2.69309 11.2349 2.7547 11.1553 2.74797 11.058C2.61026 11.0286 2.43631 11.0676 2.37263 11.2029ZM2.8075 11.1117C2.96437 11.0387 2.80906 11.28 2.8075 11.1117ZM10.966 11.5106C10.7574 11.4462 10.5285 11.4822 10.3121 11.4721C10.1133 11.5491 9.88658 11.5679 9.71004 11.6916C9.66656 11.7605 9.70745 11.8315 9.77113 11.8695C9.83584 11.8365 9.90159 11.8056 9.96838 11.7762C9.9984 11.8173 10.0289 11.8583 10.0595 11.8999C10.1325 11.8964 10.2055 11.8918 10.2785 11.8867C10.3577 12.0079 10.4747 12.0834 10.6181 12.1148C10.7082 12.2405 10.8014 12.3647 10.9256 12.4636C10.9499 12.7114 11.1689 12.9461 11.434 12.9395C11.5888 12.8341 11.6892 12.6587 11.8865 12.6156C11.8544 12.4144 11.8016 12.2101 11.6908 12.0363C11.7741 12.0393 11.858 12.0403 11.9419 12.0357C11.9693 11.9182 12.0154 11.8016 12.1241 11.7342C12.2297 11.7412 12.3576 11.8188 12.4394 11.721C12.3726 11.6429 12.2882 11.5684 12.2815 11.4599C12.0682 11.3824 11.8388 11.3722 11.6183 11.3271C11.5339 11.2724 11.4614 11.2019 11.3838 11.1396C11.1891 11.1857 10.9883 11.2952 10.966 11.5106ZM4.58944 11.762C4.34353 12.2015 4.70437 12.8599 5.2257 12.8787C5.41725 12.8858 5.55703 12.7352 5.64918 12.5888C5.59534 12.6166 5.54201 12.6455 5.48869 12.6749C5.32613 12.6303 5.14079 12.5979 5.03052 12.46C4.91559 12.3353 4.88298 12.1635 4.87935 12.0008L4.91973 12.016C4.87884 11.8502 4.83949 11.6835 4.85295 11.5121C4.73699 11.5588 4.62568 11.6389 4.58944 11.762ZM2.84374 11.6084C2.84426 11.647 2.8453 11.724 2.84581 11.7625C2.88568 11.763 2.96437 11.7641 3.00371 11.7646C2.9975 11.7321 2.98404 11.6662 2.97783 11.6333C2.94418 11.6272 2.87739 11.6145 2.84374 11.6084ZM5.1791 12.1599C5.20136 12.1736 5.2464 12.201 5.26867 12.2147C5.33027 12.1655 5.32768 12.0875 5.33338 12.0175C5.23864 12.0064 5.16047 12.0611 5.1791 12.1599ZM9.52885 12.6734L9.48484 12.6724C9.4662 12.8721 9.42531 13.0885 9.52833 13.2741C9.61944 13.4915 9.7877 13.6943 10.0295 13.7551C10.2557 13.8463 10.5296 13.7551 10.6693 13.564C10.4638 13.6203 10.2728 13.5032 10.0843 13.4413C9.84879 13.3055 9.79443 13.0216 9.82083 12.7753C9.79391 12.6278 9.79754 12.4788 9.83843 12.3348C9.70435 12.4108 9.51539 12.4914 9.52885 12.6734ZM12.3079 13.0794C12.1075 13.4008 12.2214 13.8332 12.4989 14.0744C12.691 14.262 13.0161 14.3897 13.2636 14.2306C13.4106 14.2392 13.4955 14.0638 13.5731 13.9604C13.6197 13.7769 13.5887 13.5828 13.6063 13.3957H13.5664C13.569 13.5899 13.6171 13.8088 13.497 13.9807C13.4297 14.0988 13.2729 14.0466 13.1611 14.0501C13.0679 14.0096 12.9591 14.009 12.8711 13.9584C12.7365 13.8489 12.6144 13.7115 12.5662 13.5437C12.5295 13.4322 12.5911 13.3141 12.5548 13.2036C12.5471 13.0541 12.6123 12.9223 12.6894 12.7986C12.5393 12.8544 12.3493 12.9035 12.3079 13.0794ZM10.1956 12.8757C10.1951 12.9446 10.1962 13.0135 10.1982 13.0835C10.2309 13.0769 10.2961 13.0642 10.3282 13.0581C10.3913 12.9568 10.3085 12.8594 10.1956 12.8757ZM10.7724 13.2675C10.731 13.2051 10.7418 13.1134 10.7817 13.0531C10.8511 13.0698 10.848 13.2543 10.7724 13.2675ZM13.1481 13.5422C13.0668 13.5427 12.8862 13.5311 12.9679 13.4099C13.0699 13.3425 13.1678 13.4342 13.1481 13.5422Z" fill="#040404"/>
<path d="M13.8889 6.25779C13.9588 6.18531 13.9925 6.31811 13.9361 6.35461C13.8677 6.43165 13.8268 6.29226 13.8889 6.25779Z" fill="#242525"/>
<path d="M13.4536 6.95019C13.541 6.75656 13.6379 6.55026 13.8325 6.43824C13.7626 6.5751 13.6296 6.6709 13.5804 6.81891C13.5623 6.88227 13.5043 6.91471 13.4536 6.95019Z" fill="#242525"/>
<path d="M11.1907 7.37395C11.2642 7.37141 11.2554 7.49915 11.2155 7.53767C11.1415 7.5397 11.1508 7.41196 11.1907 7.37395Z" fill="#242525"/>
<path d="M6.57431 7.86968C6.68148 7.82102 6.79537 7.7906 6.90771 7.75614C7.00867 7.92797 7.03662 8.12413 7.09823 8.30915C7.23128 8.50379 7.20902 8.76331 7.36536 8.94427C7.37054 9.25398 7.62629 9.49981 7.63405 9.80851C7.46528 9.85615 7.28823 9.91698 7.1148 9.85159C7.02109 9.67672 6.92117 9.50488 6.83731 9.32545C6.77415 9.145 6.75551 8.95289 6.73118 8.76483C6.7084 8.65383 6.78657 8.56005 6.83109 8.46476C6.77311 8.36541 6.64886 8.3502 6.54998 8.31016C6.61004 8.16925 6.5945 8.01667 6.57431 7.86968Z" fill="#242525"/>
<path d="M24.0245 9.8004C24.0649 9.81408 24.1058 9.82827 24.1467 9.84247C24.1726 9.97527 24.1736 10.1106 24.1483 10.2439C24.1705 10.253 24.2151 10.2713 24.2373 10.2804C24.1804 10.3098 24.125 10.3417 24.0685 10.3711C24.0012 10.4041 23.9339 10.435 23.8661 10.4659C23.7605 10.3904 23.73 10.5491 23.8433 10.5572C23.8615 10.5648 23.8977 10.58 23.9153 10.5876C23.9717 10.6134 24.0287 10.6403 24.0856 10.6672C24.0618 10.8583 24.0592 11.0514 24.0918 11.242C24.0385 11.2602 23.966 11.2506 23.9293 11.2992C23.9355 11.3753 23.9671 11.3783 24.0235 11.3094C24.0468 11.3155 24.0934 11.3281 24.1162 11.3347C24.1094 11.4726 23.9769 11.538 23.8682 11.5958C23.7999 11.5638 23.731 11.5329 23.6647 11.4969L23.6528 11.4594L23.6927 11.4422C23.6948 11.4199 23.6989 11.3753 23.701 11.353C23.6927 11.1548 23.7005 10.9561 23.701 10.7579C23.5493 10.6783 23.3707 10.7544 23.2097 10.762C23.2283 10.8106 23.2469 10.8598 23.2661 10.9095C23.191 10.9206 23.1165 10.9307 23.0419 10.9404C23.0342 10.8055 23.0533 10.6697 23.1289 10.5541C23.2226 10.6074 23.3127 10.6753 23.4245 10.6859C23.4173 10.583 23.4266 10.4705 23.3691 10.3803C23.2977 10.3412 23.2226 10.3093 23.1496 10.2748C23.1481 10.2424 23.1444 10.1765 23.1429 10.1436C23.4318 10.1329 23.7186 10.0863 23.9976 10.0143C24.0018 9.98135 24.0111 9.91495 24.0152 9.882C24.0178 9.86173 24.0225 9.82067 24.0245 9.8004Z" fill="#242525"/>
<path d="M15.5813 11.5081C15.7925 11.6389 15.9137 11.8583 16.0721 12.0403C16.1943 12.1939 16.39 12.2674 16.509 12.424C16.3801 12.3439 16.2595 12.2441 16.1094 12.204C16.1472 12.3799 16.2347 12.5411 16.3687 12.6653C16.4873 12.7697 16.4454 12.9405 16.4604 13.0794C16.3713 13.2502 16.1461 13.3222 15.9862 13.4271C15.7449 13.5017 15.4855 13.6253 15.2303 13.5437C15.0833 13.5184 14.9326 13.5082 14.7965 13.4429C14.7872 13.3085 14.7737 13.1752 14.7727 13.0409C14.855 13.0338 14.9373 13.0272 15.0201 13.0257C15.2355 13.0789 15.4659 13.0399 15.6377 12.8975C15.7221 12.8275 15.7672 12.7282 15.8101 12.6313C15.6005 12.7672 15.2733 12.8118 15.1087 12.5867C15.2624 12.4798 15.4353 12.3982 15.5704 12.2669C15.527 12.131 15.3799 11.9557 15.5482 11.8477C15.5259 11.7326 15.5011 11.6084 15.5813 11.5081Z" fill="#040404"/>
<path d="M8.71243 5.24909L8.72899 5.24808C8.72485 5.24808 8.71657 5.24909 8.71243 5.24909Z" fill="#BCB1B6"/>
<path d="M4.33111 6.66026C4.43568 6.63187 4.50039 6.7226 4.56666 6.78444C4.65674 6.87568 4.75407 6.98061 4.75718 7.11544C4.73388 7.21022 4.77581 7.35063 4.66709 7.40183C4.55424 7.15497 4.401 6.92434 4.33111 6.66026Z" fill="#BCB1B6"/>
<path d="M6.29061 8.41762C6.27922 8.3497 6.24195 8.33804 6.17879 8.38366C6.1907 8.45107 6.22797 8.46222 6.29061 8.41762Z" fill="#BCB1B6"/>
<path d="M23.7647 8.88851C23.7993 8.88699 23.8687 8.88446 23.9034 8.88345C23.9086 8.92248 23.9179 9.00155 23.9231 9.04058L23.8496 9.04565C23.7817 9.01675 23.7724 8.95137 23.7647 8.88851Z" fill="#BCB1B6"/>
<path d="M23.5301 9.38678C23.6585 9.35383 23.7859 9.31734 23.9163 9.29098L23.9624 9.28135C23.9702 9.30922 23.9852 9.36498 23.9924 9.39286C23.8899 9.5505 23.6171 9.56875 23.5301 9.38678Z" fill="#BCB1B6"/>
<path d="M23.0808 9.6904C23.4338 9.62805 23.8061 9.63262 24.1374 9.48207C24.1094 9.61386 23.994 9.72234 23.8501 9.69091C23.833 9.68989 23.7993 9.68787 23.7828 9.68635C23.7843 9.74464 23.8149 9.80698 23.79 9.86376C23.7294 9.91039 23.6632 9.94942 23.599 9.99098C23.7393 9.96158 23.8801 9.93016 24.0152 9.882C24.0111 9.91495 24.0018 9.98135 23.9976 10.0143C23.7186 10.0863 23.4318 10.1329 23.1429 10.1436C23.1408 10.104 23.1362 10.0239 23.1341 9.98389C23.1248 9.9332 23.1155 9.88302 23.1061 9.83284C23.0999 9.79735 23.087 9.72588 23.0808 9.6904ZM23.4628 9.75021C23.4892 9.77607 23.4892 9.77607 23.4628 9.75021Z" fill="#BCB1B6"/>
<path d="M24.4843 10.4299C24.5215 10.3559 24.5536 10.3585 24.58 10.4375C24.5557 10.4355 24.5081 10.432 24.4843 10.4299Z" fill="#BCB1B6"/>
<path d="M24.5143 10.9916C24.5138 10.986 24.5127 10.9753 24.5122 10.9698L24.5143 10.9916Z" fill="#BCB1B6"/>
<path d="M23.4721 11.7382C23.7481 11.6297 24.0566 11.6338 24.3434 11.5578C24.3362 11.6328 24.2792 11.6794 24.2171 11.7154C23.9557 11.7499 23.6968 11.8122 23.4318 11.8142C23.4416 11.795 23.4618 11.7575 23.4721 11.7382Z" fill="#BCB1B6"/>
<path d="M23.5498 11.8837C23.7517 11.8426 23.9536 11.8011 24.156 11.7615C24.1565 11.7869 24.1576 11.8381 24.1586 11.8639C24.2166 11.8467 24.2746 11.8294 24.3326 11.8117C24.3424 11.9785 24.1374 12.0094 24.009 12.0165C23.8563 12.0246 23.7051 12.0368 23.5534 12.0504C23.5524 11.9947 23.5508 11.9394 23.5498 11.8837Z" fill="#BCB1B6"/>
<path d="M18.6917 1.12459C18.7792 1.12611 18.8915 1.08961 18.9464 1.18186C18.9718 1.31974 18.8837 1.44139 18.8097 1.54986C18.7859 1.55696 18.7383 1.57064 18.7139 1.57774C18.7248 1.54935 18.7362 1.52097 18.7471 1.49309C18.6632 1.38563 18.6611 1.25131 18.6917 1.12459ZM18.8325 1.31517C18.7528 1.37499 18.6839 1.23407 18.7528 1.18541C18.8315 1.12712 18.8998 1.26601 18.8325 1.31517Z" fill="#8B8D8F"/>
<path d="M18.2863 1.58179C18.4121 1.6188 18.5343 1.66644 18.6451 1.73639C18.6663 1.86413 18.5969 1.95537 18.4779 1.99997C18.4002 1.92647 18.335 1.84132 18.2692 1.75768C18.2889 1.75008 18.3283 1.73437 18.3479 1.72626C18.3272 1.6781 18.3065 1.62995 18.2863 1.58179ZM18.5255 1.89049C18.4251 1.92191 18.3779 1.76123 18.4825 1.74095C18.5726 1.71713 18.6249 1.8697 18.5255 1.89049Z" fill="#8B8D8F"/>
<path d="M13.9775 4.56987L14.0261 4.56227C14.0857 4.56936 14.1457 4.57849 14.2058 4.58862C14.2368 4.7123 14.2601 4.83852 14.27 4.96575C14.2399 4.98349 14.2099 5.00123 14.1799 5.01948C14.0981 4.89123 14.0189 4.75995 13.9738 4.61448L13.9775 4.56987ZM14.1706 4.76198C14.0872 4.78783 14.0582 4.75944 14.0836 4.67581C14.1669 4.64996 14.1954 4.67834 14.1706 4.76198Z" fill="#8B8D8F"/>
<path d="M10.0036 5.36061L10.0409 5.35655C10.0662 5.40521 10.0854 5.4559 10.0994 5.50912C10.0771 5.51318 10.0331 5.5218 10.0108 5.52636C10.0093 5.48479 10.0051 5.40217 10.0036 5.36061Z" fill="#8B8D8F"/>
<path d="M9.73437 5.49848C9.90573 5.50558 9.65517 5.65055 9.73437 5.49848Z" fill="#8B8D8F"/>
<path d="M21.1989 5.92984C21.2191 5.85989 21.1927 5.83454 21.1197 5.85431C21.099 5.92426 21.1254 5.9491 21.1989 5.92984Z" fill="#8B8D8F"/>
<path d="M8.01871 6.24258C8.07099 6.26083 8.12276 6.27908 8.17505 6.29733C8.17402 6.35967 8.17402 6.42253 8.17557 6.48538C8.13933 6.48791 8.06634 6.49349 8.02958 6.49602C8.0244 6.41138 8.02078 6.32673 8.01871 6.24258Z" fill="#8B8D8F"/>
<path d="M15.0615 6.81131C15.1713 6.86808 15.2888 6.92079 15.3716 7.01457C15.3913 7.08806 15.3639 7.17373 15.2857 7.19907C15.2624 7.11493 15.3012 6.96743 15.164 6.99074C15.1754 7.06627 15.2205 7.15041 15.1589 7.21681L15.1309 7.18691C15.0864 7.0688 14.9875 6.93651 15.0615 6.81131Z" fill="#8B8D8F"/>
<path d="M12.8075 8.17989C12.8504 8.2103 12.8986 8.23717 12.9302 8.28076C12.9762 8.4085 12.8427 8.51595 12.7396 8.56715C12.7013 8.52001 12.6646 8.47186 12.6309 8.42218C12.6884 8.34057 12.7469 8.25947 12.8075 8.17989Z" fill="#8B8D8F"/>
<path d="M4.80532 8.46121C5.01137 8.46172 5.22932 8.49416 5.41052 8.59351C5.52752 8.76585 5.58395 8.97113 5.6352 9.17034C5.3603 9.14601 5.09058 9.0862 4.81568 9.0644C4.86123 9.04565 4.90731 9.0274 4.95287 9.00915C4.91922 8.82211 4.80636 8.65535 4.80532 8.46121ZM5.01292 8.63254C5.03208 8.75875 5.06262 8.89561 5.16357 8.98533C5.2433 9.02081 5.33338 9.01878 5.4188 9.02841C5.38826 8.9316 5.36185 8.83174 5.30335 8.74709C5.22 8.68272 5.11284 8.66041 5.01292 8.63254Z" fill="#8B8D8F"/>
<path d="M5.07867 9.29199C5.31526 9.29605 5.55392 9.3295 5.78016 9.39844C5.77757 9.42479 5.77187 9.47802 5.76929 9.50488C5.57773 9.54493 5.37997 9.50843 5.19463 9.45521C5.11491 9.44152 5.08695 9.35991 5.07867 9.29199Z" fill="#8B8D8F"/>
<path d="M23.1098 9.47092C23.1859 9.44102 23.2635 9.41364 23.3417 9.38678C23.3743 9.45369 23.4059 9.52161 23.4359 9.59055C23.4432 9.52769 23.4514 9.46535 23.4618 9.40351C23.4789 9.39945 23.513 9.39083 23.5301 9.38678C23.6171 9.56875 23.8899 9.5505 23.9924 9.39286C24.0654 9.35991 24.0965 9.44 24.1374 9.48207C23.8061 9.63262 23.4338 9.62805 23.0808 9.6904C23.087 9.72588 23.0999 9.79735 23.1061 9.83284C23.0704 9.82219 22.9995 9.8009 22.9638 9.79077C22.9632 9.75275 22.9632 9.71524 22.9632 9.67773C23.0161 9.65898 23.0689 9.64022 23.1227 9.62197C23.117 9.57179 23.1129 9.5211 23.1098 9.47092Z" fill="#8B8D8F"/>
<path d="M23.7828 9.68635C23.7993 9.68787 23.833 9.68989 23.8501 9.69091C23.9101 9.72386 23.9681 9.76086 24.0245 9.8004C24.0225 9.82067 24.0178 9.86173 24.0152 9.882C23.8801 9.93016 23.7393 9.96158 23.599 9.99098C23.6632 9.94942 23.7294 9.91039 23.79 9.86376C23.8149 9.80698 23.7843 9.74464 23.7828 9.68635Z" fill="#8B8D8F"/>
<path d="M24.2373 10.2804C24.3098 10.2485 24.3947 10.2682 24.4703 10.2809C24.5883 10.3052 24.6737 10.3853 24.7162 10.4953C24.682 10.4811 24.6137 10.4522 24.58 10.4375C24.5536 10.3585 24.5215 10.3559 24.4843 10.4299C24.4133 10.4624 24.3429 10.4958 24.2694 10.5217C24.2487 10.5242 24.2078 10.5288 24.1871 10.5313C24.1607 10.4685 24.1327 10.4036 24.0685 10.3711C24.125 10.3417 24.1804 10.3098 24.2373 10.2804Z" fill="#8B8D8F"/>
<path d="M2.2898 12.052C2.15106 11.7899 2.11999 11.4092 2.37263 11.2029C2.46996 11.3276 2.56833 11.4604 2.58593 11.6216C2.5823 11.7605 2.58179 11.9131 2.68377 12.0231C2.8044 12.1812 3.01459 12.2106 3.19992 12.2405C3.16627 12.3926 2.97783 12.4235 2.84426 12.425C2.59576 12.4499 2.40111 12.2466 2.2898 12.052Z" fill="#8B8D8F"/>
<path d="M24.1162 11.3347C24.1327 11.3393 24.1664 11.3484 24.183 11.3535C24.2534 11.4062 24.3258 11.467 24.3434 11.5578C24.0566 11.6338 23.7481 11.6297 23.4721 11.7382C23.4618 11.7575 23.4416 11.795 23.4318 11.8142C23.3852 11.7803 23.3386 11.7473 23.2925 11.7149C23.4048 11.6247 23.5343 11.5578 23.6647 11.4969C23.731 11.5329 23.7999 11.5638 23.8682 11.5958C23.9769 11.538 24.1094 11.4726 24.1162 11.3347Z" fill="#8B8D8F"/>
<path d="M5.2257 12.8787C4.70437 12.8599 4.34353 12.2015 4.58944 11.762C4.69712 11.8274 4.796 11.906 4.87935 12.0008C4.88298 12.1635 4.91559 12.3353 5.03052 12.46C5.14079 12.5979 5.32613 12.6303 5.48869 12.6749C5.54201 12.6455 5.59534 12.6166 5.64918 12.5888C5.55703 12.7352 5.41725 12.8858 5.2257 12.8787Z" fill="#8B8D8F"/>
<path d="M23.4949 12.0464C23.5136 11.9744 23.4872 11.9496 23.4157 11.9719C23.3971 12.0428 23.4235 12.0677 23.4949 12.0464Z" fill="#8B8D8F"/>
<path d="M14.4066 12.052C14.4615 12.056 14.5651 12.0763 14.5381 12.1533C14.5066 12.1959 14.4646 12.2243 14.4118 12.239C14.4035 12.1767 14.4041 12.1138 14.4066 12.052Z" fill="#8B8D8F"/>
<path d="M9.48484 12.6724L9.52885 12.6734C9.62928 12.6977 9.72506 12.7368 9.82083 12.7753C9.79443 13.0216 9.84879 13.3055 10.0843 13.4413C10.2728 13.5032 10.4638 13.6203 10.6693 13.564C10.5296 13.7551 10.2557 13.8463 10.0295 13.7551C9.7877 13.6943 9.61944 13.4915 9.52833 13.2741C9.42531 13.0885 9.4662 12.8721 9.48484 12.6724Z" fill="#8B8D8F"/>
<path d="M14.6935 12.7758C15.0082 12.6714 15.3204 12.8863 15.6377 12.8975C15.4659 13.0399 15.2355 13.0789 15.0201 13.0257C14.9 12.9583 14.768 12.8954 14.6935 12.7758Z" fill="#8B8D8F"/>
<path d="M12.4989 14.0744C12.2214 13.8332 12.1075 13.4008 12.3079 13.0794C12.3892 13.122 12.4715 13.1641 12.5548 13.2036C12.5911 13.3141 12.5295 13.4322 12.5662 13.5437C12.6144 13.7115 12.7365 13.8489 12.8711 13.9584C12.9591 14.009 13.0679 14.0096 13.1611 14.0501C13.1942 14.1104 13.2273 14.1712 13.2636 14.2306C13.0161 14.3897 12.691 14.262 12.4989 14.0744Z" fill="#8B8D8F"/>
<path d="M9.62825 5.99979C9.74059 5.96735 9.85396 5.93693 9.96941 5.91818C10.2319 6.12904 10.4923 6.35866 10.6471 6.65975C10.8443 7.0024 10.9463 7.38712 11.0157 7.77185C11.0364 7.87779 11.0338 7.98677 11.0183 8.09372C10.9577 8.11906 10.8977 8.14542 10.8381 8.17178C10.864 8.21537 10.8899 8.25896 10.9158 8.30256C10.7781 8.3502 10.6383 8.39025 10.4954 8.41711C10.5239 8.29698 10.5653 8.1809 10.6098 8.06584C10.468 8.08662 10.3235 8.1216 10.2267 8.23362C10.2044 8.23261 10.1599 8.23058 10.1377 8.22956C10.0885 7.83369 10.0533 7.41146 9.80478 7.07894C9.80426 6.91066 9.81824 6.73933 9.75715 6.57713C9.71418 6.384 9.59874 6.20406 9.62825 5.99979Z" fill="#020303"/>
<path d="M8.17505 6.29733C8.39508 6.24563 8.58973 6.38654 8.78646 6.46004L8.79526 6.49755C8.86878 6.83006 8.88379 7.18589 8.81079 7.51942C8.63218 7.35773 8.59387 7.11239 8.44944 6.92789C8.44167 6.8402 8.43339 6.75301 8.42407 6.66634C8.36712 6.6491 8.31069 6.63238 8.25426 6.61616C8.22734 6.57256 8.20094 6.52897 8.17557 6.48538C8.17402 6.42253 8.17402 6.35967 8.17505 6.29733Z" fill="#020303"/>
<path d="M9.62566 6.70182C9.62669 6.63136 9.57492 6.48538 9.66604 6.46105C9.71988 6.54722 9.6738 6.65468 9.65568 6.74541C9.64792 6.73477 9.63291 6.71297 9.62566 6.70182Z" fill="#020303"/>
<path d="M9.62773 7.44846C9.69244 7.52956 9.73696 7.62282 9.75301 7.72572C9.72506 7.72876 9.66863 7.73586 9.64067 7.7389C9.63498 7.64209 9.63135 7.54476 9.62773 7.44846Z" fill="#020303"/>
<path d="M10.4576 8.53927C10.6471 8.47794 10.8371 8.34767 11.0442 8.40292C10.9334 8.46577 10.8169 8.5195 10.6983 8.56563C10.6134 8.58235 10.4918 8.65991 10.4576 8.53927Z" fill="#020303"/>
<path d="M10.7589 8.70401C10.8298 8.69032 10.9018 8.6817 10.9738 8.67359C10.9732 8.69792 10.9717 8.74608 10.9712 8.77041C10.9354 8.8216 10.8977 8.87179 10.8599 8.92146C10.7884 8.87128 10.718 8.81958 10.6486 8.76737C10.6761 8.75165 10.7315 8.71972 10.7589 8.70401Z" fill="#020303"/>
<path d="M1.03955 10.5557C1.32946 10.689 1.61472 10.8324 1.90308 10.9688C1.87202 11.133 1.81559 11.2927 1.80471 11.4604C1.79539 11.9359 2.02681 12.4032 2.398 12.7064C2.56263 12.8006 2.73037 12.9304 2.93279 12.9137C3.40235 12.9421 3.8543 12.7515 4.22653 12.4848C4.32489 12.6415 4.38857 12.8229 4.51541 12.9598C4.62257 13.0085 4.68159 13.1058 4.75821 13.1869C4.86434 13.2067 4.96892 13.233 5.04968 13.308C5.17859 13.3242 5.30749 13.3364 5.43226 13.3729C5.74495 13.3526 6.04574 13.2345 6.31857 13.0875C6.31029 13.1661 6.29061 13.2497 6.21089 13.2883C5.94634 13.4449 5.64245 13.5645 5.32768 13.5422C4.71887 13.5138 4.15146 13.2624 3.6115 13.0064C3.3863 13.045 3.1642 13.1352 2.93072 13.1053C2.40111 13.0495 1.8746 12.8822 1.43248 12.5883C1.32791 12.5208 1.20004 12.4164 1.23472 12.2785C1.28132 12.2208 1.33567 12.1701 1.38796 12.1174C1.03903 11.9835 0.664213 11.9329 0.311657 11.8102C0.231413 11.7894 0.183785 11.7215 0.137191 11.6607C0.224683 11.5537 0.348932 11.4868 0.455061 11.4001C0.306998 11.2344 0.0817971 11.1284 0 10.9089C0.337025 10.7675 0.693205 10.6732 1.03955 10.5557Z" fill="#020303" fill-opacity="0.2"/>
<path d="M6.8606 11.7691L6.9103 11.7565C7.20384 11.8675 7.37624 12.1635 7.68686 12.2431C8.07979 12.4043 8.50069 12.2223 8.85894 12.0586C8.95937 12.1072 9.05618 12.1625 9.14626 12.2284C9.08932 12.426 8.99095 12.6182 8.99872 12.8285C9.02616 13.3055 9.25032 13.7845 9.6531 14.0678C9.95388 14.2605 10.3365 14.3928 10.6926 14.2787C10.9903 14.2245 11.2476 14.0613 11.4909 13.894C11.5862 13.8271 11.6488 13.7277 11.7182 13.638C11.8818 13.8509 11.9149 14.1474 12.1267 14.334C12.2753 14.4718 12.4057 14.6437 12.6107 14.702C12.9845 14.9012 13.4406 14.8713 13.8196 14.7009C13.6606 14.8976 13.3976 14.9944 13.1471 15C12.4999 14.9559 11.8766 14.7476 11.2844 14.4977C11.142 14.446 10.9986 14.3111 10.8392 14.3745C10.4649 14.52 10.044 14.4733 9.66604 14.3654C9.3052 14.2894 8.963 14.1525 8.62804 14.006C8.40336 13.9031 8.16884 13.7901 8.00887 13.599C7.91568 13.4844 8.06944 13.3825 8.12069 13.2867C8.0301 13.2447 7.92966 13.235 7.8344 13.2092C7.58073 13.1124 7.3752 12.9015 7.09668 12.8686C6.95327 12.8473 6.80883 12.828 6.67268 12.7783C6.71409 12.7165 6.75292 12.6531 6.78864 12.5883C6.90306 12.3313 6.89891 12.0413 6.8606 11.7691Z" fill="#020303" fill-opacity="0.39"/>
<path d="M16.7218 12.7844C16.8481 12.8234 16.9703 12.8772 17.0992 12.9081C17.2105 12.9223 17.3213 12.8828 17.4331 12.8888C17.6356 12.9192 17.8095 13.0551 18.0187 13.0536C18.2242 13.0536 18.4225 13.1144 18.5969 13.2183C18.7497 13.3121 18.9448 13.2543 19.1017 13.3389C19.2063 13.3861 19.3057 13.4505 19.4216 13.4707C19.6857 13.5103 19.9295 13.6203 20.1821 13.6983C20.3318 13.7445 20.3768 13.9087 20.486 14.0025C20.5559 14.0395 20.6294 14.0694 20.7019 14.1033C20.616 14.2934 20.3846 14.3076 20.2205 14.3988C20.3897 14.6031 20.7294 14.6011 20.8567 14.8479C20.6729 14.9681 20.4322 14.8875 20.2557 14.7907C19.9616 14.6279 19.6406 14.522 19.3445 14.3649C19.1799 14.2787 18.9883 14.2782 18.8149 14.2204C18.1745 13.7931 17.3689 13.7313 16.7042 13.3501C16.6871 13.2665 16.669 13.1828 16.6519 13.0997C16.6152 13.0911 16.5411 13.0749 16.5044 13.0662C16.5908 12.9836 16.6607 12.8858 16.7218 12.7844Z" fill="#020303"/>
<path d="M14.7965 13.4429C14.9326 13.5082 15.0833 13.5184 15.2303 13.5437C15.4855 13.6253 15.7449 13.5017 15.9862 13.4271C15.7133 13.8053 15.1672 13.7186 14.7659 13.6456C14.7784 13.5777 14.7892 13.5103 14.7965 13.4429Z" fill="#020303"/>
</svg>
