<svg width="26" height="9" viewBox="0 0 26 9" fill="none" xmlns="http://www.w3.org/2000/svg">
<path d="M5.02798 0.164336C5.35344 0.087757 5.68718 0.0491895 6.01855 0C6.19161 0.251537 6.14022 0.561207 6.14318 0.844605C6.1355 1.12633 6.22351 1.40134 6.20697 1.68362C6.21288 1.89715 6.17153 2.11794 6.22942 2.32756C6.52948 2.74511 6.89865 3.1185 7.168 3.55562C6.98253 3.59978 6.79115 3.58245 6.60332 3.56959C6.74626 3.5517 6.89039 3.53717 7.03451 3.52376C6.77284 3.17663 6.5159 2.82336 6.21406 2.50531C6.26309 2.8379 6.26013 3.17328 6.27431 3.5081C6.33515 3.53438 6.39658 3.56121 6.45801 3.58804C6.32038 3.61263 6.18216 3.62772 6.04276 3.63499C5.8313 3.48575 5.55664 3.65008 5.35758 3.74679C5.44145 3.75238 5.52533 3.75685 5.60921 3.75908C5.4952 3.79598 5.38179 3.83287 5.26602 3.86361C5.31091 3.75238 5.37175 3.64282 5.38179 3.52264C5.38179 3.5204 5.3812 3.51537 5.3812 3.51258C5.19868 3.0654 5.26011 2.57574 5.30619 2.11068C5.3056 2.10732 5.30501 2.10061 5.30442 2.09726C5.10418 1.54556 5.29142 0.945779 5.12308 0.386807C5.09709 0.310228 5.06106 0.237561 5.02798 0.164336ZM5.6287 0.405812C5.59857 0.484068 5.62634 0.51034 5.71021 0.484627C5.73975 0.40693 5.71257 0.380658 5.6287 0.405812ZM5.27547 0.468417C5.3056 0.496924 5.3056 0.496924 5.27547 0.468417ZM5.60389 0.742872C5.7746 0.735046 5.82244 0.572385 5.86556 0.445499C5.73443 0.505868 5.58558 0.58077 5.60389 0.742872ZM5.39715 0.527668C5.32509 0.524873 5.23885 0.567356 5.22349 0.638904C5.26248 0.769703 5.53537 0.593067 5.39715 0.527668ZM5.27311 0.802123C5.30323 0.83063 5.30323 0.83063 5.27311 0.802123ZM5.80649 0.859697C5.83721 0.888204 5.83721 0.888204 5.80649 0.859697ZM5.62988 0.905533C5.80649 0.818892 5.63874 1.09111 5.62988 0.905533ZM5.39597 0.975964C5.32095 0.989379 5.2359 1.07825 5.27488 1.15148C5.35994 1.19228 5.49934 1.01565 5.39597 0.975964ZM5.71435 0.997205C5.70312 1.06316 5.68895 1.12912 5.67477 1.19508C5.80944 1.16769 5.93821 1.10509 5.92758 0.955282C5.85611 0.968138 5.78523 0.982113 5.71435 0.997205ZM5.3942 1.19452C5.42432 1.22303 5.42432 1.22303 5.3942 1.19452ZM5.79645 1.30743C5.99315 1.31582 5.7049 1.47345 5.79645 1.30743ZM5.63047 1.35327C5.80649 1.26607 5.63992 1.53941 5.63047 1.35327ZM5.25244 1.39743C5.25421 1.4673 5.25657 1.53773 5.25893 1.60816C5.32568 1.60704 5.39302 1.60648 5.45976 1.60592C5.44204 1.49637 5.36407 1.42426 5.25244 1.39743ZM5.67772 1.55897C5.66709 1.67188 5.91104 1.64561 5.88564 1.53941C5.83189 1.48966 5.72203 1.50307 5.67772 1.55897ZM5.8378 1.75908C5.78936 1.79877 5.72911 1.81889 5.66827 1.83454C5.66886 1.86585 5.66886 1.92845 5.66886 1.95975C5.76455 1.93125 5.85079 1.88317 5.91341 1.80771C5.8945 1.79542 5.8567 1.77138 5.8378 1.75908ZM5.27606 1.85578C5.45208 1.76858 5.28551 2.04136 5.27606 1.85578ZM5.44972 1.9251C5.35699 1.89603 5.30028 2.03745 5.4066 2.05534C5.49993 2.09111 5.5525 1.94075 5.44972 1.9251ZM5.80826 1.96422C5.75156 1.96087 5.64524 2.05198 5.73856 2.08161C5.83898 2.12912 5.97188 1.94354 5.80826 1.96422ZM5.64878 2.46115C5.77991 2.41699 5.95652 2.38793 5.98488 2.23197C5.84075 2.25936 5.68954 2.31191 5.64878 2.46115ZM5.33454 2.31302C5.36466 2.34097 5.36466 2.34097 5.33454 2.31302ZM5.38475 2.42426C5.27016 2.44774 5.31859 2.62269 5.43141 2.58804C5.546 2.56568 5.49402 2.39072 5.38475 2.42426ZM5.69663 2.64673C5.62279 2.7166 5.75924 2.77585 5.80531 2.71045C5.88033 2.6417 5.74152 2.57853 5.69663 2.64673ZM5.32332 2.78144C5.30442 2.8692 5.46095 2.89156 5.49048 2.81442C5.51292 2.7261 5.35226 2.7071 5.32332 2.78144ZM5.6476 2.89883C5.78877 2.91448 5.9831 2.92118 5.98192 2.73505C5.85729 2.75461 5.69131 2.75964 5.6476 2.89883ZM5.44795 2.92454C5.33986 2.90665 5.31091 3.05757 5.43555 3.04025C5.54541 3.06149 5.57022 2.90665 5.44795 2.92454ZM5.74802 3.20682C5.77814 3.23477 5.77814 3.23477 5.74802 3.20682ZM5.80708 3.32029C5.8378 3.34824 5.8378 3.34824 5.80708 3.32029Z" fill="#0D0D0D"/>
<path d="M1.47269 0.748462C1.86431 0.690329 2.24943 0.590273 2.64459 0.562883C2.87259 0.951927 2.72079 1.4019 2.81116 1.81833C2.8661 2.10173 2.81057 2.39128 2.85665 2.6758C2.93639 3.07043 2.85665 3.47512 2.9417 3.86976C2.99723 4.05478 2.86669 4.32141 3.06161 4.44494C2.92989 4.50587 2.79344 4.55841 2.65522 4.60648L2.62628 4.56903C2.7834 4.47904 2.60974 4.31973 2.52705 4.47401C2.416 4.3583 2.21989 4.17328 2.41718 4.04192L2.44022 4.08329C2.46325 4.08329 2.50992 4.08273 2.53354 4.08273C2.59675 4.14813 2.66054 4.21353 2.72433 4.27949C2.77986 4.18278 2.85015 4.09055 2.87673 3.98211C2.8472 3.88094 2.7202 3.87814 2.6375 3.8351C2.63869 3.88821 2.64046 3.94075 2.64223 3.99441C2.43667 3.95808 2.23112 3.92398 2.02438 3.89547C2.12243 3.79206 2.1945 3.67244 2.2193 3.53438C2.16496 3.58916 2.1118 3.64505 2.05805 3.70095C2.05214 3.64841 2.06868 3.58357 2.02792 3.54164C1.96118 3.54835 1.92278 3.6104 1.88144 3.65344C1.80819 3.5545 1.70246 3.45836 1.70423 3.32867C1.69419 3.11459 1.7379 2.90218 1.74086 2.68865C1.79343 2.69983 1.846 2.71045 1.89916 2.72107C1.86135 2.79262 1.82414 2.86417 1.78693 2.93628C1.8519 2.90497 1.91629 2.87423 1.98008 2.84293C1.98126 2.75405 1.98776 2.66629 1.99839 2.57853C1.90861 2.60425 1.81823 2.6294 1.72786 2.65511C1.61268 2.41643 1.6936 2.15204 1.65698 1.90162C1.61091 1.59922 1.62804 1.28955 1.54475 0.993292C1.52289 0.911123 1.4975 0.830072 1.47269 0.748462ZM2.18918 1.01677C2.15965 1.13751 2.13956 1.25936 2.13484 1.38345C2.21812 1.35103 2.30436 1.32644 2.39119 1.30632C2.33862 1.26328 2.28605 1.22023 2.23407 1.17775C2.32326 1.17999 2.41246 1.18111 2.50224 1.18166C2.4095 1.10732 2.30377 1.05254 2.18918 1.01677ZM2.4414 1.02739C2.47152 1.0559 2.47152 1.0559 2.4414 1.02739ZM1.79697 1.08105C1.74794 1.13415 1.69833 1.1867 1.64871 1.23924C1.7125 1.33426 1.79461 1.41531 1.89738 1.47289C1.93342 1.40358 1.9157 1.34265 1.85308 1.2957C1.96177 1.29905 1.91806 1.19228 1.9281 1.12689C1.88439 1.11123 1.84068 1.09614 1.79697 1.08105ZM2.43549 1.24651C2.46562 1.27501 2.46562 1.27501 2.43549 1.24651ZM1.6812 1.41979C1.71132 1.44774 1.71132 1.44774 1.6812 1.41979ZM2.18977 1.70207C2.26833 1.78088 2.36402 1.83566 2.47389 1.86641C2.44258 1.81051 2.41068 1.75517 2.37879 1.69983C2.42309 1.66406 2.46739 1.62772 2.5111 1.59195C2.43372 1.60313 2.35043 1.6199 2.3333 1.52431C2.289 1.5858 2.24057 1.64449 2.18977 1.70207ZM2.15433 1.58636C2.18445 1.61487 2.18445 1.61487 2.15433 1.58636ZM1.72963 1.61207C1.74322 1.73281 1.74263 1.85467 1.72727 1.97596C1.81292 1.94634 1.89975 1.91559 1.96886 1.8569C1.88852 1.77585 1.8076 1.6948 1.72963 1.61207ZM1.90447 1.69257C1.9346 1.72107 1.9346 1.72107 1.90447 1.69257ZM2.20395 1.80995C2.23407 1.83846 2.23407 1.83846 2.20395 1.80995ZM2.2004 2.019C2.20749 2.12968 2.20926 2.24092 2.19981 2.35159C2.31381 2.32812 2.4284 2.30688 2.54359 2.28787C2.42132 2.20738 2.30554 2.11906 2.2004 2.019ZM2.43608 2.02012C2.32622 2.04919 2.403 2.1962 2.49751 2.16937C2.6062 2.14366 2.53118 1.98602 2.43608 2.02012ZM1.90447 2.04192C1.92337 2.11403 1.94228 2.18614 1.96118 2.2588C1.88852 2.20961 1.81587 2.16098 1.74322 2.11235C1.74086 2.21073 1.73731 2.30911 1.73259 2.40749C1.74794 2.41867 1.77866 2.44047 1.79402 2.45109C1.83418 2.3583 1.9346 2.37675 2.01906 2.38289C1.9978 2.26551 2.05923 2.08888 1.90447 2.04192ZM2.28664 2.50363C2.26479 2.55841 2.24352 2.61375 2.22167 2.66965C2.2642 2.66573 2.34984 2.65847 2.39237 2.65511C2.34453 2.72331 2.29668 2.7915 2.24825 2.8597C2.34571 2.83231 2.44376 2.80659 2.54181 2.78144C2.50874 2.72051 2.47507 2.65959 2.44317 2.5981C2.48924 2.55673 2.52823 2.51034 2.56072 2.45947C2.46916 2.47289 2.3782 2.4891 2.28664 2.50363ZM2.55481 2.93069C2.46148 2.90162 2.40655 3.0436 2.51287 3.06093C2.60679 3.0967 2.65759 2.94634 2.55481 2.93069ZM2.29314 2.97205C2.2766 3.0626 2.26361 3.15372 2.24943 3.24483C2.3085 3.27222 2.36756 3.30017 2.42722 3.32756C2.41009 3.29067 2.37465 3.21632 2.35752 3.17943C2.44435 3.20458 2.53177 3.2303 2.61919 3.25489C2.56367 3.11515 2.41305 3.05254 2.29314 2.97205ZM1.80288 3.12074C1.77098 3.2303 1.8011 3.33706 1.8649 3.43041C1.89207 3.34936 1.87376 3.21576 2.0043 3.23812C1.99721 3.30911 1.99012 3.38066 1.98421 3.45277C2.06986 3.35047 2.074 3.22191 2.08109 3.09726C1.98835 3.10956 1.89561 3.11347 1.80288 3.12074ZM2.5489 3.43097C2.57844 3.45947 2.57844 3.45947 2.5489 3.43097ZM2.27247 3.56176C2.31677 3.55897 2.40478 3.55226 2.44908 3.54947C2.39946 3.61934 2.35103 3.68921 2.30259 3.7602C2.40301 3.73169 2.50401 3.70375 2.60502 3.67691C2.60206 3.51705 2.35339 3.36668 2.27247 3.56176ZM2.43608 4.15875C2.46621 4.1867 2.46621 4.1867 2.43608 4.15875Z" fill="#0D0D0D"/>
<path d="M9.33166 3.52543C9.77408 3.57406 10.2194 3.59922 10.6589 3.67021C12.0954 3.83622 13.5302 4.0123 14.9679 4.16378L14.9608 4.22024C14.9177 4.27222 14.874 4.32365 14.8291 4.37395C14.6649 4.35048 14.4977 4.34656 14.3335 4.37172C14.366 4.28787 14.3778 4.20123 14.3743 4.11291C14.2089 4.23868 14.0211 4.35215 13.799 4.31414C13.8498 4.24595 13.9006 4.17775 13.9508 4.11012C13.6023 4.07323 13.3187 4.3365 13.1055 4.56568C13.1941 4.57183 13.2827 4.57742 13.3713 4.58245C13.2945 4.61766 13.2189 4.65567 13.1439 4.69536C13.06 4.55282 12.9915 4.40078 12.8893 4.26887C12.8001 4.14757 12.6288 4.16266 12.4918 4.14589C12.314 4.14142 12.1362 4.09223 11.9584 4.11347C11.8668 4.16657 11.8237 4.26607 11.7889 4.35774C11.7168 4.30799 11.6448 4.2588 11.5721 4.21017C11.6524 4.18055 11.7322 4.15092 11.8131 4.12186C11.7948 4.0967 11.7593 4.04528 11.7416 4.01956C11.6749 4.02515 11.6087 4.0313 11.5426 4.03801C11.5266 4.10676 11.5113 4.17608 11.4971 4.24595C11.4646 4.1744 11.4303 4.10453 11.3919 4.03689C11.0883 3.93795 10.7581 4.01174 10.4516 3.92454C10.1415 3.83231 9.81188 3.87479 9.49705 3.80827C9.49114 3.73784 9.48642 3.66797 9.48169 3.59866C9.43148 3.57295 9.38187 3.54891 9.33166 3.52543Z" fill="#0D0D0D"/>
<path d="M20.0802 4.75796C20.4978 4.66573 20.8245 4.33594 21.2598 4.30072C21.2834 4.63387 21.2763 4.97037 21.2096 5.29961C21.1216 5.28507 21.033 5.27445 20.9456 5.26495C20.9662 5.33482 20.9899 5.40414 21.0229 5.47065C21.0755 5.51425 21.1405 5.53382 21.2173 5.5299C21.4447 5.58468 21.6715 5.64561 21.8972 5.71045C21.9769 5.74511 22.0631 5.76523 22.1523 5.77082C22.4542 5.89044 22.779 5.96981 23.1069 5.90441C23.0519 6.17887 22.9999 6.45556 22.9982 6.73561C23.1671 6.71213 23.4459 6.70654 23.4365 6.48295C23.4483 6.09838 23.4796 5.71492 23.5339 5.3337C23.4205 5.31414 23.3077 5.29346 23.1955 5.2711C23.3496 5.13806 23.603 5.25209 23.7991 5.22694C23.8216 5.37283 23.8671 5.53382 23.7607 5.66182C23.629 5.83566 23.7483 6.04639 23.7826 6.23197C24.1978 6.34097 24.6137 6.44997 25.0277 6.56288C25.1335 6.60033 25.2711 6.62549 25.3219 6.73449C25.3438 6.85467 25.3443 6.97708 25.352 7.09894C25.394 7.10397 25.4778 7.11347 25.5198 7.1185C25.4802 7.07155 25.4412 7.02515 25.4028 6.97876C25.681 6.95416 25.9959 7.16434 26 7.43823C25.6846 7.40413 25.3656 7.31973 25.0484 7.37898C24.8606 7.40358 24.6798 7.47009 24.4908 7.47512C24.4577 7.46786 24.3922 7.45276 24.3597 7.44494C24.0602 7.34824 23.7389 7.37786 23.4294 7.39128C23.3307 7.39854 23.2321 7.40972 23.1334 7.4142C22.8233 7.38345 22.4973 7.33203 22.2002 7.45444C22.1724 7.44494 22.1169 7.42594 22.0897 7.41643C21.8387 7.31582 21.5646 7.32364 21.3012 7.28563C21.1175 7.18278 21.1866 6.93739 21.1588 6.7697C21.1771 6.42817 20.9627 6.12409 20.6975 5.91224C20.4405 5.71269 20.0832 5.763 19.7878 5.65064C19.6478 5.61543 19.4966 5.5109 19.3519 5.58692C19.1635 5.6825 19.0188 5.83566 18.8617 5.96925C18.792 5.88317 18.7228 5.79709 18.6537 5.71101C18.5663 5.76747 18.447 5.80045 18.4092 5.90441C18.2846 6.18278 18.3466 6.49525 18.2663 6.78256C18.1989 6.84852 18.1115 6.89212 18.0318 6.94298C18.0601 6.61487 18.1127 6.28563 18.0625 5.95696C18.0158 5.92677 17.9697 5.89659 17.9243 5.86696C17.9514 5.82169 17.9768 5.77585 18.0022 5.73001C17.965 5.71436 17.89 5.6825 17.8528 5.66685C17.9113 5.6389 17.9703 5.61151 18.03 5.58468C18.1546 5.62381 18.2822 5.65399 18.4092 5.68642C18.3383 5.52655 18.2887 5.35886 18.2828 5.18558C18.3401 5.28507 18.3944 5.38681 18.4482 5.4891C18.4801 5.49022 18.5439 5.49189 18.5758 5.49245C18.5645 5.40972 18.5516 5.32811 18.5362 5.2465C18.7028 5.21912 18.8493 5.3052 19.0052 5.34209C19.0956 5.32476 19.1629 5.25713 19.2421 5.21576C19.2226 5.16378 19.2042 5.11235 19.1859 5.06093C19.2704 5.03801 19.3543 5.01509 19.4387 4.99105C19.395 4.93739 19.3519 4.88429 19.3088 4.83175C19.3318 4.78591 19.3549 4.74008 19.3791 4.6948C19.616 4.68418 19.8445 4.75629 20.0802 4.75796ZM23.6302 5.31638C23.6296 5.43152 23.629 5.54723 23.6284 5.6635C23.6586 5.64226 23.7188 5.60033 23.7483 5.57909C23.7472 5.49189 23.7495 5.40581 23.7548 5.31973C23.7235 5.31861 23.6615 5.31694 23.6302 5.31638ZM23.577 5.94746C23.7737 5.95528 23.4855 6.11347 23.577 5.94746ZM23.5948 6.1062C23.5694 6.1839 23.5983 6.21129 23.681 6.18837C23.7058 6.10956 23.6769 6.08217 23.5948 6.1062ZM23.9379 6.37842C23.8629 6.43208 23.795 6.5081 23.7873 6.60033C23.8157 6.68027 23.8871 6.73505 23.9799 6.72163C24.2167 6.7261 24.4713 6.74958 24.6916 6.64896C24.6899 6.62716 24.6863 6.58301 24.6852 6.56065C24.4382 6.49637 24.1937 6.39296 23.9379 6.37842ZM21.4618 6.91839C21.4016 7.00894 21.3614 7.10956 21.3177 7.20794C21.5776 7.16601 21.8422 7.16098 22.1051 7.16545C22.1003 7.08328 22.095 7.00112 22.0903 6.91951C22.0135 6.97988 21.9326 7.03633 21.867 7.10788C21.8771 7.04863 21.8877 6.98994 21.8977 6.93125C21.7566 6.89659 21.6018 6.86026 21.4618 6.91839ZM22.2173 6.95752C22.1163 7.00112 22.1547 7.11291 22.1594 7.19452C22.4317 7.19564 22.704 7.19955 22.9757 7.21688C23.1352 7.23309 23.2386 7.08384 23.2262 6.94634C22.8901 6.96814 22.5534 6.96422 22.2173 6.95752ZM23.2699 7.2275C23.3449 7.22415 23.4205 7.22079 23.4961 7.21856C23.5192 7.19061 23.564 7.13527 23.5865 7.10732C23.5221 7.11962 23.4583 7.13247 23.3945 7.14645C23.4158 7.06763 23.4359 6.98882 23.4548 6.91056C23.3053 6.95696 23.2876 7.10061 23.2699 7.2275Z" fill="#0D0D0D"/>
<path d="M11.0812 4.51761C11.1634 4.46842 11.2437 4.41755 11.3234 4.36501C11.3128 4.44941 11.3022 4.53382 11.2933 4.61878C11.4835 4.57965 11.6365 4.46506 11.7889 4.35774C11.7623 4.52599 11.6075 4.62158 11.4882 4.73169C11.6081 4.73784 11.715 4.68698 11.8166 4.63331C11.8934 4.72051 11.9702 4.80716 12.0482 4.89435C11.9808 4.91448 11.9129 4.9346 11.8456 4.95528C11.8964 5.11738 11.7977 5.2683 11.7404 5.41531C11.9094 5.39799 12.0872 5.34321 12.2532 5.40358C12.4191 5.45724 12.5845 5.51313 12.754 5.55841C12.6861 5.57742 12.6188 5.59642 12.5514 5.61598C12.5485 5.67244 12.5461 5.72946 12.5444 5.78647C12.0966 5.75238 11.6536 5.68418 11.2106 5.61766C10.6666 5.52767 10.1155 5.47848 9.57502 5.37116C8.73921 5.24818 7.90045 5.14421 7.06523 5.01789C6.67479 4.95305 6.2749 4.94019 5.89155 4.83678C6.02091 4.77809 6.14731 4.71492 6.27549 4.65456C6.17035 4.63946 6.06462 4.62381 5.96007 4.60704C6.3192 4.50419 6.67833 4.67635 7.03924 4.68697C7.0605 4.654 7.08177 4.62102 7.10303 4.5886C7.06641 4.56847 6.99257 4.52767 6.95536 4.50755C7.20226 4.4455 7.45271 4.51705 7.69194 4.57462C7.49878 4.62828 7.29973 4.59754 7.10657 4.56512C7.28496 4.78256 7.59447 4.76132 7.85378 4.79486C8.27434 4.82392 8.6825 4.9346 9.10366 4.95919C9.41731 4.98043 9.72623 5.0408 10.034 5.09894C9.97904 5.01174 9.92352 4.9251 9.86917 4.83846C10.0706 4.84684 10.308 4.82057 10.4498 4.98602C10.3825 5.02683 10.3151 5.06763 10.2484 5.11012C10.3264 5.12353 10.4061 5.19061 10.4829 5.13303C10.5998 5.03074 10.6707 4.88988 10.7912 4.79262C10.8993 4.72666 11.0293 4.70877 11.1515 4.67803C11.1279 4.62437 11.1043 4.57071 11.0812 4.51761ZM10.6613 5.02068C10.8255 4.98882 10.9921 4.96255 11.1498 4.90833C11.1563 4.88709 11.1681 4.84516 11.1746 4.82392C10.9838 4.81386 10.7428 4.82225 10.6613 5.02068Z" fill="#0D0D0D"/>
<path d="M5.85847 5.53214C6.01205 5.54444 6.16031 5.58301 6.3068 5.62828C6.20343 5.82336 6.10006 6.04472 6.19516 6.26328C6.2365 6.53046 6.5348 6.62158 6.76812 6.69424C6.90279 6.75349 7.0162 6.61599 7.06523 6.51314C7.20285 6.22359 6.99139 5.93739 6.91874 5.66014C7.23121 5.60704 7.43558 5.85634 7.64409 6.03018C7.69075 6.10061 7.73683 6.17216 7.78231 6.24427C7.77404 6.26328 7.75809 6.30128 7.75041 6.32029C7.70375 6.55618 7.65177 6.82672 7.42022 6.96702C7.09712 7.15316 6.6677 7.32588 6.30975 7.11738C5.774 6.80045 5.56018 6.06037 5.85847 5.53214Z" fill="#0D0D0D"/>
<path d="M7.99436 5.9754C8.13967 5.86026 8.3405 5.88541 8.49703 5.96478C8.43324 6.07993 8.33814 6.18837 8.32042 6.32085C8.3281 6.50251 8.38421 6.69033 8.50294 6.83566C8.58445 6.89938 8.69373 6.91839 8.78883 6.95919L8.82958 6.98211C8.90165 7.02403 8.96957 7.07211 9.03691 7.1213C9.15505 7.03801 9.30508 6.96478 9.33993 6.81666C9.41967 6.54388 9.25664 6.28675 9.16273 6.03857C9.26728 6.02348 9.37714 5.97485 9.48228 6.01509C9.63172 6.09726 9.76285 6.20682 9.88926 6.31861C9.94183 6.40525 9.99026 6.49413 10.0399 6.58301C10.031 6.60481 10.0127 6.64785 10.0039 6.66965C9.95364 6.82504 9.93533 6.99441 9.83728 7.13192C9.74336 7.26383 9.59569 7.3488 9.45452 7.42929L9.41554 7.44885C9.10248 7.58133 8.70554 7.6171 8.41374 7.41811C8.11309 7.22638 7.94652 6.89547 7.9099 6.56065C7.95006 6.36724 7.93825 6.16434 7.99436 5.9754Z" fill="#0D0D0D"/>
<path d="M19.7264 6.14869C19.8924 6.0341 20.0501 6.20906 20.1759 6.29681C20.1611 6.30967 20.1322 6.33426 20.1174 6.34656C20.3425 6.46003 20.5055 6.65064 20.6839 6.81777C20.7223 6.86305 20.7938 6.91504 20.7625 6.98155C20.6845 7.15148 20.5593 7.29737 20.4506 7.44997C20.3254 7.6512 20.0436 7.67859 19.8233 7.63555C19.4092 7.57239 19.066 7.19005 19.105 6.78927C19.2645 6.54276 19.4712 6.31135 19.7264 6.14869ZM19.9213 6.91336C19.8528 6.93013 19.8197 7.02851 19.8694 7.07826C19.9645 7.12185 20.0277 6.92398 19.9213 6.91336Z" fill="#0D0D0D"/>
<path d="M4.9695 0.513694C4.95473 0.425935 5.06637 0.419228 5.12308 0.386807C5.29142 0.945779 5.10418 1.54556 5.30442 2.09726L5.30619 2.11068C5.26011 2.57574 5.19868 3.0654 5.3812 3.51258L5.38179 3.52264C5.37175 3.64282 5.31091 3.75238 5.26602 3.86361C5.18333 3.8815 5.10004 3.89659 5.01676 3.91224C5.04924 3.89212 5.11422 3.85187 5.1467 3.83175C4.84487 3.72275 4.51409 3.71548 4.19571 3.74734C4.1963 3.67803 4.19689 3.60928 4.19808 3.54108C4.4946 3.39296 4.79761 3.25042 5.06047 3.05143C5.09354 2.98267 5.05515 2.90609 5.05161 2.83566C4.98072 2.47513 5.05633 2.10732 5.00967 1.74511C4.93879 1.33818 4.95946 0.923979 4.9695 0.513694Z" fill="#121212"/>
<path d="M1.36341 1.1308C1.35632 1.03354 1.47859 1.02627 1.54475 0.993292C1.62804 1.28955 1.61091 1.59922 1.65698 1.90162C1.6936 2.15204 1.61268 2.41643 1.72786 2.65511L1.74086 2.68865C1.7379 2.90218 1.69419 3.11459 1.70423 3.32867C1.70246 3.45836 1.80819 3.5545 1.88144 3.65344C1.91392 3.70878 2.00784 3.77753 2.05805 3.70095C2.1118 3.64505 2.16496 3.58916 2.2193 3.53438C2.1945 3.67244 2.12243 3.79206 2.02438 3.89547C2.23112 3.92398 2.43667 3.95808 2.64223 3.99441C2.64046 3.94075 2.63869 3.88821 2.6375 3.8351C2.7202 3.87814 2.8472 3.88094 2.87673 3.98211C2.85015 4.09055 2.77986 4.18278 2.72433 4.27949C2.66054 4.21353 2.59675 4.14813 2.53354 4.08273C2.51228 4.06428 2.46975 4.02851 2.44849 4.01062L2.41718 4.04192C2.21989 4.17328 2.416 4.3583 2.52705 4.47401C2.55186 4.49748 2.60147 4.545 2.62628 4.56903L2.65522 4.60648C2.71016 4.71381 2.84483 4.70766 2.95234 4.71381C3.44673 4.71995 3.94172 4.69983 4.43317 4.64897C4.60564 4.62717 4.77812 4.6512 4.94351 4.69816C5.25184 4.78256 5.57317 4.8066 5.89155 4.83678C6.2749 4.94019 6.67479 4.95305 7.06523 5.01789C7.90045 5.14421 8.73921 5.24818 9.57502 5.37116C10.1155 5.47848 10.6666 5.52767 11.2106 5.61766C11.6536 5.68418 12.0966 5.75238 12.5444 5.78647C13.4014 5.87367 14.2538 5.99888 15.1026 6.1403C15.7334 6.2152 16.3655 6.28452 16.991 6.39575C17.1121 6.40693 17.2544 6.45053 17.3607 6.3706C17.5669 6.22303 17.7453 6.04304 17.9243 5.86696C17.9697 5.89659 18.0158 5.92677 18.0625 5.95696C18.1127 6.28563 18.0601 6.61487 18.0318 6.94298C18.1115 6.89212 18.1989 6.84852 18.2663 6.78256C18.3466 6.49525 18.2846 6.18278 18.4092 5.90441C18.447 5.80045 18.5663 5.76747 18.6537 5.71101C18.7228 5.79709 18.792 5.88317 18.8617 5.96925C19.0188 5.83566 19.1635 5.6825 19.3519 5.58692C19.4966 5.5109 19.6478 5.61543 19.7878 5.65064C20.0832 5.763 20.4405 5.71269 20.6975 5.91224C20.9627 6.12409 21.1771 6.42817 21.1588 6.7697C21.1866 6.93739 21.1175 7.18278 21.3012 7.28563C21.5646 7.32364 21.8387 7.31582 22.0897 7.41643C22.0047 7.4332 21.9202 7.45221 21.8363 7.47177C21.8741 7.49134 21.9491 7.5299 21.9863 7.54891C21.7424 7.54779 21.499 7.52879 21.2563 7.51034C21.1618 7.49078 21.0879 7.5545 21.0165 7.60145C20.7583 7.81219 20.4311 7.95137 20.0861 7.95025C19.675 7.97205 19.3029 7.75964 18.9963 7.52264C18.8611 7.40749 18.7034 7.31302 18.5185 7.29402C17.4033 7.10006 16.278 6.96199 15.1581 6.79486C13.8787 6.60816 12.5981 6.42482 11.3193 6.23477C11.0511 6.20123 10.7723 6.11627 10.5042 6.19229C10.3346 6.22694 10.3701 6.43823 10.2626 6.53158C10.1822 6.58748 10.0907 6.62549 10.0039 6.66965C10.0127 6.64785 10.031 6.60481 10.0399 6.58301C10.0948 6.4578 10.0765 6.33035 10.0369 6.20402C9.98731 6.24148 9.93769 6.28004 9.88926 6.31861C9.76285 6.20682 9.63172 6.09726 9.48228 6.01509C9.37714 5.97485 9.26728 6.02348 9.16273 6.03857C9.25664 6.28675 9.41967 6.54388 9.33993 6.81666C9.30508 6.96478 9.15505 7.03801 9.03691 7.1213C8.96957 7.07211 8.90165 7.02403 8.82958 6.98211C8.97194 6.9346 8.78823 6.81833 8.78883 6.95919C8.69373 6.91839 8.58445 6.89938 8.50294 6.83566C8.38421 6.69033 8.3281 6.50251 8.32042 6.32085C8.33814 6.18837 8.43324 6.07993 8.49703 5.96478C8.3405 5.88541 8.13967 5.86026 7.99436 5.9754C7.93825 6.16434 7.95006 6.36724 7.9099 6.56065C7.89159 6.46898 7.87209 6.37731 7.85319 6.28619C7.8272 6.29458 7.77581 6.31191 7.75041 6.32029C7.75809 6.30128 7.77404 6.26328 7.78231 6.24427C7.83606 6.13974 7.88213 6.03354 7.87091 5.91448C7.78881 5.94019 7.70611 5.97037 7.64409 6.03018C7.43558 5.85634 7.23121 5.60704 6.91874 5.66014C6.99139 5.93739 7.20285 6.22359 7.06523 6.51314C7.0162 6.61599 6.90279 6.75349 6.76812 6.69424C6.5348 6.62158 6.2365 6.53046 6.19516 6.26328C6.10006 6.04472 6.20343 5.82336 6.3068 5.62828C6.16031 5.58301 6.01205 5.54444 5.85847 5.53214C5.86615 5.5081 5.8821 5.46003 5.88978 5.436C5.25598 5.36724 4.62395 5.27837 3.98661 5.24371C3.6452 5.20402 3.3032 5.16825 2.9612 5.13192C2.57548 5.07043 2.23821 5.32979 1.85545 5.32308C1.83241 5.10676 1.732 4.91224 1.62685 4.72275C1.32147 4.66238 1.00546 4.61207 0.696537 4.68586C0.63865 4.59419 0.633334 4.46059 0.743791 4.40022C1.00841 4.25545 1.25945 4.08999 1.52644 3.94969C1.58728 3.62046 1.45379 3.29849 1.47859 2.9687C1.49809 2.66797 1.40003 2.37507 1.41953 2.07434C1.4467 1.75685 1.32029 1.44718 1.36341 1.1308ZM1.84954 3.82169C1.87966 3.84964 1.87966 3.84964 1.84954 3.82169ZM1.90861 4.38122C1.93873 4.40917 1.93873 4.40917 1.90861 4.38122ZM1.91511 4.61599C1.90684 4.63835 1.8903 4.6825 1.88144 4.7043C2.09585 4.67188 2.31854 4.64505 2.50637 4.53493C2.31618 4.4427 2.10353 4.57071 1.91511 4.61599ZM1.91451 4.88932C1.84009 4.95752 1.96413 5.07602 2.03738 5.00615C2.11121 4.93684 1.98717 4.81833 1.91451 4.88932ZM3.60563 4.91895C3.60563 4.94802 3.60563 5.00615 3.60563 5.03577C3.74384 5.03801 3.88206 5.04025 4.02028 5.04025C4.16913 5.02124 4.33098 5.02124 4.45266 4.9251C4.30853 4.91112 4.16382 4.9128 4.0191 4.91839C3.88088 4.91504 3.74325 4.91504 3.60563 4.91895ZM4.99017 5.00447C4.98604 5.09614 5.13962 5.10341 5.21109 5.10062C5.2991 5.11403 5.30796 5.02515 5.21936 5.02292C5.1473 5.00727 5.06165 4.96814 4.99017 5.00447ZM6.12841 5.14813C6.23887 5.27278 6.41135 5.26775 6.56787 5.25601C6.70078 5.36892 6.89039 5.32085 7.05105 5.31749C6.91578 5.19564 6.69901 5.23812 6.52653 5.22862C6.41312 5.14869 6.2619 5.16154 6.12841 5.14813ZM7.54604 5.36948C7.68662 5.48239 7.88332 5.47513 8.05816 5.46674C8.19637 5.5545 8.36826 5.5422 8.52656 5.54053C8.38598 5.42202 8.18811 5.42035 8.01267 5.44326C7.87446 5.35886 7.70316 5.3678 7.54604 5.36948ZM9.08298 5.58916C9.21411 5.71325 9.42794 5.68139 9.59864 5.68698C9.73568 5.76635 9.90521 5.75405 10.06 5.76411C9.92824 5.63164 9.72978 5.63387 9.55434 5.66238C9.41908 5.56512 9.24128 5.5886 9.08298 5.58916ZM10.6394 5.80939L10.6371 5.86417C10.8208 5.88876 11.005 5.9128 11.1911 5.91056C11.3228 6.00783 11.5 5.98379 11.6566 5.9877C11.5231 5.85579 11.3234 5.8569 11.1468 5.88597C11.0015 5.78144 10.8089 5.81778 10.6394 5.80939ZM6.57555 6.00447C6.61513 6.13471 6.64525 6.26719 6.68778 6.39687C6.75985 6.33818 6.86735 6.28843 6.84904 6.18167C6.86144 6.06261 6.73445 6.00838 6.65707 5.94019C6.63699 5.9564 6.59623 5.98826 6.57555 6.00447ZM12.2703 6.0408C12.412 6.15316 12.6105 6.14813 12.7865 6.13527C12.9372 6.2398 13.1368 6.21129 13.3122 6.2085C13.151 6.08832 12.9354 6.08496 12.7411 6.11012C12.6087 6.0095 12.4274 6.03633 12.2703 6.0408ZM8.57618 6.10676C8.54842 6.18558 8.57618 6.21129 8.65947 6.18558C8.68664 6.10676 8.65888 6.08049 8.57618 6.10676ZM19.7264 6.14869C19.4712 6.31135 19.2645 6.54276 19.105 6.78927C19.066 7.19005 19.4092 7.57239 19.8233 7.63555C20.0436 7.67859 20.3254 7.6512 20.4506 7.44997C20.5593 7.29737 20.6845 7.15148 20.7625 6.98155C20.7938 6.91504 20.7223 6.86305 20.6839 6.81777C20.5055 6.65064 20.3425 6.46003 20.1174 6.34656C20.1322 6.33426 20.1611 6.30967 20.1759 6.29681C20.0501 6.20906 19.8924 6.0341 19.7264 6.14869ZM13.9868 6.26495C14.1215 6.41643 14.3483 6.37898 14.5332 6.37898C14.6732 6.49301 14.91 6.44326 15.089 6.47736C14.9425 6.32308 14.7033 6.34824 14.5054 6.33818C14.3406 6.27837 14.1605 6.27445 13.9868 6.26495ZM8.73448 6.37451C8.80005 6.50978 8.87979 6.63835 8.98139 6.75238C9.15682 6.61096 9.06113 6.36892 8.86443 6.30073C8.83194 6.31917 8.76697 6.35606 8.73448 6.37451ZM15.6992 6.49916C15.7074 6.51984 15.7234 6.56177 15.7311 6.58301C15.9112 6.61766 16.0955 6.62996 16.2792 6.6322C16.4476 6.73169 16.6643 6.71436 16.8563 6.71325C16.6844 6.58468 16.4541 6.59307 16.2473 6.59586C16.1002 6.48798 15.877 6.53494 15.6992 6.49916ZM9.11783 6.88988C9.29386 6.80324 9.1261 7.07602 9.11783 6.88988ZM21.6573 7.3924C21.6119 7.46003 21.7365 7.52711 21.7861 7.46898C21.831 7.40022 21.7058 7.33315 21.6573 7.3924Z" fill="#121212"/>
<path d="M20.9456 5.26495C21.033 5.27445 21.1216 5.28507 21.2096 5.29961C21.8653 5.44997 22.5097 5.64282 23.16 5.81274C23.1571 5.6294 23.1588 5.44606 23.1547 5.26272L23.1955 5.2711C23.3077 5.29346 23.4205 5.31414 23.5339 5.3337C23.4796 5.71492 23.4483 6.09838 23.4365 6.48295C23.4459 6.70654 23.1671 6.71213 22.9982 6.73561C22.9999 6.45556 23.0519 6.17887 23.1069 5.90441C22.779 5.96981 22.4542 5.89044 22.1523 5.77082C22.1157 5.66909 21.9722 5.60313 21.8972 5.71045C21.6715 5.64561 21.4447 5.58468 21.2173 5.5299C21.2232 5.43208 21.0767 5.38625 21.0229 5.47065C20.9899 5.40414 20.9662 5.33482 20.9456 5.26495Z" fill="#121212"/>
<path d="M23.9379 6.37842C24.1937 6.39296 24.4382 6.49637 24.6852 6.56065C24.6863 6.58301 24.6899 6.62716 24.6916 6.64896C24.4713 6.74958 24.2167 6.7261 23.9799 6.72163C23.8871 6.73505 23.8157 6.68027 23.7873 6.60033C23.795 6.5081 23.8629 6.43208 23.9379 6.37842Z" fill="#121212"/>
<path d="M22.6946 8.61655C22.8044 8.63331 22.9137 8.65455 23.023 8.67635C23.0856 8.73225 23.1311 8.82504 23.2268 8.83566C23.2941 8.82001 23.3579 8.79206 23.4223 8.76691C23.5274 8.71548 23.645 8.69648 23.7607 8.67915C23.6479 8.78368 23.518 8.92286 23.3419 8.88988C23.1565 8.86696 22.9675 8.84852 22.7897 8.7915C22.704 8.77418 22.7017 8.68083 22.6946 8.61655Z" fill="#121212"/>
<path d="M7.168 3.55562C7.49583 3.4986 7.83311 3.55115 8.16093 3.4863C8.54901 3.47233 8.95126 3.43712 9.33166 3.52543C9.38187 3.54891 9.43148 3.57295 9.48169 3.59866C9.48642 3.66797 9.49114 3.73784 9.49705 3.80827C9.81188 3.87479 10.1415 3.83231 10.4516 3.92454C10.7581 4.01174 11.0883 3.93795 11.3919 4.03689C11.4303 4.10453 11.4646 4.1744 11.4971 4.24595C11.5113 4.17608 11.5266 4.10676 11.5426 4.03801C11.6087 4.0313 11.6749 4.02515 11.7416 4.01956C11.7593 4.04528 11.7948 4.0967 11.8131 4.12186C11.7322 4.15092 11.6524 4.18055 11.5721 4.21017C11.6448 4.2588 11.7168 4.30799 11.7889 4.35774C11.6365 4.46506 11.4835 4.57965 11.2933 4.61878C11.3022 4.53382 11.3128 4.44941 11.3234 4.36501C11.2437 4.41755 11.1634 4.46842 11.0812 4.51761C11.1043 4.57071 11.1279 4.62437 11.1515 4.67803C11.0293 4.70877 10.8993 4.72666 10.7912 4.79262C10.6707 4.88988 10.5998 5.03074 10.4829 5.13303C10.4061 5.19061 10.3264 5.12353 10.2484 5.11012C10.3151 5.06763 10.3825 5.02683 10.4498 4.98602C10.308 4.82057 10.0706 4.84684 9.86917 4.83846C9.92352 4.9251 9.97904 5.01174 10.034 5.09894C9.72623 5.0408 9.41731 4.98043 9.10366 4.95919C8.6825 4.9346 8.27434 4.82392 7.85378 4.79486C7.59447 4.76132 7.28496 4.78256 7.10657 4.56512C7.29973 4.59754 7.49878 4.62828 7.69194 4.57462C7.45271 4.51705 7.20226 4.4455 6.95536 4.50755C6.99257 4.52767 7.06641 4.56847 7.10303 4.5886C7.08177 4.62102 7.0605 4.654 7.03924 4.68697C6.67833 4.67635 6.3192 4.50419 5.96007 4.60704C6.06462 4.62381 6.17035 4.63946 6.27549 4.65456C6.14731 4.71492 6.02091 4.77809 5.89155 4.83678C5.57317 4.8066 5.25184 4.78256 4.94351 4.69816C4.77812 4.6512 4.60564 4.62717 4.43317 4.64897C3.94172 4.69983 3.44673 4.71995 2.95234 4.71381C2.84483 4.70766 2.71016 4.71381 2.65522 4.60648C2.79344 4.55841 2.92989 4.50587 3.06161 4.44494C3.09587 4.42985 3.16439 4.39911 3.19865 4.38401C3.53593 4.27278 3.88679 4.20794 4.22584 4.10229C4.48692 4.02962 4.74859 3.95584 5.01676 3.91224C5.10004 3.89659 5.18333 3.8815 5.26602 3.86361C5.38179 3.83287 5.4952 3.79598 5.60921 3.75908C5.75215 3.71381 5.8945 3.66573 6.04276 3.63499C6.18216 3.62772 6.32038 3.61263 6.45801 3.58804C6.49404 3.58356 6.56669 3.57462 6.60332 3.56959C6.79115 3.58245 6.98253 3.59978 7.168 3.55562Z" fill="#4F3F3C"/>
<path d="M11.9584 4.11347C12.1362 4.09223 12.314 4.14142 12.4918 4.14589C12.6288 4.16266 12.8001 4.14757 12.8893 4.26887C12.9915 4.40078 13.06 4.55282 13.1439 4.69536C13.2189 4.65567 13.2945 4.61766 13.3713 4.58245C13.2827 4.57742 13.1941 4.57183 13.1055 4.56568C13.3187 4.3365 13.6023 4.07323 13.9508 4.11012C13.9006 4.17775 13.8498 4.24595 13.799 4.31414C14.0211 4.35215 14.2089 4.23868 14.3743 4.11291C14.3778 4.20123 14.366 4.28787 14.3335 4.37172C14.4977 4.34656 14.6649 4.35048 14.8291 4.37395C14.874 4.32365 14.9177 4.27222 14.9608 4.22024C15.0872 4.17887 15.2237 4.1962 15.3536 4.20849C16.382 4.346 17.4157 4.44438 18.4458 4.57239C18.7583 4.60145 19.0755 4.60928 19.3791 4.6948C19.3549 4.74008 19.3318 4.78591 19.3088 4.83175C19.3519 4.88429 19.395 4.93739 19.4387 4.99105C19.3543 5.01509 19.2704 5.03801 19.1859 5.06093C19.2042 5.11235 19.2226 5.16378 19.2421 5.21576C19.1629 5.25713 19.0956 5.32476 19.0052 5.34209C18.8493 5.3052 18.7028 5.21912 18.5362 5.2465C18.5516 5.32811 18.5645 5.40972 18.5758 5.49245C18.5439 5.49189 18.4801 5.49022 18.4482 5.4891C18.3944 5.38681 18.3401 5.28507 18.2828 5.18558C18.2887 5.35886 18.3383 5.52655 18.4092 5.68642C18.2822 5.65399 18.1546 5.62381 18.03 5.58468C17.9703 5.61151 17.9113 5.6389 17.8528 5.66685C17.89 5.6825 17.965 5.71436 18.0022 5.73001C17.9768 5.77585 17.9514 5.82169 17.9243 5.86696C17.7453 6.04304 17.5669 6.22303 17.3607 6.3706C17.2544 6.45053 17.1121 6.40693 16.991 6.39575C16.3655 6.28452 15.7334 6.2152 15.1026 6.1403C14.2538 5.99888 13.4014 5.87367 12.5444 5.78647C12.5461 5.72946 12.5485 5.67244 12.5514 5.61598C12.6188 5.59642 12.6861 5.57742 12.754 5.55841C12.5845 5.51313 12.4191 5.45724 12.2532 5.40358C12.0872 5.34321 11.9094 5.39799 11.7404 5.41531C11.7977 5.2683 11.8964 5.11738 11.8456 4.95528C11.9129 4.9346 11.9808 4.91448 12.0482 4.89435C11.9702 4.80716 11.8934 4.72051 11.8166 4.63331C11.715 4.68698 11.6081 4.73784 11.4882 4.73169C11.6075 4.62158 11.7623 4.52599 11.7889 4.35774C11.8237 4.26607 11.8668 4.16657 11.9584 4.11347Z" fill="#4F3F3C"/>
<path d="M10.6613 5.02068C10.7428 4.82225 10.9838 4.81386 11.1746 4.82392C11.1681 4.84516 11.1563 4.88709 11.1498 4.90833C10.9921 4.96255 10.8255 4.98882 10.6613 5.02068Z" fill="#4F3F3C"/>
<path d="M3.60563 4.91895C3.74325 4.91504 3.88088 4.91504 4.0191 4.91839C4.01969 4.94857 4.02028 5.01006 4.02028 5.04025C3.88206 5.04025 3.74384 5.03801 3.60563 5.03577C3.60563 5.00615 3.60563 4.94802 3.60563 4.91895Z" fill="#4F3F3C"/>
<path d="M4.99017 5.00447C5.06165 4.96814 5.1473 5.00727 5.21936 5.02292C5.30796 5.02515 5.2991 5.11403 5.21109 5.10062C5.13962 5.10341 4.98604 5.09614 4.99017 5.00447Z" fill="#4F3F3C"/>
<path d="M6.12841 5.14813C6.2619 5.16154 6.41312 5.14869 6.52653 5.22862L6.56787 5.25601C6.41135 5.26775 6.23887 5.27278 6.12841 5.14813Z" fill="#4F3F3C"/>
<path d="M7.54604 5.36948C7.70316 5.3678 7.87446 5.35886 8.01267 5.44326L8.05816 5.46674C7.88332 5.47513 7.68662 5.48239 7.54604 5.36948Z" fill="#4F3F3C"/>
<path d="M9.08298 5.58916C9.24128 5.5886 9.41908 5.56512 9.55434 5.66238L9.59864 5.68698C9.42794 5.68139 9.21411 5.71325 9.08298 5.58916Z" fill="#4F3F3C"/>
<path d="M10.6394 5.80939C10.8089 5.81778 11.0015 5.78144 11.1468 5.88597L11.1911 5.91056C11.005 5.9128 10.8208 5.88876 10.6371 5.86417L10.6394 5.80939Z" fill="#4F3F3C"/>
<path d="M6.57555 6.00447C6.59623 5.98826 6.63699 5.9564 6.65707 5.94019C6.73445 6.00838 6.86144 6.06261 6.84904 6.18167C6.86735 6.28843 6.75985 6.33818 6.68778 6.39687C6.64525 6.26719 6.61513 6.13471 6.57555 6.00447Z" fill="#4F3F3C"/>
<path d="M12.2703 6.0408C12.4274 6.03633 12.6087 6.0095 12.7411 6.11012L12.7865 6.13527C12.6105 6.14813 12.412 6.15316 12.2703 6.0408Z" fill="#4F3F3C"/>
<path d="M13.9868 6.26495C14.1605 6.27445 14.3406 6.27837 14.5054 6.33818L14.5332 6.37898C14.3483 6.37898 14.1215 6.41643 13.9868 6.26495Z" fill="#4F3F3C"/>
<path d="M8.73448 6.37451C8.76697 6.35606 8.83194 6.31917 8.86443 6.30073C9.06113 6.36892 9.15682 6.61096 8.98139 6.75238C8.87979 6.63835 8.80005 6.50978 8.73448 6.37451Z" fill="#4F3F3C"/>
<path d="M15.6992 6.49916C15.877 6.53494 16.1002 6.48798 16.2473 6.59586L16.2792 6.6322C16.0955 6.62996 15.9112 6.61766 15.7311 6.58301C15.7234 6.56177 15.7074 6.51984 15.6992 6.49916Z" fill="#4F3F3C"/>
<path d="M19.8694 7.07826C19.9645 7.12185 20.0277 6.92398 19.9213 6.91336C19.8528 6.93013 19.8197 7.02851 19.8694 7.07826Z" fill="#4F3F3C"/>
<path d="M21.4618 6.91839C21.6018 6.86026 21.7566 6.89659 21.8977 6.93125C21.8877 6.98994 21.8771 7.04863 21.867 7.10788C21.9326 7.03633 22.0135 6.97988 22.0903 6.91951C22.095 7.00112 22.1003 7.08328 22.1051 7.16545C21.8422 7.16098 21.5776 7.16601 21.3177 7.20794C21.3614 7.10956 21.4016 7.00894 21.4618 6.91839Z" fill="#4F3F3C"/>
<path d="M22.2173 6.95752C22.5534 6.96422 22.8901 6.96814 23.2262 6.94634C23.2386 7.08384 23.1352 7.23309 22.9757 7.21688C22.704 7.19955 22.4317 7.19564 22.1594 7.19452C22.1547 7.11291 22.1163 7.00112 22.2173 6.95752Z" fill="#4F3F3C"/>
<path d="M23.2699 7.2275C23.2876 7.10061 23.3053 6.95696 23.4548 6.91056C23.4359 6.98882 23.4158 7.06763 23.3945 7.14645C23.4583 7.13247 23.5221 7.11962 23.5865 7.10732C23.564 7.13527 23.5192 7.19061 23.4961 7.21856C23.4205 7.22079 23.3449 7.22415 23.2699 7.2275Z" fill="#4F3F3C"/>
<path d="M21.7861 7.46898C21.831 7.40022 21.7058 7.33315 21.6573 7.3924C21.6119 7.46003 21.7365 7.52711 21.7861 7.46898Z" fill="#4F3F3C"/>
<path d="M23.1334 7.4142C23.2321 7.40972 23.3307 7.39854 23.4294 7.39128C23.4512 7.52487 23.5321 7.6322 23.6373 7.72051C23.5753 7.70654 23.5144 7.69312 23.4536 7.67971C23.4748 8.04416 23.3467 8.40302 23.4223 8.76691C23.3579 8.79206 23.2941 8.82001 23.2268 8.83566C23.1311 8.82504 23.0856 8.73225 23.023 8.67635C23.0277 8.54779 23.0283 8.41979 23.0324 8.29178C23.0413 8.0844 23.0696 7.87814 23.098 7.67244C22.9911 7.68306 22.8842 7.69368 22.7784 7.7043C22.9214 7.63779 23.0821 7.57183 23.1334 7.4142Z" fill="#4F3F3C"/>
<path d="M21.8363 7.47177C21.9202 7.45221 22.0047 7.4332 22.0897 7.41643C22.1169 7.42594 22.1724 7.44494 22.2002 7.45444C22.2551 7.49748 22.31 7.54164 22.3638 7.58748C22.238 7.57462 22.1122 7.56177 21.9863 7.54891C21.9491 7.5299 21.8741 7.49134 21.8363 7.47177Z" fill="#4F3F3C"/>
<path d="M24.3597 7.44494C24.3922 7.45276 24.4577 7.46786 24.4908 7.47512C24.3703 7.56624 24.2126 7.57406 24.0667 7.59139C24.137 7.5014 24.2451 7.45947 24.3597 7.44494Z" fill="#4F3F3C"/>
<path d="M22.4577 7.55897C22.5339 7.59586 22.5327 7.63387 22.4548 7.67244C22.378 7.63499 22.3791 7.59698 22.4577 7.55897Z" fill="#4F3F3C"/>
<path d="M23.9326 7.57462C24.0147 7.55115 24.0437 7.57854 24.0195 7.65679C23.9362 7.68027 23.9072 7.65288 23.9326 7.57462Z" fill="#4F3F3C"/>
<path d="M22.5971 7.61599C22.6656 7.564 22.7046 7.57742 22.7147 7.65679C22.6455 7.70766 22.6066 7.69424 22.5971 7.61599Z" fill="#4F3F3C"/>
<path d="M23.7182 7.61543C23.7867 7.56344 23.8257 7.57742 23.8358 7.65679C23.7666 7.70766 23.7271 7.69424 23.7182 7.61543Z" fill="#4F3F3C"/>
<path d="M1.88144 3.65344C1.92278 3.6104 1.96118 3.54835 2.02792 3.54164C2.06868 3.58357 2.05214 3.64841 2.05805 3.70095C2.00784 3.77753 1.91392 3.70878 1.88144 3.65344Z" fill="black"/>
<path d="M3.20042 4.16601C3.46563 4.08664 3.73203 3.98546 4.01378 3.9782C4.11184 3.96311 4.16618 4.04528 4.22584 4.10229C3.88679 4.20794 3.53593 4.27278 3.19865 4.38401C3.20515 4.31135 3.20574 4.23868 3.20042 4.16601Z" fill="black"/>
<path d="M0.146025 4.95416C0.392337 4.87982 0.640422 4.80604 0.895595 4.76467C1.10056 4.72666 1.263 4.87926 1.40181 4.99832C1.62863 5.21353 1.87848 5.40469 2.11653 5.60928C2.2069 5.68306 2.31677 5.782 2.44612 5.7261C2.96179 5.57127 3.50462 5.48631 3.98661 5.24371C4.62395 5.27837 5.25598 5.36724 5.88978 5.436C5.8821 5.46003 5.86615 5.5081 5.85847 5.53214C5.56018 6.06037 5.774 6.80045 6.30975 7.11738C6.6677 7.32588 7.09712 7.15316 7.42022 6.96702C7.65177 6.82672 7.70375 6.55618 7.75041 6.32029C7.77581 6.31191 7.8272 6.29458 7.85319 6.28619C7.87209 6.37731 7.89159 6.46898 7.9099 6.56065C7.94652 6.89547 8.11309 7.22638 8.41374 7.41811C8.70554 7.6171 9.10248 7.58133 9.41554 7.44885C9.38187 7.69536 9.08889 7.77641 8.86266 7.77138C8.34168 7.73449 7.85024 7.54332 7.38774 7.3242C7.17509 7.2085 6.9589 7.3896 6.73976 7.38904C6.29735 7.39855 5.86674 7.25098 5.4763 7.06484C5.24239 6.96143 5.08468 6.73225 4.82597 6.67859C3.7025 6.48686 2.56899 6.33203 1.43134 6.25154C1.24823 6.18949 1.0917 6.06428 0.896186 6.0341C0.674681 5.99497 0.44727 5.98435 0.232264 5.91783C0.346264 5.83343 0.470307 5.76355 0.601437 5.7043C0.430731 5.47568 0.15961 5.32756 0.0113501 5.08496C-0.0388575 5.00056 0.0905009 4.97764 0.146025 4.95416Z" fill="black"/>
<path d="M7.64409 6.03018C7.70611 5.97037 7.78881 5.94019 7.87091 5.91448C7.88213 6.03354 7.83606 6.13974 7.78231 6.24427C7.73683 6.17216 7.69075 6.10061 7.64409 6.03018Z" fill="black"/>
<path d="M8.65947 6.18558C8.68664 6.10676 8.65888 6.08049 8.57618 6.10676C8.54842 6.18558 8.57618 6.21129 8.65947 6.18558Z" fill="black"/>
<path d="M10.5042 6.19229C10.7723 6.11627 11.0511 6.20123 11.3193 6.23477C12.5981 6.42482 13.8787 6.60816 15.1581 6.79486C16.278 6.96199 17.4033 7.10006 18.5185 7.29402C18.7034 7.31302 18.8611 7.40749 18.9963 7.52264C19.3029 7.75964 19.675 7.97205 20.0861 7.95025C20.4311 7.95137 20.7583 7.81219 21.0165 7.60145C21.3443 7.7412 21.6875 7.84181 22.0295 7.94522C22.3703 8.04416 22.6845 8.21185 23.0324 8.29178C23.0283 8.41979 23.0277 8.54779 23.023 8.67635C22.9137 8.65455 22.8044 8.63331 22.6946 8.61655C22.7017 8.68083 22.704 8.77418 22.7897 8.7915C22.9675 8.84852 23.1565 8.86696 23.3419 8.88988C23.3195 8.91727 23.2752 8.97261 23.2528 9C22.9763 8.96534 22.6609 8.97541 22.4418 8.78703C22.2155 8.60872 21.9072 8.57071 21.6231 8.55338C21.0105 8.55674 20.3956 8.57965 19.7855 8.51705C19.6626 8.51425 19.5279 8.48407 19.4128 8.53661C19.3484 8.60816 19.3011 8.69312 19.2291 8.75852C19.0365 8.83734 18.8203 8.83455 18.6153 8.82281C18.0808 8.77585 17.5462 8.69704 17.0365 8.53382C16.8598 8.47792 16.6886 8.40637 16.5072 8.36333C16.278 8.29905 16.0683 8.48295 15.8368 8.44271C14.9319 8.34544 14.0394 8.16769 13.1404 8.03186C11.9123 7.82672 10.6819 7.63723 9.45452 7.42929C9.59569 7.3488 9.74336 7.26383 9.83728 7.13192C9.93533 6.99441 9.95364 6.82504 10.0039 6.66965C10.0907 6.62549 10.1822 6.58748 10.2626 6.53158C10.3701 6.43823 10.3346 6.22694 10.5042 6.19229Z" fill="black"/>
<path d="M9.88926 6.31861C9.93769 6.28004 9.98731 6.24148 10.0369 6.20402C10.0765 6.33035 10.0948 6.4578 10.0399 6.58301C9.99026 6.49413 9.94183 6.40525 9.88926 6.31861Z" fill="black"/>
<path d="M8.82958 6.98211C8.97194 6.9346 8.78823 6.81833 8.78883 6.95919L8.82958 6.98211Z" fill="black"/>
<path d="M9.11783 6.88988C9.29386 6.80324 9.1261 7.07602 9.11783 6.88988Z" fill="black"/>
<path d="M2.03738 5.00615C2.11121 4.93684 1.98717 4.81833 1.91451 4.88932C1.84009 4.95752 1.96413 5.07602 2.03738 5.00615Z" fill="#501212"/>
<path d="M4.0191 4.91839C4.16382 4.9128 4.30853 4.91112 4.45266 4.9251C4.33098 5.02124 4.16913 5.02124 4.02028 5.04025C4.02028 5.01006 4.01969 4.94857 4.0191 4.91839Z" fill="#501212"/>
<path d="M6.52653 5.22862C6.69901 5.23812 6.91578 5.19564 7.05105 5.31749C6.89039 5.32085 6.70078 5.36892 6.56787 5.25601L6.52653 5.22862Z" fill="#501212"/>
<path d="M8.01267 5.44326C8.18811 5.42035 8.38598 5.42202 8.52656 5.54053C8.36826 5.5422 8.19637 5.5545 8.05816 5.46674L8.01267 5.44326Z" fill="#501212"/>
<path d="M9.55434 5.66238C9.72978 5.63387 9.92824 5.63164 10.06 5.76411C9.90521 5.75405 9.73568 5.76635 9.59864 5.68698L9.55434 5.66238Z" fill="#501212"/>
<path d="M11.1468 5.88597C11.3234 5.8569 11.5231 5.85579 11.6566 5.9877C11.5 5.98379 11.3228 6.00783 11.1911 5.91056L11.1468 5.88597Z" fill="#501212"/>
<path d="M12.7411 6.11012C12.9354 6.08496 13.151 6.08832 13.3122 6.2085C13.1368 6.21129 12.9372 6.2398 12.7865 6.13527L12.7411 6.11012Z" fill="#501212"/>
<path d="M14.5054 6.33818C14.7033 6.34824 14.9425 6.32308 15.089 6.47736C14.91 6.44326 14.6732 6.49301 14.5332 6.37898L14.5054 6.33818Z" fill="#501212"/>
<path d="M16.2473 6.59586C16.4541 6.59307 16.6844 6.58468 16.8563 6.71325C16.6643 6.71436 16.4476 6.73169 16.2792 6.6322L16.2473 6.59586Z" fill="#501212"/>
</svg>
