<svg width="22" height="22" viewBox="0 0 22 22" fill="none" xmlns="http://www.w3.org/2000/svg">
<path d="M10.8518 3.99994H11.2026C11.9764 4.03193 12.7484 4.17494 13.473 4.45248C15.0876 5.05978 16.4562 6.28834 17.2366 7.8267C17.7173 8.75994 17.9727 9.80365 18 10.8517V11.2023C17.9645 12.1369 17.7561 13.0671 17.3612 13.9164C16.6569 15.457 15.3736 16.7219 13.823 17.4036C12.9991 17.7716 12.1022 17.9655 11.2018 17.9999H10.609C10.1242 17.948 9.63828 17.8881 9.1677 17.7549C7.83277 17.3954 6.61461 16.624 5.71145 15.5784C5.08773 14.8606 4.6125 14.0146 4.32539 13.1081C4.12961 12.4915 4.02652 11.8481 4 11.2023V10.8517C4.03035 9.60267 4.39375 8.36127 5.06012 7.30279C5.83914 6.05127 7.02148 5.05541 8.39004 4.50607C9.17098 4.18861 10.0102 4.02373 10.8518 3.99994ZM10.411 5.30314C8.98422 5.44451 7.63016 6.15818 6.69063 7.23826C5.98844 8.04299 5.50746 9.04486 5.34449 10.1025C5.18316 11.1074 5.29801 12.1552 5.67316 13.1016C5.93867 13.7455 6.30563 14.352 6.7825 14.862C7.41578 15.562 8.23062 16.0905 9.11766 16.4091C10.137 16.7635 11.2573 16.8247 12.3079 16.5748C13.9422 16.1963 15.3794 15.0556 16.1209 13.5508C16.7146 12.3934 16.8734 11.0254 16.5899 9.75826C16.2183 8.0572 15.0204 6.56068 13.4415 5.8265C12.5086 5.36877 11.4424 5.20006 10.411 5.30314Z" fill="white"/>
<path d="M7.3466 9.97482C7.60527 9.91549 7.88937 9.94338 8.12152 10.0763C8.37199 10.2174 8.5623 10.4624 8.63121 10.7421C8.68809 10.9792 8.66648 11.2373 8.55902 11.4574C8.44145 11.7016 8.22734 11.8987 7.97277 11.9925C7.75922 12.0683 7.52242 12.0743 7.30449 12.0144C6.94711 11.9099 6.65699 11.6029 6.57633 11.2389C6.52629 11.0049 6.54816 10.7522 6.6559 10.537C6.78961 10.2614 7.04828 10.0473 7.3466 9.97482Z" fill="white"/>
<path d="M10.7632 9.97017C11.0145 9.91767 11.2882 9.94638 11.513 10.0754C11.7921 10.2313 12.0005 10.5179 12.0429 10.8367C12.0743 11.0601 12.0434 11.2963 11.9341 11.4954C11.7804 11.7833 11.4889 11.9996 11.163 12.0428C10.9398 12.0745 10.7036 12.0434 10.5045 11.934C10.2453 11.7956 10.0446 11.5463 9.97516 11.2594C9.91582 11.0016 9.94262 10.7186 10.0755 10.487C10.2193 10.2297 10.4736 10.0322 10.7632 9.97017Z" fill="white"/>
<path d="M14.1536 9.97099C14.4057 9.9174 14.6807 9.94474 14.9063 10.0746C15.1642 10.2179 15.3591 10.4722 15.4237 10.761C15.4737 10.995 15.4518 11.2477 15.3441 11.4631C15.1921 11.7768 14.8765 12.0114 14.5273 12.0469C14.3056 12.0724 14.0729 12.0354 13.8785 11.9233C13.628 11.7825 13.4377 11.5375 13.3688 11.2581C13.3103 11.0142 13.3349 10.7484 13.45 10.5244C13.5886 10.2499 13.8511 10.0361 14.1536 9.97099Z" fill="white"/>
<line y1="10.9499" x2="22" y2="10.9499" stroke="black" stroke-opacity="0.02" stroke-width="0.1"/>
<line x1="11.05" y1="2.18557e-09" x2="11.05" y2="22" stroke="black" stroke-opacity="0.02" stroke-width="0.1"/>
</svg>
