<svg width="26" height="11" viewBox="0 0 26 11" fill="none" xmlns="http://www.w3.org/2000/svg">
<path d="M11.0585 0.107622C11.3068 0.049972 11.5601 -0.0228825 11.817 0.00689289C11.899 0.00689289 11.9723 0.0898856 11.9291 0.172877C11.3672 0.258402 10.8133 0.390172 10.2637 0.537782C10.2575 0.540316 10.2458 0.544118 10.2397 0.546018C10.2163 0.55172 10.1701 0.563757 10.1473 0.569458C9.84535 0.644847 9.50893 0.651182 9.24646 0.838704C9.05607 1.02939 9.09427 1.33665 9.04621 1.58562C9.16574 1.58626 9.28589 1.58689 9.40604 1.58689C9.38879 1.66291 9.374 1.7402 9.35921 1.81749C9.21627 2.22168 9.1565 2.64867 9.06161 3.06552C8.72397 3.05159 8.38755 3.02371 8.05114 2.9895C6.19409 2.76524 4.3358 2.55237 2.47813 2.33888C2.11768 2.27362 1.75724 2.20964 1.39495 2.15706C1.42452 2.08167 1.47813 2.01832 1.55576 1.99488C2.07086 1.76998 2.626 1.67685 3.17129 1.56155C3.95009 1.39937 4.73999 1.23402 5.53974 1.27076C6.435 1.34615 7.33149 1.42978 8.22674 1.50327C8.41898 1.34362 8.57794 1.14596 8.76895 0.983781C8.94578 0.845673 8.98583 0.548553 9.23167 0.508641C9.83487 0.347094 10.4541 0.2603 11.0585 0.107622ZM8.55206 1.50833C8.63894 1.53241 8.7252 1.55712 8.81208 1.58182C8.809 1.4982 8.80592 1.41521 8.80345 1.33158C8.71842 1.38923 8.63524 1.44752 8.55206 1.50833Z" fill="#282B2A"/>
<path d="M17.0043 1.28724C17.1356 1.26063 17.2686 1.23909 17.3999 1.20868C17.5662 1.41077 17.7659 1.57929 17.9803 1.72563C17.7474 1.90935 17.7123 2.20964 17.6032 2.46685C17.1312 2.49789 16.6155 2.45228 16.2532 2.10511C16.1343 1.99678 16.016 1.88845 15.8983 1.77885C15.8743 1.85234 15.8497 1.92646 15.8244 1.99995C15.7141 1.97144 15.6149 1.91569 15.5354 1.8327C15.594 1.7307 15.6488 1.6268 15.6987 1.52101C15.8078 1.44308 15.9162 1.36453 16.024 1.2847C16.3432 1.3829 16.6827 1.36833 17.0043 1.28724Z" fill="#282B2A"/>
<path d="M11.992 1.27203C12.5514 1.30877 13.1189 1.33158 13.6685 1.44815C13.5915 1.44878 13.5157 1.45385 13.4399 1.46399C13.3839 1.8612 13.2649 2.26222 13.3648 2.66387C13.5712 2.62016 13.777 2.57138 13.9846 2.5321C13.9883 2.67591 13.9883 2.82099 13.9704 2.96479C13.8521 3.03892 13.7086 3.03005 13.5767 3.04272C13.5496 3.13711 13.5237 3.23214 13.4978 3.3278C13.4239 3.28536 13.35 3.24291 13.2766 3.2011C13.297 3.30816 13.3173 3.41586 13.3376 3.52356C13.6587 3.55904 13.984 3.55587 14.3044 3.50835C14.2964 3.36265 14.2921 3.21694 14.2914 3.07123C14.406 3.16372 14.5231 3.25685 14.5915 3.39305C14.5816 3.51976 14.5311 3.66927 14.6205 3.77887C14.6987 3.91064 14.8552 3.93661 14.9895 3.96766C15.0216 4.00313 15.0536 4.03798 15.0863 4.07345C15.0702 4.13047 15.0536 4.18749 15.0376 4.24514L14.9871 4.2331C14.6771 4.09816 14.4442 3.79787 14.0986 3.74909C12.9082 3.60908 11.7221 3.42853 10.5311 3.29232C10.3888 3.28726 10.2588 3.23214 10.1454 3.14661C10.4005 3.20426 10.6624 3.20743 10.9218 3.2201C11.1694 3.23151 11.3999 3.3392 11.6439 3.37025C11.8417 3.38418 12.0351 3.3259 12.2267 3.28092C12.334 2.64614 12.4405 2.01071 12.5872 1.38353C12.3906 1.33412 12.191 1.30497 11.992 1.27203Z" fill="#282B2A"/>
<path d="M15.8811 2.50359C16.1411 2.655 16.2945 2.92298 16.4757 3.15612C16.504 3.13141 16.5613 3.08073 16.5896 3.05539C16.788 3.32337 17.0856 3.54827 17.1473 3.89607C17.1528 4.09753 17.1571 4.32813 17.0598 4.50488C16.8681 4.55746 16.6648 4.50298 16.4701 4.49094C16.1399 4.4447 15.8096 4.39972 15.4812 4.34207C15.4707 4.26985 15.4621 4.19762 15.4547 4.12604C15.6217 4.13301 15.7893 4.13807 15.9575 4.13807C16.1657 4.13807 16.374 4.13047 16.5823 4.12034C16.5786 3.96196 16.589 3.79977 16.5471 3.64646C16.4763 3.4412 16.2594 3.37215 16.0838 3.29486C15.963 3.04842 15.8879 2.77981 15.8811 2.50359Z" fill="#282B2A"/>
<path d="M2.52988 3.36391C2.85705 3.16119 3.25632 3.19793 3.62046 3.23214C4.27973 3.31323 4.93715 3.40889 5.59828 3.47351C6.07579 3.51659 6.57671 3.51912 7.01417 3.74909C7.63956 4.04811 8.09427 4.63602 8.34627 5.28411C8.50585 5.69083 8.53543 6.13429 8.67468 6.54671L8.69439 6.59549C8.57116 6.62147 8.43931 6.71206 8.57794 6.82673C8.68454 6.91606 8.81885 6.91162 8.94455 6.87804C9.01664 6.96991 9.0801 7.06873 9.1411 7.1701C8.91312 7.1967 8.68885 7.12512 8.496 7.00411C8.5151 7.42984 8.41035 7.88344 8.08811 8.17486C7.96303 8.07856 7.8281 7.99747 7.6907 7.92145C7.73876 7.78334 7.8016 7.6446 7.79606 7.49509C7.75786 6.93696 7.61922 6.37883 7.3167 5.90813C7.09242 5.45516 6.55823 5.3595 6.13986 5.18845C6.40789 5.09215 6.67961 4.96418 6.96981 4.97749C7.26679 4.99332 7.52557 5.15741 7.78065 5.29741C7.49723 4.75385 6.99507 4.30659 6.39248 4.20269C5.79729 4.06902 5.18484 4.07409 4.58657 3.96259C4.19409 3.89797 3.79667 3.86629 3.40542 3.79027C3.06038 3.72312 2.68269 3.78204 2.39864 4.0025C2.25262 4.12097 2.09489 4.24134 1.8971 4.21473C1.99815 3.86439 2.21319 3.54193 2.52988 3.36391Z" fill="#282B2A"/>
<path d="M9.59766 3.86376C9.84535 3.86883 10.093 3.89543 10.337 3.93978C10.3407 4.06648 10.3426 4.19382 10.3432 4.32116C10.1078 4.30215 9.86137 4.30912 9.64017 4.21409C9.55453 4.12667 9.61553 3.97589 9.59766 3.86376Z" fill="#282B2A"/>
<path d="M17.9932 3.94992C18.0838 3.8758 18.1811 4.03988 18.0918 4.10196C18.0006 4.17609 17.9033 4.01137 17.9932 3.94992Z" fill="#282B2A"/>
<path d="M12.8084 4.2464C13.0807 4.27174 13.3543 4.30279 13.6192 4.37627C13.5977 4.49664 13.6445 4.65566 13.5373 4.74245C13.2939 4.73801 13.0474 4.70634 12.8158 4.62842C12.6408 4.5714 12.7887 4.36551 12.8084 4.2464Z" fill="#282B2A"/>
<path d="M1.0419 4.31926C1.14849 4.31419 1.2557 4.31039 1.36291 4.30722C1.44855 4.57774 1.50955 4.85648 1.60937 5.12256C1.43315 5.09342 1.2101 5.11813 1.08503 4.96418C0.987677 4.76462 1.02403 4.53212 1.0419 4.31926Z" fill="#282B2A"/>
<path d="M3.43192 4.66706C3.67899 4.63855 3.9236 4.5828 4.17252 4.57583C4.60813 4.62968 4.87184 5.02183 5.19224 5.28157C5.22243 5.41081 5.25323 5.53942 5.27973 5.66992C5.29267 5.73961 5.30314 5.80993 5.31238 5.88088C5.25755 5.86821 5.20209 5.85554 5.14726 5.84287C5.18484 6.10325 5.0345 6.33322 5.0037 6.58662C5 6.68925 4.91374 6.75324 4.85582 6.82736C4.68762 6.26986 4.52495 5.68956 4.14603 5.23786C3.94455 4.99966 3.62046 4.9211 3.43192 4.66706Z" fill="#282B2A"/>
<path d="M17.4763 5.12509C17.7794 4.89956 18.061 4.52072 18.475 4.56696C18.5287 4.57013 18.6352 4.57647 18.6888 4.57964C18.4917 4.8115 18.2366 4.97938 17.9834 5.1403C17.8287 5.25243 17.6408 5.1517 17.4763 5.12509Z" fill="#282B2A"/>
<path d="M18.5964 5.37534C19.2311 5.1327 19.9322 5.24103 20.5582 5.45769C20.5632 5.5939 20.5601 5.73264 20.5909 5.86695C20.8219 6.10135 21.1423 6.22742 21.3487 6.49223C21.5835 6.73867 21.6654 7.13145 21.9883 7.28476C22.1633 7.36965 22.3204 7.48812 22.4399 7.64524C22.3561 7.71809 22.273 7.79095 22.1892 7.8638C22.0308 7.69972 21.8417 7.57175 21.6525 7.44948C21.756 7.6446 21.8601 7.84099 21.9415 8.04815C21.854 8.11594 21.7665 8.18373 21.6771 8.24961C21.7486 8.25658 21.8207 8.26165 21.8916 8.27939C22.0025 8.46691 22.0487 8.68484 22.1084 8.8939C22.1072 9.29365 21.9612 9.68137 21.7326 10.0013C21.6248 10.1324 21.5003 10.2496 21.366 10.3523C21.342 10.3447 21.2945 10.3307 21.2705 10.3231C21.3543 10.0767 21.4738 9.83848 21.4954 9.5743C21.5348 9.10043 21.403 8.63163 21.2304 8.19766C21.0431 7.73963 20.6192 7.46278 20.244 7.18213C20.0283 7.00728 19.7468 6.99714 19.4855 6.97561C19.5096 6.87361 19.5169 6.7374 19.6352 6.70446C19.9211 6.58662 20.2446 6.55558 20.5471 6.6107C20.6661 6.70953 20.6913 6.87551 20.7388 7.01679C20.8226 6.98448 20.9057 6.94773 20.9945 6.93063C21.1645 7.01235 21.3259 7.12005 21.5182 7.13525C21.35 6.81786 21.1134 6.53594 20.8189 6.33638C20.6112 6.21031 20.3672 6.17864 20.1485 6.07981C19.634 5.82704 19.024 5.92143 18.5096 6.12416C18.1855 6.24896 18.1128 6.67532 18.2514 6.9699C18.3309 6.93696 18.411 6.90465 18.4911 6.87234C18.5046 6.91986 18.5182 6.96674 18.5317 7.01489C18.2853 7.38613 18 7.74406 17.8571 8.17549C17.7585 8.2021 17.6605 8.22934 17.5625 8.25722C17.5311 7.73266 17.4726 7.17326 17.7049 6.68482C17.8262 6.42698 17.971 6.1495 17.8644 5.85681C18.0678 5.64015 18.3179 5.471 18.5964 5.37534Z" fill="#282B2A"/>
<path d="M25.2138 5.34049C25.2446 5.37217 25.2446 5.37217 25.2138 5.34049Z" fill="#282B2A"/>
<path d="M24.8361 5.60277C24.8946 5.57616 24.9544 5.55019 25.0142 5.52421C25.0086 5.56349 24.9969 5.64331 24.9914 5.68323C24.9347 5.7092 24.878 5.73517 24.8219 5.76241C24.8256 5.7225 24.8324 5.64268 24.8361 5.60277Z" fill="#282B2A"/>
<path d="M2.66605 6.36299C2.6642 6.04623 3.18238 6.0342 3.22921 6.32942C3.12446 6.34462 3.01972 6.36046 2.91497 6.3744C2.9008 6.43141 2.88725 6.48907 2.87431 6.54735C2.97412 6.52771 3.0727 6.4992 3.17252 6.4783C3.28897 6.37883 3.43192 6.34906 3.57856 6.38643C3.60937 6.69686 3.42884 6.96991 3.42206 7.27716C3.47813 7.3044 3.53481 7.33291 3.5915 7.36142C3.53974 7.17643 3.54898 6.98448 3.63463 6.81153C3.78065 6.99778 3.85459 7.22585 3.88725 7.45962C3.49476 7.61483 3.07763 7.35002 2.88848 6.99905C2.79975 6.79316 2.7098 6.58346 2.66605 6.36299Z" fill="#282B2A"/>
<path d="M5.56007 6.57205C5.77449 6.60183 6.00431 6.61703 6.18607 6.75007C6.35551 6.86094 6.45656 7.04529 6.55453 7.21951C6.45964 7.41273 6.36044 7.60406 6.24954 7.78841C6.45348 7.88344 6.71473 7.85873 6.87924 8.02788C6.65434 8.02281 6.41405 8.03928 6.20456 7.94045C5.94886 7.77511 5.73691 7.52803 5.63216 7.23535C5.55576 7.02375 5.56069 6.79442 5.56007 6.57205Z" fill="#282B2A"/>
<path d="M8.9427 6.60119C9.44301 6.6107 9.92853 6.75007 10.4233 6.81152C10.6599 6.84067 10.899 6.87361 11.1232 6.96104C11.2187 7.03136 11.3081 7.12005 11.4325 7.12702C12.6784 7.31707 13.9236 7.51283 15.1676 7.71682C15.4159 7.74723 15.7018 7.8676 15.9181 7.67691C16.162 7.67945 16.406 7.70859 16.642 7.77511C16.6168 7.80488 16.5669 7.8638 16.5416 7.89358C16.7837 7.97467 17.0345 8.02535 17.2847 8.0735C17.3198 8.15015 17.3549 8.22807 17.39 8.306C17.2058 8.35858 17.0136 8.38582 16.8238 8.35858C14.7677 8.02852 12.7104 7.69908 10.6574 7.34811C10.2532 7.26576 9.83796 7.21064 9.46088 7.03009C9.40419 6.93506 9.38447 6.78872 9.26433 6.75641C9.11275 6.70826 8.95132 6.70636 8.79421 6.69369C8.8435 6.66201 8.89279 6.6316 8.9427 6.60119Z" fill="#282B2A"/>
<path d="M22.4646 7.7409C22.5404 7.62623 22.6839 7.66234 22.7985 7.6503C22.8213 7.81248 22.8429 7.97466 22.8626 8.13748C22.6235 8.19386 22.4301 7.981 22.4646 7.7409Z" fill="#282B2A"/>
<path d="M18.9211 7.88534C19.0197 7.89231 19.1189 7.89928 19.2181 7.90498C19.1805 8.05892 19.1442 8.21413 19.1115 8.36935C19.2169 8.28255 19.3185 8.1907 19.4196 8.09883C19.4473 8.25975 19.4596 8.42446 19.4923 8.58538C19.5287 8.59741 19.6007 8.62149 19.6371 8.63416C19.6235 8.78684 19.6075 8.94015 19.5933 9.09346C19.6833 9.1093 19.7733 9.12514 19.8638 9.14288C19.8256 9.31519 19.7092 9.42035 19.5416 9.45013C19.5015 9.61801 19.467 9.78653 19.4325 9.95568C19.7394 10.0197 20.0518 9.98736 20.3604 9.96328C20.1984 10.1318 19.963 10.1628 19.7517 10.2243C19.5385 10.1305 19.2945 10.0951 19.1152 9.93351C18.8971 9.75865 18.7351 9.52425 18.5804 9.29175C18.6155 9.03327 18.5946 8.77227 18.5194 8.52266C18.6414 8.30283 18.7813 8.09377 18.9211 7.88534Z" fill="#282B2A"/>
<path d="M11.9291 0.172877C12.3857 0.138033 12.8423 0.0480731 13.3007 0.0753144C13.6907 0.150703 14.0893 0.113325 14.48 0.179845C15.2323 0.212154 15.9791 0.326187 16.7277 0.412979C17.0548 0.454792 17.382 0.504207 17.6987 0.603669C17.3327 0.712001 16.9692 0.8254 16.6044 0.935633C16.3986 1.00279 16.1805 0.995817 15.9686 0.976811C15.9877 1.07881 16.0062 1.18144 16.024 1.2847C15.9162 1.36453 15.8078 1.44308 15.6987 1.52101C15.4177 1.32842 15.0955 1.20805 14.7603 1.17004C14.2274 1.10922 13.7006 0.998985 13.1645 0.966042C12.2489 0.903324 11.3426 0.72974 10.4227 0.729107C10.2643 0.724672 10.1066 0.715803 9.94825 0.705033C10.0136 0.658152 10.0801 0.613171 10.1473 0.569458C10.1701 0.563757 10.2163 0.55172 10.2397 0.546018C10.2458 0.544118 10.2575 0.540316 10.2637 0.537782C10.8133 0.390172 11.3672 0.258402 11.9291 0.172877Z" fill="#A1A5AB"/>
<path d="M17.0043 1.28724C17.3167 1.13583 17.6439 1.01736 17.9858 0.962242C17.7961 1.05727 17.602 1.14533 17.3999 1.20868C17.2686 1.23909 17.1356 1.26063 17.0043 1.28724Z" fill="#A1A5AB"/>
<path d="M15.8983 1.77885C16.016 1.88845 16.1343 1.99678 16.2532 2.10511C16.5909 2.47445 16.9273 2.84569 17.2834 3.1973C17.5268 3.43233 17.7301 3.73769 18.0628 3.84729C17.9285 3.86123 17.7924 3.90494 17.6574 3.8777C17.3968 3.789 17.2643 3.52356 17.1072 3.3145C16.9002 3.02055 16.5736 2.85393 16.3426 2.58405C16.1676 2.3921 16.0394 2.15072 15.8244 1.99995C15.8497 1.92646 15.8743 1.85234 15.8983 1.77885Z" fill="#A1A5AB"/>
<path d="M1.95502 2.44911C2.12754 2.40413 2.30191 2.36549 2.47813 2.33888C4.3358 2.55237 6.19409 2.76524 8.05114 2.9895C8.25262 3.17956 8.51386 3.36518 8.49723 3.68194C8.22304 3.50582 7.97166 3.25621 7.6334 3.22644C5.88232 2.9686 4.11953 2.80895 2.36845 2.55491C2.22921 2.52703 2.08996 2.49409 1.95502 2.44911Z" fill="#A1A5AB"/>
<path d="M21.0037 2.66197C22.2853 2.88814 23.5761 3.14345 24.7819 3.65977C25.0388 3.77443 25.297 3.97526 25.3487 4.27555C25.122 4.42252 24.9285 4.62272 24.6815 4.73802C24.4695 4.85458 24.2224 4.92364 24.0481 5.10102C23.7646 5.54068 23.8349 6.09185 23.8139 6.59169C23.8195 6.80772 23.6044 6.92556 23.4331 6.98764C23.032 7.10041 22.6149 7.13525 22.2015 7.16059C22.1183 6.95407 22.0345 6.74754 21.9205 6.55685C21.9827 6.45549 22.1103 6.3687 22.0924 6.23629C21.9692 6.06714 21.7917 5.95311 21.6525 5.79916C21.5237 5.69273 21.5015 5.50204 21.6217 5.37914C21.8158 5.54322 21.96 5.75672 22.1195 5.95374C22.321 6.18498 22.2939 6.5144 22.3185 6.80202C22.5761 6.80962 22.8355 6.79695 23.0887 6.74501C23.1898 6.73043 23.2908 6.71966 23.3931 6.70826C23.427 6.54038 23.4621 6.37313 23.4991 6.20588C23.3327 6.24136 23.167 6.2762 23.0012 6.30978C22.9544 6.19701 22.9088 6.08425 22.8645 5.97148C22.9113 5.92016 22.9587 5.86948 23.0062 5.81943C23.1565 5.83274 23.3075 5.83337 23.459 5.8264C23.3635 5.74278 23.2594 5.67499 23.1393 5.63888C23.0943 5.56983 23.0505 5.50014 23.008 5.43045C22.8065 5.43109 22.6057 5.42982 22.4048 5.44186C22.3765 5.44566 22.3185 5.45453 22.2896 5.45833C22.4861 5.40828 22.6895 5.39307 22.8866 5.34493C22.6174 5.31452 22.3432 5.33416 22.0758 5.28791C21.9125 5.13967 21.7696 4.93758 21.5323 4.92174C20.4307 4.72471 19.3284 4.51882 18.2157 4.39782C18.1867 4.21156 18.1559 4.02594 18.122 3.84095C18.5545 3.80231 18.9951 3.81751 19.4184 3.70158C19.6648 3.6509 19.8903 3.52039 20.1405 3.49188C20.6722 3.49568 21.1707 3.71615 21.6895 3.80421C22.13 3.87896 22.5299 3.61795 22.878 3.37468C22.472 3.12381 21.9908 3.101 21.5373 3.00724C21.3204 2.97113 21.1731 2.78868 21.0037 2.66197ZM23.138 5.27777C23.1374 5.37534 23.3629 5.37534 23.3641 5.27841C23.3068 5.22013 23.1953 5.21949 23.138 5.27777Z" fill="#A1A5AB"/>
<path d="M16.0838 3.29486C16.2594 3.37215 16.4763 3.4412 16.5471 3.64646C16.589 3.79977 16.5786 3.96196 16.5823 4.12034C16.374 4.13047 16.1657 4.13807 15.9575 4.13807C15.87 3.9024 15.7616 3.67434 15.6242 3.46464C15.7745 3.40066 15.9298 3.34998 16.0838 3.29486Z" fill="#A1A5AB"/>
<path d="M25.4165 5.20175C25.4221 5.10799 25.4368 5.0155 25.4529 4.923C25.4972 5.04717 25.5046 5.17958 25.5034 5.31072C25.4806 5.32972 25.435 5.3671 25.4122 5.3861C25.1941 5.56856 25.0191 5.80803 24.756 5.92776C24.764 5.80296 24.7572 5.67499 24.7942 5.55462C24.9495 5.36076 25.1855 5.2632 25.4165 5.20175ZM25.2138 5.34049C25.2446 5.37217 25.2446 5.37217 25.2138 5.34049ZM24.8361 5.60277C24.8324 5.64268 24.8256 5.7225 24.8219 5.76241C24.878 5.73517 24.9347 5.7092 24.9914 5.68323C24.9969 5.64331 25.0086 5.56349 25.0142 5.52421C24.9544 5.55019 24.8946 5.57616 24.8361 5.60277Z" fill="#A1A5AB"/>
<path d="M24.3531 5.73011C24.4658 5.64965 24.6044 5.62558 24.7351 5.5901C24.6285 5.7016 24.5114 5.80233 24.3845 5.88785C24.4966 5.85048 24.6087 5.81437 24.724 5.78522C24.5841 5.9284 24.4325 6.06397 24.2612 6.16534C24.2754 6.01963 24.2428 5.84541 24.3531 5.73011Z" fill="#A1A5AB"/>
<path d="M24.9242 6.60056C25.0203 6.41241 25.167 6.25973 25.3401 6.1457C25.2397 6.33005 25.0961 6.48526 24.9242 6.60056Z" fill="#A1A5AB"/>
<path d="M24.5009 8.16852C24.533 7.94806 24.6636 7.77194 24.8386 7.64777C24.8306 7.74723 24.8213 7.84733 24.8133 7.94742L24.8096 7.98543C24.7067 8.04625 24.6038 8.1077 24.5009 8.16852Z" fill="#A1A5AB"/>
<path d="M17.6987 0.603669C18.0179 0.511809 18.3339 0.393974 18.6685 0.373701C18.6168 0.586564 18.549 0.793725 18.4757 0.999618C19.1688 1.46399 19.8441 1.9613 20.4757 2.50993C20.6322 2.61699 20.8299 2.60369 21.0037 2.66197C21.1731 2.78868 21.3204 2.97113 21.5373 3.00724C21.9908 3.101 22.472 3.12381 22.878 3.37468C22.5299 3.61795 22.13 3.87896 21.6895 3.80421C21.1707 3.71615 20.6722 3.49568 20.1405 3.49188C19.8903 3.52039 19.6648 3.6509 19.4184 3.70158C18.9951 3.81751 18.5545 3.80231 18.122 3.84095L18.0628 3.84729C17.7301 3.73769 17.5268 3.43233 17.2834 3.1973C16.9273 2.84569 16.5909 2.47445 16.2532 2.10511C16.6155 2.45228 17.1312 2.49789 17.6032 2.46685C17.7123 2.20964 17.7474 1.90935 17.9803 1.72563C17.7659 1.57929 17.5662 1.41077 17.3999 1.20868C17.602 1.14533 17.7961 1.05727 17.9858 0.962242C17.6439 1.01736 17.3167 1.13583 17.0043 1.28724C16.6827 1.36833 16.3432 1.3829 16.024 1.2847C16.0062 1.18144 15.9877 1.07881 15.9686 0.976811C16.1805 0.995817 16.3986 1.00279 16.6044 0.935633C16.9692 0.8254 17.3327 0.712001 17.6987 0.603669ZM18.3648 0.777887C18.3358 0.867213 18.3648 0.896988 18.4516 0.866579C18.48 0.777253 18.451 0.748111 18.3648 0.777887Z" fill="#434A4D"/>
<path d="M12.4116 1.09021C12.4812 1.03003 12.52 1.0465 12.528 1.13899C12.4578 1.19854 12.419 1.18207 12.4116 1.09021Z" fill="#434A4D"/>
<path d="M13.0296 1.15293C13.0992 1.09338 13.138 1.10922 13.146 1.20234C13.0758 1.26126 13.037 1.24542 13.0296 1.15293Z" fill="#434A4D"/>
<path d="M13.5638 1.21501C13.7468 1.11745 13.5724 1.42661 13.5638 1.21501Z" fill="#434A4D"/>
<path d="M13.9975 1.27837C14.1799 1.18017 14.0062 1.48996 13.9975 1.27837Z" fill="#434A4D"/>
<path d="M9.06161 3.06552C9.1565 2.64867 9.21627 2.22168 9.35921 1.81749C9.37954 2.43707 9.1337 3.01991 9.06654 3.62872C9.01479 4.2388 9.1183 4.84571 9.13124 5.45516C9.13863 5.79219 9.20764 6.12226 9.26186 6.45422C9.5915 6.53278 9.9273 6.58536 10.2625 6.63351C11.602 6.84383 12.9427 7.04403 14.2822 7.25055C15.1701 7.37409 16.0518 7.55211 16.9458 7.62623C16.9285 7.53247 16.9119 7.43871 16.8909 7.34685C16.8835 7.32278 16.8681 7.27526 16.8608 7.25119C16.6734 7.21381 16.4843 7.18974 16.2951 7.16693C16.2988 7.11815 16.3068 7.02059 16.3112 6.9718C16.5724 7.00411 16.8349 7.03579 17.0986 7.04086C17.1898 6.52011 17.1128 5.96958 17.3222 5.47353C17.4479 5.68703 17.5268 5.92586 17.5755 6.16977C17.2939 6.67722 17.1128 7.26703 17.1879 7.85557C17.0049 7.83529 16.8232 7.80742 16.642 7.77511C16.406 7.70859 16.162 7.67945 15.9181 7.67691C14.764 7.50333 13.6112 7.32087 12.4578 7.14412C12.0129 7.0833 11.5718 6.99081 11.1232 6.96104C10.899 6.87361 10.6599 6.84067 10.4233 6.81152C9.92853 6.75007 9.44301 6.6107 8.9427 6.60119C8.85952 6.59803 8.77696 6.59613 8.69439 6.59549L8.67468 6.54671C8.80407 6.54608 8.93284 6.54481 9.06285 6.54355C8.97043 5.61354 8.9008 4.67847 8.9464 3.74339C8.95995 3.51342 9.00986 3.28852 9.06161 3.06552Z" fill="#434A4D"/>
<path d="M1.22058 2.79311C1.36907 2.83619 1.52126 2.86533 1.67283 2.89701C1.53543 3.2068 1.41528 3.5356 1.4541 3.8834C1.40234 3.89797 1.34997 3.91254 1.29821 3.92711L1.32532 3.8777C1.33888 3.85109 1.36599 3.79914 1.37954 3.77317C1.43993 3.48935 1.46272 3.1992 1.52187 2.91538C1.41836 2.91348 1.31423 2.91095 1.21072 2.90968C1.2101 3.05856 1.2101 3.20807 1.21195 3.35758L1.16143 3.35631C1.17437 3.16752 1.18608 2.97873 1.22058 2.79311Z" fill="#434A4D"/>
<path d="M14.5582 5.24673C14.4707 4.86282 14.5847 4.36867 14.9871 4.2331L15.0376 4.24514C15.1848 4.27998 15.3321 4.31356 15.4812 4.34207C15.8096 4.39972 16.1399 4.4447 16.4701 4.49094C16.114 4.70444 15.719 4.83494 15.358 5.0383C15.1134 5.17768 14.8404 5.26764 14.5582 5.24673Z" fill="#434A4D"/>
<path d="M24.6815 4.73802C24.9285 4.62272 25.122 4.42252 25.3487 4.27555C25.366 4.26098 25.4005 4.23184 25.4171 4.21726C25.4375 4.45167 25.4473 4.68797 25.4529 4.923C25.4368 5.0155 25.4221 5.10799 25.4165 5.20175C25.1855 5.2632 24.9495 5.36076 24.7942 5.55462C24.7572 5.67499 24.764 5.80296 24.756 5.92776C25.0191 5.80803 25.1941 5.56856 25.4122 5.3861C25.4202 5.41145 25.4375 5.4634 25.4461 5.48937C25.5829 5.43489 25.7203 5.38294 25.8595 5.33543C25.9063 5.38231 25.9532 5.42855 26 5.47543C25.9593 5.57616 25.9193 5.67689 25.8768 5.77762C25.8755 5.74278 25.8725 5.67372 25.8712 5.63951C25.6771 5.78776 25.5145 5.97211 25.3715 6.1704C25.4523 6.26543 25.5404 6.35349 25.634 6.43585C25.7166 6.25466 25.7973 6.07157 25.8601 5.88152C25.8663 6.13873 25.8872 6.39657 25.8626 6.65315C25.8262 6.89262 25.7018 7.10421 25.5983 7.31834C25.6291 7.37282 25.6611 7.42667 25.695 7.47989C25.5564 7.5312 25.4085 7.54451 25.2625 7.55591C25.1294 7.70542 24.9914 7.85493 24.8133 7.94742C24.8213 7.84733 24.8306 7.74723 24.8386 7.64777C24.6636 7.77194 24.533 7.94806 24.5009 8.16852C24.6038 8.1077 24.7067 8.04625 24.8096 7.98543C24.7369 8.07539 24.6636 8.16472 24.589 8.25405C24.6014 8.3212 24.6137 8.38962 24.6266 8.45804C24.2545 8.43144 23.8922 8.62909 23.5256 8.51252C23.2711 8.45868 23.0142 8.36175 22.7511 8.39532C22.5724 8.45741 22.4498 8.61769 22.3062 8.73552C22.2415 8.79001 22.1744 8.84132 22.1084 8.8939C22.0487 8.68484 22.0025 8.46691 21.8916 8.27939C21.8207 8.26165 21.7486 8.25658 21.6771 8.24961C21.7665 8.18373 21.854 8.11594 21.9415 8.04815C21.9895 8.17106 22.0333 8.2965 22.0783 8.42193C22.1189 8.35921 22.1608 8.29776 22.2027 8.23631C22.2212 8.32754 22.2403 8.41876 22.26 8.50999C22.3561 8.43587 22.4492 8.35731 22.5397 8.27622C22.4245 8.13748 22.3118 7.99621 22.1892 7.8638C22.273 7.79095 22.3561 7.71809 22.4399 7.64524C22.3204 7.48812 22.1633 7.36965 21.9883 7.28476C21.6654 7.13145 21.5835 6.73867 21.3487 6.49223C21.1423 6.22742 20.8219 6.10135 20.5909 5.86695C20.5601 5.73264 20.5632 5.5939 20.5582 5.45769C21.1232 5.64141 21.5977 6.05194 21.9205 6.55685C22.0345 6.74754 22.1183 6.95407 22.2015 7.16059C22.6149 7.13525 23.032 7.10041 23.4331 6.98764C23.6044 6.92556 23.8195 6.80772 23.8139 6.59169C23.8349 6.09185 23.7646 5.54068 24.0481 5.10102C24.2224 4.92364 24.4695 4.85458 24.6815 4.73802ZM24.3531 5.73011C24.2428 5.84541 24.2754 6.01963 24.2612 6.16534C24.4325 6.06397 24.5841 5.9284 24.724 5.78522C24.6087 5.81437 24.4966 5.85048 24.3845 5.88785C24.5114 5.80233 24.6285 5.7016 24.7351 5.5901C24.6044 5.62558 24.4658 5.64965 24.3531 5.73011ZM25.3401 6.1457C25.2397 6.33005 25.0961 6.48526 24.9242 6.60056C25.0203 6.41241 25.167 6.25973 25.3401 6.1457ZM25.3315 6.56509C25.2785 6.64048 25.3943 6.75894 25.4683 6.70573C25.5176 6.62971 25.4042 6.5125 25.3315 6.56509ZM25.6414 6.6107C25.6722 6.64364 25.6722 6.64364 25.6414 6.6107ZM23.8792 7.00538C24.0696 7.20557 24.3432 6.96357 24.4658 6.79125C24.2668 6.85144 24.0709 6.92302 23.8792 7.00538ZM24.9569 6.79759C24.931 6.88755 24.9606 6.91606 25.0462 6.88375C25.0727 6.79315 25.0425 6.76464 24.9569 6.79759ZM25.0764 6.92746C25.1078 6.95977 25.1078 6.95977 25.0764 6.92746ZM24.9014 7.0548C24.9328 7.08711 24.9328 7.08711 24.9014 7.0548ZM24.7178 7.23978C24.658 7.25562 24.5977 7.38106 24.6864 7.40006C24.7954 7.42224 24.8645 7.18594 24.7178 7.23978ZM24.8953 7.61419C24.9273 7.62687 24.992 7.65157 25.024 7.66361C25.162 7.54958 25.2914 7.41844 25.3598 7.24675C25.1922 7.35128 25.0376 7.47672 24.8953 7.61419ZM23.9871 7.57238C23.8004 7.60342 23.8213 7.83149 23.7708 7.97403C23.971 7.88281 24.183 7.82199 24.3968 7.77257C24.2847 7.66424 24.162 7.49446 23.9871 7.57238ZM22.9791 7.66361C22.9655 7.82262 22.9396 7.98354 22.9593 8.14382C23.0918 8.24581 23.2612 8.27749 23.4221 8.30283C23.5231 8.30853 23.658 8.34908 23.7141 8.22998C23.6901 8.03548 23.6513 7.83909 23.6833 7.64334C23.4498 7.58062 23.2101 7.60723 22.9791 7.66361ZM22.4646 7.7409C22.4301 7.981 22.6235 8.19386 22.8626 8.13748C22.8429 7.97466 22.8213 7.81248 22.7985 7.6503C22.6839 7.66234 22.5404 7.62623 22.4646 7.7409Z" fill="#434A4D"/>
<path d="M23.3641 5.27841C23.3068 5.22013 23.1953 5.21949 23.138 5.27777C23.1374 5.37534 23.3629 5.37534 23.3641 5.27841Z" fill="#434A4D"/>
<path d="M22.1701 5.70857C22.0881 5.6072 22.1491 5.43996 22.2896 5.45833C22.3185 5.45453 22.3765 5.44566 22.4048 5.44186C22.4301 5.54385 22.4553 5.64712 22.4812 5.75038C22.5755 5.71934 22.6691 5.68259 22.7677 5.66675C22.8509 5.71047 22.9291 5.76432 23.0062 5.81943C22.9587 5.86948 22.9113 5.92016 22.8645 5.97148C22.9088 6.08425 22.9544 6.19701 23.0012 6.30978C23.167 6.2762 23.3327 6.24136 23.4991 6.20588C23.4621 6.37313 23.427 6.54038 23.3931 6.70826C23.2908 6.71966 23.1898 6.73043 23.0887 6.74501C23.1577 6.69559 23.2249 6.64428 23.2933 6.59423C23.0203 6.63351 22.7461 6.66075 22.4707 6.66582C22.4621 6.52708 22.4424 6.38897 22.4116 6.25403C22.5336 6.22995 22.6562 6.20715 22.7782 6.18434C22.7788 6.12099 22.78 6.05827 22.7813 5.99555C22.5625 5.95121 22.2884 5.93853 22.1701 5.70857Z" fill="#434A4D"/>
<path d="M3.73937 5.6997C3.87184 5.76685 4.00123 5.84097 4.13678 5.90306C4.01048 5.96958 3.87554 6.01709 3.74184 6.06461C3.73876 5.94234 3.73814 5.8207 3.73937 5.6997Z" fill="#434A4D"/>
<path d="M3.97351 6.06587C4.17437 6.06334 4.18053 6.28317 4.20086 6.43395C4.00801 6.41748 3.98891 6.22172 3.97351 6.06587Z" fill="#434A4D"/>
<path d="M6.31855 6.28634C6.38755 6.25656 6.45656 6.22742 6.52557 6.19764L6.5878 6.16977C6.57425 6.27303 6.55453 6.37693 6.51879 6.47576C6.40111 6.49033 6.37153 6.36616 6.31855 6.28634Z" fill="#434A4D"/>
<path d="M3.91251 6.72283C4 6.61767 4.10413 6.52897 4.2366 6.49476C4.25816 6.62274 4.27788 6.75134 4.29328 6.88058C4.16636 6.82863 4.0382 6.77795 3.91251 6.72283Z" fill="#434A4D"/>
<path d="M7.00739 6.91986C6.92914 6.79759 6.92052 6.53341 7.12939 6.59676C7.16636 6.70129 7.19101 6.80962 7.21873 6.91795C7.16574 6.91859 7.06038 6.91986 7.00739 6.91986Z" fill="#434A4D"/>
<path d="M8.57794 6.82673C8.65065 6.78238 8.72212 6.73804 8.79421 6.69369C8.95132 6.70636 9.11275 6.70826 9.26433 6.75641C9.38447 6.78872 9.40419 6.93506 9.46088 7.03009C9.35428 7.07697 9.24892 7.12702 9.1411 7.1701C9.0801 7.06873 9.01664 6.96991 8.94455 6.87804C8.81885 6.91162 8.68454 6.91606 8.57794 6.82673Z" fill="#434A4D"/>
<path d="M3.78189 6.77541C3.87924 6.81469 3.97412 6.86031 4.06716 6.91099C4.03512 6.9547 4.00308 6.99841 3.97043 7.04213L3.94886 7.07063L3.91559 7.11245C3.86568 7.00221 3.82255 6.88881 3.78189 6.77541Z" fill="#434A4D"/>
<path d="M7.01232 7.00982C7.10906 7.03706 7.20518 7.06557 7.30191 7.09408C7.26371 7.17707 7.22921 7.26259 7.18176 7.34051C7.10659 7.38549 7.02588 7.30694 6.95441 7.28603C6.9655 7.19164 6.98829 7.09978 7.01232 7.00982Z" fill="#434A4D"/>
<path d="M6.53358 7.38232C6.70363 7.47989 6.74122 7.68641 6.81023 7.85746C6.70364 7.84859 6.59766 7.83972 6.49107 7.83086C6.50154 7.68134 6.5151 7.5312 6.53358 7.38232Z" fill="#434A4D"/>
<path d="M19.5163 8.04119C19.6463 8.04309 19.777 8.04562 19.9076 8.04879C19.8829 8.15522 19.8558 8.26165 19.8269 8.36745C19.7843 8.36745 19.6987 8.36682 19.6562 8.36682C19.6088 8.25848 19.5619 8.15015 19.5163 8.04119Z" fill="#434A4D"/>
<path d="M20.0752 8.08743C20.1885 8.14825 20.3623 8.16345 20.4079 8.30663C20.3204 8.45044 20.151 8.47261 20.0018 8.48528C20.0234 8.35161 20.0456 8.21857 20.0752 8.08743Z" fill="#434A4D"/>
<path d="M20.2865 8.63416C20.3506 8.56764 20.4301 8.51886 20.5132 8.48148C20.6599 8.54737 20.6315 8.74883 20.6587 8.88377C20.5422 8.88693 20.4258 8.88567 20.3099 8.8787C20.3007 8.79697 20.2877 8.71588 20.2865 8.63416Z" fill="#434A4D"/>
<path d="M19.6778 9.64146C19.7147 9.64399 19.7893 9.65032 19.8262 9.65286C19.8534 9.6687 19.9088 9.70037 19.9365 9.71558C19.9877 9.7859 20.0314 9.86192 20.0764 9.93668C19.9181 9.94111 19.7591 9.94428 19.6007 9.94744C19.626 9.84545 19.6519 9.74282 19.6778 9.64146Z" fill="#434A4D"/>
<path d="M9.76032 0.800694C9.95934 0.68476 10.2039 0.742411 10.4227 0.729107C11.3426 0.72974 12.2489 0.903324 13.1645 0.966042C13.7006 0.998985 14.2274 1.10922 14.7603 1.17004C15.0955 1.20805 15.4177 1.32842 15.6987 1.52101C15.6488 1.6268 15.594 1.7307 15.5354 1.8327C15.6149 1.91569 15.7141 1.97144 15.8244 1.99995C16.0394 2.15072 16.1676 2.3921 16.3426 2.58405C16.5736 2.85393 16.9002 3.02055 17.1072 3.3145C17.2643 3.52356 17.3968 3.789 17.6574 3.8777C17.7924 3.90494 17.9285 3.86123 18.0628 3.84729L18.122 3.84095C18.1559 4.02594 18.1867 4.21156 18.2157 4.39782C19.3284 4.51882 20.4307 4.72471 21.5323 4.92174C21.7696 4.93758 21.9125 5.13967 22.0758 5.28791C22.3432 5.33416 22.6174 5.31452 22.8866 5.34493C22.6895 5.39307 22.4861 5.40828 22.2896 5.45833C22.1491 5.43996 22.0881 5.6072 22.1701 5.70857C22.2884 5.93853 22.5625 5.95121 22.7813 5.99555C22.78 6.05827 22.7788 6.12099 22.7782 6.18434C22.6562 6.20715 22.5336 6.22995 22.4116 6.25403C22.4424 6.38897 22.4621 6.52708 22.4707 6.66582C22.7461 6.66075 23.0203 6.63351 23.2933 6.59423C23.2249 6.64428 23.1577 6.69559 23.0887 6.74501C22.8355 6.79695 22.5761 6.80962 22.3185 6.80202C22.2939 6.5144 22.321 6.18498 22.1195 5.95374C21.96 5.75672 21.8158 5.54322 21.6217 5.37914C21.5015 5.50204 21.5237 5.69273 21.6525 5.79916C21.7917 5.95311 21.9692 6.06714 22.0924 6.23629C22.1103 6.3687 21.9827 6.45549 21.9205 6.55685C21.5977 6.05194 21.1232 5.64141 20.5582 5.45769C19.9322 5.24103 19.2311 5.1327 18.5964 5.37534C18.3179 5.471 18.0678 5.64015 17.8644 5.85681C17.764 5.95754 17.6642 6.05827 17.5755 6.16977C17.5268 5.92586 17.4479 5.68703 17.3222 5.47353C17.1128 5.96958 17.1898 6.52011 17.0986 7.04086C16.8349 7.03579 16.5724 7.00411 16.3112 6.9718C16.3068 7.02059 16.2988 7.11815 16.2951 7.16693C16.3259 7.23028 16.3617 7.29047 16.4017 7.34812C16.5644 7.36712 16.7283 7.35382 16.8909 7.34685C16.9119 7.43871 16.9285 7.53247 16.9458 7.62623C16.0518 7.55211 15.1701 7.37409 14.2822 7.25055C12.9427 7.04403 11.602 6.84383 10.2625 6.63351C9.9273 6.58536 9.5915 6.53278 9.26186 6.45422C9.20764 6.12226 9.13863 5.79219 9.13124 5.45516C9.1183 4.84571 9.01479 4.2388 9.06654 3.62872C9.1337 3.01991 9.37954 2.43707 9.35921 1.81749C9.374 1.7402 9.38879 1.66291 9.40604 1.58689C9.47936 1.31068 9.55022 1.00342 9.76032 0.800694ZM12.528 1.13899C12.4578 1.19854 12.419 1.18207 12.4116 1.09021C12.4812 1.03003 12.52 1.0465 12.528 1.13899ZM10.2138 1.32081C10.0136 1.84664 9.93962 2.41363 9.85767 2.9686C9.95009 3.03322 10.0413 3.1029 10.1454 3.14661C10.2588 3.23214 10.3888 3.28726 10.5311 3.29232C11.7221 3.42853 12.9082 3.60908 14.0986 3.74909C14.4442 3.79787 14.6771 4.09816 14.9871 4.2331C14.5847 4.36867 14.4707 4.86282 14.5582 5.24673C14.8404 5.26764 15.1134 5.17768 15.358 5.0383C15.719 4.83494 16.114 4.70444 16.4701 4.49094C16.6648 4.50298 16.8681 4.55746 17.0598 4.50488C17.1571 4.32813 17.1528 4.09753 17.1473 3.89607C17.0856 3.54827 16.788 3.32337 16.5896 3.05539C16.3888 2.82986 16.1799 2.61066 15.9489 2.41807C15.6315 2.15199 15.3598 1.80166 14.955 1.67305C14.5373 1.54318 14.0992 1.50263 13.6685 1.44815C13.1189 1.33158 12.5514 1.30877 11.992 1.27203C11.5459 1.22768 11.0992 1.17637 10.6506 1.15863C10.4991 1.17067 10.2674 1.12632 10.2138 1.32081ZM13.146 1.20234C13.0758 1.26126 13.037 1.24542 13.0296 1.15293C13.0992 1.09338 13.138 1.10922 13.146 1.20234ZM13.5638 1.21501C13.7468 1.11745 13.5724 1.42661 13.5638 1.21501ZM13.9975 1.27837C14.1799 1.18017 14.0062 1.48996 13.9975 1.27837ZM14.4288 1.34235C14.6112 1.24289 14.4381 1.55332 14.4288 1.34235ZM14.7979 1.41647C14.8281 1.44752 14.8281 1.44752 14.7979 1.41647ZM15.0444 1.47983C15.0739 1.51087 15.0739 1.51087 15.0444 1.47983ZM15.167 1.54318C15.1972 1.57422 15.1972 1.57422 15.167 1.54318ZM15.2908 1.60653C15.3204 1.63821 15.3204 1.63821 15.2908 1.60653ZM9.59766 3.86376C9.61553 3.97589 9.55453 4.12667 9.64017 4.21409C9.86137 4.30912 10.1078 4.30215 10.3432 4.32116C10.3426 4.19382 10.3407 4.06648 10.337 3.93978C10.093 3.89543 9.84535 3.86883 9.59766 3.86376ZM18.0918 4.10196C18.0006 4.17609 17.9033 4.01137 17.9932 3.94992C18.0838 3.8758 18.1811 4.03988 18.0918 4.10196ZM12.8084 4.2464C12.7887 4.36551 12.6408 4.5714 12.8158 4.62842C13.0474 4.70634 13.2939 4.73801 13.5373 4.74245C13.6445 4.65566 13.5977 4.49664 13.6192 4.37627C13.3543 4.30279 13.0807 4.27174 12.8084 4.2464ZM17.4763 5.12509C17.6408 5.1517 17.8287 5.25243 17.9834 5.1403C18.2366 4.97938 18.4917 4.8115 18.6888 4.57964C18.6352 4.57647 18.5287 4.57013 18.475 4.56696C18.061 4.52072 17.7794 4.89956 17.4763 5.12509Z" fill="#717473"/>
<path d="M1.35551 2.15136L1.39495 2.15706C1.75724 2.20964 2.11768 2.27362 2.47813 2.33888C2.30191 2.36549 2.12754 2.40413 1.95502 2.44911C2.08996 2.49409 2.22921 2.52703 2.36845 2.55491C4.11953 2.80895 5.88232 2.9686 7.6334 3.22644C7.97166 3.25621 8.22304 3.50582 8.49723 3.68194C8.51386 3.36518 8.25262 3.17956 8.05114 2.9895C8.38755 3.02371 8.72397 3.05159 9.06161 3.06552C9.00986 3.28852 8.95995 3.51342 8.9464 3.74339C8.9008 4.67847 8.97043 5.61354 9.06285 6.54355C8.93284 6.54481 8.80407 6.54608 8.67468 6.54671C8.53543 6.13429 8.50585 5.69083 8.34627 5.28411C8.09427 4.63602 7.63956 4.04811 7.01417 3.74909C6.57671 3.51912 6.07579 3.51659 5.59828 3.47351C4.93715 3.40889 4.27973 3.31323 3.62046 3.23214C3.25632 3.19793 2.85705 3.16119 2.52988 3.36391C2.21319 3.54193 1.99815 3.86439 1.8971 4.21473C1.8016 4.5828 1.8281 4.96735 1.82317 5.34429C1.79975 5.32149 1.75231 5.27587 1.7289 5.25307C1.68638 5.21189 1.64633 5.16818 1.60937 5.12256C1.50955 4.85648 1.44855 4.57774 1.36291 4.30722C1.32348 4.18495 1.28712 4.06205 1.25755 3.93725C1.37215 3.95879 1.48552 3.98793 1.59643 4.02404C1.60813 3.77253 1.58472 3.50645 1.70364 3.27649C1.78743 3.10987 1.83426 2.92805 1.84596 2.74116C1.63401 2.70188 1.41836 2.68605 1.20333 2.67654C1.26433 2.50423 1.313 2.32874 1.35551 2.15136Z" fill="#717473"/>
<path d="M14.6205 3.77887C14.5311 3.66927 14.5816 3.51976 14.5915 3.39305C14.7135 3.59198 14.8404 3.78837 14.9895 3.96766C14.8552 3.93661 14.6987 3.91064 14.6205 3.77887Z" fill="#717473"/>
<path d="M15.4547 4.12604C15.4442 3.89354 15.5003 3.6604 15.6242 3.46464C15.7616 3.67434 15.87 3.9024 15.9575 4.13807C15.7893 4.13807 15.6217 4.13301 15.4547 4.12604Z" fill="#717473"/>
<path d="M22.4048 5.44186C22.6057 5.42982 22.8065 5.43109 23.008 5.43045C23.0505 5.50014 23.0943 5.56983 23.1393 5.63888C23.2594 5.67499 23.3635 5.74278 23.459 5.8264C23.3075 5.83337 23.1565 5.83274 23.0062 5.81943C22.9291 5.76432 22.8509 5.71047 22.7677 5.66675C22.6691 5.68259 22.5755 5.71934 22.4812 5.75038C22.4553 5.64712 22.4301 5.54385 22.4048 5.44186Z" fill="#717473"/>
<path d="M6.7098 6.19764C6.81269 6.25339 6.90696 6.32371 6.98583 6.41304C6.92237 6.45485 6.85952 6.50237 6.7862 6.52454C6.71041 6.43331 6.72274 6.30851 6.7098 6.19764Z" fill="#717473"/>
<path d="M24.4658 6.79125C24.2668 6.85144 24.0709 6.92302 23.8792 7.00538C24.0696 7.20557 24.3432 6.96357 24.4658 6.79125Z" fill="#717473"/>
<path d="M6.53851 6.87614C6.63093 6.86918 6.6223 7.02502 6.54036 7.03389C6.44732 7.03959 6.45718 6.88501 6.53851 6.87614Z" fill="#717473"/>
<path d="M24.8953 7.61419C25.0376 7.47672 25.1922 7.35128 25.3598 7.24675C25.2914 7.41844 25.162 7.54958 25.024 7.66361C24.992 7.65157 24.9273 7.62687 24.8953 7.61419Z" fill="#717473"/>
<path d="M6.77326 7.293C6.86383 7.35762 6.95379 7.4235 7.04128 7.49319C7.01417 7.49826 6.95933 7.5084 6.93222 7.51346C6.90388 7.5198 6.8472 7.53247 6.81885 7.5388L6.77511 7.54894C6.77449 7.46341 6.77388 7.37789 6.77326 7.293Z" fill="#717473"/>
<path d="M20.1879 9.13084C20.3358 9.09346 20.4868 9.07509 20.6377 9.06052C20.5644 9.14161 20.5342 9.33673 20.3949 9.29492C20.3087 9.26895 20.2539 9.18722 20.1879 9.13084Z" fill="#717473"/>
<path d="M20.0832 9.34117C20.167 9.37538 20.2452 9.42036 20.3253 9.46344C20.2606 9.51222 20.1941 9.55847 20.1269 9.60408C20.1109 9.51982 19.9809 9.40642 20.0832 9.34117Z" fill="#717473"/>
<path d="M19.7295 9.4628C19.7868 9.38171 19.9279 9.47864 19.8651 9.56227C19.8065 9.64209 19.6648 9.54579 19.7295 9.4628Z" fill="#717473"/>
<path d="M10.2138 1.32081C10.2674 1.12632 10.4991 1.17067 10.6506 1.15863C11.0992 1.17637 11.5459 1.22768 11.992 1.27203C12.191 1.30497 12.3906 1.33412 12.5872 1.38353C12.4405 2.01071 12.334 2.64614 12.2267 3.28092C12.0351 3.3259 11.8417 3.38418 11.6439 3.37025C11.3999 3.3392 11.1694 3.23151 10.9218 3.2201C10.6624 3.20743 10.4005 3.20426 10.1454 3.14661C10.0413 3.1029 9.95009 3.03322 9.85767 2.9686C9.93962 2.41363 10.0136 1.84664 10.2138 1.32081Z" fill="#161717"/>
<path d="M13.4399 1.46399C13.5157 1.45385 13.5915 1.44878 13.6685 1.44815C14.0992 1.50263 14.5373 1.54318 14.955 1.67305C15.3598 1.80166 15.6315 2.15199 15.9489 2.41807C16.1799 2.61066 16.3888 2.82986 16.5896 3.05539C16.5613 3.08073 16.504 3.13141 16.4757 3.15612C16.2945 2.92298 16.1411 2.655 15.8811 2.50359C15.8879 2.77981 15.963 3.04842 16.0838 3.29486C15.9298 3.34998 15.7745 3.40066 15.6242 3.46464C15.5003 3.6604 15.4442 3.89354 15.4547 4.12604C15.4621 4.19762 15.4707 4.26985 15.4812 4.34207C15.3321 4.31356 15.1848 4.27998 15.0376 4.24514C15.0536 4.18749 15.0702 4.13047 15.0863 4.07345C15.0536 4.03798 15.0216 4.00313 14.9895 3.96766C14.8404 3.78837 14.7135 3.59198 14.5915 3.39305C14.5231 3.25685 14.406 3.16372 14.2914 3.07123C14.2921 3.21694 14.2964 3.36265 14.3044 3.50835C13.984 3.55587 13.6587 3.55904 13.3376 3.52356C13.3173 3.41586 13.297 3.30816 13.2766 3.2011C13.35 3.24291 13.4239 3.28536 13.4978 3.3278C13.5237 3.23214 13.5496 3.13711 13.5767 3.04272C13.7086 3.03005 13.8521 3.03892 13.9704 2.96479C13.9883 2.82099 13.9883 2.67591 13.9846 2.5321C13.777 2.57138 13.5712 2.62016 13.3648 2.66387C13.2649 2.26222 13.3839 1.8612 13.4399 1.46399Z" fill="#161717"/>
<path d="M2.39864 4.0025C2.68269 3.78204 3.06038 3.72312 3.40542 3.79027C3.79667 3.86629 4.19409 3.89797 4.58657 3.96259C5.18484 4.07409 5.79729 4.06902 6.39248 4.20269C6.99507 4.30659 7.49723 4.75385 7.78065 5.29741C7.52557 5.15741 7.26679 4.99332 6.96981 4.97749C6.67961 4.96418 6.40789 5.09215 6.13986 5.18845C6.55823 5.3595 7.09242 5.45516 7.3167 5.90813C7.61922 6.37883 7.75786 6.93696 7.79606 7.49509C7.8016 7.6446 7.73876 7.78334 7.6907 7.92145C7.8281 7.99747 7.96303 8.07856 8.08811 8.17486C8.0154 8.23884 7.93962 8.30029 7.86075 8.35731C7.43377 8.51949 7.01417 8.83689 6.53666 8.73552C6.12138 8.6462 5.73013 8.40039 5.49107 8.03548C5.38571 7.88217 5.29821 7.71746 5.21072 7.55274C4.93777 7.86063 4.53851 7.96073 4.17622 8.10644C3.76895 8.27939 3.28712 8.13685 2.96796 7.84353C2.66605 7.57175 2.42822 7.21761 2.30006 6.8261C2.18854 6.45802 2.20702 6.06777 2.23598 5.68893C2.09304 5.58123 1.95317 5.46846 1.82317 5.34429C1.8281 4.96735 1.8016 4.5828 1.8971 4.21473C2.09489 4.24134 2.25262 4.12097 2.39864 4.0025ZM3.43192 4.66706C3.62046 4.9211 3.94455 4.99966 4.14603 5.23786C4.52495 5.68956 4.68762 6.26986 4.85582 6.82736C4.91374 6.75324 5 6.68925 5.0037 6.58662C5.0345 6.33322 5.18484 6.10325 5.14726 5.84287C5.20209 5.85554 5.25755 5.86821 5.31238 5.88088C5.30314 5.80993 5.29267 5.73961 5.27973 5.66992C5.4541 5.50457 5.61799 5.31769 5.687 5.07885C5.56192 5.07568 5.43746 5.07568 5.31238 5.07885C5.27234 5.14663 5.23229 5.21379 5.19224 5.28157C4.87184 5.02183 4.60813 4.62968 4.17252 4.57583C3.9236 4.5828 3.67899 4.63855 3.43192 4.66706ZM3.57548 5.59897C3.4923 5.5958 3.46334 5.75038 3.55884 5.75228C3.6414 5.75481 3.67036 5.60024 3.57548 5.59897ZM3.73937 5.6997C3.73814 5.8207 3.73876 5.94234 3.74184 6.06461C3.87554 6.01709 4.01048 5.96958 4.13678 5.90306C4.00123 5.84097 3.87184 5.76685 3.73937 5.6997ZM6.41651 6.02406C6.38386 6.11085 6.3512 6.19828 6.31855 6.28634C6.37153 6.36616 6.40111 6.49033 6.51879 6.47576C6.55453 6.37693 6.57425 6.27303 6.5878 6.16977L6.52557 6.19764C6.5496 6.18814 6.59766 6.16977 6.62169 6.16027C6.55391 6.11339 6.4849 6.06904 6.41651 6.02406ZM4.20086 6.43395C4.00801 6.41748 3.98891 6.22172 3.97351 6.06587C4.17437 6.06334 4.18053 6.28317 4.20086 6.43395ZM2.66605 6.36299C2.7098 6.58346 2.79975 6.79316 2.88848 6.99905C3.07763 7.35002 3.49476 7.61483 3.88725 7.45962C3.85459 7.22585 3.78065 6.99778 3.63463 6.81153C3.54898 6.98448 3.53974 7.17643 3.5915 7.36142C3.53481 7.33291 3.47813 7.3044 3.42206 7.27716C3.42884 6.96991 3.60937 6.69686 3.57856 6.38643C3.43192 6.34906 3.28897 6.37883 3.17252 6.4783C3.0727 6.4992 2.97412 6.52771 2.87431 6.54735C2.88725 6.48907 2.9008 6.43141 2.91497 6.3744C3.01972 6.36046 3.12446 6.34462 3.22921 6.32942C3.18238 6.0342 2.6642 6.04623 2.66605 6.36299ZM6.7098 6.19764C6.72274 6.30851 6.71041 6.43331 6.7862 6.52454C6.85952 6.50237 6.92237 6.45485 6.98583 6.41304C6.90696 6.32371 6.81269 6.25339 6.7098 6.19764ZM3.91251 6.72283C4.0382 6.77795 4.16636 6.82863 4.29328 6.88058C4.27788 6.75134 4.25816 6.62274 4.2366 6.49476C4.10413 6.52897 4 6.61767 3.91251 6.72283ZM5.56007 6.57205C5.56069 6.79442 5.55576 7.02375 5.63216 7.23535C5.73691 7.52803 5.94886 7.77511 6.20456 7.94045C6.41405 8.03928 6.65434 8.02281 6.87924 8.02788C6.71473 7.85873 6.45348 7.88344 6.24954 7.78841C6.36044 7.60406 6.45964 7.41273 6.55453 7.21951C6.45656 7.04529 6.35551 6.86094 6.18607 6.75007C6.00431 6.61703 5.77449 6.60183 5.56007 6.57205ZM7.00739 6.91986C7.06038 6.91986 7.16574 6.91859 7.21873 6.91795C7.19101 6.80962 7.16636 6.70129 7.12939 6.59676C6.92052 6.53341 6.92914 6.79759 7.00739 6.91986ZM3.78189 6.77541C3.82255 6.88881 3.86568 7.00221 3.91559 7.11245L3.94886 7.07063C3.97289 7.15172 4.1337 7.17833 4.15712 7.0852C4.13925 7.00285 4.02526 6.99905 3.97043 7.04213C4.00308 6.99841 4.03512 6.9547 4.06716 6.91099C3.97412 6.86031 3.87924 6.81469 3.78189 6.77541ZM6.54036 7.03389C6.44732 7.03959 6.45718 6.88501 6.53851 6.87614C6.63093 6.86918 6.6223 7.02502 6.54036 7.03389ZM7.01232 7.00982C6.98829 7.09978 6.9655 7.19164 6.95441 7.28603C7.02588 7.30694 7.10659 7.38549 7.18176 7.34051C7.22921 7.26259 7.26371 7.17707 7.30191 7.09408C7.20518 7.06557 7.10906 7.03706 7.01232 7.00982ZM6.77326 7.293C6.77388 7.37789 6.77449 7.46341 6.77511 7.54894L6.81885 7.5388C6.88909 7.66931 7.03019 7.67564 7.1602 7.68261C7.15712 7.54261 7.04559 7.5141 6.93222 7.51346C6.95933 7.5084 7.01417 7.49826 7.04128 7.49319C6.95379 7.4235 6.86383 7.35762 6.77326 7.293ZM6.53358 7.38232C6.5151 7.5312 6.50154 7.68134 6.49107 7.83086C6.59766 7.83972 6.70364 7.84859 6.81023 7.85746C6.74122 7.68641 6.70363 7.47989 6.53358 7.38232Z" fill="#161717"/>
<path d="M25.3715 6.1704C25.5145 5.97211 25.6771 5.78776 25.8712 5.63951C25.8725 5.67372 25.8755 5.74278 25.8768 5.77762C25.8725 5.8036 25.8644 5.85554 25.8601 5.88152C25.7973 6.07157 25.7166 6.25466 25.634 6.43585C25.5404 6.35349 25.4523 6.26543 25.3715 6.1704Z" fill="#161717"/>
<path d="M17.5755 6.16977C17.6642 6.05827 17.764 5.95754 17.8644 5.85681C17.971 6.1495 17.8262 6.42698 17.7049 6.68482C17.4726 7.17326 17.5311 7.73266 17.5625 8.25722C17.5046 8.27369 17.4473 8.28952 17.39 8.306C17.3549 8.22807 17.3198 8.15015 17.2847 8.0735C17.2514 8.00064 17.2181 7.92842 17.1879 7.85557C17.1128 7.26703 17.2939 6.67722 17.5755 6.16977Z" fill="#161717"/>
<path d="M18.5096 6.12416C19.024 5.92143 19.634 5.82704 20.1485 6.07981C20.3672 6.17864 20.6112 6.21031 20.8189 6.33638C21.1134 6.53594 21.35 6.81786 21.5182 7.13525C21.3259 7.12005 21.1645 7.01235 20.9945 6.93063C20.9057 6.94773 20.8226 6.98448 20.7388 7.01679C20.6913 6.87551 20.6661 6.70953 20.5471 6.6107C20.2446 6.55558 19.9211 6.58662 19.6352 6.70446C19.5169 6.7374 19.5096 6.87361 19.4855 6.97561C19.7468 6.99714 20.0283 7.00728 20.244 7.18213C20.6192 7.46278 21.0431 7.73963 21.2304 8.19766C21.403 8.63163 21.5348 9.10043 21.4954 9.5743C21.4738 9.83848 21.3543 10.0767 21.2705 10.3231C21.2945 10.3307 21.342 10.3447 21.366 10.3523C20.9803 10.7381 20.4677 11.0181 19.9187 10.9991C19.5958 10.9402 19.2495 10.9117 18.9735 10.7115C18.825 10.6101 18.6636 10.5258 18.5317 10.4017C18.3247 10.1837 18.1577 9.92907 18.0203 9.6611C17.7911 9.20559 17.7917 8.67154 17.8571 8.17549C18 7.74406 18.2853 7.38613 18.5317 7.01489C18.5182 6.96674 18.5046 6.91986 18.4911 6.87234C18.411 6.90465 18.3309 6.93696 18.2514 6.9699C18.1128 6.67532 18.1855 6.24896 18.5096 6.12416ZM18.9211 7.88534C18.7813 8.09377 18.6414 8.30283 18.5194 8.52266C18.5946 8.77227 18.6155 9.03327 18.5804 9.29175C18.7351 9.52425 18.8971 9.75865 19.1152 9.93351C19.2945 10.0951 19.5385 10.1305 19.7517 10.2243C19.963 10.1628 20.1984 10.1318 20.3604 9.96328C20.0518 9.98736 19.7394 10.0197 19.4325 9.95568C19.467 9.78653 19.5015 9.61801 19.5416 9.45013C19.7092 9.42035 19.8256 9.31519 19.8638 9.14288C19.7733 9.12514 19.6833 9.1093 19.5933 9.09346C19.6075 8.94015 19.6235 8.78684 19.6371 8.63416C19.6007 8.62149 19.5287 8.59741 19.4923 8.58538C19.4596 8.42446 19.4473 8.25975 19.4196 8.09883C19.3598 8.02535 19.2902 7.96326 19.2181 7.90498C19.1189 7.89928 19.0197 7.89231 18.9211 7.88534ZM19.5163 8.04119C19.5619 8.15015 19.6088 8.25848 19.6562 8.36682C19.6987 8.36682 19.7843 8.36745 19.8269 8.36745C19.8558 8.26165 19.8829 8.15522 19.9076 8.04879C19.777 8.04562 19.6463 8.04309 19.5163 8.04119ZM20.0752 8.08743C20.0456 8.21857 20.0234 8.35161 20.0018 8.48528C20.151 8.47261 20.3204 8.45044 20.4079 8.30663C20.3623 8.16345 20.1885 8.14825 20.0752 8.08743ZM20.2865 8.63416C20.2877 8.71588 20.3007 8.79697 20.3099 8.8787C20.4258 8.88567 20.5422 8.88693 20.6587 8.88377C20.6315 8.74883 20.6599 8.54737 20.5132 8.48148C20.4301 8.51886 20.3506 8.56764 20.2865 8.63416ZM20.1879 9.13084C20.2539 9.18722 20.3087 9.26895 20.3949 9.29492C20.5342 9.33673 20.5644 9.14161 20.6377 9.06052C20.4868 9.07509 20.3358 9.09346 20.1879 9.13084ZM20.0832 9.34117C19.9809 9.40642 20.1109 9.51982 20.1269 9.60408C20.1941 9.55847 20.2606 9.51222 20.3253 9.46344C20.2452 9.42036 20.167 9.37538 20.0832 9.34117ZM19.8651 9.56227C19.8065 9.64209 19.6648 9.54579 19.7295 9.4628C19.7868 9.38171 19.9279 9.47864 19.8651 9.56227ZM19.6778 9.64146C19.6519 9.74282 19.626 9.84545 19.6007 9.94744C19.7591 9.94428 19.9181 9.94111 20.0764 9.93668C20.0314 9.86192 19.9877 9.7859 19.9365 9.71558L19.9335 9.65793L19.8762 9.62498L19.8262 9.65286C19.7893 9.65032 19.7147 9.64399 19.6778 9.64146ZM20.1405 9.62372C20.1405 9.65983 20.1411 9.73142 20.1411 9.76753C20.3001 9.76182 20.4837 9.78717 20.5995 9.64716C20.4461 9.63512 20.2933 9.62879 20.1405 9.62372Z" fill="#161717"/>
<path d="M21.6525 7.44948C21.8417 7.57175 22.0308 7.69972 22.1892 7.8638C22.3118 7.99621 22.4245 8.13748 22.5397 8.27622C22.4492 8.35731 22.3561 8.43587 22.26 8.50999C22.2403 8.41876 22.2212 8.32754 22.2027 8.23631C22.1608 8.29776 22.1189 8.35921 22.0783 8.42193C22.0333 8.2965 21.9895 8.17106 21.9415 8.04815C21.8601 7.84099 21.756 7.6446 21.6525 7.44948Z" fill="#161717"/>
<path d="M23.9871 7.57238C24.162 7.49446 24.2847 7.66424 24.3968 7.77257C24.183 7.82199 23.971 7.88281 23.7708 7.97403C23.8213 7.83149 23.8004 7.60342 23.9871 7.57238Z" fill="#161717"/>
<path d="M22.9791 7.66361C23.2101 7.60723 23.4498 7.58062 23.6833 7.64334C23.6513 7.83909 23.6901 8.03548 23.7141 8.22998C23.658 8.34908 23.5231 8.30853 23.4221 8.30283C23.2612 8.27749 23.0918 8.24581 22.9593 8.14382C22.9396 7.98354 22.9655 7.82262 22.9791 7.66361Z" fill="#161717"/>
<path d="M22.7511 8.39532C23.0142 8.36175 23.2711 8.45868 23.5256 8.51252C23.3857 8.59868 23.2428 8.68484 23.0856 8.73236C22.8306 8.80268 22.5595 8.82738 22.3062 8.73552C22.4498 8.61769 22.5724 8.45741 22.7511 8.39532Z" fill="#161717"/>
<path d="M14.4288 1.34235C14.6112 1.24289 14.4381 1.55332 14.4288 1.34235Z" fill="#45351F"/>
<path d="M14.7979 1.41647C14.8281 1.44752 14.8281 1.44752 14.7979 1.41647Z" fill="#45351F"/>
<path d="M15.0444 1.47983C15.0739 1.51087 15.0739 1.51087 15.0444 1.47983Z" fill="#45351F"/>
<path d="M15.167 1.54318C15.1972 1.57422 15.1972 1.57422 15.167 1.54318Z" fill="#45351F"/>
<path d="M15.2908 1.60653C15.3204 1.63821 15.3204 1.63821 15.2908 1.60653Z" fill="#45351F"/>
<path d="M1.20333 2.67654C1.41836 2.68605 1.63401 2.70188 1.84596 2.74116C1.83426 2.92805 1.78743 3.10987 1.70364 3.27649C1.58472 3.50645 1.60813 3.77253 1.59643 4.02404C1.48552 3.98793 1.37215 3.95879 1.25755 3.93725L1.29821 3.92711C1.34997 3.91254 1.40234 3.89797 1.4541 3.8834C1.41528 3.5356 1.53543 3.2068 1.67283 2.89701C1.52126 2.86533 1.36907 2.83619 1.22058 2.79311C1.21627 2.76397 1.20764 2.70569 1.20333 2.67654Z" fill="#45351F"/>
<path d="M1.21072 2.90968C1.31423 2.91095 1.41836 2.91348 1.52187 2.91538C1.46272 3.1992 1.43993 3.48935 1.37954 3.77317C1.36599 3.79914 1.33888 3.85109 1.32532 3.8777C1.21442 3.72755 1.21319 3.53686 1.21195 3.35758C1.2101 3.20807 1.2101 3.05856 1.21072 2.90968Z" fill="#45351F"/>
<path d="M16.2951 7.16693C16.4843 7.18974 16.6734 7.21381 16.8608 7.25119C16.8681 7.27526 16.8835 7.32278 16.8909 7.34685C16.7283 7.35382 16.5644 7.36712 16.4017 7.34812C16.3617 7.29047 16.3259 7.23028 16.2951 7.16693Z" fill="#45351F"/>
<path d="M5.31238 5.07885C5.43746 5.07568 5.56192 5.07568 5.687 5.07885C5.61799 5.31769 5.4541 5.50457 5.27973 5.66992C5.25323 5.53942 5.22243 5.41081 5.19224 5.28157C5.23229 5.21379 5.27234 5.14663 5.31238 5.07885Z" fill="black"/>
<path d="M0.297597 5.76368C0.753543 5.53498 1.25755 5.44059 1.7289 5.25307C1.75231 5.27587 1.79975 5.32149 1.82317 5.34429C1.95317 5.46846 2.09304 5.58123 2.23598 5.68893C2.20702 6.06777 2.18854 6.45802 2.30006 6.8261C1.97104 6.81976 1.74923 7.18403 1.4159 7.10484C1.17067 7.04086 0.967344 6.87298 0.725816 6.79695C0.593962 6.7431 0.445471 6.7241 0.327172 6.63984C0.247689 6.41811 0.114603 6.22679 0 6.02469C0.0437461 5.88785 0.185459 5.82957 0.297597 5.76368Z" fill="black"/>
<path d="M3.55884 5.75228C3.6414 5.75481 3.67036 5.60024 3.57548 5.59897C3.4923 5.5958 3.46334 5.75038 3.55884 5.75228Z" fill="black"/>
<path d="M6.41651 6.02406C6.4849 6.06904 6.55391 6.11339 6.62169 6.16027C6.59766 6.16977 6.5496 6.18814 6.52557 6.19764C6.45656 6.22742 6.38755 6.25656 6.31855 6.28634C6.3512 6.19828 6.38386 6.11085 6.41651 6.02406Z" fill="black"/>
<path d="M8.69439 6.59549C8.77696 6.59613 8.85952 6.59803 8.9427 6.60119C8.89279 6.6316 8.8435 6.66201 8.79421 6.69369C8.72212 6.73804 8.65065 6.78238 8.57794 6.82673C8.43931 6.71206 8.57116 6.62147 8.69439 6.59549Z" fill="black"/>
<path d="M8.496 7.00411C8.68885 7.12512 8.91312 7.1967 9.1411 7.1701C9.24892 7.12702 9.35428 7.07697 9.46088 7.03009C9.83796 7.21064 10.2532 7.26576 10.6574 7.34811C12.7104 7.69908 14.7677 8.02852 16.8238 8.35858C17.0136 8.38582 17.2058 8.35858 17.39 8.306C17.4473 8.28952 17.5046 8.27369 17.5625 8.25722C17.6605 8.22934 17.7585 8.2021 17.8571 8.17549C17.7917 8.67154 17.7911 9.20559 18.0203 9.6611C18.1577 9.92907 18.3247 10.1837 18.5317 10.4017C18.0351 10.2813 17.4449 10.299 17.0764 9.87966C17.1916 9.82137 17.3062 9.76119 17.4239 9.70734C17.1855 9.4628 16.8355 9.38868 16.512 9.35891C16.2428 9.41719 16.0394 9.65032 15.7634 9.69594C15.4516 9.74218 15.1349 9.70291 14.8256 9.65919C13.3346 9.40515 11.8497 9.1188 10.3598 8.85716C9.76833 8.72982 9.16081 8.66267 8.58842 8.45424C8.35613 8.36048 8.1029 8.39849 7.86075 8.35731C7.93962 8.30029 8.0154 8.23884 8.08811 8.17486C8.41035 7.88344 8.5151 7.42984 8.496 7.00411Z" fill="black"/>
<path d="M11.1232 6.96104C11.5718 6.99081 12.0129 7.0833 12.4578 7.14412C13.6112 7.32087 14.764 7.50333 15.9181 7.67691C15.7018 7.8676 15.4159 7.74723 15.1676 7.71682C13.9236 7.51283 12.6784 7.31707 11.4325 7.12702C11.3081 7.12005 11.2187 7.03136 11.1232 6.96104Z" fill="black"/>
<path d="M3.97043 7.04213C4.02526 6.99905 4.13925 7.00285 4.15712 7.0852C4.1337 7.17833 3.97289 7.15172 3.94886 7.07063L3.97043 7.04213Z" fill="black"/>
<path d="M6.81885 7.5388C6.8472 7.53247 6.90388 7.5198 6.93222 7.51346C7.04559 7.5141 7.15712 7.54261 7.1602 7.68261C7.03019 7.67564 6.88909 7.66931 6.81885 7.5388Z" fill="black"/>
<path d="M16.642 7.77511C16.8232 7.80742 17.0049 7.83529 17.1879 7.85557C17.2181 7.92842 17.2514 8.00064 17.2847 8.0735C17.0345 8.02535 16.7837 7.97467 16.5416 7.89358C16.5669 7.8638 16.6168 7.80488 16.642 7.77511Z" fill="black"/>
<path d="M19.2181 7.90498C19.2902 7.96326 19.3598 8.02535 19.4196 8.09883C19.3185 8.1907 19.2169 8.28255 19.1115 8.36935C19.1442 8.21413 19.1805 8.05892 19.2181 7.90498Z" fill="black"/>
<path d="M22.1084 8.8939C22.1744 8.84132 22.2415 8.79001 22.3062 8.73552C22.5595 8.82738 22.8306 8.80268 23.0856 8.73236C23.0653 8.82865 23.1232 8.97943 23.0012 9.01807C22.5712 9.2265 22.1861 9.55973 21.9655 9.99876C21.8879 9.99939 21.8102 10 21.7326 10.0013C21.9612 9.68137 22.1072 9.29365 22.1084 8.8939Z" fill="black"/>
<path d="M19.8262 9.65286L19.8762 9.62498L19.9335 9.65793L19.9365 9.71558C19.9088 9.70037 19.8534 9.6687 19.8262 9.65286Z" fill="black"/>
<path d="M20.1405 9.62372C20.2933 9.62879 20.4461 9.63512 20.5995 9.64716C20.4837 9.78717 20.3001 9.76182 20.1411 9.76753C20.1411 9.73142 20.1405 9.65983 20.1405 9.62372Z" fill="black"/>
</svg>
