<svg width="25" height="13" viewBox="0 0 25 13" fill="none" xmlns="http://www.w3.org/2000/svg">
<path d="M10.7955 0.126868C10.6206 0.0855509 10.449 0.0185888 10.2707 0.000542295C10.0636 -0.00990567 9.8787 0.133041 9.68898 0.219949C6.93824 1.57676 4.18787 2.93595 1.43824 4.29703C1.18159 4.43095 0.898299 4.50836 0.683062 4.74677C0.871302 4.78666 1.06102 4.81183 1.25111 4.83273C1.30806 4.714 1.37574 4.59337 1.48225 4.54398C2.0429 4.25904 2.61576 4.01399 3.17493 3.72382C4.59468 3.0219 6.0233 2.35133 7.44379 1.65322C8.21931 1.27044 8.9963 0.893369 9.77404 0.517242C9.96117 0.430334 10.1465 0.280263 10.3532 0.311607C10.5211 0.337252 10.6842 0.396615 10.8495 0.438407C11.1054 0.509168 11.3665 0.54906 11.6183 0.644517C11.7108 0.674911 11.8033 0.718602 11.8998 0.712904C12.0085 0.689158 12.1039 0.612698 12.2019 0.551435C12.2141 0.626945 12.2263 0.702456 12.2382 0.778441C12.6102 0.872473 12.9859 0.942759 13.351 1.07668C13.4815 1.13557 13.6061 1.03964 13.7345 1.02254C13.8155 1.08571 13.8809 1.18924 13.9778 1.21251C14.1357 1.2543 14.2984 1.26617 14.4545 1.31984C14.5795 1.35593 14.7012 1.42147 14.8303 1.42764C14.9157 1.41814 14.9933 1.36495 15.0725 1.32648C15.1616 1.47845 15.2962 1.55776 15.4427 1.56821C15.6479 1.59766 15.845 1.67602 16.0436 1.74393C16.1531 1.78524 16.2585 1.71211 16.3595 1.66794C16.5366 1.89305 16.7966 1.8883 17.0226 1.96618C17.1616 2.01747 17.3055 1.99373 17.4442 1.95764C17.5444 2.04122 17.6516 2.11341 17.7711 2.13715C18.0178 2.18417 18.27 2.35323 18.5159 2.20744C18.7718 2.43682 19.105 2.52373 19.4101 2.44157C19.6879 2.63105 20.0126 2.77685 20.3284 2.6757C20.5618 2.85474 20.8384 2.95209 21.108 2.86518C21.3395 3.04802 21.6158 3.13683 21.885 3.06085C21.9985 3.13351 22.1102 3.22469 22.2393 3.24226C22.3739 3.26173 22.5129 3.23466 22.6439 3.2888C22.7899 3.34911 22.9327 3.4251 23.0851 3.45454C23.2097 3.4346 23.3328 3.39993 23.456 3.36669C23.1209 3.23941 22.7733 3.18337 22.4327 3.08602C18.5536 2.09963 14.6746 1.11373 10.7955 0.126868Z" fill="#0A0A0A"/>
<path d="M10.3532 0.311607C10.1465 0.280263 9.96117 0.430334 9.77404 0.517242C8.9963 0.893369 8.21931 1.27044 7.44379 1.65322C6.0233 2.35133 4.59468 3.0219 3.17493 3.72382C2.61576 4.01399 2.0429 4.25904 1.48225 4.54398C1.37574 4.59337 1.30806 4.714 1.25111 4.83273C1.53107 4.79996 1.78181 4.62994 2.04216 4.51026C2.83136 4.15313 3.61317 3.77036 4.39941 3.40278C5.86391 2.72414 7.32249 2.02365 8.78439 1.33646C9.2574 1.10233 9.74223 0.90714 10.2067 0.645466C10.5558 0.807885 10.929 0.847302 11.2899 0.949407C11.5902 1.0026 11.8868 1.07858 12.1808 1.17024C12.6705 1.2505 13.1568 1.36448 13.6372 1.51027C13.8184 1.55871 14.0048 1.56204 14.1868 1.6062C14.4438 1.66842 14.7004 1.73205 14.9553 1.80756C15.1857 1.875 15.4227 1.894 15.655 1.95051C15.9368 2.0151 16.213 2.1172 16.4978 2.15995C16.8787 2.21694 17.2496 2.34801 17.6294 2.4145C17.9882 2.47766 18.3384 2.60351 18.6982 2.6567C18.9834 2.69659 19.2552 2.82672 19.5411 2.86138C19.8683 2.9027 20.1834 3.0314 20.5096 3.08269C21.3077 3.28595 22.1139 3.43365 22.9101 3.65068C22.9686 3.58514 23.027 3.52008 23.0851 3.45454C22.9327 3.4251 22.7899 3.34911 22.6439 3.2888C22.5129 3.23466 22.3739 3.26173 22.2393 3.24226C22.1102 3.22469 21.9985 3.13351 21.885 3.06085C21.6158 3.13683 21.3395 3.04802 21.108 2.86518C20.8384 2.95209 20.5618 2.85474 20.3284 2.6757C20.0126 2.77685 19.6879 2.63105 19.4101 2.44157C19.105 2.52373 18.7718 2.43682 18.5159 2.20744C18.27 2.35323 18.0178 2.18417 17.7711 2.13715C17.6516 2.11341 17.5444 2.04122 17.4442 1.95764C17.3055 1.99373 17.1616 2.01747 17.0226 1.96618C16.7966 1.8883 16.5366 1.89305 16.3595 1.66794C16.2585 1.71211 16.1531 1.78524 16.0436 1.74393C15.845 1.67602 15.6479 1.59766 15.4427 1.56821C15.2962 1.55776 15.1616 1.47845 15.0725 1.32648C14.9933 1.36495 14.9157 1.41814 14.8303 1.42764C14.7012 1.42147 14.5795 1.35593 14.4545 1.31984C14.2984 1.26617 14.1357 1.2543 13.9778 1.21251C13.8809 1.18924 13.8155 1.08571 13.7345 1.02254C13.6061 1.03964 13.4815 1.13557 13.351 1.07668C12.9859 0.942759 12.6102 0.872473 12.2382 0.778441C12.2263 0.702456 12.2141 0.626945 12.2019 0.551435C12.1039 0.612698 12.0085 0.689158 11.8998 0.712904C11.8033 0.718602 11.7108 0.674911 11.6183 0.644517C11.3665 0.54906 11.1054 0.509168 10.8495 0.438407C10.6842 0.396615 10.5211 0.337252 10.3532 0.311607Z" fill="#221E1C"/>
<path d="M11.2899 0.949407C10.929 0.847302 10.5558 0.807885 10.2067 0.645466C9.74223 0.90714 9.2574 1.10233 8.78439 1.33646C7.32249 2.02365 5.86391 2.72414 4.39941 3.40278C3.61317 3.77036 2.83136 4.15313 2.04216 4.51026C1.78181 4.62994 1.53107 4.79996 1.25111 4.83273C1.32434 5.13002 1.2733 5.44013 1.28107 5.74407C1.29179 6.16674 1.25814 6.58798 1.25851 7.01018C1.25999 7.31269 1.20895 7.60951 1.18824 7.90965C1.15903 8.59067 1.22522 9.27738 1.14941 9.95555C1.11465 10.2429 1.12611 10.534 1.125 10.8232C1.15052 10.7387 1.17863 10.6556 1.20636 10.572C1.25185 10.6717 1.29734 10.7719 1.34209 10.8716C1.42012 10.8707 1.49778 10.8688 1.57508 10.8664C1.57766 10.9486 1.58025 11.0307 1.5821 11.1134C2.5699 11.2772 3.55991 11.4235 4.54919 11.5717C4.56361 11.3741 4.58913 11.1784 4.62241 10.9852C4.63351 10.9096 4.64608 10.8351 4.65422 10.76C4.67086 10.5777 4.66864 10.3934 4.66383 10.2106C4.50444 10.2177 4.34468 10.2082 4.18565 10.1883C4.18454 10.1507 4.18195 10.0767 4.18084 10.0391C4.28254 10.0368 4.38462 10.0339 4.48595 10.0363C4.34541 10.0268 4.20488 10.0121 4.06398 9.99972C4.06398 9.92231 4.06398 9.8449 4.06361 9.76796C4.05806 9.42176 4.06805 9.07555 4.07951 8.72934C4.06805 8.65526 4.05547 8.58117 4.04179 8.50756C3.92567 8.88606 3.98336 9.30825 3.86945 9.68913C3.85022 9.5666 3.8321 9.4436 3.81361 9.32108C3.73854 9.24889 3.65718 9.1824 3.59985 9.08505C3.54364 8.92358 3.56102 8.73789 3.51664 8.57167C3.473 8.48571 3.39571 8.44297 3.33173 8.38646C3.30991 8.58022 3.28846 8.77398 3.26109 8.96632C3.23595 8.72887 3.25259 8.48666 3.21413 8.25158C3.17714 8.16278 3.10688 8.11006 3.04993 8.04452C2.99889 8.12288 2.94712 8.20077 2.89386 8.27723C2.82618 8.30572 2.75111 8.32187 2.69305 8.37886C2.62093 8.48809 2.58432 8.62581 2.5392 8.75451C2.50555 8.6695 2.47337 8.58354 2.44157 8.49759C2.38092 8.58592 2.29919 8.6619 2.26812 8.77731C2.25777 8.98722 2.34283 9.1938 2.29919 9.40324C2.25185 9.63214 2.25444 9.87482 2.18454 10.0966C2.04956 9.73045 2.14201 9.32867 2.16901 8.9478C2.12574 8.99101 2.08173 9.03423 2.03809 9.07745C1.99334 8.89793 1.94379 8.72079 1.89608 8.5427C1.97744 8.40403 2.02737 8.24114 2.04142 8.06874C1.96857 8.06684 1.89497 8.06542 1.82138 8.06447C1.82286 8.21549 1.82433 8.36699 1.82581 8.51848C1.72892 8.5522 1.63166 8.58592 1.53439 8.62011C1.53587 8.8115 1.52515 9.00479 1.48003 9.18905C1.25777 8.53748 1.40902 7.81657 1.39571 7.13365C1.4179 6.49253 1.37019 5.84523 1.46339 5.21123C1.55215 5.22168 1.64275 5.225 1.72707 5.26347C1.8051 5.30858 1.86021 5.39644 1.92012 5.471C1.98225 5.29481 2.05067 5.12194 2.12944 4.95668C2.25851 5.00892 2.36945 4.92153 2.45784 4.80803C2.47966 4.85552 2.50185 4.90301 2.5233 4.9505C2.66013 4.81658 2.82249 4.74107 2.99149 4.70925C3.17456 4.67553 3.30991 4.50456 3.43528 4.34547C3.55399 4.18923 3.71228 4.10089 3.84468 3.96697C3.91161 3.90808 3.97818 3.82117 4.06657 3.83447C4.23336 3.84349 4.39386 3.90713 4.55843 3.93705C4.58543 3.85347 4.61206 3.76941 4.64904 3.69247C4.69601 3.72714 4.74002 3.76751 4.78439 3.8074C4.79919 3.67775 4.81472 3.54858 4.83062 3.4194C4.88831 3.40183 4.94601 3.38426 5.0037 3.36669C5.0503 3.43365 5.0943 3.50488 5.15015 3.55902C5.26553 3.56045 5.37167 3.47781 5.48706 3.48066C5.61797 3.50203 5.73114 3.59797 5.84726 3.6711C5.87389 3.51391 5.89904 3.35624 5.92493 3.19904C5.96672 3.29165 6.00777 3.38568 6.04845 3.47924C6.07507 3.39186 6.10022 3.30352 6.125 3.21519C6.16531 3.23466 6.20525 3.25413 6.24519 3.27408C6.28402 3.22754 6.32249 3.181 6.36132 3.13493C6.39645 3.15155 6.43158 3.16865 6.46635 3.18575C6.49963 3.02428 6.53661 2.86423 6.57359 2.70467C6.60762 2.84761 6.6409 2.99103 6.67456 3.13446C6.79475 3.0599 6.89571 2.94639 6.97374 2.80819C7.01331 2.81769 7.05251 2.82767 7.09172 2.83811C7.1372 2.78492 7.18306 2.73221 7.22855 2.6795C7.26812 2.8932 7.27182 3.11356 7.26738 3.33202C7.34689 3.19619 7.38351 3.02903 7.4068 2.86423C7.42936 3.04945 7.46006 3.23276 7.5 3.41323C7.54993 3.33534 7.59948 3.25746 7.64904 3.1791C7.6838 3.20047 7.71857 3.22184 7.75296 3.24321C7.75037 3.12211 7.74704 3.00148 7.74334 2.88038C7.70229 2.94212 7.66124 3.00433 7.62019 3.06654C7.61871 2.94782 7.61723 2.82957 7.61575 2.71131C7.65348 2.72556 7.69046 2.74028 7.72744 2.75501C7.77182 2.68709 7.8162 2.61966 7.86021 2.55222C7.87944 2.71701 7.90865 2.87896 7.94046 3.04042C8.0037 2.84856 8.04845 2.64863 8.08876 2.44727C8.12833 2.49428 8.16753 2.54177 8.20636 2.58926C8.2389 2.46199 8.27182 2.33471 8.3051 2.20791C8.33321 2.46769 8.36317 2.72794 8.41568 2.98201C8.52293 2.68092 8.46487 2.34374 8.52182 2.02935C8.56398 2.06686 8.60577 2.10438 8.64756 2.14237C8.68454 2.09251 8.72189 2.04264 8.75888 1.99278C8.81546 2.07351 8.87204 2.15425 8.92899 2.23403C8.97226 2.01842 9.00666 1.80044 9.0392 1.58151C9.07434 1.70356 9.10873 1.82514 9.14423 1.94671C9.18195 1.80946 9.22041 1.67222 9.25814 1.53497C9.3051 1.65085 9.3517 1.76767 9.39534 1.88592C9.41642 1.66462 9.45636 1.44521 9.52774 1.24148C9.56694 1.40864 9.60244 1.57723 9.63388 1.74725C9.68047 1.55871 9.73151 1.37207 9.79438 1.19161C9.85133 1.47086 9.86834 1.76007 9.90385 2.04454C9.98669 1.71638 9.86095 1.33788 10.0211 1.04059C10.189 1.28517 10.1287 1.6271 10.1446 1.92297C10.1627 2.36748 10.2163 2.80962 10.2097 3.25651C10.2141 3.59037 10.2197 3.9304 10.1483 4.25476C10.3125 4.09709 10.3084 3.81357 10.3683 3.58372C10.3931 3.59654 10.443 3.62124 10.4678 3.63358C11.6557 3.78413 12.8388 3.99451 14.027 4.14126C13.9715 4.15266 13.9157 4.16453 13.8598 4.17355C14.0311 4.20347 14.2027 4.23197 14.3754 4.23482C14.733 4.16311 15.0876 4.27993 15.443 4.31603C15.7611 4.37301 16.0869 4.36922 16.3979 4.48272C16.3639 4.48937 16.2962 4.50219 16.2622 4.50884C16.4889 4.55205 16.7167 4.60382 16.9467 4.5777C17.1468 4.48509 17.3572 4.56013 17.5599 4.5929C17.8628 4.65416 18.1709 4.67838 18.47 4.76909C18.4127 4.77621 18.3554 4.78286 18.2977 4.78808C18.3717 4.79283 18.4453 4.79663 18.5192 4.80138C18.7659 4.79188 19.0144 4.81278 19.2504 4.91346C19.5943 4.97805 19.9401 5.04026 20.2885 5.04928C20.4982 5.02791 20.709 5.04073 20.9168 5.08395C20.9216 5.11007 20.932 5.16231 20.9371 5.18843C21.2833 5.17893 21.6239 5.26869 21.9671 5.30668C22.6032 5.38789 23.2382 5.48002 23.8739 5.55838C23.8891 5.54271 23.9197 5.51137 23.9349 5.49617C23.6642 5.39597 23.3776 5.43158 23.105 5.35037C22.9826 5.3214 22.9815 5.14189 22.9771 5.01651C22.9686 4.56013 22.9778 4.10089 22.9101 3.65068C22.1139 3.43365 21.3077 3.28595 20.5096 3.08269C20.1834 3.0314 19.8683 2.9027 19.5411 2.86138C19.2552 2.82672 18.9834 2.69659 18.6982 2.6567C18.3384 2.60351 17.9882 2.47766 17.6294 2.4145C17.2496 2.34801 16.8787 2.21694 16.4978 2.15995C16.213 2.1172 15.9368 2.0151 15.655 1.95051C15.4227 1.894 15.1857 1.875 14.9553 1.80756C14.7004 1.73205 14.4438 1.66842 14.1868 1.6062C14.0048 1.56204 13.8184 1.55871 13.6372 1.51027C13.1568 1.36448 12.6705 1.2505 12.1808 1.17024C11.8868 1.07858 11.5902 1.0026 11.2899 0.949407ZM14.9678 2.27107C15.1357 2.31002 15.3084 2.32189 15.4726 2.38458C15.4978 2.53037 15.4889 2.68139 15.4863 2.82957C15.4749 3.18432 15.4993 3.53955 15.4771 3.89383C15.4904 3.91758 15.517 3.96507 15.5303 3.98881C15.3706 4.02063 15.2075 4.01826 15.0496 3.97124C14.6439 3.85442 14.2256 3.87246 13.8147 3.80503C13.6742 3.77796 13.5314 3.79458 13.3935 3.83589C13.3646 3.8074 13.3358 3.77891 13.3066 3.75089C13.1479 3.7015 12.9878 3.64213 12.8229 3.65258C12.7237 3.66113 12.625 3.63881 12.534 3.58657L12.5344 3.62789C12.4467 3.70387 12.3354 3.65211 12.2378 3.64973C12.047 3.60889 11.8362 3.6578 11.6635 3.52246C11.4845 3.38521 11.2984 3.26411 11.1213 3.12306C11.1154 2.56647 11.1435 2.01035 11.1342 1.45376C12.4127 1.71876 13.6901 1.99705 14.9678 2.27107ZM16.6268 2.51803C16.6365 2.54937 16.6553 2.61253 16.6646 2.64388C16.9697 2.66287 17.2652 2.76735 17.5666 2.81959C18.2711 2.95684 18.9704 3.13636 19.6764 3.26078C19.6734 3.67585 19.676 4.09139 19.7086 4.50456C19.7034 4.5587 19.6982 4.61237 19.6934 4.66651C19.3177 4.62994 18.9442 4.55823 18.5684 4.52499C18.4516 4.51454 18.338 4.55633 18.2256 4.591C17.9956 4.35829 17.6897 4.40198 17.4175 4.345C17.2115 4.29703 17.0018 4.30273 16.7944 4.27756C16.7049 4.25951 16.5684 4.2106 16.5799 4.06243C16.5832 3.76228 16.5754 3.46214 16.5692 3.16153C16.5703 2.94592 16.5447 2.71654 16.6268 2.51803ZM22.7012 3.91995C22.7149 4.28326 22.7408 4.64656 22.7322 5.01082C22.6942 5.00322 22.6557 4.99562 22.6176 4.98802C22.6232 4.66556 22.6128 4.34262 22.5958 4.02111C22.4482 3.98882 22.3014 3.95177 22.1564 3.90381C22.1783 4.23957 22.182 4.57628 22.1849 4.91299C22.1679 4.91251 22.1342 4.91156 22.1172 4.91109C22.1243 4.58055 22.1246 4.24859 22.0836 3.92138C21.9327 3.88101 21.7814 3.84112 21.6313 3.79695C21.6117 4.15028 21.6402 4.50266 21.6428 4.85552C21.5152 4.65986 21.588 4.39011 21.5751 4.15883C21.5655 4.0477 21.5939 3.90523 21.5348 3.81642C21.3902 3.76323 21.24 3.74234 21.0958 3.6882C21.0533 3.69912 21.0107 3.70957 20.9682 3.72002C20.973 3.90143 20.9815 4.08332 20.9904 4.26474C20.9859 4.11372 20.9926 3.96269 20.9982 3.81215C21.1021 3.8264 21.2053 3.84587 21.3088 3.86581L21.3084 3.81975L21.3332 3.83305C21.338 4.08332 21.3384 4.33312 21.3328 4.5834C21.3062 4.58007 21.253 4.57343 21.2263 4.5701C21.2186 4.69975 21.2038 4.82893 21.1912 4.9581C21.0618 4.94338 20.9275 4.9467 20.8044 4.88782C20.7019 4.81658 20.6309 4.6931 20.5544 4.58435C20.6087 4.56678 20.6631 4.54778 20.7186 4.53591C20.6683 4.53638 20.618 4.53638 20.5677 4.53591C20.5481 4.30368 20.5388 4.0705 20.534 3.83684C20.5492 3.83589 20.5799 3.83352 20.5954 3.83257C20.6712 3.81642 20.747 3.80028 20.8232 3.78413C20.8376 4.02158 20.8384 4.26046 20.8229 4.49792H20.8591C20.8521 4.3051 20.8399 4.11229 20.8465 3.919C20.8491 3.85204 20.8502 3.77368 20.9016 3.73569C20.7803 3.74186 20.6594 3.71907 20.5385 3.70672C20.5314 3.62409 20.5233 3.54193 20.5144 3.45977C21.2452 3.59892 21.9719 3.76893 22.7012 3.91995Z" fill="#443E3A"/>
<path d="M10.1446 1.92297C10.1287 1.6271 10.189 1.28517 10.0211 1.04059C9.86095 1.33788 9.98669 1.71638 9.90385 2.04454C9.86834 1.76007 9.85133 1.47086 9.79438 1.19161C9.73151 1.37207 9.68047 1.55871 9.63388 1.74725C9.60244 1.57723 9.56694 1.40864 9.52774 1.24148C9.45636 1.44521 9.41642 1.66462 9.39534 1.88592C9.3517 1.76767 9.3051 1.65085 9.25814 1.53497C9.22041 1.67222 9.18195 1.80946 9.14423 1.94671C9.10873 1.82514 9.07434 1.70356 9.0392 1.58151C9.00666 1.80044 8.97226 2.01842 8.92899 2.23403C8.87204 2.15425 8.81546 2.07351 8.75888 1.99278C8.72189 2.04264 8.68454 2.09251 8.64756 2.14237C8.60577 2.10438 8.56398 2.06686 8.52182 2.02935C8.46487 2.34374 8.52293 2.68092 8.41568 2.98201C8.36317 2.72794 8.33321 2.46769 8.3051 2.20791C8.27182 2.33471 8.2389 2.46199 8.20636 2.58926C8.16753 2.54177 8.12833 2.49428 8.08876 2.44727C8.04845 2.64863 8.0037 2.84856 7.94046 3.04042C7.90865 2.87896 7.87944 2.71701 7.86021 2.55222C7.8162 2.61966 7.77182 2.68709 7.72744 2.75501C7.69046 2.74028 7.65348 2.72556 7.61575 2.71131C7.61723 2.82957 7.61871 2.94782 7.62019 3.06654C7.66124 3.00433 7.70229 2.94212 7.74334 2.88038C7.74704 3.00148 7.75037 3.12211 7.75296 3.24321C7.71857 3.22184 7.6838 3.20047 7.64904 3.1791C7.59948 3.25746 7.54993 3.33534 7.5 3.41323C7.46006 3.23276 7.42936 3.04945 7.4068 2.86423C7.38351 3.02903 7.34689 3.19619 7.26738 3.33202C7.27182 3.11356 7.26812 2.8932 7.22855 2.6795C7.18306 2.73221 7.1372 2.78492 7.09172 2.83811C7.05251 2.82767 7.01331 2.81769 6.97374 2.80819C6.89571 2.94639 6.79475 3.0599 6.67456 3.13446C6.6409 2.99103 6.60762 2.84761 6.57359 2.70467C6.53661 2.86423 6.49963 3.02428 6.46635 3.18575C6.43158 3.16865 6.39645 3.15155 6.36132 3.13493C6.32249 3.181 6.28402 3.22754 6.24519 3.27408C6.20525 3.25413 6.16531 3.23466 6.125 3.21519C6.10022 3.30352 6.07507 3.39186 6.04845 3.47924C6.00777 3.38568 5.96672 3.29165 5.92493 3.19904C5.89904 3.35624 5.87389 3.51391 5.84726 3.6711C5.73114 3.59797 5.61797 3.50203 5.48706 3.48066C5.37167 3.47781 5.26553 3.56045 5.15015 3.55902C5.0943 3.50488 5.0503 3.43365 5.0037 3.36669C4.94601 3.38426 4.88831 3.40183 4.83062 3.4194C4.81472 3.54858 4.79919 3.67775 4.78439 3.8074C4.74002 3.76751 4.69601 3.72714 4.64904 3.69247C4.61206 3.76941 4.58543 3.85347 4.55843 3.93705C4.39386 3.90713 4.23336 3.84349 4.06657 3.83447C3.97818 3.82117 3.91161 3.90808 3.84468 3.96697C3.71228 4.10089 3.55399 4.18923 3.43528 4.34547C3.30991 4.50456 3.17456 4.67553 2.99149 4.70925C2.82249 4.74107 2.66013 4.81658 2.5233 4.9505C2.50185 4.90301 2.47966 4.85552 2.45784 4.80803C2.36945 4.92153 2.25851 5.00892 2.12944 4.95668C2.05067 5.12194 1.98225 5.29481 1.92012 5.471C1.86021 5.39644 1.8051 5.30858 1.72707 5.26347C1.64275 5.225 1.55215 5.22168 1.46339 5.21123C1.37019 5.84523 1.4179 6.49253 1.39571 7.13365C1.40902 7.81657 1.25777 8.53748 1.48003 9.18905C1.52515 9.00479 1.53587 8.8115 1.53439 8.62011C1.63166 8.58592 1.72892 8.5522 1.82581 8.51848C1.82433 8.36699 1.82286 8.21549 1.82138 8.06447C1.89497 8.06542 1.96857 8.06684 2.04142 8.06874C2.02737 8.24114 1.97744 8.40403 1.89608 8.5427C1.94379 8.72079 1.99334 8.89793 2.03809 9.07745C2.08173 9.03423 2.12574 8.99101 2.16901 8.9478C2.14201 9.32867 2.04956 9.73045 2.18454 10.0966C2.25444 9.87482 2.25185 9.63214 2.29919 9.40324C2.34283 9.1938 2.25777 8.98722 2.26812 8.77731C2.29919 8.6619 2.38092 8.58592 2.44157 8.49759C2.47337 8.58354 2.50555 8.6695 2.5392 8.75451C2.58432 8.62581 2.62093 8.48809 2.69305 8.37886C2.75111 8.32187 2.82618 8.30572 2.89386 8.27723C2.94712 8.20077 2.99889 8.12288 3.04993 8.04452C3.10688 8.11006 3.17714 8.16278 3.21413 8.25158C3.25259 8.48666 3.23595 8.72887 3.26109 8.96632C3.28846 8.77398 3.30991 8.58022 3.33173 8.38646C3.39571 8.44297 3.473 8.48571 3.51664 8.57167C3.56102 8.73789 3.54364 8.92358 3.59985 9.08505C3.65718 9.1824 3.73854 9.24889 3.81361 9.32108C3.8321 9.4436 3.85022 9.5666 3.86945 9.68913C3.98336 9.30825 3.92567 8.88606 4.04179 8.50756C4.05547 8.58117 4.06805 8.65526 4.07951 8.72934C4.08617 8.5351 4.0895 8.34039 4.09098 8.14615C4.09209 8.08157 4.0932 8.01746 4.09394 7.95382C4.26812 7.94622 4.44194 7.94194 4.61613 7.93387C4.71413 7.9334 4.81694 7.922 4.9105 7.96759C4.96561 8.0678 4.9963 8.1851 5.0344 8.29623C5.08025 7.80517 5.09024 7.30652 5.03476 6.81594C4.98558 6.42224 5.10799 6.03804 5.08395 5.64434C5.07988 5.41496 5.03107 5.17466 5.09468 4.9524C5.30104 4.82655 5.54475 4.90491 5.76479 4.91963C5.56398 4.98565 5.35577 4.99514 5.14941 4.9809C5.14682 5.14806 5.1446 5.31571 5.14312 5.48287C5.44675 5.57121 5.75 5.46578 6.05141 5.42256C5.92049 5.50329 5.7855 5.58355 5.63905 5.6054C5.47744 5.6301 5.31472 5.60208 5.15348 5.58308C5.15385 6.16864 5.10984 6.75895 5.19268 7.33881C5.23262 7.60144 5.21413 7.87213 5.14645 8.12478C5.23558 8.29575 5.3003 8.48809 5.33062 8.68992C5.34246 8.56265 5.35762 8.43632 5.37167 8.30952C5.52922 8.72839 5.41716 9.1976 5.48521 9.63641C5.5111 9.48682 5.53513 9.33722 5.5503 9.18525C5.6054 9.28973 5.65865 9.39659 5.72448 9.49062C5.77811 9.578 5.87389 9.56708 5.95118 9.57848C6.3247 9.5894 6.69749 9.63879 7.07138 9.61979C7.125 9.17385 7.03624 8.72222 7.10577 8.27723C7.15052 8.25538 7.19527 8.23354 7.24002 8.21169C7.28033 8.64766 7.29401 9.08647 7.2855 9.52529C7.26701 10.3341 7.30104 11.1438 7.27959 11.953C7.25111 11.9535 7.1949 11.9544 7.16642 11.9549C7.22337 11.9934 7.27922 12.0347 7.33506 12.0746C7.31398 12.1311 7.29253 12.1881 7.27071 12.2451C7.30363 12.2494 7.33654 12.2527 7.36908 12.2555C7.35281 11.6624 7.36428 11.0683 7.36723 10.4746C7.36871 9.9565 7.39978 9.43885 7.38351 8.92073C7.30104 8.49616 7.31879 8.05687 7.32803 7.62328C7.34098 7.19777 7.31028 6.77272 7.32766 6.3472C7.43676 6.33628 7.54549 6.32441 7.65459 6.32726C7.69268 6.18574 7.72892 6.04279 7.76775 5.90174C7.68454 5.88939 7.60133 5.87752 7.51775 5.8666C7.60392 5.7113 7.6801 5.54699 7.74741 5.37744C7.88166 5.37032 8.01553 5.36367 8.14978 5.35892C8.14127 5.45248 8.13092 5.54651 8.11908 5.63959C8.02293 5.58593 7.92567 5.53464 7.82692 5.4881C7.8787 5.61015 7.94083 5.7246 8.00888 5.83336C7.99445 5.8609 7.98003 5.88844 7.96524 5.91599C8.00444 5.95588 8.04327 5.9953 8.0821 6.03519C8.0159 6.13872 7.95007 6.24273 7.88018 6.34246C8.16161 6.3909 8.43343 6.18479 8.7108 6.26315C8.78033 6.45074 8.72744 6.66587 8.73151 6.86485C8.72966 7.40815 8.70932 7.95239 8.73817 8.49521C8.75777 8.22451 8.77552 7.95334 8.81139 7.6855C8.98077 8.30477 8.84541 8.97819 8.96893 9.60887C9.00777 9.58133 9.04623 9.55426 9.08469 9.52719C9.13166 9.77889 9.16605 10.0334 9.19083 10.2904C9.24038 9.9603 9.27922 9.62644 9.27589 9.28973C9.27256 9.11402 9.29216 8.93783 9.34874 8.77636C9.3872 9.03376 9.39941 9.29638 9.43602 9.55426C9.55252 9.2185 9.49741 8.84237 9.57396 8.49474C9.66087 8.90791 9.61723 9.34625 9.72263 9.75419C9.76405 9.62739 9.80473 9.50012 9.8432 9.37189C9.87574 9.45263 9.90865 9.53289 9.94194 9.61314C10.0092 9.50866 10.0947 9.41321 10.1246 9.27928C10.1538 9.06748 10.1161 8.85377 10.1084 8.64148C10.0921 8.34277 10.1542 8.05022 10.1601 7.75246C10.1779 7.01398 10.1675 6.27502 10.1705 5.53606C10.1675 5.12954 10.1801 4.72302 10.1638 4.31698C10.1553 4.307 10.1376 4.28706 10.1287 4.27756C10.1335 4.27186 10.1435 4.26046 10.1483 4.25476C10.2197 3.9304 10.2141 3.59037 10.2097 3.25651C10.2163 2.80962 10.1627 2.36748 10.1446 1.92297ZM7.07175 6.39422C7.06916 6.9152 7.0736 7.43902 7.01627 7.95572C6.69046 8.02458 6.34357 8.06067 6.02626 7.91867C6.02589 7.96901 6.02478 8.01983 6.02293 8.07017C5.9878 8.09154 5.95229 8.11339 5.91716 8.13618L5.88277 8.17275C5.9915 8.14188 6.10392 8.16183 6.21376 8.16135C6.47744 8.17607 6.7463 8.12763 7.00444 8.21597C6.87537 8.29718 6.72966 8.26251 6.59172 8.25918C6.39016 8.24921 6.18972 8.2777 5.98928 8.3005C5.96931 8.49521 5.94342 8.69515 5.97522 8.89034C5.98706 8.96822 6.01997 9.048 6.08247 9.07365C6.34246 9.19997 6.62759 9.09312 6.89275 9.17528C6.96524 9.19665 6.97263 9.30778 7.0037 9.37854C6.72079 9.40608 6.43676 9.38376 6.15422 9.35812C6.03254 9.34435 5.91124 9.37474 5.79586 9.42366L5.79697 9.38614C5.7341 9.10642 5.76738 8.81435 5.7611 8.52798C5.76406 7.83604 5.77774 7.14363 5.81731 6.45311C6.06324 6.43221 6.30991 6.44314 6.5551 6.41227C6.7267 6.39042 6.89941 6.38662 7.07175 6.39422Z" fill="#4B4340"/>
<path d="M14.9678 2.27107C13.6901 1.99705 12.4127 1.71876 11.1342 1.45376C11.1435 2.01035 11.1154 2.56647 11.1213 3.12306C11.2984 3.26411 11.4845 3.38521 11.6635 3.52246C11.8362 3.6578 12.047 3.60889 12.2378 3.64973C12.3354 3.65211 12.4467 3.70387 12.5344 3.62789L12.534 3.58657C12.5285 3.4251 12.5104 3.26506 12.4974 3.10501C12.193 3.07367 11.8924 2.98106 11.5858 2.98628C11.4567 2.99863 11.328 3.01953 11.199 3.03662C11.1886 2.6681 11.1879 2.29909 11.206 1.93104C11.3484 1.89257 11.4904 1.85126 11.6357 1.83748C11.8358 1.86218 12.0325 1.91632 12.2311 1.95669C12.2555 1.90967 12.2796 1.86265 12.304 1.81564C12.6191 2.00133 12.9726 1.9961 13.3066 2.08871C13.328 2.43444 13.3232 2.7816 13.3177 3.12828C13.3155 3.2812 13.345 3.43032 13.3909 3.57042C13.4057 3.43317 13.4186 3.29592 13.422 3.15773C13.4216 2.78825 13.4179 2.41877 13.4209 2.04929C13.7134 2.21741 14.0381 2.22168 14.3462 2.31239C14.3528 2.49666 14.3658 2.68092 14.3717 2.86566C14.382 3.14585 14.3928 3.427 14.4297 3.70387C14.4408 3.5576 14.4504 3.41133 14.4527 3.26411C14.4582 2.92312 14.4623 2.58214 14.4564 2.24163C14.7208 2.45201 15.0433 2.42352 15.3362 2.51755C15.355 2.80914 15.3558 3.10169 15.3613 3.39376C15.3632 3.57042 15.3879 3.75326 15.4771 3.89383C15.4993 3.53955 15.4749 3.18432 15.4863 2.82957C15.4889 2.68139 15.4978 2.53037 15.4726 2.38458C15.3084 2.32189 15.1357 2.31002 14.9678 2.27107Z" fill="#1B1A19"/>
<path d="M13.3066 2.08871C12.9726 1.9961 12.6191 2.00133 12.304 1.81564C12.2796 1.86265 12.2555 1.90967 12.2311 1.95669C12.3136 1.97521 12.3961 1.99373 12.4782 2.01177C12.4837 2.21551 12.4893 2.41877 12.4952 2.62251C12.5178 2.7702 12.5444 2.91695 12.5651 3.06512C12.7156 3.14538 12.8695 3.22849 13.034 3.23941C13.1365 3.24748 13.2282 3.181 13.3177 3.12828C13.3232 2.7816 13.328 2.43444 13.3066 2.08871Z" fill="#48484B"/>
<path d="M19.5196 3.41038C19.3373 3.3192 19.1383 3.3097 18.9471 3.26791C18.9586 3.57849 18.9819 3.88956 18.9693 4.2011C19.1683 4.24384 19.3768 4.27613 19.5699 4.17878C19.551 3.92423 19.5947 3.65258 19.5196 3.41038Z" fill="#48484B"/>
<path d="M12.2311 1.95669C12.0325 1.91632 11.8358 1.86218 11.6357 1.83748C11.5422 2.20934 11.5862 2.60303 11.5858 2.98628C11.8924 2.98106 12.193 3.07367 12.4974 3.10501C12.4863 2.94449 12.493 2.78302 12.4952 2.62251C12.4893 2.41877 12.4837 2.21551 12.4782 2.01177C12.3961 1.99373 12.3136 1.97521 12.2311 1.95669ZM12.4342 2.02697C12.4442 2.36416 12.4401 2.70134 12.4353 3.03853C12.1997 3.01241 11.9652 2.96871 11.7315 2.92312C11.7315 2.58451 11.7345 2.24543 11.7297 1.90682C11.9667 1.92439 12.1993 1.98661 12.4342 2.02697Z" fill="#C3BDB4"/>
<path d="M11.6357 1.83748C11.4904 1.85126 11.3484 1.89257 11.206 1.93104C11.1879 2.29909 11.1886 2.6681 11.199 3.03662C11.328 3.01953 11.4567 2.99863 11.5858 2.98628C11.5862 2.60303 11.5422 2.20934 11.6357 1.83748ZM11.544 1.9073C11.5507 2.24543 11.5529 2.58404 11.5396 2.92217C11.463 2.93737 11.3868 2.95304 11.3099 2.96871C11.3073 2.64055 11.2848 2.31002 11.3147 1.98376C11.3695 1.89732 11.4686 1.92772 11.544 1.9073Z" fill="#85807B"/>
<path d="M12.4342 2.02697C12.1993 1.98661 11.9667 1.92439 11.7297 1.90682C11.7345 2.24543 11.7315 2.58451 11.7315 2.92312C11.9652 2.96871 12.1997 3.01241 12.4353 3.03853C12.4401 2.70134 12.4442 2.36416 12.4342 2.02697Z" fill="#342E28"/>
<path d="M11.544 1.9073C11.4686 1.92772 11.3695 1.89732 11.3147 1.98376C11.2848 2.31002 11.3073 2.64055 11.3099 2.96871C11.3868 2.95304 11.463 2.93737 11.5396 2.92217C11.5529 2.58404 11.5507 2.24543 11.544 1.9073Z" fill="#2A251F"/>
<path d="M14.3462 2.31239C14.0381 2.22168 13.7134 2.21741 13.4209 2.04929C13.4179 2.41877 13.4216 2.78825 13.422 3.15773C13.6738 3.34009 13.9593 3.41038 14.2441 3.44505C14.3114 3.26221 14.3635 3.06892 14.3717 2.86566C14.3658 2.68092 14.3528 2.49666 14.3462 2.31239Z" fill="#48484C"/>
<path d="M18.1121 3.08649C17.8872 3.05752 17.6624 3.01193 17.4493 2.91267C17.4586 3.23276 17.4671 3.55285 17.459 3.87294C17.6183 3.94227 17.7774 4.02681 17.9464 4.0477C18.0403 4.06907 18.0962 3.9513 18.1572 3.88244C18.1416 3.61696 18.1317 3.35101 18.1121 3.08649Z" fill="#48484C"/>
<path d="M18.8454 3.24084C18.6339 3.21567 18.4231 3.16533 18.2271 3.05705C18.2311 3.37761 18.2448 3.69865 18.2304 4.01873C18.4349 4.10754 18.6472 4.18163 18.8654 4.16738C18.8624 3.85869 18.8713 3.54905 18.8454 3.24084Z" fill="#48484C"/>
<path d="M15.3362 2.51755C15.0433 2.42352 14.7208 2.45201 14.4564 2.24163C14.4623 2.58214 14.4582 2.92312 14.4527 3.26411C14.6176 3.51391 14.8831 3.58372 15.1268 3.57517C15.2226 3.5652 15.2892 3.46357 15.3613 3.39376C15.3558 3.10169 15.355 2.80914 15.3362 2.51755Z" fill="#47474B"/>
<path d="M16.6268 2.51803C16.5447 2.71654 16.5703 2.94592 16.5692 3.16153C16.5754 3.46214 16.5832 3.76228 16.5799 4.06243C16.5684 4.2106 16.7049 4.25951 16.7944 4.27756C17.0018 4.30273 17.2115 4.29703 17.4175 4.345C17.6897 4.40198 17.9956 4.35829 18.2256 4.591C18.338 4.55633 18.4516 4.51454 18.5684 4.52499C18.9442 4.55823 19.3177 4.62994 19.6934 4.66651C19.6982 4.61237 19.7034 4.5587 19.7086 4.50456C19.6653 4.49032 19.622 4.47607 19.5784 4.46182C19.5754 4.36732 19.5721 4.27281 19.5699 4.17878C19.3768 4.27613 19.1683 4.24384 18.9693 4.2011C18.9634 4.27376 18.9564 4.34642 18.9482 4.41956C18.9194 4.33597 18.8894 4.25334 18.8654 4.16738C18.6472 4.18163 18.4349 4.10754 18.2304 4.01873C18.2197 4.11039 18.2053 4.2011 18.1912 4.29228C18.1764 4.15598 18.1642 4.01968 18.1572 3.88244C18.0962 3.9513 18.0403 4.06907 17.9464 4.0477C17.7774 4.02681 17.6183 3.94227 17.459 3.87294C17.4527 3.97932 17.4419 4.08475 17.4308 4.19065C17.328 3.84064 17.4135 3.46119 17.3524 3.10169C17.365 3.43175 17.3336 3.76181 17.3388 4.09235C17.1232 4.06955 16.9083 4.03346 16.6949 3.98739C16.6882 3.77368 16.6857 3.5595 16.6849 3.34532C16.6823 3.1715 16.6864 2.99816 16.689 2.82434C16.7493 2.82387 16.8088 2.82292 16.8687 2.82482C16.8129 2.8082 16.7574 2.78967 16.7016 2.77115C16.6923 2.73933 16.6738 2.6757 16.6646 2.64388C16.6553 2.61253 16.6365 2.54937 16.6268 2.51803Z" fill="#383634"/>
<path d="M17.5666 2.81959C17.2652 2.76735 16.9697 2.66287 16.6646 2.64388C16.6738 2.6757 16.6923 2.73933 16.7016 2.77115C16.7574 2.78967 16.8129 2.8082 16.8687 2.82482C16.919 2.83669 16.9689 2.84951 17.0185 2.86376C17.1243 2.89273 17.23 2.91837 17.3362 2.94354C17.3421 2.99626 17.3476 3.0485 17.3524 3.10169C17.4135 3.46119 17.328 3.84064 17.4308 4.19065C17.4419 4.08475 17.4527 3.97932 17.459 3.87294C17.4671 3.55285 17.4586 3.23276 17.4493 2.91267C17.6624 3.01193 17.8872 3.05752 18.1121 3.08649C18.1317 3.35101 18.1416 3.61696 18.1572 3.88244C18.1642 4.01968 18.1764 4.15598 18.1912 4.29228C18.2053 4.2011 18.2197 4.11039 18.2304 4.01873C18.2448 3.69865 18.2311 3.37761 18.2271 3.05705C18.4231 3.16533 18.6339 3.21567 18.8454 3.24084C18.8713 3.54905 18.8624 3.85869 18.8654 4.16738C18.8894 4.25334 18.9194 4.33597 18.9482 4.41956C18.9564 4.34642 18.9634 4.27376 18.9693 4.2011C18.9819 3.88956 18.9586 3.57849 18.9471 3.26791C19.1383 3.3097 19.3373 3.3192 19.5196 3.41038C19.5947 3.65258 19.551 3.92423 19.5699 4.17878C19.5721 4.27281 19.5754 4.36732 19.5784 4.46182C19.622 4.47607 19.6653 4.49032 19.7086 4.50456C19.676 4.09139 19.6734 3.67585 19.6764 3.26078C18.9704 3.13636 18.2711 2.95684 17.5666 2.81959Z" fill="#232321"/>
<path d="M12.5651 3.06512C12.5444 2.91695 12.5178 2.7702 12.4952 2.62251C12.493 2.78302 12.4863 2.94449 12.4974 3.10501C12.5104 3.26506 12.5285 3.4251 12.534 3.58657C12.625 3.63881 12.7237 3.66113 12.8229 3.65258C12.9878 3.64213 13.1479 3.7015 13.3066 3.75089C13.3358 3.77891 13.3646 3.8074 13.3935 3.83589C13.5314 3.79458 13.6742 3.77796 13.8147 3.80503C14.2256 3.87246 14.6439 3.85442 15.0496 3.97124C15.2075 4.01826 15.3706 4.02063 15.5303 3.98881C15.517 3.96507 15.4904 3.91758 15.4771 3.89383C15.3879 3.75326 15.3632 3.57042 15.3613 3.39376C15.2892 3.46357 15.2226 3.5652 15.1268 3.57517C14.8831 3.58372 14.6176 3.51391 14.4527 3.26411C14.4504 3.41133 14.4408 3.5576 14.4297 3.70387C14.3928 3.427 14.382 3.14585 14.3717 2.86566C14.3635 3.06892 14.3114 3.26221 14.2441 3.44505C13.9593 3.41038 13.6738 3.34009 13.422 3.15773C13.4186 3.29592 13.4057 3.43317 13.3909 3.57042C13.345 3.43032 13.3155 3.2812 13.3177 3.12828C13.2282 3.181 13.1365 3.24748 13.034 3.23941C12.8695 3.22849 12.7156 3.14538 12.5651 3.06512Z" fill="#373635"/>
<path d="M17.0185 2.86376C16.9689 2.84951 16.919 2.83669 16.8687 2.82482C16.8088 2.82292 16.7493 2.82387 16.689 2.82434C16.6864 2.99816 16.6823 3.1715 16.6849 3.34532C16.7463 3.53433 16.807 3.75421 16.9493 3.86486C17.0865 3.87009 17.189 3.70102 17.2474 3.55807C17.3247 3.2926 17.1919 3.00718 17.0185 2.86376Z" fill="#7F6F63"/>
<path d="M17.3362 2.94354C17.23 2.91837 17.1243 2.89273 17.0185 2.86376C17.1919 3.00718 17.3247 3.2926 17.2474 3.55807C17.189 3.70102 17.0865 3.87009 16.9493 3.86486C16.807 3.75421 16.7463 3.53433 16.6849 3.34532C16.6857 3.5595 16.6882 3.77368 16.6949 3.98739C16.9083 4.03346 17.1232 4.06955 17.3388 4.09235C17.3336 3.76181 17.365 3.43175 17.3524 3.10169C17.3476 3.0485 17.3421 2.99626 17.3362 2.94354Z" fill="#69594B"/>
<path d="M22.7012 3.91995C21.9719 3.76893 21.2452 3.59892 20.5144 3.45977C20.5233 3.54193 20.5314 3.62409 20.5385 3.70672C20.6594 3.71907 20.7803 3.74186 20.9016 3.73569C20.9183 3.73141 20.9516 3.72382 20.9682 3.72002C21.0107 3.70957 21.0533 3.69912 21.0958 3.6882C21.24 3.74234 21.3902 3.76323 21.5348 3.81642C21.5939 3.90523 21.5655 4.0477 21.5751 4.15883C21.588 4.39011 21.5152 4.65986 21.6428 4.85552C21.6402 4.50266 21.6117 4.15028 21.6313 3.79695C21.7814 3.84112 21.9327 3.88101 22.0836 3.92138C22.1246 4.24859 22.1243 4.58055 22.1172 4.91109C22.1342 4.91156 22.1679 4.91251 22.1849 4.91299C22.182 4.57628 22.1783 4.23957 22.1564 3.90381C22.3014 3.95177 22.4482 3.98882 22.5958 4.02111C22.6128 4.34262 22.6232 4.66556 22.6176 4.98802C22.6557 4.99562 22.6942 5.00322 22.7322 5.01082C22.7408 4.64656 22.7149 4.28326 22.7012 3.91995Z" fill="#1F1F1D"/>
<path d="M10.4678 3.63358C10.443 3.62124 10.3931 3.59654 10.3683 3.58372C10.3084 3.81357 10.3125 4.09709 10.1483 4.25476C10.1435 4.26046 10.1335 4.27186 10.1287 4.27756C10.1376 4.28706 10.1553 4.307 10.1638 4.31698C10.3214 4.42858 10.2774 4.6798 10.2825 4.87167C10.2648 5.39407 10.3173 5.91551 10.3018 6.43839C10.2888 6.80074 10.3606 7.15882 10.3425 7.52118C10.3136 8.00701 10.3088 8.49426 10.3021 8.98104C10.3328 9.46355 10.3021 9.947 10.2711 10.4281C10.2533 10.686 10.1794 10.9305 10.1605 11.1884C10.1439 11.3793 10.206 11.5603 10.2186 11.7479C10.226 11.8272 10.1661 11.8808 10.1128 11.8974C9.96672 11.9483 9.81361 11.9502 9.6642 11.9739C9.61982 11.7593 9.58432 11.5417 9.55585 11.3228C9.54438 11.5118 9.53994 11.7051 9.49113 11.8865C9.43491 11.9046 9.40163 11.8371 9.3676 11.7925C9.26442 11.6343 9.16901 11.4672 9.05991 11.3152C9.01738 11.5042 9.0196 11.726 8.9105 11.878C8.83025 11.6249 8.82434 11.348 8.7807 11.0839C8.77959 11.4653 8.69305 11.8547 8.77515 12.2308C9.19933 12.246 9.61834 12.3405 10.0396 12.4004C10.0429 12.4968 10.0462 12.5932 10.0492 12.6905C10.142 12.7072 10.2359 12.7086 10.3291 12.6967C10.3299 12.5937 10.3295 12.4906 10.3273 12.388C10.318 12.1905 10.328 11.9924 10.3621 11.7996C10.4124 11.8804 10.4619 11.962 10.5107 12.0447C10.6313 12.001 10.7604 11.9749 10.8672 11.887C10.9726 11.6291 10.9541 11.3219 10.9553 11.0393C10.9271 10.4931 10.9593 9.94748 10.9663 9.40134C10.9771 9.01049 10.98 8.61916 11.0059 8.22926C11.0411 7.68787 10.9852 7.14647 10.9911 6.60508C10.997 6.16152 10.9338 5.72128 10.9556 5.27819C10.8572 5.19793 10.7663 5.1039 10.6742 5.01177C10.7208 4.97187 10.767 4.93151 10.8132 4.89161C10.8003 4.93815 10.7874 4.9847 10.774 5.03124C10.8964 5.08205 11.02 5.12812 11.1439 5.17086C11.155 5.08823 11.1661 5.00607 11.1768 4.92391C11.2219 4.91488 11.267 4.90586 11.3118 4.89731C11.2674 4.84507 11.2226 4.79331 11.1779 4.74154C11.524 4.572 11.899 4.49079 12.2212 4.24716C11.834 4.24194 11.5089 4.56535 11.1328 4.62139C10.9689 4.5568 10.8669 4.34784 10.7415 4.20537C10.7315 4.28706 10.7208 4.36874 10.7101 4.45043C10.6257 4.45327 10.5411 4.45612 10.4567 4.45897C10.5089 4.43095 10.5607 4.40341 10.6121 4.37539C10.6309 4.27471 10.6501 4.17403 10.6701 4.07382C10.5984 3.95985 10.5281 3.84492 10.4597 3.72809C10.5144 3.72334 10.5688 3.71954 10.6232 3.71717C10.5714 3.69057 10.52 3.66113 10.4678 3.63358Z" fill="#3E3934"/>
<path d="M16.568 6.97313C16.226 6.94606 15.8813 6.96031 15.5418 6.89572C15.5174 7.54492 15.5263 8.19649 15.5355 8.84664C15.5962 9.34957 15.6302 9.85772 15.6572 10.3654C15.6405 10.6997 15.6568 11.0383 15.7555 11.3527C15.8968 11.3014 16.0089 11.1803 16.0847 11.0208C16.1808 11.0901 16.2748 11.1775 16.3857 11.1998C16.4837 11.205 16.564 11.0949 16.5917 10.9823C16.6642 10.695 16.6217 10.3901 16.6098 10.0961C16.5902 9.73235 16.6609 9.37189 16.6328 9.00811C16.6143 8.75831 16.6058 8.50708 16.6198 8.25633C16.6446 7.82702 16.591 7.40055 16.568 6.97313Z" fill="#3E3934"/>
<path d="M20.1402 7.13603C20.0133 7.1346 19.8868 7.12415 19.76 7.11276C19.7237 7.97281 19.7696 8.83477 19.7899 9.69483C19.9142 9.99545 19.8214 10.3464 19.902 10.6594C19.9064 10.7244 19.9486 10.751 19.9948 10.7467C20.0769 10.6836 20.142 10.59 20.2263 10.5316C20.2992 10.5796 20.3639 10.6451 20.4294 10.7078C20.615 10.3317 20.5259 9.87957 20.5074 9.46545C20.4427 9.4436 20.3783 9.42223 20.3136 9.40134C20.2918 9.13729 20.2899 8.85757 20.4131 8.63056C20.4161 8.86754 20.4094 9.10452 20.4064 9.34197C20.4375 9.34102 20.4996 9.3396 20.5303 9.33865C20.5329 8.65953 20.5403 7.97851 20.4704 7.30414C20.3735 7.28277 20.2855 7.22436 20.2123 7.13983C20.1945 7.13888 20.1583 7.13698 20.1402 7.13603Z" fill="#3E3934"/>
<path d="M14.027 4.14126C12.8388 3.99451 11.6557 3.78413 10.4678 3.63358C10.52 3.66113 10.5714 3.69057 10.6232 3.71717C11.2337 3.8036 11.8373 3.97077 12.4527 3.99214C12.9231 4.03441 13.3905 4.11609 13.8598 4.17355C13.9157 4.16453 13.9715 4.15266 14.027 4.14126Z" fill="#796A68"/>
<path d="M20.9682 3.72002C20.9516 3.72382 20.9183 3.73141 20.9016 3.73569C20.8502 3.77368 20.8491 3.85204 20.8465 3.919C20.8399 4.11229 20.8521 4.3051 20.8591 4.49792H20.8229C20.7518 4.49744 20.6812 4.49792 20.6106 4.49792C20.6065 4.27613 20.6006 4.05435 20.5954 3.83257C20.5799 3.83352 20.5492 3.83589 20.534 3.83684C20.5388 4.0705 20.5481 4.30368 20.5677 4.53591C20.618 4.53638 20.6683 4.53638 20.7186 4.53591C20.8883 4.52831 21.0577 4.54826 21.2263 4.5701C21.253 4.57343 21.3062 4.58007 21.3328 4.5834C21.3384 4.33312 21.338 4.08332 21.3332 3.83305L21.3084 3.81975L21.3088 3.86581C21.3107 4.09139 21.3103 4.31698 21.3055 4.54256C21.2038 4.52546 21.1021 4.50789 21.0004 4.49032C20.9967 4.41481 20.993 4.33977 20.9904 4.26474C20.9815 4.08332 20.973 3.90143 20.9682 3.72002Z" fill="#A4A097"/>
<path d="M12.4527 3.99214C11.8373 3.97077 11.2337 3.8036 10.6232 3.71717C10.5688 3.71954 10.5144 3.72334 10.4597 3.72809C10.5281 3.84492 10.5984 3.95985 10.6701 4.07382C10.6501 4.17403 10.6309 4.27471 10.6121 4.37539C10.5607 4.40341 10.5089 4.43095 10.4567 4.45897C10.5411 4.45612 10.6257 4.45327 10.7101 4.45043C10.7208 4.36874 10.7315 4.28706 10.7415 4.20537C10.8669 4.34784 10.9689 4.5568 11.1328 4.62139C11.5089 4.56535 11.834 4.24194 12.2212 4.24716C11.899 4.49079 11.524 4.572 11.1779 4.74154C11.2226 4.79331 11.2674 4.84507 11.3118 4.89731C11.267 4.90586 11.2219 4.91488 11.1768 4.92391C11.1661 5.00607 11.155 5.08823 11.1439 5.17086C11.02 5.12812 10.8964 5.08205 10.774 5.03124C10.7874 4.9847 10.8003 4.93815 10.8132 4.89161C10.767 4.93151 10.7208 4.97187 10.6742 5.01177C10.7663 5.1039 10.8572 5.19793 10.9556 5.27819C11.0133 5.30716 11.0721 5.33233 11.1309 5.35655C11.1416 5.36082 11.1627 5.36937 11.1734 5.37365C11.2796 5.3271 11.3913 5.33803 11.4974 5.37507C11.9349 5.4691 12.3805 5.4653 12.8221 5.50472C13.3965 5.55933 13.9704 5.6168 14.5451 5.65337C14.6627 5.66809 14.7877 5.66334 14.8957 5.73078C15.0377 5.86565 15.1298 6.08126 15.1524 6.30541C15.1834 6.57706 15.1838 6.85441 15.1561 7.12653C15.1853 7.13128 15.2145 7.1365 15.2433 7.1422C15.2496 8.03978 15.2445 8.93735 15.2585 9.83445C15.2574 10.1526 15.2663 10.4713 15.2474 10.7895C15.23 11.0773 15.2544 11.3656 15.2663 11.6529C15.2681 11.7678 15.2984 11.9416 15.4142 11.925C15.534 11.9098 15.5222 11.7322 15.53 11.6182C15.5348 10.6945 15.5055 9.76986 15.5355 8.84664C15.5263 8.19649 15.5174 7.54492 15.5418 6.89572C15.5969 6.41749 15.5392 5.90839 15.699 5.45818C15.7478 5.53226 15.7959 5.6073 15.8436 5.68234C15.8735 5.67711 15.9035 5.67189 15.9331 5.66666C15.9671 5.82338 16.0015 5.98058 16.0396 6.13587C16.1749 6.03472 16.2234 5.84 16.2685 5.66001C16.3114 5.76165 16.3547 5.86328 16.3979 5.96443C16.4375 5.83383 16.4786 5.70371 16.5192 5.57406C16.6154 5.99625 16.5973 6.43981 16.6601 6.86913C16.7027 6.55759 16.6875 6.23228 16.7666 5.92976C16.7774 5.83193 16.8654 5.85093 16.9216 5.84428C17.1376 5.8476 17.3517 5.89177 17.5669 5.90697C18.0814 5.96585 18.5995 5.94543 19.1121 6.02474C19.1927 6.04374 19.2959 6.05419 19.3351 6.16294C19.4652 6.49348 19.4342 6.87435 19.4434 7.23243C19.5052 7.56202 19.4737 7.90348 19.5007 8.23829C19.5181 8.93498 19.5126 9.63262 19.5181 10.3298C19.5251 10.5891 19.554 10.8484 19.5296 11.1077C19.5499 11.1618 19.5688 11.2174 19.5876 11.2729C19.6498 11.272 19.7119 11.271 19.7744 11.2701C19.7977 10.7453 19.7592 10.2196 19.7899 9.69483C19.7696 8.83477 19.7237 7.97281 19.76 7.11276C19.7881 6.73188 19.777 6.34721 19.8254 5.9687C19.8813 5.96918 19.9364 5.97013 19.9919 5.97155C20.0266 6.11925 20.0625 6.26647 20.0999 6.41322C20.2145 6.33153 20.3277 6.247 20.4349 6.15012C20.473 6.45643 20.4845 6.76797 20.5407 7.07097C20.5695 6.79219 20.534 6.49443 20.6232 6.23133C20.7097 6.20046 20.8003 6.20378 20.8887 6.20616C21.3221 6.2356 21.7559 6.25935 22.189 6.30019C22.2803 6.31349 22.3972 6.32488 22.4368 6.45263C22.5429 6.74328 22.5403 7.07429 22.5473 7.38915C22.5462 7.69879 22.5488 8.00938 22.5695 8.31807C22.5965 9.09834 22.5969 9.88004 22.6305 10.6598C22.6331 10.6964 22.6387 10.77 22.6413 10.8071C22.7078 10.8023 22.7748 10.7976 22.8417 10.7938C22.8462 10.5102 22.855 10.2267 22.8532 9.9432C22.8458 9.50344 22.8166 9.06463 22.8132 8.62486C22.8077 8.1509 22.8084 7.67695 22.7929 7.20346C22.8946 7.20394 22.9963 7.20489 23.098 7.20679C23.0754 6.84728 23.0669 6.48635 23.0836 6.12637C23.5026 6.0162 23.922 5.90744 24.3362 5.77162C24.3354 5.73647 24.3339 5.66571 24.3328 5.63057C24.1797 5.60683 24.0274 5.57928 23.8739 5.55838C23.2382 5.48002 22.6032 5.38789 21.9671 5.30668C21.6239 5.26869 21.2833 5.17893 20.9371 5.18843C20.7152 5.1984 20.4996 5.12764 20.2885 5.04928C19.9401 5.04026 19.5943 4.97805 19.2504 4.91346C19.1398 4.93103 19.027 4.97045 18.9157 4.93673C18.7822 4.89874 18.6535 4.83557 18.5192 4.80138C18.4453 4.79663 18.3717 4.79283 18.2977 4.78808C17.8465 4.73489 17.3946 4.67126 16.9467 4.5777C16.7167 4.60382 16.4889 4.55205 16.2622 4.50884C15.6339 4.41291 15.003 4.3431 14.3754 4.23482C14.2027 4.23197 14.0311 4.20347 13.8598 4.17355C13.3905 4.11609 12.9231 4.03441 12.4527 3.99214ZM24.1546 5.7436C23.7984 5.85948 23.439 5.95731 23.0795 6.05324C23.0751 5.89177 23.0717 5.72983 23.0703 5.56836C23.4345 5.58973 23.7936 5.67996 24.1546 5.7436Z" fill="#191715"/>
<path d="M20.8232 3.78413C20.747 3.80028 20.6712 3.81642 20.5954 3.83257C20.6006 4.05435 20.6065 4.27613 20.6106 4.49792C20.6812 4.49792 20.7518 4.49744 20.8229 4.49792C20.8384 4.26046 20.8376 4.02158 20.8232 3.78413Z" fill="#26201C"/>
<path d="M21.3088 3.86581C21.2053 3.84587 21.1021 3.8264 20.9982 3.81215C20.9926 3.96269 20.9859 4.11372 20.9904 4.26474C20.993 4.33977 20.9967 4.41481 21.0004 4.49032C21.1021 4.50789 21.2038 4.52546 21.3055 4.54256C21.3103 4.31698 21.3107 4.09139 21.3088 3.86581Z" fill="#342F29"/>
<path d="M15.443 4.31603C15.0876 4.27993 14.733 4.16311 14.3754 4.23482C15.003 4.3431 15.6339 4.41291 16.2622 4.50884C16.2962 4.50219 16.3639 4.48937 16.3979 4.48272C16.0869 4.36922 15.7611 4.37301 15.443 4.31603Z" fill="#625956"/>
<path d="M10.2825 4.87167C10.2774 4.6798 10.3214 4.42858 10.1638 4.31698C10.1801 4.72302 10.1675 5.12954 10.1705 5.53606C10.1675 6.27502 10.1779 7.01398 10.1601 7.75246C10.1542 8.05022 10.0921 8.34277 10.1084 8.64148C10.1161 8.85377 10.1538 9.06748 10.1246 9.27928C10.0947 9.41321 10.0092 9.50866 9.94194 9.61314C9.90865 9.53289 9.87574 9.45263 9.8432 9.37189C9.80473 9.50012 9.76405 9.62739 9.72263 9.75419C9.61723 9.34625 9.66087 8.90791 9.57396 8.49474C9.49741 8.84237 9.55252 9.2185 9.43602 9.55426C9.39941 9.29638 9.3872 9.03376 9.34874 8.77636C9.29216 8.93783 9.27256 9.11402 9.27589 9.28973C9.27922 9.62644 9.24038 9.9603 9.19083 10.2904C9.16605 10.0334 9.13166 9.77889 9.08469 9.52719C9.04623 9.55426 9.00777 9.58133 8.96893 9.60887C8.84541 8.97819 8.98077 8.30477 8.81139 7.6855C8.77552 7.95334 8.75777 8.22451 8.73817 8.49521C8.71746 8.9288 8.73817 9.36334 8.7108 9.79646C8.69009 10.1341 8.6875 10.4727 8.68306 10.8109C8.64497 10.6864 8.60762 10.562 8.57138 10.4371C8.49149 10.6128 8.42382 10.8697 8.23891 10.8868C8.07692 10.8873 7.88758 10.8584 7.76664 10.7088C7.6483 10.3815 7.66827 10.0068 7.68491 9.65589C7.69379 9.55426 7.66383 9.4588 7.63203 9.36809C7.57286 9.86532 7.56324 10.3687 7.59948 10.8693C7.6213 11.1205 7.60022 11.433 7.77441 11.6054C7.99889 11.8257 8.29882 11.7991 8.56583 11.7925C8.5895 12.0124 8.61132 12.2327 8.63055 12.4531C8.67197 12.4607 8.71339 12.4688 8.75444 12.4773C8.76184 12.3947 8.76886 12.313 8.77515 12.2308C8.69305 11.8547 8.77959 11.4653 8.7807 11.0839C8.82434 11.348 8.83025 11.6249 8.9105 11.878C9.0196 11.726 9.01738 11.5042 9.05991 11.3152C9.16901 11.4672 9.26442 11.6343 9.3676 11.7925C9.40163 11.8371 9.43491 11.9046 9.49113 11.8865C9.53994 11.7051 9.54438 11.5118 9.55585 11.3228C9.58432 11.5417 9.61982 11.7593 9.6642 11.9739C9.81361 11.9502 9.96672 11.9483 10.1128 11.8974C10.1661 11.8808 10.226 11.8272 10.2186 11.7479C10.206 11.5603 10.1439 11.3793 10.1605 11.1884C10.1794 10.9305 10.2533 10.686 10.2711 10.4281C10.3021 9.947 10.3328 9.46355 10.3021 8.98104C10.3088 8.49426 10.3136 8.00701 10.3425 7.52118C10.3606 7.15882 10.2888 6.80074 10.3018 6.43839C10.3173 5.91551 10.2648 5.39407 10.2825 4.87167Z" fill="#453E39"/>
<path d="M17.5599 4.5929C17.3572 4.56013 17.1468 4.48509 16.9467 4.5777C17.3946 4.67126 17.8465 4.73489 18.2977 4.78808C18.3554 4.78286 18.4127 4.77621 18.47 4.76909C18.1709 4.67838 17.8628 4.65416 17.5599 4.5929Z" fill="#635854"/>
<path d="M21.2263 4.5701C21.0577 4.54826 20.8883 4.52831 20.7186 4.53591C20.6631 4.54778 20.6087 4.56678 20.5544 4.58435C20.6309 4.6931 20.7019 4.81658 20.8044 4.88782C20.9275 4.9467 21.0618 4.94338 21.1912 4.9581C21.2038 4.82893 21.2186 4.69975 21.2263 4.5701Z" fill="#1A1917"/>
<path d="M19.2504 4.91346C19.0144 4.81278 18.7659 4.79188 18.5192 4.80138C18.6535 4.83557 18.7822 4.89874 18.9157 4.93673C19.027 4.97045 19.1398 4.93103 19.2504 4.91346Z" fill="#70605D"/>
<path d="M5.76479 4.91963C5.54475 4.90491 5.30104 4.82655 5.09468 4.9524C5.03107 5.17466 5.07988 5.41496 5.08395 5.64434C5.10799 6.03804 4.98558 6.42224 5.03476 6.81594C5.09024 7.30652 5.08025 7.80517 5.0344 8.29623C4.9963 8.1851 4.96561 8.0678 4.9105 7.96759C4.81694 7.922 4.71413 7.9334 4.61613 7.93387C4.6165 7.97424 4.61798 8.05545 4.61872 8.09629C4.70193 8.11956 4.78476 8.14331 4.86724 8.16705C4.89756 8.2948 4.92752 8.42255 4.95784 8.54983C4.98521 8.56122 5.03994 8.58307 5.06731 8.59399C5.06546 8.66665 5.06324 8.73979 5.06213 8.81245C5.06139 8.90791 5.06176 9.00384 5.05954 9.09929C5.05695 9.20377 5.0503 9.30825 5.04179 9.41226C5.09431 9.41606 5.14645 9.41606 5.19823 9.41653C5.13573 10.0463 5.0466 10.6779 5.07914 11.3152C5.15681 11.301 5.23595 11.2644 5.31435 11.2886C5.39534 11.3223 5.46857 11.3812 5.55178 11.4059C5.69009 11.4273 5.83062 11.3807 5.96746 11.4183C6.02663 11.5284 5.96672 11.6662 5.94564 11.782C6.35318 11.8357 6.7574 11.9255 7.16642 11.9549C7.1949 11.9544 7.25111 11.9535 7.27959 11.953C7.30104 11.1438 7.26701 10.3341 7.2855 9.52529C7.29401 9.08647 7.28033 8.64766 7.24002 8.21169C7.19527 8.23354 7.15052 8.25538 7.10577 8.27723C7.03624 8.72222 7.125 9.17385 7.07138 9.61979C6.69749 9.63879 6.3247 9.5894 5.95118 9.57848C5.87389 9.56708 5.77811 9.578 5.72448 9.49062C5.65865 9.39659 5.6054 9.28973 5.5503 9.18525C5.53513 9.33722 5.5111 9.48682 5.48521 9.63641C5.41716 9.1976 5.52922 8.72839 5.37167 8.30952C5.35762 8.43632 5.34246 8.56265 5.33062 8.68992C5.3003 8.48809 5.23558 8.29575 5.14645 8.12478C5.21413 7.87213 5.23262 7.60144 5.19268 7.33881C5.10984 6.75895 5.15385 6.16864 5.15348 5.58308C5.31472 5.60208 5.47744 5.6301 5.63905 5.6054C5.7855 5.58355 5.92049 5.50329 6.05141 5.42256C5.75 5.46578 5.44675 5.57121 5.14312 5.48287C5.1446 5.31571 5.14682 5.14806 5.14941 4.9809C5.35577 4.99514 5.56398 4.98565 5.76479 4.91963Z" fill="#443E38"/>
<path d="M20.9168 5.08395C20.709 5.04073 20.4982 5.02791 20.2885 5.04928C20.4996 5.12764 20.7152 5.1984 20.9371 5.18843C20.932 5.16231 20.9216 5.11007 20.9168 5.08395Z" fill="#665A55"/>
<path d="M11.4974 5.37507C11.3913 5.33803 11.2796 5.3271 11.1734 5.37365C11.3783 5.79204 11.733 6.02759 12.0577 6.26457C12.0303 6.19903 12.003 6.13302 11.9723 6.06939C11.8132 5.83858 11.6024 5.66191 11.4974 5.37507Z" fill="#373632"/>
<path d="M11.1309 5.35655C11.0721 5.33233 11.0133 5.30716 10.9556 5.27819C10.9338 5.72128 10.997 6.16152 10.9911 6.60508C10.9852 7.14647 11.0411 7.68787 11.0059 8.22926C10.98 8.61916 10.9771 9.01049 10.9663 9.40134C10.9593 9.94748 10.9271 10.4931 10.9553 11.0393C10.9541 11.3219 10.9726 11.6291 10.8672 11.887C10.7604 11.9749 10.6313 12.001 10.5107 12.0447C10.4619 11.962 10.4124 11.8804 10.3621 11.7996C10.328 11.9924 10.318 12.1905 10.3273 12.388C10.5481 12.3638 10.7685 12.3287 10.9904 12.332C11.0107 12.3325 11.0514 12.3344 11.0717 12.3348C11.0695 12.4664 11.0429 12.5941 11.0122 12.719C11.2652 12.7594 11.5196 12.7357 11.77 12.6834C12.4686 12.6241 13.1683 12.6098 13.8676 12.569C14.1679 12.5557 14.4641 12.4702 14.7655 12.4806C15.1494 12.493 15.5251 12.3771 15.9061 12.3372C16.2378 12.3016 16.568 12.2479 16.9001 12.2261C17.0843 12.2147 17.2659 12.1724 17.4467 12.1287C17.6971 12.0675 17.9541 12.1078 18.2053 12.0537C18.6853 11.9445 19.1712 11.8908 19.6546 11.8158C19.9778 11.7051 20.3143 11.7094 20.6402 11.6177C20.8913 11.5522 21.1513 11.584 21.4013 11.5066C21.6746 11.4183 21.9597 11.4282 22.2334 11.3437C22.6106 11.2259 22.9993 11.1832 23.3746 11.0559C23.213 10.8175 23.1509 10.5083 23.1391 10.1987C23.0862 10.2642 23.0329 10.3293 22.9797 10.3944C22.9305 10.2471 22.8805 10.0994 22.8532 9.9432C22.855 10.2267 22.8462 10.5102 22.8417 10.7938C22.7748 10.7976 22.7078 10.8023 22.6413 10.8071C22.6387 10.77 22.6331 10.6964 22.6305 10.6598C22.5784 10.6655 22.5259 10.6722 22.4734 10.6784C22.4719 10.7292 22.47 10.7795 22.4682 10.8303C21.878 10.9396 21.2848 11.0179 20.6916 11.093C20.6997 10.998 20.7034 10.9016 20.7263 10.8104C20.8928 10.7434 21.0695 10.7377 21.2396 10.6917C21.0433 10.6883 20.8465 10.6993 20.6501 10.7092C20.6997 10.629 20.7511 10.5506 20.8025 10.4727C20.7644 10.4732 20.7263 10.4732 20.6882 10.4737C20.7038 9.92278 20.6638 9.37284 20.6538 8.82195C20.7212 8.79345 20.7888 8.76496 20.8565 8.73647C20.7888 8.72887 20.7212 8.72127 20.6535 8.71367C20.662 8.52181 20.6542 8.32947 20.6416 8.13856C20.9649 8.10436 21.2892 8.14805 21.6124 8.11291C21.2896 8.0203 20.9582 8.09819 20.6317 8.05545C20.6494 7.99133 20.6668 7.9277 20.6845 7.86406C20.6664 7.80944 20.6483 7.75483 20.6302 7.70069C20.9205 7.64988 21.2123 7.73536 21.5026 7.68644C21.2785 7.61331 21.047 7.64893 20.8188 7.6437C20.7389 7.63563 20.6021 7.64845 20.632 7.49268C20.7951 7.45896 20.9612 7.46229 21.1257 7.45516C20.9586 7.42904 20.7629 7.46799 20.6302 7.30557C20.5229 7.15312 20.3628 7.13698 20.2123 7.13983C20.2855 7.22436 20.3735 7.28277 20.4704 7.30414C20.5403 7.97851 20.5329 8.65953 20.5303 9.33865C20.4996 9.3396 20.4375 9.34102 20.4064 9.34197C20.4094 9.10452 20.4161 8.86754 20.4131 8.63056C20.2899 8.85757 20.2918 9.13729 20.3136 9.40134C20.3783 9.42223 20.4427 9.4436 20.5074 9.46545C20.5259 9.87957 20.615 10.3317 20.4294 10.7078C20.3639 10.6451 20.2992 10.5796 20.2263 10.5316C20.142 10.59 20.0769 10.6836 19.9948 10.7467C19.9486 10.751 19.9064 10.7244 19.902 10.6594C19.8214 10.3464 19.9142 9.99545 19.7899 9.69483C19.7592 10.2196 19.7977 10.7453 19.7744 11.2701C19.7119 11.271 19.6498 11.272 19.5876 11.2729C19.5688 11.2174 19.5499 11.1618 19.5296 11.1077L19.5144 11.0711C19.4815 11.0763 19.4161 11.0868 19.3831 11.092C19.4024 11.1533 19.4212 11.2145 19.4405 11.2758C18.9297 11.3893 18.4127 11.4458 17.8983 11.5256C17.5237 11.5712 17.1513 11.6571 16.774 11.6652C16.7944 11.5047 16.8147 11.3442 16.8499 11.1879C16.8266 11.1547 16.8036 11.1205 16.7814 11.0863C16.7892 10.9386 16.8232 10.7971 16.8558 10.6565C16.8413 10.656 16.8125 10.6551 16.7984 10.6546C16.797 10.6218 16.794 10.5573 16.7925 10.5245C16.7922 10.4893 16.7911 10.4181 16.7907 10.3825C16.7911 10.3587 16.7918 10.3117 16.7918 10.288C16.7925 10.2524 16.7933 10.1807 16.7936 10.145C16.794 10.1099 16.7944 10.0396 16.7947 10.0045C16.7947 9.96837 16.7947 9.89571 16.7947 9.85915C16.7944 9.83493 16.794 9.78601 16.7936 9.76131C16.7925 9.7257 16.7907 9.65446 16.7899 9.61884C16.7885 9.58702 16.7859 9.52244 16.7844 9.49062C16.7552 9.01334 16.7655 8.5351 16.7737 8.05735C16.7737 8.01081 16.7733 7.96426 16.7726 7.91772C16.77 7.78997 16.767 7.6627 16.7689 7.53542C16.7696 7.48983 16.77 7.44519 16.7707 7.40007C16.8776 7.39153 16.9845 7.38013 17.0913 7.37965C16.9689 7.34071 16.8513 7.2823 16.7319 7.23101C16.7589 7.22198 16.8129 7.20394 16.8399 7.19491C16.78 7.09233 16.7104 6.98311 16.6028 6.97456L16.568 6.97313C16.591 7.40055 16.6446 7.82702 16.6198 8.25633C16.6058 8.50708 16.6143 8.75831 16.6328 9.00811C16.6609 9.37189 16.5902 9.73235 16.6098 10.0961C16.6217 10.3901 16.6642 10.695 16.5917 10.9823C16.564 11.0949 16.4837 11.205 16.3857 11.1998C16.2748 11.1775 16.1808 11.0901 16.0847 11.0208C16.0089 11.1803 15.8968 11.3014 15.7555 11.3527C15.6568 11.0383 15.6405 10.6997 15.6572 10.3654C15.6302 9.85772 15.5962 9.34957 15.5355 8.84664C15.5055 9.76986 15.5348 10.6945 15.53 11.6182C15.5222 11.7322 15.534 11.9098 15.4142 11.925C15.2984 11.9416 15.2681 11.7678 15.2663 11.6529C15.2548 11.6557 15.2311 11.6614 15.2197 11.6638C15.1232 11.6909 15.0277 11.7236 14.932 11.755C14.9885 11.8058 15.0447 11.8571 15.101 11.9084C14.247 12.0865 13.3839 12.1772 12.5259 12.3158C12.0947 12.388 11.6612 12.4346 11.2297 12.5025C11.2341 12.3662 11.2311 12.2294 11.2212 12.0936C11.2596 12.0523 11.2984 12.011 11.3369 11.9701C11.3003 11.9549 11.2637 11.9392 11.2271 11.9231L11.223 11.8894C11.2215 11.8595 11.2178 11.7991 11.2163 11.7692C11.2145 11.6999 11.2145 11.6306 11.2152 11.5612C11.2156 11.5413 11.2167 11.5014 11.2171 11.4814C11.2186 11.3974 11.2182 11.3138 11.2167 11.2302C11.216 11.1989 11.2152 11.1362 11.2145 11.1048C11.2138 11.036 11.213 10.9671 11.213 10.8982C11.2134 10.8778 11.2141 10.8365 11.2145 10.8161C11.216 10.7444 11.2167 10.6731 11.2171 10.6024C11.2171 10.571 11.2171 10.5079 11.2175 10.4765C11.2171 10.4105 11.2167 10.3445 11.2156 10.2785C11.2149 10.249 11.2138 10.1897 11.2134 10.1602C11.2119 10.089 11.2104 10.0178 11.2101 9.947C11.2101 9.92373 11.2108 9.87719 11.2108 9.85345C11.2123 9.77509 11.2134 9.69673 11.2152 9.61884C11.216 9.59747 11.2175 9.55426 11.2182 9.53288C11.2204 9.46972 11.2215 9.40751 11.2219 9.34482C11.2223 9.29686 11.2223 9.24936 11.2223 9.2014C11.2226 9.13159 11.2234 9.0613 11.2237 8.99149C11.2241 8.96252 11.2249 8.90506 11.2252 8.87609C11.2263 8.80343 11.2274 8.73077 11.2271 8.65858C11.2271 8.64101 11.2271 8.60539 11.2271 8.58782C11.2263 8.50471 11.226 8.42113 11.2278 8.33802C11.2286 8.31807 11.2297 8.27818 11.23 8.25871C11.2315 8.1908 11.2319 8.12336 11.2315 8.05592C11.2315 8.00938 11.2308 7.96379 11.23 7.91772C11.2293 7.85456 11.2282 7.79092 11.2274 7.72776C11.2274 7.70022 11.2274 7.64513 11.2274 7.61758C11.2274 7.54112 11.2256 7.46466 11.223 7.3882C11.2219 7.35448 11.22 7.2861 11.2193 7.2519C11.2781 7.25143 11.3373 7.25048 11.3961 7.25238C11.3369 7.20489 11.2681 7.1631 11.23 7.08426C11.2086 6.95414 11.2293 6.82069 11.2474 6.69246C11.2559 6.57659 11.2356 6.46356 11.2123 6.3529C11.132 6.03044 11.1771 5.68661 11.1309 5.35655ZM20.5965 10.9951C20.5921 11.0507 20.5876 11.1063 20.5832 11.1623C20.3358 11.1965 20.0899 11.244 19.8417 11.2691C19.8365 11.2093 19.831 11.1499 19.8254 11.0906C20.0784 11.0179 20.3376 10.9918 20.5965 10.9951ZM16.6749 11.5246C16.6749 11.5964 16.6746 11.6681 16.6742 11.7403C16.3184 11.7911 15.9649 11.8713 15.6072 11.8989C15.6095 11.8215 15.6113 11.7445 15.6132 11.6676C15.9641 11.5911 16.3206 11.5664 16.6749 11.5246Z" fill="#333230"/>
<path d="M11.1734 5.37365C11.1627 5.36937 11.1416 5.36082 11.1309 5.35655C11.1771 5.68661 11.132 6.03044 11.2123 6.3529C11.2053 6.21803 11.2112 6.08268 11.216 5.94781C11.3443 5.95018 11.4811 5.94448 11.5939 6.03662C11.7537 6.16294 11.9027 6.31111 12.0662 6.43031C12.2589 6.58608 12.4878 6.70719 12.5976 6.98121C12.7604 7.02632 12.9249 7.06527 13.0921 7.06052C13.6531 7.05529 14.2138 7.11703 14.7751 7.09518C14.895 7.01397 15.0159 6.93609 15.1413 6.8715C15.0385 6.82591 14.9353 6.78032 14.8321 6.73615C14.9242 6.69151 15.0159 6.64592 15.1072 6.59938C14.8421 6.44504 14.5433 6.5006 14.2666 6.40609C14.5218 6.38092 14.7855 6.43126 15.0311 6.31776C14.8103 6.2299 14.5784 6.20806 14.3487 6.19856C14.0152 6.18574 13.6853 6.10785 13.351 6.10785C12.8909 6.11498 12.4327 6.01572 11.9723 6.06939C12.003 6.13302 12.0303 6.19903 12.0577 6.26457C11.733 6.02759 11.3783 5.79204 11.1734 5.37365Z" fill="#292826"/>
<path d="M8.14978 5.35892C8.01553 5.36367 7.88166 5.37032 7.74741 5.37744C7.6801 5.54699 7.60392 5.7113 7.51775 5.8666C7.60133 5.87752 7.68454 5.88939 7.76775 5.90174C7.72892 6.04279 7.69268 6.18574 7.65459 6.32726C7.73003 6.33011 7.8051 6.33771 7.88018 6.34246C7.95007 6.24273 8.0159 6.13872 8.0821 6.03519C8.04327 5.9953 8.00444 5.95588 7.96524 5.91599C7.98003 5.88844 7.99445 5.8609 8.00888 5.83336C7.94083 5.7246 7.8787 5.61015 7.82692 5.4881C7.92567 5.53464 8.02293 5.58593 8.11908 5.63959C8.13092 5.54651 8.14127 5.45248 8.14978 5.35892Z" fill="#2C2824"/>
<path d="M12.8221 5.50472C12.3805 5.4653 11.9349 5.4691 11.4974 5.37507C11.6024 5.66191 11.8132 5.83858 11.9723 6.06939C12.4327 6.01572 12.8909 6.11498 13.351 6.10785C13.6853 6.10785 14.0152 6.18574 14.3487 6.19856C14.5784 6.20806 14.8103 6.2299 15.0311 6.31776C14.7855 6.43126 14.5218 6.38092 14.2666 6.40609C14.5433 6.5006 14.8421 6.44504 15.1072 6.59938C15.0159 6.64592 14.9242 6.69151 14.8321 6.73615C14.9353 6.78032 15.0385 6.82591 15.1413 6.8715C15.0159 6.93609 14.895 7.01397 14.7751 7.09518C14.7944 7.09613 14.8325 7.09803 14.8513 7.09898C14.953 7.10563 15.0547 7.11276 15.1561 7.12653C15.1838 6.85441 15.1834 6.57706 15.1524 6.30541C15.1298 6.08126 15.0377 5.86565 14.8957 5.73078C14.7877 5.66334 14.6627 5.66809 14.5451 5.65337C13.9704 5.6168 13.3965 5.55933 12.8221 5.50472Z" fill="#222220"/>
<path d="M15.8436 5.68234C15.7959 5.6073 15.7478 5.53226 15.699 5.45818C15.5392 5.90839 15.5969 6.41749 15.5418 6.89572C15.8813 6.96031 16.226 6.94606 16.568 6.97313L16.6028 6.97456C16.8118 6.89382 16.8195 6.58798 16.8203 6.35718C17.091 6.33391 17.3621 6.35433 17.6328 6.34863C17.574 6.29876 17.5148 6.24938 17.4556 6.19951C17.6635 6.19286 17.8713 6.20663 18.0769 6.24842C18.0322 6.29544 17.9874 6.34293 17.9423 6.39042C18.0758 6.39185 18.2093 6.39042 18.3425 6.39375C18.2652 6.34816 18.1879 6.30161 18.1106 6.25555C18.4453 6.27122 18.7792 6.29592 19.1132 6.32014C19.0932 6.36003 19.0729 6.4004 19.0525 6.44124C19.1313 6.4816 19.2212 6.50345 19.2866 6.57659C19.3454 6.68866 19.3606 6.83019 19.365 6.96316C19.3709 7.08236 19.2892 7.1612 19.2348 7.24336C19.3047 7.24146 19.3743 7.23671 19.4434 7.23243C19.4342 6.87435 19.4652 6.49348 19.3351 6.16294C19.2959 6.05419 19.1927 6.04374 19.1121 6.02474C18.5995 5.94543 18.0814 5.96585 17.5669 5.90697C17.3517 5.89177 17.1376 5.8476 16.9216 5.84428C16.8654 5.85093 16.7774 5.83193 16.7666 5.92976C16.6875 6.23228 16.7027 6.55759 16.6601 6.86913C16.5973 6.43981 16.6154 5.99625 16.5192 5.57406C16.4786 5.70371 16.4375 5.83383 16.3979 5.96443C16.3547 5.86328 16.3114 5.76165 16.2685 5.66001C16.2234 5.84 16.1749 6.03472 16.0396 6.13587C16.0015 5.98058 15.9671 5.82338 15.9331 5.66666C15.9035 5.67189 15.8735 5.67711 15.8436 5.68234Z" fill="#221F1C"/>
<path d="M24.1546 5.7436C23.7936 5.67996 23.4345 5.58973 23.0703 5.56836C23.0717 5.72983 23.0751 5.89177 23.0795 6.05324C23.439 5.95731 23.7984 5.85948 24.1546 5.7436Z" fill="#3C3C3B"/>
<path d="M11.5939 6.03662C11.4811 5.94448 11.3443 5.95018 11.216 5.94781C11.2112 6.08268 11.2053 6.21803 11.2123 6.3529C11.2356 6.46356 11.2559 6.57659 11.2474 6.69246C11.2293 6.82069 11.2086 6.95414 11.23 7.08426C11.2681 7.1631 11.3369 7.20489 11.3961 7.25238C11.7511 7.28182 12.1069 7.30034 12.463 7.2937C12.8107 7.28562 13.1579 7.32551 13.5059 7.31412C13.8613 7.30177 14.2156 7.35781 14.571 7.34214C14.7578 7.33216 14.949 7.33644 15.1243 7.42904C14.9671 7.47748 14.8058 7.49791 14.6442 7.49173C13.9919 7.47558 13.3388 7.49981 12.6875 7.44804C12.199 7.44092 11.7082 7.48556 11.223 7.3882C11.2256 7.46466 11.2274 7.54112 11.2274 7.61758C11.6624 7.55869 12.1002 7.59431 12.5366 7.58814C13.2027 7.57674 13.8676 7.6513 14.5337 7.62613C14.7189 7.61568 14.9064 7.63563 15.0814 7.71969C14.7678 7.81087 14.4453 7.76148 14.1272 7.76955C13.4734 7.7667 12.8195 7.7743 12.1661 7.76433C11.8532 7.75246 11.5407 7.72016 11.2274 7.72776C11.2282 7.79092 11.2293 7.85456 11.23 7.91772C12.22 7.85931 13.2108 7.92485 14.2012 7.91393C14.5067 7.91677 14.8203 7.87498 15.1158 8.00131C14.9845 8.03123 14.8524 8.05355 14.7189 8.0564C13.5566 8.06067 12.3939 8.0583 11.2315 8.05592C11.2319 8.12336 11.2315 8.1908 11.23 8.25871C11.5484 8.15613 11.8791 8.24256 12.2023 8.20552C13.0411 8.1908 13.8802 8.19744 14.7193 8.18652C14.8676 8.17845 15.017 8.20884 15.149 8.29813C14.713 8.38361 14.2703 8.32709 13.8314 8.34467C13.3802 8.35226 12.9294 8.37553 12.4786 8.36556C12.0614 8.35464 11.6416 8.43917 11.2278 8.33802C11.226 8.42113 11.2263 8.50471 11.2271 8.58782C11.5203 8.60064 11.807 8.50281 12.0991 8.49806C12.8369 8.49189 13.5747 8.49094 14.3121 8.47859C14.5895 8.48096 14.8739 8.4425 15.142 8.55695C14.7981 8.6695 14.4408 8.61821 14.0902 8.63056C13.1361 8.65953 12.1816 8.70655 11.2271 8.65858C11.2274 8.73077 11.2263 8.80343 11.2252 8.87609C11.7223 8.80865 12.223 8.82907 12.7219 8.79963C13.2149 8.78253 13.7082 8.76733 14.2016 8.76543C14.4896 8.76116 14.7788 8.72649 15.0658 8.77398C15.071 8.8039 15.0806 8.86374 15.0854 8.89366C14.4327 8.91645 13.7803 8.95587 13.1272 8.96679C12.493 8.99339 11.858 9.02521 11.2237 8.99149C11.2234 9.0613 11.2226 9.13159 11.2223 9.2014C11.8935 9.12161 12.5688 9.12874 13.2415 9.0689C13.851 9.05798 14.4612 9.03328 15.0706 9.0651C15.0743 9.09359 15.0817 9.15106 15.0854 9.17955C14.2226 9.19095 13.3621 9.28546 12.4993 9.29163C12.0732 9.28973 11.6476 9.31585 11.2219 9.34482C11.2215 9.40751 11.2204 9.46972 11.2182 9.53288C11.7637 9.44455 12.3158 9.45642 12.8639 9.41273C13.078 9.38946 13.2918 9.3453 13.507 9.36334C13.7348 9.38091 13.963 9.38661 14.1908 9.36287C14.5133 9.34387 14.8425 9.28118 15.1601 9.38756C14.8979 9.52576 14.6106 9.46212 14.3358 9.49822C13.9978 9.53621 13.6579 9.51864 13.3199 9.54808C12.9135 9.58987 12.5048 9.58322 12.0987 9.63546C11.8047 9.67393 11.5078 9.68201 11.2152 9.61884C11.2134 9.69673 11.2123 9.77509 11.2108 9.85345C11.4896 9.78648 11.7763 9.80976 12.057 9.75657C12.922 9.71192 13.7866 9.66301 14.6501 9.58702C14.8214 9.56565 14.9956 9.58465 15.1557 9.67013C14.8931 9.80168 14.608 9.75894 14.3332 9.78981C14.0033 9.8221 13.6727 9.81878 13.3425 9.84585C13.0126 9.86722 12.6834 9.91139 12.3524 9.91423C11.9715 9.91518 11.5913 9.97597 11.2101 9.947C11.2104 10.0178 11.2119 10.089 11.2134 10.1602C12.3713 10.022 13.5348 9.985 14.6949 9.88622C14.8484 9.86959 15.0015 9.90141 15.1498 9.94985C14.9978 10.0106 14.8406 10.0467 14.6816 10.0567C13.9438 10.1104 13.2056 10.1522 12.4682 10.2139C12.051 10.2414 11.6335 10.2813 11.2156 10.2785C11.2167 10.3445 11.2171 10.4105 11.2175 10.4765C11.5281 10.392 11.8462 10.392 12.1616 10.3644C12.9027 10.2885 13.6453 10.25 14.3872 10.1911C14.6261 10.1726 14.868 10.1503 15.1043 10.2134C14.9815 10.2771 14.8528 10.3227 14.7197 10.3293C14.3946 10.3497 14.0706 10.3948 13.7452 10.4105C13.3051 10.4347 12.8672 10.5017 12.4271 10.5212C12.0237 10.5406 11.6213 10.5986 11.2171 10.6024C11.2167 10.6731 11.216 10.7444 11.2145 10.8161C11.5218 10.6907 11.8473 10.6936 12.1657 10.6689C12.7962 10.6195 13.4275 10.581 14.0562 10.5012C14.4079 10.4836 14.7681 10.3806 15.1135 10.515C14.794 10.6437 14.4564 10.6356 14.1261 10.6712C13.5007 10.723 12.8772 10.808 12.2515 10.8422C11.9061 10.8807 11.5599 10.9267 11.213 10.8982C11.213 10.9671 11.2138 11.036 11.2145 11.1048C11.807 10.9419 12.4161 10.9638 13.0178 10.9182C13.4741 10.894 13.9275 10.8204 14.3828 10.7767C14.6383 10.7363 14.9001 10.7102 15.152 10.7995C14.8676 10.9134 14.568 10.9101 14.2744 10.9462C13.7049 11.0136 13.1331 11.0488 12.5643 11.1281C12.1158 11.1727 11.6672 11.234 11.2167 11.2302C11.2182 11.3138 11.2186 11.3974 11.2171 11.4814C11.6775 11.3413 12.1587 11.3841 12.618 11.235C12.7973 11.1727 12.9837 11.1528 13.1683 11.1784C13.5296 11.224 13.8905 11.1542 14.2496 11.111C14.5126 11.0711 14.78 11.0065 15.0425 11.0849C14.7851 11.2126 14.5059 11.1917 14.2363 11.2288C13.7496 11.2938 13.2629 11.3546 12.7759 11.4083C12.2563 11.4672 11.7374 11.5522 11.2152 11.5612C11.2145 11.6306 11.2145 11.6999 11.2163 11.7692C11.7289 11.6353 12.2552 11.6443 12.77 11.5294C13.1905 11.432 13.6191 11.4534 14.0433 11.4102C14.3831 11.3869 14.7219 11.3219 15.0625 11.3504C14.686 11.4981 14.2885 11.4886 13.902 11.5603C13.3314 11.6643 12.7563 11.7175 12.1823 11.7825C11.8621 11.811 11.544 11.8728 11.223 11.8894L11.2271 11.9231C11.2637 11.9392 11.3003 11.9549 11.3369 11.9701C11.2984 12.011 11.2596 12.0523 11.2212 12.0936C11.8946 12.0015 12.5692 11.9174 13.2411 11.8101C13.6775 11.7687 14.1109 11.6837 14.5388 11.5674C14.7374 11.5109 14.9419 11.499 15.1442 11.5199C15.169 11.5679 15.1942 11.6163 15.2197 11.6638C15.2311 11.6614 15.2548 11.6557 15.2663 11.6529C15.2544 11.3656 15.23 11.0773 15.2474 10.7895C15.2663 10.4713 15.2574 10.1526 15.2585 9.83445C15.2445 8.93735 15.2496 8.03978 15.2433 7.1422C15.2145 7.1365 15.1853 7.13128 15.1561 7.12653C15.0547 7.11276 14.953 7.10563 14.8513 7.09898C14.9471 7.12178 15.0418 7.15217 15.1361 7.18304C14.4153 7.25095 13.6934 7.15217 12.9723 7.16642C12.4216 7.1365 11.8646 7.17639 11.3203 7.04674C11.456 6.98121 11.6013 6.96268 11.7448 6.97788C12.0292 7.00353 12.3136 6.96981 12.5976 6.98121C12.4878 6.70719 12.2589 6.58608 12.0662 6.43031C11.9027 6.31111 11.7537 6.16294 11.5939 6.03662Z" fill="#42413C"/>
<path d="M19.9919 5.97155C19.9364 5.97013 19.8813 5.96918 19.8254 5.9687C19.777 6.34721 19.7881 6.73188 19.76 7.11276C19.8868 7.12415 20.0133 7.1346 20.1402 7.13603C20.3014 7.11513 20.4623 7.08996 20.6243 7.07856C20.6379 6.91662 20.6509 6.75515 20.6631 6.59321C20.8635 6.61458 21.0651 6.61268 21.2644 6.57753C21.2023 6.53954 21.1387 6.50535 21.0747 6.47211C21.2896 6.50725 21.49 6.63642 21.7089 6.63927C21.9172 6.65495 22.1298 6.6236 22.3343 6.68629C22.3924 6.69579 22.4138 6.7732 22.4275 6.83588C22.453 6.96411 22.4608 7.09661 22.4726 7.22768C22.4401 7.26995 22.4072 7.31269 22.3743 7.35543C22.4323 7.36398 22.4896 7.37633 22.5473 7.38915C22.5403 7.07429 22.5429 6.74328 22.4368 6.45263C22.3972 6.32488 22.2803 6.31349 22.189 6.30019C21.7559 6.25935 21.3221 6.2356 20.8887 6.20616C20.8003 6.20378 20.7097 6.20046 20.6232 6.23133C20.534 6.49443 20.5695 6.79219 20.5407 7.07097C20.4845 6.76797 20.473 6.45643 20.4349 6.15012C20.3277 6.247 20.2145 6.33153 20.0999 6.41322C20.0625 6.26647 20.0266 6.11925 19.9919 5.97155Z" fill="#22201D"/>
<path d="M18.0769 6.24842C17.8713 6.20663 17.6635 6.19286 17.4556 6.19951C17.5148 6.24938 17.574 6.29876 17.6328 6.34863C17.3621 6.35433 17.091 6.33391 16.8203 6.35718C16.8195 6.58798 16.8118 6.89382 16.6028 6.97456C16.7104 6.98311 16.78 7.09233 16.8399 7.19491C17.253 7.18447 17.6686 7.15027 18.0795 7.21866C18.463 7.28895 18.8499 7.21059 19.2348 7.24336C19.2892 7.1612 19.3709 7.08236 19.365 6.96316C19.3606 6.83019 19.3454 6.68866 19.2866 6.57659C19.2212 6.50345 19.1313 6.4816 19.0525 6.44124C19.0729 6.4004 19.0932 6.36003 19.1132 6.32014C18.7792 6.29592 18.4453 6.27122 18.1106 6.25555C18.1879 6.30161 18.2652 6.34816 18.3425 6.39375C18.2093 6.39042 18.0758 6.39185 17.9423 6.39042C17.9874 6.34293 18.0322 6.29544 18.0769 6.24842Z" fill="#282825"/>
<path d="M8.7108 6.26315C8.43343 6.18479 8.16161 6.3909 7.88018 6.34246C7.8051 6.33771 7.73003 6.33011 7.65459 6.32726C7.54549 6.32441 7.43676 6.33628 7.32766 6.3472C7.31028 6.77272 7.34098 7.19777 7.32803 7.62328C7.31879 8.05687 7.30104 8.49616 7.38351 8.92073C7.402 8.12478 7.40052 7.32789 7.40902 6.53147C7.60133 6.50155 7.79475 6.48635 7.98854 6.48113C8.23151 6.47448 8.47485 6.43839 8.71783 6.46688C8.64423 6.53052 8.56398 6.59178 8.47189 6.59083C8.16753 6.6084 7.8628 6.61458 7.55917 6.6464C7.5551 7.4129 7.53809 8.17987 7.56213 8.9459C7.57803 9.08837 7.61095 9.22704 7.63203 9.36809C7.66383 9.4588 7.69379 9.55426 7.68491 9.65589C7.66827 10.0068 7.6483 10.3815 7.76664 10.7088C7.88758 10.8584 8.07692 10.8873 8.23891 10.8868C8.42382 10.8697 8.49149 10.6128 8.57138 10.4371C8.60762 10.562 8.64497 10.6864 8.68306 10.8109C8.6875 10.4727 8.69009 10.1341 8.7108 9.79646C8.73817 9.36334 8.71746 8.9288 8.73817 8.49521C8.70932 7.95239 8.72966 7.40815 8.73151 6.86485C8.72744 6.66587 8.78033 6.45074 8.7108 6.26315ZM8.53328 6.93704C8.53439 7.11133 8.527 7.28562 8.50962 7.45896C8.29845 7.3882 8.07433 7.32124 7.86058 7.41765C7.81287 7.2747 7.79882 7.1194 7.79882 6.96506C8.04364 6.96173 8.28883 6.95604 8.53328 6.93704ZM8.47189 8.21264C8.52478 8.51896 8.52145 8.8343 8.50666 9.14583C8.26146 9.15961 8.01516 9.14251 7.7733 9.0879C7.79253 8.84237 7.7807 8.58687 7.84689 8.35131C7.92234 8.37079 7.99556 8.40355 8.06842 8.43442C8.12056 8.36366 8.17271 8.29243 8.22374 8.22071C8.30658 8.21787 8.38942 8.21549 8.47189 8.21264Z" fill="#4E4A49"/>
<path d="M7.07175 6.39422C6.89941 6.38662 6.7267 6.39042 6.5551 6.41227C6.30991 6.44314 6.06324 6.43221 5.81731 6.45311C5.77774 7.14363 5.76406 7.83604 5.7611 8.52798C5.76738 8.81435 5.7341 9.10642 5.79697 9.38614C5.81287 8.97154 5.80843 8.556 5.83099 8.14141C5.8395 7.62756 5.83987 7.11371 5.85762 6.60033C6.24556 6.56946 6.63425 6.56661 7.02219 6.53859C7.01812 6.59273 7.01331 6.64687 7.00887 6.70101C6.68528 6.71858 6.36095 6.71668 6.03883 6.76845C6.01923 7.15122 6.02996 7.53495 6.02626 7.91867C6.34357 8.06067 6.69046 8.02458 7.01627 7.95572C7.0736 7.43902 7.06916 6.9152 7.07175 6.39422ZM6.74075 6.85108C6.82323 6.86248 6.92345 6.89572 6.94934 7.01208C7.03107 7.29655 6.93676 7.59526 6.83173 7.84696C6.65163 7.87688 6.44896 7.94812 6.28106 7.82227C6.1716 7.6798 6.10799 7.48176 6.07877 7.28705C6.07803 7.13223 6.13018 6.92612 6.26405 6.8924C6.42012 6.84966 6.58173 6.83161 6.74075 6.85108Z" fill="#575752"/>
<path d="M19.4368 9.62977C19.1368 9.53953 18.8303 9.62074 18.5274 9.62644C17.9493 9.66681 17.3706 9.69483 16.7936 9.76131C16.794 9.78601 16.7944 9.83493 16.7947 9.85915C17.4334 9.85582 18.0703 9.78031 18.7078 9.74232C18.9523 9.72522 19.2016 9.72855 19.4368 9.62977Z" fill="#575752"/>
<path d="M8.71783 6.46688C8.47485 6.43839 8.23151 6.47448 7.98854 6.48113C7.79475 6.48635 7.60133 6.50155 7.40902 6.53147C7.40052 7.32789 7.402 8.12478 7.38351 8.92073C7.39978 9.43885 7.36871 9.9565 7.36723 10.4746C7.36428 11.0683 7.35281 11.6624 7.36908 12.2555C7.42715 12.2427 7.5196 12.2769 7.54438 12.1867C7.57323 12.0646 7.55178 11.9345 7.54475 11.8101C7.49815 11.3513 7.51553 10.8883 7.51146 10.4271C7.50777 10.0961 7.52811 9.76416 7.58321 9.44028C7.52922 9.44883 7.47485 9.45642 7.42012 9.4645C7.49149 9.3054 7.54512 9.12921 7.56213 8.9459C7.53809 8.17987 7.5551 7.4129 7.55917 6.6464C7.8628 6.61458 8.16753 6.6084 8.47189 6.59083C8.56398 6.59178 8.64423 6.53052 8.71783 6.46688Z" fill="#1D1D1B"/>
<path d="M21.7089 6.63927C21.49 6.63642 21.2896 6.50725 21.0747 6.47211C21.1387 6.50535 21.2023 6.53954 21.2644 6.57753C21.0651 6.61268 20.8635 6.61458 20.6631 6.59321C20.6509 6.75515 20.6379 6.91662 20.6243 7.07856C20.4623 7.08996 20.3014 7.11513 20.1402 7.13603C20.1583 7.13698 20.1945 7.13888 20.2123 7.13983C20.3628 7.13698 20.5229 7.15312 20.6302 7.30557C21.2119 7.30937 21.7929 7.34499 22.3743 7.35543C22.4072 7.31269 22.4401 7.26995 22.4726 7.22768C22.4608 7.09661 22.453 6.96411 22.4275 6.83588C22.4138 6.7732 22.3924 6.69579 22.3343 6.68629C22.1298 6.6236 21.9172 6.65495 21.7089 6.63927Z" fill="#292926"/>
<path d="M7.02219 6.53859C6.63425 6.56661 6.24556 6.56946 5.85762 6.60033C5.83987 7.11371 5.8395 7.62756 5.83099 8.14141C5.83321 8.1604 5.83728 8.1984 5.8395 8.21692C5.85059 8.20599 5.87204 8.18415 5.88277 8.17275L5.91716 8.13618C5.95229 8.11339 5.9878 8.09154 6.02293 8.07017C6.02478 8.01983 6.02589 7.96901 6.02626 7.91867C6.02996 7.53495 6.01923 7.15122 6.03883 6.76845C6.36095 6.71668 6.68528 6.71858 7.00887 6.70101C7.01331 6.64687 7.01812 6.59273 7.02219 6.53859Z" fill="#2A2925"/>
<path d="M6.74075 6.85108C6.58173 6.83161 6.42012 6.84966 6.26405 6.8924C6.13018 6.92612 6.07803 7.13223 6.07877 7.28705C6.10799 7.48176 6.1716 7.6798 6.28106 7.82227C6.44896 7.94812 6.65163 7.87688 6.83173 7.84696C6.93676 7.59526 7.03107 7.29655 6.94934 7.01208C6.92345 6.89572 6.82323 6.86248 6.74075 6.85108Z" fill="#696868"/>
<path d="M8.53328 6.93704C8.28883 6.95604 8.04364 6.96173 7.79882 6.96506C7.79882 7.1194 7.81287 7.2747 7.86058 7.41765C8.07433 7.32124 8.29845 7.3882 8.50962 7.45896C8.527 7.28562 8.53439 7.11133 8.53328 6.93704Z" fill="#3F3F42"/>
<path d="M13.0921 7.06052C12.9249 7.06527 12.7604 7.02632 12.5976 6.98121C12.3136 6.96981 12.0292 7.00353 11.7448 6.97788C11.6013 6.96268 11.456 6.98121 11.3203 7.04674C11.8646 7.17639 12.4216 7.1365 12.9723 7.16642C13.6934 7.15217 14.4153 7.25095 15.1361 7.18304C15.0418 7.15217 14.9471 7.12178 14.8513 7.09898C14.8325 7.09803 14.7944 7.09613 14.7751 7.09518C14.2138 7.11703 13.6531 7.05529 13.0921 7.06052Z" fill="#52524D"/>
<path d="M18.0795 7.21866C17.6686 7.15027 17.253 7.18447 16.8399 7.19491C16.8129 7.20394 16.7589 7.22198 16.7319 7.23101C16.8513 7.2823 16.9689 7.34071 17.0913 7.37965C17.8443 7.48176 18.6021 7.42572 19.3572 7.45611C19.3621 7.48366 19.3713 7.53875 19.3761 7.56629C18.9101 7.58054 18.4442 7.56582 17.9786 7.56154C17.5754 7.5473 17.1723 7.50598 16.7689 7.53542C16.767 7.6627 16.77 7.78997 16.7726 7.91772C17.0122 7.94479 17.2522 7.9201 17.4922 7.9201C18.0033 7.922 18.5148 7.92817 19.0259 7.92295C19.155 7.92152 19.2814 7.95714 19.4053 8.00036C19.1527 8.06257 18.8946 8.04595 18.6391 8.04595C18.0174 8.06257 17.395 8.0317 16.7737 8.05735C16.7655 8.5351 16.7552 9.01334 16.7844 9.49062C17.0832 9.51721 17.3791 9.4455 17.6771 9.43743C18.1331 9.40703 18.5891 9.37569 19.0447 9.33485C19.1805 9.31917 19.3151 9.35384 19.4419 9.41463C19.1979 9.48634 18.946 9.48159 18.6975 9.50107C18.0621 9.55236 17.4253 9.56945 16.7899 9.61884C16.7907 9.65446 16.7925 9.7257 16.7936 9.76131C17.3706 9.69483 17.9493 9.66681 18.5274 9.62644C18.8303 9.62074 19.1368 9.53953 19.4368 9.62977C19.2016 9.72855 18.9523 9.72522 18.7078 9.74232C18.0703 9.78031 17.4334 9.85582 16.7947 9.85915C16.7947 9.89571 16.7947 9.96837 16.7947 10.0045C17.3598 9.9622 17.9242 9.89666 18.4896 9.86579C18.7944 9.85155 19.1036 9.77034 19.4046 9.87007C19.3125 9.90474 19.2193 9.93703 19.1232 9.9489C18.3473 10.022 17.5699 10.0743 16.7936 10.145C16.7933 10.1807 16.7925 10.2524 16.7918 10.288C17.1187 10.2058 17.4527 10.2035 17.784 10.1773C18.1749 10.1531 18.5647 10.0994 18.9553 10.0653C19.1132 10.0505 19.2722 10.0648 19.4275 10.1047C19.1479 10.2163 18.8528 10.2044 18.5643 10.24C17.9734 10.2894 17.3835 10.3768 16.7907 10.3825C16.7911 10.4181 16.7922 10.4893 16.7925 10.5245C17.3413 10.3977 17.9005 10.4547 18.4527 10.3773C18.7796 10.3478 19.1106 10.2386 19.436 10.3398C19.2038 10.4438 18.956 10.4471 18.7134 10.4689C18.0936 10.5207 17.4763 10.6209 16.8558 10.6565C16.8232 10.7971 16.7892 10.9386 16.7814 11.0863C16.9789 11.0393 17.1786 11.0094 17.3787 10.9894C17.689 10.96 17.9937 10.8607 18.3062 10.8607C18.6661 10.8607 19.0248 10.7942 19.385 10.8199C18.547 11.0098 17.6949 11.0668 16.8499 11.1879C16.8147 11.3442 16.7944 11.5047 16.774 11.6652C17.1513 11.6571 17.5237 11.5712 17.8983 11.5256C18.4127 11.4458 18.9297 11.3893 19.4405 11.2758C19.4212 11.2145 19.4024 11.1533 19.3831 11.092C19.0969 11.1376 18.8099 11.1894 18.5207 11.1737C18.7666 11.0806 19.0148 10.9828 19.2718 10.9576C19.3632 10.9405 19.4445 11.0041 19.5144 11.0711L19.5296 11.1077C19.554 10.8484 19.5251 10.5891 19.5181 10.3298C19.5126 9.63262 19.5181 8.93498 19.5007 8.23829C19.4737 7.90348 19.5052 7.56202 19.4434 7.23243C19.3743 7.23671 19.3047 7.24146 19.2348 7.24336C18.8499 7.21059 18.463 7.28895 18.0795 7.21866ZM19.3957 7.78522C19.169 7.82037 18.9408 7.80422 18.713 7.80565C18.2193 7.80612 17.726 7.80422 17.2322 7.80232C17.081 7.8009 16.9275 7.78807 16.7848 7.71826C17.0044 7.64845 17.2319 7.68597 17.4553 7.6798C17.8976 7.67362 18.3399 7.68217 18.7818 7.69547C18.9863 7.70781 19.2156 7.62233 19.3957 7.78522ZM19.4323 8.25728C19.3166 8.27533 19.1997 8.2853 19.0828 8.28578C18.4294 8.28958 17.7759 8.28198 17.1224 8.30382C17.0059 8.30572 16.8905 8.28578 16.7759 8.25966C17.0285 8.14141 17.3036 8.21407 17.5658 8.16705C18.1061 8.17275 18.6465 8.1509 19.1868 8.15803C19.2759 8.1528 19.3595 8.19507 19.4323 8.25728ZM19.4334 8.46624C19.2352 8.53938 19.0277 8.52655 18.824 8.52798C18.4297 8.52228 18.0362 8.54413 17.6424 8.56407C17.4164 8.56027 17.1842 8.60586 16.9634 8.52323C16.9974 8.48049 17.0385 8.44487 17.0873 8.44345C17.2955 8.41448 17.5055 8.43727 17.7145 8.42872C18.2053 8.4102 18.696 8.38931 19.1871 8.39786C19.2722 8.39786 19.355 8.42683 19.4334 8.46624ZM19.4353 8.68185C19.2696 8.79345 19.078 8.75261 18.8983 8.76401C18.1919 8.76876 17.4841 8.86564 16.7788 8.78396C16.9697 8.68043 17.179 8.68185 17.382 8.67805C17.7925 8.67758 18.2023 8.65525 18.6128 8.65241C18.8868 8.64908 19.1661 8.58924 19.4353 8.68185ZM19.4364 8.91835C19.2592 9.04088 19.0529 8.98342 18.8609 9.00289C18.5037 9.02996 18.1465 9.06605 17.7881 9.0518C17.4486 9.03613 17.1091 9.13539 16.7707 9.06795C16.831 9.01286 16.8961 8.96062 16.973 8.96394C17.7008 8.91693 18.429 8.86659 19.1575 8.87134C19.2518 8.87324 19.3447 8.89318 19.4364 8.91835ZM19.4098 9.11212C19.4064 9.13824 19.3998 9.19095 19.3961 9.21707C18.6627 9.26599 17.9294 9.30113 17.1956 9.3434C17.0547 9.36144 16.9087 9.37284 16.7755 9.2978C17.054 9.17148 17.3521 9.20947 17.6413 9.18953C17.8765 9.18098 18.1095 9.11259 18.3458 9.13634C18.7008 9.17433 19.0544 9.08457 19.4098 9.11212Z" fill="#454440"/>
<path d="M23.098 7.20679C22.9963 7.20489 22.8946 7.20394 22.7929 7.20346C22.8084 7.67695 22.8077 8.1509 22.8132 8.62486C22.8166 9.06463 22.8458 9.50344 22.8532 9.9432C22.8805 10.0994 22.9305 10.2471 22.9797 10.3944C23.0329 10.3293 23.0862 10.2642 23.1391 10.1987C23.1509 10.5083 23.213 10.8175 23.3746 11.0559C22.9993 11.1832 22.6106 11.2259 22.2334 11.3437C21.9597 11.4282 21.6746 11.4183 21.4013 11.5066C21.1513 11.584 20.8913 11.5522 20.6402 11.6177C20.3143 11.7094 19.9778 11.7051 19.6546 11.8158C19.1712 11.8908 18.6853 11.9445 18.2053 12.0537C17.9541 12.1078 17.6971 12.0675 17.4467 12.1287C17.2659 12.1724 17.0843 12.2147 16.9001 12.2261C16.568 12.2479 16.2378 12.3016 15.9061 12.3372C15.5251 12.3771 15.1494 12.493 14.7655 12.4806C14.4641 12.4702 14.1679 12.5557 13.8676 12.569C13.1683 12.6098 12.4686 12.6241 11.77 12.6834C11.5196 12.7357 11.2652 12.7594 11.0122 12.719C11.0429 12.5941 11.0695 12.4664 11.0717 12.3348C11.0514 12.3344 11.0107 12.3325 10.9904 12.332C10.9815 12.4175 10.973 12.5034 10.9645 12.5894C10.753 12.6288 10.5411 12.6621 10.3291 12.6967C10.2359 12.7086 10.142 12.7072 10.0492 12.6905C9.6165 12.6288 9.18417 12.5675 8.75444 12.4773C8.71339 12.4688 8.67197 12.4607 8.63055 12.4531C8.61132 12.2327 8.5895 12.0124 8.56583 11.7925C8.29882 11.7991 7.99889 11.8257 7.77441 11.6054C7.60022 11.433 7.6213 11.1205 7.59948 10.8693C7.56324 10.3687 7.57286 9.86532 7.63203 9.36809C7.61095 9.22704 7.57803 9.08837 7.56213 8.9459C7.54512 9.12921 7.49149 9.3054 7.42012 9.4645C7.47485 9.45642 7.52922 9.44883 7.58321 9.44028C7.52811 9.76416 7.50777 10.0961 7.51146 10.4271C7.51553 10.8883 7.49815 11.3513 7.54475 11.8101C7.55178 11.9345 7.57323 12.0646 7.54438 12.1867C7.5196 12.2769 7.42715 12.2427 7.36908 12.2555C7.33654 12.2527 7.30363 12.2494 7.27071 12.2451C6.53883 12.1226 5.80547 12.0133 5.07397 11.8837C5.07286 11.8105 5.07138 11.7379 5.0699 11.6652C5.36354 11.6795 5.65496 11.7298 5.94564 11.782C5.96672 11.6662 6.02663 11.5284 5.96746 11.4183C5.83062 11.3807 5.69009 11.4273 5.55178 11.4059C5.46857 11.3812 5.39534 11.3223 5.31435 11.2886C5.23595 11.2644 5.15681 11.301 5.07914 11.3152C5.0466 10.6779 5.13573 10.0463 5.19823 9.41653C5.14645 9.41606 5.09431 9.41606 5.04179 9.41226C4.9767 9.40513 4.91161 9.39564 4.84615 9.38661C4.84726 9.32345 4.84764 9.26124 4.84801 9.19855C4.91827 9.16436 4.98891 9.13111 5.05954 9.09929C5.06176 9.00384 5.06139 8.90791 5.06213 8.81245C4.99224 8.78158 4.92271 8.74834 4.85355 8.71367C4.8554 8.679 4.85688 8.64433 4.85836 8.60966C4.88314 8.59494 4.93306 8.56502 4.95784 8.54983C4.92752 8.42255 4.89756 8.2948 4.86724 8.16705C4.78476 8.14331 4.70193 8.11956 4.61872 8.09629C4.6213 8.39833 4.59467 8.69942 4.59652 9.00194C4.59726 9.34815 4.60281 9.69435 4.59505 10.0406C4.66087 10.042 4.7267 10.0434 4.79216 10.0448C4.69823 10.2642 4.67862 10.5155 4.65422 10.76C4.64608 10.8351 4.63351 10.9096 4.62241 10.9852C4.61612 11.2677 4.62574 11.5508 4.61982 11.8333C3.49556 11.6006 2.36058 11.4662 1.23299 11.262C1.22892 11.197 1.22448 11.1319 1.21968 11.0668C1.34061 11.0806 1.46154 11.0949 1.5821 11.1134C1.58025 11.0307 1.57766 10.9486 1.57508 10.8664C1.49778 10.8688 1.42012 10.8707 1.34209 10.8716C1.29734 10.7719 1.25185 10.6717 1.20636 10.572C1.17863 10.6556 1.15052 10.7387 1.125 10.8232C1.08913 10.9443 1.05806 11.0754 0.985579 11.1704C0.893493 11.2568 0.772929 11.2592 0.664571 11.2862C0.437869 11.3233 0.219305 11.4102 7.48938e-07 11.4895V11.5593C0.0628706 11.697 0.146821 11.8333 0.271082 11.8813C0.580623 12.02 0.918269 11.991 1.22892 12.1254C1.48114 12.2394 1.75333 12.2152 2.00814 12.3101C2.20895 12.3914 2.4216 12.3643 2.62648 12.4146C2.88129 12.4802 3.14719 12.4236 3.39793 12.5229C3.73336 12.6639 4.09024 12.6193 4.43565 12.6801C4.72005 12.6986 5.00296 12.7499 5.28809 12.7447C5.52774 12.7309 5.75 12.8919 5.9915 12.8568C6.66975 12.8102 7.34652 12.9242 8.02515 12.8943C8.28513 12.881 8.5429 12.9342 8.80215 12.9503C9.03698 12.8938 9.27404 12.9536 9.50962 12.9536C9.77996 12.9503 10.0473 13.0197 10.318 12.9945C11.6616 12.9916 13.0055 12.9907 14.3495 12.995C14.7888 12.9669 15.2241 12.8691 15.6649 12.8762C16.0625 12.8145 16.4634 12.8829 16.8613 12.8368C17.0621 12.8211 17.226 12.6564 17.4138 12.587C17.4826 12.6198 17.5433 12.6739 17.6061 12.7219C17.8676 12.6483 18.1376 12.6677 18.4001 12.6046C18.7138 12.5504 19.0255 12.4678 19.3432 12.464C19.5129 12.464 19.6771 12.407 19.8413 12.36C20.0307 12.304 20.2252 12.341 20.4164 12.3253C20.5969 12.3101 20.7493 12.1548 20.9297 12.1401C21.1195 12.1245 21.3136 12.1658 21.4993 12.0945C21.7293 12.0067 21.9708 11.9948 22.2041 11.9259C22.4871 11.8485 22.777 11.8329 23.0618 11.774C23.2297 11.7388 23.3887 11.65 23.5588 11.6306C23.7123 11.6082 23.8732 11.6201 24.0174 11.537C24.1002 11.4957 24.1779 11.4339 24.2659 11.4135C24.3306 11.4211 24.3905 11.4558 24.4516 11.4824C24.6365 11.4192 24.821 11.3532 25 11.2663V10.97C24.6927 10.8954 24.3879 10.798 24.0758 10.7643C23.7999 10.7368 23.5325 10.6385 23.2578 10.5976C23.2208 10.3858 23.2145 10.1688 23.2182 9.9527C23.2219 9.66538 23.1697 9.38376 23.1564 9.09739C23.1379 8.74929 23.1598 8.40023 23.1505 8.05165C23.1446 7.7686 23.1121 7.48841 23.098 7.20679ZM4.94934 8.81198C4.94231 8.88559 4.9449 8.96537 4.91568 9.03233C4.87278 9.02521 4.82988 9.01761 4.78698 9.00954C4.80584 8.89698 4.85429 8.81435 4.94934 8.81198ZM5.01443 10.884C4.99889 11.2212 5.0037 11.5593 4.99445 11.897C4.89349 11.8728 4.78994 11.858 4.69305 11.8105C4.67715 11.7502 4.66642 11.688 4.65385 11.6268C4.75148 11.6192 4.84874 11.6135 4.94601 11.6082C4.96154 11.2183 4.89534 10.8151 4.99186 10.4362C5.01257 10.5839 5.02182 10.7339 5.01443 10.884Z" fill="#383837"/>
<path d="M12.463 7.2937C12.1069 7.30034 11.7511 7.28182 11.3961 7.25238C11.3373 7.25048 11.2781 7.25143 11.2193 7.2519C11.22 7.2861 11.2219 7.35448 11.223 7.3882C11.7082 7.48556 12.199 7.44092 12.6875 7.44804C13.3388 7.49981 13.9919 7.47558 14.6442 7.49173C14.8058 7.49791 14.9671 7.47748 15.1243 7.42904C14.949 7.33644 14.7578 7.33216 14.571 7.34214C14.2156 7.35781 13.8613 7.30177 13.5059 7.31412C13.1579 7.32551 12.8107 7.28562 12.463 7.2937Z" fill="#53534E"/>
<path d="M22.3743 7.35543C21.7929 7.34499 21.2119 7.30937 20.6302 7.30557C20.7629 7.46799 20.9586 7.42904 21.1257 7.45516C20.9612 7.46229 20.7951 7.45896 20.632 7.49268C20.6021 7.64845 20.7389 7.63563 20.8188 7.6437C21.047 7.64893 21.2785 7.61331 21.5026 7.68644C21.2123 7.73536 20.9205 7.64988 20.6302 7.70069C20.6483 7.75483 20.6664 7.80944 20.6845 7.86406C20.6668 7.9277 20.6494 7.99133 20.6317 8.05545C20.9582 8.09819 21.2896 8.0203 21.6124 8.11291C21.2892 8.14805 20.9649 8.10436 20.6416 8.13856C20.6542 8.32947 20.662 8.52181 20.6535 8.71367C20.7212 8.72127 20.7888 8.72887 20.8565 8.73647C20.7888 8.76496 20.7212 8.79345 20.6538 8.82195C20.6638 9.37284 20.7038 9.92278 20.6882 10.4737C20.7263 10.4732 20.7644 10.4732 20.8025 10.4727C20.7511 10.5506 20.6997 10.629 20.6501 10.7092C20.8465 10.6993 21.0433 10.6883 21.2396 10.6917C21.0695 10.7377 20.8928 10.7434 20.7263 10.8104C20.7034 10.9016 20.6997 10.998 20.6916 11.093C21.2848 11.0179 21.878 10.9396 22.4682 10.8303C22.47 10.7795 22.4719 10.7292 22.4734 10.6784C22.5259 10.6722 22.5784 10.6655 22.6305 10.6598C22.5969 9.88004 22.5965 9.09834 22.5695 8.31807C22.5488 8.00938 22.5462 7.69879 22.5473 7.38915C22.4896 7.37633 22.4323 7.36398 22.3743 7.35543Z" fill="#4D4D48"/>
<path d="M19.3572 7.45611C18.6021 7.42572 17.8443 7.48176 17.0913 7.37965C16.9845 7.38013 16.8776 7.39153 16.7707 7.40007C16.77 7.44519 16.7696 7.48983 16.7689 7.53542C17.1723 7.50598 17.5754 7.5473 17.9786 7.56154C18.4442 7.56582 18.9101 7.58054 19.3761 7.56629C19.3713 7.53875 19.3621 7.48366 19.3572 7.45611Z" fill="#53534F"/>
<path d="M14.5337 7.62613C13.8676 7.6513 13.2027 7.57674 12.5366 7.58814C12.1002 7.59431 11.6624 7.55869 11.2274 7.61758C11.2274 7.64513 11.2274 7.70022 11.2274 7.72776C11.5407 7.72016 11.8532 7.75246 12.1661 7.76433C12.8195 7.7743 13.4734 7.7667 14.1272 7.76955C14.4453 7.76148 14.7678 7.81087 15.0814 7.71969C14.9064 7.63563 14.7189 7.61568 14.5337 7.62613Z" fill="#54554F"/>
<path d="M19.3957 7.78522C19.2156 7.62233 18.9863 7.70781 18.7818 7.69547C18.3399 7.68217 17.8976 7.67362 17.4553 7.6798C17.2319 7.68597 17.0044 7.64845 16.7848 7.71826C16.9275 7.78807 17.081 7.8009 17.2322 7.80232C17.726 7.80422 18.2193 7.80612 18.713 7.80565C18.9408 7.80422 19.169 7.82037 19.3957 7.78522Z" fill="#555550"/>
<path d="M14.2012 7.91393C13.2108 7.92485 12.22 7.85931 11.23 7.91772C11.2308 7.96379 11.2315 8.00938 11.2315 8.05592C12.3939 8.0583 13.5566 8.06067 14.7189 8.0564C14.8524 8.05355 14.9845 8.03123 15.1158 8.00131C14.8203 7.87498 14.5067 7.91677 14.2012 7.91393Z" fill="#555751"/>
<path d="M19.4053 8.00036C19.2814 7.95714 19.155 7.92152 19.0259 7.92295C18.5148 7.92817 18.0033 7.922 17.4922 7.9201C17.2522 7.9201 17.0122 7.94479 16.7726 7.91772C16.7733 7.96426 16.7737 8.01081 16.7737 8.05735C17.395 8.0317 18.0174 8.06257 18.6391 8.04595C18.8946 8.04595 19.1527 8.06257 19.4053 8.00036Z" fill="#555651"/>
<path d="M4.61613 7.93387C4.44194 7.94194 4.26812 7.94622 4.09394 7.95382C4.0932 8.01746 4.09209 8.08157 4.09098 8.14615C4.22005 8.14425 4.34875 8.14758 4.47744 8.15328C4.51664 8.70227 4.44416 9.25174 4.47818 9.80073C4.47966 9.82733 4.48262 9.88147 4.4841 9.90806C4.35059 9.89002 4.21857 9.85867 4.08691 9.82353C4.14608 9.81166 4.20525 9.80168 4.26406 9.79313C4.19712 9.78649 4.13055 9.77699 4.06361 9.76796C4.06398 9.8449 4.06398 9.92231 4.06398 9.99972C4.20488 10.0121 4.34541 10.0268 4.48595 10.0363C4.51331 10.0372 4.56768 10.0391 4.59505 10.0406C4.60281 9.69435 4.59726 9.34815 4.59652 9.00194C4.59467 8.69942 4.6213 8.39833 4.61872 8.09629C4.61798 8.05545 4.6165 7.97424 4.61613 7.93387Z" fill="#575655"/>
<path d="M4.47744 8.15328C4.34875 8.14758 4.22005 8.14425 4.09098 8.14615C4.0895 8.34039 4.08617 8.5351 4.07951 8.72934C4.06805 9.07555 4.05806 9.42176 4.06361 9.76796C4.13055 9.77699 4.19712 9.78649 4.26406 9.79313C4.3358 9.79503 4.40718 9.79788 4.47818 9.80073C4.44416 9.25174 4.51664 8.70227 4.47744 8.15328ZM4.16272 8.92168C4.17678 9.08837 4.17641 9.25696 4.17345 9.42461C4.15607 9.42556 4.1213 9.42651 4.10429 9.42698C4.10873 9.25744 4.06546 9.06083 4.16272 8.92168Z" fill="#6E6F6E"/>
<path d="M19.4323 8.25728C19.3595 8.19507 19.2759 8.1528 19.1868 8.15803C18.6465 8.1509 18.1061 8.17275 17.5658 8.16705C17.3036 8.21407 17.0285 8.14141 16.7759 8.25966C16.8905 8.28578 17.0059 8.30572 17.1224 8.30382C17.7759 8.28198 18.4294 8.28958 19.0828 8.28578C19.1997 8.2853 19.3166 8.27533 19.4323 8.25728Z" fill="#565651"/>
<path d="M7.00444 8.21597C6.7463 8.12763 6.47744 8.17607 6.21376 8.16135C6.10392 8.16183 5.9915 8.14188 5.88277 8.17275C5.87204 8.18415 5.85059 8.20599 5.8395 8.21692C5.83728 8.1984 5.83321 8.1604 5.83099 8.14141C5.80843 8.556 5.81287 8.97154 5.79697 9.38614L5.79586 9.42366C5.91124 9.37474 6.03254 9.34435 6.15422 9.35812C6.43676 9.38376 6.72079 9.40608 7.0037 9.37854C6.97263 9.30778 6.96524 9.19665 6.89275 9.17528C6.62759 9.09312 6.34246 9.19997 6.08247 9.07365C6.01997 9.048 5.98706 8.96822 5.97522 8.89034C5.94342 8.69515 5.96931 8.49521 5.98928 8.3005C6.18972 8.2777 6.39016 8.24921 6.59172 8.25918C6.72966 8.26251 6.87537 8.29718 7.00444 8.21597Z" fill="#353636"/>
<path d="M15.149 8.29813C15.017 8.20884 14.8676 8.17845 14.7193 8.18652C13.8802 8.19744 13.0411 8.1908 12.2023 8.20552C11.8791 8.24256 11.5484 8.15613 11.23 8.25871C11.2297 8.27818 11.2286 8.31807 11.2278 8.33802C11.6416 8.43917 12.0614 8.35464 12.4786 8.36556C12.9294 8.37553 13.3802 8.35226 13.8314 8.34467C14.2703 8.32709 14.713 8.38361 15.149 8.29813Z" fill="#555650"/>
<path d="M19.4334 8.46624C19.355 8.42683 19.2722 8.39786 19.1871 8.39786C18.696 8.38931 18.2053 8.4102 17.7145 8.42872C17.5055 8.43727 17.2955 8.41448 17.0873 8.44345C17.0385 8.44487 16.9974 8.48049 16.9634 8.52323C17.1842 8.60586 17.4164 8.56027 17.6424 8.56407C18.0362 8.54413 18.4297 8.52228 18.824 8.52798C19.0277 8.52655 19.2352 8.53938 19.4334 8.46624Z" fill="#555650"/>
<path d="M8.47189 8.21264C8.38942 8.21549 8.30658 8.21787 8.22374 8.22071C8.17271 8.29243 8.12056 8.36366 8.06842 8.43442C7.99556 8.40355 7.92234 8.37079 7.84689 8.35131C7.7807 8.58687 7.79253 8.84237 7.7733 9.0879C8.01516 9.14251 8.26146 9.15961 8.50666 9.14583C8.52145 8.8343 8.52478 8.51896 8.47189 8.21264Z" fill="#3F3F41"/>
<path d="M15.142 8.55695C14.8739 8.4425 14.5895 8.48096 14.3121 8.47859C13.5747 8.49094 12.8369 8.49189 12.0991 8.49806C11.807 8.50281 11.5203 8.60064 11.2271 8.58782C11.2271 8.60539 11.2271 8.64101 11.2271 8.65858C12.1816 8.70655 13.1361 8.65953 14.0902 8.63056C14.4408 8.61821 14.7981 8.6695 15.142 8.55695Z" fill="#565751"/>
<path d="M19.4364 8.91835C19.3447 8.89318 19.2518 8.87324 19.1575 8.87134C18.429 8.86659 17.7008 8.91693 16.973 8.96394C16.8961 8.96062 16.831 9.01286 16.7707 9.06795C17.1091 9.13539 17.4486 9.03613 17.7881 9.0518C18.1465 9.06605 18.5037 9.02996 18.8609 9.00289C19.0529 8.98342 19.2592 9.04088 19.4364 8.91835Z" fill="#565751"/>
<path d="M15.1601 9.38756C14.8425 9.28118 14.5133 9.34387 14.1908 9.36287C13.963 9.38661 13.7348 9.38091 13.507 9.36334C13.2918 9.3453 13.078 9.38946 12.8639 9.41273C12.3158 9.45642 11.7637 9.44455 11.2182 9.53288C11.2175 9.55426 11.216 9.59747 11.2152 9.61884C11.5078 9.68201 11.8047 9.67393 12.0987 9.63546C12.5048 9.58322 12.9135 9.58987 13.3199 9.54808C13.6579 9.51864 13.9978 9.53621 14.3358 9.49822C14.6106 9.46212 14.8979 9.52576 15.1601 9.38756Z" fill="#565751"/>
<path d="M15.1557 9.67013C14.9956 9.58465 14.8214 9.56565 14.6501 9.58702C13.7866 9.66301 12.922 9.71192 12.057 9.75657C11.7763 9.80976 11.4896 9.78648 11.2108 9.85345C11.2108 9.87719 11.2101 9.92373 11.2101 9.947C11.5913 9.97597 11.9715 9.91518 12.3524 9.91423C12.6834 9.91139 13.0126 9.86722 13.3425 9.84585C13.6727 9.81878 14.0033 9.8221 14.3332 9.78981C14.608 9.75894 14.8931 9.80168 15.1557 9.67013Z" fill="#565751"/>
<path d="M5.06731 8.59399C5.03994 8.58307 4.98521 8.56122 4.95784 8.54983C4.93306 8.56502 4.88314 8.59494 4.85836 8.60966C4.85688 8.64433 4.8554 8.679 4.85355 8.71367C4.92271 8.74834 4.99224 8.78158 5.06213 8.81245C5.06324 8.73979 5.06546 8.66665 5.06731 8.59399Z" fill="#666669"/>
<path d="M19.4353 8.68185C19.1661 8.58924 18.8868 8.64908 18.6128 8.65241C18.2023 8.65525 17.7925 8.67758 17.382 8.67805C17.179 8.68185 16.9697 8.68043 16.7788 8.78396C17.4841 8.86564 18.1919 8.76876 18.8983 8.76401C19.078 8.75261 19.2696 8.79345 19.4353 8.68185Z" fill="#575853"/>
<path d="M15.0658 8.77398C14.7788 8.72649 14.4896 8.76116 14.2016 8.76543C13.7082 8.76733 13.2149 8.78253 12.7219 8.79963C12.223 8.82907 11.7223 8.80865 11.2252 8.87609C11.2249 8.90506 11.2241 8.96252 11.2237 8.99149C11.858 9.02521 12.493 8.99339 13.1272 8.96679C13.7803 8.95587 14.4327 8.91645 15.0854 8.89366C15.0806 8.86374 15.071 8.8039 15.0658 8.77398Z" fill="#575852"/>
<path d="M15.1498 9.94985C15.0015 9.90141 14.8484 9.86959 14.6949 9.88622C13.5348 9.985 12.3713 10.022 11.2134 10.1602C11.2138 10.1897 11.2149 10.249 11.2156 10.2785C11.6335 10.2813 12.051 10.2414 12.4682 10.2139C13.2056 10.1522 13.9438 10.1104 14.6816 10.0567C14.8406 10.0467 14.9978 10.0106 15.1498 9.94985Z" fill="#575852"/>
<path d="M4.94934 8.81198C4.85429 8.81435 4.80584 8.89698 4.78698 9.00954C4.82988 9.01761 4.87278 9.02521 4.91568 9.03233C4.9449 8.96537 4.94231 8.88559 4.94934 8.81198Z" fill="#766E6B"/>
<path d="M4.16272 8.92168C4.06546 9.06083 4.10873 9.25744 4.10429 9.42698C4.1213 9.42651 4.15607 9.42556 4.17345 9.42461C4.17641 9.25696 4.17678 9.08837 4.16272 8.92168Z" fill="#474747"/>
<path d="M15.0706 9.0651C14.4612 9.03328 13.851 9.05798 13.2415 9.0689C12.5688 9.12874 11.8935 9.12161 11.2223 9.2014C11.2223 9.24936 11.2223 9.29686 11.2219 9.34482C11.6476 9.31585 12.0732 9.28973 12.4993 9.29163C13.3621 9.28546 14.2226 9.19095 15.0854 9.17955C15.0817 9.15106 15.0743 9.09359 15.0706 9.0651Z" fill="#585953"/>
<path d="M19.4098 9.11212C19.0544 9.08457 18.7008 9.17433 18.3458 9.13634C18.1095 9.11259 17.8765 9.18098 17.6413 9.18953C17.3521 9.20947 17.054 9.17148 16.7755 9.2978C16.9087 9.37284 17.0547 9.36144 17.1956 9.3434C17.9294 9.30113 18.6627 9.26599 19.3961 9.21707C19.3998 9.19095 19.4064 9.13824 19.4098 9.11212Z" fill="#565550"/>
<path d="M15.152 10.7995C14.9001 10.7102 14.6383 10.7363 14.3828 10.7767C13.9275 10.8204 13.4741 10.894 13.0178 10.9182C12.4161 10.9638 11.807 10.9419 11.2145 11.1048C11.2152 11.1362 11.216 11.1989 11.2167 11.2302C11.6672 11.234 12.1158 11.1727 12.5643 11.1281C13.1331 11.0488 13.7049 11.0136 14.2744 10.9462C14.568 10.9101 14.8676 10.9134 15.152 10.7995Z" fill="#565550"/>
<path d="M5.04179 9.41226C5.0503 9.30825 5.05695 9.20377 5.05954 9.09929C4.98891 9.13111 4.91827 9.16436 4.84801 9.19855C4.84764 9.26124 4.84726 9.32345 4.84615 9.38661C4.91161 9.39564 4.9767 9.40513 5.04179 9.41226Z" fill="#696B6B"/>
<path d="M19.4419 9.41463C19.3151 9.35384 19.1805 9.31917 19.0447 9.33485C18.5891 9.37569 18.1331 9.40703 17.6771 9.43743C17.3791 9.4455 17.0832 9.51721 16.7844 9.49062C16.7859 9.52244 16.7885 9.58702 16.7899 9.61884C17.4253 9.56945 18.0621 9.55236 18.6975 9.50107C18.946 9.48159 19.1979 9.48634 19.4419 9.41463Z" fill="#565752"/>
<path d="M19.4046 9.87007C19.1036 9.77034 18.7944 9.85155 18.4896 9.86579C17.9242 9.89666 17.3598 9.9622 16.7947 10.0045C16.7944 10.0396 16.794 10.1099 16.7936 10.145C17.5699 10.0743 18.3473 10.022 19.1232 9.9489C19.2193 9.93703 19.3125 9.90474 19.4046 9.87007Z" fill="#585853"/>
<path d="M15.0625 11.3504C14.7219 11.3219 14.3831 11.3869 14.0433 11.4102C13.6191 11.4534 13.1905 11.432 12.77 11.5294C12.2552 11.6443 11.7289 11.6353 11.2163 11.7692C11.2178 11.7991 11.2215 11.8595 11.223 11.8894C11.544 11.8728 11.8621 11.811 12.1823 11.7825C12.7563 11.7175 13.3314 11.6643 13.902 11.5603C14.2885 11.4886 14.686 11.4981 15.0625 11.3504Z" fill="#585853"/>
<path d="M4.47818 9.80073C4.40718 9.79788 4.3358 9.79503 4.26406 9.79313C4.20525 9.80168 4.14608 9.81166 4.08691 9.82353C4.21857 9.85867 4.35059 9.89002 4.4841 9.90806C4.48262 9.88147 4.47966 9.82733 4.47818 9.80073Z" fill="#2A2A2A"/>
<path d="M19.4275 10.1047C19.2722 10.0648 19.1132 10.0505 18.9553 10.0653C18.5647 10.0994 18.1749 10.1531 17.784 10.1773C17.4527 10.2035 17.1187 10.2058 16.7918 10.288C16.7918 10.3117 16.7911 10.3587 16.7907 10.3825C17.3835 10.3768 17.9734 10.2894 18.5643 10.24C18.8528 10.2044 19.1479 10.2163 19.4275 10.1047Z" fill="#595853"/>
<path d="M4.79216 10.0448C4.7267 10.0434 4.66087 10.042 4.59505 10.0406C4.56768 10.0391 4.51331 10.0372 4.48595 10.0363C4.38462 10.0339 4.28254 10.0368 4.18084 10.0391C4.18195 10.0767 4.18454 10.1507 4.18565 10.1883C4.34468 10.2082 4.50444 10.2177 4.66383 10.2106C4.66864 10.3934 4.67086 10.5777 4.65422 10.76C4.67862 10.5155 4.69823 10.2642 4.79216 10.0448Z" fill="#1A1916"/>
<path d="M15.1043 10.2134C14.868 10.1503 14.6261 10.1726 14.3872 10.1911C13.6453 10.25 12.9027 10.2885 12.1616 10.3644C11.8462 10.392 11.5281 10.392 11.2175 10.4765C11.2171 10.5079 11.2171 10.571 11.2171 10.6024C11.6213 10.5986 12.0237 10.5406 12.4271 10.5212C12.8672 10.5017 13.3051 10.4347 13.7452 10.4105C14.0706 10.3948 14.3946 10.3497 14.7197 10.3293C14.8528 10.3227 14.9815 10.2771 15.1043 10.2134Z" fill="#585954"/>
<path d="M19.436 10.3398C19.1106 10.2386 18.7796 10.3478 18.4527 10.3773C17.9005 10.4547 17.3413 10.3977 16.7925 10.5245C16.794 10.5573 16.797 10.6218 16.7984 10.6546C16.8125 10.6551 16.8413 10.656 16.8558 10.6565C17.4763 10.6209 18.0936 10.5207 18.7134 10.4689C18.956 10.4471 19.2038 10.4438 19.436 10.3398Z" fill="#55554F"/>
<path d="M15.1135 10.515C14.7681 10.3806 14.4079 10.4836 14.0562 10.5012C13.4275 10.581 12.7962 10.6195 12.1657 10.6689C11.8473 10.6936 11.5218 10.6907 11.2145 10.8161C11.2141 10.8365 11.2134 10.8778 11.213 10.8982C11.5599 10.9267 11.9061 10.8807 12.2515 10.8422C12.8772 10.808 13.5007 10.723 14.1261 10.6712C14.4564 10.6356 14.794 10.6437 15.1135 10.515Z" fill="#595953"/>
<path d="M5.01443 10.884C5.02182 10.7339 5.01257 10.5839 4.99186 10.4362C4.89534 10.8151 4.96154 11.2183 4.94601 11.6082C4.84874 11.6135 4.75148 11.6192 4.65385 11.6268C4.66642 11.688 4.67715 11.7502 4.69305 11.8105C4.78994 11.858 4.89349 11.8728 4.99445 11.897C5.0037 11.5593 4.99889 11.2212 5.01443 10.884Z" fill="#4F4F50"/>
<path d="M19.385 10.8199C19.0248 10.7942 18.6661 10.8607 18.3062 10.8607C17.9937 10.8607 17.689 10.96 17.3787 10.9894C17.1786 11.0094 16.9789 11.0393 16.7814 11.0863C16.8036 11.1205 16.8266 11.1547 16.8499 11.1879C17.6949 11.0668 18.547 11.0098 19.385 10.8199Z" fill="#585752"/>
<path d="M19.5144 11.0711C19.4445 11.0041 19.3632 10.9405 19.2718 10.9576C19.0148 10.9828 18.7666 11.0806 18.5207 11.1737C18.8099 11.1894 19.0969 11.1376 19.3831 11.092C19.4161 11.0868 19.4815 11.0763 19.5144 11.0711Z" fill="#5B5A57"/>
<path d="M20.5965 10.9951C20.3376 10.9918 20.0784 11.0179 19.8254 11.0906C19.831 11.1499 19.8365 11.2093 19.8417 11.2691C20.0899 11.244 20.3358 11.1965 20.5832 11.1623C20.5876 11.1063 20.5921 11.0507 20.5965 10.9951Z" fill="#4A4949"/>
<path d="M4.62241 10.9852C4.58913 11.1784 4.56361 11.3741 4.54919 11.5717C3.55991 11.4235 2.5699 11.2772 1.5821 11.1134C1.46154 11.0949 1.34061 11.0806 1.21968 11.0668C1.22448 11.1319 1.22892 11.197 1.23299 11.262C2.36058 11.4662 3.49556 11.6006 4.61982 11.8333C4.62574 11.5508 4.61612 11.2677 4.62241 10.9852Z" fill="#515051"/>
<path d="M15.0425 11.0849C14.78 11.0065 14.5126 11.0711 14.2496 11.111C13.8905 11.1542 13.5296 11.224 13.1683 11.1784C12.9837 11.1528 12.7973 11.1727 12.618 11.235C12.1587 11.3841 11.6775 11.3413 11.2171 11.4814C11.2167 11.5014 11.2156 11.5413 11.2152 11.5612C11.7374 11.5522 12.2563 11.4672 12.7759 11.4083C13.2629 11.3546 13.7496 11.2938 14.2363 11.2288C14.5059 11.1917 14.7851 11.2126 15.0425 11.0849Z" fill="#53524D"/>
<path d="M16.6749 11.5246C16.3206 11.5664 15.9641 11.5911 15.6132 11.6676C15.6113 11.7445 15.6095 11.8215 15.6072 11.8989C15.9649 11.8713 16.3184 11.7911 16.6742 11.7403C16.6746 11.6681 16.6749 11.5964 16.6749 11.5246Z" fill="#4A494A"/>
<path d="M15.1442 11.5199C14.9419 11.499 14.7374 11.5109 14.5388 11.5674C14.1109 11.6837 13.6775 11.7687 13.2411 11.8101C12.5692 11.9174 11.8946 12.0015 11.2212 12.0936C11.2311 12.2294 11.2341 12.3662 11.2297 12.5025C11.6612 12.4346 12.0947 12.388 12.5259 12.3158C13.3839 12.1772 14.247 12.0865 15.101 11.9084C15.0447 11.8571 14.9885 11.8058 14.932 11.755C15.0277 11.7236 15.1232 11.6909 15.2197 11.6638C15.1942 11.6163 15.169 11.5679 15.1442 11.5199Z" fill="#4A4945"/>
<path d="M5.94564 11.782C5.65496 11.7298 5.36354 11.6795 5.0699 11.6652C5.07138 11.7379 5.07286 11.8105 5.07397 11.8837C5.80547 12.0133 6.53883 12.1226 7.27071 12.2451C7.29253 12.1881 7.31398 12.1311 7.33506 12.0746C7.27922 12.0347 7.22337 11.9934 7.16642 11.9549C6.7574 11.9255 6.35318 11.8357 5.94564 11.782Z" fill="#515151"/>
<path d="M10.0396 12.4004C9.61834 12.3405 9.19933 12.246 8.77515 12.2308C8.76886 12.313 8.76184 12.3947 8.75444 12.4773C9.18417 12.5675 9.6165 12.6288 10.0492 12.6905C10.0462 12.5932 10.0429 12.4968 10.0396 12.4004Z" fill="#515152"/>
<path d="M10.9904 12.332C10.7685 12.3287 10.5481 12.3638 10.3273 12.388C10.3295 12.4906 10.3299 12.5937 10.3291 12.6967C10.5411 12.6621 10.753 12.6288 10.9645 12.5894C10.973 12.5034 10.9815 12.4175 10.9904 12.332Z" fill="#4A4A49"/>
</svg>
