<svg width="1032" height="798" viewBox="0 0 1032 798" fill="none" xmlns="http://www.w3.org/2000/svg">
<path d="M434.373 1.35989C459.693 1.66656 484.987 0.239893 510.32 0.399893C510.547 14.1732 510.04 27.9599 511.16 41.7066C512.227 53.2399 510.48 65.0799 513.88 76.3466C510.453 76.4533 507.04 76.3999 503.627 76.2932C500.973 76.1866 498.333 76.0666 495.68 75.9999C491.733 75.9066 487.8 75.9066 483.853 75.9466C467.827 75.7732 451.76 76.5066 435.76 75.3199C434.933 62.5732 435.6 49.7866 434.707 37.0399C434.093 25.1599 434.347 13.2532 434.373 1.35989Z" fill="#7B1919"/>
<path d="M510.32 0.399893C521.92 0.533227 533.533 1.14657 545.08 2.3999C545.427 4.8399 545.813 7.29323 546.067 9.77323C544.4 10.7066 542.733 11.6532 541.08 12.6132C541.093 13.9732 541.093 15.3466 541.12 16.7199C542.747 17.6533 544.4 18.5999 546.053 19.5332C545.747 23.1466 545.413 26.7466 545.24 30.3733C539.773 29.4399 534.2 29.3866 528.72 30.2666C528.987 32.4533 529.28 34.6533 529.627 36.8399C530.893 44.7866 533.413 52.4266 535.6 60.1466C534.64 60.1599 532.707 60.1866 531.747 60.1999C531.813 64.8799 531.827 69.5733 531.987 74.2533L533 74.3333C536.573 74.5199 540.173 74.4933 543.76 74.5999L544.867 74.6666L544.8 75.7599C534.493 76.0266 524.173 75.7333 513.88 76.3466C510.48 65.0799 512.227 53.2399 511.16 41.7066C510.04 27.9599 510.547 14.1732 510.32 0.399893Z" fill="#982321"/>
<path d="M541.08 12.6132C542.733 11.6532 544.4 10.7066 546.067 9.77323C546.307 13.0266 546.32 16.2932 546.053 19.5332C544.4 18.5999 542.747 17.6533 541.12 16.7199C541.093 15.3466 541.093 13.9732 541.08 12.6132Z" fill="#30302F"/>
<path d="M728.72 13.0399C745.227 11.9733 761.773 12.9199 778.307 12.4666C795.987 11.5866 813.693 12.1466 831.4 11.9866C831.187 14.0133 831 16.0533 830.827 18.0933C848.4 20.7199 866.293 19.0266 883.84 22.0799C880.853 27.9599 877.027 33.3599 872.867 38.4399C869.947 35.7866 866.773 32.9466 862.587 32.8933C853.24 32.1333 843.853 32.5733 834.493 32.1866C829.413 31.9866 822.72 32.7199 820.96 38.4399C818.68 46.4799 819.827 54.9733 819.6 63.2133C815.587 63.2266 811.587 63.2266 807.587 63.1999C800.987 63.0799 794.387 63.0666 787.8 63.1999C760.2 63.2666 732.6 63.2666 705 63.1866C686.707 62.8133 668.413 63.4799 650.133 62.8799C649.627 50.7599 649.88 38.6133 650.16 26.4933C650.173 24.8399 650.173 23.2133 650.2 21.5733C647.24 21.6266 644.28 21.6533 641.347 21.8799C641.253 19.1599 641.173 16.4533 641.107 13.7599C653.053 13.8933 665 14.1199 676.933 13.6666C694.187 12.7866 711.467 13.8266 728.72 13.0399Z" fill="#5B5C5B"/>
<path d="M831.4 11.9866C849.067 12.4933 866.733 13.4932 884.36 14.8132C884.2 17.2399 884.093 19.6666 883.84 22.0799C866.293 19.0266 848.4 20.7199 830.827 18.0933C831 16.0533 831.187 14.0133 831.4 11.9866Z" fill="#7C7E7E"/>
<path d="M641.347 21.8799C644.28 21.6533 647.24 21.6266 650.2 21.5733C650.173 23.2133 650.173 24.8399 650.16 26.4933L649.067 26.4399C642.64 26.1332 636.2 26.1599 629.787 25.7199C633.6 24.3466 637.333 22.6399 641.347 21.8799Z" fill="#2F2C22"/>
<path d="M463.587 179.093C464.773 175.88 467.093 173.6 470.6 173.24C469.253 176.24 466.813 178.36 463.587 179.093Z" fill="#2F2C22"/>
<path d="M461.627 180.107C463.347 179.92 465.093 179.787 466.853 179.667C465.64 183.147 464.96 187.013 462.72 190C460.373 191.44 456.013 192.24 454.68 189.16C455.72 187.04 457.253 185.24 458.653 183.373C458.6 185.333 458.533 187.32 458.48 189.293C459.107 188.88 460.387 188.027 461.013 187.613C461.227 185.093 461.36 182.6 461.627 180.107Z" fill="#2F2C22"/>
<path d="M243.2 26.68C246.4 26.64 249.6 26.64 252.813 26.64C252.84 27.56 252.893 29.3733 252.92 30.2933C250.627 30.0799 248.347 29.8533 246.067 29.5866C245.32 31.4266 244.6 33.3066 243.827 35.1466L243.053 35.68C243.08 32.6666 243.133 29.6666 243.2 26.68Z" fill="#565753"/>
<path d="M649.067 26.4399L650.16 26.4933C649.88 38.6133 649.627 50.7599 650.133 62.8799C668.413 63.4799 686.707 62.8133 705 63.1866C706.133 68.48 707.307 73.76 708.267 79.0933C699.547 80.2266 690.733 80.1066 682.013 78.9733C683.227 73.88 684.533 68.8133 685.693 63.7066C673.627 63.1866 661.56 63.4933 649.493 63.5066C649.453 51.1466 649.973 38.7732 649.067 26.4399Z" fill="#070F08"/>
<path d="M246.067 29.5866C248.347 29.8533 250.627 30.0799 252.92 30.2933C252.987 32.1466 253.04 34.0133 253.107 35.8799C257.16 35.9733 261.213 36.0533 265.267 36.1333C266.04 56.0133 266.64 75.8933 267.667 95.7599C264.627 95.8666 261.6 95.9466 258.573 96.1066C254.987 96.1866 251.413 96.2933 247.827 96.4799C244.28 87.4133 244.307 77.5866 243.453 68.0399C242.427 57.3199 243.067 46.3733 240.093 35.9199C240.84 35.8533 242.32 35.7333 243.053 35.68L243.827 35.1466C244.6 33.3066 245.32 31.4266 246.067 29.5866Z" fill="#797A7A"/>
<path d="M528.72 30.2666C534.2 29.3866 539.773 29.4399 545.24 30.3733C549.427 34.5999 552.747 39.6266 553.787 45.5999L552.32 45.7466C544.293 40.8266 536.733 35.1866 528.72 30.2666Z" fill="#7F8183"/>
<path d="M529.627 36.8399C529.28 34.6533 528.987 32.4533 528.72 30.2666C536.733 35.1866 544.293 40.8266 552.32 45.7466C550.133 45.9999 547.973 46.2933 545.8 46.5866C542.107 40.9866 536.027 38.1066 529.627 36.8399Z" fill="#425C4A"/>
<path d="M245.96 96.5599C246.427 96.5466 247.36 96.4933 247.827 96.4799C251.413 96.2933 254.987 96.1866 258.573 96.1066C257.253 96.5733 255.933 97.0666 254.627 97.5866C254.867 99.5199 255.107 101.467 255.32 103.427C253.107 104.76 250.467 105.707 248.88 107.813C247.867 110.32 247.493 113.013 246.933 115.64C250.013 115.76 253.107 115.88 256.2 115.947C281.36 116.187 306.507 117.08 331.667 117.333C344.64 117.093 357.587 118.56 370.56 117.8C361.347 120.827 351.987 123.453 342.493 125.427C321.16 123.427 299.72 124.187 278.333 124.027C257 123.987 235.667 123.893 214.333 123.947C206.08 124.013 197.52 125.107 189.653 121.947C207.68 115 227.373 115.027 246.413 115.533C246.507 109.2 246.293 102.88 245.96 96.5599Z" fill="#425C4A"/>
<path d="M820.96 38.4399C822.72 32.7199 829.413 31.9866 834.493 32.1866C843.853 32.5733 853.24 32.1333 862.587 32.8933C866.773 32.9466 869.947 35.7866 872.867 38.4399C871.867 46.4533 871.827 54.5333 871.413 62.5866C857.04 63.7333 842.613 62.8533 828.213 63.1866C825.333 63.2 822.467 63.1999 819.6 63.2133C819.827 54.9733 818.68 46.4799 820.96 38.4399Z" fill="#777877"/>
<path d="M225.027 36.0799C230.053 36.0532 235.067 36.1066 240.093 35.9199C243.067 46.3733 242.427 57.3199 243.453 68.0399C244.307 77.5866 244.28 87.4133 247.827 96.4799C247.36 96.4933 246.427 96.5466 245.96 96.5599C239.907 96.6933 233.867 96.0666 227.827 95.7199C226.84 75.8399 226.187 55.9466 225.027 36.0799Z" fill="#636564"/>
<path d="M434.707 37.0399C435.6 49.7866 434.933 62.5732 435.76 75.3199C432.973 75.0399 429.947 75.3066 428.067 77.6399C420.613 85.3333 413.92 93.7599 405.933 100.933C398.707 107.867 389.96 112.96 380.733 116.733C380.68 117.187 380.573 118.08 380.52 118.533C372.2 119.12 364.507 122.587 356.56 124.773C344.227 127.627 331.987 130.88 319.587 133.467C301.667 137.253 284.4 143.6 267.48 150.533C249.307 158.933 230.453 166.533 214.253 178.507C206.08 183.973 197.827 189.48 190.973 196.6C175.76 212.187 164.427 231.187 155.68 251.027C145.933 272.32 140.6 295.293 136.8 318.32C134.187 337.48 132.64 356.867 133.587 376.227C134.507 387.547 134.68 398.933 136.067 410.213C136.48 414.44 136.8 418.68 137.547 422.88C136.8 422.707 135.32 422.347 134.573 422.16C134.267 421.84 133.64 421.2 133.333 420.867C133.413 412.28 132.173 403.76 131.32 395.24C130.613 384.573 129.533 373.853 130.667 363.173C131.387 356.2 131.147 349.2 130.88 342.213C132.16 326.053 135.013 310.08 137.987 294.16C144.2 269.987 152.747 246.253 165.76 224.84C176.893 205.213 192.853 188.347 211.907 176.24C223.52 168.907 235.64 162.387 247.933 156.28C261.693 150.427 275.507 144.72 289.24 138.853C300.773 135.533 312.28 132.147 324 129.56C330.227 128.467 336.333 126.853 342.493 125.427C351.987 123.453 361.347 120.827 370.56 117.8C382.013 114.347 393.053 109.04 402.067 101.08C409.573 94.3466 416.387 86.8666 423.067 79.3333C426.307 75.5599 430.4 72.6933 434.6 70.0933C435.08 59.0933 435.08 48.0532 434.707 37.0399Z" fill="#142513"/>
<path d="M529.627 36.8399C536.027 38.1066 542.107 40.9866 545.8 46.5866C545.587 51.0533 545.453 55.52 545.373 60.0133C542.107 60.0533 538.853 60.0932 535.6 60.1466C533.413 52.4266 530.893 44.7866 529.627 36.8399Z" fill="#6E2321"/>
<path d="M552.32 45.7466L553.787 45.5999C556.413 53.2133 561 59.9199 564.547 67.1066C569.067 75.3199 572.493 84.36 579.133 91.1866C583.707 95.88 588.453 100.413 593.013 105.12C595.413 107.533 597.92 109.827 600.547 111.987C605.107 115.827 609.947 119.347 614.853 122.733L613.187 122.84C608.8 122.853 604.427 122.733 600.053 122.64C598.173 120.68 596.28 118.733 594.333 116.853C591.8 114.427 589.24 112.027 586.747 109.56C580.72 102.973 573.107 97.6799 568.667 89.7733C561.107 76.1333 554.613 61.8933 546.307 48.68C545.52 57.6533 545.867 66.6666 545.88 75.68L544.8 75.7599L544.867 74.6666C545.173 69.7866 545.293 64.8933 545.373 60.0133C545.453 55.52 545.587 51.0533 545.8 46.5866C547.973 46.2933 550.133 45.9999 552.32 45.7466Z" fill="#0E0E0C"/>
<path d="M531.747 60.1999C532.707 60.1866 534.64 60.1599 535.6 60.1466C538.853 60.0932 542.107 60.0533 545.373 60.0133C545.293 64.8933 545.173 69.7866 544.867 74.6666L543.76 74.5999C541.973 70.8266 540.4 66.9466 538.747 63.12C534.933 65.6933 533.387 69.9066 533 74.3333L531.987 74.2533C531.827 69.5733 531.813 64.8799 531.747 60.1999Z" fill="#818582"/>
<path d="M787.8 63.1999C794.387 63.0666 800.987 63.0799 807.587 63.1999C808.587 68.6133 809.813 73.9733 811.027 79.3466C802.133 81.3333 792.427 83.5599 783.827 79.2133C785.293 73.9066 786.76 68.5999 787.8 63.1999Z" fill="#0F300F"/>
<path d="M828.213 63.1866C842.613 62.8533 857.04 63.7333 871.413 62.5866L871.307 63.64C863.76 63.52 856.213 63.3066 848.68 63.7066C849.56 68.7333 850.147 73.7999 850.773 78.8666C842.107 79.8933 833.36 80.2133 824.693 78.9733C826.027 73.7466 827.28 68.4933 828.213 63.1866Z" fill="#081208"/>
<path d="M533 74.3333C533.387 69.9066 534.933 65.6933 538.747 63.12C540.4 66.9466 541.973 70.8266 543.76 74.5999C540.173 74.4933 536.573 74.5199 533 74.3333Z" fill="#B0B4B0"/>
<path d="M483.853 75.9466C487.8 75.9066 491.733 75.9066 495.68 75.9999C495.653 78.2266 495.64 80.4666 495.613 82.7066C495.013 84.5466 495.04 87.2799 497.347 87.9199C497.107 89.8399 496.92 91.7733 496.747 93.7199C496.08 97.5199 495.267 101.333 495.24 105.213C492.587 106.747 489.973 108.347 487.24 109.693C486.68 109.84 485.56 110.16 485.013 110.32C484.853 105.6 484.507 100.893 483.587 96.2666C482.133 89.5333 483.387 82.6932 483.853 75.9466Z" fill="#303230"/>
<path d="M495.68 75.9999C498.333 76.0666 500.973 76.1866 503.627 76.2932C506.4 90.9332 508.653 105.68 510.227 120.507C506.707 120.427 503.213 120.907 499.747 121.387L499.24 121.453L499.52 120.64C502.627 111.68 499 102.413 496.747 93.7199C496.92 91.7733 497.107 89.8399 497.347 87.9199C497.907 85.9599 497.027 84.0266 495.613 82.7066C495.64 80.4666 495.653 78.2266 495.68 75.9999Z" fill="#0B0A08"/>
<path d="M627.653 79.9466C637.96 79.2133 648.293 79.6267 658.6 78.9733C666.4 78.56 674.227 78.3333 682.013 78.9733C690.733 80.1066 699.547 80.2266 708.267 79.0933C719.6 78.2266 730.973 78.9066 742.333 78.7333C756.16 78.9466 770.027 78.0933 783.827 79.2133C792.427 83.5599 802.133 81.3333 811.027 79.3466C815.533 78.5333 820.147 78.56 824.693 78.9733C833.36 80.2133 842.107 79.8933 850.773 78.8666C861.293 78.0799 871.8 79.56 882.32 79.44C895.707 79.16 909.067 79.84 922.453 80.0933C922.387 82.28 922.347 84.48 922.32 86.68C918.413 86.64 914.507 86.5733 910.627 86.48C894.733 82.9733 878.453 84.4533 862.347 84.1733C849.587 83.8533 836.813 85 824.093 83.7466C818.893 82.72 813.6 82.6133 808.4 83.68C803.893 83.92 799.387 83.9067 794.893 83.6C773.853 81.8933 752.747 82.72 731.667 82.4667C717.267 82.5733 702.88 82.0266 688.493 82.1066C674.853 81.3333 661.187 82.0133 647.547 81.5333C642.453 81.0933 637.4 82.4 633.467 85.76C631.6 85.68 629.733 85.6 627.88 85.5333C627.787 83.6666 627.72 81.8 627.653 79.9466Z" fill="#2C4E31"/>
<path d="M633.467 85.76C637.4 82.4 642.453 81.0933 647.547 81.5333C661.187 82.0133 674.853 81.3333 688.493 82.1066C702.84 87.4 718.107 84.0533 732.96 85.0533C747.613 85.72 762.227 86.7466 776.893 87.0933C794.227 88.5733 811.627 87.9866 829 88.0399C839.347 88.0666 849.693 89.5733 860.053 88.5866C871.733 87.5466 883.427 89.04 894.947 90.8933C893.84 94.6 893.653 100.427 888.653 100.84C878.6 102.2 868.333 100.573 858.347 102.653C838.72 106.56 818.533 104.427 798.92 108.267C793.56 107.453 788.16 106.493 782.72 107.013C772.613 107.933 762.267 108.187 752.627 111.733C745.72 114.293 738.32 114.52 731.12 115.68C725.133 116.867 718.64 120.253 716.64 126.413C713.707 135.147 719.493 143.947 716.693 152.787C717.4 153.88 718.107 154.973 718.84 156.08C702.84 160.84 686.32 156.773 670.267 154.68C661.267 150.44 651.547 147.893 641.653 146.933C644.733 146.173 647.773 145.267 650.84 144.427C662.507 147.733 673.96 153.467 686.44 151.733C686.48 146.133 685.627 140.573 685.507 134.987C685.427 130.84 688.813 127.827 691.907 125.613C700.227 120.027 709.587 116.293 718.707 112.24C723.773 110.053 728.893 107.493 734.52 107.24C740.427 106.92 746.427 107.36 752.24 106C766.813 102.6 781.853 100.747 796.827 101.747C805.293 102.467 813.32 98.72 821.787 99.1333C828.907 99.3866 836.013 98.44 842.787 96.1733C832.373 92.3866 821.16 93.8133 810.333 93.4266C798.307 93.6533 786.36 91.8399 774.333 92.0666C762.733 92.2933 751.2 90.7999 739.613 90.6133C728.013 90.4799 716.6 88.04 705.013 87.76C687.92 87.5066 670.92 85.4533 653.88 84.4266C649.813 84.2266 645.853 85.2399 641.893 85.9466C639.08 85.9733 636.267 85.8933 633.467 85.76Z" fill="#122F12"/>
<path d="M688.493 82.1066C702.88 82.0266 717.267 82.5733 731.667 82.4667C752.747 82.72 773.853 81.8933 794.893 83.6C799.387 83.9067 803.893 83.92 808.4 83.68C813.627 83.7467 818.853 83.7333 824.093 83.7466C836.813 85 849.587 83.8533 862.347 84.1733C878.453 84.4533 894.733 82.9733 910.627 86.48C907.227 86.6666 903.853 86.9466 900.507 87.4133C900.28 87.8266 899.827 88.6533 899.6 89.0666C895.267 96.5599 891.627 104.653 890.853 113.373C889.933 117.12 890.613 122.24 886.787 124.493C880.547 128.32 873.267 129.88 866.413 132.28C853.973 136.64 840.68 138 828.48 143.133C820.12 145.467 811.747 147.787 803.333 149.893C797.6 150.427 792.107 152.333 787.213 155.333C788.427 155.653 790.867 156.307 792.093 156.64C785.227 157.667 778.293 157.333 771.4 157.067C776.64 155.173 781.853 153.187 787.107 151.347C791.347 149.733 795.947 147.893 798.453 143.867C794.36 130.547 779.227 127.093 770.92 117.293C778.667 110.493 789.147 109.52 798.92 108.267C818.533 104.427 838.72 106.56 858.347 102.653C868.333 100.573 878.6 102.2 888.653 100.84C893.653 100.427 893.84 94.6 894.947 90.8933C883.427 89.04 871.733 87.5466 860.053 88.5866C849.693 89.5733 839.347 88.0666 829 88.0399C811.627 87.9866 794.227 88.5733 776.893 87.0933C762.227 86.7466 747.613 85.72 732.96 85.0533C718.107 84.0533 702.84 87.4 688.493 82.1066Z" fill="#174216"/>
<path d="M497.347 87.9199C497.907 85.9599 497.027 84.0266 495.613 82.7066C495.013 84.5466 495.04 87.2799 497.347 87.9199Z" fill="#090A0A"/>
<path d="M824.093 83.7466C818.893 82.72 813.6 82.6133 808.4 83.68C813.627 83.7467 818.853 83.7333 824.093 83.7466Z" fill="#6C866D"/>
<path d="M641.893 85.9466C645.853 85.2399 649.813 84.2266 653.88 84.4266C670.92 85.4533 687.92 87.5066 705.013 87.76C716.6 88.04 728.013 90.4799 739.613 90.6133C751.2 90.7999 762.733 92.2933 774.333 92.0666C786.36 91.8399 798.307 93.6533 810.333 93.4266C821.16 93.8133 832.373 92.3866 842.787 96.1733C836.013 98.44 828.907 99.3866 821.787 99.1333C813.32 98.72 805.293 102.467 796.827 101.747C781.853 100.747 766.813 102.6 752.24 106C746.427 107.36 740.427 106.92 734.52 107.24C728.893 107.493 723.773 110.053 718.707 112.24C709.587 116.293 700.227 120.027 691.907 125.613C688.813 127.827 685.427 130.84 685.507 134.987C685.627 140.573 686.48 146.133 686.44 151.733C673.96 153.467 662.507 147.733 650.84 144.427C655.24 135.893 655.16 126.107 656.133 116.787C656.627 107.027 656.307 96.1467 649.867 88.1867C647.253 87.28 644.573 86.5733 641.893 85.9466Z" fill="#122112"/>
<path d="M649.867 88.1867C656.307 96.1467 656.627 107.027 656.133 116.787C655.16 126.107 655.24 135.893 650.84 144.427C647.773 145.267 644.733 146.173 641.653 146.933C640 146.84 638.373 146.76 636.747 146.613C625.013 144.387 613.387 140.987 602.933 135.093C616.467 129.387 631.747 133.36 645.44 128.347C647.333 127.787 647.973 125.773 648.787 124.213C648.027 112.213 647.427 100.053 649.867 88.1867Z" fill="#1E2F29"/>
<path d="M890.853 113.373C891.627 104.653 895.267 96.5599 899.6 89.0666C899.68 99.3466 899.573 109.64 898.707 119.893C895.413 127.52 887.067 130.227 880.467 134.173C886.24 135.973 892.2 137.173 898.293 137.2C912.68 137.213 927 139 941.4 138.787C941.76 148.107 940.64 157.64 943.467 166.693C946.493 176.467 947.173 186.867 951.253 196.32C954.12 203 955.107 210.253 956.187 217.387C959.12 218.213 962.253 218.707 964.96 220.253C968.067 222.747 970.027 226.44 973.36 228.72C976.707 231.147 980.867 232.787 983.08 236.507C986.04 241.093 988.64 245.893 991.68 250.44C993.933 249.653 996.2 248.88 998.48 248.107C1000.96 251.827 1003.53 255.52 1005.68 259.453C1009.13 267.587 1010.01 276.467 1010.71 285.187C1012.35 302.52 1011.37 319.947 1011.64 337.333C1011.43 364.28 1012.68 391.373 1008.92 418.16C1008.65 417.453 1008.12 416.053 1007.85 415.36C1007.2 396.48 1008.24 377.56 1007.4 358.693C1006.27 346.093 1006.83 333.227 1003.24 320.973C1001.83 322.48 1000.44 324.013 999.053 325.56C994.853 318.347 990.413 311.293 986.56 303.893C983.973 299.12 981.507 293.947 976.907 290.787C972.56 287.747 967.773 285.387 962.893 283.36C959.693 282.133 955.947 280.933 952.667 282.573C948.893 284.373 945.867 287.333 942.4 289.6C938.08 292.853 932.32 290.427 927.493 292.053C921.333 294.133 915.253 296.573 908.8 297.56C900.773 295.04 891.667 292.347 883.587 296.053C873.027 302.427 868.613 314.8 865.973 326.227C862.387 342.2 858.107 358.013 855.12 374.12C853.987 380.027 851.827 385.68 849.2 391.067C848.067 383.28 847.147 375.427 847.253 367.547C847.813 363.64 849.093 359.907 850.173 356.133C850.667 358.973 851.347 361.8 852.027 364.627C855.8 356.373 857.187 347.373 857.987 338.413C859.667 329.573 861.293 320.72 863.413 311.987C866.747 301.36 869.813 290.48 869.693 279.253C863.48 288.147 862.12 299.173 859.893 309.533C858.413 315.96 857.067 322.413 855.893 328.893L854.773 327.64C854.68 321.533 855.52 315.44 857.107 309.547C862.987 287.707 867.653 265.453 876.027 244.373C881.027 227.707 888.373 211.893 896.067 196.32C901.04 186.467 906.36 176.747 912.907 167.84C916.253 162.88 920.507 157.453 919.48 151.093C910.573 147.973 900.96 148.587 891.707 147.52C883.253 146.52 874.653 146.64 866.28 145.013C860.853 144.027 856.013 139.573 850.28 141.027C843.533 142.547 836.76 144.267 829.8 144.04L828.48 143.133C840.68 138 853.973 136.64 866.413 132.28C873.267 129.88 880.547 128.32 886.787 124.493C890.613 122.24 889.933 117.12 890.853 113.373Z" fill="#29532F"/>
<path d="M248.88 107.813C250.467 105.707 253.107 104.76 255.32 103.427C255.8 107.573 256.067 111.76 256.2 115.947C253.107 115.88 250.013 115.76 246.933 115.64C247.493 113.013 247.867 110.32 248.88 107.813Z" fill="#717271"/>
<path d="M487.24 109.693C489.973 108.347 492.587 106.747 495.24 105.213C495.293 109.213 495.56 113.213 495.72 117.213C492.947 114.64 490.067 112.187 487.24 109.693Z" fill="#595A59"/>
<path d="M593.013 105.12C600.44 104.907 608.013 103.827 615.347 105.373C622.173 108.76 627.387 115.613 628.08 123.32C623.107 123.4 618.147 123.16 613.187 122.84L614.853 122.733L616.373 122.653C614.72 119.413 613.2 115.72 609.92 113.8C607.013 112.373 603.68 112.373 600.547 111.987C597.92 109.827 595.413 107.533 593.013 105.12Z" fill="#133615"/>
<path d="M752.627 111.733C762.267 108.187 772.613 107.933 782.72 107.013C788.16 106.493 793.56 107.453 798.92 108.267C789.147 109.52 778.667 110.493 770.92 117.293C779.227 127.093 794.36 130.547 798.453 143.867C795.947 147.893 791.347 149.733 787.107 151.347C781.853 153.187 776.64 155.173 771.4 157.067C759.213 160.44 746.747 162.92 734.107 163.64C722.68 164.227 711.093 164.8 699.787 162.613C689.787 160.64 679.467 159.373 670.267 154.68C686.32 156.773 702.84 160.84 718.84 156.08C718.107 154.973 717.4 153.88 716.693 152.787C719.493 143.947 713.707 135.147 716.64 126.413C718.64 120.253 725.133 116.867 731.12 115.68C738.32 114.52 745.72 114.293 752.627 111.733Z" fill="#103A10"/>
<path d="M454.573 120.12C457.747 116.347 460.76 110.933 466.293 110.773C472.52 110.307 478.773 110.907 485.013 110.32C485.56 110.16 486.68 109.84 487.24 109.693C490.067 112.187 492.947 114.64 495.72 117.213C496.973 118.347 498.253 119.48 499.52 120.64L499.24 121.453C499.387 130.04 501.107 138.533 501 147.147C500.88 152.893 501.813 159.227 498.773 164.427C491.627 166.52 484.147 164.693 476.893 164.387C469.547 163.76 462.093 164.64 454.8 163.307C447.053 161.707 441.227 155.88 436.12 150.253C441.08 148.547 446.267 147.093 450.68 144.173C451.827 141.293 451.893 138.16 452.027 135.12C451.947 131.573 451.693 128.04 451.48 124.507C452.493 123.027 453.52 121.56 454.573 120.12ZM472.253 119.973C468.373 119.64 465.987 123.28 464.64 126.387C462.293 132.08 461.253 138.6 463.027 144.6C471.04 144.84 479.16 144.613 487.107 143.493C493.613 136.227 489.72 122.64 480.307 120.16C479.68 117.387 472.987 117.253 472.253 119.973Z" fill="#123715"/>
<path d="M580.213 122.227C580.48 117.187 583.107 112.907 586.747 109.56C589.24 112.027 591.8 114.427 594.333 116.853C593.32 118.733 592.333 120.613 591.36 122.52C587.64 122.453 583.92 122.333 580.213 122.227Z" fill="#123713"/>
<path d="M356.56 124.773C364.507 122.587 372.2 119.12 380.52 118.533C390.867 118.6 401.213 118.52 411.547 118.907C425.867 119.893 440.253 118.92 454.573 120.12C453.52 121.56 452.493 123.027 451.48 124.507C444.187 126.667 436.56 127.093 429 126.747C415.2 126.147 401.467 128.133 387.667 127.96C377.253 127.773 366.467 128.693 356.56 124.773Z" fill="#3C5845"/>
<path d="M480.307 120.16C479.68 117.387 472.987 117.253 472.253 119.973C474.933 120.013 477.613 120.067 480.307 120.16Z" fill="#050902"/>
<path d="M464.64 126.387C465.987 123.28 468.373 119.64 472.253 119.973C474.933 120.013 477.613 120.067 480.307 120.16C489.72 122.64 493.613 136.227 487.107 143.493C479.16 144.613 471.04 144.84 463.027 144.6C461.253 138.6 462.293 132.08 464.64 126.387Z" fill="#1D472F"/>
<path d="M499.747 121.387C503.213 120.907 506.707 120.427 510.227 120.507C520.88 121.613 531.6 121.187 542.307 121.507C554.92 122.4 567.573 121.907 580.213 122.227C583.92 122.333 587.64 122.453 591.36 122.52C594.24 122.56 597.147 122.587 600.053 122.64C604.427 122.733 608.8 122.853 613.187 122.84C618.147 123.16 623.107 123.4 628.08 123.32C635 123.267 641.92 123.373 648.787 124.213C639.613 128.253 629.48 128.08 619.667 127.973C602.787 127.68 585.96 130.4 569.093 128.893C546.293 126.773 523.107 129.56 500.56 124.813C500.347 123.96 499.947 122.24 499.747 121.387Z" fill="#3B5644"/>
<path d="M880.467 134.173C887.067 130.227 895.413 127.52 898.707 119.893C898.427 122.84 898.12 125.8 897.893 128.76C897.867 129.307 897.8 130.387 897.773 130.92C912.96 134.733 928.72 132.28 944.12 134.12C949.84 134.96 956.173 136.213 960.12 140.867C963.933 145.347 966.347 150.8 969.12 155.947C975.733 168.547 983.187 180.693 991.347 192.347C996.307 199.36 998.173 207.853 1001.39 215.68C1007.41 229.72 1011.13 244.613 1014.6 259.467C1011.61 259.4 1008.65 259.4 1005.68 259.453C1003.53 255.52 1000.96 251.827 998.48 248.107C996.2 248.88 993.933 249.653 991.68 250.44C988.64 245.893 986.04 241.093 983.08 236.507C980.867 232.787 976.707 231.147 973.36 228.72C970.027 226.44 968.067 222.747 964.96 220.253C962.253 218.707 959.12 218.213 956.187 217.387C955.107 210.253 954.12 203 951.253 196.32C947.173 186.867 946.493 176.467 943.467 166.693C940.64 157.64 941.76 148.107 941.4 138.787C927 139 912.68 137.213 898.293 137.2C892.2 137.173 886.24 135.973 880.467 134.173Z" fill="#315638"/>
<path d="M168.693 131.653C175.28 127.613 182.48 124.733 189.653 121.947C197.52 125.107 206.08 124.013 214.333 123.947C235.667 123.893 257 123.987 278.333 124.027C299.72 124.187 321.16 123.427 342.493 125.427C336.333 126.853 330.227 128.467 324 129.56C288.333 129.107 252.667 129.573 217 129.307C209.427 129.24 201.867 129.88 194.32 130.32C185.773 130.84 177.173 130.4 168.693 131.653Z" fill="#2B513F"/>
<path d="M499.24 121.453L499.747 121.387C499.947 122.24 500.347 123.96 500.56 124.813C501.72 127.96 502.547 132.16 506.133 133.4C511.76 135.347 517.787 135.507 523.68 135.827C537.907 136.16 552.08 137.853 566.333 137.4C578.52 137.04 591.08 138.787 602.933 135.093C613.387 140.987 625.013 144.387 636.747 146.613C628.88 154.187 617.44 151.493 607.627 152.227C592.56 153.253 577.453 154.04 562.36 153.08C545.2 151.667 527.907 152.133 510.787 150.12C507.387 149.627 504.173 148.387 501 147.147C501.107 138.533 499.387 130.04 499.24 121.453Z" fill="#154627"/>
<path d="M319.587 133.467C331.987 130.88 344.227 127.627 356.56 124.773C366.467 128.693 377.253 127.773 387.667 127.96C401.467 128.133 415.2 126.147 429 126.747C436.56 127.093 444.187 126.667 451.48 124.507C451.693 128.04 451.947 131.573 452.027 135.12C434.36 141.293 415.467 137.413 397.227 139.187C383.853 140.533 370.413 139.947 357 140.08C344.093 140.467 331.213 139.68 318.387 138.253C318.787 136.64 319.187 135.053 319.587 133.467Z" fill="#1F4A33"/>
<path d="M194.32 130.32C201.867 129.88 209.427 129.24 217 129.307C252.667 129.573 288.333 129.107 324 129.56C312.28 132.147 300.773 135.533 289.24 138.853C267.08 143.24 244.44 140.013 222.107 142.2C203.533 143.347 184.907 142.16 166.307 142.72C157.413 142.933 149.613 147.72 142.107 151.987C149.84 143.853 159.4 137.827 168.693 131.653C177.173 130.4 185.773 130.84 194.32 130.32Z" fill="#1F4A33"/>
<path d="M500.56 124.813C523.107 129.56 546.293 126.773 569.093 128.893C585.96 130.4 602.787 127.68 619.667 127.973C629.48 128.08 639.613 128.253 648.787 124.213C647.973 125.773 647.333 127.787 645.44 128.347C631.747 133.36 616.467 129.387 602.933 135.093C591.08 138.787 578.52 137.04 566.333 137.4C552.08 137.853 537.907 136.16 523.68 135.827C517.787 135.507 511.76 135.347 506.133 133.4C502.547 132.16 501.72 127.96 500.56 124.813Z" fill="#224B36"/>
<path d="M897.773 130.92C897.8 130.387 897.867 129.307 897.893 128.76C911.84 129.147 925.8 129.36 939.747 129.427C950.747 130.293 962.733 130.253 972.173 136.8C985.387 145.053 994 158.827 1000.28 172.747C1007.24 188.267 1011.79 204.693 1017.45 220.693C1026.61 247.707 1030.04 276.267 1031.29 304.64C1032.52 343.387 1031.33 382.253 1026.77 420.76C1023.27 446.187 1018.79 471.507 1012.6 496.413C1010.59 483.2 1012.4 469.907 1013.85 456.747C1016.41 435.72 1016.95 414.52 1018.8 393.427C1019.72 383.68 1019.57 373.88 1020.12 364.107C1021.99 341.893 1020.71 319.587 1021.2 297.333C1021.69 284.333 1017.59 271.92 1014.6 259.467C1011.13 244.613 1007.41 229.72 1001.39 215.68C998.173 207.853 996.307 199.36 991.347 192.347C983.187 180.693 975.733 168.547 969.12 155.947C966.347 150.8 963.933 145.347 960.12 140.867C956.173 136.213 949.84 134.96 944.12 134.12C928.72 132.28 912.96 134.733 897.773 130.92Z" fill="#435C3D"/>
<path d="M267.48 150.533C284.4 143.6 301.667 137.253 319.587 133.467C319.187 135.053 318.787 136.64 318.387 138.253C331.213 139.68 344.093 140.467 357 140.08C370.413 139.947 383.853 140.533 397.227 139.187C415.467 137.413 434.36 141.293 452.027 135.12C451.893 138.16 451.827 141.293 450.68 144.173C446.267 147.093 441.08 148.547 436.12 150.253C415.587 156.213 394 153.68 372.987 155.747C358 156.693 342.96 155.36 327.973 156.453C314.52 157.493 301 157.027 287.56 158.347C279 159.173 270.36 158.973 261.827 157.96C263.667 155.44 265.467 152.893 267.48 150.533Z" fill="#134525"/>
<path d="M222.107 142.2C244.44 140.013 267.08 143.24 289.24 138.853C275.507 144.72 261.693 150.427 247.933 156.28C217.307 159.493 186.44 159.053 155.773 161.653C147.293 162.307 137.48 162.107 131.253 168.907C113.973 187.187 102.2 209.88 92.8266 233.027C86.6933 246.547 82.0933 260.773 79.0133 275.293C78.0533 280.2 76.08 284.8 74.1467 289.373C77.3867 266.813 84.5333 245.067 93.0667 224C97.68 214.48 102.293 204.947 107.32 195.627C117.293 179.893 128 164.36 142.107 151.987C149.613 147.72 157.413 142.933 166.307 142.72C184.907 142.16 203.533 143.347 222.107 142.2Z" fill="#134526"/>
<path d="M850.28 141.027C856.013 139.573 860.853 144.027 866.28 145.013C874.653 146.64 883.253 146.52 891.707 147.52C900.96 148.587 910.573 147.973 919.48 151.093C920.507 157.453 916.253 162.88 912.907 167.84C906.36 176.747 901.04 186.467 896.067 196.32C888.373 211.893 881.027 227.707 876.027 244.373C867.653 265.453 862.987 287.707 857.107 309.547C855.52 315.44 854.68 321.533 854.773 327.64C854.16 333.667 853.467 339.707 852.493 345.693C851.787 344.947 850.373 343.467 849.667 342.72C846.92 352.8 845.227 363.133 844.627 373.573C844.093 373.147 843.027 372.32 842.493 371.893C843.48 362.627 844.427 353.32 846.573 344.227C848.36 336.613 849.787 328.92 850.493 321.133C850.72 319.213 851.013 317.307 851.32 315.427C858.613 295.987 861.773 275.333 868.8 255.813C873.8 241.707 877.667 227.173 883.867 213.52C888.453 203.587 891.173 192.907 896.187 183.147C898.813 178.147 900.347 172.693 901.36 167.16C888.133 163.28 874.12 164.933 860.787 161.68C852.92 159.987 844.987 158.373 837.453 155.48C831.24 153.173 824.72 150.64 817.973 151.547C809.253 152.8 800.867 155.773 792.093 156.64C790.867 156.307 788.427 155.653 787.213 155.333C792.107 152.333 797.6 150.427 803.333 149.893C812.533 150.027 821.173 146.8 829.8 144.04C836.76 144.267 843.533 142.547 850.28 141.027Z" fill="#144623"/>
<path d="M803.333 149.893C811.747 147.787 820.12 145.467 828.48 143.133L829.8 144.04C821.173 146.8 812.533 150.027 803.333 149.893Z" fill="#7D8D7E"/>
<path d="M854.773 327.64L855.893 328.893C855.28 334.827 854.987 340.787 854.707 346.747C855.84 343.987 857 341.227 857.987 338.413C857.187 347.373 855.8 356.373 852.027 364.627C851.347 361.8 850.667 358.973 850.173 356.133C851 352.667 851.84 349.2 852.493 345.693C853.467 339.707 854.16 333.667 854.773 327.64Z" fill="#7D8D7E"/>
<path d="M501 147.147C504.173 148.387 507.387 149.627 510.787 150.12C527.907 152.133 545.2 151.667 562.36 153.08C577.453 154.04 592.56 153.253 607.627 152.227C617.44 151.493 628.88 154.187 636.747 146.613C638.373 146.76 640 146.84 641.653 146.933C651.547 147.893 661.267 150.44 670.267 154.68C679.467 159.373 689.787 160.64 699.787 162.613C711.093 164.8 722.68 164.227 734.107 163.64C746.747 162.92 759.213 160.44 771.4 157.067C778.293 157.333 785.227 157.667 792.093 156.64C800.867 155.773 809.253 152.8 817.973 151.547C824.72 150.64 831.24 153.173 837.453 155.48C844.987 158.373 852.92 159.987 860.787 161.68C874.12 164.933 888.133 163.28 901.36 167.16C900.347 172.693 898.813 178.147 896.187 183.147C891.173 192.907 888.453 203.587 883.867 213.52C877.667 227.173 873.8 241.707 868.8 255.813C861.773 275.333 858.613 295.987 851.32 315.427C851.627 302.907 855.733 291 858.653 278.947C862.933 263.08 868.2 247.507 872.933 231.773C874.6 226.627 875.16 221.227 875.547 215.853C864.68 213.04 854.893 207.173 843.867 204.867C831.08 200.56 817.427 201.453 804.347 198.72C797.027 197.267 789.547 197.067 782.187 196.013C774.32 194.88 766.933 191.84 759.36 189.627C749.933 186.827 740 188.173 730.333 188.013C661.947 187.867 593.533 188.227 525.16 187.8C517.56 188.347 509.973 189.28 502.347 189.373C493.08 189.827 483.693 189.253 474.587 191.307C477.413 183.32 482.453 176.467 487.613 169.853C477.56 169.853 467.347 167.613 457.413 169.613C452.147 172.8 449.2 178.547 445.973 183.573C438.32 180.427 429.933 180.987 421.84 180.907C416.013 180.84 410.2 181.467 404.413 182.053C393.987 183.173 383.48 182.387 373.027 182.92C361.413 183.253 349.853 184.427 338.24 184.733C323.2 184.92 308.32 188.347 293.24 187.12C279.627 187.04 266.013 182.773 252.48 185.88C244.16 187.52 235.573 186.88 227.293 188.853C220.64 190.373 213.827 191.107 207 191.213C206.347 190.213 205.693 189.227 205.067 188.24C208.133 184.987 211.08 181.64 214.253 178.507C230.453 166.533 249.307 158.933 267.48 150.533C265.467 152.893 263.667 155.44 261.827 157.96C270.36 158.973 279 159.173 287.56 158.347C301 157.027 314.52 157.493 327.973 156.453C342.96 155.36 358 156.693 372.987 155.747C394 153.68 415.587 156.213 436.12 150.253C441.227 155.88 447.053 161.707 454.8 163.307C462.093 164.64 469.547 163.76 476.893 164.387C484.147 164.693 491.627 166.52 498.773 164.427C501.813 159.227 500.88 152.893 501 147.147Z" fill="#0C4319"/>
<path d="M155.773 161.653C186.44 159.053 217.307 159.493 247.933 156.28C235.64 162.387 223.52 168.907 211.907 176.24C192.853 188.347 176.893 205.213 165.76 224.84C152.747 246.253 144.2 269.987 137.987 294.16C134.867 297.707 132.653 304.84 126.773 303.453C122.213 302.64 117.947 300.787 113.52 299.547C107.907 297.84 102.04 297.08 96.5067 295.093C91.2 293.16 86.6133 289.813 82 286.667C85.24 273.667 86.3333 260.253 89.8266 247.32C91.0533 242.6 91.84 237.787 92.8266 233.027C102.2 209.88 113.973 187.187 131.253 168.907C137.48 162.107 147.293 162.307 155.773 161.653Z" fill="#0D401A"/>
<path d="M445.973 183.573C449.2 178.547 452.147 172.8 457.413 169.613C467.347 167.613 477.56 169.853 487.613 169.853C482.453 176.467 477.413 183.32 474.587 191.307C463.707 194.547 452.347 192.133 441.253 192.027C442.813 189.2 444.36 186.373 445.973 183.573ZM464.72 171.093C467.827 171.493 470.947 171.853 474.093 172.107C474.373 173.12 474.933 175.133 475.227 176.147C475.8 174.707 476.387 173.253 476.987 171.827C472.92 171.187 468.813 170.907 464.72 171.093ZM470.6 173.24C469.253 176.24 466.813 178.36 463.587 179.093C464.773 175.88 467.093 173.6 470.6 173.24ZM461.627 180.107C461.36 182.6 461.227 185.093 461.013 187.613C460.387 188.027 459.107 188.88 458.48 189.293C458.533 187.32 458.6 185.333 458.653 183.373C457.253 185.24 455.72 187.04 454.68 189.16C456.013 192.24 460.373 191.44 462.72 190C464.96 187.013 465.64 183.147 466.853 179.667C465.093 179.787 463.347 179.92 461.627 180.107Z" fill="#DDD120"/>
<path d="M464.72 171.093C468.813 170.907 472.92 171.187 476.987 171.827C476.387 173.253 475.8 174.707 475.227 176.147C474.933 175.133 474.373 173.12 474.093 172.107C470.947 171.853 467.827 171.493 464.72 171.093Z" fill="#32341E"/>
<path d="M246.92 559.747C262.08 561.413 277.347 562.627 292.253 566C302.8 568.387 313.653 569.027 324.187 571.507C329.92 572.84 335.6 574.4 341.4 575.453C361.053 578.68 380.627 582.453 400.227 586.08C423.213 591.747 446.733 594.613 469.933 599.213C496.04 603.2 521.653 609.933 547.88 613.147C557.24 614.773 566.44 617.24 575.92 618.213C586.227 619.293 596.213 622.147 606.4 623.933C627.733 627.987 649.427 629.867 670.68 634.373C689.267 638.493 708.16 641.053 726.827 644.76C730.547 645.267 733.4 647.8 736.107 650.2C722.093 649.053 708.387 645.867 694.533 643.667C607.4 628.587 520.267 613.493 433.147 598.387C416.813 595.88 400.667 592.093 384.213 590.493C371.293 588.507 358.52 585.733 345.613 583.693C321.16 579.16 296.573 575.307 272.067 570.973C263.907 568.467 255.587 566.533 247.453 563.96C247.267 562.547 247.093 561.133 246.92 559.747Z" fill="#32341E"/>
<path d="M190.973 196.6C197.827 189.48 206.08 183.973 214.253 178.507C211.08 181.64 208.133 184.987 205.067 188.24C205.693 189.227 206.347 190.213 207 191.213C213.827 191.107 220.64 190.373 227.293 188.853C235.573 186.88 244.16 187.52 252.48 185.88C266.013 182.773 279.627 187.04 293.24 187.12C308.32 188.347 323.2 184.92 338.24 184.733C349.853 184.427 361.413 183.253 373.027 182.92C383.48 182.387 393.987 183.173 404.413 182.053C410.2 181.467 416.013 180.84 421.84 180.907C429.933 180.987 438.32 180.427 445.973 183.573C444.36 186.373 442.813 189.2 441.253 192.027C452.347 192.133 463.707 194.547 474.587 191.307C483.693 189.253 493.08 189.827 502.347 189.373C509.973 189.28 517.56 188.347 525.16 187.8C593.533 188.227 661.947 187.867 730.333 188.013C740 188.173 749.933 186.827 759.36 189.627C766.933 191.84 774.32 194.88 782.187 196.013C789.547 197.067 797.027 197.267 804.347 198.72C817.427 201.453 831.08 200.56 843.867 204.867C854.893 207.173 864.68 213.04 875.547 215.853C875.16 221.227 874.6 226.627 872.933 231.773C868.2 247.507 862.933 263.08 858.653 278.947C855.733 291 851.627 302.907 851.32 315.427C851.013 317.307 850.72 319.213 850.493 321.133C847.933 325.347 846.467 330.067 844.707 334.653C843.907 337.453 840.587 337.84 838.16 338.253C827.88 339.813 817.36 334.013 807.453 338.733C802.32 337.213 796.96 336.707 791.653 337.32C785.92 338.013 780.293 336.36 774.6 336.547C768.827 337.813 763.507 341.293 757.373 340.733C746.707 340.093 736.027 339.947 725.347 340.333C709.853 340.8 694.56 337.253 679.067 337.92C668.56 338.227 658.187 336.027 647.68 336.04C623.307 335.707 599.173 332.013 575.107 328.507C553.253 323.933 530.88 323.093 508.733 320.653C498.307 319.6 488.56 315.48 478.36 313.387C463.96 309.84 449.093 309.173 434.533 306.56C421.307 305.027 407.973 304.267 394.893 301.587C389.347 300.44 383.787 299.293 378.133 298.827C359.987 297.307 342.427 292.04 324.373 289.893C312.733 288.587 301.16 286.133 289.373 286.613C285.467 286.973 281.987 285.067 278.933 282.84C273.827 279.08 267.467 277.92 261.36 276.813C257.44 279.133 253.013 280.24 248.48 279.613C248.973 277.493 249.467 275.387 249.973 273.293C244.947 273.547 239.96 274.373 235.2 276.027C229.253 275.08 222.933 274.573 217.76 271.227C214.76 269.4 211.88 267.32 208.6 266C191.333 259.773 173.333 255.973 155.68 251.027C164.427 231.187 175.76 212.187 190.973 196.6Z" fill="#094114"/>
<path d="M79.0133 275.293C82.0933 260.773 86.6933 246.547 92.8266 233.027C91.84 237.787 91.0533 242.6 89.8266 247.32C86.3333 260.253 85.24 273.667 82 286.667C86.6133 289.813 91.2 293.16 96.5067 295.093C102.04 297.08 107.907 297.84 113.52 299.547C117.947 300.787 122.213 302.64 126.773 303.453C132.653 304.84 134.867 297.707 137.987 294.16C135.013 310.08 132.16 326.053 130.88 342.213C129.627 348.693 129.387 355.52 126.72 361.64C118.24 363.267 109.533 361.853 101 361.413C92.7867 360.987 84.4533 358.92 76.28 360.56C73.76 360.653 73.6 363.413 73 365.28C72.3333 368.08 71.84 370.933 71.44 373.787C70.8933 373.747 69.8267 373.653 69.28 373.613C68.7067 364.173 69.1867 354.693 68.5867 345.253C67.8133 332.747 70.0133 320.36 71.08 307.947C71.6267 301.693 72.4133 295.427 74.1467 289.373C76.08 284.8 78.0533 280.2 79.0133 275.293Z" fill="#173E1C"/>
<path d="M155.68 251.027C173.333 255.973 191.333 259.773 208.6 266C211.88 267.32 214.76 269.4 217.76 271.227C222.933 274.573 229.253 275.08 235.2 276.027C239.96 274.373 244.947 273.547 249.973 273.293C249.467 275.387 248.973 277.493 248.48 279.613C253.013 280.24 257.44 279.133 261.36 276.813C267.467 277.92 273.827 279.08 278.933 282.84C281.987 285.067 285.467 286.973 289.373 286.613C301.16 286.133 312.733 288.587 324.373 289.893C342.427 292.04 359.987 297.307 378.133 298.827C383.787 299.293 389.347 300.44 394.893 301.587C407.973 304.267 421.307 305.027 434.533 306.56C449.093 309.173 463.96 309.84 478.36 313.387C488.56 315.48 498.307 319.6 508.733 320.653C530.88 323.093 553.253 323.933 575.107 328.507C599.173 332.013 623.307 335.707 647.68 336.04C658.187 336.027 668.56 338.227 679.067 337.92C694.56 337.253 709.853 340.8 725.347 340.333C736.027 339.947 746.707 340.093 757.373 340.733C763.507 341.293 768.827 337.813 774.6 336.547C780.293 336.36 785.92 338.013 791.653 337.32C796.96 336.707 802.32 337.213 807.453 338.733C817.36 334.013 827.88 339.813 838.16 338.253C840.587 337.84 843.907 337.453 844.707 334.653C846.467 330.067 847.933 325.347 850.493 321.133C849.787 328.92 848.36 336.613 846.573 344.227C844.427 353.32 843.48 362.627 842.493 371.893C841.347 381.56 839.84 391.187 839.12 400.893C837.067 415.027 838.827 429.347 836.84 443.493C835.667 445.933 834.347 448.307 833.04 450.693C822.213 449.093 811.28 448.64 800.427 447.373C789.947 446.347 779.56 444.28 769.013 444.04C762.12 443.84 755.253 443.187 748.453 442.093C738.28 440.4 727.907 440.6 717.72 438.987C706.053 437.16 694.227 436.44 682.6 434.373C670.12 432.16 657.467 431.387 644.947 429.507C626.92 427.067 608.853 424.987 590.72 423.507C577.92 421.853 565.16 419.96 552.36 418.413C541.667 416.173 530.76 415.307 520.013 413.387C512.067 412.173 503.88 412.933 496.08 410.747C480.08 406.547 463.413 406.773 447.16 404.267C437.693 402.787 428.053 403.613 418.573 402.147C403.88 400.027 388.96 400.773 374.253 398.827C367.4 397.947 360.653 396.413 353.8 395.64C338.76 394.093 323.627 393.853 308.587 392.44C283.08 388.693 257.307 387.893 231.613 386.56C221.84 386.16 212.253 383.773 202.467 383.533C192.707 383.013 182.827 383.88 173.16 382.067C166.413 380.84 159.787 378.867 152.92 378.56C146.467 378 139.453 379.8 133.587 376.227C132.64 356.867 134.187 337.48 136.8 318.32C140.6 295.293 145.933 272.32 155.68 251.027Z" fill="#143E18"/>
<path d="M1005.68 259.453C1008.65 259.4 1011.61 259.4 1014.6 259.467C1017.59 271.92 1021.69 284.333 1021.2 297.333C1020.71 319.587 1021.99 341.893 1020.12 364.107C1019.57 373.88 1019.72 383.68 1018.8 393.427C1016.95 414.52 1016.41 435.72 1013.85 456.747C1012.4 469.907 1010.59 483.2 1012.6 496.413C1008.56 515.573 1002.69 534.307 996.36 552.813C988.64 573.107 979.987 593.387 966.987 610.933C968.307 599.053 974.64 588.72 978.733 577.72C987.467 556.387 996.6 534.853 999.32 511.76C1003.4 480.653 1006.53 449.427 1008.92 418.16C1012.68 391.373 1011.43 364.28 1011.64 337.333C1011.37 319.947 1012.35 302.52 1010.71 285.187C1010.01 276.467 1009.13 267.587 1005.68 259.453Z" fill="#395332"/>
<path d="M859.893 309.533C862.12 299.173 863.48 288.147 869.693 279.253C869.813 290.48 866.747 301.36 863.413 311.987C864.053 307.573 864.333 303.12 864.68 298.68C863 302.267 861.293 305.827 859.893 309.533Z" fill="#778878"/>
<path d="M952.667 282.573C955.947 280.933 959.693 282.133 962.893 283.36C967.773 285.387 972.56 287.747 976.907 290.787C981.507 293.947 983.973 299.12 986.56 303.893C990.413 311.293 994.853 318.347 999.053 325.56C1000.44 324.013 1001.83 322.48 1003.24 320.973C1006.83 333.227 1006.27 346.093 1007.4 358.693C1008.24 377.56 1007.2 396.48 1007.85 415.36C1007.27 418.133 1006.6 420.893 1005.97 423.68C1005.31 422.547 1004.65 421.44 1004.03 420.333C1004.79 432.893 998.52 444.107 995.333 455.867C995.733 444.347 995.827 432.813 995.6 421.28C994.92 410.627 995.16 399.68 991.72 389.44C990.173 384.667 988.773 379.853 987.08 375.147C984.8 368.653 980.427 363.24 977.307 357.187C974.96 353.013 973.08 348.12 968.733 345.613C965.56 343.787 962.04 342.213 958.333 342.16C954.867 342.76 952.067 345.147 949.067 346.84C939.853 345.147 932.013 350.813 924.2 354.68C914.24 352.08 904.467 357.787 898.173 365.187C893.24 371.467 884.8 371.893 877.773 374.24C871.52 376.36 864.773 376.667 858.653 379.107C853.76 386.773 853.907 396.853 847.587 403.867C845.173 391.907 845.653 379.573 847.253 367.547C847.147 375.427 848.067 383.28 849.2 391.067C851.827 385.68 853.987 380.027 855.12 374.12C858.107 358.013 862.387 342.2 865.973 326.227C868.613 314.8 873.027 302.427 883.587 296.053C891.667 292.347 900.773 295.04 908.8 297.56C915.253 296.573 921.333 294.133 927.493 292.053C932.32 290.427 938.08 292.853 942.4 289.6C945.867 287.333 948.893 284.373 952.667 282.573Z" fill="#275029"/>
<path d="M859.893 309.533C861.293 305.827 863 302.267 864.68 298.68C864.333 303.12 864.053 307.573 863.413 311.987C861.293 320.72 859.667 329.573 857.987 338.413C857 341.227 855.84 343.987 854.707 346.747C854.987 340.787 855.28 334.827 855.893 328.893C857.067 322.413 858.413 315.96 859.893 309.533Z" fill="#FBFDFB"/>
<path d="M949.067 346.84C952.067 345.147 954.867 342.76 958.333 342.16C962.04 342.213 965.56 343.787 968.733 345.613C973.08 348.12 974.96 353.013 977.307 357.187C980.427 363.24 984.8 368.653 987.08 375.147C988.773 379.853 990.173 384.667 991.72 389.44C995.16 399.68 994.92 410.627 995.6 421.28C995.827 432.813 995.733 444.347 995.333 455.867C993.96 465.827 994.493 476.027 991.867 485.813C989.107 495.947 989.573 506.573 987.227 516.8C983.813 532.493 982.96 548.853 976.973 563.893C972.507 575.387 967.8 586.773 963.4 598.28C961.387 603.587 958.453 608.467 955.693 613.427C959.453 602.107 963.413 590.72 965.013 578.867C965.013 570.8 962.333 562.827 963.787 554.707C966.28 542.04 965.56 529.013 967.933 516.333C970.373 502.547 972.387 488.64 972.973 474.64C973.307 465.8 977.147 457.413 976.493 448.507C976.147 442.347 975.56 436.213 974.853 430.093C974.24 426.04 973.693 421.467 970.4 418.627C966.133 414.787 961.093 411.947 956.573 408.427C951.187 404.52 946.133 399.467 939.347 398.2C934.24 397.227 929.173 395.907 924.8 393.013C917.76 397.48 909.48 395.387 901.773 394.707C897.893 400.693 893.333 406.947 886.227 409.227C875.827 413.027 864.72 407.773 854.227 410.467C850.52 413.093 849.16 417.893 846.84 421.653C845.107 417.307 843.547 412.8 843.533 408.08C843.307 396.573 843.8 385.053 844.627 373.573C845.227 363.133 846.92 352.8 849.667 342.72C850.373 343.467 851.787 344.947 852.493 345.693C851.84 349.2 851 352.667 850.173 356.133C849.093 359.907 847.813 363.64 847.253 367.547C845.653 379.573 845.173 391.907 847.587 403.867C853.907 396.853 853.76 386.773 858.653 379.107C864.773 376.667 871.52 376.36 877.773 374.24C884.8 371.893 893.24 371.467 898.173 365.187C904.467 357.787 914.24 352.08 924.2 354.68C932.013 350.813 939.853 345.147 949.067 346.84Z" fill="#234C21"/>
<path d="M126.72 361.64C129.387 355.52 129.627 348.693 130.88 342.213C131.147 349.2 131.387 356.2 130.667 363.173C129.533 373.853 130.613 384.573 131.32 395.24C125.627 398.147 121.307 404.32 114.413 404.267C102.947 404.787 91.4667 404.893 80 404.48C79.5467 411.333 79.44 418.293 81.0533 425.027C80.3733 425.48 79.04 426.373 78.3733 426.827C73.12 409.52 71.2133 391.52 69.28 373.613C69.8267 373.653 70.8933 373.747 71.44 373.787C71.84 370.933 72.3333 368.08 73 365.28C73.6 363.413 73.76 360.653 76.28 360.56C84.4533 358.92 92.7867 360.987 101 361.413C109.533 361.853 118.24 363.267 126.72 361.64Z" fill="#133611"/>
<path d="M842.493 371.893C843.027 372.32 844.093 373.147 844.627 373.573C843.8 385.053 843.307 396.573 843.533 408.08C843.547 412.8 845.107 417.307 846.84 421.653C849.16 417.893 850.52 413.093 854.227 410.467C864.72 407.773 875.827 413.027 886.227 409.227C893.333 406.947 897.893 400.693 901.773 394.707C909.48 395.387 917.76 397.48 924.8 393.013C929.173 395.907 934.24 397.227 939.347 398.2C946.133 399.467 951.187 404.52 956.573 408.427C961.093 411.947 966.133 414.787 970.4 418.627C973.693 421.467 974.24 426.04 974.853 430.093C975.56 436.213 976.147 442.347 976.493 448.507C977.147 457.413 973.307 465.8 972.973 474.64C972.387 488.64 970.373 502.547 967.933 516.333C965.56 529.013 966.28 542.04 963.787 554.707C963.053 558.773 962.04 562.787 961.16 566.827C958.387 563.227 955.533 559.693 952.867 556.04C951.587 562.827 949.907 569.533 947.813 576.12C945.467 573.8 943.133 571.48 940.827 569.147C942.96 560.6 944.653 551.693 943.187 542.88C941.533 533.32 941.4 523.533 938.947 514.12C936.693 505.707 939.307 496.413 935.08 488.48C932.093 482.453 925.107 478.667 924.427 471.533C923.48 467.027 923.88 462.093 921.667 457.96C917.973 453.533 912.547 451.133 907.72 448.227C901.707 451.453 895.44 454.187 888.827 455.92C885.827 453.467 882.773 450.813 878.907 449.947C868.853 447.373 858.053 447.48 848.56 442.947C843.067 440.16 841.733 433.493 840.907 427.973C839.947 418.973 839.827 409.907 839.12 400.893C839.84 391.187 841.347 381.56 842.493 371.893Z" fill="#1E491A"/>
<path d="M133.587 376.227C139.453 379.8 146.467 378 152.92 378.56C159.787 378.867 166.413 380.84 173.16 382.067C182.827 383.88 192.707 383.013 202.467 383.533C212.253 383.773 221.84 386.16 231.613 386.56C257.307 387.893 283.08 388.693 308.587 392.44C323.627 393.853 338.76 394.093 353.8 395.64C360.653 396.413 367.4 397.947 374.253 398.827C388.96 400.773 403.88 400.027 418.573 402.147C428.053 403.613 437.693 402.787 447.16 404.267C463.413 406.773 480.08 406.547 496.08 410.747C503.88 412.933 512.067 412.173 520.013 413.387C530.76 415.307 541.667 416.173 552.36 418.413C565.16 419.96 577.92 421.853 590.72 423.507C608.853 424.987 626.92 427.067 644.947 429.507C657.467 431.387 670.12 432.16 682.6 434.373C694.227 436.44 706.053 437.16 717.72 438.987C727.907 440.6 738.28 440.4 748.453 442.093C755.253 443.187 762.12 443.84 769.013 444.04C779.56 444.28 789.947 446.347 800.427 447.373C811.28 448.64 822.213 449.093 833.04 450.693C833.613 459.44 834.84 468.147 835.173 476.92C835.573 489.08 838.013 501.067 838.667 513.213C840.147 533.533 844.84 553.387 847.747 573.493C849.627 585.267 853.987 596.413 856.933 607.92C860.613 622.827 866.84 636.92 872.733 651.053C865.333 645.413 859.653 637.96 855.227 629.84C853.587 626.587 851.933 623.373 850.293 620.147C848.64 613.853 847.267 607.467 844.787 601.44C841.96 594.533 839.24 587.493 838.333 580.04C835.187 558.147 834.347 535.44 825.453 514.867C823.827 515.973 822.2 517.107 820.587 518.227C813.427 515.08 806.08 512.36 798.467 510.547C799.227 512.253 799.987 513.987 800.76 515.72C800.307 515.613 799.4 515.373 798.96 515.267C795.293 512.64 791.373 510.427 787.32 508.493C787.16 510.56 787.013 512.667 786.893 514.773C784.547 512.467 782.56 508.72 778.787 509.027C770.693 509.16 762.907 506.333 754.813 506.533C739.747 506.107 724.84 503.6 710 501.133C704.08 500.547 698.2 499.467 692.56 497.547C688.547 497.267 684.573 496.693 680.64 495.96C676.92 495.507 673.2 495.147 669.467 494.853C664.56 495.027 660.28 492.493 656.2 490.08C655.2 490.84 654.227 491.627 653.24 492.413C646.453 488.027 638.347 486.973 630.533 485.76C621.973 484.133 612.667 487.427 604.813 482.427C603.187 482.68 601.56 482.96 599.947 483.253C598.08 482.56 596.227 481.867 594.373 481.213C586.467 481.653 579.093 478.413 571.373 477.4C547.12 473.413 522.76 470.173 498.48 466.373C488.867 464.72 479.04 467.16 469.493 464.947C458.093 462.227 446.28 462.453 434.8 460.253C424.013 458.693 413.213 457.227 402.627 454.56C392.2 451.907 381.307 453.693 370.84 451.387C363.973 449.973 357.067 448.72 350.093 447.88C339.587 446.413 328.92 446.84 318.427 445.187C307.533 443.507 296.467 445.96 285.6 443.893C272.693 441.52 259.573 440.693 246.68 438.227C237.427 436.293 228.96 441.693 219.893 442.187C204.933 443.187 190.48 437.627 175.547 438.267C164.413 438.653 153.8 434.827 142.907 433.173C140.747 425.48 138.347 417.867 136.067 410.213C134.68 398.933 134.507 387.547 133.587 376.227Z" fill="#0F350B"/>
<path d="M114.413 404.267C121.307 404.32 125.627 398.147 131.32 395.24C132.173 403.76 133.413 412.28 133.333 420.867C132.627 425.853 131.173 430.773 131.267 435.853C131.48 441.133 133.867 446.053 134.093 451.333C127.453 457.093 118.413 454.72 110.52 455.8C105.28 458.16 101.707 463.04 97.3866 466.693C90.76 453.307 83.9333 439.827 81.0533 425.027C79.44 418.293 79.5467 411.333 80 404.48C91.4667 404.893 102.947 404.787 114.413 404.267Z" fill="#122E0A"/>
<path d="M836.84 443.493C838.827 429.347 837.067 415.027 839.12 400.893C839.827 409.907 839.947 418.973 840.907 427.973C841.733 433.493 843.067 440.16 848.56 442.947C858.053 447.48 868.853 447.373 878.907 449.947C882.773 450.813 885.827 453.467 888.827 455.92C895.44 454.187 901.707 451.453 907.72 448.227C912.547 451.133 917.973 453.533 921.667 457.96C923.88 462.093 923.48 467.027 924.427 471.533C925.107 478.667 932.093 482.453 935.08 488.48C939.307 496.413 936.693 505.707 938.947 514.12C941.4 523.533 941.533 533.32 943.187 542.88C944.653 551.693 942.96 560.6 940.827 569.147C937.133 584.973 928.707 599.04 923.227 614.24C921.613 619.133 918.547 623.48 913.88 625.853C910.933 631.947 908.373 638.587 902.92 642.96C897.427 647.36 892.187 652.08 886.587 656.333C884.12 658.52 880.72 657.72 877.893 656.92C878.68 653.333 879.307 649.653 881.013 646.36C884.067 641.947 889.52 639.507 891.627 634.373C893.973 628.84 897.187 623.76 899.733 618.347C901.16 615.667 900.2 612.653 899.747 609.88C902.093 605.013 904.147 599.853 903.6 594.36C902.747 582.88 909.453 572.693 909.867 561.373C910.067 555.44 909.387 549.44 907.813 543.72C905.973 537.067 900.08 532.92 895.907 527.8C891.373 522.68 888.787 516.253 884.733 510.813C882.493 507.773 878.56 507 875.347 505.453C870.267 503.493 866.747 499.053 861.933 496.653C858 494.44 853.173 493.08 850.667 489.04C846.64 483.013 845.68 475.667 844.027 468.773C842.147 460.2 838.52 452.107 836.84 443.493Z" fill="#1A4614"/>
<path d="M136.067 410.213C138.347 417.867 140.747 425.48 142.907 433.173C153.8 434.827 164.413 438.653 175.547 438.267C190.48 437.627 204.933 443.187 219.893 442.187C228.96 441.693 237.427 436.293 246.68 438.227C259.573 440.693 272.693 441.52 285.6 443.893C296.467 445.96 307.533 443.507 318.427 445.187C328.92 446.84 339.587 446.413 350.093 447.88C357.067 448.72 363.973 449.973 370.84 451.387C381.307 453.693 392.2 451.907 402.627 454.56C413.213 457.227 424.013 458.693 434.8 460.253C446.28 462.453 458.093 462.227 469.493 464.947C479.04 467.16 488.867 464.72 498.48 466.373C522.76 470.173 547.12 473.413 571.373 477.4C579.093 478.413 586.467 481.653 594.373 481.213C596.227 481.867 598.08 482.56 599.947 483.253C601.56 482.96 603.187 482.68 604.813 482.427C612.667 487.427 621.973 484.133 630.533 485.76C638.347 486.973 646.453 488.027 653.24 492.413C654.227 491.627 655.2 490.84 656.2 490.08C660.28 492.493 664.56 495.027 669.467 494.853C673.2 495.147 676.92 495.507 680.64 495.96C684.573 496.693 688.547 497.267 692.56 497.547C698.2 499.467 704.08 500.547 710 501.133C724.84 503.6 739.747 506.107 754.813 506.533C762.907 506.333 770.693 509.16 778.787 509.027C782.56 508.72 784.547 512.467 786.893 514.773C787.013 512.667 787.16 510.56 787.32 508.493C791.373 510.427 795.293 512.64 798.96 515.267C799.4 515.373 800.307 515.613 800.76 515.72C799.987 513.987 799.227 512.253 798.467 510.547C806.08 512.36 813.427 515.08 820.587 518.227C822.2 517.107 823.827 515.973 825.453 514.867C834.347 535.44 835.187 558.147 838.333 580.04C839.24 587.493 841.96 594.533 844.787 601.44C847.267 607.467 848.64 613.853 850.293 620.147C846.627 615.067 843.613 609.24 838.627 605.307C827.813 599.427 815.867 594.88 803.333 595.893C803.12 599.72 802.853 603.56 802.48 607.387C798.667 599.587 796.027 591.293 792.507 583.373C778.4 581.893 764.507 578.987 750.44 577.16C740.387 575.84 730.573 573.2 720.48 572.107C720.08 574.96 719.707 577.84 719.347 580.733C704.093 578.707 688.84 576.64 673.76 573.613C653.04 569.267 632.187 565.6 611.413 561.547C598.813 559.28 586.293 556.507 573.573 555.013C550.213 551.12 527.347 544.773 504 540.893C479.667 535.84 455.173 531.693 430.627 527.853C419.613 524.933 408.213 523.973 397.16 521.187C389.693 519.467 381.92 519.4 374.56 517.16C357.427 512.32 339.547 510.627 322.627 504.987C312.067 501.56 300.973 500.347 290.307 497.347C282.253 495.067 273.733 495.133 265.747 492.573C250.813 487.787 235.667 483.64 220.293 480.6C212.04 478.947 204.427 475.24 196.347 472.987C182.52 469.173 169.04 464.027 154.893 461.387C151.28 460.533 146.573 460 145.293 455.827C141.067 445.307 140.667 433.733 137.547 422.88C136.8 418.68 136.48 414.44 136.067 410.213Z" fill="#0D2D06"/>
<path d="M1005.97 423.68C1006.6 420.893 1007.27 418.133 1007.85 415.36C1008.12 416.053 1008.65 417.453 1008.92 418.16C1006.53 449.427 1003.4 480.653 999.32 511.76C996.6 534.853 987.467 556.387 978.733 577.72C974.64 588.72 968.307 599.053 966.987 610.933C958.667 625.107 950.027 639.2 939.72 652.013C938.12 654.08 937.28 656.6 936.787 659.147C930.453 661.947 924.493 665.533 918.08 668.147C923.907 658.547 932.027 650.68 938.707 641.707C945.747 633.173 951.64 623.733 955.693 613.427C958.453 608.467 961.387 603.587 963.4 598.28C967.8 586.773 972.507 575.387 976.973 563.893C982.96 548.853 983.813 532.493 987.227 516.8C989.573 506.573 989.107 495.947 991.867 485.813C994.493 476.027 993.96 465.827 995.333 455.867C998.52 444.107 1004.79 432.893 1004.03 420.333C1004.65 421.44 1005.31 422.547 1005.97 423.68Z" fill="#2F4926"/>
<path d="M131.267 435.853C131.173 430.773 132.627 425.853 133.333 420.867C133.64 421.2 134.267 421.84 134.573 422.16C135.32 422.347 136.8 422.707 137.547 422.88C140.667 433.733 141.067 445.307 145.293 455.827C146.573 460 151.28 460.533 154.893 461.387C169.04 464.027 182.52 469.173 196.347 472.987C204.427 475.24 212.04 478.947 220.293 480.6C235.667 483.64 250.813 487.787 265.747 492.573C273.733 495.133 282.253 495.067 290.307 497.347C300.973 500.347 312.067 501.56 322.627 504.987C339.547 510.627 357.427 512.32 374.56 517.16C381.92 519.4 389.693 519.467 397.16 521.187C408.213 523.973 419.613 524.933 430.627 527.853C455.173 531.693 479.667 535.84 504 540.893C527.347 544.773 550.213 551.12 573.573 555.013C586.293 556.507 598.813 559.28 611.413 561.547C632.187 565.6 653.04 569.267 673.76 573.613C688.84 576.64 704.093 578.707 719.347 580.733C719.707 577.84 720.08 574.96 720.48 572.107C730.573 573.2 740.387 575.84 750.44 577.16C764.507 578.987 778.4 581.893 792.507 583.373C796.027 591.293 798.667 599.587 802.48 607.387C802.853 603.56 803.12 599.72 803.333 595.893C815.867 594.88 827.813 599.427 838.627 605.307C843.613 609.24 846.627 615.067 850.293 620.147C851.933 623.373 853.587 626.587 855.227 629.84C855.573 636.333 855.253 642.867 855.24 649.387C846.947 651.08 838.6 649.28 830.28 649.333C826.4 648.88 824.933 652.827 823.2 655.467C813.64 652.333 809.64 642.587 804.907 634.64C803.093 630.347 801.227 626.067 799.6 621.72C799.053 620.227 798.56 618.747 798.067 617.293C786.72 615.013 775.187 613.933 763.84 611.733C755.787 610.173 747.68 608.88 739.547 607.92C737.28 619.933 739.04 632.173 737.64 644.267C728.16 637.88 716.92 635.413 706.2 632C696.107 628.88 685.333 629.027 675.293 625.72C659.173 620.24 642.04 619.8 625.4 616.893C613.813 615.76 603.027 610.987 591.56 609.267C580.04 607.12 568.293 606.427 556.76 604.36C544.413 602.213 532.067 600 519.587 598.773C508.64 597.8 498.32 593.653 487.44 592.2C474.12 590.293 461 587.173 447.667 585.28C437.293 583.8 427.067 581.507 417.013 578.573C405.907 575.253 394.227 574.627 383.16 571.16C374.173 568.4 364.68 567.96 355.667 565.347C351.133 564.067 346.667 562.573 342.093 561.453C331.6 558.773 320.693 558.453 310.093 556.333C299.827 554.293 289.547 552.2 279.093 551.24C261.147 549.8 243.627 543.28 225.44 545.653C229.52 554.853 238.933 559.64 247.453 563.96C255.587 566.533 263.907 568.467 272.067 570.973C263.24 571.907 254.213 572.547 245.533 570.173C233.48 566.92 220.76 566.053 209.213 561.053C203.467 558.507 198.253 554.96 192.853 551.787C191.853 541.4 191.68 530.973 191.173 520.56C179.813 518.12 168.36 516.147 156.827 514.707C157.76 526.84 161.587 538.44 163.947 550.32C167.147 565.84 170.493 581.333 173.48 596.893C176.88 612.947 181.333 628.827 183 645.213C183.773 653.093 184.813 660.96 186.12 668.787C183.92 668.28 181.747 667.733 179.56 667.24C181.453 650.253 173.96 634.2 172.947 617.427C172.32 607.013 169.04 597.04 167.44 586.787C164.227 566.747 158.987 547.12 155.213 527.2C154.32 521.827 152.293 516.72 148.973 512.4C147.733 521.12 149.16 529.867 149.44 538.613C140.427 531.587 131.067 524.773 123.853 515.813C117.88 508.427 111.36 501.427 106.533 493.213C100.16 482.373 93.4667 471.627 89.2533 459.707C84.7733 449.04 80.9067 438.12 78.3733 426.827C79.04 426.373 80.3733 425.48 81.0533 425.027C83.9333 439.827 90.76 453.307 97.3866 466.693C101.707 463.04 105.28 458.16 110.52 455.8C118.413 454.72 127.453 457.093 134.093 451.333C133.867 446.053 131.48 441.133 131.267 435.853Z" fill="#16250B"/>
<path d="M833.04 450.693C834.347 448.307 835.667 445.933 836.84 443.493C838.52 452.107 842.147 460.2 844.027 468.773C845.68 475.667 846.64 483.013 850.667 489.04C853.173 493.08 858 494.44 861.933 496.653C866.747 499.053 870.267 503.493 875.347 505.453C878.56 507 882.493 507.773 884.733 510.813C888.787 516.253 891.373 522.68 895.907 527.8C900.08 532.92 905.973 537.067 907.813 543.72C909.387 549.44 910.067 555.44 909.867 561.373C909.453 572.693 902.747 582.88 903.6 594.36C904.147 599.853 902.093 605.013 899.747 609.88C900.2 612.653 901.16 615.667 899.733 618.347C897.187 623.76 893.973 628.84 891.627 634.373C889.52 639.507 884.067 641.947 881.013 646.36C879.307 649.653 878.68 653.333 877.893 656.92L877.013 656.307C875.56 654.547 874.133 652.8 872.733 651.053C866.84 636.92 860.613 622.827 856.933 607.92C853.987 596.413 849.627 585.267 847.747 573.493C844.84 553.387 840.147 533.533 838.667 513.213C838.013 501.067 835.573 489.08 835.173 476.92C834.84 468.147 833.613 459.44 833.04 450.693Z" fill="#14420C"/>
<path d="M77.0133 465.2C80.6 462.427 85.0133 461.107 89.2533 459.707C93.4667 471.627 100.16 482.373 106.533 493.213C111.36 501.427 117.88 508.427 123.853 515.813C131.067 524.773 140.427 531.587 149.44 538.613C151.213 573.733 153.52 608.827 155.533 643.933C155.747 649.04 155.507 654.173 155.56 659.293C141.667 649.053 131.96 634.507 118.907 623.373C114.187 619.133 111.027 613.533 106.587 609.04C103.32 605.72 98.48 605.067 94.1333 604.147C81.8933 602.067 70.16 597.907 58.16 594.84C41.84 590.573 26.1733 582.84 13.8933 571.12C8.10664 565.467 2.31998 558.96 0.866649 550.72C-1.12002 539.133 1.33332 526.453 8.91998 517.267C22.2133 500.733 41.3866 490.427 60.64 482.387C67.52 479.453 74.9867 478.187 81.84 475.187C81.8267 471.347 78.56 468.507 77.0133 465.2Z" fill="black"/>
<path d="M384.213 590.493C400.667 592.093 416.813 595.88 433.147 598.387C520.267 613.493 607.4 628.587 694.533 643.667C708.387 645.867 722.093 649.053 736.107 650.2L736.893 650.827C734.867 666.667 735.72 682.707 734.973 698.64C734.133 720.88 733.267 743.12 733.053 765.373C733.027 771.12 732.293 776.84 731.12 782.467C718.96 778.013 708.76 770.067 698.24 762.787C676.387 749.12 654.76 735.107 632.92 721.413C623.307 715.36 614.627 707.4 603.533 704.107C593.573 701.08 583.253 699.453 573.12 697.133C554.347 692.707 535.173 690.4 516.44 685.853C497.2 682.96 478.36 677.933 459.133 674.96C447.667 672.947 436.44 669.827 424.92 668.093C409.587 665.76 394.6 661.573 379.293 659.067C366.133 656.947 353.24 653.44 340.053 651.467C329.613 649.853 319.413 647.08 309 645.293C297.987 643.28 286.573 642.147 276.36 637.213C312.267 621.56 348.427 606.453 384.213 590.493Z" fill="black"/>
<path d="M148.973 512.4C152.293 516.72 154.32 521.827 155.213 527.2C158.987 547.12 164.227 566.747 167.44 586.787C169.04 597.04 172.32 607.013 172.947 617.427C173.96 634.2 181.453 650.253 179.56 667.24C171.88 665.653 164.213 664.093 156.573 662.293C156.32 661.547 155.813 660.04 155.56 659.293C155.507 654.173 155.747 649.04 155.533 643.933C153.52 608.827 151.213 573.733 149.44 538.613C149.16 529.867 147.733 521.12 148.973 512.4Z" fill="#10310B"/>
<path d="M156.827 514.707C168.36 516.147 179.813 518.12 191.173 520.56C191.68 530.973 191.853 541.4 192.853 551.787C193.467 558.56 193.92 565.64 197.333 571.707C203.347 582.627 212.533 591.32 219.147 601.853C225.467 611.733 231.267 622.067 239.347 630.693C228.253 633.333 218.28 639.027 207.467 642.48C204.08 644 198.987 645.013 198.427 649.427C197.2 656.24 198.96 663.107 200.787 669.653C195.907 670.827 190.907 669.907 186.12 668.787C184.813 660.96 183.773 653.093 183 645.213C181.333 628.827 176.88 612.947 173.48 596.893C170.493 581.333 167.147 565.84 163.947 550.32C161.587 538.44 157.76 526.84 156.827 514.707Z" fill="#10350B"/>
<path d="M225.44 545.653C243.627 543.28 261.147 549.8 279.093 551.24C289.547 552.2 299.827 554.293 310.093 556.333C320.693 558.453 331.6 558.773 342.093 561.453C346.667 562.573 351.133 564.067 355.667 565.347C364.68 567.96 374.173 568.4 383.16 571.16C394.227 574.627 405.907 575.253 417.013 578.573C427.067 581.507 437.293 583.8 447.667 585.28C461 587.173 474.12 590.293 487.44 592.2C498.32 593.653 508.64 597.8 519.587 598.773C532.067 600 544.413 602.213 556.76 604.36C568.293 606.427 580.04 607.12 591.56 609.267C603.027 610.987 613.813 615.76 625.4 616.893C642.04 619.8 659.173 620.24 675.293 625.72C685.333 629.027 696.107 628.88 706.2 632C716.92 635.413 728.16 637.88 737.64 644.267C737.387 646.44 737.147 648.627 736.893 650.827L736.107 650.2C733.4 647.8 730.547 645.267 726.827 644.76C708.16 641.053 689.267 638.493 670.68 634.373C649.427 629.867 627.733 627.987 606.4 623.933C596.213 622.147 586.227 619.293 575.92 618.213C566.44 617.24 557.24 614.773 547.88 613.147C521.653 609.933 496.04 603.2 469.933 599.213C446.733 594.613 423.213 591.747 400.227 586.08C380.627 582.453 361.053 578.68 341.4 575.453C335.6 574.4 329.92 572.84 324.187 571.507C313.653 569.027 302.8 568.387 292.253 566C277.347 562.627 262.08 561.413 246.92 559.747C247.093 561.133 247.267 562.547 247.453 563.96C238.933 559.64 229.52 554.853 225.44 545.653Z" fill="#222812"/>
<path d="M192.853 551.787C198.253 554.96 203.467 558.507 209.213 561.053C220.76 566.053 233.48 566.92 245.533 570.173C254.213 572.547 263.24 571.907 272.067 570.973C296.573 575.307 321.16 579.16 345.613 583.693C340.653 586.293 335.587 588.68 330.36 590.693C318 595.413 306.04 601.08 293.813 606.12C280.627 611.587 267.947 618.293 254.307 622.64C249.493 624.107 245.427 627.12 241.44 630.093C240.92 630.24 239.867 630.533 239.347 630.693C231.267 622.067 225.467 611.733 219.147 601.853C212.533 591.32 203.347 582.627 197.333 571.707C193.92 565.64 193.467 558.56 192.853 551.787Z" fill="#0F200A"/>
<path d="M961.16 566.827C962.04 562.787 963.053 558.773 963.787 554.707C962.333 562.827 965.013 570.8 965.013 578.867C963.413 590.72 959.453 602.107 955.693 613.427C951.64 623.733 945.747 633.173 938.707 641.707C932.027 650.68 923.907 658.547 918.08 668.147C924.493 665.533 930.453 661.947 936.787 659.147C936.467 662.267 936.547 665.467 935.787 668.547C933.84 671.987 930.293 674.107 927.467 676.747C928.227 673.4 929.067 670.093 929.947 666.787C919.133 672.72 907.787 679.413 894.96 678.493C888.467 677.973 882.307 675.787 876.48 673.04C879.52 672.373 882.56 671.693 885.627 671.053C883.253 665.853 880.56 660.8 877.013 656.307L877.893 656.92C880.72 657.72 884.12 658.52 886.587 656.333C892.187 652.08 897.427 647.36 902.92 642.96C908.373 638.587 910.933 631.947 913.88 625.853C918.547 623.48 921.613 619.133 923.227 614.24C928.707 599.04 937.133 584.973 940.827 569.147C943.133 571.48 945.467 573.8 947.813 576.12C949.907 569.533 951.587 562.827 952.867 556.04C955.533 559.693 958.387 563.227 961.16 566.827Z" fill="#21411A"/>
<path d="M330.36 590.693C335.587 588.68 340.653 586.293 345.613 583.693C358.52 585.733 371.293 588.507 384.213 590.493C348.427 606.453 312.267 621.56 276.36 637.213C275.467 637.56 274.587 637.92 273.707 638.307C263.48 633.693 252.04 633.453 241.44 630.093C245.427 627.12 249.493 624.107 254.307 622.64C267.947 618.293 280.627 611.587 293.813 606.12C306.04 601.08 318 595.413 330.36 590.693Z" fill="#0F1B15"/>
<path d="M739.547 607.92C747.68 608.88 755.787 610.173 763.84 611.733C775.187 613.933 786.72 615.013 798.067 617.293C798.56 618.747 799.053 620.227 799.6 621.72C796.293 630.12 796.573 639.24 796.04 648.107C795.333 659.36 796.053 670.653 794.947 681.893C793.76 694.387 794.88 706.947 793.693 719.427C792.507 731.787 793.427 744.213 792.293 756.573C791.12 769.787 791.707 783.04 791.88 796.28L791.787 797.333H789.64C773.613 793.2 757.36 790.093 741.16 786.773C737.52 786.093 734.213 784.413 731.12 782.467C732.293 776.84 733.027 771.12 733.053 765.373C733.267 743.12 734.133 720.88 734.973 698.64C735.72 682.707 734.867 666.667 736.893 650.827C737.147 648.627 737.387 646.44 737.64 644.267C739.04 632.173 737.28 619.933 739.547 607.92ZM759.547 745.187C759.853 746.76 760.173 748.347 760.48 749.947C761.893 750.213 763.333 750.467 764.787 750.733C764.867 749.707 765.04 747.653 765.12 746.627C763 746.84 761.587 744.227 759.547 745.187Z" fill="#0E340A"/>
<path d="M796.04 648.107C796.573 639.24 796.293 630.12 799.6 621.72C801.227 626.067 803.093 630.347 804.907 634.64C809.427 648 813.987 661.72 822.44 673.2C826.907 679.373 829.347 687.453 836.333 691.44C845.28 696.76 855.96 702.76 866.64 699.04C878.32 695.84 886.347 686.307 894.96 678.493C907.787 679.413 919.133 672.72 929.947 666.787C929.067 670.093 928.227 673.4 927.467 676.747C899.92 701.36 872.16 725.72 844.533 750.213C826.947 765.533 809.853 781.427 791.88 796.28C791.707 783.04 791.12 769.787 792.293 756.573C793.427 744.213 792.507 731.787 793.693 719.427C794.88 706.947 793.76 694.387 794.947 681.893C796.053 670.653 795.333 659.36 796.04 648.107Z" fill="#1A4313"/>
<path d="M207.467 642.48C218.28 639.027 228.253 633.333 239.347 630.693C239.867 630.533 240.92 630.24 241.44 630.093C252.04 633.453 263.48 633.693 273.707 638.307C249.36 648.667 225.013 659.04 200.787 669.653C198.96 663.107 197.2 656.24 198.427 649.427C198.987 645.013 204.08 644 207.467 642.48Z" fill="#103816"/>
<path d="M855.227 629.84C859.653 637.96 865.333 645.413 872.733 651.053C874.133 652.8 875.56 654.547 877.013 656.307C880.56 660.8 883.253 665.853 885.627 671.053C882.56 671.693 879.52 672.373 876.48 673.04C882.307 675.787 888.467 677.973 894.96 678.493C886.347 686.307 878.32 695.84 866.64 699.04C855.96 702.76 845.28 696.76 836.333 691.44C829.347 687.453 826.907 679.373 822.44 673.2C813.987 661.72 809.427 648 804.907 634.64C809.64 642.587 813.64 652.333 823.2 655.467C824.933 652.827 826.4 648.88 830.28 649.333C838.6 649.28 846.947 651.08 855.24 649.387C855.253 642.867 855.573 636.333 855.227 629.84Z" fill="#1A2813"/>
<path d="M759.547 745.187C761.587 744.227 763 746.84 765.12 746.627C765.04 747.653 764.867 749.707 764.787 750.733C763.333 750.467 761.893 750.213 760.48 749.947C760.173 748.347 759.853 746.76 759.547 745.187Z" fill="#040703"/>
</svg>
