<svg width="24" height="13" viewBox="0 0 24 13" fill="none" xmlns="http://www.w3.org/2000/svg">
<path d="M14.1434 0.231038C14.4486 0.149777 14.7502 -0.0287065 15.0641 0.00394283C15.1923 0.0968121 15.3785 0.207093 15.3805 0.445071L15.3462 0.413147C15.1851 0.25643 15.0076 0.122206 14.8066 0.12656C14.9122 0.338418 15.0476 0.514723 15.1928 0.67144C15.0656 0.63226 14.9456 0.559708 14.8225 0.503116C14.8394 0.482075 14.8738 0.439993 14.8907 0.418953C14.7691 0.325358 14.6358 0.273118 14.4978 0.270942C14.5645 0.339868 14.6322 0.408068 14.7019 0.471916L14.6989 0.514725C14.6983 0.522706 14.6973 0.537941 14.6973 0.545922C14.7019 0.642419 14.6619 0.779547 14.7404 0.833962C15.1148 1.18512 15.5185 1.46954 15.897 1.81272C15.9212 1.71767 15.9453 1.62262 15.9704 1.52903C16.1166 1.70679 16.114 2.06593 16.3197 2.14864C16.3987 2.14502 16.4731 2.10293 16.549 2.07391C16.9444 2.39823 17.324 2.76027 17.7205 3.08169C17.9918 3.31023 18.2673 3.53153 18.5268 3.78837C18.5309 3.79054 18.5386 3.79562 18.5422 3.7978C18.8176 3.99587 19.1228 4.15259 19.3316 4.48996C19.4198 4.62999 19.5244 4.75406 19.6527 4.81428C19.6583 4.81501 19.6701 4.81646 19.6763 4.81718C19.7486 4.80703 19.7789 4.69892 19.824 4.63435C19.7173 4.50085 19.6034 4.37751 19.4773 4.28246C18.6017 3.58812 17.7338 2.87491 16.8608 2.17549C16.7203 2.05795 16.6259 1.86496 16.5326 1.68139C16.5515 1.61029 16.5705 1.53919 16.5895 1.46881C16.5428 1.41947 16.4967 1.37014 16.45 1.32298C16.5772 1.2526 16.4187 1.07557 16.3859 1.2555C16.1561 1.06033 15.9165 0.861532 15.6432 0.828157C15.6801 0.788978 15.7175 0.750524 15.755 0.712796C15.9047 0.73819 16.052 0.693206 16.1992 0.662733C16.3551 0.71207 16.4684 0.897083 16.6213 0.963833C16.7608 1.0255 16.8762 1.15755 16.9865 1.29033C17.0573 1.34111 16.9921 1.43544 16.9839 1.50726C16.909 1.48332 16.8336 1.46155 16.7582 1.44269C16.7649 1.47171 16.7783 1.53121 16.7849 1.56095C17.3425 2.00136 17.8851 2.47949 18.4417 2.92497C18.8017 3.20721 19.1413 3.54241 19.5116 3.79925C19.7081 3.89865 19.9091 3.98934 20.0882 4.14606C20.0733 4.22079 20.0579 4.29552 20.0415 4.37025C19.905 4.35864 19.8455 4.5364 19.8661 4.70618C19.8661 4.73955 19.8671 4.80703 19.8676 4.8404C20.0974 5.11466 20.4328 5.16617 20.6267 5.49992C20.6462 5.5391 20.6652 5.57973 20.6837 5.62181C20.7232 5.82859 20.7585 6.03754 20.8129 6.23852C20.8565 6.45546 21.0104 6.55993 21.1032 6.72826C21.0309 6.7152 20.9596 6.70287 20.8883 6.68836C20.8863 6.72608 20.8832 6.80154 20.8816 6.83927C20.8432 6.79428 20.8057 6.75003 20.7683 6.70577C20.7616 6.45546 20.5862 6.35388 20.4641 6.22473C20.32 6.09341 20.1923 5.93162 20.0625 5.77562C19.9399 5.62471 19.7619 5.64866 19.6275 5.52967C18.7192 4.68078 17.7969 3.86092 16.8855 3.01857C16.7752 2.87273 16.6618 2.73125 16.509 2.69062C15.9253 2.18927 15.3657 1.6277 14.7666 1.16046C14.5091 0.960932 14.2239 0.855728 13.9464 0.728758C13.8782 0.703364 13.8259 0.635164 13.7756 0.571317C13.9397 0.560434 14.0946 0.642419 14.2418 0.736014C14.2136 0.65693 14.1854 0.577845 14.1598 0.49731C14.2731 0.593082 14.2398 0.334788 14.1449 0.435639L14.1075 0.418953C14.129 0.359458 14.1413 0.297062 14.1434 0.231038ZM14.4219 0.305042C14.4475 0.342045 14.4475 0.342045 14.4219 0.305042ZM14.4306 0.439992C14.4409 0.538665 14.4768 0.555353 14.5378 0.490054C14.527 0.390655 14.4916 0.373967 14.4306 0.439992ZM16.3746 0.949323C16.3546 1.05017 16.3807 1.08645 16.4525 1.05815C16.4715 0.957304 16.4459 0.921027 16.3746 0.949323ZM16.5228 1.10459C16.549 1.14087 16.549 1.14087 16.5228 1.10459ZM16.6254 1.17642C16.6516 1.21342 16.6516 1.21342 16.6254 1.17642ZM16.8316 1.30846C16.9844 1.19528 16.8403 1.54934 16.8316 1.30846ZM19.0859 4.29407C19.1121 4.33107 19.1121 4.33107 19.0859 4.29407ZM19.2398 4.43918C19.2654 4.47618 19.2654 4.47618 19.2398 4.43918ZM19.804 4.94706C19.8301 4.98406 19.8301 4.98406 19.804 4.94706ZM20.2174 5.31128C20.2436 5.34828 20.2436 5.34828 20.2174 5.31128Z" fill="#0F0E0E"/>
<path d="M8.93872 0.818726C9.17518 0.691756 9.43472 0.710622 9.68195 0.741095C10.1733 0.816551 10.6683 0.878221 11.1489 1.05235C11.1289 1.07702 11.0894 1.12563 11.0699 1.1503C10.9545 1.11983 10.8386 1.09298 10.7227 1.07484C10.717 1.19891 10.7119 1.32298 10.7073 1.44777C10.6062 1.51452 10.5067 1.58417 10.4082 1.65745C10.4108 1.42238 10.4047 1.18803 10.3903 0.955128C10.2682 0.939166 10.1451 0.939892 10.0236 0.957305C10.0077 1.14087 9.98663 1.32443 9.94918 1.50219C9.70401 1.50944 9.63989 1.91502 9.63476 2.19435C9.55423 2.24151 9.4737 2.29158 9.39625 2.34962C9.34137 1.88164 9.43421 1.41948 9.4378 0.952228C9.30187 0.979798 9.16544 1.00737 9.02951 1.03204C8.93718 1.44559 8.90384 1.87874 8.85204 2.30536C8.83563 2.4628 8.84588 2.62242 8.86127 2.77914C8.79562 2.83283 8.72791 2.88144 8.66072 2.93223C8.60327 2.28505 8.71765 1.64439 8.80741 1.01462C8.84229 0.939167 8.87307 0.847748 8.93872 0.818726Z" fill="#3C3E3F"/>
<path d="M2.51333 1.64947C2.50717 1.39118 2.45331 1.06106 2.65489 0.923204C2.78056 1.05815 2.90776 1.1902 3.02625 1.33749C2.97342 1.37885 2.92007 1.4202 2.86724 1.46156C2.92161 1.64439 2.99086 1.8178 3.07549 1.97597C3.12986 1.92953 3.1791 1.87366 3.22885 1.81852C3.24476 1.8577 3.27758 1.93533 3.29348 1.97379C3.27502 2.03836 3.25707 2.10366 3.23911 2.16969C3.08216 2.13559 2.9252 2.10366 2.76876 2.06593C2.8416 1.82433 2.61694 1.7554 2.51333 1.64947Z" fill="#3C3E3F"/>
<path d="M6.56645 1.22793C6.64852 1.25695 6.7311 1.2867 6.81368 1.31572C6.79316 1.44777 6.77367 1.57982 6.74802 1.70969C6.73161 1.78732 6.71366 1.86496 6.69468 1.94186L6.64903 1.97234C6.58697 1.82215 6.51772 1.67849 6.44335 1.54064C6.48438 1.43616 6.5249 1.33168 6.56645 1.22793Z" fill="#3C3E3F"/>
<path d="M7.44919 1.58345L7.49997 1.59578C7.65795 1.63061 7.82414 1.67414 7.98109 1.60521C7.99699 1.79023 8.01495 1.97524 8.04008 2.1588C7.99289 2.1987 7.94622 2.24006 7.89954 2.28214C7.90108 2.32422 7.90313 2.40911 7.90467 2.45192C7.91031 2.5281 7.91647 2.60428 7.92313 2.68119C7.80926 2.68845 7.6954 2.69353 7.58153 2.69715C7.57845 2.63258 7.57281 2.50198 7.56973 2.43668C7.57024 2.39823 7.57127 2.32132 7.57229 2.28214C7.54203 2.26255 7.48253 2.22337 7.45227 2.20306C7.43996 2.08987 7.42765 1.97741 7.41739 1.86423L7.42406 1.80836C7.43021 1.7525 7.44252 1.64004 7.44919 1.58345Z" fill="#3C3E3F"/>
<path d="M12.2917 2.84879C12.5846 2.55422 12.8836 2.26836 13.1642 1.94985C13.195 1.97161 13.2575 2.01587 13.2883 2.03764C13.0775 2.3293 12.7964 2.49182 12.5872 2.7893C12.5764 2.87999 12.5656 2.97141 12.5548 3.06283C12.4317 3.09838 12.3486 2.9881 12.2917 2.84879Z" fill="#3C3E3F"/>
<path d="M2.95341 2.40694C2.96778 2.36195 2.99599 2.27126 3.00984 2.22628C3.02009 2.33583 3.0283 2.44539 3.036 2.55567C3.0324 2.68046 3.00727 2.80018 2.98573 2.92062C2.9688 2.75012 2.95906 2.57889 2.95341 2.40694Z" fill="#3C3E3F"/>
<path d="M3.15858 2.62532C3.16782 2.48965 3.19346 2.3576 3.22475 2.2299C3.22732 2.34019 3.23142 2.45119 3.23655 2.5622C3.22424 2.68119 3.21501 2.80018 3.20423 2.92062C3.18833 2.82194 3.17038 2.72472 3.15858 2.62532Z" fill="#3C3E3F"/>
<path d="M3.37914 2.32205H3.42736C3.43505 2.49763 3.4371 2.67394 3.44582 2.84952C3.42992 2.88289 3.39863 2.94964 3.38324 2.98302C3.38171 2.92642 3.37812 2.81251 3.37658 2.75592C3.37504 2.61081 3.37555 2.46643 3.37914 2.32205Z" fill="#3C3E3F"/>
<path d="M3.91361 2.57599C3.97362 2.66087 3.99157 2.94456 3.91002 3.01494C3.86334 2.88289 3.87822 2.71021 3.91361 2.57599Z" fill="#3C3E3F"/>
<path d="M12.2512 4.05174C12.3784 3.92695 12.503 3.7978 12.6241 3.6614C12.7051 3.99805 12.661 4.35066 12.6687 4.69674C12.6667 4.87233 12.7831 4.94343 12.8872 4.96955C12.8287 4.99204 12.7708 5.01381 12.7123 5.03485C12.721 5.24235 12.7431 5.44768 12.7585 5.65446C12.7682 5.80102 12.7108 5.96717 12.6051 6.00852C12.3969 6.1188 12.1753 6.1812 11.9804 6.33792C12.2835 6.39161 12.5707 6.55195 12.8708 6.63249C12.8452 6.76816 12.8139 6.90094 12.778 7.03154C12.701 6.96043 12.6256 6.88498 12.5497 6.8117C12.4779 6.81968 12.4061 6.83201 12.3338 6.83056C12.2676 6.72318 12.2143 6.60129 12.1542 6.48666C12.0773 6.57445 12.0358 6.76454 11.9301 6.77977C11.8809 6.48883 11.6813 6.40249 11.4941 6.37202C11.4218 6.44457 11.3438 6.54833 11.2474 6.50044C11.1817 6.44603 11.1315 6.36186 11.073 6.29511C11.0027 6.31252 10.933 6.33212 10.8637 6.35243C10.933 6.20587 11.0145 6.07165 11.1038 5.94903C11.0992 5.91058 11.0899 5.83367 11.0853 5.79522C11.2777 5.93452 11.5044 5.93089 11.6993 5.80247C11.7295 5.44187 11.6947 5.08056 11.6136 4.73737C11.6316 4.71561 11.6665 4.67135 11.6844 4.64886C11.6475 4.6387 11.5741 4.61839 11.5372 4.60823C11.6347 4.44571 11.7311 4.25416 11.8875 4.207L11.9275 4.18887C11.9193 4.25852 11.9111 4.32817 11.9029 4.39782C11.9634 4.37823 12.0245 4.35864 12.0855 4.33978C12.0891 4.45006 12.0768 4.57268 12.1158 4.67498C12.1896 4.62927 12.146 4.44643 12.1563 4.35066C12.2261 4.37823 12.2963 4.40435 12.3671 4.42902C12.344 4.31076 12.3107 4.19685 12.2666 4.09092L12.2512 4.05174Z" fill="#3C3E3F"/>
<path d="M5.16668 3.82972C5.57086 3.91824 5.98172 3.92404 6.38488 4.01982C6.36333 4.22877 6.33666 4.43773 6.29973 4.64233C6.02224 4.64088 5.73705 4.62927 5.47084 4.51173C5.33184 4.32309 5.25029 4.06988 5.16668 3.82972ZM5.43751 4.14606C5.44366 4.18596 5.457 4.26505 5.46315 4.30495C5.49239 4.31366 5.54984 4.33035 5.57907 4.33833C5.58061 4.29044 5.58318 4.19394 5.58471 4.14533C5.54778 4.14606 5.47392 4.14606 5.43751 4.14606ZM5.63806 4.22369C5.80937 4.22732 5.56317 4.44208 5.63806 4.22369ZM5.74269 4.23022C5.74372 4.39855 5.84682 4.41088 5.94171 4.41016C5.88272 4.36735 5.85554 4.29479 5.85554 4.2041C5.82733 4.21063 5.77091 4.22369 5.74269 4.23022ZM5.94633 4.22006C5.96479 4.27883 5.98479 4.3376 6.00634 4.39637C6.06789 4.40508 6.10225 4.32817 6.14278 4.27666C6.15765 4.31584 6.18791 4.39347 6.2033 4.43192C6.19868 4.37968 6.18996 4.27593 6.18535 4.22369C6.10584 4.22079 6.02583 4.21934 5.94633 4.22006ZM6.25511 4.29987C6.4254 4.31656 6.1715 4.51318 6.25511 4.29987Z" fill="#3C3E3F"/>
<path d="M6.92345 3.83988C7.08553 4.19322 7.23428 4.55889 7.37174 4.93182C7.47381 4.78163 7.59538 4.66047 7.72976 4.5734C7.7354 4.68659 7.74053 4.79977 7.74617 4.91368C7.80824 4.88248 7.87082 4.85056 7.93391 4.82371C8.0647 4.82009 8.19498 4.83097 8.32527 4.83677C8.34373 5.01308 8.35809 5.19011 8.36989 5.36787C8.15498 5.35989 7.94211 5.32506 7.72925 5.28806C7.74874 5.39109 7.76772 5.49557 7.7867 5.60004C7.73643 5.64575 7.68821 5.69582 7.64051 5.74733C7.57845 5.72774 7.5169 5.70887 7.45483 5.68929C7.44611 5.58336 7.43739 5.4767 7.42816 5.3715C7.42457 5.33595 7.41688 5.26484 7.41329 5.22929C7.27787 5.21188 7.14246 5.20825 7.00705 5.19737C7.12861 5.14223 7.25223 5.09724 7.37636 5.05226C7.2353 4.64015 7.03578 4.27158 6.92345 3.83988Z" fill="#131212"/>
<path d="M7.88364 5.58698C7.90159 5.60294 7.93698 5.63559 7.95494 5.65156C7.95032 5.84745 8.05188 6.14492 7.89595 6.26101C7.88415 6.03682 7.88364 5.8119 7.88364 5.58698Z" fill="#3C3E3F"/>
<path d="M20.8555 5.61165C20.8775 5.62616 20.9222 5.65446 20.9442 5.66824C20.9493 5.67115 20.9596 5.67768 20.9652 5.6813C20.9847 5.69291 21.0247 5.71613 21.0448 5.72774C21.0499 5.72991 21.0596 5.73427 21.0648 5.73644C21.0955 5.74878 21.1571 5.7749 21.1884 5.78723C21.2212 5.85035 21.2551 5.91348 21.2884 5.97732C21.3074 5.9824 21.3464 5.99256 21.3653 5.99764C21.5577 6.16814 21.7618 6.32703 21.9044 6.5846C22.0644 6.91327 22.3748 6.89949 22.624 6.96696C22.7071 6.9822 22.7913 6.9793 22.8754 6.9793C22.7692 6.86394 22.663 6.74785 22.5656 6.61798C22.5912 6.61217 22.642 6.60129 22.6676 6.59621C22.8046 6.68182 22.9308 6.79719 23.0595 6.90674L23.0549 6.95173C23.0185 7.08813 23.0677 7.20349 23.1365 7.29854C22.9313 7.36674 22.7194 7.35585 22.5107 7.33626C22.7651 7.54957 23.0364 7.73096 23.2647 8.00013C23.3616 8.09881 23.335 8.28092 23.3452 8.42675C23.2385 8.23231 23.1411 8.01537 22.9851 7.89203C22.7907 7.73314 22.6025 7.55973 22.4061 7.40664C22.0901 7.18825 21.7244 7.20204 21.3997 7.0192C21.3135 6.9764 21.2715 6.85305 21.215 6.76163C21.2915 6.70287 21.3689 6.64627 21.4469 6.59041C21.5628 6.66804 21.688 6.71012 21.8136 6.74495C21.7264 6.41555 21.4895 6.27044 21.2756 6.15145C21.2889 6.26174 21.3038 6.37202 21.3187 6.48303C21.2263 6.40177 21.1427 6.30164 21.0704 6.18773C21.1094 6.13331 21.1484 6.0789 21.1873 6.02521C21.1089 5.96354 21.0304 5.90259 20.9499 5.84963C20.8883 5.83512 20.8252 5.82859 20.7637 5.82061C20.7857 5.75821 20.8047 5.69364 20.8201 5.62761C20.8288 5.62326 20.8468 5.61601 20.8555 5.61165ZM21.1407 5.81625C21.1668 5.85326 21.1668 5.85326 21.1407 5.81625Z" fill="#3C3E3F"/>
<path d="M9.75222 6.31398C9.92149 6.27552 10.1138 6.10285 10.2621 6.30672C10.1867 6.36331 10.1082 6.41338 10.0287 6.45909C10.0389 6.52801 10.0492 6.59694 10.0595 6.66659C10.0415 6.73842 10.0241 6.8117 10.0061 6.88498C10.1323 6.9111 10.259 6.93432 10.3857 6.95608C10.6319 7.01267 10.8812 7.03952 11.1284 7.08595C11.331 7.12949 11.5228 7.23251 11.7121 7.33917C11.7644 7.62793 11.8567 7.89783 11.9373 8.17209C11.4869 8.16193 11.0371 8.20401 10.5903 8.28673C10.6657 8.35928 10.7417 8.44489 10.8386 8.44054C11.0556 8.4507 11.2556 8.57912 11.4572 8.67997C11.707 8.80404 11.8034 9.21252 12.0542 9.33803C12.0624 9.39825 12.0701 9.45848 12.0783 9.52015C12.2117 9.51507 12.3445 9.49548 12.4748 9.45485C12.4799 9.48169 12.4897 9.53466 12.4943 9.5615C12.8939 9.62172 13.297 9.67904 13.673 9.89525C13.6597 9.92427 13.6335 9.98231 13.6202 10.0113C13.1057 9.91049 12.5851 9.86478 12.0737 9.7262C12.0681 9.8227 12.066 9.92137 12.0506 10.0171C11.9916 10.1274 11.9014 10.1934 11.8244 10.2754C11.9301 10.2319 12.0368 10.1898 12.143 10.1456C12.1096 10.2587 12.0896 9.75232 12.0599 9.86768C12.0552 9.88437 12.045 9.91847 12.0399 9.93515C12.024 9.999 12.0111 10.065 11.9988 10.1311C11.888 10.2101 11.7778 10.2914 11.6731 10.3857C11.787 10.34 11.8998 10.2914 12.0147 10.25C11.9234 10.5185 11.7198 10.6447 11.5623 10.8232C11.5177 10.8566 11.4721 10.8885 11.4264 10.9197C11.25 11.03 11.073 11.1388 10.8981 11.2535C10.8555 11.2796 10.8129 11.9311 10.7704 11.9572C10.6175 11.8172 10.4093 11.9413 10.2728 11.7809C10.1092 11.8129 9.94713 11.7889 9.7912 11.7149C9.57064 11.7026 9.36394 11.5771 9.14389 11.572C8.78844 11.4588 8.42016 10.7971 8.06316 10.6803C7.52459 10.5497 6.97987 10.4735 6.44591 10.311C5.67704 10.1811 4.91894 9.94676 4.15109 9.81544C3.59816 9.67976 3.04677 9.49838 2.48409 9.46791C2.3692 9.27274 2.21788 9.12908 2.1035 8.93463C2.02707 8.7518 1.98707 8.54357 1.9168 8.35638C2.01066 8.28382 2.11889 8.83741 2.22711 8.89908C2.36458 9.18204 2.41792 9.56731 2.64463 9.74869C2.85545 9.87929 3.09088 9.85172 3.31451 9.86986C3.59098 9.91194 3.87257 9.93951 4.12801 10.1078C4.44089 10.134 4.73326 10.3103 5.04409 10.356C5.24311 10.4024 5.44469 10.4089 5.64575 10.3988C5.86118 10.3777 6.04481 10.5736 6.25459 10.6041C6.43104 10.6331 6.60954 10.6302 6.78342 10.6861C6.94909 10.7398 7.12451 10.7071 7.28557 10.7927C7.49176 10.8943 7.70565 10.9843 7.92672 10.9734C8.17139 10.9444 8.38682 11.1715 8.63199 11.1562C8.92334 11.1403 9.21211 11.2027 9.50243 11.2302C9.72709 11.2527 9.91276 11.4733 10.1374 11.5001C10.3611 11.5335 10.5832 11.5763 10.8047 11.6315C11.0253 11.6888 11.1915 11.4124 11.3413 11.2288C11.2684 11.2448 11.1956 11.2629 11.1228 11.2818C11.2033 11.0597 11.2956 10.8247 11.272 10.5649C11.2535 10.3161 11.2489 10.0527 11.1735 9.8227C11.0104 9.55715 10.8391 9.26258 10.5929 9.15375C10.3739 9.02968 10.1359 9.00791 9.91174 8.91142C9.28084 8.59653 8.62687 8.39556 7.98212 8.14815C7.77387 8.05383 7.56409 7.95806 7.34609 7.92395C6.34948 7.74765 5.35133 7.5815 4.35011 7.46469C4.01158 7.47339 3.67202 7.42913 3.334 7.47557C2.98163 7.50749 2.6154 7.3885 2.2743 7.55393C2.26917 7.5561 2.25943 7.56046 2.2543 7.56336C2.22199 7.5786 2.15684 7.60907 2.12402 7.62431L2.07478 7.6185C2.06657 7.5873 2.04964 7.52491 2.04092 7.49371C2.28661 7.38995 2.53487 7.29854 2.7821 7.20422C3.01497 7.11715 3.24681 6.98365 3.49147 7.00687C3.87873 7.00107 4.26445 7.05911 4.65171 7.03734C4.6476 7.0758 4.63939 7.1527 4.63529 7.19116C4.85995 7.23542 5.08667 7.26226 5.31338 7.26153C5.33389 7.23034 5.37441 7.16867 5.39442 7.13747C5.4175 7.18826 5.44058 7.23977 5.46366 7.29128C5.53599 7.27677 5.61036 7.26516 5.68063 7.29854C5.96735 7.4197 6.26844 7.44074 6.56235 7.50895C6.75264 7.56046 6.96191 7.39141 7.12759 7.59528C7.19376 7.56626 7.25992 7.53724 7.32558 7.50822C7.40867 7.70049 7.57486 7.64607 7.70719 7.69323C7.85492 7.72951 8.00315 7.84487 8.15497 7.77522C8.59301 7.59601 9.0608 7.57497 9.48396 7.32175C9.56757 7.28112 9.60604 7.16359 9.65066 7.06636C9.49217 7.04242 9.23878 7.20277 9.17569 6.90457C9.07413 6.93939 8.97258 6.97422 8.87102 7.00832C8.79818 6.96624 8.72483 6.92488 8.65149 6.88498C8.6361 6.79864 8.62122 6.7123 8.60686 6.62596C8.89 6.52366 9.16851 6.39814 9.4419 6.25158C9.54243 6.28858 9.64656 6.35533 9.75222 6.31398Z" fill="#0F0E0E"/>
<path d="M12.9262 6.65063C13.1888 6.71738 13.4417 6.84435 13.7048 6.9111C13.9279 6.96624 14.1336 7.12078 14.3619 7.14109C14.4475 7.37182 14.6127 7.50967 14.7178 7.71717C14.7614 7.90219 14.785 8.09663 14.844 8.27439C14.8045 8.35202 14.7645 8.42893 14.725 8.50584C14.8722 8.41877 15.0169 8.31502 15.1733 8.26568C15.2446 8.29906 15.2882 8.39628 15.3431 8.46448C15.2564 8.52833 15.1682 8.58927 15.0851 8.66255C15.0784 8.77574 15.1692 8.80476 15.2179 8.86716C15.1507 9.02678 15.0302 9.10804 14.922 9.20018C14.8332 9.13271 14.746 9.06305 14.6583 8.99485C14.7507 8.92955 14.8415 8.85918 14.9297 8.78444C14.9071 8.72495 14.8845 8.66618 14.862 8.60814C14.6907 8.58927 14.5091 8.60669 14.3542 8.48552C14.1377 8.31865 13.8741 8.24319 13.7197 7.94862C13.6212 7.96386 13.5227 7.97837 13.4242 7.98708C13.4807 7.78828 13.6463 7.76288 13.7664 7.67799C13.6658 7.60254 13.554 7.54449 13.4786 7.41898C13.5694 7.45017 13.6581 7.4908 13.7464 7.53506C13.6848 7.40447 13.6397 7.2521 13.7156 7.1128C13.6315 7.00542 13.5376 6.91327 13.4248 6.88135C13.495 6.96334 13.534 7.08378 13.6022 7.16939C13.4807 7.10336 13.3663 7.01485 13.2514 6.93069C13.218 6.98293 13.1744 6.99091 13.1339 6.951C13.0498 6.87917 12.9195 6.81968 12.9262 6.65063ZM14.5742 7.70702C14.6004 7.74402 14.6004 7.74402 14.5742 7.70702ZM14.4716 7.77885C14.4978 7.81585 14.4978 7.81585 14.4716 7.77885Z" fill="#1D1D1E"/>
<path d="M2.56051 8.08938C2.63848 8.02771 2.71234 7.92395 2.80826 7.93484C2.98111 8.00231 3.11909 8.17644 3.28117 8.27874C3.3853 8.2947 3.46685 8.16919 3.55302 8.10461C3.72844 8.17136 3.90899 8.18225 4.08851 8.1583C4.38345 8.17644 4.67581 8.24755 4.96972 8.28455C5.28824 8.31357 5.57394 8.57041 5.89555 8.57404C6.32025 8.51309 6.74238 8.65747 7.16042 8.74527C7.83748 9.10731 8.57455 9.12037 9.27058 9.37504C9.36496 9.38519 9.36342 9.52667 9.37625 9.6268C9.14851 9.66308 8.94283 9.4991 8.72124 9.46355C8.55044 9.4222 8.37656 9.40623 8.20319 9.41204C8.13856 9.41276 8.07393 9.41349 8.00982 9.41421C7.86466 9.36851 7.72207 9.30684 7.57434 9.28652C6.9414 9.19365 6.31666 9.01589 5.68525 8.91069C5.0205 8.80258 4.36652 8.60088 3.70844 8.43473C3.60996 8.40644 3.46685 8.40136 3.42479 8.5617C3.43043 8.66691 3.44377 8.77066 3.45249 8.87586C3.38683 8.76703 3.38837 8.61902 3.37247 8.48625C3.28271 8.5501 3.19654 8.62192 3.11088 8.69593C2.9647 8.56098 2.93905 8.27947 2.79133 8.14815C2.72568 8.07487 2.63797 8.09953 2.56051 8.08938Z" fill="#171717"/>
<path d="M9.53474 0.288355C9.98252 0.154855 10.4426 0.0830269 10.8986 0.170817C11.3592 0.256431 11.8249 0.337693 12.2696 0.529961C12.2019 0.550276 12.1337 0.568416 12.066 0.589456C11.5557 0.305044 10.9771 0.196213 10.4406 0.392109C10.7263 0.598163 11.0612 0.609046 11.3669 0.738918C11.3587 0.77592 11.3428 0.849924 11.3346 0.886926L11.2941 0.873141C10.5673 0.591631 9.8148 0.443622 9.06234 0.411698C9.20596 0.311573 9.38035 0.350751 9.53474 0.288355Z" fill="#F3B347"/>
<path d="M14.1598 0.49731C14.2731 0.593082 14.2398 0.334788 14.1449 0.435639L14.1598 0.49731Z" fill="#F3B347"/>
<path d="M5.20464 1.63424C5.52009 1.51888 5.83759 1.64439 6.15303 1.67849C6.15252 1.81997 6.15714 1.96145 6.16329 2.10294C5.5683 2.05868 4.98408 2.23281 4.40294 2.3859C4.28958 2.42217 4.17469 2.39388 4.06184 2.37211C3.95926 2.35542 3.85616 2.34817 3.75255 2.34236C3.71562 2.264 3.67818 2.18492 3.64176 2.10656C3.63971 2.1617 3.63663 2.27054 3.63458 2.32568L3.5997 2.2865C3.57816 2.26401 3.53558 2.21902 3.51404 2.19653C3.45146 2.20959 3.3894 2.22265 3.32785 2.24006L3.294 2.26981C3.28169 2.34817 3.2704 2.42725 3.2586 2.50634L3.23655 2.5622C3.23142 2.45119 3.22732 2.34019 3.22475 2.2299L3.23911 2.16969C3.25707 2.10366 3.27502 2.03836 3.29348 1.97379C3.92797 1.83231 4.56553 1.71477 5.20464 1.63424Z" fill="#F3B347"/>
<path d="M6.64903 1.97234L6.69468 1.94186C6.77111 1.94114 6.84702 1.94259 6.92345 1.94549C6.9573 2.1218 6.97833 2.30246 6.98141 2.48529C6.78803 2.46933 6.74187 2.16025 6.64903 1.97234Z" fill="#F3B347"/>
<path d="M8.86127 2.77914C8.84588 2.62242 8.83563 2.4628 8.85204 2.30536C8.85973 2.40186 8.86845 2.49763 8.8782 2.59413C8.91667 2.60428 8.99309 2.6246 9.03105 2.63476C8.97411 2.68192 8.91821 2.73125 8.86127 2.77914Z" fill="#F3B347"/>
<path d="M8.26577 2.70078C8.29141 2.73706 8.29141 2.73706 8.26577 2.70078Z" fill="#F3B347"/>
<path d="M10.4134 3.47856C10.498 3.47783 10.5826 3.47784 10.6673 3.47784C10.6652 3.5366 10.6611 3.65487 10.6591 3.71364L10.6375 3.6643C10.6288 3.64398 10.6114 3.60263 10.6026 3.58159C10.5698 3.60626 10.5375 3.63092 10.5052 3.65632C10.4744 3.59682 10.4436 3.53733 10.4134 3.47856Z" fill="#F3B347"/>
<path d="M12.8764 3.43721C12.9457 3.74774 12.8908 4.07641 12.938 4.39129C12.958 4.58501 13.0185 4.82589 12.8872 4.96955C12.9534 4.46167 12.8241 3.95016 12.8764 3.43721Z" fill="#F3B347"/>
<path d="M16.5854 3.53806C16.6931 3.6244 16.8003 3.71364 16.9075 3.80288C16.7752 3.86092 16.8106 4.0677 16.8075 4.21644C16.8747 4.16202 16.9419 4.10688 17.0091 4.05174C16.9988 3.98499 16.9891 3.91824 16.9793 3.85222C17.0593 3.9313 17.1393 4.01111 17.2194 4.09164C17.0465 4.12212 16.9162 4.37896 16.7382 4.32382C16.5485 4.15985 16.6572 3.792 16.5854 3.53806Z" fill="#F3B347"/>
<path d="M5.43751 4.14606C5.47392 4.14606 5.54778 4.14606 5.58471 4.14533C5.58318 4.19394 5.58061 4.29044 5.57907 4.33833C5.54984 4.33035 5.49239 4.31366 5.46315 4.30495C5.457 4.26505 5.44366 4.18596 5.43751 4.14606Z" fill="#F3B347"/>
<path d="M5.63806 4.22369C5.80937 4.22732 5.56317 4.44208 5.63806 4.22369Z" fill="#F3B347"/>
<path d="M5.74269 4.23022C5.77091 4.22369 5.82733 4.21063 5.85554 4.2041C5.85554 4.29479 5.88272 4.36735 5.94171 4.41016C5.84682 4.41088 5.74372 4.39855 5.74269 4.23022Z" fill="#F3B347"/>
<path d="M5.94633 4.22006C6.02583 4.21934 6.10584 4.22079 6.18535 4.22369C6.18996 4.27593 6.19868 4.37968 6.2033 4.43192C6.18791 4.39347 6.15765 4.31584 6.14278 4.27666C6.10225 4.32817 6.06789 4.40508 6.00634 4.39637C5.98479 4.3376 5.96479 4.27883 5.94633 4.22006Z" fill="#F3B347"/>
<path d="M12.0855 4.33978C12.0999 4.31438 12.1276 4.2636 12.1419 4.2382C12.1455 4.26577 12.1527 4.32237 12.1563 4.35066C12.146 4.44643 12.1896 4.62927 12.1158 4.67498C12.0768 4.57268 12.0891 4.45006 12.0855 4.33978Z" fill="#F3B347"/>
<path d="M17.1491 4.23893C17.2917 4.20628 17.4671 4.2012 17.5646 4.38041C17.6364 4.50665 17.6297 4.67135 17.6169 4.82299C17.483 4.83605 17.3168 4.89845 17.2178 4.7294C17.1009 4.61476 17.1393 4.4058 17.1491 4.23893ZM17.3414 4.34703C17.2322 4.41378 17.2804 4.59082 17.2701 4.72141C17.3107 4.72141 17.3912 4.72141 17.4312 4.72141C17.4661 4.59735 17.4948 4.46893 17.4948 4.33397C17.4563 4.3376 17.3799 4.34341 17.3414 4.34703Z" fill="#F3B347"/>
<path d="M6.25511 4.29987C6.4254 4.31656 6.1715 4.51318 6.25511 4.29987Z" fill="#F3B347"/>
<path d="M17.7543 4.51173C17.8574 4.6075 17.96 4.70545 18.0621 4.80485C17.9231 4.75479 17.8313 4.96302 17.8482 5.13497C17.8933 5.28951 18.0257 5.19882 18.1098 5.18503C18.0893 5.2663 18.0677 5.34828 18.0457 5.42954C17.8826 5.28951 17.7051 5.17415 17.5712 4.97826C17.601 4.97753 17.66 4.97753 17.6897 4.9768C17.7492 4.8346 17.7903 4.67643 17.7543 4.51173Z" fill="#F3B347"/>
<path d="M18.1165 4.84766C18.2498 4.94125 18.3775 5.04936 18.4986 5.17342C18.3899 5.23655 18.3878 5.39109 18.4017 5.53329C18.5073 5.50427 18.5837 5.39254 18.6607 5.29459C18.8166 5.44478 18.9874 5.55796 19.1459 5.70162C19.2495 5.82351 19.2121 6.03682 19.2049 6.20224C19.0469 6.24795 18.8648 6.22256 18.7597 6.03029C18.6879 5.85543 18.7156 5.62181 18.8284 5.49339C18.8002 5.47888 18.7443 5.44986 18.7161 5.43534C18.6145 5.53402 18.5124 5.63124 18.4083 5.72484C18.3463 5.67042 18.2683 5.6414 18.2242 5.55578C18.2114 5.312 18.2319 5.05153 18.1165 4.84766ZM18.8617 6.10067C18.9012 6.09994 18.9813 6.09922 19.0208 6.09849C19.07 5.95411 19.1469 5.67622 18.9746 5.6414C18.8151 5.67477 18.8643 5.94177 18.8617 6.10067Z" fill="#F3B347"/>
<path d="M2.10658 5.23365C2.13735 5.23365 2.19942 5.23365 2.2307 5.23365C2.23994 5.33885 2.2502 5.44478 2.26097 5.55071C2.28354 5.57683 2.32867 5.62907 2.35124 5.65519C2.26969 5.64938 2.18762 5.6443 2.10606 5.6385C2.10555 5.50355 2.10555 5.3686 2.10658 5.23365ZM2.15992 5.33087C2.11427 5.37803 2.11427 5.55869 2.18762 5.54635C2.23378 5.49774 2.23327 5.31781 2.15992 5.33087Z" fill="#F3B347"/>
<path d="M2.31072 5.32289C2.37894 5.24816 2.45126 5.41938 2.38971 5.48758C2.32098 5.56449 2.24917 5.39109 2.31072 5.32289Z" fill="#F3B347"/>
<path d="M2.6195 5.28298C2.71183 5.38818 2.74414 5.5478 2.76261 5.7067C2.67644 5.70235 2.59026 5.69727 2.50409 5.69219C2.53897 5.55361 2.57488 5.41575 2.6195 5.28298Z" fill="#F3B347"/>
<path d="M12.3179 9.30248C12.344 9.33948 12.344 9.33948 12.3179 9.30248Z" fill="#F3B347"/>
<path d="M21.1391 10.1013C21.1653 10.1376 21.1653 10.1376 21.1391 10.1013Z" fill="#F3B347"/>
<path d="M12.2696 0.529961C12.619 0.402992 12.9744 0.311571 13.3294 0.227409C13.5453 0.294884 13.7658 0.277472 13.9844 0.303592C14.0197 0.355105 14.0608 0.393559 14.1075 0.418953L14.1449 0.435639L14.1598 0.49731C14.1854 0.577845 14.2136 0.65693 14.2418 0.736014C14.0946 0.642419 13.9397 0.560434 13.7756 0.571317C13.8259 0.635164 13.8782 0.703364 13.9464 0.728758C14.2239 0.855728 14.5091 0.960932 14.7666 1.16046C15.3657 1.6277 15.9253 2.18927 16.509 2.69062C16.6618 2.73125 16.7752 2.87273 16.8855 3.01857C17.7969 3.86092 18.7192 4.68078 19.6275 5.52967C19.7619 5.64866 19.9399 5.62471 20.0625 5.77562C20.1923 5.93162 20.32 6.09341 20.4641 6.22473C20.5862 6.35388 20.7616 6.45546 20.7683 6.70577C20.8057 6.75003 20.8432 6.79428 20.8816 6.83927C20.8832 6.80154 20.8863 6.72608 20.8883 6.68836C20.9596 6.70287 21.0309 6.7152 21.1032 6.72826C21.0104 6.55993 20.8565 6.45546 20.8129 6.23852C20.7585 6.03754 20.7232 5.82859 20.6837 5.62181L20.7278 5.59424C20.7355 5.59206 20.7503 5.58771 20.758 5.58553C20.775 5.58843 20.8093 5.59279 20.8262 5.59569L20.8201 5.62761C20.8047 5.69364 20.7857 5.75821 20.7637 5.82061C20.8252 5.82859 20.8883 5.83512 20.9499 5.84963C20.9842 5.96644 21.0237 6.07962 21.0704 6.18773C21.1427 6.30164 21.2263 6.40177 21.3187 6.48303C21.3607 6.52003 21.4033 6.55558 21.4469 6.59041C21.3689 6.64627 21.2915 6.70287 21.215 6.76163C21.2715 6.85305 21.3135 6.9764 21.3997 7.0192C21.7244 7.20204 22.0901 7.18825 22.4061 7.40664C22.6025 7.55973 22.7907 7.73314 22.9851 7.89203C23.1411 8.01537 23.2385 8.23231 23.3452 8.42675C23.335 8.28092 23.3616 8.09881 23.2647 8.00013C23.0364 7.73096 22.7651 7.54957 22.5107 7.33626C22.7194 7.35585 22.9313 7.36674 23.1365 7.29854C23.3073 7.25283 23.5263 7.15053 23.6643 7.36166C23.7356 7.50169 23.7504 7.68235 23.7884 7.84414C23.8325 7.6497 23.8884 7.3885 23.7468 7.24412C23.6068 7.19406 23.4606 7.18753 23.3252 7.11425C23.4175 7.03371 23.5253 7.01122 23.6325 7.03589C23.7176 7.10482 23.8186 7.16576 23.8689 7.29346C23.9064 7.4451 23.9033 7.60979 23.9105 7.76869C23.8463 8.16048 23.5622 8.31502 23.397 8.60233C23.3832 8.60016 23.3555 8.59653 23.3416 8.59508C23.338 8.63426 23.3303 8.71334 23.3268 8.75325C22.9975 9.03403 22.7538 9.49257 22.3886 9.68992C22.1701 9.82342 21.9388 9.91121 21.7228 10.0534C21.5151 10.1862 21.3612 10.4648 21.1278 10.5192C20.8852 10.5606 20.6611 10.7695 20.4123 10.6498C20.4236 10.5722 20.4349 10.4953 20.4467 10.4184C20.3985 10.4539 20.3503 10.4909 20.302 10.5279C20.3108 10.6861 20.4308 10.9872 20.2548 11.0235C20.082 10.9175 20.0117 10.5511 19.7942 10.5838C19.3983 10.5758 19.0079 10.718 18.612 10.7354C18.3714 10.7318 18.1503 10.9248 17.9072 10.8769C17.8949 10.8326 17.8703 10.7427 17.858 10.6984C17.8472 10.6585 17.8251 10.5794 17.8138 10.5395C17.7672 10.517 17.7205 10.4953 17.6738 10.4735C17.761 10.5112 17.8108 10.311 17.6969 10.3465C17.6697 10.3676 17.6159 10.4097 17.5887 10.4307C17.5569 10.4307 17.4928 10.43 17.461 10.4292C17.3245 10.3386 17.1778 10.2587 17.0239 10.2994C16.6013 10.3777 16.1751 10.3995 15.7519 10.4655C15.5939 10.4924 15.477 10.6578 15.3503 10.7768C15.1574 10.816 14.9681 10.9183 14.8691 11.1722C14.8158 11.2701 14.7661 10.7449 14.7178 10.8486C14.5747 10.9429 14.4486 10.8515 14.3501 10.6991C14.3465 10.5308 14.3783 10.9618 14.2936 10.8225C14.168 10.5889 14.0387 10.3589 13.9054 10.134C13.8407 10.0048 13.7176 10.0309 13.6202 10.0113C13.6335 9.98231 13.6597 9.92427 13.673 9.89525C13.297 9.67904 12.8939 9.62172 12.4943 9.5615C12.4897 9.53466 12.4799 9.48169 12.4748 9.45485C12.3445 9.49548 12.2117 9.51507 12.0783 9.52015C12.0701 9.45848 12.0624 9.39825 12.0542 9.33803C11.8034 9.21252 11.707 8.80404 11.4572 8.67997C11.2556 8.57912 11.0556 8.4507 10.8386 8.44054C10.7417 8.44489 10.6657 8.35928 10.5903 8.28673C11.0371 8.20401 11.4869 8.16193 11.9373 8.17209C11.8567 7.89783 11.7644 7.62793 11.7121 7.33917C11.8885 7.40519 12.0727 7.36166 12.2507 7.40664C12.381 7.43058 12.5348 7.53579 12.6302 7.35368C12.1173 7.27387 11.649 6.90457 11.1289 6.88207C11.1289 6.93286 11.1284 7.03517 11.1284 7.08595C10.8812 7.03952 10.6319 7.01267 10.3857 6.95608C10.477 6.82476 10.6011 6.76454 10.7196 6.69851C10.4996 6.68618 10.2795 6.67094 10.0595 6.66659C10.0492 6.59694 10.0389 6.52801 10.0287 6.45909C10.1082 6.41338 10.1867 6.36331 10.2621 6.30672C10.1138 6.10285 9.92149 6.27552 9.75222 6.31398C9.64656 6.35533 9.54243 6.28858 9.4419 6.25158C9.42395 5.83512 9.40907 5.41431 9.32034 5.01308C9.25879 5.01453 9.19724 5.01598 9.1362 5.01743C8.90846 4.92964 8.67098 4.84548 8.43811 4.95649C8.39913 4.6017 8.35963 4.24763 8.31911 3.8943C8.29603 3.75064 8.2868 3.57651 8.19088 3.48944C8.037 3.34724 7.86261 3.25437 7.71078 3.10636C7.95596 3.07081 8.2037 3.07588 8.44683 3.01566C8.44734 2.93585 8.44734 2.85677 8.44786 2.77841C8.44786 2.69498 8.44837 2.61226 8.45042 2.53028C8.49299 2.05505 8.52838 1.57837 8.56942 1.10241C8.64841 1.07339 8.72791 1.0451 8.80741 1.01462C8.71765 1.64439 8.60327 2.28505 8.66072 2.93223C8.72791 2.88144 8.79562 2.83283 8.86127 2.77914C8.91821 2.73125 8.97411 2.68192 9.03105 2.63476C9.15415 2.54261 9.27674 2.44974 9.39625 2.34962C9.4737 2.29158 9.55423 2.24151 9.63476 2.19435C9.8189 2.09496 9.99535 1.97088 10.1677 1.83739C10.2477 1.77644 10.3277 1.71622 10.4082 1.65745C10.5067 1.58417 10.6062 1.51452 10.7073 1.44777C10.834 1.36433 10.9632 1.2809 11.0699 1.1503C11.0894 1.12563 11.1289 1.07702 11.1489 1.05235C11.1966 0.992131 11.2453 0.93191 11.2941 0.873141L11.3346 0.886926C11.5916 0.868062 11.8147 0.653304 12.066 0.589456C12.1337 0.568416 12.2019 0.550276 12.2696 0.529961ZM13.3252 1.3919C13.5094 1.47099 13.6376 1.74959 13.8474 1.68792C13.811 1.56676 13.7925 1.40932 13.6946 1.3578C13.575 1.29468 13.4463 1.37159 13.3252 1.3919ZM12.303 2.62822C12.3004 2.68337 12.2943 2.79365 12.2917 2.84879C12.3486 2.9881 12.4317 3.09838 12.5548 3.06283C12.5656 2.97141 12.5764 2.87999 12.5872 2.7893C12.7964 2.49182 13.0775 2.3293 13.2883 2.03764C13.2575 2.01587 13.195 1.97161 13.1642 1.94985C13.1688 1.91284 13.1775 1.83884 13.1821 1.80183C12.8559 1.99555 12.6102 2.38372 12.303 2.62822ZM14.5696 2.05142C14.505 2.08189 14.4562 2.21176 14.488 2.30173C14.5696 2.34817 14.6589 2.0964 14.5696 2.05142ZM8.22473 3.1274C8.23499 3.2268 8.27038 3.24349 8.33142 3.17819C8.32168 3.07879 8.28577 3.06137 8.22473 3.1274ZM12.878 3.12957C12.8523 3.23188 12.8754 3.26525 12.9482 3.2297C12.9739 3.1274 12.9508 3.09402 12.878 3.12957ZM12.8764 3.43721C12.7877 3.50178 12.7031 3.57506 12.6241 3.6614C12.503 3.7978 12.3784 3.92695 12.2512 4.05174L12.2666 4.09092C12.2353 4.12792 12.1732 4.2012 12.1419 4.2382C12.1276 4.2636 12.0999 4.31438 12.0855 4.33978C12.0245 4.35864 11.9634 4.37823 11.9029 4.39782C11.9111 4.32817 11.9193 4.25852 11.9275 4.18887C12.0558 4.12139 12.2343 4.06045 12.2676 3.84278C12.1245 3.92622 11.9942 4.04811 11.8875 4.207C11.7311 4.25416 11.6347 4.44571 11.5372 4.60823C11.5741 4.61839 11.6475 4.6387 11.6844 4.64886C11.6665 4.67135 11.6316 4.71561 11.6136 4.73737C11.6947 5.08056 11.7295 5.44187 11.6993 5.80247C11.5044 5.93089 11.2777 5.93452 11.0853 5.79522C11.0899 5.83367 11.0992 5.91058 11.1038 5.94903C11.0145 6.07165 10.933 6.20587 10.8637 6.35243C10.933 6.33212 11.0027 6.31252 11.073 6.29511C11.1315 6.36186 11.1817 6.44603 11.2474 6.50044C11.3438 6.54833 11.4218 6.44457 11.4941 6.37202C11.6813 6.40249 11.8809 6.48883 11.9301 6.77977C12.0358 6.76454 12.0773 6.57445 12.1542 6.48666C12.2143 6.60129 12.2676 6.72318 12.3338 6.83056C12.4061 6.83201 12.4779 6.81968 12.5497 6.8117C12.6256 6.88498 12.701 6.96043 12.778 7.03154C12.8139 6.90094 12.8452 6.76816 12.8708 6.63249C12.8846 6.63684 12.9123 6.64627 12.9262 6.65063C12.9195 6.81968 13.0498 6.87917 13.1339 6.951C13.1744 6.99091 13.218 6.98293 13.2514 6.93069C13.3663 7.01485 13.4807 7.10336 13.6022 7.16939C13.534 7.08378 13.495 6.96334 13.4248 6.88135C13.5376 6.91327 13.6315 7.00542 13.7156 7.1128C13.6397 7.2521 13.6848 7.40447 13.7464 7.53506C13.6581 7.4908 13.5694 7.45017 13.4786 7.41898C13.554 7.54449 13.6658 7.60254 13.7664 7.67799C13.6463 7.76288 13.4807 7.78828 13.4242 7.98708C13.5227 7.97837 13.6212 7.96386 13.7197 7.94862C13.8741 8.24319 14.1377 8.31865 14.3542 8.48552C14.5091 8.60669 14.6907 8.58927 14.862 8.60814C14.8845 8.66618 14.9071 8.72495 14.9297 8.78444C14.8415 8.85918 14.7507 8.92955 14.6583 8.99485C14.746 9.06305 14.8332 9.13271 14.922 9.20018C15.0302 9.10804 15.1507 9.02678 15.2179 8.86716C15.3513 8.60161 15.5678 8.46593 15.7514 8.28382C16.135 7.95733 16.5049 7.59673 16.8988 7.29346C17.006 7.16649 17.1004 7.01702 17.1855 6.86103C17.2573 6.59766 17.304 6.32051 17.3922 6.06657C17.4707 6.1812 17.4974 6.34445 17.5676 6.46997C17.6159 6.2835 17.6174 6.05568 17.7374 5.92436C17.7764 6.06221 17.8256 6.19354 17.881 6.31833C17.9016 6.21966 17.9221 6.12171 17.9395 6.02303C17.7164 5.8431 17.482 5.69654 17.2455 5.55651C16.9137 5.32651 16.5839 5.09216 16.2535 4.85781C15.9478 4.62419 15.617 4.4682 15.3128 4.2295C14.6599 3.7383 13.9602 3.34216 13.2252 3.18834C13.0724 3.12957 12.959 3.27686 12.8764 3.43721ZM12.7841 3.28702C12.7205 3.28992 12.6466 3.33853 12.6256 3.42922C12.6538 3.57723 12.8775 3.36465 12.7841 3.28702ZM11.1463 3.34579C11.1166 3.41544 11.0874 3.48582 11.0581 3.55692C10.9576 3.52935 10.8576 3.49888 10.757 3.47493C10.776 3.51484 10.814 3.59465 10.833 3.63455C10.7914 3.62875 10.7499 3.62439 10.7083 3.62294C10.6996 3.77894 10.6991 3.93783 10.7545 4.07931C10.8489 3.99515 10.9417 3.90735 11.0309 3.81231L10.993 3.77893C11.1192 3.64471 11.3161 3.60263 11.3392 3.33563C11.2746 3.33635 11.2105 3.33998 11.1463 3.34579ZM10.4134 3.47856C10.4436 3.53733 10.4744 3.59682 10.5052 3.65632C10.3559 3.80941 10.1713 3.76515 10.0025 3.72597C10.0025 3.76515 10.002 3.84496 10.002 3.88486C10.0528 3.87906 10.1036 3.87471 10.1544 3.87035C10.141 3.95307 10.1282 4.03578 10.1149 4.11921C10.2564 4.04448 10.4026 3.98934 10.5508 3.95016C10.5811 3.85584 10.6119 3.76152 10.6375 3.6643L10.6591 3.71364C10.6611 3.65487 10.6652 3.5366 10.6673 3.47784C10.5826 3.47784 10.498 3.47783 10.4134 3.47856ZM16.5854 3.53806C16.6572 3.792 16.5485 4.15985 16.7382 4.32382C16.9162 4.37896 17.0465 4.12212 17.2194 4.09164C17.1393 4.01111 17.0593 3.9313 16.9793 3.85222C16.9891 3.91824 16.9988 3.98499 17.0091 4.05174C16.9419 4.10688 16.8747 4.16202 16.8075 4.21644C16.8106 4.0677 16.7752 3.86092 16.9075 3.80288C16.8003 3.71364 16.6931 3.6244 16.5854 3.53806ZM10.1277 4.26505C10.2528 4.41233 10.4175 4.36735 10.5657 4.34776C10.5534 4.0619 10.239 4.10615 10.1277 4.26505ZM17.1491 4.23893C17.1393 4.4058 17.1009 4.61476 17.2178 4.7294C17.3168 4.89845 17.483 4.83605 17.6169 4.82299C17.6297 4.67135 17.6364 4.50665 17.5646 4.38041C17.4671 4.2012 17.2917 4.20628 17.1491 4.23893ZM17.7543 4.51173C17.7903 4.67643 17.7492 4.8346 17.6897 4.9768C17.66 4.97753 17.601 4.97753 17.5712 4.97826C17.7051 5.17415 17.8826 5.28951 18.0457 5.42954C18.0677 5.34828 18.0893 5.2663 18.1098 5.18503C18.0257 5.19882 17.8933 5.28951 17.8482 5.13497C17.8313 4.96302 17.9231 4.75479 18.0621 4.80485C17.96 4.70545 17.8574 4.6075 17.7543 4.51173ZM18.1165 4.84766C18.2319 5.05153 18.2114 5.312 18.2242 5.55578C18.2683 5.6414 18.3463 5.67042 18.4083 5.72484C18.5124 5.63124 18.6145 5.53402 18.7161 5.43534C18.7443 5.44986 18.8002 5.47888 18.8284 5.49339C18.7156 5.62181 18.6879 5.85543 18.7597 6.03029C18.8648 6.22256 19.0469 6.24795 19.2049 6.20224C19.2121 6.03682 19.2495 5.82351 19.1459 5.70162C18.9874 5.55796 18.8166 5.44478 18.6607 5.29459C18.5837 5.39254 18.5073 5.50427 18.4017 5.53329C18.3878 5.39109 18.3899 5.23655 18.4986 5.17342C18.3775 5.04936 18.2498 4.94125 18.1165 4.84766ZM18.1472 6.16452C18.215 6.50479 18.1498 6.86684 18.0493 7.18027C17.859 7.60036 17.5107 7.78537 17.2666 8.12638C17.7461 7.93701 18.1898 7.59528 18.6674 7.39576C18.9992 7.47339 19.3383 7.51039 19.6747 7.45308C19.6927 7.42986 19.7286 7.38343 19.7465 7.35948C19.5142 7.27459 19.3583 6.99816 19.1439 6.86321C18.8099 6.63539 18.4812 6.39161 18.1472 6.16452ZM10.42 6.54615C10.4462 6.58243 10.4462 6.58243 10.42 6.54615ZM11.292 6.76381C11.3182 6.80009 11.3182 6.80009 11.292 6.76381ZM12.3179 7.12658C12.3435 7.16358 12.3435 7.16358 12.3179 7.12658ZM12.4717 7.19986C12.4979 7.23686 12.4979 7.23686 12.4717 7.19986ZM12.7282 7.27169C12.7544 7.30869 12.7544 7.30869 12.7282 7.27169ZM23.1913 8.72205C23.2175 8.75833 23.2175 8.75833 23.1913 8.72205ZM12.2071 8.8628C12.1958 8.88094 12.1732 8.91722 12.1619 8.93608C12.2091 9.1581 12.3866 8.83814 12.2071 8.8628ZM12.3179 9.30248C12.344 9.33948 12.344 9.33948 12.3179 9.30248ZM16.6741 9.34964C16.6392 9.44904 16.6033 9.54916 16.5669 9.64784C16.6192 9.73926 16.6716 9.83068 16.7244 9.92282C16.7983 9.81834 16.8778 9.72112 16.9685 9.64711C16.9978 9.39535 16.8188 9.31482 16.6741 9.34964ZM14.1926 10.0846C14.249 10.2254 14.3188 10.3538 14.405 10.4612C14.406 10.4046 14.4075 10.2914 14.4085 10.2348C14.3362 10.1847 14.2644 10.134 14.1926 10.0846ZM18.6786 10.089C18.831 9.97578 18.6868 10.3298 18.6786 10.089ZM21.1391 10.1013C21.1653 10.1376 21.1653 10.1376 21.1391 10.1013ZM17.4553 10.2515C17.5158 10.3567 17.6815 10.3211 17.7702 10.274C17.7097 10.1673 17.5435 10.2007 17.4553 10.2515ZM20.0451 10.5163C20.1035 10.6324 20.1743 10.7347 20.2554 10.8203C20.2528 10.7659 20.2487 10.6578 20.2466 10.6034C20.1789 10.5736 20.1123 10.5439 20.0451 10.5163ZM14.6188 10.6897C14.5978 10.7906 14.6229 10.8268 14.6953 10.7985C14.7158 10.6977 14.6901 10.6607 14.6188 10.6897Z" fill="#0F0E0E"/>
<path d="M14.7019 0.471916C14.7317 0.479897 14.7922 0.49586 14.8225 0.503116C14.9456 0.559708 15.0656 0.63226 15.1928 0.67144C15.2497 0.666361 15.3067 0.659831 15.3641 0.653301C15.358 0.572766 15.3518 0.492957 15.3462 0.413147L15.3805 0.445071C15.4944 0.560432 15.6201 0.655478 15.755 0.712796C15.7175 0.750524 15.6801 0.788978 15.6432 0.828157C15.9165 0.861532 16.1561 1.06033 16.3859 1.2555C16.4023 1.27219 16.4341 1.30629 16.45 1.32298C16.4967 1.37014 16.5428 1.41947 16.5895 1.46881C16.5705 1.53919 16.5515 1.61029 16.5326 1.68139C16.6259 1.86496 16.7203 2.05795 16.8608 2.17549C17.7338 2.87491 18.6017 3.58812 19.4773 4.28246C19.6034 4.37751 19.7173 4.50085 19.824 4.63435C19.7789 4.69892 19.7486 4.80703 19.6763 4.81718C19.6701 4.81646 19.6583 4.81501 19.6527 4.81428C19.5244 4.75406 19.4198 4.62999 19.3316 4.48996C19.1228 4.15259 18.8176 3.99587 18.5422 3.7978L18.5268 3.78837C18.2673 3.53153 17.9918 3.31023 17.7205 3.08169C17.324 2.76027 16.9444 2.39823 16.549 2.07391C16.4731 2.10293 16.3987 2.14502 16.3197 2.14864C16.114 2.06593 16.1166 1.70679 15.9704 1.52903C15.9453 1.62262 15.9212 1.71767 15.897 1.81272C15.5185 1.46954 15.1148 1.18512 14.7404 0.833962C14.6619 0.779547 14.7019 0.642419 14.6973 0.545922C14.6973 0.537941 14.6983 0.522706 14.6989 0.514725L14.7019 0.471916Z" fill="#2C2E2C"/>
<path d="M6.42437 1.74161C6.50849 1.90341 6.58799 2.07101 6.6598 2.24587C6.55465 2.24587 6.44335 2.25965 6.35153 2.17258C6.37769 2.02893 6.40129 1.88527 6.42437 1.74161Z" fill="#2C2E2C"/>
<path d="M7.08194 2.94456C7.33378 2.90974 7.53793 3.17238 7.76208 3.29137C7.92108 3.41689 8.15498 3.47784 8.20627 3.76442C8.27705 4.11341 8.28115 4.48053 8.32527 4.83677C8.19498 4.83097 8.0647 4.82009 7.93391 4.82371C7.86466 4.38621 7.80567 3.94509 7.71078 3.51629C7.65641 3.49597 7.60153 3.47638 7.54665 3.45897C7.48664 3.35087 7.42355 3.24711 7.35635 3.14917C7.35943 3.2326 7.36302 3.31676 7.36712 3.40165C7.13426 3.34579 6.8978 3.35232 6.66339 3.33635C6.57414 3.33926 6.50285 3.25872 6.42847 3.20358C6.64647 3.11724 6.86702 3.04469 7.08194 2.94456Z" fill="#2C2E2C"/>
<path d="M1.64238 3.18181L1.68495 3.18762C1.80652 3.20286 1.92757 3.22607 2.04913 3.23913L2.03323 3.31386C1.9568 3.71944 1.98399 4.14243 1.99989 4.55599C2.65797 4.70182 3.32323 4.77365 3.9849 4.87958C4.04748 4.89191 4.11673 4.91223 4.15366 4.99422C4.35729 5.3715 4.46859 5.83947 4.6953 6.19136C5.22721 6.30672 5.76475 6.40104 6.30229 6.46126C6.9337 6.60347 7.57076 6.69053 8.2037 6.81315C8.25602 6.79211 8.30731 6.76816 8.35809 6.74132C8.3899 6.721 8.4535 6.67892 8.4853 6.65788C8.50171 6.75728 8.51556 6.85741 8.5289 6.95826C8.44016 6.93867 8.35194 6.91908 8.26372 6.89949C8.27038 6.9851 8.27654 7.07072 8.28321 7.15706C8.42272 7.11643 8.56275 7.05185 8.65149 6.88498C8.72483 6.92488 8.79818 6.96624 8.87102 7.00832C8.97258 6.97422 9.07413 6.93939 9.17569 6.90457C9.23878 7.20277 9.49217 7.04242 9.65066 7.06636C9.60604 7.16359 9.56757 7.28112 9.48396 7.32175C9.0608 7.57497 8.59301 7.59601 8.15497 7.77522C8.00315 7.84487 7.85492 7.72951 7.70719 7.69323C7.57486 7.64607 7.40867 7.70049 7.32558 7.50822C7.25992 7.53724 7.19376 7.56626 7.12759 7.59528C6.96191 7.39141 6.75264 7.56046 6.56235 7.50895C6.26844 7.44074 5.96735 7.4197 5.68063 7.29854C5.61036 7.26516 5.53599 7.27677 5.46366 7.29128C5.44058 7.23977 5.4175 7.18826 5.39442 7.13747C5.37441 7.16867 5.33389 7.23034 5.31338 7.26153C5.08667 7.26226 4.85995 7.23542 4.63529 7.19116C4.63939 7.1527 4.6476 7.0758 4.65171 7.03734C4.85482 7.02573 5.05897 7.0533 5.26106 7.01993C5.30876 6.96551 5.34774 6.89876 5.38826 6.83492C4.30856 6.63249 3.22783 6.43949 2.1471 6.24505C1.97989 6.20442 1.77728 6.23344 1.64187 6.07165C1.62135 5.79884 1.65418 5.52096 1.61263 5.25033C1.55775 4.88248 1.59109 4.5052 1.5834 4.13227C1.58699 3.81449 1.55159 3.48364 1.64238 3.18181ZM2.10658 5.23365C2.10555 5.3686 2.10555 5.50355 2.10606 5.6385C2.18762 5.6443 2.26969 5.64938 2.35124 5.65519C2.32867 5.62907 2.28354 5.57683 2.26097 5.55071C2.2502 5.44478 2.23994 5.33885 2.2307 5.23365C2.19942 5.23365 2.13735 5.23365 2.10658 5.23365ZM2.38971 5.48758C2.32098 5.56449 2.24917 5.39109 2.31072 5.32289C2.37894 5.24816 2.45126 5.41938 2.38971 5.48758ZM2.6195 5.28298C2.57488 5.41575 2.53897 5.55361 2.50409 5.69219C2.59026 5.69727 2.67644 5.70235 2.76261 5.7067C2.74414 5.5478 2.71183 5.38818 2.6195 5.28298Z" fill="#131212"/>
<path d="M17.3414 4.34703C17.3799 4.34341 17.4563 4.3376 17.4948 4.33397C17.4948 4.46893 17.4661 4.59735 17.4312 4.72141C17.3912 4.72141 17.3107 4.72141 17.2701 4.72141C17.2804 4.59082 17.2322 4.41378 17.3414 4.34703Z" fill="#2C2E2C"/>
<path d="M2.18762 5.54635C2.23378 5.49774 2.23327 5.31781 2.15992 5.33087C2.11427 5.37803 2.11427 5.55869 2.18762 5.54635Z" fill="#2C2E2C"/>
<path d="M18.8617 6.10067C18.8643 5.94177 18.8151 5.67477 18.9746 5.6414C19.1469 5.67622 19.07 5.95411 19.0208 6.09849C18.9813 6.09922 18.9012 6.09994 18.8617 6.10067Z" fill="#2C2E2C"/>
<path d="M2.2743 7.55393C2.6154 7.3885 2.98163 7.50749 3.334 7.47557C3.67202 7.42913 4.01158 7.47339 4.35011 7.46469C5.35133 7.5815 6.34948 7.74765 7.34609 7.92395C7.56409 7.95806 7.77387 8.05383 7.98212 8.14815C8.62687 8.39556 9.28084 8.59653 9.91174 8.91142C10.1359 9.00791 10.3739 9.02968 10.5929 9.15375C10.8391 9.26258 11.0104 9.55715 11.1735 9.8227C11.2489 10.0527 11.2535 10.3161 11.272 10.5649C11.2956 10.8247 11.2033 11.0597 11.1228 11.2818C11.1956 11.2629 11.2684 11.2448 11.3413 11.2288C11.1915 11.4124 11.0253 11.6888 10.8047 11.6315C10.5832 11.5763 10.3611 11.5335 10.1374 11.5001C9.91276 11.4733 9.72709 11.2527 9.50243 11.2302C9.21211 11.2027 8.92334 11.1403 8.63199 11.1562C8.38682 11.1715 8.17139 10.9444 7.92672 10.9734C7.70565 10.9843 7.49176 10.8943 7.28557 10.7927C7.12451 10.7071 6.94909 10.7398 6.78342 10.6861C6.60954 10.6302 6.43104 10.6331 6.25459 10.6041C6.04481 10.5736 5.86118 10.3777 5.64575 10.3988C5.44469 10.4089 5.24311 10.4024 5.04409 10.356C4.73326 10.3103 4.44089 10.134 4.12801 10.1078C3.87257 9.93951 3.59098 9.91194 3.31451 9.86986C3.09088 9.85172 2.85545 9.87929 2.64463 9.74869C2.41792 9.56731 2.36458 9.18204 2.22711 8.89908C2.11889 8.83741 2.01066 8.28382 1.9168 8.35638C1.85986 8.20909 1.8655 8.03786 1.86858 7.87679C1.86499 7.77522 1.89064 8.30776 1.92244 8.21997C1.85576 8.19603 1.83473 8.11767 1.88551 8.04802C1.96245 7.90364 1.98142 7.67219 2.12402 7.62431C2.15684 7.60907 2.22199 7.5786 2.2543 7.56336C2.25943 7.56046 2.26917 7.5561 2.2743 7.55393ZM2.56051 8.08938C2.63797 8.09953 2.72568 8.07487 2.79133 8.14815C2.93905 8.27947 2.9647 8.56098 3.11088 8.69593C3.19654 8.62192 3.28271 8.5501 3.37247 8.48625C3.38837 8.61902 3.38683 8.76703 3.45249 8.87586C3.44377 8.77066 3.43043 8.66691 3.42479 8.5617C3.46685 8.40136 3.60996 8.40644 3.70844 8.43473C4.36652 8.60088 5.0205 8.80258 5.68525 8.91069C6.31666 9.01589 6.9414 9.19365 7.57434 9.28652C7.72207 9.30684 7.86466 9.36851 8.00982 9.41421C7.99187 9.43743 7.95647 9.48386 7.93852 9.50708C7.97904 9.71459 8.15138 9.63405 8.2632 9.64856C8.24422 9.56875 8.22422 9.48967 8.20319 9.41204C8.37656 9.40623 8.55044 9.4222 8.72124 9.46355C8.94283 9.4991 9.14851 9.66308 9.37625 9.6268C9.36342 9.52667 9.36496 9.38519 9.27058 9.37504C8.57455 9.12037 7.83748 9.10731 7.16042 8.74527C6.74238 8.65747 6.32025 8.51309 5.89555 8.57404C5.57394 8.57041 5.28824 8.31357 4.96972 8.28455C4.67581 8.24755 4.38345 8.17644 4.08851 8.1583C3.90899 8.18225 3.72844 8.17136 3.55302 8.10461C3.46685 8.16919 3.3853 8.2947 3.28117 8.27874C3.11909 8.17644 2.98111 8.00231 2.80826 7.93484C2.71234 7.92395 2.63848 8.02771 2.56051 8.08938ZM2.11735 8.05963C2.07837 8.06108 1.96655 8.15032 2.04297 8.19966C2.10555 8.21054 2.16146 8.18732 2.2107 8.13001C2.27276 8.04584 2.1512 8.02698 2.11735 8.05963ZM3.59303 9.29232C3.5243 9.34238 3.52327 9.391 3.58893 9.43961C3.65766 9.38882 3.65868 9.33948 3.59303 9.29232ZM9.18954 10.5954C9.34239 10.4837 9.19672 10.837 9.18954 10.5954Z" fill="#131212"/>
<path d="M13.9844 0.303592C14.0203 0.204193 14.0736 0.18025 14.1434 0.231038C14.1413 0.297062 14.129 0.359458 14.1075 0.418953C14.0608 0.393559 14.0197 0.355105 13.9844 0.303592Z" fill="#595C5C"/>
<path d="M10.4406 0.392109C10.9771 0.196213 11.5557 0.305044 12.066 0.589456C11.8147 0.653304 11.5916 0.868062 11.3346 0.886926C11.3428 0.849924 11.3587 0.77592 11.3669 0.738918C11.0612 0.609046 10.7263 0.598163 10.4406 0.392109Z" fill="#595C5C"/>
<path d="M13.3252 1.3919C13.4463 1.37159 13.575 1.29468 13.6946 1.3578C13.7925 1.40932 13.811 1.56676 13.8474 1.68792C13.6376 1.74959 13.5094 1.47099 13.3252 1.3919Z" fill="#595C5C"/>
<path d="M2.86724 1.46156C2.92007 1.4202 2.97342 1.37885 3.02625 1.33749C3.11345 1.4797 3.17756 1.64584 3.22885 1.81852C3.1791 1.87366 3.12986 1.92953 3.07549 1.97597C2.99086 1.8178 2.92161 1.64439 2.86724 1.46156Z" fill="#595C5C"/>
<path d="M7.46612 1.53556C7.64667 1.50799 7.82927 1.50872 8.00982 1.54064L7.98109 1.60521C7.82414 1.67414 7.65795 1.63061 7.49997 1.59578L7.46612 1.53556Z" fill="#595C5C"/>
<path d="M9.63476 2.19435C9.63989 1.91502 9.70401 1.50944 9.94918 1.50219C9.98047 1.50944 10.0425 1.52395 10.0738 1.53121C10.1046 1.63278 10.1359 1.73508 10.1677 1.83739C9.99535 1.97088 9.8189 2.09496 9.63476 2.19435Z" fill="#595C5C"/>
<path d="M12.303 2.62822C12.6102 2.38372 12.8559 1.99555 13.1821 1.80183C13.1775 1.83884 13.1688 1.91284 13.1642 1.94985C12.8836 2.26836 12.5846 2.55422 12.2917 2.84879C12.2943 2.79365 12.3004 2.68337 12.303 2.62822Z" fill="#595C5C"/>
<path d="M14.488 2.30173C14.5696 2.34817 14.6589 2.0964 14.5696 2.05142C14.505 2.08189 14.4562 2.21176 14.488 2.30173Z" fill="#595C5C"/>
<path d="M3.294 2.26981L3.32785 2.24006C3.32939 2.40984 3.33298 2.58034 3.32734 2.75084C3.31656 2.79365 3.29605 2.87926 3.28579 2.92134C3.28374 2.78204 3.26527 2.64491 3.2586 2.50634C3.2704 2.42725 3.28169 2.34817 3.294 2.26981Z" fill="#595C5C"/>
<path d="M3.5007 2.28505C3.5561 2.48022 3.54635 2.70078 3.54174 2.91264C3.52635 2.92642 3.49506 2.95472 3.47967 2.9685C3.47916 2.92932 3.47762 2.85024 3.47711 2.81034C3.4766 2.63476 3.48326 2.45918 3.5007 2.28505Z" fill="#595C5C"/>
<path d="M3.5997 2.2865L3.63458 2.32568C3.63355 2.54261 3.63817 2.76028 3.63971 2.97866C3.62329 2.95472 3.59098 2.90683 3.57457 2.88289C3.57816 2.68337 3.58482 2.48457 3.5997 2.2865Z" fill="#595C5C"/>
<path d="M5.38057 2.58759C5.39698 2.48602 5.40673 2.37066 5.47597 2.31116C5.49546 2.40476 5.51342 2.49908 5.53188 2.5934C5.49393 2.59195 5.41801 2.58905 5.38057 2.58759Z" fill="#595C5C"/>
<path d="M3.70485 2.49618C3.77204 2.57671 3.77255 2.86185 3.70331 2.94093C3.66125 2.80598 3.66279 2.6304 3.70485 2.49618Z" fill="#595C5C"/>
<path d="M3.80795 2.49763C3.87463 2.57744 3.87616 2.86258 3.80692 2.94021C3.76383 2.80671 3.76537 2.63113 3.80795 2.49763Z" fill="#595C5C"/>
<path d="M7.49279 2.67321C7.51895 2.59413 7.54562 2.51577 7.56973 2.43668C7.57281 2.50198 7.57845 2.63258 7.58153 2.69715C7.6954 2.69353 7.80926 2.68845 7.92313 2.68119C7.91647 2.60428 7.91031 2.5281 7.90467 2.45192C8.07598 2.56656 8.26731 2.54479 8.45042 2.53028C8.44837 2.61226 8.44786 2.69498 8.44786 2.77841C8.0129 2.87999 7.51023 3.07153 7.1122 2.70586C7.17375 2.67321 7.23582 2.64201 7.29788 2.61081C7.36251 2.63185 7.42765 2.6529 7.49279 2.67321ZM8.26577 2.70078C8.29141 2.73706 8.29141 2.73706 8.26577 2.70078Z" fill="#595C5C"/>
<path d="M6.14175 2.68627H6.19253C6.20945 2.93295 6.21766 3.18181 6.20279 3.42922L6.15201 3.39585C6.11456 3.16295 6.13508 2.92207 6.14175 2.68627Z" fill="#595C5C"/>
<path d="M6.30229 2.81687C6.51208 2.80526 6.72238 2.80889 6.93114 2.77261C7.01013 2.74649 7.03783 2.88144 7.08194 2.94456C6.86702 3.04469 6.64647 3.11724 6.42847 3.20358C6.50285 3.25872 6.57414 3.33926 6.66339 3.33635C6.8978 3.35232 7.13426 3.34579 7.36712 3.40165C7.36302 3.31676 7.35943 3.2326 7.35635 3.14917C7.42355 3.24711 7.48664 3.35087 7.54665 3.45897C7.15734 3.4996 6.76341 3.85076 6.37769 3.59682C6.23767 3.39803 6.30691 3.07008 6.30229 2.81687Z" fill="#595C5C"/>
<path d="M1.68495 3.18762C1.85986 2.94819 2.12248 2.94746 2.34304 2.84661C2.35227 2.96198 2.3574 3.07879 2.36253 3.1956C2.25789 3.20576 2.15325 3.22317 2.04913 3.23913C1.92757 3.22607 1.80652 3.20286 1.68495 3.18762Z" fill="#595C5C"/>
<path d="M5.40827 3.09112C5.45905 3.01784 5.51034 2.94529 5.56112 2.87273C5.55907 2.91772 5.55548 3.00696 5.55343 3.05194C5.73346 2.97794 5.91555 2.90611 6.10328 2.88216C6.11713 3.08822 6.11764 3.29572 6.10431 3.50178C5.98941 3.52137 5.98326 3.36247 5.95299 3.24856C5.82374 3.21229 5.70679 3.10926 5.5724 3.10781C5.5683 3.25437 5.57189 3.40165 5.58266 3.54894C5.61959 3.55039 5.69345 3.55402 5.73038 3.55619C5.7391 3.50395 5.75603 3.4002 5.76475 3.34796C5.81963 3.34941 5.87452 3.35014 5.92991 3.35232C5.92991 3.45897 5.9294 3.56708 5.92837 3.67518C5.76783 3.65414 5.61087 3.60118 5.45494 3.54531C5.29286 3.51484 5.12821 3.52282 4.9651 3.5308C4.96972 3.48654 4.97895 3.39875 4.98357 3.35449C5.08769 3.39222 5.20925 3.52645 5.30107 3.38351C5.34005 3.38787 5.37903 3.39222 5.41853 3.3973C5.41442 3.36538 5.4057 3.30153 5.4016 3.27033C5.45135 3.28412 5.50111 3.2979 5.55086 3.31169C5.54419 3.28339 5.53034 3.22535 5.52368 3.19705C5.29799 3.20068 5.07538 3.30588 4.84867 3.25147C5.01332 3.10128 5.22156 3.13175 5.40827 3.09112Z" fill="#595C5C"/>
<path d="M4.19623 3.41762C4.44243 3.26525 4.70608 3.39512 4.9333 3.54894C4.66709 3.53153 4.40191 3.48582 4.13724 3.43938L4.19623 3.41762Z" fill="#595C5C"/>
<path d="M10.5052 3.65632C10.5375 3.63092 10.5698 3.60626 10.6026 3.58159C10.6114 3.60263 10.6288 3.64398 10.6375 3.6643C10.6119 3.76152 10.5811 3.85584 10.5508 3.95016C10.4026 3.98934 10.2564 4.04448 10.1149 4.11921C10.1282 4.03578 10.141 3.95307 10.1544 3.87035C10.1036 3.87471 10.0528 3.87906 10.002 3.88486C10.002 3.84496 10.0025 3.76515 10.0025 3.72597C10.1713 3.76515 10.3559 3.80941 10.5052 3.65632Z" fill="#595C5C"/>
<path d="M10.7083 3.62294C10.7499 3.62439 10.7914 3.62875 10.833 3.63455C10.8858 3.68316 10.9386 3.73177 10.993 3.77893L11.0309 3.81231C10.9417 3.90735 10.8489 3.99515 10.7545 4.07931C10.6991 3.93783 10.6996 3.77894 10.7083 3.62294Z" fill="#595C5C"/>
<path d="M10.5657 4.34776C10.5534 4.0619 10.239 4.10615 10.1277 4.26505C10.2528 4.41233 10.4175 4.36735 10.5657 4.34776Z" fill="#595C5C"/>
<path d="M19.8661 4.70618C19.8455 4.5364 19.905 4.35864 20.0415 4.37025C20.1861 4.59009 20.3913 4.68949 20.5657 4.85128C21.2638 5.43825 21.9783 5.99111 22.6676 6.59621C22.642 6.60129 22.5912 6.61217 22.5656 6.61798C22.663 6.74785 22.7692 6.86394 22.8754 6.9793C22.7913 6.9793 22.7071 6.9822 22.624 6.96696C22.4081 6.74858 22.1727 6.57517 21.9444 6.38508C21.7593 6.23489 21.5864 6.02448 21.3653 5.99764C21.3464 5.99256 21.3074 5.9824 21.2884 5.97732C21.2551 5.91348 21.2212 5.85035 21.1884 5.78723C21.1571 5.7749 21.0955 5.74878 21.0648 5.73644L21.0448 5.72774C21.0247 5.71613 20.9847 5.69291 20.9652 5.6813L20.9442 5.66824C20.9222 5.65446 20.8775 5.62616 20.8555 5.61165L20.8262 5.59569C20.8093 5.59279 20.775 5.58843 20.758 5.58553C20.7503 5.58771 20.7355 5.59206 20.7278 5.59424L20.6837 5.62181C20.6652 5.57973 20.6462 5.5391 20.6267 5.49992C20.6744 5.46872 20.7226 5.43825 20.7703 5.40777C20.4764 5.15601 20.1774 4.91151 19.8661 4.70618Z" fill="#595C5C"/>
<path d="M8.43811 4.95649C8.67098 4.84548 8.90846 4.92964 9.1362 5.01743C8.91359 5.11538 8.69252 5.21986 8.46478 5.29024C8.45606 5.1785 8.44786 5.06677 8.43811 4.95649Z" fill="#595C5C"/>
<path d="M9.148 6.26464C9.1957 6.02449 8.98386 5.74152 9.16903 5.56377C9.20083 5.68493 9.23417 5.809 9.23314 5.94105C9.22647 6.05641 9.26033 6.23997 9.148 6.26464Z" fill="#595C5C"/>
<path d="M8.55865 5.88155L8.59814 5.88518C8.61096 6.08253 8.63353 6.2777 8.65661 6.47359C8.50838 6.3488 8.57249 6.08253 8.55865 5.88155Z" fill="#595C5C"/>
<path d="M23.0549 6.95173C23.1534 6.97494 23.238 7.0504 23.3252 7.11425C23.4606 7.18753 23.6068 7.19406 23.7468 7.24412C23.8884 7.3885 23.8325 7.6497 23.7884 7.84414C23.7504 7.68235 23.7356 7.50169 23.6643 7.36166C23.5263 7.15053 23.3073 7.25283 23.1365 7.29854C23.0677 7.20349 23.0185 7.08813 23.0549 6.95173Z" fill="#595C5C"/>
<path d="M23.6325 7.03589C23.6981 7.03807 23.7648 7.04097 23.831 7.04387C24.012 7.19986 24.0618 7.54449 23.9105 7.76869C23.9033 7.60979 23.9064 7.4451 23.8689 7.29346C23.8186 7.16576 23.7176 7.10482 23.6325 7.03589Z" fill="#595C5C"/>
<path d="M16.6741 9.34964C16.8188 9.31482 16.9978 9.39535 16.9685 9.64711C16.8778 9.72112 16.7983 9.81834 16.7244 9.92282C16.6716 9.83068 16.6192 9.73926 16.5669 9.64784C16.6033 9.54916 16.6392 9.44904 16.6741 9.34964Z" fill="#595C5C"/>
<path d="M16.9275 10.5374C17.107 10.5228 17.2866 10.4931 17.461 10.4292C17.4928 10.43 17.5569 10.4307 17.5887 10.4307C17.6102 10.4416 17.6528 10.4626 17.6738 10.4735C17.7205 10.4953 17.7672 10.517 17.8138 10.5395C17.8251 10.5794 17.8472 10.6585 17.858 10.6984C17.3938 10.8189 16.9208 10.8377 16.4541 10.9357C16.0125 10.9661 15.5765 11.0909 15.1343 11.1047C15.0718 11.1388 15.0169 11.194 14.9599 11.2433C14.9374 11.2252 14.8917 11.1896 14.8691 11.1722C14.9681 10.9183 15.1574 10.816 15.3503 10.7768C15.877 10.7115 16.4013 10.6121 16.9275 10.5374Z" fill="#595C5C"/>
<path d="M1.22025 8.02916C1.43978 8.01392 1.66033 7.98345 1.86858 7.87679C1.8655 8.03786 1.85986 8.20909 1.9168 8.35638C1.98707 8.54357 2.02707 8.7518 2.1035 8.93463C2.21788 9.12908 2.3692 9.27274 2.48409 9.46791C3.04677 9.49838 3.59816 9.67976 4.15109 9.81544C4.91894 9.94676 5.67704 10.1811 6.44591 10.311C6.97987 10.4735 7.52459 10.5497 8.06316 10.6803C7.97648 10.7659 7.89903 10.8682 7.82773 10.9778C7.87902 11.0576 7.91749 11.1722 8.00418 11.1802C8.83409 11.4305 9.72093 11.5466 10.4426 12.2366C10.4636 12.2678 10.5057 12.3302 10.5267 12.3614C10.3908 12.5609 10.2 12.6451 10.0318 12.7742C9.86404 12.8823 9.68913 13.039 9.49679 12.9911C7.0327 12.3592 4.56707 11.7418 2.10247 11.1134C1.73625 11.0314 1.37977 10.8406 1.0833 10.5228C1.01867 10.4612 1.00277 10.3197 1.05611 10.237C1.20178 10.1369 1.36027 10.0774 1.50082 9.96128C1.17357 9.77626 0.803752 9.82125 0.47548 9.64349C0.291341 9.43018 0.08771 9.19728 0 8.87587C0.0661672 8.64007 0.273388 8.59508 0.409313 8.46376C0.426753 8.3825 0.445218 8.30196 0.464196 8.22143C0.710399 8.22941 1.05047 8.36001 1.22025 8.02916Z" fill="black" fill-opacity="0.15"/>
<path d="M12.0399 9.93515C12.045 9.91847 12.0552 9.88437 12.0599 9.86768C12.6051 10.0853 13.1575 10.2667 13.7089 10.4503C13.9238 10.525 14.1449 10.5773 14.3501 10.6991C14.4486 10.8515 14.5747 10.9429 14.7178 10.8486C14.964 10.8239 15.1969 11.0075 15.4431 11.0314C15.8196 11.0815 16.1869 11.2049 16.5474 11.363C16.9393 11.4319 17.2881 11.7164 17.6769 11.8027C18.0118 11.942 18.3729 11.9036 18.6976 12.0958C18.7899 12.1466 18.8889 12.2235 18.9233 12.365C18.9248 12.4775 18.8582 12.5602 18.8048 12.6305C18.6048 12.8743 18.3273 12.8903 18.0811 12.9744C17.8641 13.0419 17.6615 12.7445 17.4497 12.8801C17.2912 12.9788 17.1306 12.8344 16.9747 12.796C16.5736 12.69 16.1638 12.6741 15.7601 12.6066C15.4375 12.4426 15.0902 12.542 14.7609 12.4317C14.507 12.3505 14.2449 12.3606 13.988 12.3091C13.81 12.283 13.612 12.2351 13.454 12.3868C13.3135 12.5275 13.1201 12.5544 12.9724 12.4187C12.619 12.1067 12.2209 11.8767 11.8029 11.8252C11.468 11.778 11.1556 11.5524 10.8981 11.2535C11.073 11.1388 11.25 11.03 11.4264 10.9197C11.7449 11.0655 12.0706 11.1969 12.4087 11.1983C12.6072 11.1903 12.7728 11.3775 12.9647 11.4087C13.0908 11.3449 13.2022 11.2346 13.3165 11.1381C13.1945 11.0924 13.0734 11.0438 12.9498 11.009C12.7256 10.9357 12.5005 11.0641 12.2748 11.0271C12.0332 10.9937 11.7931 10.9299 11.5623 10.8232C11.7198 10.6447 11.9234 10.5185 12.0147 10.25C11.8998 10.2914 11.787 10.34 11.6731 10.3857C11.7778 10.2914 11.888 10.2101 11.9988 10.1311C12.0111 10.065 12.024 9.999 12.0399 9.93515Z" fill="black" fill-opacity="0.06"/>
<path d="M14.4978 0.270942C14.6358 0.273118 14.7691 0.325358 14.8907 0.418953C14.8738 0.439993 14.8394 0.482075 14.8225 0.503116C14.7922 0.49586 14.7317 0.479897 14.7019 0.471916C14.6322 0.408068 14.5645 0.339868 14.4978 0.270942Z" fill="black"/>
<path d="M9.02951 1.03204C9.16544 1.00737 9.30187 0.979798 9.4378 0.952228C9.43421 1.41948 9.34137 1.88164 9.39625 2.34962C9.27674 2.44974 9.15415 2.54261 9.03105 2.63476C8.99309 2.6246 8.91667 2.60428 8.8782 2.59413C8.86845 2.49763 8.85973 2.40186 8.85204 2.30536C8.90384 1.87874 8.93718 1.44559 9.02951 1.03204Z" fill="black"/>
<path d="M10.0236 0.957305C10.1451 0.939892 10.2682 0.939166 10.3903 0.955128C10.4047 1.18803 10.4108 1.42238 10.4082 1.65745C10.3277 1.71622 10.2477 1.77644 10.1677 1.83739C10.1359 1.73508 10.1046 1.63278 10.0738 1.53121C10.0425 1.52395 9.98047 1.50944 9.94918 1.50219C9.98663 1.32443 10.0077 1.14087 10.0236 0.957305Z" fill="black"/>
<path d="M10.7227 1.07484C10.8386 1.09298 10.9545 1.11983 11.0699 1.1503C10.9632 1.2809 10.834 1.36433 10.7073 1.44777C10.7119 1.32298 10.717 1.19891 10.7227 1.07484Z" fill="black"/>
<path d="M16.45 1.32298C16.5772 1.2526 16.4187 1.07557 16.3859 1.2555C16.4023 1.27219 16.4341 1.30629 16.45 1.32298Z" fill="black"/>
<path d="M11.1463 3.34579C11.2105 3.33998 11.2746 3.33635 11.3392 3.33563C11.3161 3.60263 11.1192 3.64471 10.993 3.77893C10.9386 3.73177 10.8858 3.68316 10.833 3.63455C10.814 3.59465 10.776 3.51484 10.757 3.47493C10.8576 3.49888 10.9576 3.52935 11.0581 3.55692C11.0874 3.48582 11.1166 3.41544 11.1463 3.34579Z" fill="black"/>
<path d="M11.8875 4.207C11.9942 4.04811 12.1245 3.92622 12.2676 3.84278C12.2343 4.06045 12.0558 4.12139 11.9275 4.18887L11.8875 4.207Z" fill="black"/>
<path d="M12.1419 4.2382C12.1732 4.2012 12.2353 4.12792 12.2666 4.09092C12.3107 4.19685 12.344 4.31076 12.3671 4.42902C12.2963 4.40435 12.2261 4.37823 12.1563 4.35066C12.1527 4.32237 12.1455 4.26577 12.1419 4.2382Z" fill="black"/>
<path d="M3.58893 9.43961C3.65766 9.38882 3.65868 9.33948 3.59303 9.29232C3.5243 9.34238 3.52327 9.391 3.58893 9.43961Z" fill="black"/>
<path d="M8.00982 9.41421C8.07393 9.41349 8.13856 9.41276 8.20319 9.41204C8.22422 9.48967 8.24422 9.56875 8.2632 9.64856C8.15138 9.63405 7.97904 9.71459 7.93852 9.50708C7.95647 9.48386 7.99187 9.43743 8.00982 9.41421Z" fill="black"/>
<path d="M9.18954 10.5954C9.34239 10.4837 9.19672 10.837 9.18954 10.5954Z" fill="black"/>
<path d="M8.64943 0.560432C8.75869 0.40952 8.9218 0.431287 9.06234 0.411698C9.8148 0.443622 10.5673 0.591631 11.2941 0.873141C11.2453 0.93191 11.1966 0.992131 11.1489 1.05235C10.6683 0.878221 10.1733 0.816551 9.68195 0.741095C9.43472 0.710622 9.17518 0.691756 8.93872 0.818726C8.87307 0.847748 8.84229 0.939167 8.80741 1.01462C8.72791 1.0451 8.64841 1.07339 8.56942 1.10241C8.55454 0.915947 8.55403 0.706992 8.64943 0.560432Z" fill="#AD7B1A"/>
<path d="M3.64176 2.10656C3.67818 2.18492 3.71562 2.264 3.75255 2.34236C3.85616 2.34817 3.95926 2.35542 4.06184 2.37211C4.22136 2.66813 4.21521 3.06428 4.19623 3.41762L4.13724 3.43938C3.54584 3.35667 2.95393 3.27323 2.36253 3.1956C2.3574 3.07879 2.35227 2.96198 2.34304 2.84661C2.31841 2.63185 2.30046 2.41564 2.30405 2.19798L2.34406 2.19871C2.53179 2.20016 2.72003 2.21249 2.90725 2.23498C2.91854 2.27779 2.94213 2.36413 2.95341 2.40694C2.95906 2.57889 2.9688 2.75012 2.98573 2.92062C3.00727 2.80018 3.0324 2.68046 3.036 2.55567C3.04779 2.44249 3.06574 2.33075 3.08575 2.21975C3.12268 2.35034 3.14781 2.4853 3.15858 2.62532C3.17038 2.72472 3.18833 2.82194 3.20423 2.92062C3.21501 2.80018 3.22424 2.68119 3.23655 2.5622L3.2586 2.50634C3.26527 2.64491 3.28374 2.78204 3.28579 2.92134C3.29605 2.87926 3.31656 2.79365 3.32734 2.75084L3.37658 2.75592C3.37812 2.81251 3.38171 2.92642 3.38324 2.98302C3.39863 2.94964 3.42992 2.88289 3.44582 2.84952L3.47711 2.81034C3.47762 2.85024 3.47916 2.92932 3.47967 2.9685C3.49506 2.95472 3.52635 2.92642 3.54174 2.91264L3.57457 2.88289C3.59098 2.90683 3.62329 2.95472 3.63971 2.97866C3.63817 2.76028 3.63355 2.54261 3.63458 2.32568C3.63663 2.27054 3.63971 2.1617 3.64176 2.10656ZM3.70331 2.94093C3.66125 2.80598 3.66279 2.6304 3.70485 2.49618C3.77204 2.57671 3.77255 2.86185 3.70331 2.94093ZM3.80692 2.94021C3.76383 2.80671 3.76537 2.63113 3.80795 2.49763C3.87463 2.57744 3.87616 2.86258 3.80692 2.94021ZM3.91002 3.01494C3.86334 2.88289 3.87822 2.71021 3.91361 2.57599C3.97362 2.66087 3.99157 2.94456 3.91002 3.01494Z" fill="#AD7B1A"/>
<path d="M8.33142 3.17819C8.32168 3.07879 8.28577 3.06137 8.22473 3.1274C8.23499 3.2268 8.27038 3.24349 8.33142 3.17819Z" fill="#AD7B1A"/>
<path d="M2.03323 3.31386C2.68259 3.54313 3.36324 3.44881 4.01517 3.65051C4.39627 3.74774 4.78609 3.73177 5.16668 3.82972C5.25029 4.06988 5.33184 4.32309 5.47084 4.51173C5.73705 4.62927 6.02224 4.64088 6.29973 4.64233C6.33666 4.43773 6.36333 4.22877 6.38488 4.01982C6.42591 4.07713 6.4813 4.13082 6.48284 4.22224C6.52901 4.58283 6.48746 4.98696 6.61979 5.31491C6.81368 5.4114 7.02449 5.38238 7.22607 5.38166C7.03372 5.61673 7.06142 5.99691 7.09784 6.31688C7.09527 6.38508 7.15323 6.48883 7.20094 6.42499C7.38456 6.26101 7.5964 6.0731 7.64051 5.74733C7.68821 5.69582 7.73643 5.64575 7.7867 5.60004C7.8108 5.59714 7.85953 5.59061 7.88364 5.58698C7.88364 5.8119 7.88415 6.03682 7.89595 6.26101C8.05188 6.14492 7.95032 5.84745 7.95494 5.65156C8.01238 5.7125 8.08009 5.7749 8.09342 5.88518C8.15446 6.18773 8.17241 6.50262 8.2037 6.81315C7.57076 6.69053 6.9337 6.60347 6.30229 6.46126C5.76475 6.40104 5.22721 6.30672 4.6953 6.19136C4.46859 5.83947 4.35729 5.3715 4.15366 4.99422C4.11673 4.91223 4.04748 4.89191 3.9849 4.87958C3.32323 4.77365 2.65797 4.70182 1.99989 4.55599C1.98399 4.14243 1.9568 3.71944 2.03323 3.31386Z" fill="#AD7B1A"/>
<path d="M8.28987 5.48541C8.3663 5.58553 8.50069 5.67695 8.45504 5.85688C8.41554 6.12461 8.42323 6.39741 8.4853 6.65788C8.4535 6.67892 8.3899 6.721 8.35809 6.74132C8.34681 6.32123 8.28782 5.90695 8.28987 5.48541Z" fill="#AD7B1A"/>
<path d="M6.09969 0.956579C6.1238 0.931185 6.1715 0.879671 6.19561 0.854278C6.24074 1.10749 6.31922 1.34474 6.44335 1.54064C6.51772 1.67849 6.58697 1.82215 6.64903 1.97234C6.74187 2.16025 6.78803 2.46933 6.98141 2.48529C6.97833 2.30246 6.9573 2.1218 6.92345 1.94549C6.84702 1.94259 6.77111 1.94114 6.69468 1.94186C6.71366 1.86496 6.73161 1.78732 6.74802 1.70969C6.97422 1.73291 7.1953 1.83231 7.42406 1.80836L7.41739 1.86423C7.22966 2.02095 7.32301 2.35833 7.29788 2.61081C7.23582 2.64201 7.17375 2.67321 7.1122 2.70586C7.51023 3.07153 8.0129 2.87999 8.44786 2.77841C8.44734 2.85677 8.44734 2.93585 8.44683 3.01566C8.2037 3.07588 7.95596 3.07081 7.71078 3.10636C7.86261 3.25437 8.037 3.34724 8.19088 3.48944C8.2868 3.57651 8.29603 3.75064 8.31911 3.8943C8.35963 4.24763 8.39913 4.6017 8.43811 4.95649C8.44786 5.06677 8.45606 5.1785 8.46478 5.29024C8.69252 5.21986 8.91359 5.11538 9.1362 5.01743C9.19724 5.01598 9.25879 5.01453 9.32034 5.01308C9.40907 5.41431 9.42395 5.83512 9.4419 6.25158C9.16851 6.39814 8.89 6.52366 8.60686 6.62596C8.62122 6.7123 8.6361 6.79864 8.65149 6.88498C8.56275 7.05185 8.42272 7.11643 8.28321 7.15706C8.27654 7.07072 8.27038 6.9851 8.26372 6.89949C8.35194 6.91908 8.44016 6.93867 8.5289 6.95826C8.51556 6.85741 8.50171 6.75728 8.4853 6.65788C8.42323 6.39741 8.41554 6.12461 8.45504 5.85688C8.50069 5.67695 8.3663 5.58553 8.28987 5.48541C8.28782 5.90695 8.34681 6.32123 8.35809 6.74132C8.30731 6.76816 8.25602 6.79211 8.2037 6.81315C8.17241 6.50262 8.15446 6.18773 8.09342 5.88518C8.08009 5.7749 8.01238 5.7125 7.95494 5.65156C7.93698 5.63559 7.90159 5.60294 7.88364 5.58698C7.85953 5.59061 7.8108 5.59714 7.7867 5.60004C7.76772 5.49557 7.74874 5.39109 7.72925 5.28806C7.94211 5.32506 8.15498 5.35989 8.36989 5.36787C8.35809 5.19011 8.34373 5.01308 8.32527 4.83677C8.28115 4.48053 8.27705 4.11341 8.20627 3.76442C8.15498 3.47784 7.92108 3.41689 7.76208 3.29137C7.53793 3.17238 7.33378 2.90974 7.08194 2.94456C7.03783 2.88144 7.01013 2.74649 6.93114 2.77261C6.72238 2.80889 6.51208 2.80526 6.30229 2.81687C6.30691 3.07008 6.23767 3.39803 6.37769 3.59682C6.76341 3.85076 7.15734 3.4996 7.54665 3.45897C7.60153 3.47638 7.65641 3.49597 7.71078 3.51629C7.80567 3.94509 7.86466 4.38621 7.93391 4.82371C7.87082 4.85056 7.80824 4.88248 7.74617 4.91368C7.74053 4.79977 7.7354 4.68659 7.72976 4.5734C7.59538 4.66047 7.47381 4.78163 7.37174 4.93182C7.23428 4.55889 7.08553 4.19322 6.92345 3.83988C7.03578 4.27158 7.2353 4.64015 7.37636 5.05226C7.25223 5.09724 7.12861 5.14223 7.00705 5.19737C7.14246 5.20825 7.27787 5.21188 7.41329 5.22929C7.41688 5.26484 7.42457 5.33595 7.42816 5.3715C7.36046 5.37512 7.29326 5.37803 7.22607 5.38166C7.02449 5.38238 6.81368 5.4114 6.61979 5.31491C6.48746 4.98696 6.52901 4.58283 6.48284 4.22224C6.4813 4.13082 6.42591 4.07713 6.38488 4.01982C5.98172 3.92404 5.57086 3.91824 5.16668 3.82972C4.78609 3.73177 4.39627 3.74774 4.01517 3.65051C3.36324 3.44881 2.68259 3.54313 2.03323 3.31386L2.04913 3.23913C2.15325 3.22317 2.25789 3.20576 2.36253 3.1956C2.95393 3.27323 3.54584 3.35667 4.13724 3.43938C4.40191 3.48582 4.66709 3.53153 4.9333 3.54894C4.70608 3.39512 4.44243 3.26525 4.19623 3.41762C4.21521 3.06428 4.22136 2.66813 4.06184 2.37211C4.17469 2.39388 4.28958 2.42217 4.40294 2.3859C4.98408 2.23281 5.5683 2.05868 6.16329 2.10294C6.15714 1.96145 6.15252 1.81997 6.15303 1.67849C6.16432 1.43471 6.14688 1.19165 6.09969 0.956579ZM6.26126 1.47969C6.2151 1.56676 6.2269 1.61755 6.29665 1.63206C6.34282 1.54427 6.33102 1.4942 6.26126 1.47969ZM6.42437 1.74161C6.40129 1.88527 6.37769 2.02893 6.35153 2.17258C6.44335 2.25965 6.55465 2.24587 6.6598 2.24587C6.58799 2.07101 6.50849 1.90341 6.42437 1.74161ZM5.38057 2.58759C5.41801 2.58905 5.49393 2.59195 5.53188 2.5934C5.51342 2.49908 5.49546 2.40476 5.47597 2.31116C5.40673 2.37066 5.39698 2.48602 5.38057 2.58759ZM6.14175 2.68627C6.13508 2.92207 6.11456 3.16295 6.15201 3.39585L6.20279 3.42922C6.21766 3.18181 6.20945 2.93295 6.19253 2.68627H6.14175ZM5.40827 3.09112C5.22156 3.13175 5.01332 3.10128 4.84867 3.25147C5.07538 3.30588 5.29799 3.20068 5.52368 3.19705C5.53034 3.22535 5.54419 3.28339 5.55086 3.31169C5.50111 3.2979 5.45135 3.28412 5.4016 3.27033C5.4057 3.30153 5.41442 3.36538 5.41853 3.3973C5.37903 3.39222 5.34005 3.38787 5.30107 3.38351C5.20925 3.52645 5.08769 3.39222 4.98357 3.35449C4.97895 3.39875 4.96972 3.48654 4.9651 3.5308C5.12821 3.52282 5.29286 3.51484 5.45494 3.54531C5.61087 3.60118 5.76783 3.65414 5.92837 3.67518C5.9294 3.56708 5.92991 3.45897 5.92991 3.35232C5.87452 3.35014 5.81963 3.34941 5.76475 3.34796C5.75603 3.4002 5.7391 3.50395 5.73038 3.55619C5.69345 3.55402 5.61959 3.55039 5.58266 3.54894C5.57189 3.40165 5.5683 3.25437 5.5724 3.10781C5.70679 3.10926 5.82374 3.21229 5.95299 3.24856C5.98326 3.36247 5.98941 3.52137 6.10431 3.50178C6.11764 3.29572 6.11713 3.08822 6.10328 2.88216C5.91555 2.90611 5.73346 2.97794 5.55343 3.05194C5.55548 3.00696 5.55907 2.91772 5.56112 2.87273C5.51034 2.94529 5.45905 3.01784 5.40827 3.09112ZM9.148 6.26464C9.26033 6.23997 9.22647 6.05641 9.23314 5.94105C9.23417 5.809 9.20083 5.68493 9.16903 5.56377C8.98386 5.74152 9.1957 6.02449 9.148 6.26464ZM8.55865 5.88155C8.57249 6.08253 8.50838 6.3488 8.65661 6.47359C8.63353 6.2777 8.61096 6.08253 8.59814 5.88518L8.55865 5.88155Z" fill="#DA9C25"/>
<path d="M2.34406 2.19871C2.45024 2.01369 2.61694 2.00716 2.76876 2.06593C2.9252 2.10366 3.08216 2.13559 3.23911 2.16969L3.22475 2.2299C3.19346 2.3576 3.16782 2.48965 3.15858 2.62532C3.14781 2.4853 3.12268 2.35034 3.08575 2.21975C3.06574 2.33075 3.04779 2.44249 3.036 2.55567C3.0283 2.44539 3.02009 2.33583 3.00984 2.22628C2.99599 2.27126 2.96778 2.36195 2.95341 2.40694C2.94213 2.36413 2.91854 2.27779 2.90725 2.23498C2.72003 2.21249 2.53179 2.20016 2.34406 2.19871Z" fill="#DA9C25"/>
<path d="M3.32785 2.24006C3.3894 2.22265 3.45146 2.20959 3.51404 2.19653C3.53558 2.21902 3.57816 2.26401 3.5997 2.2865C3.58482 2.48457 3.57816 2.68337 3.57457 2.88289L3.54174 2.91264C3.54635 2.70078 3.5561 2.48022 3.5007 2.28505C3.48326 2.45918 3.4766 2.63476 3.47711 2.81034L3.44582 2.84952C3.4371 2.67394 3.43505 2.49763 3.42736 2.32205H3.37914C3.37555 2.46643 3.37504 2.61081 3.37658 2.75592L3.32734 2.75084C3.33298 2.58034 3.32939 2.40984 3.32785 2.24006Z" fill="#DA9C25"/>
<path d="M7.29788 2.61081C7.32301 2.35833 7.22966 2.02095 7.41739 1.86423C7.42765 1.97741 7.43996 2.08987 7.45227 2.20306C7.48253 2.22337 7.54203 2.26255 7.57229 2.28214C7.57127 2.32132 7.57024 2.39823 7.56973 2.43668C7.54562 2.51577 7.51895 2.59413 7.49279 2.67321C7.42765 2.6529 7.36251 2.63185 7.29788 2.61081Z" fill="#674B15"/>
<path d="M7.22607 5.38166C7.29326 5.37803 7.36046 5.37512 7.42816 5.3715C7.43739 5.4767 7.44611 5.58336 7.45483 5.68929C7.5169 5.70887 7.57845 5.72774 7.64051 5.74733C7.5964 6.0731 7.38456 6.26101 7.20094 6.42499C7.15323 6.48883 7.09527 6.38508 7.09784 6.31688C7.06142 5.99691 7.03372 5.61673 7.22607 5.38166Z" fill="#674B15"/>
</svg>
