<svg width="88" height="96" viewBox="0 0 88 96" fill="none" xmlns="http://www.w3.org/2000/svg">
<path d="M31.464 5.12004C32.0507 3.40004 32.6507 1.69333 33.264 0C37.864 0.733333 42.464 2.05334 46.304 4.80001C52.584 8.86668 56.3707 15.52 60.024 21.84C66.1573 22.6533 72.5973 24.12 77.0907 28.7067C80.7707 32.3467 84.4641 36.8534 84.9041 42.1867C84.4374 47.4134 78.3307 48.2 74.3174 49.3067C76.5974 53.7333 79.0107 58.3734 78.904 63.4934C78.9707 68.9467 76.6507 74 75.8774 79.32C76.984 85.2134 82.0507 89.4 86.984 92.32C87.144 93 87.464 94.36 87.6374 95.04C82.5174 95.08 77.2907 95.8133 72.264 94.6667C68.9707 92.7467 66.6507 89.5867 63.4107 87.6134C60.6241 87.1467 57.7174 87.1867 54.9707 87.84C53.1974 89.72 52.3573 92.7334 49.6907 93.56C44.2907 95.2534 38.544 95.08 32.9707 95.1867C26.184 95.12 19.2107 95.32 12.6773 93.2133C7.30399 91.56 3.86401 86.7467 0.490675 82.5734C-0.749325 81.3334 0.703997 79.68 1.104 78.4267C4.41066 72.1867 5.07736 64.6267 10.0507 59.3067C19.544 48.12 34.5307 44.12 48.5307 42.2933C48.2507 38.7333 48.064 35.1734 47.9307 31.6134C35.6373 28.12 24.4773 18.3067 22.1706 5.36003C25.264 5.17336 28.3574 5.12004 31.464 5.12004Z" fill="white"/>
</svg>
