<svg width="141" height="109" viewBox="0 0 141 109" fill="none" xmlns="http://www.w3.org/2000/svg">
<path d="M28.0025 1.37017C29.3097 0.721779 30.7011 -0.430918 32.2402 0.166619C35.7611 1.19218 39.1133 2.72204 42.6468 3.7137C40.9391 4.34514 39.2609 5.16305 38.0507 6.57425C39.3452 6.50221 40.5849 6.11656 41.8246 5.7733C43.2245 5.87924 44.5738 6.36659 45.961 6.59543C48.1031 6.94294 49.659 8.63385 51.4384 9.73993C53.9262 11.4944 56.5911 12.9819 59.0072 14.8381C69.5994 21.6229 79.9343 28.8018 90.4041 35.7688C95.2743 38.7395 99.862 42.1552 104.682 45.2107C107.966 47.5373 111.437 49.5757 114.683 51.9574L114.768 52.2922C114.924 54.2374 116.4 55.5172 117.88 56.5639C117.074 57.4285 116.29 58.3099 115.506 59.1914C116.083 59.6703 116.619 60.2042 117.116 60.7721C118.773 59.5559 120.325 58.187 121.565 56.5343C128.05 62.1918 134.329 68.0951 140.704 73.8756C141.147 74.2231 141.05 74.8291 140.696 75.202C138.946 77.6642 136.711 79.7153 134.738 81.9868C131.579 85.322 128.788 88.9877 125.68 92.3695C121.088 97.5058 116.61 102.744 112.014 107.876C111.462 108.444 110.631 109.52 109.817 108.706C103.724 103.977 97.9139 98.8831 91.9474 93.9969C88.1314 90.454 83.9232 87.3773 79.9807 83.9871C71.8932 77.287 63.9407 70.4175 55.7436 63.853C53.1967 61.59 50.6626 59.3101 47.888 57.331C40.2939 51.131 32.9191 44.6641 25.2701 38.5319C19.7675 33.421 13.7419 28.9459 8.02843 24.0893C5.40991 21.6271 2.17577 19.8302 0 16.9104C2.70285 15.5627 5.30028 14.0244 7.94831 12.5793C14.5768 8.73979 21.3909 5.24357 28.0025 1.37017ZM38.8392 11.007C36.4821 12.5072 34.0702 13.9312 31.7216 15.4441C36.1869 19.1734 41.0487 22.3899 45.7544 25.8014C49.1825 23.6189 52.6865 21.5254 55.8363 18.9403C52.6697 16.8638 49.5705 14.6855 46.4164 12.5878C44.8352 11.5749 43.4648 10.0366 41.5758 9.62974C40.5849 9.90096 39.7162 10.4815 38.8392 11.007ZM28.8838 17.0799C25.9448 18.953 22.795 20.4786 20.012 22.5933C23.3938 25.4454 27.0116 28.0008 30.3554 30.9037C31.5065 31.8954 32.7462 32.7811 33.9859 33.6584C36.4357 32.2175 38.6705 30.4503 41.0951 28.9798C42.3137 28.183 43.722 27.5813 44.6497 26.4159C44.5232 25.8607 43.9539 25.598 43.5702 25.242C40.7072 23.1781 37.7387 21.2626 34.9936 19.0378C33.6781 18.0503 32.4384 16.9061 30.9162 16.245C30.1614 16.1687 29.5331 16.7705 28.8838 17.0799ZM15.6057 19.5421C14.5262 19.8811 13.5395 20.4786 12.6414 21.1609C12.2366 21.5254 11.5788 21.8644 11.7559 22.5213C12.4348 23.6231 13.6154 24.28 14.5979 25.0767C14.9732 24.8012 15.3527 24.5258 15.728 24.2503C15.1587 23.6358 14.5979 23.0213 14.0329 22.4026C14.9352 21.6568 15.787 20.8558 16.546 19.9616C16.3984 19.5972 15.9767 19.3853 15.6057 19.5421ZM55.6255 20.2456C52.5558 22.1399 49.6337 24.28 46.5345 26.1319C48.0567 27.5855 49.7265 28.8653 51.4511 30.0647C55.0942 32.6074 58.438 35.5654 62.2161 37.9089C65.4038 35.2179 69.0385 33.1159 72.1251 30.302C67.9296 27.0134 63.2871 24.3605 59.0536 21.1143C58.0543 20.4702 56.8062 19.2963 55.6255 20.2456ZM43.3341 28.2297C40.3951 30.1197 37.5152 32.1031 34.7196 34.205C38.4892 37.4894 42.5878 40.3626 46.4122 43.5792C47.6519 44.5454 48.8368 45.6684 50.321 46.2405C51.6619 45.7489 52.7877 44.8251 53.9431 44.0114C56.3761 42.151 58.9187 40.4262 61.1704 38.3369C57.7886 35.8493 54.4196 33.3405 51.0421 30.8487C49.309 29.5815 47.7278 28.0178 45.708 27.2211C44.831 27.2634 44.0804 27.8144 43.3341 28.2297ZM70.2487 32.8193C67.8326 34.7432 65.1635 36.3197 62.8064 38.32C64.9864 40.2016 67.4405 41.7145 69.671 43.5325C73.1076 46.2532 76.7971 48.6349 80.3306 51.2285C83.7124 48.5502 87.17 45.9439 90.2818 42.9393C86.0188 39.6125 81.5029 36.6249 77.0501 33.5566C75.7008 32.654 74.4021 31.531 72.7829 31.1792C71.8426 31.5606 71.0541 32.2175 70.2487 32.8193ZM51.1517 46.8635C52.9733 49.1646 55.499 50.6945 57.7465 52.5168C61.3475 55.3265 64.8852 58.2167 68.5073 60.9967C69.7849 60.0983 71.0414 59.1617 72.1926 58.0938C74.5454 55.8562 77.2905 54.0848 79.618 51.8133C76.5357 50.0037 73.9931 47.4441 70.9571 45.5667C68.0772 43.2952 65.1551 41.0831 62.1402 39.0065C58.341 41.4263 54.7442 44.147 51.1517 46.8635ZM86.8242 46.9398C84.9647 48.6773 82.5992 49.8893 81.2541 52.1311C87.794 56.7589 94.275 61.4756 100.663 66.311C104.176 63.3191 107.524 60.1449 110.787 56.8902C106.482 53.5 101.726 50.7666 97.3447 47.478C95.3418 46.177 93.478 44.6174 91.2896 43.6343C89.5018 44.2572 88.241 45.7574 86.8242 46.9398ZM69.4602 61.3697C70.2108 62.0774 70.8095 62.9419 71.6402 63.5606C74.4569 65.6668 77.1387 67.9383 79.9596 70.0361C82.9365 72.3669 85.7532 74.9265 88.8946 77.0285C90.4547 76.5115 91.5004 75.1045 92.6979 74.0451C95.1014 71.5617 97.8296 69.4131 100.149 66.845C93.3347 62.3401 87.0983 57.0259 80.3011 52.4956C76.6327 55.3816 72.9895 58.3099 69.4602 61.3697ZM84.0244 81.6054C85.4243 83.3217 87.1152 84.7923 89.0168 85.928C89.5777 86.3009 90.4294 86.4196 90.9396 85.8899C92.4745 84.5549 93.7057 82.9276 95.1436 81.4952C94.4942 81.2918 93.8533 81.0333 93.1744 80.9697C91.8462 81.5503 90.9776 82.9149 89.603 83.3641C88.1103 83.0081 87.2037 81.5079 85.808 80.9104C85.1882 81.0757 84.6105 81.3554 84.0244 81.6054Z" fill="#717275"/>
<path d="M38.0507 6.57425C39.2609 5.16305 40.9391 4.34514 42.6468 3.7137C43.819 4.59094 44.9912 5.48512 45.961 6.59543C44.5738 6.36659 43.2245 5.87924 41.8246 5.7733C40.5849 6.11656 39.3452 6.50221 38.0507 6.57425Z" fill="#1E2125"/>
<path d="M38.8392 11.007C39.7162 10.4815 40.5849 9.90096 41.5758 9.62974C43.4648 10.0366 44.8352 11.5749 46.4164 12.5878C49.5705 14.6855 52.6697 16.8638 55.8363 18.9403C52.6865 21.5254 49.1825 23.6189 45.7544 25.8014C41.0487 22.3899 36.1869 19.1734 31.7216 15.4441C34.0702 13.9312 36.4821 12.5072 38.8392 11.007Z" fill="#1E2125"/>
<path d="M28.8838 17.0799C29.5331 16.7705 30.1614 16.1687 30.9162 16.245C32.4384 16.9061 33.6781 18.0503 34.9936 19.0378C37.7387 21.2626 40.7072 23.1781 43.5702 25.242C43.9539 25.598 44.5232 25.8607 44.6497 26.4159C43.722 27.5813 42.3137 28.183 41.0951 28.9798C38.6705 30.4503 36.4357 32.2175 33.9859 33.6584C32.7462 32.7811 31.5065 31.8954 30.3554 30.9037C27.0116 28.0008 23.3938 25.4454 20.012 22.5933C22.795 20.4786 25.9448 18.953 28.8838 17.0799Z" fill="#1E2125"/>
<path d="M15.6057 19.5421C15.9767 19.3853 16.3984 19.5972 16.546 19.9616C15.787 20.8558 14.9352 21.6568 14.0329 22.4026C14.5979 23.0213 15.1587 23.6358 15.728 24.2503C15.3527 24.5258 14.9732 24.8012 14.5979 25.0767C13.6154 24.28 12.4348 23.6231 11.7559 22.5213C11.5788 21.8644 12.2366 21.5254 12.6414 21.1609C13.5395 20.4786 14.5262 19.8811 15.6057 19.5421Z" fill="#1E2125"/>
<path d="M55.6255 20.2456C56.8062 19.2963 58.0543 20.4702 59.0536 21.1143C63.2871 24.3605 67.9296 27.0134 72.1251 30.302C69.0385 33.1159 65.4038 35.2179 62.2161 37.9089C58.438 35.5654 55.0942 32.6074 51.4511 30.0647C49.7265 28.8653 48.0567 27.5855 46.5345 26.1319C49.6337 24.28 52.5558 22.1399 55.6255 20.2456Z" fill="#1E2125"/>
<path d="M43.3341 28.2297C44.0804 27.8144 44.831 27.2634 45.708 27.2211C47.7278 28.0178 49.309 29.5815 51.0421 30.8487C54.4196 33.3405 57.7886 35.8493 61.1704 38.3369C58.9187 40.4262 56.3761 42.151 53.9431 44.0114C52.7877 44.8251 51.6619 45.7489 50.321 46.2405C48.8368 45.6684 47.6519 44.5454 46.4122 43.5792C42.5878 40.3626 38.4892 37.4894 34.7196 34.205C37.5152 32.1031 40.3951 30.1197 43.3341 28.2297Z" fill="#1E2125"/>
<path d="M70.2487 32.8193C71.0541 32.2175 71.8426 31.5606 72.7829 31.1792C74.4021 31.531 75.7008 32.654 77.0501 33.5566C81.5029 36.6249 86.0188 39.6125 90.2818 42.9393C87.17 45.9439 83.7124 48.5502 80.3306 51.2285C76.7971 48.6349 73.1076 46.2532 69.671 43.5325C67.4405 41.7145 64.9864 40.2016 62.8064 38.32C65.1635 36.3197 67.8326 34.7432 70.2487 32.8193Z" fill="#1E2125"/>
<path d="M51.1517 46.8635C54.7442 44.147 58.341 41.4263 62.1402 39.0065C65.1551 41.0831 68.0772 43.2952 70.9571 45.5667C73.9931 47.4441 76.5357 50.0037 79.618 51.8133C77.2905 54.0848 74.5454 55.8562 72.1926 58.0938C71.0414 59.1617 69.7849 60.0983 68.5073 60.9967C64.8852 58.2167 61.3475 55.3265 57.7465 52.5168C55.499 50.6945 52.9733 49.1646 51.1517 46.8635Z" fill="#1E2125"/>
<path d="M86.8242 46.9398C88.241 45.7574 89.5018 44.2572 91.2896 43.6343C93.478 44.6174 95.3418 46.177 97.3447 47.478C101.726 50.7666 106.482 53.5 110.787 56.8902C107.524 60.1449 104.176 63.3191 100.663 66.311C94.275 61.4756 87.794 56.7589 81.2541 52.1311C82.5992 49.8893 84.9647 48.6773 86.8242 46.9398Z" fill="#1E2125"/>
<path d="M114.768 52.2922C117.302 53.2415 119.313 55.0976 121.565 56.5343C120.325 58.187 118.773 59.5559 117.116 60.7721C116.619 60.2042 116.083 59.6703 115.506 59.1914C116.29 58.3099 117.074 57.4285 117.88 56.5639C116.4 55.5172 114.924 54.2374 114.768 52.2922Z" fill="#1E2125"/>
<path d="M69.4602 61.3697C72.9895 58.3099 76.6327 55.3816 80.3011 52.4956C87.0983 57.0259 93.3347 62.3401 100.149 66.845C97.8296 69.4131 95.1014 71.5617 92.6979 74.0451C91.5004 75.1045 90.4547 76.5115 88.8946 77.0285C85.7532 74.9265 82.9365 72.3669 79.9596 70.0361C77.1387 67.9383 74.4569 65.6668 71.6402 63.5606C70.8095 62.9419 70.2108 62.0774 69.4602 61.3697Z" fill="#1E2125"/>
<path d="M84.0244 81.6054C84.6105 81.3554 85.1882 81.0757 85.808 80.9104C87.2037 81.5079 88.1103 83.0081 89.603 83.3641C90.9776 82.9149 91.8462 81.5503 93.1744 80.9697C93.8533 81.0333 94.4942 81.2918 95.1436 81.4952C93.7057 82.9276 92.4745 84.5549 90.9396 85.8899C90.4294 86.4196 89.5777 86.3009 89.0168 85.928C87.1152 84.7923 85.4243 83.3217 84.0244 81.6054Z" fill="#1E2125"/>
</svg>
