<svg width="139" height="114" viewBox="0 0 139 114" fill="none" xmlns="http://www.w3.org/2000/svg">
<path d="M107.825 0.95514C113.691 -1.28486 119.998 0.848475 125.585 2.91514C129.945 4.75514 134.478 6.55514 138.091 9.67514C138.851 12.3951 138.651 15.5818 136.865 17.8751C132.811 19.8885 128.038 20.0485 124.118 22.4085C122.638 27.1418 121.958 32.1418 119.518 36.5418C114.265 46.1951 113.905 57.9685 107.065 66.8351C104.145 71.1018 99.718 73.8485 95.5046 76.6618C92.758 78.1018 92.678 81.5151 92.158 84.1818C90.9847 93.8885 90.6513 103.835 92.6513 113.462C90.3847 113.355 88.118 113.262 85.8647 113.155C84.3713 104.408 84.0113 95.5285 83.518 86.6751C81.638 95.4618 81.3313 104.608 83.078 113.448C80.8113 113.368 78.5713 113.302 76.3313 113.222C74.2647 101.222 75.4247 88.9818 74.318 76.9285C68.998 73.5685 62.358 75.9151 56.4646 75.5551C48.4513 76.3018 38.5047 73.2218 32.4913 80.2618C26.238 90.2885 28.798 102.875 32.478 113.355C30.1847 113.368 27.8913 113.368 25.6113 113.382C22.0247 102.195 20.4913 90.4351 21.0647 78.7018C16.798 81.3018 12.878 84.6885 11.0113 89.4485C7.57131 96.9418 8.77132 105.488 9.89132 113.382C7.58465 113.355 5.278 113.328 2.98466 113.302C2.17133 104.075 1.14465 94.6085 3.22465 85.4885C5.15799 79.1685 1.14464 73.1551 0.877973 66.8485C-0.228694 54.5951 -1.69534 40.4618 6.318 30.0751C14.9713 20.0485 29.3313 19.2885 41.6513 18.9685C55.4113 18.3018 69.398 21.8618 82.998 18.7685C89.5447 17.5018 91.7313 10.6218 96.118 6.56848C99.8513 4.40848 103.785 2.51514 107.825 0.95514Z" fill="white"/>
</svg>
