<svg width="93" height="45" viewBox="0 0 93 45" fill="none" xmlns="http://www.w3.org/2000/svg">
<path d="M82.0193 1.597C84.3781 0.999742 86.767 0.49388 89.158 0.0475327C90.1615 -0.22984 89.6259 0.784002 90.0368 1.09326C90.9553 1.1177 92.4934 0.504505 93 1.5598C92.7924 2.82764 91.4501 3.3505 90.3369 3.68632C89.9841 3.72777 89.7926 3.5046 89.7356 3.18684C88.7557 2.48862 87.3543 3.47165 86.4249 2.74687C86.6476 2.766 86.8692 2.79788 87.094 2.81807C87.4758 2.86058 88.1814 2.94985 88.076 2.36853C88.6901 1.89987 88.0975 1.05713 87.535 1.69689C86.454 1.79785 85.3773 1.93069 84.3114 2.13261C83.8435 1.99127 83.1939 2.17299 83.1208 2.71711C83.7166 3.0997 84.9772 2.75962 85.2999 3.54711C82.7992 2.71818 80.1102 3.21979 77.5955 3.71396C77.4642 3.87018 76.0348 3.67251 77.4072 3.62681C78.2182 3.10076 80.3586 3.54498 79.7735 2.19106C78.286 2.79363 76.1004 2.19212 75.1345 3.6927C75.0947 4.38879 75.9283 4.13692 76.393 4.21663C76.0144 4.77775 75.2292 4.36966 74.6968 4.36222C74.2977 4.02852 73.7051 4.82451 74.3526 4.81388C73.8933 4.70761 72.8145 5.34206 72.8747 4.51419C72.0584 4.54395 72.0153 5.49828 71.4743 5.3208C69.5716 5.53548 73.3491 4.35584 71.4861 4.43024C72.1433 4.38985 72.9317 4.40261 72.8145 3.56092C69.5845 4.27508 66.3083 4.79582 63.0858 5.53548C63.6193 5.56842 64.1722 5.55992 64.6798 5.75759C59.2331 5.84898 53.9455 7.45264 48.6127 8.42292C48.4385 8.82038 48.8537 9.33262 49.0193 9.7322L49.0419 9.83422C49.0753 10.2593 48.7891 10.5983 48.6084 10.9607C48.4568 11.1382 48.3127 11.3305 48.1051 11.4496C48.0997 11.3635 48.0911 11.1924 48.0868 11.1063C47.8469 10.7524 48.5364 8.96066 47.7469 9.39957C46.9811 10.2859 45.8377 10.5686 44.9536 11.2668C45.2257 11.423 45.5366 11.6462 45.2989 11.982C44.9547 11.8237 44.5664 11.6217 44.2018 11.8545C44.3072 12.3178 44.8116 12.3965 45.2236 12.4252C45.4247 12.5963 45.685 12.6611 45.9324 12.7429C44.9203 13.4528 43.5446 13.1266 42.4324 13.625C43.3166 13.6834 44.205 13.6069 45.0902 13.6654C45.0095 13.7685 44.8891 13.8205 44.7621 13.8397C43.2886 13.7578 41.6279 13.5357 40.2641 14.2254C39.794 14.8949 40.5437 14.912 41.0621 14.7185C41.0794 14.7632 41.1127 14.8524 41.1299 14.8971C40.8675 15.099 40.1285 14.9566 40.2124 15.4539C40.5545 15.4911 40.9557 15.5337 41.2267 15.2786C41.5505 15.5645 42.4991 15.488 42.4916 14.9491C42.8358 15.2095 44.1663 15.0724 43.7726 14.4539C43.8253 14.4422 43.9307 14.4188 43.9834 14.4072C44.0308 14.9736 44.6159 14.777 45.002 14.6526C45.628 14.5039 46.3637 14.5942 46.9015 14.1819C46.9553 14.845 48.4762 14.4369 48.0685 13.7748C48.1363 12.8524 47.9932 11.847 48.7418 11.0808C49.2957 10.8672 48.8031 11.9416 49.4119 11.9172C49.9185 12.3168 50.6004 11.609 49.9422 11.3656C49.8927 11.1988 49.8669 11.0032 49.6711 10.949C49.6378 10.8438 49.6679 10.7386 49.6969 10.6387C50.3907 10.6355 50.2821 12.0096 51.0178 11.0415C51.4028 10.7482 50.3681 9.05524 51.1748 10.0744C51.2318 11.2562 52.2192 11.4538 53.17 10.8088C52.7677 9.46971 53.7487 9.66738 54.2908 10.2242C54.9372 9.38575 53.2087 9.44102 52.6494 9.1222C53.1324 9.30924 53.9304 8.63865 54.1983 9.27417C54.878 9.76621 55.66 9.57704 56.2645 9.04992C56.4118 8.95959 56.4925 8.80125 56.5957 8.67054C57.0615 8.5547 57.4949 8.34959 57.8843 8.07222C58.4339 7.75871 59.0373 7.21778 59.5988 7.61843C59.6343 7.86179 59.6719 8.10835 59.7106 8.35809C59.3482 9.21359 57.2131 8.12961 57.2884 9.16896C56.9195 9.40595 56.2677 9.5696 56.0784 9.92137C56.9012 10.3752 57.9585 10.0011 58.833 9.83104C59.2277 9.82041 59.2008 9.35493 59.1782 9.07118C59.4116 9.07224 59.8903 8.80337 59.9053 9.17639C59.6633 9.93837 60.9701 9.5983 60.6679 8.96597C61.5079 8.52813 61.1455 9.58661 61.6413 9.97238C61.2616 9.92562 61.3531 10.4474 61.3724 10.695C61.438 11.3762 62.1522 10.5526 62.491 10.4612C62.8804 10.1509 64.3733 9.63549 63.3354 9.29754C64.2561 9.30073 65.5403 9.08712 65.7221 8.01802C65.8555 7.74277 65.5317 7.24647 65.9856 7.22734C65.6877 8.19762 67.613 7.36869 66.6535 7.11682C67.3849 6.67685 68.2314 7.12426 68.8746 6.56951C69.1887 6.4101 69.3016 6.5642 69.1855 6.87027C69.0682 6.93297 68.9499 6.99355 68.8305 7.04987C67.3925 7.60355 66.2115 8.64928 64.9154 9.45377C64.2066 9.71414 63.4429 10.068 62.9826 10.6621C63.3676 10.5675 63.9226 10.034 64.1281 10.5611C64.8304 10.7886 63.9355 9.87355 64.3819 9.94581C64.6067 10.1966 64.8207 10.4198 65.1864 10.2636C65.2564 10.6281 64.7067 10.5526 64.7229 10.8789C65.1606 11.3816 65.8953 11.1084 66.4653 11.0553C66.8816 10.9342 67.6356 11.1031 67.6904 10.5037C68.126 9.92562 67.3806 11.4708 68.2734 10.7535C68.8424 10.5622 69.6921 10.7556 70.047 10.1711C70.2148 10.1892 72.0605 10.0563 71.1312 9.79809C71.1527 9.46014 70.8548 9.48034 70.6095 9.5526C69.4372 10.1573 67.4247 9.4814 66.7342 10.779C66.6353 9.98619 65.5005 10.8874 65.4855 10.05C65.9146 10.0595 66.361 10.1796 66.7665 9.98301C67.5635 9.87248 68.3185 9.56004 69.1381 9.60361C69.4716 9.60042 69.5544 9.29648 69.4156 9.03612C69.3672 8.43992 68.7445 8.71198 68.3809 8.83844C67.7592 9.01804 67.1214 9.13814 66.4804 9.22741C65.9781 9.00529 66.5815 8.76087 66.8676 8.80125C68.4939 8.39847 70.2256 8.43886 71.7669 7.70451C71.6088 8.40804 70.8311 8.33577 70.2654 8.47499C68.7208 8.58339 71.0828 9.26354 71.2732 9.102C70.7171 8.39954 72.252 8.7173 71.9304 9.31455C71.8346 10.0914 72.5768 10.135 73.1081 9.79065C73.0232 8.7885 73.0081 7.77784 72.9758 6.77887C72.6005 6.7608 72.238 6.82138 71.8658 6.83307C71.584 6.48662 72.0917 5.8001 71.5152 5.72783C71.8024 5.61412 73.248 5.11463 72.7328 5.7629C73.2318 5.79159 73.9084 5.94357 73.9353 6.61734C74.0568 6.33784 74.4881 6.08491 74.0762 5.84367C74.4774 5.8171 74.8721 5.7544 75.2668 5.67575C75.3077 5.78309 75.3507 5.89043 75.3948 5.99776C74.3031 5.77672 75.17 6.56314 74.5344 6.95529C75.9552 7.36019 73.6814 6.51319 73.6018 7.10726C73.8008 7.49515 73.562 7.96063 74.1418 8.07753C74.1773 8.23906 73.9697 8.63971 74.1945 8.65246C75.3185 9.18277 74.8108 7.05731 75.3066 7.99145C75.2765 8.68222 75.9649 8.33578 76.3887 8.29858C77.5912 8.16999 76.4435 8.65991 75.7982 8.62271C75.1474 8.55682 76.0585 9.72476 75.0689 9.30711C74.714 9.62168 75.5712 9.4527 75.8111 9.39531C76.3693 9.25078 77.5395 9.27416 77.2814 8.49943C77.0577 7.37506 77.5772 8.79062 77.7557 9.08712C78.3989 8.91602 78.6216 8.23588 79.0389 7.79059C79.2045 7.61099 79.368 7.42926 79.5304 7.24754C80.3909 6.69385 79.5735 5.68532 80.2285 5.03918C80.4834 4.799 80.0822 3.93819 80.6598 4.08378C80.8405 4.52269 80.2866 5.65769 80.8792 5.79053C80.7749 4.79794 80.4479 3.59174 81.8279 3.97538C81.7515 4.50356 82.3818 4.28145 82.7271 4.28889C82.9809 4.29739 82.882 4.01152 82.783 3.89037C81.7279 3.81066 80.6684 3.88825 79.6208 3.9552C79.2809 3.4674 80.3447 3.45252 80.6684 3.53542C81.1955 2.93179 82.7174 4.15605 82.6292 3.22191C83.1767 3.31331 83.6983 3.63744 84.2652 3.43977C84.0468 3.83936 85.4784 4.20175 84.732 4.21875C83.8081 3.72565 82.7486 4.5397 81.7558 4.66404C81.7214 5.11782 82.1463 5.34737 81.8387 5.79691C81.1955 6.93084 83.6467 6.44943 82.8906 5.64706C84.0103 4.66085 83.6671 7.00629 83.9479 7.62268C84.1167 8.17955 84.0683 7.05093 84.32 7.48452C84.2996 7.89686 85.2106 7.69069 85.1751 7.34637C86.1292 7.24754 87.5672 7.62162 88.1502 6.59077C88.2825 6.13698 87.3392 6.77781 87.3198 6.33678C87.7382 6.25282 88.1663 6.18586 88.5697 6.03496C88.5998 5.80541 88.5331 5.57905 88.5041 5.35375C88.5116 5.28148 88.5266 5.13695 88.5342 5.06468C89.0935 4.95416 89.3269 4.56733 89.0687 3.9807C89.6463 4.2517 89.1623 5.47171 89.7044 5.95525C89.883 5.30699 89.371 4.60559 89.4097 3.92863C90.0163 4.56839 89.813 5.65663 90.1411 6.43454C90.7789 5.73952 89.7259 4.69486 90.3046 3.84892C90.2712 4.95629 91.0736 5.58223 91.4146 6.51956C91.2436 7.47283 90.1174 6.75656 89.8679 7.56104C87.4564 8.03077 85.0084 8.38679 82.5948 8.86289C82.1473 8.98617 82.4335 9.39 82.4625 9.69182C82.2549 10.3348 81.3299 9.99151 80.8502 10.2359C81.616 8.90221 79.2185 9.95644 78.4602 9.75346C77.7267 9.26035 77.9321 10.8438 77.3233 10.3709C77.048 9.75877 76.3392 10.2232 76.094 10.627C74.8721 10.8566 73.6416 11.0925 72.4144 11.3061C71.7583 10.609 70.9182 11.0808 70.488 11.6462C68.8391 11.8683 67.2042 12.2976 65.5543 12.4337C64.9251 11.7216 64.4604 12.8067 63.7946 12.8205C63.3332 12.9682 62.377 12.7227 62.3835 13.3551C61.779 12.9533 61.0885 13.2509 60.5819 13.5208C60.057 12.4454 58.8265 13.455 58.0424 13.201C58.2349 14.134 56.9303 13.8705 56.3537 14.0681C54.8888 14.1659 53.4023 14.7132 51.961 14.1946C51.875 14.523 51.3351 15.6049 51.3447 14.5623C51.206 14.032 50.6015 14.4784 50.2337 14.4348C50.5015 14.7525 50.6542 15.3222 51.1673 15.2573C51.0877 15.7568 51.8772 15.9184 51.9697 16.4115C51.2651 16.5305 50.9349 15.8068 50.4348 15.4603C49.8206 14.1521 48.659 15.895 47.7663 15.2318C47.421 14.947 46.582 15.7228 46.6079 15.1075C45.7237 14.8354 46.3669 15.6952 45.8754 15.8408C44.2437 15.9609 42.568 16.7919 40.9503 16.2446C42.0151 16.0533 40.6975 15.8493 40.2823 16.1511C39.6348 16.2042 40.5588 16.4837 40.4265 16.8068C39.6176 16.9354 38.797 17.0842 38.0032 17.2361C37.688 16.3902 36.4135 18.199 36.2478 16.8015C36.1349 17.6155 35.5067 16.8504 35.0991 17.1756C35.6186 18.3308 33.3534 17.4328 33.234 18.3595C32.2413 18.1714 31.3087 18.6145 30.4407 18.0077C30.2063 18.7325 29.3479 18.8366 28.6004 18.5635C27.5829 18.6878 26.574 18.9992 25.535 18.9142C24.7616 18.6783 24.9101 19.877 24.198 19.8058C23.642 19.8016 24.6842 19.0789 24.1109 19.1884C23.756 19.4881 23.2784 19.5348 22.8471 19.3754C22.5621 18.8887 22.9353 16.2914 22.2459 17.6729C21.565 17.8536 21.9243 18.6645 21.8092 19.2309C21.0208 19.2341 20.2334 19.572 19.4601 19.5093C19.3869 19.2107 18.9793 18.6347 18.8739 19.2256C19.0933 19.8377 17.6746 19.8452 18.4006 20.0471C18.1457 20.5816 17.1777 20.3404 16.6657 20.4509C16.7733 19.792 17.8101 20.5285 18.0898 19.9142C17.1981 19.9312 16.3301 20.1512 15.4611 20.3244C14.9598 20.046 17.3874 20.0811 16.3635 19.7623C16.2204 19.2139 16.8765 19.928 17.1809 19.6411C17.7811 19.3542 18.6803 19.6528 18.491 18.639C17.8317 18.673 17.2003 18.894 16.5463 18.9673C16.8152 18.0895 18.1877 19.1352 18.3447 18.1628C18.6469 18.0194 19.8731 17.8876 18.5985 17.8993C17.9145 17.7579 19.9731 17.6878 19.4547 17.3775C15.845 17.8887 12.2967 18.7824 8.6838 19.2862C11.3136 18.4147 14.2833 18.1384 17.0196 17.5231C16.3828 17.1012 17.7445 16.9726 17.9414 16.9163C17.7553 16.4944 17.9048 15.7515 17.3068 16.2935C17.0927 16.386 16.8701 16.4529 16.6507 16.5284C15.3298 16.8653 13.4443 17.8578 11.8277 18.081C11.9364 17.9779 12.0235 17.8568 12.1063 17.7346C12.6516 17.199 13.5411 17.6867 14.1424 17.1118C14.2274 16.6516 14.4834 16.2999 14.9921 16.2882C15.2771 16.6899 15.7439 16.6708 16.0827 16.352C16.5431 16.4189 16.2613 16.0151 16.5065 15.8567C16.471 16.4582 17.1605 16.0108 17.4627 15.8875C17.6251 15.1521 18.5953 15.828 18.8879 15.2584C18.3307 15.0852 18.0866 14.4188 17.6359 14.1755C17.6348 14.642 18.4178 15.4359 17.3326 15.1904C16.7485 15.3264 16.7066 14.4465 17.0034 14.1138C16.314 14.3009 16.3463 13.9502 16.2172 13.5623C15.0007 13.0777 13.8864 12.203 12.4752 12.4645C11.8492 12.7992 11.8955 11.8704 11.4061 11.9384C11.761 12.3922 11.1566 13.3859 12.1708 13.1361C11.789 13.2318 11.362 13.7929 11.0329 13.3423C11.2103 13.2307 11.4416 12.9703 11.1318 12.8588C10.6026 12.6898 10.6855 11.9809 11.0931 11.7269C10.38 11.6015 11.2469 11.0574 11.5803 11.3762C12.116 11.1308 12.6828 11.1286 13.2561 11.1478C11.4212 11.7216 14.7813 11.457 13.3346 11.1329C13.582 11.0819 13.8315 11.0319 14.0832 11.0075C13.8208 12.0086 15.4707 11.1796 16.0214 11.2137C16.0214 10.3465 17.353 11.6483 17.5111 10.7195C17.1712 10.6281 16.8141 10.4814 16.6765 10.1339C16.8733 8.02545 16.5506 5.90105 16.5635 3.78409C16.9443 3.70758 17.3337 3.66826 17.723 3.68207C18.093 3.7554 18.6502 3.66188 18.8459 4.08591C18.5932 4.51207 17.9661 4.34203 17.5628 4.52482C17.7854 6.64072 17.7768 8.79168 18.3071 10.8714C19.1858 11.0574 18.249 10.0595 18.6147 9.66419C18.5351 8.54301 18.3791 7.40588 18.2318 6.28258C18.1877 5.85642 17.7962 5.09763 18.6986 5.35693C18.4652 6.03389 18.7835 6.73636 19.0234 7.12638C19.9957 6.60458 19.5644 8.05734 20.398 7.78315C21.6941 7.83841 20.9713 6.57377 20.5744 6.0339C20.0689 5.98501 19.6107 6.21456 19.1299 6.31234C19.3816 5.60243 19.6354 5.03599 20.5099 5.1699C20.8895 5.94357 21.3133 6.91171 22.2706 6.29639C22.6481 7.10407 20.8627 7.63118 21.6511 7.97444C21.8662 8.43779 21.1735 9.6238 21.9479 9.58129C22.4373 9.87992 24.0507 9.94262 23.7151 9.25504C22.9557 9.13495 23.6301 8.70348 24.0668 8.7428C24.0044 9.10838 24.2228 9.12539 24.4153 8.87033C24.6691 8.10516 24.4347 7.27304 24.5078 6.47918C24.9961 7.26454 24.5304 8.27839 24.7993 9.11476C25.2037 9.75771 24.4616 8.05734 25.3833 8.7428C25.7447 8.58552 26.3277 9.55047 26.1169 8.86607C26.2642 8.24225 26.7396 9.98194 27.4506 9.2104C30.8172 8.90646 34.1558 8.34534 37.5063 7.91174C36.4877 6.49937 39.6381 6.07003 39.2896 7.67794C43.9103 6.93934 48.574 6.42498 53.2066 5.75546C53.0345 4.84789 53.298 4.48231 54.1692 4.58858C55.3276 3.90312 54.3919 6.00945 55.2631 5.4664C57.6939 5.12207 60.129 4.78944 62.5663 4.48124C62.6599 3.91268 62.3566 2.81063 63.3795 3.04018C64.1818 2.87121 63.9786 3.80216 63.8957 4.29315C67.4774 3.79579 71.1086 3.49822 74.6387 2.69479C77.0932 2.31752 79.5089 1.19422 82.0193 1.597ZM91.4544 1.34938C91.0145 1.57787 89.9539 1.23885 89.8012 1.74046C90.6316 1.61294 91.4737 1.60231 92.3084 1.71602C92.2256 1.36001 91.7577 1.31643 91.4544 1.34938ZM90.9327 1.91475C90.5971 1.96151 90.24 1.95939 89.9098 1.97958C89.4301 3.82235 93.6905 1.20697 90.9327 1.91475ZM91.8911 2.53858C91.335 2.81914 90.6445 2.88927 90.1648 3.27186C90.4229 3.47696 92.1826 2.62253 91.8911 2.53858ZM58.0198 6.05621C56.97 6.18905 55.8332 6.37397 54.8597 6.54295C55.4965 7.08813 56.7431 6.19437 57.5799 6.25388C57.9822 6.24113 59.346 5.86067 58.0198 6.05621ZM52.629 6.78525C51.3576 7.00842 50.0723 7.13595 48.7934 7.29748C50.0207 8.17211 51.4329 7.39313 52.7699 7.24222C53.0248 7.12532 52.9893 6.55357 52.629 6.78525ZM47.0359 7.5281C44.7439 7.8873 42.4217 8.10197 40.1102 8.42504C39.7671 8.2752 39.3638 8.50793 39.467 8.85332C41.4085 10.3348 43.7296 8.6631 45.8808 8.6174C46.3045 8.74918 47.7275 7.60143 47.0359 7.5281ZM82.9605 7.73745C82.6539 7.85223 82.1183 7.76508 81.958 8.02758C82.1086 8.32089 83.8414 7.77784 82.9605 7.73745ZM36.9867 10.6982C37.1277 11.0436 37.4041 10.9395 37.6665 10.7907C37.175 11.1276 37.445 11.6483 37.332 12.168C38.812 12.2243 40.3662 11.2689 41.7774 11.8056C41.7193 12.7344 39.8532 11.8407 39.8941 12.7971C40.5222 12.5421 42.0517 12.609 41.8634 11.8375C41.3633 10.441 42.8939 12.1701 43.3176 11.2774C43.508 10.8906 42.4045 11.067 42.9735 10.7333C43.2778 10.2901 44.1803 11.2115 43.8296 10.5229C44.077 10.5824 45.0536 9.70138 45.3096 10.1435C45.2236 10.8024 46.8154 9.76621 47.2306 9.40701C47.6759 9.40382 48.559 8.5515 47.7641 8.56532C44.176 9.29542 40.5835 10.0128 36.9867 10.6982ZM35.6358 9.01698C35.1045 9.18064 34.3785 9.08606 33.9837 9.29967C34.0827 9.44633 35.9961 9.44207 35.6358 9.01698ZM39.2336 9.31242C41.0288 9.39107 39.0766 10.6175 39.2336 9.31242ZM34.0257 9.75983C33.5019 9.85867 32.992 10.0234 32.4704 10.1328C31.6734 9.98832 29.8341 9.61743 30.5763 10.9586C31.6217 12.2658 33.6739 10.6738 35.0593 10.7716C34.6387 10.4198 35.2303 9.97344 35.4938 9.71626C35.0044 9.70669 34.5118 9.70457 34.0257 9.75983ZM58.976 10.0744C58.4694 10.1754 57.9542 10.2338 57.4594 10.3794C57.5584 10.6461 59.7773 10.2976 58.976 10.0744ZM28.6553 10.1956C27.5442 10.203 29.3942 10.8258 29.6932 10.7928C30.2859 10.0106 29.3372 9.98832 28.6553 10.1956ZM56.0676 10.5994C55.4459 10.8704 54.5381 10.6557 54.0767 11.1966C54.9189 11.0521 55.7557 10.8789 56.6 10.7482C56.4409 10.6515 56.2645 10.5197 56.0676 10.5994ZM27.7464 10.6685C27.4517 11.7291 29.1317 12.1892 29.8986 11.7312C29.4663 11.0298 28.4842 10.9044 27.7464 10.6685ZM54.266 11.4751C53.9842 11.4878 54.1509 11.7301 54.3392 11.7259C53.6798 12.1446 54.4381 12.4549 54.892 12.118C55.5008 12.1775 56.1849 11.7206 56.4269 11.8832C57.1755 11.7004 57.838 11.4995 58.6157 11.507C58.0951 12.3901 56.3032 11.761 55.6234 12.372C55.6686 13.1053 56.115 12.6451 56.3247 12.3795C56.2903 12.9714 56.8905 12.4911 57.1217 12.304C57.6272 12.6122 58.1994 12.1361 58.7383 12.1106C59.2277 12.7578 60.8465 12.1063 60.6539 11.1966C60.1462 11.2296 59.6224 11.8237 59.1201 11.5548C58.8211 11.186 59.3826 11.4655 59.5859 11.4209C59.6569 10.694 58.1016 11.2891 58.2618 10.6578C56.9625 11.0022 55.603 11.1509 54.266 11.4751ZM34.7743 11.3454C33.9794 11.5357 33.1652 11.6387 32.3757 11.8524C32.8253 12.0947 33.518 12.5559 34.0612 12.2413C34.3526 12.1265 35.1421 11.3242 34.7743 11.3454ZM12.0805 11.456C11.8234 11.5261 11.2856 11.3454 11.3975 11.7397C11.6836 11.8322 12.7893 11.4007 12.0805 11.456ZM36.663 11.5367C34.2053 12.693 31.7207 13.7929 29.2522 14.9236C28.8876 14.9598 29.164 15.2935 29.1705 15.4837C29.2081 16.0788 30.7053 15.6187 31.1657 15.234C31.1377 15.5634 31.7357 15.3307 31.9046 15.2095C32.4015 15.2201 34.5774 15.082 33.4137 14.6133C33.6019 14.0384 32.6855 14.0968 32.3714 13.845C32.4177 13.6016 32.9974 13.3359 32.8436 13.7461C33.3125 14.1053 33.5341 13.2722 34.0063 13.269C33.0834 13.9534 35.4831 13.557 34.6226 13.2785C35.1776 12.5208 36.0047 13.846 36.6662 13.0904C36.6652 12.7025 36.6641 11.9257 36.663 11.5367ZM31.298 12.0479C31.0829 12.7047 31.7884 12.4124 32.166 12.3465C31.896 12.2031 31.6056 12.0776 31.298 12.0479ZM52.6354 12.0957C54.2736 12.2551 51.861 12.659 52.6354 12.0957ZM41.4418 12.6271C40.9643 12.7419 40.4932 12.8843 40.0242 13.0288C40.0608 13.4826 42.2313 12.5346 41.4418 12.6271ZM28.6069 12.6908C28.3821 13.2902 29.1414 13.2243 29.4749 12.9427C29.1866 12.8534 28.8994 12.761 28.6069 12.6908ZM29.1931 13.489C28.8037 13.4007 28.4885 13.7865 28.8542 14.0458C29.3942 14.5379 30.3536 13.1298 29.1931 13.489ZM35.6466 14.2392C35.2282 14.2924 34.8119 14.3508 34.3967 14.4188C34.9862 15.2935 38.157 13.8875 35.6466 14.2392ZM38.442 14.438C38.2957 14.4571 38.0032 14.4954 37.8569 14.5145C37.2374 15.8535 39.8833 13.9938 38.442 14.438ZM39.8252 14.4337C39.5423 14.608 39.1971 14.7387 39.0185 15.0342C39.4466 15.1808 40.4448 14.5836 39.8252 14.4337ZM22.2835 14.6335C22.3341 15.0246 21.75 15.3849 22.3717 15.6314C21.4908 15.6123 22.2867 16.5794 22.6277 16.2499C23.0794 15.6899 23.6947 16.2754 23.5 16.8812C23.5989 17.3934 24.6799 16.7707 24.0894 16.5167C24.6552 16.4317 24.9273 16.4944 25.3952 16.3286C25.8243 16.1097 27.2247 15.6176 26.3793 15.1585C25.3005 14.4656 24.0743 15.3084 22.9213 15.2446C23.1601 14.5432 22.7245 14.6038 22.2835 14.6335ZM36.3876 14.7536C36.0854 14.8429 35.7713 14.913 35.4605 14.9587C35.7606 15.2159 36.1628 15.3455 36.5404 15.4444C36.6953 15.2414 36.7942 14.6388 36.3876 14.7536ZM31.37 15.828C31.1399 15.9067 31.0302 16.2329 30.8581 16.4157C32.4768 16.4274 34.0181 15.8004 35.6294 15.7494C35.4401 15.6027 35.2153 15.387 34.969 15.4082C33.8665 14.8078 32.4865 15.5698 31.37 15.828ZM39.4111 15.2977C38.8938 15.1649 37.0975 15.8408 38.5582 15.8291C38.9637 15.997 40.8879 15.0703 39.4111 15.2977ZM21.1864 15.8844C22.2286 15.7324 21.0326 16.9141 21.1864 15.8844ZM35.8445 15.9215C34.5086 16.1639 33.1813 16.4508 31.8379 16.6431C32.4306 17.2181 33.8353 16.6548 34.6269 16.4242C35.0765 16.607 36.1585 16.4274 35.8445 15.9215Z" fill="#31582B"/>
<path d="M23.301 2.9456C22.8277 2.2442 23.187 0.587397 24.3056 1.20697C24.8585 1.86055 24.6745 2.78832 23.9862 3.08163C23.7345 2.86058 23.5043 3.24636 23.301 2.9456Z" fill="#604722"/>
<path d="M91.4544 1.34938C91.7577 1.31643 92.2256 1.36001 92.3084 1.71602C91.4737 1.60231 90.6316 1.61294 89.8012 1.74046C89.9539 1.23885 91.0145 1.57787 91.4544 1.34938Z" fill="#090909"/>
<path d="M87.535 1.69689C88.0975 1.05713 88.6901 1.89987 88.076 2.36853C87.5952 2.23676 87.251 2.39936 87.094 2.81807C86.8692 2.79788 86.6476 2.766 86.4249 2.74687C87.3543 3.47165 88.7557 2.48862 89.7356 3.18684C89.7926 3.5046 89.9841 3.72777 90.3369 3.68632C90.3293 3.72671 90.3132 3.80854 90.3046 3.84892C89.7259 4.69486 90.7789 5.73952 90.1411 6.43454C89.813 5.65663 90.0163 4.56839 89.4097 3.92863C89.371 4.60559 89.883 5.30699 89.7044 5.95525C89.1623 5.47171 89.6463 4.2517 89.0687 3.9807C89.3269 4.56733 89.0935 4.95416 88.5342 5.06468C88.1846 4.62152 87.4683 5.02962 87.0068 4.8447C86.7949 5.91169 87.9189 5.46002 88.5041 5.35375C88.5331 5.57905 88.5998 5.80541 88.5697 6.03496C88.3395 5.33462 86.9305 5.59924 87.3198 6.33678C87.3392 6.77781 88.2825 6.13698 88.1502 6.59077C87.5672 7.62162 86.1292 7.24754 85.1751 7.34637C84.8869 7.37719 84.6051 7.44095 84.32 7.48452C84.0683 7.05093 84.1167 8.17955 83.9479 7.62268C83.6671 7.00629 84.0103 4.66085 82.8906 5.64706C82.5421 5.71295 82.1904 5.76396 81.8387 5.79691C82.1463 5.34737 81.7214 5.11782 81.7558 4.66404C82.7486 4.5397 83.8081 3.72565 84.732 4.21875C85.4784 4.20175 84.0468 3.83936 84.2652 3.43977C83.6983 3.63744 83.1767 3.31331 82.6292 3.22191C82.7174 4.15605 81.1955 2.93179 80.6684 3.53542C80.3447 3.45252 79.2809 3.4674 79.6208 3.9552C80.6684 3.88825 81.7279 3.81066 82.783 3.89037C82.882 4.01152 82.9809 4.29739 82.7271 4.28889C82.5948 3.89674 82.1689 3.98814 81.8279 3.97538C80.4479 3.59174 80.7749 4.79794 80.8792 5.79053C80.2866 5.65769 80.8405 4.52269 80.6598 4.08378C80.0822 3.93819 80.4834 4.799 80.2285 5.03918C79.5735 5.68532 80.3909 6.69385 79.5304 7.24754C79.0303 7.37613 77.8547 7.10619 77.9676 7.8958C78.3215 7.86498 78.684 7.83416 79.0389 7.79059C78.6216 8.23588 78.3989 8.91602 77.7557 9.08712C77.5772 8.79062 77.0577 7.37506 77.2814 8.49943C77.5395 9.27416 76.3693 9.25078 75.8111 9.39531C75.5712 9.4527 74.714 9.62168 75.0689 9.30711C76.0585 9.72476 75.1474 8.55682 75.7982 8.62271C76.4435 8.65991 77.5912 8.16999 76.3887 8.29858C76.3865 7.71514 75.6917 7.76828 75.3066 7.99145C74.8108 7.05731 75.3185 9.18277 74.1945 8.65246C74.7333 8.58551 74.6753 8.07222 74.1418 8.07753C73.562 7.96063 73.8008 7.49515 73.6018 7.10726C73.6814 6.51319 75.9552 7.36019 74.5344 6.95529C75.17 6.56314 74.3031 5.77672 75.3948 5.99776C76.3618 5.91275 76.1929 5.40263 75.2668 5.67575C74.8721 5.7544 74.4774 5.8171 74.0762 5.84367C74.4881 6.08491 74.0568 6.33784 73.9353 6.61734C73.9084 5.94357 73.2318 5.79159 72.7328 5.7629C73.248 5.11463 71.8024 5.61412 71.5152 5.72783C72.0917 5.8001 71.584 6.48662 71.8658 6.83307C72.238 6.82138 72.6005 6.7608 72.9758 6.77887C73.0081 7.77784 73.0232 8.7885 73.1081 9.79065C72.5768 10.135 71.8346 10.0914 71.9304 9.31455C72.252 8.7173 70.7171 8.39954 71.2732 9.102C71.0828 9.26354 68.7208 8.58339 70.2654 8.47499C70.8311 8.33577 71.6088 8.40804 71.7669 7.70451C70.2256 8.43886 68.4939 8.39847 66.8676 8.80125C66.5815 8.76087 65.9781 9.00529 66.4804 9.22741C66.1953 9.27417 65.9071 9.31455 65.6801 9.49947C66.7084 9.3645 67.7765 9.23059 68.7542 8.88733C68.6617 8.87564 68.4745 8.85013 68.3809 8.83844C68.7445 8.71198 69.3672 8.43992 69.4156 9.03612C68.4767 9.19978 67.5398 9.3815 66.5955 9.50903C66.6439 9.6695 66.7062 9.82466 66.7665 9.98301C66.361 10.1796 65.9146 10.0595 65.4855 10.05C65.5005 10.8874 66.6353 9.98619 66.7342 10.779C67.4247 9.4814 69.4372 10.1573 70.6095 9.5526C70.8548 9.48034 71.1527 9.46014 71.1312 9.79809C70.7752 9.92137 70.2976 9.86292 70.047 10.1711C69.6921 10.7556 68.8424 10.5622 68.2734 10.7535C67.3806 11.4708 68.126 9.92562 67.6904 10.5037C67.6356 11.1031 66.8816 10.9342 66.4653 11.0553C65.8953 11.1084 65.1606 11.3816 64.7229 10.8789C64.7067 10.5526 65.2564 10.6281 65.1864 10.2636C64.8207 10.4198 64.6067 10.1966 64.3819 9.94581C63.9355 9.87355 64.8304 10.7886 64.1281 10.5611C63.9226 10.034 63.3676 10.5675 62.9826 10.6621C63.4429 10.068 64.2066 9.71414 64.9154 9.45377C66.2115 8.64928 67.3925 7.60355 68.8305 7.04987C68.7563 7.79378 70.5106 7.06369 70.9613 7.03606C70.844 6.29427 69.7383 6.75231 69.1855 6.87027C69.3016 6.5642 69.1887 6.4101 68.8746 6.56951C68.2314 7.12426 67.3849 6.67685 66.6535 7.11682C66.4266 7.12426 66.1996 7.15083 65.9856 7.22734C65.5317 7.24647 65.8555 7.74277 65.7221 8.01802C65.5403 9.08712 64.2561 9.30073 63.3354 9.29754C64.3733 9.63549 62.8804 10.1509 62.491 10.4612C62.1522 10.5526 61.438 11.3762 61.3724 10.695C61.3531 10.4474 61.2616 9.92562 61.6413 9.97238C61.1455 9.58661 61.5079 8.52813 60.6679 8.96597C60.4119 9.02974 60.157 9.09987 59.9053 9.17639C59.8903 8.80337 59.4116 9.07224 59.1782 9.07118C58.5469 9.085 57.909 9.02868 57.2884 9.16896C57.2131 8.12961 59.3482 9.21359 59.7106 8.35809C60.1688 8.51325 60.9906 8.41123 60.5797 7.6907C60.8045 6.68429 59.943 7.42607 59.5988 7.61843C59.0373 7.21778 58.4339 7.75871 57.8843 8.07222C57.1873 8.12323 56.5323 8.41017 55.8665 8.60358C55.3588 8.89052 56.4807 8.6174 56.5957 8.67054C56.4925 8.80125 56.4118 8.95959 56.2645 9.04992C55.8708 8.85544 54.2596 8.42398 54.1983 9.27417C53.9304 8.63865 53.1324 9.30924 52.6494 9.1222C53.2087 9.44102 54.9372 9.38575 54.2908 10.2242C53.7487 9.66738 52.7677 9.46971 53.17 10.8088C53.6658 9.13282 52.0826 9.94368 51.1748 10.0744C50.3681 9.05524 51.4028 10.7482 51.0178 11.0415C50.7048 10.644 50.7489 9.51328 50.0153 9.93412C49.5786 10.0818 48.8397 10.7545 49.6969 10.6387C49.6679 10.7386 49.6378 10.8438 49.6711 10.949C48.8903 11.0255 49.4044 11.9852 49.9422 11.3656C50.6004 11.609 49.9185 12.3168 49.4119 11.9172C48.8031 11.9416 49.2957 10.8672 48.7418 11.0808C48.7085 11.05 48.6418 10.9905 48.6084 10.9607C48.7891 10.5983 49.0753 10.2593 49.0419 9.83422C49.4678 9.69819 50.224 9.6068 50.2907 9.11157C49.8206 9.19127 49.4001 9.45802 49.0193 9.7322C48.8537 9.33262 48.4385 8.82038 48.6127 8.42292C53.9455 7.45264 59.2331 5.84898 64.6798 5.75759C64.1722 5.55992 63.6193 5.56842 63.0858 5.53548C66.3083 4.79582 69.5845 4.27508 72.8145 3.56092C72.9317 4.40261 72.1433 4.38985 71.4861 4.43024C73.3491 4.35584 69.5716 5.53548 71.4743 5.3208C72.0153 5.49828 72.0584 4.54395 72.8747 4.51419C72.8145 5.34206 73.8933 4.70761 74.3526 4.81388C73.7051 4.82451 74.2977 4.02852 74.6968 4.36222C75.2292 4.36966 76.0144 4.77775 76.393 4.21663C75.9283 4.13692 75.0947 4.38879 75.1345 3.6927C76.1004 2.19212 78.286 2.79363 79.7735 2.19106C80.3586 3.54498 78.2182 3.10076 77.4072 3.62681C76.0348 3.67251 77.4642 3.87018 77.5955 3.71396C80.1102 3.21979 82.7992 2.71818 85.2999 3.54711C84.9772 2.75962 83.7166 3.0997 83.1208 2.71711C83.1939 2.17299 83.8435 1.99127 84.3114 2.13261C84.2899 3.08588 87.2639 2.12836 87.535 1.69689ZM85.4247 2.84464C87.3198 2.9201 84.7427 3.39089 85.4247 2.84464ZM78.2204 4.54289C79.7897 4.78625 76.1606 4.96904 78.2204 4.54289ZM85.8689 5.09019C85.3203 5.27936 84.5029 5.2039 84.1146 5.47065C84.0221 6.60352 85.2988 5.80541 85.9517 5.81816C86.8089 6.2592 86.4959 4.5769 85.8689 5.09019ZM86.3959 5.92869C85.7129 6.10935 85.0041 6.16036 84.3233 6.34103C84.348 7.12213 85.3881 6.59927 85.8398 6.45474C86.2884 6.63434 87.0348 6.09872 86.3959 5.92869ZM62.9481 6.03602C62.3394 6.14761 61.7446 6.3389 61.1207 6.34528C60.6335 6.76825 61.0723 7.4909 61.0046 8.01695C61.779 8.03821 62.6395 7.44095 63.3526 7.90324C63.7871 8.30814 63.8344 7.90218 63.8215 7.49303C64.4454 6.9606 63.7903 5.90743 62.9481 6.03602ZM68.5466 6.14761C67.9475 6.38885 67.1838 6.15186 66.6471 6.51744C67.258 6.51213 67.9055 6.60777 68.5014 6.41648C68.8951 6.33571 69.0994 5.95313 68.5466 6.14761ZM64.2066 7.69814C64.1377 8.00314 64.3582 8.65459 64.7573 8.34746C65.2284 7.92556 64.5755 7.60036 64.2066 7.69814ZM62.3103 8.46968C62.0608 8.51219 62.0124 8.75555 61.9683 8.96385C62.5857 9.5154 63.587 8.07753 62.3103 8.46968Z" fill="#22311E"/>
<path d="M87.535 1.69689C86.454 1.79785 85.3773 1.93069 84.3114 2.13261C84.2899 3.08588 87.2639 2.12836 87.535 1.69689Z" fill="#080907"/>
<path d="M89.9098 1.97958C89.4301 3.82235 93.6905 1.20697 90.9327 1.91475C90.5971 1.96151 90.24 1.95939 89.9098 1.97958Z" fill="#060706"/>
<path d="M88.076 2.36853C87.5952 2.23676 87.251 2.39936 87.094 2.81807C87.4758 2.86058 88.1814 2.94985 88.076 2.36853Z" fill="#090B09"/>
<path d="M90.1648 3.27186C90.4229 3.47696 92.1826 2.62253 91.8911 2.53858C91.335 2.81914 90.6445 2.88927 90.1648 3.27186Z" fill="#101110"/>
<path d="M20 3.45252C21.1272 3.41214 22.2695 2.8914 23.301 2.9456C23.5043 3.24636 23.7345 2.86058 23.9862 3.08163C24.1303 3.27823 24.1314 3.51416 24.1206 3.74584C24.4809 3.76922 25.108 3.5843 25.1607 4.10398C24.9165 5.47065 25.0037 6.90428 25.35 8.25607C24.9864 6.90853 26.4675 6.93722 27.3699 6.99355C27.513 7.72152 27.3925 8.47286 27.4506 9.2104C26.7396 9.98194 26.2642 8.24225 26.1169 8.86607C26.3277 9.55047 25.7447 8.58552 25.3833 8.7428C24.4616 8.05734 25.2037 9.75771 24.7993 9.11476C24.5304 8.27839 24.9961 7.26454 24.5078 6.47918C24.3002 5.8256 23.4419 5.5376 23.5312 4.75543C23.0697 5.02856 22.6965 4.85002 22.3609 4.49188C22.7514 5.10401 22.0006 5.66194 22.2706 6.29639C21.3133 6.91171 20.8895 5.94357 20.5099 5.1699C19.6354 5.03599 19.3816 5.60243 19.1299 6.31234C19.6107 6.21456 20.0689 5.98501 20.5744 6.0339C20.9713 6.57377 21.6941 7.83841 20.398 7.78315C19.5644 8.05734 19.9957 6.60458 19.0234 7.12638C18.7835 6.73636 18.4652 6.03389 18.6986 5.35693C17.7962 5.09763 18.1877 5.85642 18.2318 6.28258C18.3791 7.40588 18.5351 8.54301 18.6147 9.66419C18.249 10.0595 19.1858 11.0574 18.3071 10.8714C17.7768 8.79168 17.7854 6.64072 17.5628 4.52482C17.9661 4.34203 18.5932 4.51207 18.8459 4.08591C18.6502 3.66188 18.093 3.7554 17.723 3.68207C18.221 2.783 19.2267 3.83617 20 3.45252Z" fill="#3F7436"/>
<path d="M85.4247 2.84464C87.3198 2.9201 84.7427 3.39089 85.4247 2.84464Z" fill="#0A0D0A"/>
<path d="M22.3609 4.49188C22.6965 4.85002 23.0697 5.02856 23.5312 4.75543C23.4419 5.5376 24.3002 5.8256 24.5078 6.47918C24.4347 7.27304 24.6691 8.10516 24.4153 8.87033C24.2228 9.12539 24.0044 9.10838 24.0668 8.7428C23.8678 8.06159 24.4444 6.64603 23.3419 6.82351C21.935 6.5015 21.9286 8.63971 21.9479 9.58129C21.1735 9.6238 21.8662 8.43779 21.6511 7.97444C20.8627 7.63118 22.6481 7.10407 22.2706 6.29639C22.0006 5.66194 22.7514 5.10401 22.3609 4.49188Z" fill="#293A26"/>
<path d="M78.2204 4.54289C79.7897 4.78625 76.1606 4.96904 78.2204 4.54289Z" fill="#0D0F0E"/>
<path d="M87.0068 4.8447C87.4683 5.02962 88.1846 4.62152 88.5342 5.06468C88.5266 5.13695 88.5116 5.28148 88.5041 5.35375C87.9189 5.46002 86.7949 5.91169 87.0068 4.8447Z" fill="#030503"/>
<path d="M85.8689 5.09019C86.4959 4.5769 86.8089 6.2592 85.9517 5.81816C85.2988 5.80541 84.0221 6.60352 84.1146 5.47065C84.5029 5.2039 85.3203 5.27936 85.8689 5.09019Z" fill="#030503"/>
<path d="M75.3948 5.99776C76.3618 5.91275 76.1929 5.40263 75.2668 5.67575C75.3077 5.78309 75.3507 5.89043 75.3948 5.99776Z" fill="#0D120B"/>
<path d="M88.5697 6.03496C88.3395 5.33462 86.9305 5.59924 87.3198 6.33678C87.7382 6.25282 88.1663 6.18586 88.5697 6.03496Z" fill="#050905"/>
<path d="M82.8906 5.64706C82.5421 5.71295 82.1904 5.76396 81.8387 5.79691C81.1955 6.93084 83.6467 6.44943 82.8906 5.64706Z" fill="#040603"/>
<path d="M86.3959 5.92869C87.0348 6.09872 86.2884 6.63434 85.8398 6.45474C85.3881 6.59927 84.348 7.12213 84.3233 6.34103C85.0041 6.16036 85.7129 6.10935 86.3959 5.92869Z" fill="#050705"/>
<path d="M58.0198 6.05621C59.346 5.86067 57.9822 6.24113 57.5799 6.25388C56.7431 6.19437 55.4965 7.08813 54.8597 6.54295C55.8332 6.37397 56.97 6.18905 58.0198 6.05621Z" fill="#0D160A"/>
<path d="M62.9481 6.03602C63.7903 5.90743 64.4454 6.9606 63.8215 7.49303C63.8344 7.90218 63.7871 8.30814 63.3526 7.90324C62.6395 7.44095 61.779 8.03821 61.0046 8.01695C61.0723 7.4909 60.6335 6.76825 61.1207 6.34528C61.7446 6.3389 62.3394 6.14761 62.9481 6.03602Z" fill="#366A32"/>
<path d="M68.5466 6.14761C69.0994 5.95313 68.8951 6.33571 68.5014 6.41648C67.9055 6.60777 67.258 6.51213 66.6471 6.51744C67.1838 6.15186 67.9475 6.38885 68.5466 6.14761Z" fill="#080908"/>
<path d="M69.1855 6.87027C69.7383 6.75231 70.844 6.29427 70.9613 7.03606C70.5106 7.06369 68.7563 7.79378 68.8305 7.04987C68.9499 6.99355 69.0682 6.93297 69.1855 6.87027Z" fill="#030503"/>
<path d="M52.629 6.78525C52.9893 6.55357 53.0248 7.12532 52.7699 7.24222C51.4329 7.39313 50.0207 8.17211 48.7934 7.29748C50.0723 7.13595 51.3576 7.00842 52.629 6.78525Z" fill="#050804"/>
<path d="M66.6535 7.11682C66.4266 7.12426 66.1996 7.15083 65.9856 7.22734C65.6877 8.19762 67.613 7.36869 66.6535 7.11682Z" fill="#020302"/>
<path d="M56.2645 9.04992C55.8708 8.85544 54.2596 8.42398 54.1983 9.27417C54.878 9.76621 55.66 9.57704 56.2645 9.04992Z" fill="#020302"/>
<path d="M62.5652 23.6327C62.9514 22.4403 62.1286 20.5242 63.1547 19.6645C63.6247 20.8909 63.4128 22.7719 63.1321 24.0971C62.8406 24.0451 62.3845 24.0429 62.5652 23.6327Z" fill="#020302"/>
<path d="M77.9676 7.8958C77.8547 7.10619 79.0303 7.37613 79.5304 7.24754C79.368 7.42926 79.2045 7.61099 79.0389 7.79059C78.684 7.83416 78.3215 7.86498 77.9676 7.8958Z" fill="#040504"/>
<path d="M85.1751 7.34637C84.8869 7.37719 84.6051 7.44095 84.32 7.48452C84.2996 7.89686 85.2106 7.69069 85.1751 7.34637Z" fill="#080D07"/>
<path d="M64.7573 8.34746C65.2284 7.92556 64.5755 7.60036 64.2066 7.69814C64.1377 8.00314 64.3582 8.65459 64.7573 8.34746Z" fill="#070A07"/>
<path d="M81.958 8.02758C82.1086 8.32089 83.8414 7.77784 82.9605 7.73745C82.6539 7.85223 82.1183 7.76508 81.958 8.02758Z" fill="#091008"/>
<path d="M76.3887 8.29858C76.3865 7.71514 75.6917 7.76828 75.3066 7.99145C75.2765 8.68222 75.9649 8.33578 76.3887 8.29858Z" fill="#080C06"/>
<path d="M55.8665 8.60358C56.5323 8.41017 57.1873 8.12323 57.8843 8.07222C57.4949 8.34959 57.0615 8.5547 56.5957 8.67054C56.4807 8.6174 55.3588 8.89052 55.8665 8.60358Z" fill="#070A07"/>
<path d="M74.1945 8.65246C74.7333 8.58551 74.6753 8.07222 74.1418 8.07753C74.1773 8.23906 73.9697 8.63971 74.1945 8.65246Z" fill="#050803"/>
<path d="M61.9683 8.96385C62.5857 9.5154 63.587 8.07753 62.3103 8.46968C62.0608 8.51219 62.0124 8.75555 61.9683 8.96385Z" fill="#050804"/>
<path d="M36.9867 10.6982C40.5835 10.0128 44.176 9.29542 47.7641 8.56532C48.559 8.5515 47.6759 9.40382 47.2306 9.40701C46.5724 9.57917 45.8012 9.63337 45.3096 10.1435C45.0536 9.70138 44.077 10.5824 43.8296 10.5229C44.1803 11.2115 43.2778 10.2901 42.9735 10.7333C42.4045 11.067 43.508 10.8906 43.3176 11.2774C42.8939 12.1701 41.3633 10.441 41.8634 11.8375L41.7774 11.8056C40.3662 11.2689 38.812 12.2243 37.332 12.168C37.445 11.6483 37.175 11.1276 37.6665 10.7907C37.4041 10.9395 37.1277 11.0436 36.9867 10.6982Z" fill="#24321F"/>
<path d="M66.4804 9.22741C67.1214 9.13814 67.7592 9.01804 68.3809 8.83844C68.4745 8.85013 68.6617 8.87564 68.7542 8.88733C67.7765 9.23059 66.7084 9.3645 65.6801 9.49947C65.9071 9.31455 66.1953 9.27417 66.4804 9.22741Z" fill="#0D190B"/>
<path d="M33.9837 9.29967C34.0827 9.44633 35.9961 9.44207 35.6358 9.01698C35.1045 9.18064 34.3785 9.08606 33.9837 9.29967Z" fill="#0C120F"/>
<path d="M60.6679 8.96597C60.4119 9.02974 60.157 9.09987 59.9053 9.17639C59.6633 9.93837 60.9701 9.5983 60.6679 8.96597Z" fill="#040704"/>
<path d="M49.0193 9.7322C49.4001 9.45802 49.8206 9.19127 50.2907 9.11157C50.224 9.6068 49.4678 9.69819 49.0419 9.83422L49.0193 9.7322Z" fill="#080906"/>
<path d="M66.5955 9.50903C67.5398 9.3815 68.4767 9.19978 69.4156 9.03612C69.5544 9.29648 69.4716 9.60042 69.1381 9.60361C68.3185 9.56004 67.5635 9.87248 66.7665 9.98301C66.7062 9.82466 66.6439 9.6695 66.5955 9.50903Z" fill="#040704"/>
<path d="M7.534 9.64399C8.34069 9.40594 9.20116 9.35599 10.038 9.33899C10.1842 9.8034 10.2283 10.2912 10.3563 10.7609C11.8396 10.5388 13.3443 10.2795 14.8566 10.5399C15.5761 10.7609 15.9225 9.82466 16.6765 10.1339C16.8141 10.4814 17.1712 10.6281 17.5111 10.7195C17.353 11.6483 16.0214 10.3465 16.0214 11.2137C15.4707 11.1796 13.8208 12.0086 14.0832 11.0075C14.3586 10.9777 14.6318 10.9203 14.8856 10.8087C13.368 10.695 11.8374 10.8141 10.351 11.1318C10.2692 11.6271 10.295 12.1372 10.153 12.625C9.384 12.8662 8.56656 12.9225 7.76848 12.9969C7.45871 11.915 7.59531 10.7535 7.534 9.64399Z" fill="#3C712E"/>
<path d="M39.2336 9.31242C41.0288 9.39107 39.0766 10.6175 39.2336 9.31242Z" fill="#0A1209"/>
<path d="M47.7469 9.39957C48.5364 8.96066 47.8469 10.7524 48.0868 11.1063C47.5888 11.2307 47.0843 11.3157 46.5853 11.4315C46.824 12.1361 47.6415 11.7163 48.1051 11.4496C48.3127 11.3305 48.4568 11.1382 48.6084 10.9607C48.6418 10.9905 48.7085 11.05 48.7418 11.0808C47.9932 11.847 48.1363 12.8524 48.0685 13.7748C48.4762 14.4369 46.9553 14.845 46.9015 14.1819C46.1131 13.7515 44.931 14.0235 43.9834 14.4072C43.9307 14.4188 43.8253 14.4422 43.7726 14.4539C43.4693 14.6856 41.9452 14.4847 42.4916 14.9491C42.4991 15.488 41.5505 15.5645 41.2267 15.2786C41.2385 15.1351 41.3386 14.9375 41.1299 14.8971C41.1127 14.8524 41.0794 14.7632 41.0621 14.7185C42.1947 14.3785 43.5908 14.3349 44.7621 13.8397C44.8891 13.8205 45.0095 13.7685 45.0902 13.6654C44.205 13.6069 43.3166 13.6834 42.4324 13.625C43.5446 13.1266 44.9203 13.4528 45.9324 12.7429C45.685 12.6611 45.4247 12.5963 45.2236 12.4252C45.3172 12.2732 45.5968 12.0723 45.2989 11.982C45.5366 11.6462 45.2257 11.423 44.9536 11.2668C45.8377 10.5686 46.9811 10.2859 47.7469 9.39957Z" fill="#273324"/>
<path d="M47.2306 9.40701C46.5724 9.57917 45.8012 9.63337 45.3096 10.1435C45.2236 10.8024 46.8154 9.76621 47.2306 9.40701Z" fill="#060705"/>
<path d="M77.3233 10.3709C77.9321 10.8438 77.7267 9.26035 78.4602 9.75346C79.2185 9.95644 81.616 8.90221 80.8502 10.2359C75.9003 11.1775 70.9139 11.948 65.9512 12.829C65.9641 13.4273 65.9501 14.1096 66.6611 13.5899C67.2849 13.6654 67.9636 13.3859 68.5509 13.6176C67.7582 13.5719 66.987 13.7121 66.319 14.1447C67.7033 14.1287 69.3242 14.0841 69.9179 15.6622C69.9126 16.6038 71.0731 16.0831 71.2054 16.7218C70.0352 17.6538 71.4367 19.1034 70.9172 20.283C70.8128 19.3425 70.8053 18.3446 70.4697 17.4583C70.2686 17.1671 70.3611 17.6474 70.3353 17.7803C68.8994 18.1097 67.77 19.64 66.7503 20.7368C66.6621 21.3914 65.7597 20.8962 65.7608 21.5795C65.5855 22.0408 64.967 22.2267 65.2499 22.8166C65.0896 22.8899 64.9294 22.96 64.768 23.028C64.71 22.7252 65.0617 22.079 64.6261 22.0578C64.0549 21.8665 64.6476 22.9303 64.5153 23.1439C63.5096 23.7783 66.0308 23.0971 65.6436 23.8899C65.3757 24.0833 64.9014 23.4999 64.6928 23.9069C64.1818 24.4181 65.1983 24.5977 65.1993 25.1195C64.5056 25.2502 63.714 25.3257 63.0998 24.9101C63.1073 24.637 63.117 24.365 63.1321 24.0971C63.4128 22.7719 63.6247 20.8909 63.1547 19.6645C63.1041 19.419 62.5803 18.454 63.5193 18.6592C63.3461 19.8197 64.3357 18.2638 64.682 19.1661C64.2636 20.0237 64.4529 21.0163 64.4109 21.9366C65.4102 21.3787 64.0539 20.4137 64.9283 19.9695C64.9487 19.656 64.9799 19.3616 64.9584 19.0524C64.9283 18.6921 64.8541 18.3223 64.654 18.0183C65.6446 17.8791 65.7339 18.3084 65.3887 18.8579C65.1176 19.7378 65.4898 20.2309 65.821 20.5646C66.5729 20.453 66.191 19.4668 66.1749 18.9344C66.5083 19.1161 66.3018 20.2171 66.7084 19.9408C66.8998 19.7761 67.0633 19.5837 67.2161 19.385C67.2505 19.3435 67.3172 19.2628 67.3516 19.2224C68.3121 18.5624 69.1597 17.7208 69.9814 16.9025C69.805 15.319 67.5613 13.3753 66.1136 14.8939C65.5597 15.8642 66.5836 17.2361 66.1426 18.2564C65.9555 17.2149 65.9211 16.1575 65.7909 15.1107C65.393 15.4656 65.4155 16.03 65.2445 16.471C64.7057 16.7112 64.6282 17.3456 64.7057 17.8642C64.6734 17.9035 64.6099 17.9811 64.5777 18.0204C64.3507 18.5051 63.7645 18.3743 63.3289 18.4753C63.472 17.6697 63.7021 16.8833 64.0141 16.1256C64.1033 16.0151 64.198 15.9088 64.2786 15.7919C64.3991 15.6208 64.5153 15.4465 64.6325 15.2733C64.7874 15.0639 64.9358 14.8493 65.0864 14.6367C65.8673 14.2201 65.3456 12.5399 64.4228 13.0139C63.7398 13.1138 63.0686 13.2732 62.3835 13.3551C62.377 12.7227 63.3332 12.9682 63.7946 12.8205C64.4604 12.8067 64.9251 11.7216 65.5543 12.4337C67.2042 12.2976 68.8391 11.8683 70.488 11.6462C70.9182 11.0808 71.7583 10.609 72.4144 11.3061C73.6416 11.0925 74.8721 10.8566 76.094 10.627C76.3392 10.2232 77.048 9.75877 77.3233 10.3709Z" fill="#1D2B18"/>
<path d="M53.17 10.8088C53.6658 9.13282 52.0826 9.94368 51.1748 10.0744C51.2318 11.2562 52.2192 11.4538 53.17 10.8088Z" fill="#020402"/>
<path d="M50.0153 9.93412C50.7489 9.51328 50.7048 10.644 51.0178 11.0415C50.2821 12.0096 50.3907 10.6355 49.6969 10.6387C48.8397 10.7545 49.5786 10.0818 50.0153 9.93412Z" fill="#020302"/>
<path d="M71.1312 9.79809C70.7752 9.92137 70.2976 9.86292 70.047 10.1711C70.2148 10.1892 72.0605 10.0563 71.1312 9.79809Z" fill="#0A110B"/>
<path d="M57.4594 10.3794C57.5584 10.6461 59.7773 10.2976 58.976 10.0744C58.4694 10.1754 57.9542 10.2338 57.4594 10.3794Z" fill="#0B130A"/>
<path d="M29.6932 10.7928C30.2859 10.0106 29.3372 9.98832 28.6553 10.1956C27.5442 10.203 29.3942 10.8258 29.6932 10.7928Z" fill="#070E07"/>
<path d="M56.0676 10.5994C56.2645 10.5197 56.4409 10.6515 56.6 10.7482C55.7557 10.8789 54.9189 11.0521 54.0767 11.1966C54.5381 10.6557 55.4459 10.8704 56.0676 10.5994Z" fill="#0B150A"/>
<path d="M54.266 11.4751C55.603 11.1509 56.9625 11.0022 58.2618 10.6578C58.1016 11.2891 59.6569 10.694 59.5859 11.4209C59.3826 11.4655 58.8211 11.186 59.1201 11.5548C59.6224 11.8237 60.1462 11.2296 60.6539 11.1966C60.8465 12.1063 59.2277 12.7578 58.7383 12.1106C58.1994 12.1361 57.6272 12.6122 57.1217 12.304C56.8905 12.4911 56.2903 12.9714 56.3247 12.3795C56.115 12.6451 55.6686 13.1053 55.6234 12.372C56.3032 11.761 58.0951 12.3901 58.6157 11.507C58.1553 10.931 55.9429 11.0999 56.4269 11.8832C56.1849 11.7206 55.5008 12.1775 54.892 12.118C54.7716 11.9087 54.6027 11.7238 54.3392 11.7259C54.1509 11.7301 53.9842 11.4878 54.266 11.4751Z" fill="#202C1C"/>
<path d="M49.6711 10.949C48.8903 11.0255 49.4044 11.9852 49.9422 11.3656C49.8927 11.1988 49.8669 11.0032 49.6711 10.949Z" fill="#0D100B"/>
<path d="M13.2561 11.1478L13.3346 11.1329C14.7813 11.457 11.4212 11.7216 13.2561 11.1478Z" fill="#101E0E"/>
<path d="M46.5853 11.4315C47.0843 11.3157 47.5888 11.2307 48.0868 11.1063C48.0911 11.1924 48.0997 11.3635 48.1051 11.4496C47.6415 11.7163 46.824 12.1361 46.5853 11.4315Z" fill="#030403"/>
<path d="M58.6157 11.507C58.1553 10.931 55.9429 11.0999 56.4269 11.8832C57.1755 11.7004 57.838 11.4995 58.6157 11.507Z" fill="#050705"/>
<path d="M34.7743 11.3454C35.1421 11.3242 34.3526 12.1265 34.0612 12.2413C33.518 12.5559 32.8253 12.0947 32.3757 11.8524C33.1652 11.6387 33.9794 11.5357 34.7743 11.3454Z" fill="#040603"/>
<path d="M11.3975 11.7397C11.6836 11.8322 12.7893 11.4007 12.0805 11.456C11.8234 11.5261 11.2856 11.3454 11.3975 11.7397Z" fill="#040603"/>
<path d="M36.663 11.5367C36.6641 11.9257 36.6652 12.7025 36.6662 13.0904C36.0047 13.846 35.1776 12.5208 34.6226 13.2785C34.4204 13.2084 34.2031 13.1531 34.0063 13.269C33.5341 13.2722 33.3125 14.1053 32.8436 13.7461C32.9974 13.3359 32.4177 13.6016 32.3714 13.845C32.6855 14.0968 33.6019 14.0384 33.4137 14.6133C32.8318 14.5666 32.2778 14.76 31.9046 15.2095C31.7357 15.3307 31.1377 15.5634 31.1657 15.234C31.4324 14.997 31.7691 14.6856 31.2668 14.4986C31.6314 14.6782 32.7048 14.083 31.9261 13.9821C31.6314 13.9906 31.2689 14.1649 31.2668 14.4986C30.3568 14.1457 29.8954 15.2892 29.1705 15.4837C29.164 15.2935 28.8876 14.9598 29.2522 14.9236C31.7207 13.7929 34.2053 12.693 36.663 11.5367ZM35.9499 12.0968C35.6433 12.2488 35.2798 12.3391 35.0378 12.5888C35.3465 12.6483 36.4253 12.3657 35.9499 12.0968Z" fill="#22351A"/>
<path d="M44.2018 11.8545C44.5664 11.6217 44.9547 11.8237 45.2989 11.982C45.5968 12.0723 45.3172 12.2732 45.2236 12.4252C44.8116 12.3965 44.3072 12.3178 44.2018 11.8545Z" fill="#060905"/>
<path d="M54.892 12.118C54.7716 11.9087 54.6027 11.7238 54.3392 11.7259C53.6798 12.1446 54.4381 12.4549 54.892 12.118Z" fill="#0B0F07"/>
<path d="M41.7774 11.8056L41.8634 11.8375C42.0517 12.609 40.5222 12.5421 39.8941 12.7971C39.8532 11.8407 41.7193 12.7344 41.7774 11.8056Z" fill="#070C06"/>
<path d="M11.4061 11.9384C11.8955 11.8704 11.8492 12.7992 12.4752 12.4645C13.8864 12.203 15.0007 13.0777 16.2172 13.5623C16.3463 13.9502 16.314 14.3009 17.0034 14.1138C16.7066 14.4465 16.7485 15.3264 17.3326 15.1904C18.4178 15.4359 17.6348 14.642 17.6359 14.1755C18.0866 14.4188 18.3307 15.0852 18.8879 15.2584C18.5953 15.828 17.6251 15.1521 17.4627 15.8875C17.3702 15.337 16.8163 15.6994 16.5065 15.8567C16.2613 16.0151 16.5431 16.4189 16.0827 16.352C16.1634 15.6676 15.3438 16.2595 14.9921 16.2882C14.4834 16.2999 14.2274 16.6516 14.1424 17.1118C13.5411 17.6867 12.6516 17.199 12.1063 17.7346C12.1838 16.6623 11.1254 15.9789 10.1143 16.3073C10.1434 17.0353 10.1982 17.7611 10.2563 18.4891C10.8006 18.4817 11.2942 18.1756 11.8277 18.081C13.4443 17.8578 15.3298 16.8653 16.6507 16.5284C16.841 17.2521 17.4789 16.9737 17.3068 16.2935C17.9048 15.7515 17.7553 16.4944 17.9414 16.9163C17.7445 16.9726 16.3828 17.1012 17.0196 17.5231C14.2833 18.1384 11.3136 18.4147 8.6838 19.2862C12.2967 18.7824 15.845 17.8887 19.4547 17.3775C19.9731 17.6878 17.9145 17.7579 18.5985 17.8993C19.8731 17.8876 18.6469 18.0194 18.3447 18.1628C18.1877 19.1352 16.8152 18.0895 16.5463 18.9673C17.2003 18.894 17.8317 18.673 18.491 18.639C18.6803 19.6528 17.7811 19.3542 17.1809 19.6411C16.8765 19.928 16.2204 19.2139 16.3635 19.7623C17.3874 20.0811 14.9598 20.046 15.4611 20.3244C16.3301 20.1512 17.1981 19.9312 18.0898 19.9142C17.8101 20.5285 16.7733 19.792 16.6657 20.4509C17.1777 20.3404 18.1457 20.5816 18.4006 20.0471C17.6746 19.8452 19.0933 19.8377 18.8739 19.2256C18.9793 18.6347 19.3869 19.2107 19.4601 19.5093C20.2334 19.572 21.0208 19.2341 21.8092 19.2309C21.9243 18.6645 21.565 17.8536 22.2459 17.6729C22.9353 16.2914 22.5621 18.8887 22.8471 19.3754C23.5183 20.2756 22.4384 21.1661 21.4531 20.842C20.6949 20.2819 20.7336 21.9674 20.6163 20.9833C19.6333 21.0216 18.3931 21.8952 17.6273 21.1906C17.3433 21.1853 17.2691 21.3967 17.4036 21.825C16.8722 21.842 16.3538 21.9951 15.8698 22.2055C14.8641 23.2236 13.3787 22.1428 12.1795 22.3192C11.7438 22.4372 12.1644 21.6752 11.7245 21.7081C9.11081 21.5073 6.30891 23.1237 3.86518 22.3723C4.83858 22.0089 4.52451 20.7368 4.59012 19.8834C5.97763 20.1257 5.7012 18.4944 6.84025 18.1894C7.65661 17.6304 8.28476 18.8069 9.11941 18.7378C10.7263 18.8281 8.64508 15.6984 10.4564 15.8472C10.1638 15.2212 8.90967 16.2733 9.21514 15.2573C7.78676 16.047 7.56411 13.4964 9.02584 13.7759C10.4219 13.5591 10.6543 15.1266 11.3534 15.9226C12.2192 16.0863 11.6535 14.9375 11.7654 14.4135C12.1052 13.7557 10.3531 14.0224 11.0329 13.3423C11.362 13.7929 11.789 13.2318 12.1708 13.1361C11.1566 13.3859 11.761 12.3922 11.4061 11.9384ZM7.19627 18.3382C6.57888 18.5189 6.14004 19.0375 5.90771 19.6114C6.8424 19.4551 7.86098 19.3191 8.71499 19.0045C8.15461 18.91 7.73298 18.4349 7.19627 18.3382ZM11.1168 19.4307C10.8479 19.4647 10.5801 19.5146 10.3316 19.6209C10.1133 20.6305 12.7979 19.0917 11.1168 19.4307ZM9.39691 19.7559C8.82685 19.7028 6.62405 20.4233 7.9922 20.2926C8.45578 20.4743 10.8823 19.8675 9.39691 19.7559ZM10.7844 20.0577C10.4725 20.0917 10.1907 20.3032 10.3348 20.6411C10.8199 21.0503 11.6718 19.8048 10.7844 20.0577ZM9.60235 20.2734C9.20868 20.4509 8.06964 20.2787 8.83115 20.7665C7.62757 21.7761 10.0541 21.2915 10.2983 20.9175C9.70023 20.9993 10.1369 20.0651 9.60235 20.2734ZM4.96658 20.3574C4.73102 20.926 4.48041 22.4329 5.51405 21.8686C5.71303 21.3978 5.80015 20.164 4.96658 20.3574ZM7.54153 20.6741C6.9876 21.2012 7.81688 22.045 8.04705 21.3319C7.45333 21.4414 8.13202 20.452 7.54153 20.6741ZM7.10269 20.7719C7.11022 21.1619 7.04138 22.095 6.94996 21.0195C6.4853 20.3308 6.0583 21.7846 6.65955 21.7166C7.28554 21.8983 7.69534 20.9387 7.10269 20.7719ZM5.93245 20.9972C5.74853 21.1385 5.58719 21.8675 5.90879 21.8335C6.45196 22.061 6.22179 20.9578 5.93245 20.9972ZM10.9995 21.1204C9.90136 21.5062 8.31595 21.3617 7.4415 21.9164C8.55796 22.0067 9.87447 21.5009 11.0619 21.3936C11.3932 21.4052 11.2695 21.0067 10.9995 21.1204ZM6.82196 21.8867C6.5208 22.0195 5.81629 21.841 5.80123 22.2597C6.18522 22.3426 8.16859 21.8888 6.82196 21.8867ZM4.98701 22.1949C7.03278 22.2522 3.02299 22.6731 4.98701 22.1949Z" fill="#264021"/>
<path d="M32.166 12.3465C31.896 12.2031 31.6056 12.0776 31.298 12.0479C31.0829 12.7047 31.7884 12.4124 32.166 12.3465Z" fill="#0A1109"/>
<path d="M35.0378 12.5888C35.3465 12.6483 36.4253 12.3657 35.9499 12.0968C35.6433 12.2488 35.2798 12.3391 35.0378 12.5888Z" fill="#090C08"/>
<path d="M52.6354 12.0957C54.2736 12.2551 51.861 12.659 52.6354 12.0957Z" fill="#040604"/>
<path d="M40.0242 13.0288C40.0608 13.4826 42.2313 12.5346 41.4418 12.6271C40.9643 12.7419 40.4932 12.8843 40.0242 13.0288Z" fill="#0E100E"/>
<path d="M29.4749 12.9427C29.1866 12.8534 28.8994 12.761 28.6069 12.6908C28.3821 13.2902 29.1414 13.2243 29.4749 12.9427Z" fill="#10180F"/>
<path d="M58.0424 13.201C58.8265 13.455 60.057 12.4454 60.5819 13.5208C61.0885 13.2509 61.779 12.9533 62.3835 13.3551C61.5757 13.4199 60.8884 13.8556 60.2366 14.2913C60.3356 13.2679 59.0061 14.0416 58.4737 14.1372C58.0166 14.048 57.5659 14.2137 57.1163 14.2807C56.7915 14.3827 56.1375 14.2849 56.4677 14.9268C56.5602 16.4529 56.0472 17.945 56.2623 19.4743C57.2045 19.6762 58.1844 19.6911 59.1427 19.8154C59.2116 19.9217 59.2793 20.0301 59.3492 20.1406C58.8921 20.1268 58.4404 20.1289 57.9875 20.1161C57.4766 20.0736 56.9765 19.9854 56.4764 19.8792C54.9254 19.6485 56.4473 22.1183 55.4373 22.8282C54.8038 23.4914 56.1128 26.5722 54.4467 25.8506C54.123 25.8209 53.4755 25.6413 53.3615 25.9665C53.0614 26.0026 52.7742 26.0547 52.4762 26.0866C52.6408 25.1939 53.2012 24.4351 53.3636 23.5403C53.5776 23.0365 53.7831 22.5285 54.0176 22.0344C54.6403 20.2235 55.5341 18.2128 54.7178 16.3392C54.1789 15.4391 55.4868 15.4125 55.1738 14.6133C54.8856 14.6601 54.6048 14.7451 54.3209 14.8131C53.5196 14.6388 54.2155 15.8673 53.4314 15.9524C52.8602 15.8216 53.2087 15.4529 53.6648 15.6654C53.9337 14.9481 53.5432 14.8301 53.0291 15.014C52.4053 15.0735 51.789 15.1861 51.1673 15.2573C50.6542 15.3222 50.5015 14.7525 50.2337 14.4348C50.6015 14.4784 51.206 14.032 51.3447 14.5623C51.3351 15.6049 51.875 14.523 51.961 14.1946C53.4023 14.7132 54.8888 14.1659 56.3537 14.0681C56.9303 13.8705 58.2349 14.134 58.0424 13.201Z" fill="#29401D"/>
<path d="M64.4228 13.0139C65.3456 12.5399 65.8673 14.2201 65.0864 14.6367C64.8326 14.134 64.6594 13.5974 64.4034 13.0968L64.4228 13.0139Z" fill="#9D9C9A"/>
<path d="M62.3835 13.3551C63.0686 13.2732 63.7398 13.1138 64.4228 13.0139L64.4034 13.0968C64.2496 13.5708 64.1883 14.0735 64.2173 14.5708C64.2313 14.9768 64.2518 15.3838 64.2786 15.7919C64.198 15.9088 64.1033 16.0151 64.0141 16.1256C63.8248 15.4826 64.6465 12.9863 63.4698 14.1075C63.6774 14.5942 63.558 15.4826 62.946 15.6272C62.7352 16.6038 62.7997 17.6155 62.8083 18.6092C62.9826 18.5699 63.1547 18.5189 63.3289 18.4753C63.7645 18.3743 64.3507 18.5051 64.5777 18.0204L64.654 18.0183C64.8541 18.3223 64.9283 18.6921 64.9584 19.0524C64.8648 19.0885 64.7734 19.1267 64.682 19.1661C64.3357 18.2638 63.3461 19.8197 63.5193 18.6592C62.5803 18.454 63.1041 19.419 63.1547 19.6645C62.1286 20.5242 62.9514 22.4403 62.5652 23.6327C62.3845 24.0429 62.8406 24.0451 63.1321 24.0971C63.117 24.365 63.1073 24.637 63.0998 24.9101C62.3738 24.9739 61.665 25.2013 61.0261 25.5446C60.8303 25.8942 60.7916 26.5117 61.2466 26.6891C61.1939 27.2099 61.2993 27.7997 61.9543 27.6966C61.0196 28.6988 61.2122 30.5012 60.4711 31.7286C60.6346 32.3163 61.6187 31.5448 62.1393 31.6595C63.1299 31.9103 64.1528 32.0357 65.1703 32.141C65.1101 31.5416 65.251 30.8476 64.8971 30.3184C65.8716 29.0388 64.9487 32.633 65.835 32.26C65.878 32.2292 65.9662 32.1696 66.0093 32.1399C66.988 32.7754 66.3567 33.5533 65.2811 33.0156C65.4854 32.4088 64.5185 32.3705 64.2141 32.6553C64.1636 32.5788 64.1098 32.5076 64.0506 32.4406C63.5247 32.5161 62.377 31.7297 62.234 32.4587C61.7284 32.1537 61.3832 32.6936 61.7672 32.9635C63.5322 33.2855 65.2972 33.6383 67.0633 33.9975C68.6724 34.7585 69.3414 36.5067 70.9021 37.3483C70.4783 36.7585 70.1083 36.1273 69.5522 35.648C69.8039 35.4641 70.0804 35.3153 70.3568 35.1708C72.0003 36.7787 74.3762 36.6522 76.4876 37.1103C77.5965 37.2824 79.1787 38.2187 78.5097 39.5067C79.2336 39.816 80.0338 39.934 80.819 39.8649C81.5439 39.8351 82.1151 41.34 80.9674 41.1317C79.9241 40.9552 78.7173 40.2209 77.8482 41.2039C74.6505 41.1221 71.5044 40.2762 68.3347 39.8489C67.685 39.3144 67.3139 38.5312 66.7009 37.9605C66.703 39.0306 66.4857 40.0817 66.433 41.1476C66.3599 41.8511 66.319 42.561 66.3664 43.272C66.9751 43.3857 68.2174 43.6376 67.1666 44.1551C67.0063 44.2657 66.8514 44.3847 66.6858 44.4878C65.7275 44.4283 64.7024 44.3528 63.8312 43.9415C64.1012 43.34 65.138 43.3347 65.2381 42.7906C66.2179 42.831 66.0501 41.9829 66.0727 41.3134C65.9264 39.7204 67.0106 37.8042 65.7167 36.4982C65.5661 36.2303 65.3349 36.0561 65.1316 36.3823C63.9635 36.2548 62.8051 36.0178 61.623 36.0709C61.0508 36.4769 60.4904 35.0348 60.4345 36.2845C59.1416 36.6193 57.6885 36.4301 56.3075 36.6267C55.0953 35.7744 53.3819 35.9551 52.2902 34.9859C51.8997 33.2621 51.6104 31.4512 51.8158 29.6882C53.1119 29.6531 52.7053 31.2026 53.0528 32.0017C53.383 33.937 54.494 36.0263 56.5914 36.4514C57.7563 36.2835 55.9418 34.2877 57.5143 34.4535C58.0994 34.3366 56.8582 34.5693 56.9808 34.1729C58.1596 34.4992 59.388 34.2143 60.2527 33.3472C60.8013 33.4003 60.9346 32.6872 60.3721 32.7042C59.8913 32.9306 59.4439 33.3046 58.8781 33.2685C58.7028 32.6022 60.0301 32.4853 60.3323 32.3492C59.4805 30.719 58.3543 29.2068 57.5691 27.5266C57.4261 27.0781 56.472 27.9495 56.8915 26.9325C56.9668 26.4075 56.3978 26.1418 55.9246 26.2917C54.9996 26.5999 54.0262 26.6041 53.1216 26.9421C53.2302 26.7678 53.5099 26.5956 53.3711 26.3682C53.5863 26.2439 53.5551 26.0972 53.3615 25.9665C53.4755 25.6413 54.123 25.8209 54.4467 25.8506C56.1128 26.5722 54.8038 23.4914 55.4373 22.8282C56.4473 22.1183 54.9254 19.6485 56.4764 19.8792C56.101 19.9918 55.974 21.1736 56.5688 21.1629C56.9249 21.1374 56.8775 21.3744 56.7754 21.621C55.6083 21.2193 56.3215 22.942 56.1128 23.6147C55.2577 25.4457 57.1701 25.0823 58.1607 24.6646C59.0448 24.4245 59.8827 23.8814 60.4044 23.1332C61.0164 22.0705 61.0218 19.9695 59.4009 20.215L59.3492 20.1406C59.2793 20.0301 59.2116 19.9217 59.1427 19.8154C59.6181 19.8579 60.0914 19.927 60.5668 19.9865C60.5012 19.5933 60.385 19.2118 60.2667 18.8334C60.555 18.1809 60.114 17.3594 60.8185 16.8929C61.0766 16.471 60.4937 16.7622 60.2796 16.6686C60.2344 16.3381 60.2312 16.0204 60.2119 15.6931C60.2162 15.2223 60.228 14.7579 60.2366 14.2913C60.8884 13.8556 61.5757 13.4199 62.3835 13.3551ZM62.0597 13.7631C61.5843 15.0342 61.8134 16.8897 61.765 18.3531C61.7112 18.9726 61.309 20.2681 62.2996 19.6284C62.6276 18.0077 62.662 16.1447 62.42 14.5421C62.6954 14.1234 62.7051 13.3508 62.0597 13.7631ZM62.1974 20.063C61.0476 20.1799 61.7091 21.9515 61.6273 22.5626C62.519 23.0907 61.0304 23.0886 61.1949 23.62C61.566 23.6582 61.95 23.6402 62.2641 23.8633C62.0748 22.6933 62.6599 20.8664 62.1974 20.063ZM57.8617 26.2003C57.4766 27.026 58.4307 27.1397 58.9728 26.9686C59.4202 26.1822 58.3274 26.2683 57.8617 26.2003ZM73.4652 38.5482C73.1296 38.8351 73.4545 39.3952 73.3609 39.7639C74.2719 40.4951 74.3913 38.3717 73.4652 38.5482Z" fill="#2E5A25"/>
<path d="M34.6226 13.2785C34.4204 13.2084 34.2031 13.1531 34.0063 13.269C33.0834 13.9534 35.4831 13.557 34.6226 13.2785Z" fill="#0C100C"/>
<path d="M64.2173 14.5708C64.1883 14.0735 64.2496 13.5708 64.4034 13.0968C64.6594 13.5974 64.8326 14.134 65.0864 14.6367C64.9358 14.8493 64.7874 15.0639 64.6325 15.2733C64.5045 15.0331 64.3679 14.7972 64.2173 14.5708Z" fill="#A62C27"/>
<path d="M66.6611 13.5899C68.7563 12.626 70.7827 14.4274 71.555 16.2457C72.3369 16.2765 71.5614 16.8812 71.8142 17.2829C72.4746 19.4764 72.0562 21.9908 70.587 23.7773C69.7717 24.722 68.3562 25.484 67.1246 24.8421C66.9665 25.2375 67.0354 26.4766 66.347 26.2003C66.7213 25.7316 67.2688 24.9239 66.7751 24.4053C66.233 24.6062 65.7447 24.9271 65.1993 25.1195C65.1983 24.5977 64.1818 24.4181 64.6928 23.9069C64.9014 23.4999 65.3757 24.0833 65.6436 23.8899C66.0308 23.0971 63.5096 23.7783 64.5153 23.1439C64.5787 23.1152 64.7046 23.0567 64.768 23.028C64.9294 22.96 65.0896 22.8899 65.2499 22.8166C65.5274 22.7581 65.8103 22.722 66.0953 22.6912C66.1308 23.3713 67.1279 23.0589 66.7815 22.4967C67.0537 21.7007 66.0093 22.028 66.0071 22.4712C65.8974 22.1821 65.8253 21.8803 65.7608 21.5795C65.7597 20.8962 66.6621 21.3914 66.7503 20.7368C66.8321 20.8112 66.9149 20.8877 66.9977 20.9653C66.5471 20.8409 66.3846 21.9653 67.087 21.502C66.6406 21.8994 67.144 23.1598 67.358 22.1162C67.8431 22.6571 67.6861 23.7815 68.5993 23.9866C69.7039 24.3023 70.1793 22.9303 70.4138 22.1279C70.7257 20.6985 70.7978 19.1863 70.3353 17.7803C70.3611 17.6474 70.2686 17.1671 70.4697 17.4583C70.8053 18.3446 70.8128 19.3425 70.9172 20.283C71.4367 19.1034 70.0352 17.6538 71.2054 16.7218C71.0731 16.0831 69.9126 16.6038 69.9179 15.6622C69.3242 14.0841 67.7033 14.1287 66.319 14.1447C66.987 13.7121 67.7582 13.5719 68.5509 13.6176C67.9636 13.3859 67.2849 13.6654 66.6611 13.5899Z" fill="#333633"/>
<path d="M28.8542 14.0458C29.3942 14.5379 30.3536 13.1298 29.1931 13.489C28.8037 13.4007 28.4885 13.7865 28.8542 14.0458Z" fill="#040704"/>
<path d="M62.0597 13.7631C62.7051 13.3508 62.6954 14.1234 62.42 14.5421C62.662 16.1447 62.6276 18.0077 62.2996 19.6284C61.309 20.2681 61.7112 18.9726 61.765 18.3531C61.9167 16.8259 61.8693 15.285 62.0597 13.7631Z" fill="#020301"/>
<path d="M40.2641 14.2254C41.6279 13.5357 43.2886 13.7578 44.7621 13.8397C43.5908 14.3349 42.1947 14.3785 41.0621 14.7185C40.5437 14.912 39.794 14.8949 40.2641 14.2254Z" fill="#ECD32B"/>
<path d="M58.4737 14.1372C59.0061 14.0416 60.3356 13.2679 60.2366 14.2913C60.228 14.7579 60.2162 15.2223 60.2119 15.6931C59.6934 15.3041 59.2653 14.7568 58.6017 14.6101C58.5565 14.4518 58.5124 14.2934 58.4737 14.1372Z" fill="#040402"/>
<path d="M62.0597 13.7631C61.5843 15.0342 61.8134 16.8897 61.765 18.3531C61.9167 16.8259 61.8693 15.285 62.0597 13.7631Z" fill="#323322"/>
<path d="M63.4698 14.1075C64.6465 12.9863 63.8248 15.4826 64.0141 16.1256C63.7021 16.8833 63.472 17.6697 63.3289 18.4753C63.1547 18.5189 62.9826 18.5699 62.8083 18.6092C62.7997 17.6155 62.7352 16.6038 62.946 15.6272C63.558 15.4826 63.6774 14.5942 63.4698 14.1075Z" fill="#020402"/>
<path d="M43.9834 14.4072C44.931 14.0235 46.1131 13.7515 46.9015 14.1819C46.3637 14.5942 45.628 14.5039 45.002 14.6526C44.6159 14.777 44.0308 14.9736 43.9834 14.4072Z" fill="#DCC528"/>
<path d="M31.9261 13.9821C31.6314 13.9906 31.2689 14.1649 31.2668 14.4986C31.6314 14.6782 32.7048 14.083 31.9261 13.9821Z" fill="#050804"/>
<path d="M57.1163 14.2807C57.5659 14.2137 58.0166 14.048 58.4737 14.1372C58.5124 14.2934 58.5565 14.4518 58.6017 14.6101C58.7867 15.3881 58.8943 16.1915 59.2008 16.9354C58.606 17.8547 59.118 15.7685 58.5974 16.404C57.8789 16.0034 57.5562 15.1744 56.9765 14.6176C56.7678 14.489 57.0238 14.3827 57.1163 14.2807Z" fill="#F3E22A"/>
<path d="M34.3967 14.4188C34.9862 15.2935 38.157 13.8875 35.6466 14.2392C35.2282 14.2924 34.8119 14.3508 34.3967 14.4188Z" fill="#DDCA2C"/>
<path d="M56.4677 14.9268C56.1375 14.2849 56.7915 14.3827 57.1163 14.2807C57.0238 14.3827 56.7678 14.489 56.9765 14.6176C57.5562 15.1744 57.8789 16.0034 58.5974 16.404C59.118 15.7685 58.606 17.8547 59.2008 16.9354C59.7106 17.3764 60.271 18.759 59.1567 18.5497C58.9287 19.6549 59.7827 19.0789 60.2667 18.8334C60.385 19.2118 60.5012 19.5933 60.5668 19.9865C60.0914 19.927 59.6181 19.8579 59.1427 19.8154C58.1844 19.6911 57.2045 19.6762 56.2623 19.4743C56.0472 17.945 56.5602 16.4529 56.4677 14.9268Z" fill="#A2911F"/>
<path d="M29.1705 15.4837C29.8954 15.2892 30.3568 14.1457 31.2668 14.4986C31.7691 14.6856 31.4324 14.997 31.1657 15.234C30.7053 15.6187 29.2081 16.0788 29.1705 15.4837Z" fill="#C3B01F"/>
<path d="M37.8569 14.5145C37.2374 15.8535 39.8833 13.9938 38.442 14.438C38.2957 14.4571 38.0032 14.4954 37.8569 14.5145Z" fill="#E7CF27"/>
<path d="M39.0185 15.0342C39.4466 15.1808 40.4448 14.5836 39.8252 14.4337C39.5423 14.608 39.1971 14.7387 39.0185 15.0342Z" fill="#CFBE2C"/>
<path d="M43.7726 14.4539C43.4693 14.6856 41.9452 14.4847 42.4916 14.9491C42.8358 15.2095 44.1663 15.0724 43.7726 14.4539Z" fill="#D6C02D"/>
<path d="M22.2835 14.6335C22.7245 14.6038 23.1601 14.5432 22.9213 15.2446C24.0743 15.3084 25.3005 14.4656 26.3793 15.1585C27.2247 15.6176 25.8243 16.1097 25.3952 16.3286C24.9273 16.4944 24.6552 16.4317 24.0894 16.5167C24.6799 16.7707 23.5989 17.3934 23.5 16.8812C23.6947 16.2754 23.0794 15.6899 22.6277 16.2499C22.2867 16.5794 21.4908 15.6123 22.3717 15.6314C21.75 15.3849 22.3341 15.0246 22.2835 14.6335Z" fill="#22351C"/>
<path d="M33.4137 14.6133C32.8318 14.5666 32.2778 14.76 31.9046 15.2095C32.4015 15.2201 34.5774 15.082 33.4137 14.6133Z" fill="#D7C326"/>
<path d="M54.3209 14.8131C54.6048 14.7451 54.8856 14.6601 55.1738 14.6133C55.4868 15.4125 54.1789 15.4391 54.7178 16.3392C55.5341 18.2128 54.6403 20.2235 54.0176 22.0344C53.2528 21.6465 52.4214 21.3181 51.5663 21.1991C50.6832 19.9217 53.3249 20.9047 53.0087 19.5986C52.9323 19.0003 52.942 18.4678 53.7024 18.5752C54.394 17.4944 53.754 15.9683 54.3209 14.8131Z" fill="#95861F"/>
<path d="M58.6017 14.6101C59.2653 14.7568 59.6934 15.3041 60.2119 15.6931C60.2312 16.0204 60.2344 16.3381 60.2796 16.6686C60.4937 16.7622 61.0766 16.471 60.8185 16.8929C60.114 17.3594 60.555 18.1809 60.2667 18.8334C59.7827 19.0789 58.9287 19.6549 59.1567 18.5497C60.271 18.759 59.7106 17.3764 59.2008 16.9354C58.8943 16.1915 58.7867 15.3881 58.6017 14.6101Z" fill="#272B26"/>
<path d="M64.2173 14.5708C64.3679 14.7972 64.5045 15.0331 64.6325 15.2733C64.5153 15.4465 64.3991 15.6208 64.2786 15.7919C64.2518 15.3838 64.2313 14.9768 64.2173 14.5708Z" fill="#BCB8B6"/>
<path d="M36.3876 14.7536C36.7942 14.6388 36.6953 15.2414 36.5404 15.4444C36.1628 15.3455 35.7606 15.2159 35.4605 14.9587C35.7713 14.913 36.0854 14.8429 36.3876 14.7536Z" fill="#D2BF2A"/>
<path d="M47.7663 15.2318C48.659 15.895 49.8206 14.1521 50.4348 15.4603C49.4689 15.6601 48.4923 15.8004 47.5157 15.9322C46.0055 16.1968 44.4857 16.4189 42.9874 16.7388C42.0087 16.8366 41.0353 17.0034 40.0834 17.2425C38.3108 17.4508 36.5705 17.86 34.8076 18.1257C34.2806 18.1894 33.7611 18.3042 33.234 18.3595C33.3534 17.4328 35.6186 18.3308 35.0991 17.1756C35.5067 16.8504 36.1349 17.6155 36.2478 16.8015C36.4135 18.199 37.688 16.3902 38.0032 17.2361C38.797 17.0842 39.6176 16.9354 40.4265 16.8068C40.5588 16.4837 39.6348 16.2042 40.2823 16.1511C40.6975 15.8493 42.0151 16.0533 40.9503 16.2446C42.568 16.7919 44.2437 15.9609 45.8754 15.8408C46.3669 15.6952 45.7237 14.8354 46.6079 15.1075C46.582 15.7228 47.421 14.947 47.7663 15.2318Z" fill="#213E17"/>
<path d="M53.4314 15.9524C54.2155 15.8673 53.5196 14.6388 54.3209 14.8131C53.754 15.9683 54.394 17.4944 53.7024 18.5752C52.942 18.4678 52.9323 19.0003 53.0087 19.5986C53.3249 20.9047 50.6832 19.9217 51.5663 21.1991C51.2017 21.3085 50.3961 21.486 50.6176 20.8633C50.6026 20.4998 50.7951 20.3 51.1651 20.3287C51.4577 20.2841 51.7416 20.1959 52.0245 20.1108C53.1528 20.1215 52.9452 19.0162 52.9011 18.1894C52.9205 17.5507 52.9076 16.9141 52.8818 16.2786L52.8839 16.1872C52.9355 15.7951 53.0194 15.4082 53.0291 15.014C53.5432 14.8301 53.9337 14.9481 53.6648 15.6654C53.2087 15.4529 52.8602 15.8216 53.4314 15.9524Z" fill="#426431"/>
<path d="M41.1299 14.8971C41.3386 14.9375 41.2385 15.1351 41.2267 15.2786C40.9557 15.5337 40.5545 15.4911 40.2124 15.4539C40.1285 14.9566 40.8675 15.099 41.1299 14.8971Z" fill="#CDBA2B"/>
<path d="M66.1426 18.2564C66.5836 17.2361 65.5597 15.8642 66.1136 14.8939C66.6492 16.2946 65.7576 18.385 67.3516 19.2224C67.3172 19.2628 67.2505 19.3435 67.2161 19.385C66.6643 19.2065 66.4524 19.3807 66.7084 19.9408C66.3018 20.2171 66.5083 19.1161 66.1749 18.9344C65.9598 18.708 65.6522 18.8069 65.3887 18.8579C65.7339 18.3084 65.6446 17.8791 64.654 18.0183L64.5777 18.0204C64.6099 17.9811 64.6734 17.9035 64.7057 17.8642C65.2886 17.6464 65.6597 18.1937 66.1426 18.2564Z" fill="#3F633D"/>
<path d="M51.1673 15.2573C51.789 15.1861 52.4053 15.0735 53.0291 15.014C53.0194 15.4082 52.9355 15.7951 52.8839 16.1872C52.5677 16.2266 52.0826 16.1819 51.9998 16.5783C51.4609 17.7303 50.9844 18.9652 51.1501 20.2511L51.1651 20.3287C50.7951 20.3 50.6026 20.4998 50.6176 20.8633C48.7192 20.5816 50.7844 23.1067 49.5808 23.739C49.4603 23.7677 49.3398 23.7975 49.2204 23.8293C50.2562 23.1216 49.242 22.0046 49.4947 20.9759C49.8206 19.5125 47.3059 20.3255 46.6272 19.7654C46.3164 18.6645 45.1375 18.8058 44.3233 19.1714C43.2908 17.9726 41.4752 18.5359 40.0984 18.623C38.9002 19.1427 37.4675 18.7112 36.4511 19.4828C35.8208 19.8388 36.7598 18.8441 36.2414 18.8334C37.4966 18.5731 38.6808 18.1257 39.8284 17.5922C39.6746 17.775 39.5015 17.9397 39.3466 18.1203C40.4039 17.9035 41.5773 18.0013 42.5411 17.4646C41.7688 17.0736 40.8836 17.4455 40.0834 17.2425C41.0353 17.0034 42.0087 16.8366 42.9874 16.7388C44.148 17.5698 45.8679 16.658 46.7821 17.9089C47.7136 18.1756 48.6891 18.2999 49.6614 18.3021C49.769 17.7346 49.5259 17.2181 48.943 17.0534C48.8892 17.0236 48.7816 16.9652 48.7268 16.9365C48.3363 16.5751 47.9523 16.1979 47.5157 15.9322C48.4923 15.8004 49.4689 15.6601 50.4348 15.4603C50.9349 15.8068 51.2651 16.5305 51.9697 16.4115C51.8772 15.9184 51.0877 15.7568 51.1673 15.2573Z" fill="#98871D"/>
<path d="M34.969 15.4082C33.8665 14.8078 32.4865 15.5698 31.37 15.828C32.5596 15.7281 33.8331 15.8015 34.969 15.4082Z" fill="#CEB820"/>
<path d="M38.5582 15.8291C38.9637 15.997 40.8879 15.0703 39.4111 15.2977C38.8938 15.1649 37.0975 15.8408 38.5582 15.8291Z" fill="#B0A227"/>
<path d="M34.969 15.4082C35.2153 15.387 35.4401 15.6027 35.6294 15.7494C34.0181 15.8004 32.4768 16.4274 30.8581 16.4157C31.0302 16.2329 31.1399 15.9067 31.37 15.828C32.5596 15.7281 33.8331 15.8015 34.969 15.4082Z" fill="#797115"/>
<path d="M17.4627 15.8875C17.3702 15.337 16.8163 15.6994 16.5065 15.8567C16.471 16.4582 17.1605 16.0108 17.4627 15.8875Z" fill="#040704"/>
<path d="M21.1864 15.8844C22.2286 15.7324 21.0326 16.9141 21.1864 15.8844Z" fill="#0A0B0B"/>
<path d="M35.8445 15.9215C36.1585 16.4274 35.0765 16.607 34.6269 16.4242C33.8353 16.6548 32.4306 17.2181 31.8379 16.6431C33.1813 16.4508 34.5086 16.1639 35.8445 15.9215Z" fill="#958819"/>
<path d="M16.0827 16.352C16.1634 15.6676 15.3438 16.2595 14.9921 16.2882C15.2771 16.6899 15.7439 16.6708 16.0827 16.352Z" fill="#050705"/>
<path d="M42.9874 16.7388C44.4857 16.4189 46.0055 16.1968 47.5157 15.9322C47.9523 16.1979 48.3363 16.5751 48.7268 16.9365C47.6415 16.9917 46.4465 16.5167 45.4645 16.7282C46.3228 17.7431 47.8157 17.5996 48.9924 17.4296C48.986 17.302 48.9634 17.1766 48.943 17.0534C49.5259 17.2181 49.769 17.7346 49.6614 18.3021C48.6891 18.2999 47.7136 18.1756 46.7821 17.9089C45.8679 16.658 44.148 17.5698 42.9874 16.7388Z" fill="#C1AE2B"/>
<path d="M51.9998 16.5783C52.0826 16.1819 52.5677 16.2266 52.8839 16.1872L52.8818 16.2786C52.3138 17.606 51.7427 18.9333 51.1501 20.2511C50.9844 18.9652 51.4609 17.7303 51.9998 16.5783Z" fill="#C4C6C3"/>
<path d="M10.1143 16.3073C11.1254 15.9789 12.1838 16.6623 12.1063 17.7346C12.0235 17.8568 11.9364 17.9779 11.8277 18.081C11.2942 18.1756 10.8006 18.4817 10.2563 18.4891C10.1982 17.7611 10.1434 17.0353 10.1143 16.3073Z" fill="#020302"/>
<path d="M17.3068 16.2935C17.0927 16.386 16.8701 16.4529 16.6507 16.5284C16.841 17.2521 17.4789 16.9737 17.3068 16.2935Z" fill="#060706"/>
<path d="M51.1501 20.2511C51.7427 18.9333 52.3138 17.606 52.8818 16.2786C52.9076 16.9141 52.9205 17.5507 52.9011 18.1894C52.5268 18.7909 52.3343 19.4774 52.0245 20.1108C51.7416 20.1959 51.4577 20.2841 51.1651 20.3287L51.1501 20.2511Z" fill="#B92D2B"/>
<path d="M45.4645 16.7282C46.4465 16.5167 47.6415 16.9917 48.7268 16.9365C48.7816 16.9652 48.8892 17.0236 48.943 17.0534C48.9634 17.1766 48.986 17.302 48.9924 17.4296C47.8157 17.5996 46.3228 17.7431 45.4645 16.7282Z" fill="#F9DF33"/>
<path d="M34.8076 18.1257C36.5705 17.86 38.3108 17.4508 40.0834 17.2425C40.8836 17.4455 41.7688 17.0736 42.5411 17.4646C41.5773 18.0013 40.4039 17.9035 39.3466 18.1203C39.5015 17.9397 39.6746 17.775 39.8284 17.5922C38.6808 18.1257 37.4966 18.5731 36.2414 18.8334C35.6907 19.1087 35.1271 18.5252 34.8076 18.1257Z" fill="#CDB61E"/>
<path d="M28.6004 18.5635C29.3479 18.8366 30.2063 18.7325 30.4407 18.0077C31.3087 18.6145 32.2413 18.1714 33.234 18.3595C32.052 18.3329 32.1907 19.4063 32.5414 20.2734C32.1025 20.0651 31.5981 20.0566 31.1635 19.8356C31.17 19.4658 31.2055 19.1108 31.1764 18.7463C29.9847 19.0035 28.7123 19.0141 27.5818 19.4923C28.0551 19.7123 28.68 19.4084 29.2124 19.5125C29.7319 19.9451 30.5892 19.8994 30.9882 20.47C30.4741 20.3595 29.477 19.7346 30.0051 20.672C28.7047 20.3957 27.0623 20.2681 25.9125 20.3468C26.972 21.4573 28.9295 21.7453 30.0643 22.9781C29.2985 24.1864 28.0217 21.8527 27.3871 23.0907C26.887 22.6571 26.2309 22.6465 25.6028 22.7836C25.1897 22.2703 24.3389 21.6624 24.8197 20.9557C24.0077 20.9929 23.1795 21.0439 22.4061 21.3149C21.8264 22.3925 20.9508 23.5838 19.5687 23.5413C19.8473 23.1928 20.1861 22.8729 20.3238 22.4382C19.3472 22.9058 18.6351 23.8495 18.1737 24.7996C19.0148 24.8772 19.3633 25.6753 19.9194 26.1758C20.7734 25.5871 21.3209 24.6721 22.2426 24.163C22.6825 23.9154 23.144 23.7071 23.6205 23.5403C24.1464 23.7645 24.581 23.095 25.0962 23.2725C25.9824 23.9314 27.1925 22.9898 27.8518 24.1705C29.5007 23.7996 29.6394 25.8772 31.0581 25.9984C31.6153 26.839 31.9293 27.9379 32.9361 28.3895C32.8479 29.5872 33.8019 30.617 34.514 31.3715C33.3825 31.7127 35.126 32.7223 35.1228 31.651C35.8735 31.8264 36.6759 31.0931 37.3223 31.7052C37.7504 32.0921 37.5407 31.277 37.4998 31.0081C37.3869 30.5107 36.7006 30.8402 36.3306 30.7435C37.3632 30.3226 37.7214 29.4905 37.9182 28.5851C37.2266 28.161 37.7504 27.4288 38.0193 26.9081C37.7934 26.0685 37.0986 25.3575 37.1212 24.4553C38.2871 25.6689 40.0027 25.9654 41.6171 25.8677C44.4137 26.2439 47.08 26.5839 49.8239 27.2322C46.3734 26.957 42.9562 26.3172 39.5111 26.0122C38.5238 26.5053 39.0766 27.9899 38.925 28.8476C39.2218 30.43 40.5469 31.4948 40.9481 33.0358C40.8804 30.8965 40.2458 28.313 41.6236 26.4862C41.2439 27.5096 41.0105 28.5914 40.9707 29.6829C40.8503 30.9082 41.0611 32.1856 41.6978 33.2324C43.1821 33.7627 44.8665 33.802 46.2669 34.5736C46.1389 34.0188 46.0539 33.4556 45.9808 32.8923C45.8313 31.0368 45.4183 28.4703 46.766 27.0005C46.3648 27.9123 46.282 28.9209 46.0916 29.888C46.0109 31.4629 45.9485 33.2845 47.0327 34.5512C48.6988 35.2165 50.6639 34.9848 52.2902 35.7426C52.1579 35.4248 52.0073 35.1155 51.8793 34.7967C51.3232 33.1176 51.3985 31.3301 51.3985 29.5893C51.2081 28.1982 52.4827 27.2311 53.3711 26.3682C53.5099 26.5956 53.2302 26.7678 53.1216 26.9421C52.1858 27.4819 51.7007 28.6424 51.8158 29.6882C51.6104 31.4512 51.8997 33.2621 52.2902 34.9859C53.3819 35.9551 55.0953 35.7744 56.3075 36.6267C55.7514 36.7309 55.2136 36.4046 54.65 36.461C53.853 36.2739 53.1313 36.2091 52.3784 36.495C50.7155 36.0327 49.0709 35.4524 47.3866 35.0497C47.0026 34.8924 46.8832 35.3536 46.8628 35.6352C46.6907 35.4907 46.5842 35.1166 46.3196 35.191C45.9507 35.2803 45.5785 35.3695 45.23 35.5194C44.8923 35.683 44.6944 36.0252 44.4094 36.258C44.3717 35.7128 44.134 35.2261 43.991 34.7106C44.2179 34.4715 44.7589 35.0837 44.7536 34.4907C43.9598 33.8913 42.8283 33.8371 41.8688 33.6479C41.5031 34.0146 41.4515 34.4747 41.1998 33.7489C41.6688 33.4981 41.117 33.2186 40.8062 33.2377C39.8994 32.9104 38.9239 32.8254 38.0656 32.3599C37.7655 32.1601 37.4923 32.5055 37.2255 32.6128C37.3804 31.3907 36.25 31.7637 35.5702 32.0241C36.1048 32.2132 36.5931 33.5119 35.6874 33.2271C35.1271 32.3641 33.9439 31.5968 32.921 32.1665C32.8447 32.8264 33.0609 33.6925 33.9418 33.5693C34.2838 34.6214 36.4909 34.8786 35.994 36.1719C35.2733 35.75 34.5043 34.3015 33.3212 34.8945C32.6597 35.9742 34.1859 36.225 34.358 37.1974C35.2368 37.5651 36.0392 38.7214 34.841 39.1369C36.2962 39.6832 33.7772 39.8096 34.3806 40.7863C34.1408 40.9797 33.8912 41.1614 33.66 41.3655C32.7221 41.8341 31.6658 42.7566 30.587 42.3676C30.2116 43.7067 28.2315 41.7342 27.9454 43.1997C27.7163 43.1827 27.4162 43.2295 27.3452 42.95C27.0881 42.1816 25.8781 41.934 25.5748 42.7853C24.6229 42.7247 25.051 41.1848 23.8915 41.2209C22.4266 42.4048 23.1214 40.1965 22.1878 39.7607C21.8511 39.3186 21.1423 39.9605 20.8809 39.4345C20.9713 38.7395 21.038 37.5141 20.1452 37.3802C18.89 37.6937 19.6257 36.0763 19.5999 35.5236C19.6419 34.9094 18.9105 35.0029 18.5996 34.6926C17.894 33.8668 19.7752 32.7223 18.5082 32.2324C17.495 31.5161 18.9169 30.6319 18.8847 29.855C17.6821 28.9687 19.7978 27.9495 19.4902 27.1132C18.5706 27.0462 17.5165 27.5723 16.6431 27.9857C16.7163 27.5266 16.8185 27.0739 16.8927 26.6158C17.5025 25.0642 18.2264 23.5243 19.473 22.3638C19.0901 22.2331 18.5695 22.3139 18.506 21.8133C18.2425 21.266 17.8091 22.1619 17.4036 21.825C17.2691 21.3967 17.3433 21.1853 17.6273 21.1906C18.3931 21.8952 19.6333 21.0216 20.6163 20.9833C20.7336 21.9674 20.6949 20.2819 21.4531 20.842C22.4384 21.1661 23.5183 20.2756 22.8471 19.3754C23.2784 19.5348 23.756 19.4881 24.1109 19.1884C24.6842 19.0789 23.642 19.8016 24.198 19.8058C24.9101 19.877 24.7616 18.6783 25.535 18.9142C26.574 18.9992 27.5829 18.6878 28.6004 18.5635ZM19.5139 21.5732C19.0137 21.4743 18.2952 21.8016 19.0159 22.0695C19.4257 22.519 20.8067 21.1162 19.5139 21.5732ZM24.8165 27.567C22.959 27.7614 21.8006 29.5235 21.408 31.193C20.6131 31.1037 20.4098 32.192 20.4238 32.7765C20.2098 35.3972 21.6252 37.9796 23.7635 39.4738C24.5605 39.9765 25.9706 40.3495 26.5751 39.3707C26.8924 39.3952 27.2086 39.3792 27.5302 39.3803C29.662 39.2655 31.1474 37.2729 31.3281 35.2951C31.8777 31.9231 28.8887 26.8337 24.8165 27.567Z" fill="#262A24"/>
<path d="M33.234 18.3595C33.7611 18.3042 34.2806 18.1894 34.8076 18.1257C35.1271 18.5252 35.6907 19.1087 36.2414 18.8334C36.7598 18.8441 35.8208 19.8388 36.4511 19.4828C37.4675 18.7112 38.9002 19.1427 40.0984 18.623C41.4752 18.5359 43.2908 17.9726 44.3233 19.1714C45.1375 18.8058 46.3164 18.6645 46.6272 19.7654C47.3059 20.3255 49.8206 19.5125 49.4947 20.9759C49.242 22.0046 50.2562 23.1216 49.2204 23.8293C48.3836 24.5265 47.5447 25.2279 46.6487 25.8496C46.4358 26.0058 46.4454 26.2789 46.7122 26.3671C48.1438 26.7306 49.6141 26.9389 51.0748 27.1578C50.665 27.2747 50.2412 27.2556 49.8239 27.2322C47.08 26.5839 44.4137 26.2439 41.6171 25.8677C40.0027 25.9654 38.2871 25.6689 37.1212 24.4553C35.9972 22.6784 34.2537 21.3914 32.5414 20.2734C32.1907 19.4063 32.052 18.3329 33.234 18.3595ZM38.8991 19.9918C38.4592 20.6124 38.3678 21.9451 39.4681 21.7315C40.6696 21.8877 39.5154 21.0301 39.0465 21.0694C39.0261 20.469 39.7585 19.9185 39.4703 20.8494C40.0597 20.6284 39.7865 21.7209 40.3415 21.3053C40.1135 22.7645 37.8763 21.0078 37.318 22.2501C37.9709 23.247 38.5216 24.3299 39.1723 25.314C41.2289 25.4989 43.2735 26.0005 45.3172 26.1301C45.969 25.3065 45.1892 23.9345 45.6764 22.9749C45.9668 22.5445 46.709 22.4786 46.7907 21.9302C46.3078 22.2437 46.4508 22.0301 46.4648 21.4031C47.0693 21.6805 47.7964 21.5434 48.175 20.9918C47.5221 20.6868 46.738 21.2618 46.027 21.2055C46.8219 21.6837 45.3053 21.3649 46.2658 21.8112C45.4839 21.8718 46.112 21.8431 46.3712 22.1534C45.7947 22.3054 45.5817 21.7613 45.585 21.4095C44.0039 21.113 46.041 21.7761 45.2774 21.723C44.5126 21.6731 46.5831 22.2926 44.9633 22.0429C44.6567 21.3617 45.5947 21.1959 44.9267 20.9026C44.1254 20.3011 43.1197 20.7846 42.2743 20.8994C42.2238 21.723 43.3295 20.3276 42.7992 21.7304C42.5368 21.3138 42.2496 21.5902 41.9172 21.4956C41.3923 21.7953 41.2332 21.1587 40.6545 21.5158C41.0073 21.2607 41.188 20.9833 40.4297 21.1736C40.7007 19.9674 39.808 19.7973 38.8991 19.9918Z" fill="#6F6712"/>
<path d="M52.9011 18.1894C52.5268 18.7909 52.3343 19.4774 52.0245 20.1108C53.1528 20.1215 52.9452 19.0162 52.9011 18.1894Z" fill="#C1C3C0"/>
<path d="M7.19627 18.3382C7.73298 18.4349 8.15461 18.91 8.71499 19.0045C7.86098 19.3191 6.8424 19.4551 5.90771 19.6114C6.14004 19.0375 6.57888 18.5189 7.19627 18.3382Z" fill="#020201"/>
<path d="M27.5818 19.4923C28.7123 19.0141 29.9847 19.0035 31.1764 18.7463C31.2055 19.1108 31.17 19.4658 31.1635 19.8356C30.5246 19.6709 29.8761 19.5263 29.2124 19.5125C28.68 19.4084 28.0551 19.7123 27.5818 19.4923Z" fill="#746A12"/>
<path d="M64.682 19.1661C64.7734 19.1267 64.8648 19.0885 64.9584 19.0524C64.9799 19.3616 64.9487 19.656 64.9283 19.9695C64.0539 20.4137 65.4102 21.3787 64.4109 21.9366C64.4529 21.0163 64.2636 20.0237 64.682 19.1661Z" fill="#080A07"/>
<path d="M67.2161 19.385C66.6643 19.2065 66.4524 19.3807 66.7084 19.9408C66.8998 19.7761 67.0633 19.5837 67.2161 19.385Z" fill="#020403"/>
<path d="M10.3316 19.6209C10.1133 20.6305 12.7979 19.0917 11.1168 19.4307C10.8479 19.4647 10.5801 19.5146 10.3316 19.6209Z" fill="#050904"/>
<path d="M29.2124 19.5125C29.8761 19.5263 30.5246 19.6709 31.1635 19.8356C31.5981 20.0566 32.1025 20.0651 32.5414 20.2734C34.2537 21.3914 35.9972 22.6784 37.1212 24.4553C37.0986 25.3575 37.7934 26.0685 38.0193 26.9081C37.7504 27.4288 37.2266 28.161 37.9182 28.5851C37.7214 29.4905 37.3632 30.3226 36.3306 30.7435C34.8549 31.6245 34.7796 29.38 34.2601 28.4628C33.3696 26.331 31.9444 24.3618 30.0643 22.9781C28.9295 21.7453 26.972 21.4573 25.9125 20.3468C27.0623 20.2681 28.7047 20.3957 30.0051 20.672C29.477 19.7346 30.4741 20.3595 30.9882 20.47C30.5892 19.8994 29.7319 19.9451 29.2124 19.5125Z" fill="#3D3F41"/>
<path d="M7.9922 20.2926C8.45578 20.4743 10.8823 19.8675 9.39691 19.7559C8.82685 19.7028 6.62405 20.4233 7.9922 20.2926Z" fill="#060A05"/>
<path d="M38.8991 19.9918C39.808 19.7973 40.7007 19.9674 40.4297 21.1736C40.4071 21.2065 40.3641 21.2724 40.3415 21.3053C39.7865 21.7209 40.0597 20.6284 39.4703 20.8494C39.7585 19.9185 39.0261 20.469 39.0465 21.0694C39.5154 21.0301 40.6696 21.8877 39.4681 21.7315C38.3678 21.9451 38.4592 20.6124 38.8991 19.9918Z" fill="#304A27"/>
<path d="M56.5688 21.1629C55.974 21.1736 56.101 19.9918 56.4764 19.8792C56.9765 19.9854 57.4766 20.0736 57.9875 20.1161C58.25 20.6539 58.0316 21.2756 58.1747 21.8431C57.5907 21.6954 56.9862 20.1693 56.5688 21.1629Z" fill="#CAB326"/>
<path d="M10.3348 20.6411C10.8199 21.0503 11.6718 19.8048 10.7844 20.0577C10.4725 20.0917 10.1907 20.3032 10.3348 20.6411Z" fill="#060A06"/>
<path d="M62.1974 20.063C62.6599 20.8664 62.0748 22.6933 62.2641 23.8633C61.95 23.6402 61.566 23.6582 61.1949 23.62C61.0304 23.0886 62.519 23.0907 61.6273 22.5626C61.7091 21.9515 61.0476 20.1799 62.1974 20.063Z" fill="#050603"/>
<path d="M57.9875 20.1161C58.4404 20.1289 58.8921 20.1268 59.3492 20.1406L59.4009 20.215C58.4565 20.0163 59.0588 20.8441 59.3084 21.2639C59.4245 22.1364 59.118 22.993 59.0502 23.8612C59.7225 23.7911 59.9516 23.1269 60.1376 22.5913C60.5367 22.2002 60.4141 22.8835 60.4044 23.1332C59.8827 23.8814 59.0448 24.4245 58.1607 24.6646C57.1701 25.0823 55.2577 25.4457 56.1128 23.6147C56.0117 24.3851 56.0375 25.2236 57.0023 24.5988C57.6326 24.1545 56.1881 23.654 56.7108 23.1237C57.0421 23.0238 57.2217 23.4595 57.4885 23.5838C57.88 23.4149 56.0816 22.1502 57.0012 22.3553C57.6444 22.7145 56.9668 21.8399 56.7754 21.621C56.8775 21.3744 56.9249 21.1374 56.5688 21.1629C56.9862 20.1693 57.5907 21.6954 58.1747 21.8431C58.0316 21.2756 58.25 20.6539 57.9875 20.1161Z" fill="#7C6E15"/>
<path d="M9.60235 20.2734C10.1369 20.0651 9.70023 20.9993 10.2983 20.9175C10.0541 21.2915 7.62757 21.7761 8.83115 20.7665C8.06964 20.2787 9.20868 20.4509 9.60235 20.2734Z" fill="#040603"/>
<path d="M59.3084 21.2639C59.0588 20.8441 58.4565 20.0163 59.4009 20.215C61.0218 19.9695 61.0164 22.0705 60.4044 23.1332C60.4141 22.8835 60.5367 22.2002 60.1376 22.5913C59.9516 23.1269 59.7225 23.7911 59.0502 23.8612C59.118 22.993 59.4245 22.1364 59.3084 21.2639Z" fill="#C5AD22"/>
<path d="M42.2743 20.8994C43.1197 20.7846 44.1254 20.3011 44.9267 20.9026C45.5947 21.1959 44.6567 21.3617 44.9633 22.0429C46.5831 22.2926 44.5126 21.6731 45.2774 21.723C46.041 21.7761 44.0039 21.113 45.585 21.4095C45.5817 21.7613 45.7947 22.3054 46.3712 22.1534C46.112 21.8431 45.4839 21.8718 46.2658 21.8112C45.3053 21.3649 46.8219 21.6837 46.027 21.2055C46.738 21.2618 47.5221 20.6868 48.175 20.9918C47.7964 21.5434 47.0693 21.6805 46.4648 21.4031C46.4508 22.0301 46.3078 22.2437 46.7907 21.9302C46.709 22.4786 45.9668 22.5445 45.6764 22.9749C45.1892 23.9345 45.969 25.3065 45.3172 26.1301C43.2735 26.0005 41.2289 25.4989 39.1723 25.314C38.5216 24.3299 37.9709 23.247 37.318 22.2501C37.8763 21.0078 40.1135 22.7645 40.3415 21.3053C40.3641 21.2724 40.4071 21.2065 40.4297 21.1736C41.188 20.9833 41.0073 21.2607 40.6545 21.5158C41.2332 21.1587 41.3923 21.7953 41.9172 21.4956C42.2496 21.5902 42.5368 21.3138 42.7992 21.7304C43.3295 20.3276 42.2238 21.723 42.2743 20.8994Z" fill="#B4A017"/>
<path d="M8.04705 21.3319C7.45333 21.4414 8.13202 20.452 7.54153 20.6741C6.9876 21.2012 7.81688 22.045 8.04705 21.3319Z" fill="#090C09"/>
<path d="M7.10269 20.7719C7.69534 20.9387 7.28554 21.8983 6.65955 21.7166C6.0583 21.7846 6.4853 20.3308 6.94996 21.0195C7.04138 22.095 7.11022 21.1619 7.10269 20.7719Z" fill="#0F180D"/>
<path d="M49.5808 23.739C50.7844 23.1067 48.7192 20.5816 50.6176 20.8633C50.3961 21.486 51.2017 21.3085 51.5663 21.1991C52.4214 21.3181 53.2528 21.6465 54.0176 22.0344C53.7831 22.5285 53.5776 23.0365 53.3636 23.5403C52.3719 24.3936 52.6419 26.11 51.3017 26.6158C50.551 25.9888 49.0838 25.7008 48.9645 24.6338C49.0957 24.2916 49.3441 24.0132 49.5808 23.739Z" fill="#EFD22C"/>
<path d="M5.90879 21.8335C6.45196 22.061 6.22179 20.9578 5.93245 20.9972C5.74853 21.1385 5.58719 21.8675 5.90879 21.8335Z" fill="#0A0D08"/>
<path d="M22.4061 21.3149C23.1795 21.0439 24.0077 20.9929 24.8197 20.9557C24.3389 21.6624 25.1897 22.2703 25.6028 22.7836C26.2309 22.6465 26.887 22.6571 27.3871 23.0907C28.0217 21.8527 29.2985 24.1864 30.0643 22.9781C31.9444 24.3618 33.3696 26.331 34.2601 28.4628C34.7796 29.38 34.8549 31.6245 36.3306 30.7435C36.7006 30.8402 37.3869 30.5107 37.4998 31.0081C37.5407 31.277 37.7504 32.0921 37.3223 31.7052C36.6759 31.0931 35.8735 31.8264 35.1228 31.651C35.126 32.7223 33.3825 31.7127 34.514 31.3715C33.8019 30.617 32.8479 29.5872 32.9361 28.3895C31.9293 27.9379 31.6153 26.839 31.0581 25.9984C29.6394 25.8772 29.5007 23.7996 27.8518 24.1705C27.1925 22.9898 25.9824 23.9314 25.0962 23.2725C24.581 23.095 24.1464 23.7645 23.6205 23.5403C24.3594 23.3862 24.0657 22.3691 23.87 21.9026C23.158 22.5169 22.6384 23.3214 22.2426 24.163C21.3209 24.6721 20.7734 25.5871 19.9194 26.1758C19.3633 25.6753 19.0148 24.8772 18.1737 24.7996C18.6351 23.8495 19.3472 22.9058 20.3238 22.4382C20.1861 22.8729 19.8473 23.1928 19.5687 23.5413C20.9508 23.5838 21.8264 22.3925 22.4061 21.3149Z" fill="#171817"/>
<path d="M67.087 21.502C66.3846 21.9653 66.5471 20.8409 66.9977 20.9653C67.372 21.2288 67.3753 21.6986 67.358 22.1162C67.144 23.1598 66.6406 21.8994 67.087 21.502Z" fill="#7C7F7C"/>
<path d="M10.9995 21.1204C11.2695 21.0067 11.3932 21.4052 11.0619 21.3936C9.87447 21.5009 8.55796 22.0067 7.4415 21.9164C8.31595 21.3617 9.90136 21.5062 10.9995 21.1204Z" fill="#080F07"/>
<path d="M19.0159 22.0695C19.4257 22.519 20.8067 21.1162 19.5139 21.5732C19.0137 21.4743 18.2952 21.8016 19.0159 22.0695Z" fill="#7D8564"/>
<path d="M56.1128 23.6147C56.3215 22.942 55.6083 21.2193 56.7754 21.621C56.9668 21.8399 57.6444 22.7145 57.0012 22.3553C56.0816 22.1502 57.88 23.4149 57.4885 23.5838C57.2217 23.4595 57.0421 23.0238 56.7108 23.1237C56.1881 23.654 57.6326 24.1545 57.0023 24.5988C56.0375 25.2236 56.0117 24.3851 56.1128 23.6147Z" fill="#C9B123"/>
<path d="M65.2499 22.8166C64.967 22.2267 65.5855 22.0408 65.7608 21.5795C65.8253 21.8803 65.8974 22.1821 66.0071 22.4712C66.0297 22.5264 66.0738 22.6359 66.0953 22.6912C65.8103 22.722 65.5274 22.7581 65.2499 22.8166Z" fill="#060302"/>
<path d="M5.80123 22.2597C6.18522 22.3426 8.16859 21.8888 6.82196 21.8867C6.5208 22.0195 5.81629 21.841 5.80123 22.2597Z" fill="#091107"/>
<path d="M22.2426 24.163C22.6384 23.3214 23.158 22.5169 23.87 21.9026C24.0657 22.3691 24.3594 23.3862 23.6205 23.5403C23.144 23.7071 22.6825 23.9154 22.2426 24.163Z" fill="#040403"/>
<path d="M66.0071 22.4712C66.0093 22.028 67.0537 21.7007 66.7815 22.4967C67.1279 23.0589 66.1308 23.3713 66.0953 22.6912C66.0738 22.6359 66.0297 22.5264 66.0071 22.4712Z" fill="#757771"/>
<path d="M64.5153 23.1439C64.6476 22.9303 64.0549 21.8665 64.6261 22.0578C65.0617 22.079 64.71 22.7252 64.768 23.028C64.7046 23.0567 64.5787 23.1152 64.5153 23.1439Z" fill="#060806"/>
<path d="M4.98701 22.1949C7.03278 22.2522 3.02299 22.6731 4.98701 22.1949Z" fill="#0B1509"/>
<path d="M51.3017 26.6158C52.6419 26.11 52.3719 24.3936 53.3636 23.5403C53.2012 24.4351 52.6408 25.1939 52.4762 26.0866C52.0041 26.4362 51.5512 26.8124 51.0748 27.1578C49.6141 26.9389 48.1438 26.7306 46.7122 26.3671C46.4454 26.2789 46.4358 26.0058 46.6487 25.8496C47.5447 25.2279 48.3836 24.5265 49.2204 23.8293C49.3398 23.7975 49.4603 23.7677 49.5808 23.739C49.3441 24.0132 49.0957 24.2916 48.9645 24.6338C49.0838 25.7008 50.551 25.9888 51.3017 26.6158Z" fill="#C4AB1A"/>
<path d="M65.1993 25.1195C65.7447 24.9271 66.233 24.6062 66.7751 24.4053C67.2688 24.9239 66.7213 25.7316 66.347 26.2003C65.0821 26.9771 63.6225 27.3013 62.1888 27.6212C61.4875 27.2758 62.348 25.5595 61.0261 25.5446C61.665 25.2013 62.3738 24.9739 63.0998 24.9101C63.714 25.3257 64.5056 25.2502 65.1993 25.1195Z" fill="#E8D527"/>
<path d="M61.2466 26.6891C60.7916 26.5117 60.8303 25.8942 61.0261 25.5446C62.348 25.5595 61.4875 27.2758 62.1888 27.6212C62.1307 27.6403 62.0135 27.6775 61.9543 27.6966C61.2993 27.7997 61.1939 27.2099 61.2466 26.6891Z" fill="#AF9B15"/>
<path d="M39.5111 26.0122C42.9562 26.3172 46.3734 26.957 49.8239 27.2322C50.2412 27.2556 50.665 27.2747 51.0748 27.1578C51.5512 26.8124 52.0041 26.4362 52.4762 26.0866C52.7742 26.0547 53.0614 26.0026 53.3615 25.9665C53.5551 26.0972 53.5863 26.2439 53.3711 26.3682C52.4827 27.2311 51.2081 28.1982 51.3985 29.5893C51.3985 31.3301 51.3232 33.1176 51.8793 34.7967C51.4684 34.7361 51.4233 33.6745 51.1328 33.2685C50.978 32.2377 49.7152 32.43 48.9978 31.9677C48.0244 31.2876 46.2411 31.3248 46.0916 29.888C46.282 28.9209 46.3648 27.9123 46.766 27.0005C45.4183 28.4703 45.8313 31.0368 45.9808 32.8923C45.1343 32.7095 45.8302 30.7658 44.9084 30.3789C43.5951 30.1505 42.2862 29.8954 40.9707 29.6829C41.0105 28.5914 41.2439 27.5096 41.6236 26.4862C40.2458 28.313 40.8804 30.8965 40.9481 33.0358C40.5469 31.4948 39.2218 30.43 38.925 28.8476C39.0766 27.9899 38.5238 26.5053 39.5111 26.0122ZM48.6418 29.8178C48.36 30.4895 49.0978 30.2259 49.3592 30.0017C48.9688 30.5054 49.4119 30.2737 49.6851 30.008C49.228 30.7551 50.5821 30.3077 50.651 30.3279C50.665 30.8274 50.8446 30.2217 50.8338 30.0261C50.1196 29.8476 49.3721 29.854 48.6418 29.8178ZM48.5084 30.4448C48.432 30.6701 48.5375 30.7594 48.7558 30.735C49.3764 30.4895 50.5499 31.2759 50.865 30.6616C50.0788 30.5947 49.2947 30.4863 48.5084 30.4448Z" fill="#35692E"/>
<path d="M58.9728 26.9686C59.4202 26.1822 58.3274 26.2683 57.8617 26.2003C57.4766 27.026 58.4307 27.1397 58.9728 26.9686Z" fill="#95900D"/>
<path d="M62.1888 27.6212C63.6225 27.3013 65.0821 26.9771 66.347 26.2003C66.133 27.2088 65.892 28.2163 65.5016 29.1749C65.565 30.2047 65.735 31.2302 65.835 32.26C64.9487 32.633 65.8716 29.0388 64.8971 30.3184C64.1291 31.0176 63.1331 31.3981 62.1393 31.6595C61.6187 31.5448 60.6346 32.3163 60.4711 31.7286C61.2122 30.5012 61.0196 28.6988 61.9543 27.6966C62.0135 27.6775 62.1307 27.6403 62.1888 27.6212Z" fill="#3D782F"/>
<path d="M53.1216 26.9421C54.0262 26.6041 54.9996 26.5999 55.9246 26.2917C56.3978 26.1418 56.9668 26.4075 56.8915 26.9325C56.472 27.9495 57.4261 27.0781 57.5691 27.5266C57.2938 27.635 57.0163 27.7381 56.7517 27.8677C57.4863 29.6106 57.0539 32.1516 56.9808 34.1729C56.8582 34.5693 58.0994 34.3366 57.5143 34.4535C55.9418 34.2877 57.7563 36.2835 56.5914 36.4514C54.494 36.0263 53.383 33.937 53.0528 32.0017C52.7053 31.2026 53.1119 29.6531 51.8158 29.6882C51.7007 28.6424 52.1858 27.4819 53.1216 26.9421Z" fill="#47823E"/>
<path d="M15.0803 27.7136C15.1126 26.7465 16.1634 26.6679 16.8927 26.6158C16.8185 27.0739 16.7163 27.5266 16.6431 27.9857C17.5165 27.5723 18.5706 27.0462 19.4902 27.1132C19.7978 27.9495 17.6821 28.9687 18.8847 29.855C18.9169 30.6319 17.495 31.5161 18.5082 32.2324C19.7752 32.7223 17.894 33.8668 18.5996 34.6926C18.9105 35.0029 19.6419 34.9094 19.5999 35.5236C19.6257 36.0763 18.89 37.6937 20.1452 37.3802C21.038 37.5141 20.9713 38.7395 20.8809 39.4345C21.1423 39.9605 21.8511 39.3186 22.1878 39.7607C23.1214 40.1965 22.4266 42.4048 23.8915 41.2209C25.051 41.1848 24.6229 42.7247 25.5748 42.7853C24.6584 43.4048 23.8678 42.0732 22.8944 42.2443C21.8705 42.289 21.2047 41.1827 20.1269 41.3867C19.2471 40.341 17.7574 40.4749 16.8776 39.4791C15.7988 39.4834 15.5127 38.3877 14.5716 38.1401C13.44 37.3675 14.0682 36.2367 15.1707 35.8361C14.2112 35.259 12.9184 36.5524 11.8998 36.5375C11.1996 35.7819 13.1378 35.5045 13.0948 34.8329C12.259 34.2335 11.0727 35.0093 10.1799 34.4311C8.92473 33.8435 7.41246 35.1836 6.36806 34.1304C5.93891 33.3312 5.06338 33.514 4.35672 33.2143C4.59227 32.6362 5.33658 33.2536 5.60332 32.6829C5.21396 32.2982 4.7848 31.1728 4.15559 31.8923C3.11549 32.0017 1.13427 32.5087 0.429759 31.4098C1.14717 31.0134 2.39485 30.4757 2.8068 31.4938C3.0843 31.922 4.07599 31.8551 3.83506 31.1494C5.14082 30.9358 6.37022 30.413 7.61144 29.9794C7.9083 29.4225 6.74344 29.4214 7.07472 28.9347C7.33824 28.6478 6.64019 28.3587 7.01449 28.1281C7.73513 27.8826 8.51924 27.8082 9.19578 27.4426C10.0735 27.635 11.7051 27.9272 11.7417 26.7263C12.8614 26.8454 13.9886 28.5043 15.0803 27.7136Z" fill="black"/>
<path d="M6.7015 28.7976C6.10347 27.4915 8.40092 27.6275 9.19578 27.4426C8.51924 27.8082 7.73513 27.8826 7.01449 28.1281C6.64019 28.3587 7.33824 28.6478 7.07472 28.9347C6.74344 29.4214 7.9083 29.4225 7.61144 29.9794C6.37022 30.413 5.14082 30.9358 3.83506 31.1494C4.07599 31.8551 3.0843 31.922 2.8068 31.4938C2.39485 30.4757 1.14717 31.0134 0.429759 31.4098C1.13427 32.5087 3.11549 32.0017 4.15559 31.8923C4.7848 31.1728 5.21396 32.2982 5.60332 32.6829C5.33658 33.2536 4.59227 32.6362 4.35672 33.2143C5.06338 33.514 5.93891 33.3312 6.36806 34.1304C7.41246 35.1836 8.92473 33.8435 10.1799 34.4311C11.0727 35.0093 12.259 34.2335 13.0948 34.8329C13.1378 35.5045 11.1996 35.7819 11.8998 36.5375C12.9184 36.5524 14.2112 35.259 15.1707 35.8361C14.0682 36.2367 13.44 37.3675 14.5716 38.1401C15.5127 38.3877 15.7988 39.4834 16.8776 39.4791C17.7574 40.4749 19.2471 40.341 20.1269 41.3867C19.8882 41.3793 19.6268 41.374 19.4504 41.1912C18.833 40.3835 17.5929 40.7098 16.9959 39.8861C16.4646 39.2953 15.4621 39.5238 15.1104 38.6789C14.2618 38.2814 13.0808 37.3367 13.8229 36.3472C13.2518 35.9795 11.8105 37.6693 11.447 36.4365C11.1458 35.6969 12.2752 35.6033 12.4795 35.0199C10.3262 34.3897 7.7233 35.4992 5.78832 34.2824C4.503 34.0549 3.19186 34.0709 1.8947 34.0167C1.13211 33.7531 -0.468356 34.1888 0.131821 33.0262C1.18805 32.0953 2.59061 32.9423 3.78236 32.9231C4.34919 32.8955 3.92756 32.5002 3.65436 32.3471C2.63793 32.1601 1.35691 32.5012 0.440514 31.9103C-0.611408 31.0623 1.26441 30.8295 1.85706 30.6797C3.57369 31.0123 5.35701 30.3821 7.02632 29.9485C7.67167 29.5096 6.05937 29.4076 6.7015 28.7976Z" fill="black"/>
<path d="M24.8165 27.567C28.8887 26.8337 31.8777 31.9231 31.3281 35.2951C31.2894 35.2409 31.2119 35.1304 31.1732 35.0752C30.8075 36.0263 30.7096 37.5662 29.5792 37.8925C29.6609 36.7203 29.7534 35.0868 28.7123 34.3164C28.8585 33.9752 29.7706 34.1825 29.4964 33.7265C28.4939 33.5778 30.2095 32.2727 29.1274 32.379C28.7596 32.1303 28.5606 31.7191 28.9145 31.4183C28.5445 31.3227 27.5194 31.6043 27.84 30.7615C27.2258 30.7562 27.2688 31.5203 26.5805 31.7339C26.1115 31.5352 26.3073 31.1813 26.5353 30.8731C25.592 30.0793 24.5078 29.5436 23.2601 29.4501C23.4623 28.872 23.6226 28.7795 22.8934 29.0729C23.2945 28.4055 24.0496 28.143 24.7509 27.9049C25.0123 27.8475 25.137 27.6637 24.8165 27.567Z" fill="#655A09"/>
<path d="M21.408 31.193C21.8006 29.5235 22.959 27.7614 24.8165 27.567C25.137 27.6637 25.0123 27.8475 24.7509 27.9049C24.0496 28.143 23.2945 28.4055 22.8934 29.0729C23.6226 28.7795 23.4623 28.872 23.2601 29.4501C24.5078 29.5436 25.592 30.0793 26.5353 30.8731C26.3073 31.1813 26.1115 31.5352 26.5805 31.7339C26.4923 32.1824 25.4296 31.5639 25.8319 32.3333C26.8601 32.0538 25.8856 33.0177 25.7974 33.4726C25.35 34.0401 24.34 34.9189 25.3102 35.5162C26.0459 35.4694 26.7246 34.9168 27.3366 34.5055C27.854 34.5544 28.3713 34.5682 28.6165 35.0103C29.3512 34.9423 28.6682 34.5236 28.7123 34.3164C29.7534 35.0868 29.6609 36.7203 29.5792 37.8925C30.7096 37.5662 30.8075 36.0263 31.1732 35.0752C31.2119 35.1304 31.2894 35.2409 31.3281 35.2951C31.1474 37.2729 29.662 39.2655 27.5302 39.3803C28.1992 38.5992 26.958 38.5917 26.6611 38.0253C24.9068 36.8414 23.3946 35.0847 23.2042 32.9051C23.1945 32.1909 22.6105 32.4513 22.4255 31.7764C22.333 31.2993 21.7791 31.4002 21.4058 31.2897L21.408 31.193Z" fill="#B29C0D"/>
<path d="M56.7517 27.8677C57.0163 27.7381 57.2938 27.635 57.5691 27.5266C58.3543 29.2068 59.4805 30.719 60.3323 32.3492C60.0301 32.4853 58.7028 32.6022 58.8781 33.2685C59.4439 33.3046 59.8913 32.9306 60.3721 32.7042C60.9346 32.6872 60.8013 33.4003 60.2527 33.3472C59.388 34.2143 58.1596 34.4992 56.9808 34.1729C57.0539 32.1516 57.4863 29.6106 56.7517 27.8677Z" fill="#1F3F19"/>
<path d="M40.9707 29.6829C42.2862 29.8954 43.5951 30.1505 44.9084 30.3789C45.8302 30.7658 45.1343 32.7095 45.9808 32.8923C46.0539 33.4556 46.1389 34.0188 46.2669 34.5736C44.8665 33.802 43.1821 33.7627 41.6978 33.2324C41.0611 32.1856 40.8503 30.9082 40.9707 29.6829Z" fill="#295421"/>
<path d="M48.6418 29.8178C49.3721 29.854 50.1196 29.8476 50.8338 30.0261C50.8446 30.2217 50.665 30.8274 50.651 30.3279C50.5821 30.3077 49.228 30.7551 49.6851 30.008C49.4119 30.2737 48.9688 30.5054 49.3592 30.0017C49.0978 30.2259 48.36 30.4895 48.6418 29.8178Z" fill="#8E9411"/>
<path d="M47.0327 34.5512C45.9485 33.2845 46.0109 31.4629 46.0916 29.888C46.2411 31.3248 48.0244 31.2876 48.9978 31.9677C49.7152 32.43 50.978 32.2377 51.1328 33.2685C51.4233 33.6745 51.4684 34.7361 51.8793 34.7967C52.0073 35.1155 52.1579 35.4248 52.2902 35.7426C50.6639 34.9848 48.6988 35.2165 47.0327 34.5512Z" fill="#2A5421"/>
<path d="M64.8971 30.3184C65.251 30.8476 65.1101 31.5416 65.1703 32.141C64.1528 32.0357 63.1299 31.9103 62.1393 31.6595C63.1331 31.3981 64.1291 31.0176 64.8971 30.3184Z" fill="#030603"/>
<path d="M48.5084 30.4448C49.2947 30.4863 50.0788 30.5947 50.865 30.6616C50.5499 31.2759 49.3764 30.4895 48.7558 30.735C48.5375 30.7594 48.432 30.6701 48.5084 30.4448Z" fill="#9EA91B"/>
<path d="M26.5805 31.7339C27.2688 31.5203 27.2258 30.7562 27.84 30.7615C27.5194 31.6043 28.5445 31.3227 28.9145 31.4183C28.5606 31.7191 28.7596 32.1303 29.1274 32.379C30.2095 32.2727 28.4939 33.5778 29.4964 33.7265C29.7706 34.1825 28.8585 33.9752 28.7123 34.3164C28.6682 34.5236 29.3512 34.9423 28.6165 35.0103C28.3713 34.5682 27.854 34.5544 27.3366 34.5055C27.0075 34.0411 26.8633 34.7563 26.4955 34.6437C26.3148 34.3164 26.6246 34.1814 26.8838 34.0826C26.4256 34.0794 26.0986 33.7723 25.7974 33.4726C25.8856 33.0177 26.8601 32.0538 25.8319 32.3333C25.4296 31.5639 26.4923 32.1824 26.5805 31.7339Z" fill="#2A5120"/>
<path d="M20.4238 32.7765C20.4098 32.192 20.6131 31.1037 21.408 31.193L21.4058 31.2897C20.8702 34.699 22.9816 38.6831 26.5751 39.3707C25.9706 40.3495 24.5605 39.9765 23.7635 39.4738C21.6252 37.9796 20.2098 35.3972 20.4238 32.7765Z" fill="#373736"/>
<path d="M21.4058 31.2897C21.7791 31.4002 22.333 31.2993 22.4255 31.7764C22.6105 32.4513 23.1945 32.1909 23.2042 32.9051C23.3946 35.0847 24.9068 36.8414 26.6611 38.0253C26.958 38.5917 28.1992 38.5992 27.5302 39.3803C27.2086 39.3792 26.8924 39.3952 26.5751 39.3707C22.9816 38.6831 20.8702 34.699 21.4058 31.2897Z" fill="#DDC218"/>
<path d="M35.5702 32.0241C36.25 31.7637 37.3804 31.3907 37.2255 32.6128C37.1868 32.7712 37.1427 32.9306 37.1061 33.091C36.6619 33.7574 37.5224 33.8583 37.6364 34.3812C37.4869 35.0433 36.748 35.7447 37.5116 36.2675C36.6307 37.6512 36.0682 39.41 34.7097 40.5312C34.6 40.6162 34.4892 40.6991 34.3806 40.7863C33.7772 39.8096 36.2962 39.6832 34.841 39.1369C36.0392 38.7214 35.2368 37.5651 34.358 37.1974C34.1859 36.225 32.6597 35.9742 33.3212 34.8945C34.5043 34.3015 35.2733 35.75 35.994 36.1719C36.4909 34.8786 34.2838 34.6214 33.9418 33.5693C33.0609 33.6925 32.8447 32.8264 32.921 32.1665C33.9439 31.5968 35.1271 32.3641 35.6874 33.2271C36.5931 33.5119 36.1048 32.2132 35.5702 32.0241Z" fill="#3A3A3A"/>
<path d="M66.0093 32.1399C66.7471 31.7945 67.5581 32.446 67.2537 33.2759C68.5251 33.4088 69.3586 34.4949 70.3568 35.1708C70.0804 35.3153 69.8039 35.4641 69.5522 35.648C70.1083 36.1273 70.4783 36.7585 70.9021 37.3483C69.3414 36.5067 68.6724 34.7585 67.0633 33.9975C65.2972 33.6383 63.5322 33.2855 61.7672 32.9635C61.3832 32.6936 61.7284 32.1537 62.234 32.4587C62.8158 32.5267 63.7462 33.1134 64.0506 32.4406C64.1098 32.5076 64.1636 32.5788 64.2141 32.6553C64.3851 33.0623 64.9487 32.8891 65.2811 33.0156C66.3567 33.5533 66.988 32.7754 66.0093 32.1399Z" fill="#427B41"/>
<path d="M64.0506 32.4406C63.5247 32.5161 62.377 31.7297 62.234 32.4587C62.8158 32.5267 63.7462 33.1134 64.0506 32.4406Z" fill="#080B06"/>
<path d="M37.2255 32.6128C37.4923 32.5055 37.7655 32.1601 38.0656 32.3599C38.9239 32.8254 39.8994 32.9104 40.8062 33.2377C41.117 33.2186 41.6688 33.4981 41.1998 33.7489C39.8317 34.1123 38.2269 34.023 37.1061 33.091C37.1427 32.9306 37.1868 32.7712 37.2255 32.6128Z" fill="#6F691F"/>
<path d="M65.2811 33.0156C65.4854 32.4088 64.5185 32.3705 64.2141 32.6553C64.3851 33.0623 64.9487 32.8891 65.2811 33.0156Z" fill="#080B05"/>
<path d="M37.1061 33.091C38.2269 34.023 39.8317 34.1123 41.1998 33.7489C41.4515 34.4747 41.5031 34.0146 41.8688 33.6479C42.8283 33.8371 43.9598 33.8913 44.7536 34.4907C44.7589 35.0837 44.2179 34.4715 43.991 34.7106C44.134 35.2261 44.3717 35.7128 44.4094 36.258C43.9673 36.8202 42.6411 36.7043 42.5669 37.359C42.1141 36.9817 41.3149 37.2771 40.7717 36.8648C40.1812 38.2474 39.2476 35.9041 38.4162 36.8414C37.9408 37.394 37.674 36.6544 37.5116 36.2675C36.748 35.7447 37.4869 35.0433 37.6364 34.3812C37.5224 33.8583 36.6619 33.7574 37.1061 33.091Z" fill="#181918"/>
<path d="M25.3102 35.5162C24.34 34.9189 25.35 34.0401 25.7974 33.4726C26.0986 33.7723 26.4256 34.0794 26.8838 34.0826C26.6246 34.1814 26.3148 34.3164 26.4955 34.6437C26.8633 34.7563 27.0075 34.0411 27.3366 34.5055C26.7246 34.9168 26.0459 35.4694 25.3102 35.5162Z" fill="#665C0A"/>
<path d="M46.8628 35.6352C46.8832 35.3536 47.0026 34.8924 47.3866 35.0497C49.0709 35.4524 50.7155 36.0327 52.3784 36.495C53.1313 36.2091 53.853 36.2739 54.65 36.461C54.0412 36.6533 54.9877 37.1507 55.2115 37.428C56.5882 38.3271 58.478 37.9924 59.8247 38.9371C58.2468 38.9307 56.7442 38.3409 55.2211 38.1348C55.6664 39.2262 53.9315 38.4355 54.2165 39.5418C54.6479 40.1784 55.4545 39.4908 56.0106 39.9712C57.2497 38.868 58.5565 40.409 59.7289 40.815C61.5553 41.2943 63.416 41.7236 65.2736 42.036C65.2542 42.2869 65.2166 42.5377 65.2381 42.7906C65.138 43.3347 64.1012 43.34 63.8312 43.9415C64.7024 44.3528 65.7275 44.4283 66.6858 44.4878C65.8296 44.6822 63.4494 44.9788 63.5924 43.696C59.3664 42.4293 55.0523 40.3346 50.5327 41.4856C49.4829 42.6301 47.7695 42.0105 46.425 42.0616C42.4937 41.7969 38.5646 41.3283 34.7097 40.5312C36.0682 39.41 36.6307 37.6512 37.5116 36.2675C37.674 36.6544 37.9408 37.394 38.4162 36.8414C39.2476 35.9041 40.1812 38.2474 40.7717 36.8648C41.3149 37.2771 42.1141 36.9817 42.5669 37.359C43.8769 37.4589 45.1472 37.8521 46.4519 37.9807C48.3256 37.7075 46.6982 36.156 46.3196 35.191C46.5842 35.1166 46.6907 35.4907 46.8628 35.6352Z" fill="black"/>
<path d="M45.23 35.5194C45.5785 35.3695 45.9507 35.2803 46.3196 35.191C46.6982 36.156 48.3256 37.7075 46.4519 37.9807C46.041 37.1613 45.6205 36.3472 45.23 35.5194Z" fill="#91812D"/>
<path d="M44.4094 36.258C44.6944 36.0252 44.8923 35.683 45.23 35.5194C45.6205 36.3472 46.041 37.1613 46.4519 37.9807C45.1472 37.8521 43.8769 37.4589 42.5669 37.359C42.6411 36.7043 43.9673 36.8202 44.4094 36.258Z" fill="#595017"/>
<path d="M65.1316 36.3823C65.3349 36.0561 65.5661 36.2303 65.7167 36.4982C67.0106 37.8042 65.9264 39.7204 66.0727 41.3134C66.0501 41.9829 66.2179 42.831 65.2381 42.7906C65.2166 42.5377 65.2542 42.2869 65.2736 42.036C65.0477 40.1848 65.7425 38.0721 65.1316 36.3823Z" fill="#193411"/>
<path d="M73.3609 39.7639C74.2719 40.4951 74.3913 38.3717 73.4652 38.5482C73.1296 38.8351 73.4545 39.3952 73.3609 39.7639Z" fill="#968D0E"/>
<path d="M66.3664 43.272C66.319 42.561 66.3599 41.8511 66.433 41.1476C66.5374 41.5429 66.2168 42.273 66.8052 42.3251C68.7638 42.7045 70.7902 43.0403 72.5015 44.1307C73.277 44.4782 74.5666 44.0191 74.9119 45H70.8365C69.6974 44.4166 68.3024 44.6525 67.1666 44.1551C68.2174 43.6376 66.9751 43.3857 66.3664 43.272Z" fill="#010100"/>
<path d="M30.587 42.3676C31.6658 42.7566 32.7221 41.8341 33.66 41.3655C33.6858 41.9266 33.1577 42.2273 32.7307 42.4856C31.2722 43.1934 29.5383 43.8416 27.9454 43.1997C28.2315 41.7342 30.2116 43.7067 30.587 42.3676Z" fill="#010101"/>
</svg>
