<svg width="24" height="15" viewBox="0 0 24 15" fill="none" xmlns="http://www.w3.org/2000/svg">
<path d="M19.5223 0.0116207C19.9611 0.00541734 20.4021 -0.0131929 20.8408 0.0157561C20.994 0.0867501 20.9164 0.263891 20.9042 0.388647C20.8408 0.667798 20.8601 0.953842 20.8579 1.23713C20.6948 1.24264 20.5317 1.24816 20.3686 1.25505C20.3657 1.30537 20.3607 1.406 20.3586 1.45631C20.3244 1.38877 20.2909 1.32122 20.2574 1.25436C20.1463 1.24333 20.0345 1.2323 19.9241 1.22265L19.9298 1.16475C20.0644 1.13098 20.2019 1.10686 20.3372 1.07308C20.3422 1.05516 20.3536 1.02001 20.3593 1.00278C20.3956 0.882159 20.4334 0.762227 20.4704 0.642295C20.4227 0.598182 20.3757 0.554759 20.3287 0.511336C20.261 0.588533 20.1912 0.663663 20.1207 0.737414C20.0195 0.838735 19.939 0.960735 19.9362 1.10617C19.8991 1.11927 19.8243 1.14546 19.7873 1.15786C19.7816 1.11651 19.7695 1.03311 19.7631 0.991062C19.7296 0.997265 19.6627 1.00898 19.6292 1.0145C19.6228 1.08204 19.6178 1.15028 19.6099 1.21783C19.5843 1.22679 19.533 1.24471 19.5074 1.25367C19.5102 1.13098 19.5066 1.00829 19.5045 0.886982C19.3791 0.932474 19.2538 0.977277 19.132 1.03035C19.0671 0.908351 18.9282 0.937989 18.8257 0.987616C17.4074 1.61553 15.9443 2.14489 14.5225 2.76453C14.3921 2.799 14.2482 2.83966 14.1777 2.96304C13.9946 3.00233 13.8173 3.06229 13.6484 3.14018C13.4782 3.20497 13.3122 3.27803 13.1448 3.34834C13.0102 3.40279 12.8741 3.45586 12.7395 3.511C12.5379 3.59096 12.3406 3.68332 12.1426 3.77154C12.0735 3.79429 12.0037 3.81773 11.9353 3.84185C11.931 3.877 11.9232 3.94593 11.9196 3.98108C11.8968 4.03209 11.8519 4.1341 11.8299 4.1851C11.6055 4.17683 11.3825 4.15064 11.1588 4.13479C11.2351 3.96867 11.3234 3.80808 11.4146 3.64886C11.5478 3.62404 11.6803 3.59647 11.8113 3.56408C12.2644 3.42623 12.6455 3.1388 13.0707 2.94374C13.7225 2.63564 14.3658 2.311 15.0197 2.00703C16.4721 1.40531 17.9402 0.837356 19.3791 0.205303C19.3799 0.301111 19.3806 0.396918 19.3813 0.493414C19.4546 0.47894 19.5287 0.464466 19.6035 0.45068C19.6128 0.410703 19.632 0.331438 19.6413 0.291461C19.5722 0.270094 19.5038 0.248038 19.4361 0.225292C19.4646 0.153609 19.4931 0.0826147 19.5223 0.0116207ZM20.6592 0.222535C20.6222 0.334884 20.6613 0.372794 20.7774 0.336952C20.8138 0.224603 20.7746 0.186693 20.6592 0.222535ZM20.6457 1.08135C20.7824 1.13787 20.781 0.867683 20.645 0.925581C20.5068 0.87044 20.5089 1.13787 20.6457 1.08135ZM11.4644 4.08998C11.5991 3.99142 11.5827 3.85495 11.5143 3.72054C11.4167 3.82806 11.3946 3.96109 11.4644 4.08998Z" fill="#C11716"/>
<path d="M18.1546 3.05471C18.2138 3.04368 18.3327 3.02232 18.3919 3.01129C18.4959 3.02507 18.5991 3.04162 18.7039 3.05678C18.805 3.07746 18.9062 3.1002 19.0073 3.12364C18.9774 3.24564 18.9482 3.36902 18.9062 3.48826C18.6547 3.54754 18.3954 3.4538 18.1447 3.42623C18.1404 3.30216 18.144 3.17809 18.1546 3.05471Z" fill="#C11716"/>
<path d="M21.1236 3.47723C21.1749 3.37453 21.2177 3.26838 21.2675 3.165C21.5176 3.17258 21.7683 3.17189 22.019 3.16362C22.0725 3.26976 22.1202 3.37798 22.175 3.48343C22.071 3.49308 21.9856 3.53651 21.9172 3.6137C21.7063 3.58751 21.4926 3.58062 21.2804 3.59027C21.2412 3.56201 21.1628 3.50549 21.1236 3.47723Z" fill="#C11716"/>
<path d="M19.9148 3.29458C20.0395 3.25046 20.1727 3.23737 20.3037 3.21462C20.3415 3.39107 20.38 3.56683 20.417 3.74328C20.1705 3.71916 19.9255 3.68608 19.6819 3.64472C19.7488 3.52203 19.813 3.39452 19.9148 3.29458Z" fill="#C11716"/>
<path d="M16.1551 3.52134C16.5434 3.49377 16.9316 3.52134 17.3184 3.56063C17.0983 3.81221 16.8903 4.10101 16.9223 4.44771L16.876 4.48493C16.7969 4.13823 16.4465 3.97143 16.138 3.84943C16.143 3.73984 16.1494 3.63025 16.1551 3.52134Z" fill="#C11716"/>
<path d="M17.4281 3.9928C17.5242 3.84461 17.7009 3.66678 17.8968 3.76259C18.2159 3.83082 18.3277 4.14857 18.4567 4.39878C18.5058 4.51112 18.5984 4.59108 18.7309 4.5897C19.0878 4.61934 19.3877 4.8206 19.7246 4.91572L19.783 4.89642C19.7973 4.70412 19.7973 4.51113 19.8122 4.31951C19.8393 4.40084 19.8635 4.48286 19.8856 4.56626C19.8799 4.70619 19.8771 4.84611 19.8742 4.98672C19.9618 5.03703 20.0502 5.08597 20.1392 5.1356C20.1698 5.43474 20.1527 5.73525 20.1499 6.03577C20.0537 6.06748 19.9597 6.10056 19.865 6.13365C19.6256 6.24255 19.3642 6.14261 19.1213 6.10125L19.1647 6.08195C19.3293 5.97856 19.476 5.84829 19.6092 5.70906C19.6676 5.56845 19.7246 5.35754 19.5394 5.27965C19.3563 5.1928 19.2623 5.41681 19.154 5.51607C19.05 5.6422 18.961 5.78006 18.8791 5.92066C18.7566 5.84898 18.6348 5.77523 18.5001 5.72905C18.4018 5.72629 18.3042 5.72629 18.2074 5.72974L18.1582 5.73112C18.1696 5.35685 18.0549 4.9302 18.347 4.62485C18.322 4.62347 18.2715 4.62141 18.2465 4.62003C18.2423 4.49527 18.1867 4.45323 18.0799 4.49389C18.0563 4.50561 18.01 4.52836 17.9865 4.54007C17.9545 4.54559 17.8918 4.55593 17.8597 4.56144C17.6959 4.56144 17.5321 4.55179 17.3689 4.54352C17.3561 4.35949 17.3169 4.15684 17.4281 3.9928ZM19.8899 5.26035C19.7937 5.32583 19.8892 5.51676 19.9982 5.43405C20.0936 5.36788 19.9982 5.17764 19.8899 5.26035Z" fill="#C11716"/>
<path d="M20.4163 3.90733C20.511 3.85977 20.6115 3.82324 20.7098 3.78257C20.7283 3.80463 20.7653 3.84943 20.7846 3.87218C20.8031 4.11618 20.7981 4.36155 20.7974 4.60693H20.8451C20.8494 4.42083 20.8537 4.23473 20.8601 4.04932C21.3523 4.08378 21.7683 4.35949 22.2135 4.53594L22.2755 4.56213C22.3125 4.83714 22.2627 5.11009 22.1978 5.37684C22.1473 5.37822 22.0468 5.38028 21.9962 5.38097C22.0084 5.1163 21.9977 4.85024 21.9535 4.58901C21.9357 4.84886 21.9364 5.11009 21.915 5.37063C21.9143 5.39889 21.9122 5.45541 21.9108 5.48367C21.7134 5.46506 21.5119 5.46782 21.3202 5.41613C21.15 5.33479 21.0147 5.19487 20.8344 5.13353C20.6564 5.09631 20.4747 5.08321 20.2973 5.04668C20.4711 4.76684 20.454 4.42497 20.3301 4.12996C20.3579 4.05552 20.385 3.98039 20.4163 3.90733ZM21.4157 4.93985C21.4485 4.94191 21.514 4.94605 21.5468 4.94812C21.5596 4.98671 21.5845 5.06322 21.5973 5.10113C21.8267 4.98327 21.7747 4.73858 21.685 4.54697C21.5261 4.62347 21.4798 4.79441 21.4157 4.93985Z" fill="#C11716"/>
<path d="M13.9384 3.92249C14.4142 3.88527 14.885 3.97557 15.3595 3.97901C15.232 4.09481 15.118 4.2237 15.0218 4.365C14.6592 4.37603 14.2967 4.3712 13.9355 4.34639C13.9334 4.2044 13.9341 4.0631 13.9384 3.92249Z" fill="#C11716"/>
<path d="M15.7612 4.17614C16.0141 4.13134 16.2363 4.29814 16.3881 4.47666C16.0924 4.47115 15.7983 4.44771 15.5062 4.40774C15.581 4.32227 15.6544 4.22646 15.7612 4.17614Z" fill="#C11716"/>
<path d="M18.5956 4.46081C18.6447 4.36224 18.6953 4.26506 18.7473 4.16856C18.8499 4.18924 18.9532 4.20992 19.0565 4.23059C19.0686 4.34363 19.0793 4.45598 19.0906 4.56971C18.909 4.57316 18.7288 4.59659 18.5956 4.46081Z" fill="#C11716"/>
<path d="M11.686 4.32985C12.7837 4.3974 13.8807 4.48631 14.9791 4.54352C14.9385 4.73927 14.9549 4.93916 14.9855 5.1356C14.5182 5.11492 14.0545 5.05771 13.5879 5.03152C13.3742 4.77373 13.0786 4.55248 12.7331 4.5063C12.3762 4.51112 12.0414 4.65794 11.7337 4.82198C11.7259 4.65725 11.7052 4.4932 11.686 4.32985Z" fill="#C11716"/>
<path d="M8.88936 4.88815C9.81539 4.87368 10.7322 5.05357 11.6582 5.04461C11.5634 5.2762 11.4958 5.52365 11.5293 5.77523C11.089 5.7897 10.6559 5.69321 10.2157 5.70424C9.7641 5.6036 9.28969 5.56018 8.83308 5.6553C8.86158 5.40027 8.87084 5.14387 8.88936 4.88815Z" fill="#C11716"/>
<path d="M12.1668 5.1032C12.4553 5.13973 12.7452 5.16248 13.0365 5.17006C13.1348 5.33617 13.1947 5.5202 13.2424 5.70561C12.991 5.77454 12.7374 5.8352 12.4838 5.89309C12.352 5.84829 12.201 5.82555 12.0956 5.73112C11.9588 5.53399 12.092 5.29757 12.1668 5.1032Z" fill="#C11716"/>
<path d="M4.11531 5.39889C4.14381 5.39338 4.19937 5.38304 4.22786 5.37753C4.47077 5.42509 4.71652 5.45955 4.96441 5.47333C6.91406 5.6553 8.86585 5.82555 10.8162 6.002C11.478 6.05231 12.1376 6.14123 12.8022 6.1557C12.8065 6.52377 12.8029 6.89253 12.8321 7.2599C12.7302 7.2599 12.6298 7.25301 12.5287 7.24612C12.4118 7.23647 12.2957 7.22544 12.1796 7.21441C11.7287 7.16409 11.2764 7.12481 10.8255 7.07794C10.7015 7.06346 10.5776 7.04761 10.4536 7.03382C10.2627 7.01246 10.0718 6.99109 9.88021 6.97455C9.78832 6.96696 9.69714 6.95869 9.60596 6.95111C8.67851 6.85255 7.75105 6.75605 6.82288 6.66783C6.70179 6.65542 6.58212 6.64163 6.46173 6.62785C6.37839 6.6182 6.29505 6.60855 6.21242 6.5989C5.63329 6.53549 5.05417 6.46587 4.4729 6.42176C4.38315 6.41556 4.2934 6.41073 4.20436 6.4059C4.18512 6.27081 4.16162 6.13709 4.14096 6.00269C4.12101 5.80211 4.11603 5.60016 4.11531 5.39889Z" fill="#C11716"/>
<path d="M15.0916 6.58029C15.3032 6.43485 15.5539 6.36593 15.8075 6.3294L15.8182 6.38385C15.5753 6.44519 15.331 6.50516 15.0916 6.58029Z" fill="#C11716"/>
<path d="M12.5401 7.67759C12.7765 7.7031 12.4154 7.87403 12.5401 7.67759Z" fill="#C11716"/>
<path d="M10.1131 8.44199C10.2122 8.41166 10.2471 8.44474 10.2171 8.54193C10.1174 8.57157 10.0825 8.53848 10.1131 8.44199Z" fill="#C11716"/>
<path d="M7.21039 9.32149C7.31012 9.29116 7.34431 9.32424 7.31439 9.42143C7.21395 9.45107 7.17976 9.41798 7.21039 9.32149Z" fill="#C11716"/>
<path d="M16.6637 9.32976C16.9017 9.33941 16.5533 9.53378 16.6637 9.32976Z" fill="#C11716"/>
<path d="M7.41056 9.6737C7.51385 9.67232 7.51385 9.84188 7.41056 9.84119C7.30798 9.84119 7.30798 9.67301 7.41056 9.6737Z" fill="#C11716"/>
<path d="M14.7504 10.101C14.833 10.0425 14.9299 10.181 14.8566 10.2423C14.7732 10.3002 14.6756 10.161 14.7504 10.101Z" fill="#C11716"/>
<path d="M3.13871 10.5201C3.2655 10.4512 3.35241 10.7159 3.20852 10.7324C3.11449 10.7179 3.07032 10.5835 3.13871 10.5201Z" fill="#C11716"/>
<path d="M11.4737 11.4809C11.5563 11.4224 11.6553 11.5595 11.5813 11.6209C11.4986 11.6788 11.3996 11.5416 11.4737 11.4809Z" fill="#C11716"/>
<path d="M19.3791 0.205303L19.4361 0.225292C19.5038 0.248038 19.5722 0.270094 19.6413 0.291461C19.632 0.331438 19.6128 0.410703 19.6035 0.45068C19.5287 0.464466 19.4546 0.47894 19.3813 0.493414C19.3806 0.396918 19.3799 0.301111 19.3791 0.205303Z" fill="#252525"/>
<path d="M20.3287 0.511336C20.3757 0.554759 20.4227 0.598182 20.4704 0.642295C20.4334 0.762227 20.3956 0.882159 20.3593 1.00278C20.2831 0.911108 20.2012 0.82495 20.1207 0.737414C20.1912 0.663663 20.261 0.588533 20.3287 0.511336Z" fill="#252525"/>
<path d="M20.645 0.925581C20.5068 0.87044 20.5089 1.13787 20.6457 1.08135C20.6457 1.04207 20.645 0.964179 20.645 0.925581Z" fill="#252525"/>
<path d="M19.6292 1.0145C19.6627 1.00898 19.7296 0.997265 19.7631 0.991062C19.7695 1.03311 19.7816 1.11651 19.7873 1.15786C19.7431 1.17303 19.6541 1.20267 19.6099 1.21783C19.6178 1.15028 19.6228 1.08204 19.6292 1.0145Z" fill="#252525"/>
<path d="M15.5098 2.7218C15.6501 2.66046 15.7883 2.59498 15.9279 2.53156C16.0889 2.67562 16.2192 2.85069 16.3909 2.98303C16.7186 3.0685 17.0648 3.01818 17.3989 2.99819C17.3625 3.12295 17.3262 3.2484 17.2913 3.37384C17.2607 3.31594 17.2308 3.25874 17.2015 3.20153C17.1716 3.24564 17.1424 3.29044 17.1132 3.33593C16.7912 3.1457 16.4059 3.17602 16.0533 3.25115C16.0055 3.12571 15.9713 2.99337 15.893 2.8824C15.7812 2.79831 15.6387 2.76936 15.5098 2.7218Z" fill="#070707"/>
<path d="M20.9306 3.1195C21.088 2.81899 21.4478 2.70457 21.774 2.70112C22.0454 2.73834 22.2798 2.90928 22.3902 3.1519C22.7043 3.23323 23.0313 3.23117 23.3511 3.27114C23.4259 3.29733 23.5007 3.30009 23.5769 3.2801C23.4622 3.55236 23.4444 3.84943 23.495 4.13754C23.5043 4.3009 23.6061 4.57385 23.3775 4.63726C23.4131 4.47184 23.1994 4.51388 23.2542 4.65725L23.2713 4.70825C23.2492 4.65518 23.2036 4.55041 23.1816 4.49803C23.0355 4.45667 22.8888 4.3781 22.7335 4.40498C22.6302 4.48562 22.5355 4.58074 22.4073 4.62278C22.4073 4.58143 22.4065 4.49803 22.4065 4.45598C22.6986 4.34087 23.0099 4.28022 23.2977 4.15409C23.3084 3.98522 23.2991 3.81704 23.3141 3.64955C23.3354 3.82186 23.349 3.99624 23.376 4.16856C23.49 3.9287 23.4978 3.57717 23.2314 3.42898C22.8952 3.34696 22.544 3.42967 22.2199 3.5241L22.175 3.48343C22.1202 3.37798 22.0725 3.26976 22.019 3.16362C21.9036 3.03748 21.7533 2.92582 21.5738 2.91066C21.4328 2.93685 21.3416 3.05609 21.2675 3.165C21.2177 3.26838 21.1749 3.37453 21.1236 3.47723C21.0667 3.50756 20.9441 3.62129 21.0645 3.65644C21.1414 3.6523 21.2127 3.63025 21.2804 3.59027C21.4926 3.58062 21.7063 3.58751 21.9172 3.6137C22.0112 3.63921 22.1152 3.67298 22.2107 3.62956C22.1964 3.67229 22.1815 3.71503 22.1658 3.75845C22.1394 3.78533 22.0867 3.83909 22.0596 3.86597L22.0247 3.85839C21.9962 3.8515 21.9385 3.83909 21.9101 3.83289C21.5389 3.72881 21.14 3.704 20.7846 3.87218C20.7653 3.84943 20.7283 3.80463 20.7098 3.78257L20.7746 3.77017C20.9085 3.78395 20.8928 3.61646 20.7867 3.59027C20.7796 3.55925 20.7653 3.49791 20.7582 3.46689C20.8067 3.34696 20.8636 3.23047 20.9306 3.1195Z" fill="#070707"/>
<path d="M14.8637 3.0106C15.0033 2.94374 15.1436 2.87895 15.2868 2.81761C15.2469 2.98303 15.2127 3.15121 15.2106 3.32215C15.2149 3.42829 15.2754 3.46414 15.3915 3.42898C15.3502 3.57304 15.306 3.71641 15.264 3.86115C15.2505 3.77568 15.2369 3.6909 15.2241 3.60612C15.1814 3.66126 15.1401 3.7171 15.098 3.77293C15.0147 3.6978 14.9449 3.60268 14.8387 3.55787C14.5709 3.52617 14.3016 3.57511 14.0331 3.57235C14.031 3.54271 14.026 3.48206 14.0238 3.45242C14.0388 3.41795 14.068 3.34834 14.083 3.31388C14.1699 3.34696 14.2575 3.38074 14.3451 3.41451C14.3544 3.39452 14.3736 3.35385 14.3836 3.33386C14.5467 3.3511 14.7105 3.36764 14.8744 3.38349C14.8708 3.25874 14.8672 3.13467 14.8637 3.0106Z" fill="#252525"/>
<path d="M13.6484 3.14018C13.8173 3.06229 13.9946 3.00233 14.1777 2.96304C14.0609 3.04162 13.9398 3.11537 13.8144 3.18085C13.7731 3.17051 13.6898 3.15052 13.6484 3.14018Z" fill="#252525"/>
<path d="M19.7987 3.08297C19.9504 3.04506 20.1007 3.00164 20.2496 2.95615C20.2674 3.04162 20.2852 3.12846 20.3037 3.21462C20.1727 3.23737 20.0395 3.25046 19.9148 3.29458C19.813 3.39452 19.7488 3.52203 19.6819 3.64472C19.6655 3.79016 19.6783 3.93628 19.6997 4.08102C19.5416 4.07275 19.3834 4.06172 19.2267 4.04932C19.31 3.68539 19.3791 3.22358 19.7987 3.08297Z" fill="#070707"/>
<path d="M10.4465 3.43725C10.6545 3.28424 10.9202 3.21462 11.1759 3.17947C11.431 3.20704 11.6575 3.36971 11.8113 3.56408C11.6803 3.59647 11.5478 3.62404 11.4146 3.64886C11.2507 3.58338 11.0641 3.3766 10.886 3.51376C10.6702 3.68746 10.6723 3.98039 10.6745 4.22784C10.5541 4.25127 10.4316 4.26781 10.309 4.27746C10.168 4.00452 10.2763 3.67298 10.4465 3.43725Z" fill="#070707"/>
<path d="M12.7395 3.511C12.8741 3.45586 13.0102 3.40279 13.1448 3.34834C13.1455 3.48412 13.1448 3.6206 13.142 3.75638C13.0793 3.86046 13.0187 3.96592 12.9646 4.07551C12.9568 4.10928 12.9418 4.17683 12.934 4.2106C12.8941 4.14512 12.8535 4.07964 12.8136 4.01485C12.7744 4.06862 12.7359 4.12376 12.6968 4.17821C12.6754 4.14581 12.6327 4.08103 12.6113 4.04863C12.4061 4.02451 12.201 4.00452 11.9951 3.98659C11.9887 3.98591 11.9752 3.98522 11.9688 3.98453L11.9196 3.98108C11.9232 3.94593 11.931 3.877 11.9353 3.84185C12.0037 3.81773 12.0735 3.79429 12.1426 3.77154C12.3648 3.7805 12.5864 3.7936 12.8086 3.79911C12.7851 3.70262 12.7623 3.60681 12.7395 3.511Z" fill="#070707"/>
<path d="M17.3184 3.56063C17.5463 3.5372 17.7686 3.46207 17.9994 3.46414C18.2109 3.49929 18.4082 3.60337 18.5714 3.73639C18.6996 3.84323 18.7046 4.02106 18.7473 4.16856C18.6953 4.26506 18.6447 4.36224 18.5956 4.46081C18.5607 4.44495 18.4916 4.41394 18.4567 4.39878C18.3277 4.14857 18.2159 3.83082 17.8968 3.76259C17.7009 3.66678 17.5242 3.84461 17.4281 3.9928C17.3169 4.15684 17.3561 4.35949 17.3689 4.54352C17.5321 4.55179 17.6959 4.56144 17.8597 4.56144C17.7778 4.75788 18.0984 4.71377 17.9865 4.54007C18.01 4.52836 18.0563 4.50561 18.0799 4.49389C18.0784 4.59659 18.134 4.63864 18.2465 4.62003C18.2715 4.62141 18.322 4.62347 18.347 4.62485C18.0549 4.9302 18.1696 5.35685 18.1582 5.73112C18.1497 5.79798 18.144 5.96478 18.2586 5.92825C18.2971 5.85381 18.2793 5.78764 18.2074 5.72974C18.3042 5.72629 18.4018 5.72629 18.5001 5.72905C18.686 6.32526 18.535 6.9904 18.81 7.56731C18.904 7.82372 18.9603 8.09391 19.0857 8.33929C19.2032 8.5695 19.3207 8.80247 19.3685 9.0575C19.107 8.92585 18.919 8.68323 18.6162 8.62257C18.6226 8.51711 18.6583 8.39443 18.5657 8.31171C18.3983 7.56524 18.3819 6.79878 18.2715 6.04404C18.2123 6.14674 18.144 6.24324 18.1091 6.35904C18.0685 6.30389 18.0257 6.2522 17.9794 6.20326C17.9637 6.18741 17.9324 6.15639 17.9174 6.14054C17.8733 6.21291 17.8405 6.2908 17.8498 6.37627L17.8476 6.42245C17.8149 6.32044 17.7906 6.21567 17.7386 6.12193C17.5463 6.07161 17.2293 5.96202 17.1175 6.18534C17.0712 6.1819 17.0242 6.17914 16.9779 6.17707C16.9166 6.2136 16.8575 6.25358 16.8019 6.29769C16.8041 6.24186 16.8083 6.12951 16.8112 6.07368C17.1495 5.95651 17.5093 5.89585 17.8377 5.75386C17.958 5.45403 17.8904 5.10871 17.8441 4.79648C17.4046 4.7565 16.9608 4.78545 16.5341 4.89504C16.5255 4.84404 16.5092 4.74203 16.5006 4.69171C16.4671 4.61727 16.4287 4.54559 16.3881 4.47666C16.2363 4.29814 16.0141 4.13134 15.7612 4.17614C15.6544 4.22646 15.581 4.32227 15.5062 4.40774C15.4749 4.47322 15.4464 4.54007 15.42 4.60831C15.4129 4.79924 15.4535 4.9874 15.5019 5.17144C15.3288 5.16661 15.1572 5.14938 14.9855 5.1356C14.9549 4.93916 14.9385 4.73927 14.9791 4.54352C14.9898 4.49872 15.0111 4.40911 15.0218 4.365C15.118 4.2237 15.232 4.09481 15.3595 3.97901C15.6145 3.9156 15.873 3.85701 16.138 3.84943C16.4465 3.97143 16.7969 4.13823 16.876 4.48493C16.8155 4.59659 17.0249 4.72824 17.0163 4.55524C16.9928 4.52835 16.9458 4.47459 16.9223 4.44771C16.8903 4.10101 17.0983 3.81221 17.3184 3.56063ZM17.9324 5.72354C17.9723 5.70493 18.0521 5.66702 18.092 5.64841C18.1091 5.36926 18.1219 5.08804 18.0763 4.81095C17.8804 5.07632 17.9189 5.41613 17.9324 5.72354ZM18.9525 8.37857C18.8784 8.43992 18.9788 8.5757 19.0614 8.51781C19.1348 8.45508 19.0344 8.3193 18.9525 8.37857Z" fill="#070707"/>
<path d="M7.45259 3.91905C7.59292 3.70607 7.87714 3.6847 8.11149 3.65575C8.52322 3.59854 8.88508 3.89699 9.03396 4.24783C9.21418 4.19613 9.38087 4.2754 9.54969 4.32778C9.75555 4.33536 9.95928 4.28573 10.1659 4.28436C10.2 4.30641 10.2677 4.35122 10.3012 4.37327C10.2463 4.49251 10.1908 4.61107 10.1366 4.73031C10.0797 4.68551 10.0234 4.64002 9.96142 4.60142C9.91013 4.63588 9.8624 4.67517 9.81468 4.71446C9.51906 4.4291 9.071 4.5125 8.70273 4.57729C8.57308 4.35397 8.46338 4.08378 8.20623 3.97074C8.06163 3.88459 7.84508 3.96523 7.8059 4.1272C7.72398 4.32502 7.72968 4.54145 7.73609 4.75099C7.59505 4.77511 7.45472 4.79993 7.31439 4.82612C7.18333 4.52698 7.24387 4.17063 7.45259 3.91905Z" fill="#070707"/>
<path d="M11.5143 3.72054C11.4167 3.82806 11.3946 3.96109 11.4644 4.08998C11.5991 3.99142 11.5827 3.85495 11.5143 3.72054Z" fill="#252525"/>
<path d="M19.1156 4.15271C19.32 4.14444 19.5252 4.14995 19.7303 4.15891C19.8301 4.2368 19.9618 4.20578 20.0402 4.11411C20.063 4.1272 20.1086 4.1534 20.1314 4.16649C20.095 4.2113 20.0601 4.25679 20.0259 4.30366C19.9739 4.38843 19.9269 4.47597 19.8856 4.56626C19.8635 4.48286 19.8393 4.40084 19.8122 4.31951C19.7973 4.51113 19.7973 4.70412 19.783 4.89642L19.7246 4.91572C19.736 4.74685 19.7439 4.57798 19.7517 4.40911C19.5373 4.3395 19.2417 4.36776 19.1156 4.15271Z" fill="#252525"/>
<path d="M3.28901 4.43875C3.64945 4.26437 4.1146 4.19131 4.46721 4.42428C4.65811 4.51388 4.7671 4.69309 4.86255 4.86816C5.12398 4.90538 5.3448 5.08666 5.62189 5.04392C5.52787 5.22037 5.84842 5.21348 5.74726 5.04048C5.78929 5.04944 5.87263 5.06736 5.91395 5.07701C5.96025 5.08321 6.05214 5.09631 6.09773 5.1032C6.13905 5.10665 6.22168 5.11354 6.26299 5.11699C6.21242 5.17764 6.15828 5.23485 6.09773 5.28654C6.08705 5.33893 6.07707 5.39062 6.06781 5.4437C6.02863 5.39752 5.99017 5.35202 5.95028 5.30791C5.79499 5.35892 5.62973 5.38649 5.46803 5.34306C5.14606 5.27345 4.81269 5.25622 4.48644 5.31274C4.33542 5.01084 4.14025 4.56971 3.71712 4.62554C3.31394 5.04255 3.49487 5.94134 4.14096 6.00269C4.16162 6.13709 4.18512 6.27081 4.20436 6.4059C3.74989 6.39488 3.27263 6.246 2.83241 6.40729C2.54676 6.60441 2.51756 6.99109 2.56386 7.30126C2.68424 8.01395 2.79323 8.72941 2.91717 9.44142C2.97416 9.75848 3.18928 10.0163 3.294 10.3168C3.40298 10.6263 3.52978 10.9295 3.69219 11.217C3.77197 11.4237 3.77197 11.6464 3.76698 11.8635C3.46139 11.6974 3.20638 11.4623 2.96205 11.2232C2.9357 10.9723 2.77186 10.76 2.73838 10.5105C2.55389 9.46692 2.37936 8.422 2.19558 7.37846C2.12577 6.97593 2.19629 6.52928 2.50972 6.23428C2.71986 6.06265 3.00479 6.06748 3.26408 6.06748C3.14227 5.82072 2.99838 5.57534 2.9535 5.3024C2.95208 4.99292 3.02046 4.63726 3.28901 4.43875ZM4.6403 4.98051C4.55554 5.08183 4.74074 5.18936 4.81126 5.09148C4.89603 4.98947 4.71082 4.88126 4.6403 4.98051ZM4.92239 4.98534C4.95871 5.02049 4.95871 5.02049 4.92239 4.98534ZM3.20852 10.7324C3.11449 10.7179 3.07032 10.5835 3.13871 10.5201C3.2655 10.4512 3.35241 10.7159 3.20852 10.7324ZM3.2883 10.9833C3.19926 11.0481 3.30682 11.2066 3.40085 11.137C3.48918 11.0708 3.38233 10.9123 3.2883 10.9833Z" fill="#070707"/>
<path d="M11.7337 4.82198C12.0414 4.65794 12.3762 4.51112 12.7331 4.5063C13.0786 4.55248 13.3742 4.77373 13.5879 5.03152C13.6121 5.09424 13.6349 5.15834 13.6556 5.22313C13.5323 5.26587 13.6021 5.4947 13.714 5.36512C13.7147 5.33066 13.7161 5.26173 13.7168 5.22727C13.7425 5.21417 13.7923 5.18936 13.8173 5.17626C13.7852 5.2955 13.9312 5.34995 14.0281 5.31756C14.2183 5.30446 14.4099 5.30653 14.6008 5.3086C14.5332 5.48229 14.8017 5.60223 14.8352 5.39062C14.8452 5.36857 14.8658 5.32514 14.8758 5.30309C14.8886 5.44438 15.0532 5.44507 15.1422 5.36788C15.1636 5.3789 15.2063 5.40027 15.2277 5.4113C14.8715 5.71458 14.9955 6.21153 15.0325 6.61406C15.0916 6.71538 15.1572 6.81395 15.2241 6.91182C15.1251 7.04692 15.0339 7.18684 14.9313 7.31918C14.9057 7.27438 14.8537 7.18615 14.8281 7.14204L14.7803 7.1317C14.7518 7.12756 14.6949 7.11791 14.6656 7.11309C14.6692 7.25852 14.6963 7.40258 14.7746 7.52871C14.7889 7.48598 14.8159 7.39982 14.8302 7.35709C14.937 7.568 15.0346 7.78443 15.1044 8.0112C14.8915 7.86852 14.6543 7.75686 14.4612 7.58937C14.3693 7.40465 14.3323 7.19925 14.2454 7.01246C14.2133 7.50666 14.3401 7.99259 14.3672 8.48472C14.3736 8.73354 14.4591 8.96996 14.5673 9.19259C14.7518 9.72608 14.9776 10.243 15.2063 10.7586C15.2134 10.8172 15.227 10.933 15.2334 10.9909L15.18 10.9502C14.9264 10.7558 14.6977 10.5284 14.3928 10.4078C14.3608 10.3106 14.3465 10.2093 14.3301 10.1093C14.3145 10.0859 14.2838 10.0376 14.2682 10.0135C14.2098 9.78604 14.1827 9.5517 14.1471 9.3201C14.1357 9.24635 14.1243 9.17191 14.1143 9.09816C14.0623 8.59638 13.9861 8.09735 13.9391 7.59557C13.9234 7.3881 13.8515 7.19028 13.7674 7.00005C13.714 7.11102 13.662 7.22199 13.6085 7.33296C13.5858 7.23233 13.5501 7.13583 13.5024 7.04554C13.875 6.92285 14.2482 6.78844 14.6414 6.74571C14.6592 6.83945 14.7447 6.89321 14.7611 6.98764C14.7818 6.87185 14.7996 6.75605 14.8074 6.63888C14.8459 6.61337 14.9235 6.56306 14.9627 6.53755C14.9734 6.23014 14.9741 5.92204 14.957 5.61532C14.9164 5.61808 14.8338 5.62497 14.7932 5.62773C14.744 5.63117 14.6956 5.63324 14.6478 5.63393C14.177 5.60361 13.6926 5.51745 13.2424 5.70561C13.1947 5.5202 13.1348 5.33617 13.0365 5.17006C12.867 5.0067 12.6512 4.87368 12.4076 4.85989C12.3093 4.92192 12.2366 5.0136 12.1668 5.1032C12.092 5.29757 11.9588 5.53399 12.0956 5.73112C12.201 5.82555 12.352 5.84829 12.4838 5.89309C12.1981 5.97787 11.899 5.97718 11.6055 5.93859C11.5862 5.89792 11.5485 5.81659 11.5293 5.77523C11.4958 5.52365 11.5634 5.2762 11.6582 5.04461C11.6853 4.97086 11.7102 4.89642 11.7337 4.82198ZM14.6022 9.75089C14.5716 9.84739 14.6058 9.88048 14.7062 9.85084C14.7362 9.75365 14.7013 9.72057 14.6022 9.75089ZM14.8566 10.2423C14.7732 10.3002 14.6756 10.161 14.7504 10.101C14.833 10.0425 14.9299 10.181 14.8566 10.2423Z" fill="#070707"/>
<path d="M21.4157 4.93985C21.4798 4.79441 21.5261 4.62347 21.685 4.54697C21.7747 4.73858 21.8267 4.98327 21.5973 5.10113C21.5845 5.06322 21.5596 4.98671 21.5468 4.94812C21.514 4.94605 21.4485 4.94191 21.4157 4.93985Z" fill="#070707"/>
<path d="M19.154 5.51607C19.2623 5.41681 19.3563 5.1928 19.5394 5.27965C19.7246 5.35754 19.6676 5.56845 19.6092 5.70906C19.4475 5.66909 19.2901 5.61188 19.154 5.51607Z" fill="#070707"/>
<path d="M8.83308 5.6553C9.28969 5.56018 9.7641 5.6036 10.2157 5.70424L10.1602 5.78006C9.71352 5.80142 9.27117 5.70975 8.82453 5.71458L8.83308 5.6553Z" fill="#252525"/>
<path d="M19.865 6.13365C19.9597 6.10056 20.0537 6.06748 20.1499 6.03577C20.1228 6.57409 20.3458 7.07656 20.511 7.57903C20.6086 7.87059 20.8116 8.11941 20.8715 8.42475C20.6421 8.29448 20.4719 8.07116 20.1997 8.01878C20.1591 7.90712 20.1093 7.80028 20.0594 7.69345C20.0459 7.4784 20.0217 7.26473 19.9825 7.05312C19.9241 6.74847 19.9547 6.43279 19.865 6.13365Z" fill="#070707"/>
<path d="M15.8075 6.3294C15.9208 6.30872 16.034 6.28873 16.1473 6.26599C16.1836 6.84152 16.2905 7.41085 16.3183 7.98707C16.4009 8.30344 16.5597 8.59776 16.6388 8.9162C16.7492 9.32286 17.0869 9.65302 17.0918 10.0879C17.0605 10.0728 16.9985 10.0418 16.9672 10.0266C16.7407 9.87565 16.527 9.70609 16.289 9.571C16.2777 9.51034 16.2663 9.45038 16.2549 9.39041C15.9963 8.40614 15.9998 7.38121 15.8182 6.38385L15.8075 6.3294ZM16.6637 9.32976C16.9017 9.33941 16.5533 9.53378 16.6637 9.32976Z" fill="#070707"/>
<path d="M4.4729 6.42176C5.05417 6.46587 5.63329 6.53549 6.21242 6.5989C6.16825 6.72503 6.12694 6.85186 6.08705 6.97937C6.02151 6.88287 5.96595 6.78155 5.91537 6.67816C5.87335 6.80154 5.82776 6.92354 5.78431 7.04692C5.69384 6.93181 5.62474 6.7981 5.5122 6.70091C5.37187 6.64784 5.23795 6.74364 5.11115 6.78776C5.03493 6.75674 4.95943 6.72572 4.88392 6.6954C4.87395 6.77397 4.86469 6.85324 4.85543 6.9325C4.7265 6.76294 4.59899 6.5927 4.4729 6.42176Z" fill="#252525"/>
<path d="M6.46173 6.62785C6.58212 6.64163 6.70179 6.65542 6.82288 6.66783C6.83428 7.21372 6.96393 7.7479 7.02162 8.28966C7.04371 8.62257 7.30513 8.87208 7.38563 9.18915C7.50601 9.6351 7.81089 10.0225 7.84223 10.4925C7.49176 10.3175 7.13275 10.0804 6.99028 9.70678C6.8293 9.30356 6.79012 8.86726 6.72601 8.44268C6.64908 7.83613 6.51302 7.23785 6.46173 6.62785ZM7.31439 9.42143C7.21395 9.45107 7.17976 9.41798 7.21039 9.32149C7.31012 9.29116 7.34431 9.32424 7.31439 9.42143ZM7.41056 9.84119C7.30798 9.84119 7.30798 9.67301 7.41056 9.6737C7.51385 9.67232 7.51385 9.84188 7.41056 9.84119Z" fill="#070707"/>
<path d="M9.60596 6.95111C9.69714 6.95869 9.78832 6.96696 9.88021 6.97455C9.903 7.28678 9.92722 7.60798 10.0725 7.89333C10.2435 8.22832 10.3083 8.60879 10.5291 8.92033C10.5605 8.28759 10.2577 7.66243 10.4536 7.03382C10.5776 7.04761 10.7015 7.06346 10.8255 7.07794C10.7806 7.27989 10.7343 7.48667 10.7713 7.69414C10.8525 8.18282 10.9152 8.67427 10.9743 9.1664C11.0085 9.42005 11.0342 9.67508 11.0755 9.92872C11.0926 10.1128 11.1852 10.2747 11.2892 10.4264C11.4003 10.678 11.458 10.9481 11.5627 11.2025C11.7066 11.5878 11.9908 11.9365 11.9659 12.3666C11.6489 12.2157 11.3854 11.9862 11.0926 11.7994C11.0791 11.7284 11.0662 11.6574 11.0506 11.5885C10.9694 11.4182 10.8988 11.2418 10.8753 11.0543C10.8062 10.6538 10.7428 10.252 10.7001 9.84739C10.6773 9.73228 10.683 9.60408 10.616 9.50276C10.5085 9.39386 10.3653 9.32837 10.2357 9.24842C10.1288 9.16847 9.98706 9.10368 9.94859 8.9672C9.73988 8.31516 9.61878 7.63417 9.60596 6.95111ZM10.2171 8.54193C10.1174 8.57157 10.0825 8.53848 10.1131 8.44199C10.2122 8.41166 10.2471 8.44474 10.2171 8.54193ZM10.2556 8.78662C10.225 8.88242 10.2592 8.9162 10.3596 8.88656C10.3895 8.79006 10.3553 8.75698 10.2556 8.78662ZM10.5512 8.98306C10.5876 9.01821 10.5876 9.01821 10.5512 8.98306ZM11.5813 11.6209C11.4986 11.6788 11.3996 11.5416 11.4737 11.4809C11.5563 11.4224 11.6553 11.5595 11.5813 11.6209Z" fill="#070707"/>
<path d="M12.1796 7.21441C12.2957 7.22544 12.4118 7.23647 12.5287 7.24612C12.6611 7.74376 12.9867 8.18006 13.0458 8.69494C12.8214 8.53986 12.5714 8.39994 12.4083 8.17938C12.2316 7.8892 12.2231 7.53974 12.1796 7.21441ZM12.5401 7.67759C12.7765 7.7031 12.4154 7.87403 12.5401 7.67759ZM12.6747 8.02016C12.9126 8.02912 12.5643 8.22418 12.6747 8.02016Z" fill="#070707"/>
<path d="M19.9362 1.10617C19.939 0.960735 20.0195 0.838735 20.1207 0.737414C20.2012 0.82495 20.2831 0.911108 20.3593 1.00278C20.3536 1.02001 20.3422 1.05516 20.3372 1.07308C20.2019 1.10686 20.0644 1.13098 19.9298 1.16475L19.9362 1.10617Z" fill="#8C1211"/>
<path d="M18.8257 0.987616C18.9282 0.937989 19.0671 0.908351 19.132 1.03035C18.81 1.20956 18.478 1.37016 18.134 1.50318C17.3925 1.83334 16.6823 2.22829 15.9279 2.53156C15.7883 2.59498 15.6501 2.66046 15.5098 2.7218C15.435 2.75351 15.3609 2.7859 15.2868 2.81761C15.1436 2.87895 15.0033 2.94374 14.8637 3.0106C14.6863 3.09469 14.5075 3.17602 14.328 3.25598C14.3415 3.27528 14.3693 3.31456 14.3836 3.33386C14.3736 3.35385 14.3544 3.39452 14.3451 3.41451C14.2575 3.38074 14.1699 3.34696 14.083 3.31388C14.068 3.34834 14.0388 3.41795 14.0238 3.45242C13.9825 3.54685 13.9398 3.64128 13.9027 3.73777C13.8899 3.58269 13.8586 3.43105 13.8258 3.2801C13.7952 3.44621 13.8044 3.61577 13.7831 3.78326C13.6648 3.7619 13.5473 3.73915 13.429 3.7233C13.4761 3.49722 13.6 3.29182 13.8144 3.18085C13.9398 3.11537 14.0609 3.04162 14.1777 2.96304C14.3294 3.0044 14.499 2.92306 14.5225 2.76453C15.9443 2.14489 17.4074 1.61553 18.8257 0.987616Z" fill="#8C1211"/>
<path d="M23.3511 3.27114C23.3397 3.14983 23.5648 3.11192 23.5919 3.2353L23.5769 3.2801C23.5007 3.30009 23.4259 3.29733 23.3511 3.27114Z" fill="#8C1211"/>
<path d="M15.2106 3.32215C15.259 3.33662 15.3573 3.36488 15.4058 3.37936L15.3915 3.42898C15.2754 3.46414 15.2149 3.42829 15.2106 3.32215Z" fill="#8C1211"/>
<path d="M21.0645 3.65644C20.9441 3.62129 21.0667 3.50756 21.1236 3.47723C21.1628 3.50549 21.2412 3.56201 21.2804 3.59027C21.2127 3.63025 21.1414 3.6523 21.0645 3.65644Z" fill="#8C1211"/>
<path d="M21.9172 3.6137C21.9856 3.53651 22.071 3.49308 22.175 3.48343L22.2199 3.5241C22.2178 3.55029 22.2128 3.60337 22.2107 3.62956C22.1152 3.67298 22.0112 3.63921 21.9172 3.6137Z" fill="#8C1211"/>
<path d="M22.0596 3.86597C22.0867 3.83909 22.1394 3.78533 22.1658 3.75845C22.133 3.98246 22.1266 4.20854 22.1116 4.43462C22.0832 4.24576 22.0725 4.05552 22.0596 3.86597Z" fill="#8C1211"/>
<path d="M21.9101 3.83289C21.9385 3.83909 21.9962 3.8515 22.0247 3.85839C22.0055 4.02657 21.9905 4.19613 21.967 4.36431C21.9378 4.18786 21.9272 4.01003 21.9101 3.83289Z" fill="#8C1211"/>
<path d="M12.9646 4.07551C13.1719 4.07965 13.3735 4.13548 13.5373 4.26299C13.3478 4.27471 13.1576 4.28091 12.9682 4.26643L12.934 4.2106C12.9418 4.17683 12.9568 4.10928 12.9646 4.07551Z" fill="#8C1211"/>
<path d="M19.8336 4.08654C19.8771 4.08723 19.9647 4.08929 20.0081 4.08998L20.0402 4.11411C19.9618 4.20578 19.8301 4.2368 19.7303 4.15891C19.756 4.14099 19.808 4.10515 19.8336 4.08654Z" fill="#8C1211"/>
<path d="M19.8856 4.56626C19.9269 4.47597 19.9739 4.38843 20.0259 4.30366C20.0117 4.538 19.9825 4.77373 19.8742 4.98672C19.8771 4.84611 19.8799 4.70619 19.8856 4.56626Z" fill="#8C1211"/>
<path d="M16.876 4.48493L16.9223 4.44771C16.9458 4.47459 16.9928 4.52835 17.0163 4.55524C17.0249 4.72824 16.8155 4.59659 16.876 4.48493Z" fill="#8C1211"/>
<path d="M18.2465 4.62003C18.2423 4.49527 18.1867 4.45323 18.0799 4.49389C18.0784 4.59659 18.134 4.63864 18.2465 4.62003Z" fill="#8C1211"/>
<path d="M23.3775 4.63726C23.4131 4.47184 23.1994 4.51388 23.2542 4.65725C23.2849 4.65173 23.3461 4.64208 23.3775 4.63726Z" fill="#8C1211"/>
<path d="M17.9865 4.54007C17.9545 4.54559 17.8918 4.55593 17.8597 4.56144C17.7778 4.75788 18.0984 4.71377 17.9865 4.54007Z" fill="#8C1211"/>
<path d="M15.42 4.60831C15.7812 4.62485 16.143 4.64002 16.5006 4.69171C16.5092 4.74203 16.5255 4.84404 16.5341 4.89504C16.1858 4.97155 15.8481 5.08804 15.5019 5.17144C15.4535 4.9874 15.4129 4.79924 15.42 4.60831Z" fill="#8C1211"/>
<path d="M4.81126 5.09148C4.89603 4.98947 4.71082 4.88126 4.6403 4.98051C4.55554 5.08183 4.74074 5.18936 4.81126 5.09148Z" fill="#8C1211"/>
<path d="M5.91395 5.07701C5.81209 4.91572 6.16113 4.8916 6.13691 5.0646L6.09773 5.1032C6.05214 5.09631 5.96025 5.08321 5.91395 5.07701Z" fill="#8C1211"/>
<path d="M5.62189 5.04392C5.65324 5.04254 5.71592 5.04117 5.74726 5.04048C5.84842 5.21348 5.52787 5.22037 5.62189 5.04392Z" fill="#8C1211"/>
<path d="M13.8173 5.17626C13.9127 5.08873 14.0687 5.20314 14.0281 5.31756C13.9312 5.34995 13.7852 5.2955 13.8173 5.17626Z" fill="#8C1211"/>
<path d="M13.714 5.36512C13.6021 5.4947 13.5323 5.26587 13.6556 5.22313L13.7168 5.22727C13.7161 5.26173 13.7147 5.33066 13.714 5.36512Z" fill="#8C1211"/>
<path d="M14.8758 5.30309C14.9264 5.148 15.1016 5.27138 15.1422 5.36788C15.0532 5.44507 14.8886 5.44438 14.8758 5.30309Z" fill="#8C1211"/>
<path d="M19.9982 5.43405C20.0936 5.36788 19.9982 5.17764 19.8899 5.26035C19.7937 5.32583 19.8892 5.51676 19.9982 5.43405Z" fill="#8C1211"/>
<path d="M14.6008 5.3086C14.6913 5.3024 14.7696 5.32997 14.8352 5.39062C14.8017 5.60223 14.5332 5.48229 14.6008 5.3086Z" fill="#8C1211"/>
<path d="M18.8791 5.92066C18.961 5.78006 19.05 5.6422 19.154 5.51607C19.2901 5.61188 19.4475 5.66909 19.6092 5.70906C19.476 5.84829 19.3293 5.97856 19.1647 6.08195C19.0443 6.07851 18.9631 5.99097 18.8791 5.92066Z" fill="#8C1211"/>
<path d="M14.6478 5.63393C14.6956 5.63324 14.744 5.63117 14.7932 5.62773C14.7946 5.96478 14.8117 6.30183 14.8074 6.63888C14.7996 6.75605 14.7818 6.87185 14.7611 6.98764C14.7447 6.89321 14.6592 6.83945 14.6414 6.74571C14.6635 6.37558 14.6721 6.00407 14.6478 5.63393Z" fill="#8C1211"/>
<path d="M17.8498 6.37627C17.8405 6.2908 17.8733 6.21291 17.9174 6.14054C17.9324 6.15639 17.9637 6.18741 17.9794 6.20326C18.0364 6.27839 17.9459 6.43141 17.8498 6.37627Z" fill="#8C1211"/>
<path d="M14.6656 7.11309C14.6949 7.11791 14.7518 7.12756 14.7803 7.1317C14.7967 7.20683 14.8131 7.28196 14.8302 7.35709C14.8159 7.39982 14.7889 7.48598 14.7746 7.52871C14.6963 7.40258 14.6692 7.25852 14.6656 7.11309Z" fill="#8C1211"/>
<path d="M19.0614 8.51781C19.1348 8.45508 19.0344 8.3193 18.9525 8.37857C18.8784 8.43992 18.9788 8.5757 19.0614 8.51781Z" fill="#8C1211"/>
<path d="M14.7062 9.85084C14.7362 9.75365 14.7013 9.72057 14.6022 9.75089C14.5716 9.84739 14.6058 9.88048 14.7062 9.85084Z" fill="#8C1211"/>
<path d="M19.7873 1.15786C19.8243 1.14546 19.8991 1.11927 19.9362 1.10617L19.9298 1.16475L19.9241 1.22265C19.9212 1.27297 19.9155 1.3736 19.9134 1.42461C19.7802 1.95603 19.5743 2.4716 19.4981 3.01611C19.5978 3.03886 19.6976 3.06229 19.7987 3.08297C19.3791 3.22358 19.31 3.68539 19.2267 4.04932C19.3834 4.06172 19.5416 4.07275 19.6997 4.08102C19.7332 4.0824 19.8001 4.08516 19.8336 4.08654C19.808 4.10515 19.756 4.14099 19.7303 4.15891C19.5252 4.14995 19.32 4.14444 19.1156 4.15271C19.2417 4.36776 19.5373 4.3395 19.7517 4.40911C19.7439 4.57798 19.736 4.74685 19.7246 4.91572C19.3877 4.8206 19.0878 4.61934 18.7309 4.5897C18.5984 4.59108 18.5058 4.51112 18.4567 4.39878C18.4916 4.41394 18.5607 4.44495 18.5956 4.46081C18.7288 4.59659 18.909 4.57316 19.0906 4.56971C19.0793 4.45598 19.0686 4.34363 19.0565 4.23059C18.9532 4.20992 18.8499 4.18924 18.7473 4.16856C18.7046 4.02106 18.6996 3.84323 18.5714 3.73639C18.4082 3.60337 18.2109 3.49929 17.9994 3.46414C17.7686 3.46207 17.5463 3.5372 17.3184 3.56063C16.9316 3.52134 16.5434 3.49377 16.1551 3.52134C16.1494 3.63025 16.143 3.73984 16.138 3.84943C15.873 3.85701 15.6145 3.9156 15.3595 3.97901C14.885 3.97557 14.4142 3.88527 13.9384 3.92249C13.9341 4.0631 13.9334 4.2044 13.9355 4.34639C14.2967 4.3712 14.6592 4.37603 15.0218 4.365C15.0111 4.40911 14.9898 4.49872 14.9791 4.54352C13.8807 4.48631 12.7837 4.3974 11.686 4.32985C11.7052 4.4932 11.7259 4.65725 11.7337 4.82198C11.7102 4.89642 11.6853 4.97086 11.6582 5.04461C10.7322 5.05357 9.81539 4.87368 8.88936 4.88815C8.87084 5.14387 8.86158 5.40027 8.83308 5.6553L8.82453 5.71458C9.27117 5.70975 9.71352 5.80142 10.1602 5.78006C10.6353 5.88207 11.1246 5.87862 11.6055 5.93859C11.899 5.97718 12.1981 5.97787 12.4838 5.89309C12.7374 5.8352 12.991 5.77454 13.2424 5.70561C13.6926 5.51745 14.177 5.60361 14.6478 5.63393C14.6721 6.00407 14.6635 6.37558 14.6414 6.74571C14.2482 6.78844 13.875 6.92285 13.5024 7.04554C13.2802 7.11998 13.0622 7.20959 12.8321 7.2599C12.8029 6.89253 12.8065 6.52377 12.8022 6.1557C12.1376 6.14123 11.478 6.05231 10.8162 6.002C8.86585 5.82555 6.91406 5.6553 4.96441 5.47333C4.71652 5.45955 4.47077 5.42509 4.22786 5.37753C4.31334 5.35478 4.40025 5.33341 4.48644 5.31274C4.81269 5.25622 5.14606 5.27345 5.46803 5.34306C5.62973 5.38649 5.79499 5.35892 5.95028 5.30791C5.99017 5.35202 6.02863 5.39752 6.06781 5.4437C6.07707 5.39062 6.08705 5.33893 6.09773 5.28654C6.15828 5.23485 6.21242 5.17764 6.26299 5.11699C6.22168 5.11354 6.13905 5.10665 6.09773 5.1032L6.13691 5.0646C6.5116 4.92951 6.92617 4.92468 7.31439 4.82612C7.45472 4.79993 7.59505 4.77511 7.73609 4.75099C8.05878 4.69447 8.38075 4.63726 8.70273 4.57729C9.071 4.5125 9.51906 4.4291 9.81468 4.71446C9.8624 4.67517 9.91013 4.63588 9.96142 4.60142C10.0234 4.64002 10.0797 4.68551 10.1366 4.73031C10.1908 4.61107 10.2463 4.49251 10.3012 4.37327C10.2677 4.35122 10.2 4.30641 10.1659 4.28436C10.2022 4.28229 10.2734 4.27884 10.309 4.27746C10.4316 4.26781 10.5541 4.25127 10.6745 4.22784C10.8354 4.19613 10.9957 4.15822 11.1588 4.13479C11.3825 4.15064 11.6055 4.17683 11.8299 4.1851C11.8519 4.1341 11.8968 4.03209 11.9196 3.98108L11.9688 3.98453L11.9951 3.98659C12.201 4.00452 12.4061 4.02451 12.6113 4.04863C12.6327 4.08103 12.6754 4.14581 12.6968 4.17821C12.7359 4.12376 12.7744 4.06862 12.8136 4.01485C12.8535 4.07964 12.8941 4.14512 12.934 4.2106L12.9682 4.26643C13.1576 4.28091 13.3478 4.27471 13.5373 4.26299C13.3735 4.13548 13.1719 4.07965 12.9646 4.07551C13.0187 3.96592 13.0793 3.86046 13.142 3.75638C13.2374 3.74397 13.3329 3.73088 13.429 3.7233C13.5473 3.73915 13.6648 3.7619 13.7831 3.78326C13.8044 3.61577 13.7952 3.44621 13.8258 3.2801C13.8586 3.43105 13.8899 3.58269 13.9027 3.73777C13.9398 3.64128 13.9825 3.54685 14.0238 3.45242C14.026 3.48206 14.031 3.54271 14.0331 3.57235C14.3016 3.57511 14.5709 3.52617 14.8387 3.55787C14.9449 3.60268 15.0147 3.6978 15.098 3.77293C15.1401 3.7171 15.1814 3.66126 15.2241 3.60612C15.2369 3.6909 15.2505 3.77568 15.264 3.86115C15.306 3.71641 15.3502 3.57304 15.3915 3.42898L15.4058 3.37936C15.6223 3.34145 15.8374 3.29596 16.0533 3.25115C16.4059 3.17602 16.7912 3.1457 17.1132 3.33593C17.1424 3.29044 17.1716 3.24564 17.2015 3.20153C17.2308 3.25874 17.2607 3.31594 17.2913 3.37384C17.3262 3.2484 17.3625 3.12295 17.3989 2.99819C17.7287 2.95753 18.0642 2.9465 18.3919 3.01129C18.3327 3.02232 18.2138 3.04368 18.1546 3.05471C18.144 3.17809 18.1404 3.30216 18.1447 3.42623C18.3954 3.4538 18.6547 3.54754 18.9062 3.48826C18.9482 3.36902 18.9774 3.24564 19.0073 3.12364C18.9062 3.1002 18.805 3.07746 18.7039 3.05678C18.8029 3.0492 18.9019 3.04024 19.0009 3.03059C19.1847 2.44196 19.3001 1.83541 19.5074 1.25367C19.533 1.24471 19.5843 1.22679 19.6099 1.21783C19.6541 1.20267 19.7431 1.17303 19.7873 1.15786Z" fill="#FC2525"/>
<path d="M20.4284 1.88159C20.5552 1.87746 20.5602 2.09044 20.4726 2.14696C20.4355 2.06287 20.412 1.97257 20.4284 1.88159Z" fill="#FC2525"/>
<path d="M20.4882 2.21313C20.6165 2.21519 20.6371 2.42611 20.5459 2.49021C20.511 2.40129 20.4897 2.30824 20.4882 2.21313Z" fill="#FC2525"/>
<path d="M20.5595 2.55776C20.687 2.55224 20.7119 2.76591 20.6115 2.82037C20.5766 2.73628 20.5566 2.64805 20.5595 2.55776Z" fill="#FC2525"/>
<path d="M20.6279 2.87551C20.6656 2.94926 20.7105 3.01956 20.7618 3.08711C20.8038 3.09538 20.8886 3.11192 20.9306 3.1195C20.8636 3.23047 20.8067 3.34696 20.7582 3.46689C20.7076 3.27114 20.6685 3.07263 20.6279 2.87551Z" fill="#FC2525"/>
<path d="M23.5919 3.2353C23.7237 3.25736 23.9024 3.19601 23.9829 3.33318C24.0136 3.55374 23.9936 3.77706 23.9936 3.999C23.8284 4.0507 23.6617 4.09343 23.495 4.13754C23.4444 3.84943 23.4622 3.55236 23.5769 3.2801L23.5919 3.2353Z" fill="#FC2525"/>
<path d="M22.2199 3.5241C22.544 3.42967 22.8952 3.34696 23.2314 3.42898C23.4978 3.57717 23.49 3.9287 23.376 4.16856C23.349 3.99624 23.3354 3.82186 23.3141 3.64955C23.2991 3.81704 23.3084 3.98522 23.2977 4.15409C23.0099 4.28022 22.6986 4.34087 22.4065 4.45598C22.3417 4.48148 22.2776 4.50837 22.2135 4.53594C21.7683 4.35949 21.3523 4.08378 20.8601 4.04932C20.8537 4.23473 20.8494 4.42083 20.8451 4.60693H20.7974C20.7981 4.36155 20.8031 4.11618 20.7846 3.87218C21.14 3.704 21.5389 3.72881 21.9101 3.83289C21.9272 4.01003 21.9378 4.18786 21.967 4.36431C21.9905 4.19613 22.0055 4.02657 22.0247 3.85839L22.0596 3.86597C22.0725 4.05552 22.0832 4.24576 22.1116 4.43462C22.1266 4.20854 22.133 3.98246 22.1658 3.75845C22.1815 3.71503 22.1964 3.67229 22.2107 3.62956C22.2128 3.60337 22.2178 3.55029 22.2199 3.5241Z" fill="#FC2525"/>
<path d="M20.7746 3.77017C20.9085 3.78395 20.8928 3.61646 20.7867 3.59027C20.7839 3.63507 20.7774 3.72536 20.7746 3.77017Z" fill="#FC2525"/>
<path d="M20.0081 4.08998C20.1477 4.03691 20.2831 3.97419 20.4163 3.90733C20.385 3.98039 20.3579 4.05552 20.3301 4.12996C20.454 4.42497 20.4711 4.76684 20.2973 5.04668C20.1314 5.37132 20.2738 5.74835 20.1955 6.09298L20.1499 6.03577C20.1527 5.73525 20.1698 5.43474 20.1392 5.1356C20.0502 5.08597 19.9618 5.03703 19.8742 4.98672C19.9825 4.77373 20.0117 4.538 20.0259 4.30366C20.0601 4.25679 20.095 4.2113 20.1314 4.16649C20.1086 4.1534 20.063 4.1272 20.0402 4.11411L20.0081 4.08998Z" fill="#FC2525"/>
<path d="M15.42 4.60831C15.4464 4.54007 15.4749 4.47322 15.5062 4.40774C15.7983 4.44771 16.0924 4.47115 16.3881 4.47666C16.4287 4.54559 16.4671 4.61727 16.5006 4.69171C16.143 4.64002 15.7812 4.62485 15.42 4.60831Z" fill="#FC2525"/>
<path d="M21.9535 4.58901C21.9977 4.85024 22.0084 5.1163 21.9962 5.38097L21.915 5.37063C21.9364 5.11009 21.9357 4.84886 21.9535 4.58901Z" fill="#FC2525"/>
<path d="M16.5341 4.89504C16.9608 4.78545 17.4046 4.7565 17.8441 4.79648C17.8904 5.10871 17.958 5.45403 17.8377 5.75386C17.5093 5.89585 17.1495 5.95651 16.8112 6.07368C16.5911 6.14261 16.3738 6.2198 16.1473 6.26599C16.034 6.28873 15.9208 6.30872 15.8075 6.3294C15.5539 6.36593 15.3032 6.43485 15.0916 6.58029L15.0325 6.61406C14.9955 6.21153 14.8715 5.71458 15.2277 5.4113C15.2063 5.40027 15.1636 5.3789 15.1422 5.36788C15.1016 5.27138 14.9264 5.148 14.8758 5.30309C14.8658 5.32514 14.8452 5.36857 14.8352 5.39062C14.7696 5.32997 14.6913 5.3024 14.6008 5.3086C14.4099 5.30653 14.2183 5.30446 14.0281 5.31756C14.0687 5.20314 13.9127 5.08873 13.8173 5.17626C13.7923 5.18936 13.7425 5.21417 13.7168 5.22727L13.6556 5.22313C13.6349 5.15834 13.6121 5.09424 13.5879 5.03152C14.0545 5.05771 14.5182 5.11492 14.9855 5.1356C15.1572 5.14938 15.3288 5.16661 15.5019 5.17144C15.8481 5.08804 16.1858 4.97155 16.5341 4.89504Z" fill="#FC2525"/>
<path d="M12.4076 4.85989C12.6512 4.87368 12.867 5.0067 13.0365 5.17006C12.7452 5.16248 12.4553 5.13973 12.1668 5.1032C12.2366 5.0136 12.3093 4.92192 12.4076 4.85989Z" fill="#FC2525"/>
<path d="M17.9324 5.72354C17.9189 5.41613 17.8804 5.07632 18.0763 4.81095C18.1219 5.08804 18.1091 5.36926 18.092 5.64841C18.0521 5.66702 17.9723 5.70493 17.9324 5.72354Z" fill="#FC2525"/>
<path d="M14.7932 5.62773C14.8338 5.62497 14.9164 5.61808 14.957 5.61532C14.9741 5.92204 14.9734 6.23014 14.9627 6.53755C14.9235 6.56306 14.8459 6.61337 14.8074 6.63888C14.8117 6.30183 14.7946 5.96478 14.7932 5.62773Z" fill="#FC2525"/>
<path d="M12.6747 8.02016C12.9126 8.02912 12.5643 8.22418 12.6747 8.02016Z" fill="#FC2525"/>
<path d="M10.3596 8.88656C10.3895 8.79006 10.3553 8.75698 10.2556 8.78662C10.225 8.88242 10.2592 8.9162 10.3596 8.88656Z" fill="#FC2525"/>
<path d="M3.40085 11.137C3.48918 11.0708 3.38233 10.9123 3.2883 10.9833C3.19926 11.0481 3.30682 11.2066 3.40085 11.137Z" fill="#FC2525"/>
<path d="M19.9241 1.22265C20.0345 1.2323 20.1463 1.24333 20.2574 1.25436C20.2909 1.32122 20.3244 1.38877 20.3586 1.45631C20.4384 1.58452 20.4412 1.73616 20.4284 1.88159C20.412 1.97257 20.4355 2.06287 20.4726 2.14696L20.4882 2.21313C20.4897 2.30824 20.511 2.40129 20.5459 2.49021L20.5595 2.55776C20.5566 2.64805 20.5766 2.73628 20.6115 2.82037L20.6279 2.87551C20.6685 3.07263 20.7076 3.27114 20.7582 3.46689C20.7653 3.49791 20.7796 3.55925 20.7867 3.59027C20.7839 3.63507 20.7774 3.72536 20.7746 3.77017L20.7098 3.78257C20.6115 3.82324 20.511 3.85977 20.4163 3.90733C20.2831 3.97419 20.1477 4.03691 20.0081 4.08998C19.9647 4.08929 19.8771 4.08723 19.8336 4.08654C19.8001 4.08516 19.7332 4.0824 19.6997 4.08102C19.6783 3.93628 19.6655 3.79016 19.6819 3.64472C19.9255 3.68608 20.1705 3.71916 20.417 3.74328C20.38 3.56683 20.3415 3.39107 20.3037 3.21462C20.2852 3.12846 20.2674 3.04162 20.2496 2.95615C20.1435 2.44403 20.0217 1.93535 19.9134 1.42461C19.9155 1.3736 19.9212 1.27297 19.9241 1.22265Z" fill="#680805"/>
<path d="M14.5225 2.76453C14.3921 2.799 14.2482 2.83966 14.1777 2.96304C14.3294 3.0044 14.499 2.92306 14.5225 2.76453Z" fill="black"/>
<path d="M11.6995 9.20086C12.0421 9.1085 12.3727 8.92998 12.7402 8.96376C13.199 8.99753 13.6513 9.10368 14.1143 9.09816C14.1243 9.17191 14.1357 9.24635 14.1471 9.3201C13.6442 9.23188 13.0843 9.13263 12.617 9.39661C12.4603 9.45727 12.4304 9.6289 12.3748 9.76468C13.0066 9.84119 13.6363 9.93768 14.2682 10.0135C14.2838 10.0376 14.3145 10.0859 14.3301 10.1093C14.3465 10.2093 14.3608 10.3106 14.3928 10.4078C14.6977 10.5284 14.9264 10.7558 15.18 10.9502C15.5375 11.2163 16.0533 11.1832 16.3752 11.5023C16.1088 11.4761 15.8538 11.3886 15.5881 11.3583C15.3609 11.3259 15.1636 11.514 14.9363 11.4658C14.5303 11.3962 14.0986 11.1928 13.6976 11.3975C13.6712 11.4961 13.6435 11.5947 13.6164 11.6939C13.2951 11.6705 12.9425 11.6464 12.6811 11.8676C12.7545 12.0592 13.0622 11.9662 13.2161 12.0923C13.5145 12.3005 13.922 12.3342 14.1692 12.6093C13.9248 12.6038 13.6905 12.5348 13.4582 12.4666C13.2189 12.3956 12.9639 12.5004 12.7253 12.4239C12.4859 12.3763 12.2216 12.2088 11.9951 12.3777C11.7551 12.5417 11.4523 12.3811 11.198 12.4969C11.0762 12.5562 10.8967 12.6038 10.8639 12.7485C11.2963 12.9408 11.7401 13.1124 12.1696 13.3109C12.2615 13.3385 12.2744 13.4336 12.3228 13.5019C11.6518 13.517 11.1296 13.0345 10.5227 12.834C10.3974 12.8457 10.2848 12.9063 10.1708 12.9546C9.83676 13.1131 9.48344 13.2344 9.16432 13.4226C9.10092 13.5398 9.10021 13.7355 8.9378 13.7658C8.76399 13.7796 8.59089 13.7397 8.41708 13.7507C8.17631 13.7886 7.9619 13.9147 7.78097 14.0684C8.01818 14.2311 8.29385 14.3269 8.54174 14.4717C8.79319 14.6178 9.09878 14.7101 9.26048 14.9652C9.09736 15.0182 8.92141 15.01 8.76327 14.9452C8.29741 14.7556 7.89352 14.4565 7.46897 14.1973C7.2339 14.2849 6.9796 14.3634 6.72672 14.2966C4.96869 13.9519 3.2135 13.5942 1.45333 13.2599C1.0181 13.2241 0.789441 12.7485 0.33355 12.7664C0.396235 12.9036 0.4924 13.0214 0.607797 13.1214C0.830757 13.3199 1.01739 13.5673 1.29947 13.6928C1.60862 13.841 1.90424 14.0188 2.17564 14.2263C2.25613 14.2814 2.24402 14.3889 2.26967 14.4717C1.76676 14.4799 1.36073 14.1436 1.00457 13.8403C0.701825 13.5363 0.382701 13.2475 0.0820969 12.9422C-0.120205 12.7526 0.0934941 12.4673 0.270152 12.3432C0.704674 12.1544 1.15843 12.4018 1.56517 12.5452C1.8095 12.661 2.06238 12.5128 2.29673 12.4452C2.78254 12.2626 3.2826 12.1164 3.76556 11.9276L3.76698 11.8635C3.77197 11.6464 3.77197 11.4237 3.69219 11.217C4.1894 11.1129 4.63817 11.3927 5.11828 11.4423C5.54568 11.3651 5.96595 11.2128 6.34206 10.9998C6.26371 10.9199 6.18108 10.8434 6.11198 10.7558C6.01795 10.66 6.10913 10.5284 6.1134 10.4174C6.38266 10.4043 6.65762 10.3926 6.91976 10.4677C7.1413 10.5153 7.35998 10.6187 7.5922 10.5952C7.92914 10.5367 8.25966 10.4243 8.54744 10.241C8.44201 10.0859 8.2162 9.90184 8.36864 9.70472C8.86727 9.58961 9.35665 9.94802 9.86169 9.84119C10.096 9.79156 10.3119 9.6861 10.5277 9.58685C10.4323 9.47243 10.3375 9.35663 10.2357 9.24842C10.3653 9.32837 10.5085 9.39386 10.616 9.50276C10.683 9.60408 10.6773 9.73228 10.7001 9.84739C10.7428 10.252 10.8062 10.6538 10.8753 11.0543C10.5925 11.0391 10.3133 10.9847 10.054 10.8737C9.56322 10.6559 9.01402 10.7896 8.5047 10.8627C8.50185 10.9619 8.49971 11.0619 8.49829 11.1618C9.33813 11.3569 10.2036 11.4272 11.0506 11.5885C11.0662 11.6574 11.0791 11.7284 11.0926 11.7994C11.3854 11.9862 11.6489 12.2157 11.9659 12.3666C11.9908 11.9365 11.7066 11.5878 11.5627 11.2025C11.458 10.9481 11.4003 10.678 11.2892 10.4264C11.5086 10.4429 11.7259 10.4912 11.9239 10.5863C12.3093 10.7731 12.7431 10.8461 13.1712 10.8565C13.397 10.862 13.5858 10.7262 13.7688 10.618C13.4953 10.467 13.2673 10.2541 13.0045 10.0886C12.7801 10.0176 12.5401 10.0204 12.3064 10.0011C12.4289 10.0941 12.5522 10.1872 12.6733 10.283C12.107 10.2906 11.6439 9.81431 11.0755 9.92872C11.0342 9.67508 11.0085 9.42005 10.9743 9.1664C11.2116 9.20913 11.4602 9.27117 11.6995 9.20086ZM6.04003 11.7966C6.10129 11.9186 6.16469 12.0634 6.32995 12.0654C7.21752 12.2226 8.10793 12.3653 8.9955 12.5238C9.23056 12.5858 9.45139 12.4755 9.63374 12.3418C9.50837 12.2205 9.36875 12.1158 9.21632 12.0296C9.17429 11.8897 9.16218 11.7353 9.07812 11.6119C8.60158 11.4775 8.10223 11.4134 7.60645 11.3879C7.88711 11.5809 8.22404 11.676 8.50399 11.8704C8.40782 11.9131 8.30311 11.9648 8.1984 11.9145C7.81018 11.7952 7.47182 11.5664 7.09927 11.4148C6.72672 11.472 6.37839 11.6388 6.04003 11.7966ZM4.7443 12.2198C4.78776 12.2915 4.8483 12.3522 4.93093 12.3818C5.21943 12.5107 5.5065 12.6451 5.7722 12.8147C5.85198 12.8567 5.87264 12.9456 5.90896 13.0194C5.34622 13.0146 4.91954 12.621 4.45652 12.3708C4.12814 12.3859 3.83537 12.5665 3.52835 12.6665C3.23986 12.7926 2.90222 12.825 2.6586 13.0338C2.96419 13.1944 3.31679 13.2172 3.65088 13.2875C4.48145 13.4453 5.31061 13.6135 6.14332 13.7624C6.31642 13.8113 6.45675 13.6976 6.57143 13.5894C6.42184 13.3943 6.04431 13.2544 6.17965 12.9608C6.19675 12.7561 6.42825 12.6796 6.61061 12.692C7.04086 12.7154 7.42979 12.9098 7.83796 13.0187C8.0424 13.0766 8.23829 12.9766 8.40996 12.8801C8.32804 12.8098 8.2447 12.7457 8.13072 12.7368C7.40557 12.61 6.67971 12.4873 5.95455 12.357C5.55422 12.2915 5.15461 12.1737 4.7443 12.2198Z" fill="black" fill-opacity="0.21"/>
<path d="M14.5673 9.19259C15.1308 9.25049 15.6935 9.31459 16.2549 9.39041C16.2663 9.45038 16.2777 9.51034 16.289 9.571C16.527 9.70609 16.7407 9.87565 16.9672 10.0266C16.792 10.0638 16.6153 10.1079 16.4664 10.2093C16.8611 10.5015 17.438 10.4243 17.8099 10.7496C17.2742 10.751 16.7991 10.4726 16.2955 10.3347C16.1409 10.2906 15.9998 10.3892 15.8652 10.447C15.8453 10.5284 15.8396 10.6166 15.7954 10.691C15.6038 10.7338 15.3979 10.7 15.2063 10.7586C14.9776 10.243 14.7518 9.72608 14.5673 9.19259Z" fill="black" fill-opacity="0.21"/>
</svg>
