<svg width="17" height="12" viewBox="0 0 17 12" fill="none" xmlns="http://www.w3.org/2000/svg">
<path d="M8.86185 0.123057C8.87854 0.0658508 8.87766 -0.0137975 8.95981 0.00204416C8.95761 0.020086 8.95322 0.0561698 8.95102 0.0742116C8.915 0.128777 8.92994 0.150779 8.99495 0.139778C9.20844 0.100174 9.41271 0.189504 9.62136 0.215906C9.794 0.240989 9.96708 0.270912 10.1349 0.320637C10.2895 0.396325 10.4727 0.231308 10.6115 0.369042C10.673 0.527899 10.6954 0.701276 10.72 0.869374C10.6796 0.857933 10.6409 0.842091 10.6001 0.83417C10.4064 0.918659 10.1028 0.940661 9.97982 0.73076C10.0606 0.703037 10.1459 0.682795 10.2183 0.63439C10.2328 0.619428 10.2618 0.589065 10.2763 0.574104C10.1511 0.522618 10.0145 0.531859 9.88273 0.520858C9.57085 0.483894 9.24973 0.44913 8.93916 0.514697C8.92203 0.515577 8.88733 0.518218 8.87019 0.519098C8.77531 0.452651 8.65539 0.455291 8.55918 0.517337C8.48494 0.524818 8.41115 0.533179 8.33735 0.54066C8.28112 0.533179 8.15548 0.482574 8.14055 0.561782C8.19853 0.601386 8.27277 0.574103 8.33691 0.568383C8.6444 0.63483 8.98265 0.507657 9.26906 0.660793C9.3288 0.718439 9.41622 0.722399 9.48958 0.688075C9.58974 0.740441 9.63893 0.843852 9.64596 0.953423C9.29937 1.06608 8.94663 1.15892 8.59696 1.26189C8.30484 1.31558 7.99559 1.39479 7.7039 1.29534C7.56729 1.26013 7.44912 1.17169 7.37005 1.05551C7.61649 1.04627 7.84887 1.19457 8.09618 1.12152C8.11595 1.05287 8.12781 0.981146 8.15636 0.915579C8.22357 0.838131 8.30967 0.781805 8.38742 0.715798C8.19634 0.685875 7.96791 0.752322 7.81548 0.601826C7.68589 0.596545 7.55719 0.614147 7.4276 0.616348L7.37972 0.616788C7.3762 0.558702 7.37928 0.501496 7.38938 0.44473C7.41574 0.44033 7.46801 0.431969 7.49393 0.427568C7.51414 0.413047 7.55455 0.383564 7.57432 0.368602C7.64241 0.292474 7.65471 0.146379 7.7698 0.131858C7.74915 0.224267 7.71664 0.313596 7.68765 0.403805C8.07246 0.287193 8.46166 0.166621 8.86185 0.123057ZM10.3273 0.407326C10.3268 0.436809 10.3251 0.495775 10.3242 0.525698C10.405 0.551221 10.4534 0.474653 10.4476 0.402485C10.4178 0.403805 10.3576 0.406006 10.3273 0.407326Z" fill="#C35616"/>
<path d="M11.4237 0.549461C11.3635 0.518658 11.3183 0.392805 11.404 0.373443C11.4136 0.398966 11.433 0.449571 11.4426 0.475093C11.4378 0.493575 11.4281 0.530539 11.4237 0.549461Z" fill="#C35616"/>
<path d="M11.4242 0.822729C11.4198 0.753202 11.4299 0.683674 11.4343 0.614147C11.4505 0.694235 11.4668 0.774764 11.4905 0.853532C11.5182 0.864093 11.5735 0.886095 11.6008 0.897096C11.5946 1.03527 11.6038 1.17433 11.5907 1.31206C11.5674 1.33274 11.5204 1.37323 11.4967 1.39391C11.451 1.25925 11.4439 1.11624 11.422 0.977185C11.4637 0.986866 11.5059 0.996546 11.5485 1.00579C11.5063 0.945061 11.4598 0.887416 11.4242 0.822729Z" fill="#C35616"/>
<path d="M4.35 1.87752C4.32408 1.76311 4.34122 1.61613 4.46377 1.56597C4.45323 1.67862 4.43346 1.78995 4.41326 1.90128C4.39744 1.89512 4.36581 1.88368 4.35 1.87752Z" fill="#C35616"/>
<path d="M2.19577 2.33517C2.57223 2.20623 2.93771 2.42538 3.31242 2.43946C3.58961 2.45838 3.85054 2.34045 4.12465 2.32548C4.31881 2.30832 4.51605 2.31844 4.7045 2.37125C5.07174 2.47202 5.46094 2.47334 5.83609 2.42141C6.21782 2.33297 6.62679 2.32196 7.00325 2.44034C7.1961 2.49534 7.39773 2.50722 7.59672 2.51074C8.01535 2.5191 8.42345 2.33208 8.84252 2.40733C8.98177 2.49534 8.99363 2.6872 9.03273 2.83374C9.09379 3.03968 8.94136 3.30327 9.13816 3.46036C9.35472 3.4234 9.54669 3.30811 9.74788 3.22582C9.7716 3.21526 9.81904 3.19457 9.84276 3.18401C9.72372 3.39435 9.7 3.6399 9.65123 3.87269C9.4865 4.79018 9.58227 5.7244 9.65695 6.64585C9.51374 6.39107 9.5234 6.06059 9.33451 5.83529C8.84867 5.83617 8.36327 5.79657 7.88533 5.70548C7.52468 5.68655 7.16623 5.64211 6.80821 5.59414C6.46338 5.52022 6.10932 5.5233 5.7636 5.45157C5.43283 5.44013 5.11611 5.32572 4.78445 5.33232C4.55734 5.32528 4.34253 5.24255 4.11938 5.20954C3.83077 5.15146 3.53382 5.17214 3.24433 5.12065C2.96627 5.07753 2.69699 4.98292 2.41321 4.98028C2.11406 4.975 1.83512 4.83815 1.53421 4.84827C1.3976 4.86587 1.30579 4.7585 1.23155 4.66081C1.21047 4.24056 1.20871 3.8168 1.28734 3.40184L1.31721 3.38864C1.4222 3.36047 1.50303 3.29359 1.543 3.19193C1.73584 2.88918 1.9344 2.58291 2.19577 2.33517ZM3.56545 3.52417C3.53689 3.62318 3.52108 3.72615 3.51669 3.82912C3.51273 4.06058 3.45167 4.28941 3.48506 4.52087C3.5079 4.52087 3.55359 4.52043 3.57687 4.51999C3.59488 4.36334 3.61201 4.20668 3.64979 4.05354C3.75346 4.01614 3.77059 4.15519 3.78772 4.22648C3.80046 4.34749 3.63925 4.40074 3.65594 4.52043C3.72974 4.52395 3.83429 4.53495 3.84966 4.43726C3.92478 4.29645 3.88392 4.14419 3.82506 4.0069C3.91951 3.86388 3.97705 3.60074 3.77894 3.51801C3.75302 3.54309 3.7271 3.56817 3.70162 3.5937C3.68098 3.53341 3.62782 3.49733 3.56545 3.52417ZM4.04163 3.54133C4.04426 3.72747 3.9832 3.90789 3.99858 4.09403C4.01571 4.25245 3.95641 4.40558 3.96343 4.56356C4.01176 4.56708 4.06052 4.56708 4.10928 4.56488C4.09566 4.2432 4.14398 3.92725 4.17692 3.60866C4.24545 3.65882 4.256 3.75167 4.26127 3.83044C4.2683 3.93913 4.17034 4.02054 4.17341 4.12923C4.24457 4.11779 4.33375 4.09975 4.35615 4.01878C4.39349 3.90349 4.46334 3.76883 4.397 3.65178C4.33902 3.51317 4.16111 3.56509 4.04163 3.54133ZM4.93468 3.92065C4.97949 3.91933 5.0243 3.91317 5.06822 3.90261C5.106 3.83836 5.11786 3.72043 5.21934 3.74595C5.22373 3.80008 5.22285 3.8542 5.21626 3.90833C5.20396 3.97786 5.10205 3.98578 5.09282 4.05707C5.07613 4.16928 5.20792 4.24188 5.18903 4.35585C5.1776 4.45619 5.15081 4.55476 5.14378 4.65597C5.26941 4.65377 5.28655 4.50107 5.31861 4.40866C5.35859 4.30173 5.29709 4.19788 5.27864 4.09403C5.33531 3.96642 5.44249 3.83352 5.37221 3.68831C5.36869 3.61042 5.22505 3.51801 5.20923 3.6355C5.18332 3.61042 5.1574 3.58577 5.13192 3.56113C4.98871 3.62142 4.92897 3.77368 4.93468 3.92065ZM4.48837 4.01658C4.43654 4.0399 4.43654 4.10855 4.46114 4.15211C4.57491 4.18644 4.69659 4.18072 4.813 4.16443C4.83409 4.11427 4.8499 4.06235 4.8622 4.00998C4.73789 4.00206 4.61181 3.99722 4.48837 4.01658ZM4.92458 4.31933C4.91404 4.44827 4.91448 4.63924 5.08272 4.65685C5.07394 4.54507 5.0568 4.43374 5.03089 4.32461C5.00453 4.32329 4.95138 4.32065 4.92458 4.31933Z" fill="#C35616"/>
<path d="M3.63617 3.95981C3.65594 3.8586 3.62826 3.6575 3.77015 3.65574C3.77762 3.73979 3.77894 3.82428 3.76971 3.90877C3.72666 3.92901 3.68186 3.94617 3.63617 3.95981Z" fill="#C35616"/>
<path d="M1.39584 5.61615C1.53993 5.5915 1.68225 5.53386 1.83029 5.54706C1.98184 5.61219 1.92122 5.79921 1.93791 5.92814C2.06179 5.91142 2.18742 5.86873 2.31306 5.89998C2.35479 5.97962 2.38378 6.06543 2.40135 6.15344C2.1558 6.20713 1.90541 6.23925 1.66073 6.2969L1.62031 6.3035C1.56496 6.30922 1.51049 6.31978 1.45778 6.33826C1.27943 6.38623 1.0163 6.50504 0.903847 6.28634C0.913951 6.20361 0.947336 6.12748 1.0286 6.09404C1.03783 6.01351 1.02157 5.93298 1.00664 5.85465C1.0062 5.78072 0.915708 5.75784 0.916587 5.68391C1.07868 5.67951 1.2377 5.64827 1.39584 5.61615ZM1.04486 6.16444C1.03256 6.24893 1.05979 6.3453 1.13579 6.39239C1.1415 6.31406 1.14194 6.23573 1.13579 6.15784C1.11338 6.1596 1.0677 6.16268 1.04486 6.16444Z" fill="#C35616"/>
<path d="M2.02357 6.85664C2.37368 6.80163 2.71368 6.65729 3.07301 6.6881C3.29353 6.7035 3.51054 6.76643 3.70426 6.8738C3.44508 6.96357 3.1657 6.93672 2.90213 7.00273C2.83404 7.01197 2.79583 7.0727 2.75058 7.11714C2.42507 6.97017 2.06135 6.89932 1.70553 6.95257C1.77845 6.87424 1.92254 6.89404 2.02357 6.85664Z" fill="#C35616"/>
<path d="M11.4286 6.76599C11.4475 6.76863 11.4852 6.77391 11.5041 6.77699C11.6328 7.0969 11.7282 7.43354 11.7176 7.78161C11.7202 7.8441 11.726 7.90746 11.7207 7.97039C11.664 7.99723 11.6166 8.03816 11.5907 8.09668C11.5573 8.07028 11.5234 8.04476 11.4892 8.02056C11.4439 8.17897 11.3846 8.33563 11.378 8.50197C11.3192 8.53321 11.2581 8.56093 11.1971 8.58689C11.0798 8.60626 10.9599 8.62166 10.8421 8.59878C10.9234 8.57677 11.0315 8.58513 11.082 8.50461C11.2212 8.3035 11.2164 8.04828 11.2792 7.82034C11.3266 7.65576 11.5208 7.62408 11.6218 7.50702C11.6341 7.24608 11.469 7.01901 11.4286 6.76599Z" fill="#C35616"/>
<path d="M12.59 7.23199C12.5386 7.07886 12.5421 6.91736 12.5918 6.76423C12.6111 6.91912 12.6111 7.07666 12.59 7.23199Z" fill="#C35616"/>
<path d="M4.21646 7.22231C4.44708 7.20911 4.66101 7.1189 4.88329 7.06698C4.93117 7.05025 4.97598 7.07578 4.9975 7.11934C4.77874 7.20867 4.5468 7.25576 4.31706 7.30592L4.32145 7.33364C4.3254 7.36093 4.33331 7.41593 4.33682 7.44321C4.26566 7.42209 4.1945 7.36753 4.11762 7.39393C3.95509 7.43925 3.79168 7.48106 3.63134 7.53386C3.63134 7.57479 3.63134 7.61571 3.63178 7.65708C3.54656 7.61835 3.45958 7.58403 3.36777 7.56423C3.3726 7.53562 3.38183 7.47754 3.38622 7.4485C3.6555 7.35125 3.93971 7.29536 4.21646 7.22231Z" fill="#C35616"/>
<path d="M0.760203 7.62231L0.789635 7.62055C0.970618 7.69272 1.14633 7.77897 1.3115 7.88326C1.22013 8.01308 1.19553 8.22562 1.01762 8.26566C0.842787 8.32287 0.666636 8.37699 0.486531 8.41616C0.515085 8.26082 0.553302 8.10725 0.605137 7.95807C0.649943 7.84322 0.703536 7.73145 0.760203 7.62231Z" fill="#C35616"/>
<path d="M6.2165 8.05092C6.40012 8.00207 6.58594 8.05708 6.76956 8.07512C6.87498 8.09008 6.9892 8.0914 7.07925 8.15741C6.93516 8.22386 6.7823 8.16357 6.63514 8.14685C6.49281 8.12837 6.34697 8.11649 6.2165 8.05092Z" fill="#C35616"/>
<path d="M12.5957 8.09096C12.7271 8.13013 12.8145 8.01396 12.9349 8.00867C12.9625 8.14377 13.1422 8.24674 13.0438 8.39284C12.9915 8.39196 12.9392 8.39239 12.8874 8.39327C12.8141 8.47952 12.8329 8.60538 12.8061 8.70967C12.6274 8.58469 12.6581 8.35323 12.605 8.16665C12.5342 8.24322 12.4951 8.34575 12.5123 8.45048C12.5377 8.64762 12.4877 8.86236 12.6093 9.03662C12.5843 9.07402 12.5606 9.11231 12.5382 9.15191C12.6023 9.18624 12.6713 9.21088 12.7438 9.22232C13.6425 9.34113 14.536 9.49471 15.4357 9.60868C15.5332 9.61924 15.6303 9.63904 15.726 9.66193C15.6729 9.88107 15.6448 10.1055 15.6391 10.3308C15.4511 10.3576 15.2683 10.296 15.0838 10.2723C14.9758 10.2538 14.8642 10.2498 14.7609 10.2098C14.5931 10.1385 14.4104 10.1209 14.2299 10.1196C14.0019 10.1095 13.7778 10.0672 13.5534 10.0294C13.6504 9.96116 13.7484 9.89471 13.8538 9.84014C13.9465 9.81638 14.0225 9.75742 14.0049 9.65136C13.8881 9.60868 13.7585 9.5726 13.6364 9.6166C13.6065 9.67381 13.6342 9.73101 13.6535 9.7869C13.6566 9.84367 13.6021 9.87447 13.5626 9.82914C13.5437 9.76754 13.531 9.70461 13.5143 9.643C13.4659 9.63596 13.4176 9.63068 13.3697 9.62716C13.0917 9.55279 12.8031 9.53915 12.5211 9.48723C12.514 9.39922 12.5386 9.31385 12.5461 9.22716C12.5329 9.21792 12.5066 9.19944 12.4938 9.1902C12.1955 9.08063 11.8582 9.13871 11.5678 9.0067C11.6671 9.02078 11.7672 9.01858 11.8639 8.98954C12.0352 9.00054 12.2052 9.0551 12.3778 9.02694C12.4068 8.77875 12.4354 8.53057 12.4345 8.28062C12.4288 8.18117 12.5281 8.13893 12.5957 8.09096ZM12.8773 8.24454C12.8097 8.2551 12.811 8.38227 12.8909 8.35147C12.9616 8.34179 12.9542 8.22122 12.8773 8.24454Z" fill="#C35616"/>
<path d="M4.43917 8.36863C4.50726 8.34619 4.57535 8.32463 4.64432 8.30571C4.72646 8.32199 4.80773 8.34179 4.88768 8.36599C4.766 8.42364 4.64388 8.4804 4.51956 8.53145C4.49365 8.47644 4.46597 8.42276 4.43917 8.36863Z" fill="#C35616"/>
<path d="M1.84698 8.6727C1.95021 8.52661 2.09518 8.38183 2.28582 8.37787C2.44572 8.36115 2.65306 8.35983 2.76156 8.49405C2.57707 8.4782 2.38071 8.41 2.2028 8.49316C2.12197 8.52265 2.00644 8.59658 2.07453 8.69471C2.13735 8.69162 2.19709 8.66038 2.25991 8.6661C2.41892 8.72639 2.55422 8.83376 2.69304 8.93013C2.64296 8.98206 2.4567 9.05598 2.57399 9.13035C2.54061 9.16952 2.50546 9.2078 2.4712 9.24652C2.5573 9.33805 2.62626 9.44278 2.66448 9.56424C2.81647 9.5902 2.97198 9.56952 3.12133 9.53871C3.15867 9.67293 3.22369 9.81902 3.16482 9.95764C3.13803 10.0324 3.07916 10.157 3.20392 10.1741C3.34361 9.95984 3.3502 9.69757 3.36469 9.45114C3.48198 9.65313 3.3849 9.87799 3.3357 10.0844C3.24653 10.2974 3.06555 10.5271 2.8112 10.5191C2.50502 10.564 2.21642 10.3805 2.03719 10.1451C1.99063 10.0813 1.92254 10.021 1.93308 9.93431C1.93879 9.86831 1.91156 9.80538 1.85313 9.77282C1.78504 9.73497 1.77714 9.65401 1.75561 9.58712C1.66644 9.28701 1.68489 8.94509 1.84698 8.6727ZM1.85577 9.38734C1.84259 9.53871 1.91024 9.68129 1.97218 9.81506C2.07409 10.0272 2.23135 10.23 2.45099 10.3264C2.59332 10.2938 2.51337 10.1345 2.48438 10.0434C2.58541 9.9462 2.72379 9.92683 2.85381 9.89515C2.85689 9.81946 2.85118 9.74377 2.83976 9.66941C2.75717 9.69273 2.6803 9.73145 2.60386 9.77018C2.62934 9.72661 2.65482 9.68349 2.67942 9.63948C2.61177 9.62936 2.54368 9.62452 2.47735 9.61088C2.40794 9.57832 2.39476 9.49075 2.35479 9.43222C2.28626 9.45378 2.21642 9.47095 2.14569 9.48503C2.10001 9.36445 1.96207 9.27997 1.85577 9.38734ZM2.81999 10.1341C2.84195 10.1557 2.84195 10.1557 2.81999 10.1341Z" fill="#C35616"/>
<path d="M13.1308 8.49536C13.2437 8.54333 13.3579 8.58865 13.4734 8.63002C13.4352 8.69294 13.3943 8.75455 13.3438 8.80824C13.2428 8.75851 13.1308 8.71935 13.0543 8.6331C13.0781 8.58601 13.1044 8.54069 13.1308 8.49536Z" fill="#C35616"/>
<path d="M11.0218 8.73211C11.0855 8.72683 11.1553 8.72903 11.2076 8.77215C11.2116 8.81088 11.2164 8.8496 11.2208 8.88877C11.3086 8.93101 11.4053 8.94817 11.4945 8.9869C11.5849 9.09295 11.6319 9.2276 11.6961 9.34993C11.5599 9.32969 11.422 9.32793 11.2849 9.32661C11.1918 9.29581 11.0969 9.27249 11.0011 9.25357C10.9642 9.177 10.9726 9.08855 10.9541 9.00758C10.9414 8.9979 10.9159 8.97898 10.9032 8.96929C10.8219 8.90901 10.7156 8.92749 10.622 8.91253C10.7398 8.84564 10.8733 8.87688 11.0003 8.88569C11.0073 8.8342 11.0143 8.78316 11.0218 8.73211Z" fill="#C35616"/>
<path d="M10.3251 9.18668C10.438 8.97897 10.6967 8.99878 10.897 9.0199C10.8896 9.08503 10.8821 9.15059 10.8689 9.21528C10.8144 9.2298 10.7595 9.243 10.7042 9.25488C10.7604 9.27293 10.8153 9.29449 10.8689 9.32001C10.8966 9.42166 10.8896 9.52903 10.8948 9.63376C10.7165 9.56996 10.5263 9.54619 10.3378 9.54575C10.2899 9.52727 10.2434 9.50791 10.1973 9.48723C10.1696 9.39306 10.2249 9.29537 10.2421 9.20296C10.2627 9.199 10.3044 9.19064 10.3251 9.18668ZM10.4235 9.21044C10.445 9.2474 10.4837 9.26148 10.5403 9.25268C10.5623 9.25752 10.7125 9.23816 10.6352 9.20296C10.5667 9.18976 10.4863 9.17347 10.4235 9.21044Z" fill="#C35616"/>
<path d="M12.8233 9.04366C12.847 9.03882 12.8953 9.0287 12.919 9.02386C13.3003 9.02826 13.6711 9.14795 14.0528 9.15059C14.0669 9.15939 14.0954 9.177 14.1095 9.1858C13.9623 9.17964 13.8196 9.21396 13.6808 9.2584C13.5305 9.31165 13.3728 9.26456 13.2208 9.24608C13.0425 9.21836 12.8575 9.22144 12.6875 9.15455C12.7315 9.11627 12.7758 9.07842 12.8233 9.04366Z" fill="#C35616"/>
<path d="M11.7866 9.20956C12.0097 9.2254 12.2254 9.29141 12.4411 9.34817C12.4314 9.37326 12.4126 9.42386 12.4029 9.44894C12.1863 9.44938 11.9724 9.40142 11.7598 9.36313C11.7672 9.31121 11.7765 9.26016 11.7866 9.20956Z" fill="#C35616"/>
<path d="M10.9774 9.34597C11.0793 9.33409 11.1821 9.32881 11.2849 9.32661C11.3961 9.41506 11.5555 9.35742 11.6688 9.43926C11.6873 9.53387 11.6838 9.63024 11.6829 9.72617C11.4914 9.71473 11.3034 9.67381 11.1127 9.65621C11.0613 9.63728 11.0126 9.6144 10.9656 9.58712C10.9563 9.50659 10.9603 9.42518 10.9774 9.34597Z" fill="#C35616"/>
<path d="M11.7655 9.43354C11.9812 9.46259 12.1973 9.49427 12.4121 9.53079C12.4279 9.63948 12.4209 9.7495 12.4183 9.85907C12.2351 9.8265 12.0528 9.7847 11.8661 9.78074C11.7044 9.74818 11.7607 9.55104 11.7655 9.43354Z" fill="#C35616"/>
<path d="M12.5189 9.55983C12.8053 9.54971 13.0825 9.68349 13.3697 9.62716C13.2872 9.74906 13.212 9.88415 13.0803 9.95984C12.9265 9.93299 12.7719 9.89779 12.6146 9.90835C12.4596 9.86435 12.4916 9.67953 12.5189 9.55983Z" fill="#C35616"/>
<path d="M14.2307 10.3026C14.2479 10.3013 14.2817 10.2991 14.2984 10.2978C14.3181 10.3568 14.3388 10.4162 14.3634 10.4743C14.4288 10.447 14.4741 10.3906 14.5189 10.3383C14.558 10.3326 14.5975 10.3282 14.6375 10.326C14.6533 10.3414 14.6845 10.3722 14.6999 10.3876C14.7227 10.4426 14.7421 10.4989 14.7614 10.5557C14.7034 10.4989 14.6419 10.4461 14.5782 10.3968C14.7012 10.7 14.8668 10.9843 15.0061 11.2809C15.1313 11.5044 15.2094 11.7504 15.3333 11.9748C15.1734 11.9286 15.0025 11.9158 14.851 11.8428C14.8593 11.8226 14.8756 11.7825 14.8839 11.7623C14.9059 11.7451 14.9498 11.7108 14.9718 11.6936C14.9476 11.5537 14.8642 11.4349 14.8018 11.3108C14.7271 11.1427 14.6467 10.9768 14.5523 10.8192C14.5268 10.7554 14.5053 10.6908 14.4719 10.6313C14.3972 10.5851 14.3032 10.5667 14.2426 10.502C14.232 10.4355 14.232 10.3686 14.2307 10.3026Z" fill="#C35616"/>
<path d="M7.20225 0.0926932L7.2431 0.0957732C7.24925 0.118216 7.26111 0.163101 7.26726 0.185543C7.29406 0.225147 7.32085 0.264751 7.34809 0.304355C7.43814 0.346159 7.45308 0.241429 7.51853 0.224707C7.51677 0.249349 7.5137 0.298635 7.51194 0.323277C7.50755 0.34924 7.49832 0.401606 7.49393 0.427568C7.46801 0.431969 7.41574 0.44033 7.38938 0.44473C7.25672 0.383564 7.17369 0.238348 7.20225 0.0926932Z" fill="#2F2D2C"/>
<path d="M11.3346 0.307876C11.436 0.284113 11.5256 0.35232 11.5388 0.454851C11.5397 0.457051 11.5419 0.461892 11.5432 0.464092C11.5608 0.492695 11.5964 0.549901 11.6139 0.578503C11.6179 0.583784 11.6258 0.594346 11.6298 0.599626C11.6864 0.659032 11.7325 0.726359 11.7602 0.804247C11.7611 0.806447 11.7629 0.810848 11.7637 0.812608C11.7681 0.82757 11.7774 0.856613 11.7817 0.871134C11.7352 1.05067 11.7233 1.23945 11.6539 1.41283C11.6491 1.24341 11.6522 1.07355 11.6504 0.904137C11.664 0.733839 11.5142 0.615028 11.4426 0.475093C11.433 0.449571 11.4136 0.398966 11.404 0.373443C11.3183 0.392805 11.3635 0.518658 11.4237 0.549461C11.4264 0.565743 11.4316 0.597865 11.4343 0.614147C11.4299 0.683674 11.4198 0.753202 11.4242 0.822729C11.4598 0.887416 11.5063 0.945061 11.5485 1.00579C11.5059 0.996546 11.4637 0.986866 11.422 0.977185C11.4075 0.92878 11.3934 0.880375 11.3794 0.83241C11.3451 0.659912 11.3091 0.483894 11.3346 0.307876Z" fill="#2F2D2C"/>
<path d="M10.3273 0.407326C10.3576 0.406006 10.4178 0.403805 10.4476 0.402485C10.4534 0.474653 10.405 0.551221 10.3242 0.525698C10.3251 0.495775 10.3268 0.436809 10.3273 0.407326Z" fill="#2F2D2C"/>
<path d="M3.32648 0.652871C3.3748 0.559581 3.51976 0.460131 3.59224 0.584224C3.60366 0.712717 3.59093 0.844731 3.63397 0.969264C3.61377 0.969264 3.57335 0.969703 3.55315 0.970143C3.52635 0.852651 3.51405 0.732959 3.49824 0.613707C3.34493 0.690275 3.30012 0.883015 3.19777 1.01151C3.17844 1.01371 3.13934 1.01855 3.11958 1.02119C3.13012 0.875974 3.25927 0.775204 3.32648 0.652871Z" fill="#2F2D2C"/>
<path d="M9.98069 0.620308C10.1116 0.552101 9.98772 0.766843 9.98069 0.620308Z" fill="#2F2D2C"/>
<path d="M9.26906 0.660793C9.34198 0.63879 9.43072 0.627789 9.48958 0.688075C9.41622 0.722399 9.3288 0.718439 9.26906 0.660793Z" fill="#2F2D2C"/>
<path d="M2.48306 1.61481C2.55993 1.50524 2.70314 1.57961 2.81032 1.57829C3.1042 1.59545 3.38886 1.71118 3.68537 1.6729C4.05612 1.62625 4.42775 1.49644 4.80422 1.56597C5.13192 1.60601 5.45655 1.7213 5.7904 1.6685C6.05133 1.62801 6.31139 1.58357 6.57276 1.54352C6.55079 1.64077 6.51917 1.7367 6.50862 1.83659C6.53059 1.93032 6.56178 2.02185 6.58374 2.11602C6.36674 2.19743 6.12996 2.18687 5.90549 2.2366C5.47017 2.32768 5.04758 2.13803 4.61577 2.11602C4.50331 2.10634 4.46421 1.98313 4.41326 1.90128C4.43346 1.78995 4.45323 1.67862 4.46377 1.56597C4.34122 1.61613 4.32408 1.76311 4.35 1.87752C4.38734 1.95849 4.43434 2.03462 4.47476 2.11382C4.03592 2.17587 3.58741 2.28764 3.14593 2.17763C2.99262 2.12922 2.83009 2.14331 2.67415 2.1103C2.48394 2.05266 2.34117 2.24276 2.19577 2.33517C1.9344 2.58291 1.73584 2.88918 1.543 3.19193C1.48458 3.15541 1.42571 3.11933 1.36861 3.0806C1.28251 3.0146 1.19685 2.94815 1.10679 2.8883C1.35191 2.45046 1.66556 2.03637 2.0574 1.7213C2.17205 1.67466 2.28582 1.62625 2.40223 1.58489C2.39564 1.70634 2.35699 1.8388 2.43562 1.94617C2.45231 1.83704 2.42551 1.71338 2.48306 1.61481Z" fill="#070707"/>
<path d="M6.56924 1.84627C6.58286 1.73758 6.59428 1.57213 6.72563 1.54616C7.08013 1.52636 7.41706 1.67862 7.77024 1.68126C8.16866 1.7059 8.5504 1.56069 8.94575 1.5422C8.93872 1.64473 8.92247 1.74638 8.91412 1.84891C8.89875 1.96113 8.95849 2.06146 8.99715 2.16267C8.60223 2.17543 8.21786 2.29292 7.82251 2.29248C7.42892 2.25288 7.04059 2.16839 6.65359 2.09446C6.61976 2.01349 6.59472 1.92944 6.56924 1.84627Z" fill="#070707"/>
<path d="M9.06084 1.5488C9.31167 1.51404 9.56601 1.63945 9.70922 1.84451C9.86516 2.10238 9.90733 2.40953 9.94379 2.70392C9.96312 2.87114 10.0176 3.0806 9.84276 3.18401C9.81904 3.19457 9.7716 3.21526 9.74788 3.22582C9.60599 3.22978 9.42984 3.20822 9.3556 3.0696C9.32661 2.81174 9.34418 2.54463 9.24973 2.29732C9.22733 2.18423 9.09423 2.16399 9.03492 2.0795C9.00813 2.00469 8.9989 1.92548 8.98573 1.84803C8.99583 1.7455 8.99407 1.63373 9.06084 1.5488Z" fill="#070707"/>
<path d="M12.5088 1.85112C12.6511 1.9092 12.7157 2.05882 12.8145 2.16663C12.9432 2.3092 13.0306 2.4817 13.1321 2.64364C13.0574 2.76641 12.9366 2.8839 12.7877 2.90062C12.7249 2.54375 12.6445 2.18819 12.5088 1.85112Z" fill="#070707"/>
<path d="M0.81072 5.9123C0.832684 5.83309 0.9447 5.86257 1.00664 5.85465C1.02157 5.93298 1.03783 6.01351 1.0286 6.09404C0.947336 6.12748 0.913951 6.20361 0.903847 6.28634C0.89023 6.28546 0.862995 6.28282 0.849377 6.2815C0.834881 6.15872 0.815991 6.03595 0.81072 5.9123Z" fill="#2F2D2C"/>
<path d="M1.62031 6.3035C1.56496 6.30922 1.51049 6.31978 1.45778 6.33826C1.46173 6.42979 1.64931 6.39019 1.62031 6.3035Z" fill="#2F2D2C"/>
<path d="M12.5109 6.81043C12.5408 6.7233 12.5703 6.63617 12.594 6.54728C12.6019 6.61901 12.612 6.69294 12.5918 6.76423C12.5421 6.91736 12.5386 7.07886 12.59 7.23199C12.6071 7.29888 12.6093 7.36797 12.605 7.43662C12.5847 7.43706 12.5439 7.43706 12.5237 7.43706C12.5162 7.37061 12.5131 7.30372 12.5022 7.23815C12.4657 7.21615 12.4297 7.19371 12.3937 7.17215L12.3972 7.14178C12.4244 7.13474 12.4784 7.1211 12.5057 7.11406C12.518 7.01285 12.5123 6.9112 12.5109 6.81043Z" fill="#2F2D2C"/>
<path d="M11.7624 6.74442C11.8406 6.71494 11.9166 6.62341 12.0053 6.67226C12.1033 6.71142 12.1885 6.78051 12.2527 6.86412C12.3431 7.03221 12.1903 7.29052 12.362 7.41769C12.3721 7.4419 12.3928 7.48942 12.4029 7.51362C12.4736 7.53255 12.5566 7.51274 12.6199 7.55411C12.6959 7.59151 12.6032 7.66104 12.5544 7.65356C12.4934 7.67204 12.3682 7.63288 12.3932 7.73585C12.4477 7.74025 12.5026 7.74377 12.558 7.74597C12.5795 7.74729 12.6234 7.74949 12.6449 7.75081C12.652 7.8639 12.6643 7.99371 12.5957 8.09096C12.5281 8.13893 12.4288 8.18117 12.4345 8.28062C12.4354 8.53057 12.4068 8.77875 12.3778 9.02694C12.2052 9.0551 12.0352 9.00054 11.8639 8.98954C11.8463 8.97413 11.8112 8.94289 11.7936 8.92749C11.7923 8.90813 11.7892 8.86896 11.7879 8.8496L11.7857 8.821C11.7137 8.78844 11.6368 8.76908 11.5639 8.73915C11.5072 8.63662 11.5423 8.51341 11.5428 8.40252C11.5524 8.29955 11.5691 8.19745 11.5907 8.09668C11.6166 8.03816 11.664 7.99723 11.7207 7.97039C11.726 7.90746 11.7202 7.8441 11.7176 7.78161C11.8555 7.76929 11.993 7.75125 12.1275 7.71605C12.2048 7.71429 12.2281 7.63024 12.2118 7.56731C12.2109 7.33629 12.2447 7.1035 12.2105 6.87336C11.9763 6.83331 11.74 6.80647 11.5041 6.77699C11.4852 6.77391 11.4475 6.76863 11.4286 6.76599L11.4207 6.72814C11.5344 6.7321 11.6482 6.75411 11.7624 6.74442ZM11.9131 8.021C11.9355 8.04344 11.9355 8.04344 11.9131 8.021Z" fill="#070707"/>
<path d="M1.05276 7.09822C1.1393 7.0639 1.23155 7.04321 1.32512 7.04938C1.24605 7.10174 1.17181 7.16027 1.10152 7.22407C1.06858 7.18843 1.05232 7.14662 1.05276 7.09822Z" fill="#2F2D2C"/>
<path d="M2.47032 7.2694C2.62802 7.24607 2.78836 7.23991 2.94782 7.24475C3.09629 7.3398 3.22984 7.4551 3.36777 7.56423C3.51098 7.74993 3.67571 7.91934 3.79826 8.12045C3.87514 8.2397 3.93268 8.36995 4.00956 8.4892C4.15979 8.48128 4.29641 8.40956 4.43917 8.36863C4.46597 8.42276 4.49365 8.47644 4.51956 8.53145C4.6061 8.74619 4.63553 8.97765 4.70801 9.1968C4.76512 9.42166 4.74667 9.65664 4.72866 9.88591C4.70011 10.1975 4.56129 10.4826 4.39129 10.74C4.33287 10.8267 4.25731 10.9011 4.17297 10.9623C3.76576 11.2826 3.24477 11.4828 2.72203 11.4375C2.60606 11.4142 2.49097 11.3838 2.38071 11.3425C1.66732 10.9983 1.20519 10.2718 1.03695 9.51363C0.855966 9.53431 0.685525 9.60208 0.520355 9.67513L0.48697 9.68613C0.480381 9.62716 0.474231 9.5682 0.46896 9.50923C0.458856 9.4067 0.443042 9.30461 0.432939 9.20252C0.428985 9.12771 0.431182 9.05334 0.43206 8.97941C0.431621 8.79019 0.443482 8.60054 0.486531 8.41616C0.666636 8.37699 0.842787 8.32287 1.01762 8.26566C1.19553 8.22562 1.22013 8.01308 1.3115 7.88326C1.43626 7.75785 1.56101 7.63111 1.70597 7.52858C1.95505 7.42561 2.20587 7.32616 2.47032 7.2694ZM1.84698 8.6727C1.68489 8.94509 1.66644 9.28701 1.75561 9.58712C1.77714 9.65401 1.78504 9.73497 1.85313 9.77282C1.81008 9.8243 1.8628 9.95016 1.93308 9.93431C1.92254 10.021 1.99063 10.0813 2.03719 10.1451C2.21642 10.3805 2.50502 10.564 2.8112 10.5191C3.06555 10.5271 3.24653 10.2974 3.3357 10.0844C3.3849 9.87799 3.48198 9.65313 3.36469 9.45114C3.37172 9.3671 3.36382 9.28173 3.32911 9.20472C3.23906 8.98822 3.12177 8.77875 2.95177 8.61506C2.89642 8.56313 2.84459 8.49317 2.76156 8.49405C2.65306 8.35983 2.44572 8.36115 2.28582 8.37787C2.09518 8.38183 1.95021 8.52661 1.84698 8.6727Z" fill="#070707"/>
<path d="M4.96104 7.89646C5.00365 7.91055 5.0467 7.92419 5.08887 7.93959C5.13983 7.92639 5.18903 7.90791 5.2391 7.89074C5.56461 7.94223 5.90373 7.93519 6.2165 8.05092C6.34697 8.11649 6.49281 8.12837 6.63514 8.14685C6.7823 8.16357 6.93516 8.22386 7.07925 8.15741C7.15261 8.20318 7.2286 8.2617 7.32041 8.23002C7.54972 8.18073 7.78385 8.2287 8.00218 8.30131C8.39314 8.25158 8.77707 8.38095 9.16627 8.41C9.16144 8.42892 9.15221 8.46676 9.14782 8.48568C9.53439 8.51385 9.91348 8.6133 10.3014 8.62606C10.2886 8.68371 10.2706 8.74047 10.2509 8.79636C10.1125 8.80472 9.97674 8.77039 9.84056 8.75235C9.01999 8.63398 8.19985 8.51649 7.37928 8.399C6.88069 8.32991 6.38387 8.2441 5.88089 8.2111C5.81193 8.20626 5.7188 8.2441 5.72583 8.32683C5.71265 8.49669 5.72187 8.66742 5.71221 8.83772C5.70738 8.85928 5.69771 8.90241 5.69332 8.92353C5.62172 8.92969 5.54967 8.93013 5.47807 8.93277C5.52156 8.91473 5.56329 8.89273 5.60327 8.8672C5.62304 8.65994 5.61864 8.45004 5.59844 8.24278C5.38626 8.16005 5.15652 8.14377 4.93512 8.09845C4.91931 8.07864 4.88812 8.03904 4.87231 8.01924C4.89998 7.97699 4.92897 7.93563 4.96104 7.89646Z" fill="#2F2D2C"/>
<path d="M12.8909 8.35147C12.9616 8.34179 12.9542 8.22122 12.8773 8.24454C12.8097 8.2551 12.811 8.38227 12.8909 8.35147Z" fill="#2F2D2C"/>
<path d="M13.5806 8.22782C13.7067 8.22034 13.7212 8.35411 13.7075 8.45004C13.6865 8.55609 13.65 8.65818 13.603 8.75499C13.5635 8.799 13.5235 8.84212 13.4831 8.88525C13.4365 8.91209 13.3882 8.93629 13.3399 8.95961C13.2977 8.94597 13.2604 8.92221 13.2248 8.89757C13.2652 8.86852 13.3052 8.83948 13.3438 8.80824C13.3943 8.75455 13.4352 8.69294 13.4734 8.63002C13.5375 8.50813 13.6381 8.37083 13.5806 8.22782Z" fill="#070707"/>
<path d="M10.9032 8.96929C10.9159 8.97898 10.9414 8.9979 10.9541 9.00758C10.9726 9.08855 10.9642 9.177 11.0011 9.25357C11.0969 9.27249 11.1918 9.29581 11.2849 9.32661C11.1821 9.32881 11.0793 9.33409 10.9774 9.34597C10.9603 9.42518 10.9563 9.50659 10.9656 9.58712C11.0126 9.6144 11.0613 9.63728 11.1127 9.65621C11.0477 9.68789 10.9831 9.73145 10.908 9.72397C10.9045 9.70153 10.8979 9.65664 10.8948 9.63376C10.8896 9.52903 10.8966 9.42166 10.8689 9.32001C10.8153 9.29449 10.7604 9.27293 10.7042 9.25488C10.7595 9.243 10.8144 9.2298 10.8689 9.21528C10.8821 9.15059 10.8896 9.08503 10.897 9.0199L10.9032 8.96929Z" fill="#2F2D2C"/>
<path d="M6.97602 9.01594C7.40739 9.04366 7.83481 9.12463 8.25916 9.20516C8.19634 9.2276 8.13484 9.25356 8.06983 9.26852C7.6938 9.31781 7.25848 9.30769 6.97602 9.01594Z" fill="#2F2D2C"/>
<path d="M10.1617 9.20824C10.1819 9.20692 10.2219 9.20428 10.2421 9.20296C10.2249 9.29537 10.1696 9.39306 10.1973 9.48723C10.2434 9.50791 10.2899 9.52727 10.3378 9.54575C10.279 9.56335 10.2205 9.58492 10.1595 9.5924C10.1525 9.57216 10.1384 9.53123 10.1309 9.51055C10.1384 9.40934 10.1437 9.30813 10.1617 9.20824Z" fill="#2F2D2C"/>
<path d="M10.4235 9.21044C10.4863 9.17347 10.5667 9.18976 10.6352 9.20296C10.7125 9.23816 10.5623 9.25752 10.5403 9.25268C10.4837 9.26148 10.445 9.2474 10.4235 9.21044Z" fill="#2F2D2C"/>
<path d="M12.4938 9.1902C12.5066 9.19944 12.5329 9.21792 12.5461 9.22716C12.5386 9.31385 12.514 9.39922 12.5211 9.48723C12.8031 9.53915 13.0917 9.55279 13.3697 9.62716C13.0825 9.68349 12.8053 9.54971 12.5189 9.55983C12.4916 9.67953 12.4596 9.86435 12.6146 9.90835C12.5681 9.93607 12.5219 9.9638 12.4749 9.9902C12.4543 9.94663 12.4354 9.90307 12.4183 9.85907C12.4209 9.7495 12.4279 9.63948 12.4121 9.53079C12.1973 9.49427 11.9812 9.46259 11.7655 9.43354C11.7607 9.55104 11.7044 9.74818 11.8661 9.78074C11.8077 9.8111 11.7492 9.84014 11.6877 9.86391C11.6864 9.82958 11.6842 9.7605 11.6829 9.72617C11.6838 9.63024 11.6873 9.53387 11.6688 9.43926C11.5555 9.35742 11.3961 9.41506 11.2849 9.32661C11.422 9.32793 11.5599 9.32969 11.6961 9.34993C11.7119 9.35301 11.744 9.35961 11.7598 9.36313C11.9724 9.40142 12.1863 9.44938 12.4029 9.44894C12.4126 9.42386 12.4314 9.37326 12.4411 9.34817C12.4587 9.29537 12.4762 9.243 12.4938 9.1902Z" fill="#2F2D2C"/>
<path d="M15.5126 9.37282C15.4884 9.29141 15.6531 9.30021 15.6184 9.37986C15.5921 9.3781 15.5393 9.37458 15.5126 9.37282Z" fill="#2F2D2C"/>
<path d="M16.1579 9.38338C16.222 9.32485 16.2914 9.47623 16.1991 9.47535C16.189 9.45246 16.1684 9.40626 16.1579 9.38338Z" fill="#2F2D2C"/>
<path d="M13.6364 9.6166C13.7585 9.5726 13.8881 9.60868 14.0049 9.65136C14.0225 9.75742 13.9465 9.81638 13.8538 9.84014C13.7866 9.82166 13.7203 9.80406 13.6535 9.7869C13.6342 9.73101 13.6065 9.67381 13.6364 9.6166Z" fill="#2F2D2C"/>
<path d="M15.9501 9.60252C16.0217 9.57964 16.0458 9.60384 16.023 9.67557C15.9514 9.69845 15.9272 9.67381 15.9501 9.60252Z" fill="#2F2D2C"/>
<path d="M15.9931 10.0179C15.9624 9.90835 16.0401 9.80626 16.1508 9.79746C16.2694 9.82738 16.3885 9.86743 16.5128 9.85907C16.6758 9.85995 16.8699 9.82342 16.9947 9.95808C16.9991 10.0232 17.0206 10.1306 16.9288 10.1442C16.7399 10.1891 16.5334 10.1825 16.3542 10.1033C16.2958 10.0663 16.2343 10.098 16.1745 10.1095C16.1227 10.0637 16.0555 10.043 15.9931 10.0179Z" fill="#2F2D2C"/>
<path d="M16.1179 10.2476C16.1271 10.2247 16.1451 10.179 16.1543 10.1557C16.2413 10.1631 16.1838 10.3145 16.1179 10.2476Z" fill="#2F2D2C"/>
<path d="M14.2984 10.2978C14.3766 10.2758 14.4499 10.3013 14.5189 10.3383C14.4741 10.3906 14.4288 10.447 14.3634 10.4743C14.3388 10.4162 14.3181 10.3568 14.2984 10.2978Z" fill="#2F2D2C"/>
<path d="M15.8956 10.4703C15.8745 10.406 15.9474 10.3695 15.9857 10.4254C15.9725 10.4399 15.9461 10.4681 15.9329 10.4822L15.8956 10.4703Z" fill="#2F2D2C"/>
<path d="M7.2431 0.0957732L7.28 0.106774L7.29274 0.152539L7.26726 0.185543C7.26111 0.163101 7.24925 0.118216 7.2431 0.0957732Z" fill="#FE7516"/>
<path d="M8.95102 0.0742116C8.915 0.128777 8.92994 0.150779 8.99495 0.139778C8.98397 0.123056 8.962 0.0904933 8.95102 0.0742116Z" fill="#FE7516"/>
<path d="M7.51194 0.323277C7.52775 0.334719 7.55894 0.357161 7.57432 0.368602C7.55455 0.383564 7.51414 0.413047 7.49393 0.427568C7.49832 0.401606 7.50755 0.34924 7.51194 0.323277Z" fill="#FE7516"/>
<path d="M11.5388 0.454851C11.5397 0.457051 11.5419 0.461892 11.5432 0.464092L11.5388 0.454851Z" fill="#FE7516"/>
<path d="M8.33735 0.54066C8.41115 0.533179 8.48494 0.524818 8.55918 0.517337C8.6611 0.54198 8.7674 0.54286 8.87019 0.519098C8.88733 0.518218 8.92203 0.515577 8.93916 0.514697C9.13991 0.530539 9.34198 0.522177 9.54054 0.559141C9.76501 0.603585 10.0079 0.519978 10.2183 0.63439C10.1459 0.682795 10.0606 0.703037 9.97982 0.73076C10.1028 0.940661 10.4064 0.918659 10.6001 0.83417C10.6409 0.842091 10.6796 0.857933 10.72 0.869374C10.9401 0.915579 11.161 0.859253 11.3794 0.83241C11.3934 0.880375 11.4075 0.92878 11.422 0.977185C11.4439 1.11624 11.451 1.25925 11.4967 1.39391C11.5204 1.37323 11.5674 1.33274 11.5907 1.31206C11.6038 1.17433 11.5946 1.03527 11.6008 0.897096L11.6504 0.904137C11.6522 1.07355 11.6491 1.24341 11.6539 1.41283C11.7233 1.23945 11.7352 1.05067 11.7817 0.871134C11.8318 0.963984 11.8982 1.04583 11.9886 1.10216C12.2171 1.3081 12.3651 1.58269 12.5088 1.85112C12.6445 2.18819 12.7249 2.54375 12.7877 2.90062C12.8246 3.19502 12.8865 3.48852 12.8659 3.78644C12.8558 3.95013 12.9357 4.10547 12.9129 4.27005C12.8883 4.41526 12.8523 4.56048 12.8668 4.70965C12.8896 4.95608 12.8242 5.19546 12.8053 5.43969C12.7627 5.81373 12.6713 6.17941 12.594 6.54728C12.5703 6.63617 12.5408 6.7233 12.5109 6.81043C12.4635 6.91692 12.4134 7.02473 12.3972 7.14178L12.3937 7.17215C12.3831 7.254 12.3792 7.33673 12.362 7.41769C12.1903 7.29052 12.3431 7.03221 12.2527 6.86412C12.1885 6.78051 12.1033 6.71142 12.0053 6.67226C11.9166 6.62341 11.8406 6.71494 11.7624 6.74442C11.6482 6.75411 11.5344 6.7321 11.4207 6.72814L11.4286 6.76599C11.469 7.01901 11.6341 7.24608 11.6218 7.50702C11.5208 7.62408 11.3266 7.65576 11.2792 7.82034C11.2164 8.04828 11.2212 8.3035 11.082 8.50461C11.0315 8.58513 10.9234 8.57677 10.8421 8.59878C10.4055 8.48304 10.163 8.06456 9.98597 7.68216C9.82958 7.35257 9.75183 6.99569 9.65695 6.64585C9.58227 5.7244 9.4865 4.79018 9.65123 3.87269C9.7 3.6399 9.72372 3.39435 9.84276 3.18401C10.0176 3.0806 9.96312 2.87114 9.94379 2.70392C9.90733 2.40953 9.86516 2.10238 9.70922 1.84451C9.56601 1.63945 9.31167 1.51404 9.06084 1.5488C8.99407 1.63373 8.99583 1.7455 8.98573 1.84803C8.96771 1.84803 8.93213 1.84847 8.91412 1.84891C8.92247 1.74638 8.93872 1.64473 8.94575 1.5422C8.5504 1.56069 8.16866 1.7059 7.77024 1.68126C7.41706 1.67862 7.08013 1.52636 6.72563 1.54616C6.59428 1.57213 6.58286 1.73758 6.56924 1.84627C6.55387 1.84363 6.524 1.83879 6.50862 1.83659C6.51917 1.7367 6.55079 1.64077 6.57276 1.54352C6.31139 1.58357 6.05133 1.62801 5.7904 1.6685C5.45655 1.7213 5.13192 1.60601 4.80422 1.56597C4.42775 1.49644 4.05612 1.62625 3.68537 1.6729C3.38886 1.71118 3.1042 1.59545 2.81032 1.57829C2.70314 1.57961 2.55993 1.50524 2.48306 1.61481C2.42551 1.71338 2.45231 1.83704 2.43562 1.94617C2.35699 1.8388 2.39564 1.70634 2.40223 1.58489C2.28582 1.62625 2.17205 1.67466 2.0574 1.7213C2.31877 1.37631 2.69655 1.11888 3.11958 1.02119C3.13934 1.01855 3.17844 1.01371 3.19777 1.01151C3.31637 1.00051 3.43454 0.982905 3.55315 0.970143C3.57335 0.969703 3.61377 0.969264 3.63397 0.969264C4.28191 0.969264 4.92941 0.967943 5.57691 0.970143C5.68102 0.971464 5.77942 0.93318 5.88265 0.9257C6.37992 0.915139 6.8785 0.943741 7.37532 0.910298C7.36742 0.951662 7.36039 0.993467 7.35731 1.03571L7.37005 1.05551C7.44912 1.17169 7.56729 1.26013 7.7039 1.29534C7.99559 1.39479 8.30484 1.31558 8.59696 1.26189C8.94663 1.15892 9.29937 1.06608 9.64596 0.953423C9.63893 0.843852 9.58974 0.740441 9.48958 0.688075C9.43072 0.627789 9.34198 0.63879 9.26906 0.660793C8.98265 0.507657 8.6444 0.63483 8.33691 0.568383L8.33735 0.54066ZM9.98069 0.620308C10.1116 0.552101 9.98772 0.766843 9.98069 0.620308Z" fill="#FE7516"/>
<path d="M11.7602 0.804247C11.7611 0.806447 11.7629 0.810848 11.7637 0.812608L11.7602 0.804247Z" fill="#FE7516"/>
<path d="M3.56545 3.52417C3.62782 3.49733 3.68098 3.53341 3.70162 3.5937C3.7271 3.56817 3.75302 3.54309 3.77894 3.51801C3.97705 3.60074 3.91951 3.86388 3.82506 4.0069C3.88392 4.14419 3.92478 4.29645 3.84966 4.43726C3.83429 4.53495 3.72974 4.52395 3.65594 4.52043C3.63925 4.40074 3.80046 4.34749 3.78772 4.22648C3.77059 4.15519 3.75346 4.01614 3.64979 4.05354C3.61201 4.20668 3.59488 4.36334 3.57687 4.51999C3.55359 4.52043 3.5079 4.52087 3.48506 4.52087C3.45167 4.28941 3.51273 4.06058 3.51669 3.82912C3.52108 3.72615 3.53689 3.62318 3.56545 3.52417ZM3.63617 3.95981C3.68186 3.94617 3.72666 3.92901 3.76971 3.90877C3.77894 3.82428 3.77762 3.73979 3.77015 3.65574C3.62826 3.6575 3.65594 3.8586 3.63617 3.95981Z" fill="#FE7516"/>
<path d="M4.04163 3.54133C4.16111 3.56509 4.33902 3.51317 4.397 3.65178C4.46334 3.76883 4.39349 3.90349 4.35615 4.01878C4.33375 4.09975 4.24457 4.11779 4.17341 4.12923C4.17034 4.02054 4.2683 3.93913 4.26127 3.83044C4.256 3.75167 4.24545 3.65882 4.17692 3.60866C4.14398 3.92725 4.09566 4.2432 4.10928 4.56488C4.06052 4.56708 4.01176 4.56708 3.96343 4.56356C3.95641 4.40558 4.01571 4.25245 3.99858 4.09403C3.9832 3.90789 4.04426 3.72747 4.04163 3.54133Z" fill="#FE7516"/>
<path d="M4.93468 3.92065C4.92897 3.77368 4.98871 3.62142 5.13192 3.56113C5.1574 3.58577 5.18332 3.61042 5.20923 3.6355C5.22505 3.51801 5.36869 3.61042 5.37221 3.68831C5.44249 3.83352 5.33531 3.96642 5.27864 4.09403C5.29709 4.19788 5.35859 4.30173 5.31861 4.40866C5.28655 4.50107 5.26941 4.65377 5.14378 4.65597C5.15081 4.55476 5.1776 4.45619 5.18903 4.35585C5.20792 4.24188 5.07613 4.16928 5.09282 4.05707C5.10205 3.98578 5.20396 3.97786 5.21626 3.90833C5.22285 3.8542 5.22373 3.80008 5.21934 3.74595C5.11786 3.72043 5.106 3.83836 5.06822 3.90261C5.0243 3.91317 4.97949 3.91933 4.93468 3.92065Z" fill="#FE7516"/>
<path d="M4.48837 4.01658C4.61181 3.99722 4.73789 4.00206 4.8622 4.00998C4.8499 4.06235 4.83409 4.11427 4.813 4.16443C4.69659 4.18072 4.57491 4.18644 4.46114 4.15211C4.43654 4.10855 4.43654 4.0399 4.48837 4.01658Z" fill="#FE7516"/>
<path d="M4.92458 4.31933C4.95138 4.32065 5.00453 4.32329 5.03089 4.32461C5.0568 4.43374 5.07394 4.54507 5.08272 4.65685C4.91448 4.63924 4.91404 4.44827 4.92458 4.31933Z" fill="#FE7516"/>
<path d="M11.5041 6.77699C11.74 6.80647 11.9763 6.83331 12.2105 6.87336C12.2447 7.1035 12.2109 7.33629 12.2118 7.56731C12.156 7.59547 12.1235 7.65312 12.1275 7.71605C11.993 7.75125 11.8555 7.76929 11.7176 7.78161C11.7282 7.43354 11.6328 7.0969 11.5041 6.77699Z" fill="#FE7516"/>
<path d="M3.70426 6.8738C3.811 6.93188 3.92917 6.96401 4.04119 7.00933C4.1163 7.06346 4.15979 7.15059 4.21646 7.22231C3.93971 7.29536 3.6555 7.35125 3.38622 7.4485C3.38183 7.47754 3.3726 7.53562 3.36777 7.56423C3.22984 7.4551 3.09629 7.3398 2.94782 7.24475C2.88193 7.20207 2.81735 7.15807 2.75058 7.11714C2.79583 7.0727 2.83404 7.01197 2.90213 7.00273C3.1657 6.93672 3.44508 6.96357 3.70426 6.8738Z" fill="#FE7516"/>
<path d="M4.11762 7.39393C4.1945 7.36753 4.26566 7.42209 4.33682 7.44321C4.33331 7.41593 4.3254 7.36093 4.32145 7.33364C4.51297 7.46126 4.62982 7.66324 4.76951 7.84014C4.80246 7.90042 4.83277 7.96203 4.87231 8.01924C4.88812 8.03904 4.91931 8.07864 4.93512 8.09845C4.93908 8.12045 4.9461 8.16445 4.94962 8.18645C4.85561 8.24366 4.74843 8.2727 4.64432 8.30571C4.57535 8.32463 4.50726 8.34619 4.43917 8.36863C4.29641 8.40956 4.15979 8.48128 4.00956 8.4892C3.93268 8.36995 3.87514 8.2397 3.79826 8.12045C3.67571 7.91934 3.51098 7.74993 3.36777 7.56423C3.45958 7.58403 3.54656 7.61835 3.63178 7.65708C3.63134 7.61571 3.63134 7.57479 3.63134 7.53386C3.79168 7.48106 3.95509 7.43925 4.11762 7.39393Z" fill="#FE7516"/>
<path d="M12.3932 7.73585C12.3682 7.63288 12.4934 7.67204 12.5544 7.65356C12.5553 7.67644 12.5571 7.72265 12.558 7.74597C12.5026 7.74377 12.4477 7.74025 12.3932 7.73585Z" fill="#FE7516"/>
<path d="M13.3008 8.09536C13.3943 8.13805 13.487 8.18337 13.5806 8.22782C13.6381 8.37083 13.5375 8.50813 13.4734 8.63002C13.3579 8.58865 13.2437 8.54333 13.1308 8.49536C13.2002 8.36775 13.2529 8.23222 13.3008 8.09536Z" fill="#FE7516"/>
<path d="M4.88768 8.36599C4.93512 8.37919 4.98081 8.40252 5.0098 8.44476C5.13324 8.60406 5.2312 8.78228 5.31422 8.96577C5.11347 9.04674 4.91316 9.12815 4.70801 9.1968C4.63553 8.97765 4.6061 8.74619 4.51956 8.53145C4.64388 8.4804 4.766 8.42364 4.88768 8.36599Z" fill="#FE7516"/>
<path d="M13.7075 8.45004C13.7884 8.52881 13.8674 8.61198 13.9672 8.66698C14.3067 8.8562 14.6516 9.03618 14.9872 9.23288C15.1462 9.32793 15.3333 9.34553 15.5126 9.37282C15.5393 9.37458 15.5921 9.3781 15.6184 9.37986C15.7946 9.44895 15.9782 9.4067 16.1579 9.38338C16.1684 9.40626 16.189 9.45246 16.1991 9.47535C16.2185 9.58316 16.1728 9.69229 16.1508 9.79746C16.0401 9.80626 15.9624 9.90835 15.9931 10.0179C16.0555 10.043 16.1227 10.0637 16.1745 10.1095L16.1543 10.1557C16.1451 10.179 16.1271 10.2247 16.1179 10.2476C16.088 10.3163 16.0349 10.3708 15.9857 10.4254C15.9474 10.3695 15.8745 10.406 15.8956 10.4703L15.893 10.5086L15.8486 10.5134C15.8438 10.2054 15.9422 9.89163 15.8539 9.588C15.8108 9.6122 15.7687 9.63684 15.726 9.66193C15.6303 9.63904 15.5332 9.61924 15.4357 9.60868C14.536 9.49471 13.6425 9.34113 12.7438 9.22232C12.6713 9.21088 12.6023 9.18624 12.5382 9.15191C12.5606 9.11231 12.5843 9.07402 12.6093 9.03662C12.6805 9.03926 12.7517 9.04322 12.8233 9.04366C12.7758 9.07842 12.7315 9.11627 12.6875 9.15455C12.8575 9.22144 13.0425 9.21836 13.2208 9.24608C13.3728 9.26456 13.5305 9.31165 13.6808 9.2584C13.8196 9.21396 13.9623 9.17964 14.1095 9.1858C14.1938 9.18976 14.2782 9.19152 14.363 9.18932C14.1253 9.01902 13.8543 8.90329 13.603 8.75499C13.65 8.65818 13.6865 8.55609 13.7075 8.45004ZM16.023 9.67557C15.9514 9.69845 15.9272 9.67381 15.9501 9.60252C16.0217 9.57964 16.0458 9.60384 16.023 9.67557Z" fill="#FE7516"/>
<path d="M2.73257 8.85796C2.75453 8.87997 2.75453 8.87997 2.73257 8.85796Z" fill="#FE7516"/>
<path d="M2.69304 8.93013C2.98955 8.96005 3.0919 9.28613 3.12133 9.53871C2.97198 9.56952 2.81647 9.5902 2.66448 9.56424C2.62626 9.44278 2.5573 9.33805 2.4712 9.24652C2.50546 9.2078 2.54061 9.16952 2.57399 9.13035C2.4567 9.05598 2.64296 8.98206 2.69304 8.93013Z" fill="#FE7516"/>
<path d="M1.85577 9.38734C1.96207 9.27997 2.10001 9.36445 2.14569 9.48503C2.16766 9.59944 2.17469 9.71957 2.22608 9.82606C2.27923 9.93079 2.39081 9.98184 2.48438 10.0434C2.51337 10.1345 2.59332 10.2938 2.45099 10.3264C2.23135 10.23 2.07409 10.0272 1.97218 9.81506C1.91024 9.68129 1.84259 9.53871 1.85577 9.38734Z" fill="#FE7516"/>
<path d="M1.93308 9.93431C1.93879 9.86831 1.91156 9.80538 1.85313 9.77282C1.81008 9.8243 1.8628 9.95016 1.93308 9.93431Z" fill="#FE7516"/>
<path d="M2.81999 10.1341C2.84195 10.1557 2.84195 10.1557 2.81999 10.1341Z" fill="#FE7516"/>
<path d="M14.5782 10.3968C14.6419 10.4461 14.7034 10.4989 14.7614 10.5557C14.9986 10.9257 15.1299 11.3517 15.3434 11.735C15.3913 11.8199 15.5033 11.8181 15.5837 11.8547C15.618 11.9946 15.4212 11.9744 15.3333 11.9748C15.2094 11.7504 15.1313 11.5044 15.0061 11.2809C14.8668 10.9843 14.7012 10.7 14.5782 10.3968Z" fill="#FE7516"/>
<path d="M7.4276 0.616348C7.55719 0.614147 7.68589 0.596545 7.81548 0.601826C7.96791 0.752322 8.19634 0.685875 8.38742 0.715798C8.30967 0.781805 8.22357 0.838131 8.15636 0.915579C8.12781 0.981146 8.11595 1.05287 8.09618 1.12152C7.84887 1.19457 7.61649 1.04627 7.37005 1.05551L7.35731 1.03571C7.36039 0.993467 7.36742 0.951662 7.37532 0.910298C7.38894 0.807327 7.4724 0.724159 7.4276 0.616348Z" fill="#7F380A"/>
<path d="M6.50862 1.83659C6.524 1.83879 6.55387 1.84363 6.56924 1.84627C6.59472 1.92944 6.61976 2.01349 6.65359 2.09446C7.04059 2.16839 7.42892 2.25288 7.82251 2.29248C8.21786 2.29292 8.60223 2.17543 8.99715 2.16267C8.95849 2.06146 8.89875 1.96113 8.91412 1.84891C8.93213 1.84847 8.96771 1.84803 8.98573 1.84803C8.9989 1.92548 9.00813 2.00469 9.03492 2.0795C9.09423 2.16399 9.22733 2.18423 9.24973 2.29732C9.34418 2.54463 9.32661 2.81174 9.3556 3.0696C9.42984 3.20822 9.60599 3.22978 9.74788 3.22582C9.54669 3.30811 9.35472 3.4234 9.13816 3.46036C8.94136 3.30327 9.09379 3.03968 9.03273 2.83374C8.99363 2.6872 8.98177 2.49534 8.84252 2.40733C8.42345 2.33208 8.01535 2.5191 7.59672 2.51074C7.39773 2.50722 7.1961 2.49534 7.00325 2.44034C6.62679 2.32196 6.21782 2.33297 5.83609 2.42141C5.46094 2.47334 5.07174 2.47202 4.7045 2.37125C4.51605 2.31844 4.31881 2.30832 4.12465 2.32548C3.85054 2.34045 3.58961 2.45838 3.31242 2.43946C2.93771 2.42538 2.57223 2.20623 2.19577 2.33517C2.34117 2.24276 2.48394 2.05266 2.67415 2.1103C2.83009 2.14331 2.99262 2.12922 3.14593 2.17763C3.58741 2.28764 4.03592 2.17587 4.47476 2.11382C4.43434 2.03462 4.38734 1.95849 4.35 1.87752C4.36581 1.88368 4.39744 1.89512 4.41326 1.90128C4.46421 1.98313 4.50331 2.10634 4.61577 2.11602C5.04758 2.13803 5.47017 2.32768 5.90549 2.2366C6.12996 2.18687 6.36674 2.19743 6.58374 2.11602C6.56178 2.02185 6.53059 1.93032 6.50862 1.83659Z" fill="#7F380A"/>
<path d="M1.36861 3.0806C1.42571 3.11933 1.48458 3.15541 1.543 3.19193C1.50303 3.29359 1.4222 3.36047 1.31721 3.38864C1.31062 3.2839 1.31282 3.17345 1.36861 3.0806Z" fill="#7F380A"/>
<path d="M1.23155 4.66081C1.30579 4.7585 1.3976 4.86587 1.53421 4.84827C1.83512 4.83815 2.11406 4.975 2.41321 4.98028C2.69699 4.98292 2.96627 5.07753 3.24433 5.12065C3.53382 5.17214 3.83077 5.15146 4.11938 5.20954C4.34253 5.24255 4.55734 5.32528 4.78445 5.33232C5.11611 5.32572 5.43283 5.44013 5.7636 5.45157C6.10932 5.5233 6.46338 5.52022 6.80821 5.59414C7.16623 5.64211 7.52468 5.68655 7.88533 5.70548C8.36327 5.79657 8.84867 5.83617 9.33451 5.83529C9.5234 6.06059 9.51374 6.39107 9.65695 6.64585C9.75183 6.99569 9.82958 7.35257 9.98597 7.68216C10.163 8.06456 10.4055 8.48304 10.8421 8.59878C10.9599 8.62166 11.0798 8.60626 11.1971 8.58689C11.1856 8.61066 11.1628 8.65818 11.1514 8.68194C11.2212 8.65422 11.2902 8.62298 11.3618 8.59878C11.4004 8.66566 11.4167 8.74883 11.4716 8.80472C11.574 8.83464 11.682 8.83904 11.7879 8.8496C11.7892 8.86896 11.7923 8.90813 11.7936 8.92749C11.8112 8.94289 11.8463 8.97413 11.8639 8.98954C11.7672 9.01858 11.6671 9.02078 11.5678 9.0067C11.8582 9.13871 12.1955 9.08063 12.4938 9.1902C12.4762 9.243 12.4587 9.29537 12.4411 9.34817C12.2254 9.29141 12.0097 9.2254 11.7866 9.20956C11.7765 9.26016 11.7672 9.31121 11.7598 9.36313C11.744 9.35961 11.7119 9.35301 11.6961 9.34993C11.6319 9.2276 11.5849 9.09295 11.4945 8.9869C11.4053 8.94817 11.3086 8.93101 11.2208 8.88877C11.2164 8.8496 11.2116 8.81088 11.2076 8.77215C11.1553 8.72903 11.0855 8.72683 11.0218 8.73211C11.0143 8.78316 11.0073 8.8342 11.0003 8.88569C10.8733 8.87688 10.7398 8.84564 10.622 8.91253C10.7156 8.92749 10.8219 8.90901 10.9032 8.96929L10.897 9.0199C10.6967 8.99878 10.438 8.97897 10.3251 9.18668C10.3044 9.19064 10.2627 9.199 10.2421 9.20296C10.2219 9.20428 10.1819 9.20692 10.1617 9.20824C10.1437 9.30813 10.1384 9.40934 10.1309 9.51055C10.0743 9.49647 10.0172 9.48459 9.96005 9.47359C9.39338 9.38382 8.82627 9.29493 8.25916 9.20516C7.83481 9.12463 7.40739 9.04366 6.97602 9.01594C6.69532 8.94421 6.40583 8.92265 6.12206 8.86852C5.9872 8.84608 5.84926 8.81 5.71221 8.83772C5.72187 8.66742 5.71265 8.49669 5.72583 8.32683C5.7188 8.2441 5.81193 8.20626 5.88089 8.2111C6.38387 8.2441 6.88069 8.32991 7.37928 8.399C8.19985 8.51649 9.01999 8.63398 9.84056 8.75235C9.97674 8.77039 10.1125 8.80472 10.2509 8.79636C10.2706 8.74047 10.2886 8.68371 10.3014 8.62606L10.3088 8.59306C9.93457 8.49933 9.54493 8.48304 9.16627 8.41C8.77707 8.38095 8.39314 8.25158 8.00218 8.30131C7.78385 8.2287 7.54972 8.18073 7.32041 8.23002C7.2286 8.2617 7.15261 8.20318 7.07925 8.15741C6.9892 8.0914 6.87498 8.09008 6.76956 8.07512C6.58594 8.05708 6.40012 8.00207 6.2165 8.05092C5.90373 7.93519 5.56461 7.94223 5.2391 7.89074C5.08667 7.8441 4.92809 7.82518 4.76951 7.84014C4.62982 7.66324 4.51297 7.46126 4.32145 7.33364L4.31706 7.30592C4.5468 7.25576 4.77874 7.20867 4.9975 7.11934C4.97598 7.07578 4.93117 7.05025 4.88329 7.06698C4.66101 7.1189 4.44708 7.20911 4.21646 7.22231C4.15979 7.15059 4.1163 7.06346 4.04119 7.00933C3.92917 6.96401 3.811 6.93188 3.70426 6.8738C3.51054 6.76643 3.29353 6.7035 3.07301 6.6881C2.71368 6.65729 2.37368 6.80163 2.02357 6.85664C1.89662 6.74134 1.82458 6.58381 1.73365 6.44167C1.71037 6.43375 1.66336 6.41791 1.64008 6.40999C1.64491 6.37171 1.6515 6.3343 1.66073 6.2969C1.90541 6.23925 2.1558 6.20713 2.40135 6.15344C2.38378 6.06543 2.35479 5.97962 2.31306 5.89998C2.18742 5.86873 2.06179 5.91142 1.93791 5.92814C1.92122 5.79921 1.98184 5.61219 1.83029 5.54706C1.68225 5.53386 1.53993 5.5915 1.39584 5.61615C1.33258 5.47797 1.32204 5.32264 1.28954 5.1761C1.26581 5.00492 1.20915 4.83551 1.23155 4.66081Z" fill="url(#paint0_linear_271_90)"/>
<path d="M1.04486 6.16444C1.0677 6.16268 1.11338 6.1596 1.13579 6.15784C1.14194 6.23573 1.1415 6.31406 1.13579 6.39239C1.05979 6.3453 1.03256 6.24893 1.04486 6.16444Z" fill="#7F380A"/>
<path d="M1.70553 6.95257C2.06135 6.89932 2.42507 6.97017 2.75058 7.11714C2.81735 7.15807 2.88193 7.20207 2.94782 7.24475C2.78836 7.23991 2.62802 7.24607 2.47032 7.2694C2.34644 7.18711 2.23926 7.08238 2.11275 7.00405C1.95021 7.15543 1.81667 7.33628 1.70597 7.52858C1.56101 7.63111 1.43626 7.75785 1.3115 7.88326C1.14633 7.77897 0.970618 7.69272 0.789635 7.62055C0.839273 7.4529 0.994339 7.35301 1.10152 7.22407C1.17181 7.16027 1.24605 7.10174 1.32512 7.04938C1.44416 6.99217 1.57331 6.95785 1.70553 6.95257Z" fill="#7F380A"/>
<path d="M11.4892 8.02056C11.5234 8.04476 11.5573 8.07028 11.5907 8.09668C11.5691 8.19745 11.5524 8.29955 11.5428 8.40252C11.4896 8.4386 11.4347 8.47204 11.378 8.50197C11.3846 8.33563 11.4439 8.17897 11.4892 8.02056Z" fill="#7F380A"/>
<path d="M12.9349 8.00867C12.9643 8.0166 13.0231 8.03288 13.0526 8.0408C13.0662 8.08524 13.0794 8.13057 13.0921 8.17633C13.1598 8.14465 13.2243 8.1024 13.3008 8.09536C13.2529 8.23222 13.2002 8.36775 13.1308 8.49536C13.1044 8.54069 13.0781 8.58601 13.0543 8.6331C13.1308 8.71935 13.2428 8.75851 13.3438 8.80824C13.3052 8.83948 13.2652 8.86852 13.2248 8.89757C13.1426 8.84652 13.0253 8.70175 12.9406 8.8298C12.9454 8.87688 12.9595 8.92221 12.9713 8.96841C12.9581 8.9825 12.9322 9.01022 12.919 9.02386C12.8953 9.0287 12.847 9.03882 12.8233 9.04366C12.7517 9.04322 12.6805 9.03926 12.6093 9.03662C12.4877 8.86236 12.5377 8.64762 12.5123 8.45048C12.4951 8.34575 12.5342 8.24322 12.605 8.16665C12.6581 8.35323 12.6274 8.58469 12.8061 8.70967C12.8329 8.60538 12.8141 8.47952 12.8874 8.39327C12.9392 8.39239 12.9915 8.39196 13.0438 8.39284C13.1422 8.24674 12.9625 8.14377 12.9349 8.00867ZM12.7003 8.81088C12.6783 8.87336 12.6981 8.89317 12.7605 8.87072C12.7824 8.80824 12.7622 8.78844 12.7003 8.81088Z" fill="#7F380A"/>
<path d="M4.93512 8.09845C5.15652 8.14377 5.38626 8.16005 5.59844 8.24278C5.61864 8.45004 5.62304 8.65994 5.60327 8.8672C5.56329 8.89273 5.52156 8.91473 5.47807 8.93277C5.42316 8.94245 5.36825 8.95257 5.31422 8.96577C5.2312 8.78228 5.13324 8.60406 5.0098 8.44476C4.98081 8.40252 4.93512 8.37919 4.88768 8.36599C4.80773 8.34179 4.72646 8.32199 4.64432 8.30571C4.74843 8.2727 4.85561 8.24366 4.94962 8.18645C4.9461 8.16445 4.93908 8.12045 4.93512 8.09845Z" fill="#7F380A"/>
<path d="M2.2028 8.49316C2.38071 8.41 2.57707 8.4782 2.76156 8.49405C2.84459 8.49317 2.89642 8.56313 2.95177 8.61506C3.12177 8.77875 3.23906 8.98822 3.32911 9.20472C3.36382 9.28173 3.37172 9.3671 3.36469 9.45114C3.3502 9.69757 3.34361 9.95984 3.20392 10.1741C3.07916 10.157 3.13803 10.0324 3.16482 9.95764C3.22369 9.81902 3.15867 9.67293 3.12133 9.53871C3.0919 9.28613 2.98955 8.96005 2.69304 8.93013C2.55422 8.83376 2.41892 8.72639 2.25991 8.6661C2.19709 8.66038 2.13735 8.69162 2.07453 8.69471C2.00644 8.59658 2.12197 8.52265 2.2028 8.49316ZM2.73257 8.85796C2.75453 8.87997 2.75453 8.87997 2.73257 8.85796Z" fill="#7F380A"/>
<path d="M13.4831 8.88525C13.5235 8.84212 13.5635 8.799 13.603 8.75499C13.8543 8.90329 14.1253 9.01902 14.363 9.18932C14.2782 9.19152 14.1938 9.18976 14.1095 9.1858C14.0954 9.177 14.0669 9.15939 14.0528 9.15059C13.885 9.02122 13.686 8.93981 13.4831 8.88525Z" fill="#7F380A"/>
<path d="M2.14569 9.48503C2.21642 9.47095 2.28626 9.45378 2.35479 9.43222C2.39476 9.49075 2.40794 9.57832 2.47735 9.61088C2.54368 9.62452 2.61177 9.62936 2.67942 9.63948C2.65482 9.68349 2.62934 9.72661 2.60386 9.77018C2.6803 9.73145 2.75717 9.69273 2.83976 9.66941C2.85118 9.74377 2.85689 9.81946 2.85381 9.89515C2.72379 9.92683 2.58541 9.9462 2.48438 10.0434C2.39081 9.98184 2.27923 9.93079 2.22608 9.82606C2.17469 9.71957 2.16766 9.59944 2.14569 9.48503Z" fill="#7F380A"/>
<path d="M15.726 9.66193C15.7687 9.63684 15.8108 9.6122 15.8539 9.588C15.9422 9.89163 15.8438 10.2054 15.8486 10.5134C15.7792 10.4536 15.6847 10.4122 15.6391 10.3308C15.6448 10.1055 15.6729 9.88107 15.726 9.66193Z" fill="#7F380A"/>
<path d="M13.3697 9.62716C13.4176 9.63068 13.4659 9.63596 13.5143 9.643C13.531 9.70461 13.5437 9.76754 13.5626 9.82914C13.6021 9.87447 13.6566 9.84367 13.6535 9.7869C13.7203 9.80406 13.7866 9.82166 13.8538 9.84014C13.7484 9.89471 13.6504 9.96116 13.5534 10.0294C13.3948 10.0131 13.2375 9.98756 13.0803 9.95984C13.212 9.88415 13.2872 9.74906 13.3697 9.62716Z" fill="#7F380A"/>
<path d="M14.2299 10.1196C14.4104 10.1209 14.5931 10.1385 14.7609 10.2098C14.7636 10.2749 14.7456 10.3392 14.6999 10.3876C14.6845 10.3722 14.6533 10.3414 14.6375 10.326C14.5975 10.3282 14.558 10.3326 14.5189 10.3383C14.4499 10.3013 14.3766 10.2758 14.2984 10.2978C14.2817 10.2991 14.2479 10.3013 14.2307 10.3026C14.2299 10.2415 14.2299 10.1803 14.2299 10.1196Z" fill="#7F380A"/>
<path d="M4.76951 7.84014C4.92809 7.82518 5.08667 7.8441 5.2391 7.89074C5.18903 7.90791 5.13983 7.92639 5.08887 7.93959C5.0467 7.92419 5.00365 7.91055 4.96104 7.89646C4.92897 7.93563 4.89998 7.97699 4.87231 8.01924C4.83277 7.96203 4.80246 7.90042 4.76951 7.84014Z" fill="black"/>
<path d="M0.142575 8.2881C0.319605 8.20758 0.400872 7.98535 0.605137 7.95807C0.553302 8.10725 0.515085 8.26082 0.486531 8.41616C0.443482 8.60054 0.431621 8.79019 0.43206 8.97941C0.321362 8.92397 0.20627 8.85004 0.164539 8.72639C0.128518 8.62034 0.0714113 8.52485 0.0024443 8.43728C-0.0177626 8.35323 0.0924967 8.32859 0.142575 8.2881Z" fill="black" fill-opacity="0.35"/>
<path d="M5.71221 8.83772C5.84926 8.81 5.9872 8.84608 6.12206 8.86852C6.40583 8.92265 6.69532 8.94421 6.97602 9.01594C7.25848 9.30769 7.6938 9.31781 8.06983 9.26852C8.13484 9.25356 8.19634 9.2276 8.25916 9.20516C8.82627 9.29493 9.39338 9.38382 9.96005 9.47359C9.93808 9.59372 9.9025 9.71429 9.90777 9.8375C9.95653 9.93343 10.0642 9.9792 10.156 10.025C10.5456 10.1785 10.9673 10.2208 11.364 10.3519C11.914 10.4712 12.4762 10.5231 13.0302 10.6212C13.3003 10.6727 13.5784 10.619 13.8481 10.6754C14.0884 10.7075 14.2997 10.8839 14.5523 10.8192C14.6467 10.9768 14.7271 11.1427 14.8018 11.3108C14.6204 11.3464 14.4328 11.3372 14.2527 11.3812C14.2356 11.423 14.232 11.4657 14.243 11.5101C14.4482 11.6131 14.6678 11.6853 14.8839 11.7623C14.8756 11.7825 14.8593 11.8226 14.851 11.8428C15.0025 11.9158 15.1734 11.9286 15.3333 11.9748C15.2275 12.0373 15.0957 11.9642 14.9806 11.9612C14.7614 11.9462 14.6046 11.7719 14.3999 11.713C13.9825 11.5722 13.5841 11.3689 13.1479 11.2901C12.9775 11.2518 12.8246 11.159 12.652 11.1282C12.4222 11.0855 12.1938 11.0287 11.9592 11.0256C11.7703 11.0291 11.6065 10.909 11.4176 10.9112C11.2656 10.9073 11.114 10.8879 10.9704 10.836C10.807 10.7748 10.6313 10.7836 10.4608 10.7642C10.297 10.726 10.1419 10.6454 9.96971 10.6525C9.82914 10.6569 9.69297 10.6243 9.56206 10.5759C9.35516 10.5007 9.12717 10.546 8.92071 10.4677C8.80518 10.425 8.68086 10.4223 8.5605 10.4377C7.94858 10.5354 7.33667 10.3836 6.73617 10.2806C6.1427 10.1706 5.55011 10.0562 4.95533 9.95456C4.87845 9.93828 4.79192 9.93871 4.72866 9.88591C4.74667 9.65664 4.76512 9.42166 4.70801 9.1968C4.91316 9.12815 5.11347 9.04674 5.31422 8.96577C5.36825 8.95257 5.42316 8.94245 5.47807 8.93277C5.54967 8.93013 5.62172 8.92969 5.69332 8.92353C5.69771 8.90241 5.70738 8.85928 5.71221 8.83772Z" fill="black" fill-opacity="0.42"/>
<path d="M0.0727293 9.31913C0.180792 9.25136 0.30994 9.22848 0.432939 9.20252C0.443042 9.30461 0.458856 9.4067 0.46896 9.50923C0.371879 9.5704 0.248441 9.55455 0.140378 9.53739C0.0938147 9.48151 0.0147443 9.3913 0.0727293 9.31913Z" fill="black" fill-opacity="0.32"/>
<path d="M0.520355 9.67513C0.685525 9.60208 0.855966 9.53431 1.03695 9.51363C1.20519 10.2718 1.66732 10.9983 2.38071 11.3425C2.1435 11.3834 1.93967 11.2355 1.72794 11.1576C1.46788 11.0529 1.23067 10.9024 1.00225 10.7422C0.88408 10.6564 0.801934 10.5275 0.672786 10.4562C0.513766 10.3581 0.327072 10.6071 0.181671 10.4641C0.0766825 10.318 -0.016884 10.0927 0.117096 9.9352C0.238777 9.83134 0.391207 9.76974 0.520355 9.67513Z" fill="black" fill-opacity="0.34"/>
<path d="M2.72203 11.4375C3.24477 11.4828 3.76576 11.2826 4.17297 10.9623C4.17034 11.129 4.04382 11.2391 3.90369 11.3042C3.65198 11.4494 3.36294 11.5356 3.07082 11.5189C2.95309 11.5075 2.80198 11.5497 2.72203 11.4375Z" fill="black" fill-opacity="0.31"/>
<defs>
<linearGradient id="paint0_linear_271_90" x1="6.56818" y1="4.6875" x2="8.77762" y2="9.24027" gradientUnits="userSpaceOnUse">
<stop stop-color="#C35616"/>
<stop offset="1" stop-color="#C35616"/>
</linearGradient>
</defs>
</svg>
