<svg width="476" height="336" viewBox="0 0 476 336" fill="none" xmlns="http://www.w3.org/2000/svg">
<path d="M188.302 6.77117C186.277 -1.33039 200.496 -2.57541 199.71 5.59167C204.529 14.5391 184.704 15.8259 188.302 6.77117Z" fill="#785117"/>
<path d="M199.71 5.59167C200.204 7.73621 202.7 17.4045 196.094 15.1765C196.034 17.059 194.033 24.6423 198.012 24.9222C194.396 25.1903 190.774 25.3452 187.152 25.2737C193.467 26.5485 193.139 20.7106 192.466 15.248C186.914 17.2734 186.515 8.93953 188.302 6.77117C184.704 15.8259 204.529 14.5391 199.71 5.59167Z" fill="#2A2A26"/>
<path d="M214.418 15.1527C217.146 19.5073 223.174 19.7813 224.717 24.815C224.533 26.34 215.109 27.8591 215.055 24.7614C217.962 21.4731 217.295 18.5959 214.418 15.1527Z" fill="#26292A"/>
<path d="M198.012 24.9222C203.677 24.5708 209.384 24.4576 215.055 24.7614C215.109 27.8591 224.533 26.34 224.717 24.815L225.158 24.8388C232.128 25.5298 239.145 25.2439 246.145 25.2558C252.144 25.363 258.16 24.9937 264.159 25.4107C254.395 27.2991 243.518 25.1784 234.535 27.6684C246.079 32.7319 260.519 34.5726 268.18 45.6229C274.965 58.782 281.881 71.9113 288.946 84.9155C289.339 84.6951 290.126 84.2543 290.519 84.0338C290.876 84.7427 291.234 85.4516 291.585 86.1724C289.006 87.7451 291.484 90.4019 292.586 92.1235C295.064 92.7252 295.987 94.405 295.803 97.0083C298.698 97.4253 299.18 100.737 300.658 102.804C301.664 105.664 297.512 104.895 295.713 105.044C285.688 85.5648 275.138 66.3653 265.023 46.862C260.269 38.1826 250.374 36.4967 242.136 32.8332C226.135 25.2141 207.924 29.396 190.917 28.0556C180.034 25.5775 168.787 27.9603 157.808 26.1077C167.583 25.5239 177.347 24.952 187.152 25.2737C190.774 25.3452 194.396 25.1903 198.012 24.9222Z" fill="#66A15C"/>
<path d="M225.158 24.8388C231.675 25.2677 240.563 23.3734 246.145 25.2558C239.145 25.2439 232.128 25.5298 225.158 24.8388Z" fill="#3E5C38"/>
<path d="M264.159 25.4107C266.81 25.2022 269.514 25.1307 272.183 25.4047C278.759 26.1613 285.396 25.8277 292.008 25.8515C301.08 25.9051 310.159 25.7205 319.232 25.923C320.715 27.037 319.249 29.1994 319.452 30.7661C319.249 31.2843 319.053 31.8026 318.85 32.3268C317.016 36.5503 313.65 39.928 309.694 42.2333C306.013 45.057 312.256 51.0497 313.93 54.5465C318.076 63.2617 322.812 71.6849 327.411 80.1737C333.123 92.5405 340.683 104.049 346.241 116.452C344.18 116.863 343.632 114.635 342.661 113.336C342.518 114.331 343.804 116.249 342.25 116.446C330.467 91.4801 317.081 66.9252 303.815 42.6503C304.959 39.5646 310.29 38.9987 308.146 34.7513C307.115 30.7839 312.542 28.4249 311.243 34.7751C314.305 33.8875 317.105 30.8733 317.718 27.6863C305.447 27.5493 293.199 28.562 280.934 28.973C280.13 32.1898 279.659 35.5734 277.586 38.2838C275.15 41.5542 272.153 44.366 268.18 45.6229C260.519 34.5726 246.079 32.7319 234.535 27.6684C243.518 25.1784 254.395 27.2991 264.159 25.4107Z" fill="#46773D"/>
<path d="M272.183 25.4047C278.372 25.8098 286.766 24.0882 292.008 25.8515C285.396 25.8277 278.759 26.1613 272.183 25.4047Z" fill="#294223"/>
<path d="M163.932 34.1199C159.994 34.0246 154.764 29.5568 157.808 26.1077C168.787 27.9603 180.034 25.5775 190.917 28.0556C207.924 29.396 226.135 25.2141 242.136 32.8332C250.374 36.4967 260.269 38.1826 265.023 46.862C275.138 66.3653 285.688 85.5648 295.713 105.044C293.068 104.949 290.447 105.485 287.814 105.229C278.652 86.6966 268.567 68.623 259.381 50.0966C255.229 41.5185 244.739 41.0062 237.126 37.2414C219.946 34.0841 202.17 35.347 184.74 34.8228C179.366 37.1758 176.459 43.3294 176.4 49.078C175.042 68.6945 174.333 88.3586 172.963 107.975C189.368 112.282 205.971 115.803 222.436 119.859C205.607 119.633 188.886 117.077 172.081 116.381C171.837 118.686 165.88 119.014 167.637 115.797C169.466 108.595 161.585 113.926 167.637 115.797C165.201 116.762 163.896 119.752 168.554 119.008C207.079 123.1 245.847 125.167 284.335 129.617C284.282 130.523 284.222 131.434 284.168 132.351C278.331 130.88 271.599 129.432 265.898 131.994C262.163 135.145 264.034 140.649 263.295 144.98C258.083 144.605 253.079 142.901 247.872 142.586C223.216 137.516 198.375 133.394 173.66 128.646C156.289 126.12 138.525 122.713 121.303 128.068C119.409 128.67 117.407 128.61 115.459 128.324C103.587 125.709 91.6372 127.747 79.9436 130.064C79.8721 122.129 79.2585 114.212 78.7164 106.307C105.678 110.763 132.604 118.9 160.107 117.465C162.83 115.207 158.702 113.849 157.188 112.407C162.097 115.332 164.134 108.821 168.668 110.406C167.029 89.5977 170.002 68.4324 170.079 47.4815C170.907 43.9252 171.849 40.3867 173.934 37.3426C170.604 36.2465 167.274 35.1683 163.932 34.1199Z" fill="#3D6E31"/>
<path d="M280.934 28.973C293.199 28.562 305.447 27.5493 317.718 27.6863C317.105 30.8733 314.305 33.8875 311.243 34.7751C312.542 28.4249 307.115 30.7839 308.146 34.7513C310.29 38.9987 304.959 39.5646 303.815 42.6503C299.18 35.3053 290.602 33.3157 283.06 30.1703C283.817 31.0699 277.348 40.8751 284.174 38.266C283.084 41.5423 279.486 39.7135 277.586 38.2838C279.659 35.5734 280.13 32.1898 280.934 28.973Z" fill="#263D21"/>
<path d="M319.452 30.7661C325.582 26.34 327.667 35.7879 328.453 40.0114C329.984 41.2385 329.65 45.4501 327.28 44.8961C327.417 43.1388 326.839 41.8998 324.909 42.5967C322.591 45.0689 326.154 52.0386 321.876 53.2956C321.239 46.3914 320.578 39.4872 320.518 32.5532C320.101 32.4996 319.267 32.3804 318.85 32.3268C319.053 31.8026 319.249 31.2843 319.452 30.7661ZM322.979 31.7728C324.033 34.4416 321.882 41.1492 326.553 40.7679C325.927 37.849 326.386 32.4281 322.979 31.7728Z" fill="#3A3B3C"/>
<path d="M284.174 38.266C277.348 40.8751 283.817 31.0699 283.06 30.1703C290.602 33.3157 299.18 35.3053 303.815 42.6503C317.081 66.9252 330.467 91.4801 342.25 116.446C340.617 117.018 338.985 117.602 337.389 118.263C331.551 120.497 330.228 111.728 326.416 108.696C329.037 108.851 331.658 109.232 334.297 109.262C333.493 105.36 331.312 102.161 329.055 99.0098C327.148 94.268 324.063 90.1159 322.252 85.3384C323.151 83.6704 322.967 82.5863 320.852 83.033C314.49 71.1905 308.431 59.1811 302.051 47.3504C299.121 42.0249 293.104 40.4343 287.921 38.2421C286.635 37.8847 284.77 36.2465 284.174 38.266Z" fill="#7E8484"/>
<path d="M326.553 40.7679C325.927 37.849 326.386 32.4281 322.979 31.7728C324.033 34.4416 321.882 41.1492 326.553 40.7679Z" fill="#060605"/>
<path d="M163.932 34.1199C167.274 35.1683 170.604 36.2465 173.934 37.3426C171.849 40.3867 170.907 43.9252 170.079 47.4815C169.913 44.8902 169.99 42.3108 169.865 39.7314C165.808 41.8044 164.027 37.2354 163.932 34.1199Z" fill="#161716"/>
<path d="M176.4 49.078C176.459 43.3294 179.366 37.1758 184.74 34.8228C202.17 35.347 219.946 34.0841 237.126 37.2414C244.739 41.0062 255.229 41.5185 259.381 50.0966C268.567 68.623 278.652 86.6966 287.814 105.229C295.785 115.642 288.189 130.397 288.565 142.556C288.547 150.729 303.368 141.102 300.306 150.526C300.306 150.776 300.306 151.271 300.306 151.521C300.312 152.879 301.009 154.077 301.569 155.28L301.164 155.506C299.21 155.965 299.037 154.041 298.727 152.611C298.686 152.194 298.608 151.348 298.567 150.931C300.866 143.693 293.17 148.453 289.554 148.012C286.206 146.005 285.443 148.441 283.239 149.186C284.073 142.371 281.935 149.359 279.456 147.983C280.57 142.609 284.842 138.213 284.168 132.351C284.222 131.434 284.282 130.523 284.335 129.617C284.52 128.146 284.705 126.686 284.895 125.233C285.545 119.734 286.057 114.224 286.611 108.714C284.008 108.613 281.434 108.541 278.849 108.601C281.428 108.237 284.049 108.19 286.653 107.957C284.723 104.532 284.174 98.5154 278.944 99.6413C280.368 97.9197 281.792 95.9956 279.647 94.1608C275.924 86.7681 272.511 79.2086 268.233 72.1138C268.12 78.6725 268.102 85.2431 268.216 91.8078C266.53 81.8595 270.217 69.1711 261.865 60.718C261.621 59.9615 261.383 59.2109 261.121 58.4722C258.911 50.4422 252.078 45.2536 244.334 43.1388C239.604 41.8223 234.153 36.8542 229.501 40.0293C228.81 39.3442 228.262 38.26 227.142 38.3732C224.914 38.2839 222.71 38.1528 220.506 38.4208C219.964 38.5102 219.433 38.6055 218.903 38.7187C218.713 38.6174 218.325 38.4089 218.129 38.3077C207.543 37.6703 196.785 36.7886 186.134 37.3248C182.142 39.7493 178.723 44.0205 178.58 48.8755C177.156 67.938 176.573 87.0422 175.608 106.128C177.341 107.076 179.319 107.391 181.273 107.505C184.168 108.16 187.051 108.875 189.958 109.47C197.553 111.412 205.238 112.961 212.845 114.867C220.994 116.678 229.108 118.632 237.269 120.402C238.675 120.413 238.365 121.593 237.072 121.474C232.229 120.58 227.243 120.956 222.436 119.859C205.971 115.803 189.368 112.282 172.963 107.975C174.333 88.3586 175.042 68.6945 176.4 49.078Z" fill="#252825"/>
<path d="M186.134 37.3248C196.785 36.7886 207.543 37.6703 218.129 38.3077C207.668 38.5817 197.214 39.1953 186.771 39.7553C183.787 39.6361 182.881 42.71 181.761 44.9319C191.65 44.1396 201.509 42.9422 211.385 42.1083C219.285 41.0062 214.626 50.746 214.668 55.0887C215.15 59.616 209.944 58.8833 207.126 57.6919C206.566 53.4624 206.513 49.1852 206.09 44.9498C198.018 44.6758 189.958 45.5514 181.934 46.2603C179.909 65.3645 179.742 84.6713 178.193 103.829C190.25 101.833 202.343 99.957 214.358 97.7291C217.229 78.2019 214.555 57.9599 218.903 38.7187C219.433 38.6055 219.964 38.5102 220.506 38.4208C216.556 58.4841 218.308 79.6912 216.193 100.16C210.73 101.512 205.065 101.833 199.561 102.995C192.835 104.204 186.122 105.533 179.337 106.373C179.968 106.766 180.617 107.135 181.273 107.505C179.319 107.391 177.341 107.076 175.608 106.128C176.573 87.0422 177.156 67.938 178.58 48.8755C178.723 44.0205 182.142 39.7493 186.134 37.3248Z" fill="#3E413E"/>
<path d="M284.174 38.266C284.77 36.2465 286.635 37.8847 287.921 38.2421C293.104 40.4343 299.121 42.0249 302.051 47.3504C308.431 59.1811 314.49 71.1905 320.852 83.033C318.451 84.5878 315.139 85.2312 313.686 87.9179C314.055 90.9679 315.717 93.6962 317.26 96.3054C307.967 87.2805 300.693 74.449 292.479 64.1612C290.483 64.1195 288.422 64.3519 286.587 65.1799C288.255 68.5754 292.169 71.1429 291.353 75.4141C284.52 65.442 278.122 55.1542 270.39 45.8493C269.079 47.9641 272.016 49.8227 272.665 51.7051C278.795 62.3741 284.925 73.0729 290.519 84.0338C290.126 84.2543 289.339 84.6951 288.946 84.9155C281.881 71.9113 274.965 58.782 268.18 45.6229C272.153 44.366 275.15 41.5542 277.586 38.2838C279.486 39.7135 283.084 41.5423 284.174 38.266Z" fill="#101112"/>
<path d="M186.771 39.7553C197.214 39.1953 207.668 38.5817 218.129 38.3077C218.325 38.4089 218.713 38.6174 218.903 38.7187C214.555 57.9599 217.229 78.2019 214.358 97.7291C202.343 99.957 190.25 101.833 178.193 103.829C179.742 84.6713 179.909 65.3645 181.934 46.2603C189.958 45.5514 198.018 44.6758 206.09 44.9498C206.513 49.1852 206.566 53.4624 207.126 57.6919C209.944 58.8833 215.15 59.616 214.668 55.0887C214.626 50.746 219.285 41.0062 211.385 42.1083C201.509 42.9422 191.65 44.1396 181.761 44.9319C182.881 42.71 183.787 39.6361 186.771 39.7553Z" fill="#0C0C0C"/>
<path d="M220.506 38.4208C222.71 38.1528 224.914 38.2839 227.142 38.3732C222.406 50.5196 224.294 64.0718 222.626 76.7424C220.226 77.5824 219.803 80.5549 221.739 82.1395C221.995 89.3654 219.749 97.4908 222.418 104.461C221.149 106.557 218.182 102.554 216.812 105.074C217.277 106.742 219.35 108.368 218.54 110.132C216.634 110.62 214.4 110.954 215.669 113.396C214.245 112.663 212.857 111.883 211.451 111.132C217.188 112.872 212.678 107.588 212.082 105.652C209.015 105.956 203.838 105.819 202.122 107.975C203.177 113.932 212.273 110.179 212.845 114.867C205.238 112.961 197.553 111.412 189.958 109.47C193.437 108.464 207.013 108.213 199.561 102.995C205.065 101.833 210.73 101.512 216.193 100.16C218.308 79.6912 216.556 58.4841 220.506 38.4208Z" fill="#6C6C69"/>
<path d="M227.142 38.3732C228.262 38.26 228.81 39.3442 229.501 40.0293C225.575 51.1153 227.612 63.6429 225.873 75.2532C230.889 74.9196 237.239 73.4601 240.539 78.464C242.862 81.7047 242.541 86.0712 244.763 89.419C245.424 92.5584 240.182 101.428 239.961 93.3685C237.144 90.396 235.684 95.1973 237.293 97.6755C232.336 102.37 239.699 107.653 238.967 113.432C239.074 120.306 248.855 120.515 251.464 115.159C251.655 119.711 254.306 121.378 258.803 120.354C252.197 123.326 244.507 121.944 237.072 121.474C238.365 121.593 238.675 120.413 237.269 120.402C229.108 118.632 220.994 116.678 212.845 114.867C212.273 110.179 203.177 113.932 202.122 107.975C203.838 105.819 209.015 105.956 212.082 105.652C212.678 107.588 217.188 112.872 211.451 111.132C212.857 111.883 214.245 112.663 215.669 113.396C214.4 110.954 216.634 110.62 218.54 110.132C219.35 108.368 217.277 106.742 216.812 105.074C218.182 102.554 221.149 106.557 222.418 104.461C219.749 97.4908 221.995 89.3654 221.739 82.1395C219.803 80.5549 220.226 77.5824 222.626 76.7424C224.294 64.0718 222.406 50.5196 227.142 38.3732Z" fill="#4C4D4D"/>
<path d="M229.501 40.0293C234.153 36.8542 239.604 41.8223 244.334 43.1388C252.078 45.2536 258.911 50.4422 261.121 58.4722C260.811 71.3811 261.246 84.3079 260.936 97.2168C260.126 97.3597 259.316 97.4789 258.506 97.5623C255.986 97.4312 253.478 97.3716 250.976 97.2585C248.534 94.9412 246.568 92.2307 244.763 89.419C242.541 86.0712 242.862 81.7047 240.539 78.464C237.239 73.4601 230.889 74.9196 225.873 75.2532C227.612 63.6429 225.575 51.1153 229.501 40.0293Z" fill="#0B0B0B"/>
<path d="M313.93 54.5465C312.256 51.0497 306.013 45.057 309.694 42.2333C323.955 67.0682 336.567 93.0051 350.363 118.168C352.603 121.063 350.286 124.417 351.614 127.335C346.646 118.924 333.195 135.312 345.585 132.56C345.085 131.356 346.014 123.38 349.452 128.116C347.849 133.382 349.595 133.989 355.164 133.138C352.764 131.374 353.002 130.594 356.928 131.261C359.954 131.315 363.081 131.041 366.078 131.744C366.769 133.191 366.298 135.616 364.624 135.979C344.168 134.847 323.801 132.548 303.356 131.243C303.332 129.2 303.362 126.913 305.53 125.942C303.702 121.897 305 117.393 305.298 113.211C306.4 115.302 307.592 117.411 308.122 119.74C307.014 124.375 312.345 125.53 315.794 123.833C319.809 125.888 328.531 118.019 329.132 124.977C329.609 128.735 334.684 125.114 336.138 123.731C335.244 120.92 333.248 119.168 337.389 118.263C338.985 117.602 340.617 117.018 342.25 116.446C343.804 116.249 342.518 114.331 342.661 113.336C343.632 114.635 344.18 116.863 346.241 116.452C340.683 104.049 333.123 92.5405 327.411 80.1737C324.152 71.4347 319.398 62.4038 313.93 54.5465Z" fill="#64A65D"/>
<path d="M272.665 51.7051C272.016 49.8227 269.079 47.9641 270.39 45.8493C278.122 55.1542 284.52 65.442 291.353 75.4141C292.169 71.1429 288.255 68.5754 286.587 65.1799C288.422 64.3519 290.483 64.1195 292.479 64.1612C300.693 74.449 307.967 87.2805 317.26 96.3054C320.888 100.231 315.693 98.9622 312.959 99.3196C313.316 98.8907 313.68 98.4618 314.043 98.0448C314.913 98.1163 317.2 99.2779 316.17 97.5623C308.277 87.9119 301.867 76.8497 293.062 68.075C299.133 78.6428 307.997 87.4234 314.043 98.0448C306.376 89.008 299.913 79.024 292.627 69.7012C292.61 73.6091 293.098 77.7254 295.195 81.1149C297.846 80.3107 301.581 81.6034 300.092 85.261C297.31 89.139 299.841 93.0171 301.539 96.6807C301.813 97.6397 302.075 98.6048 302.331 99.5817C302.218 104.163 300.306 97.7291 299.127 96.4364C297.923 98.4558 300.759 100.559 300.658 102.804C299.18 100.737 298.698 97.4253 295.803 97.0083C295.987 94.405 295.064 92.7252 292.586 92.1235C295.707 90.7832 292.919 87.8523 291.585 86.1724C291.234 85.4516 290.876 84.7427 290.519 84.0338C284.925 73.0729 278.795 62.3741 272.665 51.7051Z" fill="#2F3233"/>
<path d="M327.411 80.1737C324.152 71.4347 319.398 62.4038 313.93 54.5465C318.076 63.2617 322.812 71.6849 327.411 80.1737Z" fill="#B0D4AA"/>
<path d="M261.121 58.4722C261.383 59.2109 261.621 59.9615 261.865 60.718C261.282 73.0789 261.83 85.4576 261.579 97.8303C260.811 97.7648 259.274 97.6278 258.506 97.5623C259.316 97.4789 260.126 97.3597 260.936 97.2168C261.246 84.3079 260.811 71.3811 261.121 58.4722Z" fill="#232422"/>
<path d="M261.865 60.718C270.217 69.1711 266.53 81.8595 268.216 91.8078C273.404 91.7899 268.222 101.107 274.107 99.1171C277.628 100.142 277.789 95.9479 279.647 94.1608C281.792 95.9956 280.368 97.9197 278.944 99.6413C284.174 98.5154 284.723 104.532 286.653 107.957C284.049 108.19 281.428 108.237 278.849 108.601C272.04 107.427 265.291 119.877 272.648 122.999C268.966 125.453 263.361 123.076 259.072 122.832C259.977 119.639 265.017 122.254 265.023 119.693C262.556 120.515 261.317 114.933 262.634 116.547C266.923 124.78 265.314 102.501 261.639 112.467C256.981 103.853 276.966 107.957 268.192 106.319C257.392 105.706 279.522 105.67 268.781 105.08C266.035 106.099 261.8 103.144 259.739 105.473C257.41 105.306 255.086 105.14 252.775 105.026C252.543 102.364 252.179 99.6711 250.976 97.2585C253.478 97.3716 255.986 97.4312 258.506 97.5623C259.274 97.6278 260.811 97.7648 261.579 97.8303C261.83 85.4576 261.282 73.0789 261.865 60.718Z" fill="#414540"/>
<path d="M293.062 68.075C301.867 76.8497 308.277 87.9119 316.17 97.5623C317.2 99.2779 314.913 98.1163 314.043 98.0448C307.997 87.4234 299.133 78.6428 293.062 68.075Z" fill="#121415"/>
<path d="M292.627 69.7012C299.913 79.024 306.376 89.008 314.043 98.0448C313.68 98.4618 313.316 98.8907 312.959 99.3196C311.1 100.356 308.914 100.261 306.859 100.428C305.197 99.0277 303.332 97.8602 301.539 96.6807C299.841 93.0171 297.31 89.139 300.092 85.261C301.581 81.6034 297.846 80.3107 295.195 81.1149C293.098 77.7254 292.61 73.6091 292.627 69.7012Z" fill="#111213"/>
<path d="M268.233 72.1138C272.511 79.2086 275.924 86.7681 279.647 94.1608C277.789 95.9479 277.628 100.142 274.107 99.1171C268.222 101.107 273.404 91.7899 268.216 91.8078C268.102 85.2431 268.12 78.6725 268.233 72.1138Z" fill="#0B0C0B"/>
<path d="M63.1924 82.6935C57.6583 83.8849 62.2989 78.8155 65.1404 79.3039C69.632 81.5616 74.618 77.4037 79.1215 80.2869C88.7957 86.095 98.5951 91.7422 108.21 97.6516C109.86 99.1647 110.646 101.297 111.474 103.323C110.283 103.18 109.264 102.501 108.49 101.625C103.057 94.7684 93.3469 91.635 86.0734 86.4286C82.5468 84.6474 79.3777 81.3531 75.2554 81.234C71.3476 85.5946 67.4815 92.6179 60.7917 92.5464C60.196 88.7995 67.6959 85.8448 63.1924 82.6935Z" fill="#3A3A37"/>
<path d="M320.852 83.033C322.967 82.5863 323.151 83.6704 322.252 85.3384C320.226 86.4285 314.246 86.8635 316.42 90.2054C319.821 94.834 320.018 104.985 328.262 102.125C329.537 102.107 328.733 99.9153 329.055 99.0098C331.312 102.161 333.493 105.36 334.297 109.262C331.658 109.232 329.037 108.851 326.416 108.696C330.228 111.728 331.551 120.497 337.389 118.263C333.248 119.168 335.244 120.92 336.138 123.731C331.295 117.888 327.947 110.733 322.276 105.575C323.3 107.85 325.022 109.804 325.457 112.33C322.091 109.351 320.077 105.181 316.873 102.048C317.325 104.925 320.042 106.677 321.174 109.28C319.327 109.244 317.558 109.321 315.741 109.298C312.637 106.48 309.706 103.484 306.859 100.428C308.914 100.261 311.1 100.356 312.959 99.3196C315.693 98.9622 320.888 100.231 317.26 96.3054C315.717 93.6962 314.055 90.9679 313.686 87.9179C315.139 85.2312 318.451 84.5878 320.852 83.033Z" fill="#585F63"/>
<path d="M316.42 90.2054C314.246 86.8635 320.226 86.4285 322.252 85.3384C324.063 90.1159 327.148 94.268 329.055 99.0098C328.733 99.9153 329.537 102.107 328.262 102.125C320.018 104.985 319.821 94.834 316.42 90.2054Z" fill="#101212"/>
<path d="M291.585 86.1724C289.006 87.7451 291.484 90.4019 292.586 92.1235C295.707 90.7832 292.919 87.8523 291.585 86.1724Z" fill="#171C19"/>
<path d="M239.961 93.3685C240.182 101.428 245.424 92.5584 244.763 89.419C246.568 92.2307 248.534 94.9412 250.976 97.2585C252.179 99.6711 252.543 102.364 252.775 105.026C252.942 108.464 252.322 111.847 251.464 115.159C248.855 120.515 239.074 120.306 238.967 113.432C239.699 107.653 232.336 102.37 237.293 97.6755C235.684 95.1973 237.144 90.396 239.961 93.3685Z" fill="#686A6D"/>
<path d="M66.2067 93.7617C71.151 92.8205 76.828 96.0909 78.228 100.928C78.4424 102.096 78.6211 103.275 78.7343 104.466C78.7283 104.925 78.7224 105.843 78.7164 106.307C79.2585 114.212 79.8721 122.129 79.9436 130.064C74.8622 133.167 72.4258 126.966 66.999 128.724C65.3489 125.143 66.2543 119.967 63.7464 116.41C61.3993 116.494 59.916 117.792 60.8215 120.545C59.9577 116.434 60.1364 110.012 59.7433 104.949C59.0165 108.208 61.864 109.399 64.36 109.56C68.2142 108.559 64.5387 115.41 68.3988 116.065C76.6672 118.239 73.2479 106.397 72.2948 101.941C70.3885 99.0456 64.777 98.7775 66.2067 93.7617Z" fill="#2B3827"/>
<path d="M300.658 102.804C300.759 100.559 297.923 98.4558 299.127 96.4364C300.306 97.7291 302.218 104.163 302.331 99.5817C303.142 102.501 304.518 105.199 305.673 107.981C307.038 112.038 308.801 115.952 309.951 120.086C311.059 122.796 308.902 121.283 308.122 119.74C307.592 117.411 306.4 115.302 305.298 113.211C305 117.393 303.702 121.897 305.53 125.942C303.362 126.913 303.332 129.2 303.356 131.243C303.112 133.227 302.897 135.264 302.564 137.248C299.734 142.288 310.755 135.127 308.098 142.037C307.341 144.271 309.504 150.937 305.179 149.752C305.06 147.101 305.131 144.48 304.994 141.853C303.35 144.539 302.099 147.446 300.842 150.336L300.306 150.526C303.368 141.102 288.547 150.729 288.565 142.556C288.189 130.397 295.785 115.642 287.814 105.229C290.447 105.485 293.068 104.949 295.713 105.044C297.512 104.895 301.664 105.664 300.658 102.804Z" fill="#3B433F"/>
<path d="M301.539 96.6807C303.332 97.8602 305.197 99.0277 306.859 100.428C309.706 103.484 312.637 106.48 315.741 109.298C317.85 111.383 318.952 114.212 320.768 116.535C321.072 116.946 321.394 117.357 321.728 117.763C320.399 119.848 314.8 119.52 318.356 122.957C317.498 123.243 316.646 123.547 315.794 123.833C312.345 125.53 307.014 124.375 308.122 119.74C308.902 121.283 311.059 122.796 309.951 120.086C317.623 118.835 307.943 111.329 305.673 107.981C304.518 105.199 303.142 102.501 302.331 99.5817C302.075 98.6048 301.813 97.6397 301.539 96.6807Z" fill="#E1E6EA"/>
<path d="M78.228 100.928C87.1695 100.761 95.968 97.2882 104.85 99.7961C105.541 100.541 106.214 101.309 106.852 102.113C97.4334 100.886 88.0094 102.983 78.7343 104.466C78.6211 103.275 78.4424 102.096 78.228 100.928Z" fill="#457C3A"/>
<path d="M104.85 99.7961C106.44 99.3494 107.471 100.654 108.49 101.625C109.264 102.501 110.283 103.18 111.474 103.323C126.766 105.801 142.212 108.446 157.188 112.407C158.702 113.849 162.83 115.207 160.107 117.465C132.604 118.9 105.678 110.763 78.7164 106.307C78.7224 105.843 78.7283 104.925 78.7343 104.466C88.0094 102.983 97.4334 100.886 106.852 102.113C106.214 101.309 105.541 100.541 104.85 99.7961Z" fill="#5FA361"/>
<path d="M59.7433 104.949C61.7687 102.018 68.4286 103.156 72.2948 101.941C73.2479 106.397 76.6672 118.239 68.3988 116.065C64.5387 115.41 68.2142 108.559 64.36 109.56C61.864 109.399 59.0165 108.208 59.7433 104.949Z" fill="#496841"/>
<path d="M316.873 102.048C320.077 105.181 322.091 109.351 325.457 112.33C325.022 109.804 323.3 107.85 322.276 105.575C327.947 110.733 331.295 117.888 336.138 123.731C334.684 125.114 329.609 128.735 329.132 124.977C328.531 118.019 319.809 125.888 315.794 123.833C316.646 123.547 317.498 123.243 318.356 122.957C321.34 122.344 324.474 121.986 327.178 120.479C326.261 117.733 324.998 115.052 323.229 112.753C322.764 114.427 322.335 116.124 321.728 117.763C321.394 117.357 321.072 116.946 320.768 116.535C322.621 114.558 322.538 111.508 321.174 109.28C320.042 106.677 317.325 104.925 316.873 102.048Z" fill="#303433"/>
<path d="M179.337 106.373C186.122 105.533 192.835 104.204 199.561 102.995C207.013 108.213 193.437 108.464 189.958 109.47C187.051 108.875 184.168 108.16 181.273 107.505C180.617 107.135 179.968 106.766 179.337 106.373Z" fill="#AEB1B0"/>
<path d="M259.739 105.473C261.8 103.144 266.035 106.099 268.781 105.08C279.522 105.67 257.392 105.706 268.192 106.319C276.966 107.957 256.981 103.853 261.639 112.467C265.314 102.501 266.923 124.78 262.634 116.547C261.317 114.933 262.556 120.515 265.023 119.693C265.017 122.254 259.977 119.639 259.072 122.832C263.361 123.076 268.966 125.453 272.648 122.999C276.49 124.881 280.821 124.315 284.895 125.233C284.705 126.686 284.52 128.146 284.335 129.617C245.847 125.167 207.079 123.1 168.554 119.008C163.896 119.752 165.201 116.762 167.637 115.797C165.88 119.014 171.837 118.686 172.081 116.381C188.886 117.077 205.607 119.633 222.436 119.859C227.243 120.956 232.229 120.58 237.072 121.474C244.507 121.944 252.197 123.326 258.803 120.354C260.704 117.101 260.114 110.001 259.739 105.473Z" fill="#60915F"/>
<path d="M252.775 105.026C255.086 105.14 257.41 105.306 259.739 105.473C260.114 110.001 260.704 117.101 258.803 120.354C254.306 121.378 251.655 119.711 251.464 115.159C252.322 111.847 252.942 108.464 252.775 105.026Z" fill="#0C0D0C"/>
<path d="M309.951 120.086C317.623 118.835 307.943 111.329 305.673 107.981C307.038 112.038 308.801 115.952 309.951 120.086Z" fill="#8F9497"/>
<path d="M272.648 122.999C265.291 119.877 272.04 107.427 278.849 108.601C281.434 108.541 284.008 108.613 286.611 108.714C286.057 114.224 285.545 119.734 284.895 125.233C280.821 124.315 276.49 124.881 272.648 122.999Z" fill="#0B0C0B"/>
<path d="M315.741 109.298C317.558 109.321 319.327 109.244 321.174 109.28C322.538 111.508 322.621 114.558 320.768 116.535C318.952 114.212 317.85 111.383 315.741 109.298Z" fill="#191B1D"/>
<path d="M167.637 115.797C169.466 108.595 161.585 113.926 167.637 115.797Z" fill="#060905"/>
<path d="M323.229 112.753C324.998 115.052 326.261 117.733 327.178 120.479C324.474 121.986 321.34 122.344 318.356 122.957C314.8 119.52 320.399 119.848 321.728 117.763C322.335 116.124 322.764 114.427 323.229 112.753Z" fill="#85A883"/>
<path d="M60.8215 120.545C59.916 117.792 61.3993 116.494 63.7464 116.41C66.2543 119.967 65.3489 125.143 66.999 128.724C72.4258 126.966 74.8622 133.167 79.9436 130.064C91.6372 127.747 103.587 125.709 115.459 128.324C108.234 131.875 98.9048 131.494 91.0237 134.055C103.426 136.724 115.906 131.946 128.464 135.163C153.531 141.638 179.551 146.07 204.035 153.624C199.668 159.498 198.721 167.879 194.896 174.182C179.813 179.197 164.075 182.152 148.747 186.37C139.21 188.413 127.975 194.513 119.856 186.173C119.927 182.956 117.02 180.919 115.894 178.137C112.535 169.904 114.137 160.754 111.855 152.373C107.65 149.71 101.216 151.009 98.327 155.351C99.0478 146.791 89.7012 139.857 82.0941 144.367C86.8597 147.47 89.4808 152.522 91.9172 157.448C102.67 177.845 113.505 198.2 124.282 218.585C126.432 222.112 127.493 226.687 131.174 228.945C154.311 232.686 177.484 236.343 200.663 239.894C204.106 240.918 208.8 240.013 211.183 243.277C189.607 241.508 168.268 237.225 146.835 234.145C139.71 232.138 128.893 234.556 125.199 226.508C123.621 223.75 122.221 220.873 120.261 218.365C112.809 205.694 105.702 192.726 99.0716 179.573C93.2099 169.452 88.9923 157.77 81.135 149.138C67.8091 145.713 53.6135 145.951 40.0613 143.145C37.8929 140.792 41.3063 138.04 43.6117 137.754C55.8474 141.317 69.0005 140.423 81.8439 142.014C76.1251 138.255 64.7413 143.181 60.756 137.528C68.1785 136.855 75.5771 138.255 82.9459 138.916C77.3582 136.128 68.0236 137.802 61.2385 135.652C59.5408 133.179 63.5618 133.364 65.0868 132.876C62.1857 131.464 61.036 128.908 61.0896 125.739C60.893 123.982 60.7858 122.284 60.8215 120.545Z" fill="#457C3D"/>
<path d="M388.059 129.909C387.362 125.197 386.26 116.107 393.867 117.584C403.059 115.141 396.673 124.828 395.208 129.045C393.146 129.063 391.371 130.808 389.227 131.017C388.834 130.642 388.44 130.272 388.059 129.909Z" fill="#416735"/>
<path d="M366.078 131.744C363.999 125.286 369.956 122.892 375.406 124.089C379.666 123.684 375.77 128.664 376.294 130.785C371.052 137.236 380.535 138.785 385.581 136.372C391.276 136.48 397.013 137.194 402.672 137.999C409.475 142.401 413.948 149.674 421.043 153.683C420.757 157.984 422.562 162.78 421.103 166.914C418.952 167.879 418.374 165.723 418.315 163.84C418.541 171.596 419.614 179.352 421.055 186.965C423.134 179.197 417.856 164.37 428.972 162.184C429.032 173.175 429.234 184.243 430.009 195.174C430.813 199.386 435.304 198.784 438.08 196.931C438.307 196.943 438.765 196.961 438.992 196.973C441.249 197.152 443.519 197.342 445.801 197.545C440.433 200.47 435.316 203.806 430.02 206.85C431.057 206.868 433.13 206.898 434.167 206.91C431.742 215.345 433.952 224.316 433.934 232.942C424.617 232.954 414.681 232.942 407.985 240.537C405.71 240.156 403.101 239.125 402.213 236.814C406.246 233.74 410.684 228.623 416.337 230.887C418.124 232.239 422.812 231.345 422.258 228.694C417.451 228.992 414.616 221.272 419.989 220.009C423.861 220.36 424.034 210.948 419.816 213.915C413.079 216.369 417.01 203.091 414.86 201.203C410.761 208.333 413.543 217.888 410.672 225.555C409.415 226.889 407.116 227.104 406.109 225.352C406.419 220.855 407.247 216.423 407.521 211.925C409.361 206.85 406.282 195.442 414.645 198.588C413.031 186.286 412.811 173.753 410.064 161.63C411.655 165.931 419.828 164.15 417.296 159.152C415.247 155.608 410.142 157.198 409.981 161.142C404.882 157.001 400.783 168.123 397.674 171.346C397.364 177.607 388.637 168.874 390.716 174.92C391.002 179.001 385.277 173.056 383.27 175.516C379.32 178.179 379.189 171.703 379.284 168.945C375.466 168.904 370.623 166.622 367.859 170.363C367.507 174.372 367.65 178.405 367.609 182.444C365.851 186.161 368.776 188.86 368.723 192.44C367.215 194.87 371.219 193.721 372.708 194.34C367.805 195.782 377.193 197.658 377.42 200.762C377.462 208.202 378.272 215.857 381.357 222.755C382.698 216.31 386.099 224.924 383.794 227.616C381.626 226.151 377.64 227.461 377.11 230.017C375.817 231.637 373.691 231.387 371.82 231.369C369.741 227.199 375.412 226.032 375.394 222.571C371.636 220.76 366.644 223.69 366.376 227.848C362.623 227.384 365.631 222.535 362.754 220.777C360.675 216.834 354.819 223.071 353.383 218.818C352.484 214.844 350.595 211.085 350.399 206.969C355.796 208.536 360.8 206.826 365.726 204.89C370.105 203.717 360.55 202.93 365.428 200.69C364.624 197.902 367.031 198.927 368.854 199.159C370.677 194.698 367.615 195.758 365.303 196.097C361.854 191.272 369.223 184.66 363.701 180.681C364.189 185.923 356.928 191.058 352.859 187.18C350.738 180.645 353.175 173.169 352.245 166.396C349.928 163.81 345.145 165.246 341.976 165.091C341.66 164.752 341.344 164.418 341.028 164.096C334.762 160.528 326.189 163.578 319.833 159.438C318.439 158.61 316.688 158.258 315.771 159.909C315.842 159.003 316.009 158.121 316.289 157.264C331.211 158.485 346.098 160.212 361.026 161.362C364.517 153.88 351.465 157.919 348.07 156.179C347.11 155.947 346.134 155.828 345.157 155.804C330.359 154.291 315.538 152.975 300.729 151.688L300.306 151.521C300.306 151.271 300.306 150.776 300.306 150.526L300.842 150.336C302.594 149.996 302.88 147.905 303.743 146.624C301.986 152.522 309.099 150.616 312.286 151.402C317.468 150.616 327.923 156.942 326.082 147.333C329.722 154.732 338.223 153.928 345.168 153.916C342.833 151.235 334.452 155.619 336.054 149.746C337.037 147.208 333.636 139.821 338.967 141.424C339.015 143.622 339.11 148.024 339.152 150.222C344.811 146.303 348.213 157.133 346.938 148.763C340.194 152.623 339.611 146.041 340.069 140.965C328.721 139.792 314.931 138.696 302.564 137.248C302.897 135.264 303.112 133.227 303.356 131.243C323.801 132.548 344.168 134.847 364.624 135.979C366.298 135.616 366.769 133.191 366.078 131.744ZM361.151 145.028C360.544 147.828 362.182 151.616 359.727 153.755C356.529 155.846 352.537 152.861 349.047 153.916C351.799 155.899 355.849 155.125 359.108 155.542C363.629 154.357 361.61 147.16 361.151 145.028Z" fill="#3B6730"/>
<path d="M121.303 128.068C138.525 122.713 156.289 126.12 173.66 128.646C198.375 133.394 223.216 137.516 247.872 142.586C249.624 143.854 258.494 144.277 253.734 146.07C243.577 149.817 232.896 152.236 222.537 155.113C240.837 159.402 259.22 163.638 277.175 169.333C280.833 171.477 284.627 170.286 288.136 168.767C289.309 170.875 293.855 171.602 293.396 173.83C282.923 176.755 273.315 169.928 263.474 167.551C244.185 160.76 223.967 157.764 204.035 153.624C179.551 146.07 153.531 141.638 128.464 135.163C115.906 131.946 103.426 136.724 91.0237 134.055C98.9048 131.494 108.234 131.875 115.459 128.324C117.407 128.61 119.409 128.67 121.303 128.068Z" fill="#60A65F"/>
<path d="M345.585 132.56C333.195 135.312 346.646 118.924 351.614 127.335C352.77 129.831 354.753 130.916 356.928 131.261C353.002 130.594 352.764 131.374 355.164 133.138C349.595 133.989 347.849 133.382 349.452 128.116C346.014 123.38 345.085 131.356 345.585 132.56Z" fill="#3D7131"/>
<path d="M61.0896 125.739C61.036 128.908 62.1857 131.464 65.0868 132.876C63.5618 133.364 59.5408 133.179 61.2385 135.652C68.0236 137.802 77.3582 136.128 82.9459 138.916C75.5771 138.255 68.1785 136.855 60.756 137.528C64.7413 143.181 76.1251 138.255 81.8439 142.014C69.0005 140.423 55.8474 141.317 43.6117 137.754C39.3345 124.256 62.7218 135.681 61.0896 125.739Z" fill="#384038"/>
<path d="M376.294 130.785C380.124 129.986 384.151 128.962 388.059 129.909C388.44 130.272 388.834 130.642 389.227 131.017C381.703 132.941 391.854 133.989 395.118 131.994C400.795 133.382 406.949 132.977 412.531 134.103C415.622 141.716 422.27 146.523 429.466 150.02C430.598 156.817 428.162 164.192 431.557 170.536C433.75 169.642 439.313 170.119 436.412 173.407C433.023 177.375 439.838 176.547 436.823 178.405C432.796 184.189 438.545 190.385 438.08 196.931C435.304 198.784 430.813 199.386 430.009 195.174C429.234 184.243 429.032 173.175 428.972 162.184C417.856 164.37 423.134 179.197 421.055 186.965C419.614 179.352 418.541 171.596 418.315 163.84C418.374 165.723 418.952 167.879 421.103 166.914C422.562 162.78 420.757 157.984 421.043 153.683C413.948 149.674 409.475 142.401 402.672 137.999C397.013 137.194 391.276 136.48 385.581 136.372C380.535 138.785 371.052 137.236 376.294 130.785Z" fill="#60A156"/>
<path d="M265.898 131.994C271.599 129.432 278.331 130.88 284.168 132.351C284.842 138.213 280.57 142.609 279.456 147.983C281.935 149.359 284.073 142.371 283.239 149.186C285.443 148.441 286.206 146.005 289.554 148.012C288.475 153.344 295.737 150.526 298.567 150.931C298.608 151.348 298.686 152.194 298.727 152.611C298.662 153.082 298.525 154.029 298.453 154.5C283.62 151.765 268.984 145.35 253.734 146.07C258.494 144.277 249.624 143.854 247.872 142.586C253.079 142.901 258.083 144.605 263.295 144.98C264.034 140.649 262.163 135.145 265.898 131.994Z" fill="#598859"/>
<path d="M302.564 137.248C314.931 138.696 328.721 139.792 340.069 140.965C339.611 146.041 340.194 152.623 346.938 148.763C348.213 157.133 344.811 146.303 339.152 150.222C339.11 148.024 339.015 143.622 338.967 141.424C333.636 139.821 337.037 147.208 336.054 149.746C334.452 155.619 342.833 151.235 345.168 153.916C338.223 153.928 329.722 154.732 326.082 147.333C327.923 156.942 317.468 150.616 312.286 151.402C309.099 150.616 301.986 152.522 303.743 146.624C302.88 147.905 302.594 149.996 300.842 150.336C302.099 147.446 303.35 144.539 304.994 141.853C305.131 144.48 305.06 147.101 305.179 149.752C309.504 150.937 307.341 144.271 308.098 142.037C310.755 135.127 299.734 142.288 302.564 137.248ZM309.933 139.053C309.682 142.764 309.855 146.487 309.927 150.216C313.465 150.461 317.01 151.08 320.578 150.943C321.662 146.565 315.276 149.162 312.864 147.911C312.065 144.194 318.052 147.113 319.994 146.136C320.84 142.395 314.686 144.903 312.875 143.699C312.286 139.994 318.594 143.038 320.62 141.966C320.667 137.093 313.042 140.244 309.933 139.053ZM322.49 140.232C321.573 143.938 321.662 147.756 321.805 151.545C329.007 153.94 320.328 140.536 327.738 143.175C334.547 142.437 329.924 147.971 325.832 145.636C328.679 147.923 329.972 153.124 334.368 152.182C333.135 150.193 329.734 147.935 333.534 147.19C337.663 139.583 326.898 139.941 322.49 140.232Z" fill="#8C9E8F"/>
<path d="M309.933 139.053C313.042 140.244 320.667 137.093 320.62 141.966C318.594 143.038 312.286 139.994 312.875 143.699C314.686 144.903 320.84 142.395 319.994 146.136C318.052 147.113 312.065 144.194 312.864 147.911C315.276 149.162 321.662 146.565 320.578 150.943C317.01 151.08 313.465 150.461 309.927 150.216C309.855 146.487 309.682 142.764 309.933 139.053Z" fill="#1A6D3F"/>
<path d="M322.49 140.232C326.898 139.941 337.663 139.583 333.534 147.19C329.734 147.935 333.135 150.193 334.368 152.182C329.972 153.124 328.679 147.923 325.832 145.636C329.924 147.971 334.547 142.437 327.738 143.175C320.328 140.536 329.007 153.94 321.805 151.545C321.662 147.756 321.573 143.938 322.49 140.232Z" fill="#1C6E40"/>
<path d="M40.0613 143.145C53.6135 145.951 67.8091 145.713 81.135 149.138C88.9923 157.77 93.2099 169.452 99.0716 179.573C96.5697 178.298 92.9716 176.672 93.4601 173.33C94.1571 169.678 88.8493 169.315 87.1397 171.876C81.7486 174.765 79.8125 164.478 74.6657 167.724C72.9858 168.755 73.7125 169.91 75.178 170.673C73.5517 170.601 71.2046 171.942 70.5851 169.827C69.4473 166.515 65.331 169.785 63.0792 167.819C63.1507 161.237 62.8231 154.619 61.9295 148.096C54.9538 145.957 45.4107 148.483 40.0613 143.145Z" fill="#233C19"/>
<path d="M82.0941 144.367C89.7012 139.857 99.0478 146.791 98.327 155.351C99.7924 168.57 108.585 179.573 119.856 186.173C127.975 194.513 139.21 188.413 148.747 186.37C164.075 182.152 179.813 179.197 194.896 174.182C198.721 167.879 199.668 159.498 204.035 153.624C203.588 157.27 202.921 160.891 202.629 164.561C208.669 166.491 214.733 168.356 220.756 170.327C226.892 169.13 233.307 169.958 239.401 169.035C242.66 170.983 249.248 167.605 249.481 172.686C265.803 178.197 284.937 175.272 301.092 182.438C288.219 180.901 275.376 178.959 262.443 177.964C259.393 178.292 261.865 181.878 263.885 181.163C268.49 179.162 273.523 181.425 278.313 181.455C275.173 186.566 272.54 194.108 266.411 196.264C266.446 194.06 266.857 191.874 266.977 189.694C255.468 188.347 249.004 200.494 243.542 208.524C237.388 218.8 230.043 228.426 224.622 239.089C223.026 241.83 226.82 240.888 228.595 241.472C223.627 243.599 218.862 246.965 213.393 247.37C202.438 245.982 191.638 243.378 180.617 242.521C177.99 242.038 174.494 244.909 173.29 241.442C166.898 239.03 159.398 239.054 152.584 237.821C149.546 236.296 145.775 241.341 144.095 236.856C138.668 234.008 130.763 236.004 126.295 230.708C124.204 226.633 121.643 222.755 120.261 218.365C122.221 220.873 123.621 223.75 125.199 226.508C128.893 234.556 139.71 232.138 146.835 234.145C168.268 237.225 189.607 241.508 211.183 243.277C208.8 240.013 204.106 240.918 200.663 239.894C177.484 236.343 154.311 232.686 131.174 228.945C127.493 226.687 126.432 222.112 124.282 218.585C113.505 198.2 102.67 177.845 91.9172 157.448C89.4808 152.522 86.8597 147.47 82.0941 144.367ZM238.633 170.869C232.05 171.12 225.51 171.805 218.927 171.924C216.729 173.014 217.742 175.891 217.497 177.756C217.932 190.23 216.264 202.638 217.021 215.124C218.182 215.762 220.041 216.536 220.988 215.16C229.018 201.643 237.71 188.502 245.68 174.932C248.206 169.827 241.528 170.077 238.633 170.869ZM195.051 211.765C192.907 215.696 196.821 222.451 194.277 225.96C188.362 224.495 192.871 229.278 194.158 230.922C195.576 232.882 197.702 228.891 198.59 231.226C199.894 232.781 199.191 236.653 201.985 236.147C201.86 232.656 203.915 226.812 198.864 226.794C194.843 223.875 201.991 211.121 195.051 211.765ZM206.441 213.051C200.359 215.601 202.766 225.65 208.639 227.229C219.159 228.402 215.984 210.102 206.441 213.051ZM202.694 230.773C199.745 238.577 210.069 237.916 214.453 237.225C218.385 229.922 206.924 231.625 202.694 230.773Z" fill="#3C6D2E"/>
<path d="M361.151 145.028C361.61 147.16 363.629 154.357 359.108 155.542C355.849 155.125 351.799 155.899 349.047 153.916C352.537 152.861 356.529 155.846 359.727 153.755C362.182 151.616 360.544 147.828 361.151 145.028Z" fill="#88988A"/>
<path d="M253.734 146.07C268.984 145.35 283.62 151.765 298.453 154.5C298.525 154.029 298.662 153.082 298.727 152.611C299.037 154.041 299.21 155.965 301.164 155.506C295.868 158.151 302.379 157.639 305.34 157.734C309.081 157.448 313.102 153.63 316.628 156.126C316.545 156.412 316.372 156.984 316.289 157.264C316.009 158.121 315.842 159.003 315.771 159.909C317.671 165.27 314.734 167.766 310.26 168.749C307.973 171.471 306.001 171.96 303.398 169.839C301.486 176.999 299.139 168.391 298.293 165.258C294.736 165.794 291.412 167.343 288.136 168.767C284.627 170.286 280.833 171.477 277.175 169.333C259.22 163.638 240.837 159.402 222.537 155.113C232.896 152.236 243.577 149.817 253.734 146.07Z" fill="#41494A"/>
<path d="M298.567 150.931C300.866 143.693 293.17 148.453 289.554 148.012C288.475 153.344 295.737 150.526 298.567 150.931Z" fill="#4E784B"/>
<path d="M98.327 155.351C101.216 151.009 107.65 149.71 111.855 152.373C114.137 160.754 112.535 169.904 115.894 178.137C117.02 180.919 119.927 182.956 119.856 186.173C108.585 179.573 99.7924 168.57 98.327 155.351ZM106.393 162.488C100.632 161.904 103.539 172.907 104.927 167.146C111.266 171.632 113.023 160.254 106.393 162.488Z" fill="#57944C"/>
<path d="M300.306 151.521L300.729 151.688C302.051 153.094 304.315 152.665 306.055 153.243C304.786 154.363 303.142 154.786 301.569 155.28C301.009 154.077 300.312 152.879 300.306 151.521Z" fill="#454C3E"/>
<path d="M300.729 151.688C315.538 152.975 330.359 154.291 345.157 155.804C332.105 156.793 319.106 153.672 306.055 153.243C304.315 152.665 302.051 153.094 300.729 151.688Z" fill="#95A490"/>
<path d="M306.055 153.243C319.106 153.672 332.105 156.793 345.157 155.804C346.134 155.828 347.11 155.947 348.07 156.179C351.316 159.271 360.704 155.006 360.514 160.409C345.854 159.337 331.205 158.014 316.628 156.126C313.102 153.63 309.081 157.448 305.34 157.734C302.379 157.639 295.868 158.151 301.164 155.506L301.569 155.28C303.142 154.786 304.786 154.363 306.055 153.243Z" fill="#578B45"/>
<path d="M204.035 153.624C223.967 157.764 244.185 160.76 263.474 167.551C273.315 169.928 282.923 176.755 293.396 173.83C293.855 171.602 289.309 170.875 288.136 168.767C291.412 167.343 294.736 165.794 298.293 165.258C299.139 168.391 301.486 176.999 303.398 169.839C306.001 171.96 307.973 171.471 310.26 168.749C315.24 175.349 301.259 173.425 299.764 177.774C301.331 180.46 306.245 180.067 309.164 180.031C318.058 177.089 326.666 173.294 335.429 169.952C337.925 168.874 340.141 166.682 341.028 164.096C341.344 164.418 341.66 164.752 341.976 165.091C341.904 172.627 333.082 175.659 326.702 175.653C324.218 178.643 329.353 178.161 331.33 177.94C331.61 183.993 330.586 190.021 330.729 196.074C327.941 193.131 333.29 183.367 328.382 183.123C327.947 188.604 330.324 196.354 324.081 199.213C321.168 199.279 319.78 195.925 317.516 194.519C317.427 187.996 319.732 181.64 324.295 176.892C316.563 177.881 309.444 184.606 301.092 182.438C284.937 175.272 265.803 178.197 249.481 172.686C249.248 167.605 242.66 170.983 239.401 169.035C233.307 169.958 226.892 169.13 220.756 170.327C214.733 168.356 208.669 166.491 202.629 164.561C202.921 160.891 203.588 157.27 204.035 153.624Z" fill="#4A8640"/>
<path d="M316.628 156.126C331.205 158.014 345.854 159.337 360.514 160.409C360.704 155.006 351.316 159.271 348.07 156.179C351.465 157.919 364.517 153.88 361.026 161.362C346.098 160.212 331.211 158.485 316.289 157.264C316.372 156.984 316.545 156.412 316.628 156.126Z" fill="#90A289"/>
<path d="M409.981 161.142C410.142 157.198 415.247 155.608 417.296 159.152C419.828 164.15 411.655 165.931 410.064 161.63L409.981 161.142Z" fill="#767A75"/>
<path d="M315.771 159.909C316.688 158.258 318.439 158.61 319.833 159.438C326.189 163.578 334.762 160.528 341.028 164.096C340.141 166.682 337.925 168.874 335.429 169.952C326.666 173.294 318.058 177.089 309.164 180.031C306.245 180.067 301.331 180.46 299.764 177.774C301.259 173.425 315.24 175.349 310.26 168.749C314.734 167.766 317.671 165.27 315.771 159.909Z" fill="#5EA357"/>
<path d="M397.674 171.346C400.783 168.123 404.882 157.001 409.981 161.142L410.064 161.63C412.811 173.753 413.031 186.286 414.645 198.588C406.282 195.442 409.361 206.85 407.521 211.925C402.064 203.157 396.405 193.745 386.671 189.164C381.22 184.487 373.852 185.25 367.609 182.444C367.65 178.405 367.507 174.372 367.859 170.363C370.623 166.622 375.466 168.904 379.284 168.945C379.189 171.703 379.32 178.179 383.27 175.516C385.277 173.056 391.002 179.001 390.716 174.92C388.637 168.874 397.364 177.607 397.674 171.346Z" fill="#283324"/>
<path d="M104.927 167.146C111.266 171.632 113.023 160.254 106.393 162.488C100.632 161.904 103.539 172.907 104.927 167.146Z" fill="#E5F1E3"/>
<path d="M341.976 165.091C345.145 165.246 349.928 163.81 352.245 166.396C353.175 173.169 350.738 180.645 352.859 187.18C356.928 191.058 364.189 185.923 363.701 180.681C369.223 184.66 361.854 191.272 365.303 196.097C367.615 195.758 370.677 194.698 368.854 199.159C367.031 198.927 364.624 197.902 365.428 200.69C360.55 202.93 370.105 203.717 365.726 204.89C360.8 206.826 355.796 208.536 350.399 206.969C345.681 202.686 337.675 210.108 336.007 201.709C341.422 204.092 340.099 195.835 345.627 198.093C350.816 199.207 357.392 198.391 353.818 191.564C346.277 191.755 338.86 190.313 331.384 189.688C331.324 191.356 331.205 194.692 331.146 196.36L330.729 196.074C330.586 190.021 331.61 183.993 331.33 177.94C329.353 178.161 324.218 178.643 326.702 175.653C333.082 175.659 341.904 172.627 341.976 165.091Z" fill="#25431D"/>
<path d="M74.6657 167.724C79.8125 164.478 81.7486 174.765 87.1397 171.876C88.8493 169.315 94.1571 169.678 93.4601 173.33C92.9716 176.672 96.5697 178.298 99.0716 179.573C105.702 192.726 112.809 205.694 120.261 218.365C121.643 222.755 124.204 226.633 126.295 230.708C123.555 233.4 123.644 236.51 127.123 238.381C122.566 236.427 120.314 242.139 116.43 241.979C111.087 237.993 108.138 230.011 100.752 229.028C96.2599 229.653 98.0113 226.991 100.162 226.705C105.714 228.146 109.324 232.715 113.934 235.7C116.949 232.912 111.909 230.44 111.039 227.676C110.098 223.327 108.132 219.372 106.375 215.333C107.286 213.492 107.352 211.276 105.553 209.93C99.9652 205.629 100.198 197.051 95.3485 192.75C89.1294 189.992 90.3922 180.466 83.3272 179.197C81.6414 175.486 78.8415 172.472 75.178 170.673C73.7125 169.91 72.9858 168.755 74.6657 167.724Z" fill="#171919"/>
<path d="M31.5248 178.626C40.8714 172.448 52.0706 168.505 63.0792 167.819C65.331 169.785 69.4473 166.515 70.5851 169.827C71.2046 171.942 73.5517 170.601 75.178 170.673C78.8415 172.472 81.6414 175.486 83.3272 179.197C90.3922 180.466 89.1294 189.992 95.3485 192.75C96.4625 197.491 86.7763 193.393 83.625 193.095C80.164 188.639 74.8205 195.508 71.7586 190.075C70.5851 187.353 72.6403 179.471 67.2432 180.55C64.7651 181.759 61.8461 184.231 59.0582 183.177C57.283 180.794 59.0821 175.713 55.4959 174.712C51.7371 175.397 50.0989 179.573 47.7041 181.95C44.4218 181.163 45.9528 173.753 42.736 173.908C39.1558 176.779 37.6785 180.996 36.4751 185.214C34.4497 183.332 33.0379 180.913 31.5248 178.626Z" fill="#3A3B3C"/>
<path d="M238.633 170.869C241.528 170.077 248.206 169.827 245.68 174.932C237.71 188.502 229.018 201.643 220.988 215.16C220.041 216.536 218.182 215.762 217.021 215.124C216.264 202.638 217.932 190.23 217.497 177.756C217.742 175.891 216.729 173.014 218.927 171.924C225.51 171.805 232.05 171.12 238.633 170.869Z" fill="#252724"/>
<path d="M42.736 173.908C45.9528 173.753 44.4218 181.163 47.7041 181.95C50.0989 179.573 51.7371 175.397 55.4959 174.712C59.0821 175.713 57.283 180.794 59.0582 183.177C61.8461 184.231 64.7651 181.759 67.2432 180.55C72.6403 179.471 70.5851 187.353 71.7586 190.075C74.8205 195.508 80.164 188.639 83.625 193.095C86.7763 193.393 96.4625 197.491 95.3485 192.75C100.198 197.051 99.9652 205.629 105.553 209.93C107.352 211.276 107.286 213.492 106.375 215.333C108.132 219.372 110.098 223.327 111.039 227.676C111.909 230.44 116.949 232.912 113.934 235.7C109.324 232.715 105.714 228.146 100.162 226.705C98.0113 226.991 96.2599 229.653 100.752 229.028C108.138 230.011 111.087 237.993 116.43 241.979C120.314 242.139 122.566 236.427 127.123 238.381C128.845 243.283 123.775 246.917 121.69 251.003C126.879 256.395 116.8 260.636 115.209 265.515C107.9 273.241 97.9398 278.471 87.8247 281.515C84.1612 283.422 78.502 284.309 75.6009 280.741C74.1712 282.26 73.0036 284.011 71.5978 285.566C66.3199 288.134 67.3683 279.722 62.4657 280.949C59.5288 279.794 59.231 284.494 56.6278 284.571C52.6008 282.641 53.7148 274.885 48.0139 275.713C40.2161 283.207 43.1291 269.828 38.3516 266.974C36.3024 264.711 32.1801 270.114 30.6015 265.676C32.5852 260.374 30.4645 251.885 23.0599 253.756C19.6167 249.586 25.3057 244.766 22.3867 240.293C20.1886 238.595 15.4647 238.94 15.7864 234.747C16.5965 230.744 22.8276 224.221 15.7387 222.32C10.6812 217.984 17.1326 213.355 18.884 209.441C8.88811 202.293 25.5559 197.533 21.0941 189.866C24.3049 185.851 29.0705 182.182 31.5248 178.626C33.0379 180.913 34.4497 183.332 36.4751 185.214C37.6785 180.996 39.1558 176.779 42.736 173.908ZM47.9305 198.927C41.2169 200.714 36.07 206.695 34.3127 213.284C28.6297 232.948 40.9608 260.964 63.6809 261.089C70.3468 261.238 75.7022 256.085 79.1096 250.819C87.7711 233.007 79.1573 208.488 61.2147 200.172C57.8966 197.456 51.3141 197.622 47.9305 198.927Z" fill="#292928"/>
<path d="M301.092 182.438C309.444 184.606 316.563 177.881 324.295 176.892C319.732 181.64 317.427 187.996 317.516 194.519C311.386 190.152 318.618 202.346 312.262 199.839C308.962 200.232 312.047 194.34 308.86 194.525C304.53 194.87 299.18 195.287 296.345 191.397C298.489 187.4 289.643 185.643 290.644 190.14C290.34 198.01 278.962 194.573 275.203 199.874C279.677 199.731 284.871 194.346 288.684 197.432C282.03 201.268 268.263 203.216 270.95 213.915C267.894 215.97 265.88 207.636 263.593 206.457C258.982 209.638 252.626 213.486 254.771 220.212C252.555 219.288 249.689 215.809 248.093 219.574C246.687 226.371 240.253 230.684 238.43 237.255C235.178 238.726 231.925 240.203 228.595 241.472C226.82 240.888 223.026 241.83 224.622 239.089C230.043 228.426 237.388 218.8 243.542 208.524C249.004 200.494 255.468 188.347 266.977 189.694C266.857 191.874 266.446 194.06 266.411 196.264C272.54 194.108 275.173 186.566 278.313 181.455C273.523 181.425 268.49 179.162 263.885 181.163C261.865 181.878 259.393 178.292 262.443 177.964C275.376 178.959 288.219 180.901 301.092 182.438Z" fill="#2E4A25"/>
<path d="M462.439 186.781C461.795 180.591 469.003 181.824 472.965 182.527C471.017 190.724 474.579 199.183 471.624 207.184C472.178 210.275 465.626 210.698 468.413 206.475C469.968 203.407 470.457 200.124 469.384 196.735C467.425 200.071 467.085 212.884 461.128 208.375C462.945 204.324 464.357 199.791 462.897 195.377C466.281 192.565 474.656 190.361 470.85 184.761C468.086 182.11 464.911 185.387 462.439 186.781Z" fill="#38692E"/>
<path d="M367.609 182.444C373.852 185.25 381.22 184.487 386.671 189.164C396.405 193.745 402.064 203.157 407.521 211.925C407.247 216.423 406.419 220.855 406.109 225.352C408.158 230.904 400.277 231.572 402.213 236.814C403.101 239.125 405.71 240.156 407.985 240.537C419.298 239.691 421.103 250.712 421.073 259.576C415.521 266.247 407.032 270.078 399.324 273.724C394.594 279.079 387.94 271.805 383.859 276.72C380.744 281.122 375.71 276.374 372.44 274.724C375.15 268.249 377.509 259.016 371.868 254.727C385.605 255.346 399.848 245.797 401.617 231.524C405.746 212.146 388.625 191.564 368.723 192.44C368.776 188.86 365.851 186.161 367.609 182.444Z" fill="#1B1B1A"/>
<path d="M472.965 182.527C475.05 182.021 475.687 183.01 474.889 185.5C474.162 194.03 476.712 202.668 474.156 211.032C470.945 215.857 472.315 222.434 470.016 227.706C460.759 234.89 451.728 242.455 442.191 249.234C440.755 242.556 437.086 238.44 433.934 232.942C433.952 224.316 431.742 215.345 434.167 206.91C433.13 206.898 431.057 206.868 430.02 206.85C435.316 203.806 440.433 200.47 445.801 197.545C443.519 197.342 441.249 197.152 438.992 196.973C444.961 199.475 444.925 189.95 450.459 191.517C455.225 192.595 458.59 188.782 462.439 186.781C464.911 185.387 468.086 182.11 470.85 184.761C474.656 190.361 466.281 192.565 462.897 195.377C458.501 197.771 460.532 204.205 461.128 208.375C467.085 212.884 467.425 200.071 469.384 196.735C470.457 200.124 469.968 203.407 468.413 206.475C465.626 210.698 472.178 210.275 471.624 207.184C474.579 199.183 471.017 190.724 472.965 182.527ZM454.486 192.017C461.086 193.822 457.262 201.524 451.799 202.323C452.484 205.998 452.133 209.757 452.276 213.492C449.923 220.218 463.606 219.658 460.026 212.896C457.232 206.778 464.506 191.38 454.486 192.017ZM446.14 197.384C448.261 198.236 450.471 200.089 449.816 202.698C446.551 207.708 439.969 209.108 435.632 213.045C435.578 216.542 436.478 219.771 440.267 218.824C434.25 216.798 436.919 222.493 436.323 225.811C437.663 228.974 442.703 226.836 445.67 227.765C447.784 226.657 444.788 219.932 446.807 218.925C445.652 221.224 448.44 226.127 450.936 224.096C452.258 215.881 450.06 207.577 450.87 199.416C450.918 196.794 448.189 197.039 446.14 197.384Z" fill="#5B9E4C"/>
<path d="M328.382 183.123C333.29 183.367 327.941 193.131 330.729 196.074L331.146 196.36C333.368 197.521 334.642 199.702 336.007 201.709C337.675 210.108 345.681 202.686 350.399 206.969C350.595 211.085 352.484 214.844 353.383 218.818C354.819 223.071 360.675 216.834 362.754 220.777C365.631 222.535 362.623 227.384 366.376 227.848C366.644 223.69 371.636 220.76 375.394 222.571C375.412 226.032 369.741 227.199 371.82 231.369C373.691 231.387 375.817 231.637 377.11 230.017C385.95 229.79 383.299 240.394 381.977 246.125C391.615 249.365 397.787 238.875 399.586 230.726C400.253 230.994 400.932 231.256 401.617 231.524C399.848 245.797 385.605 255.346 371.868 254.727C377.509 259.016 375.15 268.249 372.44 274.724C376.115 281.879 368.24 289.629 365.601 296.73C362.581 301.68 359.025 306.44 354.521 310.157C350.703 304.712 349.72 298.308 343.417 294.877C343.655 287.478 356.35 289.849 355.409 296.777C355.939 300.072 349.803 305.743 357.279 305.546C361.795 304.861 358.584 301.114 356.082 299.815C357.958 298.088 363.391 298.695 361.783 295.103C361.08 291.249 358.369 288.348 355.575 285.798C356.451 280.056 350.554 279.49 346.878 277.59C343.119 268.773 355.135 267.784 359.138 272.639C360.764 275.231 363.665 281.861 367.102 277.268C365.047 272.336 361.491 268.023 356.624 265.676C352.758 264.431 352.895 257.783 348.093 258.414C342.655 260.612 340.302 249.949 346.205 249.288C352.46 245.827 358.619 251.945 362.164 256.526C363.26 257.818 366.09 258.164 365.953 255.823C362.694 252.064 359.305 248.132 354.551 246.262C351.882 244.618 347.653 245.285 346.36 241.919C343.751 237.624 336.376 243.67 334.273 237.94C329.567 233.543 339.795 228.402 333.886 224.661C331.044 219.235 326.755 228.111 322.788 224.977C317.242 222.934 318.29 217.424 319.22 212.998C314.823 207.011 308.396 217.43 302.242 213.355C300.622 209.805 303.112 200.935 296.148 202.716C290.03 202.37 290.048 210.037 285.562 211.753C284.335 208.435 282.066 205.295 281.869 201.727C290.078 196.64 300.181 197.712 308.86 194.525C312.047 194.34 308.962 200.232 312.262 199.839C318.618 202.346 311.386 190.152 317.516 194.519C319.78 195.925 321.168 199.279 324.081 199.213C330.324 196.354 327.947 188.604 328.382 183.123ZM377.664 232.001C374.572 232.858 369.277 233.674 368.252 237.159C374.471 237.219 371.755 245.904 373.161 249.175C381.911 250.235 383.8 234.777 377.664 232.001Z" fill="#3F4140"/>
<path d="M290.644 190.14C289.643 185.643 298.489 187.4 296.345 191.397C299.18 195.287 304.53 194.87 308.86 194.525C300.181 197.712 290.078 196.64 281.869 201.727C282.066 205.295 284.335 208.435 285.562 211.753C290.048 210.037 290.03 202.37 296.148 202.716C303.112 200.935 300.622 209.805 302.242 213.355C308.396 217.43 314.823 207.011 319.22 212.998C318.29 217.424 317.242 222.934 322.788 224.977C326.755 228.111 331.044 219.235 333.886 224.661C339.795 228.402 329.567 233.543 334.273 237.94C336.376 243.67 343.751 237.624 346.36 241.919C347.653 245.285 351.882 244.618 354.551 246.262C359.305 248.132 362.694 252.064 365.953 255.823C366.09 258.164 363.26 257.818 362.164 256.526C358.619 251.945 352.46 245.827 346.205 249.288C340.302 249.949 342.655 260.612 348.093 258.414C352.895 257.783 352.758 264.431 356.624 265.676C361.491 268.023 365.047 272.336 367.102 277.268C363.665 281.861 360.764 275.231 359.138 272.639C355.135 267.784 343.119 268.773 346.878 277.59C350.554 279.49 356.451 280.056 355.575 285.798C358.369 288.348 361.08 291.249 361.783 295.103C363.391 298.695 357.958 298.088 356.082 299.815C358.584 301.114 361.795 304.861 357.279 305.546C349.803 305.743 355.939 300.072 355.409 296.777C356.35 289.849 343.655 287.478 343.417 294.877C349.72 298.308 350.703 304.712 354.521 310.157C351.358 313.695 347.116 318.395 342.536 318.794C340.683 323.977 334.178 322.774 330.699 326.104C326.034 324.954 325.141 331.876 320.203 329.511C316.438 326.652 309.945 326.658 308.652 332.079C302.564 336.028 301.158 325.532 294.909 326.694C291.508 325.717 291.466 330.875 288.392 331.024L287.88 330.786C283.114 329.499 284.365 322.583 279.522 321.285C276.478 318.151 273.863 323.739 270.819 322.911C265.565 320.981 268.591 313.284 264.016 310.574C261.722 307.965 258.929 310.538 256.325 310.616C249.379 307.75 257.225 294.031 247.89 294.585C240.176 295.58 242.999 284.982 243.405 280.503C246.228 274.832 237.978 278.281 236.935 274.462C234.779 268.916 239.074 264.186 239.491 258.926C231.961 255.9 236.488 247.542 239.568 242.699C241.677 240.722 239.878 238.833 238.43 237.255C240.253 230.684 246.687 226.371 248.093 219.574C249.689 215.809 252.555 219.288 254.771 220.212C252.626 213.486 258.982 209.638 263.593 206.457C265.88 207.636 267.894 215.97 270.95 213.915C268.263 203.216 282.03 201.268 288.684 197.432C284.871 194.346 279.677 199.731 275.203 199.874C278.962 194.573 290.34 198.01 290.644 190.14ZM283.448 231.59C279.337 232.12 275.054 234.157 272.165 237.189C267.09 241.174 262.157 247.799 261.8 254.375C256.165 276.19 272.737 301.745 295.558 304.099C315.407 308.251 333.683 285.28 328.56 265.717C325.463 245.183 304.714 226.163 283.448 231.59Z" fill="#262726"/>
<path d="M331.384 189.688C338.86 190.313 346.277 191.755 353.818 191.564C357.392 198.391 350.816 199.207 345.627 198.093C340.099 195.835 341.422 204.092 336.007 201.709C334.642 199.702 333.368 197.521 331.146 196.36C331.205 194.692 331.324 191.356 331.384 189.688Z" fill="#181A18"/>
<path d="M454.486 192.017C464.506 191.38 457.232 206.778 460.026 212.896C463.606 219.658 449.923 220.218 452.276 213.492C452.133 209.757 452.484 205.998 451.799 202.323C457.262 201.524 461.086 193.822 454.486 192.017Z" fill="#356429"/>
<path d="M372.708 194.34C371.219 193.721 367.215 194.87 368.723 192.44C388.625 191.564 405.746 212.146 401.617 231.524C400.932 231.256 400.253 230.994 399.586 230.726C402.868 214.046 389.691 196.068 372.708 194.34Z" fill="#6A6C6A"/>
<path d="M372.708 194.34C389.691 196.068 402.868 214.046 399.586 230.726C397.787 238.875 391.615 249.365 381.977 246.125C383.299 240.394 385.95 229.79 377.11 230.017C377.64 227.461 381.626 226.151 383.794 227.616C386.099 224.924 382.698 216.31 381.357 222.755C378.272 215.857 377.462 208.202 377.42 200.762C377.193 197.658 367.805 195.782 372.708 194.34Z" fill="#293524"/>
<path d="M462.897 195.377C458.501 197.771 460.532 204.205 461.128 208.375C462.945 204.324 464.357 199.791 462.897 195.377Z" fill="#070C05"/>
<path d="M446.14 197.384C448.189 197.039 450.918 196.794 450.87 199.416C450.06 207.577 452.258 215.881 450.936 224.096C448.44 226.127 445.652 221.224 446.807 218.925C444.788 219.932 447.784 226.657 445.67 227.765C442.703 226.836 437.663 228.974 436.323 225.811C436.919 222.493 434.25 216.798 440.267 218.824C436.478 219.771 435.578 216.542 435.632 213.045C439.969 209.108 446.551 207.708 449.816 202.698C450.471 200.089 448.261 198.236 446.14 197.384Z" fill="#366529"/>
<path d="M47.9305 198.927C51.3141 197.622 57.8966 197.456 61.2147 200.172C75.8571 209.155 85.0726 228.391 79.9138 245.624C78.1863 247.846 75.869 250.384 72.8249 250.509C75.8988 246.047 75.5056 239.036 72.8666 234.252C63.4605 243.676 52.3268 222.928 62.5074 217.436C60.8632 211.05 49.8606 216.06 48.4845 209.852C49.5091 206.499 45.923 203.723 42.9802 203.079C43.8082 200.869 47.5731 200.768 47.9305 198.927Z" fill="#384533"/>
<path d="M34.3127 213.284C36.07 206.695 41.2169 200.714 47.9305 198.927C47.5731 200.768 43.8082 200.869 42.9802 203.079C45.923 203.723 49.5091 206.499 48.4845 209.852C49.8606 216.06 60.8632 211.05 62.5074 217.436C52.3268 222.928 63.4605 243.676 72.8666 234.252C75.5056 239.036 75.8988 246.047 72.8249 250.509C57.3903 251.796 48.6513 234.306 48.0973 220.968C43.5044 219.812 43.8321 210.948 37.9406 215.029C36.3798 216.596 35.4922 214.106 34.3127 213.284Z" fill="#5E5F5B"/>
<path d="M79.9138 245.624C85.0726 228.391 75.8571 209.155 61.2147 200.172C79.1573 208.488 87.7711 233.007 79.1096 250.819C75.7022 256.085 70.3468 261.238 63.6809 261.089C66.4032 259.319 65.1702 249.675 69.9298 253.261C71.9373 256.103 74.8444 253.625 72.8249 250.509C75.869 250.384 78.1863 247.846 79.9138 245.624Z" fill="#6A6C6C"/>
<path d="M414.86 201.203C417.01 203.091 413.079 216.369 419.816 213.915C424.034 210.948 423.861 220.36 419.989 220.009C414.616 221.272 417.451 228.992 422.258 228.694C422.812 231.345 418.124 232.239 416.337 230.887C410.684 228.623 406.246 233.74 402.213 236.814C400.277 231.572 408.158 230.904 406.109 225.352C407.116 227.104 409.415 226.889 410.672 225.555C413.543 217.888 410.761 208.333 414.86 201.203Z" fill="#2C4221"/>
<path d="M195.051 211.765C201.991 211.121 194.843 223.875 198.864 226.794C203.915 226.812 201.86 232.656 201.985 236.147C199.191 236.653 199.894 232.781 198.59 231.226C197.702 228.891 195.576 232.882 194.158 230.922C192.871 229.278 188.362 224.495 194.277 225.96C196.821 222.451 192.907 215.696 195.051 211.765Z" fill="#25381F"/>
<path d="M208.639 227.229C219.159 228.402 215.984 210.102 206.441 213.051C200.359 215.601 202.766 225.65 208.639 227.229ZM209.187 221.844C211.123 229.409 216.008 219.401 211.743 216.274C208.711 214.314 208.836 220.498 209.187 221.844C209.062 220.974 208.032 218.305 207.466 220.027C206.465 224.876 207.043 216.971 208.008 215.267C201.854 215.863 206.983 228.605 209.187 221.844Z" fill="#AAADAA"/>
<path d="M34.3127 213.284C35.4922 214.106 36.3798 216.596 37.9406 215.029C43.8321 210.948 43.5044 219.812 48.0973 220.968C48.6513 234.306 57.3903 251.796 72.8249 250.509C74.8444 253.625 71.9373 256.103 69.9298 253.261C65.1702 249.675 66.4032 259.319 63.6809 261.089C40.9608 260.964 28.6297 232.948 34.3127 213.284ZM45.9051 238.684C44.6958 239.465 42.2118 239.435 41.8007 240.948C40.8714 246.095 50.2537 239.959 45.9051 238.684Z" fill="#87898A"/>
<path d="M209.187 221.844C206.983 228.605 201.854 215.863 208.008 215.267C207.043 216.971 206.465 224.876 207.466 220.027C208.032 218.305 209.062 220.974 209.187 221.844Z" fill="#363833"/>
<path d="M211.743 216.274C208.711 214.314 208.836 220.498 209.187 221.844C211.123 229.409 216.008 219.401 211.743 216.274Z" fill="#4B4D48"/>
<path d="M127.123 238.381C123.644 236.51 123.555 233.4 126.295 230.708C130.763 236.004 138.668 234.008 144.095 236.856C145.775 241.341 149.546 236.296 152.584 237.821C155.229 238.774 155.097 241.8 156.39 243.688C158.66 245.434 159.905 243.194 161.18 241.573C166.469 239.768 170.925 249.425 173.29 241.442C174.494 244.909 177.99 242.038 180.617 242.521C191.638 243.378 202.438 245.982 213.393 247.37C218.862 246.965 223.627 243.599 228.595 241.472C231.925 240.203 235.178 238.726 238.43 237.255C239.878 238.833 241.677 240.722 239.568 242.699C236.488 247.542 231.961 255.9 239.491 258.926C239.074 264.186 234.779 268.916 236.935 274.462C237.978 278.281 246.228 274.832 243.405 280.503C242.999 284.982 240.176 295.58 247.89 294.585C257.225 294.031 249.379 307.75 256.325 310.616C258.929 310.538 261.722 307.965 264.016 310.574C268.591 313.284 265.565 320.981 270.819 322.911C273.863 323.739 276.478 318.151 279.522 321.285C284.365 322.583 283.114 329.499 287.88 330.786C281.315 336.654 274.893 325.341 267.763 326.896C261.067 328.475 256.605 321.88 250.642 320.373C240.384 322.589 235.398 310.615 225.259 311.735C220.124 311.432 219.231 304.629 213.953 304.67C206.042 303.991 202.694 295.967 195.039 294.418C193.377 290.219 188.254 289.117 187.629 284.399C182.279 285.006 178.3 290.642 172.337 288.467C152.828 284.321 133.176 280.89 113.631 276.917C106.476 274.039 101.294 281.629 94.6575 282.963C87.2171 284.244 79.0083 289.915 71.5978 285.566C73.0036 284.011 74.1712 282.26 75.6009 280.741C78.502 284.309 84.1612 283.422 87.8247 281.515C97.9398 278.471 107.9 273.241 115.209 265.515C116.8 260.636 126.879 256.395 121.69 251.003C123.775 246.917 128.845 243.283 127.123 238.381Z" fill="black"/>
<path d="M214.453 237.225C218.385 229.922 206.924 231.625 202.694 230.773C199.745 238.577 210.069 237.916 214.453 237.225Z" fill="#969014"/>
<path d="M283.448 231.59C304.714 226.163 325.463 245.183 328.56 265.717C333.683 285.28 315.407 308.251 295.558 304.099C301.748 306.356 298.93 301.871 301.39 299.261C300.92 296.235 298.501 293.614 299.025 290.445C304.816 290.445 310.999 292.613 316.348 289.813C319.976 292.822 323.735 290.54 325.075 286.495C336.656 261.398 313.495 227.449 285.497 232.03C284.812 231.887 284.127 231.738 283.448 231.59Z" fill="#676A6B"/>
<path d="M272.165 237.189C275.054 234.157 279.337 232.12 283.448 231.59C284.127 231.738 284.812 231.887 285.497 232.03C283.281 234.074 280.29 236.522 282.429 239.661C280.541 241.913 278.7 244.218 279.403 247.489C282.679 245.589 297.53 245.309 296.78 253.196C296.226 253.184 295.666 253.19 295.117 253.196C292.657 248.758 287.272 248.46 282.804 248.781C277.509 246.595 279.004 253.178 278.36 255.912C281.083 255.733 281.714 252.35 283.603 250.795C283.608 255.078 282.304 259.212 282.292 263.507C283.889 261.821 285.235 262.703 286.003 264.603C280.69 265.038 283.996 274.29 288.231 273.289C290.251 273.968 289.327 275.898 288.654 277.25C290.656 278.072 294.623 284.351 295.85 279.841C297.673 277.286 300.002 281.206 298.853 283.207C302.766 283.767 312.024 286.394 310.278 279.168C312.226 276.714 311.755 274.051 308.652 272.991C309.277 272.157 309.903 271.317 310.54 270.495C314.99 275.523 312.184 283.243 310.91 288.991C306.918 292.578 301.229 288.837 296.648 289.486C284.198 285.352 276.508 272.228 275.846 259.534C277.026 254.345 278.104 248.883 277.872 244.058C281.202 239.119 268.782 242.241 272.165 237.189Z" fill="#4F504D"/>
<path d="M285.497 232.03C313.495 227.449 336.656 261.398 325.075 286.495C323.735 290.54 319.976 292.822 316.348 289.813C310.999 292.613 304.816 290.445 299.025 290.445C298.227 290.117 297.435 289.784 296.648 289.486C301.229 288.837 306.918 292.578 310.91 288.991C312.184 283.243 314.99 275.523 310.54 270.495C309.051 268.869 307.532 266.968 308.449 264.651C306.245 261.619 301.581 258.902 302.558 254.679C300.634 254.113 298.519 254.256 296.78 253.196C297.53 245.309 282.679 245.589 279.403 247.489C278.7 244.218 280.541 241.913 282.429 239.661C280.29 236.522 283.281 234.074 285.497 232.03Z" fill="#353932"/>
<path d="M377.664 232.001C383.8 234.777 381.911 250.235 373.161 249.175C371.755 245.904 374.471 237.219 368.252 237.159C369.277 233.674 374.572 232.858 377.664 232.001Z" fill="#666867"/>
<path d="M407.985 240.537C414.681 232.942 424.617 232.954 433.934 232.942C437.086 238.44 440.755 242.556 442.191 249.234C438.027 249.294 433.869 249.127 429.717 249.312C426.929 252.779 424.748 256.937 421.073 259.576C421.103 250.712 419.298 239.691 407.985 240.537Z" fill="#283D1D"/>
<path d="M261.8 254.375C262.157 247.799 267.09 241.174 272.165 237.189C268.782 242.241 281.202 239.119 277.872 244.058C278.104 248.883 277.026 254.345 275.846 259.534C271.069 259.814 272.231 253.237 268.174 252.707C266.506 256.168 264.457 256.549 261.8 254.375Z" fill="#70716E"/>
<path d="M152.584 237.821C159.398 239.054 166.898 239.03 173.29 241.442C170.925 249.425 166.469 239.768 161.18 241.573C159.905 243.194 158.66 245.434 156.39 243.688C155.097 241.8 155.229 238.774 152.584 237.821Z" fill="#181A15"/>
<path d="M41.8007 240.948C40.8714 246.095 50.2537 239.959 45.9051 238.684C44.6958 239.465 42.2118 239.435 41.8007 240.948Z" fill="#EEEFEF"/>
<path d="M22.3867 240.293C25.3057 244.766 19.6167 249.586 23.0599 253.756C30.4645 251.885 32.5852 260.374 30.6015 265.676C32.1801 270.114 36.3024 264.711 38.3516 266.974C43.1291 269.828 40.2161 283.207 48.0139 275.713C53.7148 274.885 52.6008 282.641 56.6278 284.571C52.154 286.924 47.6803 278.34 41.8603 281.366C37.4878 278.596 33.6039 275.082 27.8613 275.684C25.2938 270.703 20.0873 270.447 15.4528 269.059C14.9703 264.335 9.94848 264.377 6.88656 262.739C7.10697 258.098 0.178944 258.992 1.1142 254.119C-1.79283 249.318 5.33774 246.321 9.07875 245.07C13.2427 242.693 18.4134 242.95 22.3867 240.293Z" fill="black"/>
<path d="M278.36 255.912C279.004 253.178 277.509 246.595 282.804 248.781C287.272 248.46 292.657 248.758 295.117 253.196C283.013 261.029 297.131 282.504 308.652 272.991C311.755 274.051 312.226 276.714 310.278 279.168C312.024 286.394 302.766 283.767 298.853 283.207C300.002 281.206 297.673 277.286 295.85 279.841C294.623 284.351 290.656 278.072 288.654 277.25C289.327 275.898 290.251 273.968 288.231 273.289C283.996 274.29 280.69 265.038 286.003 264.603C285.235 262.703 283.889 261.821 282.292 263.507C282.304 259.212 283.608 255.078 283.603 250.795C281.714 252.35 281.083 255.733 278.36 255.912Z" fill="#646664"/>
<path d="M261.8 254.375C264.457 256.549 266.506 256.168 268.174 252.707C272.231 253.237 271.069 259.814 275.846 259.534C276.508 272.228 284.198 285.352 296.648 289.486C297.435 289.784 298.227 290.117 299.025 290.445C298.501 293.614 300.92 296.235 301.39 299.261C298.93 301.871 301.748 306.356 295.558 304.099C272.737 301.745 256.165 276.19 261.8 254.375Z" fill="#898A8B"/>
<path d="M295.117 253.196C295.666 253.19 296.226 253.184 296.78 253.196C298.519 254.256 300.634 254.113 302.558 254.679C301.581 258.902 306.245 261.619 308.449 264.651C307.532 266.968 309.051 268.869 310.54 270.495C309.903 271.317 309.277 272.157 308.652 272.991C297.131 282.504 283.013 261.029 295.117 253.196Z" fill="#335E28"/>
<path d="M383.859 276.72C387.94 271.805 394.594 279.079 399.324 273.724C398.406 276.339 395.809 277.709 393.331 278.501C383.097 282.606 375.913 293.709 365.601 296.73C368.24 289.629 376.115 281.879 372.44 274.724C375.71 276.374 380.744 281.122 383.859 276.72Z" fill="#010101"/>
<path d="M320.203 329.511C325.141 331.876 326.034 324.954 330.699 326.104C325.141 332.674 313.161 337.827 304.97 333.699C300.342 338.649 293.461 332.615 288.392 331.024C291.466 330.875 291.508 325.717 294.909 326.694C301.158 325.532 302.564 336.028 308.652 332.079C309.945 326.658 316.438 326.652 320.203 329.511Z" fill="#010101"/>
</svg>
