<svg width="26" height="12" viewBox="0 0 26 12" fill="none" xmlns="http://www.w3.org/2000/svg">
<path d="M7.58603 0.0125608C7.6971 -0.019134 7.81212 0.0176545 7.92375 0.030106C8.33702 0.103117 8.75931 0.0125597 9.17371 0.0821752C9.61856 0.162544 10.073 0.0651967 10.5173 0.145C10.9125 0.211785 11.3151 0.128585 11.7103 0.195371C12.1551 0.27574 12.6096 0.177827 13.0544 0.258196C13.4496 0.324981 13.8528 0.241215 14.248 0.308567C14.6923 0.388936 15.1467 0.291588 15.5915 0.371391C16.0212 0.440441 16.4592 0.349884 16.8883 0.427989C17.2835 0.494775 17.6861 0.411575 18.0813 0.478361C18.5402 0.559862 19.0093 0.458552 19.4677 0.544581C19.5912 0.597783 19.7271 0.600046 19.855 0.559295C20.1296 0.570615 20.4053 0.558163 20.6799 0.580803C20.8355 0.649286 21.0052 0.638532 21.1698 0.615893C21.4196 0.627213 21.6705 0.614762 21.9203 0.637967C22.0934 0.717204 22.2834 0.698527 22.4666 0.673058C22.7164 0.683811 22.9673 0.670228 23.2165 0.696263C23.4076 0.785688 23.6196 0.757389 23.8209 0.724562C23.8992 0.730222 23.9776 0.735881 24.0565 0.743805C24.1078 0.854737 24.18 0.953784 24.2702 1.03642C24.1631 1.01151 24.0532 1.11452 24.1389 1.21244L24.1169 1.23281C24.0238 1.30978 23.9432 1.40034 23.8868 1.50788C23.7701 1.71955 23.5942 1.90633 23.5643 2.15649C23.5531 2.1729 23.5305 2.20573 23.5192 2.22271L23.469 2.22667C23.4256 2.09706 23.389 1.96009 23.3027 1.85143C23.2666 1.93406 23.2311 2.01782 23.1933 2.10046C23.1668 2.11121 23.1133 2.13328 23.0862 2.14404C23.1172 2.07442 23.1482 2.00537 23.1776 1.93519C22.8973 1.97424 22.6245 2.0665 22.3702 2.18932C22.0533 2.39533 21.825 2.71172 21.6496 3.04225C21.114 3.92178 20.5722 4.79735 20.0422 5.68028C19.8658 5.94346 19.7271 6.23041 19.6222 6.52924C19.5979 6.60339 19.5799 6.68715 19.612 6.76186C19.8832 7.00523 20.2187 7.16371 20.4983 7.39463C20.5863 7.53669 20.4905 7.6895 20.4059 7.80609C20.2802 7.964 20.3698 8.20737 20.2159 8.3483C20.1257 8.45244 19.9768 8.45244 19.8663 8.52036C19.8342 8.57922 19.8032 8.64035 19.7434 8.67544C19.7383 8.48357 19.806 8.22209 19.6149 8.09644C19.3606 8.03362 19.1007 8.09644 18.8537 8.16096C18.7945 8.11965 18.7359 8.07833 18.6784 8.03588C18.6378 8.06418 18.5978 8.09304 18.5583 8.12247C18.4275 8.00192 18.2504 8.04324 18.0909 8.04833C17.9488 8.05852 17.8146 7.994 17.6731 8.00305C17.5818 8.02909 17.5372 7.91703 17.4465 7.93797C16.8702 7.97023 16.3239 7.75742 15.755 7.7161C14.9415 7.61423 14.1273 7.52254 13.3171 7.39859C13.2269 7.38274 13.135 7.37878 13.0437 7.38218C13.0324 7.56102 13.0753 7.73704 13.0916 7.91476C13.0144 7.94306 12.936 7.9657 12.8565 7.98324C12.8571 7.7693 12.9151 7.56329 12.9501 7.35444C12.538 7.31369 12.1292 7.24521 11.717 7.20899C11.7278 7.33576 11.8693 7.29898 11.9578 7.32501C11.9905 7.39576 11.9995 7.48858 12.0756 7.52876C12.185 7.61706 12.3271 7.56555 12.4534 7.56272C12.463 7.61479 12.4731 7.66686 12.4833 7.71893C12.3914 7.89778 12.3141 8.08512 12.2656 8.28151C12.2634 8.11059 12.2701 7.9374 12.2324 7.77044C12.0587 7.54121 11.7441 7.50895 11.4797 7.4733C11.3946 7.33973 11.3105 7.20333 11.2502 7.05617C11.2508 6.94977 11.2874 6.84789 11.3077 6.74432C10.4079 6.65546 9.51482 6.51227 8.61498 6.42567C7.77603 6.32379 6.93991 6.20267 6.09927 6.11721C5.90025 6.0991 5.69953 6.0408 5.49994 6.07873C5.40015 6.16306 5.32686 6.27342 5.2327 6.36398C4.99026 6.34983 4.75177 6.29436 4.50821 6.29549C4.18684 6.25474 3.8587 6.2638 3.54184 6.19588C3.56609 6.3504 3.59653 6.50378 3.60668 6.66055C3.53338 6.68432 3.45953 6.7064 3.3851 6.72621C3.40991 6.5417 3.44543 6.34587 3.35466 6.17211C3.17762 6.19871 2.9989 6.19985 2.82242 6.16872C2.61494 6.13306 2.48301 6.33342 2.33473 6.44322C2.32853 6.42171 2.31612 6.37869 2.30936 6.35719C2.33868 6.33285 2.39675 6.28474 2.42607 6.2604C2.49091 6.12344 2.34657 6.04533 2.26877 5.95987C2.30767 5.94968 2.3866 5.92931 2.42607 5.91912C2.48019 5.76913 2.35164 5.69159 2.23832 5.63273C2.20675 5.4935 2.21689 5.35031 2.20957 5.20938C2.2028 4.96261 2.14191 4.72038 2.15093 4.47304C2.16672 4.16855 2.07651 3.87141 2.09398 3.56691C2.11146 3.26241 2.02069 2.96527 2.0376 2.66078C2.04719 2.39477 1.97107 2.13555 1.98122 1.8701C1.99588 1.46316 1.85606 1.05792 1.94852 0.652683C2.24283 0.592689 2.54278 0.568352 2.84047 0.528734C3.45051 0.480059 4.05603 0.386107 4.66325 0.314794C5.31332 0.1999 5.97693 0.115002 6.63658 0.195371C6.88014 0.229896 7.13048 0.254233 7.37573 0.215181C7.46538 0.17443 7.51161 0.0748185 7.58603 0.0125608ZM4.57474 0.46308C4.86453 0.63061 5.21917 0.557032 5.53885 0.563257C5.47401 0.467607 5.38493 0.343093 5.25187 0.378749C5.02578 0.404219 4.7997 0.431385 4.57474 0.46308ZM7.39603 0.512886L7.4152 0.558164C7.92488 0.676453 8.45204 0.608536 8.9668 0.685509C9.43701 0.684943 9.90384 0.748332 10.3741 0.75569C10.4637 0.759086 10.5184 0.851908 10.6063 0.86153C10.8054 0.880773 11.0083 0.819647 11.2045 0.871717C11.5874 0.975857 11.9882 0.853606 12.3739 0.939069C12.4816 0.973593 12.5853 0.937936 12.6721 0.873415C12.8272 1.05906 13.0978 0.906242 13.3013 0.973028C13.6346 1.07604 13.9836 0.992837 14.3235 1.02057C14.4797 1.0466 14.6821 1.15697 14.7966 0.988308C14.9719 1.11113 15.1969 1.02566 15.3931 1.08C15.7804 1.19036 16.1847 1.12075 16.5805 1.12697C16.5895 1.1915 16.6007 1.25545 16.6154 1.31941C16.4344 1.21074 16.2213 1.2679 16.024 1.27356C15.7731 1.29167 15.5256 1.24809 15.2797 1.20168C14.9398 1.25092 14.5992 1.21074 14.2649 1.14452C13.9565 1.16942 13.643 1.18357 13.3386 1.11226C13.1299 1.05566 12.9174 1.13773 12.7065 1.11226C12.4793 1.10886 12.2622 0.996797 12.0345 1.04038C11.7244 1.07773 11.4126 1.0268 11.1081 0.970763C10.7693 1.03868 10.4287 0.978121 10.0961 0.908505C9.83901 0.93737 9.57909 0.974159 9.32087 0.940766C9.20585 0.922089 9.10267 0.837192 8.98258 0.862661C8.75875 0.89096 8.53097 0.915862 8.30601 0.884733C8.16055 0.843417 8.01904 0.759652 7.86399 0.812288C7.57419 0.829833 7.25677 0.883037 6.98727 0.746636C6.63151 0.769841 6.25545 0.84738 5.9166 0.691736C5.58113 0.707017 5.21522 0.791347 4.90175 0.630043C4.59109 0.680415 4.27761 0.671926 3.96526 0.630609C3.96357 0.653248 3.95906 0.698526 3.9568 0.7206C4.09832 0.728523 4.2404 0.733618 4.38022 0.759087C4.6999 0.827005 5.02917 0.734184 5.34884 0.80663C5.68262 0.888131 6.0288 0.794177 6.36483 0.864359C6.6986 0.941898 7.04421 0.85304 7.37911 0.924919C7.69597 0.992837 8.02242 0.914731 8.33984 0.979253C8.67362 1.05509 9.0181 0.967366 9.353 1.03528C9.70313 1.11509 10.064 1.02057 10.4141 1.09641C10.7338 1.16263 11.063 1.08396 11.3833 1.14735C11.7323 1.22545 12.0937 1.13603 12.4438 1.2113C12.7635 1.27752 13.0922 1.20112 13.413 1.26224C13.7479 1.32959 14.0918 1.25828 14.4278 1.32054C14.7904 1.38563 15.163 1.31035 15.5239 1.39468C15.8988 1.42468 16.2771 1.38506 16.6487 1.4626C16.6932 1.63409 16.7197 1.80954 16.7541 1.98387C16.3611 1.8718 15.9501 1.97198 15.5554 1.88312C15.3175 1.83954 15.0751 1.88822 14.8366 1.85652C14.7639 1.85595 14.6821 1.82482 14.6195 1.8752C14.6652 1.96858 14.7216 2.06367 14.814 2.118C14.9899 2.14291 15.1681 2.14687 15.3451 2.16894C15.6941 2.20743 16.0601 2.148 16.3944 2.27761C16.4998 2.34609 16.5117 2.49381 16.5376 2.60757C16.5669 2.69473 16.5263 2.81416 16.4147 2.79039C15.8193 2.78246 15.2273 2.71341 14.6342 2.67436C14.6325 2.69474 14.6291 2.73549 14.6274 2.75586C14.915 2.7819 15.207 2.76944 15.4895 2.83963C15.8345 2.86736 16.2016 2.8051 16.5297 2.93867C16.762 3.03093 16.8359 3.28222 16.934 3.48824C16.908 3.48994 16.8562 3.4939 16.8302 3.4956C16.7716 3.71859 16.5179 3.56465 16.3623 3.57653C15.7387 3.56861 15.1213 3.44353 14.4977 3.45994L14.5271 3.49729C14.7909 3.57144 15.0717 3.52616 15.3412 3.57087C15.7173 3.6269 16.1007 3.59974 16.4756 3.66426C16.7485 3.70388 16.8105 4.12044 16.6267 4.2857C15.9293 4.25344 15.2375 4.16289 14.5417 4.10685C14.4791 4.09157 14.4211 4.11648 14.3974 4.1776C14.6178 4.22514 14.8445 4.18609 15.0666 4.21892C15.4951 4.28004 15.9287 4.29136 16.3577 4.3474C16.435 4.35589 16.51 4.38531 16.572 4.43286C16.6334 4.62416 16.621 4.83187 16.5748 5.02544C16.0572 5.056 15.5397 4.8913 15.0181 4.93148L15.0232 4.96884C15.4822 5.01299 15.9422 5.04581 16.3995 5.10694C16.519 5.29881 16.5235 5.54614 16.4632 5.75895C16.2794 5.81045 16.0944 5.73631 15.9101 5.73065C15.4923 5.70744 15.079 5.62028 14.6613 5.61349C14.6731 5.62821 14.6962 5.65877 14.708 5.67405C15.2521 5.73914 15.8013 5.76857 16.3437 5.84894C16.4062 6.02213 16.4654 6.27738 16.2997 6.40586C15.9665 6.43699 15.6366 6.3453 15.3046 6.32662C14.9764 6.30795 14.6522 6.21909 14.323 6.24229C14.3748 6.27512 14.4284 6.31247 14.4932 6.30908C14.9268 6.33738 15.3559 6.41605 15.7906 6.44039C15.9541 6.45114 16.1418 6.48114 16.2512 6.61697C16.3053 6.74205 16.3296 6.87789 16.3735 7.00693C16.4553 6.97354 16.4936 6.87393 16.4964 6.79073C16.4998 6.58584 16.563 6.38945 16.5895 6.18739L16.6295 6.17438C16.6346 6.24795 16.6408 6.32153 16.647 6.39567C16.6622 6.38435 16.6926 6.36171 16.7079 6.35039C16.7378 6.08212 16.8905 5.7731 16.7034 5.53199C16.7011 5.23542 16.7845 4.94903 16.8139 4.65642L16.8601 4.64567C16.8646 4.73849 16.868 4.83131 16.8731 4.92469C16.8877 4.91224 16.9165 4.88791 16.9306 4.87602C16.9932 4.64567 17.049 4.40116 17.0095 4.16232C16.9768 4.15326 16.912 4.13515 16.8793 4.1261C16.9526 3.88669 16.9813 3.63653 17.0039 3.38863C17.0146 3.33995 16.9943 3.22845 17.0721 3.23751C17.0975 3.29524 17.0845 3.40674 17.1787 3.38014C17.2221 3.1594 17.2604 2.93754 17.314 2.71907L17.3658 2.7253C17.3765 2.87698 17.3765 3.12092 17.5744 3.14073C17.8208 3.17978 18.0695 3.20299 18.317 3.23638C18.5391 3.2477 18.7342 3.37448 18.9563 3.38976C19.386 3.439 19.8139 3.51144 20.2435 3.55672C20.5491 3.50012 20.8716 3.39372 21.1033 3.17752C21.1941 3.17525 21.3029 3.1877 21.3677 3.1079C21.6761 2.80906 21.7991 2.38005 22.0483 2.03763C22.1007 1.88652 22.2681 1.77389 22.2202 1.59957C22.0843 1.51637 21.9344 1.45241 21.7782 1.42185C21.4895 1.44505 21.2127 1.33582 20.9251 1.35506C20.9235 1.31545 20.9201 1.23677 20.9184 1.19715C20.6354 1.17055 20.3489 1.19998 20.0676 1.15074C19.678 1.08735 19.2811 1.15074 18.8921 1.08509C18.5493 1.03245 18.202 1.08849 17.8586 1.04038C17.5028 0.992269 17.1409 1.04321 16.7857 0.98378C16.3978 0.91473 16.0014 0.991138 15.6135 0.92039C15.2702 0.860962 14.92 0.946992 14.5772 0.877377C14.2085 0.799272 13.8296 0.873415 13.4592 0.815685C13.2427 0.781727 13.0228 0.7755 12.8046 0.788518C12.463 0.821911 12.132 0.692301 11.7903 0.72626C11.4115 0.760219 11.0405 0.650419 10.6622 0.670228C10.2478 0.69117 9.83788 0.603442 9.42348 0.614762C9.04573 0.627779 8.67362 0.537788 8.29587 0.559295C7.99366 0.5825 7.69767 0.494775 7.39603 0.512886ZM3.4646 0.585331C3.46178 0.604009 3.45614 0.641364 3.45332 0.660041C3.60217 0.687208 3.75045 0.713242 3.89986 0.736447C3.89817 0.696828 3.89422 0.617025 3.89253 0.577407C3.74989 0.572313 3.60668 0.571748 3.4646 0.585331ZM3.40145 0.751163C3.43077 0.780028 3.43077 0.780028 3.40145 0.751163ZM3.50068 1.53561C3.49899 1.73993 3.53451 1.94311 3.56609 2.1446C3.56327 2.22214 3.64502 2.24478 3.69858 2.27534C3.68843 2.03424 3.63713 1.79709 3.61739 1.55655L3.65404 1.53674C3.66024 1.60692 3.66588 1.6771 3.67152 1.74785L3.71662 1.74898C3.73128 1.64881 3.7403 1.5475 3.76793 1.45015C3.99176 1.32903 4.26013 1.36355 4.49355 1.43373C4.55951 1.48184 4.57643 1.569 4.61533 1.63749C4.62379 1.4892 4.63337 1.34035 4.62604 1.19206C4.40785 1.17904 4.18571 1.16433 3.96921 1.19772C3.81585 1.31658 3.55143 1.31092 3.50068 1.53561ZM4.86172 1.26111C4.87863 1.36978 4.96376 1.47505 5.08329 1.45977C5.36745 1.46033 5.65105 1.47505 5.92957 1.53448C5.87206 1.69522 6.13987 1.58994 6.07052 1.47448L6.04627 1.46543C6.03218 1.39468 5.97185 1.34544 5.90476 1.3279C5.56027 1.273 5.21128 1.20508 4.86172 1.26111ZM7.113 1.36808C7.16994 1.55146 7.2765 1.72635 7.19475 1.92274C7.52007 2.05122 7.87357 1.93632 8.20566 2.01726C8.45824 2.07669 8.71872 2.02348 8.97469 2.04782C8.99499 2.118 8.9933 2.18649 8.97074 2.2544C8.68828 2.29459 8.40975 2.21139 8.12785 2.21252C7.78787 2.21365 7.45297 2.12932 7.11243 2.15536L7.13724 2.19724C7.42196 2.27025 7.72078 2.23799 8.01114 2.27591C8.30714 2.3127 8.60652 2.30591 8.90308 2.34043C9.00231 2.51192 9.07448 2.81189 8.91493 2.95565C8.29248 2.98056 7.67511 2.8634 7.05492 2.84019C7.18686 3.01395 7.43042 2.93301 7.61479 2.94603C7.91417 2.9749 8.21411 2.99074 8.5135 3.01338C8.67531 3.03885 8.89801 3.08073 8.93804 3.2709C8.98033 3.38749 8.92564 3.54314 8.80047 3.57766C8.42103 3.61558 8.04835 3.51937 7.67004 3.51144C7.44621 3.4939 7.2235 3.43447 6.99742 3.4622C7.01433 3.47522 7.04872 3.50069 7.06564 3.51371C7.33345 3.572 7.61197 3.53974 7.88259 3.58502C8.18254 3.6337 8.52026 3.57427 8.78638 3.75029C8.90703 3.90197 8.91492 4.14138 8.78412 4.29023C8.66178 4.31683 8.53661 4.2574 8.41201 4.26137C7.91981 4.25005 7.43437 4.13685 6.94273 4.13968C6.96021 4.15157 6.99516 4.17534 7.01264 4.18722C7.56235 4.27551 8.12447 4.26872 8.67305 4.36607C8.7813 4.4555 8.79427 4.61793 8.8016 4.75037C8.78976 4.85734 8.74353 5.03789 8.59863 4.9711C8.08218 4.92752 7.56743 4.83187 7.04929 4.82112C7.1908 4.93658 7.39039 4.88847 7.55897 4.9162C7.91078 4.95865 8.2688 4.96941 8.61554 5.04694C8.76213 5.15957 8.75932 5.382 8.68207 5.53708C8.4605 5.60217 8.23667 5.51558 8.01396 5.50426C7.6379 5.47596 7.2641 5.4137 6.88917 5.38257C6.91003 5.46124 7.00531 5.45105 7.06677 5.46407C7.54487 5.52633 8.02749 5.5467 8.50391 5.62085C8.69842 5.68424 8.61216 5.98364 8.78018 6.04477C8.83881 5.7731 8.80555 5.49011 8.86757 5.2207L8.91887 5.19636C8.92564 5.29541 8.93015 5.39502 8.93579 5.49463C9.04516 5.26428 9.07279 4.96544 8.93128 4.74358C8.9527 4.54605 8.88279 4.30438 9.04516 4.15213C9.16526 4.01799 9.12297 3.81707 9.16413 3.65294C9.20359 3.48711 8.99104 3.36882 9.05362 3.19959C9.13143 2.93245 9.11226 2.65398 9.1427 2.38118L9.20134 2.37439C9.20811 2.50796 9.20247 2.6421 9.20134 2.77567C9.32256 2.60191 9.32143 2.36817 9.28591 2.16838C9.13255 1.96349 9.2549 1.69974 9.20303 1.46769C8.89519 1.42468 8.58172 1.49203 8.2767 1.42411C8.05963 1.37487 7.83693 1.40374 7.61648 1.39977C7.44734 1.39921 7.28101 1.31431 7.113 1.36808ZM6.16411 1.47618C6.19512 1.52203 6.24812 1.54127 6.32254 1.53335C6.29491 1.58485 6.24079 1.60862 6.16016 1.60579L6.17539 1.63749C6.34396 1.60126 6.5148 1.61768 6.68507 1.61937C6.69691 1.60409 6.72002 1.57296 6.73186 1.55768C6.67266 1.56957 6.61346 1.58145 6.5537 1.59277C6.45165 1.48241 6.30506 1.46996 6.16411 1.47618ZM9.4793 1.53787C9.54808 1.71729 9.64336 1.8984 9.56048 2.0931C9.85141 2.14177 10.1423 2.17121 10.4372 2.15989C10.7721 2.23969 11.1149 2.2046 11.4549 2.21762C11.4786 2.28893 11.4757 2.35741 11.4481 2.4225C11.1296 2.46721 10.8138 2.37552 10.4953 2.37948C10.1559 2.38684 9.82153 2.29232 9.48212 2.32176L9.49452 2.37326C10.1029 2.44401 10.7169 2.45646 11.3269 2.50966C11.4227 2.70096 11.5192 2.96527 11.3844 3.16054C11.0675 3.22506 10.7524 3.08752 10.4321 3.11922C10.1006 3.07055 9.76458 3.07281 9.43307 3.0247C9.43645 3.04055 9.44434 3.07224 9.44772 3.08809C10.0335 3.15884 10.6255 3.17129 11.2108 3.24317C11.4024 3.34561 11.3946 3.60143 11.3331 3.78028C10.9773 3.86631 10.6216 3.72538 10.2636 3.74406C9.96868 3.71406 9.67437 3.6569 9.37612 3.68916L9.39078 3.72199C9.87114 3.75312 10.3487 3.8216 10.8296 3.84084C10.992 3.84707 11.1967 3.86971 11.2581 4.04969C11.328 4.20986 11.3624 4.54039 11.1104 4.53813C10.7005 4.47757 10.2867 4.44135 9.8734 4.41588C9.6693 4.38418 9.46464 4.33947 9.25716 4.36437L9.28027 4.40399C9.83111 4.48436 10.3893 4.50813 10.9429 4.56982C11.014 4.58737 11.1335 4.56982 11.1566 4.66264C11.2057 4.83131 11.275 5.03845 11.1589 5.19523C10.957 5.25522 10.7535 5.18957 10.5522 5.1692C10.1356 5.14882 9.72343 5.07468 9.3079 5.03902L9.32199 5.09053C9.89031 5.18335 10.4727 5.20485 11.0456 5.28126C11.151 5.43634 11.2113 5.68763 11.0427 5.82234C10.8431 5.88233 10.639 5.78611 10.4372 5.77876C10.0611 5.74593 9.68678 5.66499 9.30846 5.67292C9.34511 5.73404 9.40826 5.76517 9.47986 5.75498C9.89595 5.7448 10.3041 5.84158 10.7185 5.86818C10.8009 5.88176 10.8967 5.86875 10.9666 5.92421C11.0264 6.0425 11.0546 6.17324 11.1059 6.29549C11.1273 6.30398 11.1702 6.32153 11.1916 6.33058C11.213 6.11098 11.2575 5.89308 11.2513 5.67179C11.2468 5.58123 11.2609 5.48332 11.3393 5.42559C11.3444 5.54274 11.3416 5.66047 11.3449 5.77819C11.4504 5.61123 11.4419 5.40181 11.438 5.21221C11.2976 4.96092 11.3556 4.64623 11.4526 4.38815C11.4763 4.38305 11.5237 4.3723 11.5473 4.36664C11.6167 4.18666 11.6077 3.9863 11.6049 3.7967C11.6116 3.70954 11.4938 3.66822 11.5203 3.57653C11.5406 3.39429 11.522 3.20242 11.5896 3.02923C11.6015 2.96471 11.6669 2.96301 11.7176 2.95112C11.7977 2.74171 11.7746 2.50796 11.783 2.28723C11.7272 2.30025 11.6719 2.31327 11.6173 2.32685C11.6821 2.12536 11.7142 1.91425 11.7182 1.70314C11.5772 1.54353 11.3179 1.66918 11.1301 1.60975C10.7699 1.51524 10.3938 1.61881 10.033 1.52882C9.85028 1.48977 9.66141 1.50335 9.4793 1.53787ZM22.8895 1.81747C23.0248 1.82143 23.2644 1.8152 23.2497 1.6256C23.1133 1.64315 22.9588 1.68559 22.8895 1.81747ZM11.9939 1.73993C12.0187 1.76144 12.0683 1.80502 12.0931 1.82652C12.0818 1.96745 12.057 2.10951 12.0903 2.24988C12.4105 2.40835 12.7764 2.26572 13.1108 2.35685C13.3752 2.42363 13.6487 2.34892 13.9148 2.3976C13.9762 2.41627 14.0755 2.42137 14.0935 2.49777C14.0253 2.54192 13.9565 2.59569 13.8725 2.60248C13.5156 2.63587 13.1621 2.55381 12.8058 2.55098C12.5278 2.54815 12.2532 2.47514 11.9753 2.50343C11.977 2.52268 11.9798 2.5606 11.9815 2.57928C12.3446 2.66757 12.7195 2.57079 13.0809 2.66304C13.2968 2.71794 13.5184 2.64097 13.736 2.68342C13.8189 2.70436 13.9368 2.69926 13.9757 2.79378C14.0433 2.98055 14.1177 3.21657 13.9723 3.38693C13.5077 3.37731 13.0426 3.29637 12.5763 3.28901C12.3508 3.27769 12.1292 3.2143 11.9025 3.23977C11.9894 3.33316 12.1241 3.31278 12.2391 3.32637C12.4917 3.33712 12.7426 3.36768 12.9924 3.409C13.2472 3.41749 13.5038 3.4124 13.7569 3.44975C13.9864 3.51257 14.0298 3.86858 13.8635 4.0146C13.7749 4.03328 13.6842 4.03441 13.5945 4.03158C13.0076 3.97045 12.419 3.92631 11.8309 3.87424C11.8253 3.89235 11.8146 3.92857 11.8089 3.94668C11.9775 4.0112 12.1585 3.96366 12.3333 3.98064C12.6969 4.01234 13.0595 4.05195 13.4237 4.0695C13.5314 4.08704 13.6616 4.07006 13.7479 4.15043C13.8691 4.31966 13.9277 4.55285 13.8076 4.73962C13.7377 4.75716 13.6667 4.76622 13.5951 4.76622C13.0132 4.71075 12.4303 4.65642 11.8495 4.58737C11.8338 4.67453 11.9538 4.6734 12.008 4.70057C12.5526 4.71868 13.0967 4.7798 13.6391 4.82961C13.7496 5.02204 13.8167 5.27503 13.6943 5.47879C13.5663 5.52293 13.4367 5.47086 13.3087 5.45728C12.7539 5.4103 12.1997 5.34522 11.6466 5.27673C11.6443 5.29654 11.6398 5.33559 11.6376 5.35484C12.2854 5.41596 12.9349 5.46917 13.5793 5.55916C13.6921 5.7148 13.709 5.91969 13.6447 6.09854C13.4936 6.14834 13.338 6.11268 13.1863 6.08835C12.6676 6.03175 12.1489 5.97515 11.6308 5.91176C11.6353 5.92704 11.6438 5.95817 11.6483 5.97345C12.2549 6.04307 12.8621 6.10929 13.4688 6.1823C13.55 6.32323 13.5804 6.4851 13.6441 6.63395C13.665 6.64357 13.7067 6.66225 13.7276 6.67187C13.7603 6.43416 13.7823 6.19475 13.8161 5.9576C13.8652 5.98534 13.9136 6.01533 13.961 6.0476C13.9898 5.81611 14.0631 5.58349 14.0213 5.34974C13.9881 5.34069 13.9215 5.32314 13.8883 5.31409C13.9413 5.13014 13.9644 4.94111 13.9841 4.7515C13.9937 4.6485 14.1155 4.62133 14.1685 4.54549C14.1961 4.41531 14.2063 4.28231 14.2322 4.15213C14.2429 4.07629 14.2762 3.98743 14.2125 3.92517C14.1572 3.93706 14.1025 3.94895 14.0484 3.9614C14.1696 3.78877 14.1245 3.56974 14.1741 3.37448C14.1978 3.26015 14.1358 3.07677 14.2536 3.01395C14.2796 3.06828 14.2728 3.16563 14.3574 3.15375C14.4042 2.9415 14.4498 2.72134 14.4216 2.50343C14.4115 2.43778 14.3359 2.41627 14.2953 2.37269C14.3134 2.19894 14.4081 2.00877 14.3483 1.84124C14.2006 1.74898 14.0027 1.82143 13.837 1.77898C13.4778 1.69012 13.1046 1.78407 12.746 1.69182C12.4985 1.6822 12.2239 1.63126 11.9939 1.73993ZM3.57342 2.45023C3.60217 2.4791 3.60217 2.4791 3.57342 2.45023ZM5.87375 2.74454C5.81737 2.73266 5.78072 2.75529 5.76381 2.81302C6.0085 2.82944 6.26334 2.79435 6.49958 2.87415C6.66364 2.95678 6.64222 3.17525 6.60106 3.3241C6.49225 3.47352 6.28815 3.38863 6.13874 3.37051C5.69728 3.33146 5.25469 3.30373 4.81492 3.2443C4.851 3.4622 5.14024 3.30939 5.28739 3.35467C5.65725 3.45654 6.04458 3.37787 6.41726 3.46617C6.60332 3.59917 6.63771 3.96536 6.42684 4.08195C5.92505 4.01403 5.4165 3.9897 4.91528 3.91612C4.85269 3.91895 4.76079 3.90084 4.74275 3.98177C4.94121 4.03611 5.14644 4.03158 5.34941 4.02988C5.70404 4.07289 6.06714 4.0695 6.415 4.14987C6.51029 4.30834 6.59373 4.55284 6.4229 4.69321C6.20583 4.76452 5.98031 4.67623 5.76042 4.66208C5.42214 4.64963 5.0878 4.56869 4.74783 4.59643L4.77489 4.62076C5.25525 4.69717 5.74802 4.68981 6.22444 4.78999C6.45898 4.83357 6.56272 5.15788 6.36708 5.31239C5.84274 5.28239 5.32291 5.16637 4.798 5.16693C5.26653 5.39446 5.8433 5.19127 6.30957 5.4437C6.43248 5.51161 6.38738 5.72669 6.52833 5.76008C6.52044 5.55746 6.52156 5.35484 6.54863 5.15392C6.57005 5.17599 6.61346 5.2207 6.63489 5.24277C6.6456 5.23598 6.6659 5.22183 6.67661 5.21504C6.70593 4.98525 6.7578 4.72038 6.61403 4.51832C6.64955 4.2591 6.58584 3.97725 6.70593 3.73557C6.74427 3.76953 6.78204 3.80405 6.82038 3.83915C6.81982 3.66426 6.82602 3.48937 6.82151 3.31448C6.79219 3.31279 6.73299 3.30995 6.70311 3.30826C6.71269 3.10281 6.77697 2.89679 6.72679 2.69191C6.46124 2.8351 6.15791 2.78473 5.87375 2.74454ZM18.5459 7.41047C18.5825 7.48009 18.6609 7.5016 18.7302 7.52367C19.0759 7.62215 19.4001 7.79081 19.7547 7.85929C19.6149 7.72346 19.4136 7.70195 19.2405 7.63064C19.0415 7.56555 18.8656 7.4484 18.6716 7.37199C18.64 7.38161 18.5769 7.40085 18.5459 7.41047Z" fill="#42582E"/>
<path d="M17.7114 2.02405C17.6618 1.78973 17.9691 1.81917 18.1129 1.75578C18.0334 1.82879 17.911 1.8967 17.9353 2.02405C18.0041 2.09876 18.1022 2.07669 18.1918 2.08234C18.3598 2.18422 18.5611 2.08008 18.7427 2.08744C18.6479 2.19894 18.4686 2.19384 18.3316 2.21195C18.123 2.16724 17.8789 2.17517 17.7114 2.02405Z" fill="#42582E"/>
<path d="M18.5211 1.76992C18.6282 1.76879 18.7804 1.7105 18.8565 1.80728C18.772 1.81067 18.6874 1.8135 18.6034 1.8169C18.657 1.94764 18.8622 1.87237 18.9327 1.77615C19.0657 1.85652 19.0386 2.01556 19.0031 2.14177C18.9355 2.0914 18.8599 2.05235 18.7742 2.07216C18.7748 2.03367 18.7765 1.9567 18.777 1.91821C18.6321 1.89387 18.5143 1.985 18.3948 2.04952C18.428 1.95274 18.4664 1.85708 18.5211 1.76992Z" fill="#42582E"/>
<path d="M19.0229 1.76087C19.1909 1.67371 19.0308 1.94934 19.0229 1.76087Z" fill="#42582E"/>
<path d="M19.6617 2.13668C19.7 1.95557 19.8787 1.89048 20.0219 1.80785C19.9796 1.93576 19.9599 2.12649 19.8043 2.16271C19.8201 2.09706 19.8359 2.03084 19.8517 1.96519C19.788 2.02688 19.7524 2.10895 19.7141 2.18762C19.6087 2.21082 19.4982 2.22327 19.391 2.20629L19.3414 2.19837C19.435 2.13894 19.5562 2.16215 19.6617 2.13668Z" fill="#42582E"/>
<path d="M19.1452 1.88538C19.245 1.86105 19.3493 1.86954 19.4514 1.87406C19.435 1.94142 19.4147 2.00764 19.3848 2.07046C19.2743 2.09763 19.1633 2.1214 19.0516 2.13781C19.0702 2.05122 19.0584 1.93746 19.1452 1.88538ZM19.2444 1.9284C19.1548 1.94651 19.1881 2.08631 19.2766 2.03594C19.3657 2.01726 19.333 1.87803 19.2444 1.9284Z" fill="#42582E"/>
<path d="M19.5342 1.89274C19.6831 1.86161 19.5917 2.15083 19.4784 2.07329C19.4327 2.01443 19.4722 1.92217 19.5342 1.89274Z" fill="#42582E"/>
<path d="M22.916 2.33647C23.0462 2.29006 23.1561 2.49325 23.0575 2.59116C22.4649 3.5771 21.8487 4.54945 21.2454 5.52972C21.1355 5.70405 21.0097 5.87044 20.8609 6.01307C20.7718 6.05099 20.6731 5.94798 20.7391 5.86875C21.0086 5.47709 21.286 5.08713 21.5166 4.67283C21.6835 4.5353 21.7038 4.30608 21.8504 4.1544C21.8977 4.09497 21.8977 4.0129 21.9282 3.94498C22.1159 3.66256 22.3093 3.3824 22.4677 3.08186C22.6132 2.83057 22.8066 2.60871 22.916 2.33647Z" fill="#42582E"/>
<path d="M19.9791 6.17947C20.1347 5.99949 20.3597 5.89987 20.5812 5.82856C20.5057 6.02892 20.3484 6.18286 20.2644 6.37869C20.4341 6.49076 20.606 6.59999 20.7724 6.71771C20.8423 6.77601 20.937 6.75677 21.021 6.76922C21.0926 6.89883 21.1879 7.01202 21.277 7.12975C21.1665 7.30633 20.9229 7.32388 20.7504 7.42236C20.5497 7.31482 20.4826 7.07598 20.3642 6.896C20.2136 6.66904 20.1262 6.40812 19.9791 6.17947Z" fill="#42582E"/>
<path d="M20.8124 6.07646C20.906 6.05778 21.0007 6.04194 21.0954 6.02892C21.3311 6.21399 21.5498 6.41831 21.7528 6.63904C21.8515 6.76469 22.024 6.72337 22.1627 6.74997C22.1621 6.7879 22.1621 6.86317 22.1616 6.90053C22.0522 6.8943 21.9434 6.88638 21.8346 6.88072C21.8036 6.98033 21.8487 7.07824 21.8785 7.1722C21.8475 7.17616 21.7866 7.18465 21.7562 7.18861C21.7861 7.28256 21.8329 7.38048 21.7962 7.48065C21.7286 7.51122 21.6553 7.52367 21.5842 7.50046C21.538 7.40708 21.5064 7.30803 21.4957 7.20446C21.5403 7.16767 21.5854 7.13088 21.6305 7.09409C21.6231 7.08277 21.6085 7.059 21.6012 7.04768C21.5284 7.06523 21.4563 7.08334 21.3847 7.10201C21.193 6.76073 20.9843 6.42793 20.8124 6.07646ZM21.7274 6.80714C21.6361 6.82412 21.613 6.99787 21.715 7.01429C21.8098 7.0024 21.8267 6.82185 21.7274 6.80714Z" fill="#42582E"/>
<path d="M22.236 6.86487C22.2648 6.89373 22.2648 6.89373 22.236 6.86487Z" fill="#42582E"/>
<path d="M20.4786 7.81345C20.6427 7.77779 20.8378 7.68667 20.9849 7.81628C20.9291 7.97928 20.712 8.11059 20.5463 8.03192C20.5175 7.96061 20.495 7.88816 20.4786 7.81345Z" fill="#42582E"/>
<path d="M12.2414 8.49489C12.4528 8.33245 12.4652 8.04437 12.5599 7.81345C12.5678 7.94476 12.5656 8.07606 12.5667 8.20794C12.49 8.28434 12.388 8.48697 12.565 8.50564C12.6287 8.5164 12.693 8.52545 12.7578 8.53337C12.834 8.38962 12.8385 8.17964 12.9851 8.09248C12.9631 8.32736 12.8706 8.56111 12.7048 8.7309C12.5053 8.91032 12.1873 8.90975 11.9708 8.7609C11.8913 8.71562 11.9087 8.61884 11.8997 8.54356C12.0784 8.54356 12.1016 8.83278 12.295 8.7858C12.2679 8.69128 12.216 8.59563 12.2414 8.49489Z" fill="#42582E"/>
<path d="M6.15171 7.87854C6.38963 7.83948 6.64447 7.89212 6.82376 8.06078C6.81756 8.11285 6.80854 8.16436 6.79614 8.21586C6.66477 8.21247 6.55032 8.26906 6.47702 8.37999C6.55314 8.51187 6.7905 8.48244 6.80121 8.66072C6.76907 8.71788 6.73243 8.77109 6.69747 8.82655C6.80572 8.90013 6.96359 8.93126 7.08142 8.86787C7.09214 8.77675 7.10285 8.68562 7.11243 8.59507L7.16036 8.60808C7.1722 8.82033 7.21448 9.06823 7.06 9.24142C6.99403 9.27424 6.92525 9.30197 6.85308 9.31669C6.73863 9.17576 6.62869 9.01559 6.43417 8.99069C6.40655 8.85655 6.41388 8.71053 6.33776 8.5911C6.22105 8.3766 6.04515 8.13153 6.15171 7.87854Z" fill="#42582E"/>
<path d="M21.8199 7.8808C22.0708 7.93966 22.0477 8.27982 22.2726 8.39075C22.2597 8.30868 22.2456 8.22718 22.2321 8.14625C22.2986 8.19888 22.3623 8.25548 22.4232 8.31547C22.3927 8.36981 22.3646 8.42584 22.3386 8.483C22.3809 8.55884 22.4232 8.63469 22.4643 8.71222C22.3865 8.77222 22.3082 8.83957 22.2039 8.83731C22.2631 8.71449 22.3166 8.57582 22.1813 8.48017C22.1779 8.47621 22.17 8.46885 22.1661 8.46489C22.086 8.40037 22.0015 8.34094 21.9338 8.2634C21.8842 8.13945 21.8859 7.99909 21.8199 7.8808ZM21.9558 8.16266C21.9845 8.19152 21.9845 8.19152 21.9558 8.16266Z" fill="#42582E"/>
<path d="M22.2975 8.04437C22.3758 8.02343 22.404 8.05229 22.3826 8.13096C22.3037 8.15191 22.2755 8.12304 22.2975 8.04437Z" fill="#42582E"/>
<path d="M21.4382 8.2136C21.5087 8.19096 21.5792 8.16719 21.6508 8.14681C21.6632 8.16096 21.6874 8.18983 21.6993 8.20398C21.6761 8.20964 21.6288 8.22039 21.6051 8.22548C21.6198 8.38056 21.7821 8.46829 21.8707 8.58658C21.8842 8.70091 21.8645 8.83674 21.9479 8.92843C22.0375 8.98616 22.1362 9.02861 22.2309 9.07785C22.0888 9.09992 21.9434 9.11973 21.8002 9.09653C21.763 8.93749 21.6761 8.79825 21.6152 8.64827C21.6136 8.64318 21.6096 8.63299 21.6074 8.6279C21.5561 8.48753 21.4985 8.35 21.4382 8.2136ZM21.6722 8.43999C21.7009 8.46886 21.7009 8.46886 21.6722 8.43999ZM21.7816 8.8407C21.8109 8.86957 21.8109 8.86957 21.7816 8.8407Z" fill="#42582E"/>
<path d="M9.54639 8.34038C9.72568 8.36528 9.92865 8.47791 10.0048 8.64827C9.7815 8.55432 9.61405 8.77901 9.57176 8.97484C9.66479 8.97484 9.78206 8.95446 9.83168 9.05917C9.84352 9.16048 9.75049 9.21934 9.69805 9.29179C9.78544 9.33763 9.87734 9.38857 9.97939 9.38631C10.0668 9.35348 10.1305 9.28103 10.201 9.2233C10.201 9.31273 10.2044 9.40215 10.2089 9.49214C10.2263 9.61383 10.1767 9.73155 10.086 9.81249C9.99518 9.79551 9.88242 9.82154 9.81476 9.74287C9.69693 9.61156 9.55485 9.50799 9.40713 9.41347C9.3344 9.07841 9.163 8.77505 9.10549 8.43659C9.24475 8.37603 9.39585 8.35283 9.54639 8.34038Z" fill="#42582E"/>
<path d="M20.584 8.87296C20.6455 8.89334 20.7053 8.91881 20.7633 8.94937C20.796 9.07841 20.7182 9.1967 20.6416 9.29292C20.5818 9.27424 20.5237 9.25104 20.4685 9.22274C20.4628 9.09539 20.5147 8.97654 20.584 8.87296Z" fill="#42582E"/>
<path d="M22.5044 9.12086C22.6047 9.09087 22.7057 9.062 22.806 9.03087C22.8111 9.03823 22.8207 9.05351 22.8252 9.06087C22.8455 9.08521 22.8861 9.13501 22.9064 9.15992C23.1263 9.37329 23.4268 9.47064 23.6709 9.65119C23.6715 9.7457 23.7442 9.80457 23.8113 9.85947C23.6946 9.83343 23.5773 9.81136 23.4595 9.79268C23.4984 9.8306 23.5378 9.86852 23.5784 9.90588C23.301 9.88267 23.0298 9.81419 22.7835 9.68288C22.4722 9.52101 22.0815 9.49667 21.8323 9.2284C21.9817 9.21368 22.1447 9.18652 22.28 9.27254C22.497 9.39536 22.7384 9.46215 22.9639 9.56572C23.0823 9.61609 23.2046 9.67722 23.3377 9.6659C23.3416 9.6427 23.3501 9.59515 23.354 9.57138C23.0851 9.39649 22.8049 9.23406 22.5044 9.12086Z" fill="#42582E"/>
<path d="M12.998 9.3914C13.2055 9.33424 13.378 9.20633 13.5308 9.05917C13.5635 9.08294 13.5962 9.10784 13.6295 9.13218C13.6526 9.11067 13.6983 9.06766 13.7214 9.04559C13.8178 9.1135 13.855 9.22557 13.8776 9.3365C13.8229 9.32744 13.7682 9.31839 13.7135 9.3099C13.7242 9.37895 13.7355 9.44856 13.7473 9.51875C13.4947 9.4978 13.2399 9.47177 12.998 9.3914Z" fill="#42582E"/>
<path d="M23.8113 9.85947C23.853 9.85494 23.9359 9.84475 23.9776 9.83965C24.14 9.93248 24.3074 10.0298 24.4969 10.0513C24.803 10.0819 25.1221 10.1289 25.3916 10.2851C25.5388 10.4594 25.7767 10.4005 25.9757 10.4402C25.9859 10.5098 25.9938 10.58 25.9989 10.6507C25.9413 10.6598 25.885 10.6716 25.8291 10.6869C25.7981 10.6292 25.7626 10.5743 25.7277 10.52C25.545 10.4753 25.3499 10.4781 25.1774 10.3954C24.9902 10.3128 24.8053 10.2166 24.6029 10.1775C24.4484 10.1464 24.2894 10.1708 24.1355 10.1425C23.9973 10.1057 23.8733 10.0327 23.7447 9.97323C23.7611 9.94493 23.7944 9.88833 23.8113 9.85947Z" fill="#42582E"/>
<path d="M21.8346 10.5415C22.0218 10.5534 21.7444 10.7084 21.8346 10.5415Z" fill="#42582E"/>
<path d="M22.1824 10.8867C22.2202 10.773 22.1796 10.5952 22.3302 10.5635C22.3476 10.8001 22.3296 11.0373 22.2879 11.271C22.276 11.3582 22.2755 11.4465 22.2788 11.5353C22.466 11.6032 22.6656 11.6276 22.8618 11.6587C22.762 11.7855 22.6278 11.8738 22.4672 11.8981C22.2862 11.8342 22.0956 11.8076 21.9079 11.7736C22.0195 11.5642 21.9992 11.3254 21.9998 11.0961C22.0139 11.048 22.0296 11.0005 22.046 10.9535C22.0798 10.9365 22.148 10.9037 22.1824 10.8867Z" fill="#42582E"/>
<path d="M4.57474 0.46308C4.7997 0.431385 5.02578 0.404219 5.25187 0.378749C5.38493 0.343093 5.47401 0.467607 5.53885 0.563257C5.21917 0.557032 4.86453 0.63061 4.57474 0.46308Z" fill="#D3D3CF"/>
<path d="M19.4677 0.544581C19.5934 0.489681 19.7383 0.4727 19.855 0.559295C19.7271 0.600046 19.5912 0.597783 19.4677 0.544581Z" fill="#D3D3CF"/>
<path d="M3.4646 0.585331C3.60668 0.571748 3.74989 0.572313 3.89253 0.577407C3.89422 0.617025 3.89817 0.696828 3.89986 0.736447C3.75045 0.713242 3.60217 0.687208 3.45332 0.660041C3.45614 0.641364 3.46178 0.604009 3.4646 0.585331Z" fill="#D3D3CF"/>
<path d="M20.6799 0.580803C20.844 0.569483 21.0125 0.555899 21.1698 0.615893C21.0052 0.638532 20.8355 0.649286 20.6799 0.580803Z" fill="#D3D3CF"/>
<path d="M21.9203 0.637967C22.1024 0.627213 22.2907 0.60797 22.4666 0.673058C22.2834 0.698527 22.0934 0.717204 21.9203 0.637967Z" fill="#D3D3CF"/>
<path d="M23.2165 0.696263C23.4177 0.685509 23.6247 0.661738 23.8209 0.724562C23.6196 0.757389 23.4076 0.785688 23.2165 0.696263Z" fill="#D3D3CF"/>
<path d="M3.40145 0.751163C3.43077 0.780028 3.43077 0.780028 3.40145 0.751163Z" fill="#D3D3CF"/>
<path d="M24.2702 1.03642C24.1631 1.01151 24.0532 1.11452 24.1389 1.21244C24.1924 1.1632 24.2556 1.11282 24.2702 1.03642Z" fill="#D3D3CF"/>
<path d="M23.8868 1.50788C23.9432 1.40034 24.0238 1.30978 24.1169 1.23281C23.9878 1.56957 23.7701 1.86331 23.5643 2.15649C23.5942 1.90633 23.7701 1.71955 23.8868 1.50788Z" fill="#D3D3CF"/>
<path d="M21.7782 1.42185C21.9344 1.45241 22.0843 1.51637 22.2202 1.59957C22.2681 1.77389 22.1007 1.88652 22.0483 2.03763C21.7991 2.38005 21.6761 2.80906 21.3677 3.1079C21.3029 3.1877 21.1941 3.17525 21.1033 3.17752C20.9843 3.17525 20.8654 3.17186 20.747 3.17129C21.0943 2.5906 21.4495 2.01386 21.7782 1.42185Z" fill="#D3D3CF"/>
<path d="M23.2497 1.6256C23.1133 1.64315 22.9588 1.68559 22.8895 1.81747C23.0248 1.82143 23.2644 1.8152 23.2497 1.6256Z" fill="#D3D3CF"/>
<path d="M23.469 2.22667L23.5192 2.22271C23.5046 2.24874 23.4747 2.30195 23.4595 2.32855C23.4617 2.30308 23.4668 2.25214 23.469 2.22667Z" fill="#D3D3CF"/>
<path d="M3.57342 2.45023C3.60217 2.4791 3.60217 2.4791 3.57342 2.45023Z" fill="#D3D3CF"/>
<path d="M18.5459 7.41047C18.5769 7.40085 18.64 7.38161 18.6716 7.37199C18.8656 7.4484 19.0415 7.56555 19.2405 7.63064C19.4136 7.70195 19.6149 7.72346 19.7547 7.85929C19.4001 7.79081 19.0759 7.62215 18.7302 7.52367C18.6609 7.5016 18.5825 7.48009 18.5459 7.41047Z" fill="#D3D3CF"/>
<path d="M21.5363 7.79194C21.5651 7.78345 21.6231 7.76704 21.6519 7.75912C21.6716 7.78176 21.7117 7.82703 21.7314 7.84967C21.6902 7.89382 21.6496 7.93797 21.6102 7.98324C21.5865 7.91872 21.5622 7.85477 21.5363 7.79194Z" fill="#D3D3CF"/>
<path d="M21.2194 7.82534C21.295 7.89495 21.3689 7.96683 21.4427 8.03984C21.4393 8.09701 21.4388 8.1553 21.4382 8.2136C21.4061 8.19605 21.3424 8.1621 21.3108 8.14512L21.3035 8.14115C21.3001 8.14229 21.2922 8.14455 21.2882 8.14568C21.145 8.21247 21.0114 8.01494 21.0159 7.8859C21.092 7.94193 21.167 8.00022 21.2431 8.05795C21.2352 7.97985 21.2273 7.90231 21.2194 7.82534Z" fill="#D3D3CF"/>
<path d="M21.9558 8.16266C21.9845 8.19152 21.9845 8.19152 21.9558 8.16266Z" fill="#D3D3CF"/>
<path d="M12.5667 8.20794C12.49 8.28434 12.388 8.48697 12.565 8.50564C12.5864 8.40716 12.5757 8.30642 12.5667 8.20794Z" fill="#D3D3CF"/>
<path d="M21.3784 8.33359C21.5668 8.33868 21.2933 8.50338 21.3784 8.33359Z" fill="#D3D3CF"/>
<path d="M22.1813 8.48017C22.1779 8.47621 22.17 8.46885 22.1661 8.46489L22.1813 8.48017Z" fill="#D3D3CF"/>
<path d="M21.6152 8.64827C21.6136 8.64318 21.6096 8.63299 21.6074 8.6279L21.6152 8.64827Z" fill="#D3D3CF"/>
<path d="M21.7816 8.8407C21.8109 8.86957 21.8109 8.86957 21.7816 8.8407Z" fill="#D3D3CF"/>
<path d="M25.8291 10.6869C25.885 10.6716 25.9413 10.6598 25.9989 10.6507C26.0146 10.7543 25.8635 10.799 25.7902 10.7531C25.7998 10.7367 25.8196 10.7039 25.8291 10.6869Z" fill="#D3D3CF"/>
<path d="M7.39603 0.512886C7.69767 0.494775 7.99366 0.5825 8.29587 0.559295C8.67362 0.537788 9.04573 0.627779 9.42348 0.614762C9.83788 0.603442 10.2478 0.69117 10.6622 0.670228C11.0405 0.650419 11.4115 0.760219 11.7903 0.72626C12.132 0.692301 12.463 0.821911 12.8046 0.788518C13.0228 0.7755 13.2427 0.781727 13.4592 0.815685C13.8296 0.873415 14.2085 0.799272 14.5772 0.877377C14.92 0.946992 15.2702 0.860962 15.6135 0.92039C16.0014 0.991138 16.3978 0.91473 16.7857 0.98378C17.1409 1.04321 17.5028 0.992269 17.8586 1.04038C18.202 1.08849 18.5493 1.03245 18.8921 1.08509C19.2811 1.15074 19.678 1.08735 20.0676 1.15074C20.3489 1.19998 20.6354 1.17055 20.9184 1.19715C20.9201 1.23677 20.9235 1.31545 20.9251 1.35506C20.6726 1.36469 20.4183 1.36468 20.1685 1.3245C19.8139 1.2662 19.4525 1.32676 19.099 1.26224C18.7404 1.20055 18.3756 1.27356 18.0181 1.2113C17.7853 1.16999 17.5491 1.18187 17.3151 1.19149C17.0676 1.20338 16.8274 1.12811 16.5805 1.12697C16.1847 1.12075 15.7804 1.19036 15.3931 1.08C15.1969 1.02566 14.9719 1.11113 14.7966 0.988308C14.6821 1.15697 14.4797 1.0466 14.3235 1.02057C13.9836 0.992837 13.6346 1.07604 13.3013 0.973028C13.0978 0.906242 12.8272 1.05906 12.6721 0.873415C12.5853 0.937936 12.4816 0.973593 12.3739 0.939069C11.9882 0.853606 11.5874 0.975857 11.2045 0.871717C11.0083 0.819647 10.8054 0.880773 10.6063 0.86153C10.5184 0.851908 10.4637 0.759086 10.3741 0.75569C9.90384 0.748332 9.43701 0.684943 8.9668 0.685509C8.45204 0.608536 7.92488 0.676453 7.4152 0.558164L7.39603 0.512886Z" fill="#2A2C2A"/>
<path d="M3.96526 0.630609C4.27761 0.671926 4.59109 0.680415 4.90175 0.630043C5.21522 0.791347 5.58113 0.707017 5.9166 0.691736C6.25545 0.84738 6.63151 0.769841 6.98727 0.746636C7.25677 0.883037 7.57419 0.829833 7.86399 0.812288C8.01904 0.759652 8.16055 0.843417 8.30601 0.884733C8.53097 0.915862 8.75875 0.89096 8.98258 0.862661C9.10267 0.837192 9.20585 0.922089 9.32087 0.940766C9.57909 0.974159 9.83901 0.93737 10.0961 0.908505C10.4287 0.978121 10.7693 1.03868 11.1081 0.970763C11.4126 1.0268 11.7244 1.07773 12.0345 1.04038C12.2622 0.996797 12.4793 1.10886 12.7065 1.11226C12.9174 1.13773 13.1299 1.05566 13.3386 1.11226C13.643 1.18357 13.9565 1.16942 14.2649 1.14452C14.5992 1.21074 14.9398 1.25092 15.2797 1.20168C15.5256 1.24809 15.7731 1.29167 16.024 1.27356C16.2213 1.2679 16.4344 1.21074 16.6154 1.31941C16.6239 1.35563 16.6402 1.42694 16.6487 1.4626C16.2771 1.38506 15.8988 1.42468 15.5239 1.39468C15.163 1.31035 14.7904 1.38563 14.4278 1.32054C14.0918 1.25828 13.7479 1.32959 13.413 1.26224C13.0922 1.20112 12.7635 1.27752 12.4438 1.2113C12.0937 1.13603 11.7323 1.22545 11.3833 1.14735C11.063 1.08396 10.7338 1.16263 10.4141 1.09641C10.064 1.02057 9.70313 1.11509 9.353 1.03528C9.0181 0.967366 8.67362 1.05509 8.33984 0.979253C8.02242 0.914731 7.69597 0.992837 7.37911 0.924919C7.04421 0.85304 6.6986 0.941898 6.36483 0.864359C6.0288 0.794177 5.68262 0.888131 5.34884 0.80663C5.02917 0.734184 4.6999 0.827005 4.38022 0.759087C4.2404 0.733618 4.09832 0.728523 3.9568 0.7206C3.95906 0.698526 3.96357 0.653248 3.96526 0.630609Z" fill="#2A2C2A"/>
<path d="M3.50068 1.53561C3.55143 1.31092 3.81585 1.31658 3.96921 1.19772C4.18571 1.16433 4.40785 1.17904 4.62604 1.19206C4.63337 1.34035 4.62379 1.4892 4.61533 1.63749C4.57643 1.569 4.55951 1.48184 4.49355 1.43373C4.26013 1.36355 3.99176 1.32903 3.76793 1.45015C3.7403 1.5475 3.73128 1.64881 3.71662 1.74898L3.67152 1.74785C3.66588 1.6771 3.66024 1.60692 3.65404 1.53674L3.61739 1.55655C3.63713 1.79709 3.68843 2.03424 3.69858 2.27534C3.64502 2.24478 3.56327 2.22214 3.56609 2.1446C3.53451 1.94311 3.49899 1.73993 3.50068 1.53561Z" fill="#2A2C2A"/>
<path d="M4.86172 1.26111C5.21128 1.20508 5.56027 1.273 5.90476 1.3279C5.97185 1.34544 6.03218 1.39468 6.04627 1.46543C6.01696 1.48241 5.95888 1.5175 5.92957 1.53448C5.65105 1.47505 5.36745 1.46033 5.08329 1.45977C4.96376 1.47505 4.87863 1.36978 4.86172 1.26111Z" fill="#2A2C2A"/>
<path d="M7.113 1.36808C7.28101 1.31431 7.44734 1.39921 7.61648 1.39977C7.83693 1.40374 8.05963 1.37487 8.2767 1.42411C8.58172 1.49203 8.89519 1.42468 9.20303 1.46769C9.2549 1.69974 9.13255 1.96349 9.28591 2.16838C9.32143 2.36817 9.32256 2.60191 9.20134 2.77567C9.20247 2.6421 9.20811 2.50796 9.20134 2.37439L9.1427 2.38118C9.11226 2.65398 9.13143 2.93245 9.05362 3.19959C8.99104 3.36882 9.20359 3.48711 9.16413 3.65294C9.12297 3.81707 9.16526 4.01799 9.04516 4.15213C8.88279 4.30438 8.9527 4.54605 8.93128 4.74358C9.07279 4.96544 9.04516 5.26428 8.93579 5.49463C8.93015 5.39502 8.92564 5.29541 8.91887 5.19636L8.86757 5.2207C8.80555 5.49011 8.83881 5.7731 8.78018 6.04477C8.61216 5.98364 8.69842 5.68424 8.50391 5.62085C8.02749 5.5467 7.54487 5.52633 7.06677 5.46407C7.00531 5.45105 6.91003 5.46124 6.88917 5.38257C7.2641 5.4137 7.6379 5.47596 8.01396 5.50426C8.23667 5.51558 8.4605 5.60217 8.68207 5.53708C8.75932 5.382 8.76213 5.15957 8.61554 5.04694C8.2688 4.96941 7.91078 4.95865 7.55897 4.9162C7.39039 4.88847 7.1908 4.93658 7.04929 4.82112C7.56743 4.83187 8.08218 4.92752 8.59863 4.9711C8.74353 5.03789 8.78976 4.85734 8.8016 4.75037C8.79427 4.61793 8.7813 4.4555 8.67305 4.36607C8.12447 4.26872 7.56235 4.27551 7.01264 4.18722C6.99516 4.17534 6.96021 4.15157 6.94273 4.13968C7.43437 4.13685 7.91981 4.25005 8.41201 4.26137C8.53661 4.2574 8.66178 4.31683 8.78412 4.29023C8.91492 4.14138 8.90703 3.90197 8.78638 3.75029C8.52026 3.57427 8.18254 3.6337 7.88259 3.58502C7.61197 3.53974 7.33345 3.572 7.06564 3.51371C7.04872 3.50069 7.01433 3.47522 6.99742 3.4622C7.2235 3.43447 7.44621 3.4939 7.67004 3.51144C8.04835 3.51937 8.42103 3.61558 8.80047 3.57766C8.92564 3.54314 8.98033 3.38749 8.93804 3.2709C8.89801 3.08073 8.67531 3.03885 8.5135 3.01338C8.21411 2.99074 7.91417 2.9749 7.61479 2.94603C7.43042 2.93301 7.18686 3.01395 7.05492 2.84019C7.67511 2.8634 8.29248 2.98056 8.91493 2.95565C9.07448 2.81189 9.00231 2.51192 8.90308 2.34043C8.60652 2.30591 8.30714 2.3127 8.01114 2.27591C7.72078 2.23799 7.42196 2.27025 7.13724 2.19724L7.11243 2.15536C7.45297 2.12932 7.78787 2.21365 8.12785 2.21252C8.40975 2.21139 8.68828 2.29459 8.97074 2.2544C8.9933 2.18649 8.99499 2.118 8.97469 2.04782C8.71872 2.02348 8.45824 2.07669 8.20566 2.01726C7.87357 1.93632 7.52007 2.05122 7.19475 1.92274C7.2765 1.72635 7.16994 1.55146 7.113 1.36808Z" fill="#2A2C2A"/>
<path d="M9.4793 1.53787C9.66141 1.50335 9.85028 1.48977 10.033 1.52882C10.3938 1.61881 10.7699 1.51524 11.1301 1.60975C11.3179 1.66918 11.5772 1.54353 11.7182 1.70314C11.7142 1.91425 11.6821 2.12536 11.6173 2.32685C11.6719 2.31327 11.7272 2.30025 11.783 2.28723C11.7746 2.50796 11.7977 2.74171 11.7176 2.95112C11.6669 2.96301 11.6015 2.96471 11.5896 3.02923C11.522 3.20242 11.5406 3.39429 11.5203 3.57653C11.4938 3.66822 11.6116 3.70954 11.6049 3.7967C11.6077 3.9863 11.6167 4.18666 11.5473 4.36664C11.5237 4.3723 11.4763 4.38305 11.4526 4.38815C11.3556 4.64623 11.2976 4.96092 11.438 5.21221C11.4419 5.40181 11.4504 5.61123 11.3449 5.77819C11.3416 5.66047 11.3444 5.54274 11.3393 5.42559C11.2609 5.48332 11.2468 5.58123 11.2513 5.67179C11.2575 5.89308 11.213 6.11098 11.1916 6.33058C11.1702 6.32153 11.1273 6.30398 11.1059 6.29549C11.0546 6.17324 11.0264 6.0425 10.9666 5.92421C10.8967 5.86875 10.8009 5.88176 10.7185 5.86818C10.3041 5.84158 9.89595 5.7448 9.47986 5.75498C9.40826 5.76517 9.34511 5.73404 9.30846 5.67292C9.68678 5.66499 10.0611 5.74593 10.4372 5.77876C10.639 5.78611 10.8431 5.88233 11.0427 5.82234C11.2113 5.68763 11.151 5.43634 11.0456 5.28126C10.4727 5.20485 9.89031 5.18335 9.32199 5.09053L9.3079 5.03902C9.72343 5.07468 10.1356 5.14882 10.5522 5.1692C10.7535 5.18957 10.957 5.25522 11.1589 5.19523C11.275 5.03845 11.2057 4.83131 11.1566 4.66264C11.1335 4.56982 11.014 4.58737 10.9429 4.56982C10.3893 4.50813 9.83111 4.48436 9.28027 4.40399L9.25716 4.36437C9.46464 4.33947 9.6693 4.38418 9.8734 4.41588C10.2867 4.44135 10.7005 4.47757 11.1104 4.53813C11.3624 4.54039 11.328 4.20986 11.2581 4.04969C11.1967 3.86971 10.992 3.84707 10.8296 3.84084C10.3487 3.8216 9.87114 3.75312 9.39078 3.72199L9.37612 3.68916C9.67437 3.6569 9.96868 3.71406 10.2636 3.74406C10.6216 3.72538 10.9773 3.86631 11.3331 3.78028C11.3946 3.60143 11.4024 3.34561 11.2108 3.24317C10.6255 3.17129 10.0335 3.15884 9.44772 3.08809C9.44434 3.07224 9.43645 3.04055 9.43307 3.0247C9.76458 3.07281 10.1006 3.07055 10.4321 3.11922C10.7524 3.08752 11.0675 3.22506 11.3844 3.16054C11.5192 2.96527 11.4227 2.70096 11.3269 2.50966C10.7169 2.45646 10.1029 2.44401 9.49452 2.37326L9.48212 2.32176C9.82153 2.29232 10.1559 2.38684 10.4953 2.37948C10.8138 2.37552 11.1296 2.46721 11.4481 2.4225C11.4757 2.35741 11.4786 2.28893 11.4549 2.21762C11.1149 2.2046 10.7721 2.23969 10.4372 2.15989C10.1423 2.17121 9.85141 2.14177 9.56048 2.0931C9.64336 1.8984 9.54808 1.71729 9.4793 1.53787Z" fill="#2A2C2A"/>
<path d="M11.9939 1.73993C12.2239 1.63126 12.4985 1.6822 12.746 1.69182C13.1046 1.78407 13.4778 1.69012 13.837 1.77898C14.0027 1.82143 14.2006 1.74898 14.3483 1.84124C14.4081 2.00877 14.3134 2.19894 14.2953 2.37269C14.3359 2.41627 14.4115 2.43778 14.4216 2.50343C14.4498 2.72134 14.4042 2.9415 14.3574 3.15375C14.2728 3.16563 14.2796 3.06828 14.2536 3.01395C14.1358 3.07677 14.1978 3.26015 14.1741 3.37448C14.1245 3.56974 14.1696 3.78877 14.0484 3.9614C14.1025 3.94895 14.1572 3.93706 14.2125 3.92517C14.2762 3.98743 14.2429 4.07629 14.2322 4.15213C14.2063 4.28231 14.1961 4.41531 14.1685 4.54549C14.1155 4.62133 13.9937 4.6485 13.9841 4.7515C13.9644 4.94111 13.9413 5.13014 13.8883 5.31409C13.9215 5.32314 13.9881 5.34069 14.0213 5.34974C14.0631 5.58349 13.9898 5.81611 13.961 6.0476C13.9136 6.01533 13.8652 5.98534 13.8161 5.9576C13.7823 6.19475 13.7603 6.43416 13.7276 6.67187C13.7067 6.66225 13.665 6.64357 13.6441 6.63395C13.5804 6.4851 13.55 6.32323 13.4688 6.1823C12.8621 6.10929 12.2549 6.04307 11.6483 5.97345C11.6438 5.95817 11.6353 5.92704 11.6308 5.91176C12.1489 5.97515 12.6676 6.03175 13.1863 6.08835C13.338 6.11268 13.4936 6.14834 13.6447 6.09854C13.709 5.91969 13.6921 5.7148 13.5793 5.55916C12.9349 5.46917 12.2854 5.41596 11.6376 5.35484C11.6398 5.33559 11.6443 5.29654 11.6466 5.27673C12.1997 5.34522 12.7539 5.4103 13.3087 5.45728C13.4367 5.47086 13.5663 5.52293 13.6943 5.47879C13.8167 5.27503 13.7496 5.02204 13.6391 4.82961C13.0967 4.7798 12.5526 4.71868 12.008 4.70057C11.9538 4.6734 11.8338 4.67453 11.8495 4.58737C12.4303 4.65642 13.0132 4.71075 13.5951 4.76622C13.6667 4.76622 13.7377 4.75716 13.8076 4.73962C13.9277 4.55285 13.8691 4.31966 13.7479 4.15043C13.6616 4.07006 13.5314 4.08704 13.4237 4.0695C13.0595 4.05195 12.6969 4.01234 12.3333 3.98064C12.1585 3.96366 11.9775 4.0112 11.8089 3.94668C11.8146 3.92857 11.8253 3.89235 11.8309 3.87424C12.419 3.92631 13.0076 3.97045 13.5945 4.03158C13.6842 4.03441 13.7749 4.03328 13.8635 4.0146C14.0298 3.86858 13.9864 3.51257 13.7569 3.44975C13.5038 3.4124 13.2472 3.41749 12.9924 3.409C12.7426 3.36768 12.4917 3.33712 12.2391 3.32637C12.1241 3.31278 11.9894 3.33316 11.9025 3.23977C12.1292 3.2143 12.3508 3.27769 12.5763 3.28901C13.0426 3.29637 13.5077 3.37731 13.9723 3.38693C14.1177 3.21657 14.0433 2.98055 13.9757 2.79378C13.9368 2.69926 13.8189 2.70436 13.736 2.68342C13.5184 2.64097 13.2968 2.71794 13.0809 2.66304C12.7195 2.57079 12.3446 2.66757 11.9815 2.57928C11.9798 2.5606 11.977 2.52268 11.9753 2.50343C12.2532 2.47514 12.5278 2.54815 12.8058 2.55098C13.1621 2.55381 13.5156 2.63587 13.8725 2.60248C13.9565 2.59569 14.0253 2.54192 14.0935 2.49777C14.0755 2.42137 13.9762 2.41627 13.9148 2.3976C13.6487 2.34892 13.3752 2.42363 13.1108 2.35685C12.7764 2.26572 12.4105 2.40835 12.0903 2.24988C12.057 2.10951 12.0818 1.96745 12.0931 1.82652C12.0683 1.80502 12.0187 1.76144 11.9939 1.73993Z" fill="#2A2C2A"/>
<path d="M14.6195 1.8752C14.6821 1.82482 14.7639 1.85595 14.8366 1.85652C15.0751 1.88822 15.3175 1.83954 15.5554 1.88312C15.9501 1.97198 16.3611 1.8718 16.7541 1.98387C16.8054 2.19045 16.8336 2.40665 16.9215 2.60248C17.0258 2.6953 17.1826 2.68964 17.314 2.71907C17.2604 2.93754 17.2221 3.1594 17.1787 3.38014C17.0845 3.40674 17.0975 3.29524 17.0721 3.23751C16.9943 3.22845 17.0146 3.33995 17.0039 3.38863C16.9813 3.63653 16.9526 3.88669 16.8793 4.1261C16.912 4.13515 16.9768 4.15326 17.0095 4.16232C17.049 4.40116 16.9932 4.64567 16.9306 4.87602C16.9165 4.88791 16.8877 4.91224 16.8731 4.92469C16.868 4.83131 16.8646 4.73849 16.8601 4.64567L16.8139 4.65642C16.7845 4.94903 16.7011 5.23542 16.7034 5.53199C16.8905 5.7731 16.7378 6.08212 16.7079 6.35039C16.6926 6.36171 16.6622 6.38435 16.647 6.39567C16.6408 6.32153 16.6346 6.24795 16.6295 6.17438L16.5895 6.18739C16.563 6.38945 16.4998 6.58584 16.4964 6.79073C16.4936 6.87393 16.4553 6.97354 16.3735 7.00693C16.3296 6.87789 16.3053 6.74205 16.2512 6.61697C16.1418 6.48114 15.9541 6.45114 15.7906 6.44039C15.3559 6.41605 14.9268 6.33738 14.4932 6.30908C14.4284 6.31247 14.3748 6.27512 14.323 6.24229C14.6522 6.21909 14.9764 6.30795 15.3046 6.32662C15.6366 6.3453 15.9665 6.43699 16.2997 6.40586C16.4654 6.27738 16.4062 6.02213 16.3437 5.84894C15.8013 5.76857 15.2521 5.73914 14.708 5.67405C14.6962 5.65877 14.6731 5.62821 14.6613 5.61349C15.079 5.62028 15.4923 5.70744 15.9101 5.73065C16.0944 5.73631 16.2794 5.81045 16.4632 5.75895C16.5235 5.54614 16.519 5.29881 16.3995 5.10694C15.9422 5.04581 15.4822 5.01299 15.0232 4.96884L15.0181 4.93148C15.5397 4.8913 16.0572 5.056 16.5748 5.02544C16.621 4.83187 16.6334 4.62416 16.572 4.43286C16.51 4.38531 16.435 4.35589 16.3577 4.3474C15.9287 4.29136 15.4951 4.28004 15.0666 4.21892C14.8445 4.18609 14.6178 4.22514 14.3974 4.1776C14.4211 4.11648 14.4791 4.09157 14.5417 4.10685C15.2375 4.16289 15.9293 4.25344 16.6267 4.2857C16.8105 4.12044 16.7485 3.70388 16.4756 3.66426C16.1007 3.59974 15.7173 3.6269 15.3412 3.57087C15.0717 3.52616 14.7909 3.57144 14.5271 3.49729L14.4977 3.45994C15.1213 3.44353 15.7387 3.56861 16.3623 3.57653C16.5179 3.56465 16.7716 3.71859 16.8302 3.4956C16.8562 3.4939 16.908 3.48994 16.934 3.48824C16.8359 3.28222 16.762 3.03093 16.5297 2.93867C16.2016 2.8051 15.8345 2.86736 15.4895 2.83963C15.207 2.76944 14.915 2.7819 14.6274 2.75586C14.6291 2.73549 14.6325 2.69474 14.6342 2.67436C15.2273 2.71341 15.8193 2.78246 16.4147 2.79039C16.5263 2.81416 16.5669 2.69473 16.5376 2.60757C16.5117 2.49381 16.4998 2.34609 16.3944 2.27761C16.0601 2.148 15.6941 2.20743 15.3451 2.16894C15.1681 2.14687 14.9899 2.14291 14.814 2.118C14.7216 2.06367 14.6652 1.96858 14.6195 1.8752Z" fill="#2A2C2A"/>
<path d="M23.1933 2.10046C23.2311 2.01782 23.2666 1.93406 23.3027 1.85143C23.389 1.96009 23.4256 2.09706 23.469 2.22667C23.4668 2.25214 23.4617 2.30308 23.4595 2.32855C23.2024 2.64493 23.0169 3.01055 22.7942 3.3507C22.2157 4.23533 21.6908 5.15505 21.0954 6.02892C21.0007 6.04194 20.906 6.05778 20.8124 6.07646C20.9843 6.42793 21.193 6.76073 21.3847 7.10201C21.4563 7.08334 21.5284 7.06523 21.6012 7.04768C21.6085 7.059 21.6231 7.08277 21.6305 7.09409C21.5854 7.13088 21.5403 7.16767 21.4957 7.20446C21.5064 7.30803 21.538 7.40708 21.5842 7.50046C21.6553 7.52367 21.7286 7.51122 21.7962 7.48065C21.8329 7.38048 21.7861 7.28256 21.7562 7.18861C21.7866 7.18465 21.8475 7.17616 21.8785 7.1722C21.9225 7.29162 21.9682 7.40991 22.0161 7.5282C22.4108 7.47047 22.7265 7.1705 23.1285 7.13597C23.3202 7.11956 23.5824 7.10201 23.6923 7.29728C23.8851 7.92042 23.6816 8.62846 24.0441 9.20576C24.1428 9.43328 24.3875 9.51195 24.573 9.64892C24.5837 9.71344 24.5933 9.77853 24.6023 9.84418C24.0452 9.59628 23.4826 9.35971 22.9064 9.15992C22.8861 9.13501 22.8455 9.08521 22.8252 9.06087C22.9086 9.03483 22.9988 8.97824 23.0828 9.03653C23.4189 9.1967 23.7425 9.388 24.0988 9.50177C23.9736 9.25387 23.8101 9.01729 23.7797 8.73317C23.729 8.32113 23.7115 7.90457 23.6664 7.49197C23.6399 7.33633 23.4758 7.22993 23.3241 7.27237C22.8697 7.30746 22.4846 7.56668 22.0584 7.69799C22.139 7.82081 22.2377 7.94815 22.2061 8.10606C22.1097 7.98211 22.0398 7.83892 21.9366 7.72006C21.8408 7.72629 21.7449 7.73648 21.6519 7.75912C21.6231 7.76704 21.5651 7.78345 21.5363 7.79194C21.5025 7.87344 21.4687 7.95495 21.4427 8.03984C21.3689 7.96683 21.295 7.89495 21.2194 7.82534C21.2273 7.90231 21.2352 7.97985 21.2431 8.05795C21.167 8.00022 21.092 7.94193 21.0159 7.8859C21.0114 8.01494 21.145 8.21247 21.2882 8.14568L21.3108 8.14512C21.3424 8.1621 21.4061 8.19605 21.4382 8.2136C21.4985 8.35 21.5561 8.48753 21.6074 8.6279L21.6152 8.64827C21.6761 8.79825 21.763 8.93749 21.8002 9.09653C21.9434 9.11973 22.0888 9.09992 22.2309 9.07785C22.1362 9.02861 22.0375 8.98616 21.9479 8.92843C21.8645 8.83674 21.8842 8.70091 21.8707 8.58658C21.9518 8.63129 22.0364 8.67204 22.121 8.71166C21.9975 8.52885 21.847 8.36698 21.6993 8.20398C21.6874 8.18983 21.6632 8.16096 21.6508 8.14681C21.6372 8.09191 21.6237 8.03758 21.6102 7.98324C21.6496 7.93797 21.6902 7.89382 21.7314 7.84967C21.7534 7.8576 21.7979 7.87288 21.8199 7.8808C21.8859 7.99909 21.8842 8.13945 21.9338 8.2634C22.0015 8.34094 22.086 8.40037 22.1661 8.46489L22.1813 8.48017C22.3166 8.57582 22.2631 8.71449 22.2039 8.83731C22.3082 8.83957 22.3865 8.77222 22.4643 8.71222C22.4824 8.78354 22.4959 8.85655 22.5111 8.93013C22.5269 8.91428 22.5579 8.88315 22.5737 8.86787C22.6526 8.89221 22.7299 8.92503 22.8009 8.96918C22.8021 8.98503 22.8049 9.01559 22.806 9.03087C22.7057 9.062 22.6047 9.09087 22.5044 9.12086C22.8049 9.23406 23.0851 9.39649 23.354 9.57138C23.3501 9.59515 23.3416 9.6427 23.3377 9.6659C23.2046 9.67722 23.0823 9.61609 22.9639 9.56572C22.7384 9.46215 22.497 9.39536 22.28 9.27254C22.1447 9.18652 21.9817 9.21368 21.8323 9.2284C22.0815 9.49667 22.4722 9.52101 22.7835 9.68288C23.0298 9.81419 23.301 9.88267 23.5784 9.90588C23.6342 9.92682 23.6895 9.94946 23.7447 9.97323C23.8733 10.0327 23.9973 10.1057 24.1355 10.1425C24.2894 10.1708 24.4484 10.1464 24.6029 10.1775C24.8053 10.2166 24.9902 10.3128 25.1774 10.3954C25.3499 10.4781 25.545 10.4753 25.7277 10.52C25.7626 10.5743 25.7981 10.6292 25.8291 10.6869C25.8196 10.7039 25.7998 10.7367 25.7902 10.7531C25.6983 10.7113 25.6194 10.6484 25.5388 10.5896C25.3375 10.6654 25.1272 10.7124 24.9129 10.6603C24.5532 10.6688 24.1744 10.7758 23.8299 10.6117C23.345 10.3779 22.8122 10.2721 22.3324 10.0259C22.3273 10.2047 22.3324 10.3841 22.3302 10.5635C22.1796 10.5952 22.2202 10.773 22.1824 10.8867C22.148 10.9037 22.0798 10.9365 22.046 10.9535C21.9992 10.7877 22.0105 10.6054 21.9225 10.4532C22.0184 10.2868 22.0381 10.0638 21.9552 9.89229C21.3378 9.63307 20.6974 9.42762 20.0783 9.17123C19.9864 9.13331 19.8984 9.0869 19.8156 9.0337C19.8071 8.9522 19.7998 8.87183 19.793 8.7909C19.687 8.83731 19.5822 8.91088 19.4609 8.89164C19.1435 8.85542 18.8616 8.68279 18.5509 8.6194C18.4523 8.6245 18.3694 8.69355 18.2736 8.71392C18.1754 8.71223 18.0836 8.67374 17.9916 8.64431C17.9967 8.56564 18.0418 8.50168 18.0819 8.43773C17.6207 8.30642 17.16 8.17172 16.7079 8.01324C16.5596 7.95608 16.4034 7.92721 16.2455 7.91702C15.759 7.87741 15.2792 7.78458 14.7937 7.73534C14.5823 7.71044 14.3771 7.63517 14.1623 7.63856C14.2502 8.08569 14.173 8.63299 13.7569 8.89334C13.6797 8.94597 13.6024 8.99861 13.5308 9.05917C13.378 9.20633 13.2055 9.33424 12.998 9.3914C12.7759 9.42536 12.5515 9.44234 12.3271 9.43498C12.1004 9.43498 11.9161 9.27594 11.6967 9.24028C11.5755 9.49667 11.5389 9.79494 11.3331 10.0066C11.1724 10.1679 11.0004 10.3173 10.8296 10.4673C10.5697 10.5409 10.3239 10.6892 10.0465 10.6824C9.92864 10.675 9.81757 10.7164 9.70481 10.7418C9.58134 10.7101 9.45786 10.6801 9.33382 10.653C9.1878 10.5596 9.0367 10.4747 8.88785 10.3853C8.62004 10.1679 8.41538 9.85664 8.34209 9.51761C8.07202 9.6942 7.84312 9.93983 7.53133 10.0462C7.1564 10.2234 6.72452 10.2024 6.32817 10.126C6.14493 10.0377 5.98199 9.90814 5.81905 9.78702C5.4272 9.36989 5.18815 8.77844 5.29922 8.20228C5.09061 8.23793 4.89779 8.32849 4.69313 8.37773C4.60461 8.10436 4.61758 7.81175 4.57698 7.52989C4.52624 7.11843 4.66213 6.69225 4.50821 6.29549C4.75177 6.29436 4.99026 6.34983 5.2327 6.36398C5.32686 6.27342 5.40015 6.16306 5.49994 6.07873C5.69953 6.0408 5.90025 6.0991 6.09927 6.11721C6.93991 6.20267 7.77603 6.32379 8.61498 6.42567C9.51482 6.51227 10.4079 6.65546 11.3077 6.74432C11.2874 6.84789 11.2508 6.94977 11.2502 7.05617C11.3105 7.20333 11.3946 7.33973 11.4797 7.4733C11.7441 7.50895 12.0587 7.54121 12.2324 7.77044C12.2701 7.9374 12.2634 8.11059 12.2656 8.28151C12.2577 8.35226 12.2498 8.42358 12.2414 8.49489C12.216 8.59563 12.2679 8.69128 12.295 8.7858C12.1016 8.83278 12.0784 8.54356 11.8997 8.54356C11.9087 8.61884 11.8913 8.71562 11.9708 8.7609C12.1873 8.90975 12.5053 8.91032 12.7048 8.7309C12.8706 8.56111 12.9631 8.32736 12.9851 8.09248C12.8385 8.17964 12.834 8.38962 12.7578 8.53337C12.693 8.52545 12.6287 8.5164 12.565 8.50564C12.5864 8.40716 12.5757 8.30642 12.5667 8.20794C12.5656 8.07606 12.5678 7.94476 12.5599 7.81345C12.5408 7.78968 12.5024 7.7427 12.4833 7.71893C12.4731 7.66686 12.463 7.61479 12.4534 7.56272C12.3271 7.56555 12.185 7.61706 12.0756 7.52876C11.9995 7.48858 11.9905 7.39576 11.9578 7.32501C11.8693 7.29898 11.7278 7.33576 11.717 7.20899C12.1292 7.24521 12.538 7.31369 12.9501 7.35444C12.9151 7.56329 12.8571 7.7693 12.8565 7.98324C12.936 7.9657 13.0144 7.94306 13.0916 7.91476C13.0753 7.73704 13.0324 7.56102 13.0437 7.38218C13.135 7.37878 13.2269 7.38274 13.3171 7.39859C14.1273 7.52254 14.9415 7.61423 15.755 7.7161C16.3239 7.75742 16.8702 7.97023 17.4465 7.93797C17.5372 7.91703 17.5818 8.02909 17.6731 8.00305C17.8146 7.994 17.9488 8.05852 18.0909 8.04833C18.2504 8.04324 18.4275 8.00192 18.5583 8.12247C18.5978 8.09304 18.6378 8.06418 18.6784 8.03588C18.7359 8.07833 18.7945 8.11965 18.8537 8.16096C19.1007 8.09644 19.3606 8.03362 19.6149 8.09644C19.806 8.22209 19.7383 8.48357 19.7434 8.67544C19.8032 8.64035 19.8342 8.57922 19.8663 8.52036C19.9768 8.45244 20.1257 8.45244 20.2159 8.3483C20.3698 8.20737 20.2802 7.964 20.4059 7.80609C20.4905 7.6895 20.5863 7.53669 20.4983 7.39463C20.2187 7.16371 19.8832 7.00523 19.612 6.76186C19.5799 6.68715 19.5979 6.60339 19.6222 6.52924C19.7271 6.23041 19.8658 5.94346 20.0422 5.68028C20.5722 4.79735 21.114 3.92178 21.6496 3.04225C21.825 2.71172 22.0533 2.39533 22.3702 2.18932C22.6245 2.0665 22.8973 1.97424 23.1776 1.93519C23.1482 2.00537 23.1172 2.07442 23.0862 2.14404C23.1133 2.13328 23.1668 2.11121 23.1933 2.10046ZM22.916 2.33647C22.8066 2.60871 22.6132 2.83057 22.4677 3.08186C22.3093 3.3824 22.1159 3.66256 21.9282 3.94498C21.8977 4.0129 21.8977 4.09497 21.8504 4.1544C21.7038 4.30608 21.6835 4.5353 21.5166 4.67283C21.286 5.08713 21.0086 5.47709 20.7391 5.86875C20.6731 5.94798 20.7718 6.05099 20.8609 6.01307C21.0097 5.87044 21.1355 5.70405 21.2454 5.52972C21.8487 4.54945 22.4649 3.5771 23.0575 2.59116C23.1561 2.49325 23.0462 2.29006 22.916 2.33647ZM19.9791 6.17947C20.1262 6.40812 20.2136 6.66904 20.3642 6.896C20.4826 7.07598 20.5497 7.31482 20.7504 7.42236C20.9229 7.32388 21.1665 7.30633 21.277 7.12975C21.1879 7.01202 21.0926 6.89883 21.021 6.76922C20.937 6.75677 20.8423 6.77601 20.7724 6.71771C20.606 6.59999 20.4341 6.49076 20.2644 6.37869C20.3484 6.18286 20.5057 6.02892 20.5812 5.82856C20.3597 5.89987 20.1347 5.99949 19.9791 6.17947ZM5.49881 6.99278C5.6127 7.13031 5.58507 7.31029 5.59071 7.47556C5.83709 7.26728 6.1111 7.07994 6.43304 7.01712C6.44939 7.0041 6.48152 6.97863 6.49731 6.96618C6.32309 6.96901 6.15057 6.95486 5.97917 6.92769C5.87036 6.95033 5.76774 7.00636 5.65385 7.00184C5.64765 6.96505 5.63581 6.8909 5.63017 6.85411C5.55237 6.82582 5.43115 6.91185 5.49881 6.99278ZM21.8408 7.54348C21.8695 7.57234 21.8695 7.57234 21.8408 7.54348ZM20.4786 7.81345C20.495 7.88816 20.5175 7.96061 20.5463 8.03192C20.712 8.11059 20.9291 7.97928 20.9849 7.81628C20.8378 7.68667 20.6427 7.77779 20.4786 7.81345ZM5.84837 9.02012C5.97353 9.31273 6.25995 9.60081 6.60218 9.55723C6.80628 9.56516 6.96979 9.41234 7.06 9.24142C7.21448 9.06823 7.1722 8.82033 7.16036 8.60808L7.11243 8.59507C7.10285 8.68562 7.09214 8.77675 7.08142 8.86787C6.96359 8.93126 6.80572 8.90013 6.69747 8.82655C6.73243 8.77109 6.76907 8.71788 6.80121 8.66072C6.7905 8.48244 6.55314 8.51187 6.47702 8.37999C6.55032 8.26906 6.66477 8.21247 6.79614 8.21586C6.80854 8.16436 6.81756 8.11285 6.82376 8.06078C6.64447 7.89212 6.38963 7.83948 6.15171 7.87854C5.75197 8.09248 5.664 8.63299 5.84837 9.02012ZM6.89367 8.17681C6.8418 8.23001 6.92073 8.33925 6.98613 8.2968C7.038 8.24303 6.9585 8.13266 6.89367 8.17681ZM18.0029 8.23058C17.9499 8.33472 18.1833 8.38565 18.198 8.28321C18.1636 8.21926 18.0627 8.1836 18.0029 8.23058ZM18.269 8.25944C18.2933 8.40433 18.4517 8.38169 18.5605 8.38113C18.5357 8.23567 18.3773 8.25888 18.269 8.25944ZM9.02655 8.4349C8.7204 8.64544 8.69672 9.07785 8.79426 9.40442C8.92112 9.81192 9.34848 10.1815 9.7922 10.0411C9.89989 9.98964 10.0673 9.95059 10.086 9.81249C10.1767 9.73155 10.2263 9.61383 10.2089 9.49214C10.3047 9.46101 10.2793 9.29745 10.2743 9.21368C10.2833 9.11294 10.1852 9.13614 10.201 9.2233C10.1305 9.28103 10.0668 9.35348 9.97939 9.38631C9.87734 9.38857 9.78544 9.33763 9.69805 9.29179C9.75049 9.21934 9.84352 9.16048 9.83168 9.05917C9.78206 8.95446 9.66479 8.97484 9.57176 8.97484C9.61405 8.77901 9.7815 8.55432 10.0048 8.64827C9.92865 8.47791 9.72568 8.36528 9.54639 8.34038C9.37161 8.34321 9.1675 8.30246 9.02655 8.4349ZM18.635 8.33189C18.5848 8.44169 18.8216 8.49319 18.8379 8.3783C18.8188 8.29397 18.6925 8.28095 18.635 8.33189ZM21.3784 8.33359C21.5668 8.33868 21.2933 8.50338 21.3784 8.33359ZM20.5463 8.56564C20.4656 8.56394 20.3726 8.74279 20.5085 8.70996C20.6038 8.71902 20.6804 8.55319 20.5463 8.56564ZM20.584 8.87296C20.5147 8.97654 20.4628 9.09539 20.4685 9.22274C20.5237 9.25104 20.5818 9.27424 20.6416 9.29292C20.7182 9.1967 20.796 9.07841 20.7633 8.94937C20.7053 8.91881 20.6455 8.89334 20.584 8.87296Z" fill="#121212"/>
<path d="M18.7911 2.21818C18.9755 2.2312 19.1582 2.16837 19.3414 2.19837L19.391 2.20629L19.3978 2.25667C19.1954 2.2578 18.993 2.2578 18.7906 2.26006L18.7911 2.21818Z" fill="#2A2C2A"/>
<path d="M5.87375 2.74454C6.15791 2.78473 6.46124 2.8351 6.72679 2.69191C6.77697 2.89679 6.71269 3.10281 6.70311 3.30826C6.73299 3.30995 6.79219 3.31279 6.82151 3.31448C6.82602 3.48937 6.81982 3.66426 6.82038 3.83915C6.78204 3.80405 6.74427 3.76953 6.70593 3.73557C6.58584 3.97725 6.64955 4.2591 6.61403 4.51832C6.7578 4.72038 6.70593 4.98525 6.67661 5.21504C6.6659 5.22183 6.6456 5.23598 6.63489 5.24277C6.61346 5.2207 6.57005 5.17599 6.54863 5.15392C6.52156 5.35484 6.52044 5.55746 6.52833 5.76008C6.38738 5.72669 6.43248 5.51161 6.30957 5.4437C5.8433 5.19127 5.26653 5.39446 4.798 5.16693C5.32291 5.16637 5.84274 5.28239 6.36708 5.31239C6.56272 5.15788 6.45898 4.83357 6.22444 4.78999C5.74802 4.68981 5.25525 4.69717 4.77489 4.62076L4.74783 4.59643C5.0878 4.56869 5.42214 4.64963 5.76042 4.66208C5.98031 4.67623 6.20583 4.76452 6.4229 4.69321C6.59373 4.55284 6.51029 4.30834 6.415 4.14987C6.06714 4.0695 5.70404 4.07289 5.34941 4.02988C5.14644 4.03158 4.94121 4.03611 4.74275 3.98177C4.76079 3.90084 4.85269 3.91895 4.91528 3.91612C5.4165 3.9897 5.92505 4.01403 6.42684 4.08195C6.63771 3.96536 6.60332 3.59917 6.41726 3.46617C6.04458 3.37787 5.65725 3.45654 5.28739 3.35467C5.14024 3.30939 4.851 3.4622 4.81492 3.2443C5.25469 3.30373 5.69728 3.33146 6.13874 3.37051C6.28815 3.38863 6.49225 3.47352 6.60106 3.3241C6.64222 3.17525 6.66364 2.95678 6.49958 2.87415C6.26334 2.79435 6.0085 2.82944 5.76381 2.81302C5.78072 2.75529 5.81737 2.73266 5.87375 2.74454Z" fill="#2A2C2A"/>
<path d="M17.3658 2.7253C18.176 2.82831 18.984 2.95056 19.7936 3.05866C20.1116 3.09601 20.425 3.17525 20.747 3.17129C20.8654 3.17186 20.9843 3.17525 21.1033 3.17752C20.8716 3.39372 20.5491 3.50012 20.2435 3.55672C19.8139 3.51144 19.386 3.439 18.9563 3.38976C18.7342 3.37448 18.5391 3.2477 18.317 3.23638C18.0695 3.20299 17.8208 3.17978 17.5744 3.14073C17.3765 3.12092 17.3765 2.87698 17.3658 2.7253Z" fill="#2A2C2A"/>
<path d="M22.5162 8.61544C22.5444 8.64431 22.5444 8.64431 22.5162 8.61544Z" fill="#2A2C2A"/>
<path d="M24.0565 0.743805C24.2144 0.724562 24.3695 0.885867 24.2702 1.03642C24.18 0.953784 24.1078 0.854737 24.0565 0.743805Z" fill="#ACAFAD"/>
<path d="M16.5805 1.12697C16.8274 1.12811 17.0676 1.20338 17.3151 1.19149C17.5491 1.18187 17.7853 1.16999 18.0181 1.2113C18.3756 1.27356 18.7404 1.20055 19.099 1.26224C19.4525 1.32676 19.8139 1.2662 20.1685 1.3245C20.4183 1.36468 20.6726 1.36469 20.9251 1.35506C21.2127 1.33582 21.4895 1.44505 21.7782 1.42185C21.4495 2.01386 21.0943 2.5906 20.747 3.17129C20.425 3.17525 20.1116 3.09601 19.7936 3.05866C18.984 2.95056 18.176 2.82831 17.3658 2.7253L17.314 2.71907C17.1826 2.68964 17.0258 2.6953 16.9215 2.60248C16.8336 2.40665 16.8054 2.19045 16.7541 1.98387C16.7197 1.80954 16.6932 1.63409 16.6487 1.4626C16.6402 1.42694 16.6239 1.35563 16.6154 1.31941C16.6007 1.25545 16.5895 1.1915 16.5805 1.12697ZM17.7114 2.02405C17.8789 2.17517 18.123 2.16724 18.3316 2.21195C18.4686 2.19384 18.6479 2.19894 18.7427 2.08744C18.5611 2.08008 18.3598 2.18422 18.1918 2.08234C18.1022 2.07669 18.0041 2.09876 17.9353 2.02405C17.911 1.8967 18.0334 1.82879 18.1129 1.75578C17.9691 1.81917 17.6618 1.78973 17.7114 2.02405ZM18.5211 1.76992C18.4664 1.85708 18.428 1.95274 18.3948 2.04952C18.5143 1.985 18.6321 1.89387 18.777 1.91821C18.7765 1.9567 18.7748 2.03367 18.7742 2.07216C18.8599 2.05235 18.9355 2.0914 19.0031 2.14177C19.0386 2.01556 19.0657 1.85652 18.9327 1.77615C18.8622 1.87237 18.657 1.94764 18.6034 1.8169C18.6874 1.8135 18.772 1.81067 18.8565 1.80728C18.7804 1.7105 18.6282 1.76879 18.5211 1.76992ZM19.0229 1.76087C19.1909 1.67371 19.0308 1.94934 19.0229 1.76087ZM19.6617 2.13668C19.5562 2.16215 19.435 2.13894 19.3414 2.19837C19.1582 2.16837 18.9755 2.2312 18.7911 2.21818L18.7906 2.26006C18.993 2.2578 19.1954 2.2578 19.3978 2.25667L19.391 2.20629C19.4982 2.22327 19.6087 2.21082 19.7141 2.18762C19.7524 2.10895 19.788 2.02688 19.8517 1.96519C19.8359 2.03084 19.8201 2.09706 19.8043 2.16271C19.9599 2.12649 19.9796 1.93576 20.0219 1.80785C19.8787 1.89048 19.7 1.95557 19.6617 2.13668ZM19.1452 1.88538C19.0584 1.93746 19.0702 2.05122 19.0516 2.13781C19.1633 2.1214 19.2743 2.09763 19.3848 2.07046C19.4147 2.00764 19.435 1.94142 19.4514 1.87406C19.3493 1.86954 19.245 1.86105 19.1452 1.88538ZM19.4784 2.07329C19.4327 2.01443 19.4722 1.92217 19.5342 1.89274C19.6831 1.86161 19.5917 2.15083 19.4784 2.07329Z" fill="#ACAFAD"/>
<path d="M5.92957 1.53448C5.95888 1.5175 6.01696 1.48241 6.04627 1.46543L6.07052 1.47448C6.13987 1.58994 5.87206 1.69522 5.92957 1.53448Z" fill="#ACAFAD"/>
<path d="M6.16411 1.47618C6.30506 1.46996 6.45165 1.48241 6.5537 1.59277C6.61346 1.58145 6.67266 1.56957 6.73186 1.55768C6.72002 1.57296 6.69691 1.60409 6.68507 1.61937C6.5148 1.61768 6.34396 1.60126 6.17539 1.63749L6.16016 1.60579C6.24079 1.60862 6.29491 1.58485 6.32254 1.53335C6.24812 1.54127 6.19512 1.52203 6.16411 1.47618Z" fill="#ACAFAD"/>
<path d="M19.2766 2.03594C19.3657 2.01726 19.333 1.87803 19.2444 1.9284C19.1548 1.94651 19.1881 2.08631 19.2766 2.03594Z" fill="#ACAFAD"/>
<path d="M21.715 7.01429C21.8098 7.0024 21.8267 6.82185 21.7274 6.80714C21.6361 6.82412 21.613 6.99787 21.715 7.01429Z" fill="#ACAFAD"/>
<path d="M12.4833 7.71893C12.5024 7.7427 12.5408 7.78968 12.5599 7.81345C12.4652 8.04437 12.4528 8.33245 12.2414 8.49489C12.2498 8.42358 12.2577 8.35226 12.2656 8.28151C12.3141 8.08512 12.3914 7.89778 12.4833 7.71893Z" fill="#ACAFAD"/>
<path d="M5.84837 9.02012C5.664 8.63299 5.75197 8.09248 6.15171 7.87854C6.04515 8.13153 6.22105 8.3766 6.33776 8.5911C6.41388 8.71053 6.40655 8.85655 6.43417 8.99069C6.62869 9.01559 6.73863 9.17576 6.85308 9.31669C6.92525 9.30197 6.99403 9.27424 7.06 9.24142C6.96979 9.41234 6.80628 9.56516 6.60218 9.55723C6.25995 9.60081 5.97353 9.31273 5.84837 9.02012Z" fill="#ACAFAD"/>
<path d="M6.98613 8.2968C7.038 8.24303 6.9585 8.13266 6.89367 8.17681C6.8418 8.23001 6.92073 8.33925 6.98613 8.2968Z" fill="#ACAFAD"/>
<path d="M9.02655 8.4349C9.1675 8.30246 9.37161 8.34321 9.54639 8.34038C9.39585 8.35283 9.24475 8.37603 9.10549 8.43659C9.163 8.77505 9.3344 9.07841 9.40713 9.41347C9.55485 9.50799 9.69693 9.61156 9.81476 9.74287C9.88242 9.82154 9.99518 9.79551 10.086 9.81249C10.0673 9.95059 9.89989 9.98964 9.7922 10.0411C9.34848 10.1815 8.92112 9.81192 8.79426 9.40442C8.69672 9.07785 8.7204 8.64544 9.02655 8.4349Z" fill="#ACAFAD"/>
<path d="M22.4486 8.44678C22.6357 8.44848 22.3674 8.61884 22.4486 8.44678Z" fill="#ACAFAD"/>
<path d="M13.5308 9.05917C13.6024 8.99861 13.6797 8.94597 13.7569 8.89334C13.842 9.07672 13.9447 9.25273 14.0236 9.44007C13.9379 9.48422 13.8471 9.5312 13.7473 9.51875C13.7355 9.44856 13.7242 9.37895 13.7135 9.3099C13.7682 9.31839 13.8229 9.32744 13.8776 9.3365C13.855 9.22557 13.8178 9.1135 13.7214 9.04559C13.6983 9.06766 13.6526 9.11067 13.6295 9.13218C13.5962 9.10784 13.5635 9.08294 13.5308 9.05917Z" fill="#ACAFAD"/>
<path d="M10.201 9.2233C10.1852 9.13614 10.2833 9.11294 10.2743 9.21368C10.2793 9.29745 10.3047 9.46101 10.2089 9.49214C10.2044 9.40215 10.201 9.31273 10.201 9.2233Z" fill="#ACAFAD"/>
<path d="M23.8113 9.85947C23.7442 9.80457 23.6715 9.7457 23.6709 9.65119C23.7735 9.71231 23.8756 9.77627 23.9776 9.83965C23.9359 9.84475 23.853 9.85494 23.8113 9.85947Z" fill="#ACAFAD"/>
<path d="M23.4595 9.79268C23.5773 9.81136 23.6946 9.83343 23.8113 9.85947C23.7944 9.88833 23.7611 9.94493 23.7447 9.97323C23.6895 9.94946 23.6342 9.92682 23.5784 9.90588C23.5378 9.86852 23.4984 9.8306 23.4595 9.79268Z" fill="#ACAFAD"/>
<path d="M2.33473 6.44322C2.48301 6.33342 2.61494 6.13306 2.82242 6.16872C2.9989 6.19985 3.17762 6.19871 3.35466 6.17211C3.44543 6.34587 3.40991 6.5417 3.3851 6.72621C3.45953 6.7064 3.53338 6.68432 3.60668 6.66055C3.59653 6.50378 3.56609 6.3504 3.54184 6.19588C3.8587 6.2638 4.18684 6.25474 4.50821 6.29549C4.66213 6.69225 4.52624 7.11843 4.57698 7.52989C4.61758 7.81175 4.60461 8.10436 4.69313 8.37773C4.89779 8.32849 5.09061 8.23793 5.29922 8.20228C5.18815 8.77844 5.4272 9.36989 5.81905 9.78702C5.98199 9.90814 6.14493 10.0377 6.32817 10.126C6.72452 10.2024 7.1564 10.2234 7.53133 10.0462C7.84312 9.93983 8.07202 9.6942 8.34209 9.51761C8.41538 9.85664 8.62004 10.1679 8.88785 10.3853C9.0367 10.4747 9.1878 10.5596 9.33382 10.653C9.45786 10.6801 9.58134 10.7101 9.70481 10.7418C9.81757 10.7164 9.92864 10.675 10.0465 10.6824C10.3239 10.6892 10.5697 10.5409 10.8296 10.4673C10.6638 10.6552 10.4158 10.7198 10.1857 10.7899C9.95966 10.8618 9.72229 10.8143 9.49452 10.7831C8.89012 10.7011 8.31108 10.4837 7.77096 10.2047C7.48342 10.0315 7.18629 10.2998 6.88634 10.2783C6.15283 10.233 5.43398 9.99643 4.80759 9.61213C4.6858 9.53063 4.59616 9.41177 4.49354 9.30933C4.32215 9.31046 4.12763 9.44913 3.97766 9.31669C3.84009 9.20859 3.70929 9.09256 3.58582 8.96974C3.5097 8.90013 3.53169 8.78637 3.51083 8.69468C3.23795 8.63355 2.95604 8.59054 2.67583 8.62506C2.52022 8.66129 2.39731 8.5413 2.25861 8.49489C2.02858 8.41395 1.77994 8.4547 1.54258 8.41622C1.24038 8.22039 0.942686 8.00815 0.700249 7.73817C0.472471 7.49197 0.20579 7.28199 0 7.01542C0.0704759 6.89769 0.219885 6.88241 0.338284 6.84166C0.872774 6.70696 1.40444 6.56207 1.93499 6.41095C2.05677 6.37756 2.18307 6.36115 2.30936 6.35719C2.31612 6.37869 2.32853 6.42171 2.33473 6.44322Z" fill="black" fill-opacity="0.24"/>
<path d="M5.49881 6.99278C5.43115 6.91185 5.55237 6.82582 5.63017 6.85411C5.63581 6.8909 5.64765 6.96505 5.65385 7.00184C5.76774 7.00636 5.87036 6.95033 5.97917 6.92769C6.15057 6.95486 6.32309 6.96901 6.49731 6.96618C6.48152 6.97863 6.44939 7.0041 6.43304 7.01712C6.1111 7.07994 5.83709 7.26728 5.59071 7.47556C5.58507 7.31029 5.6127 7.13031 5.49881 6.99278Z" fill="black"/>
<path d="M14.1623 7.63856C14.3771 7.63517 14.5823 7.71044 14.7937 7.73534C15.2792 7.78458 15.759 7.87741 16.2455 7.91702C16.4034 7.92721 16.5596 7.95608 16.7079 8.01324C16.8009 8.33925 17.0546 8.57469 17.2508 8.83957C17.4194 9.08747 17.743 9.10332 17.9928 9.22614C18.3249 9.38178 18.7139 9.44687 18.989 9.70382C19.0262 9.85437 18.8503 9.95172 18.7889 10.0757C18.9642 10.2041 19.1993 10.1645 19.3865 10.2675C19.713 10.4385 20.0935 10.4583 20.4149 10.6439C20.906 10.915 21.4918 10.8714 21.9998 11.0961C21.9992 11.3254 22.0195 11.5642 21.9079 11.7736C22.0956 11.8076 22.2862 11.8342 22.4672 11.8981C22.4604 11.9236 22.4474 11.9745 22.4407 12H22.3042C22.1503 11.957 21.993 11.9247 21.8464 11.8613C21.7105 11.7747 21.6028 11.6468 21.4529 11.5817C21.1146 11.4329 20.7695 11.284 20.4025 11.2223C19.6267 11.0899 18.847 10.9778 18.0723 10.8397C17.8547 10.8052 17.6376 10.765 17.4279 10.6977C17.3359 10.6745 17.2294 10.6275 17.1431 10.692C17.0518 10.765 16.9836 10.8618 16.9046 10.9478C16.5274 10.9354 16.1706 10.7831 15.7939 10.7594C14.306 10.5177 12.817 10.2772 11.3331 10.0066C11.5389 9.79494 11.5755 9.49667 11.6967 9.24028C11.9161 9.27594 12.1004 9.43498 12.3271 9.43498C12.5515 9.44234 12.7759 9.42536 12.998 9.3914C13.2399 9.47177 13.4947 9.4978 13.7473 9.51875C13.8471 9.5312 13.9379 9.48422 14.0236 9.44007C13.9447 9.25273 13.842 9.07672 13.7569 8.89334C14.173 8.63299 14.2502 8.08569 14.1623 7.63856Z" fill="black" fill-opacity="0.35"/>
<path d="M22.2879 11.271C22.6949 11.3265 23.1043 11.3887 23.4955 11.5189C23.6917 11.5851 23.8998 11.6004 24.1011 11.644C24.1095 11.6751 24.1264 11.7363 24.1349 11.7668C23.7154 11.6876 23.2886 11.6491 22.8618 11.6587C22.6656 11.6276 22.466 11.6032 22.2788 11.5353C22.2755 11.4465 22.276 11.3582 22.2879 11.271Z" fill="black" fill-opacity="0.33"/>
</svg>
