<svg width="25" height="13" viewBox="0 0 25 13" fill="none" xmlns="http://www.w3.org/2000/svg">
<path d="M3.12779 0.253124C4.0519 0.161956 4.97819 0.0890223 5.90175 0C6.19562 0.0605995 6.49766 0.0230601 6.79152 0.078833C7.01178 0.110473 7.2364 0.0804405 7.45557 0.126024C7.69273 0.171072 7.93697 0.12817 8.17468 0.172145C8.44074 0.228454 8.71552 0.177508 8.98212 0.232745C9.21928 0.277792 9.46353 0.234353 9.70069 0.278864C9.9493 0.329274 10.2055 0.288517 10.4547 0.338927C10.7066 0.385583 10.9661 0.337854 11.2174 0.392555C11.4551 0.437602 11.6988 0.393092 11.9365 0.438676C12.1846 0.489622 12.4414 0.447792 12.6895 0.498739C12.9419 0.545395 13.2014 0.497666 13.4533 0.552366C13.6904 0.59795 13.9347 0.553439 14.1724 0.599022C14.4237 0.653723 14.6832 0.605994 14.9351 0.65265C15.1837 0.704133 15.4405 0.661767 15.6891 0.71325C15.9263 0.758834 16.17 0.713787 16.4072 0.759371C16.6732 0.816753 16.9485 0.763123 17.2151 0.819969C17.4523 0.866089 17.6965 0.821043 17.9337 0.866627C18.1823 0.918646 18.4386 0.875206 18.6872 0.927225C18.9243 0.972808 19.168 0.928834 19.4057 0.973346C19.6418 1.01732 19.8888 0.984607 20.1172 1.07041C20.0829 1.25007 20.0785 1.43294 20.0938 1.61473C20.0491 1.66622 20.0065 1.71984 19.9651 1.77347L19.9313 1.7531C19.9248 1.66139 19.9215 1.56969 19.9182 1.47798C19.6909 1.39486 19.4799 1.55145 19.2564 1.57398C18.9172 1.61634 18.5858 1.69786 18.2521 1.76757C18.0253 1.81852 17.7881 1.79975 17.5624 1.85499C17.4583 2.01587 17.4621 2.21483 17.4512 2.39824C17.4447 2.73931 17.3907 3.0777 17.3934 3.41931C17.3929 3.79792 17.334 4.17332 17.3062 4.55086C17.2795 4.87692 17.298 5.20512 17.2598 5.53118C17.2097 5.93821 17.2566 6.34954 17.202 6.75658C17.1764 7.28964 17.1077 7.82002 17.1192 8.35415C17.1284 8.62765 16.9823 8.92689 17.1519 9.17573C17.1988 9.26421 17.2195 9.36182 17.2391 9.45888C17.1246 9.48731 17.0101 9.51519 16.8935 9.53503C16.8389 9.0674 16.9654 8.60513 16.9382 8.13803C16.9142 7.74279 17.0156 7.35292 16.9938 6.95768C16.9643 6.52705 17.0745 6.10178 17.0472 5.67115C17.0238 5.27591 17.1241 4.88603 17.1023 4.4908C17.0788 4.13095 17.1633 3.77701 17.1584 3.41824C17.1235 2.81171 17.2806 2.20893 17.1879 1.60294C16.9927 1.5595 16.7932 1.54126 16.5936 1.53429C11.7953 1.15246 7.00087 0.721294 2.20041 0.36735L2.20259 0.309969C2.5139 0.333565 2.81867 0.260095 3.12779 0.253124Z" fill="#8A9098"/>
<path d="M22.4948 1.99228C22.7113 1.99067 22.9326 2.03571 23.1474 2.07272C23.516 2.2084 23.9309 2.20786 24.2727 2.41272C24.4494 2.50764 24.6358 2.58969 24.7906 2.71893C24.7563 2.73502 24.6881 2.76666 24.6538 2.78221C24.5399 2.5484 24.2623 2.50764 24.0448 2.41272C23.7003 2.26739 23.3246 2.22931 22.9642 2.13868C22.7298 2.07379 22.4856 2.05824 22.2429 2.07164C22.3269 2.04644 22.4103 2.01748 22.4948 1.99228Z" fill="#8A9098"/>
<path d="M24.6871 2.85408C24.7023 3.0289 24.7018 3.2048 24.6838 3.37963C24.626 3.363 24.5682 3.34638 24.511 3.32975C24.4766 3.37319 24.4417 3.41717 24.4079 3.46061C24.3916 3.38821 24.3757 3.31635 24.3599 3.24449C24.3365 3.30723 24.3131 3.37051 24.2896 3.43379C24.1947 3.49117 24.101 3.55124 24.0099 3.61398C24.0132 3.44345 24.0088 3.27291 23.9952 3.10291C24.023 3.09915 24.0781 3.09165 24.1059 3.08789C24.1353 3.14635 24.1642 3.20587 24.1931 3.26594C24.2231 3.19515 24.2536 3.12436 24.2847 3.05411C24.3027 3.07556 24.3381 3.119 24.3561 3.14045C24.4052 3.09647 24.4537 3.0525 24.5028 3.00906C24.536 3.03212 24.5698 3.05572 24.6036 3.07878C24.6309 3.0037 24.6582 2.92862 24.6871 2.85408Z" fill="#8A9098"/>
<path d="M22.9899 3.09433C23.1523 3.01228 22.9959 3.27345 22.9899 3.09433Z" fill="#8A9098"/>
<path d="M23.2243 3.16565C23.2859 3.17477 23.3475 3.18389 23.4102 3.19354C23.492 3.29865 23.5678 3.40805 23.6305 3.5255C23.4794 3.42307 23.3361 3.30938 23.2243 3.16565Z" fill="#8A9098"/>
<path d="M23.1409 5.84222L23.1796 5.81541C23.2068 6.2514 23.2254 6.69598 23.1589 7.12875C23.1251 6.70134 23.1338 6.27071 23.1409 5.84222Z" fill="#8A9098"/>
<path d="M3.55087 7.31913C3.60648 7.2462 3.63864 7.25102 3.64737 7.33307C3.62338 7.32932 3.5754 7.32235 3.55087 7.31913Z" fill="#8A9098"/>
<path d="M24.0137 7.7991C24.0421 7.72939 24.1817 7.74815 24.1691 7.83021C24.1457 7.9085 23.9941 7.88437 24.0137 7.7991Z" fill="#8A9098"/>
<path d="M24.7247 8.00235C24.8015 8.01039 24.8146 8.04579 24.765 8.10853C24.6876 8.10049 24.6745 8.06456 24.7247 8.00235Z" fill="#8A9098"/>
<path d="M6.01679 9.05399C6.17926 9.07276 6.35209 9.09368 6.50311 9.01431C6.42896 9.22292 6.43714 9.4503 6.35481 9.65784C6.12856 9.53664 6.05005 9.28835 6.01679 9.05399Z" fill="#8A9098"/>
<path d="M8.41239 9.56721C8.54269 9.58705 8.67245 9.60851 8.8022 9.63317C8.79621 9.75974 8.80057 9.88737 8.81638 10.0139C8.74714 10.0134 8.67844 10.0134 8.60975 10.0113C8.48163 9.90453 8.44891 9.72166 8.41239 9.56721Z" fill="#8A9098"/>
<path d="M16.0462 10.9857C16.3319 10.9878 16.6023 11.0897 16.882 11.1348C17.1208 11.1927 17.3776 11.205 17.5968 11.3235C17.0794 11.2168 16.5549 11.1262 16.0462 10.9857Z" fill="#8A9098"/>
<path d="M19.662 11.0919C19.7247 11.0554 19.7901 11.0227 19.855 10.99C19.885 11.0237 19.9149 11.0581 19.9455 11.0924C19.9308 11.1948 19.8752 11.3514 20.0333 11.3664C20.0125 11.4313 19.9967 11.4973 19.9809 11.5632C19.8555 11.4217 19.6865 11.2897 19.662 11.0919Z" fill="#8A9098"/>
<path d="M20.0567 11.3176C20.06 11.3107 20.0671 11.2967 20.0703 11.2897L20.0567 11.3176Z" fill="#8A9098"/>
<path d="M19.1151 11.6533C19.1915 11.6362 19.27 11.7568 19.2362 11.8233C19.1506 11.8582 19.0666 11.7214 19.1151 11.6533Z" fill="#8A9098"/>
<path d="M18.8927 11.8544C18.92 11.8802 18.92 11.8802 18.8927 11.8544Z" fill="#8A9098"/>
<path d="M18.7515 11.8807C18.8562 11.8716 18.9238 12.0121 18.7798 12.0041C18.7728 11.973 18.7586 11.9113 18.7515 11.8807Z" fill="#8A9098"/>
<path d="M2.04231 0.365206C2.08156 0.365743 2.16061 0.366813 2.20041 0.36735C7.00087 0.721294 11.7953 1.15246 16.5936 1.53429C16.7932 1.54126 16.9927 1.5595 17.1879 1.60294C17.2806 2.20893 17.1235 2.81171 17.1584 3.41824C17.1633 3.77701 17.0788 4.13095 17.1023 4.4908C17.1241 4.88603 17.0238 5.27591 17.0472 5.67115C17.0745 6.10178 16.9643 6.52705 16.9938 6.95768C17.0156 7.35292 16.9142 7.74279 16.9382 8.13803C16.9654 8.60513 16.8389 9.0674 16.8935 9.53503C16.6547 9.54791 16.4213 9.49052 16.1907 9.43636C16.0402 9.39399 15.8941 9.4739 15.7442 9.47926C15.5506 9.42832 15.374 9.32857 15.187 9.25992C15.1199 9.30658 15.0523 9.35377 14.9864 9.40204C14.8015 9.39399 14.6124 9.39882 14.4384 9.3275C14.2236 9.23847 13.9876 9.25778 13.7602 9.24491C13.8044 9.17519 13.8491 9.10601 13.8943 9.03683C13.7237 9.09475 13.5509 9.19611 13.3644 9.15696C13.2864 9.1457 13.2096 9.13014 13.1316 9.11888C13.2357 9.06633 13.3382 9.01109 13.4407 8.95693C12.8388 8.87756 12.2413 8.76708 11.6443 8.65715C11.5445 8.64267 11.4437 8.65071 11.3434 8.65232C11.1842 8.59655 11.0217 8.55043 10.8549 8.52308C9.03446 8.21364 7.21786 7.87901 5.39363 7.59156C4.92967 7.4961 4.46298 7.41673 3.9952 7.34595C3.88017 7.32878 3.76349 7.32557 3.64737 7.33307C3.63864 7.25102 3.60648 7.2462 3.55087 7.31913C3.51488 7.32503 3.44183 7.33737 3.40584 7.34326C3.44074 7.30733 3.47563 7.27087 3.50998 7.23494C3.23302 7.2226 2.95388 7.23708 2.68946 7.32557C2.68564 7.26175 2.68182 7.19793 2.67801 7.13412C2.58314 7.10462 2.48828 7.07566 2.39287 7.0467V7.00755C2.3945 6.80591 2.36506 6.60534 2.36888 6.40424C2.37597 6.32165 2.36234 6.24014 2.33562 6.16238C2.25384 5.95055 2.40486 5.73711 2.34925 5.5226C2.25821 5.11878 2.34925 4.70317 2.28874 4.2972C2.26802 4.15723 2.24185 4.01834 2.21841 3.8789C2.16552 3.6542 2.29746 3.43379 2.24676 3.20856C2.15734 2.81975 2.22495 2.4213 2.19169 2.02821C2.17261 1.78098 2.05921 1.53912 2.111 1.28868C2.14644 1.10044 2.15298 0.907383 2.10991 0.719686C2.08756 0.601168 2.06302 0.483724 2.04231 0.365206ZM2.36779 0.797447C2.36561 1.10581 2.33835 1.41739 2.39614 1.72306C2.4632 2.11723 2.37161 2.5189 2.44412 2.91253C2.52317 3.3201 2.42667 3.73786 2.49864 4.14597C2.57824 4.55408 2.48392 4.9713 2.55425 5.37941C2.62131 5.75695 2.56733 6.14093 2.58968 6.52169C4.43081 6.859 6.28394 7.13787 8.12888 7.45481C10.9874 7.93103 13.8458 8.40402 16.7037 8.88077C16.7375 8.48607 16.6645 8.08655 16.7441 7.6956C16.8117 7.30197 16.7119 6.89923 16.7904 6.50667C16.8728 6.0814 16.7643 5.64487 16.8455 5.2196C16.9245 4.7938 16.8177 4.3578 16.8978 3.932C16.9769 3.52389 16.8706 3.10613 16.9491 2.69802C16.9921 2.48083 16.9834 2.25881 16.9676 2.03947C16.7108 1.96385 16.4415 1.98048 16.1787 1.94723C12.1006 1.59918 8.02312 1.25167 3.94504 0.898803C3.41838 0.879497 2.89609 0.760444 2.36779 0.797447Z" fill="#656B6B"/>
<path d="M19.2564 1.57398C19.4799 1.55145 19.6909 1.39486 19.9182 1.47798C19.9215 1.56969 19.9248 1.66139 19.9313 1.7531C19.5856 1.85284 19.2324 1.92846 18.8753 1.97297C18.6157 2.00729 18.3453 1.99603 18.1033 2.10704C18.0629 2.11026 18.0226 2.11347 17.9828 2.11723C17.9593 2.21161 17.9359 2.306 17.913 2.40092C17.8203 2.41862 17.7287 2.44114 17.6377 2.4642C17.5406 2.92004 17.587 3.38928 17.5237 3.84941C17.5079 4.33849 17.4697 4.82704 17.4239 5.31452C17.3563 6.48843 17.2969 7.66289 17.2424 8.83787C17.2446 8.95693 17.2048 9.07008 17.1519 9.17573C16.9823 8.92689 17.1284 8.62765 17.1192 8.35415C17.1077 7.82002 17.1764 7.28964 17.202 6.75658C17.2566 6.34954 17.2097 5.93821 17.2598 5.53118C17.298 5.20512 17.2795 4.87692 17.3062 4.55086C17.334 4.17332 17.3929 3.79792 17.3934 3.41931C17.3907 3.0777 17.4447 2.73931 17.4512 2.39824C17.4621 2.21483 17.4583 2.01587 17.5624 1.85499C17.7881 1.79975 18.0253 1.81852 18.2521 1.76757C18.5858 1.69786 18.9172 1.61634 19.2564 1.57398Z" fill="#656B6B"/>
<path d="M24.7896 3.34638C24.7721 3.16136 24.747 2.96455 24.8484 2.79723C24.9738 2.93988 24.9378 3.1383 24.9346 3.31152C24.946 3.38499 24.9035 3.44076 24.8288 3.44774C24.529 3.51423 24.2727 3.69335 23.9788 3.77433C23.8829 3.80812 23.7858 3.76414 23.6932 3.74323C23.6866 3.70515 23.6741 3.629 23.6681 3.59092C23.7373 3.63865 23.8087 3.70622 23.902 3.6896C24.1844 3.6483 24.421 3.47723 24.6838 3.37963C24.7105 3.37158 24.7634 3.35496 24.7896 3.34638Z" fill="#656B6B"/>
<path d="M22.8786 3.05518C22.9048 3.08199 22.9048 3.08199 22.8786 3.05518Z" fill="#656B6B"/>
<path d="M23.148 3.1619C23.1747 3.18818 23.1747 3.18818 23.148 3.1619Z" fill="#656B6B"/>
<path d="M24.6592 3.51638C24.6914 3.51799 24.7557 3.52067 24.7879 3.52228C24.7874 3.64669 24.7596 3.76789 24.6718 3.86228C24.6642 3.74698 24.6609 3.63168 24.6592 3.51638Z" fill="#656B6B"/>
<path d="M23.353 4.00815C23.3917 4.00922 23.4691 4.01136 23.5072 4.01244C23.5492 4.11862 23.5896 4.2248 23.6277 4.33259C23.5351 4.32991 23.4429 4.32723 23.3513 4.32455C23.3513 4.2189 23.3519 4.11326 23.353 4.00815Z" fill="#656B6B"/>
<path d="M24.8119 7.34648C24.8392 7.20115 24.8964 7.06494 24.9657 6.93516C24.9776 7.01506 24.9891 7.0955 25 7.17648C24.9373 7.23279 24.8746 7.29017 24.8119 7.34648Z" fill="#656B6B"/>
<path d="M4.65816 7.82484C4.69578 7.82484 4.77156 7.82538 4.80918 7.82538C4.81082 7.90957 4.81245 7.99323 4.81409 8.07797C4.77429 8.07797 4.69414 8.0785 4.6538 8.07904C4.65544 7.99377 4.65653 7.90904 4.65816 7.82484Z" fill="#656B6B"/>
<path d="M23.5274 7.85541C23.6512 7.89992 23.7798 7.94765 23.86 8.05759C23.7482 8.08816 23.6354 8.11712 23.5231 8.14447C23.5241 8.04794 23.5252 7.9514 23.5274 7.85541Z" fill="#656B6B"/>
<path d="M17.9392 9.73453C18.016 9.67393 18.0934 9.61387 18.1714 9.55381C18.2248 9.57258 18.2788 9.59081 18.3328 9.61011C18.1594 9.82409 17.9299 9.99677 17.8039 10.2456C17.7303 10.3845 17.7325 10.5448 17.7167 10.6972L17.672 10.6961C17.6949 10.4644 17.7532 10.2381 17.8388 10.0209C17.4866 9.92277 17.129 9.84769 16.7757 9.75384C16.8586 9.70879 16.9464 9.62781 17.0467 9.67876C17.2866 9.76403 17.5232 9.87718 17.7854 9.86914C17.7865 9.83213 17.7881 9.75813 17.7892 9.72112C17.8388 9.72595 17.889 9.73078 17.9392 9.73453Z" fill="#656B6B"/>
<path d="M22.7124 11.005C22.8061 10.9846 22.9004 10.9653 22.9948 10.9454C23.0073 11.0039 23.0198 11.0629 23.0329 11.1219C23.1327 11.1101 23.2325 11.0994 23.3333 11.0935C23.2799 11.1423 23.2259 11.1911 23.1703 11.2377C23.0318 11.242 22.8939 11.2474 22.756 11.2522C22.7412 11.1696 22.7265 11.087 22.7124 11.005Z" fill="#656B6B"/>
<path d="M20.0567 11.3176L20.0703 11.2897C20.1248 11.4549 20.2154 11.6287 20.1592 11.8056C20.1123 12.0357 19.9706 12.269 19.7318 12.3419C19.4499 12.3939 19.1124 12.3768 18.9069 12.1531C18.9025 12.1483 18.8943 12.1397 18.89 12.1355C18.8518 12.092 18.8153 12.0486 18.7798 12.0041C18.9238 12.0121 18.8562 11.8716 18.7515 11.8807C18.5918 11.8255 18.6256 11.6222 18.5988 11.4925C18.8578 11.4603 18.902 11.7531 19.0334 11.9054C19.2236 12.1741 19.5933 12.1837 19.8904 12.1317C19.891 12.0979 19.892 12.0303 19.8926 11.9971L19.9318 12.0137C19.9477 12.0008 19.9793 11.9746 19.9951 11.9617C20.0338 11.8872 20.0703 11.8115 20.1009 11.7338C20.1221 11.663 20.0916 11.6158 20.0093 11.5922L19.9809 11.5632C19.9967 11.4973 20.0125 11.4313 20.0333 11.3664L20.0567 11.3176ZM18.8927 11.8544C18.92 11.8802 18.92 11.8802 18.8927 11.8544Z" fill="#656B6B"/>
<path d="M23.0427 11.538C23.1649 11.4967 23.2886 11.4613 23.414 11.4319C23.3988 11.4989 23.3835 11.567 23.3693 11.6346C23.2597 11.6619 23.1501 11.6871 23.0406 11.7107C23.0411 11.6528 23.0417 11.5954 23.0427 11.538Z" fill="#656B6B"/>
<path d="M2.111 1.28868C2.14644 1.10044 2.15298 0.907383 2.10991 0.719686C2.1001 0.908992 2.1001 1.09884 2.111 1.28868Z" fill="#2B2B2C"/>
<path d="M23.4102 3.19354C23.5803 3.10666 23.7466 2.99029 23.9423 2.96937C24.0219 2.95758 24.0644 3.0348 24.1059 3.08789C24.0781 3.09165 24.023 3.09915 23.9952 3.10291C24.0088 3.27291 24.0132 3.44345 24.0099 3.61398C24.101 3.55124 24.1947 3.49117 24.2896 3.43379C24.3131 3.37051 24.3365 3.30723 24.3599 3.24449C24.3757 3.31635 24.3916 3.38821 24.4079 3.46061C24.4417 3.41717 24.4766 3.37319 24.511 3.32975C24.5682 3.34638 24.626 3.363 24.6838 3.37963C24.421 3.47723 24.1844 3.6483 23.902 3.6896C23.8087 3.70622 23.7373 3.63865 23.6681 3.59092C23.6588 3.57483 23.6397 3.54212 23.6305 3.5255C23.5678 3.40805 23.492 3.29865 23.4102 3.19354Z" fill="#2B2B2C"/>
<path d="M20.2372 5.03083C20.2688 5.01206 20.3315 4.97399 20.3631 4.95522C20.3669 5.06515 20.3707 5.17562 20.3735 5.2861C20.5185 5.329 20.6679 5.37459 20.8216 5.35742C21.0271 5.35582 21.0321 5.09304 21.1765 4.99275C21.4355 4.99919 21.6988 5.01099 21.9458 5.09894C21.8313 5.22872 21.6618 5.28503 21.514 5.36815C21.4966 5.57033 21.5533 5.76607 21.6509 5.9425C21.7266 5.98273 21.9245 5.94948 21.8727 6.07926C21.7762 6.12484 21.6318 6.12323 21.5985 6.2455C21.5304 6.49809 21.5625 6.76569 21.4998 7.01989C21.2054 6.97967 20.9285 6.86651 20.6411 6.7968C20.4978 6.75497 20.3533 6.71421 20.2034 6.7067C20.0965 6.14844 20.2519 5.59017 20.2372 5.03083Z" fill="#2B2B2C"/>
<path d="M2.36888 6.40424C2.37597 6.32165 2.36234 6.24014 2.33562 6.16238C2.26039 6.21225 2.26039 6.40531 2.36888 6.40424Z" fill="#2B2B2C"/>
<path d="M24.8588 6.42569C24.9646 6.5678 25.036 6.76355 24.9657 6.93516C24.8964 7.06494 24.8392 7.20115 24.8119 7.34648C24.8746 7.29017 24.9373 7.23279 25 7.17648C24.9395 7.74226 24.8986 8.30856 24.8659 8.87595C24.8288 9.15267 24.7541 9.42403 24.723 9.70182C24.7089 9.94583 24.7116 10.1936 24.6489 10.4322C24.4428 10.5438 24.4025 10.791 24.2563 10.9551C24.0857 11.1519 23.8753 11.3305 23.6228 11.4136C23.4985 11.4533 23.4293 11.3155 23.3453 11.2527C23.4015 11.0554 23.3944 10.85 23.3699 10.6489C23.3639 10.5566 23.3655 10.4644 23.3764 10.3732C23.4031 10.2011 23.4277 10.0284 23.4227 9.85412C23.4075 9.28191 23.5209 8.71614 23.5231 8.14447C23.6354 8.11712 23.7482 8.08816 23.86 8.05759C23.7798 7.94765 23.6512 7.89992 23.5274 7.85541C23.3829 7.61462 23.1305 7.47572 22.8541 7.43336C22.8132 7.38509 22.78 7.33093 22.7641 7.27033C22.8895 7.34058 23.0231 7.42371 23.1752 7.39636C23.4375 7.39153 23.6316 7.19901 23.8562 7.09336C24.0606 6.99683 24.2956 6.92926 24.4286 6.73298C24.4973 6.61982 24.6189 6.57585 24.7487 6.58336C24.7852 6.5308 24.8217 6.47771 24.8588 6.42569ZM24.1691 7.83021C24.1457 7.9085 23.9941 7.88437 24.0137 7.7991C24.0421 7.72939 24.1817 7.74815 24.1691 7.83021ZM24.765 8.10853C24.6876 8.10049 24.6745 8.06456 24.7247 8.00235C24.8015 8.01039 24.8146 8.04579 24.765 8.10853Z" fill="#0F0F0F"/>
<path d="M2.37488 7.31752C2.38142 7.22743 2.38905 7.13733 2.39287 7.0467C2.48828 7.07566 2.58314 7.10462 2.67801 7.13412C2.68182 7.19793 2.68564 7.26175 2.68946 7.32557C2.58423 7.32932 2.47956 7.32342 2.37488 7.31752Z" fill="#2B2B2C"/>
<path d="M3.64737 7.33307C3.76349 7.32557 3.88017 7.32878 3.9952 7.34595C4.46298 7.41673 4.92967 7.4961 5.39363 7.59156C5.29114 7.64733 5.18973 7.74225 5.06324 7.71705C4.56929 7.65001 4.08243 7.49288 3.57922 7.51541C3.55414 7.66503 3.60048 7.80929 3.66699 7.94229C3.52906 7.95355 3.39276 7.97446 3.25646 7.99591C3.37422 7.81411 3.38894 7.58673 3.27009 7.40225C3.31534 7.38241 3.36059 7.36257 3.40584 7.34326C3.44183 7.33737 3.51488 7.32503 3.55087 7.31913C3.5754 7.32235 3.62338 7.32932 3.64737 7.33307Z" fill="#2B2B2C"/>
<path d="M2.98005 8.18737C3.21339 8.11497 3.44728 8.04257 3.68444 7.98358C3.62174 8.1332 3.50453 8.26298 3.47508 8.42547C3.46745 8.67055 3.51761 8.91349 3.52306 9.1591C3.38022 9.2138 3.23029 9.24813 3.07982 9.27548C3.11144 9.08349 3.12725 8.88936 3.12289 8.69469C3.08527 8.68664 3.01058 8.67002 2.9735 8.66197C3.02802 8.59386 3.10762 8.53755 3.13161 8.45175C3.15015 8.3386 3.03784 8.26888 2.98005 8.18737Z" fill="#2B2B2C"/>
<path d="M6.02879 8.0415C6.2256 7.94765 6.45458 7.95301 6.66612 7.98197C6.9916 8.0297 7.23585 8.28604 7.39232 8.55472C7.57878 8.85557 7.54007 9.22078 7.5766 9.55756C7.6104 9.75384 7.49318 9.92491 7.39341 10.0831C7.12572 10.2365 6.80406 10.3561 6.49711 10.2386C6.11002 10.133 5.87013 9.79352 5.69676 9.45996C5.60626 9.1886 5.65315 8.89901 5.69022 8.62229C5.72075 8.39812 5.81616 8.15519 6.02879 8.0415ZM6.33355 8.45229C6.08985 8.53648 5.97209 8.81481 6.01679 9.05399C6.05005 9.28835 6.12856 9.53664 6.35481 9.65784L6.34118 9.69967C6.52055 9.82409 6.78279 9.86002 6.95726 9.70772C7.16879 9.55434 7.15244 9.26797 7.15898 9.03844C7.11754 9.11459 7.0772 9.19235 7.0374 9.27011C6.94035 9.26904 6.83895 9.28459 6.74463 9.25403C6.6514 9.18538 6.60015 9.07813 6.53364 8.98749C6.66939 8.86898 6.80842 8.75421 6.94417 8.6357C6.75662 8.5456 6.55436 8.34396 6.33355 8.45229Z" fill="#0F0F0F"/>
<path d="M8.12398 8.76279C8.25374 8.5397 8.50453 8.3579 8.77494 8.37614C9.06499 8.38793 9.38011 8.42816 9.59874 8.6357C10 8.97301 10.0512 9.53235 10.0562 10.0177C10.0692 10.2204 9.96892 10.4049 9.84516 10.5593C9.68215 10.6414 9.5175 10.7283 9.33541 10.7599C9.0639 10.8028 8.79184 10.7052 8.56504 10.5642C8.33933 10.4242 8.22756 10.1748 8.07655 9.96942C7.9735 9.99355 7.87046 10.0182 7.76687 10.0375C7.76033 10.0188 7.74725 9.98122 7.7407 9.96245C7.76415 9.87933 7.78378 9.79298 7.83012 9.71898C7.89063 9.68573 7.9566 9.66535 8.02148 9.64175C8.05365 9.34948 7.9915 9.0363 8.12398 8.76279ZM8.71115 8.91349C8.49362 8.97301 8.41457 9.21649 8.40912 9.41652C8.40966 9.45406 8.4113 9.52967 8.41239 9.56721C8.44891 9.72166 8.48163 9.90453 8.60975 10.0113C8.76349 10.2531 9.12441 10.3722 9.37684 10.2091C9.60473 10.0338 9.64344 9.72649 9.60855 9.46156C9.56057 9.53182 9.53931 9.61387 9.52622 9.69699C9.40574 9.66589 9.28525 9.70611 9.17948 9.76349C9.06008 9.66106 9.01319 9.51305 8.99084 9.36396C9.11515 9.28727 9.21982 9.18538 9.32723 9.08831C9.1942 8.89794 8.9276 8.79872 8.71115 8.91349Z" fill="#0F0F0F"/>
<path d="M11.3434 8.65232C11.4437 8.65071 11.5445 8.64267 11.6443 8.65715C12.2413 8.76708 12.8388 8.87756 13.4407 8.95693C13.3382 9.01109 13.2357 9.06633 13.1316 9.11888C12.9064 9.11567 12.6944 9.0379 12.509 8.91456C12.4032 8.93762 12.2975 8.96122 12.1917 8.98481C12.0996 8.92529 12.008 8.8663 11.9147 8.80891C11.7959 8.83305 11.6738 8.8915 11.5516 8.86469C11.4688 8.80784 11.4104 8.72472 11.3434 8.65232Z" fill="#2B2B2C"/>
<path d="M10.7496 9.0379C10.8287 9.03737 10.9083 9.0379 10.9879 9.0379C10.9879 9.08402 10.9884 9.17573 10.9884 9.22185C10.9088 9.22131 10.8292 9.22131 10.7496 9.22131C10.7496 9.17519 10.7496 9.08349 10.7496 9.0379Z" fill="#2B2B2C"/>
<path d="M15.006 9.7828C15.1041 9.79191 15.2001 9.81497 15.2911 9.85412C15.2917 9.89702 15.2933 9.98229 15.2944 10.0252C15.1984 10.0037 15.1025 9.98283 15.0065 9.96245C15.0065 9.9174 15.006 9.82784 15.006 9.7828Z" fill="#2B2B2C"/>
<path d="M18.3322 10.9272C18.4805 10.3142 19.2962 9.95548 19.8468 10.296C20.3064 10.5041 20.5964 10.9535 20.7218 11.4211C20.772 11.7118 20.7082 12.0073 20.6815 12.2974C20.5583 12.5162 20.3467 12.6653 20.1292 12.7849C20.0523 12.8251 19.4215 12.8734 19.3321 12.8702C18.9112 12.7667 18.9112 12.7398 18.5988 12.4165C18.2935 12.0137 18.1801 11.4206 18.3322 10.9272ZM18.9249 10.9133C18.6959 11.0098 18.6354 11.2742 18.5988 11.4925C18.6256 11.6222 18.5918 11.8255 18.7515 11.8807C18.7586 11.9113 18.7728 11.973 18.7798 12.0041C18.8153 12.0486 18.8518 12.092 18.89 12.1355C18.8943 12.1397 18.9025 12.1483 18.9069 12.1531C19.1124 12.3768 19.4499 12.3939 19.7318 12.3419C19.9706 12.269 20.1123 12.0357 20.1592 11.8056C20.2154 11.6287 20.1248 11.4549 20.0703 11.2897C20.0671 11.2967 20.06 11.3107 20.0567 11.3176L20.0333 11.3664C19.8752 11.3514 19.9308 11.1948 19.9455 11.0924C19.9149 11.0581 19.885 11.0237 19.855 10.99C19.7901 11.0227 19.7247 11.0554 19.662 11.0919C19.65 11.0334 19.6118 10.9857 19.5846 10.9347C19.6429 10.9438 19.7023 10.9524 19.7617 10.961C19.5295 10.7754 19.1849 10.7996 18.9249 10.9133Z" fill="#0F0F0F"/>
<path d="M19.3321 11.2978C19.5355 11.2329 19.7149 11.4613 19.6691 11.6458C19.6085 11.7622 19.4548 11.899 19.3294 11.7783C19.1353 11.6866 19.0982 11.3611 19.3321 11.2978Z" fill="#2B2B2C"/>
<path d="M2.36779 0.797447C2.89609 0.760444 3.41838 0.879497 3.94504 0.898803C8.02312 1.25167 12.1006 1.59918 16.1787 1.94723C16.4415 1.98048 16.7108 1.96385 16.9676 2.03947C16.9834 2.25881 16.9921 2.48083 16.9491 2.69802C16.8706 3.10613 16.9769 3.52389 16.8978 3.932C16.8177 4.3578 16.9245 4.7938 16.8455 5.2196C16.7643 5.64487 16.8728 6.0814 16.7904 6.50667C16.7119 6.89923 16.8117 7.30197 16.7441 7.6956C16.6645 8.08655 16.7375 8.48607 16.7037 8.88077C13.8458 8.40402 10.9874 7.93103 8.12888 7.45481C6.28394 7.13787 4.43081 6.859 2.58968 6.52169C2.56733 6.14093 2.62131 5.75695 2.55425 5.37941C2.48392 4.9713 2.57824 4.55408 2.49864 4.14597C2.42667 3.73786 2.52317 3.3201 2.44412 2.91253C2.37161 2.5189 2.4632 2.11723 2.39614 1.72306C2.33835 1.41739 2.36561 1.10581 2.36779 0.797447Z" fill="#13325B"/>
<path d="M18.5252 5.26465C18.5558 5.19279 18.6937 5.08714 18.7341 5.20298C18.7062 5.50651 18.8589 5.78001 18.9712 6.0519C18.9799 6.02402 18.9963 5.96717 19.0045 5.93875C19.126 6.16238 19.2852 6.36938 19.487 6.52919C19.5371 6.56727 19.6058 6.55547 19.6652 6.56888C19.8555 6.57799 20.0055 6.73834 20.2034 6.7067C20.3533 6.71421 20.4978 6.75497 20.6411 6.7968C20.6144 6.86437 20.5899 6.93301 20.567 7.00273C20.2126 6.88957 19.8572 6.78178 19.505 6.6638C19.324 6.60534 19.1255 6.56566 18.9843 6.43052C18.7771 6.26642 18.7155 6.00149 18.6261 5.76875C18.5743 5.60626 18.4931 5.4384 18.5252 5.26465Z" fill="#13325B"/>
<path d="M21.6023 5.40623C21.7305 5.36922 21.8613 5.3408 21.9943 5.32257C22.1028 5.55531 22.1432 5.81058 22.1584 6.06424L22.1355 6.10714C22.1186 6.07228 22.0837 6.00257 22.0663 5.96824C21.9709 5.9543 21.8749 5.94036 21.7801 5.92695C21.6983 5.76124 21.6318 5.58856 21.6023 5.40623Z" fill="#13325B"/>
<path d="M22.8034 10.613C22.8748 10.5915 22.9462 10.5706 23.0177 10.5491C23.0406 10.6076 23.0645 10.666 23.0896 10.7245C22.9779 10.7325 22.8666 10.7122 22.8034 10.613Z" fill="#13325B"/>
<path d="M20.0938 1.61473C20.1532 1.5729 20.2252 1.53805 20.3009 1.54395C20.7273 1.56593 21.1182 1.74773 21.532 1.83032C21.8477 1.91452 22.1781 1.91183 22.4948 1.99228C22.4103 2.01748 22.3269 2.04644 22.2429 2.07164C22.1846 2.02821 22.0499 2.11401 22.1633 2.14673C22.1868 2.13868 22.2342 2.12313 22.2577 2.11508C22.3296 2.12259 22.4021 2.12956 22.4746 2.13707C22.5232 2.1966 22.5837 2.21269 22.6567 2.18534C22.6976 2.19177 22.7789 2.20571 22.8198 2.21269C22.8268 2.21376 22.841 2.2159 22.8481 2.21698C22.9223 2.22824 22.9975 2.23843 23.0727 2.24862C23.1038 2.26149 23.166 2.28723 23.197 2.29956C23.2227 2.29581 23.2728 2.28884 23.2984 2.28508C23.3312 2.35587 23.3873 2.37679 23.4669 2.34676L23.5111 2.33979C23.5514 2.40414 23.6087 2.42398 23.6828 2.39931L23.7281 2.39449C23.7559 2.41004 23.8126 2.44168 23.8409 2.45723C23.9156 2.476 23.9903 2.49584 24.0661 2.51569C24.0993 2.52641 24.1664 2.54732 24.2002 2.55805L24.2362 2.57467C24.2427 2.57789 24.2558 2.58433 24.2623 2.58701C24.3888 2.64707 24.5137 2.71143 24.6374 2.77739C24.6413 2.77846 24.6494 2.78114 24.6538 2.78221C24.6881 2.76666 24.7563 2.73502 24.7906 2.71893C24.8081 2.73234 24.8424 2.75808 24.8599 2.77095L24.8484 2.79723C24.747 2.96455 24.7721 3.16136 24.7896 3.34638C24.7634 3.35496 24.7105 3.37158 24.6838 3.37963C24.7018 3.2048 24.7023 3.0289 24.6871 2.85408C24.6582 2.92862 24.6309 3.0037 24.6036 3.07878C24.5698 3.05572 24.536 3.03212 24.5028 3.00906C24.4537 3.0525 24.4052 3.09647 24.3561 3.14045C24.3381 3.119 24.3027 3.07556 24.2847 3.05411C24.2536 3.12436 24.2231 3.19515 24.1931 3.26594C24.1642 3.20587 24.1353 3.14635 24.1059 3.08789C24.0644 3.0348 24.0219 2.95758 23.9423 2.96937C23.7466 2.99029 23.5803 3.10666 23.4102 3.19354C23.3475 3.18389 23.2859 3.17477 23.2243 3.16565C23.3361 3.30938 23.4794 3.42307 23.6305 3.5255C23.6397 3.54212 23.6588 3.57483 23.6681 3.59092C23.6741 3.629 23.6866 3.70515 23.6932 3.74323C23.7858 3.76414 23.8829 3.80812 23.9788 3.77433C24.2727 3.69335 24.529 3.51423 24.8288 3.44774C24.8244 3.56304 24.8174 3.67834 24.8212 3.79417C24.8075 3.91752 24.9471 3.99045 24.9373 4.11379C24.9428 4.29452 24.9722 4.53424 24.7699 4.62541C24.717 4.65436 24.6642 4.68332 24.6107 4.71121C24.6064 4.6726 24.5982 4.59537 24.5938 4.55676C24.4243 4.62326 24.2574 4.69566 24.0922 4.77127C24.1271 4.80452 24.1626 4.83831 24.198 4.87209C24.1713 4.90641 24.1446 4.94127 24.1179 4.9756C23.9805 5.02761 23.8442 5.08392 23.715 5.15364C23.83 5.255 23.981 5.16758 24.1124 5.15418C24.1746 5.23998 24.2362 5.32632 24.3 5.41105C24.2384 5.53332 24.1364 5.62503 24.0339 5.71351C23.9374 5.67544 23.8404 5.63951 23.7471 5.59553C23.7313 5.58427 23.6986 5.56228 23.6828 5.55156C23.6283 5.45181 23.577 5.35045 23.5225 5.25124C23.5334 5.12254 23.546 4.99436 23.559 4.86619C23.4058 4.93859 23.245 4.99437 23.0776 5.02601C23.0951 4.86727 23.0776 4.70746 23.0149 4.55998C22.8988 4.2661 22.943 3.92985 22.787 3.64938C22.6895 3.48689 22.5553 3.32815 22.3667 3.26862C22.1105 3.1796 21.8264 3.15654 21.6002 2.99565C21.7179 2.97527 21.8357 2.95651 21.954 2.93613C21.84 2.87231 21.7152 2.82941 21.5838 2.82244C21.3161 2.80367 21.0533 2.74843 20.7867 2.72269C20.8472 2.66316 20.9083 2.6031 20.9688 2.54357C20.7845 2.55537 20.6003 2.57682 20.4214 2.62294C20.495 2.56502 20.5681 2.50603 20.6412 2.44704C20.3865 2.45777 20.1368 2.51086 19.8915 2.57467C19.9204 2.51837 19.9498 2.46206 19.9793 2.40575C19.6047 2.41379 19.1817 2.47546 18.8611 2.23897C19.2498 2.19767 19.6249 2.33174 20.0093 2.35426C20.2502 2.35641 20.4601 2.21376 20.6471 2.07969C20.4285 1.95903 20.187 1.88663 19.9651 1.77347C20.0065 1.71984 20.0491 1.66622 20.0938 1.61473ZM21.2932 2.35748C21.2872 2.37893 21.2758 2.42184 21.2703 2.44329C21.3663 2.46742 21.4622 2.49209 21.5587 2.51676C21.8771 2.62294 22.2522 2.54303 22.5183 2.3489C22.1475 2.11401 21.6732 2.1907 21.2932 2.35748ZM22.8786 3.05518C22.9048 3.08199 22.9048 3.08199 22.8786 3.05518ZM22.9899 3.09433C23.1523 3.01228 22.9959 3.27345 22.9899 3.09433ZM23.148 3.1619C23.1747 3.18818 23.1747 3.18818 23.148 3.1619ZM24.6592 3.51638C24.6609 3.63168 24.6642 3.74698 24.6718 3.86228C24.7596 3.76789 24.7874 3.64669 24.7879 3.52228C24.7557 3.52067 24.6914 3.51799 24.6592 3.51638ZM23.353 4.00815C23.3519 4.11326 23.3513 4.2189 23.3513 4.32455C23.4429 4.32723 23.5351 4.32991 23.6277 4.33259C23.5896 4.2248 23.5492 4.11862 23.5072 4.01244C23.4691 4.01136 23.3917 4.00922 23.353 4.00815Z" fill="#0C182A"/>
<path d="M21.9785 5.28395C22.1012 5.15257 22.2228 4.99115 22.4185 4.97291C22.4021 5.04316 22.3367 5.06998 22.2778 5.10001C22.3056 5.1413 22.3334 5.1826 22.3623 5.22443C22.3383 5.36654 22.2855 5.53225 22.4049 5.64916C22.3187 6.20635 22.3923 6.77213 22.3683 7.33361C22.2849 7.31484 22.2026 7.29393 22.1208 7.27087C22.1274 7.21295 22.1344 7.15557 22.1421 7.09818C22.0543 7.10837 21.966 7.11803 21.8787 7.12875C21.8204 6.8338 21.9573 6.54528 21.9153 6.24926C21.8618 6.2144 21.8073 6.18115 21.7523 6.15004C21.8913 6.13878 22.0309 6.13717 22.1699 6.14897C22.1666 6.12752 22.1612 6.08515 22.1584 6.06424C22.1432 5.81058 22.1028 5.55531 21.9943 5.32257L21.9785 5.28395Z" fill="#313B4D"/>
<path d="M22.6126 7.46232C22.6927 7.45159 22.7729 7.44033 22.8541 7.43336C23.1305 7.47572 23.3829 7.61462 23.5274 7.85541C23.5252 7.9514 23.5241 8.04794 23.5231 8.14447C23.5209 8.71614 23.4075 9.28191 23.4227 9.85412C23.4277 10.0284 23.4031 10.2011 23.3764 10.3732C23.1289 10.4628 22.8819 10.3346 22.6856 10.1925C22.8056 10.1716 22.9261 10.1523 23.0471 10.1351C23.0956 9.63478 23.0973 9.12854 23.1823 8.63301C23.1103 8.35683 23.1071 8.07207 23.1142 7.78837C22.949 7.71437 22.7832 7.6409 22.6153 7.57333C22.6148 7.54544 22.6137 7.4902 22.6126 7.46232Z" fill="#1F2227"/>
<path d="M6.33355 8.45229C6.55436 8.34396 6.75662 8.5456 6.94417 8.6357C6.80842 8.75421 6.66939 8.86898 6.53364 8.98749L6.50311 9.01431C6.35209 9.09368 6.17926 9.07276 6.01679 9.05399C5.97209 8.81481 6.08985 8.53648 6.33355 8.45229Z" fill="#313B4D"/>
<path d="M8.71115 8.91349C8.9276 8.79872 9.1942 8.89794 9.32723 9.08831C9.21982 9.18538 9.11515 9.28727 8.99084 9.36396C8.80329 9.42295 8.60375 9.41705 8.40912 9.41652C8.41457 9.21649 8.49362 8.97301 8.71115 8.91349Z" fill="#313B4D"/>
<path d="M6.55272 9.45138C6.69774 9.3956 6.84658 9.35109 6.99869 9.31891C7.01614 9.38917 7.03631 9.45888 7.05866 9.5286C6.8842 9.58652 6.68139 9.60797 6.55272 9.45138Z" fill="#313B4D"/>
<path d="M9.17948 9.76349C9.28525 9.70611 9.40574 9.66589 9.52622 9.69699C9.50932 9.78816 9.49188 9.88147 9.44771 9.96513C9.33922 10.0359 9.18548 10.0509 9.07426 9.97693C9.03446 9.88844 9.13641 9.82784 9.17948 9.76349Z" fill="#313B4D"/>
<path d="M24.2563 10.9551C24.4025 10.791 24.4428 10.5438 24.6489 10.4322C24.6702 10.6972 24.6838 11.02 24.4586 11.2098C24.1691 11.4785 23.9091 11.7804 23.583 12.01C23.371 12.1671 23.1829 12.3773 22.9108 12.432C22.8476 12.3012 22.7691 12.1666 22.786 12.0164C22.8034 11.7611 22.805 11.5043 22.756 11.2522C22.8939 11.2474 23.0318 11.242 23.1703 11.2377C23.2139 11.2415 23.3017 11.249 23.3453 11.2527C23.4293 11.3155 23.4985 11.4533 23.6228 11.4136C23.8753 11.3305 24.0857 11.1519 24.2563 10.9551ZM23.0427 11.538C23.0417 11.5954 23.0411 11.6528 23.0406 11.7107C23.1501 11.6871 23.2597 11.6619 23.3693 11.6346C23.3835 11.567 23.3988 11.4989 23.414 11.4319C23.2886 11.4613 23.1649 11.4967 23.0427 11.538Z" fill="#1F2227"/>
<path d="M18.8753 1.97297C19.2324 1.92846 19.5856 1.85284 19.9313 1.7531L19.9651 1.77347C20.187 1.88663 20.4285 1.95903 20.6471 2.07969C20.4601 2.21376 20.2502 2.35641 20.0093 2.35426C19.6249 2.33174 19.2498 2.19767 18.8611 2.23897C19.1817 2.47546 19.6047 2.41379 19.9793 2.40575C19.9498 2.46206 19.9204 2.51837 19.8915 2.57467C20.1368 2.51086 20.3865 2.45777 20.6412 2.44704C20.5681 2.50603 20.495 2.56502 20.4214 2.62294C20.6003 2.57682 20.7845 2.55537 20.9688 2.54357C20.9083 2.6031 20.8472 2.66316 20.7867 2.72269C20.3784 2.69534 19.9635 2.70338 19.5649 2.60041C19.3261 2.54142 19.0732 2.49155 18.8338 2.57628C18.6746 2.38858 18.42 2.35426 18.2085 2.25076C18.2859 2.21483 18.3639 2.17997 18.4424 2.14511C18.329 2.13332 18.2161 2.11884 18.1033 2.10704C18.3453 1.99603 18.6157 2.00729 18.8753 1.97297Z" fill="#54595C"/>
<path d="M22.2429 2.07164C22.4856 2.05824 22.7298 2.07379 22.9642 2.13868C23.3246 2.22931 23.7003 2.26739 24.0448 2.41272C24.2623 2.50764 24.5399 2.5484 24.6538 2.78221L24.6374 2.77739C24.5137 2.71143 24.3888 2.64707 24.2623 2.58701C24.2558 2.58433 24.2427 2.57789 24.2362 2.57467L24.2002 2.55805C24.1664 2.54732 24.0993 2.52641 24.0661 2.51569C23.9903 2.49584 23.9156 2.476 23.8409 2.45723C23.8126 2.44168 23.7559 2.41004 23.7281 2.39449L23.6828 2.39931C23.6419 2.33389 23.5847 2.31404 23.5111 2.33979L23.4669 2.34676C23.4244 2.28723 23.3682 2.26631 23.2984 2.28508C23.2728 2.28884 23.2227 2.29581 23.197 2.29956C23.166 2.28723 23.1038 2.26149 23.0727 2.24862C22.9975 2.23843 22.9223 2.22824 22.8481 2.21698C22.841 2.2159 22.8268 2.21376 22.8198 2.21269C22.7789 2.20571 22.6976 2.19177 22.6567 2.18534C22.6088 2.12313 22.5477 2.10704 22.4746 2.13707C22.4021 2.12956 22.3296 2.12259 22.2577 2.11508L22.2429 2.07164Z" fill="#54595C"/>
<path d="M21.2932 2.35748C21.6732 2.1907 22.1475 2.11401 22.5183 2.3489C22.2522 2.54303 21.8771 2.62294 21.5587 2.51676C21.4622 2.49209 21.3663 2.46742 21.2703 2.44329C21.2758 2.42184 21.2872 2.37893 21.2932 2.35748Z" fill="#54595C"/>
<path d="M17.6377 2.4642C17.7287 2.44114 17.8203 2.41862 17.913 2.40092C17.9468 2.39556 18.0138 2.38537 18.0476 2.38001C17.9599 2.52373 17.877 2.67603 17.8639 2.84657C17.7254 4.05373 17.6049 5.26304 17.5106 6.47449C17.497 6.72869 17.5035 6.98396 17.4681 7.23708C17.4229 7.56528 17.4687 7.89724 17.4299 8.22598C17.3722 8.67431 17.4185 9.12854 17.3563 9.57686C17.4975 9.6321 17.6398 9.68787 17.7892 9.72112C17.7881 9.75813 17.7865 9.83213 17.7854 9.86914C17.5232 9.87718 17.2866 9.76403 17.0467 9.67876C16.9464 9.62781 16.8586 9.70879 16.7757 9.75384C16.3461 9.69967 15.9268 9.58437 15.4956 9.53879C15.3184 9.5227 15.1505 9.46478 14.9864 9.40204C15.0523 9.35377 15.1199 9.30658 15.187 9.25992C15.374 9.32857 15.5506 9.42832 15.7442 9.47926C15.8941 9.4739 16.0402 9.39399 16.1907 9.43636C16.4213 9.49052 16.6547 9.54791 16.8935 9.53503C17.0101 9.51519 17.1246 9.48731 17.2391 9.45888C17.2195 9.36182 17.1988 9.26421 17.1519 9.17573C17.2048 9.07008 17.2446 8.95693 17.2424 8.83787C17.2969 7.66289 17.3563 6.48843 17.4239 5.31452C17.4697 4.82704 17.5079 4.33849 17.5237 3.84941C17.587 3.38928 17.5406 2.92004 17.6377 2.4642Z" fill="#54595C"/>
<path d="M24.0922 4.77127C24.2574 4.69566 24.4243 4.62326 24.5938 4.55676C24.5982 4.59537 24.6064 4.6726 24.6107 4.71121C24.6195 5.19064 24.596 5.67061 24.614 6.15004C24.6025 6.27446 24.7263 6.33399 24.813 6.39566L24.8588 6.42569C24.8217 6.47771 24.7852 6.5308 24.7487 6.58336C24.6189 6.57585 24.4973 6.61982 24.4286 6.73298C24.2956 6.92926 24.0606 6.99683 23.8562 7.09336C23.6316 7.19901 23.4375 7.39153 23.1752 7.39636C23.0231 7.42371 22.8895 7.34058 22.7641 7.27033C22.8519 6.77588 22.8846 6.27446 22.8601 5.77358C22.9533 5.7961 23.0466 5.81916 23.1409 5.84222C23.1338 6.27071 23.1251 6.70134 23.1589 7.12875C23.2254 6.69598 23.2068 6.2514 23.1796 5.81541C23.3393 5.71351 23.504 5.61752 23.6828 5.55156C23.6986 5.56228 23.7313 5.58427 23.7471 5.59553C23.6376 5.66096 23.5269 5.72424 23.4157 5.78698C23.547 5.86421 23.6697 6.11733 23.8376 5.9897C23.92 5.91086 23.9669 5.80414 24.0339 5.71351C24.1364 5.62503 24.2384 5.53332 24.3 5.41105C24.2362 5.32632 24.1746 5.23998 24.1124 5.15418C24.1141 5.09465 24.1157 5.03512 24.1179 4.9756C24.1446 4.94127 24.1713 4.90641 24.198 4.87209C24.1626 4.83831 24.1271 4.80452 24.0922 4.77127Z" fill="#54595C"/>
<path d="M23.0776 5.02601C23.245 4.99437 23.4058 4.93859 23.559 4.86619C23.546 4.99436 23.5334 5.12254 23.5225 5.25124C23.3164 5.32203 23.1 5.2979 22.8977 5.22818C22.9533 5.15739 23.0144 5.0909 23.0776 5.02601Z" fill="#54595C"/>
<path d="M18.1818 7.90475C18.305 7.97822 18.305 8.13857 18.1747 8.20399C18.0973 8.14286 18.0318 8.06939 18.0024 7.97446C18.0755 8.01308 18.1463 8.05437 18.2172 8.09727C18.2047 8.03292 18.1927 7.9691 18.1818 7.90475Z" fill="#54595C"/>
<path d="M10.277 8.95049C10.3222 8.93655 10.3675 8.92261 10.4127 8.9092C10.4531 8.94727 10.4934 8.98481 10.5337 9.02342C10.4841 9.06633 10.4362 9.11084 10.3898 9.15696C10.3517 9.08778 10.314 9.01914 10.277 8.95049Z" fill="#54595C"/>
<path d="M6.50311 9.01431L6.53364 8.98749C6.60015 9.07813 6.6514 9.18538 6.74463 9.25403C6.83895 9.28459 6.94035 9.26904 7.0374 9.27011C7.0772 9.19235 7.11754 9.11459 7.15898 9.03844C7.15244 9.26797 7.16879 9.55434 6.95726 9.70772C6.78279 9.86002 6.52055 9.82409 6.34118 9.69967L6.35481 9.65784C6.43714 9.4503 6.42896 9.22292 6.50311 9.01431ZM6.55272 9.45138C6.68139 9.60797 6.8842 9.58652 7.05866 9.5286C7.03631 9.45888 7.01614 9.38917 6.99869 9.31891C6.84658 9.35109 6.69774 9.3956 6.55272 9.45138Z" fill="#54595C"/>
<path d="M8.40912 9.41652C8.60375 9.41705 8.80329 9.42295 8.99084 9.36396C9.01319 9.51305 9.06008 9.66106 9.17948 9.76349C9.13641 9.82784 9.03446 9.88844 9.07426 9.97693C9.18548 10.0509 9.33922 10.0359 9.44771 9.96513C9.49188 9.88147 9.50932 9.78816 9.52622 9.69699C9.53931 9.61387 9.56057 9.53182 9.60855 9.46156C9.64344 9.72649 9.60473 10.0338 9.37684 10.2091C9.12441 10.3722 8.76349 10.2531 8.60975 10.0113C8.67844 10.0134 8.74714 10.0134 8.81638 10.0139C8.80057 9.88737 8.79621 9.75974 8.8022 9.63317C8.67245 9.60851 8.54269 9.58705 8.41239 9.56721C8.4113 9.52967 8.40966 9.45406 8.40912 9.41652Z" fill="#54595C"/>
<path d="M23.3699 10.6489C23.3944 10.85 23.4015 11.0554 23.3453 11.2527C23.3017 11.249 23.2139 11.2415 23.1703 11.2377C23.2259 11.1911 23.2799 11.1423 23.3333 11.0935C23.2325 11.0994 23.1327 11.1101 23.0329 11.1219C23.0198 11.0629 23.0073 11.0039 22.9948 10.9454C22.9004 10.9653 22.8061 10.9846 22.7124 11.005C22.7265 11.087 22.7412 11.1696 22.756 11.2522C22.6704 11.2372 22.5853 11.2222 22.5003 11.2077C22.5019 11.0516 22.5019 10.8897 22.5722 10.746C22.8388 10.717 23.1212 10.7878 23.3699 10.6489Z" fill="#54595C"/>
<path d="M18.9249 10.9133C19.1849 10.7996 19.5295 10.7754 19.7617 10.961C19.7023 10.9524 19.6429 10.9438 19.5846 10.9347C19.6118 10.9857 19.65 11.0334 19.662 11.0919C19.6865 11.2897 19.8555 11.4217 19.9809 11.5632L20.0093 11.5922C20.0022 11.6667 20.0327 11.7139 20.1009 11.7338C20.0703 11.8115 20.0338 11.8872 19.9951 11.9617C19.9711 11.9601 19.9237 11.9563 19.8997 11.9547L19.8926 11.9971C19.892 12.0303 19.891 12.0979 19.8904 12.1317C19.5933 12.1837 19.2236 12.1741 19.0334 11.9054C18.902 11.7531 18.8578 11.4603 18.5988 11.4925C18.6354 11.2742 18.6959 11.0098 18.9249 10.9133ZM19.3321 11.2978C19.0982 11.3611 19.1353 11.6866 19.3294 11.7783C19.4548 11.899 19.6085 11.7622 19.6691 11.6458C19.7149 11.4613 19.5355 11.2329 19.3321 11.2978ZM19.2362 11.8233C19.1506 11.8582 19.0666 11.7214 19.1151 11.6533C19.1915 11.6362 19.27 11.7568 19.2362 11.8233Z" fill="#54595C"/>
<path d="M17.9828 2.11723C18.0226 2.11347 18.0629 2.11026 18.1033 2.10704C18.2161 2.11884 18.329 2.13332 18.4424 2.14511C18.3639 2.17997 18.2859 2.21483 18.2085 2.25076C18.42 2.35426 18.6746 2.38858 18.8338 2.57628C19.0732 2.49155 19.3261 2.54142 19.5649 2.60041C19.9635 2.70338 20.3784 2.69534 20.7867 2.72269C21.0533 2.74843 21.3161 2.80367 21.5838 2.82244C21.7152 2.82941 21.84 2.87231 21.954 2.93613C21.8357 2.95651 21.7179 2.97527 21.6002 2.99565C21.8264 3.15654 22.1105 3.1796 22.3667 3.26862C22.5553 3.32815 22.6895 3.48689 22.787 3.64938C22.943 3.92985 22.8988 4.2661 23.0149 4.55998C23.0776 4.70746 23.0951 4.86727 23.0776 5.02601C23.0144 5.0909 22.9533 5.15739 22.8977 5.22818C22.8661 5.40783 22.8596 5.59124 22.8601 5.77358C22.8846 6.27446 22.8519 6.77588 22.7641 7.27033C22.78 7.33093 22.8132 7.38509 22.8541 7.43336C22.7729 7.44033 22.6927 7.45159 22.6126 7.46232C22.6137 7.4902 22.6148 7.54544 22.6153 7.57333C22.7832 7.6409 22.949 7.71437 23.1142 7.78837C23.1071 8.07207 23.1103 8.35683 23.1823 8.63301C23.0973 9.12854 23.0956 9.63478 23.0471 10.1351C22.9261 10.1523 22.8056 10.1716 22.6856 10.1925C22.8819 10.3346 23.1289 10.4628 23.3764 10.3732C23.3655 10.4644 23.3639 10.5566 23.3699 10.6489C23.1212 10.7878 22.8388 10.717 22.5722 10.746C22.5019 10.8897 22.5019 11.0516 22.5003 11.2077C22.5853 11.2222 22.6704 11.2372 22.756 11.2522C22.805 11.5043 22.8034 11.7611 22.786 12.0164C22.7691 12.1666 22.8476 12.3012 22.9108 12.432L22.9255 12.461C22.7947 12.4808 22.666 12.5098 22.5357 12.5275C21.9136 12.483 21.3047 12.3173 20.6815 12.2974C20.7082 12.0073 20.772 11.7118 20.7218 11.4211C20.5964 10.9535 20.3064 10.5041 19.8468 10.296C19.2962 9.95548 18.4805 10.3142 18.3322 10.9272C18.1801 11.4206 18.2935 12.0137 18.5988 12.4165C18.9112 12.7398 18.9112 12.7667 19.3321 12.8702C19.0524 12.9801 19.0208 12.7685 18.7515 12.6489C18.4549 12.4913 18.3393 11.7091 18.1714 11.4211C18.0493 11.2195 18.0845 11.7896 18.0447 11.5632C18.0016 11.6592 18.0095 11.6372 17.9735 11.7359C17.8808 11.7177 17.7887 11.6984 17.6976 11.6769C17.6916 11.5418 17.6726 11.4083 17.6426 11.2769C17.6295 11.4115 17.6224 11.5472 17.6175 11.6828C17.0859 11.5976 16.5647 11.4592 16.0342 11.368C15.645 11.2854 15.259 11.1862 14.861 11.1562C14.4341 11.0511 14.005 10.9519 13.5667 10.9025C12.6099 10.6714 11.6356 10.5175 10.6733 10.3084C10.3702 10.2301 10.1096 10.4521 9.84516 10.5593C9.96892 10.4049 10.0692 10.2204 10.0562 10.0177C10.0512 9.53235 10 8.97301 9.59874 8.6357C9.38011 8.42816 9.06499 8.38793 8.77494 8.37614C8.50453 8.3579 8.25374 8.5397 8.12398 8.76279C7.9915 9.0363 8.05365 9.34948 8.02148 9.64175C7.9566 9.66535 7.89063 9.68573 7.83012 9.71898C7.78378 9.79298 7.76415 9.87933 7.7407 9.96245C7.62512 10.0032 7.5079 10.0397 7.39341 10.0831C7.49318 9.92491 7.6104 9.75384 7.5766 9.55756C7.54007 9.22078 7.57878 8.85557 7.39232 8.55472C7.23585 8.28604 6.9916 8.0297 6.66612 7.98197C6.45458 7.95301 6.2256 7.94765 6.02879 8.0415C5.81616 8.15519 5.72075 8.39812 5.69022 8.62229C5.65315 8.89901 5.60626 9.1886 5.69676 9.45996C5.5681 9.50608 5.43834 9.55005 5.30858 9.59242C5.30531 9.35056 5.30749 9.10869 5.30967 8.86737C5.03598 8.83358 4.75303 8.73169 4.48043 8.825C4.15931 8.92958 3.83764 9.03576 3.52306 9.1591C3.51761 8.91349 3.46745 8.67055 3.47508 8.42547C3.50453 8.26298 3.62174 8.1332 3.68444 7.98358L3.66699 7.94229C3.60048 7.80929 3.55414 7.66503 3.57922 7.51541C4.08243 7.49288 4.56929 7.65001 5.06324 7.71705C5.18973 7.74225 5.29114 7.64733 5.39363 7.59156C7.21786 7.87901 9.03446 8.21364 10.8549 8.52308C11.0217 8.55043 11.1842 8.59655 11.3434 8.65232C11.4104 8.72472 11.4688 8.80784 11.5516 8.86469C11.6738 8.8915 11.7959 8.83305 11.9147 8.80891C12.008 8.8663 12.0996 8.92529 12.1917 8.98481C12.2975 8.96122 12.4032 8.93762 12.509 8.91456C12.6944 9.0379 12.9064 9.11567 13.1316 9.11888C13.2096 9.13014 13.2864 9.1457 13.3644 9.15696C13.5509 9.19611 13.7237 9.09475 13.8943 9.03683C13.8491 9.10601 13.8044 9.17519 13.7602 9.24491C13.9876 9.25778 14.2236 9.23847 14.4384 9.3275C14.6124 9.39882 14.8015 9.39399 14.9864 9.40204C15.1505 9.46478 15.3184 9.5227 15.4956 9.53879C15.9268 9.58437 16.3461 9.69967 16.7757 9.75384C17.129 9.84769 17.4866 9.92277 17.8388 10.0209C17.7532 10.2381 17.6949 10.4644 17.672 10.6961L17.7167 10.6972C17.7325 10.5448 17.7303 10.3845 17.8039 10.2456C17.9299 9.99677 18.1594 9.82409 18.3328 9.61011C18.2788 9.59081 18.2248 9.57258 18.1714 9.55381C18.0934 9.61387 18.016 9.67393 17.9392 9.73453C17.889 9.73078 17.8388 9.72595 17.7892 9.72112C17.6398 9.68787 17.4975 9.6321 17.3563 9.57686C17.4185 9.12854 17.3722 8.67431 17.4299 8.22598C17.4687 7.89724 17.4229 7.56528 17.4681 7.23708C17.5035 6.98396 17.497 6.72869 17.5106 6.47449C17.6049 5.26304 17.7254 4.05373 17.8639 2.84657C17.877 2.67603 17.9599 2.52373 18.0476 2.38001C18.0138 2.38537 17.9468 2.39556 17.913 2.40092C17.9359 2.306 17.9593 2.21161 17.9828 2.11723ZM20.2372 5.03083C20.2519 5.59017 20.0965 6.14844 20.2034 6.7067C20.0055 6.73834 19.8555 6.57799 19.6652 6.56888C19.6058 6.55547 19.5371 6.56727 19.487 6.52919C19.2852 6.36938 19.126 6.16238 19.0045 5.93875C18.9963 5.96717 18.9799 6.02402 18.9712 6.0519C18.8589 5.78001 18.7062 5.50651 18.7341 5.20298C18.6937 5.08714 18.5558 5.19279 18.5252 5.26465C18.4931 5.4384 18.5743 5.60626 18.6261 5.76875C18.7155 6.00149 18.7771 6.26642 18.9843 6.43052C19.1255 6.56566 19.324 6.60534 19.505 6.6638C19.8572 6.78178 20.2126 6.88957 20.567 7.00273C20.5899 6.93301 20.6144 6.86437 20.6411 6.7968C20.9285 6.86651 21.2054 6.97967 21.4998 7.01989C21.5625 6.76569 21.5304 6.49809 21.5985 6.2455C21.6318 6.12323 21.7762 6.12484 21.8727 6.07926C21.9245 5.94948 21.7266 5.98273 21.6509 5.9425C21.5533 5.76607 21.4966 5.57033 21.514 5.36815C21.6618 5.28503 21.8313 5.22872 21.9458 5.09894C21.6988 5.01099 21.4355 4.99919 21.1765 4.99275C21.0321 5.09304 21.0271 5.35582 20.8216 5.35742C20.6679 5.37459 20.5185 5.329 20.3735 5.2861C20.3707 5.17562 20.3669 5.06515 20.3631 4.95522C20.3315 4.97399 20.2688 5.01206 20.2372 5.03083ZM21.9785 5.28395L21.9943 5.32257C21.8613 5.3408 21.7305 5.36922 21.6023 5.40623C21.6318 5.58856 21.6983 5.76124 21.7801 5.92695C21.8749 5.94036 21.9709 5.9543 22.0663 5.96824C22.0837 6.00257 22.1186 6.07228 22.1355 6.10714L22.1584 6.06424C22.1612 6.08515 22.1666 6.12752 22.1699 6.14897C22.0309 6.13717 21.8913 6.13878 21.7523 6.15004C21.8073 6.18115 21.8618 6.2144 21.9153 6.24926C21.9573 6.54528 21.8204 6.8338 21.8787 7.12875C21.966 7.11803 22.0543 7.10837 22.1421 7.09818C22.1344 7.15557 22.1274 7.21295 22.1208 7.27087C22.2026 7.29393 22.2849 7.31484 22.3683 7.33361C22.3923 6.77213 22.3187 6.20635 22.4049 5.64916C22.4234 5.50705 22.4528 5.34992 22.3623 5.22443C22.3334 5.1826 22.3056 5.1413 22.2778 5.10001C22.3367 5.06998 22.4021 5.04316 22.4185 4.97291C22.2228 4.99115 22.1012 5.15257 21.9785 5.28395ZM4.65816 7.82484C4.65653 7.90904 4.65544 7.99377 4.6538 8.07904C4.69414 8.0785 4.77429 8.07797 4.81409 8.07797C4.81245 7.99323 4.81082 7.90957 4.80918 7.82538C4.77156 7.82538 4.69578 7.82484 4.65816 7.82484ZM18.1818 7.90475C18.1927 7.9691 18.2047 8.03292 18.2172 8.09727C18.1463 8.05437 18.0755 8.01308 18.0024 7.97446C18.0318 8.06939 18.0973 8.14286 18.1747 8.20399C18.305 8.13857 18.305 7.97822 18.1818 7.90475ZM10.277 8.95049C10.314 9.01914 10.3517 9.08778 10.3898 9.15696C10.4362 9.11084 10.4841 9.06633 10.5337 9.02342C10.4934 8.98481 10.4531 8.94727 10.4127 8.9092C10.3675 8.92261 10.3222 8.93655 10.277 8.95049ZM10.7496 9.0379C10.7496 9.08349 10.7496 9.17519 10.7496 9.22131C10.8292 9.22131 10.9088 9.22131 10.9884 9.22185C10.9884 9.17573 10.9879 9.08402 10.9879 9.0379C10.9083 9.0379 10.8287 9.03737 10.7496 9.0379ZM15.006 9.7828C15.006 9.82784 15.0065 9.9174 15.0065 9.96245C15.1025 9.98283 15.1984 10.0037 15.2944 10.0252C15.2933 9.98229 15.2917 9.89702 15.2911 9.85412C15.2001 9.81497 15.1041 9.79191 15.006 9.7828ZM22.8034 10.613C22.8666 10.7122 22.9779 10.7325 23.0896 10.7245C23.0645 10.666 23.0406 10.6076 23.0177 10.5491C22.9462 10.5706 22.8748 10.5915 22.8034 10.613ZM16.0462 10.9857C16.5549 11.1262 17.0794 11.2168 17.5968 11.3235C17.3776 11.205 17.1208 11.1927 16.882 11.1348C16.6023 11.0897 16.3319 10.9878 16.0462 10.9857Z" fill="#0C182A"/>
<path d="M24.6107 4.71121C24.6642 4.68332 24.717 4.65436 24.7699 4.62541C24.801 4.71979 24.8152 4.819 24.8108 4.91875C24.8043 5.41105 24.8054 5.90335 24.813 6.39566C24.7263 6.33399 24.6025 6.27446 24.614 6.15004C24.596 5.67061 24.6195 5.19064 24.6107 4.71121Z" fill="black"/>
<path d="M23.715 5.15364C23.8442 5.08392 23.9805 5.02761 24.1179 4.9756C24.1157 5.03512 24.1141 5.09465 24.1124 5.15418C23.981 5.16758 23.83 5.255 23.715 5.15364Z" fill="black"/>
<path d="M22.4049 5.64916C22.4234 5.50705 22.4528 5.34992 22.3623 5.22443C22.3383 5.36654 22.2855 5.53225 22.4049 5.64916Z" fill="black"/>
<path d="M22.8601 5.77358C22.8596 5.59124 22.8661 5.40783 22.8977 5.22818C23.1 5.2979 23.3164 5.32203 23.5225 5.25124C23.577 5.35045 23.6283 5.45181 23.6828 5.55156C23.504 5.61752 23.3393 5.71351 23.1796 5.81541L23.1409 5.84222C23.0466 5.81916 22.9533 5.7961 22.8601 5.77358Z" fill="black"/>
<path d="M23.4157 5.78698C23.5269 5.72424 23.6376 5.66096 23.7471 5.59553C23.8404 5.63951 23.9374 5.67544 24.0339 5.71351C23.9669 5.80414 23.92 5.91086 23.8376 5.9897C23.6697 6.11733 23.547 5.86421 23.4157 5.78698Z" fill="black"/>
<path d="M0.662414 7.11052C1.22942 6.97645 1.78715 6.80377 2.35743 6.68418C2.37433 6.7909 2.39232 6.89869 2.39287 7.00755V7.0467C2.38905 7.13733 2.38142 7.22743 2.37488 7.31752C2.47956 7.32342 2.58423 7.32932 2.68946 7.32557C2.95388 7.23708 3.23302 7.2226 3.50998 7.23494C3.47563 7.27087 3.44074 7.30733 3.40584 7.34326C3.36059 7.36257 3.31534 7.38241 3.27009 7.40225C3.38894 7.58673 3.37422 7.81411 3.25646 7.99591C3.39276 7.97446 3.52906 7.95355 3.66699 7.94229L3.68444 7.98358C3.44728 8.04257 3.21339 8.11497 2.98005 8.18737C3.03784 8.26888 3.15015 8.3386 3.13161 8.45175C3.10762 8.53755 3.02802 8.59386 2.9735 8.66197C3.01058 8.67002 3.08527 8.68664 3.12289 8.69469C3.12725 8.88936 3.11144 9.08349 3.07982 9.27548C3.23029 9.24813 3.38022 9.2138 3.52306 9.1591C3.83764 9.03576 4.15931 8.92958 4.48043 8.825C4.75303 8.73169 5.03598 8.83358 5.30967 8.86737C5.30749 9.10869 5.30531 9.35056 5.30858 9.59242C5.43834 9.55005 5.5681 9.50608 5.69676 9.45996C5.87013 9.79352 6.11002 10.133 6.49711 10.2386C6.80406 10.3561 7.12572 10.2365 7.39341 10.0831C7.5079 10.0397 7.62512 10.0032 7.7407 9.96245C7.74725 9.98122 7.76033 10.0188 7.76687 10.0375C7.87046 10.0182 7.9735 9.99355 8.07655 9.96942C8.22756 10.1748 8.33933 10.4242 8.56504 10.5642C8.79184 10.7052 9.0639 10.8028 9.33541 10.7599C9.5175 10.7283 9.68215 10.6414 9.84516 10.5593C10.1096 10.4521 10.3702 10.2301 10.6733 10.3084C11.6356 10.5175 12.6099 10.6714 13.5667 10.9025C14.005 10.9519 14.4341 11.0511 14.861 11.1562C15.259 11.1862 15.645 11.2854 16.0342 11.368C16.5647 11.4592 17.0859 11.5976 17.6175 11.6828C17.6224 11.5472 17.6295 11.4115 17.6426 11.2769C17.6726 11.4083 17.6916 11.5418 17.6976 11.6769C17.7887 11.6984 17.8808 11.7177 17.9735 11.7359C18.0095 11.6372 18.0016 11.6592 18.0447 11.5632C18.0845 11.7896 18.0493 11.2195 18.1714 11.4211C18.3393 11.7091 18.4549 12.4913 18.7515 12.6489C18.2941 12.6071 18.1153 12.5752 17.69 12.4165C17.4915 12.343 17.3073 12.2111 17.0876 12.2143C16.6062 12.2116 16.1455 12.0577 15.6722 11.9907C13.8894 11.6485 12.1012 11.331 10.3189 10.983C10.103 10.9449 9.89042 10.8784 9.66961 10.8704C9.47116 10.887 9.28579 11.0018 9.08189 10.9658C8.71443 10.9181 8.35078 10.8269 8.01003 10.6827C7.75433 10.5706 7.491 10.466 7.21404 10.4204C7.0314 10.4419 6.85639 10.5213 6.66885 10.503C6.21415 10.4741 5.78617 10.2976 5.37891 10.1094C5.20172 10.0289 4.96402 10.1153 4.83208 9.94529C4.69523 9.77475 4.46353 9.7887 4.26726 9.74955C3.99084 9.7045 3.71824 9.63639 3.44019 9.59832C3.2581 9.56721 3.08963 9.65892 2.91299 9.68412C2.75488 9.61011 2.6502 9.46478 2.54062 9.33661C2.58914 9.29264 2.63821 9.24866 2.68727 9.20522C2.38578 9.08778 2.06248 9.07813 1.74354 9.06847C1.34555 8.82607 1.11711 8.39705 0.757824 8.108C0.515756 7.83664 0.240432 7.59746 0 7.32449C0.202268 7.20437 0.439429 7.17434 0.662414 7.11052Z" fill="black" fill-opacity="0.25"/>
<path d="M20.1009 11.7338C20.1221 11.663 20.0916 11.6158 20.0093 11.5922C20.0022 11.6667 20.0327 11.7139 20.1009 11.7338Z" fill="black"/>
<path d="M19.8997 11.9547C19.9237 11.9563 19.9711 11.9601 19.9951 11.9617C19.9793 11.9746 19.9477 12.0008 19.9318 12.0137L19.8926 11.9971L19.8997 11.9547Z" fill="black"/>
<path d="M20.6815 12.2974C21.3047 12.3173 21.9136 12.483 22.5357 12.5275C22.5117 12.6669 22.3787 12.7377 22.2724 12.8133C22.0456 12.9726 21.7544 13.0251 21.4808 12.9892C21.0288 12.9308 20.5812 12.8439 20.1292 12.7849C20.3467 12.6653 20.5583 12.5162 20.6815 12.2974Z" fill="black" fill-opacity="0.33"/>
</svg>
