<svg width="102" height="81" viewBox="0 0 102 81" fill="none" xmlns="http://www.w3.org/2000/svg">
<path d="M21.9085 0.445652C27.065 0.288287 32.2293 0.108437 37.3817 0C36.6949 0.0489288 36.0094 0.0899235 35.3239 0.124306C35.795 0.735255 36.6357 0.0290962 37.2212 0.346472C38.6975 1.00238 38.1475 3.27823 39.7606 3.7781C31.8438 3.91431 23.9216 3.94075 16.0087 4.2092C14.4588 3.45411 17.2061 3.66173 17.9113 3.306C18.0981 2.48082 18.3652 1.66887 18.8389 0.936262C19.6783 0.293575 20.9375 0.843695 21.9085 0.445652Z" fill="#31642F"/>
<path d="M37.3817 0C42.9053 0.472097 49.159 -0.244642 54.0668 2.0722C53.4418 2.07617 52.8207 2.04575 52.201 2.09468C52.2129 3.12615 53.2168 3.56916 54.1365 3.43956C54.4246 3.70933 56.193 3.58767 55.6483 4.32822C50.3603 4.00291 45.0605 3.83628 39.7606 3.7781C38.1475 3.27823 38.6975 1.00238 37.2212 0.346472C36.6357 0.0290962 35.795 0.735255 35.3239 0.124306C36.0094 0.0899235 36.6949 0.0489288 37.3817 0ZM39.9725 0.49458C40.3948 0.925683 41.5829 0.469452 42.2198 0.624173C41.7961 0.191748 40.6066 0.646656 39.9725 0.49458ZM41.329 1.43745C40.2869 3.11029 43.0658 3.10632 43.8052 2.61174C44.3407 0.994445 42.2882 1.34488 41.329 1.43745Z" fill="#468842"/>
<path d="M42.2198 0.624173C41.7961 0.191748 40.6066 0.646656 39.9725 0.49458C40.3948 0.925683 41.5829 0.469452 42.2198 0.624173Z" fill="#CCE2CA"/>
<path d="M43.8052 2.61174C44.3407 0.994445 42.2882 1.34488 41.329 1.43745C40.2869 3.11029 43.0658 3.10632 43.8052 2.61174Z" fill="#B76326"/>
<path d="M61.8678 2.52711C62.656 1.3581 64.2967 1.71515 65.498 1.56175C66.4216 1.61465 67.8729 1.74557 68.044 2.87357C68.936 1.62258 71.0189 1.66358 72.5149 2.0484C72.728 4.21185 72.303 6.5591 72.4886 8.80057C73.0491 9.12588 73.6372 9.40491 74.1714 9.77915C74.2004 14.6112 73.9977 19.754 73.8267 24.3784C73.457 24.2158 73.1122 25.0092 72.9057 24.3732C72.9964 19.963 73.0635 15.6017 72.9583 11.1994C73.3648 10.0317 71.8688 10.1666 71.4452 9.43268C72.0912 7.36974 71.1491 5.17984 71.4965 3.03491C70.9912 2.00476 69.0966 2.17931 69.1571 3.53345C67.7874 3.83099 67.5282 2.54694 66.2085 3.72256C65.9243 10.1362 65.9743 16.5591 65.8914 22.9793C65.7427 23.671 66.1703 24.237 66.4282 24.8294C65.0033 24.8532 63.5678 25.0687 62.1757 24.6178C64.1178 24.4261 63.2441 21.8646 63.5652 20.4959C63.7612 18.4184 63.6257 16.3277 63.6612 14.2449C63.6244 10.8371 63.7309 7.41999 63.6125 4.01745C63.8138 2.90663 61.1639 3.66966 61.8678 2.52711ZM73.4083 10.0185C73.4938 13.3139 73.0043 16.9796 73.3885 20.0555C73.2096 16.8685 73.9964 12.736 73.4083 10.0185Z" fill="#313231"/>
<path d="M52.201 2.09468C52.8207 2.04575 53.4418 2.07617 54.0668 2.0722C54.5404 2.19783 54.4207 3.28484 54.1365 3.43956C53.2168 3.56916 52.2129 3.12615 52.201 2.09468Z" fill="#AB5E28"/>
<path d="M69.1571 3.53345C69.0966 2.17931 70.9912 2.00476 71.4965 3.03491C71.1491 5.17984 72.0912 7.36974 71.4452 9.43268C71.8688 10.1666 73.3648 10.0317 72.9583 11.1994C73.0635 15.6017 72.9964 19.963 72.9057 24.3732C73.1122 25.0092 73.457 24.2158 73.8267 24.3784C73.8267 24.6323 73.8267 25.1401 73.8267 25.3927C71.8438 25.5316 69.7886 25.5184 67.8479 25.0304C68.5282 20.2208 68.0755 14.8241 68.4176 9.77122C68.9874 9.3864 69.6808 9.20787 70.2228 8.78338C70.2742 6.81036 70.1794 4.83337 70.3465 2.86432C69.6847 2.62364 69.761 3.64453 69.1571 3.53345Z" fill="#23221F"/>
<path d="M16.0087 4.2092C23.9216 3.94075 31.8438 3.91431 39.7606 3.7781C45.0605 3.83628 50.3603 4.00291 55.6483 4.32822C54.6207 4.72758 53.3536 4.90214 52.2444 5.21026C50.0156 5.11637 47.7814 5.10314 45.5525 5.00528C41.1448 4.98809 36.7028 5.37952 32.3385 5.56863C31.1872 5.48796 29.9964 5.23406 28.9267 5.77756C28.007 5.25257 27.0505 6.00634 26.0716 5.74847C23.9651 5.33456 21.8362 5.76699 19.7126 5.64797C18.8586 5.4311 18.3705 6.26024 17.6284 6.46125C17.6008 5.9508 17.5613 5.443 17.5087 4.93652C17.456 4.42343 16.4113 4.98148 16.0587 4.31102L16.0087 4.2092Z" fill="#191B18"/>
<path d="M16.2337 7.30759C13.8956 8.22533 13.3167 3.54139 16.0587 4.31102C16.4113 4.98148 17.456 4.42343 17.5087 4.93652C17.3521 5.82649 17.5995 7.29039 16.2337 7.30759Z" fill="#2F3031"/>
<path d="M32.3385 5.56863C36.7028 5.37952 41.1448 4.98809 45.5525 5.00528C44.3026 6.53398 41.8974 5.83575 40.5277 7.20443C38.7988 7.44114 36.9304 6.90689 35.2634 7.40676C35.0147 8.47791 36.8081 7.74397 37.3817 7.89473C38.7278 9.43797 36.962 11.2536 37.6607 13.0098C37.3436 14.3798 38.4462 12.4993 38.508 12.6223C37.012 14.5028 37.7791 17.0246 37.6199 19.274C37.7199 19.6535 37.1265 20.2459 37.4436 19.0188C37.462 16.4414 37.1094 13.9209 37.2844 11.3634C37.437 10.2235 36.0134 10.7789 35.2739 10.6546C35.1752 10.6506 35.0752 10.6493 34.9779 10.6493C34.7937 9.05844 34.8647 8.224 34.9766 6.70721C33.3332 5.61623 34.0424 8.43427 33.8753 9.42078C33.1424 9.30837 32.4451 9.34143 32.6806 8.29012C33.324 6.65432 32.1437 6.78788 30.9885 6.76011C31.6438 6.67283 33.3542 7.11848 32.6556 5.87939C28.3162 5.96931 23.8703 5.84765 19.4968 5.95741C18.9494 5.94948 18.6534 6.32901 18.7915 6.86326C18.6507 11.8844 18.1376 16.8963 17.8666 21.9122C17.8416 22.6778 19.3968 22.7492 19.0336 21.7601C18.8297 23.0375 20.6546 22.4689 21.4322 22.6805C22.6388 22.6659 24.7124 23.1142 25.4084 22.0272C25.3203 23.6022 27.1321 22.4782 27.015 21.5366C27.6755 21.534 28.3728 22.6593 27.4899 22.9648C28.8267 23.6551 30.2728 22.9212 31.5398 23.4964C32.2727 23.5281 31.374 22.6897 32.1161 22.7651C32.9043 22.6077 32.7543 21.3673 32.5411 20.7366C32.6174 20.1957 32.7108 19.2145 32.2964 19.192C33.2542 18.105 32.0398 16.3131 32.7253 15.0264C33.1345 14.6244 34.2832 14.7606 33.924 15.5739C34.1384 18.1446 33.5911 21.1134 34.0437 23.5268L34.1595 23.5559C37.3817 23.8667 40.6685 23.3377 43.8671 23.8045C45.1302 24.2489 46.6696 25.6479 47.8959 24.3203C49.1353 22.9463 51.1247 23.6524 52.5813 22.6395C52.9944 23.1883 53.5378 23.741 54.2589 23.79C54.276 23.8495 54.3102 23.9685 54.3273 24.028C52.9878 24.0359 51.5655 23.6313 50.3116 24.2978C49.8011 24.5213 49.2077 24.6852 48.8827 25.1785C47.9446 26.5551 48.0669 28.3708 47.8748 29.9722C48.6025 30.8093 51.1945 29.5107 51.0208 31.2523C50.4234 31.1901 50.4327 31.6318 50.7708 31.9862C49.8577 31.9518 48.9498 31.846 48.0367 31.8394C47.5604 34.2264 48.3183 36.7072 47.938 39.1259C45.7104 39.5556 43.4276 39.3652 41.1908 39.6627C41.1777 39.7619 41.1501 39.9616 41.1369 40.0608C39.4659 36.1835 37.9765 32.2004 35.8528 28.5374C33.5753 28.5638 31.2977 29.3798 29.0346 29.065C28.3531 29.2607 27.4636 29.2184 27.061 28.5506C27.5452 28.6128 28.0334 28.6815 28.5241 28.6617C28.1531 27.1978 27.6623 25.767 27.3123 24.2965C28.3702 23.7688 29.6083 24.0915 30.6951 23.6749C25.9374 23.4766 21.1743 23.2676 16.4271 22.9093C16.8245 17.4636 17.1034 11.9254 17.6284 6.46125C18.3705 6.26024 18.8586 5.4311 19.7126 5.64797C21.8362 5.76699 23.9651 5.33456 26.0716 5.74847C27.0505 6.00634 28.007 5.25257 28.9267 5.77756C29.9964 5.23406 31.1872 5.48796 32.3385 5.56863ZM37.0173 25.4007C36.4568 25.845 34.9029 25.9614 36.162 26.6755C38.4607 30.2473 39.6935 34.3758 41.2079 38.2676C41.8079 37.0153 38.9343 33.9619 41.154 33.1552C41.4658 32.3459 40.6606 31.6186 40.8632 30.7749C41.2106 30.7709 41.3132 31.0619 41.3764 31.3528C41.4803 32.5496 42.7461 31.9346 42.7961 31.0526C43.6289 31.694 44.9091 31.1544 45.5933 32.01C46.1341 33.1327 45.8815 34.4657 46.0538 35.677C46.7972 35.7749 46.8065 34.7752 46.5959 34.3044C46.4565 31.8209 47.0736 28.9949 46.1236 26.6953C44.4723 27.2176 43.1342 28.7754 41.7066 29.7196C41.6882 28.9222 40.6882 28.5149 40.8014 27.7744C41.7342 27.252 42.1658 25.3821 43.4052 25.8701C43.9631 26.1306 45.9946 25.6017 45.6407 24.9563C42.7579 25.2261 39.9185 25.3451 37.0173 25.4007ZM31.8661 25.1203C30.8662 25.5369 31.2477 28.4052 32.5108 27.5046C33.2661 26.85 33.1214 24.881 31.8661 25.1203ZM29.3452 25.5911C28.9952 26.0063 28.986 26.5789 29.1938 27.0682C29.0057 28.228 30.5399 28.3033 30.6662 27.2269C31.2372 26.4533 30.0925 24.4737 29.3452 25.5911Z" fill="#2D2F2E"/>
<path d="M45.5525 5.00528C47.7814 5.10314 50.0156 5.11637 52.2444 5.21026C52.48 6.12404 52.4405 7.1079 52.7615 7.99788C54.8325 7.58132 53.7773 10.4311 53.9891 11.5525C54.2141 12.0405 53.7194 12.3406 53.297 12.1436C52.9155 12.6263 53.2405 13.3761 53.1207 13.9698C52.33 15.4549 52.8602 11.895 52.3905 13.1169C52.4352 15.7776 52.401 18.4501 52.7694 21.0949C53.0431 21.7138 53.7062 21.9902 54.3089 22.1886C54.3378 22.8312 54.7838 22.9185 55.3693 22.8603C55.6785 23.79 54.4286 23.1764 54.2589 23.79C53.5378 23.741 52.9944 23.1883 52.5813 22.6395C51.1247 23.6524 49.1353 22.9463 47.8959 24.3203C46.6696 25.6479 45.1302 24.2489 43.8671 23.8045C40.6685 23.3377 37.3817 23.8667 34.1595 23.5559C35.8397 23.6154 34.591 21.0182 34.9858 19.9021C35.1437 20.1626 35.1266 20.6718 35.5292 20.6546C36.4857 20.6625 37.6646 21.1994 38.4304 20.3597C39.8409 18.9712 41.5935 17.2758 43.746 17.58C45.0144 18.5506 43.7289 20.1084 43.1053 21.0923C44.8591 20.9362 46.6249 21.1161 48.3761 21.2444C48.4038 21.0632 48.4235 20.882 48.4367 20.6995C48.5038 21.2946 48.5972 21.8884 48.6446 22.4861C47.7235 22.2586 47.3078 21.1068 46.3315 21.2563C45.7578 22.0431 44.6131 21.5472 43.7789 21.5207C43.9552 23.3774 45.7604 23.269 46.6591 24.4948C47.5577 24.8545 47.6933 23.8204 46.8196 24.1444C47.2143 22.5892 50.2642 24.0756 49.7024 22.1793C49.9103 22.137 50.2761 22.2785 50.2892 21.9598C50.3958 20.3187 50.0787 18.6829 49.9353 17.051C50.1287 16.8923 50.3563 16.7641 50.605 16.8844L50.6248 17.0047C50.2221 17.0061 50.3011 17.5073 50.6471 17.5416C50.8576 18.8125 50.9129 20.1018 51.0576 21.3819C51.4918 21.5062 52.0089 21.1716 51.6668 20.599C51.3682 16.6186 51.0392 12.6395 50.6366 8.66833C50.6182 8.44882 50.5958 8.23194 50.5695 8.01375C50.5603 7.71621 50.5484 7.41734 50.5537 7.1198C50.8997 6.88045 50.5866 6.48637 50.2853 6.39248C47.9104 6.13197 45.3223 6.10023 43.1395 6.72044C43.9421 7.02327 45.2539 6.73234 46.2788 6.85532C46.2657 7.20972 45.9788 7.77968 46.5762 7.66992C45.3618 8.06532 44.0671 8.09441 42.8053 8.00581C42.5645 7.63818 42.5526 6.8778 41.8448 7.22824C41.2619 7.78232 41.0632 8.66305 40.4803 9.23961C40.6316 8.53742 41.104 7.94101 41.1658 7.21105C40.7053 7.83258 40.304 8.49907 39.833 9.11398C39.9803 8.44617 40.4527 7.89869 40.5277 7.20443C41.8974 5.83575 44.3026 6.53398 45.5525 5.00528ZM51.5655 6.81962C51.5853 7.42528 51.2366 8.52155 52.3681 8.023C52.205 7.56281 51.9931 7.08542 51.5655 6.81962ZM53.4576 8.35757C52.7931 8.68553 52.3721 8.50832 51.6945 8.42633C51.6339 9.73419 52.0931 10.9891 52.2431 12.2772C52.7405 11.4573 52.3497 10.3782 52.4852 9.47368C53.3984 9.73551 52.3708 11.7244 53.6444 11.612C53.5707 10.6784 54.4075 8.75694 53.4576 8.35757ZM42.4053 18.1407C41.4803 18.4898 40.5001 18.9328 39.8356 19.6654C40.3422 20.7458 41.204 20.8 42.175 20.9706C43.0671 20.1388 44.9289 17.6686 42.4053 18.1407ZM39.4869 19.9788C38.5975 20.5871 38.4949 21.0989 39.7817 20.9402C40.7106 21.3012 39.8409 20.0119 39.4869 19.9788Z" fill="#3F4040"/>
<path d="M19.4968 5.95741C23.8703 5.84765 28.3162 5.96931 32.6556 5.87939C33.3542 7.11848 31.6438 6.67283 30.9885 6.76011C27.3228 6.71383 23.6624 6.47712 19.9968 6.5882C19.981 6.95583 19.952 7.68976 19.9362 8.05739C19.7612 7.48082 19.2849 5.74715 18.7915 6.86326C18.6534 6.32901 18.9494 5.94948 19.4968 5.95741Z" fill="#635F52"/>
<path d="M43.1395 6.72044C45.3223 6.10023 47.9104 6.13197 50.2853 6.39248C50.5866 6.48637 50.8997 6.88045 50.5537 7.1198C49.1972 6.01427 49.3103 8.74371 50.5695 8.01375C50.5958 8.23194 50.6182 8.44882 50.6366 8.66833C49.463 8.51494 50.1498 10.1362 49.9721 10.8093C50.1669 12.8339 50.3077 14.8704 50.605 16.8844C50.3563 16.7641 50.1287 16.8923 49.9353 17.051C49.7879 15.6308 49.6708 14.2092 49.5485 12.7876C49.359 10.808 49.1669 8.82966 49.0288 6.84606C48.8393 6.84474 48.459 6.84342 48.2696 6.8421C48.2906 8.91165 48.6788 10.9601 48.7722 13.0283C48.4393 13.4739 48.0617 13.8958 47.813 14.3996C47.5854 12.1079 47.3393 9.81617 47.1972 7.51784C46.988 7.55751 46.7828 7.61835 46.5762 7.66992C45.9788 7.77968 46.2657 7.20972 46.2788 6.85532C45.2539 6.73234 43.9421 7.02327 43.1395 6.72044Z" fill="#52514E"/>
<path d="M18.7915 6.86326C19.2849 5.74715 19.7612 7.48082 19.9362 8.05739C19.8165 10.6083 19.5191 13.1513 19.4678 15.7061C18.8915 15.4866 18.0902 14.6628 18.4271 16.0579C19.6428 16.0288 18.7731 17.9754 19.1731 18.905C19.556 19.8598 18.8586 20.7405 19.0336 21.7601C19.3968 22.7492 17.8416 22.6778 17.8666 21.9122C18.1376 16.8963 18.6507 11.8844 18.7915 6.86326Z" fill="#C9BAA3"/>
<path d="M33.8753 9.42078C34.0424 8.43427 33.3332 5.61623 34.9766 6.70721C33.5753 6.27743 34.4108 8.09309 34.1582 8.79132C33.9174 13.6961 34.1384 18.6154 34.0437 23.5268C33.5911 21.1134 34.1384 18.1446 33.924 15.5739C34.2832 14.7606 33.1345 14.6244 32.7253 15.0264C32.749 13.8574 32.774 12.6871 32.72 11.5208C31.4622 11.4507 32.3056 9.57021 31.8872 8.7609C30.0872 8.54006 28.0728 8.45543 26.4216 8.28352C25.3137 9.69187 27.8768 9.52789 27.9426 10.7379C28.0005 12.26 28.7281 14.2132 27.6439 15.476C26.5821 15.9349 24.1229 16.1386 24.2532 14.3216C24.2321 12.859 23.3559 10.6361 24.8045 9.70906C26.2795 10.0648 25.8689 8.9143 26.1979 8.05474C28.3083 7.83258 30.7622 7.31023 32.6806 8.29012C32.4451 9.34143 33.1424 9.30837 33.8753 9.42078Z" fill="#3C3E3F"/>
<path d="M19.9968 6.5882C23.6624 6.47712 27.3228 6.71383 30.9885 6.76011C32.1437 6.78788 33.324 6.65432 32.6806 8.29012C30.7622 7.31023 28.3083 7.83258 26.1979 8.05474C25.8689 8.9143 26.2795 10.0648 24.8045 9.70906C23.3559 10.6361 24.2321 12.859 24.2532 14.3216C24.1229 16.1386 26.5821 15.9349 27.6439 15.476C28.7281 14.2132 28.0005 12.26 27.9426 10.7379C27.8768 9.52789 25.3137 9.69187 26.4216 8.28352C28.0728 8.45543 30.0872 8.54006 31.8872 8.7609C32.3056 9.57021 31.4622 11.4507 32.72 11.5208C32.774 12.6871 32.749 13.8574 32.7253 15.0264C32.0398 16.3131 33.2542 18.105 32.2964 19.192C32.7108 19.2145 32.6174 20.1957 32.5411 20.7366C31.4332 18.991 30.9267 15.767 28.1465 16.2364C27.0465 16.3078 24.9058 16.4097 25.2571 18.0865C25.2321 19.3983 25.1348 20.7313 25.4084 22.0272C24.7124 23.1142 22.6388 22.6659 21.4322 22.6805C20.6546 22.4689 18.8297 23.0375 19.0336 21.7601C18.8586 20.7405 19.556 19.8598 19.1731 18.905C19.3455 18.8945 19.5178 18.8799 19.6902 18.864C19.2928 17.8471 19.7283 16.7442 19.4678 15.7061C19.5191 13.1513 19.8165 10.6083 19.9362 8.05739C19.952 7.68976 19.981 6.95583 19.9968 6.5882Z" fill="#08090A" fill-opacity="0.14"/>
<path d="M34.1582 8.79132C34.4108 8.09309 33.5753 6.27743 34.9766 6.70721C34.8647 8.224 34.7937 9.05844 34.9779 10.6493C35.0437 14.4948 34.7358 18.3324 34.8555 22.1793C34.6581 22.5482 35.2792 23.8746 34.2003 23.3708C34.145 18.511 34.2437 13.6498 34.1582 8.79132Z" fill="#D6C6AE"/>
<path d="M48.2696 6.8421C48.459 6.84342 48.8393 6.84474 49.0288 6.84606C49.1669 8.82966 49.359 10.808 49.5485 12.7876C49.263 12.7731 48.9827 12.8207 48.7722 13.0283C48.6788 10.9601 48.2906 8.91165 48.2696 6.8421Z" fill="#999081"/>
<path d="M52.3681 8.023C52.205 7.56281 51.9931 7.08542 51.5655 6.81962C51.5853 7.42528 51.2366 8.52155 52.3681 8.023Z" fill="#11100E"/>
<path d="M50.5537 7.1198C49.1972 6.01427 49.3103 8.74371 50.5695 8.01375C50.5603 7.71621 50.5484 7.41734 50.5537 7.1198Z" fill="#0D0C0C"/>
<path d="M35.2634 7.40676C36.9304 6.90689 38.7988 7.44114 40.5277 7.20443C40.4527 7.89869 39.9803 8.44617 39.833 9.11398C40.304 8.49907 40.7053 7.83258 41.1658 7.21105C41.104 7.94101 40.6316 8.53742 40.4803 9.23961C41.0632 8.66305 41.2619 7.78232 41.8448 7.22824C42.5526 6.8778 42.5645 7.63818 42.8053 8.00581C44.0671 8.09441 45.3618 8.06532 46.5762 7.66992C46.7828 7.61835 46.988 7.55751 47.1972 7.51784C47.3393 9.81617 47.5854 12.1079 47.813 14.3996C47.8262 14.6046 47.8512 15.0159 47.8643 15.2208C48.138 16.411 47.5012 17.7202 48.2656 18.6379C48.3209 19.3242 48.3814 20.0119 48.4367 20.6995C48.4235 20.882 48.4038 21.0632 48.3761 21.2444C46.6249 21.1161 44.8591 20.9362 43.1053 21.0923C43.7289 20.1084 45.0144 18.5506 43.746 17.58C41.5935 17.2758 39.8409 18.9712 38.4304 20.3597C37.6646 21.1994 36.4857 20.6625 35.5292 20.6546C35.5108 19.8955 35.4884 19.1378 35.4476 18.3827C35.4331 17.9794 35.5621 17.6342 35.9831 17.5496C35.1792 16.6014 36.0015 15.2671 35.42 14.3256C35.3726 13.101 35.3252 11.8778 35.2739 10.6546C36.0134 10.7789 37.437 10.2235 37.2844 11.3634C37.1094 13.9209 37.462 16.4414 37.4436 19.0188C37.1265 20.2459 37.7199 19.6535 37.6199 19.274C37.7791 17.0246 37.012 14.5028 38.508 12.6223C38.4462 12.4993 37.3436 14.3798 37.6607 13.0098C36.962 11.2536 38.7278 9.43797 37.3817 7.89473C36.8081 7.74397 35.0147 8.47791 35.2634 7.40676Z" fill="#090A0A" fill-opacity="0.29"/>
<path d="M53.4576 8.35757C54.4075 8.75694 53.5707 10.6784 53.6444 11.612C52.3708 11.7244 53.3984 9.73551 52.4852 9.47368C52.3497 10.3782 52.7405 11.4573 52.2431 12.2772C52.0931 10.9891 51.6339 9.73419 51.6945 8.42633C52.3721 8.50832 52.7931 8.68553 53.4576 8.35757Z" fill="#090908" fill-opacity="0.1"/>
<path d="M34.0437 23.5268C34.1384 18.6154 33.9174 13.6961 34.1582 8.79132C34.2437 13.6498 34.145 18.511 34.2003 23.3708C35.2792 23.8746 34.6581 22.5482 34.8555 22.1793C34.7358 18.3324 35.0437 14.4948 34.9779 10.6493C35.0752 10.6493 35.1752 10.6506 35.2739 10.6546C35.3252 11.8778 35.3726 13.101 35.42 14.3256C34.7937 15.6255 35.4423 17.0312 35.4476 18.3827C35.4884 19.1378 35.5108 19.8955 35.5292 20.6546C35.1266 20.6718 35.1437 20.1626 34.9858 19.9021C34.591 21.0182 35.8397 23.6154 34.1595 23.5559L34.0437 23.5268Z" fill="#7B756A"/>
<path d="M73.3885 20.0555C73.2096 16.8685 73.9964 12.736 73.4083 10.0185C73.4938 13.3139 73.0043 16.9796 73.3885 20.0555Z" fill="#A0A09F"/>
<path d="M48.7722 13.0283C48.9827 12.8207 49.263 12.7731 49.5485 12.7876C49.6708 14.2092 49.7879 15.6308 49.9353 17.051C50.0787 18.6829 50.3958 20.3187 50.2892 21.9598C50.2761 22.2785 49.9103 22.137 49.7024 22.1793C49.2774 19.1404 49.1209 16.0738 48.7722 13.0283Z" fill="#DCCCB3"/>
<path d="M52.3905 13.1169C52.8602 11.895 52.33 15.4549 53.1207 13.9698C53.6852 16.6755 53.8654 19.4631 54.3089 22.1886C53.7062 21.9902 53.0431 21.7138 52.7694 21.0949C52.401 18.4501 52.4352 15.7776 52.3905 13.1169Z" fill="#0D0C0A" fill-opacity="0.1"/>
<path d="M47.813 14.3996C48.0617 13.8958 48.4393 13.4739 48.7722 13.0283C49.1209 16.0738 49.2774 19.1404 49.7024 22.1793C49.3037 22.1595 49.0288 22.7241 48.6446 22.4861C48.5972 21.8884 48.5038 21.2946 48.4367 20.6995C48.3814 20.0119 48.3209 19.3242 48.2656 18.6379C48.1972 17.4927 48.059 16.3515 47.8643 15.2208C47.8512 15.0159 47.8262 14.6046 47.813 14.3996Z" fill="#968C7C"/>
<path d="M63.5652 20.4959C63.598 18.47 63.3402 16.0605 63.6612 14.2449C63.6257 16.3277 63.7612 18.4184 63.5652 20.4959Z" fill="#201E16"/>
<path d="M35.42 14.3256C36.0015 15.2671 35.1792 16.6014 35.9831 17.5496C35.5621 17.6342 35.4331 17.9794 35.4476 18.3827C35.4423 17.0312 34.7937 15.6255 35.42 14.3256Z" fill="#313334"/>
<path d="M18.4271 16.0579C18.0902 14.6628 18.8915 15.4866 19.4678 15.7061C19.7283 16.7442 19.2928 17.8471 19.6902 18.864C19.5178 18.8799 19.3455 18.8945 19.1731 18.905C18.7731 17.9754 19.6428 16.0288 18.4271 16.0579Z" fill="#4D4F4D"/>
<path d="M47.8643 15.2208C48.138 16.411 47.5012 17.7202 48.2656 18.6379C48.1972 17.4927 48.059 16.3515 47.8643 15.2208Z" fill="#373737"/>
<path d="M25.2571 18.0865C24.9058 16.4097 27.0465 16.3078 28.1465 16.2364C30.9267 15.767 31.4332 18.991 32.5411 20.7366C32.7543 21.3673 32.9043 22.6077 32.1161 22.7651C31.374 22.6897 32.2727 23.5281 31.5398 23.4964C30.2728 22.9212 28.8267 23.6551 27.4899 22.9648C28.3728 22.6593 27.6755 21.534 27.015 21.5366C27.1321 22.4782 25.3203 23.6022 25.4084 22.0272C25.1348 20.7313 25.2321 19.3983 25.2571 18.0865Z" fill="#433F40"/>
<path d="M50.6248 17.0047C50.2221 17.0061 50.3011 17.5073 50.6471 17.5416C50.6642 17.3605 50.6563 17.1806 50.6248 17.0047Z" fill="#48494B"/>
<path d="M42.4053 18.1407C44.9289 17.6686 43.0671 20.1388 42.175 20.9706C41.204 20.8 40.3422 20.7458 39.8356 19.6654C40.5001 18.9328 41.4803 18.4898 42.4053 18.1407Z" fill="#090A0A" fill-opacity="0.15"/>
<path d="M12.5799 20.4311C13.1154 19.2766 14.8311 19.9484 15.139 20.9706C15.4377 21.6212 14.8153 22.1595 14.5548 22.6911C14.7245 22.9476 15.7087 22.457 15.7627 22.8418C15.2495 22.8564 14.6219 23.1129 14.2996 22.5773C13.9693 23.1817 13.3022 23.0944 12.7049 23.142C11.6325 23.2134 12.2536 24.8294 11.9891 25.5117C11.8786 26.3766 12.7483 25.4443 12.9549 25.1481C17.11 25.2327 21.3046 25.4298 25.3624 26.4216C25.6282 26.4771 25.815 26.6755 25.9439 26.9069C21.7822 25.8423 17.4574 25.6056 13.1706 25.5012C12.7233 25.9521 12.3404 26.5697 12.9128 27.0603C10.5865 27.6342 10.8352 24.955 11.2852 23.4977C11.6286 22.4742 13.2785 23.2094 13.7798 22.7241C12.5496 23.0164 12.0246 21.2735 12.5799 20.4311Z" fill="#293326"/>
<path d="M39.7817 20.9402C40.7106 21.3012 39.8409 20.0119 39.4869 19.9788C38.5975 20.5871 38.4949 21.0989 39.7817 20.9402Z" fill="#0B0B0C" fill-opacity="0.19"/>
<path d="M43.7789 21.5207C44.6131 21.5472 45.7578 22.0431 46.3315 21.2563C47.3078 21.1068 47.7235 22.2586 48.6446 22.4861C49.0288 22.7241 49.3037 22.1595 49.7024 22.1793C50.2642 24.0756 47.2143 22.5892 46.8196 24.1444C47.6933 23.8204 47.5577 24.8545 46.6591 24.4948C45.7604 23.269 43.9552 23.3774 43.7789 21.5207Z" fill="#6F6867"/>
<path d="M12.7049 23.142C13.3022 23.0944 13.9693 23.1817 14.2996 22.5773C14.6219 23.1129 15.2495 22.8564 15.7627 22.8418C15.9864 22.822 16.2074 22.8709 16.4271 22.9093C21.1743 23.2676 25.9374 23.4766 30.6951 23.6749C29.6083 24.0915 28.3702 23.7688 27.3123 24.2965C22.4467 24.0373 17.4995 23.7768 12.7049 23.142Z" fill="#50713F"/>
<path d="M11.9891 25.5117C12.2536 24.8294 11.6325 23.2134 12.7049 23.142C17.4995 23.7768 22.4467 24.0373 27.3123 24.2965C27.6623 25.767 28.1531 27.1978 28.5241 28.6617C28.0334 28.6815 27.5452 28.6128 27.061 28.5506C26.6702 28.0137 26.3216 27.4504 25.9439 26.9069C25.815 26.6755 25.6282 26.4771 25.3624 26.4216C21.3046 25.4298 17.11 25.2327 12.9549 25.1481C12.7483 25.4443 11.8786 26.3766 11.9891 25.5117Z" fill="#316230"/>
<path d="M50.3116 24.2978C51.5655 23.6313 52.9878 24.0359 54.3273 24.028C56.9443 24.1761 59.5719 24.3057 62.1757 24.6178C63.5678 25.0687 65.0033 24.8532 66.4282 24.8294C66.8861 24.9894 67.3664 24.9934 67.8479 25.0304C69.7886 25.5184 71.8438 25.5316 73.8267 25.3927C74.374 25.3359 74.9372 25.3821 75.4635 25.5554C76.2266 25.8582 77.0805 25.9362 77.891 25.8146C81.6909 25.5289 85.5474 27.297 89.2446 26.813C89.7722 26.8222 90.2893 26.9227 90.8064 27.0299C90.3038 27.1356 89.5499 26.8831 89.1591 27.3366C89.6433 27.7836 90.5788 27.6183 91.2051 27.736C90.3406 27.8788 90.213 26.9227 91.1709 27.1039L91.2735 27.1198C94.0458 28.4792 97.4891 28.2531 100.478 29.2197C100.994 30.1573 102.23 31.4215 101.963 32.3512C101.957 32.256 101.948 32.0669 101.943 31.9717C100.421 33.2888 98.3391 33.5519 96.4484 33.9738C96.347 33.9645 96.1444 33.946 96.0431 33.9368C95.6431 33.064 95.4668 32.1158 95.2326 31.1928C93.7616 30.5633 91.9669 30.4549 90.3499 30.3107C90.0275 30.2816 89.9104 30.1587 90.2485 29.9709C88.5841 30.402 87.021 29.553 85.4171 29.2713C80.3923 28.3575 75.3398 27.5998 70.286 26.8937C69.7978 26.8421 69.8623 26.3911 69.9373 26.0314C69.0452 25.5726 67.9098 25.6281 67.019 26.091C65.098 26.8579 63.8415 24.9643 61.952 25.3451C58.193 25.3385 54.3931 25.5554 50.6971 24.6323C50.555 24.5358 50.4366 24.4115 50.3116 24.2978Z" fill="#4E8D52"/>
<path d="M48.8827 25.1785C49.2077 24.6852 49.8011 24.5213 50.3116 24.2978C50.4366 24.4115 50.555 24.5358 50.6971 24.6323C54.3931 25.5554 58.193 25.3385 61.952 25.3451C63.8415 24.9643 65.098 26.8579 67.019 26.091C67.9098 25.6281 69.0452 25.5726 69.9373 26.0314C69.8623 26.3911 69.7978 26.8421 70.286 26.8937C75.3398 27.5998 80.3923 28.3575 85.4171 29.2713C87.021 29.553 88.5841 30.402 90.2485 29.9709C89.9104 30.1587 90.0275 30.2816 90.3499 30.3107C91.984 30.5686 93.5892 30.9944 95.2326 31.1928C95.4668 32.1158 95.6431 33.064 96.0431 33.9368C95.4142 33.4237 95.2497 32.5496 94.6734 32.0021C93.0971 31.4361 91.3669 31.3925 89.838 30.681C90.2854 32.0166 89.6341 31.3448 89.1288 30.8304C80.4778 29.3639 71.7938 27.8749 63.0717 26.8566C58.4377 25.6678 53.4918 26.6622 48.8827 25.1785Z" fill="#387738"/>
<path d="M75.7779 24.8558C76.6384 24.1959 78.3897 24.594 77.891 25.8146C77.0805 25.9362 76.2266 25.8582 75.4635 25.5554C76.02 25.6175 75.7516 25.1983 75.7779 24.8558Z" fill="#343636"/>
<path d="M37.0173 25.4007C39.9185 25.3451 42.7579 25.2261 45.6407 24.9563C45.9946 25.6017 43.9631 26.1306 43.4052 25.8701C42.1658 25.3821 41.7342 27.252 40.8014 27.7744C40.6882 28.5149 41.6882 28.9222 41.7066 29.7196C43.1342 28.7754 44.4723 27.2176 46.1236 26.6953C47.0736 28.9949 46.4565 31.8209 46.5959 34.3044C46.8065 34.7752 46.7972 35.7749 46.0538 35.677C45.8815 34.4657 46.1341 33.1327 45.5933 32.01C44.9091 31.1544 43.6289 31.694 42.7961 31.0526C42.7461 31.9346 41.4803 32.5496 41.3764 31.3528C41.3132 31.0619 41.2106 30.7709 40.8632 30.7749C40.4593 30.2248 41.6132 29.5252 40.9066 29.1735C40.1172 28.9592 39.2501 29.2131 38.4738 28.8574C37.8423 28.0084 37.1212 27.1489 36.162 26.6755C34.9029 25.9614 36.4568 25.845 37.0173 25.4007Z" fill="#473F3D"/>
<path d="M32.5108 27.5046C33.2661 26.85 33.1214 24.881 31.8661 25.1203C30.8662 25.5369 31.2477 28.4052 32.5108 27.5046Z" fill="#B5B7C0"/>
<path d="M29.3452 25.5911C30.0925 24.4737 31.2372 26.4533 30.6662 27.2269C30.5399 28.3033 29.0057 28.228 29.1938 27.0682C30.457 28.0309 30.4833 25.5673 29.3452 25.5911Z" fill="#898D98"/>
<path d="M47.8748 29.9722C48.0669 28.3708 47.9446 26.5551 48.8827 25.1785C53.4918 26.6622 58.4377 25.6678 63.0717 26.8566C71.7938 27.8749 80.4778 29.3639 89.1288 30.8304C89.6341 31.3448 90.2854 32.0166 89.838 30.681C91.3669 31.3925 93.0971 31.4361 94.6734 32.0021C95.2497 32.5496 95.4142 33.4237 96.0431 33.9368C96.1444 33.946 96.347 33.9645 96.4484 33.9738C96.4812 34.6733 96.6352 35.3438 96.6944 35.9137C96.372 36.005 95.7536 35.8463 96.1497 36.5974C95.8365 40.8489 95.4971 45.1163 95.3063 49.3625C95.1879 50.6215 97.4957 48.3469 97.2839 49.7341C98.0851 50.9534 97.6378 52.617 97.5983 54.0597C97.201 54.0306 96.8141 53.9354 96.4207 53.8891C95.8339 53.6498 95.4129 54.0425 94.9642 54.3361C95.3194 53.3602 95.305 52.334 95.5076 51.3025C92.9274 50.923 90.3459 50.5474 87.7618 50.1904C87.5092 50.1097 86.9329 50.0714 87.1921 49.6918C89.6486 49.8862 92.0827 50.4416 94.5445 50.4588C94.6971 49.8214 94.8405 49.1774 94.9339 48.5294C94.701 47.8458 93.6419 48.261 93.2827 47.6527C93.23 45.6572 93.6405 43.6432 93.3103 41.6675C93.3129 41.3184 93.4221 41.1676 93.684 41.4652C93.3879 39.6985 93.4669 37.8154 93.7471 36.1095C93.4274 35.7696 93.784 35.7471 94.0918 35.7074C95.1116 35.759 94.18 32.7916 94.03 34.717C93.9418 35.3425 93.9261 34.2634 93.8524 34.0095C84.7474 33.4131 75.6437 32.7334 66.548 32.0008C66.5282 32.5086 66.5348 33.0164 66.569 33.5255C75.5003 34.2793 84.4421 34.9061 93.3734 35.6572C93.0642 39.471 92.9327 43.2954 92.6866 47.1131C92.7419 47.5561 92.6722 47.9436 92.2209 47.8378C92.1932 43.9077 92.6498 39.9894 92.7485 36.0632C92.7893 35.8463 92.7064 35.7577 92.4985 35.8C92.2932 39.5265 92.1011 43.2544 91.9011 46.9809C91.9551 47.4252 91.8801 47.8114 91.4288 47.7056C91.2525 43.7053 92.1866 39.4829 91.7195 35.6188C91.3709 39.6403 91.3788 43.6868 91.0117 47.7056C90.7367 47.5681 90.2643 47.4173 90.6288 46.9082C90.7038 43.1565 91.0748 39.4128 91.1538 35.6638C90.8406 35.5831 90.8669 35.9204 90.8301 36.1293C90.6235 39.9391 90.5314 43.7569 90.2209 47.5588C90.1275 47.5628 89.942 47.5694 89.8486 47.5733C89.838 43.5982 90.2656 39.635 90.3683 35.6638C90.0512 35.5792 90.0775 35.9177 90.042 36.1306C89.8512 39.6535 89.6959 43.1803 89.5157 46.7045C89.5867 47.1594 89.5209 47.5535 89.0604 47.4398C89.0973 43.4633 89.4209 39.4935 89.5828 35.521C89.3538 35.4866 89.267 35.6651 89.2341 35.8582C89.1157 39.233 88.9144 42.6038 88.7723 45.9772C88.5749 46.329 89.0354 47.5323 88.2736 47.3062C88.3012 43.3813 88.6433 39.4591 88.7894 35.5395C88.7275 35.5395 88.6012 35.5382 88.5381 35.5382C88.0644 39.4393 88.4289 43.5612 87.7447 47.3604C87.1276 43.8719 88.0197 39.8637 87.9723 36.1888C88.5854 35.4773 87.3315 34.914 87.6907 36.0354C87.5789 39.6561 87.2881 43.2716 87.1934 46.895C87.2381 47.2031 86.8894 47.1515 86.6908 47.1938C86.7644 43.7159 87.0118 40.2446 87.1302 36.768C86.9158 36.4903 87.6512 35.2234 86.971 35.4192C86.6934 39.2832 86.5697 43.1631 86.4039 47.0365C86.2342 47.0484 86.0658 47.0483 85.8987 47.0391C86.0263 43.1169 86.2421 39.1973 86.4263 35.2777C86.3658 35.2777 86.2447 35.2763 86.1855 35.2763C85.9131 39.1311 85.8724 42.9992 85.5829 46.854C85.4934 47.2282 85.1711 47.014 85.1632 46.727C85.3105 42.9106 85.4645 39.0915 85.6342 35.279C85.5737 35.2777 85.454 35.275 85.3934 35.2737C85.125 39.1457 85.1198 43.0309 84.8224 46.9002C84.7316 46.9029 84.55 46.9082 84.4606 46.9095C84.3237 43.0243 84.9724 38.8217 84.7211 35.1428C84.2645 37.8206 84.4579 40.9891 84.1987 43.8653C83.8816 44.6138 84.6737 46.6001 83.6685 46.7799C83.5895 42.9198 84.1619 38.7913 83.9303 35.1401C83.5645 38.5916 83.5185 42.6011 83.4014 46.2509C83.5106 46.5842 83.1014 47.0431 82.8948 46.6001C82.9303 42.7347 83.1882 38.8627 83.3632 35C83.2777 35.0053 83.108 35.0132 83.0225 35.0172C82.883 38.8971 82.7725 42.7783 82.5869 46.6556C81.8883 46.7706 82.1106 45.9798 82.1277 45.5197C82.3001 42.0603 82.3935 38.5982 82.604 35.1415C82.6698 34.7659 81.4054 35.115 82.2146 35.6678C82.1225 39.1946 82.0356 42.7294 81.8238 46.2496C81.9659 46.7905 80.6988 46.4877 81.4146 45.8529C81.5067 42.2851 81.6751 38.7146 81.8093 35.1507C81.8462 34.9074 81.6514 34.9008 81.4725 34.9219C81.2672 38.7794 81.3962 42.6791 80.9949 46.5128C80.2817 46.53 80.7949 45.4363 80.6396 45.0595C80.8765 42.1555 80.8251 39.2369 81.0304 36.3329C80.8107 36.0116 81.4475 34.7844 80.7909 34.8783C80.5646 38.7133 80.5212 42.5548 80.3567 46.3924C80.2015 46.3792 80.0515 46.3554 79.9041 46.3184C79.8594 42.4861 80.4383 38.5189 80.0791 34.7725C79.716 38.1645 79.891 42.379 79.5581 46.1028C79.5686 46.7098 78.666 46.0169 79.1884 45.5858C79.3068 41.9743 79.3568 38.3523 79.5818 34.7474C78.7818 34.4948 79.3765 35.7022 79.187 36.0658C78.9344 39.4485 79.2897 43.0349 78.666 46.3038C78.1239 43.5043 78.8884 40.1613 78.7252 37.1819C78.541 36.5313 79.262 34.9537 78.5384 34.7447C78.2608 38.5268 78.3357 42.334 78.1147 46.124C77.966 46.1147 77.8213 46.0949 77.6792 46.0645C77.6608 42.289 78.1963 38.1975 77.8713 34.6112C77.52 38.1301 77.5726 42.211 77.4502 45.9389C77.2253 46.4956 76.5608 45.6413 76.945 45.3186C77.1542 41.7535 77.095 38.175 77.345 34.6151C77.2489 34.6138 77.0555 34.6125 76.9582 34.6125C76.9634 38.4118 76.7858 42.2057 76.674 46.0023C75.9516 45.9944 76.4582 44.9338 76.2792 44.5318C76.2884 41.2152 76.6292 37.6117 76.4305 34.4803C76.0016 37.6659 76.1753 41.3977 76.0148 44.7884C75.9003 45.0991 76.1437 46.0394 75.5043 45.8569C75.5187 42.1039 75.9687 38.0428 75.6345 34.4789C75.3674 38.0402 75.3766 42.0814 75.2253 45.8463C75.1332 45.8476 74.9477 45.8489 74.8556 45.8503C74.7464 42.047 75.2135 38.0825 74.9477 34.3758C74.624 37.6276 74.6319 41.8407 74.5674 45.4363C74.6148 45.7498 74.2635 45.6982 74.0609 45.7392C74.1214 41.9346 74.353 38.1327 74.3148 34.3255C73.7175 37.5271 74.1096 41.2695 73.8372 44.672C73.6504 44.8598 74.0254 45.8331 73.4477 45.6757C73.2293 41.9465 73.7569 37.8669 73.5372 34.3467C73.1254 37.7942 73.3188 41.7654 73.1175 45.4231C72.9622 45.6493 72.7649 45.6651 72.6899 45.3768C72.4741 41.7125 73.2293 37.6818 72.6807 34.1682C72.5386 37.8749 72.5965 41.5987 72.3162 45.2922C71.8267 45.7458 72.1057 46.2615 72.3544 46.764C72.8359 48.942 75.6293 47.9238 77.2568 48.5202C76.524 49.225 75.3924 48.7437 74.4872 48.8336C73.8122 48.6167 72.382 49.0769 72.2741 48.0203C72.1807 47.6805 71.782 47.8735 71.5754 47.978C70.7663 47.8854 69.7663 48.2068 69.0637 47.6593C69.5005 43.0494 68.7203 38.5493 69.415 33.9672C67.2098 33.8138 65.0098 33.5757 62.8099 33.3615C63.2283 32.3763 62.7441 30.7511 61.8126 31.9346C61.9613 31.3343 61.0968 31.448 60.8942 31.8368C60.9126 31.6173 60.9113 31.4004 60.6389 31.4863C59.5205 30.8503 59.3653 32.449 59.9363 32.9383C59.4008 33.1076 56.9325 32.863 57.3377 32.6236C58.4653 32.8854 58.2245 32.2242 57.6153 32.1198C58.3377 32.2071 58.1193 31.7217 57.5982 31.5935C57.9035 31.5829 58.2627 31.5868 58.1364 31.1756C56.9851 30.6903 57.4167 31.9069 57.3127 32.5139C57.2601 32.3221 57.2075 32.1317 57.1561 31.9412C57.1167 31.3515 56.6325 30.927 56.043 31.005C54.8009 30.4337 55.4983 31.8593 55.1101 32.4054C54.9812 32.2309 55.3799 30.3716 54.872 31.0658C54.8036 31.5207 54.4865 30.8556 54.2286 30.8609C53.4615 30.4417 54.2773 32.0444 53.7957 32.2613C53.6878 32.0788 54.0391 30.2684 53.5563 30.9177C53.6523 31.2906 53.1194 31.493 53.1365 31.0433C52.8207 29.8995 52.5273 32.8709 53.1918 31.8831C53.5194 31.485 53.5707 32.0153 53.676 32.2904C53.0049 32.2454 52.501 32.3525 52.7418 33.1711C52.1655 33.2795 52.1431 31.768 50.9879 32.1409C52.5615 32.6011 50.98 31.0407 51.8905 30.5779C53.276 30.7048 52.5339 29.9841 51.7221 30.4007C50.8011 30.484 51.7997 32.1277 50.7708 31.9862C50.4327 31.6318 50.4234 31.1901 51.0208 31.2523C51.1945 29.5107 48.6025 30.8093 47.8748 29.9722ZM58.5337 31.3052C58.6403 31.9016 58.0798 33.2782 59.3192 32.7572C59.5679 32.1581 58.7035 32.5734 58.789 32.1079C59.435 32.4742 59.5074 31.6715 58.8035 31.8169C59.3284 31.8011 59.7074 30.96 58.5337 31.3052Z" fill="#305C24"/>
<path d="M13.1706 25.5012C17.4574 25.6056 21.7822 25.8423 25.9439 26.9069C26.3216 27.4504 26.6702 28.0137 27.061 28.5506C27.4636 29.2184 28.3531 29.2607 29.0346 29.065C31.2977 29.3798 33.5753 28.5638 35.8528 28.5374C37.9765 32.2004 39.4659 36.1835 41.1369 40.0608C41.1408 40.1547 41.1474 40.3438 41.1514 40.4377C38.7501 38.9553 38.0436 35.603 35.566 34.1364C34.8608 33.7252 34.4108 32.9582 33.6608 32.6329C32.6779 33.1195 32.1556 34.2528 31.1293 34.6958C30.5938 34.2396 30.6306 32.1515 29.6517 33.2319C29.0531 33.1896 28.5004 32.5046 27.8505 32.9952C27.3781 31.4255 24.9769 32.2666 24.9203 30.439C24.0216 29.4988 22.173 30.0383 21.4375 28.9011C20.1665 29.1735 19.5941 27.9502 18.3955 28.1195C19.0626 27.6408 17.7758 27.1013 17.5784 26.5657C16.0758 26.9968 14.4588 26.8672 12.9128 27.0603C12.3404 26.5697 12.7233 25.9521 13.1706 25.5012Z" fill="#151713"/>
<path d="M29.1938 27.0682C30.457 28.0309 30.4833 25.5673 29.3452 25.5911C28.9952 26.0063 28.986 26.5789 29.1938 27.0682Z" fill="#D4D6E2"/>
<path d="M89.2446 26.813C88.5262 25.8556 92.4498 26.2377 91.2735 27.1198L91.1709 27.1039C91.0801 27.0854 90.8985 27.0484 90.8064 27.0299C90.2893 26.9227 89.7722 26.8222 89.2446 26.813Z" fill="#B72B2A"/>
<path d="M36.162 26.6755C37.1212 27.1489 37.8423 28.0084 38.4738 28.8574C39.2501 29.2131 40.1172 28.9592 40.9066 29.1735C41.6132 29.5252 40.4593 30.2248 40.8632 30.7749C40.6606 31.6186 41.4658 32.3459 41.154 33.1552C38.9343 33.9619 41.8079 37.0153 41.2079 38.2676C39.6935 34.3758 38.4607 30.2473 36.162 26.6755Z" fill="#655551"/>
<path d="M89.1591 27.3366C89.5499 26.8831 90.3038 27.1356 90.8064 27.0299C90.8985 27.0484 91.0801 27.0854 91.1709 27.1039C90.213 26.9227 90.3406 27.8788 91.2051 27.736C90.5788 27.6183 89.6433 27.7836 89.1591 27.3366Z" fill="#D3D8D8"/>
<path d="M13.4891 29.0174C15.0206 28.3721 16.7205 27.8312 18.3955 28.1195C19.5941 27.9502 20.1665 29.1735 21.4375 28.9011C22.173 30.0383 24.0216 29.4988 24.9203 30.439C24.9769 32.2666 27.3781 31.4255 27.8505 32.9952C28.5004 32.5046 29.0531 33.1896 29.6517 33.2319C30.6306 32.1515 30.5938 34.2396 31.1293 34.6958C31.5569 36.3686 32.5306 34.0584 32.8122 35.443C32.2503 37.0312 33.8963 37.9013 34.1792 39.2938C34.3516 38.864 34.1358 38.1631 34.5621 37.9159C35.1621 38.6233 35.3555 41.2298 34.1792 39.7381C34.0674 40.7312 35.4423 40.48 35.3489 41.5194C35.7594 42.3023 35.7068 40.2314 36.5265 40.9653C36.6805 41.9293 36.8318 42.9 36.9541 43.8706C36.3502 43.9063 36.6081 41.4996 36.2173 42.7307C35.8173 43.8032 36.9752 44.2806 37.3252 45.0952C37.512 45.8013 37.1699 46.7971 38.0186 47.1422C37.0844 47.6646 38.2712 49.0372 38.7291 48.9949C37.4475 49.1655 38.7422 49.4392 39.0462 50.1216C39.0054 50.6995 38.6949 51.2245 38.1238 51.3977C37.6738 52.2533 37.5765 53.2464 37.1752 54.1258C37.9896 55.23 36.5212 56.3395 36.4055 57.4728C36.3489 58.9328 35.2239 60.0978 34.4542 61.2483C33.5305 60.9375 34.3476 60.2829 34.6858 59.8267C34.8726 59.0782 33.5358 58.8098 33.6016 59.7103C34.0463 60.3385 33.1411 61.1385 33.4003 59.865C32.4253 58.0203 35.9278 58.4924 35.9252 56.5948C34.3055 57.0907 35.3739 55.402 35.9094 54.8479C35.0634 53.015 32.795 52.1832 30.9491 51.891C30.0557 50.3874 30.732 48.5532 29.878 47.0365C28.8807 42.1965 26.2952 37.5734 22.4625 34.4829C22.0033 33.2927 20.2744 33.7767 19.8902 32.572C19.6665 32.1132 20.3954 30.9415 19.6073 30.9071C19.2099 31.5009 18.8139 32.6805 17.9152 32.0576C16.7113 31.6371 18.4284 30.0396 17.1692 29.7514C16.1587 29.6667 16.714 31.7416 15.564 31.5049C14.2982 31.7059 15.4022 30.1137 14.539 29.7421C13.4917 29.6006 13.5746 31.3144 12.8562 31.7045C12.0154 31.809 12.5812 30.361 11.8444 30.111C11.1115 30.6612 11.2181 31.7601 10.7339 32.4901C10.0971 32.5059 10.1484 31.4983 9.76286 31.1267C10.597 30.0714 12.1615 29.4393 13.4891 29.0174ZM30.0214 38.6141C29.0925 38.8825 28.0939 38.9923 27.2163 39.3983C27.186 39.8373 27.5347 40.1825 27.761 40.5236C28.6241 40.2962 29.7938 39.7368 30.0241 41.0447C31.2714 41.5564 32.8832 41.2721 33.9319 42.2904C34.5963 41.9346 33.5003 41.2814 33.3174 40.9164C32.8595 39.5636 31.3109 38.8085 30.0214 38.6141ZM31.7188 42.0907C30.7491 42.2785 29.7596 42.3538 28.7965 42.5747C28.8083 43.9222 29.953 44.1206 31.1398 43.8838C30.9438 45.4125 32.3016 45.0555 33.1713 45.4258C33.5661 45.5686 35.341 47.0232 33.92 46.6609C32.945 45.837 31.1688 45.3557 30.1833 46.3316C29.903 47.5971 32.1503 46.8526 32.1582 47.8815C32.0806 49.3877 34.2147 48.5572 34.7621 49.6429C34.8345 50.029 35.7476 50.7907 35.7634 50.0846C35.0502 48.4646 35.8357 46.6675 34.7924 45.1124C35.1581 43.3311 33.2463 42.2427 31.7188 42.0907Z" fill="#373838"/>
<path d="M12.8562 31.7045C13.5746 31.3144 13.4917 29.6006 14.539 29.7421C15.4022 30.1137 14.2982 31.7059 15.564 31.5049C16.714 31.7416 16.1587 29.6667 17.1692 29.7514C18.4284 30.0396 16.7113 31.6371 17.9152 32.0576C18.8139 32.6805 19.2099 31.5009 19.6073 30.9071C20.3954 30.9415 19.6665 32.1132 19.8902 32.572C20.2744 33.7767 22.0033 33.2927 22.4625 34.4829C26.2952 37.5734 28.8807 42.1965 29.878 47.0365C30.732 48.5532 30.0557 50.3874 30.9491 51.891C32.795 52.1832 35.0634 53.015 35.9094 54.8479C35.3739 55.402 34.3055 57.0907 35.9252 56.5948C35.9278 58.4924 32.4253 58.0203 33.4003 59.865C33.1411 61.1385 34.0463 60.3385 33.6016 59.7103C33.5358 58.8098 34.8726 59.0782 34.6858 59.8267C34.3476 60.2829 33.5305 60.9375 34.4542 61.2483C34.4147 61.2932 34.3371 61.3845 34.2976 61.4294C34.2226 61.5101 34.1529 61.5961 34.0871 61.686C33.4384 62.7505 32.5332 63.6035 31.5635 64.3705C30.128 65.8185 28.1702 66.1583 26.4518 66.9901C26.2216 66.563 25.8663 66.4281 25.4018 66.7653C25.0005 68.22 23.4124 66.6807 22.3862 67.2639C21.5375 66.1636 22.748 68.3945 21.5822 67.65C20.6441 68.1261 19.7875 65.4575 19.6441 67.2586C18.1113 67.8933 18.1481 65.9759 16.9903 65.8291C16.8232 66.8619 15.4153 66.4982 15.3364 65.595C15.2614 65.0541 14.3009 63.7265 14.0443 64.6138C13.8272 65.5381 12.6286 64.6812 12.6878 64.0161C12.8601 63.0547 11.6444 62.1039 11.2523 63.3086C10.1957 62.7109 10.9207 61.042 9.73523 60.5262C8.64184 61.6688 8.37474 59.5278 8.44316 58.7608C8.34974 57.2599 6.78795 58.6339 6.68927 57.3617C6.51559 56.7072 7.10241 55.7405 6.35638 55.3239C5.55641 55.4773 5.37615 54.7619 5.22352 54.1933C5.85903 53.5136 5.63272 52.1079 4.58802 52.0576C3.40647 51.083 5.66035 49.5464 4.10645 48.7013C2.28809 47.65 5.32089 46.2033 3.50516 45.2248C2.8657 44.2581 4.16172 43.5572 4.21698 42.777C3.15254 41.7826 3.97488 40.4231 4.70907 39.4869C3.56042 38.0349 5.80114 37.1462 5.54588 35.7088C6.95505 34.1616 7.78792 32.0722 9.76286 31.1267C10.1484 31.4983 10.0971 32.5059 10.7339 32.4901C11.2181 31.7601 11.1115 30.6612 11.8444 30.111C12.5812 30.361 12.0154 31.809 12.8562 31.7045ZM9.66549 40.2459C7.55635 43.6868 7.79187 48.0851 8.95236 51.8249C9.81417 54.3149 11.2115 56.6807 13.222 58.4144C14.343 59.3215 15.5679 60.3213 17.0495 60.5117C18.3744 61.2311 20.177 60.8965 21.573 60.4205C26.0571 58.6762 27.4202 52.9277 26.5873 48.6075C25.7071 42.7968 21.1546 36.1756 14.6824 36.768C12.6075 36.9968 10.6089 38.4766 9.66549 40.2459Z" fill="#181818"/>
<path d="M51.7221 30.4007C52.5339 29.9841 53.276 30.7048 51.8905 30.5779C50.98 31.0407 52.5615 32.6011 50.9879 32.1409C52.1431 31.768 52.1655 33.2795 52.7418 33.1711C52.5602 34.143 52.1879 35.4231 53.3957 35.8265C53.6523 36.6741 53.5036 37.7704 53.601 38.7186C53.0734 38.6868 52.5444 38.4382 52.026 38.5228C51.7076 39.795 52.1537 41.1372 51.5247 42.3419C50.3761 42.2864 49.238 42.0563 48.0893 42.0655C47.742 41.9717 46.563 41.6543 47.9735 41.7006C48.0235 40.8423 48.0617 39.9775 47.938 39.1259C48.3183 36.7072 47.5604 34.2264 48.0367 31.8394C48.9498 31.846 49.8577 31.9518 50.7708 31.9862C51.7997 32.1277 50.8011 30.484 51.7221 30.4007Z" fill="#254D1D"/>
<path d="M95.2326 31.1928C93.7616 30.5633 91.9669 30.4549 90.3499 30.3107C91.984 30.5686 93.5892 30.9944 95.2326 31.1928Z" fill="#B5CFB3"/>
<path d="M53.1918 31.8831C52.5273 32.8709 52.8207 29.8995 53.1365 31.0433C53.1194 31.493 53.6523 31.2906 53.5563 30.9177C54.0391 30.2684 53.6878 32.0788 53.7957 32.2613L53.676 32.2904C53.5707 32.0153 53.5194 31.485 53.1918 31.8831Z" fill="#9E8D09"/>
<path d="M53.7957 32.2613C54.2773 32.0444 53.4615 30.4417 54.2286 30.8609C54.426 31.0857 53.872 32.3128 54.397 32.1912C54.4773 31.4573 54.7457 32.3816 55.1101 32.4054C55.4983 31.8593 54.8009 30.4337 56.043 31.005C55.4575 32.1661 56.6877 33.1671 57.1561 31.9412C57.2075 32.1317 57.2601 32.3221 57.3127 32.5139L57.3377 32.6236C56.9325 32.863 59.4008 33.1076 59.9363 32.9383C59.8087 32.2732 60.4613 32.1793 60.4297 32.8709C61.0402 32.9701 60.5968 31.9003 60.6389 31.4863C60.9113 31.4004 60.9126 31.6173 60.8942 31.8368C60.7337 32.5086 60.8626 33.4038 61.8192 33.0243C62.1099 32.5086 60.9771 32.6963 61.4257 32.3869C62.4928 32.2401 60.5797 31.932 61.8126 31.9346C62.7441 30.7511 63.2283 32.3763 62.8099 33.3615C65.0098 33.5757 67.2098 33.8138 69.415 33.9672C68.7203 38.5493 69.5005 43.0494 69.0637 47.6593C69.7663 48.2068 70.7663 47.8854 71.5754 47.978C70.7031 48.7979 69.2939 49.1325 68.1716 48.864C68.265 46.6265 65.4796 47.4728 63.9678 46.7204C63.9493 46.6741 63.9138 46.5815 63.8967 46.5353C65.5822 46.9597 64.6138 45.4192 63.9151 44.828C63.9836 42.6924 62.3915 45.5593 63.477 45.7749C64.9875 46.0579 62.8389 46.3752 62.8257 45.513C63.0467 44.549 61.8849 44.4432 61.5678 43.8852C62.1968 43.2769 61.7284 43.3377 61.0981 43.4237C60.7166 42.334 59.3179 42.7122 58.464 42.338C58.46 41.4599 58.3495 40.5514 58.5995 39.6971C59.5692 39.1285 60.2784 40.2525 59.2771 40.6559C58.3574 41.5525 60.2416 41.001 59.7824 41.9227C60.6968 41.8183 61.9231 40.8622 62.502 42.0365C63.056 41.8196 64.227 41.2152 64.2335 42.2811C65.1283 41.604 64.0388 41.2073 63.3941 41.1028C64.298 40.6651 64.1849 39.2938 63.0704 39.3414C63.202 39.9563 62.5915 39.3321 62.3007 39.2964C61.2678 39.9166 59.8442 38.8019 59.6376 37.658C58.9982 38.1301 60.1192 38.544 59.5166 39.0399C58.6824 39.8188 58.1272 38.667 57.5864 38.1684C56.7562 39.0796 55.693 40.193 56.2101 41.5577C56.6996 41.6477 57.6364 41.6463 57.5969 42.3842C57.2088 42.9278 56.3206 42.2163 56.0509 42.8312C55.9285 43.1459 55.5207 42.9701 55.2707 43.0983C55.0444 43.4527 55.6457 44.7553 54.8838 44.5107C54.6667 44.1655 54.5299 43.7794 54.3562 43.4144C54.4575 41.9836 52.3931 42.8061 51.5247 42.3419C52.1537 41.1372 51.7076 39.795 52.026 38.5228C52.5444 38.4382 53.0734 38.6868 53.601 38.7186C53.5036 37.7704 53.6523 36.6741 53.3957 35.8265C52.1879 35.4231 52.5602 34.143 52.7418 33.1711C52.501 32.3525 53.0049 32.2454 53.676 32.2904L53.7957 32.2613Z" fill="#172514"/>
<path d="M54.2286 30.8609C54.4865 30.8556 54.8036 31.5207 54.872 31.0658C55.3799 30.3716 54.9812 32.2309 55.1101 32.4054C54.7457 32.3816 54.4773 31.4573 54.397 32.1912C53.872 32.3128 54.426 31.0857 54.2286 30.8609Z" fill="#A08F09"/>
<path d="M57.1561 31.9412C57.1167 31.3515 56.6325 30.927 56.043 31.005C55.4575 32.1661 56.6877 33.1671 57.1561 31.9412Z" fill="#887A0A"/>
<path d="M57.3127 32.5139C57.4167 31.9069 56.9851 30.6903 58.1364 31.1756C58.2627 31.5868 57.9035 31.5829 57.5982 31.5935C58.1193 31.7217 58.3377 32.2071 57.6153 32.1198C58.2245 32.2242 58.4653 32.8854 57.3377 32.6236L57.3127 32.5139Z" fill="#99890A"/>
<path d="M58.5337 31.3052C59.7074 30.96 59.3284 31.8011 58.8035 31.8169C59.5074 31.6715 59.435 32.4742 58.789 32.1079C58.7035 32.5734 59.5679 32.1581 59.3192 32.7572C58.0798 33.2782 58.6403 31.9016 58.5337 31.3052Z" fill="#9A890A"/>
<path d="M59.9363 32.9383C59.3653 32.449 59.5205 30.8503 60.6389 31.4863C60.5968 31.9003 61.0402 32.9701 60.4297 32.8709C60.4613 32.1793 59.8087 32.2732 59.9363 32.9383Z" fill="#97870A"/>
<path d="M60.8942 31.8368C61.0968 31.448 61.9613 31.3343 61.8126 31.9346C60.5797 31.932 62.4928 32.2401 61.4257 32.3869C60.9771 32.6963 62.1099 32.5086 61.8192 33.0243C60.8626 33.4038 60.7337 32.5086 60.8942 31.8368Z" fill="#958509"/>
<path d="M66.548 32.0008C75.6437 32.7334 84.7474 33.4131 93.8524 34.0095C93.9261 34.2634 93.9418 35.3425 94.03 34.717C94.18 32.7916 95.1116 35.759 94.0918 35.7074C93.8511 35.6942 93.6116 35.6731 93.3734 35.6572C84.4421 34.9061 75.5003 34.2793 66.569 33.5255C66.5348 33.0164 66.5282 32.5086 66.548 32.0008ZM86.8671 33.8521C85.4737 34.4155 87.0592 35.2592 87.8578 34.8466C87.8526 34.2131 87.7907 33.4025 86.8671 33.8521ZM87.996 33.8191C87.8499 34.4446 89.6472 33.8891 88.8183 34.5107C87.7105 35.6969 89.7867 34.6932 89.6986 33.9844C89.2828 33.544 88.5131 33.942 87.996 33.8191ZM89.8472 33.9513C89.1578 35.398 90.9669 34.1616 91.0288 35.0132C90.7209 34.9762 89.2525 34.59 89.888 35.1018C90.3143 35.3266 91.0485 35.4588 91.4077 35.1044C91.3525 34.0902 91.3959 33.6101 89.8472 33.9513ZM91.7261 34.0941C91.1998 35.1005 92.3051 34.7289 92.8866 34.9034C92.6379 35.4403 91.9064 34.7725 91.5235 35.0079C91.8248 35.6122 92.8129 35.562 93.2484 35.2367C93.1853 34.2449 93.2629 33.7331 91.7261 34.0941Z" fill="#AE9B0A"/>
<path d="M96.4484 33.9738C98.3391 33.5519 100.421 33.2888 101.943 31.9717C101.948 32.0669 101.957 32.256 101.963 32.3512C101.948 32.7664 101.922 33.1975 101.938 33.6181C100.523 35.033 98.5509 35.4337 96.6944 35.9137C96.6352 35.3438 96.4812 34.6733 96.4484 33.9738Z" fill="#6C7365"/>
<path d="M31.1293 34.6958C32.1556 34.2528 32.6779 33.1195 33.6608 32.6329C34.4108 32.9582 34.8608 33.7252 35.566 34.1364C38.0436 35.603 38.7501 38.9553 41.1514 40.4377C40.1961 43.2319 43.0842 41.9677 44.596 42.133C43.7 42.4517 42.429 42.3168 41.3829 42.4266C40.408 42.051 40.7251 43.5083 41.4895 43.4038C41.8329 43.5599 44.0092 43.3337 43.046 44.1774C42.6579 45.3425 42.8842 46.7323 42.9882 47.9767C43.1145 48.3641 42.5408 48.0428 42.3355 48.1049C42.3237 48.6736 43.0829 48.6881 43.4487 48.9447C45.8328 49.3083 48.234 49.5794 50.6063 50.0052C52.1431 49.6826 50.8892 47.3274 51.2826 46.2258C52.8905 46.6503 54.5641 46.612 56.1733 47.0219C56.2549 48.1327 56.6377 48.0441 56.9075 47.2084C58.4416 47.1991 60.0403 47.3313 61.5178 47.7373C62.0165 48.7119 61.3797 50.0515 61.8284 51.1187C62.2718 50.8952 62.7165 50.6347 63.231 50.636C64.4625 51.3924 66.1598 51.2721 67.6124 51.3184C71.7281 51.9703 76.02 51.9399 80.1173 52.7386C79.8041 53.2425 78.8147 53.4567 79.0173 54.1483C78.7818 54.5887 78.22 54.9285 78.0884 54.2171C77.591 53.3509 76.9253 54.8175 76.2898 54.627C76.7174 52.8669 74.1596 52.4768 72.8793 52.4517C71.6333 52.3485 70.4005 52.0629 69.1452 52.1012C68.5453 52.0576 67.9479 51.9902 67.3493 51.9439C67.34 52.6805 67.4427 53.4818 68.4295 53.343C67.1742 53.8984 66.0309 52.6527 64.8414 53.2689C64.4704 52.371 66.473 52.5667 65.8795 51.8262C64.8677 51.5696 63.8059 51.2589 62.752 51.3091C60.3232 52.8444 57.4996 51.3541 54.8707 51.3938C54.8931 51.0856 54.9128 50.7815 54.9312 50.48C53.5102 50.6559 52.0681 50.5183 50.6577 50.7749C50.6669 51.3647 50.4392 52.006 50.6616 52.5826C51.8024 52.6289 52.9313 52.4041 54.0747 52.4702C53.4036 53.216 52.855 54.0624 52.201 54.8214C50.8445 56.0036 49.3761 57.2242 47.6288 57.6461C46.863 58.9354 45.7999 57.256 45.2736 58.4646C44.5315 59.0081 43.621 58.0031 42.8171 58.6326C41.8619 59.233 41.254 58.2504 40.3803 58.0745C40.0909 59.3321 38.9041 57.8418 38.2817 57.4662C37.8541 57.047 37.8265 58.052 37.4238 57.8259C36.9804 57.818 36.7673 56.9016 36.4055 57.4728C36.5212 56.3395 37.9896 55.23 37.1752 54.1258C37.5765 53.2464 37.6738 52.2533 38.1238 51.3977C38.6949 51.2245 39.0054 50.6995 39.0462 50.1216C38.7422 49.4392 37.4475 49.1655 38.7291 48.9949C38.2712 49.0372 37.0844 47.6646 38.0186 47.1422C37.1699 46.7971 37.512 45.8013 37.3252 45.0952C36.9752 44.2806 35.8173 43.8032 36.2173 42.7307C36.6081 41.4996 36.3502 43.9063 36.9541 43.8706C36.8318 42.9 36.6805 41.9293 36.5265 40.9653C35.7068 40.2314 35.7594 42.3023 35.3489 41.5194C35.4423 40.48 34.0674 40.7312 34.1792 39.7381C35.3555 41.2298 35.1621 38.6233 34.5621 37.9159C34.1358 38.1631 34.3516 38.864 34.1792 39.2938C33.8963 37.9013 32.2503 37.0312 32.8122 35.443C32.5306 34.0584 31.5569 36.3686 31.1293 34.6958ZM43.7881 50.8741C43.6342 52.3141 46.0328 53.6537 44.8289 54.9497C45.5394 54.8955 46.0736 55.2076 46.3275 55.8661C48.6643 56.612 51.68 55.029 52.2023 52.5641C51.6089 52.8537 51.0892 53.2782 50.384 53.0084C50.0814 50.6083 47.2551 54.7341 48.9169 55.2433C47.7209 56.12 48.2025 54.5755 48.1327 53.9182C48.3788 52.6884 47.4617 50.6545 48.913 50.2129C47.863 49.828 46.3025 49.8532 45.0657 49.5874C44.3565 49.5027 43.3645 49.9497 43.7881 50.8741Z" fill="#1B2418"/>
<path d="M101.938 33.6181C102.16 36.1584 101.469 39.5966 101.369 42.4768C101.617 44.3507 100.457 45.7828 99.5851 47.289C99.9377 47.4662 100.901 47.1158 100.843 47.6329C100.097 48.7529 102.023 47.699 101.296 48.8971C101.11 49.9735 101.639 51.6305 100.332 52.1105C100.018 51.038 101.276 48.3734 99.3548 48.6551C98.5628 50.2327 99.393 53.1182 97.5983 54.0597C97.6378 52.617 98.0851 50.9534 97.2839 49.7341C97.4957 48.3469 95.1879 50.6215 95.3063 49.3625C95.4971 45.1163 95.8365 40.8489 96.1497 36.5974C95.7536 35.8463 96.372 36.005 96.6944 35.9137C98.5509 35.4337 100.523 35.033 101.938 33.6181ZM100.676 36.9095C98.3193 37.2917 100.285 39.6733 98.9706 41.0209C98.7114 42.2203 100.507 41.8447 100.663 40.9799C100.778 39.7765 101.215 37.6448 100.676 36.9095Z" fill="#438435"/>
<path d="M87.8578 34.8466C87.8526 34.2131 87.7907 33.4025 86.8671 33.8521C85.4737 34.4155 87.0592 35.2592 87.8578 34.8466Z" fill="#21200B"/>
<path d="M87.996 33.8191C88.5131 33.942 89.2828 33.544 89.6986 33.9844C89.7867 34.6932 87.7105 35.6969 88.8183 34.5107C89.6472 33.8891 87.8499 34.4446 87.996 33.8191Z" fill="#2C2A10"/>
<path d="M89.8472 33.9513C91.3959 33.6101 91.3525 34.0902 91.4077 35.1044C91.0485 35.4588 90.3143 35.3266 89.888 35.1018C89.2525 34.59 90.7209 34.9762 91.0288 35.0132C90.9669 34.1616 89.1578 35.398 89.8472 33.9513Z" fill="#2A2811"/>
<path d="M91.7261 34.0941C93.2629 33.7331 93.1853 34.2449 93.2484 35.2367C92.8129 35.562 91.8248 35.6122 91.5235 35.0079C91.9064 34.7725 92.6379 35.4403 92.8866 34.9034C92.3051 34.7289 91.1998 35.1005 91.7261 34.0941Z" fill="#2C2B11"/>
<path d="M72.6807 34.1682C73.2293 37.6818 72.4741 41.7125 72.6899 45.3768C72.7649 45.6651 72.9622 45.6493 73.1175 45.4231C73.3188 41.7654 73.1254 37.7942 73.5372 34.3467C73.7569 37.8669 73.2293 41.9465 73.4477 45.6757C74.0254 45.8331 73.6504 44.8598 73.8372 44.672C74.1096 41.2695 73.7175 37.5271 74.3148 34.3255C74.353 38.1327 74.1214 41.9346 74.0609 45.7392C74.2635 45.6982 74.6148 45.7498 74.5674 45.4363C74.6319 41.8407 74.624 37.6276 74.9477 34.3758C75.2135 38.0825 74.7464 42.047 74.8556 45.8503C74.9477 45.8489 75.1332 45.8476 75.2253 45.8463C75.3766 42.0814 75.3674 38.0402 75.6345 34.4789C75.9687 38.0428 75.5187 42.1039 75.5043 45.8569C76.1437 46.0394 75.9003 45.0991 76.0148 44.7884C76.1753 41.3977 76.0016 37.6659 76.4305 34.4803C76.6292 37.6117 76.2884 41.2152 76.2792 44.5318C76.4582 44.9338 75.9516 45.9944 76.674 46.0023C76.7858 42.2057 76.9634 38.4118 76.9582 34.6125C77.0555 34.6125 77.2489 34.6138 77.345 34.6151C77.095 38.175 77.1542 41.7535 76.945 45.3186C76.5608 45.6413 77.2253 46.4956 77.4502 45.9389C77.5726 42.211 77.52 38.1301 77.8713 34.6112C78.1963 38.1975 77.6608 42.289 77.6792 46.0645C77.8213 46.0949 77.966 46.1147 78.1147 46.124C78.3357 42.334 78.2608 38.5268 78.5384 34.7447C79.262 34.9537 78.541 36.5313 78.7252 37.1819C78.8884 40.1613 78.1239 43.5043 78.666 46.3038C79.2897 43.0349 78.9344 39.4485 79.187 36.0658C79.3765 35.7022 78.7818 34.4948 79.5818 34.7474C79.3568 38.3523 79.3068 41.9743 79.1884 45.5858C78.666 46.0169 79.5686 46.7098 79.5581 46.1028C79.891 42.379 79.716 38.1645 80.0791 34.7725C80.4383 38.5189 79.8594 42.4861 79.9041 46.3184C80.0515 46.3554 80.2015 46.3792 80.3567 46.3924C80.5212 42.5548 80.5646 38.7133 80.7909 34.8783C81.4475 34.7844 80.8107 36.0116 81.0304 36.3329C80.8251 39.2369 80.8765 42.1555 80.6396 45.0595C80.7949 45.4363 80.2817 46.53 80.9949 46.5128C81.3962 42.6791 81.2672 38.7794 81.4725 34.9219C81.6514 34.9008 81.8462 34.9074 81.8093 35.1507C81.6751 38.7146 81.5067 42.2851 81.4146 45.8529C80.6988 46.4877 81.9659 46.7905 81.8238 46.2496C82.0356 42.7294 82.1225 39.1946 82.2146 35.6678C81.4054 35.115 82.6698 34.7659 82.604 35.1415C82.3935 38.5982 82.3001 42.0603 82.1277 45.5197C82.1106 45.9798 81.8883 46.7706 82.5869 46.6556C82.7725 42.7783 82.883 38.8971 83.0225 35.0172C83.108 35.0132 83.2777 35.0053 83.3632 35C83.1882 38.8627 82.9303 42.7347 82.8948 46.6001C83.1014 47.0431 83.5106 46.5842 83.4014 46.2509C83.5185 42.6011 83.5645 38.5916 83.9303 35.1401C84.1619 38.7913 83.5895 42.9198 83.6685 46.7799C84.6737 46.6001 83.8816 44.6138 84.1987 43.8653C84.4579 40.9891 84.2645 37.8206 84.7211 35.1428C84.9724 38.8217 84.3237 43.0243 84.4606 46.9095C84.55 46.9082 84.7316 46.9029 84.8224 46.9002C85.1198 43.0309 85.125 39.1457 85.3934 35.2737C85.454 35.275 85.5737 35.2777 85.6342 35.279C85.4645 39.0915 85.3105 42.9106 85.1632 46.727C85.1711 47.014 85.4934 47.2282 85.5829 46.854C85.8724 42.9992 85.9131 39.1311 86.1855 35.2763C86.2447 35.2763 86.3658 35.2777 86.4263 35.2777C86.2421 39.1973 86.0263 43.1169 85.8987 47.0391C86.0658 47.0483 86.2342 47.0484 86.4039 47.0365C86.5697 43.1631 86.6934 39.2832 86.971 35.4192C87.6512 35.2234 86.9158 36.4903 87.1302 36.768C87.0118 40.2446 86.7644 43.7159 86.6908 47.1938C86.8894 47.1515 87.2381 47.2031 87.1934 46.895C87.2881 43.2716 87.5789 39.6561 87.6907 36.0354C87.3315 34.914 88.5854 35.4773 87.9723 36.1888C88.0197 39.8637 87.1276 43.8719 87.7447 47.3604C88.4289 43.5612 88.0644 39.4393 88.5381 35.5382C88.6012 35.5382 88.7275 35.5395 88.7894 35.5395C88.6433 39.4591 88.3012 43.3813 88.2736 47.3062C89.0354 47.5323 88.5749 46.329 88.7723 45.9772C88.9144 42.6038 89.1157 39.233 89.2341 35.8582C89.267 35.6651 89.3538 35.4866 89.5828 35.521C89.4209 39.4935 89.0973 43.4633 89.0604 47.4398C89.5209 47.5535 89.5867 47.1594 89.5157 46.7045C89.6959 43.1803 89.8512 39.6535 90.042 36.1306C90.0775 35.9177 90.0512 35.5792 90.3683 35.6638C90.2656 39.635 89.838 43.5982 89.8486 47.5733C89.942 47.5694 90.1275 47.5628 90.2209 47.5588C90.5314 43.7569 90.6235 39.9391 90.8301 36.1293C90.8669 35.9204 90.8406 35.5831 91.1538 35.6638C91.0748 39.4128 90.7038 43.1565 90.6288 46.9082C90.2643 47.4173 90.7367 47.5681 91.0117 47.7056C91.3788 43.6868 91.3709 39.6403 91.7195 35.6188C92.1866 39.4829 91.2525 43.7053 91.4288 47.7056C91.8801 47.8114 91.9551 47.4252 91.9011 46.9809C92.1011 43.2544 92.2932 39.5265 92.4985 35.8C92.7064 35.7577 92.7893 35.8463 92.7485 36.0632C92.6498 39.9894 92.1932 43.9077 92.2209 47.8378C92.6722 47.9436 92.7419 47.5561 92.6866 47.1131C92.9327 43.2954 93.0642 39.471 93.3734 35.6572C93.6116 35.6731 93.8511 35.6942 94.0918 35.7074C93.784 35.7471 93.4274 35.7696 93.7471 36.1095C93.4669 37.8154 93.3879 39.6985 93.684 41.4652C93.4221 41.1676 93.3129 41.3184 93.3103 41.6675C93.6405 43.6432 93.23 45.6572 93.2827 47.6527C93.6419 48.261 94.701 47.8458 94.9339 48.5294C94.8405 49.1774 94.6971 49.8214 94.5445 50.4588C92.0827 50.4416 89.6486 49.8862 87.1921 49.6918C83.8751 49.3467 80.5659 48.9288 77.2568 48.5202C75.6293 47.9238 72.8359 48.942 72.3544 46.764C72.1057 46.2615 71.8267 45.7458 72.3162 45.2922C72.5965 41.5987 72.5386 37.8749 72.6807 34.1682Z" fill="#203A13"/>
<path d="M9.66549 40.2459C10.6089 38.4766 12.6075 36.9968 14.6824 36.768C21.1059 36.5921 25.5663 43.0296 26.3268 48.8693C26.6689 51.202 26.8886 54.0729 25.0953 55.8873C27.3228 50.3927 25.5413 43.659 21.1822 39.7394C19.1415 37.9793 16.16 36.8077 13.5443 37.937C12.7812 38.343 11.5957 38.8521 11.6865 39.8995C12.5891 39.5503 14.0522 40.279 13.5404 41.3686C14.2732 40.7775 15.1732 41.0645 16.0258 41.1002C16.0192 41.567 16.0535 42.0669 15.8732 42.5138C15.4574 42.6633 15.8008 41.7693 15.2614 42.0259C15.1166 43.2742 14.6864 44.9669 15.9877 45.7656C17.4758 45.5329 19.1205 46.3911 19.3402 47.9806C18.7981 47.0708 17.7389 45.9997 16.5811 46.4136C16.7771 47.1039 18.4455 47.0841 18.4429 48.2332C17.9494 48.5506 17.5902 48.0044 17.1982 47.7704C16.6192 47.0814 15.3706 46.653 15.4548 45.6215C14.539 45.3306 13.5772 45.4787 12.6996 45.8265C11.9088 45.3636 12.9891 43.1499 12.2483 42.3485C11.8562 42.5747 11.5681 42.4332 11.3641 42.055C10.897 41.965 10.5155 42.5681 9.99969 42.4239C9.86154 41.7204 10.2628 40.8 9.66549 40.2459Z" fill="#9E8B0F"/>
<path d="M14.6824 36.768C21.1546 36.1756 25.7071 42.7968 26.5873 48.6075C27.4202 52.9277 26.0571 58.6762 21.573 60.4205C20.177 60.8965 18.3744 61.2311 17.0495 60.5117C18.5415 60.8608 21.3612 59.3797 20.2481 57.7466C21.5243 58.3337 23.0624 56.7905 24.0151 57.5852C24.2558 57.3908 24.4058 57.1118 24.5479 56.8434C24.715 56.5154 24.8953 56.1954 25.0953 55.8873C26.8886 54.0729 26.6689 51.202 26.3268 48.8693C25.5663 43.0296 21.1059 36.5921 14.6824 36.768Z" fill="#C0AA1D"/>
<path d="M100.676 36.9095C101.215 37.6448 100.778 39.7765 100.663 40.9799C100.507 41.8447 98.7114 42.2203 98.9706 41.0209C100.285 39.6733 98.3193 37.2917 100.676 36.9095Z" fill="#2D2D21"/>
<path d="M13.5443 37.937C16.16 36.8077 19.1415 37.9793 21.1822 39.7394C25.5413 43.659 27.3228 50.3927 25.0953 55.8873C24.8953 56.1954 24.715 56.5154 24.5479 56.8434C23.3401 56.4427 25.0505 55.0952 24.4624 54.434C24.5006 54.1232 24.544 53.8164 24.5927 53.5122C24.8177 52.3763 25.2992 50.2049 24.3611 49.7831C24.1243 49.4075 23.7414 49.1668 23.4848 48.8111C24.8663 49.1867 24.1795 47.7796 23.9295 47.174C23.2598 45.722 22.5559 43.4514 20.9415 43.1671C20.3086 41.3422 17.7626 40.2882 16.0258 41.1002C15.1732 41.0645 14.2732 40.7775 13.5404 41.3686C14.0522 40.279 12.5891 39.5503 11.6865 39.8995C11.5957 38.8521 12.7812 38.343 13.5443 37.937Z" fill="#5C530F"/>
<path d="M59.6376 37.658C59.8442 38.8019 61.2678 39.9166 62.3007 39.2964C62.5915 39.3321 63.202 39.9563 63.0704 39.3414C64.1849 39.2938 64.298 40.6651 63.3941 41.1028C64.0388 41.2073 65.1283 41.604 64.2335 42.2811C64.227 41.2152 63.056 41.8196 62.502 42.0365C61.9231 40.8622 60.6968 41.8183 59.7824 41.9227C60.2416 41.001 58.3574 41.5525 59.2771 40.6559C60.2784 40.2525 59.5692 39.1285 58.5995 39.6971C58.3495 40.5514 58.46 41.4599 58.464 42.338C59.3179 42.7122 60.7166 42.334 61.0981 43.4237C61.7284 43.3377 62.1968 43.2769 61.5678 43.8852C61.8849 44.4432 63.0467 44.549 62.8257 45.513C62.8389 46.3752 64.9875 46.0579 63.477 45.7749C62.3915 45.5593 63.9836 42.6924 63.9151 44.828C64.6138 45.4192 65.5822 46.9597 63.8967 46.5353C60.2521 46.7429 56.6509 45.7207 53.0155 45.6043C52.426 45.7709 51.8247 45.9349 51.2826 46.2258C50.8892 47.3274 52.1431 49.6826 50.6063 50.0052C48.234 49.5794 45.8328 49.3083 43.4487 48.9447C43.0829 48.6881 42.3237 48.6736 42.3355 48.1049C42.5408 48.0428 43.1145 48.3641 42.9882 47.9767C42.8842 46.7323 42.6579 45.3425 43.046 44.1774C44.0092 43.3337 41.8329 43.5599 41.4895 43.4038C40.7251 43.5083 40.408 42.051 41.3829 42.4266C44.2263 43.5149 47.6117 43.2914 50.6379 43.9883C51.4787 44.9537 53.4773 44.2859 54.3562 43.4144C54.5299 43.7794 54.6667 44.1655 54.8838 44.5107C55.6457 44.7553 55.0444 43.4527 55.2707 43.0983C55.5207 42.9701 55.9285 43.1459 56.0509 42.8312C56.3206 42.2163 57.2088 42.9278 57.5969 42.3842C57.6364 41.6463 56.6996 41.6477 56.2101 41.5577C55.693 40.193 56.7562 39.0796 57.5864 38.1684C58.1272 38.667 58.6824 39.8188 59.5166 39.0399C60.1192 38.544 58.9982 38.1301 59.6376 37.658Z" fill="#295620"/>
<path d="M30.0214 38.6141C31.3109 38.8085 32.8595 39.5636 33.3174 40.9164C33.5003 41.2814 34.5963 41.9346 33.9319 42.2904C32.8832 41.2721 31.2714 41.5564 30.0241 41.0447C29.7938 39.7368 28.6241 40.2962 27.761 40.5236C27.5347 40.1825 27.186 39.8373 27.2163 39.3983C28.0939 38.9923 29.0925 38.8825 30.0214 38.6141Z" fill="#4A4A4C"/>
<path d="M41.1908 39.6627C43.4276 39.3652 45.7104 39.5556 47.938 39.1259C48.0617 39.9775 48.0235 40.8423 47.9735 41.7006C46.563 41.6543 47.742 41.9717 48.0893 42.0655C49.238 42.0563 50.3761 42.2864 51.5247 42.3419C52.3931 42.8061 54.4575 41.9836 54.3562 43.4144C53.4773 44.2859 51.4787 44.9537 50.6379 43.9883C47.6117 43.2914 44.2263 43.5149 41.3829 42.4266C42.429 42.3168 43.7 42.4517 44.596 42.133C43.0842 41.9677 40.1961 43.2319 41.1514 40.4377C41.1474 40.3438 41.1408 40.1547 41.1369 40.0608C41.1501 39.9616 41.1777 39.7619 41.1908 39.6627Z" fill="#376B2D"/>
<path d="M9.66549 40.2459C10.2628 40.8 9.86154 41.7204 9.99969 42.4239C10.5155 42.5681 10.897 41.965 11.3641 42.055C11.5681 42.4332 11.8562 42.5747 12.2483 42.3485C12.9891 43.1499 11.9088 45.3636 12.6996 45.8265C13.2535 46.2906 14.0219 46.5445 14.464 47.133C14.0456 47.1171 13.7456 47.3895 13.4891 47.6871C12.972 47.3776 12.947 46.8434 12.9141 46.3276C12.1957 45.7312 12.1917 46.7336 11.8036 46.9108C9.73523 45.9283 9.46418 49.504 9.85101 50.7669C9.87864 50.9045 9.91285 51.0407 9.95496 51.1769C9.6155 51.3845 9.27735 51.5948 8.95236 51.8249C7.79187 48.0851 7.55635 43.6868 9.66549 40.2459Z" fill="#CCB20A"/>
<path d="M16.0258 41.1002C17.7626 40.2882 20.3086 41.3422 20.9415 43.1671C22.5559 43.4514 23.2598 45.722 23.9295 47.174C24.1795 47.7796 24.8663 49.1867 23.4848 48.8111C23.7414 49.1668 24.1243 49.4075 24.3611 49.7831C24.6203 51.0764 25.0348 52.8048 24.0229 53.8957C23.1914 54.1655 23.4532 53.2385 23.6387 52.7955C23.3322 52.7757 22.9217 52.4808 22.6888 52.7942C22.8651 54.0743 21.3007 53.5651 20.6165 53.4012C20.0639 52.6077 18.902 51.567 19.6428 50.5408C20.1296 49.4274 19.0994 50.3636 18.6442 50.1282C18.9402 49.7236 18.4047 49.5199 18.1521 49.3083C18.51 49.0068 18.8349 48.6604 18.4429 48.2332C18.4455 47.0841 16.7771 47.1039 16.5811 46.4136C17.7389 45.9997 18.7981 47.0708 19.3402 47.9806C19.1205 46.3911 17.4758 45.5329 15.9877 45.7656C14.6864 44.9669 15.1166 43.2742 15.2614 42.0259C15.8008 41.7693 15.4574 42.6633 15.8732 42.5138C16.0535 42.0669 16.0192 41.567 16.0258 41.1002Z" fill="#CBB213"/>
<path d="M31.7188 42.0907C33.2463 42.2427 35.1581 43.3311 34.7924 45.1124C35.8357 46.6675 35.0502 48.4646 35.7634 50.0846C35.7476 50.7907 34.8345 50.029 34.7621 49.6429C34.2147 48.5572 32.0806 49.3877 32.1582 47.8815C32.1503 46.8526 29.903 47.5971 30.1833 46.3316C31.1688 45.3557 32.945 45.837 33.92 46.6609C35.341 47.0232 33.5661 45.5686 33.1713 45.4258C32.3016 45.0555 30.9438 45.4125 31.1398 43.8838C29.953 44.1206 28.8083 43.9222 28.7965 42.5747C29.7596 42.3538 30.7491 42.2785 31.7188 42.0907Z" fill="#494949"/>
<path d="M12.6996 45.8265C13.5772 45.4787 14.539 45.3306 15.4548 45.6215C15.3706 46.653 16.6192 47.0814 17.1982 47.7704C18.1258 48.7027 17.1126 50.4919 18.0679 51.0645C18.1508 52.4371 16.8297 53.0772 15.6258 53.1327C15.8285 51.9809 16.2877 50.7868 15.8048 49.6336C15.7166 49.0624 15.3022 49.0108 14.8495 49.2396C14.7061 48.8587 13.8456 48.1539 14.5048 47.8682C14.8403 47.7122 14.5496 47.3604 14.464 47.133C14.0219 46.5445 13.2535 46.2906 12.6996 45.8265Z" fill="#EBD21C"/>
<path d="M51.2826 46.2258C51.8247 45.9349 52.426 45.7709 53.0155 45.6043C56.6509 45.7207 60.2521 46.7429 63.8967 46.5353C63.9138 46.5815 63.9493 46.6741 63.9678 46.7204C62.6468 46.8553 64.2928 49.9748 63.231 50.636C62.7165 50.6347 62.2718 50.8952 61.8284 51.1187C61.3797 50.0515 62.0165 48.7119 61.5178 47.7373C60.0403 47.3313 58.4416 47.1991 56.9075 47.2084C56.6377 48.0441 56.2549 48.1327 56.1733 47.0219C54.5641 46.612 52.8905 46.6503 51.2826 46.2258Z" fill="#2E3232"/>
<path d="M11.8036 46.9108C12.1917 46.7336 12.1957 45.7312 12.9141 46.3276C12.947 46.8434 12.972 47.3776 13.4891 47.6871C14.2088 48.5202 14.9153 49.4102 14.8785 50.595C15.2153 50.4773 15.2101 49.6984 15.8048 49.6336C16.2877 50.7868 15.8285 51.9809 15.6258 53.1327C16.8297 53.0772 18.1508 52.4371 18.0679 51.0645C18.1587 50.6863 18.1534 50.1824 18.6442 50.1282C19.0994 50.3636 20.1296 49.4274 19.6428 50.5408C18.902 51.567 20.0639 52.6077 20.6165 53.4012C21.3007 53.5651 22.8651 54.0743 22.6888 52.7942C22.9217 52.4808 23.3322 52.7757 23.6387 52.7955C23.4532 53.2385 23.1914 54.1655 24.0229 53.8957C25.0348 52.8048 24.6203 51.0764 24.3611 49.7831C25.2992 50.2049 24.8177 52.3763 24.5927 53.5122C23.7782 54.5583 22.3717 56.5802 20.9994 55.152C19.5336 54.3361 17.6297 54.9153 16.3784 53.5956C15.3574 53.6524 14.2509 54.6601 13.1851 54.147C13.8983 53.3483 12.5865 53.1367 12.3351 53.9116C11.422 53.6815 11.5075 52.7677 12.197 52.3102C12.493 53.1526 13.743 52.4054 13.0746 51.8738C12.6536 51.7574 12.7496 51.5194 13.0246 51.2814C13.9535 51.2245 13.3877 49.8532 14.243 50.1348C15.1206 49.9484 14.0364 49.0346 13.6469 49.7923C13.2101 48.503 11.9615 49.7288 11.2904 49.0134C10.5615 49.2647 10.6549 50.5342 9.85101 50.7669C9.46418 49.504 9.73523 45.9283 11.8036 46.9108Z" fill="#9D8B10"/>
<path d="M63.231 50.636C64.2928 49.9748 62.6468 46.8553 63.9678 46.7204C65.4796 47.4728 68.265 46.6265 68.1716 48.864C69.2939 49.1325 70.7031 48.7979 71.5754 47.978C71.782 47.8735 72.1807 47.6805 72.2741 48.0203C72.382 49.0769 73.8122 48.6167 74.4872 48.8336C75.3924 48.7437 76.524 49.225 77.2568 48.5202C80.5659 48.9288 83.8751 49.3467 87.1921 49.6918C86.9329 50.0714 87.5092 50.1097 87.7618 50.1904C90.3459 50.5474 92.9274 50.923 95.5076 51.3025C95.305 52.334 95.3194 53.3602 94.9642 54.3361C94.3024 54.668 93.555 54.4948 92.8537 54.4459C91.984 54.2647 90.217 53.8336 90.7959 55.4469C91.9814 55.636 93.2406 56.8725 93.109 57.8524C93.4221 55.8013 93.9734 58.294 93.4287 58.9566C93.0274 60.4667 91.2485 59.8214 90.1591 59.8122C88.0526 59.7923 88.7512 56.9862 88.9131 55.6083C88.992 55.078 90.2683 54.106 89.1275 54.1219C88.4118 54.0558 88.4604 54.8994 88.3578 55.3808C87.9039 55.1917 88.1749 54.3374 87.6052 54.1444C87.0723 54.3996 87.5499 54.988 87.6065 55.3914C86.3158 54.0002 86.8579 51.9359 86.725 50.3054C85.2895 50.2155 87.2263 53.8825 85.1066 53.4051C84.0132 52.8841 82.7514 52.6778 81.5251 52.7968C81.0541 52.7796 80.587 52.74 80.1173 52.7386C76.02 51.9399 71.7281 51.9703 67.6124 51.3184C66.1598 51.2721 64.4625 51.3924 63.231 50.636Z" fill="#28541D"/>
<path d="M13.4891 47.6871C13.7456 47.3895 14.0456 47.1171 14.464 47.133C14.5496 47.3604 14.8403 47.7122 14.5048 47.8682C13.8456 48.1539 14.7061 48.8587 14.8495 49.2396C15.3022 49.0108 15.7166 49.0624 15.8048 49.6336C15.2101 49.6984 15.2153 50.4773 14.8785 50.595C14.9153 49.4102 14.2088 48.5202 13.4891 47.6871Z" fill="#605C2F"/>
<path d="M17.1982 47.7704C17.5902 48.0044 17.9494 48.5506 18.4429 48.2332C18.8349 48.6604 18.51 49.0068 18.1521 49.3083C18.4047 49.5199 18.9402 49.7236 18.6442 50.1282C18.1534 50.1824 18.1587 50.6863 18.0679 51.0645C17.1126 50.4919 18.1258 48.7027 17.1982 47.7704Z" fill="#4C4925"/>
<path d="M99.3548 48.6551C101.276 48.3734 100.018 51.038 100.332 52.1105C100.344 52.4133 99.4627 51.7971 99.7785 52.2771C102.061 55.8238 101.863 60.9865 98.797 64.0068C98.6128 63.9209 98.1075 64.0557 98.2088 63.7357C99.0601 60.4284 98.4246 56.6662 96.4207 53.8891C96.8141 53.9354 97.201 54.0306 97.5983 54.0597C99.393 53.1182 98.5628 50.2327 99.3548 48.6551Z" fill="#3C423A"/>
<path d="M9.85101 50.7669C10.6549 50.5342 10.5615 49.2647 11.2904 49.0134C11.9615 49.7288 13.2101 48.503 13.6469 49.7923C14.0364 49.0346 15.1206 49.9484 14.243 50.1348C13.3877 49.8532 13.9535 51.2245 13.0246 51.2814C12.1102 51.9637 10.997 51.5855 9.95496 51.1769C9.91285 51.0407 9.87864 50.9045 9.85101 50.7669Z" fill="#292C27"/>
<path d="M43.7881 50.8741C43.3645 49.9497 44.3565 49.5027 45.0657 49.5874C46.3025 49.8532 47.863 49.828 48.913 50.2129C47.4617 50.6545 48.3788 52.6884 48.1327 53.9182C48.2025 54.5755 47.7209 56.12 48.9169 55.2433C49.8445 54.8664 50.1432 53.8852 50.384 53.0084C51.0892 53.2782 51.6089 52.8537 52.2023 52.5641C51.68 55.029 48.6643 56.612 46.3275 55.8661C46.0736 55.2076 45.5394 54.8955 44.8289 54.9497C46.0328 53.6537 43.6342 52.3141 43.7881 50.8741Z" fill="#2C5B22"/>
<path d="M85.1066 53.4051C87.2263 53.8825 85.2895 50.2155 86.725 50.3054C86.8579 51.9359 86.3158 54.0002 87.6065 55.3914C87.6776 56.5974 85.7789 55.1282 85.8829 54.352C85.7421 53.2372 84.7198 54.1232 84.0211 53.7212C83.1698 53.2451 82.5185 54.0055 81.8054 54.3229C81.9843 53.7238 82.6738 52.6196 81.5251 52.7968C82.7514 52.6778 84.0132 52.8841 85.1066 53.4051Z" fill="#1C2C14"/>
<path d="M50.6577 50.7749C52.0681 50.5183 53.5102 50.6559 54.9312 50.48C54.9128 50.7815 54.8931 51.0856 54.8707 51.3938C54.9075 52.047 55.0023 52.7849 54.0747 52.4702C52.9313 52.4041 51.8024 52.6289 50.6616 52.5826C50.4392 52.006 50.6669 51.3647 50.6577 50.7749Z" fill="#4F4C36"/>
<path d="M9.95496 51.1769C10.997 51.5855 12.1102 51.9637 13.0246 51.2814C12.7496 51.5194 12.6536 51.7574 13.0746 51.8738C13.743 52.4054 12.493 53.1526 12.197 52.3102C11.5075 52.7677 11.422 53.6815 12.3351 53.9116C12.5865 53.1367 13.8983 53.3483 13.1851 54.147C14.2509 54.6601 15.3574 53.6524 16.3784 53.5956C17.6297 54.9153 19.5336 54.3361 20.9994 55.152C22.3717 56.5802 23.7782 54.5583 24.5927 53.5122C24.544 53.8164 24.5006 54.1232 24.4624 54.434C22.998 55.5739 21.4178 56.85 19.4415 56.5101C18.9902 56.5511 18.3455 56.4109 18.1902 56.9835C17.2376 56.805 15.9916 54.8703 15.3732 55.6268C16.66 57.1647 13.8996 57.4913 13.222 58.4144C11.2115 56.6807 9.81417 54.3149 8.95236 51.8249C9.27735 51.5948 9.6155 51.3845 9.95496 51.1769Z" fill="#6D6316"/>
<path d="M67.3493 51.9439C67.9479 51.9902 68.5453 52.0576 69.1452 52.1012C69.711 52.2031 70.2794 52.2851 70.8465 52.3975C70.7491 53.4699 69.2255 54.0293 68.4295 53.343C67.4427 53.4818 67.34 52.6805 67.3493 51.9439Z" fill="#3B6237"/>
<path d="M50.384 53.0084C50.0814 50.6083 47.2551 54.7341 48.9169 55.2433C49.8445 54.8664 50.1432 53.8852 50.384 53.0084Z" fill="#636352"/>
<path d="M80.1173 52.7386C80.587 52.74 81.0541 52.7796 81.5251 52.7968C82.6738 52.6196 81.9843 53.7238 81.8054 54.3229C81.0067 55.0872 79.941 54.2488 79.0173 54.1483C78.8147 53.4567 79.8041 53.2425 80.1173 52.7386Z" fill="#020201" fill-opacity="0.26"/>
<path d="M81.8054 54.3229C82.5185 54.0055 83.1698 53.2451 84.0211 53.7212C84.7198 54.1232 85.7421 53.2372 85.8829 54.352C85.7789 55.1282 87.6776 56.5974 87.6065 55.3914C87.5499 54.988 87.0723 54.3996 87.6052 54.1444C88.1749 54.3374 87.9039 55.1917 88.3578 55.3808C88.4604 54.8994 88.4118 54.0558 89.1275 54.1219C90.2683 54.106 88.992 55.078 88.9131 55.6083C88.7933 55.6836 88.6841 55.7735 88.5657 55.8502C88.2789 56.0248 87.9973 56.2086 87.7355 56.4189C87.0763 56.924 86.271 57.2335 85.7224 57.8748C84.9382 58.1565 84.0645 57.9753 83.354 58.5241C81.7554 57.3551 79.8818 56.8407 78.0687 56.161C77.4318 55.8132 76.474 55.5249 75.9529 56.1914C75.1227 55.9957 74.3319 56.1213 73.557 56.4202C73.4609 56.1174 73.0359 55.644 73.4346 55.4099C74.6609 55.9071 74.9122 53.8323 76.2898 54.627C76.9253 54.8175 77.591 53.3509 78.0884 54.2171C78.22 54.9285 78.7818 54.5887 79.0173 54.1483C79.941 54.2488 81.0067 55.0872 81.8054 54.3229Z" fill="#35662D"/>
<path d="M94.9642 54.3361C95.4129 54.0425 95.8339 53.6498 96.4207 53.8891C98.4246 56.6662 99.0601 60.4284 98.2088 63.7357C98.1075 64.0557 98.6128 63.9209 98.797 64.0068C96.8575 66.3805 93.805 67.4808 90.8064 67.3763C89.6709 67.3948 87.8591 66.1478 88.3683 68.1036C88.4289 66.0869 87.3973 64.3017 87.0723 62.375C87.9289 62.6712 88.8499 62.9317 89.7433 62.6275C90.9077 62.7889 92.1301 62.6275 93.1235 61.973C95.7721 60.2684 95.2563 56.12 92.8537 54.4459C93.555 54.4948 94.3024 54.668 94.9642 54.3361Z" fill="#282827"/>
<path d="M0 57.3432C0.509195 55.0872 3.36305 54.7579 5.22352 54.1933C5.37615 54.7619 5.55641 55.4773 6.35638 55.3239C7.10241 55.7405 6.51559 56.7072 6.68927 57.3617C6.78795 58.6339 8.34974 57.2599 8.44316 58.7608C8.37474 59.5278 8.64184 61.6688 9.73523 60.5262C10.9207 61.042 10.1957 62.7109 11.2523 63.3086C11.6444 62.1039 12.8601 63.0547 12.6878 64.0161C12.6286 64.6812 13.8272 65.5381 14.0443 64.6138C14.3009 63.7265 15.2614 65.0541 15.3364 65.595C15.4153 66.4982 16.8232 66.8619 16.9903 65.8291C18.1481 65.9759 18.1113 67.8933 19.6441 67.2586C19.7875 65.4575 20.6441 68.1261 21.5822 67.65C22.748 68.3945 21.5375 66.1636 22.3862 67.2639C23.4124 66.6807 25.0005 68.22 25.4018 66.7653C25.8663 66.4281 26.2216 66.563 26.4518 66.9901C28.1702 66.1583 30.128 65.8185 31.5635 64.3705C31.5859 65.7418 30.3162 66.7468 29.1886 67.2692C25.3084 68.8349 20.8454 68.9235 16.9521 67.5455C13.5141 66.846 10.0878 65.4112 6.9261 63.7344C4.25382 62.133 0.934182 60.5236 0 57.3432Z" fill="black" fill-opacity="0.44"/>
<path d="M90.7959 55.4469C90.217 53.8336 91.984 54.2647 92.8537 54.4459C95.2563 56.12 95.7721 60.2684 93.1235 61.973C93.2669 61.5895 93.4063 61.1927 93.3998 60.7775C92.8906 60.7749 91.9511 61.8381 92.1853 60.5553C90.9314 60.0727 89.1775 59.992 88.0473 61.0975C87.1697 61.8354 86.9907 59.1245 86.5263 60.2843C86.0263 59.5807 85.7737 58.7331 85.7224 57.8748C86.271 57.2335 87.0763 56.924 87.7355 56.4189C87.7526 57.0192 87.1671 58.499 88.1854 58.0785C88.1736 57.3089 88.5236 56.608 88.5657 55.8502C88.6841 55.7735 88.7933 55.6836 88.9131 55.6083C88.7512 56.9862 88.0526 59.7923 90.1591 59.8122C91.2485 59.8214 93.0274 60.4667 93.4287 58.9566C93.9734 58.294 93.4221 55.8013 93.109 57.8524C93.2406 56.8725 91.9814 55.636 90.7959 55.4469Z" fill="#655C13"/>
<path d="M19.4415 56.5101C21.4178 56.85 22.998 55.5739 24.4624 54.434C25.0505 55.0952 23.3401 56.4427 24.5479 56.8434C24.4058 57.1118 24.2558 57.3908 24.0151 57.5852C23.0624 56.7905 21.5243 58.3337 20.2481 57.7466C19.5455 57.539 18.8284 57.3538 18.1902 56.9835C18.3455 56.4109 18.9902 56.5511 19.4415 56.5101Z" fill="#968308"/>
<path d="M47.6288 57.6461C49.3761 57.2242 50.8445 56.0036 52.201 54.8214C58.0508 55.8767 63.9665 56.5908 69.7347 58.0547C69.065 58.4924 68.4084 58.9552 67.815 59.4935C63.8349 63.3469 63.4323 69.9206 66.5401 74.426C68.2176 77.203 71.0281 79.1324 74.0793 80.0991C71.061 79.7077 68.2071 78.5241 65.3704 77.4556C61.9349 75.919 58.3903 74.4022 55.5365 71.8817C54.7496 71.2787 55.147 69.9536 56.018 69.6363C57.0956 68.7952 58.4653 68.7767 59.7179 68.4382C58.7614 66.8434 61.2297 67.7955 61.9336 66.8632C62.3126 66.5445 63.5507 65.7682 62.731 65.2961C58.7219 64.5305 54.6759 63.8904 50.655 63.1975C47.8577 64.6455 44.7526 62.859 41.8369 62.6593C40.6843 62.7968 42.75 63.6379 41.8185 63.9618C39.8211 65.4905 37.5423 63.6855 35.6423 62.8881C34.4713 62.7148 35.4673 61.5577 34.2976 61.4294C34.3371 61.3845 34.4147 61.2932 34.4542 61.2483C35.2239 60.0978 36.3489 58.9328 36.4055 57.4728C36.7673 56.9016 36.9804 57.818 37.4238 57.8259C37.8265 58.052 37.8541 57.047 38.2817 57.4662C38.9041 57.8418 40.0909 59.3321 40.3803 58.0745C41.254 58.2504 41.8619 59.233 42.8171 58.6326C43.621 58.0031 44.5315 59.0081 45.2736 58.4646C45.7999 57.256 46.863 58.9354 47.6288 57.6461Z" fill="black" fill-opacity="0.44"/>
<path d="M15.3732 55.6268C15.9916 54.8703 17.2376 56.805 18.1902 56.9835C18.8284 57.3538 19.5455 57.539 20.2481 57.7466C21.3612 59.3797 18.5415 60.8608 17.0495 60.5117C15.5679 60.3213 14.343 59.3215 13.222 58.4144C13.8996 57.4913 16.66 57.1647 15.3732 55.6268Z" fill="#DCC215"/>
<path d="M78.0687 56.161C77.4318 55.8132 76.474 55.5249 75.9529 56.1914C76.6516 56.2972 77.37 56.3223 78.0687 56.161Z" fill="#0A0C09"/>
<path d="M87.7355 56.4189C87.9973 56.2086 88.2789 56.0248 88.5657 55.8502C88.5236 56.608 88.1736 57.3089 88.1854 58.0785C87.1671 58.499 87.7526 57.0192 87.7355 56.4189Z" fill="#BAA30B"/>
<path d="M73.557 56.4202C74.3319 56.1213 75.1227 55.9957 75.9529 56.1914C76.6516 56.2972 77.37 56.3223 78.0687 56.161C79.8818 56.8407 81.7554 57.3551 83.354 58.5241C84.3948 59.3996 85.3408 60.4826 86.2026 61.5868C86.4895 61.3885 86.6631 61.0711 86.8671 60.7987C87.6052 61.7111 88.646 62.2705 89.7433 62.6275C88.8499 62.9317 87.9289 62.6712 87.0723 62.375C87.3973 64.3017 88.4289 66.0869 88.3683 68.1036C88.3854 69.8055 88.1697 71.5881 87.4105 73.1353C87.1263 71.6516 86.3539 73.2901 85.6513 73.5307C86.0631 66.0592 80.291 57.6011 72.3004 57.8008C72.103 57.4186 73.1991 57.0946 72.3162 56.8103C72.7162 56.6397 73.1346 56.522 73.557 56.4202Z" fill="#424243"/>
<path d="M69.7347 58.0547C70.5636 57.58 71.4215 57.1489 72.3162 56.8103C73.1991 57.0946 72.103 57.4186 72.3004 57.8008C80.291 57.6011 86.0631 66.0592 85.6513 73.5307C86.3539 73.2901 87.1263 71.6516 87.4105 73.1353C86.8473 75.3226 84.9145 77.0113 83.1803 78.3562C82.9803 78.3178 82.5014 78.3707 82.6527 78.0388C83.4317 77.0364 82.8922 75.6968 83.2514 74.5424C84.2474 69.151 76.5595 60.6625 76.5595 60.6625C76.5595 60.6625 73.1412 59.7209 71.4346 59.3189C70.3597 58.1962 69.0163 59.6693 67.815 59.4935C68.4084 58.9552 69.065 58.4924 69.7347 58.0547Z" fill="#303131"/>
<path d="M83.354 58.5241C84.0645 57.9753 84.9382 58.1565 85.7224 57.8748C85.7737 58.7331 86.0263 59.5807 86.5263 60.2843C86.6342 60.4575 86.7487 60.6281 86.8671 60.7987C86.6631 61.0711 86.4895 61.3885 86.2026 61.5868C85.3408 60.4826 84.3948 59.3996 83.354 58.5241Z" fill="#1A1B1A"/>
<path d="M67.815 59.4935C69.0163 59.6693 70.3597 58.1962 71.4346 59.3189C73.1412 59.7209 76.5595 60.6625 76.5595 60.6625C76.5595 60.6625 84.2474 69.151 83.2514 74.5424C82.8922 75.6968 83.4317 77.0364 82.6527 78.0388C82.5014 78.3707 82.9803 78.3178 83.1803 78.3562C82.3633 79.0637 81.3607 79.4908 80.3383 79.7949C78.3279 80.4363 76.1371 80.6281 74.0793 80.0991C71.0281 79.1324 68.2176 77.203 66.5401 74.426C63.4323 69.9206 63.8349 63.3469 67.815 59.4935ZM70.8018 65.1295C70.6426 65.3067 70.4952 65.4958 70.386 65.7101C69.2163 65.7828 68.1269 66.4704 67.8782 67.6831C66.9019 71.6807 70.1084 75.9415 74.0622 76.522C75.2885 76.5207 76.0832 75.5659 76.6897 74.6654C77.8937 74.4525 79.0199 73.7278 79.6212 72.6421C81.2383 70.0951 80.0186 66.28 77.491 64.7685C75.7358 63.0573 72.2912 63.0864 70.8018 65.1295Z" fill="#181818"/>
<path d="M86.5263 60.2843C86.9907 59.1245 87.1697 61.8354 88.0473 61.0975C89.1775 59.992 90.9314 60.0727 92.1853 60.5553C91.9511 61.8381 92.8906 60.7749 93.3998 60.7775C93.4063 61.1927 93.2669 61.5895 93.1235 61.973C92.1301 62.6275 90.9077 62.7889 89.7433 62.6275C88.646 62.2705 87.6052 61.7111 86.8671 60.7987C86.7487 60.6281 86.6342 60.4575 86.5263 60.2843Z" fill="#C2AB16"/>
<path d="M34.0871 61.686C34.1529 61.5961 34.2226 61.5101 34.2976 61.4294C35.4673 61.5577 34.4713 62.7148 35.6423 62.8881C37.5423 63.6855 39.8211 65.4905 41.8185 63.9618C42.75 63.6379 40.6843 62.7968 41.8369 62.6593C44.7526 62.859 47.8577 64.6455 50.655 63.1975C54.6759 63.8904 58.7219 64.5305 62.731 65.2961C63.5507 65.7682 62.3126 66.5445 61.9336 66.8632C61.2297 67.7955 58.7614 66.8434 59.7179 68.4382C58.4653 68.7767 57.0956 68.7952 56.018 69.6363C55.147 69.9536 54.7496 71.2787 55.5365 71.8817C58.3903 74.4022 61.9349 75.919 65.3704 77.4556C68.2071 78.5241 71.061 79.7077 74.0793 80.0991C76.1371 80.6281 78.3279 80.4363 80.3383 79.7949C79.3923 81.4334 76.4832 81.0274 74.7648 80.7153C68.1532 79.1959 61.6415 76.723 56.068 72.7862C55.0601 72.2149 54.1483 70.8463 55.1299 69.8174C56.1917 68.9341 57.5245 68.454 58.8811 68.2861C59.3679 68.0811 58.335 67.4146 59.064 67.2771C60.3981 67.3644 61.927 66.9029 62.4954 65.5659C59.9363 65.0079 57.3351 64.6508 54.7562 64.1906C52.9076 64.0015 50.8326 62.9938 49.1353 64.1814C46.8486 64.0015 44.6013 63.3932 42.3342 63.0388C43.1974 64.2263 41.4027 64.4644 40.6132 64.8677C38.4751 64.992 36.6278 63.5466 34.741 62.7545C34.3305 62.4913 34.6147 61.8156 34.0871 61.686Z" fill="black" fill-opacity="0.44"/>
<path d="M70.8018 65.1295C72.2912 63.0864 75.7358 63.0573 77.491 64.7685C76.3858 64.1602 75.1806 63.6802 73.9004 63.7027C74.2135 63.9129 74.5398 64.1047 74.8569 64.3176C74.1477 64.3573 72.3754 64.7712 73.4767 65.6069C73.2385 66.8037 73.1478 68.0494 73.4083 69.2528C72.6004 68.2782 73.7017 65.9917 71.8465 66.0499C71.4846 65.7815 71.411 65.0952 70.8018 65.1295Z" fill="#A28E0C"/>
<path d="M73.9004 63.7027C75.1806 63.6802 76.3858 64.1602 77.491 64.7685C80.0186 66.28 81.2383 70.0951 79.6212 72.6421C78.5607 73.3892 80.0857 70.718 79.1291 71.5894C78.941 72.2004 77.4726 73.3191 77.6831 71.8301C76.8082 71.7733 76.0845 71.2139 75.2227 71.1121C74.4135 70.7352 73.753 70.0793 73.4083 69.2528C73.1478 68.0494 73.2385 66.8037 73.4767 65.6069C72.3754 64.7712 74.1477 64.3573 74.8569 64.3176C74.5398 64.1047 74.2135 63.9129 73.9004 63.7027ZM73.6898 66.891C72.9951 68.7119 74.5517 71.1729 76.5647 70.9759C76.6147 70.6479 76.2121 70.509 76.3819 70.1732C76.249 69.3929 75.6385 70.8291 75.7319 69.9431C74.849 70.115 73.753 69.4445 74.274 68.4236C74.903 67.8907 74.0425 67.0377 73.6898 66.891ZM75.6885 67.4503C74.2964 67.8881 76.4095 70.3742 76.8187 68.8468C76.7937 68.2663 76.3016 67.3895 75.6885 67.4503Z" fill="#59500B"/>
<path d="M70.8018 65.1295C71.411 65.0952 71.4846 65.7815 71.8465 66.0499C73.7017 65.9917 72.6004 68.2782 73.4083 69.2528C73.753 70.0793 74.4135 70.7352 75.2227 71.1121C76.7095 71.6371 75.8148 73.5466 76.17 74.6958C71.7333 75.2181 67.9926 69.5582 70.386 65.7101C70.4952 65.4958 70.6426 65.3067 70.8018 65.1295Z" fill="#DBC015"/>
<path d="M67.8782 67.6831C68.1269 66.4704 69.2163 65.7828 70.386 65.7101C67.9926 69.5582 71.7333 75.2181 76.17 74.6958C76.3424 74.6852 76.5161 74.6746 76.6897 74.6654C76.0832 75.5659 75.2885 76.5207 74.0622 76.522C70.1084 75.9415 66.9019 71.6807 67.8782 67.6831Z" fill="#323232"/>
<path d="M73.6898 66.891C74.0425 67.0377 74.903 67.8907 74.274 68.4236C73.753 69.4445 74.849 70.115 75.7319 69.9431C75.6385 70.8291 76.249 69.3929 76.3819 70.1732C76.2121 70.509 76.6147 70.6479 76.5647 70.9759C74.5517 71.1729 72.9951 68.7119 73.6898 66.891Z" fill="#A59009"/>
<path d="M76.8187 68.8468C76.7937 68.2663 76.3016 67.3895 75.6885 67.4503C74.2964 67.8881 76.4095 70.3742 76.8187 68.8468Z" fill="#BAA311"/>
<path d="M75.2227 71.1121C76.0845 71.2139 76.8082 71.7733 77.6831 71.8301C77.4726 73.3191 78.941 72.2004 79.1291 71.5894C80.0857 70.718 78.5607 73.3892 79.6212 72.6421C79.0199 73.7278 77.8937 74.4525 76.6897 74.6654C76.5161 74.6746 76.3424 74.6852 76.17 74.6958C75.8148 73.5466 76.7095 71.6371 75.2227 71.1121Z" fill="#A49217"/>
</svg>
