<svg width="500" height="325" viewBox="0 0 500 325" fill="none" xmlns="http://www.w3.org/2000/svg">
<path d="M213.48 2.41919C212.848 0.149557 219.27 -0.219778 218.025 2.40132C226.824 2.80639 237.362 1.41244 245.213 2.93148C235.461 2.74681 221.522 3.4021 213.48 2.41919Z" fill="#8A8B8A"/>
<path d="M167.968 2.53832C176.403 2.71703 184.797 1.13247 193.232 1.90688C198.414 2.55024 203.651 2.34175 208.863 2.36558C209.352 2.38345 210.329 2.43111 210.823 2.45493C192.892 5.45728 177.338 4.2063 158.693 4.01567C161.82 3.74165 164.9 3.18168 167.968 2.53832Z" fill="#B8BAB8"/>
<path d="M193.232 1.90688C198.176 2.10942 204.937 0.828668 208.863 2.36558C203.651 2.34175 198.414 2.55024 193.232 1.90688Z" fill="#6E6F6E"/>
<path d="M143.443 4.24801C151.241 2.80641 159.849 2.9017 167.968 2.53832C164.9 3.18168 161.82 3.74165 158.693 4.01567C157.114 4.05737 155.542 4.15865 153.975 4.31353C150.288 7.02994 150.174 13.0823 148.727 17.1331C142.103 17.8658 142.228 8.54303 143.443 4.24801Z" fill="#2B2D2F"/>
<path d="M210.823 2.45493C211.699 2.35366 212.592 2.306 213.48 2.41919C221.522 3.4021 235.461 2.74681 245.213 2.93148C248.126 2.9434 251.081 2.77065 253.994 3.09829C256.406 3.35444 258.849 3.55103 261.297 3.55103C263.412 3.50933 265.574 3.4438 267.695 3.69399C270.107 3.95014 272.55 4.11695 274.998 4.14673C276.63 4.15269 278.274 4.19439 279.924 4.27779C269.392 5.24878 258.813 5.6479 248.287 6.60103C243.551 10.3123 246.827 22.7446 238.201 20.1056C221.933 18.1755 205.199 21.7795 189.169 17.8956C186.066 15.5544 188.508 10.1097 185.815 7.53628C175.528 4.43863 164.257 7.02994 153.975 4.31353C155.542 4.15865 157.114 4.05737 158.693 4.01567C177.338 4.2063 192.892 5.45728 210.823 2.45493ZM201.286 8.94213C197.58 14.7205 201.024 21.2255 208.774 17.7824C210.603 11.7003 209.602 5.83852 201.286 8.94213ZM210.74 9.52593C206.534 17.7228 220.241 16.9484 218.448 9.51997C211.752 7.73286 217.65 10.1335 216.089 11.8849C214.099 17.6573 214.355 3.18169 213.474 12.8738C210.495 16.1442 213.355 8.39409 210.74 9.52593ZM219.717 9.5438C218.919 10.9914 217.018 15.4294 220.062 14.7086C222.284 15.3996 222.6 8.01284 219.717 9.5438ZM222.725 9.53784C218.466 16.5612 230.928 17.3177 229.671 10.2348C226.591 7.02398 225.001 11.6288 226.121 14.2856C224.101 13.3563 227.937 6.93462 222.725 9.53784ZM215.63 15.7629C213.629 16.5016 209.417 14.7383 209.447 17.7943C213.194 16.8114 217.59 18.7057 220.789 16.6744C221.671 18.1815 224.625 18.5389 223.75 16.1144C221.039 15.9834 218.329 15.6259 215.63 15.7629Z" fill="#EBEDEF"/>
<path d="M253.994 3.09829C255.703 3.84292 260.677 1.46607 261.297 3.55103C258.849 3.55103 256.406 3.35444 253.994 3.09829Z" fill="#7B7B7B"/>
<path d="M267.695 3.69399C269.398 4.43862 274.39 2.05581 274.998 4.14673C272.55 4.11695 270.107 3.95014 267.695 3.69399Z" fill="#7B7B7B"/>
<path d="M148.727 17.1331C150.174 13.0823 150.288 7.02994 153.975 4.31353C164.257 7.02994 175.528 4.43863 185.815 7.53628C188.508 10.1097 186.066 15.5544 189.169 17.8956C205.199 21.7795 221.933 18.1755 238.201 20.1056C208.339 20.7847 178.458 20.0341 148.727 17.1331Z" fill="#BBBFC2"/>
<path d="M279.924 4.27779C282.832 5.17134 296.324 1.5316 293.012 8.1439C297.218 8.42984 294.555 13.7733 295.311 16.6029C301.733 16.9186 308.536 16.0489 314.719 18.0147C316.816 21.2851 315.297 25.044 316.703 28.5587C316.382 33.6996 317.364 44.2376 310.18 44.6426C310.162 37.3393 309.99 30.0241 310.222 22.7327C311.592 19.9805 315.81 25.5086 314.833 21.4757C314.833 16.7161 307.416 17.2522 306.457 20.7966C300.137 17.5918 293.107 22.7267 286.346 22.7148C287.091 43.1296 288.628 63.5205 289.349 83.9412C296.705 82.2136 303.425 86.5563 309.37 89.791C311.253 82.6961 317.233 77.1263 324.715 76.4949C337.785 75.3988 348.138 85.6747 358.67 91.8164C354.59 91.4828 356.073 93.6511 357.789 95.4204C348.15 89.7135 339.066 82.023 327.968 79.247C320.128 76.7689 312.539 85.7998 313.79 93.3235C316.03 96.165 318.746 92.7278 321.129 91.9236C330.482 89.7076 339.507 97.9759 339.781 107.209C339.054 107.406 338.333 107.614 337.612 107.823C338.053 99.078 328.01 90.345 319.646 94.6043C314.904 96.1412 321.796 98.8695 323.643 100.502C320.867 101.824 320.712 102.968 323.232 104.91C320.957 104.243 312.438 95.9327 316.233 102.39C310.77 103.23 314.666 104.791 315.262 108.526C315.184 108.848 315.035 109.491 314.958 109.813C311.145 105.732 310.973 99.352 308.477 94.5328C302.847 90.9764 297.051 86.3359 290.057 86.4014C288.235 90.208 290.647 95.5395 290.695 99.775C299.535 100.674 306.004 107.966 307.261 116.484C306.427 116.741 305.605 117.003 304.789 117.283C304.998 109.574 298.54 103.724 291.588 101.896C289.152 101.526 290.433 104.815 289.903 106.215C288.812 98.7444 279.817 106.286 281.39 110.712C283.487 114.715 281.622 114.918 279.055 111.868C279.787 115.781 285.453 117.336 283.969 122.084C278.578 118.939 277.137 112.16 274.921 106.643C274.617 104.487 274.432 102.325 274.396 100.156C274.724 98.7384 275.046 97.3147 275.481 95.9267C273.008 86.5027 265.836 77.9246 260.445 69.5252C258.962 68.2563 258.259 66.9219 259.957 65.4267C265.914 73.159 271.299 81.326 276.511 89.5825C277.72 92.8529 280.222 88.4626 281.652 87.1639C281.783 86.9971 282.045 86.6635 282.176 86.4967C282.939 86.1989 283.707 85.9189 284.482 85.6508C286.048 85.0373 289.188 85.4781 287.311 82.2792C286.007 61.0007 285.28 39.6923 283.963 18.4257C283.85 14.4822 276.648 20.2069 279.18 14.2499C280.866 10.3361 277.202 9.74636 274.641 9.44255C274.718 12.6236 274.599 15.8166 274.784 18.9976C272.067 19.772 273.92 15.8463 273.723 14.1069C275.046 7.05973 261.779 10.9735 267.349 17.8122C268.576 21.4817 265.145 17.9015 263.286 18.5687C259.212 20.1056 248.745 17.0497 252.314 24.6211C252.832 26.5392 250.276 26.3724 249.925 27.8676C256.972 32.7286 252.469 43.1832 253.213 50.2184C253.195 51.9579 252.04 53.2803 250.616 54.1322C247.929 71.1633 251.492 91.6853 250.092 110.015C254.78 111.689 260.636 109.151 265.514 107.841C265.514 108.151 265.508 108.782 265.508 109.098C266.098 120.559 264.4 131.985 264.978 143.428C264.966 145.591 266.485 146.746 268.553 146.824C263.519 148.337 258.08 148.623 253.32 150.982C251.319 151.494 249.395 152.233 247.471 152.965C247.923 149.26 247.625 145.191 247.989 141.79L248.251 141.284C249.061 131.74 249.222 121.887 248.394 112.374C248.042 111.731 247.548 111.189 247.095 110.629C246.69 109.467 246.404 108.27 246.214 107.06C246.321 105.964 246.422 104.868 246.517 103.778C248.299 92.704 245.237 81.9158 246.875 70.9489C244.325 66.2607 250.771 54.716 242.139 54.8768C240.132 54.6624 238.088 53.0897 239.262 50.5877C239.333 41.5688 239.75 32.5141 237.695 23.7216C230.886 23.7692 224.077 23.7037 217.28 23.8526C216.881 33.8008 217.763 43.7908 216.768 53.7211C216.16 46.6799 217.382 39.5017 216.19 32.532C216.053 29.625 216.202 26.7239 215.922 23.8347C209.06 23.5011 202.179 24.1564 195.341 23.6084C193.982 22.9948 193.16 23.3641 193.262 24.9547C192.743 21.9106 185.744 20.8205 188.013 25.5623C188.532 51.7196 188.323 77.8888 189.229 104.04C188.579 104.273 187.948 104.535 187.328 104.838C186.161 107.984 186.888 112.106 187.162 115.662C186.423 115.513 185.69 115.382 184.952 115.269C173.454 113.137 162.053 110.396 150.532 108.359C150.341 118.861 151.336 129.334 151.205 139.83C157.519 141.093 162.357 142.6 168.528 143.97C165.514 144.828 162.505 145.71 159.515 146.657C157.001 147.181 154.011 143.69 156.286 141.695C153.892 141.033 151.515 141.73 149.263 142.535C147.422 129.649 148.888 116.568 147.506 103.647C147.011 93.9132 148.822 84.2152 148.012 74.4933C145.468 74.0525 142.895 73.8857 140.327 73.8082C130.016 73.3734 119.692 72.5811 109.428 71.491C114.581 70.7285 121.533 68.167 127.663 67.6547C130.558 67.3687 131.988 63.8839 131.422 61.3223C130.469 54.43 131.148 47.4425 130.099 40.5561C126.042 35.9573 125.208 29.3986 125.774 23.5369C125.655 21.3447 128.104 15.8047 130.671 19.1942C134.948 24.8057 143.89 28.3442 143.002 36.5768C145.707 46.9361 140.256 60.7028 148.649 68.6257C147.964 51.4634 149.746 34.1344 148.727 17.1331C178.458 20.0341 208.339 20.7847 238.201 20.1056C246.827 22.7446 243.551 10.3123 248.287 6.60103C258.813 5.6479 269.392 5.24878 279.924 4.27779ZM287.067 9.54977C285.828 11.873 285.756 15.1673 287.645 17.1688C292.547 18.8308 292.351 6.3568 287.067 9.54977ZM157.996 21.7736C156.209 30.8223 158.568 41.1399 157.668 50.5997C159.557 55.8716 153.492 59.1122 155.321 64.2413C155.154 61.4653 153.629 60.1607 151.062 59.5948C149.793 63.8541 154.797 65.8259 154.255 69.8588C152.009 72.6347 152.289 67.9168 150.562 67.0947C150.437 76.1434 150.454 85.1981 150.556 94.2469C151.431 92.6146 152.825 91.9474 154.547 92.8291C153.361 90.5297 155.125 89.8505 156.417 89.1178C154.779 95.0749 160.242 96.2246 164.739 95.8552C164.93 90.1186 164.757 84.376 164.793 78.6513C164.918 75.6668 164.823 72.6645 164.71 69.7039C166.139 53.6914 164.835 37.5657 165.949 21.5591C163.768 20.5167 159.241 18.9142 157.996 21.7736ZM154.219 20.9039C153.969 30.8283 154.773 43.7848 155.238 53.5424C154.922 43.8742 155.983 34.1881 155.452 24.5794C156.292 22.3931 157.18 19.8435 154.219 20.9039ZM166.64 21.4043C166.789 37.4704 165.46 53.4769 166.032 69.5609C170.375 70.3115 174.95 69.8528 179.209 70.6868C173.866 70.5736 180.061 72.5334 179.096 75.5715C175.796 79.2947 162.613 74.4516 165.49 83.2382C165.287 87.5988 165.317 91.9772 165.442 96.3556C168.063 96.719 170.708 96.9037 173.341 97.2432C174.545 98.4227 180.073 98.244 182.587 97.5828C183.373 88.9391 180.341 80.7303 180.895 72.0331C182.378 70.657 180.799 66.779 182.628 64.7893C183.701 52.7204 183.647 35.2603 182.652 23.3522C177.446 22.0178 171.989 21.6723 166.64 21.4043ZM281.664 98.0713C280.127 102.497 288.133 102.307 285.167 99.3639C285.22 96.165 284.988 92.972 284.386 89.8386C282.248 91.6436 278.602 95.4263 281.664 98.0713ZM157.704 96.034C157.436 98.1606 157.228 100.299 157.091 102.45C159.134 102.575 161.767 101.044 160.647 98.4466C165.371 97.7555 170.661 100.013 175.087 98.4227C169.344 97.3028 163.524 96.5999 157.704 96.034ZM276.934 99.0363C275.844 102.426 276.362 106.911 278.626 109.646C277.607 106.256 277.405 101.121 276.934 99.0363Z" fill="#363736"/>
<path d="M208.774 17.7824C210.603 11.7003 209.602 5.83852 201.286 8.94213C197.58 14.7205 201.024 21.2255 208.774 17.7824Z" fill="#A4C28A"/>
<path d="M210.74 9.52593C213.355 8.39409 210.495 16.1442 213.474 12.8738C214.355 3.18169 214.099 17.6573 216.089 11.8849C217.65 10.1335 211.752 7.73286 218.448 9.51997C220.241 16.9484 206.534 17.7228 210.74 9.52593Z" fill="#434649"/>
<path d="M220.062 14.7086C222.284 15.3996 222.6 8.01284 219.717 9.5438C218.919 10.9914 217.018 15.4294 220.062 14.7086Z" fill="#393C3F"/>
<path d="M222.725 9.53784C227.937 6.93462 224.101 13.3563 226.121 14.2856C225.001 11.6288 226.591 7.02398 229.671 10.2348C230.928 17.3177 218.466 16.5612 222.725 9.53784Z" fill="#484B4E"/>
<path d="M274.641 9.44255C277.202 9.74636 280.866 10.3361 279.18 14.2499C276.648 20.2069 283.85 14.4822 283.963 18.4257C285.28 39.6923 286.007 61.0007 287.311 82.2792C289.188 85.4781 286.048 85.0373 284.482 85.6508C283.91 76.8523 283.844 67.9942 283.064 59.2314C281.694 58.5463 280.985 60.6015 280.532 61.5785C280.77 69.8766 280.687 78.3058 282.176 86.4967C282.045 86.6635 281.783 86.9971 281.652 87.1639C278.399 80.1346 280.133 71.8484 279.174 64.3187C278.394 61.2449 280.717 59.285 282.593 57.4502C282.957 45.84 281.015 34.3012 280.848 22.6969C271.191 21.988 261.97 24.1802 252.314 24.6211C248.745 17.0497 259.212 20.1056 263.286 18.5687C265.145 17.9015 268.576 21.4817 267.349 17.8122C270.578 18.1636 274.498 18.67 273.723 14.1069C273.92 15.8463 272.067 19.772 274.784 18.9976C274.599 15.8166 274.718 12.6236 274.641 9.44255Z" fill="#51534F"/>
<path d="M287.645 17.1688C292.547 18.8308 292.351 6.3568 287.067 9.54977C285.828 11.873 285.756 15.1673 287.645 17.1688Z" fill="#75786A"/>
<path d="M273.723 14.1069C275.046 7.05973 261.779 10.9735 267.349 17.8122C270.578 18.1636 274.498 18.67 273.723 14.1069Z" fill="#ADACA1"/>
<path d="M215.63 15.7629C218.329 15.6259 221.039 15.9834 223.75 16.1144C224.625 18.5389 221.671 18.1815 220.789 16.6744C217.59 18.7057 213.194 16.8114 209.447 17.7943C209.417 14.7383 213.629 16.5016 215.63 15.7629Z" fill="#A5B89A"/>
<path d="M157.996 21.7736C159.241 18.9142 163.768 20.5167 165.949 21.5591C164.835 37.5657 166.139 53.6914 164.71 69.7039C159.783 70.1447 156 69.3881 155.321 64.2413C153.492 59.1122 159.557 55.8716 157.668 50.5997C158.568 41.1399 156.209 30.8223 157.996 21.7736Z" fill="#0B0B0A"/>
<path d="M154.219 20.9039C157.18 19.8435 156.292 22.3931 155.452 24.5794C155.983 34.1881 154.922 43.8742 155.238 53.5424C154.773 43.7848 153.969 30.8283 154.219 20.9039Z" fill="#1D1D1B"/>
<path d="M166.64 21.4043C171.989 21.6723 177.446 22.0178 182.652 23.3522C182.646 37.1606 182.718 50.975 182.628 64.7893C180.799 66.779 182.378 70.657 180.895 72.0331C180.347 71.5565 179.817 71.068 179.209 70.6868C174.95 69.8528 170.375 70.3115 166.032 69.5609C165.46 53.4769 166.789 37.4704 166.64 21.4043Z" fill="#0C0C0C"/>
<path d="M276.922 200.193C279.913 199.192 277.315 202.456 276.684 203.683C274.873 203.26 276.237 201.122 276.922 200.193Z" fill="#0C0C0C"/>
<path d="M252.314 24.6211C261.97 24.1802 271.191 21.988 280.848 22.6969C281.015 34.3012 282.957 45.84 282.593 57.4502C280.717 59.285 278.394 61.2449 279.174 64.3187C280.133 71.8484 278.399 80.1346 281.652 87.1639C280.222 88.4626 277.72 92.8529 276.511 89.5825C271.299 81.326 265.914 73.159 259.957 65.4267C260.01 57.3847 258.962 48.2824 257.079 41.0744C255.268 51.8447 260.356 66.6717 257.282 77.9305C255.781 79.1577 253.523 79.5568 251.867 78.4249C250.306 70.4127 251.92 62.1623 250.616 54.1322C252.04 53.2803 253.195 51.9579 253.213 50.2184C252.469 43.1832 256.972 32.7286 249.925 27.8676C250.276 26.3724 252.832 26.5392 252.314 24.6211Z" fill="#0D0E0D"/>
<path d="M188.013 25.5623C185.744 20.8205 192.743 21.9106 193.262 24.9547C193.16 23.3641 193.982 22.9948 195.341 23.6084C195.198 29.1544 194.989 34.7182 195.21 40.2761C204.175 37.7384 208.488 50.1827 201.619 55.2402C200.541 55.4785 199.457 55.7048 198.408 56.0444C200.13 66.4275 202.698 76.6378 204.943 86.9137C208.345 87.1699 209.679 82.0647 213.605 83.125C214.123 80.772 212.866 78.7824 211.967 76.7749C212.914 76.7093 214.814 76.5842 215.761 76.5187C216.5 61.8763 215.618 47.1863 216.19 32.532C217.382 39.5017 216.16 46.6799 216.768 53.7211C216.607 61.1674 216.429 68.6375 216.703 76.0838C220.795 77.6684 225.567 76.8165 229.141 75.6132C228.426 72.7122 231.905 68.4708 231.69 74.2789C231.756 77.9603 236.528 76.3162 237.701 74.0465C247.268 74.1954 241.954 61.4534 242.139 54.8768C250.771 54.716 244.325 66.2607 246.875 70.9489C245.237 81.9158 248.299 92.704 246.517 103.778C243.533 102.485 242.491 99.5248 242.508 96.3914C242.753 93.2758 242.961 90.1543 242.806 87.0448C236.873 87.3009 229.48 85.6091 225.972 91.7806C229.278 93.1984 233.245 93.2222 235.968 95.9148C232.501 97.2015 229.123 95.8195 225.727 95.2476C226.972 100.103 221.945 108.162 231.345 104.832C229.778 110.378 238.779 108.168 241.371 109.288C243.95 110.081 246.315 109.979 246.214 107.06C246.404 108.27 246.69 109.467 247.095 110.629C227.753 109.318 208.494 106.352 189.229 104.04C188.323 77.8888 188.532 51.7196 188.013 25.5623ZM240.018 74.3325C240.483 76.3519 240.555 78.3833 240.543 80.4623C244.23 80.6052 244.021 73.2244 240.018 74.3325ZM197.163 88.3494C190.897 89.5289 190.408 100.025 198.766 97.0407C198.504 94.1396 196.752 90.2735 197.163 88.3494ZM214.183 91.0479C213.641 93.3175 214.755 95.2417 217.28 94.8008C209.566 97.0049 224.608 106 222.415 97.4577C220.962 94.1396 224.333 95.3429 225.126 92.7874C223.088 89.2846 216.81 88.3255 214.183 91.0479Z" fill="#4E5150"/>
<path d="M182.628 64.7893C183.701 52.7204 183.647 35.2603 182.652 23.3522C182.646 37.1606 182.718 50.975 182.628 64.7893Z" fill="#1C1D1B"/>
<path d="M195.341 23.6084C202.179 24.1564 209.06 23.5011 215.922 23.8347C216.202 26.7239 216.053 29.625 216.19 32.532C215.618 47.1863 216.5 61.8763 215.761 76.5187C214.814 76.5842 212.914 76.7093 211.967 76.7749C207.517 70.0375 205.134 62.329 201.619 55.2402C208.488 50.1827 204.175 37.7384 195.21 40.2761C194.989 34.7182 195.198 29.1544 195.341 23.6084Z" fill="#0C0D0D"/>
<path d="M217.28 23.8526C224.077 23.7037 230.886 23.7692 237.695 23.7216C239.75 32.5141 239.333 41.5688 239.262 50.5877C238.088 53.0897 240.132 54.6624 242.139 54.8768C241.954 61.4534 247.268 74.1954 237.701 74.0465C236.528 76.3162 231.756 77.9603 231.69 74.2789C231.905 68.4708 228.426 72.7122 229.141 75.6132C225.567 76.8165 220.795 77.6684 216.703 76.0838C216.429 68.6375 216.607 61.1674 216.768 53.7211C217.763 43.7908 216.881 33.8008 217.28 23.8526Z" fill="#0B0C0B"/>
<path d="M257.282 77.9305C260.356 66.6717 255.268 51.8447 257.079 41.0744C258.962 48.2824 260.01 57.3847 259.957 65.4267C258.259 66.9219 258.962 68.2563 260.445 69.5252C260.242 72.7062 260.582 75.8932 260.814 79.0743C258.551 70.8 261.648 81.7251 257.282 77.9305Z" fill="#202020"/>
<path d="M250.092 110.015C251.492 91.6853 247.929 71.1633 250.616 54.1322C251.92 62.1623 250.306 70.4127 251.867 78.4249C253.523 79.5568 255.781 79.1577 257.282 77.9305C261.648 81.7251 258.551 70.8 260.814 79.0743C264.156 79.4258 265.336 81.9456 261.91 83.4706C260.612 91.4113 270.477 91.6436 275.481 95.9267C275.046 97.3147 274.724 98.7384 274.396 100.156C270.828 100.365 266.426 102.015 265.926 106.042C265.783 106.637 265.645 107.233 265.514 107.841C260.636 109.151 254.78 111.689 250.092 110.015ZM254.75 83.3753C263.799 80.8138 254.422 88.8736 254.75 83.3753ZM260.219 89.8804C260.07 94.4375 259.915 89.5587 257.103 90.4761C257.955 94.9974 263.519 91.4709 266.08 94.0979C267.409 95.1762 273.342 99.5009 273.717 96.0042C269.5 93.5141 264.972 91.0658 260.219 89.8804Z" fill="#565958"/>
<path d="M198.408 56.0444C199.457 55.7048 200.541 55.4785 201.619 55.2402C205.134 62.329 207.517 70.0375 211.967 76.7749C212.866 78.7824 214.123 80.772 213.605 83.125C209.679 82.0647 208.345 87.1699 204.943 86.9137C202.698 76.6378 200.13 66.4275 198.408 56.0444Z" fill="#7D7F7F"/>
<path d="M280.532 61.5785C280.985 60.6015 281.694 58.5463 283.064 59.2314C283.844 67.9942 283.91 76.8523 284.482 85.6508C283.707 85.9189 282.939 86.1989 282.176 86.4967C280.687 78.3058 280.77 69.8766 280.532 61.5785Z" fill="#0E0E0E"/>
<path d="M151.062 59.5948C153.629 60.1607 155.154 61.4653 155.321 64.2413C156 69.3881 159.783 70.1447 164.71 69.7039C164.823 72.6645 164.918 75.6668 164.793 78.6513C157.96 77.0727 152.063 83.828 156.417 89.1178C155.125 89.8505 153.361 90.5297 154.547 92.8291C152.825 91.9474 151.431 92.6146 150.556 94.2469C150.454 85.1981 150.437 76.1434 150.562 67.0947C152.289 67.9168 152.009 72.6347 154.255 69.8588C154.797 65.8259 149.793 63.8541 151.062 59.5948Z" fill="#4E4F49"/>
<path d="M260.814 79.0743C260.582 75.8932 260.242 72.7062 260.445 69.5252C265.836 77.9246 273.008 86.5027 275.481 95.9267C270.477 91.6436 260.612 91.4113 261.91 83.4706C265.336 81.9456 264.156 79.4258 260.814 79.0743Z" fill="#0E0F0E"/>
<path d="M179.096 75.5715C180.061 72.5334 173.866 70.5736 179.209 70.6868C179.817 71.068 180.347 71.5565 180.895 72.0331C180.341 80.7303 183.373 88.9391 182.587 97.5828C180.073 98.244 174.545 98.4227 173.341 97.2432C175.784 92.1738 168.057 87.5213 165.49 83.2382C162.613 74.4516 175.796 79.2947 179.096 75.5715Z" fill="#8A8E8C"/>
<path d="M81.9068 78.0616C90.6637 74.3206 99.5098 69.5907 109.428 71.491C119.692 72.5811 130.016 73.3734 140.327 73.8082C147.446 82.3447 146.797 93.1388 146.964 103.582C147.535 108.371 145.331 105.506 144.914 102.581C145.171 98.3929 144.873 94.1873 144.396 90.0352C125.679 87.7358 106.634 87.8609 88.0366 85.0551C84.4445 84.4058 84.5756 79.938 81.9068 78.0616Z" fill="#D7DCE0"/>
<path d="M140.327 73.8082C142.895 73.8857 145.468 74.0525 148.012 74.4933C148.822 84.2152 147.011 93.9132 147.506 103.647L146.964 103.582C146.797 93.1388 147.446 82.3447 140.327 73.8082Z" fill="#80878E"/>
<path d="M240.543 80.4623C244.23 80.6052 244.021 73.2244 240.018 74.3325C240.483 76.3519 240.555 78.3833 240.543 80.4623Z" fill="#191A19"/>
<path d="M59.9611 90.4403C64.7685 83.1132 74.2818 81.2724 81.9068 78.0616C84.5756 79.938 84.4445 84.4058 88.0366 85.0551C106.634 87.8609 125.679 87.7358 144.396 90.0352C144.873 94.1873 145.171 98.3929 144.914 102.581C144.104 100.377 143.628 98.0772 143.669 95.7421C141.793 96.6356 140.536 99.4712 138.189 98.6848C122.903 95.8254 108.13 90.619 92.832 88.2898C83.4199 90.4641 74.9192 95.48 65.942 98.8993C62.9456 96.9156 64.8519 91.0062 59.9611 90.4403Z" fill="#BBBFC0"/>
<path d="M156.417 89.1178C152.063 83.828 157.96 77.0727 164.793 78.6513C164.757 84.376 164.93 90.1186 164.739 95.8552C160.242 96.2246 154.779 95.0749 156.417 89.1178Z" fill="#A2A5A2"/>
<path d="M41.5539 160.132C44.0737 162.902 46.528 165.725 48.8453 168.68C48.053 170.664 47.2012 172.629 46.2421 174.542C38.9269 174.548 42.793 164.915 41.5539 160.132Z" fill="#A2A5A2"/>
<path d="M351.862 174.226C353.541 172.391 354.929 170.312 356.586 168.46C361.84 169.913 356.246 175.298 355.305 178.211C354.858 175.805 351.742 176.555 351.862 174.226Z" fill="#A2A5A2"/>
<path d="M165.49 83.2382C168.057 87.5213 175.784 92.1738 173.341 97.2432C170.708 96.9037 168.063 96.719 165.442 96.3556C165.317 91.9772 165.287 87.5988 165.49 83.2382Z" fill="#CFD2D0"/>
<path d="M254.75 83.3753C263.799 80.8138 254.422 88.8736 254.75 83.3753Z" fill="#1E1E1D"/>
<path d="M225.972 91.7806C229.48 85.6091 236.873 87.3009 242.806 87.0448C242.961 90.1543 242.753 93.2758 242.508 96.3914C240.328 96.1292 238.148 95.9684 235.968 95.9148C233.245 93.2222 229.278 93.1984 225.972 91.7806Z" fill="#0E0F0E"/>
<path d="M65.942 98.8993C74.9192 95.48 83.4199 90.4641 92.832 88.2898C108.13 90.619 122.903 95.8254 138.189 98.6848C140.536 99.4712 141.793 96.6356 143.669 95.7421C143.628 98.0772 144.104 100.377 144.914 102.581C145.331 105.506 147.535 108.371 146.964 103.582L147.506 103.647C148.888 116.568 147.422 129.649 149.263 142.535C149.567 144.095 149.823 145.668 149.835 147.264C140.03 140.003 127.687 136.452 115.528 137.126C104.174 139.085 92.9095 141.724 81.8175 144.828C75.9617 145.608 70.8446 148.623 65.4535 150.803C64.3455 134.159 63.5771 117.491 62.7014 100.841C61.7721 97.8687 59.9492 95.2595 59.1212 92.2453C59.3476 91.6138 59.6275 91.0122 59.9611 90.4403C64.8519 91.0062 62.9456 96.9156 65.942 98.8993ZM86.3627 94.2707C80.2567 97.5113 72.4411 99.2508 67.6576 104.106C70.2251 103.188 69.957 109.95 70.2608 103.218C72.6258 99.2865 77.2246 103.087 77.7369 100.085C77.9454 104.767 78.7437 96.2543 80.8107 100.061C82.4489 97.4755 85.6895 97.0645 88.4179 96.4807C88.954 98.3393 90.896 101.479 88.0068 101.806C88.2928 96.9215 85.1594 102.164 88.8825 102.748C91.873 104.743 86.1125 106.9 88.3702 108.288C90.0322 103.349 89.4723 112.017 89.1268 113.22C91.593 109.836 89.6212 116.026 89.9369 117.831C88.4655 123.52 92.558 128.81 89.9012 134.064C88.7991 128.988 88.8647 137.525 92.1112 137.018C91.0509 123.001 90.6339 108.931 90.2288 94.8723C89.4425 93.1627 87.7269 93.5797 86.3627 94.2707ZM65.9301 104.243C66.5913 117.986 67.2942 131.806 68.0389 145.531C68.0746 146.949 70.0821 146.764 70.6123 145.757C68.1104 132.199 68.8669 117.938 67.6576 104.106C67.2287 104.141 66.3649 104.213 65.9301 104.243ZM92.6712 120.392C92.6176 124.479 92.6414 128.613 93.386 132.664C96.5194 133.128 99.6826 133.492 102.858 133.39C102.429 129.459 102.089 125.509 102.173 121.554C99.0095 120.791 95.751 121.697 92.6712 120.392Z" fill="#AEB0AE"/>
<path d="M198.766 97.0407C198.504 94.1396 196.752 90.2735 197.163 88.3494C190.897 89.5289 190.408 100.025 198.766 97.0407Z" fill="#121212"/>
<path d="M225.126 92.7874C223.088 89.2846 216.81 88.3255 214.183 91.0479C217.858 91.3874 221.51 91.9832 225.126 92.7874Z" fill="#1C1D1D"/>
<path d="M260.219 89.8804C264.972 91.0658 269.5 93.5141 273.717 96.0042C273.342 99.5009 267.409 95.1762 266.08 94.0979C263.519 91.4709 257.955 94.9974 257.103 90.4761C259.915 89.5587 260.07 94.4375 260.219 89.8804Z" fill="#131413"/>
<path d="M281.664 98.0713C278.602 95.4263 282.248 91.6436 284.386 89.8386C284.988 92.972 285.22 96.165 285.167 99.3639C284.017 98.8814 282.837 98.4644 281.664 98.0713Z" fill="#0E0E0E"/>
<path d="M214.183 91.0479C217.858 91.3874 221.51 91.9832 225.126 92.7874C224.333 95.3429 220.962 94.1396 222.415 97.4577C224.608 106 209.566 97.0049 217.28 94.8008C214.755 95.2417 213.641 93.3175 214.183 91.0479Z" fill="#787B7C"/>
<path d="M357.789 95.4204C356.073 93.6511 354.59 91.4828 358.67 91.8164C361.786 92.6921 363.222 96.7548 365.491 98.8993C386.228 112.237 406.297 126.647 427.284 139.568C430.286 140.622 430.542 145.019 428.398 146.907C427.802 146.347 427.325 145.704 426.879 145.036C427.266 144.339 428.904 143.476 427.581 142.898C406.779 126.838 383.279 114.28 362.703 98.0713C360.154 93.3533 359.326 95.2 358.962 99.1673C358.117 98.5418 356.222 98.3572 357.169 96.9871C357.396 96.4688 357.604 95.9505 357.789 95.4204Z" fill="#696E6D"/>
<path d="M57.1673 99.1495C57.483 96.7905 57.7809 94.2826 59.1212 92.2453C59.9492 95.2595 61.7721 97.8687 62.7014 100.841C63.5771 117.491 64.3455 134.159 65.4535 150.803C64.0536 151.881 62.6954 153.025 61.2359 154.032C60.9143 153.948 60.2649 153.781 59.9433 153.698C59.6573 135.499 57.6855 117.33 57.1673 99.1495Z" fill="#878A86"/>
<path d="M86.3627 94.2707C87.7269 93.5797 89.4425 93.1627 90.2288 94.8723C90.6339 108.931 91.0509 123.001 92.1112 137.018C88.8647 137.525 88.7991 128.988 89.9012 134.064C92.558 128.81 88.4655 123.52 89.9369 117.831C89.6212 116.026 91.593 109.836 89.1268 113.22C89.4723 112.017 90.0322 103.349 88.3702 108.288C86.1125 106.9 91.873 104.743 88.8825 102.748C85.1594 102.164 88.2928 96.9215 88.0068 101.806C90.896 101.479 88.954 98.3393 88.4179 96.4807C85.6895 97.0645 82.4489 97.4755 80.8107 100.061C78.7437 96.2543 77.9454 104.767 77.7369 100.085C77.2246 103.087 72.6258 99.2865 70.2608 103.218C69.957 109.95 70.2251 103.188 67.6576 104.106C72.4411 99.2508 80.2567 97.5113 86.3627 94.2707Z" fill="#8C8E88"/>
<path d="M358.962 99.1673C359.326 95.2 360.154 93.3533 362.703 98.0713C383.279 114.28 406.779 126.838 427.581 142.898C428.904 143.476 427.266 144.339 426.879 145.036C425.282 146.71 423.614 143.267 422.089 142.999C401.228 128.154 379.193 114.733 358.962 99.1673Z" fill="#040303"/>
<path d="M225.727 95.2476C229.123 95.8195 232.501 97.2015 235.968 95.9148C238.148 95.9684 240.328 96.1292 242.508 96.3914C242.491 99.5248 243.533 102.485 246.517 103.778C246.422 104.868 246.321 105.964 246.214 107.06C246.315 109.979 243.95 110.081 241.371 109.288C238.779 108.168 229.778 110.378 231.345 104.832C221.945 108.162 226.972 100.103 225.727 95.2476Z" fill="#6A6D6D"/>
<path d="M157.704 96.034C163.524 96.5999 169.344 97.3028 175.087 98.4227C170.661 100.013 165.371 97.7555 160.647 98.4466C161.767 101.044 159.134 102.575 157.091 102.45C157.228 100.299 157.436 98.1606 157.704 96.034Z" fill="#989B99"/>
<path d="M351.725 98.0295C353.512 97.5232 355.305 97.2254 357.169 96.9871C356.222 98.3572 358.117 98.5418 358.962 99.1673C379.193 114.733 401.228 128.154 422.089 142.999C423.614 143.267 425.282 146.71 426.879 145.036C427.325 145.704 427.802 146.347 428.398 146.907C429.196 148.289 433.437 149.766 431.382 151.131C430.483 151.619 429.649 152.25 429.071 153.108C433.503 156.861 438.62 159.709 443.195 163.277C443.01 163.599 442.629 164.242 442.438 164.564C437.828 161.68 433.336 158.607 428.868 155.521C426.813 150.249 420.701 148.813 416.686 145.394C395.807 131.091 373.509 115.537 353.142 102.247C352.279 100.996 352.207 99.4175 351.725 98.0295Z" fill="#343739"/>
<path d="M285.167 99.3639C284.017 98.8814 282.837 98.4644 281.664 98.0713C280.127 102.497 288.133 102.307 285.167 99.3639Z" fill="#E1E2E1"/>
<path d="M343.438 115.269C346.923 110.152 344.582 99.632 351.725 98.0295C352.207 99.4175 352.279 100.996 353.142 102.247C373.509 115.537 395.807 131.091 416.686 145.394C420.701 148.813 426.813 150.249 428.868 155.521C428.004 155.848 427.063 157.094 426.188 156.182C420.475 152.209 414.81 148.164 408.853 144.56C403.575 141.468 398.678 134.219 392 135.041C391.809 133.432 391.601 131.949 390.106 131.258C386.472 128.845 382.868 126.403 379.312 123.895C378.662 123.389 378.019 122.882 377.37 122.4C376.244 121.405 374.874 120.827 373.426 120.547C372.169 119.296 370.841 118.111 369.363 117.164C366.224 114.834 363.049 112.523 359.63 110.635C359.451 115.889 360.446 121.131 360.041 126.391C354.453 122.769 348.925 119.034 343.438 115.269Z" fill="#222320"/>
<path d="M278.626 109.646C277.607 106.256 277.405 101.121 276.934 99.0363C275.844 102.426 276.362 106.911 278.626 109.646Z" fill="#A7A8A8"/>
<path d="M316.233 102.39C312.438 95.9327 320.957 104.243 323.232 104.91C323.357 105.178 323.607 105.708 323.727 105.97C322.339 106.268 320.998 106.739 319.628 107.096C318.347 105.643 317.317 103.993 316.233 102.39Z" fill="#080807"/>
<path d="M265.926 106.042C266.426 102.015 270.828 100.365 274.396 100.156C274.432 102.325 274.617 104.487 274.921 106.643C272.389 103.486 268.833 107.263 265.926 106.042Z" fill="#E2E5E9"/>
<path d="M323.643 100.502C326.05 101.103 326.854 103.671 327.807 105.655C331.9 107.001 335.253 109.693 338.84 111.999C338.44 110.599 337.827 109.265 337.612 107.823C338.333 107.614 339.054 107.406 339.781 107.209C339.87 110.402 339.894 114.09 343.438 115.269C348.925 119.034 354.453 122.769 360.041 126.391C361.393 127.463 362.823 128.434 364.258 129.405C366.867 131.276 369.28 133.813 372.568 134.451C373.39 135.505 374.355 136.446 375.529 137.12C382.368 141.456 388.861 146.335 395.705 150.66C398.767 151.518 400.876 153.656 402.318 156.432C401.478 157.177 401.061 158.231 400.602 159.232C399.595 158.994 398.589 158.761 397.629 158.41C398.273 157.558 399.947 156.951 399.393 155.682C388.217 147.908 377.167 139.014 365.068 133.087C358.784 126.754 351.439 121.721 343.659 117.271C343.164 118.2 342.777 119.189 342.295 120.124C337.577 116.991 332.626 114.143 328.403 110.337C330.095 110.39 331.769 110.605 333.454 110.76C331.56 109.032 329.13 107.233 326.413 107.775C325.234 107.686 324.394 106.87 323.727 105.97C323.607 105.708 323.357 105.178 323.232 104.91C320.712 102.968 320.867 101.824 323.643 100.502Z" fill="#727775"/>
<path d="M281.39 110.712C279.817 106.286 288.812 98.7444 289.903 106.215C291.326 110.587 294.126 114.489 294.847 119.082C286.841 125.611 286.573 114.024 281.39 110.712Z" fill="#F5F5F6"/>
<path d="M315.262 108.526C314.666 104.791 310.77 103.23 316.233 102.39C317.317 103.993 318.347 105.643 319.628 107.096C317.537 107.078 317.055 104.124 314.892 104.046C315.667 105.261 316.596 106.375 317.555 107.454C316.787 107.799 316.018 108.157 315.262 108.526Z" fill="#8E9396"/>
<path d="M65.9301 104.243C66.3649 104.213 67.2287 104.141 67.6576 104.106C68.8669 117.938 68.1104 132.199 70.6123 145.757C70.0821 146.764 68.0746 146.949 68.0389 145.531C67.2942 131.806 66.5913 117.986 65.9301 104.243Z" fill="#D3D6D4"/>
<path d="M187.328 104.838C187.948 104.535 188.579 104.273 189.229 104.04C208.494 106.352 227.753 109.318 247.095 110.629C247.548 111.189 248.042 111.731 248.394 112.374C248.007 122.007 248.233 131.645 248.251 141.284L247.989 141.79C246.136 141.444 244.617 140.116 242.723 139.967C234.079 139.979 225.412 139.538 216.798 139.157C206.987 131.907 198.635 122.769 189.407 114.763C188.145 111.623 188.567 108.019 187.328 104.838ZM198.951 109.658C198.528 110.11 197.044 110.915 197.926 111.552C212.55 119.886 231.524 122.906 243.378 134.635C243.521 128.124 243.467 121.602 243.342 115.096C228.676 112.684 213.772 110.962 198.951 109.658Z" fill="#DEE1E2"/>
<path d="M314.892 104.046C317.055 104.124 317.537 107.078 319.628 107.096C320.998 106.739 322.339 106.268 323.727 105.97C324.394 106.87 325.234 107.686 326.413 107.775C326.812 108.812 327.301 109.884 328.403 110.337C332.626 114.143 337.577 116.991 342.295 120.124C342.777 119.189 343.164 118.2 343.659 117.271C351.439 121.721 358.784 126.754 365.068 133.087C365.015 134.087 363.8 135.583 365.14 136.166C376.131 143.315 386.371 151.69 397.629 158.41C398.589 158.761 399.595 158.994 400.602 159.232C399.506 161.811 404.355 161.543 403.557 164.23C402.353 164.909 399.297 166.518 401.502 167.757C406.267 170.985 411.223 173.988 415.697 177.627C413.85 181.631 409.567 173.922 406.869 173.666C402.937 171.569 400.227 168.71 398.142 165.141C373.718 148.069 349.366 130.829 324.769 114.03C322.607 114.394 321.594 113.363 321.064 111.326C319.575 114.066 315 111.463 317.466 109.139C317.907 108.52 318.776 107.769 317.555 107.454C316.596 106.375 315.667 105.261 314.892 104.046Z" fill="#343637"/>
<path d="M187.162 115.662C186.888 112.106 186.161 107.984 187.328 104.838C188.567 108.019 188.145 111.623 189.407 114.763C198.635 122.769 206.987 131.907 216.798 139.157C225.412 139.538 234.079 139.979 242.723 139.967C244.039 141.045 246.124 141.671 246.529 143.506C235.7 142.981 224.756 142.713 214.016 141.933C206.379 135.797 199.517 128.684 192.356 121.959C190.593 119.88 187.465 118.665 187.162 115.662Z" fill="#72746B"/>
<path d="M265.926 106.042C268.833 107.263 272.389 103.486 274.921 106.643C277.137 112.16 278.578 118.939 283.969 122.084C285.453 117.336 279.787 115.781 279.055 111.868C281.622 114.918 283.487 114.715 281.39 110.712C286.573 114.024 286.841 125.611 294.847 119.082C295.341 120.076 296.42 120.214 297.408 120.404C296.622 123.728 298.445 126.784 301.036 128.768C309.495 137.209 320.534 144.643 322.601 157.32C319.259 160.835 314.285 160.9 309.954 161.794C305.296 166.285 298.665 167.363 292.887 169.889C292.964 165.475 300.482 162.884 297.885 158.547C299.773 158.059 301.596 157.332 303.103 156.057C302.079 163.521 309.745 156.611 308.465 152.346C308.709 152.304 309.203 152.221 309.448 152.179C314.422 152.036 311.247 143.905 311.848 140.664C306.07 138.752 299.63 139.407 294.329 142.374C296.95 143.75 300.071 143.154 302.907 143.708C303.038 147.014 302.96 150.332 303.103 153.656C300.274 154.443 292.351 149.844 294.978 154.049C290.939 158.708 288.378 167.649 280.717 165.32C278.691 164.861 277.327 166.738 275.665 167.512C275.373 156.194 275.82 144.864 275.522 133.545C269.5 135.213 268.844 127.898 267.26 123.937C270.232 121.518 273.413 124.58 275.761 126.153C276.714 118.945 263.924 125.557 266.027 117.295C262.298 110.885 272.794 112.833 269.005 108.395C268.457 106.197 266.676 108.687 265.508 109.098C265.508 108.782 265.514 108.151 265.514 107.841C265.645 107.233 265.783 106.637 265.926 106.042Z" fill="#B1B3B2"/>
<path d="M265.508 109.098C266.676 108.687 268.457 106.197 269.005 108.395C272.794 112.833 262.298 110.885 266.027 117.295C263.924 125.557 276.714 118.945 275.761 126.153C273.413 124.58 270.232 121.518 267.26 123.937C268.844 127.898 269.5 135.213 275.522 133.545C275.82 144.864 275.373 156.194 275.665 167.512C277.327 166.738 278.691 164.861 280.717 165.32C288.378 167.649 290.939 158.708 294.978 154.049C292.351 149.844 300.274 154.443 303.103 153.656C303.3 154.449 303.294 155.259 303.103 156.057C301.596 157.332 299.773 158.059 297.885 158.547C300.482 162.884 292.964 165.475 292.887 169.889C291.237 170.664 289.545 171.343 287.907 172.135C284.035 173.076 280.544 175.102 276.726 176.144C272.764 175.566 268.97 173.874 264.931 173.91C263.751 177.067 267.153 182.947 263.203 184.645C263.15 181.291 263.173 177.943 263.001 174.613C259.718 174.375 256.192 173.183 253.052 174.697C252.886 177.955 252.772 181.249 253.011 184.532C256.192 184.639 259.385 184.734 262.572 184.996C253.046 193.813 245.57 204.738 242.431 217.468C240.221 213.524 236.557 210.921 237.731 205.357C232.584 204.351 226.698 202.385 221.224 200.824C226.127 200.407 230.666 203.487 235.539 202.998C236.563 200.931 237.236 198.721 238.273 196.666C240.078 196.392 245.135 198.453 242.276 195.844C246.339 198.828 244.903 186.36 239.887 189.75C240.316 187.832 240.269 185.884 239.911 183.96C244.111 184.931 247.244 190.959 251.784 187.641C255.477 186.736 251.891 184.156 249.907 183.555C252.284 183.388 251.569 178.122 250.419 176.978C245.326 177.657 239.512 177.371 235.932 181.881C234.282 182.762 236.033 183.007 237.028 183.322C229.099 182.703 221.152 182.846 213.212 182.81C213.242 181.452 210.054 177.949 212.056 178.444C213.873 180.487 220.45 176.793 215.791 177.842C212.05 179.337 216.53 175.525 213.253 174.333C212.348 182.947 212.973 168.358 209.578 168.549C209.125 172.296 209.006 176.102 208.178 179.802C203.788 174.983 192.535 180.457 192.499 172.361C191.588 170.11 190.486 167.858 188.865 166.035C188.979 165.302 190.033 165.332 190.539 164.951C198.617 165.219 206.582 167.101 214.641 167.292C214.88 163.378 215.928 159.47 217.888 156.063C223.762 152.405 221.349 161.573 221.087 165.201C221.826 162.479 220.062 160.835 218.585 159.077C216.381 162.181 216.351 170.014 221.986 168.561C223.363 168.698 220.795 165.255 223.148 166.661C228.855 172.475 238.392 165.237 246.118 163.515C247.614 159.357 254.833 160.167 253.541 154.836C253.201 151.631 257.467 152.536 259.152 150.755C257.169 150.708 255.274 150.821 253.32 150.982C258.08 148.623 263.519 148.337 268.553 146.824C266.485 146.746 264.966 145.591 264.978 143.428C264.4 131.985 266.098 120.559 265.508 109.098ZM241.77 166.774C241.984 171.003 237.814 171.14 235.807 174.035C235.694 176.114 239.411 175.709 240.829 174.875C244.772 172.695 252.915 176.126 254.095 172.236C249.925 170.545 245.678 168.192 241.77 166.774Z" fill="#6A6F6E"/>
<path d="M326.413 107.775C329.13 107.233 331.56 109.032 333.454 110.76C331.769 110.605 330.095 110.39 328.403 110.337C327.301 109.884 326.812 108.812 326.413 107.775Z" fill="#080806"/>
<path d="M315.262 108.526C316.018 108.157 316.787 107.799 317.555 107.454C318.776 107.769 317.907 108.52 317.466 109.139C315 111.463 319.575 114.066 321.064 111.326C321.594 113.363 322.607 114.394 324.769 114.03C349.366 130.829 373.718 148.069 398.142 165.141C400.227 168.71 402.937 171.569 406.869 173.666C409.567 173.922 413.85 181.631 415.697 177.627C416.061 177.139 416.43 176.662 416.811 176.186C424.966 179.14 431.847 185.145 440.198 188.142C445.363 190.375 446.161 196.446 449.533 200.264C449.259 199.222 448.931 198.209 448.604 197.19C451.177 191.591 460.262 185.258 454.328 179.242C451.38 173.547 442.349 171.67 442.438 164.564C442.629 164.242 443.01 163.599 443.195 163.277C443.969 162.556 444.75 161.847 445.53 161.138C453.852 160.316 457.873 170.771 466.129 172.254C473.903 175.119 473.337 186.217 480.992 189.321C482.761 184.24 491.185 172.88 495.331 181.601C485.567 186.825 476.685 193.551 467.5 199.579C468.083 201.682 469.984 205.167 472.235 202.564C473.171 205.25 470.454 209.801 474.433 210.26C477.906 214.007 475.154 213.947 471.401 212.119C469.102 216.193 474.839 213.745 473.915 216.545C469.567 215.824 469.978 220.679 469.179 223.407C471.723 223.371 473.314 221.132 474.94 219.499C477.442 217.289 475.893 225.349 478.294 222.919C479.485 221.34 478.633 211.517 480.283 218.886C480.516 221.757 477.68 230.067 483.137 226.463C478.3 224.331 484.876 218.415 483.649 217.301C479.235 215.246 487.813 212.071 486.687 209.474C483.685 206.841 481.153 210.921 478.133 210.57C479.128 206.686 478.192 202.748 477.668 198.894C483.994 194.837 489.809 190.375 496.653 185.86C497.863 197.798 489.642 208.741 493.377 220.595C494.628 226.928 502.33 231.461 499.131 238.389C496.707 240.534 494.056 242.619 490.583 241.791C497.082 238.669 495.968 229.954 490.827 226.094C483.298 222.138 485.555 233.957 478.633 231.896C475.476 231.872 477.787 239.759 472.587 235.816C474.237 233.052 466.648 228.911 468.185 233.201C468.125 234.946 468.631 236.733 469.352 238.318C468.208 243.578 476.56 247.908 474.183 251.834C470.621 247.825 473.165 254.151 476.37 253.812C477.483 259.191 469.888 263.712 465.027 261.479C456.181 257.636 447.847 253.097 439.466 248.462C436.398 251.661 433.795 255.39 430.28 258.137C427.671 253.288 431.257 246.806 425.097 244.072C423.006 246.711 420.487 248.427 419.533 251.876C414.881 253.901 411.891 249.612 412.165 245.579C413.964 241.91 418.455 240.474 421.541 238.163C424.931 239.384 426.956 243.822 431.132 243.042C428.773 234.309 422.691 227.345 420.981 218.195C422.214 213.632 410.622 208.759 417.323 206.185C420.898 207.657 422.786 203.415 425.604 201.986C426.33 203.29 428.815 203.112 427.421 201.491C433.211 199.132 425.657 192.639 423.525 189.81C420.171 186.206 414.589 196.618 412.594 191.865C409.651 191.358 407.667 194.379 404.909 194.76C401.525 193.396 408.144 193.783 406.553 190.81C403.461 189.321 400.251 188.1 397.022 186.956C398.088 187.975 399.226 188.922 400.215 190.024C392.489 187.26 386.192 181.16 379.735 176.21C385.215 175.971 391.351 184.627 395.086 180.564C387.622 177.973 379.931 174.935 372.902 171.313C370.59 165.028 368.065 154.925 359.606 155.396C357.42 149.731 355.996 143.565 352.779 138.454C344.403 132.491 336.117 126.337 327.414 120.869C327.575 123.812 327.98 126.713 328.206 129.667C328.856 135.44 328.933 140.223 323.715 135.761C327.706 142.844 336.796 146.305 342.712 152.09C358.843 164.605 375.821 176.085 391.494 189.16C390.088 191.847 387.908 194.17 386.895 197.059C389.278 199.001 391.547 201.771 394.621 202.438C396.587 200.133 398.44 197.655 399.625 194.843C407.369 200.359 412.492 208.747 418.658 215.872C413.279 219.744 417.127 228.512 418.92 233.624C410.479 238.532 401.502 245.526 393.603 252.031C387.365 247.247 395.461 237.073 389.397 231.676C381.134 231.717 387.872 220.327 382.85 216.181C380.271 213.322 382.308 221.912 379.949 219.005C378.239 215.103 373.789 210.492 378.031 206.68C375.398 201.801 369.59 199.662 365.682 195.832C365.104 195.296 364.526 194.778 363.901 194.319C355.65 188.261 347.87 181.589 339.626 175.531C340.359 172.123 344.165 173.898 345.851 175.709C347.71 173.821 344.415 172.326 344.654 170.324C345.779 171.539 347.102 171.676 348.198 170.348C346.739 172.755 349.658 174.613 351.862 174.226C351.742 176.555 354.858 175.805 355.305 178.211C356.246 175.298 361.84 169.913 356.586 168.46C354.929 170.312 353.541 172.391 351.862 174.226C348.895 171.504 353.333 169.901 355.233 168.293C356.026 167.083 350.938 163.253 351.54 166.458C353.637 168.745 349.503 169.139 348.198 170.348C348.645 167.894 352.451 165.219 349.967 163.14C348.079 164.778 347.876 169.937 344.862 168.501C344.892 167.471 345.214 166.5 345.732 165.624C346.465 164.153 349.115 161.198 346.095 160.906C344.743 159.584 343.48 158.166 341.925 157.082C339.28 155.706 334.682 149.052 333.526 154.21C334.372 156.581 337.052 162.199 332.454 160.602C323.5 161.007 336.29 156.551 331.453 154.991C329.356 156.355 324.03 154.157 324.811 157.886C324.042 157.82 323.31 157.576 322.601 157.32C320.534 144.643 309.495 137.209 301.036 128.768C302.454 127.207 303.61 125.45 304.819 123.74C306.737 125.069 310.061 130.71 310.591 125.724C311.807 121.131 313.32 116.615 314.213 111.945C313.29 111.909 312.372 111.945 311.467 111.987C311.944 110.474 315.256 112.148 314.958 109.813C315.035 109.491 315.184 108.848 315.262 108.526ZM360.321 171.641C356.645 174.667 354.56 180.773 360.612 180.743C361.309 185.395 366.873 184.544 367.499 180.04C370.191 177.985 365.944 173.136 363.841 175.656C364.264 173.529 362.149 171.712 360.321 171.641ZM465.129 191.763C464.277 193.062 463.496 194.456 463.187 195.999C465.266 194.277 469.209 194.003 465.129 191.763ZM450.337 221.632C450.111 223.401 447.394 227.112 450.528 227.16C455.389 230.436 454.4 220.399 450.337 221.632ZM447.889 228.602C447.46 232.462 450.921 231.926 453.715 230.996C454.388 227.881 449.432 228.858 447.889 228.602ZM449.813 233.159C444.053 233.183 446.06 241.391 451.273 241.219C454.894 239.318 456.539 230.002 449.813 233.159Z" fill="#252622"/>
<path d="M150.532 108.359C162.053 110.396 173.454 113.137 184.952 115.269C185.631 126.045 185.917 136.875 185.577 147.687C179.805 146.937 174.205 145.215 168.528 143.97C162.357 142.6 157.519 141.093 151.205 139.83C151.336 129.334 150.341 118.861 150.532 108.359ZM156.024 116.175C154.708 121.345 153.981 130.352 161.814 129.197C163.042 125.223 164.543 113.714 156.024 116.175ZM163.048 117.926C163.179 121.298 161.147 127.69 166.896 126.594C169.541 126.879 172.055 128.101 174.741 127.999C175.438 123.484 175.218 131.276 177.845 127.904C180.097 121.792 176.552 120.154 172.025 119.636C172.001 124.675 172.46 118.54 169.6 119.106C170.559 122.215 168.421 128.744 168.605 122.9C172.186 118.933 163.292 115.394 165.395 121.482C163.774 130.335 165.466 117.354 163.048 117.926Z" fill="#858986"/>
<path d="M198.951 109.658C213.772 110.962 228.676 112.684 243.342 115.096C243.467 121.602 243.521 128.124 243.378 134.635C231.524 122.906 212.55 119.886 197.926 111.552C197.044 110.915 198.528 110.11 198.951 109.658Z" fill="#C7CAC8"/>
<path d="M359.63 110.635C363.049 112.523 366.224 114.834 369.363 117.164C363.746 117.581 364.717 123.573 364.449 127.791C368.392 128.613 370.114 129.489 364.258 129.405C362.823 128.434 361.393 127.463 360.041 126.391C360.446 121.131 359.451 115.889 359.63 110.635Z" fill="#060606"/>
<path d="M311.467 111.987C312.372 111.945 313.29 111.909 314.213 111.945C313.32 116.615 311.807 121.131 310.591 125.724C309.263 124.836 306.523 124.133 308.024 122.161C309.406 118.855 310.824 115.531 311.467 111.987Z" fill="#E0E2E3"/>
<path d="M248.251 141.284C249.061 131.74 249.222 121.887 248.394 112.374C248.007 122.007 248.233 131.645 248.251 141.284Z" fill="#7C7D7D"/>
<path d="M185.577 147.687C185.917 136.875 185.631 126.045 184.952 115.269C185.69 115.382 186.423 115.513 187.162 115.662C187.465 118.665 190.593 119.88 192.356 121.959C199.517 128.684 206.379 135.797 214.016 141.933C224.756 142.713 235.7 142.981 246.529 143.506C246.124 141.671 244.039 141.045 242.723 139.967C244.617 140.116 246.136 141.444 247.989 141.79C247.625 145.191 247.923 149.26 247.471 152.965C249.395 152.233 251.319 151.494 253.32 150.982C255.274 150.821 257.169 150.708 259.152 150.755C257.467 152.536 253.201 151.631 253.541 154.836C254.833 160.167 247.614 159.357 246.118 163.515C238.392 165.237 228.855 172.475 223.148 166.661C220.795 165.255 223.363 168.698 221.986 168.561C216.351 170.014 216.381 162.181 218.585 159.077C220.062 160.835 221.826 162.479 221.087 165.201C221.349 161.573 223.762 152.405 217.888 156.063C206.236 154.592 194.56 153.341 182.896 152.012C181.842 151.905 180.788 151.839 179.739 151.786C179.239 151.119 178.607 150.964 177.839 151.333C169.892 150.946 162.017 149.737 154.124 148.795C153.85 146.436 158.038 147.777 159.515 146.657C162.505 145.71 165.514 144.828 168.528 143.97C174.205 145.215 179.805 146.937 185.577 147.687ZM223.19 157.225C223.19 159.006 222.255 161.823 224.87 161.603C228.515 162.985 227.175 154.329 223.19 157.225Z" fill="#C1C4C4"/>
<path d="M161.814 129.197C163.042 125.223 164.543 113.714 156.024 116.175C154.708 121.345 153.981 130.352 161.814 129.197Z" fill="#63734E"/>
<path d="M304.789 117.283C305.605 117.003 306.427 116.741 307.261 116.484C307.893 118.325 307.13 120.386 308.024 122.161C306.523 124.133 309.263 124.836 310.591 125.724C310.061 130.71 306.737 125.069 304.819 123.74C303.61 125.45 302.454 127.207 301.036 128.768C298.445 126.784 296.622 123.728 297.408 120.404C300.435 120.821 303.199 122.114 305.987 123.305C305.754 121.244 305.2 119.296 304.789 117.283Z" fill="#666866"/>
<path d="M364.449 127.791C364.717 123.573 363.746 117.581 369.363 117.164C370.841 118.111 372.169 119.296 373.426 120.547C373.039 123.019 371.061 130.269 375.112 128.095C377.292 127.13 376.768 124.348 377.37 122.4C378.019 122.882 378.662 123.389 379.312 123.895C380.378 127.118 378.144 128.023 375.928 128.905C376.673 131.8 374.951 133.563 372.568 134.451C369.28 133.813 366.867 131.276 364.258 129.405C370.114 129.489 368.392 128.613 364.449 127.791Z" fill="#C1C3C2"/>
<path d="M163.048 117.926C165.466 117.354 163.774 130.335 165.395 121.482C163.292 115.394 172.186 118.933 168.605 122.9C168.421 128.744 170.559 122.215 169.6 119.106C172.46 118.54 172.001 124.675 172.025 119.636C176.552 120.154 180.097 121.792 177.845 127.904C175.218 131.276 175.438 123.484 174.741 127.999C172.055 128.101 169.541 126.879 166.896 126.594C161.147 127.69 163.179 121.298 163.048 117.926Z" fill="#3F3E38"/>
<path d="M92.6712 120.392C95.751 121.697 99.0095 120.791 102.173 121.554C102.089 125.509 102.429 129.459 102.858 133.39C99.6826 133.492 96.5194 133.128 93.386 132.664C92.6414 128.613 92.6176 124.479 92.6712 120.392Z" fill="#9C951D"/>
<path d="M373.426 120.547C374.874 120.827 376.244 121.405 377.37 122.4C376.768 124.348 377.292 127.13 375.112 128.095C371.061 130.269 373.039 123.019 373.426 120.547Z" fill="#626658"/>
<path d="M327.414 120.869C336.117 126.337 344.403 132.491 352.779 138.454C355.996 143.565 357.42 149.731 359.606 155.396C360.63 158.964 361.923 162.473 363.597 165.791C351.665 156.998 339.727 148.182 327.944 139.216C328.445 136.178 328.891 132.831 328.206 129.667C327.98 126.713 327.575 123.812 327.414 120.869Z" fill="#B3B6B4"/>
<path d="M328.206 129.667C328.891 132.831 328.445 136.178 327.944 139.216C339.727 148.182 351.665 156.998 363.597 165.791C376.696 175.942 390.279 185.514 403.676 195.302C406.922 197.315 409.859 193.211 412.594 191.865C414.589 196.618 420.171 186.206 423.525 189.81C425.657 192.639 433.211 199.132 427.421 201.491C428.088 196.398 423.322 193.288 419.081 192.818C415.364 193.842 424.055 192.979 420.439 196.69C420.802 194.027 424.222 194.355 425.288 196.398C426.998 197.804 424.621 201.467 427.421 201.491C428.815 203.112 426.33 203.29 425.604 201.986C422.786 203.415 420.898 207.657 417.323 206.185C410.622 208.759 422.214 213.632 420.981 218.195C420.183 217.432 419.402 216.664 418.658 215.872C412.492 208.747 407.369 200.359 399.625 194.843C396.766 193.157 394.21 191.043 391.494 189.16C375.821 176.085 358.843 164.605 342.712 152.09C336.796 146.305 327.706 142.844 323.715 135.761C328.933 140.223 328.856 135.44 328.206 129.667Z" fill="#3F4140"/>
<path d="M375.529 137.12C380.354 134.933 385.787 134.856 390.106 131.258C391.601 131.949 391.809 133.432 392 135.041C398.678 134.219 403.575 141.468 408.853 144.56C404.581 146.83 399.953 148.337 395.705 150.66C388.861 146.335 382.368 141.456 375.529 137.12Z" fill="#414344"/>
<path d="M365.068 133.087C377.167 139.014 388.217 147.908 399.393 155.682C399.947 156.951 398.273 157.558 397.629 158.41C386.371 151.69 376.131 143.315 365.14 136.166C363.8 135.583 365.015 134.087 365.068 133.087Z" fill="#C7CACA"/>
<path d="M115.528 137.126C127.687 136.452 140.03 140.003 149.835 147.264C152.623 149.093 155.595 150.815 157.615 153.543C154.458 153.847 151.354 154.979 148.685 156.677C155.286 164.528 161.266 173.827 171.298 177.723C168.236 181.821 162.267 181.398 158.598 184.585C164.245 185.675 172.209 177.115 175.259 184.353C176.076 195.177 175.367 206.036 174.336 216.819C176.892 216.813 179.185 215.461 181.473 214.472C181.985 212.005 178.679 202.051 183.998 204.267C184.034 204.607 184.1 205.298 184.129 205.637C183.969 209.819 182.867 213.876 182.664 218.052C178.834 218.189 171.995 218.195 173.032 223.902C173.192 231.944 169.755 239.872 170.69 247.867C167.354 249.535 163.5 250.232 160.611 252.704C155.125 251.512 159.259 243.762 156.632 239.86C154.529 236.346 159.336 226.016 152.909 226.862C151.044 196.333 134.871 165.29 106.497 151.816C98.8606 147.467 89.9131 147.419 81.8175 144.828C92.9095 141.724 104.174 139.085 115.528 137.126Z" fill="#383A3C"/>
<path d="M294.329 142.374C299.63 139.407 306.07 138.752 311.848 140.664C311.247 143.905 314.422 152.036 309.448 152.179C312.164 149.522 311.038 145.096 311.336 141.695C309.71 139.288 299.011 146.734 306.165 144.238C302.752 147.419 301.805 155.437 308.465 152.346C309.745 156.611 302.079 163.521 303.103 156.057C303.294 155.259 303.3 154.449 303.103 153.656C302.96 150.332 303.038 147.014 302.907 143.708C300.071 143.154 296.95 143.75 294.329 142.374Z" fill="#E9EAEA"/>
<path d="M149.263 142.535C151.515 141.73 153.892 141.033 156.286 141.695C154.011 143.69 157.001 147.181 159.515 146.657C158.038 147.777 153.85 146.436 154.124 148.795C162.017 149.737 169.892 150.946 177.839 151.333C178.327 152.006 178.959 152.161 179.739 151.786C180.788 151.839 181.842 151.905 182.896 152.012C181.538 155.181 172.519 152.328 174.473 157.04C176.653 159.959 180.061 161.496 182.831 163.724C177.136 163.557 171.536 162.431 165.865 162.044C161.451 161.615 160.54 156.2 157.615 153.543C155.595 150.815 152.623 149.093 149.835 147.264C149.823 145.668 149.567 144.095 149.263 142.535Z" fill="#8E908B"/>
<path d="M306.165 144.238C299.011 146.734 309.71 139.288 311.336 141.695C311.038 145.096 312.164 149.522 309.448 152.179C309.203 152.221 308.709 152.304 308.465 152.346C301.805 155.437 302.752 147.419 306.165 144.238Z" fill="#646755"/>
<path d="M65.4535 150.803C70.8446 148.623 75.9617 145.608 81.8175 144.828C89.9131 147.419 98.8606 147.467 106.497 151.816C134.871 165.29 151.044 196.333 152.909 226.862C151.676 227.059 150.83 225.987 150.77 224.861C149.9 204.547 141.489 184.728 127.996 169.597C124.1 167.149 121.825 161.436 116.666 161.4C112.997 155.426 103.358 153.638 96.8649 150.642C91.4321 152.596 88.3702 158.559 85.6419 163.342C82.5383 166.577 71.3569 167.226 75.4852 173.237C78.5709 178.604 79.4466 167.56 83.5808 167.774C88.4596 162.729 86.7142 172.141 90.2586 173.392C91.8789 169.049 97.55 169.27 99.5396 165.541C100.052 165.916 100.582 166.279 101.112 166.655C97.3772 170.765 102.798 181.273 108.976 176.466C117.226 170.443 111.787 189.113 120.437 187.319C123.916 183.31 131.392 194.051 131.731 186.765C135.05 191.942 135.866 199.698 141.382 203.904C140.071 210.57 144.801 216.485 146.344 222.651C142.293 224.771 146.487 228.661 145.867 232.188C146.844 236.191 151.985 238.627 150.442 243.447C147.512 245.901 144.563 240.605 141.477 240.557C142.001 244.394 149.156 244.167 147.404 248.933C147.75 251.655 144.551 262.247 149.859 258.512C158.133 255.563 155.845 246.425 156.632 239.86C159.259 243.762 155.125 251.512 160.611 252.704C152.897 262.712 141.96 270.218 130.105 274.441C128.044 274.745 124.762 271.85 124.416 275.364C120.604 279.659 112.466 271.2 109.518 278.331C104.591 281.679 105.252 273.315 100.755 274.191C97.3713 272.803 95.1493 278.7 91.9623 275.954C91.5989 272.225 88.5727 268.401 84.7602 268.496C76.0689 274.983 80.1019 253.949 69.8855 258.905C64.3634 256.558 70.6004 248.701 64.6851 245.454C54.1709 245.853 63.1779 234.154 57.9834 229.471C52.2706 227.506 46.7901 233.29 40.9522 233.534C42.0066 222.18 37.5865 210.451 40.9046 199.555C40.7497 194.849 41.6373 190.25 42.5368 185.669C43.1504 182.345 44.3894 179.23 45.6226 176.114C45.8251 175.584 46.0276 175.06 46.2421 174.542C47.2012 172.629 48.053 170.664 48.8453 168.68C52.5685 163.664 55.7674 158.172 60.8189 154.323L61.2359 154.032C62.6954 153.025 64.0536 151.881 65.4535 150.803ZM95.9118 199.788C91.6287 199.811 87.5184 202.873 85.1177 206.263C85.7193 212.494 90.8186 217.534 93.9162 222.8C92.2899 226.999 96.031 230.663 98.1814 233.903C100.511 236.769 105.562 233.892 105.818 238.848C108.344 239.783 109.875 245.269 112.413 241.254C120.782 231.086 115.82 217.831 109.756 208.056C105.342 204.946 102.226 199.001 95.9118 199.788ZM112.895 209.027C113.425 210.6 114.301 212.065 115.403 213.31C115.141 211.773 114.861 209.051 112.895 209.027Z" fill="#262625"/>
<path d="M276.726 176.144C280.544 175.102 284.035 173.076 287.907 172.135C297.027 174.417 306.832 171.772 316.096 174.524C318.842 172.88 319.461 177.866 317.275 177.568C306.981 175.858 293.447 173.362 287.359 184.496C280.824 188.261 287.007 191.031 290.492 193.533C298.016 190.06 305.659 185.747 314.314 186.712C317.883 182.488 324.376 184.549 328.159 187.54C332.835 187.784 332.722 181.392 330.941 178.366C333.639 177.514 338.84 173.04 338.494 178.998C340.478 183.43 336.481 190.012 342.521 191.823C339.602 194.194 333.77 192.8 333.121 188.422C323.536 188.886 313.457 189.726 304.777 194.295C305.057 196.833 305.438 202.325 308.167 202.969C310.663 197.107 317.668 194.307 323.738 193.968C321.916 199.073 321.642 207.973 329.332 207.109C333.055 207.585 337.732 200.645 339.894 206.156C338.542 211.553 339.519 217.635 345.863 218.987C349.687 217.486 355.352 216.408 356.609 221.644C356.812 225.01 350.629 226.958 354.137 230.55C356.163 236.989 364.639 233.129 367.832 238.324C374.141 241.505 383.333 245.073 384.012 253.174C379.377 252.644 378.359 246.05 373.73 244.888C370.06 241.433 359.415 242.708 363.156 249.559C363.091 255.087 370.293 251.888 371.925 255.706C374.749 262.295 384.881 264.672 384.179 272.999C378.734 278.456 379.419 266.977 375.124 265.595C372.491 261.55 364.377 263.349 365.771 268.853C364.485 273.274 370.555 272.708 372.455 275.394C372.431 281.756 380.157 284.878 378.525 291.728C375.529 291.448 373.277 295.154 377.268 295.541C372.652 301.129 367.04 306.377 360.732 310.231C356.764 308.831 355.68 315.562 350.73 315.676C347.203 315.271 342.098 315.134 341.228 319.429C335.349 322.431 326.741 313.001 324.316 322.252C318.58 324.129 317.037 316.206 311.61 316.51C308.971 315.217 308.107 319.375 306.034 319.577C300.715 319.387 301.132 312.453 296.545 310.815C294.192 308.259 291.35 309.897 288.842 311.262C282.248 309.272 285.214 296.774 276.94 298.12C266.64 299.693 275.224 281.369 264.627 281.953C257.419 279.034 264.591 269.902 261.291 265.059C259.319 263.659 255.411 263.909 256.281 260.245C250.044 263.111 244.123 266.625 238.058 269.824C237.916 259.239 237.373 248.671 237.26 238.091C240.68 233.915 238.934 227.714 240.882 222.752C239.905 222.663 238.922 222.639 237.951 222.645C241.383 223.115 241.508 219.684 242.431 217.468C245.57 204.738 253.046 193.813 262.572 184.996C262.733 184.913 263.048 184.734 263.203 184.645C267.153 182.947 263.751 177.067 264.931 173.91C268.97 173.874 272.764 175.566 276.726 176.144ZM276.684 203.683C274.873 203.26 276.237 201.122 276.922 200.193C279.913 199.192 277.315 202.456 276.684 203.683ZM309.811 231.997C302.788 232.396 291.57 238.532 296.765 246.759C296.122 252.579 305.236 256.278 301.4 260.662C302.865 267.197 308.506 270.486 312.891 274.816C315.905 275.704 311.681 271.766 314.285 271.51C316.793 273.685 316.757 277.652 319.628 279.374C321.445 277.491 324.435 276.848 324.001 280.493C328.486 280.803 334.02 279.415 335.122 274.459C345.094 256.808 329.862 231.747 309.811 231.997Z" fill="#262625"/>
<path d="M85.6419 163.342C88.3702 158.559 91.4321 152.596 96.8649 150.642C103.358 153.638 112.997 155.426 116.666 161.4C112.103 162.08 106.08 154.776 103.066 160.584C97.3534 158.869 91.7359 160.823 86.5355 163.199C86.315 163.235 85.8683 163.307 85.6419 163.342Z" fill="#6B706E"/>
<path d="M179.739 151.786C179.239 151.119 178.607 150.964 177.839 151.333C178.327 152.006 178.959 152.161 179.739 151.786Z" fill="#A7A9A6"/>
<path d="M429.071 153.108C429.649 152.25 430.483 151.619 431.382 151.131C435.945 154.669 441.08 157.445 445.53 161.138C444.75 161.847 443.969 162.556 443.195 163.277C438.62 159.709 433.503 156.861 429.071 153.108Z" fill="#5C6A7A"/>
<path d="M182.896 152.012C194.56 153.341 206.236 154.592 217.888 156.063C215.928 159.47 214.88 163.378 214.641 167.292C206.582 167.101 198.617 165.219 190.539 164.951C187.948 164.677 185.333 164.498 182.831 163.724C180.061 161.496 176.653 159.959 174.473 157.04C172.519 152.328 181.538 155.181 182.896 152.012Z" fill="#A7A9A4"/>
<path d="M333.526 154.21C334.682 149.052 339.28 155.706 341.925 157.082C338.851 154.395 333.657 159.905 338.125 160.9C340.525 162.074 341.973 159.083 341.925 157.082C343.48 158.166 344.743 159.584 346.095 160.906C337.66 164.486 329.112 167.995 320.504 171.206C319.092 171.384 319.98 172.743 320.212 173.589C327.289 171.861 333.311 167.84 340.293 165.904C342.92 165.737 345.392 160.989 345.732 165.624C345.214 166.5 344.892 167.471 344.862 168.501C344.773 169.103 344.701 169.711 344.654 170.324C344.415 172.326 347.71 173.821 345.851 175.709C344.165 173.898 340.359 172.123 339.626 175.531C338.518 182.232 341.55 188.928 348.841 189.22C354.792 187.302 357.831 197.446 363.901 194.319C364.526 194.778 365.104 195.296 365.682 195.832C363.293 199.942 368.654 198.215 370.102 200.931C371.562 204.214 374.671 205.917 378.031 206.68C373.789 210.492 378.239 215.103 379.949 219.005C382.308 221.912 380.271 213.322 382.85 216.181C387.872 220.327 381.134 231.717 389.397 231.676C395.461 237.073 387.365 247.247 393.603 252.031C393.597 259.846 390.582 267.096 390.004 274.733C387.467 280.773 384.298 286.51 380.342 291.74C379.437 293.093 378.388 294.349 377.268 295.541C373.277 295.154 375.529 291.448 378.525 291.728C380.157 284.878 372.431 281.756 372.455 275.394C370.555 272.708 364.485 273.274 365.771 268.853C364.377 263.349 372.491 261.55 375.124 265.595C379.419 266.977 378.734 278.456 384.179 272.999C384.881 264.672 374.749 262.295 371.925 255.706C370.293 251.888 363.091 255.087 363.156 249.559C359.415 242.708 370.06 241.433 373.73 244.888C378.359 246.05 379.377 252.644 384.012 253.174C383.333 245.073 374.141 241.505 367.832 238.324C364.639 233.129 356.163 236.989 354.137 230.55C350.629 226.958 356.812 225.01 356.609 221.644C355.352 216.408 349.687 217.486 345.863 218.987C339.519 217.635 338.542 211.553 339.894 206.156C337.732 200.645 333.055 207.585 329.332 207.109C321.642 207.973 321.916 199.073 323.738 193.968C317.668 194.307 310.663 197.107 308.167 202.969C305.438 202.325 305.057 196.833 304.777 194.295C313.457 189.726 323.536 188.886 333.121 188.422C333.77 192.8 339.602 194.194 342.521 191.823C336.481 190.012 340.478 183.43 338.494 178.998C338.84 173.04 333.639 177.514 330.941 178.366C326.806 179.998 322.899 182.256 318.639 183.543C317.918 181.809 319.467 178.688 317.275 177.568C319.461 177.866 318.842 172.88 316.096 174.524C306.832 171.772 297.027 174.417 287.907 172.135C289.545 171.343 291.237 170.664 292.887 169.889C298.665 167.363 305.296 166.285 309.954 161.794C314.285 160.9 319.259 160.835 322.601 157.32C323.31 157.576 324.042 157.82 324.811 157.886C324.03 154.157 329.356 156.355 331.453 154.991C336.29 156.551 323.5 161.007 332.454 160.602C337.052 162.199 334.372 156.581 333.526 154.21Z" fill="#404142"/>
<path d="M24.0938 158.958C35.0607 155.044 47.922 151.726 59.9433 153.698C60.2649 153.781 60.9143 153.948 61.2359 154.032L60.8189 154.323C54.85 156.414 45.6583 155.896 41.5539 160.132C42.793 164.915 38.9269 174.548 46.2421 174.542C46.0276 175.06 45.8251 175.584 45.6226 176.114C36.2581 177.997 39.8383 166.5 38.3848 160.971C33.6608 160.09 28.8773 159.441 24.0938 158.958Z" fill="#D1D5DA"/>
<path d="M148.685 156.677C151.354 154.979 154.458 153.847 157.615 153.543C160.54 156.2 161.451 161.615 165.865 162.044C168.725 165.987 171.167 170.27 174.366 173.958C177.088 172.921 181.217 170.461 182.634 174.554C184.642 178.032 179.596 179.647 177.809 181.66C180.907 188.839 183.057 196.499 183.998 204.267C178.679 202.051 181.985 212.005 181.473 214.472C179.185 215.461 176.892 216.813 174.336 216.819C175.367 206.036 176.076 195.177 175.259 184.353C172.209 177.115 164.245 185.675 158.598 184.585C162.267 181.398 168.236 181.821 171.298 177.723C161.266 173.827 155.286 164.528 148.685 156.677Z" fill="#202224"/>
<path d="M41.5539 160.132C45.6583 155.896 54.85 156.414 60.8189 154.323C55.7674 158.172 52.5685 163.664 48.8453 168.68C46.528 165.725 44.0737 162.902 41.5539 160.132Z" fill="#62685F"/>
<path d="M359.606 155.396C368.065 154.925 370.59 165.028 372.902 171.313C379.931 174.935 387.622 177.973 395.086 180.564C391.351 184.627 385.215 175.971 379.735 176.21C386.192 181.16 392.489 187.26 400.215 190.024C399.226 188.922 398.088 187.975 397.022 186.956C400.251 188.1 403.461 189.321 406.553 190.81C408.144 193.783 401.525 193.396 404.909 194.76C407.667 194.379 409.651 191.358 412.594 191.865C409.859 193.211 406.922 197.315 403.676 195.302C390.279 185.514 376.696 175.942 363.597 165.791C361.923 162.473 360.63 158.964 359.606 155.396Z" fill="#6D7375"/>
<path d="M400.602 159.232C401.061 158.231 401.478 157.177 402.318 156.432C402.645 156.635 403.295 157.052 403.622 157.254C408.001 160.942 412.832 164.028 417.335 167.554C414.798 170.086 410.967 161.8 408.674 168.114C406.928 166.845 404.855 165.993 403.557 164.23C404.355 161.543 399.506 161.811 400.602 159.232Z" fill="#D4D6D5"/>
<path d="M224.87 161.603C228.515 162.985 227.175 154.329 223.19 157.225C223.19 159.006 222.255 161.823 224.87 161.603Z" fill="#A39D25"/>
<path d="M341.925 157.082C338.851 154.395 333.657 159.905 338.125 160.9C340.525 162.074 341.973 159.083 341.925 157.082Z" fill="#A9AFA6"/>
<path d="M403.622 157.254C406.547 157.368 409.055 161.877 411.885 160.078C419.516 156.617 421.273 171.754 429.106 168.15C434.855 171.027 433.02 181.744 440.735 180.922C443.886 186.086 444.732 192.317 448.604 197.19C448.931 198.209 449.259 199.222 449.533 200.264C446.161 196.446 445.363 190.375 440.198 188.142C431.847 185.145 424.966 179.14 416.811 176.186C418.068 172.171 410.312 171.605 408.674 168.114C410.967 161.8 414.798 170.086 417.335 167.554C412.832 164.028 408.001 160.942 403.622 157.254Z" fill="#414244"/>
<path d="M103.066 160.584C106.08 154.776 112.103 162.08 116.666 161.4C121.825 161.436 124.1 167.149 127.996 169.597C141.489 184.728 149.9 204.547 150.77 224.861C150.83 225.987 151.676 227.059 152.909 226.862C159.336 226.016 154.529 236.346 156.632 239.86C155.845 246.425 158.133 255.563 149.859 258.512C144.551 262.247 147.75 251.655 147.404 248.933C149.156 244.167 142.001 244.394 141.477 240.557C144.563 240.605 147.512 245.901 150.442 243.447C151.985 238.627 146.844 236.191 145.867 232.188C146.487 228.661 142.293 224.771 146.344 222.651C144.801 216.485 140.071 210.57 141.382 203.904C135.866 199.698 135.05 191.942 131.731 186.765C126.209 184.883 123.463 179.26 120.622 174.601C112.389 174.5 109.994 163.086 101.112 166.655C100.582 166.279 100.052 165.916 99.5396 165.541C96.5075 159.441 89.7225 167.31 86.5355 163.199C91.7359 160.823 97.3534 158.869 103.066 160.584Z" fill="#141516"/>
<path d="M32.0822 196.708C20.877 188.118 26.0775 170.08 24.0938 158.958C30.8432 169.442 28.2757 183.108 32.5647 194.14C37.8308 202.468 38.6469 187.981 42.5368 185.669C41.6373 190.25 40.7497 194.849 40.9046 199.555C37.8308 199.067 34.6497 198.602 32.0822 196.708Z" fill="#878A85"/>
<path d="M24.0938 158.958C28.8773 159.441 33.6608 160.09 38.3848 160.971C39.8383 166.5 36.2581 177.997 45.6226 176.114C44.3894 179.23 43.1504 182.345 42.5368 185.669C38.6469 187.981 37.8308 202.468 32.5647 194.14C28.2757 183.108 30.8432 169.442 24.0938 158.958Z" fill="#A5A9A6"/>
<path d="M346.095 160.906C349.115 161.198 346.465 164.153 345.732 165.624C345.392 160.989 342.92 165.737 340.293 165.904C333.311 167.84 327.289 171.861 320.212 173.589C319.98 172.743 319.092 171.384 320.504 171.206C329.112 167.995 337.66 164.486 346.095 160.906Z" fill="#686B64"/>
<path d="M165.865 162.044C171.536 162.431 177.136 163.557 182.831 163.724C185.333 164.498 187.948 164.677 190.539 164.951C190.033 165.332 188.979 165.302 188.865 166.035C187.138 179.212 185.851 192.454 184.129 205.637C184.1 205.298 184.034 204.607 183.998 204.267C183.057 196.499 180.907 188.839 177.809 181.66C179.596 179.647 184.642 178.032 182.634 174.554C181.217 170.461 177.088 172.921 174.366 173.958C171.167 170.27 168.725 165.987 165.865 162.044Z" fill="#4F5352"/>
<path d="M85.6419 163.342C85.8683 163.307 86.315 163.235 86.5355 163.199C89.7225 167.31 96.5075 159.441 99.5396 165.541C97.55 169.27 91.8789 169.049 90.2586 173.392C86.7142 172.141 88.4596 162.729 83.5808 167.774C79.4466 167.56 78.5709 178.604 75.4852 173.237C71.3569 167.226 82.5383 166.577 85.6419 163.342Z" fill="#3E3F40"/>
<path d="M344.862 168.501C347.876 169.937 348.079 164.778 349.967 163.14C352.451 165.219 348.645 167.894 348.198 170.348C347.102 171.676 345.779 171.539 344.654 170.324C344.701 169.711 344.773 169.103 344.862 168.501Z" fill="#9FA29F"/>
<path d="M401.502 167.757C399.297 166.518 402.353 164.909 403.557 164.23C404.855 165.993 406.928 166.845 408.674 168.114C410.312 171.605 418.068 172.171 416.811 176.186C416.43 176.662 416.061 177.139 415.697 177.627C411.223 173.988 406.267 170.985 401.502 167.757Z" fill="#5F6E7E"/>
<path d="M351.54 166.458C350.938 163.253 356.026 167.083 355.233 168.293C353.333 169.901 348.895 171.504 351.862 174.226C349.658 174.613 346.739 172.755 348.198 170.348C349.503 169.139 353.637 168.745 351.54 166.458Z" fill="#A3A6A3"/>
<path d="M101.112 166.655C109.994 163.086 112.389 174.5 120.622 174.601C123.463 179.26 126.209 184.883 131.731 186.765C131.392 194.051 123.916 183.31 120.437 187.319C111.787 189.113 117.226 170.443 108.976 176.466C102.798 181.273 97.3772 170.765 101.112 166.655Z" fill="#373738"/>
<path d="M188.865 166.035C190.486 167.858 191.588 170.11 192.499 172.361C192.535 180.457 203.788 174.983 208.178 179.802C209.006 176.102 209.125 172.296 209.578 168.549C212.973 168.358 212.348 182.947 213.253 174.333C216.53 175.525 212.05 179.337 215.791 177.842C220.45 176.793 213.873 180.487 212.056 178.444C210.054 177.949 213.242 181.452 213.212 182.81C212.533 187.731 211.985 192.681 211.347 197.613C214.272 199.329 218.013 199.531 221.224 200.824C226.698 202.385 232.584 204.351 237.731 205.357C236.557 210.921 240.221 213.524 242.431 217.468C241.508 219.684 241.383 223.115 237.951 222.645C237.23 222.692 236.516 222.758 235.807 222.835C227.02 223.622 218.275 224.825 209.518 225.808C206.79 226.725 203.18 227.607 202.793 231.002C201.81 233.838 203.305 228.179 202.537 227.267C196.752 226.362 190.944 225.552 185.154 224.67C186.226 227.19 183.516 228 181.52 228.167C181.628 224.765 182.444 221.441 182.664 218.052C182.867 213.876 183.969 209.819 184.129 205.637C185.851 192.454 187.138 179.212 188.865 166.035ZM188.52 180.475C193.065 185.658 190.325 192.067 190.462 198.173C195.079 200.437 201.232 198.346 205.235 201.884C206.218 198.018 207.01 193.968 207.028 189.976C206.957 187.772 209.697 182.232 205.92 182.804C200.839 181.374 194.239 180.755 188.52 180.475ZM185.637 202.432C188.121 206.596 189.926 210.778 188.532 215.723C186.155 217.099 189.127 222.883 192.982 220.798C197.336 223.127 200.172 220.047 204.014 218.951C206.337 213.757 199.296 218.963 198.742 214.972C200.672 211.362 198.98 202.409 204.699 206.06C207.374 202.73 199.326 204.13 196.604 203.946C192.952 203.398 189.342 202.504 185.637 202.432ZM209.977 207.824C211.544 210.349 215.458 210.093 217.179 212.047C215.505 215.061 208.696 212.268 209.405 216.688C213.492 215.669 218.329 215.413 221.426 212.232C217.376 211.416 213.831 209.188 209.977 207.824Z" fill="#CBCECE"/>
<path d="M241.77 166.774C245.678 168.192 249.925 170.545 254.095 172.236C252.915 176.126 244.772 172.695 240.829 174.875C239.411 175.709 235.694 176.114 235.807 174.035C237.814 171.14 241.984 171.003 241.77 166.774Z" fill="#C5C8C8"/>
<path d="M360.321 171.641C362.149 171.712 364.264 173.529 363.841 175.656C365.944 173.136 370.191 177.985 367.499 180.04C366.873 184.544 361.309 185.395 360.612 180.743C354.56 180.773 356.645 174.667 360.321 171.641Z" fill="#979996"/>
<path d="M253.052 174.697C256.192 173.183 259.718 174.375 263.001 174.613C263.173 177.943 263.15 181.291 263.203 184.645C263.048 184.734 262.733 184.913 262.572 184.996C259.385 184.734 256.192 184.639 253.011 184.532C252.772 181.249 252.886 177.955 253.052 174.697Z" fill="#66630D"/>
<path d="M287.359 184.496C293.447 173.362 306.981 175.858 317.275 177.568C319.467 178.688 317.918 181.809 318.639 183.543C322.899 182.256 326.806 179.998 330.941 178.366C332.722 181.392 332.835 187.784 328.159 187.54C324.376 184.549 317.883 182.488 314.314 186.712C305.659 185.747 298.016 190.06 290.492 193.533C287.007 191.031 280.824 188.261 287.359 184.496Z" fill="#636864"/>
<path d="M348.841 189.22C341.55 188.928 338.518 182.232 339.626 175.531C347.87 181.589 355.65 188.261 363.901 194.319C357.831 197.446 354.792 187.302 348.841 189.22Z" fill="#D6DADE"/>
<path d="M235.932 181.881C239.512 177.371 245.326 177.657 250.419 176.978C251.569 178.122 252.284 183.388 249.907 183.555C245.606 183.453 241.311 183.489 237.028 183.322C236.033 183.007 234.282 182.762 235.932 181.881Z" fill="#C8CAC9"/>
<path d="M188.52 180.475C194.239 180.755 200.839 181.374 205.92 182.804C203.597 182.518 200.726 182.137 202.03 184.883C201.971 187.909 206.617 184.067 206.605 187.462C199.165 187.468 203.901 188.302 207.028 189.976C207.01 193.968 206.218 198.018 205.235 201.884C201.232 198.346 195.079 200.437 190.462 198.173C190.325 192.067 193.065 185.658 188.52 180.475Z" fill="#616665"/>
<path d="M467.5 199.579C476.685 193.551 485.567 186.825 495.331 181.601C496.623 182.393 498.107 184.591 496.653 185.86C489.809 190.375 483.994 194.837 477.668 198.894C475.815 200.062 473.963 201.223 472.235 202.564C469.984 205.167 468.083 201.682 467.5 199.579Z" fill="#434546"/>
<path d="M202.03 184.883C200.726 182.137 203.597 182.518 205.92 182.804C209.697 182.232 206.957 187.772 207.028 189.976C203.901 188.302 199.165 187.468 206.605 187.462C206.617 184.067 201.971 187.909 202.03 184.883Z" fill="#1E2121"/>
<path d="M213.212 182.81C221.152 182.846 229.099 182.703 237.028 183.322C241.311 183.489 245.606 183.453 249.907 183.555C251.891 184.156 255.477 186.736 251.784 187.641C247.244 190.959 244.111 184.931 239.911 183.96C240.269 185.884 240.316 187.832 239.887 189.75C244.903 186.36 246.339 198.828 242.276 195.844C245.135 198.453 240.078 196.392 238.273 196.666C237.236 198.721 236.563 200.931 235.539 202.998C230.666 203.487 226.127 200.407 221.224 200.824C218.013 199.531 214.272 199.329 211.347 197.613C211.985 192.681 212.533 187.731 213.212 182.81Z" fill="#202220"/>
<path d="M391.494 189.16C394.21 191.043 396.766 193.157 399.625 194.843C398.44 197.655 396.587 200.133 394.621 202.438C391.547 201.771 389.278 199.001 386.895 197.059C387.908 194.17 390.088 191.847 391.494 189.16Z" fill="#99920C"/>
<path d="M463.187 195.999C465.266 194.277 469.209 194.003 465.129 191.763C464.277 193.062 463.496 194.456 463.187 195.999Z" fill="#080808"/>
<path d="M419.081 192.818C423.322 193.288 428.088 196.398 427.421 201.491C424.621 201.467 426.998 197.804 425.288 196.398C424.222 194.355 420.802 194.027 420.439 196.69C424.055 192.979 415.364 193.842 419.081 192.818Z" fill="#8E9394"/>
<path d="M365.682 195.832C369.59 199.662 375.398 201.801 378.031 206.68C374.671 205.917 371.562 204.214 370.102 200.931C368.654 198.215 363.293 199.942 365.682 195.832Z" fill="#ACAEAD"/>
<path d="M32.0822 196.708C34.6497 198.602 37.8308 199.067 40.9046 199.555C37.5865 210.451 42.0066 222.18 40.9522 233.534C46.7901 233.29 52.2706 227.506 57.9834 229.471C63.1779 234.154 54.1709 245.853 64.6851 245.454C70.6004 248.701 64.3634 256.558 69.8855 258.905C80.1019 253.949 76.0689 274.983 84.7602 268.496C88.5727 268.401 91.5989 272.225 91.9623 275.954C95.1493 278.7 97.3713 272.803 100.755 274.191C105.252 273.315 104.591 281.679 109.518 278.331C112.466 271.2 120.604 279.659 124.416 275.364C124.762 271.85 128.044 274.745 130.105 274.441C141.96 270.218 152.897 262.712 160.611 252.704C163.5 250.232 167.354 249.535 170.69 247.867C173.317 247.652 176.743 243.375 179.024 245.966C185.559 245.085 193.416 246.812 200.279 248.391C200.279 248.766 200.279 249.523 200.279 249.904C202.948 250.285 209.054 247.057 207.159 242.446C207.302 239.974 207.785 235.458 210.924 237.972C220.479 236.018 228.706 229.382 235.807 222.835C236.516 222.758 237.23 222.692 237.951 222.645C238.922 222.639 239.905 222.663 240.882 222.752C238.934 227.714 240.68 233.915 237.26 238.091C237.373 248.671 237.916 259.239 238.058 269.824C244.123 266.625 250.044 263.111 256.281 260.245C255.411 263.909 259.319 263.659 261.291 265.059C264.591 269.902 257.419 279.034 264.627 281.953C275.224 281.369 266.64 299.693 276.94 298.12C285.214 296.774 282.248 309.272 288.842 311.262C291.35 309.897 294.192 308.259 296.545 310.815C301.132 312.453 300.715 319.387 306.034 319.577C297.522 323.896 290.439 312.227 281.336 315.312C272.842 308.521 261.047 310.1 253.07 303.011C248.65 300.122 242.514 301.403 238.517 297.959C235.05 291.99 226.996 293.504 222.171 289.268C218.549 288.369 215.195 294.32 211.27 291.806C202.465 285.033 190.14 279.338 186.864 268.049C189.026 261.365 198.134 263.099 201.703 257.988C189.372 256.85 176.093 258.941 163.572 256.141C166.294 263.969 175.349 268.305 179.149 275.728C177.863 278.551 174.044 278.176 171.53 277.402C164.781 274.924 156.685 276.514 151.056 271.57C145.337 273.131 140.22 277.938 133.864 275.799C126.751 280.267 116.863 282.173 108.999 279.522C104.818 283.567 100.386 277.67 95.751 277.628C90.3301 281.161 86.041 272.684 80.2984 274.238C76.1881 275.108 73.7159 270.873 70.1655 269.669C62.0937 270.182 57.9238 262.181 50.0069 261.878C46.1766 255.956 37.7593 252.472 31.3495 256.153C24.91 253.079 20.6328 245.949 18.4227 239.277C11.7747 235.845 3.19658 231.944 0.408691 224.67C8.90342 221.388 18.107 216.902 27.4655 219.452C27.6561 218.528 32.249 220.959 31.9035 219.207C27.8825 213.054 19.9299 209.509 16.451 203.141C19.9775 198.811 28.1804 200.896 32.0822 196.708Z" fill="black"/>
<path d="M95.9118 199.788C102.226 199.001 105.342 204.946 109.756 208.056C115.82 217.831 120.782 231.086 112.413 241.254C109.875 245.269 108.344 239.783 105.818 238.848C105.562 233.892 100.511 236.769 98.1814 233.903C96.031 230.663 92.2899 226.999 93.9162 222.8C90.8186 217.534 85.7193 212.494 85.1177 206.263C87.5184 202.873 91.6287 199.811 95.9118 199.788Z" fill="#161613"/>
<path d="M185.637 202.432C189.342 202.504 192.952 203.398 196.604 203.946C191.588 206.781 190.283 211.833 188.836 216.902C188.758 216.61 188.609 216.015 188.532 215.723C189.926 210.778 188.121 206.596 185.637 202.432Z" fill="#717572"/>
<path d="M196.604 203.946C199.326 204.13 207.374 202.73 204.699 206.06C198.98 202.409 200.672 211.362 198.742 214.972C199.296 218.963 206.337 213.757 204.014 218.951C200.172 220.047 197.336 223.127 192.982 220.798C189.127 222.883 186.155 217.099 188.532 215.723C188.609 216.015 188.758 216.61 188.836 216.902C190.283 211.833 191.588 206.781 196.604 203.946Z" fill="#AAADAB"/>
<path d="M209.977 207.824C213.831 209.188 217.376 211.416 221.426 212.232C218.329 215.413 213.492 215.669 209.405 216.688C208.696 212.268 215.505 215.061 217.179 212.047C215.458 210.093 211.544 210.349 209.977 207.824Z" fill="#8D8F88"/>
<path d="M478.133 210.57C481.153 210.921 483.685 206.841 486.687 209.474C487.813 212.071 479.235 215.246 483.649 217.301C484.876 218.415 478.3 224.331 483.137 226.463C477.68 230.067 480.516 221.757 480.283 218.886C478.633 211.517 479.485 221.34 478.294 222.919C475.893 225.349 477.442 217.289 474.94 219.499C473.314 221.132 471.723 223.371 469.179 223.407C469.978 220.679 469.567 215.824 473.915 216.545C474.839 213.745 469.102 216.193 471.401 212.119C475.154 213.947 477.906 214.007 474.433 210.26C475.661 210.326 476.894 210.433 478.133 210.57Z" fill="#5A5D5B"/>
<path d="M115.403 213.31C115.141 211.773 114.861 209.051 112.895 209.027C113.425 210.6 114.301 212.065 115.403 213.31Z" fill="#BEBDBE"/>
<path d="M418.92 233.624C417.127 228.512 413.279 219.744 418.658 215.872C419.402 216.664 420.183 217.432 420.981 218.195C422.691 227.345 428.773 234.309 431.132 243.042C426.956 243.822 424.931 239.384 421.541 238.163C418.455 240.474 413.964 241.91 412.165 245.579C411.891 249.612 414.881 253.901 419.533 251.876C420.487 248.427 423.006 246.711 425.097 244.072C431.257 246.806 427.671 253.288 430.28 258.137C427.176 261.884 421.767 263.718 417.812 266.965C413.696 269.419 408.4 268.556 404.855 272.213C398.958 274.268 393.585 268.436 390.004 274.733C390.582 267.096 393.597 259.846 393.603 252.031C401.502 245.526 410.479 238.532 418.92 233.624Z" fill="#1B1C19"/>
<path d="M173.032 223.902C171.995 218.195 178.834 218.189 182.664 218.052C182.444 221.441 181.628 224.765 181.52 228.167C183.516 228 186.226 227.19 185.154 224.67C190.944 225.552 196.752 226.362 202.537 227.267C203.305 228.179 201.81 233.838 202.793 231.002C203.18 227.607 206.79 226.725 209.518 225.808C218.275 224.825 227.02 223.622 235.807 222.835C228.706 229.382 220.479 236.018 210.924 237.972C207.785 235.458 207.302 239.974 207.159 242.446C209.054 247.057 202.948 250.285 200.279 249.904C201.143 247.98 201.095 245.818 201.31 243.768C204.747 238.758 196.8 236.56 194.989 240.468C191.856 244.608 185.786 231.717 186.888 241.123C184.201 237.466 177.338 241.558 179.024 245.966C176.743 243.375 173.317 247.652 170.69 247.867C169.755 239.872 173.192 231.944 173.032 223.902Z" fill="#212221"/>
<path d="M450.528 227.16C455.389 230.436 454.4 220.399 450.337 221.632C450.111 223.401 447.394 227.112 450.528 227.16Z" fill="#050505"/>
<path d="M478.633 231.896C485.555 233.957 483.298 222.138 490.827 226.094C495.968 229.954 497.082 238.669 490.583 241.791C485.782 245.728 480.992 249.678 476.37 253.812C473.165 254.151 470.621 247.825 474.183 251.834C476.56 247.908 468.208 243.578 469.352 238.318C470.317 237.341 471.336 236.405 472.587 235.816C477.787 239.759 475.476 231.872 478.633 231.896Z" fill="#444543"/>
<path d="M453.715 230.996C454.388 227.881 449.432 228.858 447.889 228.602C447.46 232.462 450.921 231.926 453.715 230.996Z" fill="#050505"/>
<path d="M468.185 233.201C466.648 228.911 474.237 233.052 472.587 235.816C471.336 236.405 470.317 237.341 469.352 238.318C468.631 236.733 468.125 234.946 468.185 233.201Z" fill="#060605"/>
<path d="M309.811 231.997C329.862 231.747 345.094 256.808 335.122 274.459C334.02 279.415 328.486 280.803 324.001 280.493C324.435 276.848 321.445 277.491 319.628 279.374C316.757 277.652 316.793 273.685 314.285 271.51C311.681 271.766 315.905 275.704 312.891 274.816C308.506 270.486 302.865 267.197 301.4 260.662C305.236 256.278 296.122 252.579 296.765 246.759C291.57 238.532 302.788 232.396 309.811 231.997Z" fill="#131411"/>
<path d="M451.273 241.219C454.894 239.318 456.539 230.002 449.813 233.159C444.053 233.183 446.06 241.391 451.273 241.219Z" fill="#030302"/>
<path d="M186.888 241.123C185.786 231.717 191.856 244.608 194.989 240.468C196.8 236.56 204.747 238.758 201.31 243.768C196.532 242.738 191.623 242.333 186.888 241.123Z" fill="#090909"/>
<path d="M179.024 245.966C177.338 241.558 184.201 237.466 186.888 241.123C191.623 242.333 196.532 242.738 201.31 243.768C201.095 245.818 201.143 247.98 200.279 249.904C200.279 249.523 200.279 248.766 200.279 248.391C193.416 246.812 185.559 245.085 179.024 245.966Z" fill="#BDC1C3"/>
<path d="M404.855 272.213C408.4 268.556 413.696 269.419 417.812 266.965C421.779 271.969 430.22 269.336 434.926 273.679C436.046 274.346 437.411 275.603 435.439 276.562C426.777 280.38 419.301 287.421 412.034 293.647C410.395 300.944 402.949 298.936 397.933 296.971C392.209 294.796 385.715 294.844 380.342 291.74C384.298 286.51 387.467 280.773 390.004 274.733C393.585 268.436 398.958 274.268 404.855 272.213Z" fill="black"/>
<path d="M341.228 319.429C342.098 315.134 347.203 315.271 350.73 315.676C346.512 318.547 342.372 322.514 336.731 322.621C332.883 324.933 327.801 325.338 324.316 322.252C326.741 313.001 335.349 322.431 341.228 319.429Z" fill="#010101"/>
</svg>
